#N canvas 0 24 1024 664 12;
#N canvas 0 24 1016 660 mix 0;
#X obj 245 -2 r~ ch1;
#X obj 236 151 env~;
#X obj 236 184 - 100;
#X obj 236 214 s \$0-v1;
#X obj 380 171 env~;
#X obj 380 204 - 100;
#X obj 541 163 env~;
#X obj 541 196 - 100;
#X obj 700 164 env~;
#X obj 700 197 - 100;
#X obj 380 234 s \$0-v2;
#X obj 541 226 s \$0-v3;
#X obj 700 227 s \$0-v4;
#X obj 406 -17 r~ ch2;
#X obj 559 -17 r~ ch3;
#X obj 747 -14 r~ ch4;
#X obj 275 89 *~ 0;
#X obj 300 51 r \$0-ch1;
#X obj 274 136 *~ 0;
#X obj 313 135 *~ 0;
#X obj 378 32 r \$0-p1;
#X obj 378 60 * -1;
#X obj 378 87 + 1;
#X obj 422 95 *~ 0;
#X obj 421 142 *~ 0;
#X obj 460 141 *~ 0;
#X obj 525 66 * -1;
#X obj 525 93 + 1;
#X obj 583 91 *~ 0;
#X obj 582 138 *~ 0;
#X obj 621 137 *~ 0;
#X obj 686 62 * -1;
#X obj 686 89 + 1;
#X obj 764 80 *~ 0;
#X obj 763 127 *~ 0;
#X obj 802 126 *~ 0;
#X obj 867 51 * -1;
#X obj 867 78 + 1;
#X obj 447 57 r \$0-ch2;
#X obj 525 38 r \$0-p2;
#X obj 686 34 r \$0-p3;
#X obj 867 23 r \$0-p4;
#X obj 789 42 r \$0-ch4;
#X obj 608 53 r \$0-ch3;
#X obj 240 418 env~;
#X obj 240 451 - 100;
#X obj 279 356 *~ 0;
#X obj 278 403 *~ 0;
#X obj 317 402 *~ 0;
#X obj 382 327 * -1;
#X obj 382 354 + 1;
#X obj 382 299 r \$0-p5;
#X obj 304 318 r \$0-ch5;
#X obj 249 265 r~ ch5;
#X obj 454 420 env~;
#X obj 454 453 - 100;
#X obj 493 358 *~ 0;
#X obj 492 405 *~ 0;
#X obj 531 404 *~ 0;
#X obj 596 329 * -1;
#X obj 596 356 + 1;
#X obj 463 267 r~ ch6;
#X obj 596 301 r \$0-p6;
#X obj 518 320 r \$0-ch6;
#X obj 240 481 s \$0-v5;
#X obj 454 483 s \$0-v6;
#X obj 654 419 env~;
#X obj 654 452 - 100;
#X obj 693 357 *~ 0;
#X obj 692 404 *~ 0;
#X obj 731 403 *~ 0;
#X obj 796 328 * -1;
#X obj 796 355 + 1;
#X obj 796 300 r \$0-p7;
#X obj 718 319 r \$0-ch7;
#X obj 663 266 r~ ch7;
#X obj 654 482 s \$0-v7;
#X obj 486 578 outlet~;
#X obj 551 579 outlet~;
#X connect 0 0 16 0;
#X connect 1 0 2 0;
#X connect 2 0 3 0;
#X connect 4 0 5 0;
#X connect 5 0 10 0;
#X connect 6 0 7 0;
#X connect 7 0 11 0;
#X connect 8 0 9 0;
#X connect 9 0 12 0;
#X connect 13 0 23 0;
#X connect 14 0 28 0;
#X connect 15 0 33 0;
#X connect 16 0 18 0;
#X connect 16 0 19 0;
#X connect 16 0 1 0;
#X connect 17 0 16 1;
#X connect 18 0 77 0;
#X connect 19 0 78 0;
#X connect 20 0 21 0;
#X connect 20 0 19 1;
#X connect 21 0 22 0;
#X connect 22 0 18 1;
#X connect 23 0 24 0;
#X connect 23 0 25 0;
#X connect 23 0 4 0;
#X connect 24 0 77 0;
#X connect 25 0 78 0;
#X connect 26 0 27 0;
#X connect 27 0 24 1;
#X connect 28 0 29 0;
#X connect 28 0 30 0;
#X connect 28 0 6 0;
#X connect 29 0 77 0;
#X connect 30 0 78 0;
#X connect 31 0 32 0;
#X connect 32 0 29 1;
#X connect 33 0 34 0;
#X connect 33 0 35 0;
#X connect 33 0 8 0;
#X connect 34 0 77 0;
#X connect 35 0 78 0;
#X connect 36 0 37 0;
#X connect 37 0 34 1;
#X connect 38 0 23 1;
#X connect 39 0 26 0;
#X connect 39 0 25 1;
#X connect 40 0 31 0;
#X connect 40 0 30 1;
#X connect 41 0 36 0;
#X connect 41 0 35 1;
#X connect 42 0 33 1;
#X connect 43 0 28 1;
#X connect 44 0 45 0;
#X connect 45 0 64 0;
#X connect 46 0 47 0;
#X connect 46 0 48 0;
#X connect 46 0 44 0;
#X connect 47 0 77 0;
#X connect 48 0 78 0;
#X connect 49 0 50 0;
#X connect 50 0 47 1;
#X connect 51 0 49 0;
#X connect 51 0 48 1;
#X connect 52 0 46 1;
#X connect 53 0 46 0;
#X connect 54 0 55 0;
#X connect 55 0 65 0;
#X connect 56 0 57 0;
#X connect 56 0 58 0;
#X connect 56 0 54 0;
#X connect 57 0 77 0;
#X connect 58 0 78 0;
#X connect 59 0 60 0;
#X connect 60 0 57 1;
#X connect 61 0 56 0;
#X connect 62 0 59 0;
#X connect 62 0 58 1;
#X connect 63 0 56 1;
#X connect 66 0 67 0;
#X connect 67 0 76 0;
#X connect 68 0 69 0;
#X connect 68 0 70 0;
#X connect 68 0 66 0;
#X connect 69 0 77 0;
#X connect 70 0 78 0;
#X connect 71 0 72 0;
#X connect 72 0 69 1;
#X connect 73 0 71 0;
#X connect 73 0 70 1;
#X connect 74 0 68 1;
#X connect 75 0 68 0;
#X restore 310 -192 pd mix;
#X obj 849 -217 init;
#X obj 849 -186 pack \$0;
#X obj 102 102 cnv 15 320 140 empty empty empty 20 12 0 14 -1 -66577
0;
#X obj 104 105 cnv 15 316 136 empty empty empty 20 12 0 14 -99865 -66577
0;
#X obj 130 142 vu 8 80 \$0-v1 empty -1 -8 0 10 -66577 -1 0 0;
#X obj 111 142 vsl 15 80 0 1.5 0 0 \$0-ch1 \$0-chr1 empty 0 -9 0 10
-260097 -262144 -1 560 1;
#X obj 114 112 knob 22 22 0 1 0 0 \$0-p1 \$0-pr1 empty 0 -8 192 8 -262144
-262144 -1 1050 1;
#X obj 164 142 vu 8 80 \$0-v2 empty -1 -8 0 10 -66577 -1 0 0;
#X obj 145 142 vsl 15 80 0 1.5 0 0 \$0-ch2 \$0-chr2 empty 0 -9 0 10
-260097 -262144 -1 6283 1;
#X obj 148 112 knob 22 22 0 1 0 0 \$0-p2 \$0-pr2 empty 0 -8 192 8 -262144
-262144 -1 1050 1;
#X obj 198 142 vu 8 80 \$0-v3 empty -1 -8 0 10 -66577 -1 0 0;
#X obj 179 142 vsl 15 80 0 1.5 0 0 \$0-ch3 \$0-chr3 empty 0 -9 0 10
-260097 -262144 -1 6905 1;
#X obj 182 112 knob 22 22 0 1 0 0 \$0-p3 \$0-pr3 empty 0 -8 192 8 -262144
-262144 -1 1050 1;
#X obj 231 142 vu 8 80 \$0-v4 empty -1 -8 0 10 -66577 -1 0 0;
#X obj 212 142 vsl 15 80 0 1.5 0 0 \$0-ch4 \$0-chr4 empty 0 -9 0 10
-260097 -262144 -1 6594 1;
#X obj 215 112 knob 22 22 0 1 0 0 \$0-p4 \$0-pr4 empty 0 -8 192 8 -262144
-262144 -1 1050 1;
#X obj 262 142 vu 8 80 \$0-v5 empty -1 -8 0 10 -66577 -1 0 0;
#X obj 243 142 vsl 15 80 0 1.5 0 0 \$0-ch5 \$0-chr5 empty 0 -9 0 10
-260097 -262144 -1 7776 1;
#X obj 246 112 knob 22 22 0 1 0 0 \$0-p5 \$0-pr5 empty 0 -8 192 8 -262144
-262144 -262144 1050 1;
#X obj 295 142 vu 8 80 \$0-v6 empty -1 -8 0 10 -66577 -1 0 0;
#X obj 276 142 vsl 15 80 0 1.5 0 0 \$0-ch6 \$0-chr6 empty 0 -9 0 10
-260097 -262144 -1 7838 1;
#X obj 279 112 knob 22 22 0 1 0 0 \$0-p6 \$0-pr6 empty 0 -8 192 8 -262144
-262144 -1 1050 1;
#X obj 308 142 vsl 15 80 0 1.5 0 0 \$0-ch7 \$0-chr7 empty 0 -9 0 10
-260097 -262144 -1 6531 1;
#X obj 311 112 knob 22 22 0 1 0 0 \$0-p7 \$0-pr7 empty 0 -8 192 8 -262144
-262144 -1 1050 1;
#X obj 348 112 vsl 22 120 0 1.5 0 0 \$0-mmix \$0-mmix_r empty 0 -9
0 10 -260097 -262144 -1 8953 1;
#X obj 374 113 vu 15 120 \$0-vmain empty -1 -8 0 10 -66577 -262144
1 0;
#X obj 309 -93 *~ 0;
#X obj 352 -94 *~ 0;
#X obj 390 -156 r \$0-mmix;
#N canvas 0 63 1016 660 midicontrol 0;
#X obj 173 315 s \$0-chr1;
#X obj 245 314 s \$0-chr2;
#X obj 234 580 s \$0-pr1;
#X obj 317 315 s \$0-chr3;
#X obj 389 314 s \$0-chr4;
#X obj 463 312 s \$0-chr5;
#X obj 535 311 s \$0-chr6;
#X obj 607 312 s \$0-chr7;
#X obj 300 579 s \$0-pr2;
#X obj 367 578 s \$0-pr3;
#X obj 433 577 s \$0-pr4;
#X obj 497 577 s \$0-pr5;
#X obj 563 576 s \$0-pr6;
#X obj 630 575 s \$0-pr7;
#X obj 174 195 / 127;
#X obj 174 227 * 1.5;
#X obj 248 196 / 127;
#X obj 248 228 * 1.5;
#X obj 327 195 / 127;
#X obj 327 227 * 1.5;
#X obj 401 196 / 127;
#X obj 401 228 * 1.5;
#X obj 471 194 / 127;
#X obj 471 226 * 1.5;
#X obj 545 195 / 127;
#X obj 545 227 * 1.5;
#X obj 624 194 / 127;
#X obj 624 226 * 1.5;
#X obj 197 510 / 127;
#X obj 271 511 / 127;
#X obj 350 510 / 127;
#X obj 424 511 / 127;
#X obj 494 509 / 127;
#X obj 568 510 / 127;
#X obj 647 509 / 127;
#X obj 712 226 / 127;
#X obj 717 305 s \$0-mmix_r;
#X obj 714 262 * 1.5;
#X obj 249 9 ctlin;
#X obj 249 55 pack f f;
#X obj 452 70 route 2 3 4 5 6 8 9 12 14 15 16 17 18 19 20;
#X connect 14 0 15 0;
#X connect 15 0 0 0;
#X connect 16 0 17 0;
#X connect 17 0 1 0;
#X connect 18 0 19 0;
#X connect 19 0 3 0;
#X connect 20 0 21 0;
#X connect 21 0 4 0;
#X connect 22 0 23 0;
#X connect 23 0 5 0;
#X connect 24 0 25 0;
#X connect 25 0 6 0;
#X connect 26 0 27 0;
#X connect 27 0 7 0;
#X connect 28 0 2 0;
#X connect 29 0 8 0;
#X connect 30 0 9 0;
#X connect 31 0 10 0;
#X connect 32 0 11 0;
#X connect 33 0 12 0;
#X connect 34 0 13 0;
#X connect 35 0 37 0;
#X connect 37 0 36 0;
#X connect 38 0 39 1;
#X connect 38 1 39 0;
#X connect 39 0 40 0;
#X connect 40 0 14 0;
#X connect 40 1 16 0;
#X connect 40 2 18 0;
#X connect 40 3 20 0;
#X connect 40 4 22 0;
#X connect 40 5 24 0;
#X connect 40 6 26 0;
#X connect 40 7 35 0;
#X connect 40 8 28 0;
#X connect 40 9 29 0;
#X connect 40 10 30 0;
#X connect 40 11 31 0;
#X connect 40 12 32 0;
#X connect 40 13 33 0;
#X connect 40 14 34 0;
#X restore 551 -156 pd midicontrol;
#X obj 328 142 vu 8 80 \$0-v7 empty -1 -8 0 10 -66577 -1 0 0;
#X obj 317 -20 s~ mixL;
#X obj 377 -23 s~ mixR;
#X obj 220 -56 env~;
#X obj 220 -23 - 100;
#X obj 222 18 s \$0-vmain;
#X msg 849 -156 \; \$1-chr1 1 \; \$1-chr2 1 \; \$1-chr3 1 \; \$1-chr4
1 \; \$1-chr5 1 \; \$1-chr6 1 \; \$1-chr7 1 \; \$1-pr1 0.5 \; \$1-pr2
0.5 \; \$1-pr3 0.5 \; \$1-pr4 0.5 \; \$1-pr5 0.5 \; \$1-pr6 0.5 \;
\$1-pr7 0.5 \; \$1-mmix_r 1 \;;
#X obj 805 -229 bng 15 250 50 0 empty empty empty 17 7 0 10 -262144
-1 -1;
#X connect 0 0 27 0;
#X connect 0 1 28 0;
#X connect 1 0 2 0;
#X connect 2 0 37 0;
#X connect 27 0 32 0;
#X connect 27 0 34 0;
#X connect 28 0 33 0;
#X connect 29 0 27 1;
#X connect 29 0 28 1;
#X connect 34 0 35 0;
#X connect 35 0 36 0;
#X connect 38 0 2 0;
#X coords 0 -1 1 1 324 144 2 100 100;
