#N canvas 387 91 637 531 12;
#N canvas 108 183 770 585 samp 0;
#X obj 331 38 inlet;
#X obj 331 99 route open;
#X obj 331 128 pack s \$0;
#X obj 331 184 soundfiler;
#X msg 331 154 read -resize \$1 \$2-sample;
#X obj 331 212 / 44.1;
#X obj 530 194 inlet;
#X obj 20 101 expr 1/(1.00012 * (exp(0.057762265 * $f1)));
#X obj 20 67 - 60;
#X obj 331 242 t b f;
#X obj 20 20 r \$0-pitch;
#X obj 331 310 s \$0-pitch_r;
#X msg 331 272 60;
#X obj 198 282 pack f f f;
#X msg 181 209 0;
#X obj 162 312 gate 2 1;
#X msg 145 346 \$1 \, \$2 \$3;
#X obj 71 249 r \$0-reverse;
#X obj 107 279 + 1;
#X obj 145 385 line~;
#X obj 405 127 table \$0-sample;
#X obj 20 131 *;
#X obj 144 415 tabread~ \$0-sample;
#X msg 225 347 \$2 \, \$1 \$3;
#X obj 502 306 spigot;
#X obj 562 258 > 0;
#X obj 530 229 t f f;
#X obj 144 486 outlet~;
#X obj 564 319 s \$0-blink;
#X obj 564 289 sel 1;
#X obj 144 448 *~ 1;
#X obj 502 340 t f f;
#X obj 501 386 > 0;
#X obj 503 417 sel 1;
#X obj 503 447 s \$0-blink_r;
#X obj 191 165 r \$0-blink;
#X connect 0 0 1 0;
#X connect 1 0 2 0;
#X connect 2 0 4 0;
#X connect 3 0 5 0;
#X connect 3 0 13 1;
#X connect 4 0 3 0;
#X connect 5 0 9 0;
#X connect 6 0 26 0;
#X connect 7 0 21 0;
#X connect 8 0 7 0;
#X connect 9 0 12 0;
#X connect 9 1 21 1;
#X connect 10 0 8 0;
#X connect 12 0 11 0;
#X connect 13 0 15 1;
#X connect 14 0 13 0;
#X connect 15 0 16 0;
#X connect 15 1 23 0;
#X connect 16 0 19 0;
#X connect 17 0 18 0;
#X connect 18 0 15 0;
#X connect 19 0 22 0;
#X connect 21 0 13 2;
#X connect 22 0 30 0;
#X connect 23 0 19 0;
#X connect 24 0 31 0;
#X connect 25 0 24 1;
#X connect 25 0 29 0;
#X connect 26 0 24 0;
#X connect 26 1 25 0;
#X connect 29 0 28 0;
#X connect 30 0 27 0;
#X connect 31 0 32 0;
#X connect 31 1 30 1;
#X connect 32 0 33 0;
#X connect 33 0 34 0;
#X connect 35 0 14 0;
#X restore 408 442 pd samp;
#X obj 399 353 inlet;
#X obj 490 356 inlet;
#X obj 102 102 cnv 15 62 52 empty empty empty 20 12 0 14 -1 -66577
0;
#X obj 104 104 cnv 15 58 48 empty empty empty 20 12 0 14 -233017 -66577
0;
#X obj 128 131 nbx 2 16 48 72 0 0 \$0-pitch \$0-pitch_r pitch 0 -8
0 10 -262144 -1 -1 60 256;
#X obj 108 133 tgl 15 0 \$0-reverse \$0-rev_r empty 17 7 0 10 -262144
-1 -1 0 1;
#X obj 108 108 bng 15 250 50 0 \$0-blink \$0-blink_r empty 17 7 0 10
-1 -257985 -1;
#X obj 407 470 outlet~;
#X connect 0 0 8 0;
#X connect 1 0 0 0;
#X connect 2 0 0 1;
#X coords 0 -1 1 1 66 56 2 100 100;
