#N canvas 352 79 711 580 12;
#N canvas 0 54 1016 660 sseq 0;
#X obj 51 92 gemwin;
#X msg 64 63 0 \, destroy;
#X obj 32 -4 sel 1 0;
#N canvas 128 175 785 593 grid 0;
#X obj 237 12 init;
#X obj 66 260 curve 2;
#X obj 65 103 repeat 16;
#X obj 65 70 t b a;
#X obj 66 129 gemlist;
#X obj 65 39 gemhead 55;
#X msg 219 150 -8 4 0;
#X msg 277 149 -8 -4 0;
#X obj 66 205 color 0.5 0.5 0.5;
#X obj 66 166 translateXYZ 1 0 0;
#X obj 350 264 curve 2;
#X obj 349 74 t b a;
#X obj 350 133 gemlist;
#X obj 349 43 gemhead 55;
#X obj 350 209 color 0.5 0.5 0.5;
#X msg 220 222 -8 4 0;
#X msg 278 221 8 4 0;
#X obj 463 276 outlet;
#X obj 152 483 curve 2;
#X obj 151 293 t b a;
#X obj 152 352 gemlist;
#X obj 151 262 gemhead 55;
#X obj 152 428 color 0.5 0.5 0.5;
#X msg 347 413 width 3;
#X obj 151 326 repeat 3;
#X obj 152 389 translateXYZ 4 0 0;
#X msg 269 319 -8 4 0;
#X msg 335 319 -8 -4 0;
#X obj 599 115 inlet;
#X obj 546 224 translateXYZ;
#X obj 546 368 curve 2;
#X msg 579 315 -8 4 0;
#X obj 546 190 gemhead 60;
#X msg 646 315 -8 -4 0;
#X obj 546 283 alpha 1;
#X obj 349 107 repeat 7;
#X obj 350 170 translateXYZ 0 -1.15 0;
#X obj 546 252 color 0 1 1;
#X obj 449 101 s \$0-ppat_r;
#X msg 505 29 120;
#X obj 505 56 s \$0-bpm_r;
#X connect 0 0 6 0;
#X connect 0 0 7 0;
#X connect 0 0 15 0;
#X connect 0 0 16 0;
#X connect 0 0 17 0;
#X connect 0 0 23 0;
#X connect 0 0 26 0;
#X connect 0 0 27 0;
#X connect 0 0 31 0;
#X connect 0 0 33 0;
#X connect 0 0 38 0;
#X connect 0 0 39 0;
#X connect 2 0 4 0;
#X connect 3 0 2 0;
#X connect 3 1 4 1;
#X connect 4 0 9 0;
#X connect 5 0 3 0;
#X connect 6 0 1 1;
#X connect 7 0 1 2;
#X connect 8 0 1 0;
#X connect 9 0 8 0;
#X connect 11 0 35 0;
#X connect 11 1 12 1;
#X connect 12 0 36 0;
#X connect 13 0 11 0;
#X connect 14 0 10 0;
#X connect 15 0 10 1;
#X connect 16 0 10 2;
#X connect 19 0 24 0;
#X connect 19 1 20 1;
#X connect 20 0 25 0;
#X connect 21 0 19 0;
#X connect 22 0 18 0;
#X connect 23 0 18 0;
#X connect 24 0 20 0;
#X connect 25 0 22 0;
#X connect 26 0 18 1;
#X connect 27 0 18 2;
#X connect 28 0 29 1;
#X connect 29 0 37 0;
#X connect 31 0 30 1;
#X connect 32 0 29 0;
#X connect 33 0 30 2;
#X connect 34 0 30 0;
#X connect 35 0 12 0;
#X connect 36 0 14 0;
#X connect 37 0 34 0;
#X connect 39 0 40 0;
#X restore 375 0 pd grid;
#X obj 464 -19 gemmouse 1 1;
#X obj 464 34 * 16;
#X obj 503 103 * -1;
#X obj 464 66 i;
#X obj 503 65 i;
#X obj 481 198 +;
#X obj 502 168 * 16;
#X obj 196 68 gemhead;
#X obj 194 237 rectangle 8 4;
#X obj 218 162 pix_texture;
#X msg 353 116 quality 0;
#X msg 315 73 grey;
#N canvas 264 196 464 437 read 0;
#X obj 132 14 inlet;
#X obj 132 48 t b b;
#X obj 132 104 until;
#X obj 134 142 i;
#X obj 170 141 + 1;
#X msg 204 98 0;
#X obj 133 176 t f f;
#X obj 184 240 list prepend;
#X obj 329 238 t l;
#X obj 161 297 list;
#X obj 162 335 outlet;
#X msg 131 77 112;
#X obj 80 233 sel 111;
#X obj 165 203 tabread \$0-pat1;
#X obj 303 103 inlet;
#X connect 0 0 1 0;
#X connect 1 0 11 0;
#X connect 1 1 5 0;
#X connect 1 1 7 1;
#X connect 2 0 3 0;
#X connect 3 0 4 0;
#X connect 3 0 6 0;
#X connect 4 0 3 1;
#X connect 5 0 3 1;
#X connect 6 0 12 0;
#X connect 6 1 13 0;
#X connect 7 0 8 0;
#X connect 7 0 9 1;
#X connect 8 0 7 1;
#X connect 9 0 10 0;
#X connect 11 0 2 0;
#X connect 12 0 9 0;
#X connect 13 0 7 0;
#X connect 14 0 13 0;
#X restore 360 241 pd read;
#X obj 56 269 metro 125;
#X obj 56 298 i;
#X obj 95 298 + 1;
#X obj 56 325 % 16;
#X obj 361 182 t b b;
#X obj 504 33 * 7;
#X obj 503 138 + 6;
#X obj 218 114 pix_set 16 7;
#X obj 486 325 tabwrite \$0-pat1;
#X obj 625 206 prepend set;
#X obj 625 158 makefilename \$0-pat%d;
#X msg 193 322 const 0;
#X obj 342 148 r \$0-clear;
#N canvas 405 159 584 478 patterns 0;
#X obj 46 50 table \$0-pat1 112;
#X obj 46 78 table \$0-pat2 112;
#X obj 46 106 table \$0-pat3 112;
#X obj 46 133 table \$0-pat4 112;
#X obj 46 162 table \$0-pat5 112;
#X obj 46 192 table \$0-pat6 112;
#X obj 47 220 table \$0-pat7 112;
#X obj 47 250 table \$0-pat8 112;
#X obj 176 50 table \$0-pat9 112;
#X obj 176 77 table \$0-pat10 112;
#X obj 176 104 table \$0-pat11 112;
#X obj 176 133 table \$0-pat12 112;
#X obj 176 163 table \$0-pat13 112;
#X obj 176 193 table \$0-pat14 112;
#X obj 176 220 table \$0-pat15 112;
#X obj 177 249 table \$0-pat16 112;
#X restore 598 250 pd patterns;
#X obj 562 101 metro 10;
#X obj 557 129 i;
#X obj 595 128 + 1;
#X obj 537 236 t b f;
#X msg 621 51 0;
#X obj 555 52 t f b;
#X obj 556 157 % 100;
#X obj 556 186 / 100;
#X obj 671 43 sel 1;
#X obj 671 71 t b b;
#X msg 698 101 0;
#X obj 195 199 color 0.2 0.8 1;
#X obj 617 -78 r \$0-ppat;
#X obj 618 -20 t b f;
#X obj 193 366 s;
#X obj 35 -40 r \$0-show;
#X obj 61 147 r \$0-start;
#N canvas 0 24 1016 660 out 0;
#X obj 212 74 inlet;
#X obj 47 317 tabread \$0-pat1;
#X obj 526 26 inlet;
#X obj 167 316 tabread \$0-pat1;
#X obj 287 316 tabread \$0-pat1;
#X obj 406 316 tabread \$0-pat1;
#X obj 526 315 tabread \$0-pat1;
#X obj 646 315 tabread \$0-pat1;
#X obj 764 314 tabread \$0-pat1;
#X obj 212 107 t f f f f f f f;
#X obj 361 455 pack f f f f f f f;
#X obj 646 284 + 16;
#X obj 526 284 + 32;
#X obj 406 285 + 48;
#X obj 287 285 + 64;
#X obj 167 285 + 80;
#X obj 47 286 + 96;
#X obj 360 487 outlet;
#X connect 0 0 9 0;
#X connect 1 0 10 0;
#X connect 2 0 1 0;
#X connect 2 0 3 0;
#X connect 2 0 4 0;
#X connect 2 0 5 0;
#X connect 2 0 6 0;
#X connect 2 0 7 0;
#X connect 2 0 8 0;
#X connect 3 0 10 1;
#X connect 4 0 10 2;
#X connect 5 0 10 3;
#X connect 6 0 10 4;
#X connect 7 0 10 5;
#X connect 8 0 10 6;
#X connect 9 0 16 0;
#X connect 9 1 15 0;
#X connect 9 2 14 0;
#X connect 9 3 13 0;
#X connect 9 4 12 0;
#X connect 9 5 11 0;
#X connect 9 6 8 0;
#X connect 10 0 17 0;
#X connect 11 0 7 0;
#X connect 12 0 6 0;
#X connect 13 0 5 0;
#X connect 14 0 4 0;
#X connect 15 0 3 0;
#X connect 16 0 1 0;
#X restore 56 354 pd out;
#X obj 61 186 t f b;
#X msg 140 267 0;
#X obj 57 387 s tosamps;
#X obj 617 -53 + 1;
#X obj 680 323 r \$0-copy;
#X obj 781 306 r \$0-paste;
#X obj 757 453 symbol;
#X obj 683 507 arraycopy;
#X msg 650 462 copy \$1;
#X obj 662 425 symbol;
#X obj 701 392 symbol;
#X obj 773 344 t b b b;
#X obj 274 313 r \$0-bpm;
#X msg 274 346 15000 \$1;
#X obj 274 374 /;
#X msg 32 37 dimen 300 150 \, title seq_16 \, create \, 1;
#X connect 1 0 0 0;
#X connect 2 0 64 0;
#X connect 2 1 1 0;
#X connect 3 0 15 0;
#X connect 3 0 14 0;
#X connect 4 0 5 0;
#X connect 4 1 22 0;
#X connect 4 2 36 0;
#X connect 4 4 39 0;
#X connect 5 0 7 0;
#X connect 6 0 23 0;
#X connect 7 0 9 0;
#X connect 8 0 6 0;
#X connect 9 0 25 1;
#X connect 10 0 9 1;
#X connect 11 0 24 0;
#X connect 13 0 42 0;
#X connect 14 0 13 0;
#X connect 15 0 24 0;
#X connect 16 0 24 1;
#X connect 17 0 18 0;
#X connect 18 0 19 0;
#X connect 18 0 20 0;
#X connect 19 0 18 1;
#X connect 20 0 3 0;
#X connect 20 0 48 0;
#X connect 21 0 16 0;
#X connect 21 1 28 0;
#X connect 22 0 8 0;
#X connect 23 0 10 0;
#X connect 24 0 13 0;
#X connect 26 0 25 0;
#X connect 26 0 16 1;
#X connect 26 0 48 1;
#X connect 27 0 26 0;
#X connect 27 0 45 1;
#X connect 27 0 59 1;
#X connect 27 0 55 1;
#X connect 28 0 45 0;
#X connect 29 0 21 0;
#X connect 31 0 32 0;
#X connect 32 0 33 0;
#X connect 32 0 37 0;
#X connect 33 0 32 1;
#X connect 34 0 16 0;
#X connect 34 1 25 0;
#X connect 35 0 32 1;
#X connect 36 0 31 0;
#X connect 36 1 35 0;
#X connect 37 0 38 0;
#X connect 38 0 34 0;
#X connect 39 0 40 0;
#X connect 40 0 16 0;
#X connect 40 1 41 0;
#X connect 41 0 25 0;
#X connect 42 0 12 0;
#X connect 43 0 52 0;
#X connect 44 0 16 0;
#X connect 44 1 27 0;
#X connect 46 0 2 0;
#X connect 47 0 49 0;
#X connect 48 0 51 0;
#X connect 49 0 17 0;
#X connect 49 1 50 0;
#X connect 50 0 18 1;
#X connect 52 0 44 0;
#X connect 53 0 59 0;
#X connect 54 0 60 0;
#X connect 55 0 56 1;
#X connect 57 0 56 0;
#X connect 58 0 57 0;
#X connect 59 0 58 1;
#X connect 60 0 16 0;
#X connect 60 1 58 0;
#X connect 60 2 55 0;
#X connect 61 0 62 0;
#X connect 62 0 63 0;
#X connect 63 0 17 1;
#X connect 64 0 0 0;
#X restore 416 255 pd sseq;
#X obj 102 102 cnv 15 256 96 empty empty empty 20 12 0 14 -1 -66577
0;
#X obj 104 104 cnv 15 252 92 empty empty empty 20 12 0 14 -233017 -66577
0;
#X obj 111 162 bng 15 250 50 0 \$0-clear empty clear 17 7 0 10 -262144
-1 -1;
#X obj 215 113 tgl 15 0 \$0-show \$0-show_r show/hide_sequencer 17
7 0 10 -262144 -1 -1 1 1;
#X obj 111 106 tgl 22 0 \$0-start \$0-start_r START 23 11 0 10 -262144
-1 -1 1 1;
#X obj 111 143 hradio 15 1 0 16 \$0-ppat \$0-ppat_r pattern 0 -8 0
10 -262144 -1 -1 0;
#X obj 111 180 bng 15 250 50 0 \$0-copy empty copy 17 7 0 10 -262144
-1 -1;
#X obj 165 180 bng 15 250 50 0 \$0-paste empty paste 17 7 0 10 -262144
-1 -1;
#X obj 171 122 nbx 3 16 80 180 0 0 \$0-bpm \$0-bpm_r BPM 0 -8 0 10
-262144 -1 -1 120 256;
#X coords 0 -1 1 1 260 100 2 100 100;
