#N canvas 0 22 300 368 10;
#N canvas 0 22 1009 720 oboe 0;
#N canvas 0 22 456 361 tube 0;
#N canvas 107 87 647 382 body 0;
#X obj 203 326 hip~ 200;
#X obj 204 305 lop~ 6000;
#X obj 10 238 bp~ 1 1;
#X obj 75 237 bp~ 1 1;
#X obj 139 237 bp~ 1 1;
#X obj 213 239 bp~ 1 1;
#X obj 278 237 bp~ 1 1;
#X obj 352 239 bp~ 1 1;
#X obj 275 69 unpack f f f f f f f;
#X obj 211 10 inlet~;
#X obj 203 351 outlet~;
#X obj 410 101 clip 0.01 200;
#X obj 213 69 *~ 0.1;
#X obj 212 37 hip~ 6;
#X obj 275 11 loadbang;
#X obj 370 11 inlet;
#X text 425 239 Here they are!;
#X msg 275 40 2141.73 1858.27 1700.79 1007.87 850.394 566.929 6;
#X obj 203 282 *~ 3;
#X text 432 72 wooden tube \, ajf 2005;
#X connect 0 0 10 0;
#X connect 1 0 0 0;
#X connect 2 0 18 0;
#X connect 3 0 18 0;
#X connect 4 0 18 0;
#X connect 5 0 18 0;
#X connect 6 0 18 0;
#X connect 7 0 18 0;
#X connect 8 0 2 1;
#X connect 8 1 3 1;
#X connect 8 2 4 1;
#X connect 8 3 5 1;
#X connect 8 4 6 1;
#X connect 8 5 7 1;
#X connect 8 6 11 0;
#X connect 9 0 13 0;
#X connect 11 0 2 2;
#X connect 11 0 3 2;
#X connect 11 0 4 2;
#X connect 11 0 5 2;
#X connect 11 0 6 2;
#X connect 11 0 7 2;
#X connect 12 0 2 0;
#X connect 12 0 3 0;
#X connect 12 0 4 0;
#X connect 12 0 5 0;
#X connect 12 0 6 0;
#X connect 12 0 7 0;
#X connect 13 0 12 0;
#X connect 14 0 17 0;
#X connect 15 0 8 0;
#X connect 17 0 8 0;
#X connect 18 0 1 0;
#X restore -10 292 pd body resonance;
#X obj -9 246 inlet~;
#X obj -9 329 outlet~;
#X obj 104 128 vsl 15 64 100 1000 0 1 empty empty empty 0 -8 0 8 -262144
-1 -1 2000 1;
#X obj 124 128 vsl 15 64 100 1000 0 1 empty empty empty 0 -8 0 8 -262144
-1 -1 2100 1;
#X obj 144 128 vsl 15 64 100 1000 0 1 empty empty empty 0 -8 0 8 -262144
-1 -1 2900 1;
#X obj 164 128 vsl 15 64 100 1000 0 1 empty empty empty 0 -8 0 8 -262144
-1 -1 3500 1;
#X obj 184 128 vsl 15 64 100 1000 0 1 empty empty empty 0 -8 0 8 -262144
-1 -1 4600 1;
#X obj 204 128 vsl 15 64 100 1000 0 1 empty empty empty 0 -8 0 8 -262144
-1 -1 5700 1;
#X obj 118 235 t b;
#X obj 225 128 vsl 15 64 2 60 0 1 empty empty Q 5 5 0 8 -241291 -1
-1 2800 1;
#X obj 104 261 pack f f f f f f f;
#X connect 0 0 2 0;
#X connect 1 0 0 0;
#X connect 3 0 11 0;
#X connect 4 0 9 0;
#X connect 4 0 11 1;
#X connect 5 0 9 0;
#X connect 5 0 11 2;
#X connect 6 0 9 0;
#X connect 6 0 11 3;
#X connect 7 0 9 0;
#X connect 7 0 11 4;
#X connect 8 0 9 0;
#X connect 8 0 11 5;
#X connect 9 0 11 0;
#X connect 10 0 11 6;
#X connect 10 0 9 0;
#X connect 11 0 0 1;
#X coords 0 -1 1 1 150 100 1 100 100;
#X restore 107 212 pd tube;
#N canvas 0 22 552 541 reedpulse 0;
#X obj 101 359 *~;
#X obj 117 126 vsl 12 48 1 32 1 1 empty empty width 0 -8 1 8 -241291
-1 -1 1800 1;
#X obj 70 487 *~;
#X obj 170 157 tgl 15 1 empty empty empty 0 -6 0 8 -260818 -1 -1 1
1;
#X obj 100 267 osc~ 323;
#X obj 71 437 /~;
#X obj 49 406 sig~ 1;
#X obj 99 406 +~ 1;
#X obj 100 385 *~;
#X obj 70 509 outlet~;
#X obj 104 74 mtof;
#X obj 104 50 inlet;
#X obj 156 71 inlet~;
#X obj 70 466 *~;
#X obj 85 329 *~;
#X obj 147 125 vsl 12 48 0.01 1 1 1 empty empty mod 0 -8 1 8 -24198
-1 -1 900 1;
#X obj 184 288 *~ 32;
#X obj 100 308 *~;
#X obj 99 245 +~;
#X obj 105 184 sig~;
#X obj 115 203 osc~ 4;
#X obj 116 225 *~ 1;
#X connect 0 0 8 0;
#X connect 0 0 8 1;
#X connect 1 0 0 1;
#X connect 2 0 9 0;
#X connect 3 0 2 1;
#X connect 4 0 14 0;
#X connect 5 0 13 0;
#X connect 6 0 5 0;
#X connect 7 0 5 1;
#X connect 8 0 7 0;
#X connect 10 0 19 0;
#X connect 11 0 10 0;
#X connect 12 0 13 1;
#X connect 12 0 17 0;
#X connect 13 0 2 0;
#X connect 14 0 0 0;
#X connect 15 0 16 0;
#X connect 16 0 17 1;
#X connect 17 0 14 1;
#X connect 18 0 4 0;
#X connect 19 0 18 0;
#X connect 20 0 21 0;
#X connect 21 0 18 1;
#X coords 0 -1 1 1 100 80 1 100 100;
#X restore 107 132 pd reedpulse;
#X obj -24 99 ead~ 400 5000;
#X obj -320 -117 inlet;
#X obj 105 377 outlet~;
#X obj -165 -346 r \$0-time;
#X obj -181 -17 unpack f f f f f f f f;
#X obj -182 28 f;
#X obj -152 28 f;
#X obj -122 28 f;
#X obj -95 29 f;
#X obj -65 29 f;
#X obj -35 29 f;
#X obj -127 -38 sel 0 1 2 3 4 5;
#X obj -127 -60 mod 6;
#X obj -89 72 t b f;
#X obj -121 102 - 24;
#X obj -165 -278 sel 0;
#X obj -165 -323 t b;
#X obj -165 -236 sel 0;
#X obj -165 -257 random 2;
#X msg -135 -215 1;
#X msg -165 -215 -1;
#X obj -127 -174 +;
#X obj -157 -195 t b f;
#X obj -157 -173 f 0;
#X obj -165 -299 random 3;
#X obj 107 117 tgl 15 0 empty empty empty 0 -6 0 8 -260818 -1 -1 0.4
0.4;
#X obj 355 28 line~;
#X msg 356 7 \$1 330;
#X obj 105 361 *~;
#X obj 383 -56 r \$0-oboe-M;
#N canvas 682 109 513 501 scan 0;
#X obj 38 26 inlet;
#X obj 38 52 t b b b;
#X obj 93 160 metro 80;
#X obj 144 138 r \$0-period;
#X msg 82 74 1;
#X msg 114 73 0;
#X obj 63 131 t f f;
#X obj 93 186 f 0;
#X obj 122 187 + 1;
#X obj 173 216 sel 3;
#X obj 53 274 outlet;
#X connect 0 0 1 0;
#X connect 1 2 4 0;
#X connect 2 0 7 0;
#X connect 3 0 2 1;
#X connect 4 0 2 0;
#X connect 5 0 6 0;
#X connect 6 0 7 1;
#X connect 6 1 2 0;
#X connect 7 0 8 0;
#X connect 7 0 9 0;
#X connect 7 0 10 0;
#X connect 8 0 7 1;
#X connect 9 0 5 0;
#X restore -127 -127 pd scan 4;
#X obj -127 -147 bng 15 250 50 0 empty empty empty 0 -6 0 8 -262144
-1 -1;
#X obj -127 -83 +;
#X obj -127 -105 t b f;
#X obj -95 -235 sel 0;
#X obj -95 -257 random 20;
#X text -22 -257 trill;
#X text -93 -175 wander;
#X text -77 -343 wandertrill reed;
#X floatatom -240 -129 5 0 0 0 - - -;
#X floatatom 211 153 5 0 0 1 Att - -;
#X floatatom 212 174 5 0 0 1 Dec - -;
#X connect 0 0 30 0;
#X connect 1 0 0 0;
#X connect 2 0 1 1;
#X connect 3 0 6 0;
#X connect 3 0 41 0;
#X connect 5 0 18 0;
#X connect 6 0 7 1;
#X connect 6 1 8 1;
#X connect 6 2 9 1;
#X connect 6 3 10 1;
#X connect 6 4 11 1;
#X connect 6 5 12 1;
#X connect 7 0 15 0;
#X connect 8 0 15 0;
#X connect 9 0 15 0;
#X connect 10 0 15 0;
#X connect 11 0 15 0;
#X connect 12 0 15 0;
#X connect 13 0 7 0;
#X connect 13 1 8 0;
#X connect 13 2 9 0;
#X connect 13 3 10 0;
#X connect 13 4 11 0;
#X connect 13 5 12 0;
#X connect 14 0 13 0;
#X connect 15 0 2 0;
#X connect 15 1 16 0;
#X connect 16 0 1 0;
#X connect 17 0 20 0;
#X connect 17 0 37 0;
#X connect 18 0 26 0;
#X connect 19 0 22 0;
#X connect 19 1 21 0;
#X connect 20 0 19 0;
#X connect 21 0 24 0;
#X connect 22 0 24 0;
#X connect 23 0 25 1;
#X connect 24 0 25 0;
#X connect 24 1 23 1;
#X connect 25 0 23 0;
#X connect 25 0 34 0;
#X connect 26 0 17 0;
#X connect 27 0 29 0;
#X connect 28 0 30 1;
#X connect 29 0 28 0;
#X connect 30 0 4 0;
#X connect 31 0 29 0;
#X connect 32 0 35 0;
#X connect 33 0 32 0;
#X connect 34 0 14 0;
#X connect 35 0 34 0;
#X connect 35 1 34 1;
#X connect 36 0 33 0;
#X connect 37 0 36 0;
#X connect 41 0 18 0;
#X connect 41 0 7 0;
#X connect 42 0 2 1;
#X connect 43 0 2 2;
#X coords 0 -1 1 1 170 220 1 100 100;
#X restore -4 49 pd oboe;
#N canvas 0 22 450 300 (subpatch) 0;
#X obj 59 155 inlet;
#X obj 3 89 inlet~;
#X obj 58 182 change;
#X msg 60 246 set \$1;
#X obj 60 227 tosymbol;
#X obj 59 204 sprintf Bus%d;
#X obj 3 282 throw~ Bus0;
#X obj 2 3 popup 124 25 #ffffff popup Bus0 Bus1 Bus2 Bus3 Bus4 Bus5
Bus6 Bus7 Bus8 Bus9 Bus10 Bus11 Bus12 Bus13 Bus14 Bus15 Bus16;
#X obj 1 32 route bang;
#X obj 154 202 *~;
#X obj 141 7 tgl 15 0 empty empty Dac 19 7 0 10 -262144 -1 -1 1 1;
#X obj 155 238 dac~;
#X obj 1 -49 loadbang;
#X text 59 -51 Bus0 mutes;
#X msg 1 -31 options Bus0 Bus1 Bus2 Bus3 Bus4 Bus5 Bus6 Bus7 Bus8 Bus9
Bus10 Bus11 Bus12 Bus13 Bus14 Bus15 Bus16;
#X connect 0 0 2 0;
#X connect 1 0 6 0;
#X connect 1 0 9 0;
#X connect 2 0 5 0;
#X connect 3 0 6 0;
#X connect 4 0 3 0;
#X connect 5 0 4 0;
#X connect 7 0 8 0;
#X connect 8 1 2 0;
#X connect 9 0 11 0;
#X connect 9 0 11 1;
#X connect 10 0 9 1;
#X connect 12 0 14 0;
#X connect 14 0 7 0;
#X coords 0 1 100 -1 180 30 1 0 0;
#X restore -4 269 graph;
#X obj -59 -8 notein;
#X floatatom -4 33 5 0 0 0 - - -;
#N canvas 0 22 450 300 (subpatch) 0;
#X obj -30 22 spigot;
#X obj 2 3 tgl 15 0 empty empty empty 17 7 0 10 -262144 -1 -1 0 1;
#X obj -58 0 inlet;
#X obj -54 54 outlet;
#X connect 0 0 3 0;
#X connect 1 0 0 1;
#X connect 2 0 0 0;
#X coords 0 1 100 -1 20 20 1 0 0;
#X restore -4 -9 graph;
#N canvas 0 22 450 300 (subpatch) 0;
#X obj -30 22 spigot;
#X obj 2 3 tgl 15 0 empty empty empty 17 7 0 10 -262144 -1 -1 0 1;
#X obj -58 0 inlet;
#X obj -54 54 outlet;
#X connect 0 0 3 0;
#X connect 1 0 0 1;
#X connect 2 0 0 0;
#X coords 0 1 100 -1 20 20 1 0 0;
#X restore -59 13 graph;
#X obj -4 -29 r note;
#X connect 0 0 1 0;
#X connect 2 0 5 0;
#X connect 3 0 0 0;
#X connect 4 0 3 0;
#X connect 5 0 3 0;
#X connect 6 0 4 0;
