#N canvas 0 22 489 335 10;
#X declare -path z_syn_abs;
#X declare -path ../FX/z_rjdj_abs;
#N canvas 0 22 170 363 voices 0;
#X obj 17 0 syn-road 36;
#X obj 18 17 syn-road 37;
#X obj 17 34 syn-road 38;
#X obj 17 51 syn-road 39;
#X obj 17 67 syn-road 40;
#X obj 17 85 syn-road 41;
#X obj 17 102 syn-road 42;
#X obj 17 119 syn-road 43;
#X obj 17 136 syn-road 44;
#X obj 17 153 syn-road 45;
#X obj 17 170 syn-road 46;
#X obj 17 187 syn-road 47;
#X obj 17 204 syn-road 48;
#X obj 17 221 syn-road 49;
#X obj 17 238 syn-road 50;
#X obj 17 254 syn-road 51;
#X obj 17 272 syn-road 52;
#X obj 17 289 syn-road 53;
#X obj 17 306 syn-road 54;
#X obj 17 323 syn-road 55;
#X obj 17 340 syn-road 56;
#X obj 17 357 syn-road 57;
#X obj 17 374 syn-road 58;
#X obj 17 391 syn-road 59;
#X obj 17 408 syn-road 60;
#X obj 17 425 syn-road 61;
#X obj 17 442 syn-road 62;
#X obj 17 459 syn-road 63;
#X obj 17 476 syn-road 64;
#X obj 17 493 syn-road 65;
#X obj 17 509 syn-road 66;
#X obj 17 527 syn-road 67;
#X obj 17 544 syn-road 68;
#X obj 17 561 syn-road 69;
#X obj 17 578 syn-road 70;
#X obj 17 595 syn-road 71;
#X obj 17 612 syn-road 72;
#X obj 17 629 syn-road 73;
#X obj 17 646 syn-road 74;
#X obj 17 663 syn-road 75;
#X obj 17 680 syn-road 76;
#X obj 17 697 syn-road 77;
#X obj 17 714 syn-road 78;
#X obj 17 731 syn-road 79;
#X obj 17 748 syn-road 80;
#X obj 17 765 syn-road 81;
#X obj 17 780 syn-road 82;
#X obj 17 799 syn-road 83;
#X obj 17 816 syn-road 84;
#X obj 17 833 syn-road 85;
#X obj 17 850 syn-road 86;
#X obj 17 867 syn-road 87;
#X obj 17 884 syn-road 88;
#X obj 17 901 syn-road 89;
#X obj 17 918 syn-road 90;
#X obj 17 935 syn-road 91;
#X obj 17 952 syn-road 92;
#X obj 17 969 syn-road 93;
#X obj 17 986 syn-road 94;
#X obj 17 1003 syn-road 95;
#X obj 17 1020 syn-road 96;
#X restore 11 74 pd voices;
#N canvas 0 22 454 496 create 0;
#X obj 88 108 until;
#X obj 88 76 t f b;
#X obj 88 139 f;
#X obj 120 139 + 1;
#X obj 86 306 s pd-voices;
#X obj 87 167 t f f;
#X msg 87 278 obj 17 \$1 road \$2;
#X obj 70 206 * 17;
#X obj 87 247 pack;
#X obj 129 110 0;
#X msg 223 157 clear;
#X obj 110 207 + 36;
#X msg 88 44 61;
#X text 90 11 61 midi voices \, starting at midi-note 36;
#X text 150 210 lowest midi-key;
#X text 124 46 nr of midi-keys;
#X text 85 381 then save and reload patch;
#X connect 0 0 2 0;
#X connect 1 0 0 0;
#X connect 1 1 9 0;
#X connect 1 1 10 0;
#X connect 2 0 3 0;
#X connect 2 0 5 0;
#X connect 3 0 2 1;
#X connect 5 0 7 0;
#X connect 5 1 11 0;
#X connect 6 0 4 0;
#X connect 7 0 8 0;
#X connect 8 0 6 0;
#X connect 9 0 2 1;
#X connect 10 0 4 0;
#X connect 11 0 8 1;
#X connect 12 0 1 0;
#X restore 11 97 pd create voices;
#N canvas 0 22 1024 720 midi 0;
#X msg 37 360 \; voice-\$1 \$2;
#X obj 37 113 notein;
#X obj 457 166 ctlin 64;
#X obj 422 110 tgl 15 0 empty empty empty 17 7 0 10 -262144 -1 -1 1
1;
#X obj 422 133 * 127;
#N canvas 0 22 457 359 release 0;
#X msg 96 288 \; voice-\$1 \$2;
#X obj 138 84 until;
#X obj 138 10 inlet;
#X obj 138 115 f;
#X obj 164 114 + 1;
#X obj 138 142 t f f;
#X obj 59 171 tabread held;
#X obj 138 35 t b b;
#X obj 57 198 !=;
#X obj 96 257 list prepend;
#X obj 50 228 route 1;
#X obj 138 62 61;
#X obj 184 82 36;
#X text 213 86 lowest midi-key;
#X text 38 62 nr of midi-keys;
#X connect 1 0 3 0;
#X connect 2 0 7 0;
#X connect 3 0 4 0;
#X connect 3 0 5 0;
#X connect 4 0 3 1;
#X connect 5 0 6 0;
#X connect 5 1 9 1;
#X connect 6 0 8 0;
#X connect 7 0 11 0;
#X connect 7 1 12 0;
#X connect 8 0 10 0;
#X connect 9 0 0 0;
#X connect 10 1 9 0;
#X connect 11 0 1 0;
#X connect 12 0 3 1;
#X restore 422 286 pd release;
#X obj 37 252 route 0 127;
#X obj 422 198 f;
#X obj 37 145 pack;
#X obj 37 170 t l l;
#X obj 422 259 select 0;
#X obj 68 287 stripnote;
#X obj 68 312 pack;
#X obj 422 85 select 32;
#X obj -82 -35 table held 128;
#X obj 65 192 s held;
#X obj 37 225 list prepend;
#X obj 143 146 loadbang;
#X obj 142 170 0;
#X obj 421 41 key;
#X obj 421 63 spigot;
#X obj 455 40 tgl 15 0 empty empty empty 17 7 0 10 -262144 -1 -1 1
1;
#X text 478 42 open to use <spacebar> as sustain key;
#X floatatom 113 129 5 0 0 0 - - -;
#X obj -67 22 r chord;
#X msg -89 183 63.5 51.5 75.5;
#X obj -14 80 bng 15 250 50 0 empty empty empty 17 7 0 10 -262144 -1
-1;
#X msg -98 156 set \$1 \$2 \$3;
#X obj 143 -35 r pitch;
#X obj 213 -22 r velocity;
#X obj 86 17 max 36;
#X obj 145 52 max 1;
#X obj 277 283 route 1 2 3 4;
#X obj 276 255 inlet;
#X obj 460 -18 loadbang;
#X msg 462 6 1;
#X connect 1 0 8 0;
#X connect 1 1 8 1;
#X connect 2 0 7 0;
#X connect 3 0 4 0;
#X connect 4 0 7 0;
#X connect 6 0 0 0;
#X connect 6 1 11 0;
#X connect 7 0 10 0;
#X connect 7 0 16 1;
#X connect 8 0 9 0;
#X connect 9 0 16 0;
#X connect 9 1 15 0;
#X connect 10 0 5 0;
#X connect 11 0 12 0;
#X connect 11 1 12 1;
#X connect 12 0 0 0;
#X connect 13 0 3 0;
#X connect 16 0 6 0;
#X connect 17 0 18 0;
#X connect 18 0 16 1;
#X connect 19 0 20 0;
#X connect 20 0 13 0;
#X connect 21 0 20 1;
#X connect 24 0 27 0;
#X connect 24 0 26 0;
#X connect 24 0 6 0;
#X connect 25 0 6 0;
#X connect 27 0 25 0;
#X connect 28 0 30 0;
#X connect 29 0 31 0;
#X connect 30 0 8 0;
#X connect 30 0 23 0;
#X connect 31 0 8 1;
#X connect 32 0 0 0;
#X connect 32 1 0 0;
#X connect 32 2 0 0;
#X connect 32 3 0 0;
#X connect 33 0 32 0;
#X connect 34 0 35 0;
#X connect 35 0 21 0;
#X restore 13 30 pd midi;
#X obj 166 39 catch~ out;
#X obj 165 117 *~;
#X obj 221 86 dbtorms;
#X obj 275 57 hsl 128 15 0 127 0 0 empty empty empty -2 -8 0 10 -262144
-1 -1 8300 1;
#X floatatom 272 87 5 0 0 0 - - -;
#X obj 273 -10 loadbang;
#X obj 272 12 80;
#N canvas 0 22 450 300 (subpatch) 0;
#X obj 59 155 inlet;
#X obj 3 89 inlet~;
#X obj 58 182 change;
#X msg 60 246 set \$1;
#X obj 60 227 tosymbol;
#X obj 59 204 sprintf Bus%d;
#X obj 3 282 throw~ Bus0;
#X obj 2 3 popup 124 25 #ffffff popup Bus0 Bus1 Bus2 Bus3 Bus4 Bus5
Bus6 Bus7 Bus8 Bus9 Bus10 Bus11 Bus12 Bus13 Bus14 Bus15 Bus16;
#X obj 1 32 route bang;
#X obj 154 202 *~;
#X obj 141 7 tgl 15 0 empty empty Dac 19 7 0 10 -262144 -1 -1 1 1;
#X obj 155 238 dac~;
#X obj 1 -41 loadbang;
#X text 59 -43 Bus0 mutes;
#X msg 1 -23 options Bus0 Bus1 Bus2 Bus3 Bus4 Bus5 Bus6 Bus7 Bus8 Bus9
Bus10 Bus11 Bus12 Bus13 Bus14 Bus15 Bus16;
#X connect 0 0 2 0;
#X connect 1 0 6 0;
#X connect 1 0 9 0;
#X connect 2 0 5 0;
#X connect 3 0 6 0;
#X connect 4 0 3 0;
#X connect 5 0 4 0;
#X connect 7 0 8 0;
#X connect 8 1 2 0;
#X connect 9 0 11 0;
#X connect 9 0 11 1;
#X connect 10 0 9 1;
#X connect 12 0 14 0;
#X connect 14 0 7 0;
#X coords 0 1 100 -1 180 30 1 0 0;
#X restore 178 187 graph;
#X obj 213 226 declare -path z_syn_abs;
#X obj 211 247 declare -path ../FX/z_rjdj_abs;
#N canvas 0 22 450 300 (subpatch) 0;
#X obj -30 22 spigot;
#X obj 2 3 tgl 15 0 empty empty empty 17 7 0 10 -262144 -1 -1 1 1;
#X obj -58 0 inlet;
#X obj -54 54 outlet;
#X connect 0 0 3 0;
#X connect 1 0 0 1;
#X connect 2 0 0 0;
#X coords 0 1 100 -1 20 20 1 0 0;
#X restore 12 2 graph;
#X obj 14 -18 r polynote;
#X text 40 4 receive from polyseq32;
#X connect 3 0 4 0;
#X connect 4 0 10 0;
#X connect 5 0 4 1;
#X connect 6 0 5 0;
#X connect 6 0 7 0;
#X connect 8 0 9 0;
#X connect 9 0 6 0;
#X connect 13 0 2 0;
#X connect 14 0 13 0;
