#N canvas 0 22 389 328 10;
#X floatatom 74 197 5 0 0 0 - - -;
#X floatatom 113 197 5 0 0 0 - - -;
#X floatatom 151 198 5 0 0 0 - - -;
#X floatatom 190 198 5 0 0 0 - - -;
#X obj 113 213 * 10;
#X obj 74 213 / 10;
#X text 123 75 Detune;
#X obj 190 214 * 10;
#X obj 151 214 * 100;
#X obj 4 32 r note1;
#X obj 39 53 r vel1;
#X floatatom 74 231 5 0 0 0 - - -;
#X floatatom 113 231 5 0 0 0 - - -;
#X floatatom 151 232 5 0 0 0 - - -;
#X floatatom 190 232 5 0 0 0 - - -;
#X text 162 91 Attack;
#X text 201 109 Length;
#X text 240 130 Decay;
#X obj -48 191 notein;
#X floatatom 4 231 5 0 0 0 - - -;
#X floatatom 39 231 5 0 0 0 - - -;
#X obj 190 169 knob 25 25 0 127 0 0 empty empty empty 0 -8 32 8 -1
-260097 -260097 0 1;
#X obj 151 169 knob 25 25 0 127 0 0 empty empty empty 0 -8 32 8 -1
-260097 -260097 0 1;
#X obj 113 168 knob 25 25 0 127 0 0 empty empty empty 0 -8 32 8 -1
-260097 -260097 0 1;
#X obj 74 168 knob 25 25 0 127 0 0 empty empty empty 0 -8 32 8 -1 -260097
-260097 0 1;
#N canvas 0 22 450 300 (subpatch) 0;
#X obj 59 155 inlet;
#X obj 3 89 inlet~;
#X obj 58 182 change;
#X msg 60 246 set \$1;
#X obj 60 227 tosymbol;
#X obj 59 204 sprintf Bus%d;
#X obj 3 282 throw~ Bus0;
#X obj 2 3 popup 124 25 #ffffff popup Bus0 Bus1 Bus2 Bus3 Bus4 Bus5
;
#X obj 1 32 route bang;
#X obj 154 202 *~;
#X obj 141 7 tgl 15 0 empty empty Dac 19 7 0 10 -262144 -1 -1 0 1;
#X obj 155 238 dac~;
#X obj 1 -41 loadbang;
#X msg 1 -23 options Bus0 Bus1 Bus2 Bus3 Bus4 Bus5;
#X text 59 -43 Bus0 mutes;
#X connect 0 0 2 0;
#X connect 1 0 6 0;
#X connect 1 0 9 0;
#X connect 2 0 5 0;
#X connect 3 0 6 0;
#X connect 4 0 3 0;
#X connect 5 0 4 0;
#X connect 7 0 8 0;
#X connect 8 1 2 0;
#X connect 9 0 11 0;
#X connect 9 0 11 1;
#X connect 10 0 9 1;
#X connect 12 0 13 0;
#X connect 13 0 7 0;
#X coords 0 1 100 -1 180 30 1 0 0;
#X restore 4 265 graph;
#N canvas 0 22 450 300 2oscDetuned---------------- 0;
#X obj 249 544 *~;
#X floatatom 209 181 5 0 0 0 - - -;
#X text 492 167 ENVELOPE SECTION;
#X text 519 201 trigger envelope;
#X text 550 340 controls envelope level;
#X text 559 389 envelope bangs the line to raise the envelope;
#X text 559 404 then after a delay (note length);
#X text 559 418 it sends a fade signal to the line object;
#X obj 185 433 +~;
#X obj 133 125 mtof;
#X obj 196 202 + 3;
#X text 47 309 WAVE SECTION;
#X text 15 105 convert from midi to frequency;
#X text 222 195 add a small amount to the;
#X text 223 208 frequency to detune;
#X text 615 14 INSTRUMENT 4;
#X obj 131 329 osc~;
#X obj 196 333 osc~;
#X text 220 220 the second sinewave;
#X text 201 235 (actually take this from the beat counter);
#X text 623 30 a double sine generator with;
#X text 622 45 detune on one wave;
#X text 207 434 add 2 waves;
#X obj 139 57 stripnote;
#X obj 249 575 *~;
#X obj 308 382 / 100;
#X obj 305 405 + 0.2;
#X text 461 15 "ALD" enveloppe;
#X obj 433 179 bng 15 250 50 0 empty empty empty 17 7 0 10 -262144
-1 -1;
#X obj 510 340 vline~;
#X msg 470 227 1;
#X obj 478 253 pack f f;
#X obj 483 280 unpack f f;
#X msg 574 229 0;
#X obj 582 255 pack f f f;
#X obj 587 282 unpack f f f;
#X obj 485 188 delay 5;
#X obj 500 369 *~;
#X obj 501 391 *~;
#X obj 139 10 inlet;
#X obj 188 14 inlet;
#X obj 262 137 inlet;
#X obj 401 115 inlet;
#X obj 497 116 inlet;
#X obj 562 116 inlet;
#X obj 250 603 outlet~;
#X connect 0 0 24 0;
#X connect 1 0 10 1;
#X connect 8 0 0 0;
#X connect 9 0 10 0;
#X connect 9 0 16 0;
#X connect 10 0 17 0;
#X connect 16 0 8 0;
#X connect 17 0 8 1;
#X connect 23 0 9 0;
#X connect 23 0 28 0;
#X connect 23 1 25 0;
#X connect 24 0 45 0;
#X connect 25 0 26 0;
#X connect 26 0 24 1;
#X connect 28 0 30 0;
#X connect 28 0 36 0;
#X connect 29 0 37 0;
#X connect 29 0 37 1;
#X connect 30 0 31 0;
#X connect 31 0 32 0;
#X connect 32 0 29 0;
#X connect 32 1 29 1;
#X connect 33 0 34 0;
#X connect 34 0 35 0;
#X connect 35 0 29 0;
#X connect 35 1 29 1;
#X connect 35 2 29 2;
#X connect 36 0 33 0;
#X connect 37 0 38 0;
#X connect 37 0 38 1;
#X connect 38 0 0 1;
#X connect 39 0 23 0;
#X connect 40 0 23 1;
#X connect 41 0 1 0;
#X connect 42 0 36 1;
#X connect 42 0 31 1;
#X connect 43 0 34 2;
#X connect 44 0 34 1;
#X restore 4 247 pd 2oscDetuned----------------;
#N canvas 0 22 450 300 (subpatch) 0;
#X obj -30 22 spigot;
#X obj 2 3 tgl 15 0 empty empty empty 17 7 0 10 -262144 -1 -1 0 1;
#X obj -58 0 inlet;
#X obj -54 54 outlet;
#X connect 0 0 3 0;
#X connect 1 0 0 1;
#X connect 2 0 0 0;
#X coords 0 1 100 -1 20 20 1 0 0;
#X restore 190 146 graph;
#N canvas 0 22 450 300 (subpatch) 0;
#X obj -30 22 spigot;
#X obj 2 3 tgl 15 0 empty empty empty 17 7 0 10 -262144 -1 -1 0 1;
#X obj -58 0 inlet;
#X obj -54 54 outlet;
#X connect 0 0 3 0;
#X connect 1 0 0 1;
#X connect 2 0 0 0;
#X coords 0 1 100 -1 20 20 1 0 0;
#X restore 151 146 graph;
#N canvas 0 22 450 300 (subpatch) 0;
#X obj -30 22 spigot;
#X obj 2 3 tgl 15 0 empty empty empty 17 7 0 10 -262144 -1 -1 0 1;
#X obj -58 0 inlet;
#X obj -54 54 outlet;
#X connect 0 0 3 0;
#X connect 1 0 0 1;
#X connect 2 0 0 0;
#X coords 0 1 100 -1 20 20 1 0 0;
#X restore 113 145 graph;
#N canvas 0 22 450 300 (subpatch) 0;
#X obj -30 22 spigot;
#X obj 2 3 tgl 15 0 empty empty empty 17 7 0 10 -262144 -1 -1 0 1;
#X obj -58 0 inlet;
#X obj -54 54 outlet;
#X connect 0 0 3 0;
#X connect 1 0 0 1;
#X connect 2 0 0 0;
#X coords 0 1 100 -1 20 20 1 0 0;
#X restore 74 145 graph;
#N canvas 0 22 450 300 (subpatch) 0;
#X obj -30 22 spigot;
#X obj 2 3 tgl 15 0 empty empty empty 17 7 0 10 -262144 -1 -1 0 1;
#X obj -58 0 inlet;
#X obj -54 54 outlet;
#X connect 0 0 3 0;
#X connect 1 0 0 1;
#X connect 2 0 0 0;
#X coords 0 1 100 -1 20 20 1 0 0;
#X restore 39 145 graph;
#N canvas 0 22 450 300 (subpatch) 0;
#X obj -30 22 spigot;
#X obj 2 3 tgl 15 0 empty empty empty 17 7 0 10 -262144 -1 -1 0 1;
#X obj -58 0 inlet;
#X obj -54 54 outlet;
#X connect 0 0 3 0;
#X connect 1 0 0 1;
#X connect 2 0 0 0;
#X coords 0 1 100 -1 20 20 1 0 0;
#X restore 4 145 graph;
#N canvas 0 22 450 300 (subpatch) 0;
#X obj -30 22 spigot;
#X obj 2 3 tgl 15 0 empty empty empty 17 7 0 10 -262144 -1 -1 0 1;
#X obj -58 0 inlet;
#X obj -54 54 outlet;
#X connect 0 0 3 0;
#X connect 1 0 0 1;
#X connect 2 0 0 0;
#X coords 0 1 100 -1 20 20 1 0 0;
#X restore -28 211 graph;
#N canvas 0 22 450 300 (subpatch) 0;
#X obj -30 22 spigot;
#X obj 2 3 tgl 15 0 empty empty empty 17 7 0 10 -262144 -1 -1 0 1;
#X obj -58 0 inlet;
#X obj -54 54 outlet;
#X connect 0 0 3 0;
#X connect 1 0 0 1;
#X connect 2 0 0 0;
#X coords 0 1 100 -1 20 20 1 0 0;
#X restore -48 211 graph;
#X obj 74 73 ctlin 5;
#X obj 113 92 ctlin 6;
#X obj 151 110 ctlin 7;
#X obj 190 129 ctlin 8;
#X connect 0 0 5 0;
#X connect 1 0 4 0;
#X connect 2 0 8 0;
#X connect 3 0 7 0;
#X connect 4 0 12 0;
#X connect 5 0 11 0;
#X connect 7 0 14 0;
#X connect 8 0 13 0;
#X connect 9 0 32 0;
#X connect 10 0 31 0;
#X connect 11 0 26 2;
#X connect 12 0 26 3;
#X connect 13 0 26 4;
#X connect 14 0 26 5;
#X connect 18 0 34 0;
#X connect 18 1 33 0;
#X connect 19 0 26 0;
#X connect 20 0 26 1;
#X connect 21 0 3 0;
#X connect 22 0 2 0;
#X connect 23 0 1 0;
#X connect 24 0 0 0;
#X connect 26 0 25 0;
#X connect 27 0 21 0;
#X connect 28 0 22 0;
#X connect 29 0 23 0;
#X connect 30 0 24 0;
#X connect 31 0 20 0;
#X connect 32 0 19 0;
#X connect 33 0 20 0;
#X connect 34 0 19 0;
#X connect 35 0 30 0;
#X connect 36 0 29 0;
#X connect 37 0 28 0;
#X connect 38 0 27 0;
