#N canvas 0 22 373 212 10;
#X declare -path z_chinatown_abs;
#X floatatom 106 55 5 0 0 0 - - -;
#X floatatom 140 55 5 0 0 0 - - -;
#X obj 52 15 notein;
#X obj 106 -15 r note;
#X obj 140 6 r vel;
#N canvas 0 22 450 300 (subpatch) 0;
#N canvas 0 22 687 574 softstringvox 0;
#X obj 87 413 osc~;
#X obj 73 148 mtof;
#X obj 124 432 *~;
#X obj 95 366 line~;
#X obj 79 391 +~;
#X obj 68 275 line~;
#X obj 67 299 osc~;
#X obj 68 231 / 2;
#X msg 68 253 \$1 1;
#X msg 94 347 \$1 1;
#X obj 108 279 osc~ 4;
#X obj 80 324 *~;
#X obj 108 301 *~ 500;
#X obj 168 392 *~ 0.15;
#X obj 169 370 adsr 1 20 0.5 600;
#X obj 180 14 inlet;
#X obj 407 42 inlet;
#X obj 99 551 outlet~;
#X obj 158 550 outlet~;
#X text 166 -7 (note# \,;
#X text 219 -7 vel);
#X obj 174 504 switch~;
#X msg 174 480 1;
#X obj 107 210 random 100;
#X obj 108 231 / 75;
#X obj 545 37 inlet;
#X text 521 14 realtime index;
#X obj 221 339 unpack f f f f;
#X obj 147 456 env~;
#X obj 148 479 > 2;
#X obj 108 255 + 4;
#X text 304 18 params ( a \, d \, s \, r);
#X msg 265 170 1;
#X msg 322 168 0;
#X obj 180 97 unpack f f;
#X obj 320 147 sel 0;
#X obj 180 51 t l b;
#X floatatom 226 137 5 0 0 0 - - -;
#X floatatom 161 139 5 0 0 0 - - -;
#X obj 265 148 sel 66;
#X obj 73 173 t f f f b;
#X connect 0 0 2 0;
#X connect 1 0 40 0;
#X connect 2 0 17 0;
#X connect 2 0 18 0;
#X connect 2 0 28 0;
#X connect 3 0 4 1;
#X connect 4 0 0 0;
#X connect 5 0 6 0;
#X connect 6 0 11 0;
#X connect 7 0 8 0;
#X connect 8 0 5 0;
#X connect 9 0 3 0;
#X connect 10 0 12 0;
#X connect 11 0 4 0;
#X connect 12 0 11 1;
#X connect 13 0 2 1;
#X connect 14 0 13 0;
#X connect 15 0 36 0;
#X connect 16 0 27 0;
#X connect 22 0 21 0;
#X connect 23 0 24 0;
#X connect 24 0 30 0;
#X connect 25 0 12 1;
#X connect 27 0 14 2;
#X connect 27 1 14 3;
#X connect 27 2 14 4;
#X connect 27 3 14 5;
#X connect 28 0 29 0;
#X connect 29 0 21 0;
#X connect 30 0 10 0;
#X connect 32 0 14 0;
#X connect 33 0 14 0;
#X connect 34 0 1 0;
#X connect 34 0 38 0;
#X connect 34 1 35 0;
#X connect 34 1 37 0;
#X connect 34 1 39 0;
#X connect 35 0 33 0;
#X connect 36 0 34 0;
#X connect 36 1 22 0;
#X connect 39 0 32 0;
#X connect 40 1 9 0;
#X connect 40 2 7 0;
#X connect 40 3 23 0;
#X restore 13 105 pd softstringvox;
#X obj 109 -6 poly 4;
#X obj 109 -29 pack 1 2;
#X obj 109 41 route 1 2 3 4;
#X obj 116 -81 unpack 1 2;
#X msg 116 -106 \$1 500;
#N canvas 0 22 450 300 lfo 0;
#X obj 81 103 snapshot~;
#X obj 58 59 metro 20;
#X obj 80 82 osc~ 1;
#X obj 76 166 line;
#X obj 56 37 loadbang;
#X msg 77 145 \$1 10;
#X obj 45 8 inlet;
#X obj 76 190 outlet;
#X msg 127 35 bang;
#X obj 78 124 * 1;
#X connect 0 0 9 0;
#X connect 1 0 0 0;
#X connect 2 0 0 0;
#X connect 3 0 7 0;
#X connect 4 0 1 0;
#X connect 5 0 3 0;
#X connect 6 0 2 0;
#X connect 8 0 1 0;
#X connect 9 0 5 0;
#X restore 254 -27 pd lfo;
#X obj 254 -5 * 250;
#X msg 238 -52 0.05;
#X obj 254 16 + 250;
#X obj 255 -71 loadbang;
#X obj 28 15 vsl 12 50 0.01 1 1 1 empty empty vol 0 -8 0 8 -260818
-1 -1 3188 1;
#X obj 151 251 *~ 1;
#X obj 149 275 outlet~;
#X obj 212 251 *~ 1;
#X obj 210 275 outlet~;
#X obj 116 -133 inlet;
#X obj 113 158 *~ 0.3;
#X obj 163 157 *~ 0.7;
#X obj 225 158 *~ 0.4;
#X obj 275 157 *~ 0.6;
#X obj -2 160 *~ 0.2;
#X obj 49 160 *~ 0.8;
#X obj 343 157 *~ 0.6;
#X obj 393 156 *~ 0.4;
#X msg 214 41 10 200 30 50;
#X obj 109 20 pack f f f;
#X obj 75 -55 makenote 66 127 3;
#N canvas 0 22 687 574 softstringvox 0;
#X obj 87 413 osc~;
#X obj 73 148 mtof;
#X obj 124 432 *~;
#X obj 95 366 line~;
#X obj 79 391 +~;
#X obj 68 275 line~;
#X obj 67 299 osc~;
#X obj 68 231 / 2;
#X msg 68 253 \$1 1;
#X msg 94 347 \$1 1;
#X obj 108 279 osc~ 4;
#X obj 80 324 *~;
#X obj 108 301 *~ 500;
#X obj 168 392 *~ 0.15;
#X obj 169 370 adsr 1 20 0.5 600;
#X obj 180 14 inlet;
#X obj 407 42 inlet;
#X obj 99 551 outlet~;
#X obj 158 550 outlet~;
#X text 166 -7 (note# \,;
#X text 219 -7 vel);
#X obj 174 504 switch~;
#X msg 174 480 1;
#X obj 108 210 random 100;
#X obj 108 231 / 75;
#X obj 545 37 inlet;
#X text 521 14 realtime index;
#X obj 221 339 unpack f f f f;
#X obj 147 456 env~;
#X obj 148 479 > 2;
#X obj 108 255 + 4;
#X text 304 18 params ( a \, d \, s \, r);
#X msg 265 170 1;
#X msg 322 168 0;
#X obj 180 97 unpack f f;
#X obj 320 147 sel 0;
#X obj 180 51 t l b;
#X floatatom 226 137 5 0 0 0 - - -;
#X floatatom 161 139 5 0 0 0 - - -;
#X obj 265 148 sel 66;
#X obj 73 173 t f f f b;
#X connect 0 0 2 0;
#X connect 1 0 40 0;
#X connect 2 0 17 0;
#X connect 2 0 18 0;
#X connect 2 0 28 0;
#X connect 3 0 4 1;
#X connect 4 0 0 0;
#X connect 5 0 6 0;
#X connect 6 0 11 0;
#X connect 7 0 8 0;
#X connect 8 0 5 0;
#X connect 9 0 3 0;
#X connect 10 0 12 0;
#X connect 11 0 4 0;
#X connect 12 0 11 1;
#X connect 13 0 2 1;
#X connect 14 0 13 0;
#X connect 15 0 36 0;
#X connect 16 0 27 0;
#X connect 22 0 21 0;
#X connect 23 0 24 0;
#X connect 24 0 30 0;
#X connect 25 0 12 1;
#X connect 27 0 14 2;
#X connect 27 1 14 3;
#X connect 27 2 14 4;
#X connect 27 3 14 5;
#X connect 28 0 29 0;
#X connect 29 0 21 0;
#X connect 30 0 10 0;
#X connect 32 0 14 0;
#X connect 33 0 14 0;
#X connect 34 0 1 0;
#X connect 34 0 38 0;
#X connect 34 1 35 0;
#X connect 34 1 37 0;
#X connect 34 1 39 0;
#X connect 35 0 33 0;
#X connect 36 0 34 0;
#X connect 36 1 22 0;
#X connect 39 0 32 0;
#X connect 40 1 9 0;
#X connect 40 2 7 0;
#X connect 40 3 23 0;
#X restore 143 105 pd softstringvox;
#N canvas 0 22 687 574 softstringvox 0;
#X obj 87 413 osc~;
#X obj 73 148 mtof;
#X obj 124 432 *~;
#X obj 95 366 line~;
#X obj 79 391 +~;
#X obj 68 275 line~;
#X obj 67 299 osc~;
#X obj 68 231 / 2;
#X msg 68 253 \$1 1;
#X msg 94 347 \$1 1;
#X obj 108 279 osc~ 4;
#X obj 80 324 *~;
#X obj 108 301 *~ 500;
#X obj 168 392 *~ 0.15;
#X obj 169 370 adsr 1 20 0.5 600;
#X obj 180 14 inlet;
#X obj 407 42 inlet;
#X obj 99 551 outlet~;
#X obj 158 550 outlet~;
#X text 166 -7 (note# \,;
#X text 219 -7 vel);
#X obj 174 504 switch~;
#X msg 174 480 1;
#X obj 107 210 random 100;
#X obj 108 231 / 75;
#X obj 545 37 inlet;
#X text 521 14 realtime index;
#X obj 221 339 unpack f f f f;
#X obj 147 456 env~;
#X obj 148 479 > 2;
#X obj 108 255 + 4;
#X text 304 18 params ( a \, d \, s \, r);
#X msg 265 170 1;
#X msg 322 168 0;
#X obj 180 97 unpack f f;
#X obj 320 147 sel 0;
#X obj 180 51 t l b;
#X floatatom 226 137 5 0 0 0 - - -;
#X floatatom 161 139 5 0 0 0 - - -;
#X obj 265 148 sel 66;
#X obj 73 173 t f f f b;
#X connect 0 0 2 0;
#X connect 1 0 40 0;
#X connect 2 0 17 0;
#X connect 2 0 18 0;
#X connect 2 0 28 0;
#X connect 3 0 4 1;
#X connect 4 0 0 0;
#X connect 5 0 6 0;
#X connect 6 0 11 0;
#X connect 7 0 8 0;
#X connect 8 0 5 0;
#X connect 9 0 3 0;
#X connect 10 0 12 0;
#X connect 11 0 4 0;
#X connect 12 0 11 1;
#X connect 13 0 2 1;
#X connect 14 0 13 0;
#X connect 15 0 36 0;
#X connect 16 0 27 0;
#X connect 22 0 21 0;
#X connect 23 0 24 0;
#X connect 24 0 30 0;
#X connect 25 0 12 1;
#X connect 27 0 14 2;
#X connect 27 1 14 3;
#X connect 27 2 14 4;
#X connect 27 3 14 5;
#X connect 28 0 29 0;
#X connect 29 0 21 0;
#X connect 30 0 10 0;
#X connect 32 0 14 0;
#X connect 33 0 14 0;
#X connect 34 0 1 0;
#X connect 34 0 38 0;
#X connect 34 1 35 0;
#X connect 34 1 37 0;
#X connect 34 1 39 0;
#X connect 35 0 33 0;
#X connect 36 0 34 0;
#X connect 36 1 22 0;
#X connect 39 0 32 0;
#X connect 40 1 9 0;
#X connect 40 2 7 0;
#X connect 40 3 23 0;
#X restore 273 105 pd softstringvox;
#N canvas 0 22 687 574 softstringvox 0;
#X obj 87 413 osc~;
#X obj 73 148 mtof;
#X obj 124 432 *~;
#X obj 95 366 line~;
#X obj 79 391 +~;
#X obj 68 275 line~;
#X obj 67 299 osc~;
#X obj 68 231 / 2;
#X msg 68 253 \$1 1;
#X msg 94 347 \$1 1;
#X obj 108 279 osc~ 4;
#X obj 80 324 *~;
#X obj 108 301 *~ 500;
#X obj 168 392 *~ 0.15;
#X obj 169 370 adsr 1 20 0.5 600;
#X obj 180 14 inlet;
#X obj 407 42 inlet;
#X obj 99 551 outlet~;
#X obj 158 550 outlet~;
#X text 166 -7 (note# \,;
#X text 219 -7 vel);
#X obj 174 504 switch~;
#X msg 174 480 1;
#X obj 108 210 random 100;
#X obj 108 231 / 75;
#X obj 545 37 inlet;
#X text 521 14 realtime index;
#X obj 221 339 unpack f f f f;
#X obj 147 456 env~;
#X obj 148 479 > 2;
#X obj 108 255 + 4;
#X text 304 18 params ( a \, d \, s \, r);
#X msg 265 170 1;
#X msg 322 168 0;
#X obj 180 97 unpack f f;
#X obj 320 147 sel 0;
#X obj 180 51 t l b;
#X floatatom 226 137 5 0 0 0 - - -;
#X floatatom 161 139 5 0 0 0 - - -;
#X obj 265 148 sel 66;
#X obj 73 173 t f f f b;
#X connect 0 0 2 0;
#X connect 1 0 40 0;
#X connect 2 0 17 0;
#X connect 2 0 18 0;
#X connect 2 0 28 0;
#X connect 3 0 4 1;
#X connect 4 0 0 0;
#X connect 5 0 6 0;
#X connect 6 0 11 0;
#X connect 7 0 8 0;
#X connect 8 0 5 0;
#X connect 9 0 3 0;
#X connect 10 0 12 0;
#X connect 11 0 4 0;
#X connect 12 0 11 1;
#X connect 13 0 2 1;
#X connect 14 0 13 0;
#X connect 15 0 36 0;
#X connect 16 0 27 0;
#X connect 22 0 21 0;
#X connect 23 0 24 0;
#X connect 24 0 30 0;
#X connect 25 0 12 1;
#X connect 27 0 14 2;
#X connect 27 1 14 3;
#X connect 27 2 14 4;
#X connect 27 3 14 5;
#X connect 28 0 29 0;
#X connect 29 0 21 0;
#X connect 30 0 10 0;
#X connect 32 0 14 0;
#X connect 33 0 14 0;
#X connect 34 0 1 0;
#X connect 34 0 38 0;
#X connect 34 1 35 0;
#X connect 34 1 37 0;
#X connect 34 1 39 0;
#X connect 35 0 33 0;
#X connect 36 0 34 0;
#X connect 36 1 22 0;
#X connect 39 0 32 0;
#X connect 40 1 9 0;
#X connect 40 2 7 0;
#X connect 40 3 23 0;
#X restore 403 105 pd softstringvox;
#X obj 5 32 t b f;
#X obj 5 13 tgl 15 1 empty empty empty 0 -6 0 8 -260818 -1 -1 1 1;
#X obj 5 57 *;
#X obj 234 -153 inlet;
#X obj 234 -113 + 0.2;
#X obj 237 -91 line;
#X msg 274 -50 50;
#X obj 234 -133 / 127;
#X connect 0 0 21 0;
#X connect 0 0 22 0;
#X connect 1 0 26 0;
#X connect 1 1 26 1;
#X connect 1 2 26 2;
#X connect 2 0 1 0;
#X connect 3 0 0 0;
#X connect 3 1 28 0;
#X connect 3 2 29 0;
#X connect 3 3 30 0;
#X connect 4 0 27 0;
#X connect 4 1 27 2;
#X connect 5 0 4 0;
#X connect 6 0 7 0;
#X connect 7 0 9 0;
#X connect 8 0 6 0;
#X connect 9 0 0 2;
#X connect 9 0 28 2;
#X connect 9 0 29 2;
#X connect 9 0 30 2;
#X connect 10 0 8 0;
#X connect 10 0 25 0;
#X connect 10 0 37 0;
#X connect 11 0 33 0;
#X connect 12 0 13 0;
#X connect 14 0 15 0;
#X connect 16 0 5 0;
#X connect 17 0 12 0;
#X connect 18 0 14 0;
#X connect 19 0 12 0;
#X connect 20 0 14 0;
#X connect 21 0 12 0;
#X connect 22 0 14 0;
#X connect 23 0 12 0;
#X connect 24 0 14 0;
#X connect 25 0 0 1;
#X connect 25 0 28 1;
#X connect 25 0 29 1;
#X connect 25 0 30 1;
#X connect 26 0 3 0;
#X connect 27 0 2 0;
#X connect 27 1 2 1;
#X connect 28 0 17 0;
#X connect 28 0 18 0;
#X connect 29 0 19 0;
#X connect 29 0 20 0;
#X connect 30 0 23 0;
#X connect 30 0 24 0;
#X connect 31 0 33 0;
#X connect 31 1 33 1;
#X connect 32 0 31 0;
#X connect 33 0 12 1;
#X connect 33 0 14 1;
#X connect 34 0 38 0;
#X connect 35 0 36 0;
#X connect 36 0 11 0;
#X connect 37 0 36 1;
#X connect 38 0 35 0;
#X coords 0 1 100 -1 50 75 1 0 0;
#X restore 106 71 graph;
#N canvas 0 22 450 300 (subpatch) 0;
#X obj 59 155 inlet;
#X obj 3 89 inlet~;
#X obj 58 182 change;
#X msg 60 246 set \$1;
#X obj 60 227 tosymbol;
#X obj 59 204 sprintf Bus%d;
#X obj 3 282 throw~ Bus0;
#X obj 2 3 popup 124 25 #ffffff popup Bus0 Bus1 Bus2 Bus3 Bus4 Bus5
;
#X obj 1 32 route bang;
#X obj 154 202 *~;
#X obj 141 7 tgl 15 0 empty empty Dac 19 7 0 10 -262144 -1 -1 0 1;
#X obj 155 238 dac~;
#X obj 5 -62 loadbang;
#X text 63 -64 Bus0 mutes;
#X msg 5 -44 options Bus0 Bus1 Bus2 Bus3 Bus4 Bus5 Bus6 Bus7 Bus8 Bus9
Bus10 Bus11 Bus12 Bus13 Bus14 Bus15 Bus16;
#X connect 0 0 2 0;
#X connect 1 0 6 0;
#X connect 1 0 9 0;
#X connect 2 0 5 0;
#X connect 3 0 6 0;
#X connect 4 0 3 0;
#X connect 5 0 4 0;
#X connect 7 0 8 0;
#X connect 8 1 2 0;
#X connect 9 0 11 0;
#X connect 9 0 11 1;
#X connect 10 0 9 1;
#X connect 12 0 14 0;
#X connect 14 0 7 0;
#X coords 0 1 100 -1 180 30 1 0 0;
#X restore 106 146 graph;
#N canvas 0 22 450 300 (subpatch) 0;
#X obj -30 22 spigot;
#X obj 2 3 tgl 15 0 empty empty empty 17 7 0 10 -262144 -1 -1 0 1;
#X obj -58 0 inlet;
#X obj -54 54 outlet;
#X connect 0 0 3 0;
#X connect 1 0 0 1;
#X connect 2 0 0 0;
#X coords 0 1 100 -1 20 20 1 0 0;
#X restore 52 35 graph;
#N canvas 0 22 450 300 (subpatch) 0;
#X obj -30 22 spigot;
#X obj 2 3 tgl 15 0 empty empty empty 17 7 0 10 -262144 -1 -1 0 1;
#X obj -58 0 inlet;
#X obj -54 54 outlet;
#X connect 0 0 3 0;
#X connect 1 0 0 1;
#X connect 2 0 0 0;
#X coords 0 1 100 -1 20 20 1 0 0;
#X restore 72 35 graph;
#N canvas 0 22 450 300 (subpatch) 0;
#X obj -30 22 spigot;
#X obj 2 3 tgl 15 0 empty empty empty 17 7 0 10 -262144 -1 -1 0 1;
#X obj -58 0 inlet;
#X obj -54 54 outlet;
#X connect 0 0 3 0;
#X connect 1 0 0 1;
#X connect 2 0 0 0;
#X coords 0 1 100 -1 20 20 1 0 0;
#X restore 106 23 graph;
#N canvas 0 22 450 300 (subpatch) 0;
#X obj -30 22 spigot;
#X obj 2 3 tgl 15 0 empty empty empty 17 7 0 10 -262144 -1 -1 0 1;
#X obj -58 0 inlet;
#X obj -54 54 outlet;
#X connect 0 0 3 0;
#X connect 1 0 0 1;
#X connect 2 0 0 0;
#X coords 0 1 100 -1 20 20 1 0 0;
#X restore 140 23 graph;
#X obj 231 106 declare -path z_chinatown_abs;
#X connect 0 0 5 0;
#X connect 1 0 5 1;
#X connect 2 0 7 0;
#X connect 2 1 8 0;
#X connect 3 0 9 0;
#X connect 4 0 10 0;
#X connect 5 0 6 0;
#X connect 5 1 6 0;
#X connect 7 0 0 0;
#X connect 8 0 1 0;
#X connect 9 0 0 0;
#X connect 10 0 1 0;
