#N canvas 0 22 977 428 10;
#X obj -14 -51 notein;
#X floatatom 41 -10 5 0 0 0 - - -;
#X floatatom 73 -10 5 0 0 0 - - -;
#N canvas 0 22 450 300 (subpatch) 0;
#X obj -30 22 spigot;
#X obj 2 3 tgl 15 0 empty empty empty 17 7 0 10 -262144 -1 -1 0 1;
#X obj -58 0 inlet;
#X obj -54 54 outlet;
#X connect 0 0 3 0;
#X connect 1 0 0 1;
#X connect 2 0 0 0;
#X coords 0 1 100 -1 20 20 1 0 0;
#X restore 41 -52 graph;
#N canvas 0 22 450 300 (subpatch) 0;
#X obj -30 22 spigot;
#X obj 2 3 tgl 15 0 empty empty empty 17 7 0 10 -262144 -1 -1 0 1;
#X obj -58 0 inlet;
#X obj -54 54 outlet;
#X connect 0 0 3 0;
#X connect 1 0 0 1;
#X connect 2 0 0 0;
#X coords 0 1 100 -1 20 20 1 0 0;
#X restore 73 -52 graph;
#N canvas 0 22 450 300 (subpatch) 0;
#X obj -30 22 spigot;
#X obj 2 3 tgl 15 0 empty empty empty 17 7 0 10 -262144 -1 -1 0 1;
#X obj -58 0 inlet;
#X obj -54 54 outlet;
#X connect 0 0 3 0;
#X connect 1 0 0 1;
#X connect 2 0 0 0;
#X coords 0 1 100 -1 20 20 1 0 0;
#X restore -14 -30 graph;
#N canvas 0 22 450 300 (subpatch) 0;
#X obj -30 22 spigot;
#X obj 2 3 tgl 15 0 empty empty empty 17 7 0 10 -262144 -1 -1 0 1;
#X obj -58 0 inlet;
#X obj -54 54 outlet;
#X connect 0 0 3 0;
#X connect 1 0 0 1;
#X connect 2 0 0 0;
#X coords 0 1 100 -1 20 20 1 0 0;
#X restore 6 -30 graph;
#X msg 420 -55 \; ratio 7 \; index 9;
#X msg 496 -109 \; ratio 2 \; index 3;
#X msg 513 -57 \; ratio 7 \; index 1000;
#X msg 537 -7 \; ratio 1.5 \; index 4;
#X msg 574 -109 \; ratio 0.5 \; index 20;
#X msg 593 -58 \; ratio 0.1 \; index 8;
#X msg 622 -8 \; ratio 1 \; index 30;
#X msg 648 -110 \; ratio 1.7 \; index 40;
#X msg 446 -8 \; ratio 2.03 \; index 15;
#X floatatom 272 37 5 0 0 1 Note_length - notelength;
#N canvas 0 22 450 300 (subpatch) 0;
#X obj 59 155 inlet;
#X obj 3 89 inlet~;
#X obj 58 182 change;
#X msg 60 246 set \$1;
#X obj 60 227 tosymbol;
#X obj 59 204 sprintf Bus%d;
#X obj 3 282 throw~ Bus0;
#X obj 2 3 popup 124 25 #ffffff popup Bus0 Bus1 Bus2 Bus3 Bus4 Bus5
Bus6 Bus7 Bus8 Bus9 Bus10 Bus11 Bus12 Bus13 Bus14 Bus15 Bus16;
#X obj 1 32 route bang;
#X obj 154 202 *~;
#X obj 141 7 tgl 15 0 empty empty Dac 19 7 0 10 -262144 -1 -1 1 1;
#X obj 155 238 dac~;
#X obj 1 -41 loadbang;
#X text 59 -43 Bus0 mutes;
#X msg 1 -23 options Bus0 Bus1 Bus2 Bus3 Bus4 Bus5 Bus6 Bus7 Bus8 Bus9
Bus10 Bus11 Bus12 Bus13 Bus14 Bus15 Bus16;
#X connect 0 0 2 0;
#X connect 1 0 6 0;
#X connect 1 0 9 0;
#X connect 2 0 5 0;
#X connect 3 0 6 0;
#X connect 4 0 3 0;
#X connect 5 0 4 0;
#X connect 7 0 8 0;
#X connect 8 1 2 0;
#X connect 9 0 11 0;
#X connect 9 0 11 1;
#X connect 10 0 9 1;
#X connect 12 0 14 0;
#X connect 14 0 7 0;
#X coords 0 1 100 -1 180 30 1 0 0;
#X restore 41 26 graph;
#X floatatom 111 -43 5 0 0 0 - - -;
#X floatatom 154 -43 5 0 0 0 - - -;
#X floatatom 199 -43 5 0 0 0 - - -;
#X floatatom 243 -43 5 0 0 0 - - -;
#X floatatom 111 -10 5 0 0 0 - - -;
#X floatatom 154 -10 5 0 0 0 - - -;
#X floatatom 199 -10 5 0 0 0 - - -;
#X floatatom 243 -10 5 0 0 0 - - -;
#X obj 243 -72 knob 25 25 0 127 0 0 empty empty empty 0 -8 32 8 -1
-260097 -260097 0 1;
#X obj 199 -72 knob 25 25 0 127 0 0 empty empty empty 0 -8 32 8 -1
-260097 -260097 0 1;
#X obj 154 -72 knob 25 25 0 127 0 0 empty empty empty 0 -8 32 8 -1
-260097 -260097 0 1;
#X obj 111 -72 knob 25 25 0 127 0 0 empty empty empty 0 -8 32 8 -1
-260097 -260097 2400 1;
#N canvas 0 22 450 300 (subpatch) 0;
#X obj -30 22 spigot;
#X obj 2 3 tgl 15 0 empty empty empty 17 7 0 10 -262144 -1 -1 0 1;
#X obj -58 0 inlet;
#X obj -54 54 outlet;
#X connect 0 0 3 0;
#X connect 1 0 0 1;
#X connect 2 0 0 0;
#X coords 0 1 100 -1 20 20 1 0 0;
#X restore 111 -95 graph;
#N canvas 0 22 450 300 (subpatch) 0;
#X obj -30 22 spigot;
#X obj 2 3 tgl 15 0 empty empty empty 17 7 0 10 -262144 -1 -1 0 1;
#X obj -58 0 inlet;
#X obj -54 54 outlet;
#X connect 0 0 3 0;
#X connect 1 0 0 1;
#X connect 2 0 0 0;
#X coords 0 1 100 -1 20 20 1 0 0;
#X restore 154 -95 graph;
#N canvas 0 22 450 300 (subpatch) 0;
#X obj -30 22 spigot;
#X obj 2 3 tgl 15 0 empty empty empty 17 7 0 10 -262144 -1 -1 0 1;
#X obj -58 0 inlet;
#X obj -54 54 outlet;
#X connect 0 0 3 0;
#X connect 1 0 0 1;
#X connect 2 0 0 0;
#X coords 0 1 100 -1 20 20 1 0 0;
#X restore 199 -95 graph;
#N canvas 0 22 450 300 (subpatch) 0;
#X obj -30 22 spigot;
#X obj 2 3 tgl 15 0 empty empty empty 17 7 0 10 -262144 -1 -1 0 1;
#X obj -58 0 inlet;
#X obj -54 54 outlet;
#X connect 0 0 3 0;
#X connect 1 0 0 1;
#X connect 2 0 0 0;
#X coords 0 1 100 -1 20 20 1 0 0;
#X restore 243 -95 graph;
#X obj 243 -195 ctlin 4;
#X obj 199 -215 ctlin 3;
#X obj 154 -235 ctlin 2;
#X obj 111 -256 ctlin 1;
#N canvas 0 22 647 498 synth______________________ 0;
#X obj 53 12 inlet;
#X obj 118 12 inlet;
#X obj 52 53 stripnote;
#N canvas 0 22 540 401 voice 0;
#X floatatom -14 74 5 0 0 0 midi-note - -;
#X obj -16 114 mtof;
#X obj 223 205 osc~;
#X floatatom 253 73 5 0 0 0 ratio - -;
#X obj 254 148 *;
#X floatatom 231 180 5 0 0 0 - - -;
#X floatatom 33 182 5 0 0 0 - - -;
#X obj 171 275 osc~;
#X floatatom 174 74 5 0 0 0 index - -;
#X obj 200 230 *~;
#X obj 172 253 +~;
#X obj 154 175 line~;
#X obj 161 203 *~;
#X obj 246 99 t b f;
#X obj -47 28 inlet;
#X obj 166 40 r index;
#X obj 245 39 r ratio;
#X obj -13 91 t f b;
#X obj 163 98 t b f;
#X obj 169 143 pack f 0;
#X obj 98 146 pack 1 f;
#X obj 71 39 r notelength;
#X obj 35 272 line~;
#X obj 53 244 pack 0 f;
#X msg 3 244 1 0;
#X obj 14 215 t b b;
#X obj 40 300 *~;
#X obj 57 322 *~;
#X obj 83 87 * 4;
#X obj 112 85 * 2;
#X obj 87 347 *~;
#X obj 17 6 inlet;
#X obj 242 281 / 100;
#X obj 244 320 line;
#X floatatom 289 298 5 0 0 0 - - -;
#X text 327 297 time offset to adjust volume to velocity;
#X obj 332 260 loadbang;
#X msg 332 281 50;
#X obj 243 301 + 0.05;
#X obj 64 373 outlet~;
#X obj 21 35 f;
#X connect 0 0 17 0;
#X connect 1 0 4 0;
#X connect 1 0 6 0;
#X connect 2 0 9 1;
#X connect 3 0 13 0;
#X connect 4 0 5 0;
#X connect 5 0 2 0;
#X connect 5 0 12 1;
#X connect 6 0 10 0;
#X connect 6 0 25 0;
#X connect 7 0 27 1;
#X connect 8 0 18 0;
#X connect 9 0 10 1;
#X connect 10 0 7 0;
#X connect 11 0 12 0;
#X connect 12 0 9 0;
#X connect 13 0 4 0;
#X connect 13 1 4 1;
#X connect 14 0 0 0;
#X connect 15 0 8 0;
#X connect 16 0 3 0;
#X connect 17 0 1 0;
#X connect 17 1 40 0;
#X connect 18 0 20 0;
#X connect 18 1 19 0;
#X connect 19 0 11 0;
#X connect 20 0 11 0;
#X connect 21 0 29 0;
#X connect 21 0 28 0;
#X connect 22 0 26 0;
#X connect 22 0 26 1;
#X connect 23 0 22 0;
#X connect 24 0 22 0;
#X connect 25 0 23 0;
#X connect 25 1 24 0;
#X connect 26 0 27 0;
#X connect 27 0 30 0;
#X connect 28 0 23 1;
#X connect 29 0 20 1;
#X connect 30 0 39 0;
#X connect 31 0 40 1;
#X connect 32 0 38 0;
#X connect 33 0 30 1;
#X connect 34 0 33 1;
#X connect 36 0 37 0;
#X connect 37 0 34 0;
#X connect 38 0 33 0;
#X connect 40 0 32 0;
#X restore 66 242 pd voice;
#X obj 293 392 outlet~;
#X obj 51 126 pack f f f;
#N canvas 0 22 540 401 voice 0;
#X floatatom 38 74 5 0 0 0 midi-note - -;
#X obj 36 114 mtof;
#X obj 223 205 osc~;
#X floatatom 253 73 5 0 0 0 ratio - -;
#X obj 254 148 *;
#X floatatom 231 180 5 0 0 0 - - -;
#X floatatom 33 182 5 0 0 0 - - -;
#X obj 171 275 osc~;
#X floatatom 174 74 5 0 0 0 index - -;
#X obj 200 230 *~;
#X obj 172 253 +~;
#X obj 154 175 line~;
#X obj 161 203 *~;
#X obj 246 99 t b f;
#X obj -47 28 inlet;
#X obj 166 40 r index;
#X obj 245 39 r ratio;
#X obj 39 91 t f b;
#X obj 163 98 t b f;
#X obj 169 143 pack f 0;
#X obj 98 146 pack 1 f;
#X obj 71 39 r notelength;
#X obj 35 272 line~;
#X obj 53 244 pack 0 f;
#X msg 3 244 1 0;
#X obj 14 215 t b b;
#X obj 48 319 *~;
#X obj 83 87 * 4;
#X obj 112 85 * 2;
#X obj 17 6 inlet;
#X obj 242 281 / 100;
#X obj 244 320 line;
#X floatatom 289 298 5 0 0 0 - - -;
#X text 327 297 time offset to adjust volume to velocity;
#X obj 332 260 loadbang;
#X msg 332 281 50;
#X obj 243 301 + 0.05;
#X obj 93 382 outlet~;
#X connect 0 0 17 0;
#X connect 1 0 4 0;
#X connect 1 0 6 0;
#X connect 2 0 9 1;
#X connect 3 0 13 0;
#X connect 4 0 5 0;
#X connect 5 0 2 0;
#X connect 5 0 12 1;
#X connect 6 0 10 0;
#X connect 6 0 25 0;
#X connect 7 0 26 1;
#X connect 8 0 18 0;
#X connect 9 0 10 1;
#X connect 10 0 7 0;
#X connect 11 0 12 0;
#X connect 12 0 9 0;
#X connect 13 0 4 0;
#X connect 13 1 4 1;
#X connect 14 0 0 0;
#X connect 15 0 8 0;
#X connect 16 0 3 0;
#X connect 17 0 1 0;
#X connect 18 0 20 0;
#X connect 18 1 19 0;
#X connect 19 0 11 0;
#X connect 20 0 11 0;
#X connect 21 0 28 0;
#X connect 21 0 27 0;
#X connect 22 0 26 0;
#X connect 23 0 22 0;
#X connect 24 0 22 0;
#X connect 25 0 23 0;
#X connect 25 1 24 0;
#X connect 26 0 37 0;
#X connect 27 0 23 1;
#X connect 28 0 20 1;
#X connect 29 0 30 0;
#X connect 30 0 36 0;
#X connect 32 0 31 1;
#X connect 34 0 35 0;
#X connect 35 0 32 0;
#X connect 36 0 31 0;
#X restore 144 245 pd voice;
#N canvas 0 22 540 401 voice 0;
#X floatatom 38 74 5 0 0 0 midi-note - -;
#X obj 36 114 mtof;
#X obj 223 205 osc~;
#X floatatom 253 73 5 0 0 0 ratio - -;
#X obj 254 148 *;
#X floatatom 231 180 5 0 0 0 - - -;
#X floatatom 33 182 5 0 0 0 - - -;
#X obj 171 275 osc~;
#X floatatom 174 74 5 0 0 0 index - -;
#X obj 200 230 *~;
#X obj 172 253 +~;
#X obj 154 175 line~;
#X obj 161 203 *~;
#X obj 246 99 t b f;
#X obj -47 28 inlet;
#X obj 166 40 r index;
#X obj 245 39 r ratio;
#X obj 39 91 t f b;
#X obj 163 98 t b f;
#X obj 169 143 pack f 0;
#X obj 98 146 pack 1 f;
#X obj 71 39 r notelength;
#X obj 35 272 line~;
#X obj 53 244 pack 0 f;
#X msg 3 244 1 0;
#X obj 14 215 t b b;
#X obj 40 300 *~;
#X obj 48 319 *~;
#X obj 83 87 * 4;
#X obj 112 85 * 2;
#X obj 87 347 *~;
#X obj 17 6 inlet;
#X obj 242 281 / 100;
#X obj 244 320 line;
#X floatatom 289 298 5 0 0 0 - - -;
#X text 327 297 time offset to adjust volume to velocity;
#X obj 332 260 loadbang;
#X msg 332 281 50;
#X obj 243 301 + 0.05;
#X obj 64 373 outlet~;
#X connect 0 0 17 0;
#X connect 1 0 4 0;
#X connect 1 0 6 0;
#X connect 2 0 9 1;
#X connect 3 0 13 0;
#X connect 4 0 5 0;
#X connect 5 0 2 0;
#X connect 5 0 12 1;
#X connect 6 0 10 0;
#X connect 6 0 25 0;
#X connect 7 0 27 1;
#X connect 8 0 18 0;
#X connect 9 0 10 1;
#X connect 10 0 7 0;
#X connect 11 0 12 0;
#X connect 12 0 9 0;
#X connect 13 0 4 0;
#X connect 13 1 4 1;
#X connect 14 0 0 0;
#X connect 15 0 8 0;
#X connect 16 0 3 0;
#X connect 17 0 1 0;
#X connect 18 0 20 0;
#X connect 18 1 19 0;
#X connect 19 0 11 0;
#X connect 20 0 11 0;
#X connect 21 0 29 0;
#X connect 21 0 28 0;
#X connect 22 0 26 0;
#X connect 22 0 26 1;
#X connect 23 0 22 0;
#X connect 24 0 22 0;
#X connect 25 0 23 0;
#X connect 25 1 24 0;
#X connect 26 0 27 0;
#X connect 27 0 30 0;
#X connect 28 0 23 1;
#X connect 29 0 20 1;
#X connect 30 0 39 0;
#X connect 31 0 32 0;
#X connect 32 0 38 0;
#X connect 33 0 30 1;
#X connect 34 0 33 1;
#X connect 36 0 37 0;
#X connect 37 0 34 0;
#X connect 38 0 33 0;
#X restore 218 245 pd voice;
#N canvas 0 22 540 401 voice 0;
#X floatatom 38 74 5 0 0 0 midi-note - -;
#X obj 36 114 mtof;
#X obj 223 205 osc~;
#X floatatom 253 73 5 0 0 0 ratio - -;
#X obj 254 148 *;
#X floatatom 231 180 5 0 0 0 - - -;
#X floatatom 33 182 5 0 0 0 - - -;
#X obj 171 275 osc~;
#X floatatom 174 74 5 0 0 0 index - -;
#X obj 200 230 *~;
#X obj 172 253 +~;
#X obj 154 175 line~;
#X obj 161 203 *~;
#X obj 246 99 t b f;
#X obj -47 28 inlet;
#X obj 166 40 r index;
#X obj 245 39 r ratio;
#X obj 39 91 t f b;
#X obj 163 98 t b f;
#X obj 169 143 pack f 0;
#X obj 98 146 pack 1 f;
#X obj 71 39 r notelength;
#X obj 35 272 line~;
#X obj 53 244 pack 0 f;
#X msg 3 244 1 0;
#X obj 14 215 t b b;
#X obj 40 300 *~;
#X obj 48 319 *~;
#X obj 83 87 * 4;
#X obj 112 85 * 2;
#X obj 87 347 *~;
#X obj 17 6 inlet;
#X obj 242 281 / 100;
#X obj 244 320 line;
#X floatatom 289 298 5 0 0 0 - - -;
#X text 327 297 time offset to adjust volume to velocity;
#X obj 332 260 loadbang;
#X msg 332 281 50;
#X obj 243 301 + 0.05;
#X obj 64 373 outlet~;
#X connect 0 0 17 0;
#X connect 1 0 4 0;
#X connect 1 0 6 0;
#X connect 2 0 9 1;
#X connect 3 0 13 0;
#X connect 4 0 5 0;
#X connect 5 0 2 0;
#X connect 5 0 12 1;
#X connect 6 0 10 0;
#X connect 6 0 25 0;
#X connect 7 0 27 1;
#X connect 8 0 18 0;
#X connect 9 0 10 1;
#X connect 10 0 7 0;
#X connect 11 0 12 0;
#X connect 12 0 9 0;
#X connect 13 0 4 0;
#X connect 13 1 4 1;
#X connect 14 0 0 0;
#X connect 15 0 8 0;
#X connect 16 0 3 0;
#X connect 17 0 1 0;
#X connect 18 0 20 0;
#X connect 18 1 19 0;
#X connect 19 0 11 0;
#X connect 20 0 11 0;
#X connect 21 0 29 0;
#X connect 21 0 28 0;
#X connect 22 0 26 0;
#X connect 22 0 26 1;
#X connect 23 0 22 0;
#X connect 24 0 22 0;
#X connect 25 0 23 0;
#X connect 25 1 24 0;
#X connect 26 0 27 0;
#X connect 27 0 30 0;
#X connect 28 0 23 1;
#X connect 29 0 20 1;
#X connect 30 0 39 0;
#X connect 31 0 32 0;
#X connect 32 0 38 0;
#X connect 33 0 30 1;
#X connect 34 0 33 1;
#X connect 36 0 37 0;
#X connect 37 0 34 0;
#X connect 38 0 33 0;
#X restore 286 246 pd voice;
#X obj 66 219 unpack f f;
#X obj 140 219 unpack f f;
#X obj 213 219 unpack f f;
#X obj 286 220 unpack f f;
#N canvas 0 22 450 300 adsr~ 0;
#X obj 39 95 bng 15 250 50 0 empty empty empty 0 -6 0 8 -262144 -1
-1;
#X obj 161 146 delay;
#X floatatom 114 113 5 0 250 0 attack - -;
#X floatatom 200 113 5 0 250 0 decay - -;
#X floatatom 295 113 5 0 100 0 sustain - -;
#X floatatom 392 113 5 0 250 0 release - -;
#X obj 185 167 bng 15 250 50 0 empty empty empty 0 -6 0 8 -262144 -1
-1;
#X obj 98 190 pack 100 0;
#X obj 182 202 pack 0 0;
#X obj 356 167 pack 0 0;
#X obj 355 90 bng 15 250 50 0 empty empty empty 0 -6 0 8 -262144 -1
-1;
#X obj 41 28 inlet;
#X obj 120 29 inlet;
#X obj 197 30 inlet;
#X obj 288 31 inlet;
#X obj 387 32 inlet;
#X obj 184 273 outlet~;
#X obj 43 52 select 0;
#X msg 155 91 stop;
#X msg 64 221 0 1;
#X obj 108 90 max 1;
#X obj 396 73 max 1;
#X obj 57 141 t b b;
#X obj 178 238 vline~;
#X obj 205 176 float;
#X connect 0 0 22 0;
#X connect 1 0 6 0;
#X connect 2 0 7 1;
#X connect 2 0 1 1;
#X connect 3 0 8 1;
#X connect 4 0 24 1;
#X connect 5 0 9 1;
#X connect 6 0 24 0;
#X connect 7 0 23 0;
#X connect 8 0 23 0;
#X connect 9 0 23 0;
#X connect 10 0 9 0;
#X connect 11 0 17 0;
#X connect 12 0 20 0;
#X connect 13 0 3 0;
#X connect 14 0 4 0;
#X connect 15 0 21 0;
#X connect 17 0 10 0;
#X connect 17 0 18 0;
#X connect 17 1 0 0;
#X connect 18 0 1 0;
#X connect 19 0 23 0;
#X connect 20 0 2 0;
#X connect 21 0 5 0;
#X connect 22 0 7 0;
#X connect 22 1 1 0;
#X connect 22 1 19 0;
#X connect 23 0 16 0;
#X connect 24 0 8 0;
#X restore 455 219 pd adsr~;
#X obj 324 49 inlet;
#X obj 389 49 inlet;
#X obj 452 50 inlet;
#X obj 517 50 inlet;
#X obj 311 341 *~ 0.0018;
#X obj 108 164 route 1 2 3 4;
#X obj 577 60 inlet;
#X obj 311 317 *~;
#X obj 559 108 t b;
#X obj 52 97 poly 4 1;
#X connect 0 0 2 0;
#X connect 1 0 2 1;
#X connect 2 0 23 0;
#X connect 2 1 13 0;
#X connect 2 1 23 1;
#X connect 3 0 21 0;
#X connect 5 0 19 0;
#X connect 6 0 21 0;
#X connect 7 0 21 0;
#X connect 8 0 21 0;
#X connect 9 0 3 0;
#X connect 9 1 3 1;
#X connect 10 0 6 0;
#X connect 10 1 6 1;
#X connect 11 0 7 0;
#X connect 11 1 7 1;
#X connect 12 0 8 0;
#X connect 12 1 8 1;
#X connect 13 0 21 1;
#X connect 14 0 13 1;
#X connect 15 0 13 2;
#X connect 16 0 13 3;
#X connect 17 0 13 4;
#X connect 18 0 4 0;
#X connect 19 0 9 0;
#X connect 19 1 10 0;
#X connect 19 2 11 0;
#X connect 19 3 12 0;
#X connect 20 0 19 0;
#X connect 20 0 22 0;
#X connect 21 0 18 0;
#X connect 22 0 13 0;
#X connect 23 0 5 0;
#X connect 23 1 5 1;
#X connect 23 2 5 2;
#X restore 41 6 pd synth______________________;
#X obj 111 -27 / 1;
#X obj 154 -28 / 1;
#X obj 199 -27 / 1;
#X obj 243 -27 / 1;
#X text 165 -253 A;
#X text 205 -232 D;
#X text 252 -217 S;
#X text 291 -190 R;
#X msg 398 -108 \; ratio 1 \; index 10;
#X obj 73 -142 r vel1;
#X obj 41 -162 r note;
#N canvas 0 22 450 300 (subpatch) 0;
#X obj -30 22 spigot;
#X obj 2 3 tgl 15 0 empty empty empty 17 7 0 10 -262144 -1 -1 1 1;
#X obj -58 0 inlet;
#X obj -54 54 outlet;
#X connect 0 0 3 0;
#X connect 1 0 0 1;
#X connect 2 0 0 0;
#X coords 0 1 100 -1 20 20 1 0 0;
#X restore 342 -167 graph;
#X obj 341 -189 r polynote;
#X text 370 -165 receive from polyseq32;
#X connect 0 0 5 0;
#X connect 0 1 6 0;
#X connect 1 0 38 0;
#X connect 2 0 38 1;
#X connect 3 0 1 0;
#X connect 4 0 2 0;
#X connect 5 0 1 0;
#X connect 6 0 2 0;
#X connect 18 0 39 0;
#X connect 19 0 40 0;
#X connect 20 0 41 0;
#X connect 21 0 42 0;
#X connect 22 0 38 2;
#X connect 23 0 38 3;
#X connect 24 0 38 4;
#X connect 25 0 38 5;
#X connect 26 0 21 0;
#X connect 27 0 20 0;
#X connect 28 0 19 0;
#X connect 29 0 18 0;
#X connect 30 0 29 0;
#X connect 31 0 28 0;
#X connect 32 0 27 0;
#X connect 33 0 26 0;
#X connect 34 0 33 0;
#X connect 35 0 32 0;
#X connect 36 0 31 0;
#X connect 37 0 30 0;
#X connect 38 0 17 0;
#X connect 39 0 22 0;
#X connect 40 0 23 0;
#X connect 41 0 24 0;
#X connect 42 0 25 0;
#X connect 48 0 4 0;
#X connect 49 0 3 0;
#X connect 50 0 38 6;
#X connect 51 0 50 0;
