#N canvas 0 22 450 300 10;
#N canvas 82 177 450 300 bass 0;
#X obj 105 37 inlet;
#X obj 188 109 line~;
#X msg 184 77 1 0;
#X obj 206 52 t b b;
#X obj 154 211 phasor~;
#X obj 154 182 mtof;
#X obj 195 270 *~;
#X obj 263 242 outlet~;
#X obj 63 197 phasor~;
#X obj 63 168 mtof;
#X obj 151 249 svf~;
#X obj 281 128 mtof~;
#X msg 224 78 0 1500;
#X obj 57 135 + 24;
#X obj 244 157 +~ 110;
#X obj 286 107 *~ 75;
#X obj 114 251 /~ 2;
#X obj 238 211 0.6;
#X obj 305 186 loadbang;
#X connect 0 0 5 0;
#X connect 0 0 3 0;
#X connect 0 0 13 0;
#X connect 1 0 6 1;
#X connect 1 0 15 0;
#X connect 2 0 1 0;
#X connect 3 0 12 0;
#X connect 3 1 2 0;
#X connect 4 0 10 0;
#X connect 5 0 4 0;
#X connect 6 0 7 0;
#X connect 8 0 16 0;
#X connect 9 0 8 0;
#X connect 10 0 6 0;
#X connect 11 0 14 0;
#X connect 12 0 1 0;
#X connect 13 0 9 0;
#X connect 14 0 10 1;
#X connect 15 0 11 0;
#X connect 16 0 10 0;
#X connect 17 0 10 2;
#X connect 18 0 17 0;
#X restore 184 120 pd bass;
#X obj 184 147 /~ 2;
#N canvas 0 22 450 300 (subpatch) 0;
#X obj 59 155 inlet;
#X obj 3 89 inlet~;
#X obj 58 182 change;
#X msg 60 246 set \$1;
#X obj 60 227 tosymbol;
#X obj 59 204 sprintf Bus%d;
#X obj 3 282 throw~ Bus0;
#X obj 2 3 popup 124 25 #ffffff popup Bus0 Bus1 Bus2 Bus3 Bus4 Bus5
Bus6 Bus7 Bus8 Bus9 Bus10 Bus11 Bus12 Bus13 Bus14 Bus15 Bus16;
#X obj 1 32 route bang;
#X obj 154 202 *~;
#X obj 141 7 tgl 15 0 empty empty Dac 19 7 0 10 -262144 -1 -1 1 1;
#X obj 155 238 dac~;
#X obj 5 -62 loadbang;
#X text 63 -64 Bus0 mutes;
#X msg 5 -44 options Bus0 Bus1 Bus2 Bus3 Bus4 Bus5 Bus6 Bus7 Bus8 Bus9
Bus10 Bus11 Bus12 Bus13 Bus14 Bus15 Bus16;
#X connect 0 0 2 0;
#X connect 1 0 6 0;
#X connect 1 0 9 0;
#X connect 2 0 5 0;
#X connect 3 0 6 0;
#X connect 4 0 3 0;
#X connect 5 0 4 0;
#X connect 7 0 8 0;
#X connect 8 1 2 0;
#X connect 9 0 11 0;
#X connect 9 0 11 1;
#X connect 10 0 9 1;
#X connect 12 0 14 0;
#X connect 14 0 7 0;
#X coords 0 1 100 -1 180 30 1 0 0;
#X restore 184 171 graph;
#X obj 184 34 r note1;
#X obj 123 55 notein;
#X floatatom 184 99 5 0 0 0 - - -;
#N canvas 0 22 450 300 (subpatch) 0;
#X obj -30 22 spigot;
#X obj 2 3 tgl 15 0 empty empty empty 17 7 0 10 -262144 -1 -1 0 1;
#X obj -58 0 inlet;
#X obj -54 54 outlet;
#X connect 0 0 3 0;
#X connect 1 0 0 1;
#X connect 2 0 0 0;
#X coords 0 1 100 -1 20 20 1 0 0;
#X restore 184 55 graph;
#N canvas 0 22 450 300 (subpatch) 0;
#X obj -30 22 spigot;
#X obj 2 3 tgl 15 0 empty empty empty 17 7 0 10 -262144 -1 -1 0 1;
#X obj -58 0 inlet;
#X obj -54 54 outlet;
#X connect 0 0 3 0;
#X connect 1 0 0 1;
#X connect 2 0 0 0;
#X coords 0 1 100 -1 20 20 1 0 0;
#X restore 123 79 graph;
#X connect 0 0 1 0;
#X connect 1 0 2 0;
#X connect 3 0 6 0;
#X connect 4 0 7 0;
#X connect 5 0 0 0;
#X connect 6 0 5 0;
#X connect 7 0 5 0;
