#N canvas 56 22 328 431 10;
#X obj -66 146 notein;
#X floatatom -11 187 5 0 0 0 - - -;
#X floatatom 21 187 5 0 0 0 - - -;
#X floatatom 68 154 5 0 0 0 - - -;
#X floatatom 111 154 5 0 0 0 - - -;
#X floatatom 68 187 5 0 0 0 - - -;
#X floatatom 111 187 5 0 0 0 - - -;
#X obj 68 170 / 127;
#X obj 111 170 / 127;
#N canvas 0 22 450 300 (subpatch) 0;
#X obj -30 22 spigot;
#X obj 2 3 tgl 15 0 empty empty empty 17 7 0 10 -262144 -1 -1 0 1;
#X obj -58 0 inlet;
#X obj -54 54 outlet;
#X connect 0 0 3 0;
#X connect 1 0 0 1;
#X connect 2 0 0 0;
#X coords 0 1 100 -1 20 20 1 0 0;
#X restore -11 145 graph;
#N canvas 0 22 450 300 (subpatch) 0;
#X obj -30 22 spigot;
#X obj 2 3 tgl 15 0 empty empty empty 17 7 0 10 -262144 -1 -1 0 1;
#X obj -58 0 inlet;
#X obj -54 54 outlet;
#X connect 0 0 3 0;
#X connect 1 0 0 1;
#X connect 2 0 0 0;
#X coords 0 1 100 -1 20 20 1 0 0;
#X restore 21 145 graph;
#N canvas 0 22 450 300 (subpatch) 0;
#X obj -30 22 spigot;
#X obj 2 3 tgl 15 0 empty empty empty 17 7 0 10 -262144 -1 -1 0 1;
#X obj -58 0 inlet;
#X obj -54 54 outlet;
#X connect 0 0 3 0;
#X connect 1 0 0 1;
#X connect 2 0 0 0;
#X coords 0 1 100 -1 20 20 1 0 0;
#X restore -66 167 graph;
#N canvas 0 22 450 300 (subpatch) 0;
#X obj -30 22 spigot;
#X obj 2 3 tgl 15 0 empty empty empty 17 7 0 10 -262144 -1 -1 0 1;
#X obj -58 0 inlet;
#X obj -54 54 outlet;
#X connect 0 0 3 0;
#X connect 1 0 0 1;
#X connect 2 0 0 0;
#X coords 0 1 100 -1 20 20 1 0 0;
#X restore -46 167 graph;
#X obj -11 9 r noteBanded;
#X obj 21 29 r velBanded;
#X obj 111 125 knob 25 25 0 127 0 0 empty empty empty 0 -8 32 8 -1
-260097 -260097 0 1;
#X obj 68 125 knob 25 25 0 127 0 0 empty empty empty 0 -8 32 8 -1 -260097
-260097 0 1;
#N canvas 0 22 450 300 (subpatch) 0;
#X obj -30 22 spigot;
#X obj 2 3 tgl 15 0 empty empty empty 17 7 0 10 -262144 -1 -1 0 1;
#X obj -58 0 inlet;
#X obj -54 54 outlet;
#X connect 0 0 3 0;
#X connect 1 0 0 1;
#X connect 2 0 0 0;
#X coords 0 1 100 -1 20 20 1 0 0;
#X restore 68 102 graph;
#N canvas 0 22 450 300 (subpatch) 0;
#X obj -30 22 spigot;
#X obj 2 3 tgl 15 0 empty empty empty 17 7 0 10 -262144 -1 -1 0 1;
#X obj -58 0 inlet;
#X obj -54 54 outlet;
#X connect 0 0 3 0;
#X connect 1 0 0 1;
#X connect 2 0 0 0;
#X coords 0 1 100 -1 20 20 1 0 0;
#X restore 111 102 graph;
#X obj 111 70 ctlin 2;
#X obj 68 49 ctlin 1;
#N canvas 0 22 450 300 (subpatch) 0;
#X obj 59 155 inlet;
#X obj 3 89 inlet~;
#X obj 58 182 change;
#X msg 60 246 set \$1;
#X obj 60 227 tosymbol;
#X obj 59 204 sprintf Bus%d;
#X obj 3 282 throw~ Bus0;
#X obj 2 3 popup 124 25 #ffffff popup Bus0 Bus1 Bus2 Bus3 Bus4 Bus5
;
#X obj 1 32 route bang;
#X obj 154 202 *~;
#X obj 141 7 tgl 15 0 empty empty Dac 19 7 0 10 -262144 -1 -1 0 1;
#X obj 155 238 dac~;
#X obj 1 -41 loadbang;
#X text 59 -43 Bus0 mutes;
#X msg 1 -23 options Bus0 Bus1 Bus2 Bus3 Bus4 Bus5 Bus6 Bus7 Bus8 Bus9
Bus10 Bus11 Bus12 Bus13 Bus14 Bus15 Bus16;
#X connect 0 0 2 0;
#X connect 1 0 6 0;
#X connect 1 0 9 0;
#X connect 2 0 5 0;
#X connect 3 0 6 0;
#X connect 4 0 3 0;
#X connect 5 0 4 0;
#X connect 7 0 8 0;
#X connect 8 1 2 0;
#X connect 9 0 11 0;
#X connect 9 0 11 1;
#X connect 10 0 9 1;
#X connect 12 0 14 0;
#X connect 14 0 7 0;
#X coords 0 1 100 -1 180 30 1 0 0;
#X restore -11 220 graph;
#N canvas 391 79 594 471 BassSaw________________ 0;
#X obj 194 491 cos~;
#X obj 182 355 phasor~;
#X obj 182 463 +~;
#X obj 193 540 *~;
#X obj 207 306 vline~;
#X msg 207 272 0 \, 1 0 0 \, 0 600 0;
#X obj 156 278 mtof;
#X obj 156 255 t f b;
#X obj 193 564 *~ 0.4;
#X obj 198 419 *~;
#X obj 236 362 +~ 1;
#X obj 197 439 cos~;
#X obj 236 386 +~;
#X obj 289 314 r~ fb;
#X obj 221 522 s~ fb;
#X obj 271 362 *~;
#X obj 288 338 *~;
#X msg 161 231 37;
#X msg 187 228 39;
#X msg 216 229 27;
#X msg 248 232 30;
#X msg 277 232 32;
#X obj 345 269 hsl 128 15 0 1 0 1 empty empty modinx 30 7 1 8 -262144
-1 -1 0 1;
#X obj 344 293 hsl 128 15 0 1 0 1 empty empty feedbk 30 7 1 8 -262144
-1 -1 0 1;
#X obj 236 338 *~;
#X obj 87 189 inlet;
#X obj 168 168 inlet;
#X obj 312 182 inlet;
#X obj 381 202 inlet;
#X obj 197 590 outlet~;
#X obj 316 516 line;
#X floatatom 361 494 5 0 0 0 - - -;
#X text 399 493 time offset to adjust volume to velocity;
#X obj 404 456 loadbang;
#X msg 404 477 50;
#X obj 315 497 + 0.05;
#X obj 314 477 / 127;
#X connect 0 0 3 0;
#X connect 0 0 14 0;
#X connect 1 0 2 0;
#X connect 1 0 9 0;
#X connect 2 0 0 0;
#X connect 3 0 8 0;
#X connect 4 0 3 1;
#X connect 4 0 24 0;
#X connect 5 0 4 0;
#X connect 6 0 1 0;
#X connect 7 0 6 0;
#X connect 7 1 5 0;
#X connect 8 0 29 0;
#X connect 9 0 11 0;
#X connect 10 0 12 0;
#X connect 11 0 2 1;
#X connect 12 0 9 1;
#X connect 13 0 16 0;
#X connect 15 0 12 1;
#X connect 16 0 15 1;
#X connect 17 0 7 0;
#X connect 18 0 7 0;
#X connect 19 0 7 0;
#X connect 20 0 7 0;
#X connect 21 0 7 0;
#X connect 22 0 24 1;
#X connect 23 0 16 1;
#X connect 24 0 10 0;
#X connect 24 0 15 0;
#X connect 25 0 7 0;
#X connect 26 0 36 0;
#X connect 27 0 22 0;
#X connect 28 0 23 0;
#X connect 30 0 8 1;
#X connect 31 0 30 1;
#X connect 33 0 34 0;
#X connect 34 0 31 0;
#X connect 35 0 30 0;
#X connect 36 0 35 0;
#X restore -11 203 pd BassSaw________________;
#X text 120 49 Mod;
#X text 165 71 Feedback;
#X connect 0 0 11 0;
#X connect 0 1 12 0;
#X connect 1 0 22 0;
#X connect 2 0 22 1;
#X connect 3 0 7 0;
#X connect 4 0 8 0;
#X connect 5 0 22 2;
#X connect 6 0 22 3;
#X connect 7 0 5 0;
#X connect 8 0 6 0;
#X connect 9 0 1 0;
#X connect 10 0 2 0;
#X connect 11 0 1 0;
#X connect 12 0 2 0;
#X connect 13 0 9 0;
#X connect 14 0 10 0;
#X connect 15 0 4 0;
#X connect 16 0 3 0;
#X connect 17 0 16 0;
#X connect 18 0 15 0;
#X connect 19 0 18 0;
#X connect 20 0 17 0;
#X connect 22 0 21 0;
