#N canvas 15 377 781 336 10;
#X obj 208 168 notein;
#X floatatom 256 208 5 0 0 0 - - -;
#X obj 256 149 r note;
#X text 417 149 Musical Box wrapper;
#X text 417 164 Nitendo like wrapper;
#X text 417 179 Brass sound toy;
#X text 417 195 Backwards ?;
#X obj 397 103 vradio 15 1 0 8 empty empty empty 0 -8 0 10 -262144
-1 -1 0;
#X text 417 101 Hollow Strings;
#X text 417 118 Bass sound wrapper;
#X text 417 134 Pluckstring wrapper;
#N canvas 0 22 614 447 MultiPurpose3cosSynth 0;
#N canvas 0 22 450 300 3cossynth 0;
#X obj 146 195 osc~;
#X obj 145 220 *~ 0.09;
#X obj 202 195 osc~;
#X obj 265 195 osc~;
#X obj 202 220 *~ 0.05;
#X obj 266 222 *~ 0.02;
#X obj 202 170 *;
#X obj 265 171 *;
#X obj 218 141 * 4;
#X obj 281 141 * 8;
#X obj 201 259 clip~ -0.1 0.1;
#X obj 93 348 *~;
#X obj 46 121 mtof;
#X obj 93 317 line;
#X obj 93 396 outlet~;
#X obj 46 228 pack 1 1;
#X obj 93 289 pack 0 1;
#X obj 93 262 del 1;
#X obj 93 370 *~;
#X obj 46 84 unpack 1 2 3 4 5 6 7 8 9;
#X obj 97 196 t f f;
#X obj 46 176 t b b;
#X obj 46 51 inlet parameters;
#X text 40 20 3 oscillator and clip synth;
#X connect 0 0 1 0;
#X connect 1 0 10 0;
#X connect 2 0 4 0;
#X connect 3 0 5 0;
#X connect 4 0 10 0;
#X connect 5 0 10 0;
#X connect 6 0 2 0;
#X connect 7 0 3 0;
#X connect 8 0 6 1;
#X connect 9 0 7 1;
#X connect 10 0 11 1;
#X connect 11 0 18 0;
#X connect 12 0 0 0;
#X connect 12 0 6 0;
#X connect 12 0 7 0;
#X connect 12 0 21 0;
#X connect 13 0 11 0;
#X connect 15 0 13 0;
#X connect 16 0 13 0;
#X connect 17 0 16 0;
#X connect 18 0 14 0;
#X connect 19 0 12 0;
#X connect 19 1 1 1;
#X connect 19 2 4 1;
#X connect 19 3 5 1;
#X connect 19 4 8 0;
#X connect 19 5 9 0;
#X connect 19 6 20 0;
#X connect 19 7 16 1;
#X connect 19 8 18 1;
#X connect 20 0 15 1;
#X connect 20 1 17 1;
#X connect 21 0 15 0;
#X connect 21 1 17 0;
#X connect 22 0 19 0;
#X restore 224 378 pd 3cossynth;
#X text 306 379 (note \, l0 \, l1 \, l2 \, f1 \, f2 \, A \, D \, Amp)
;
#X msg 242 175 \$1 0.298 0.353 0.172 0.122 0.251 20 1000 0.9;
#X msg 261 211 \$1 0.298 0.353 0.172 0.122 0.502 10 100 0.4;
#N canvas 0 22 753 576 HollowString 0;
#X obj 191 374 random 2;
#X obj 154 395 spigot;
#X obj 370 217 * 0.02;
#X obj 370 240 + 0.69;
#X obj 293 177 random 100;
#X obj 293 196 / 100;
#X obj 293 241 + 0.369;
#X obj 293 218 * 0.001;
#X obj 370 177 random 100;
#X obj 370 196 / 100;
#X obj 454 177 random 100;
#X obj 454 196 / 100;
#X obj 454 217 * 100;
#X obj 454 240 + 50;
#X obj 531 176 random 100;
#X obj 531 195 / 100;
#X obj 154 315 pack f f f f f;
#X obj 531 216 * 800;
#X obj 531 239 + 120;
#X msg 154 340 \$1 0.298 0.2 0.2 \$2 \$3 \$4 \$5 0.6;
#X text 186 25 stringy resonances;
#X text 399 150 randomised synth parameters;
#X text 287 322 fixed synth parameters;
#X obj 155 431 outlet;
#X obj 39 54 inlet;
#X obj 77 91 bng 15 250 50 0 empty empty empty 17 7 0 10 -262144 -1
-1;
#X connect 0 0 1 1;
#X connect 2 0 3 0;
#X connect 3 0 16 2;
#X connect 4 0 5 0;
#X connect 5 0 7 0;
#X connect 6 0 16 1;
#X connect 7 0 6 0;
#X connect 8 0 9 0;
#X connect 9 0 2 0;
#X connect 10 0 11 0;
#X connect 11 0 12 0;
#X connect 12 0 13 0;
#X connect 13 0 16 3;
#X connect 14 0 15 0;
#X connect 15 0 17 0;
#X connect 16 0 19 0;
#X connect 17 0 18 0;
#X connect 18 0 16 4;
#X connect 19 0 23 0;
#X connect 24 0 25 0;
#X connect 24 0 16 0;
#X connect 25 0 4 0;
#X connect 25 0 8 0;
#X connect 25 0 10 0;
#X connect 25 0 14 0;
#X connect 25 0 0 0;
#X restore 224 134 pd HollowString;
#X obj 224 64 prepend;
#X floatatom 311 58 5 0 0 0 - - -;
#X msg 280 244 \$1 0 0 0.25 1 1 0 500;
#X msg 298 279 \$1 1 0 0 0 0.354 7.99 450;
#X msg 319 311 \$1 1 0 1 1 0 52.91 720;
#X msg 333 344 \$1 1 0 1 1 1 150 0;
#X obj 224 83 route 0 1 2 3 4 5 6;
#X obj 315 18 inlet;
#X obj 212 20 inlet;
#X obj 224 400 outlet~;
#X connect 0 0 14 0;
#X connect 2 0 0 0;
#X connect 3 0 0 0;
#X connect 4 0 0 0;
#X connect 5 0 11 0;
#X connect 6 0 5 1;
#X connect 7 0 0 0;
#X connect 8 0 0 0;
#X connect 9 0 0 0;
#X connect 10 0 0 0;
#X connect 11 0 4 0;
#X connect 11 1 2 0;
#X connect 11 2 3 0;
#X connect 11 3 7 0;
#X connect 11 4 8 0;
#X connect 11 5 9 0;
#X connect 11 6 10 0;
#X connect 12 0 6 0;
#X connect 13 0 5 0;
#X restore 256 224 pd MultiPurpose3cosSynth;
#N canvas 0 22 450 300 (subpatch) 0;
#X obj 59 155 inlet;
#X obj 3 89 inlet~;
#X obj 58 182 change;
#X msg 60 246 set \$1;
#X obj 60 227 tosymbol;
#X obj 59 204 sprintf Bus%d;
#X obj 3 282 throw~ Bus0;
#X obj 2 3 popup 124 25 #ffffff popup Bus0 Bus1 Bus2 Bus3 Bus4 Bus5
;
#X obj 1 32 route bang;
#X obj 154 202 *~;
#X obj 141 7 tgl 15 0 empty empty Dac 19 7 0 10 -262144 -1 -1 0 1;
#X obj 155 238 dac~;
#X obj 1 -50 loadbang;
#X text 61 -50 Bus0 mutes;
#X msg 3 -30 options Bus0 Bus1 Bus2 Bus3 Bus4 Bus5 Bus6 Bus7 Bus8 Bus9
Bus10 Bus11 Bus12 Bus13 Bus14 Bus15 Bus16;
#X connect 0 0 2 0;
#X connect 1 0 6 0;
#X connect 1 0 9 0;
#X connect 2 0 5 0;
#X connect 3 0 6 0;
#X connect 4 0 3 0;
#X connect 5 0 4 0;
#X connect 7 0 8 0;
#X connect 8 1 2 0;
#X connect 9 0 11 0;
#X connect 9 0 11 1;
#X connect 10 0 9 1;
#X connect 12 0 14 0;
#X connect 14 0 7 0;
#X coords 0 1 100 -1 180 30 1 0 0;
#X restore 256 241 graph;
#N canvas 0 22 450 300 (subpatch) 0;
#X obj -30 22 spigot;
#X obj 2 3 tgl 15 0 empty empty empty 17 7 0 10 -262144 -1 -1 0 1;
#X obj -58 0 inlet;
#X obj -54 54 outlet;
#X connect 0 0 3 0;
#X connect 1 0 0 1;
#X connect 2 0 0 0;
#X coords 0 1 100 -1 20 20 1 0 0;
#X restore 208 188 graph;
#N canvas 0 22 450 300 (subpatch) 0;
#X obj -30 22 spigot;
#X obj 2 3 tgl 15 0 empty empty empty 17 7 0 10 -262144 -1 -1 0 1;
#X obj -58 0 inlet;
#X obj -54 54 outlet;
#X connect 0 0 3 0;
#X connect 1 0 0 1;
#X connect 2 0 0 0;
#X coords 0 1 100 -1 20 20 1 0 0;
#X restore 256 166 graph;
#X connect 0 0 13 0;
#X connect 1 0 11 0;
#X connect 2 0 14 0;
#X connect 7 0 11 1;
#X connect 11 0 12 0;
#X connect 13 0 1 0;
#X connect 14 0 1 0;
