#N canvas 190 153 414 307 10;
#N canvas 217 65 807 703 qwertz-keys 0;
#X msg -121 181 0;
#X msg -89 182 1;
#X msg -57 182 2;
#X msg -23 182 3;
#X msg 10 182 4;
#X msg 44 182 5;
#X msg 78 183 6;
#X msg 116 182 7;
#X msg 150 182 8;
#X msg 182 183 9;
#X msg 214 183 10;
#X msg 247 182 11;
#X msg 281 183 12;
#X msg 315 183 13;
#X msg 351 183 14;
#X msg 387 183 15;
#X msg 427 183 16;
#X obj -173 623 outlet;
#X obj 66 654 outlet;
#X obj -97 71 key;
#X obj -25 128 select 113 50 119 51 101 114 53 116 54 122 55 117 105
57 111 48 112;
#X obj 20 78 keyup;
#X obj 11 541 ==;
#X msg -121 468 1;
#X msg 87 593 0;
#X obj 12 568 moses 0.1;
#X obj -146 435 + 48;
#X obj 69 621 change;
#X text -3 111 q2w3er5t6z7ui9o0p \, 'upper manual';
#X text -3 17 monophonic qwertz keyboard. german keyboard layout. turn
key-auto-repeat off!;
#X msg 123 356 0;
#X msg 155 357 1;
#X msg 187 357 2;
#X msg 221 357 3;
#X msg 254 357 4;
#X msg 288 357 5;
#X msg 322 358 6;
#X msg 360 357 7;
#X msg 394 357 8;
#X msg 426 358 9;
#X msg 465 359 10;
#X msg 501 360 11;
#X obj 121 424 + 36;
#X floatatom -124 112 5 0 0 0 - - -;
#X text 321 297 ysxdcvgbhnjm \, 'lower manaul';
#X obj 172 317 select 121 115 120 100 99 118 103 98 104 110 106 109
;
#X connect 0 0 26 0;
#X connect 1 0 26 0;
#X connect 2 0 26 0;
#X connect 3 0 26 0;
#X connect 4 0 26 0;
#X connect 5 0 26 0;
#X connect 6 0 26 0;
#X connect 7 0 26 0;
#X connect 8 0 26 0;
#X connect 9 0 26 0;
#X connect 10 0 26 0;
#X connect 11 0 26 0;
#X connect 12 0 26 0;
#X connect 13 0 26 0;
#X connect 14 0 26 0;
#X connect 15 0 26 0;
#X connect 16 0 26 0;
#X connect 19 0 20 0;
#X connect 19 0 22 1;
#X connect 19 0 43 0;
#X connect 19 0 45 0;
#X connect 20 0 0 0;
#X connect 20 1 1 0;
#X connect 20 2 2 0;
#X connect 20 3 3 0;
#X connect 20 4 4 0;
#X connect 20 5 5 0;
#X connect 20 6 6 0;
#X connect 20 7 7 0;
#X connect 20 8 8 0;
#X connect 20 9 9 0;
#X connect 20 10 10 0;
#X connect 20 11 11 0;
#X connect 20 12 12 0;
#X connect 20 13 13 0;
#X connect 20 14 14 0;
#X connect 20 15 15 0;
#X connect 20 16 16 0;
#X connect 21 0 22 0;
#X connect 22 0 25 0;
#X connect 23 0 27 0;
#X connect 24 0 27 0;
#X connect 25 1 24 0;
#X connect 26 0 23 0;
#X connect 26 0 17 0;
#X connect 27 0 18 0;
#X connect 30 0 42 0;
#X connect 31 0 42 0;
#X connect 32 0 42 0;
#X connect 33 0 42 0;
#X connect 34 0 42 0;
#X connect 35 0 42 0;
#X connect 36 0 42 0;
#X connect 37 0 42 0;
#X connect 38 0 42 0;
#X connect 39 0 42 0;
#X connect 40 0 42 0;
#X connect 41 0 42 0;
#X connect 42 0 23 0;
#X connect 42 0 17 0;
#X connect 45 0 30 0;
#X connect 45 1 31 0;
#X connect 45 2 32 0;
#X connect 45 3 33 0;
#X connect 45 4 34 0;
#X connect 45 5 35 0;
#X connect 45 6 36 0;
#X connect 45 7 37 0;
#X connect 45 8 38 0;
#X connect 45 9 39 0;
#X connect 45 10 40 0;
#X connect 45 11 41 0;
#X restore 118 16 pd qwertz-keys;
#N canvas 14 45 1009 705 oshot2p 0;
#X obj -104 414 soundfiler;
#X obj -133 199 openpanel;
#X obj -70 200 loadbang;
#X obj 145 116 nbx 4 14 -60 60 0 1 \$0-paiodjx \$0-ikzdja tp -12 7
0 10 -262144 -1 -1 12 256;
#X obj 1 361 splitfilename;
#X obj -104 321 mergefilename /;
#X obj -83 236 mergefilename /;
#X msg -65 256 set \$1;
#X obj -104 347 t b a;
#X obj -104 370 pack \$0 s;
#X obj 76 383 t b a;
#X msg 103 408 set symbol \$1;
#X obj -133 219 t b a;
#X msg -104 392 read -resize \$2 \$1osp1;
#X obj -110 83 table \$0osp1;
#X symbolatom 103 133 32 0 0 0 - - -;
#X msg -65 276 /Users/Berenger/Documents/Programmation_audio/PureData/Sets/pdLive!_Samples/Instruments/cb Brass ln/Brass ln  2a#.aif
;
#X msg 103 435 symbol Brass ln  2a#.aif;
#X obj 103 115 bng 15 250 50 0 \$0-aiuchz \$0-asxqsaz L 5 8 0 10 -204786
-1 -1;
#X obj -104 439 s \$0-fLenght;
#N canvas 0 22 1009 720 Voice-1 0;
#X msg -217 -17 set \$1;
#X msg -217 7 163579;
#X obj 23 -398 inlet;
#X obj -72 377 outlet~;
#X obj -118 147 line~;
#X obj -118 84 pack;
#X obj -82 41 / 44.1;
#X msg -118 126 163579 2205.6;
#X msg -118 104 set \$1 \$2;
#X obj -97 62 *;
#X obj -119 -44 t b f b;
#X msg -119 -85 1.05946;
#X obj -119 -64 pow;
#X obj -119 -128 * -1;
#X obj -119 -170 +;
#X obj -227 -379 inlet;
#X obj -119 -149 clip -127 127;
#X obj -119 -191 float;
#X obj -119 -107 t b f;
#X obj 91 12 delay 1;
#X obj 91 35 t b b;
#X text -186 -380 pitch;
#X text 66 -400 gate;
#X obj -120 -211 t b f;
#X msg -121 -273 60;
#X obj -121 -294 t b f;
#X obj -121 -252 +;
#X obj -121 -231 * -1;
#X obj -121 -313 * -1;
#X obj -10 -17 moses 0.001;
#X obj -217 -42 r \$0-fLenght;
#X obj 106 -366 inlet;
#X text 149 -368 tp;
#X floatatom -219 -305 5 0 0 0 - - -;
#X obj -99 245 tabread4~ \$0osp1;
#X msg 118 62 0;
#X obj 70 307 line~;
#X obj -70 333 *~;
#X obj 200 -268 inlet;
#X connect 0 0 1 0;
#X connect 1 0 6 0;
#X connect 1 0 5 0;
#X connect 2 0 29 0;
#X connect 4 0 34 0;
#X connect 5 0 8 0;
#X connect 6 0 9 1;
#X connect 7 0 4 0;
#X connect 8 0 7 0;
#X connect 9 0 5 1;
#X connect 10 0 5 0;
#X connect 10 1 9 0;
#X connect 10 2 1 0;
#X connect 11 0 12 0;
#X connect 12 0 10 0;
#X connect 13 0 18 0;
#X connect 14 0 16 0;
#X connect 15 0 17 0;
#X connect 15 0 33 0;
#X connect 16 0 13 0;
#X connect 17 0 14 0;
#X connect 18 0 11 0;
#X connect 18 1 12 1;
#X connect 19 0 20 0;
#X connect 20 0 7 0;
#X connect 20 1 35 0;
#X connect 23 0 17 0;
#X connect 23 1 14 1;
#X connect 24 0 26 0;
#X connect 25 0 24 0;
#X connect 25 1 26 1;
#X connect 26 0 27 0;
#X connect 27 0 23 0;
#X connect 28 0 25 0;
#X connect 29 1 19 0;
#X connect 30 0 0 0;
#X connect 31 0 28 0;
#X connect 34 0 37 0;
#X connect 35 0 4 0;
#X connect 36 0 37 1;
#X connect 37 0 3 0;
#X connect 38 0 36 0;
#X coords 0 -1 1 1 150 40 1 100 100;
#X restore 412 150 pd Voice-1;
#X obj 350 -183 inlet;
#X obj 407 -184 inlet;
#X obj 350 -116 pack f f f;
#X obj 350 -73 unpack f f;
#X obj 368 -52 unpack f f;
#X obj 387 -32 unpack f f;
#X obj 406 -10 unpack f f;
#X obj 509 529 outlet~;
#X obj 351 -157 stripnote;
#X obj 77 -154 r out;
#X msg -49 -74 1 48 80;
#X msg -54 -99 set \$1 \$2 \$3;
#X obj 531 -153 inlet;
#X obj 350 -137 poly 4 1;
#X obj 350 -96 route 1 2 3 4;
#X obj 482 481 *~ 0.09;
#X obj 120 159 envgen 163 79 1 0  ;
#X obj 277 7 t b;
#N canvas 0 22 1009 720 Voice-2 0;
#X msg -217 -17 set \$1;
#X msg -217 7 163579;
#X obj 23 -398 inlet;
#X obj -72 377 outlet~;
#X obj -118 147 line~;
#X obj -118 84 pack;
#X obj -82 41 / 44.1;
#X msg -118 126 163579 2205.6;
#X msg -118 104 set \$1 \$2;
#X obj -97 62 *;
#X obj -119 -44 t b f b;
#X msg -119 -85 1.05946;
#X obj -119 -64 pow;
#X obj -119 -128 * -1;
#X obj -119 -170 +;
#X obj -227 -379 inlet;
#X obj -119 -149 clip -127 127;
#X obj -119 -191 float;
#X obj -119 -107 t b f;
#X obj 91 12 delay 1;
#X obj 91 35 t b b;
#X text -186 -380 pitch;
#X text 66 -400 gate;
#X obj -120 -211 t b f;
#X msg -121 -273 60;
#X obj -121 -294 t b f;
#X obj -121 -252 +;
#X obj -121 -231 * -1;
#X obj -121 -313 * -1;
#X obj -10 -17 moses 0.001;
#X obj -217 -42 r \$0-fLenght;
#X obj 106 -366 inlet;
#X text 149 -368 tp;
#X floatatom -219 -305 5 0 0 0 - - -;
#X obj -99 245 tabread4~ \$0osp1;
#X msg 118 62 0;
#X obj 70 307 line~;
#X obj -70 333 *~;
#X obj 200 -268 inlet;
#X connect 0 0 1 0;
#X connect 1 0 6 0;
#X connect 1 0 5 0;
#X connect 2 0 29 0;
#X connect 4 0 34 0;
#X connect 5 0 8 0;
#X connect 6 0 9 1;
#X connect 7 0 4 0;
#X connect 8 0 7 0;
#X connect 9 0 5 1;
#X connect 10 0 5 0;
#X connect 10 1 9 0;
#X connect 10 2 1 0;
#X connect 11 0 12 0;
#X connect 12 0 10 0;
#X connect 13 0 18 0;
#X connect 14 0 16 0;
#X connect 15 0 17 0;
#X connect 15 0 33 0;
#X connect 16 0 13 0;
#X connect 17 0 14 0;
#X connect 18 0 11 0;
#X connect 18 1 12 1;
#X connect 19 0 20 0;
#X connect 20 0 7 0;
#X connect 20 1 35 0;
#X connect 23 0 17 0;
#X connect 23 1 14 1;
#X connect 24 0 26 0;
#X connect 25 0 24 0;
#X connect 25 1 26 1;
#X connect 26 0 27 0;
#X connect 27 0 23 0;
#X connect 28 0 25 0;
#X connect 29 1 19 0;
#X connect 30 0 0 0;
#X connect 31 0 28 0;
#X connect 34 0 37 0;
#X connect 35 0 4 0;
#X connect 36 0 37 1;
#X connect 37 0 3 0;
#X connect 38 0 36 0;
#X coords 0 -1 1 1 150 40 1 100 100;
#X restore 447 200 pd Voice-2;
#N canvas 0 22 1009 720 Voice-3 0;
#X msg -217 -17 set \$1;
#X msg -217 7 163579;
#X obj 23 -398 inlet;
#X obj -72 377 outlet~;
#X obj -118 147 line~;
#X obj -118 84 pack;
#X obj -82 41 / 44.1;
#X msg -118 126 163579 2475.69;
#X msg -118 104 set \$1 \$2;
#X obj -97 62 *;
#X obj -119 -44 t b f b;
#X msg -119 -85 1.05946;
#X obj -119 -64 pow;
#X obj -119 -128 * -1;
#X obj -119 -170 +;
#X obj -227 -379 inlet;
#X obj -119 -149 clip -127 127;
#X obj -119 -191 float;
#X obj -119 -107 t b f;
#X obj 91 12 delay 1;
#X obj 91 35 t b b;
#X text -186 -380 pitch;
#X text 66 -400 gate;
#X obj -120 -211 t b f;
#X msg -121 -273 60;
#X obj -121 -294 t b f;
#X obj -121 -252 +;
#X obj -121 -231 * -1;
#X obj -121 -313 * -1;
#X obj -10 -17 moses 0.001;
#X obj -217 -42 r \$0-fLenght;
#X obj 106 -366 inlet;
#X text 149 -368 tp;
#X floatatom -219 -305 5 0 0 0 - - -;
#X obj -99 245 tabread4~ \$0osp1;
#X msg 118 62 0;
#X obj 70 307 line~;
#X obj -70 333 *~;
#X obj 200 -268 inlet;
#X connect 0 0 1 0;
#X connect 1 0 6 0;
#X connect 1 0 5 0;
#X connect 2 0 29 0;
#X connect 4 0 34 0;
#X connect 5 0 8 0;
#X connect 6 0 9 1;
#X connect 7 0 4 0;
#X connect 8 0 7 0;
#X connect 9 0 5 1;
#X connect 10 0 5 0;
#X connect 10 1 9 0;
#X connect 10 2 1 0;
#X connect 11 0 12 0;
#X connect 12 0 10 0;
#X connect 13 0 18 0;
#X connect 14 0 16 0;
#X connect 15 0 17 0;
#X connect 15 0 33 0;
#X connect 16 0 13 0;
#X connect 17 0 14 0;
#X connect 18 0 11 0;
#X connect 18 1 12 1;
#X connect 19 0 20 0;
#X connect 20 0 7 0;
#X connect 20 1 35 0;
#X connect 23 0 17 0;
#X connect 23 1 14 1;
#X connect 24 0 26 0;
#X connect 25 0 24 0;
#X connect 25 1 26 1;
#X connect 26 0 27 0;
#X connect 27 0 23 0;
#X connect 28 0 25 0;
#X connect 29 1 19 0;
#X connect 30 0 0 0;
#X connect 31 0 28 0;
#X connect 34 0 37 0;
#X connect 35 0 4 0;
#X connect 36 0 37 1;
#X connect 37 0 3 0;
#X connect 38 0 36 0;
#X coords 0 -1 1 1 150 40 1 100 100;
#X restore 470 253 pd Voice-3;
#N canvas 0 22 1009 720 Voice-4 0;
#X msg -217 -17 set \$1;
#X msg -217 7 163579;
#X obj 23 -398 inlet;
#X obj -72 377 outlet~;
#X obj -118 147 line~;
#X obj -118 84 pack;
#X obj -82 41 / 44.1;
#X msg -118 126 163579 2944.09;
#X msg -118 104 set \$1 \$2;
#X obj -97 62 *;
#X obj -119 -44 t b f b;
#X msg -119 -85 1.05946;
#X obj -119 -64 pow;
#X obj -119 -128 * -1;
#X obj -119 -170 +;
#X obj -227 -379 inlet;
#X obj -119 -149 clip -127 127;
#X obj -119 -191 float;
#X obj -119 -107 t b f;
#X obj 91 12 delay 1;
#X obj 91 35 t b b;
#X text -186 -380 pitch;
#X text 66 -400 gate;
#X obj -120 -211 t b f;
#X msg -121 -273 60;
#X obj -121 -294 t b f;
#X obj -121 -252 +;
#X obj -121 -231 * -1;
#X obj -121 -313 * -1;
#X obj -10 -17 moses 0.001;
#X obj -217 -42 r \$0-fLenght;
#X obj 106 -366 inlet;
#X text 149 -368 tp;
#X floatatom -219 -305 5 0 0 0 - - -;
#X obj -99 245 tabread4~ \$0osp1;
#X msg 118 62 0;
#X obj 70 307 line~;
#X obj -70 333 *~;
#X obj 200 -268 inlet;
#X connect 0 0 1 0;
#X connect 1 0 6 0;
#X connect 1 0 5 0;
#X connect 2 0 29 0;
#X connect 4 0 34 0;
#X connect 5 0 8 0;
#X connect 6 0 9 1;
#X connect 7 0 4 0;
#X connect 8 0 7 0;
#X connect 9 0 5 1;
#X connect 10 0 5 0;
#X connect 10 1 9 0;
#X connect 10 2 1 0;
#X connect 11 0 12 0;
#X connect 12 0 10 0;
#X connect 13 0 18 0;
#X connect 14 0 16 0;
#X connect 15 0 17 0;
#X connect 15 0 33 0;
#X connect 16 0 13 0;
#X connect 17 0 14 0;
#X connect 18 0 11 0;
#X connect 18 1 12 1;
#X connect 19 0 20 0;
#X connect 20 0 7 0;
#X connect 20 1 35 0;
#X connect 23 0 17 0;
#X connect 23 1 14 1;
#X connect 24 0 26 0;
#X connect 25 0 24 0;
#X connect 25 1 26 1;
#X connect 26 0 27 0;
#X connect 27 0 23 0;
#X connect 28 0 25 0;
#X connect 29 1 19 0;
#X connect 30 0 0 0;
#X connect 31 0 28 0;
#X connect 34 0 37 0;
#X connect 35 0 4 0;
#X connect 36 0 37 1;
#X connect 37 0 3 0;
#X connect 38 0 36 0;
#X coords 0 -1 1 1 150 40 1 100 100;
#X restore 514 301 pd Voice-4;
#X connect 0 0 19 0;
#X connect 1 0 12 0;
#X connect 2 0 16 0;
#X connect 3 0 20 2;
#X connect 3 0 39 2;
#X connect 3 0 40 2;
#X connect 3 0 41 2;
#X connect 4 1 10 0;
#X connect 5 0 4 0;
#X connect 5 0 8 0;
#X connect 6 0 7 0;
#X connect 7 0 16 0;
#X connect 8 0 9 0;
#X connect 8 1 9 1;
#X connect 9 0 13 0;
#X connect 10 0 17 0;
#X connect 10 1 11 0;
#X connect 11 0 17 0;
#X connect 12 1 6 0;
#X connect 12 1 5 0;
#X connect 13 0 0 0;
#X connect 16 0 5 0;
#X connect 17 0 15 0;
#X connect 18 0 1 0;
#X connect 20 0 36 0;
#X connect 21 0 29 0;
#X connect 22 0 29 1;
#X connect 23 0 35 0;
#X connect 24 0 20 0;
#X connect 24 1 20 1;
#X connect 25 0 39 0;
#X connect 25 1 39 1;
#X connect 26 0 40 0;
#X connect 26 1 40 1;
#X connect 27 0 41 0;
#X connect 27 1 41 1;
#X connect 29 0 34 0;
#X connect 29 1 34 1;
#X connect 29 1 38 0;
#X connect 30 0 32 0;
#X connect 30 0 35 0;
#X connect 32 0 31 0;
#X connect 33 0 35 0;
#X connect 34 0 23 0;
#X connect 34 1 23 1;
#X connect 34 2 23 2;
#X connect 35 0 24 0;
#X connect 35 1 25 0;
#X connect 35 2 26 0;
#X connect 35 3 27 0;
#X connect 36 0 28 0;
#X connect 37 0 20 3;
#X connect 37 0 39 3;
#X connect 37 0 40 3;
#X connect 37 0 41 3;
#X connect 38 0 37 0;
#X connect 39 0 36 0;
#X connect 40 0 36 0;
#X connect 41 0 36 0;
#X coords 0 -1 1 1 200 150 1 100 100;
#X restore 18 83 pd oshot2p;
#N canvas 0 22 450 300 (subpatch) 0;
#X obj 59 155 inlet;
#X obj 3 89 inlet~;
#X obj 58 182 change;
#X msg 60 246 set \$1;
#X obj 60 227 tosymbol;
#X obj 59 204 sprintf Bus%d;
#X obj 3 282 throw~ Bus0;
#X obj 2 3 popup 124 25 #ffffff popup Bus0 Bus1 Bus2 Bus3 Bus4 Bus5
Bus6 Bus7 Bus8 Bus9 Bus10 Bus11 Bus12 Bus13 Bus14 Bus15 Bus16;
#X obj 1 32 route bang;
#X obj 154 202 *~;
#X obj 141 7 tgl 15 0 empty empty Dac 19 7 0 10 -262144 -1 -1 1 1;
#X obj 155 238 dac~;
#X obj 1 -49 loadbang;
#X text 59 -51 Bus0 mutes;
#X msg 1 -31 options Bus0 Bus1 Bus2 Bus3 Bus4 Bus5 Bus6 Bus7 Bus8 Bus9
Bus10 Bus11 Bus12 Bus13 Bus14 Bus15 Bus16;
#X connect 0 0 2 0;
#X connect 1 0 6 0;
#X connect 1 0 9 0;
#X connect 2 0 5 0;
#X connect 3 0 6 0;
#X connect 4 0 3 0;
#X connect 5 0 4 0;
#X connect 7 0 8 0;
#X connect 8 1 2 0;
#X connect 9 0 11 0;
#X connect 9 0 11 1;
#X connect 10 0 9 1;
#X connect 12 0 14 0;
#X connect 14 0 7 0;
#X coords 0 1 100 -1 180 30 1 0 0;
#X restore 19 237 graph;
#N canvas 0 22 450 300 (subpatch) 0;
#X obj -30 22 spigot;
#X obj 2 3 tgl 15 0 empty empty empty 17 7 0 10 -262144 -1 -1 0 1;
#X obj -58 0 inlet;
#X obj -54 54 outlet;
#X connect 0 0 3 0;
#X connect 1 0 0 1;
#X connect 2 0 0 0;
#X coords 0 1 100 -1 20 20 1 0 0;
#X restore 118 36 graph;
#N canvas 0 22 450 300 (subpatch) 0;
#X obj -30 22 spigot;
#X obj 2 3 tgl 15 0 empty empty empty 17 7 0 10 -262144 -1 -1 0 1;
#X obj -58 0 inlet;
#X obj -38 111 outlet;
#X obj -31 55 * 100;
#X connect 0 0 4 0;
#X connect 1 0 0 1;
#X connect 2 0 0 0;
#X connect 4 0 3 0;
#X coords 0 1 100 -1 20 20 1 0 0;
#X restore 199 36 graph;
#N canvas 0 22 450 300 (subpatch) 0;
#X obj -30 22 spigot;
#X obj 2 3 tgl 15 0 empty empty empty 17 7 0 10 -262144 -1 -1 0 1;
#X obj -58 0 inlet;
#X obj -54 54 outlet;
#X connect 0 0 3 0;
#X connect 1 0 0 1;
#X connect 2 0 0 0;
#X coords 0 1 100 -1 20 20 1 0 0;
#X restore -48 47 graph;
#N canvas 0 22 450 300 (subpatch) 0;
#X obj -30 22 spigot;
#X obj 2 3 tgl 15 0 empty empty empty 17 7 0 10 -262144 -1 -1 0 1;
#X obj -58 0 inlet;
#X obj -54 54 outlet;
#X connect 0 0 3 0;
#X connect 1 0 0 1;
#X connect 2 0 0 0;
#X coords 0 1 100 -1 20 20 1 0 0;
#X restore -28 47 graph;
#X obj -48 27 notein;
#X obj 18 -20 r note1;
#X obj 60 0 r vel1;
#N canvas 0 22 450 300 (subpatch) 0;
#X obj -30 22 spigot;
#X obj 2 3 tgl 15 0 empty empty empty 17 7 0 10 -262144 -1 -1 0 1;
#X obj -58 0 inlet;
#X obj -54 54 outlet;
#X connect 0 0 3 0;
#X connect 1 0 0 1;
#X connect 2 0 0 0;
#X coords 0 1 100 -1 20 20 1 0 0;
#X restore 18 19 graph;
#N canvas 0 22 450 300 (subpatch) 0;
#X obj -30 22 spigot;
#X obj 2 3 tgl 15 0 empty empty empty 17 7 0 10 -262144 -1 -1 0 1;
#X obj -58 0 inlet;
#X obj -54 54 outlet;
#X connect 0 0 3 0;
#X connect 1 0 0 1;
#X connect 2 0 0 0;
#X coords 0 1 100 -1 20 20 1 0 0;
#X restore 60 19 graph;
#X floatatom 18 67 5 0 0 0 - - -;
#X floatatom 59 68 6 0 0 0 - - -;
#X obj 256 9 r polynote;
#N canvas 0 22 450 300 (subpatch) 0;
#X obj -30 22 spigot;
#X obj 2 3 tgl 15 0 empty empty empty 17 7 0 10 -262144 -1 -1 1 1;
#X obj -58 0 inlet;
#X obj -38 111 outlet;
#X connect 0 0 3 0;
#X connect 1 0 0 1;
#X connect 2 0 0 0;
#X coords 0 1 100 -1 20 20 1 0 0;
#X restore 256 29 graph;
#X connect 0 0 3 0;
#X connect 0 1 4 0;
#X connect 1 0 2 0;
#X connect 3 0 12 0;
#X connect 4 0 13 0;
#X connect 5 0 12 0;
#X connect 6 0 13 0;
#X connect 7 0 5 0;
#X connect 7 1 6 0;
#X connect 8 0 10 0;
#X connect 9 0 11 0;
#X connect 10 0 12 0;
#X connect 11 0 13 0;
#X connect 12 0 1 0;
#X connect 13 0 1 1;
#X connect 14 0 15 0;
#X connect 15 0 1 2;
