#N canvas 9 22 511 392 10;
#X obj -35 124 notein;
#X floatatom 207 123 5 0 0 0 - - -;
#X floatatom 242 123 5 0 0 0 - - -;
#X floatatom 277 123 5 0 0 0 - - -;
#X floatatom 312 123 5 0 0 0 - - -;
#X obj 207 -3 ctlin 5;
#X obj 242 16 ctlin 6;
#X obj 277 35 ctlin 7;
#X obj 312 54 ctlin 8;
#X floatatom 104 123 5 0 0 0 - - -;
#X obj 104 -61 ctlin 1;
#X obj 207 144 * 4;
#X obj 242 144 * 8;
#X obj 277 144 * 4;
#X obj 312 143 * 8;
#X obj 20 -100 r noteMono;
#X obj 53 -79 r velMono;
#X floatatom 138 123 5 0 0 0 - - -;
#X obj 138 -42 ctlin 2;
#X floatatom 172 123 5 0 0 0 - - -;
#X obj 172 -22 ctlin 3;
#N canvas 556 67 450 300 monosynth-env_______ 0;
#N canvas 73 160 290 192 envelope 0;
#X obj 105 5 inlet attack;
#X obj 201 5 inlet decay;
#X obj 58 146 line~;
#X msg 58 114 1 \$1;
#X msg 98 114 0 \$1;
#X obj 4 5 inlet trigger;
#X obj 4 37 t b b;
#X obj 58 91 f;
#X obj 98 91 f;
#X obj 98 69 del;
#X obj 58 170 outlet~ envelope;
#X connect 0 0 7 1;
#X connect 0 0 9 1;
#X connect 1 0 8 1;
#X connect 2 0 10 0;
#X connect 3 0 2 0;
#X connect 4 0 2 0;
#X connect 5 0 6 0;
#X connect 6 0 7 0;
#X connect 6 1 9 0;
#X connect 7 0 3 0;
#X connect 8 0 4 0;
#X connect 9 0 8 0;
#X restore -2 119 pd envelope;
#X floatatom 34 88 4 0 0 0 - - -;
#X floatatom 70 88 5 0 0 0 - - -;
#X obj -2 245 *~;
#N canvas 73 160 290 192 envelope 0;
#X obj 105 5 inlet attack;
#X obj 201 5 inlet decay;
#X obj 58 146 line~;
#X msg 58 114 1 \$1;
#X msg 98 114 0 \$1;
#X obj 4 5 inlet trigger;
#X obj 4 37 t b b;
#X obj 58 91 f;
#X obj 98 91 f;
#X obj 98 69 del;
#X obj 58 170 outlet~ envelope;
#X connect 0 0 7 1;
#X connect 0 0 9 1;
#X connect 1 0 8 1;
#X connect 2 0 10 0;
#X connect 3 0 2 0;
#X connect 4 0 2 0;
#X connect 5 0 6 0;
#X connect 6 0 7 0;
#X connect 6 1 9 0;
#X connect 7 0 3 0;
#X connect 8 0 4 0;
#X connect 9 0 8 0;
#X restore 112 118 pd envelope;
#X floatatom 148 87 4 0 0 0 - - -;
#X floatatom 184 87 5 0 0 0 - - -;
#X obj -2 62 trigger bang bang;
#X obj 14 201 vcf~ 1 1;
#X obj 112 166 *~ 2000;
#X obj 14 170 phasor~ 55;
#X obj 14 150 mtof;
#X obj 32 12 > 0;
#X obj 32 35 sel 1;
#X floatatom -20 27 5 0 0 0 - - -;
#X obj -3 -25 inlet;
#X obj 38 -22 inlet;
#X obj 102 -20 inlet;
#X obj 143 -17 inlet;
#X obj 188 -16 inlet;
#X obj 229 -13 inlet;
#X obj 271 -6 inlet;
#X obj 312 -3 inlet;
#X obj 40 266 outlet~;
#X obj 363 14 inlet;
#X connect 0 0 3 0;
#X connect 1 0 0 1;
#X connect 2 0 0 2;
#X connect 3 0 23 0;
#X connect 4 0 9 0;
#X connect 5 0 4 1;
#X connect 6 0 4 2;
#X connect 7 0 0 0;
#X connect 7 1 4 0;
#X connect 8 0 3 1;
#X connect 9 0 8 1;
#X connect 10 0 8 0;
#X connect 11 0 10 0;
#X connect 12 0 13 0;
#X connect 13 0 7 0;
#X connect 14 0 11 0;
#X connect 14 0 7 0;
#X connect 15 0 14 0;
#X connect 16 0 12 0;
#X connect 17 0 10 1;
#X connect 18 0 9 1;
#X connect 19 0 8 2;
#X connect 20 0 1 0;
#X connect 21 0 2 0;
#X connect 22 0 5 0;
#X connect 24 0 6 0;
#X restore 20 180 pd monosynth-env_______;
#X floatatom 207 164 5 0 0 0 - - -;
#X floatatom 242 164 5 0 0 0 - - -;
#X floatatom 277 164 5 0 0 0 - - -;
#X floatatom 312 164 5 0 0 0 - - -;
#X floatatom 104 164 5 0 0 0 - - -;
#X floatatom 138 164 5 0 0 0 - - -;
#X floatatom 172 164 5 0 0 0 - - -;
#X text 189 -42 vcf freq factor;
#X text 227 -22 vcf selectivity;
#X text 259 -3 pitch env attack;
#X text 297 16 pitch env decay;
#X text 334 36 amp env attack;
#X text 359 55 amp env decay;
#X floatatom 20 164 5 0 0 0 - - -;
#X floatatom 53 164 5 0 0 0 - - -;
#X text 155 -63 phasor freq;
#X obj 104 147 * 1;
#X obj 172 143 / 10;
#X obj 138 143 * 40;
#X obj 312 94 knob 25 25 0 127 0 0 empty empty empty 0 -8 32 8 -1 -260097
-260097 1200 1;
#X obj 277 94 knob 25 25 0 127 0 0 empty empty empty 0 -8 32 8 -1 -260097
-260097 500 1;
#X obj 242 94 knob 25 25 0 127 0 0 empty empty empty 0 -8 32 8 -1 -260097
-260097 500 1;
#X obj 207 94 knob 25 25 0 127 0 0 empty empty empty 0 -8 32 8 -1 -260097
-260097 400 1;
#X obj 172 94 knob 25 25 0 127 0 0 empty empty empty 0 -8 32 8 -1 -260097
-260097 1100 1;
#X obj 138 94 knob 25 25 0 127 0 0 empty empty empty 0 -8 32 8 -1 -260097
-260097 600 1;
#X obj 104 94 knob 25 25 0 127 0 0 empty empty empty 0 -8 32 8 -1 -260097
-260097 600 1;
#N canvas 0 22 450 300 (subpatch) 0;
#X obj 59 155 inlet;
#X obj 3 89 inlet~;
#X obj 58 182 change;
#X msg 60 246 set \$1;
#X obj 60 227 tosymbol;
#X obj 59 204 sprintf Bus%d;
#X obj 3 282 throw~ Bus0;
#X obj 2 3 popup 124 25 #ffffff popup Bus0 Bus1 Bus2 Bus3 Bus4 Bus5
Bus6 Bus7 Bus8 Bus9 Bus10 Bus11 Bus12 Bus13 Bus14 Bus15 Bus16;
#X obj 1 32 route bang;
#X obj 154 202 *~;
#X obj 141 7 tgl 15 0 empty empty Dac 19 7 0 10 -262144 -1 -1 1 1;
#X obj 155 238 dac~;
#X obj 8 -66 loadbang;
#X text 64 -68 Bus0 mutes;
#X msg 8 -48 options Bus0 Bus1 Bus2 Bus3 Bus4 Bus5 Bus6 Bus7 Bus8 Bus9
Bus10 Bus11 Bus12 Bus13 Bus14 Bus15 Bus16;
#X connect 0 0 2 0;
#X connect 1 0 6 0;
#X connect 1 0 9 0;
#X connect 2 0 5 0;
#X connect 3 0 6 0;
#X connect 4 0 3 0;
#X connect 5 0 4 0;
#X connect 7 0 8 0;
#X connect 8 1 2 0;
#X connect 9 0 11 0;
#X connect 9 0 11 1;
#X connect 10 0 9 1;
#X connect 12 0 14 0;
#X connect 14 0 7 0;
#X coords 0 1 100 -1 180 30 1 0 0;
#X restore 20 197 graph;
#N canvas 0 22 450 300 (subpatch) 0;
#X obj -30 22 spigot;
#X obj 2 3 tgl 15 0 empty empty empty 17 7 0 10 -262144 -1 -1 0 1;
#X obj -58 0 inlet;
#X obj -54 54 outlet;
#X connect 0 0 3 0;
#X connect 1 0 0 1;
#X connect 2 0 0 0;
#X coords 0 1 100 -1 20 20 1 0 0;
#X restore 242 71 graph;
#N canvas 0 22 450 300 (subpatch) 0;
#X obj -30 22 spigot;
#X obj 2 3 tgl 15 0 empty empty empty 17 7 0 10 -262144 -1 -1 0 1;
#X obj -58 0 inlet;
#X obj -54 54 outlet;
#X connect 0 0 3 0;
#X connect 1 0 0 1;
#X connect 2 0 0 0;
#X coords 0 1 100 -1 20 20 1 0 0;
#X restore 277 71 graph;
#N canvas 0 22 450 300 (subpatch) 0;
#X obj -30 22 spigot;
#X obj 2 3 tgl 15 0 empty empty empty 17 7 0 10 -262144 -1 -1 0 1;
#X obj -58 0 inlet;
#X obj -54 54 outlet;
#X connect 0 0 3 0;
#X connect 1 0 0 1;
#X connect 2 0 0 0;
#X coords 0 1 100 -1 20 20 1 0 0;
#X restore 312 71 graph;
#N canvas 0 22 450 300 (subpatch) 0;
#X obj -30 22 spigot;
#X obj 2 3 tgl 15 0 empty empty empty 17 7 0 10 -262144 -1 -1 0 1;
#X obj -58 0 inlet;
#X obj -54 54 outlet;
#X connect 0 0 3 0;
#X connect 1 0 0 1;
#X connect 2 0 0 0;
#X coords 0 1 100 -1 20 20 1 0 0;
#X restore 138 71 graph;
#N canvas 0 22 450 300 (subpatch) 0;
#X obj -30 22 spigot;
#X obj 2 3 tgl 15 0 empty empty empty 17 7 0 10 -262144 -1 -1 0 1;
#X obj -58 0 inlet;
#X obj -54 54 outlet;
#X connect 0 0 3 0;
#X connect 1 0 0 1;
#X connect 2 0 0 0;
#X coords 0 1 100 -1 20 20 1 0 0;
#X restore 172 71 graph;
#N canvas 0 22 450 300 (subpatch) 0;
#X obj -30 22 spigot;
#X obj 2 3 tgl 15 0 empty empty empty 17 7 0 10 -262144 -1 -1 0 1;
#X obj -58 0 inlet;
#X obj -54 54 outlet;
#X connect 0 0 3 0;
#X connect 1 0 0 1;
#X connect 2 0 0 0;
#X coords 0 1 100 -1 20 20 1 0 0;
#X restore 207 71 graph;
#N canvas 0 22 450 300 (subpatch) 0;
#X obj -30 22 spigot;
#X obj 2 3 tgl 15 0 empty empty empty 17 7 0 10 -262144 -1 -1 0 1;
#X obj -58 0 inlet;
#X obj -54 54 outlet;
#X connect 0 0 3 0;
#X connect 1 0 0 1;
#X connect 2 0 0 0;
#X coords 0 1 100 -1 20 20 1 0 0;
#X restore 20 71 graph;
#N canvas 0 22 450 300 (subpatch) 0;
#X obj -30 22 spigot;
#X obj 2 3 tgl 15 0 empty empty empty 17 7 0 10 -262144 -1 -1 0 1;
#X obj -58 0 inlet;
#X obj -54 54 outlet;
#X connect 0 0 3 0;
#X connect 1 0 0 1;
#X connect 2 0 0 0;
#X coords 0 1 100 -1 20 20 1 0 0;
#X restore 53 71 graph;
#N canvas 0 22 450 300 (subpatch) 0;
#X obj -30 22 spigot;
#X obj 2 3 tgl 15 0 empty empty empty 17 7 0 10 -262144 -1 -1 0 1;
#X obj -58 0 inlet;
#X obj -54 54 outlet;
#X connect 0 0 3 0;
#X connect 1 0 0 1;
#X connect 2 0 0 0;
#X coords 0 1 100 -1 20 20 1 0 0;
#X restore 104 71 graph;
#N canvas 0 22 450 300 (subpatch) 0;
#X obj -30 22 spigot;
#X obj 2 3 tgl 15 0 empty empty empty 17 7 0 10 -262144 -1 -1 0 1;
#X obj -58 0 inlet;
#X obj -54 54 outlet;
#X connect 0 0 3 0;
#X connect 1 0 0 1;
#X connect 2 0 0 0;
#X coords 0 1 100 -1 20 20 1 0 0;
#X restore -35 144 graph;
#N canvas 0 22 450 300 (subpatch) 0;
#X obj -30 22 spigot;
#X obj 2 3 tgl 15 0 empty empty empty 17 7 0 10 -262144 -1 -1 0 1;
#X obj -58 0 inlet;
#X obj -54 54 outlet;
#X connect 0 0 3 0;
#X connect 1 0 0 1;
#X connect 2 0 0 0;
#X coords 0 1 100 -1 20 20 1 0 0;
#X restore -15 144 graph;
#X connect 0 0 58 0;
#X connect 0 1 59 0;
#X connect 1 0 11 0;
#X connect 2 0 12 0;
#X connect 3 0 13 0;
#X connect 4 0 14 0;
#X connect 5 0 54 0;
#X connect 6 0 49 0;
#X connect 7 0 50 0;
#X connect 8 0 51 0;
#X connect 9 0 38 0;
#X connect 10 0 57 0;
#X connect 11 0 22 0;
#X connect 12 0 23 0;
#X connect 13 0 24 0;
#X connect 14 0 25 0;
#X connect 15 0 55 0;
#X connect 16 0 56 0;
#X connect 17 0 40 0;
#X connect 18 0 52 0;
#X connect 19 0 39 0;
#X connect 20 0 53 0;
#X connect 21 0 48 0;
#X connect 22 0 21 5;
#X connect 23 0 21 6;
#X connect 24 0 21 7;
#X connect 25 0 21 8;
#X connect 26 0 21 2;
#X connect 27 0 21 3;
#X connect 28 0 21 4;
#X connect 35 0 21 0;
#X connect 36 0 21 1;
#X connect 38 0 26 0;
#X connect 39 0 28 0;
#X connect 40 0 27 0;
#X connect 41 0 4 0;
#X connect 42 0 3 0;
#X connect 43 0 2 0;
#X connect 44 0 1 0;
#X connect 45 0 19 0;
#X connect 46 0 17 0;
#X connect 47 0 9 0;
#X connect 49 0 43 0;
#X connect 50 0 42 0;
#X connect 51 0 41 0;
#X connect 52 0 46 0;
#X connect 53 0 45 0;
#X connect 54 0 44 0;
#X connect 55 0 35 0;
#X connect 56 0 36 0;
#X connect 57 0 47 0;
#X connect 58 0 35 0;
#X connect 59 0 36 0;
