#N canvas 0 22 361 365 10;
#N canvas 0 22 1024 720 (subpatch) 0;
#X obj 198 101 line~;
#X floatatom 126 -5 5 0 0 0 - - -;
#X obj 126 19 mtof;
#X obj 127 90 phasor~;
#X obj 126 185 cos~;
#X obj 126 209 +~ 1;
#X obj 126 261 *~;
#X obj 197 128 *~ 0.5;
#X obj 172 161 *~;
#X obj 171 210 cos~;
#X obj 126 234 *~;
#X obj 257 -24 bng 15 250 50 0 empty empty empty 17 7 0 10 -262144
-1 -1;
#X obj 126 498 outlet~;
#X obj 9 17 hsl 40 10 0 1 0 0 \$0-fromattack \$0-toattack attack -2
-6 1 8 -258113 -1 -1 390 1;
#X obj 59 17 hsl 40 10 0 1 0 0 \$0-fromdecay \$0-todecay decay -2 -6
1 8 -258113 -1 -1 1170 1;
#X obj 127 117 -~ 0.5;
#X obj 126 471 *~ 0.5;
#X obj 198 76 pack 1 f;
#X obj 256 49 pack 0 f;
#X obj 256 24 delay;
#X obj 58 39 hsl 40 10 0 1 0 0 \$0-fromshape \$0-toshape shape -2 -6
1 8 -258113 -1 -1 1950 1;
#X obj 278 129 pack f 10;
#X obj 278 154 line~;
#X obj 172 186 *~;
#X obj 278 105 expr $f1*11+1;
#X obj 9 39 hsl 40 10 0 1 0 0 \$0-fromglide \$0-toglide glide -2 -6
1 8 -258113 -1 -1 0 1;
#X obj 127 42 pack f f;
#X obj 127 67 line~;
#X obj 504 298 s \$0-note;
#X obj 319 192 loadbang;
#X obj 269 246 route shape attack decay glide;
#X obj 177 -51 r \$0-note;
#X obj 269 273 s \$0-toshape;
#X obj 278 81 r \$0-fromshape;
#X obj 363 -1 * 700;
#X obj 363 25 + 5;
#X obj 363 -26 r \$0-fromdecay;
#X obj 386 325 s \$0-todecay;
#X obj 327 299 s \$0-toattack;
#X obj 313 -51 r \$0-fromattack;
#X obj 313 -27 * 300;
#X obj 313 -2 + 2;
#X msg 319 218 attack 0.1 \, decay 0.3 \, shape 0.5;
#X obj 186 -5 r \$0-fromglide;
#X obj 445 274 s \$0-toglide;
#X obj 187 19 * 500;
#X text 444 79 attack;
#X text 446 58 messages accepted:;
#X text 445 98 decay;
#X text 446 120 glide;
#X text 446 140 shape;
#X text 517 104 + value between 0 and 1;
#X text 446 169 or number as midi note;
#X obj 121 -65 inlet;
#X obj 155 382 / 100;
#X obj 157 421 line;
#X floatatom 202 399 5 0 0 0 - - -;
#X text 240 398 time offset to adjust volume to velocity;
#X obj 245 361 loadbang;
#X msg 245 382 50;
#X obj 156 402 + 0.05;
#X obj 145 -85 inlet;
#X obj 511 -84 inlet;
#X obj 555 -90 inlet;
#X obj 625 -70 inlet;
#X obj 704 -6 inlet;
#X obj 703 28 prepend shape;
#X obj 517 -28 prepend attack;
#X obj 554 -4 prepend decay;
#X obj 606 27 prepend glide;
#X connect 0 0 6 1;
#X connect 0 0 7 0;
#X connect 1 0 2 0;
#X connect 2 0 26 0;
#X connect 3 0 15 0;
#X connect 4 0 5 0;
#X connect 5 0 10 0;
#X connect 6 0 16 0;
#X connect 7 0 8 1;
#X connect 8 0 23 0;
#X connect 9 0 10 1;
#X connect 10 0 6 0;
#X connect 11 0 17 0;
#X connect 11 0 19 0;
#X connect 15 0 4 0;
#X connect 15 0 8 0;
#X connect 16 0 12 0;
#X connect 17 0 0 0;
#X connect 18 0 0 0;
#X connect 19 0 18 0;
#X connect 21 0 22 0;
#X connect 22 0 23 1;
#X connect 23 0 9 0;
#X connect 24 0 21 0;
#X connect 26 0 27 0;
#X connect 27 0 3 0;
#X connect 29 0 42 0;
#X connect 30 0 32 0;
#X connect 30 1 38 0;
#X connect 30 2 37 0;
#X connect 30 3 44 0;
#X connect 30 4 28 0;
#X connect 31 0 11 0;
#X connect 31 0 1 0;
#X connect 33 0 24 0;
#X connect 34 0 35 0;
#X connect 35 0 18 1;
#X connect 36 0 34 0;
#X connect 39 0 40 0;
#X connect 40 0 41 0;
#X connect 41 0 19 1;
#X connect 41 0 17 1;
#X connect 42 0 30 0;
#X connect 43 0 45 0;
#X connect 45 0 26 1;
#X connect 53 0 1 0;
#X connect 53 0 11 0;
#X connect 54 0 60 0;
#X connect 55 0 16 1;
#X connect 56 0 55 1;
#X connect 58 0 59 0;
#X connect 59 0 56 0;
#X connect 60 0 55 0;
#X connect 61 0 54 0;
#X connect 62 0 67 0;
#X connect 63 0 68 0;
#X connect 64 0 69 0;
#X connect 65 0 66 0;
#X connect 66 0 30 0;
#X connect 67 0 30 0;
#X connect 68 0 30 0;
#X connect 69 0 30 0;
#X coords 0 1 100 -1 110 60 1 0 0;
#X restore -15 237 graph;
#X obj -70 180 notein;
#X floatatom -15 221 5 0 0 0 - - -;
#X floatatom 17 221 5 0 0 0 - - -;
#X floatatom 64 188 5 0 0 0 - - -;
#X floatatom 107 188 5 0 0 0 - - -;
#X floatatom 152 188 5 0 0 0 - - -;
#X floatatom 196 188 5 0 0 0 - - -;
#X floatatom 64 221 5 0 0 0 - - -;
#X floatatom 107 221 5 0 0 0 - - -;
#X floatatom 152 221 5 0 0 0 - - -;
#X floatatom 196 221 5 0 0 0 - - -;
#X obj 64 204 / 127;
#X obj 107 204 / 127;
#X obj 152 204 / 127;
#X obj 196 204 / 127;
#N canvas 0 22 450 300 (subpatch) 0;
#X obj -30 22 spigot;
#X obj 2 3 tgl 15 0 empty empty empty 17 7 0 10 -262144 -1 -1 0 1;
#X obj -58 0 inlet;
#X obj -54 54 outlet;
#X connect 0 0 3 0;
#X connect 1 0 0 1;
#X connect 2 0 0 0;
#X coords 0 1 100 -1 20 20 1 0 0;
#X restore -15 179 graph;
#N canvas 0 22 450 300 (subpatch) 0;
#X obj -30 22 spigot;
#X obj 2 3 tgl 15 0 empty empty empty 17 7 0 10 -262144 -1 -1 0 1;
#X obj -58 0 inlet;
#X obj -54 54 outlet;
#X connect 0 0 3 0;
#X connect 1 0 0 1;
#X connect 2 0 0 0;
#X coords 0 1 100 -1 20 20 1 0 0;
#X restore 17 179 graph;
#N canvas 0 22 450 300 (subpatch) 0;
#X obj -30 22 spigot;
#X obj 2 3 tgl 15 0 empty empty empty 17 7 0 10 -262144 -1 -1 0 1;
#X obj -58 0 inlet;
#X obj -54 54 outlet;
#X connect 0 0 3 0;
#X connect 1 0 0 1;
#X connect 2 0 0 0;
#X coords 0 1 100 -1 20 20 1 0 0;
#X restore -70 201 graph;
#N canvas 0 22 450 300 (subpatch) 0;
#X obj -30 22 spigot;
#X obj 2 3 tgl 15 0 empty empty empty 17 7 0 10 -262144 -1 -1 0 1;
#X obj -58 0 inlet;
#X obj -54 54 outlet;
#X connect 0 0 3 0;
#X connect 1 0 0 1;
#X connect 2 0 0 0;
#X coords 0 1 100 -1 20 20 1 0 0;
#X restore -50 201 graph;
#X obj -15 3 r noteBanded;
#X obj 17 23 r velBanded;
#X obj 196 159 knob 25 25 0 127 0 0 empty empty empty 0 -8 32 8 -1
-260097 -260097 0 1;
#X obj 152 159 knob 25 25 0 127 0 0 empty empty empty 0 -8 32 8 -1
-260097 -260097 0 1;
#X obj 107 159 knob 25 25 0 127 0 0 empty empty empty 0 -8 32 8 -1
-260097 -260097 0 1;
#X obj 64 159 knob 25 25 0 127 0 0 empty empty empty 0 -8 32 8 -1 -260097
-260097 0 1;
#N canvas 0 22 450 300 (subpatch) 0;
#X obj -30 22 spigot;
#X obj 2 3 tgl 15 0 empty empty empty 17 7 0 10 -262144 -1 -1 0 1;
#X obj -58 0 inlet;
#X obj -54 54 outlet;
#X connect 0 0 3 0;
#X connect 1 0 0 1;
#X connect 2 0 0 0;
#X coords 0 1 100 -1 20 20 1 0 0;
#X restore 64 136 graph;
#N canvas 0 22 450 300 (subpatch) 0;
#X obj -30 22 spigot;
#X obj 2 3 tgl 15 0 empty empty empty 17 7 0 10 -262144 -1 -1 0 1;
#X obj -58 0 inlet;
#X obj -54 54 outlet;
#X connect 0 0 3 0;
#X connect 1 0 0 1;
#X connect 2 0 0 0;
#X coords 0 1 100 -1 20 20 1 0 0;
#X restore 107 136 graph;
#N canvas 0 22 450 300 (subpatch) 0;
#X obj -30 22 spigot;
#X obj 2 3 tgl 15 0 empty empty empty 17 7 0 10 -262144 -1 -1 0 1;
#X obj -58 0 inlet;
#X obj -54 54 outlet;
#X connect 0 0 3 0;
#X connect 1 0 0 1;
#X connect 2 0 0 0;
#X coords 0 1 100 -1 20 20 1 0 0;
#X restore 152 136 graph;
#N canvas 0 22 450 300 (subpatch) 0;
#X obj -30 22 spigot;
#X obj 2 3 tgl 15 0 empty empty empty 17 7 0 10 -262144 -1 -1 0 1;
#X obj -58 0 inlet;
#X obj -54 54 outlet;
#X connect 0 0 3 0;
#X connect 1 0 0 1;
#X connect 2 0 0 0;
#X coords 0 1 100 -1 20 20 1 0 0;
#X restore 196 136 graph;
#X obj 196 104 ctlin 4;
#X obj 152 84 ctlin 3;
#X obj 107 64 ctlin 2;
#X obj 64 43 ctlin 1;
#N canvas 0 22 450 300 (subpatch) 0;
#X obj 59 155 inlet;
#X obj 3 89 inlet~;
#X obj 58 182 change;
#X msg 60 246 set \$1;
#X obj 60 227 tosymbol;
#X obj 59 204 sprintf Bus%d;
#X obj 3 282 throw~ Bus0;
#X obj 2 3 popup 124 25 #ffffff popup Bus0 Bus1 Bus2 Bus3 Bus4 Bus5
;
#X obj 1 32 route bang;
#X obj 154 202 *~;
#X obj 141 7 tgl 15 0 empty empty Dac 19 7 0 10 -262144 -1 -1 0 1;
#X obj 155 238 dac~;
#X obj 0 -51 loadbang;
#X text 58 -53 Bus0 mutes;
#X msg 0 -33 options Bus0 Bus1 Bus2 Bus3 Bus4 Bus5 Bus6 Bus7 Bus8 Bus9
Bus10 Bus11 Bus12 Bus13 Bus14 Bus15 Bus16;
#X connect 0 0 2 0;
#X connect 1 0 6 0;
#X connect 1 0 9 0;
#X connect 2 0 5 0;
#X connect 3 0 6 0;
#X connect 4 0 3 0;
#X connect 5 0 4 0;
#X connect 7 0 8 0;
#X connect 8 1 2 0;
#X connect 9 0 11 0;
#X connect 9 0 11 1;
#X connect 10 0 9 1;
#X connect 12 0 14 0;
#X connect 14 0 7 0;
#X coords 0 1 100 -1 180 30 1 0 0;
#X restore -15 297 graph;
#X connect 0 0 34 0;
#X connect 1 0 18 0;
#X connect 1 1 19 0;
#X connect 2 0 0 0;
#X connect 3 0 0 1;
#X connect 4 0 12 0;
#X connect 5 0 13 0;
#X connect 6 0 14 0;
#X connect 7 0 15 0;
#X connect 8 0 0 2;
#X connect 9 0 0 3;
#X connect 10 0 0 4;
#X connect 11 0 0 5;
#X connect 12 0 8 0;
#X connect 13 0 9 0;
#X connect 14 0 10 0;
#X connect 15 0 11 0;
#X connect 16 0 2 0;
#X connect 17 0 3 0;
#X connect 18 0 2 0;
#X connect 19 0 3 0;
#X connect 20 0 16 0;
#X connect 21 0 17 0;
#X connect 22 0 7 0;
#X connect 23 0 6 0;
#X connect 24 0 5 0;
#X connect 25 0 4 0;
#X connect 26 0 25 0;
#X connect 27 0 24 0;
#X connect 28 0 23 0;
#X connect 29 0 22 0;
#X connect 30 0 29 0;
#X connect 31 0 28 0;
#X connect 32 0 27 0;
#X connect 33 0 26 0;
