#N canvas 0 22 723 384 10;
#X floatatom 46 26 5 0 0 0 - - -;
#X obj 46 -132 ctlin 1;
#X floatatom 85 26 5 0 0 0 - - -;
#X floatatom 124 26 5 0 0 0 - - -;
#X floatatom 163 26 5 0 0 0 - - -;
#X obj 85 -114 ctlin 2;
#X obj 124 -96 ctlin 3;
#X obj 163 -79 ctlin 4;
#X obj 46 42 / 10;
#X obj 85 42 / 10;
#X obj 124 42 / 10;
#X obj 163 42 / 10;
#X floatatom 201 26 5 0 0 0 - - -;
#X floatatom 240 26 5 0 0 0 - - -;
#X obj 201 -61 ctlin 7;
#X obj 241 -43 ctlin 8;
#X obj 201 42 * 10;
#X obj 240 42 * 50;
#X obj -129 -35 r noteRhodes;
#X obj -93 -16 r velRhodes;
#X floatatom 46 59 5 0 0 0 - - -;
#X floatatom 85 59 5 0 0 0 - - -;
#X floatatom 124 59 5 0 0 0 - - -;
#X floatatom 163 59 5 0 0 0 - - -;
#X floatatom 201 59 5 0 0 0 - - -;
#X floatatom 240 59 5 0 0 0 - - -;
#X text 258 -61 Attack;
#X text 294 -40 Decay;
#X text 96 -132 Detune factor for the chord's first sound;
#X text 134 -114 Detune factor for the chord's second sound;
#X text 171 -97 Detune factor for the chord's third sound;
#X text 214 -80 Detune factor for the chord's fourth sound;
#X obj -188 19 notein;
#X floatatom -129 59 5 0 0 0 - - -;
#X floatatom -93 59 5 0 0 0 - - -;
#N canvas 0 22 1024 720 (subpatch) 0;
#X floatatom 243 426 5 0 0 0 - - -;
#X floatatom 297 425 5 0 0 0 - - -;
#X obj 444 6 bng 25 250 50 0 empty empty Xm7 3 12 0 10 -262130 -1 -1
;
#X floatatom 216 408 5 0 0 0 - - -;
#X floatatom 270 407 5 0 0 0 - - -;
#X obj 209 310 unpack 0 0 0 0;
#X msg 216 289 48 51 55 58;
#X obj 252 6 bng 25 250 50 0 empty empty X7 3 12 0 10 -203904 -1 -1
;
#X msg 214 268 48 52 55 58;
#X obj 198 6 bng 25 250 50 0 empty empty Xj 3 12 0 10 -257985 -1 -1
;
#X msg 217 248 48 52 55 59;
#X obj 215 359 +;
#X obj 240 359 +;
#X obj 265 359 +;
#X obj 290 359 +;
#X floatatom 9 287 5 0 0 0 - - -;
#X obj 390 6 bng 25 250 50 0 empty empty Xmj 3 12 0 10 -261234 -1 -1
;
#X msg 218 225 48 51 55 59;
#X msg 1 77 0;
#X msg 19 48 1;
#X msg 32 78 2;
#X msg 48 48 3;
#X msg 62 79 4;
#X msg 93 79 5;
#X msg 106 49 6;
#X msg 124 79 7;
#X msg 141 49 8;
#X msg 153 79 9;
#X msg 168 59 10;
#X msg 182 79 11;
#X obj 498 6 bng 25 250 50 0 empty empty X_d 3 12 0 10 -204786 -1 -1
;
#X msg 218 207 48 51 54 57;
#X obj 471 6 bng 25 250 50 0 empty empty X/d 3 12 0 10 -262130 -1 -1
;
#X msg 221 190 48 51 54 58;
#X obj 306 6 bng 25 250 50 0 empty empty X+j 3 12 0 10 -228856 -1 -1
;
#X msg 221 171 48 52 56 59;
#X obj 333 6 bng 25 250 50 0 empty empty X+7 3 12 0 10 -4032 -1 -1
;
#X msg 221 153 48 52 56 58;
#X obj 225 6 bng 25 250 50 0 empty empty X6 3 12 0 10 -260097 -1 -1
;
#X msg 220 134 48 52 55 57;
#X obj 417 6 bng 25 250 50 0 empty empty Xm6 3 12 0 10 -162280 -1 -1
;
#X msg 219 115 48 51 55 57;
#X obj 4 6 bng 20 250 50 0 empty empty C 3 10 0 10 -262130 -1 -1;
#X obj 25 6 bng 20 250 50 0 empty empty D 3 10 0 10 -262130 -1 -1;
#X obj 47 6 bng 20 250 50 0 empty empty E 3 10 0 10 -262130 -1 -1;
#X obj 70 6 bng 20 250 50 0 empty empty F 3 10 0 10 -262130 -1 -1;
#X obj 93 6 bng 20 250 50 0 empty empty G 3 10 0 10 -262130 -1 -1;
#X obj 116 5 bng 20 250 50 0 empty empty A 3 10 0 10 -262130 -1 -1
;
#X obj 138 5 bng 20 250 50 0 empty empty B 3 10 0 10 -262130 -1 -1
;
#X obj 14 27 bng 20 250 50 0 empty empty C$ 3 10 0 10 -203904 -1 -1
;
#X obj 37 27 bng 20 250 50 0 empty empty Eb 3 10 0 10 -203904 -1 -1
;
#X obj 85 26 bng 20 250 50 0 empty empty F$ 3 10 0 10 -203904 -1 -1
;
#X obj 108 26 bng 20 250 50 0 empty empty Ab 3 10 0 10 -203904 -1 -1
;
#X obj 131 26 bng 20 250 50 0 empty empty Bb 3 10 0 10 -203904 -1 -1
;
#X msg 219 96 48 52 54 58;
#X obj 279 6 bng 25 250 50 0 empty empty X7b5 3 12 0 9 -261234 -1 -1
;
#X obj 171 6 bng 25 250 50 0 empty empty XM 3 12 0 10 -262144 -1 -1
;
#X msg 220 77 48 52 55;
#X obj 364 6 bng 25 250 50 0 empty empty Xm 3 12 0 10 -262130 -1 -1
;
#X msg 221 59 48 51 55;
#X obj 260 472 poly 4;
#X obj 251 514 route 1 2 3 4;
#X obj 252 493 pack f f f;
#X obj 3 -48 select 36 37 38 39 40 41 42 43;
#X obj 3 -95 stripnote;
#X obj 205 380 + 12;
#X obj 238 380 + 12;
#X obj 275 379 + 12;
#X obj 308 379 + 12;
#X text -5 -18 1)choose the root by Midi input;
#X obj 256 451 makenote 100 80;
#X obj 569 164 catch~ notes;
#N canvas 0 22 579 424 2oscDetune 0;
#X obj 249 544 *~;
#X floatatom 209 181 5 0 0 0 - - -;
#X msg 488 199 bang;
#X text 492 167 ENVELOPE SECTION;
#X text 519 201 trigger envelope;
#X obj 185 433 +~;
#X obj 133 125 mtof;
#X obj 196 202 + 3;
#X text 47 309 WAVE SECTION;
#X text 15 105 convert from midi to frequency;
#X text 222 195 add a small amount to the;
#X text 223 208 frequency to detune;
#X text 615 14 INSTRUMENT 4;
#X obj 131 329 osc~;
#X obj 196 333 osc~;
#X text 220 220 the second sinewave;
#X text 201 235 (actually take this from the beat counter);
#X text 623 30 a double sine generator with;
#X text 622 45 detune on one wave;
#X text 207 434 add 2 waves;
#X text 304 9 Detune;
#X obj 131 83 inlet;
#X obj 298 124 inlet;
#X text 295 110 detune;
#X obj 249 601 throw~ notes;
#X obj 503 285 ead~;
#X obj 487 106 inlet;
#X obj 654 147 inlet;
#X connect 0 0 24 0;
#X connect 1 0 7 1;
#X connect 2 0 25 0;
#X connect 5 0 0 0;
#X connect 6 0 7 0;
#X connect 6 0 13 0;
#X connect 7 0 14 0;
#X connect 13 0 5 0;
#X connect 14 0 5 1;
#X connect 21 0 6 0;
#X connect 21 0 2 0;
#X connect 22 0 1 0;
#X connect 25 0 0 1;
#X connect 26 0 25 1;
#X connect 27 0 25 2;
#X restore 532 550 pd 2oscDetune;
#X text 207 -20 2) choose arrangement by clicking;
#N canvas 0 22 579 424 2oscDetune 0;
#X obj 249 544 *~;
#X floatatom 209 181 5 0 0 0 - - -;
#X msg 488 199 bang;
#X text 492 167 ENVELOPE SECTION;
#X text 519 201 trigger envelope;
#X obj 185 433 +~;
#X obj 133 125 mtof;
#X obj 196 202 + 3;
#X text 47 309 WAVE SECTION;
#X text 15 105 convert from midi to frequency;
#X text 222 195 add a small amount to the;
#X text 223 208 frequency to detune;
#X text 615 14 INSTRUMENT 4;
#X obj 131 329 osc~;
#X obj 196 333 osc~;
#X text 220 220 the second sinewave;
#X text 201 235 (actually take this from the beat counter);
#X text 623 30 a double sine generator with;
#X text 622 45 detune on one wave;
#X text 207 434 add 2 waves;
#X text 304 9 Detune;
#X obj 131 83 inlet;
#X obj 298 124 inlet;
#X text 295 110 detune;
#X obj 249 601 throw~ notes;
#X obj 503 285 ead~;
#X obj 487 106 inlet;
#X obj 654 147 inlet;
#X connect 0 0 24 0;
#X connect 1 0 7 1;
#X connect 2 0 25 0;
#X connect 5 0 0 0;
#X connect 6 0 7 0;
#X connect 6 0 13 0;
#X connect 7 0 14 0;
#X connect 13 0 5 0;
#X connect 14 0 5 1;
#X connect 21 0 6 0;
#X connect 21 0 2 0;
#X connect 22 0 1 0;
#X connect 25 0 0 1;
#X connect 26 0 25 1;
#X connect 27 0 25 2;
#X restore 205 549 pd 2oscDetune;
#N canvas 0 22 579 424 2oscDetune 0;
#X obj 249 544 *~;
#X floatatom 209 181 5 0 0 0 - - -;
#X msg 488 199 bang;
#X text 492 167 ENVELOPE SECTION;
#X text 519 201 trigger envelope;
#X obj 185 433 +~;
#X obj 133 125 mtof;
#X obj 196 202 + 3;
#X text 47 309 WAVE SECTION;
#X text 15 105 convert from midi to frequency;
#X text 222 195 add a small amount to the;
#X text 223 208 frequency to detune;
#X text 615 14 INSTRUMENT 4;
#X obj 131 329 osc~;
#X obj 196 333 osc~;
#X text 220 220 the second sinewave;
#X text 201 235 (actually take this from the beat counter);
#X text 623 30 a double sine generator with;
#X text 622 45 detune on one wave;
#X text 207 434 add 2 waves;
#X text 304 9 Detune;
#X obj 131 83 inlet;
#X obj 298 124 inlet;
#X text 295 110 detune;
#X obj 249 601 throw~ notes;
#X obj 503 285 ead~;
#X obj 487 106 inlet;
#X obj 654 147 inlet;
#X connect 0 0 24 0;
#X connect 1 0 7 1;
#X connect 2 0 25 0;
#X connect 5 0 0 0;
#X connect 6 0 7 0;
#X connect 6 0 13 0;
#X connect 7 0 14 0;
#X connect 13 0 5 0;
#X connect 14 0 5 1;
#X connect 21 0 6 0;
#X connect 21 0 2 0;
#X connect 22 0 1 0;
#X connect 25 0 0 1;
#X connect 26 0 25 1;
#X connect 27 0 25 2;
#X restore 301 548 pd 2oscDetune;
#N canvas 0 22 579 424 2oscDetune 0;
#X obj 249 544 *~;
#X floatatom 209 181 5 0 0 0 - - -;
#X msg 488 199 bang;
#X text 492 167 ENVELOPE SECTION;
#X text 519 201 trigger envelope;
#X obj 185 433 +~;
#X obj 133 125 mtof;
#X obj 196 202 + 3;
#X text 47 309 WAVE SECTION;
#X text 15 105 convert from midi to frequency;
#X text 222 195 add a small amount to the;
#X text 223 208 frequency to detune;
#X text 615 14 INSTRUMENT 4;
#X obj 131 329 osc~;
#X obj 196 333 osc~;
#X text 220 220 the second sinewave;
#X text 201 235 (actually take this from the beat counter);
#X text 623 30 a double sine generator with;
#X text 622 45 detune on one wave;
#X text 207 434 add 2 waves;
#X text 304 9 Detune;
#X obj 131 83 inlet;
#X obj 298 124 inlet;
#X text 295 110 detune;
#X obj 249 601 throw~ notes;
#X obj 503 285 ead~;
#X obj 487 106 inlet;
#X obj 654 147 inlet;
#X connect 0 0 24 0;
#X connect 1 0 7 1;
#X connect 2 0 25 0;
#X connect 5 0 0 0;
#X connect 6 0 7 0;
#X connect 6 0 13 0;
#X connect 7 0 14 0;
#X connect 13 0 5 0;
#X connect 14 0 5 1;
#X connect 21 0 6 0;
#X connect 21 0 2 0;
#X connect 22 0 1 0;
#X connect 25 0 0 1;
#X connect 26 0 25 1;
#X connect 27 0 25 2;
#X restore 410 547 pd 2oscDetune;
#X obj 571 189 *~ 0.08;
#X obj 629 -3 select 1 2 3 4 5 6 7 8 9 10 11 12 13;
#X obj 630 -41 random 13;
#X floatatom 630 -22 5 0 0 0 - - -;
#X obj 12 -76 bng 15 250 50 0 empty empty empty 17 7 0 10 -262144 -1
-1;
#X text 625 -74 2) or random by connecting the bang under stripnote
to the random inlet;
#X obj -35 -130 inlet;
#X obj 49 -131 inlet;
#X obj 390 447 inlet;
#X obj 428 448 inlet;
#X obj 465 447 inlet;
#X obj 502 447 inlet;
#X obj 611 448 inlet;
#X obj 571 211 outlet~;
#X obj 655 447 inlet;
#X obj 926 310 inlet;
#X connect 0 0 70 0;
#X connect 1 0 70 0;
#X connect 2 0 6 0;
#X connect 3 0 70 0;
#X connect 4 0 70 0;
#X connect 5 0 11 1;
#X connect 5 1 12 1;
#X connect 5 2 13 1;
#X connect 5 3 14 1;
#X connect 6 0 5 0;
#X connect 7 0 8 0;
#X connect 8 0 5 0;
#X connect 9 0 10 0;
#X connect 10 0 5 0;
#X connect 11 0 65 0;
#X connect 12 0 66 0;
#X connect 13 0 67 0;
#X connect 14 0 68 0;
#X connect 15 0 11 0;
#X connect 15 0 12 0;
#X connect 15 0 13 0;
#X connect 15 0 14 0;
#X connect 16 0 17 0;
#X connect 17 0 5 0;
#X connect 18 0 15 0;
#X connect 19 0 15 0;
#X connect 20 0 15 0;
#X connect 21 0 15 0;
#X connect 22 0 15 0;
#X connect 23 0 15 0;
#X connect 24 0 15 0;
#X connect 25 0 15 0;
#X connect 26 0 15 0;
#X connect 27 0 15 0;
#X connect 28 0 15 0;
#X connect 29 0 15 0;
#X connect 30 0 31 0;
#X connect 31 0 5 0;
#X connect 32 0 33 0;
#X connect 33 0 5 0;
#X connect 34 0 35 0;
#X connect 35 0 5 0;
#X connect 36 0 37 0;
#X connect 37 0 5 0;
#X connect 38 0 39 0;
#X connect 39 0 5 0;
#X connect 40 0 41 0;
#X connect 41 0 5 0;
#X connect 42 0 18 0;
#X connect 43 0 20 0;
#X connect 44 0 22 0;
#X connect 45 0 23 0;
#X connect 46 0 25 0;
#X connect 47 0 27 0;
#X connect 48 0 29 0;
#X connect 49 0 19 0;
#X connect 50 0 21 0;
#X connect 51 0 24 0;
#X connect 52 0 26 0;
#X connect 53 0 28 0;
#X connect 54 0 5 0;
#X connect 55 0 54 0;
#X connect 56 0 57 0;
#X connect 57 0 5 0;
#X connect 58 0 59 0;
#X connect 59 0 5 0;
#X connect 60 0 62 0;
#X connect 60 1 62 1;
#X connect 60 2 62 2;
#X connect 61 0 74 0;
#X connect 61 1 75 0;
#X connect 61 2 76 0;
#X connect 61 3 72 0;
#X connect 62 0 61 0;
#X connect 63 0 42 0;
#X connect 63 1 43 0;
#X connect 63 2 44 0;
#X connect 63 3 45 0;
#X connect 63 4 46 0;
#X connect 63 5 47 0;
#X connect 63 6 48 0;
#X connect 64 0 63 0;
#X connect 64 0 81 0;
#X connect 64 1 70 1;
#X connect 65 0 3 0;
#X connect 66 0 0 0;
#X connect 67 0 4 0;
#X connect 68 0 1 0;
#X connect 70 0 60 0;
#X connect 70 1 60 1;
#X connect 71 0 77 0;
#X connect 77 0 90 0;
#X connect 78 0 56 0;
#X connect 78 1 9 0;
#X connect 78 2 38 0;
#X connect 78 3 7 0;
#X connect 78 4 55 0;
#X connect 78 5 34 0;
#X connect 78 6 36 0;
#X connect 78 7 58 0;
#X connect 78 8 16 0;
#X connect 78 9 40 0;
#X connect 78 10 2 0;
#X connect 78 11 32 0;
#X connect 78 12 30 0;
#X connect 79 0 80 0;
#X connect 80 0 78 0;
#X connect 83 0 64 0;
#X connect 84 0 64 1;
#X connect 85 0 74 1;
#X connect 86 0 75 1;
#X connect 87 0 76 1;
#X connect 88 0 72 1;
#X connect 89 0 74 2;
#X connect 89 0 75 2;
#X connect 89 0 76 2;
#X connect 89 0 72 2;
#X connect 91 0 74 3;
#X connect 91 0 75 3;
#X connect 91 0 76 3;
#X connect 91 0 72 3;
#X connect 92 0 61 0;
#X coords 0 1 100 -1 530 55 1 0 0;
#X restore -129 75 graph;
#N canvas 0 22 450 300 (subpatch) 0;
#X obj 59 155 inlet;
#X obj 3 89 inlet~;
#X obj 58 182 change;
#X msg 60 246 set \$1;
#X obj 60 227 tosymbol;
#X obj 59 204 sprintf Bus%d;
#X obj 3 282 throw~ Bus0;
#X obj 2 3 popup 124 25 #ffffff popup Bus0 Bus1 Bus2 Bus3 Bus4 Bus5
Bus6 Bus7 Bus8 Bus9 Bus10 Bus11 Bus12 Bus13 Bus14 Bus15 Bus16;
#X obj 1 32 route bang;
#X obj 154 202 *~;
#X obj 141 7 tgl 15 0 empty empty Dac 19 7 0 10 -262144 -1 -1 1 1;
#X obj 155 238 dac~;
#X obj 1 -65 loadbang;
#X text 59 -67 Bus0 mutes;
#X msg 1 -47 options Bus0 Bus1 Bus2 Bus3 Bus4 Bus5 Bus6 Bus7 Bus8 Bus9
Bus10 Bus11 Bus12 Bus13 Bus14 Bus15 Bus16;
#X connect 0 0 2 0;
#X connect 1 0 6 0;
#X connect 1 0 9 0;
#X connect 2 0 5 0;
#X connect 3 0 6 0;
#X connect 4 0 3 0;
#X connect 5 0 4 0;
#X connect 7 0 8 0;
#X connect 8 1 2 0;
#X connect 9 0 11 0;
#X connect 9 0 11 1;
#X connect 10 0 9 1;
#X connect 12 0 14 0;
#X connect 14 0 7 0;
#X coords 0 1 100 -1 180 30 1 0 0;
#X restore -129 130 graph;
#X obj 241 -3 knob 25 25 0 127 0 0 empty empty empty 0 -8 32 8 -1 -260097
-260097 2400 1;
#X obj 201 -3 knob 25 25 0 127 0 0 empty empty empty 0 -8 32 8 -1 -260097
-260097 200 1;
#X obj 163 -3 knob 25 25 0 127 0 0 empty empty empty 0 -8 32 8 -1 -260097
-260097 400 1;
#X obj 124 -3 knob 25 25 0 127 0 0 empty empty empty 0 -8 32 8 -1 -260097
-260097 1100 1;
#X obj 85 -3 knob 25 25 0 127 0 0 empty empty empty 0 -8 32 8 -1 -260097
-260097 1200 1;
#X obj 46 -3 knob 25 25 0 127 0 0 empty empty empty 0 -8 32 8 -1 -260097
-260097 800 1;
#N canvas 0 22 450 300 (subpatch) 0;
#X obj -30 22 spigot;
#X obj 2 3 tgl 15 0 empty empty empty 17 7 0 10 -262144 -1 -1 0 1;
#X obj -58 0 inlet;
#X obj -54 54 outlet;
#X connect 0 0 3 0;
#X connect 1 0 0 1;
#X connect 2 0 0 0;
#X coords 0 1 100 -1 20 20 1 0 0;
#X restore 124 -26 graph;
#N canvas 0 22 450 300 (subpatch) 0;
#X obj -30 22 spigot;
#X obj 2 3 tgl 15 0 empty empty empty 17 7 0 10 -262144 -1 -1 0 1;
#X obj -58 0 inlet;
#X obj -54 54 outlet;
#X connect 0 0 3 0;
#X connect 1 0 0 1;
#X connect 2 0 0 0;
#X coords 0 1 100 -1 20 20 1 0 0;
#X restore 163 -26 graph;
#N canvas 0 22 450 300 (subpatch) 0;
#X obj -30 22 spigot;
#X obj 2 3 tgl 15 0 empty empty empty 17 7 0 10 -262144 -1 -1 0 1;
#X obj -58 0 inlet;
#X obj -54 54 outlet;
#X connect 0 0 3 0;
#X connect 1 0 0 1;
#X connect 2 0 0 0;
#X coords 0 1 100 -1 20 20 1 0 0;
#X restore 201 -26 graph;
#N canvas 0 22 450 300 (subpatch) 0;
#X obj -30 22 spigot;
#X obj 2 3 tgl 15 0 empty empty empty 17 7 0 10 -262144 -1 -1 0 1;
#X obj -58 0 inlet;
#X obj -54 54 outlet;
#X connect 0 0 3 0;
#X connect 1 0 0 1;
#X connect 2 0 0 0;
#X coords 0 1 100 -1 20 20 1 0 0;
#X restore 241 -26 graph;
#N canvas 0 22 450 300 (subpatch) 0;
#X obj -30 22 spigot;
#X obj 2 3 tgl 15 0 empty empty empty 17 7 0 10 -262144 -1 -1 0 1;
#X obj -58 0 inlet;
#X obj -54 54 outlet;
#X connect 0 0 3 0;
#X connect 1 0 0 1;
#X connect 2 0 0 0;
#X coords 0 1 100 -1 20 20 1 0 0;
#X restore -129 0 graph;
#N canvas 0 22 450 300 (subpatch) 0;
#X obj -30 22 spigot;
#X obj 2 3 tgl 15 0 empty empty empty 17 7 0 10 -262144 -1 -1 0 1;
#X obj -58 0 inlet;
#X obj -54 54 outlet;
#X connect 0 0 3 0;
#X connect 1 0 0 1;
#X connect 2 0 0 0;
#X coords 0 1 100 -1 20 20 1 0 0;
#X restore -93 1 graph;
#N canvas 0 22 450 300 (subpatch) 0;
#X obj -30 22 spigot;
#X obj 2 3 tgl 15 0 empty empty empty 17 7 0 10 -262144 -1 -1 0 1;
#X obj -58 0 inlet;
#X obj -54 54 outlet;
#X connect 0 0 3 0;
#X connect 1 0 0 1;
#X connect 2 0 0 0;
#X coords 0 1 100 -1 20 20 1 0 0;
#X restore 46 -26 graph;
#N canvas 0 22 450 300 (subpatch) 0;
#X obj -30 22 spigot;
#X obj 2 3 tgl 15 0 empty empty empty 17 7 0 10 -262144 -1 -1 0 1;
#X obj -58 0 inlet;
#X obj -54 54 outlet;
#X connect 0 0 3 0;
#X connect 1 0 0 1;
#X connect 2 0 0 0;
#X coords 0 1 100 -1 20 20 1 0 0;
#X restore 85 -26 graph;
#N canvas 0 22 450 300 (subpatch) 0;
#X obj -30 22 spigot;
#X obj 2 3 tgl 15 0 empty empty empty 17 7 0 10 -262144 -1 -1 0 1;
#X obj -58 0 inlet;
#X obj -54 54 outlet;
#X connect 0 0 3 0;
#X connect 1 0 0 1;
#X connect 2 0 0 0;
#X coords 0 1 100 -1 20 20 1 0 0;
#X restore -188 39 graph;
#N canvas 0 22 450 300 (subpatch) 0;
#X obj -30 22 spigot;
#X obj 2 3 tgl 15 0 empty empty empty 17 7 0 10 -262144 -1 -1 0 1;
#X obj -58 0 inlet;
#X obj -54 54 outlet;
#X connect 0 0 3 0;
#X connect 1 0 0 1;
#X connect 2 0 0 0;
#X coords 0 1 100 -1 20 20 1 0 0;
#X restore -168 39 graph;
#N canvas 0 22 450 300 (subpatch) 0;
#X obj -30 22 spigot;
#X obj 2 3 tgl 15 0 empty empty empty 17 7 0 10 -262144 -1 -1 1 1;
#X obj -58 0 inlet;
#X obj -54 54 outlet;
#X connect 0 0 3 0;
#X connect 1 0 0 1;
#X connect 2 0 0 0;
#X coords 0 1 100 -1 20 20 1 0 0;
#X restore 365 18 graph;
#X obj 364 -4 r polynote;
#X text 393 20 receive from polyseq32;
#X connect 0 0 8 0;
#X connect 1 0 49 0;
#X connect 2 0 9 0;
#X connect 3 0 10 0;
#X connect 4 0 11 0;
#X connect 5 0 50 0;
#X connect 6 0 43 0;
#X connect 7 0 44 0;
#X connect 8 0 20 0;
#X connect 9 0 21 0;
#X connect 10 0 22 0;
#X connect 11 0 23 0;
#X connect 12 0 16 0;
#X connect 13 0 17 0;
#X connect 14 0 45 0;
#X connect 15 0 46 0;
#X connect 16 0 24 0;
#X connect 17 0 25 0;
#X connect 18 0 47 0;
#X connect 19 0 48 0;
#X connect 20 0 35 2;
#X connect 21 0 35 3;
#X connect 22 0 35 4;
#X connect 23 0 35 5;
#X connect 24 0 35 6;
#X connect 25 0 35 7;
#X connect 32 0 51 0;
#X connect 32 1 52 0;
#X connect 33 0 35 0;
#X connect 34 0 35 1;
#X connect 35 0 36 0;
#X connect 37 0 13 0;
#X connect 38 0 12 0;
#X connect 39 0 4 0;
#X connect 40 0 3 0;
#X connect 41 0 2 0;
#X connect 42 0 0 0;
#X connect 43 0 40 0;
#X connect 44 0 39 0;
#X connect 45 0 38 0;
#X connect 46 0 37 0;
#X connect 47 0 33 0;
#X connect 48 0 34 0;
#X connect 49 0 42 0;
#X connect 50 0 41 0;
#X connect 51 0 33 0;
#X connect 52 0 34 0;
#X connect 53 0 35 8;
#X connect 54 0 53 0;
