#N canvas 0 22 661 465 10;
#X text 158 249 2007 Dan Wilcox \, Based on chipwave by Philip A Phelps
- http://www.zenpho.co.uk/chipwave.shtml;
#X text 153 91 rc-chipwave~ a chiptunes emulator;
#X text 154 103 acts as a mini sequencer which switches between 4 noise
sources every 1/25th sec: null \, sine \, square \, and noise;
#X text 154 130 control the adsr envelope \, amplitude \, and sqaure
pulse width;
#X text 155 144 use the radio buttons to control what noise source
is used during each of the 8 1/25th secs;
#X text 156 213 wave table holds which signal source to use;
#X text 155 170 the pitch array can be used to control the pitch on
the square wave during each time step \, tables are 8 in size;
#X obj 158 229 table \$0data;
#X obj -13 -108 r noteChip;
#X obj 25 -88 r velChip;
#X floatatom 63 37 5 0 0 0 - - -;
#X floatatom 101 37 5 0 0 0 - - -;
#X floatatom 140 37 5 0 0 0 - - -;
#X floatatom 101 70 5 0 0 0 - - -;
#X floatatom 140 70 5 0 0 0 - - -;
#X obj 101 53 * 10;
#X obj 63 53 * 1;
#X floatatom 63 70 5 0 0 0 - - -;
#X obj 140 53 * 10;
#X obj 62 -69 r ctl6;
#X obj 101 -50 r ctl7;
#X obj 139 -32 r ctl8;
#X text 105 -70 Attack;
#X text 147 -48 Length;
#X text 181 -32 Decay;
#X obj -75 30 notein;
#X floatatom -13 70 5 0 0 0 - - -;
#X floatatom 25 70 5 0 0 0 - - -;
#N canvas 0 22 450 300 (subpatch) 0;
#X obj 59 155 inlet;
#X obj 3 89 inlet~;
#X obj 58 182 change;
#X msg 60 246 set \$1;
#X obj 60 227 tosymbol;
#X obj 59 204 sprintf Bus%d;
#X obj 3 282 throw~ Bus0;
#X obj 2 3 popup 124 25 #ffffff popup Bus0 Bus1 Bus2 Bus3 Bus4 Bus5
;
#X obj 1 32 route bang;
#X obj 154 202 *~;
#X obj 141 7 tgl 15 0 empty empty Dac 19 7 0 10 -262144 -1 -1 0 1;
#X obj 155 238 dac~;
#X obj 9 -54 loadbang;
#X text 67 -56 Bus0 mutes;
#X msg 9 -36 options Bus0 Bus1 Bus2 Bus3 Bus4 Bus5 Bus6 Bus7 Bus8 Bus9
Bus10 Bus11 Bus12 Bus13 Bus14 Bus15 Bus16;
#X connect 0 0 2 0;
#X connect 1 0 6 0;
#X connect 1 0 9 0;
#X connect 2 0 5 0;
#X connect 3 0 6 0;
#X connect 4 0 3 0;
#X connect 5 0 4 0;
#X connect 7 0 8 0;
#X connect 8 1 2 0;
#X connect 9 0 11 0;
#X connect 9 0 11 1;
#X connect 10 0 9 1;
#X connect 12 0 14 0;
#X connect 14 0 7 0;
#X coords 0 1 100 -1 180 30 1 0 0;
#X restore -13 286 graph;
#N canvas 0 22 450 300 (subpatch) 0;
#X obj 126 672 phasor~;
#X floatatom 176 675 5 0 0.5 0 - - -;
#X obj 125 728 /~;
#X obj 139 699 -~;
#X obj 126 749 clip~ -1 1;
#X obj 201 749 samphold~;
#X obj 202 725 noise~;
#X obj 252 724 phasor~ 50;
#X obj 251 699 sig~;
#X obj 49 641 sig~;
#X obj 48 743 -~;
#X obj 48 668 phasor~;
#X obj 89 720 *~ 1;
#X obj 48 719 *~ 2;
#X obj 48 692 clip~ 0 0.5;
#X obj 48 765 *~ 2;
#X obj 251 674 * 10;
#X obj 335 735 *~;
#X obj 335 761 hip~ 40;
#X obj 168 509 f;
#X obj 168 531 + 1;
#X obj 192 509 % 8;
#X msg 167 456 stop;
#X obj 217 509 sel 0;
#X msg 267 446 0;
#X obj 208 417 bng 15 250 50 0 empty empty empty 0 -6 0 8 -262144 -1
-1;
#X text 182 391 trigger note;
#X text 255 507 counts to 8;
#X text 255 519 resets metro;
#X obj 167 480 metro 25;
#X text 220 480 1/25th sec;
#X obj 208 445 delay 25;
#X obj 48 594 +;
#X floatatom 63 515 5 0 0 0 - - -;
#X obj 48 617 mtof;
#X text 64 363 midi root pitch;
#X text 332 854 audio out;
#X obj 48 553 tabread \$0-pitch;
#X obj 49 789 send~ \$0-ti;
#X obj 126 775 send~ \$0-sq;
#X obj 202 781 send~ \$0-ns;
#X obj 269 596 sel 0 1 2 3;
#X obj 346 625 \$0;
#X obj 321 625 \$0;
#X obj 295 625 \$0;
#X msg 482 660 set \$1-ns;
#X msg 349 660 set \$1-ti;
#X msg 415 660 set \$1-sq;
#X obj 47 846 send~ \$0-bk;
#X obj 269 625 \$0;
#X msg 284 661 set \$1-bk;
#X obj 336 789 *~ 0.6;
#X obj 336 693 receive~ \$0-f;
#X obj 176 609 r \$0-pwm;
#X obj 393 722 send~ \$0-f;
#X obj 269 571 tabread \$0data;
#X text 234 607 PWM;
#X text 59 808 sine;
#X text 138 796 square;
#X text 209 802 noise;
#X text 120 846 blank;
#N canvas 0 22 686 378 state_saving 0;
#N canvas 325 344 453 351 load 0;
#X obj 40 6 inlet;
#X obj 40 72 until;
#X obj 40 99 list append;
#X obj 133 128 bang;
#X obj 40 128 list split 1;
#X obj 200 186 f;
#X obj 230 186 + 1;
#X msg 216 164 0;
#X obj 40 154 t f b;
#X obj 40 39 t b l b;
#X obj 40 266 pack f s;
#X msg 40 291 \; \$2 \$1 \;;
#X obj 200 207 makefilename \$0-wave%d;
#X text 202 118 cycle through list and send to radios;
#X text 138 44 loads sequence using sssad into table and radio;
#X connect 0 0 9 0;
#X connect 1 0 2 0;
#X connect 2 0 4 0;
#X connect 3 0 1 1;
#X connect 4 0 8 0;
#X connect 4 1 2 1;
#X connect 4 2 3 0;
#X connect 5 0 6 0;
#X connect 5 0 12 0;
#X connect 6 0 5 1;
#X connect 7 0 5 1;
#X connect 8 0 10 0;
#X connect 8 1 5 0;
#X connect 9 0 1 0;
#X connect 9 1 2 1;
#X connect 9 2 7 0;
#X connect 10 0 11 0;
#X connect 12 0 10 1;
#X restore 26 111 pd load;
#X text 15 11 ssad state saving;
#X obj 26 84 sssad/sssad \$1/wave;
#X obj 335 61 sssad/sssad \$1/amp;
#X obj 440 39 r \$0-amp;
#X obj 335 83 s \$0-amp;
#X obj 487 95 r \$0-A;
#X obj 394 119 sssad/sssad \$1/A;
#X obj 394 143 s \$0-A;
#X obj 520 160 r \$0-D;
#X obj 427 182 sssad/sssad \$1/D;
#X obj 427 204 s \$0-D;
#X obj 563 215 r \$0-S;
#X obj 470 238 sssad/sssad \$1/S;
#X obj 470 263 s \$0-S;
#X obj 615 273 r \$0-R;
#X obj 522 297 sssad/sssad \$1/R;
#X obj 522 321 s \$0-R;
#X text 328 13 sssad sends and recieves;
#N canvas 212 221 507 438 save 0;
#X obj 58 10 r SSSAD_SAVE;
#X obj 54 299 list prepend;
#X obj 138 300 t l;
#X obj 33 328 list;
#X obj 33 363 outlet;
#X obj 96 112 until;
#X obj 96 135 f;
#X obj 126 135 + 1;
#X msg 141 112 0;
#X obj 58 36 t b b b b;
#X obj 96 160 tabread \$0data;
#X text 212 120 dump table by cycling through elements;
#X obj 96 89 8;
#X text 237 29 save the wave table using sssad;
#X obj 82 364 s \$1/wave_dump;
#X connect 0 0 9 0;
#X connect 1 0 2 0;
#X connect 1 0 3 1;
#X connect 2 0 1 1;
#X connect 3 0 4 0;
#X connect 3 0 14 0;
#X connect 5 0 6 0;
#X connect 6 0 7 0;
#X connect 6 0 10 0;
#X connect 7 0 6 1;
#X connect 8 0 6 1;
#X connect 9 0 1 1;
#X connect 9 1 3 0;
#X connect 9 2 12 0;
#X connect 9 3 8 0;
#X connect 10 0 1 0;
#X connect 12 0 5 0;
#X restore 137 55 pd save;
#N canvas 157 500 386 257 load 0;
#X obj 40 6 inlet;
#X obj 40 72 until;
#X obj 40 99 list append;
#X obj 133 128 bang;
#X obj 40 128 list split 1;
#X obj 40 154 t f b;
#X text 138 44 loads sequence using sssad into table;
#X obj 40 230 tabwrite \$0-pitch;
#X obj 183 171 f;
#X obj 213 171 + 1;
#X msg 199 149 0;
#X obj 40 39 t b l b;
#X connect 0 0 11 0;
#X connect 1 0 2 0;
#X connect 2 0 4 0;
#X connect 3 0 1 1;
#X connect 4 0 5 0;
#X connect 4 1 2 1;
#X connect 4 2 3 0;
#X connect 5 0 7 0;
#X connect 5 1 8 0;
#X connect 8 0 9 0;
#X connect 8 0 7 1;
#X connect 9 0 8 1;
#X connect 10 0 8 1;
#X connect 11 0 1 0;
#X connect 11 1 2 1;
#X connect 11 2 10 0;
#X restore 50 185 pd load;
#N canvas 212 221 507 438 save 0;
#X obj 58 10 r SSSAD_SAVE;
#X obj 54 299 list prepend;
#X obj 138 300 t l;
#X obj 33 328 list;
#X obj 33 363 outlet;
#X obj 96 112 until;
#X obj 96 135 f;
#X obj 126 135 + 1;
#X msg 141 112 0;
#X obj 58 36 t b b b b;
#X text 212 120 dump table by cycling through elements;
#X obj 96 89 8;
#X obj 96 160 tabread \$0-pitch;
#X text 237 29 save the pitch table using sssad;
#X connect 0 0 9 0;
#X connect 1 0 2 0;
#X connect 1 0 3 1;
#X connect 2 0 1 1;
#X connect 3 0 4 0;
#X connect 5 0 6 0;
#X connect 6 0 7 0;
#X connect 6 0 12 0;
#X connect 7 0 6 1;
#X connect 8 0 6 1;
#X connect 9 0 1 1;
#X connect 9 1 3 0;
#X connect 9 2 11 0;
#X connect 9 3 8 0;
#X connect 11 0 5 0;
#X connect 12 0 1 0;
#X restore 167 132 pd save;
#X obj 208 208 r \$0-pwm;
#X obj 103 231 sssad/sssad \$1/pwm;
#X obj 103 255 s \$0-pwm;
#X obj 50 158 sssad/sssad \$1/pitch;
#X connect 2 0 0 0;
#X connect 3 0 5 0;
#X connect 4 0 3 1;
#X connect 6 0 7 1;
#X connect 7 0 8 0;
#X connect 9 0 10 1;
#X connect 10 0 11 0;
#X connect 12 0 13 1;
#X connect 13 0 14 0;
#X connect 15 0 16 1;
#X connect 16 0 17 0;
#X connect 19 0 2 1;
#X connect 21 0 25 1;
#X connect 22 0 23 1;
#X connect 23 0 24 0;
#X connect 25 0 20 0;
#X restore 439 822 pd state_saving;
#N canvas 655 170 526 427 radio_connections 0;
#X text 79 4 radio button table index sends;
#X msg 21 159 \; \$1data \$2 \$3 \;;
#X obj 21 134 pack f f f;
#X obj 21 56 t b b f;
#X obj 21 30 r \$0-wave0;
#X obj 21 106 \$0;
#X msg 128 159 \; \$1data \$2 \$3 \;;
#X obj 128 134 pack f f f;
#X obj 128 56 t b b f;
#X obj 128 106 \$0;
#X msg 40 84 0;
#X msg 147 80 1;
#X obj 128 30 r \$0-wave1;
#X msg 251 160 \; \$1data \$2 \$3 \;;
#X obj 251 135 pack f f f;
#X obj 251 57 t b b f;
#X obj 251 107 \$0;
#X msg 380 162 \; \$1data \$2 \$3 \;;
#X obj 380 137 pack f f f;
#X obj 380 59 t b b f;
#X msg 26 357 \; \$1data \$2 \$3 \;;
#X obj 26 332 pack f f f;
#X obj 26 254 t b b f;
#X msg 142 357 \; \$1data \$2 \$3 \;;
#X obj 142 332 pack f f f;
#X obj 142 254 t b b f;
#X obj 142 304 \$0;
#X msg 261 360 \; \$1data \$2 \$3 \;;
#X obj 261 335 pack f f f;
#X obj 261 257 t b b f;
#X obj 261 307 \$0;
#X msg 384 359 \; \$1data \$2 \$3 \;;
#X obj 384 334 pack f f f;
#X obj 384 256 t b b f;
#X obj 384 306 \$0;
#X obj 380 109 \$0;
#X obj 26 302 \$0;
#X msg 270 81 2;
#X obj 251 31 r \$0-wave2;
#X obj 380 33 r \$0-wave3;
#X msg 399 83 3;
#X obj 26 228 r \$0-wave4;
#X msg 45 278 4;
#X obj 142 228 r \$0-wave5;
#X msg 161 278 5;
#X obj 261 231 r \$0-wave6;
#X msg 280 281 6;
#X obj 384 230 r \$0-wave7;
#X msg 403 280 7;
#X connect 2 0 1 0;
#X connect 3 0 5 0;
#X connect 3 1 10 0;
#X connect 3 2 2 2;
#X connect 4 0 3 0;
#X connect 5 0 2 0;
#X connect 7 0 6 0;
#X connect 8 0 9 0;
#X connect 8 1 11 0;
#X connect 8 2 7 2;
#X connect 9 0 7 0;
#X connect 10 0 2 1;
#X connect 11 0 7 1;
#X connect 12 0 8 0;
#X connect 14 0 13 0;
#X connect 15 0 16 0;
#X connect 15 1 37 0;
#X connect 15 2 14 2;
#X connect 16 0 14 0;
#X connect 18 0 17 0;
#X connect 19 0 35 0;
#X connect 19 1 40 0;
#X connect 19 2 18 2;
#X connect 21 0 20 0;
#X connect 22 0 36 0;
#X connect 22 1 42 0;
#X connect 22 2 21 2;
#X connect 24 0 23 0;
#X connect 25 0 26 0;
#X connect 25 1 44 0;
#X connect 25 2 24 2;
#X connect 26 0 24 0;
#X connect 28 0 27 0;
#X connect 29 0 30 0;
#X connect 29 1 46 0;
#X connect 29 2 28 2;
#X connect 30 0 28 0;
#X connect 32 0 31 0;
#X connect 33 0 34 0;
#X connect 33 1 48 0;
#X connect 33 2 32 2;
#X connect 34 0 32 0;
#X connect 35 0 18 0;
#X connect 36 0 21 0;
#X connect 37 0 14 1;
#X connect 38 0 15 0;
#X connect 39 0 19 0;
#X connect 40 0 18 1;
#X connect 41 0 22 0;
#X connect 42 0 21 1;
#X connect 43 0 25 0;
#X connect 44 0 24 1;
#X connect 45 0 29 0;
#X connect 46 0 28 1;
#X connect 47 0 33 0;
#X connect 48 0 32 1;
#X restore 439 794 pd radio_connections;
#X text 390 738 needed send to avoid errors;
#X text 312 323 midi velocity and control messages;
#X obj 172 342 stripnote;
#X obj 336 815 *~;
#X obj 463 518 / 100;
#X obj 464 538 + 0.2;
#X obj 465 557 line;
#X floatatom 510 535 5 0 0 0 - - -;
#X text 548 534 time offset to adjust volume to velocity;
#N canvas 0 22 450 300 eald~ 0;
#X msg 394 133 bang;
#X floatatom 504 74 5 0 0 0 - - -;
#X floatatom 555 73 5 0 0 0 - - -;
#X floatatom 605 73 5 0 0 0 - - -;
#X text 471 25 "ALD" enveloppe;
#X obj 504 49 inlet;
#X obj 555 48 inlet;
#X obj 605 48 inlet;
#X obj 408 52 inlet;
#X obj 379 432 outlet~;
#X text 633 133 ENVELOPE SECTION;
#X obj 379 346 vline~;
#X msg 352 245 1;
#X obj 352 265 pack f f;
#X obj 352 286 unpack f f;
#X msg 456 246 0;
#X obj 456 267 pack f f f;
#X obj 456 288 unpack f f f;
#X obj 456 225 delay 5;
#X text 102 283 Attack : sends a 1 to get to in A msec;
#X text 529 224 wait the end of the attack;
#X text 538 254 Length+Decay : 0 to get to in D msec \, after L msec
;
#X text 493 74 A;
#X text 544 74 L;
#X text 594 74 D;
#X connect 0 0 12 0;
#X connect 0 0 18 0;
#X connect 1 0 13 1;
#X connect 1 0 18 1;
#X connect 2 0 16 2;
#X connect 3 0 16 1;
#X connect 5 0 1 0;
#X connect 6 0 2 0;
#X connect 7 0 3 0;
#X connect 8 0 0 0;
#X connect 11 0 9 0;
#X connect 12 0 13 0;
#X connect 13 0 14 0;
#X connect 14 0 11 0;
#X connect 14 1 11 1;
#X connect 15 0 16 0;
#X connect 16 0 17 0;
#X connect 17 0 11 0;
#X connect 17 1 11 1;
#X connect 17 2 11 2;
#X connect 18 0 15 0;
#X restore 425 498 pd eald~;
#X obj 553 497 loadbang;
#X msg 553 518 50;
#X obj 336 837 outlet~;
#X obj 177 313 inlet;
#X obj 228 313 inlet;
#X obj 467 389 inlet;
#X obj 518 389 inlet;
#X obj 565 387 inlet;
#X obj 23 4 nbx 3 14 0 1 0 1 \$0-amp \$0-amp amp -20 6 0 10 -261234
-1 -1 0.507246 256;
#X obj 23 23 nbx 3 14 0 0.5 0 1 \$0-pwm \$0-pwm pwm -20 6 0 10 -261234
-1 -1 0.5 256;
#X obj 23 55 vradio 15 1 1 4 \$0-wave0 \$0-wave0 0 0 -6 0 10 -191407
-1 -1 1;
#X obj 38 55 vradio 15 1 1 4 \$0-wave1 \$0-wave1 1 0 -6 0 10 -191407
-1 -1 1;
#X obj 53 55 vradio 15 1 1 4 \$0-wave2 \$0-wave2 2 0 -6 0 10 -191407
-1 -1 0;
#X obj 68 55 vradio 15 1 1 4 \$0-wave3 \$0-wave3 3 0 -6 0 10 -191407
-1 -1 3;
#X obj 98 55 vradio 15 1 1 4 \$0-wave5 \$0-wave5 5 0 -6 0 10 -191407
-1 -1 1;
#X obj 83 55 vradio 15 1 1 4 \$0-wave4 \$0-wave4 4 0 -6 0 10 -191407
-1 -1 0;
#X obj 113 55 vradio 15 1 1 4 \$0-wave6 \$0-wave6 6 0 -6 0 10 -191407
-1 -1 1;
#X obj 128 55 vradio 15 1 1 4 \$0-wave7 \$0-wave7 7 0 -6 0 10 -191407
-1 -1 0;
#X text 2 68 sin;
#X text 3 81 sqr;
#X text 6 97 ns;
#X text 3 54 nul;
#N canvas 0 22 450 300 (subpatch) 0;
#X array \$0-pitch 8 float 1;
#A 0 0 -4.5 45 43.5 43.5 7.5 3 33;
#X coords 0 48 7 -48 128 64 1;
#X restore 21 134 graph;
#X connect 0 0 2 0;
#X connect 0 0 3 0;
#X connect 1 0 3 1;
#X connect 2 0 4 0;
#X connect 3 0 2 1;
#X connect 4 0 39 0;
#X connect 5 0 40 0;
#X connect 6 0 5 0;
#X connect 7 0 5 1;
#X connect 8 0 7 0;
#X connect 9 0 11 0;
#X connect 9 0 0 0;
#X connect 10 0 15 0;
#X connect 11 0 12 0;
#X connect 11 0 14 0;
#X connect 12 0 10 1;
#X connect 13 0 10 0;
#X connect 14 0 13 0;
#X connect 15 0 38 0;
#X connect 16 0 8 0;
#X connect 17 0 18 0;
#X connect 18 0 51 0;
#X connect 19 0 20 0;
#X connect 19 0 37 0;
#X connect 19 0 55 0;
#X connect 20 0 21 0;
#X connect 21 0 19 1;
#X connect 21 0 23 0;
#X connect 22 0 29 0;
#X connect 23 0 22 0;
#X connect 24 0 19 0;
#X connect 25 0 24 0;
#X connect 25 0 31 0;
#X connect 25 0 72 0;
#X connect 29 0 19 0;
#X connect 31 0 29 0;
#X connect 32 0 34 0;
#X connect 33 0 32 1;
#X connect 34 0 16 0;
#X connect 34 0 9 0;
#X connect 37 0 32 0;
#X connect 41 0 49 0;
#X connect 41 1 44 0;
#X connect 41 2 43 0;
#X connect 41 3 42 0;
#X connect 42 0 45 0;
#X connect 43 0 47 0;
#X connect 44 0 46 0;
#X connect 45 0 52 0;
#X connect 46 0 52 0;
#X connect 47 0 52 0;
#X connect 49 0 50 0;
#X connect 50 0 52 0;
#X connect 51 0 66 0;
#X connect 52 0 17 0;
#X connect 53 0 1 0;
#X connect 55 0 41 0;
#X connect 65 0 33 0;
#X connect 65 0 25 0;
#X connect 65 1 67 0;
#X connect 66 0 75 0;
#X connect 67 0 68 0;
#X connect 68 0 69 0;
#X connect 69 0 66 1;
#X connect 70 0 69 1;
#X connect 72 0 17 1;
#X connect 73 0 74 0;
#X connect 74 0 70 0;
#X connect 76 0 65 0;
#X connect 77 0 65 1;
#X connect 78 0 72 1;
#X connect 79 0 72 2;
#X connect 80 0 72 3;
#X coords 0 1 100 -1 160 200 1 0 0;
#X restore -13 86 graph;
#X obj 139 8 knob 25 25 0 127 0 0 empty empty empty 0 -8 32 8 -1 -260097
-260097 0 1;
#X obj 101 8 knob 25 25 0 127 0 0 empty empty empty 0 -8 32 8 -1 -260097
-260097 0 1;
#X obj 62 8 knob 25 25 0 127 0 0 empty empty empty 0 -8 32 8 -1 -260097
-260097 0 1;
#N canvas 0 22 450 300 (subpatch) 0;
#X obj -30 22 spigot;
#X obj 2 3 tgl 15 0 empty empty empty 17 7 0 10 -262144 -1 -1 0 1;
#X obj -58 0 inlet;
#X obj -54 54 outlet;
#X connect 0 0 3 0;
#X connect 1 0 0 1;
#X connect 2 0 0 0;
#X coords 0 1 100 -1 20 20 1 0 0;
#X restore 25 -15 graph;
#N canvas 0 22 450 300 (subpatch) 0;
#X obj -30 22 spigot;
#X obj 2 3 tgl 15 0 empty empty empty 17 7 0 10 -262144 -1 -1 0 1;
#X obj -58 0 inlet;
#X obj -54 54 outlet;
#X connect 0 0 3 0;
#X connect 1 0 0 1;
#X connect 2 0 0 0;
#X coords 0 1 100 -1 20 20 1 0 0;
#X restore 62 -15 graph;
#N canvas 0 22 450 300 (subpatch) 0;
#X obj -30 22 spigot;
#X obj 2 3 tgl 15 0 empty empty empty 17 7 0 10 -262144 -1 -1 0 1;
#X obj -58 0 inlet;
#X obj -54 54 outlet;
#X connect 0 0 3 0;
#X connect 1 0 0 1;
#X connect 2 0 0 0;
#X coords 0 1 100 -1 20 20 1 0 0;
#X restore 101 -15 graph;
#N canvas 0 22 450 300 (subpatch) 0;
#X obj -30 22 spigot;
#X obj 2 3 tgl 15 0 empty empty empty 17 7 0 10 -262144 -1 -1 0 1;
#X obj -58 0 inlet;
#X obj -54 54 outlet;
#X connect 0 0 3 0;
#X connect 1 0 0 1;
#X connect 2 0 0 0;
#X coords 0 1 100 -1 20 20 1 0 0;
#X restore 139 -15 graph;
#N canvas 0 22 450 300 (subpatch) 0;
#X obj -30 22 spigot;
#X obj 2 3 tgl 15 0 empty empty empty 17 7 0 10 -262144 -1 -1 0 1;
#X obj -58 0 inlet;
#X obj -54 54 outlet;
#X connect 0 0 3 0;
#X connect 1 0 0 1;
#X connect 2 0 0 0;
#X coords 0 1 100 -1 20 20 1 0 0;
#X restore -75 50 graph;
#N canvas 0 22 450 300 (subpatch) 0;
#X obj -30 22 spigot;
#X obj 2 3 tgl 15 0 empty empty empty 17 7 0 10 -262144 -1 -1 0 1;
#X obj -58 0 inlet;
#X obj -54 54 outlet;
#X connect 0 0 3 0;
#X connect 1 0 0 1;
#X connect 2 0 0 0;
#X coords 0 1 100 -1 20 20 1 0 0;
#X restore -55 50 graph;
#N canvas 0 22 450 300 (subpatch) 0;
#X obj -30 22 spigot;
#X obj 2 3 tgl 15 0 empty empty empty 17 7 0 10 -262144 -1 -1 0 1;
#X obj -58 0 inlet;
#X obj -54 54 outlet;
#X connect 0 0 3 0;
#X connect 1 0 0 1;
#X connect 2 0 0 0;
#X coords 0 1 100 -1 20 20 1 0 0;
#X restore -13 -16 graph;
#X connect 8 0 39 0;
#X connect 9 0 33 0;
#X connect 10 0 16 0;
#X connect 11 0 15 0;
#X connect 12 0 18 0;
#X connect 13 0 29 3;
#X connect 14 0 29 4;
#X connect 15 0 13 0;
#X connect 16 0 17 0;
#X connect 17 0 29 2;
#X connect 18 0 14 0;
#X connect 19 0 34 0;
#X connect 20 0 35 0;
#X connect 21 0 36 0;
#X connect 25 0 37 0;
#X connect 25 1 38 0;
#X connect 26 0 29 0;
#X connect 27 0 29 1;
#X connect 29 0 28 0;
#X connect 30 0 12 0;
#X connect 31 0 11 0;
#X connect 32 0 10 0;
#X connect 33 0 27 0;
#X connect 34 0 32 0;
#X connect 35 0 31 0;
#X connect 36 0 30 0;
#X connect 37 0 26 0;
#X connect 38 0 27 0;
#X connect 39 0 26 0;
