#N canvas 0 22 428 569 10;
#N canvas 0 22 1024 720 (subpatch) 0;
#X obj 341 -324 stripnote;
#N canvas 0 22 560 393 scale 0;
#X obj 211 128 inlet;
#X obj 208 350 outlet;
#X obj 212 171 t f f;
#X obj 208 324 int;
#X obj 210 149 int;
#X obj 206 277 + 1;
#X obj 206 206 * 3;
#X obj 206 234 / 2;
#X obj 109 127 vsl 12 64 0 64 0 1 \$0-N1 \$0-N1-r N 0 -8 1 8 -225280
-1 -1 2300 1;
#X obj 163 127 vsl 12 64 12 96 0 1 \$0-C1 \$0-C1-r C 0 -8 1 8 -257472
-1 -1 2800 1;
#X obj 136 127 vsl 12 64 1 64 0 1 \$0-D1 \$0-D1-r D 0 -8 1 8 -228992
-1 -1 3500 1;
#X connect 0 0 4 0;
#X connect 2 0 6 0;
#X connect 3 0 1 0;
#X connect 4 0 2 0;
#X connect 5 0 3 0;
#X connect 6 0 7 0;
#X connect 7 0 5 0;
#X connect 8 0 6 1;
#X connect 9 0 5 1;
#X connect 10 0 7 1;
#X coords 0 -1 1 1 85 100 1 100 100;
#X restore 2 3 pd scale;
#N canvas 0 22 450 300 scale 0;
#X obj 211 128 inlet;
#X obj 208 350 outlet;
#X obj 212 171 t f f;
#X obj 208 324 int;
#X obj 210 149 int;
#X obj 206 277 + 1;
#X obj 206 206 * 3;
#X obj 206 234 / 2;
#X obj 109 127 vsl 12 64 0 64 0 1 \$0-N2 \$0-N2-r N 0 -8 1 8 -225280
-1 -1 3100 1;
#X obj 163 127 vsl 12 64 24 96 0 1 \$0-C2 \$0-C2-r C 0 -8 1 8 -257472
-1 -1 2900 1;
#X obj 136 127 vsl 12 64 1 64 0 1 \$0-D2 \$0-D2-r D 0 -8 1 8 -228992
-1 -1 6300 1;
#X connect 0 0 4 0;
#X connect 2 0 6 0;
#X connect 3 0 1 0;
#X connect 4 0 2 0;
#X connect 5 0 3 0;
#X connect 6 0 7 0;
#X connect 7 0 5 0;
#X connect 8 0 6 1;
#X connect 9 0 5 1;
#X connect 10 0 7 1;
#X coords 0 -1 1 1 85 100 1 100 100;
#X restore 87 3 pd scale;
#N canvas 0 22 502 444 scale 0;
#X obj 211 128 inlet;
#X obj 208 350 outlet;
#X obj 212 171 t f f;
#X obj 208 324 int;
#X obj 210 149 int;
#X obj 206 277 + 1;
#X obj 206 206 * 3;
#X obj 206 234 / 2;
#X obj 109 127 vsl 12 64 0 64 0 1 \$0-N3 \$0-N3-r N 0 -8 1 8 -225280
-1 -1 3800 1;
#X obj 163 127 vsl 12 64 24 96 0 1 \$0-C3 \$0-C3-r C 0 -8 1 8 -257472
-1 -1 200 1;
#X obj 136 127 vsl 12 64 1 64 0 1 \$0-D3 \$0-D3-r D 0 -8 1 8 -228992
-1 -1 4300 1;
#X connect 0 0 4 0;
#X connect 2 0 6 0;
#X connect 3 0 1 0;
#X connect 4 0 2 0;
#X connect 5 0 3 0;
#X connect 6 0 7 0;
#X connect 7 0 5 0;
#X connect 8 0 6 1;
#X connect 9 0 5 1;
#X connect 10 0 7 1;
#X coords 0 -1 1 1 85 100 1 100 100;
#X restore 173 3 pd scale;
#N canvas 0 22 1253 916 phasors 0;
#X obj -248 67 random 100;
#X obj -248 5 loadbang;
#X msg -248 25 1;
#X obj -248 46 metro 1000;
#X msg -248 87 \$1 1000;
#X obj -90 397 *~;
#X obj -57 397 *~;
#X obj -98 278 *~ 0.7;
#X obj -98 722 outlet~;
#X obj -43 721 outlet~;
#X obj -97 255 vcf~ 500 3;
#X obj 1 256 vcf~ 600 4;
#X obj -248 109 line~;
#X obj -229 220 /~ 100;
#X obj -183 220 /~ 100;
#X obj -229 242 +~ 0.1;
#X obj -183 241 +~ 0.1;
#X obj -224 134 -~;
#X obj -205 109 sig~ 100;
#X obj 71 325 +~ 30;
#X obj 72 303 *~ 5;
#X obj 73 282 osc~ 0.1;
#X obj -44 426 *~ 0.8;
#X obj -98 428 *~ 0.8;
#X obj -228 157 *~ 7;
#X obj -187 156 *~ 7;
#X obj -227 180 +~ 300;
#X obj -186 179 +~ 400;
#X msg -218 25 9;
#X obj -149 44 phasor~ 300;
#X obj -148 20 mtof;
#X obj -125 144 *~ 0.1;
#X obj -63 43 phasor~ 300;
#X obj -62 19 mtof;
#X obj 24 43 phasor~ 300;
#X obj 25 19 mtof;
#X obj -33 102 *~;
#X obj -63 100 *~;
#X obj -98 100 *~;
#X obj -73 144 *~ 0.9;
#X obj 1 142 *~ 0.9;
#X obj 53 143 *~ 0.1;
#X obj -97 193 *~ 0.7;
#X obj 0 194 *~ 0.7;
#X obj -72 124 *~ 0.6;
#X obj -146 -69 inlet;
#X obj -96 -69 inlet;
#X obj -45 -70 inlet;
#X obj 209 128 vsl 12 64 0.02 2 1 1 \$0-lfo \$0-lfo-r lfo 0 -8 1 8
-261681 -1 -1 5700 1;
#X obj 235 128 vsl 12 64 0.02 9 1 1 \$0-amt \$0-amt-r amt 0 -8 1 8
-261688 -1 -1 4800 1;
#X obj 262 128 vsl 12 64 10 80 1 1 \$0-del \$0-del-r del 0 -8 1 8 -225271
-1 -1 2400 1;
#X obj 6 505 +~;
#X obj 48 505 +~;
#X obj -9 555 +~;
#X obj 95 556 +~;
#X obj 33 555 -~;
#X obj 135 555 -~;
#X obj -10 611 +~;
#X obj 34 612 +~;
#X obj 78 613 -~;
#X obj 117 613 -~;
#X obj -9 640 *~ 0.4;
#X obj 35 666 *~ 0.37;
#X obj 76 695 *~ 0.333;
#X obj 115 723 *~ 0.3;
#X obj 114 747 delwrite~ \$0-D 1000;
#X obj 75 770 delwrite~ \$0-C 1000;
#X obj 36 793 delwrite~ \$0-B 1000;
#X obj -9 815 delwrite~ \$0-A 1000;
#X obj 60 451 delread~ \$0-A 101;
#X obj 90 471 delread~ \$0-B 143;
#X obj 120 491 delread~ \$0-C 165;
#X obj 150 511 delread~ \$0-D 177;
#X obj -89 695 *~;
#X obj -33 692 *~;
#X obj 292 128 vsl 12 64 0.01 1 1 1 \$0-verb \$0-verb-r verb 0 -8 1
8 -225280 -1 -1 4500 1;
#X obj -89 302 delwrite~ \$0-flange 1000;
#X obj 72 348 vd~ \$0-flange 100;
#X obj 144 128 vsl 12 64 0.01 1 1 1 \$0-L1 \$0-L1-r L1 0 -8 1 8 -164609
-1 -1 4800 1;
#X obj 163 128 vsl 12 64 0.01 1 1 1 \$0-L2 \$0-L2-r L2 0 -8 1 8 -205575
-1 -1 4800 1;
#X obj 185 128 vsl 12 64 0.01 1 1 1 \$0-L3 \$0-L3-r L3 0 -8 1 8 -201109
-1 -1 5900 1;
#X connect 0 0 4 0;
#X connect 1 0 2 0;
#X connect 1 0 28 0;
#X connect 2 0 3 0;
#X connect 3 0 0 0;
#X connect 4 0 12 0;
#X connect 5 0 23 0;
#X connect 6 0 22 0;
#X connect 7 0 23 0;
#X connect 7 0 76 0;
#X connect 10 0 7 0;
#X connect 11 0 5 0;
#X connect 11 0 6 0;
#X connect 12 0 13 0;
#X connect 12 0 17 1;
#X connect 12 0 24 0;
#X connect 13 0 15 0;
#X connect 14 0 16 0;
#X connect 15 0 5 1;
#X connect 16 0 6 1;
#X connect 17 0 14 0;
#X connect 17 0 25 0;
#X connect 18 0 17 0;
#X connect 19 0 77 0;
#X connect 20 0 19 0;
#X connect 21 0 20 0;
#X connect 22 0 9 0;
#X connect 22 0 52 0;
#X connect 23 0 8 0;
#X connect 23 0 51 0;
#X connect 24 0 26 0;
#X connect 25 0 27 0;
#X connect 26 0 10 1;
#X connect 27 0 11 1;
#X connect 28 0 10 2;
#X connect 28 0 11 2;
#X connect 29 0 38 0;
#X connect 30 0 29 0;
#X connect 31 0 42 0;
#X connect 32 0 37 0;
#X connect 33 0 32 0;
#X connect 34 0 36 0;
#X connect 35 0 34 0;
#X connect 36 0 40 0;
#X connect 36 0 41 0;
#X connect 37 0 44 0;
#X connect 38 0 31 0;
#X connect 38 0 39 0;
#X connect 39 0 43 0;
#X connect 40 0 42 0;
#X connect 41 0 43 0;
#X connect 42 0 10 0;
#X connect 43 0 11 0;
#X connect 44 0 42 0;
#X connect 44 0 43 0;
#X connect 45 0 30 0;
#X connect 46 0 33 0;
#X connect 47 0 35 0;
#X connect 48 0 21 0;
#X connect 49 0 20 1;
#X connect 50 0 19 1;
#X connect 51 0 53 0;
#X connect 51 0 55 0;
#X connect 51 0 73 0;
#X connect 52 0 53 1;
#X connect 52 0 55 1;
#X connect 52 0 74 0;
#X connect 53 0 57 0;
#X connect 53 0 59 0;
#X connect 54 0 59 1;
#X connect 54 0 57 1;
#X connect 55 0 58 0;
#X connect 55 0 60 0;
#X connect 56 0 58 1;
#X connect 56 0 60 1;
#X connect 57 0 61 0;
#X connect 58 0 62 0;
#X connect 59 0 63 0;
#X connect 60 0 64 0;
#X connect 61 0 68 0;
#X connect 62 0 67 0;
#X connect 63 0 66 0;
#X connect 64 0 65 0;
#X connect 69 0 51 1;
#X connect 70 0 52 1;
#X connect 71 0 56 0;
#X connect 71 0 54 0;
#X connect 72 0 56 1;
#X connect 72 0 54 1;
#X connect 73 0 8 0;
#X connect 74 0 9 0;
#X connect 75 0 74 1;
#X connect 75 0 73 1;
#X connect 77 0 22 0;
#X connect 78 0 38 1;
#X connect 79 0 37 1;
#X connect 80 0 36 1;
#X coords 0 -1 1 1 255 100 1 100 100;
#X restore 2 104 pd phasors;
#X floatatom 347 -235 5 0 0 0 - - -;
#X obj 345 -289 mtof;
#X obj 375 -267 * 2;
#X obj 419 -261 * 5;
#X floatatom 382 -234 5 0 0 0 - - -;
#X floatatom 419 -234 5 0 0 0 - - -;
#X obj 434 206 *~;
#X obj 434 240 *~;
#X obj 459 182 / 100;
#X obj 461 221 line;
#X floatatom 506 199 5 0 0 0 - - -;
#X text 544 198 time offset to adjust volume to velocity;
#N canvas 0 22 450 300 eald~ 0;
#X msg 394 133 bang;
#X floatatom 504 74 5 0 0 0 - - -;
#X floatatom 555 73 5 0 0 0 - - -;
#X floatatom 605 73 5 0 0 0 - - -;
#X text 471 25 "ALD" enveloppe;
#X obj 504 49 inlet;
#X obj 555 48 inlet;
#X obj 605 48 inlet;
#X obj 408 52 inlet;
#X obj 379 432 outlet~;
#X text 633 133 ENVELOPE SECTION;
#X obj 379 346 vline~;
#X msg 352 245 1;
#X obj 352 265 pack f f;
#X obj 352 286 unpack f f;
#X msg 456 246 0;
#X obj 456 267 pack f f f;
#X obj 456 288 unpack f f f;
#X obj 456 225 delay 5;
#X text 102 283 Attack : sends a 1 to get to in A msec;
#X text 529 224 wait the end of the attack;
#X text 538 254 Length+Decay : 0 to get to in D msec \, after L msec
;
#X text 493 74 A;
#X text 544 74 L;
#X text 594 74 D;
#X connect 0 0 12 0;
#X connect 0 0 18 0;
#X connect 1 0 13 1;
#X connect 1 0 18 1;
#X connect 2 0 16 2;
#X connect 3 0 16 1;
#X connect 5 0 1 0;
#X connect 6 0 2 0;
#X connect 7 0 3 0;
#X connect 8 0 0 0;
#X connect 11 0 9 0;
#X connect 12 0 13 0;
#X connect 13 0 14 0;
#X connect 14 0 11 0;
#X connect 14 1 11 1;
#X connect 15 0 16 0;
#X connect 16 0 17 0;
#X connect 17 0 11 0;
#X connect 17 1 11 1;
#X connect 17 2 11 2;
#X connect 18 0 15 0;
#X restore 462 56 pd eald~;
#X obj 549 161 loadbang;
#X msg 549 182 50;
#X obj 460 202 + 0.05;
#X obj 434 258 outlet~;
#X obj 310 -384 inlet;
#X obj 375 -384 inlet;
#X obj 448 -361 inlet;
#X obj 513 -361 inlet;
#X obj 384 -199 inlet;
#X obj 457 -176 inlet;
#X obj 522 -176 inlet;
#X connect 0 0 6 0;
#X connect 0 0 17 0;
#X connect 0 1 13 0;
#X connect 1 0 4 0;
#X connect 2 0 4 1;
#X connect 3 0 4 2;
#X connect 4 0 11 0;
#X connect 4 1 11 0;
#X connect 5 0 1 0;
#X connect 6 0 5 0;
#X connect 6 0 7 0;
#X connect 6 0 8 0;
#X connect 7 0 9 0;
#X connect 8 0 10 0;
#X connect 9 0 2 0;
#X connect 10 0 3 0;
#X connect 11 0 12 0;
#X connect 12 0 21 0;
#X connect 13 0 20 0;
#X connect 14 0 12 1;
#X connect 15 0 14 1;
#X connect 17 0 11 1;
#X connect 18 0 19 0;
#X connect 19 0 15 0;
#X connect 20 0 14 0;
#X connect 22 0 0 0;
#X connect 23 0 0 1;
#X connect 24 0 7 1;
#X connect 25 0 8 1;
#X connect 26 0 17 1;
#X connect 27 0 17 2;
#X connect 28 0 17 3;
#X coords 0 1 100 -1 260 205 1 0 0;
#X restore 4 -177 graph;
#X text 138 -382 Factor freq phasor 2;
#X text 182 -361 Factor freq phasor 3;
#X text 223 -336 Attack;
#X text 264 -315 Length;
#X text 311 -294 Decay;
#X obj -51 -234 notein;
#X floatatom 4 -193 5 0 0 0 - - -;
#X floatatom 36 -193 5 0 0 0 - - -;
#X floatatom 88 -226 5 0 0 0 - - -;
#X floatatom 130 -226 5 0 0 0 - - -;
#X floatatom 172 -226 5 0 0 0 - - -;
#X floatatom 214 -226 5 0 0 0 - - -;
#X floatatom 257 -226 5 0 0 0 - - -;
#X floatatom 214 -193 5 0 0 0 - - -;
#X floatatom 257 -193 5 0 0 0 - - -;
#X obj 214 -210 * 10;
#X obj 172 -210 * 1;
#X floatatom 172 -193 5 0 0 0 - - -;
#X obj 257 -210 * 10;
#X floatatom 88 -193 5 0 0 0 - - -;
#X floatatom 130 -193 5 0 0 0 - - -;
#N canvas 0 22 450 300 (subpatch) 0;
#X obj -30 22 spigot;
#X obj 2 3 tgl 15 0 empty empty empty 17 7 0 10 -262144 -1 -1 0 1;
#X obj -58 0 inlet;
#X obj -54 54 outlet;
#X connect 0 0 3 0;
#X connect 1 0 0 1;
#X connect 2 0 0 0;
#X coords 0 1 100 -1 20 20 1 0 0;
#X restore 4 -235 graph;
#N canvas 0 22 450 300 (subpatch) 0;
#X obj -30 22 spigot;
#X obj 2 3 tgl 15 0 empty empty empty 17 7 0 10 -262144 -1 -1 0 1;
#X obj -58 0 inlet;
#X obj -54 54 outlet;
#X connect 0 0 3 0;
#X connect 1 0 0 1;
#X connect 2 0 0 0;
#X coords 0 1 100 -1 20 20 1 0 0;
#X restore 36 -235 graph;
#N canvas 0 22 450 300 (subpatch) 0;
#X obj -30 22 spigot;
#X obj 2 3 tgl 15 0 empty empty empty 17 7 0 10 -262144 -1 -1 0 1;
#X obj -58 0 inlet;
#X obj -54 54 outlet;
#X connect 0 0 3 0;
#X connect 1 0 0 1;
#X connect 2 0 0 0;
#X coords 0 1 100 -1 20 20 1 0 0;
#X restore -51 -213 graph;
#N canvas 0 22 450 300 (subpatch) 0;
#X obj -30 22 spigot;
#X obj 2 3 tgl 15 0 empty empty empty 17 7 0 10 -262144 -1 -1 0 1;
#X obj -58 0 inlet;
#X obj -54 54 outlet;
#X connect 0 0 3 0;
#X connect 1 0 0 1;
#X connect 2 0 0 0;
#X coords 0 1 100 -1 20 20 1 0 0;
#X restore -31 -213 graph;
#X obj 257 -255 knob 25 25 0 127 0 0 empty empty empty 0 -8 160 8 -1
-260097 -260097 0 1;
#X obj 214 -255 knob 25 25 0 127 0 0 empty empty empty 0 -8 160 8 -1
-260097 -260097 0 1;
#X obj 172 -255 knob 25 25 0 127 0 0 empty empty empty 0 -8 160 8 -1
-260097 -260097 0 1;
#X obj 130 -255 knob 25 25 0 127 0 0 empty empty empty 0 -8 160 8 -1
-260097 -260097 0 1;
#X obj 88 -255 knob 25 25 0 127 0 0 empty empty empty 0 -8 160 8 -1
-260097 -260097 0 1;
#N canvas 0 22 450 300 (subpatch) 0;
#X obj -30 22 spigot;
#X obj 2 3 tgl 15 0 empty empty empty 17 7 0 10 -262144 -1 -1 0 1;
#X obj -58 0 inlet;
#X obj -54 54 outlet;
#X connect 0 0 3 0;
#X connect 1 0 0 1;
#X connect 2 0 0 0;
#X coords 0 1 100 -1 20 20 1 0 0;
#X restore 88 -278 graph;
#N canvas 0 22 450 300 (subpatch) 0;
#X obj -30 22 spigot;
#X obj 2 3 tgl 15 0 empty empty empty 17 7 0 10 -262144 -1 -1 0 1;
#X obj -58 0 inlet;
#X obj -54 54 outlet;
#X connect 0 0 3 0;
#X connect 1 0 0 1;
#X connect 2 0 0 0;
#X coords 0 1 100 -1 20 20 1 0 0;
#X restore 130 -278 graph;
#N canvas 0 22 450 300 (subpatch) 0;
#X obj -30 22 spigot;
#X obj 2 3 tgl 15 0 empty empty empty 17 7 0 10 -262144 -1 -1 0 1;
#X obj -58 0 inlet;
#X obj -54 54 outlet;
#X connect 0 0 3 0;
#X connect 1 0 0 1;
#X connect 2 0 0 0;
#X coords 0 1 100 -1 20 20 1 0 0;
#X restore 257 -278 graph;
#N canvas 0 22 450 300 (subpatch) 0;
#X obj -30 22 spigot;
#X obj 2 3 tgl 15 0 empty empty empty 17 7 0 10 -262144 -1 -1 0 1;
#X obj -58 0 inlet;
#X obj -54 54 outlet;
#X connect 0 0 3 0;
#X connect 1 0 0 1;
#X connect 2 0 0 0;
#X coords 0 1 100 -1 20 20 1 0 0;
#X restore 172 -278 graph;
#N canvas 0 22 450 300 (subpatch) 0;
#X obj -30 22 spigot;
#X obj 2 3 tgl 15 0 empty empty empty 17 7 0 10 -262144 -1 -1 0 1;
#X obj -58 0 inlet;
#X obj -54 54 outlet;
#X connect 0 0 3 0;
#X connect 1 0 0 1;
#X connect 2 0 0 0;
#X coords 0 1 100 -1 20 20 1 0 0;
#X restore 214 -278 graph;
#X obj 257 -295 ctlin 8;
#X obj 214 -317 ctlin 7;
#X obj 172 -337 ctlin 6;
#X obj 130 -363 ctlin 2;
#X obj 88 -384 ctlin 1;
#N canvas 0 22 450 300 (subpatch) 0;
#X obj 59 155 inlet;
#X obj 3 89 inlet~;
#X obj 58 182 change;
#X msg 60 246 set \$1;
#X obj 60 227 tosymbol;
#X obj 59 204 sprintf Bus%d;
#X obj 3 282 throw~ Bus0;
#X obj 2 3 popup 124 25 #ffffff popup Bus0 Bus1 Bus2 Bus3 Bus4 Bus5
Bus6 Bus7 Bus8 Bus9 Bus10 Bus11 Bus12 Bus13 Bus14 Bus15 Bus16;
#X obj 1 32 route bang;
#X obj 154 202 *~;
#X obj 141 7 tgl 15 0 empty empty Dac 19 7 0 10 -262144 -1 -1 0 1;
#X obj 155 238 dac~;
#X obj 1 -41 loadbang;
#X text 59 -43 Bus0 mutes;
#X msg 1 -23 options Bus0 Bus1 Bus2 Bus3 Bus4 Bus5 Bus6 Bus7 Bus8 Bus9
Bus10 Bus11 Bus12 Bus13 Bus14 Bus15 Bus16;
#X connect 0 0 2 0;
#X connect 1 0 6 0;
#X connect 1 0 9 0;
#X connect 2 0 5 0;
#X connect 3 0 6 0;
#X connect 4 0 3 0;
#X connect 5 0 4 0;
#X connect 7 0 8 0;
#X connect 8 1 2 0;
#X connect 9 0 11 0;
#X connect 9 0 11 1;
#X connect 10 0 9 1;
#X connect 12 0 14 0;
#X connect 14 0 7 0;
#X coords 0 1 100 -1 180 30 1 0 0;
#X restore 4 27 graph;
#X obj 88 -210 / 20;
#X obj 130 -210 / 20;
#X obj 4 -424 r notePhasors;
#X obj 36 -404 r velPhasors;
#X connect 0 0 41 0;
#X connect 6 0 24 0;
#X connect 6 1 25 0;
#X connect 7 0 0 0;
#X connect 8 0 0 1;
#X connect 9 0 42 0;
#X connect 10 0 43 0;
#X connect 11 0 17 0;
#X connect 12 0 16 0;
#X connect 13 0 19 0;
#X connect 14 0 0 5;
#X connect 15 0 0 6;
#X connect 16 0 14 0;
#X connect 17 0 18 0;
#X connect 18 0 0 4;
#X connect 19 0 15 0;
#X connect 20 0 0 2;
#X connect 21 0 0 3;
#X connect 22 0 7 0;
#X connect 23 0 8 0;
#X connect 24 0 7 0;
#X connect 25 0 8 0;
#X connect 26 0 13 0;
#X connect 27 0 12 0;
#X connect 28 0 11 0;
#X connect 29 0 10 0;
#X connect 30 0 9 0;
#X connect 31 0 30 0;
#X connect 32 0 29 0;
#X connect 33 0 26 0;
#X connect 34 0 28 0;
#X connect 35 0 27 0;
#X connect 36 0 33 0;
#X connect 37 0 35 0;
#X connect 38 0 34 0;
#X connect 39 0 32 0;
#X connect 40 0 31 0;
#X connect 42 0 20 0;
#X connect 43 0 21 0;
#X connect 44 0 22 0;
#X connect 45 0 23 0;
