#N canvas 265 177 339 313 10;
#N canvas 0 22 614 719 noisefilter 0;
#X obj -206 260 -;
#X obj -225 204 t f f b;
#X obj -184 239 f 0;
#X obj -123 606 noise~;
#X obj -153 703 *~;
#X obj -235 448 line~;
#X obj -225 179 f;
#X obj -64 275 * 5000;
#X obj -225 111 metro 15;
#X obj 106 150 hsl 128 8 150 15 0 1 empty empty rate -2 -6 0 8 -262144
-1 -1 5800 1;
#X obj -205 353 pack f 20;
#X obj -206 283 abs;
#X obj 106 208 hsl 128 8 0 1 0 1 empty empty resonance -2 -6 0 8 -262144
-1 -1 6600 1;
#X obj 106 189 hsl 128 8 0 -10000 0 1 empty empty filter_env -2 -6
0 8 -262144 -1 -1 7700 1;
#X obj -205 305 *;
#X obj -205 329 clip 0 1;
#X obj 106 123 hsl 128 15 0 1 0 0 empty empty move_it -2 -6 0 8 -262144
-1 -1 6350 1;
#X obj 106 169 hsl 128 8 1 3 0 1 empty empty mod_adjust -2 -6 0 8 -262144
-1 -1 5900 1;
#X obj -69 311 + 300;
#N canvas 190 170 920 635 simple_reson_lp1 0;
#X obj -19 398 cpole~;
#X obj 31 440 czero~;
#X obj 27 494 outlet~;
#X obj -173 141 inlet~;
#X obj -53 364 *~;
#X obj 31 118 /~ 2;
#X obj 32 238 cos~;
#X obj 95 182 -~ 0.25;
#X obj 96 203 cos~;
#X obj 96 256 *~;
#X obj 225 183 clip~ 0.05 0.99;
#X obj 236 146 inlet~;
#X obj -60 305 *~;
#X obj -81 266 +~ 2;
#X obj -84 237 *~ 0.5;
#X obj -27 279 -~;
#X obj 32 90 clip~ 0 1;
#X obj 36 34 /~ 11025;
#X obj 34 5 inlet~;
#X text -123 141 audio in;
#X text 81 5 cutoff;
#X text 287 143 resonance;
#X text 55 368 zero at nyquist;
#X text 99 35 1/4 samplerate;
#X text -128 198 attenuation factor;
#X text -128 214 (1-x)*(1/2*angle+2);
#X text 70 118 pi/2 for audio cos;
#X text -256 396 pole: cos(angle) \, sin(angle)+res;
#X text 39 220 cosine;
#X text 147 191 sine;
#X text -310 363 multiply input by attenuation factor;
#X text -404 106 4/2008 martin brinkmann;
#X text -405 8 slightly crude (especially the attenuatiun factor) lowpass
filter design \, made without knowing too much of the math involved.
frequency is not very exact \, but at least it sounds like a reson
filter :-);
#X text -404 63 a pole is moved along the unit-circle on a kind of
rugby-egg-shaped path \, while a zero sits at -1 \, 0 (nyquist frequency)
\, which makes a resonant lowpass filter.;
#X text 100 54 cutoff (or angle on the unit circle \, usually 0..pi
(0..nyquist) \, but here 0..0.5 because of the cos~ audio object);
#X obj -32 246 sig~ 1;
#X obj 45 393 sig~ -1;
#X obj 104 393 sig~ 0;
#X obj -36 334 *~ 0.5;
#X connect 0 0 1 0;
#X connect 0 1 1 1;
#X connect 1 0 2 0;
#X connect 3 0 4 0;
#X connect 4 0 0 0;
#X connect 5 0 7 0;
#X connect 5 0 6 0;
#X connect 6 0 0 2;
#X connect 6 0 15 1;
#X connect 7 0 8 0;
#X connect 8 0 9 0;
#X connect 9 0 0 3;
#X connect 10 0 9 1;
#X connect 11 0 10 0;
#X connect 12 0 38 0;
#X connect 13 0 12 0;
#X connect 14 0 13 0;
#X connect 15 0 12 1;
#X connect 16 0 5 0;
#X connect 16 0 14 0;
#X connect 17 0 16 0;
#X connect 18 0 17 0;
#X connect 35 0 15 0;
#X connect 36 0 1 2;
#X connect 37 0 1 3;
#X connect 38 0 4 1;
#X restore -99 641 pd simple_reson_lp1;
#X obj -131 680 clip~ -1 1;
#X obj -143 423 *~;
#X obj -119 466 +~;
#X obj -164 379 line~;
#X obj -73 529 clip~ 40 20000;
#X obj -156 740 outlet~;
#X msg -186 75 bang;
#X obj 25 51 inlet;
#X connect 0 0 11 0;
#X connect 1 0 2 1;
#X connect 1 1 0 0;
#X connect 1 2 2 0;
#X connect 2 0 0 1;
#X connect 3 0 19 0;
#X connect 4 0 25 0;
#X connect 5 0 4 0;
#X connect 6 0 1 0;
#X connect 7 0 18 0;
#X connect 8 0 6 0;
#X connect 9 0 8 1;
#X connect 9 0 26 0;
#X connect 10 0 5 0;
#X connect 10 0 23 0;
#X connect 11 0 14 0;
#X connect 12 0 19 2;
#X connect 13 0 21 1;
#X connect 14 0 15 0;
#X connect 15 0 10 0;
#X connect 16 0 6 1;
#X connect 16 0 7 0;
#X connect 17 0 14 1;
#X connect 18 0 22 1;
#X connect 19 0 20 0;
#X connect 20 0 4 1;
#X connect 21 0 22 0;
#X connect 22 0 24 0;
#X connect 23 0 21 0;
#X connect 24 0 19 1;
#X connect 26 0 8 0;
#X connect 27 0 16 0;
#X coords 0 -1 1 1 140 120 1 100 100;
#X restore 9 4 pd noisefilter;
#N canvas 0 22 450 300 (subpatch) 0;
#X obj 59 155 inlet;
#X obj 3 89 inlet~;
#X obj 58 182 change;
#X msg 60 246 set \$1;
#X obj 60 227 tosymbol;
#X obj 59 204 sprintf Bus%d;
#X obj 3 282 throw~ Bus0;
#X obj 2 3 popup 124 25 #ffffff popup Bus0 Bus1 Bus2 Bus3 Bus4 Bus5
Bus6 Bus7 Bus8 Bus9 Bus10 Bus11 Bus12 Bus13 Bus14 Bus15 Bus16;
#X obj 1 32 route bang;
#X obj 154 202 *~;
#X obj 141 7 tgl 15 0 empty empty Dac 19 7 0 10 -262144 -1 -1 1 1;
#X obj 155 238 dac~;
#X obj 1 -49 loadbang;
#X text 59 -51 Bus0 mutes;
#X msg 1 -31 options Bus0 Bus1 Bus2 Bus3 Bus4 Bus5 Bus6 Bus7 Bus8 Bus9
Bus10 Bus11 Bus12 Bus13 Bus14 Bus15 Bus16;
#X connect 0 0 2 0;
#X connect 1 0 6 0;
#X connect 1 0 9 0;
#X connect 2 0 5 0;
#X connect 3 0 6 0;
#X connect 4 0 3 0;
#X connect 5 0 4 0;
#X connect 7 0 8 0;
#X connect 8 1 2 0;
#X connect 9 0 11 0;
#X connect 9 0 11 1;
#X connect 10 0 9 1;
#X connect 12 0 14 0;
#X connect 14 0 7 0;
#X coords 0 1 100 -1 180 30 1 0 0;
#X restore 9 127 graph;
#X floatatom 10 -50 5 0 0 0 - - -;
#X floatatom 10 -17 5 0 0 0 - - -;
#X obj 10 -34 / 127;
#X obj 10 -79 knob 25 25 0 127 0 0 empty empty empty 0 -8 32 8 -1 -260097
-260097 1200 1;
#N canvas 0 22 450 300 (subpatch) 0;
#X obj -30 22 spigot;
#X obj 2 3 tgl 15 0 empty empty empty 17 7 0 10 -262144 -1 -1 0 1;
#X obj -58 0 inlet;
#X obj -54 54 outlet;
#X connect 0 0 3 0;
#X connect 1 0 0 1;
#X connect 2 0 0 0;
#X coords 0 1 100 -1 20 20 1 0 0;
#X restore 10 -102 graph;
#X obj 10 -122 ctlin 1;
#X connect 0 0 1 0;
#X connect 2 0 4 0;
#X connect 3 0 0 0;
#X connect 4 0 3 0;
#X connect 5 0 2 0;
#X connect 6 0 5 0;
#X connect 7 0 6 0;
