#N canvas 0 22 562 278 10;
#X obj 65 150 notein;
#X floatatom 126 191 5 0 0 0 - - -;
#X floatatom 168 191 5 0 0 0 - - -;
#X floatatom 211 158 5 0 0 0 - - -;
#X floatatom 254 158 5 0 0 0 - - -;
#X floatatom 297 158 5 0 0 0 - - -;
#X obj 211 51 ctlin 6;
#X obj 254 70 ctlin 7;
#X obj 297 89 ctlin 8;
#X floatatom 254 191 5 0 0 0 - - -;
#X floatatom 297 191 5 0 0 0 - - -;
#X obj 211 174 * 1;
#X floatatom 211 191 5 0 0 0 - - -;
#X obj 297 174 * 10;
#X text 260 52 Attack;
#X text 305 70 Length;
#N canvas 0 22 450 300 (subpatch) 0;
#X obj 59 155 inlet;
#X obj 3 89 inlet~;
#X obj 58 182 change;
#X msg 60 246 set \$1;
#X obj 60 227 tosymbol;
#X obj 59 204 sprintf Bus%d;
#X obj 3 282 throw~ Bus0;
#X obj 2 3 popup 124 25 #ffffff popup Bus0 Bus1 Bus2 Bus3 Bus4 Bus5
Bus6 Bus7 Bus8 Bus9 Bus10 Bus11 Bus12 Bus13 Bus14 Bus15 Bus16;
#X obj 1 32 route bang;
#X obj 154 202 *~;
#X obj 141 7 tgl 15 0 empty empty Dac 19 7 0 10 -262144 -1 -1 1 1;
#X obj 155 238 dac~;
#X obj 4 -53 loadbang;
#X text 62 -55 Bus0 mutes;
#X msg 4 -35 options Bus0 Bus1 Bus2 Bus3 Bus4 Bus5 Bus6 Bus7 Bus8 Bus9
Bus10 Bus11 Bus12 Bus13 Bus14 Bus15 Bus16;
#X connect 0 0 2 0;
#X connect 1 0 6 0;
#X connect 1 0 9 0;
#X connect 2 0 5 0;
#X connect 3 0 6 0;
#X connect 4 0 3 0;
#X connect 5 0 4 0;
#X connect 7 0 8 0;
#X connect 8 1 2 0;
#X connect 9 0 11 0;
#X connect 9 0 11 1;
#X connect 10 0 9 1;
#X connect 12 0 14 0;
#X connect 14 0 7 0;
#X coords 0 1 100 -1 180 30 1 0 0;
#X restore 126 224 graph;
#X text 347 88 Decay;
#X obj 297 129 knob 25 25 0 127 0 0 empty empty empty 0 -8 32 8 -1
-260097 -260097 600 1;
#X obj 254 129 knob 25 25 0 127 0 0 empty empty empty 0 -8 32 8 -1
-260097 -260097 0 1;
#X obj 211 129 knob 25 25 0 127 0 0 empty empty empty 0 -8 32 8 -1
-260097 -260097 0 1;
#N canvas 221 178 803 509 Synth_Pads________________ 0;
#X obj 594 316 bng 15 250 50 0 empty empty empty 17 7 0 10 -262144
-1 -1;
#X obj 673 396 *~;
#X obj 673 430 *~;
#X obj 698 372 / 100;
#X obj 700 411 line;
#X floatatom 745 389 5 0 0 0 - - -;
#X text 783 388 time offset to adjust volume to velocity;
#N canvas 0 22 450 300 eald~ 0;
#X msg 394 133 bang;
#X floatatom 504 74 5 0 0 0 - - -;
#X floatatom 555 73 5 0 0 0 - - -;
#X floatatom 605 73 5 0 0 0 - - -;
#X text 471 25 "ALD" enveloppe;
#X obj 504 49 inlet;
#X obj 555 48 inlet;
#X obj 605 48 inlet;
#X obj 408 52 inlet;
#X obj 379 432 outlet~;
#X text 633 133 ENVELOPE SECTION;
#X obj 379 346 vline~;
#X msg 352 245 1;
#X obj 352 265 pack f f;
#X obj 352 286 unpack f f;
#X msg 456 246 0;
#X obj 456 267 pack f f f;
#X obj 456 288 unpack f f f;
#X obj 456 225 delay 5;
#X text 102 283 Attack : sends a 1 to get to in A msec;
#X text 529 224 wait the end of the attack;
#X text 538 254 Length+Decay : 0 to get to in D msec \, after L msec
;
#X text 493 74 A;
#X text 544 74 L;
#X text 594 74 D;
#X connect 0 0 12 0;
#X connect 0 0 18 0;
#X connect 1 0 13 1;
#X connect 1 0 18 1;
#X connect 2 0 16 2;
#X connect 3 0 16 1;
#X connect 5 0 1 0;
#X connect 6 0 2 0;
#X connect 7 0 3 0;
#X connect 8 0 0 0;
#X connect 11 0 9 0;
#X connect 12 0 13 0;
#X connect 13 0 14 0;
#X connect 14 0 11 0;
#X connect 14 1 11 1;
#X connect 15 0 16 0;
#X connect 16 0 17 0;
#X connect 17 0 11 0;
#X connect 17 1 11 1;
#X connect 17 2 11 2;
#X connect 18 0 15 0;
#X restore 660 352 pd eald~;
#X obj 788 351 loadbang;
#X obj 699 392 + 0.05;
#X obj 692 484 outlet~;
#X obj 306 55 inlet;
#X obj 352 57 inlet;
#X obj 690 237 inlet;
#X obj 729 238 inlet;
#X obj 770 239 inlet;
#N canvas 0 22 471 390 pads 0;
#X obj 129 6 inlet;
#N canvas 0 22 450 300 4phasebloc 0;
#X obj 62 115 phasor~ 300;
#X obj 61 83 mtof;
#X obj 137 156 *~ 0.1;
#X obj 148 114 phasor~ 300;
#X obj 147 82 mtof;
#X obj 235 114 phasor~ 300;
#X obj 234 82 mtof;
#X obj 321 113 phasor~ 300;
#X obj 320 81 mtof;
#X obj 113 50 inlet;
#X obj 164 48 inlet;
#X obj 216 48 inlet;
#X obj 267 46 inlet;
#X obj 137 189 outlet~;
#X connect 0 0 2 0;
#X connect 1 0 0 0;
#X connect 2 0 13 0;
#X connect 3 0 2 0;
#X connect 4 0 3 0;
#X connect 5 0 2 0;
#X connect 6 0 5 0;
#X connect 7 0 2 0;
#X connect 8 0 7 0;
#X connect 9 0 1 0;
#X connect 10 0 4 0;
#X connect 11 0 6 0;
#X connect 12 0 8 0;
#X restore 118 210 pd 4phasebloc;
#N canvas 0 22 450 300 4phasebloc 0;
#X obj 62 115 phasor~ 300;
#X obj 61 83 mtof;
#X obj 137 156 *~ 0.1;
#X obj 148 114 phasor~ 300;
#X obj 147 82 mtof;
#X obj 235 114 phasor~ 300;
#X obj 234 82 mtof;
#X obj 321 113 phasor~ 300;
#X obj 320 81 mtof;
#X obj 113 50 inlet;
#X obj 164 48 inlet;
#X obj 216 48 inlet;
#X obj 267 46 inlet;
#X obj 137 189 outlet~;
#X connect 0 0 2 0;
#X connect 1 0 0 0;
#X connect 2 0 13 0;
#X connect 3 0 2 0;
#X connect 4 0 3 0;
#X connect 5 0 2 0;
#X connect 6 0 5 0;
#X connect 7 0 2 0;
#X connect 8 0 7 0;
#X connect 9 0 1 0;
#X connect 10 0 4 0;
#X connect 11 0 6 0;
#X connect 12 0 8 0;
#X restore 221 210 pd 4phasebloc;
#X obj 44 69 random 100;
#X obj 44 111 line;
#X obj 44 7 loadbang;
#X msg 44 27 1;
#X obj 44 48 metro 1000;
#X msg 44 89 \$1 1000;
#X obj 50 163 -;
#X msg 45 140 100;
#X obj 26 188 * 10;
#X obj 27 211 + 500;
#X obj 118 249 bp~ 500 3;
#X obj 67 187 * 10;
#X obj 214 248 bp~ 600 4;
#X obj 68 210 + 700;
#X obj 25 250 / 100;
#X obj 67 249 / 100;
#X obj 25 273 + 0.1;
#X obj 52 304 *~;
#X obj 71 272 + 0.1;
#X obj 82 304 *~;
#X obj 359 234 env~;
#X obj 359 211 osc~ 0.04;
#X obj 117 272 *~ 0.7;
#X obj 22 362 outlet~;
#X obj 87 362 outlet~;
#X obj 33 334 *~ 0.4;
#X obj 87 332 *~ 0.4;
#X obj 135 144 route 1 2 3 4 5 6 7 8 9 10 11;
#X obj 173 290 delwrite~ \$0-fff 100;
#X obj 174 313 delread~ \$0-fff 100;
#X connect 0 0 30 0;
#X connect 1 0 13 0;
#X connect 2 0 15 0;
#X connect 3 0 8 0;
#X connect 4 0 9 1;
#X connect 4 0 10 0;
#X connect 4 0 11 0;
#X connect 4 0 17 0;
#X connect 5 0 6 0;
#X connect 6 0 7 0;
#X connect 7 0 3 0;
#X connect 8 0 4 0;
#X connect 9 0 14 0;
#X connect 9 0 18 0;
#X connect 10 0 9 0;
#X connect 11 0 12 0;
#X connect 12 0 13 1;
#X connect 13 0 25 0;
#X connect 14 0 16 0;
#X connect 15 0 20 0;
#X connect 15 0 22 0;
#X connect 16 0 15 1;
#X connect 17 0 19 0;
#X connect 18 0 21 0;
#X connect 19 0 20 1;
#X connect 20 0 28 0;
#X connect 21 0 22 1;
#X connect 22 0 29 0;
#X connect 23 0 32 0;
#X connect 24 0 23 0;
#X connect 25 0 28 0;
#X connect 25 0 31 0;
#X connect 28 0 26 0;
#X connect 29 0 27 0;
#X connect 30 0 1 0;
#X connect 30 0 2 0;
#X connect 30 0 24 0;
#X connect 30 1 1 1;
#X connect 30 1 2 1;
#X connect 30 1 24 0;
#X connect 30 2 1 2;
#X connect 30 2 2 2;
#X connect 30 2 24 0;
#X connect 30 3 1 3;
#X connect 30 3 2 3;
#X connect 30 3 24 0;
#X connect 32 0 29 0;
#X restore 279 393 pd pads;
#X obj 182 300 pack f f;
#X floatatom 66 355 5 0 0 0 - - -;
#X floatatom 94 374 5 0 0 0 - - -;
#X floatatom 127 392 5 0 0 0 - - -;
#X obj 82 168 pack f f;
#X msg 788 372 1000;
#X obj 108 238 poly 3 2;
#X obj 838 77 inlet;
#X connect 0 0 7 0;
#X connect 0 0 22 0;
#X connect 1 0 2 0;
#X connect 2 0 10 0;
#X connect 3 0 9 0;
#X connect 4 0 2 1;
#X connect 5 0 4 1;
#X connect 7 0 1 1;
#X connect 8 0 22 0;
#X connect 9 0 4 0;
#X connect 11 0 21 0;
#X connect 12 0 21 1;
#X connect 13 0 7 1;
#X connect 14 0 7 2;
#X connect 15 0 7 3;
#X connect 16 0 1 0;
#X connect 17 0 16 0;
#X connect 21 0 23 0;
#X connect 22 0 5 0;
#X connect 23 0 17 0;
#X connect 23 0 18 0;
#X connect 23 0 0 0;
#X connect 23 1 19 0;
#X connect 23 1 17 1;
#X connect 23 2 20 0;
#X connect 23 2 3 0;
#X connect 24 0 16 0;
#X connect 24 0 0 0;
#X restore 126 207 pd Synth_Pads________________;
#N canvas 0 22 450 300 (subpatch) 0;
#X obj -30 22 spigot;
#X obj 2 3 tgl 15 0 empty empty empty 17 7 0 10 -262144 -1 -1 0 1;
#X obj -58 0 inlet;
#X obj -54 54 outlet;
#X connect 0 0 3 0;
#X connect 1 0 0 1;
#X connect 2 0 0 0;
#X coords 0 1 100 -1 20 20 1 0 0;
#X restore 297 106 graph;
#N canvas 0 22 450 300 (subpatch) 0;
#X obj -30 22 spigot;
#X obj 2 3 tgl 15 0 empty empty empty 17 7 0 10 -262144 -1 -1 0 1;
#X obj -58 0 inlet;
#X obj -54 54 outlet;
#X connect 0 0 3 0;
#X connect 1 0 0 1;
#X connect 2 0 0 0;
#X coords 0 1 100 -1 20 20 1 0 0;
#X restore 254 106 graph;
#N canvas 0 22 450 300 (subpatch) 0;
#X obj -30 22 spigot;
#X obj 2 3 tgl 15 0 empty empty empty 17 7 0 10 -262144 -1 -1 0 1;
#X obj -58 0 inlet;
#X obj -54 54 outlet;
#X connect 0 0 3 0;
#X connect 1 0 0 1;
#X connect 2 0 0 0;
#X coords 0 1 100 -1 20 20 1 0 0;
#X restore 211 106 graph;
#N canvas 0 22 450 300 (subpatch) 0;
#X obj -30 22 spigot;
#X obj 2 3 tgl 15 0 empty empty empty 17 7 0 10 -262144 -1 -1 0 1;
#X obj -58 0 inlet;
#X obj -54 54 outlet;
#X connect 0 0 3 0;
#X connect 1 0 0 1;
#X connect 2 0 0 0;
#X coords 0 1 100 -1 20 20 1 0 0;
#X restore 168 106 graph;
#N canvas 0 22 450 300 (subpatch) 0;
#X obj -30 22 spigot;
#X obj 2 3 tgl 15 0 empty empty empty 17 7 0 10 -262144 -1 -1 0 1;
#X obj -58 0 inlet;
#X obj -54 54 outlet;
#X connect 0 0 3 0;
#X connect 1 0 0 1;
#X connect 2 0 0 0;
#X coords 0 1 100 -1 20 20 1 0 0;
#X restore 126 106 graph;
#N canvas 0 22 450 300 (subpatch) 0;
#X obj -30 22 spigot;
#X obj 2 3 tgl 15 0 empty empty empty 17 7 0 10 -262144 -1 -1 0 1;
#X obj -58 0 inlet;
#X obj -54 54 outlet;
#X connect 0 0 3 0;
#X connect 1 0 0 1;
#X connect 2 0 0 0;
#X coords 0 1 100 -1 20 20 1 0 0;
#X restore 65 171 graph;
#N canvas 0 22 450 300 (subpatch) 0;
#X obj -30 22 spigot;
#X obj 2 3 tgl 15 0 empty empty empty 17 7 0 10 -262144 -1 -1 0 1;
#X obj -58 0 inlet;
#X obj -54 54 outlet;
#X connect 0 0 3 0;
#X connect 1 0 0 1;
#X connect 2 0 0 0;
#X coords 0 1 100 -1 20 20 1 0 0;
#X restore 85 171 graph;
#X obj 254 174 * 100;
#X obj 126 11 r note;
#X obj 168 31 r vel;
#N canvas 0 22 450 300 (subpatch) 0;
#X obj -30 22 spigot;
#X obj 2 3 tgl 15 0 empty empty empty 17 7 0 10 -262144 -1 -1 1 1;
#X obj -58 0 inlet;
#X obj -54 54 outlet;
#X connect 0 0 3 0;
#X connect 1 0 0 1;
#X connect 2 0 0 0;
#X coords 0 1 100 -1 20 20 1 0 0;
#X restore 377 191 graph;
#X obj 376 169 r polynote;
#X text 405 193 receive from polyseq32;
#X connect 0 0 27 0;
#X connect 0 1 28 0;
#X connect 1 0 21 0;
#X connect 2 0 21 1;
#X connect 3 0 11 0;
#X connect 4 0 29 0;
#X connect 5 0 13 0;
#X connect 6 0 24 0;
#X connect 7 0 23 0;
#X connect 8 0 22 0;
#X connect 9 0 21 3;
#X connect 10 0 21 4;
#X connect 11 0 12 0;
#X connect 12 0 21 2;
#X connect 13 0 10 0;
#X connect 18 0 5 0;
#X connect 19 0 4 0;
#X connect 20 0 3 0;
#X connect 21 0 16 0;
#X connect 22 0 18 0;
#X connect 23 0 19 0;
#X connect 24 0 20 0;
#X connect 25 0 2 0;
#X connect 26 0 1 0;
#X connect 27 0 1 0;
#X connect 28 0 2 0;
#X connect 29 0 9 0;
#X connect 30 0 26 0;
#X connect 31 0 25 0;
#X connect 32 0 21 5;
#X connect 33 0 32 0;
