#N canvas 0 22 394 265 10;
#N canvas 0 22 1024 720 BigBass---------- 0;
#X obj 505 202 phasor~ 440;
#X obj 606 190 phasor~ 880;
#X obj 703 193 phasor~ 220;
#X obj 740 71 osc~ 220;
#X obj 664 71 osc~ 440;
#X obj 377 48 mtof;
#X obj 486 536 *~;
#X obj 817 70 osc~ 220;
#X obj 805 189 phasor~ 880;
#X obj 892 72 osc~ 220;
#X obj 898 191 phasor~ 220;
#X obj 888 100 *~ 0.05;
#X obj 994 189 phasor~ 440;
#X obj 1089 189 phasor~ 440;
#X obj 1091 215 *~ 0.07;
#X obj 1042 70 osc~ 220;
#X obj 969 69 osc~ 220;
#X obj 485 424 lop~;
#X obj 1093 242 lop~ 200;
#X obj 665 94 *~ 0.08;
#X obj 741 46 * 1;
#X obj 608 222 *~ 0.07;
#X obj 912 225 *~ 0.03;
#X obj 1044 124 lop~ 200;
#X obj 1000 219 *~ 0.05;
#X obj 1043 97 *~ 0.14;
#X obj 744 100 *~ 0.12;
#X obj 508 229 *~ 0.05;
#X obj 712 224 *~ 0.02;
#X obj 511 169 * 0.99;
#X obj 892 40 * 0.99;
#X obj 1038 43 / 2;
#X obj 903 156 / 2;
#X obj 1089 160 * 0.98;
#X obj 712 152 * 1;
#X obj 1000 244 lop~ 200;
#X obj 998 163 * 2;
#X obj 976 43 * 2;
#X obj 966 124 lop~ 200;
#X obj 972 97 *~ 0.02;
#X obj 819 40 * 1;
#X obj 811 99 *~ 0.13;
#X obj 818 224 *~ 0.01;
#X obj 812 161 * 1.01;
#X obj 486 573 *~ 1.5;
#X obj 472 617 outlet~;
#X obj 363 -70 inlet;
#X obj 468 -65 inlet;
#N canvas 0 22 450 300 (subpatch) 0;
#X msg -95 65 bang;
#X floatatom 15 6 5 0 0 0 - - -;
#X floatatom 66 5 5 0 0 0 - - -;
#X floatatom 116 5 5 0 0 0 - - -;
#X text -18 -43 "ALD" enveloppe;
#X obj 15 -19 inlet;
#X obj 66 -20 inlet;
#X obj 116 -20 inlet;
#X obj -81 -16 inlet;
#X text 144 65 ENVELOPE SECTION;
#X obj -110 278 vline~;
#X msg -137 177 1;
#X obj -137 197 pack f f;
#X obj -137 218 unpack f f;
#X msg -33 178 0;
#X obj -33 199 pack f f f;
#X obj -33 220 unpack f f f;
#X obj -33 157 delay 5;
#X text -387 215 Attack : sends a 1 to get to in A msec;
#X text 40 156 wait the end of the attack;
#X text 49 186 Length+Decay : 0 to get to in D msec \, after L msec
;
#X text 4 6 A;
#X text 55 6 L;
#X text 105 6 D;
#X obj -110 301 outlet~;
#X connect 0 0 11 0;
#X connect 0 0 17 0;
#X connect 1 0 12 1;
#X connect 1 0 17 1;
#X connect 2 0 15 2;
#X connect 3 0 15 1;
#X connect 5 0 1 0;
#X connect 6 0 2 0;
#X connect 7 0 3 0;
#X connect 8 0 0 0;
#X connect 10 0 24 0;
#X connect 11 0 12 0;
#X connect 12 0 13 0;
#X connect 13 0 10 0;
#X connect 13 1 10 1;
#X connect 14 0 15 0;
#X connect 15 0 16 0;
#X connect 16 0 10 0;
#X connect 16 1 10 1;
#X connect 16 2 10 2;
#X connect 17 0 14 0;
#X coords 0 1 100 -1 160 30 1 0 0;
#X restore 563 464 graph;
#X obj 370 -7 t f b;
#X obj 824 362 loadbang;
#X msg 805 397 10;
#X msg 848 395 50;
#X obj 533 -52 inlet;
#X obj 578 -53 inlet;
#X obj 618 -50 inlet;
#X msg 882 395 100;
#X connect 0 0 27 0;
#X connect 1 0 21 0;
#X connect 2 0 28 0;
#X connect 3 0 26 0;
#X connect 4 0 19 0;
#X connect 5 0 1 0;
#X connect 5 0 4 0;
#X connect 5 0 20 0;
#X connect 5 0 29 0;
#X connect 5 0 30 0;
#X connect 5 0 31 0;
#X connect 5 0 32 0;
#X connect 5 0 33 0;
#X connect 5 0 34 0;
#X connect 5 0 36 0;
#X connect 5 0 37 0;
#X connect 5 0 40 0;
#X connect 5 0 43 0;
#X connect 6 0 44 0;
#X connect 7 0 41 0;
#X connect 8 0 42 0;
#X connect 9 0 11 0;
#X connect 10 0 22 0;
#X connect 11 0 17 0;
#X connect 12 0 24 0;
#X connect 13 0 14 0;
#X connect 14 0 18 0;
#X connect 15 0 25 0;
#X connect 16 0 39 0;
#X connect 17 0 6 0;
#X connect 18 0 17 0;
#X connect 19 0 17 0;
#X connect 20 0 3 0;
#X connect 21 0 17 0;
#X connect 22 0 17 0;
#X connect 23 0 17 0;
#X connect 24 0 35 0;
#X connect 25 0 23 0;
#X connect 26 0 17 0;
#X connect 27 0 17 0;
#X connect 28 0 17 0;
#X connect 29 0 0 0;
#X connect 30 0 9 0;
#X connect 31 0 15 0;
#X connect 32 0 10 0;
#X connect 33 0 13 0;
#X connect 34 0 2 0;
#X connect 35 0 17 0;
#X connect 36 0 12 0;
#X connect 37 0 16 0;
#X connect 38 0 17 0;
#X connect 39 0 38 0;
#X connect 40 0 7 0;
#X connect 41 0 17 0;
#X connect 42 0 17 0;
#X connect 43 0 8 0;
#X connect 44 0 45 0;
#X connect 46 0 49 0;
#X connect 47 0 17 1;
#X connect 48 0 6 1;
#X connect 49 0 5 0;
#X connect 49 1 48 0;
#X connect 50 0 51 0;
#X connect 50 0 52 0;
#X connect 50 0 56 0;
#X connect 51 0 48 1;
#X connect 52 0 48 2;
#X connect 53 0 48 1;
#X connect 54 0 48 2;
#X connect 55 0 48 3;
#X connect 56 0 48 3;
#X restore 16 22 pd BigBass----------;
#X obj -39 -36 notein;
#X floatatom 16 5 5 0 0 0 - - -;
#X floatatom 68 -27 5 0 0 0 - - -;
#X floatatom 111 -27 5 0 0 0 - - -;
#X floatatom 156 -27 5 0 0 0 - - -;
#X floatatom 200 -27 5 0 0 0 - - -;
#X floatatom 68 6 5 0 0 0 - - -;
#X floatatom 111 6 5 0 0 0 - - -;
#X floatatom 156 6 5 0 0 0 - - -;
#X floatatom 200 6 5 0 0 0 - - -;
#N canvas 0 22 450 300 (subpatch) 0;
#X obj -30 22 spigot;
#X obj 2 3 tgl 15 0 empty empty empty 17 7 0 10 -262144 -1 -1 0 1;
#X obj -58 0 inlet;
#X obj -54 54 outlet;
#X connect 0 0 3 0;
#X connect 1 0 0 1;
#X connect 2 0 0 0;
#X coords 0 1 100 -1 20 20 1 0 0;
#X restore 16 -37 graph;
#N canvas 0 22 450 300 (subpatch) 0;
#X obj -30 22 spigot;
#X obj 2 3 tgl 15 0 empty empty empty 17 7 0 10 -262144 -1 -1 0 1;
#X obj -58 0 inlet;
#X obj -54 54 outlet;
#X connect 0 0 3 0;
#X connect 1 0 0 1;
#X connect 2 0 0 0;
#X coords 0 1 100 -1 20 20 1 0 0;
#X restore -39 -15 graph;
#X obj 200 -56 knob 25 25 0 127 0 0 empty empty empty 0 -8 32 8 -1
-260097 -260097 0 1;
#X obj 156 -56 knob 25 25 0 127 0 0 empty empty empty 0 -8 32 8 -1
-260097 -260097 0 1;
#X obj 111 -56 knob 25 25 0 127 0 0 empty empty empty 0 -8 32 8 -1
-260097 -260097 0 1;
#X obj 68 -56 knob 25 25 0 127 0 0 empty empty empty 0 -8 32 8 -1 -260097
-260097 0 1;
#N canvas 0 22 450 300 (subpatch) 0;
#X obj -30 22 spigot;
#X obj 2 3 tgl 15 0 empty empty empty 17 7 0 10 -262144 -1 -1 0 1;
#X obj -58 0 inlet;
#X obj -54 54 outlet;
#X connect 0 0 3 0;
#X connect 1 0 0 1;
#X connect 2 0 0 0;
#X coords 0 1 100 -1 20 20 1 0 0;
#X restore 68 -79 graph;
#N canvas 0 22 450 300 (subpatch) 0;
#X obj -30 22 spigot;
#X obj 2 3 tgl 15 0 empty empty empty 17 7 0 10 -262144 -1 -1 0 1;
#X obj -58 0 inlet;
#X obj -54 54 outlet;
#X connect 0 0 3 0;
#X connect 1 0 0 1;
#X connect 2 0 0 0;
#X coords 0 1 100 -1 20 20 1 0 0;
#X restore 111 -79 graph;
#N canvas 0 22 450 300 (subpatch) 0;
#X obj -30 22 spigot;
#X obj 2 3 tgl 15 0 empty empty empty 17 7 0 10 -262144 -1 -1 0 1;
#X obj -58 0 inlet;
#X obj -54 54 outlet;
#X connect 0 0 3 0;
#X connect 1 0 0 1;
#X connect 2 0 0 0;
#X coords 0 1 100 -1 20 20 1 0 0;
#X restore 156 -79 graph;
#N canvas 0 22 450 300 (subpatch) 0;
#X obj -30 22 spigot;
#X obj 2 3 tgl 15 0 empty empty empty 17 7 0 10 -262144 -1 -1 0 1;
#X obj -58 0 inlet;
#X obj -54 54 outlet;
#X connect 0 0 3 0;
#X connect 1 0 0 1;
#X connect 2 0 0 0;
#X coords 0 1 100 -1 20 20 1 0 0;
#X restore 200 -79 graph;
#X obj 200 -97 ctlin 4;
#X obj 156 -117 ctlin 3;
#X obj 111 -137 ctlin 2;
#X obj 68 -158 ctlin 1;
#X obj 68 -11 * 10;
#X obj 111 -11 * 1;
#X obj 156 -11 * 10;
#X obj 200 -11 * 10;
#X obj 16 -162 r note;
#X text 116 -156 lop f;
#X text 164 -136 A;
#X text 208 -118 L;
#X text 248 -98 D;
#N canvas 0 22 450 300 (subpatch) 0;
#X obj 59 155 inlet;
#X obj 3 89 inlet~;
#X obj 58 182 change;
#X msg 60 246 set \$1;
#X obj 60 227 tosymbol;
#X obj 59 204 sprintf Bus%d;
#X obj 3 282 throw~ Bus0;
#X obj 2 3 popup 124 25 #ffffff popup Bus0 Bus1 Bus2 Bus3 Bus4 Bus5
Bus6 Bus7 Bus8 Bus9 Bus10 Bus11 Bus12 Bus13 Bus14 Bus15 Bus16;
#X obj 1 32 route bang;
#X obj 154 202 *~;
#X obj 141 7 tgl 15 0 empty empty Dac 19 7 0 10 -262144 -1 -1 1 1;
#X obj 155 238 dac~;
#X obj 1 -49 loadbang;
#X text 59 -51 Bus0 mutes;
#X msg 1 -31 options Bus0 Bus1 Bus2 Bus3 Bus4 Bus5 Bus6 Bus7 Bus8 Bus9
Bus10 Bus11 Bus12 Bus13 Bus14 Bus15 Bus16;
#X connect 0 0 2 0;
#X connect 1 0 6 0;
#X connect 1 0 9 0;
#X connect 2 0 5 0;
#X connect 3 0 6 0;
#X connect 4 0 3 0;
#X connect 5 0 4 0;
#X connect 7 0 8 0;
#X connect 8 1 2 0;
#X connect 9 0 11 0;
#X connect 9 0 11 1;
#X connect 10 0 9 1;
#X connect 12 0 14 0;
#X connect 14 0 7 0;
#X coords 0 1 100 -1 180 30 1 0 0;
#X restore 16 39 graph;
#X connect 0 0 34 0;
#X connect 1 0 12 0;
#X connect 2 0 0 0;
#X connect 3 0 25 0;
#X connect 4 0 26 0;
#X connect 5 0 27 0;
#X connect 6 0 28 0;
#X connect 7 0 0 1;
#X connect 8 0 0 2;
#X connect 9 0 0 3;
#X connect 10 0 0 4;
#X connect 11 0 2 0;
#X connect 12 0 2 0;
#X connect 13 0 6 0;
#X connect 14 0 5 0;
#X connect 15 0 4 0;
#X connect 16 0 3 0;
#X connect 17 0 16 0;
#X connect 18 0 15 0;
#X connect 19 0 14 0;
#X connect 20 0 13 0;
#X connect 21 0 20 0;
#X connect 22 0 19 0;
#X connect 23 0 18 0;
#X connect 24 0 17 0;
#X connect 25 0 7 0;
#X connect 26 0 8 0;
#X connect 27 0 9 0;
#X connect 28 0 10 0;
#X connect 29 0 11 0;
