#N canvas 228 209 477 337 10;
#N canvas 0 22 450 300 (subpatch) 0;
#X obj 59 155 inlet;
#X obj 3 89 inlet~;
#X obj 58 182 change;
#X msg 60 246 set \$1;
#X obj 60 227 tosymbol;
#X obj 59 204 sprintf Bus%d;
#X obj 3 282 throw~ Bus0;
#X obj 2 3 popup 124 25 #ffffff popup Bus0 Bus1 Bus2 Bus3 Bus4 Bus5
Bus6 Bus7 Bus8 Bus9 Bus10 Bus11 Bus12 Bus13 Bus14 Bus15 Bus16;
#X obj 1 32 route bang;
#X obj 154 202 *~;
#X obj 141 7 tgl 15 0 empty empty Dac 19 7 0 10 -262144 -1 -1 1 1;
#X obj 155 238 dac~;
#X obj 1 -49 loadbang;
#X text 59 -51 Bus0 mutes;
#X msg 1 -31 options Bus0 Bus1 Bus2 Bus3 Bus4 Bus5 Bus6 Bus7 Bus8 Bus9
Bus10 Bus11 Bus12 Bus13 Bus14 Bus15 Bus16;
#X connect 0 0 2 0;
#X connect 1 0 6 0;
#X connect 1 0 9 0;
#X connect 2 0 5 0;
#X connect 3 0 6 0;
#X connect 4 0 3 0;
#X connect 5 0 4 0;
#X connect 7 0 8 0;
#X connect 8 1 2 0;
#X connect 9 0 11 0;
#X connect 9 0 11 1;
#X connect 10 0 9 1;
#X connect 12 0 14 0;
#X connect 14 0 7 0;
#X coords 0 1 100 -1 180 30 1 0 0;
#X restore -65 234 graph;
#N canvas 0 22 529 405 (subpatch) 0;
#N canvas 0 22 592 473 midimono 0;
#X obj 179 125 stripnote;
#X obj 304 226 select;
#X obj 295 123 float;
#X obj 282 70 t b f;
#X obj 304 197 float;
#X obj 295 152 sel 0;
#X obj 246 226 / 127;
#X obj 175 8 notein;
#X obj 246 320 outlet;
#X msg 317 252 0;
#X obj 136 317 outlet;
#X text 273 47 taken from the pd doc-monosynth-example;
#X connect 0 0 1 1;
#X connect 0 0 10 0;
#X connect 1 0 9 0;
#X connect 2 0 5 0;
#X connect 3 0 2 0;
#X connect 3 1 4 1;
#X connect 4 0 1 0;
#X connect 5 0 4 0;
#X connect 5 1 6 0;
#X connect 6 0 8 0;
#X connect 7 0 0 0;
#X connect 7 0 3 0;
#X connect 7 1 0 1;
#X connect 7 1 2 1;
#X connect 9 0 8 0;
#X restore 167 -156 pd midimono;
#X obj 11 -133 bendin;
#X obj 125 -89 +;
#X obj 10 -110 - 8192;
#X obj 10 -65 clip -1 1;
#X obj 10 -86 / 8192;
#X msg 58 -134 bang;
#X obj 125 -108 int;
#X obj 9 -46 * 2;
#X text 55 -93 bend range;
#X obj 20 152 *~ 0.5;
#N canvas 309 214 807 703 qwertz-keys 0;
#X msg -121 181 0;
#X msg -89 182 1;
#X msg -57 182 2;
#X msg -23 182 3;
#X msg 10 182 4;
#X msg 44 182 5;
#X msg 78 183 6;
#X msg 116 182 7;
#X msg 150 182 8;
#X msg 182 183 9;
#X msg 214 183 10;
#X msg 247 182 11;
#X msg 281 183 12;
#X msg 315 183 13;
#X msg 351 183 14;
#X msg 387 183 15;
#X msg 427 183 16;
#X obj -173 623 outlet;
#X obj 66 654 outlet;
#X obj -97 71 key;
#X obj -25 128 select 113 50 119 51 101 114 53 116 54 122 55 117 105
57 111 48 112;
#X obj 20 78 keyup;
#X obj 11 541 ==;
#X msg -121 468 1;
#X msg 87 593 0;
#X obj 12 568 moses 0.1;
#X obj -146 435 + 48;
#X obj 69 621 change;
#X text -3 111 q2w3er5t6z7ui9o0p \, 'upper manual';
#X text -3 17 monophonic qwertz keyboard. german keyboard layout. turn
key-auto-repeat off!;
#X msg 123 356 0;
#X msg 155 357 1;
#X msg 187 357 2;
#X msg 221 357 3;
#X msg 254 357 4;
#X msg 288 357 5;
#X msg 322 358 6;
#X msg 360 357 7;
#X msg 394 357 8;
#X msg 426 358 9;
#X msg 465 359 10;
#X msg 501 360 11;
#X obj 121 424 + 36;
#X floatatom -124 112 5 0 0 0 - - -;
#X text 321 297 ysxdcvgbhnjm \, 'lower manaul';
#X obj 172 317 select 121 115 120 100 99 118 103 98 104 110 106 109
;
#X connect 0 0 26 0;
#X connect 1 0 26 0;
#X connect 2 0 26 0;
#X connect 3 0 26 0;
#X connect 4 0 26 0;
#X connect 5 0 26 0;
#X connect 6 0 26 0;
#X connect 7 0 26 0;
#X connect 8 0 26 0;
#X connect 9 0 26 0;
#X connect 10 0 26 0;
#X connect 11 0 26 0;
#X connect 12 0 26 0;
#X connect 13 0 26 0;
#X connect 14 0 26 0;
#X connect 15 0 26 0;
#X connect 16 0 26 0;
#X connect 19 0 20 0;
#X connect 19 0 22 1;
#X connect 19 0 43 0;
#X connect 19 0 45 0;
#X connect 20 0 0 0;
#X connect 20 1 1 0;
#X connect 20 2 2 0;
#X connect 20 3 3 0;
#X connect 20 4 4 0;
#X connect 20 5 5 0;
#X connect 20 6 6 0;
#X connect 20 7 7 0;
#X connect 20 8 8 0;
#X connect 20 9 9 0;
#X connect 20 10 10 0;
#X connect 20 11 11 0;
#X connect 20 12 12 0;
#X connect 20 13 13 0;
#X connect 20 14 14 0;
#X connect 20 15 15 0;
#X connect 20 16 16 0;
#X connect 21 0 22 0;
#X connect 22 0 25 0;
#X connect 23 0 27 0;
#X connect 24 0 27 0;
#X connect 25 1 24 0;
#X connect 26 0 23 0;
#X connect 26 0 17 0;
#X connect 27 0 18 0;
#X connect 30 0 42 0;
#X connect 31 0 42 0;
#X connect 32 0 42 0;
#X connect 33 0 42 0;
#X connect 34 0 42 0;
#X connect 35 0 42 0;
#X connect 36 0 42 0;
#X connect 37 0 42 0;
#X connect 38 0 42 0;
#X connect 39 0 42 0;
#X connect 40 0 42 0;
#X connect 41 0 42 0;
#X connect 42 0 23 0;
#X connect 42 0 17 0;
#X connect 45 0 30 0;
#X connect 45 1 31 0;
#X connect 45 2 32 0;
#X connect 45 3 33 0;
#X connect 45 4 34 0;
#X connect 45 5 35 0;
#X connect 45 6 36 0;
#X connect 45 7 37 0;
#X connect 45 8 38 0;
#X connect 45 9 39 0;
#X connect 45 10 40 0;
#X connect 45 11 41 0;
#X restore 256 -96 pd qwertz-keys;
#N canvas 0 22 450 300 (subpatch) 0;
#X obj -30 22 spigot;
#X obj 2 3 tgl 15 0 empty empty empty 17 7 0 10 -262144 -1 -1 0 1;
#X obj -58 0 inlet;
#X obj -54 54 outlet;
#X connect 0 0 3 0;
#X connect 1 0 0 1;
#X connect 2 0 0 0;
#X coords 0 1 100 -1 20 20 1 0 0;
#X restore 3 2 graph;
#N canvas 0 22 450 300 (subpatch) 0;
#X obj -30 22 spigot;
#X obj 2 3 tgl 15 0 empty empty empty 17 7 0 10 -262144 -1 -1 0 1;
#X obj -58 0 inlet;
#X obj -54 54 outlet;
#X connect 0 0 3 0;
#X connect 1 0 0 1;
#X connect 2 0 0 0;
#X coords 0 1 100 -1 20 20 1 0 0;
#X restore 3 24 graph;
#N canvas 0 22 450 300 (subpatch) 0;
#X obj -30 22 spigot;
#X obj 2 3 tgl 15 0 empty empty empty 17 7 0 10 -262144 -1 -1 1 1;
#X obj -58 0 inlet;
#X obj -54 54 outlet;
#X connect 0 0 3 0;
#X connect 1 0 0 1;
#X connect 2 0 0 0;
#X coords 0 1 100 -1 20 20 1 0 0;
#X restore 104 2 graph;
#N canvas 0 22 450 300 (subpatch) 0;
#X obj -30 22 spigot;
#X obj 2 3 tgl 15 0 empty empty empty 17 7 0 10 -262144 -1 -1 1 1;
#X obj -58 0 inlet;
#X obj -54 54 outlet;
#X connect 0 0 3 0;
#X connect 1 0 0 1;
#X connect 2 0 0 0;
#X coords 0 1 100 -1 20 20 1 0 0;
#X restore 104 24 graph;
#X text 128 3 Keyboard input;
#X text 128 23 Keyboard input;
#X text 28 3 Notein input;
#X text 28 23 Notein input;
#X obj 274 -141 inlet;
#X obj 284 -131 inlet;
#X obj 30 177 outlet~;
#N canvas 0 22 780 696 synthwaves1 0;
#X obj 136 81 until;
#X obj 136 109 f;
#X obj 167 111 + 1;
#X obj 141 329 sin;
#X obj 140 306 * 6.28319;
#X obj 131 168 t f f;
#X obj 141 360 tabwrite \$0sinewave;
#X obj 138 27 loadbang;
#X obj 41 531 tabwrite \$0squarewave;
#X obj 49 412 mod 2;
#X obj 59 436 * 2;
#X obj 60 461 - 1;
#X obj 140 280 / 512;
#X obj 45 388 div 256;
#X obj 168 132 mod 515;
#X msg 138 54 515;
#X obj 36 558 table \$0squarewave 515;
#X obj 352 513 table \$0sawwave 515;
#X obj 529 633 table \$0triwave 515;
#X obj 126 388 table \$0sinewave 515;
#X obj 348 489 tabwrite \$0sawwave;
#X obj 340 397 mod 512;
#X obj 68 498 * -1;
#X obj 340 422 / 256;
#X obj 345 446 - 1;
#X obj 348 467 * -1;
#X obj 512 274 mod 512;
#X obj 528 602 tabwrite \$0triwave;
#X obj 606 360 * 2;
#X obj 603 386 - 1;
#X obj 526 412 *;
#X obj 513 301 t f f;
#X obj 524 438 / 512;
#X obj 600 337 < 256;
#X obj 548 464 -;
#X obj 567 489 * 4;
#X obj 566 522 + 3;
#X obj 401 212 + 128;
#X connect 0 0 1 0;
#X connect 1 0 2 0;
#X connect 1 0 5 0;
#X connect 2 0 14 0;
#X connect 3 0 6 0;
#X connect 4 0 3 0;
#X connect 5 0 12 0;
#X connect 5 0 13 0;
#X connect 5 0 21 0;
#X connect 5 0 37 0;
#X connect 5 1 6 1;
#X connect 5 1 8 1;
#X connect 5 1 20 1;
#X connect 5 1 27 1;
#X connect 7 0 15 0;
#X connect 9 0 10 0;
#X connect 10 0 11 0;
#X connect 11 0 22 0;
#X connect 12 0 4 0;
#X connect 13 0 9 0;
#X connect 14 0 1 1;
#X connect 15 0 0 0;
#X connect 21 0 23 0;
#X connect 22 0 8 0;
#X connect 23 0 24 0;
#X connect 24 0 25 0;
#X connect 25 0 20 0;
#X connect 26 0 31 0;
#X connect 28 0 29 0;
#X connect 29 0 30 1;
#X connect 30 0 32 0;
#X connect 31 0 30 0;
#X connect 31 1 33 0;
#X connect 32 0 34 0;
#X connect 33 0 28 0;
#X connect 33 0 34 1;
#X connect 34 0 35 0;
#X connect 35 0 36 0;
#X connect 36 0 27 0;
#X connect 37 0 26 0;
#X restore 264 63 pd synthwaves1;
#N canvas 171 113 918 860 twooscchord1 0;
#X obj 226 115 vsl 12 81 0.1 1 0 1 empty empty a 2 4 0 8 -262144 -1
-1 0 1;
#X obj 129 123 vradio 10 1 1 5 empty empty ok 1 -6 0 8 -262144 -1 -1
4;
#X obj -162 229 * 12;
#X obj -208 249 +;
#X obj 184 115 vsl 12 81 20 120 0 1 empty empty cf 2 4 0 8 -262144
-1 -1 7100 1;
#X obj 198 115 vsl 12 81 2 10 0 1 empty empty rs 2 4 0 8 -262144 -1
-1 400 1;
#X obj 212 115 vsl 12 81 0 120 0 1 empty empty ev 2 4 0 8 -262144 -1
-1 3200 1;
#X obj 87 477 *;
#X obj 48 555 mtof;
#X obj -79 777 *~;
#X obj 58 505 +;
#X obj -224 133 inlet;
#X text -185 135 pitch;
#X obj -105 123 inlet;
#X text -62 124 gate;
#X obj -81 803 outlet~;
#X obj 107 388 *;
#X obj 130 189 tgl 10 1 empty empty ep 1 -6 0 8 -262144 -1 -1 -2 -2
;
#X obj 139 387 + 1;
#X obj 139 357 t b f;
#X obj 218 259 *;
#X obj 217 308 * 10000;
#X obj 219 285 *;
#X obj 91 4 inlet;
#X obj 354 80 inlet;
#X text 403 79 env-mod 0..1;
#X text 135 3 cutoff-mod 0..1;
#X obj 354 101 clip 0 1;
#X obj 354 123 * 60;
#X obj 92 29 clip 0 1;
#X obj 92 51 * 60;
#X obj 105 287 +;
#X obj 109 255 t b f;
#X obj 159 292 +;
#X obj 154 254 t b f;
#X obj 156 115 vsl 12 81 0 0.95 0 1 empty empty gm 2 4 0 8 -262144
-1 -1 6500 1;
#X obj 170 115 vsl 12 81 0 1 0 1 empty empty wv 2 4 0 8 -262144 -1
-1 2500 1;
#X obj -119 627 vcf~;
#X obj -109 718 lop~;
#X obj -104 741 lop~;
#X obj -110 655 *~;
#X obj 35 635 / 100;
#X obj -110 679 *~;
#X obj 1 602 t b f;
#X obj 2 660 -;
#X obj -161 207 - 2;
#X obj 142 115 vsl 12 81 0 0.25 0 1 empty empty dt 2 4 0 8 -262144
-1 -1 6800 1;
#X obj -101 152 clip 0 1;
#X obj 240 115 vsl 12 81 0.1 1 0 1 empty empty d 2 4 0 8 -262144 -1
-1 4200 1;
#X obj 268 115 vsl 12 81 0.2 1 0 1 empty empty r 2 4 0 8 -262144 -1
-1 2600 1;
#X obj 254 115 vsl 12 81 0 1 0 1 empty empty s 2 4 0 8 -262144 -1 -1
0 1;
#X obj 282 264 *;
#X obj 281 313 * 10000;
#X obj 283 290 *;
#X obj 341 269 *;
#X obj 340 318 * 10000;
#X obj 342 295 *;
#X obj -82 512 +~;
#X obj -77 484 *~;
#X obj -113 580 mtof~;
#N canvas 104 43 1108 856 adsr1 0;
#X obj -143 147 inlet;
#X msg 15 502 0;
#X obj 63 365 pack f f;
#X msg -148 457 1 1;
#X msg 64 391 set \$1 \$2;
#X obj 125 589 >=;
#X msg 216 752 0 1074.24;
#X obj 157 632 moses 0.001;
#X obj 150 406 pack f f;
#X msg 151 436 set \$1 \$2;
#X msg 170 319 bang;
#X msg 313 372 set 0 \$1;
#X msg -135 357 bang;
#X msg -136 523 0 447.746;
#X obj -145 184 clip 0 1;
#X obj -113 211 moses 0.001;
#X obj 15 538 line 0 1;
#X obj -20 376 t f f;
#X obj 9 720 spigot;
#X obj 228 693 delay 0;
#X obj -49 150 inlet;
#X text -8 150 att;
#X obj 22 153 inlet;
#X text 63 153 dec;
#X obj 93 150 inlet;
#X text 134 152 sus;
#X obj 170 152 inlet;
#X text 211 152 rel;
#X obj -95 781 outlet;
#X obj -3 199 t b f;
#X connect 0 0 14 0;
#X connect 1 0 16 0;
#X connect 2 0 4 0;
#X connect 3 0 16 0;
#X connect 4 0 3 0;
#X connect 5 0 7 0;
#X connect 6 0 18 0;
#X connect 7 1 19 0;
#X connect 8 0 9 0;
#X connect 9 0 6 0;
#X connect 10 0 8 0;
#X connect 11 0 13 0;
#X connect 12 0 13 0;
#X connect 13 0 16 0;
#X connect 14 0 15 0;
#X connect 14 0 18 1;
#X connect 15 0 12 0;
#X connect 15 1 2 0;
#X connect 15 1 17 0;
#X connect 16 0 5 0;
#X connect 16 0 28 0;
#X connect 17 0 3 0;
#X connect 17 1 5 1;
#X connect 17 1 1 0;
#X connect 18 0 16 0;
#X connect 19 0 6 0;
#X connect 20 0 2 1;
#X connect 20 0 29 0;
#X connect 22 0 10 0;
#X connect 22 0 8 1;
#X connect 24 0 10 0;
#X connect 24 0 8 0;
#X connect 26 0 11 0;
#X connect 29 0 2 0;
#X connect 29 1 2 1;
#X coords 0 0 1 1 120 160 0;
#X restore 172 425 pd adsr1;
#X obj -1 438 line~;
#X msg 18 412 \$1 1.6;
#X msg -3 635 1.7;
#X obj -82 631 clip 1 10;
#X obj -57 589 / 2;
#X obj -114 542 clip~ 0 128;
#X obj 53 526 clip 0 128;
#X text -246 32 needs osc-table (synthwaves) subpatch!;
#X obj -12 488 *~;
#N canvas 0 22 450 300 twooscs1 0;
#X obj 50 39 inlet;
#X obj 227 54 inlet;
#X obj 275 55 inlet;
#X obj 98 39 inlet;
#X text 58 14 pitch;
#X text 108 18 det;
#N canvas 0 136 1183 715 mod4osc1 0;
#X obj -3 28 phasor~;
#X obj -2 -6 inlet~;
#X obj 72 637 outlet~;
#X obj 66 392 +~ 1;
#X obj 370 200 inlet;
#X obj 22 193 *~;
#X obj 6 146 clip~ 0 0.5;
#X obj 117 169 clip~ 0.5 1;
#X obj 207 91 -;
#X obj 199 43 t b f;
#X msg 200 69 1;
#X obj 198 -32 inlet;
#X obj 132 76 / 2;
#X obj 131 102 + 0.5;
#X msg 224 207 1;
#X obj 226 183 t b f;
#X text 53 186 m;
#X obj 103 300 *~;
#X obj 238 233 -;
#X obj 252 267 /;
#X msg 287 159 1;
#X obj 289 135 t b f;
#X obj 301 185 -;
#X text 120 130 x1;
#X obj 209 144 *;
#X text 238 146 y1;
#X text 258 285 m2;
#X obj 115 252 -~;
#X text 141 254 b2;
#X text 206 213 ak;
#X text 323 160 gk;
#X obj 194 3 clip 0 0.99;
#X obj 66 366 *~ 512;
#X obj 18 507 *~;
#X obj 337 330 * -1;
#X obj 55 480 clip 0 1;
#X obj 51 538 *~;
#X obj 91 517 clip 0 1;
#X obj 82 566 *~;
#X obj 112 546 clip 0 1;
#X obj 99 600 *~;
#X obj 129 580 clip 0 1;
#X text 30 56 9 klasse geometrie...;
#N canvas 0 22 619 465 triangle01 0;
#X obj 262 148 * 2;
#X obj 254 184 - 1;
#X obj 229 201 *;
#X obj 216 90 t f f;
#X obj 193 26 inlet;
#X obj 263 404 outlet;
#X obj 299 114 < 0.5;
#X obj 267 246 -;
#X obj 272 282 + 1;
#X obj 283 322 * 2;
#X connect 0 0 1 0;
#X connect 1 0 2 1;
#X connect 2 0 7 0;
#X connect 3 0 2 0;
#X connect 3 1 6 0;
#X connect 4 0 3 0;
#X connect 6 0 0 0;
#X connect 6 0 7 1;
#X connect 7 0 8 0;
#X connect 8 0 9 0;
#X connect 9 0 5 0;
#X restore 157 413 pd triangle01;
#N canvas 0 22 619 465 triangle01 0;
#X obj 262 148 * 2;
#X obj 254 184 - 1;
#X obj 229 201 *;
#X obj 216 90 t f f;
#X obj 193 26 inlet;
#X obj 263 404 outlet;
#X obj 299 114 < 0.5;
#X obj 267 246 -;
#X obj 272 282 + 1;
#X obj 283 322 * 2;
#X connect 0 0 1 0;
#X connect 1 0 2 1;
#X connect 2 0 7 0;
#X connect 3 0 2 0;
#X connect 3 1 6 0;
#X connect 4 0 3 0;
#X connect 6 0 0 0;
#X connect 6 0 7 1;
#X connect 7 0 8 0;
#X connect 8 0 9 0;
#X connect 9 0 5 0;
#X restore 254 434 pd triangle01;
#X obj 195 376 + 0.5;
#X obj 268 390 + 1;
#X obj 311 397 + 1.5;
#N canvas 0 22 619 465 triangle01 0;
#X obj 262 148 * 2;
#X obj 254 184 - 1;
#X obj 229 201 *;
#X obj 216 90 t f f;
#X obj 193 26 inlet;
#X obj 263 404 outlet;
#X obj 299 114 < 0.5;
#X obj 267 246 -;
#X obj 272 282 + 1;
#X obj 283 322 * 2;
#X connect 0 0 1 0;
#X connect 1 0 2 1;
#X connect 2 0 7 0;
#X connect 3 0 2 0;
#X connect 3 1 6 0;
#X connect 4 0 3 0;
#X connect 6 0 0 0;
#X connect 6 0 7 1;
#X connect 7 0 8 0;
#X connect 8 0 9 0;
#X connect 9 0 5 0;
#X restore 284 465 pd triangle01;
#X obj 327 492 + 2;
#N canvas 0 22 619 465 triangle01 0;
#X obj 262 148 * 2;
#X obj 254 184 - 1;
#X obj 229 201 *;
#X obj 216 90 t f f;
#X obj 193 26 inlet;
#X obj 263 404 outlet;
#X obj 299 114 < 0.5;
#X obj 267 246 -;
#X obj 272 282 + 1;
#X obj 283 322 * 2;
#X connect 0 0 1 0;
#X connect 1 0 2 1;
#X connect 2 0 7 0;
#X connect 3 0 2 0;
#X connect 3 1 6 0;
#X connect 4 0 3 0;
#X connect 6 0 0 0;
#X connect 6 0 7 1;
#X connect 7 0 8 0;
#X connect 8 0 9 0;
#X connect 9 0 5 0;
#X restore 335 515 pd triangle01;
#X obj 364 232 * 1.5;
#X text 53 -4 freq;
#X text 414 199 wave;
#X text 241 -32 geom;
#X obj 65 439 tabread4~ \$0squarewave;
#X obj 122 474 tabread4~ \$0sawwave;
#X obj 173 514 tabread4~ \$0triwave;
#X obj 199 549 tabread4~ \$0sinewave;
#X connect 0 0 7 0;
#X connect 0 0 6 0;
#X connect 1 0 0 0;
#X connect 3 0 55 0;
#X connect 3 0 56 0;
#X connect 3 0 57 0;
#X connect 3 0 58 0;
#X connect 4 0 51 0;
#X connect 5 0 32 0;
#X connect 6 0 5 0;
#X connect 7 0 27 0;
#X connect 8 0 5 1;
#X connect 8 0 24 1;
#X connect 9 0 10 0;
#X connect 9 1 8 1;
#X connect 10 0 8 0;
#X connect 11 0 31 0;
#X connect 12 0 13 0;
#X connect 13 0 6 2;
#X connect 13 0 7 1;
#X connect 13 0 21 0;
#X connect 13 0 24 0;
#X connect 13 0 27 1;
#X connect 14 0 18 0;
#X connect 15 0 14 0;
#X connect 15 1 18 1;
#X connect 17 0 32 0;
#X connect 18 0 19 0;
#X connect 19 0 17 1;
#X connect 20 0 22 0;
#X connect 21 0 20 0;
#X connect 21 1 22 1;
#X connect 22 0 19 1;
#X connect 24 0 15 0;
#X connect 27 0 17 0;
#X connect 31 0 9 0;
#X connect 31 0 12 0;
#X connect 32 0 3 0;
#X connect 33 0 2 0;
#X connect 34 0 45 0;
#X connect 34 0 46 0;
#X connect 34 0 47 0;
#X connect 34 0 49 0;
#X connect 35 0 33 1;
#X connect 36 0 2 0;
#X connect 37 0 36 1;
#X connect 38 0 2 0;
#X connect 39 0 38 1;
#X connect 40 0 2 0;
#X connect 41 0 40 1;
#X connect 43 0 35 0;
#X connect 44 0 37 0;
#X connect 45 0 43 0;
#X connect 46 0 44 0;
#X connect 47 0 48 0;
#X connect 48 0 39 0;
#X connect 49 0 50 0;
#X connect 50 0 41 0;
#X connect 51 0 34 0;
#X connect 55 0 33 0;
#X connect 56 0 36 0;
#X connect 57 0 38 0;
#X connect 58 0 40 0;
#X restore 135 207 pd mod4osc1;
#X obj 118 176 mtof;
#N canvas 0 136 1183 715 mod4osc1 0;
#X obj -3 28 phasor~;
#X obj -2 -6 inlet~;
#X obj 72 637 outlet~;
#X obj 66 392 +~ 1;
#X obj 370 200 inlet;
#X obj 22 193 *~;
#X obj 6 146 clip~ 0 0.5;
#X obj 117 169 clip~ 0.5 1;
#X obj 207 91 -;
#X obj 199 43 t b f;
#X msg 200 69 1;
#X obj 198 -32 inlet;
#X obj 132 76 / 2;
#X obj 131 102 + 0.5;
#X msg 224 207 1;
#X obj 226 183 t b f;
#X text 53 186 m;
#X obj 103 300 *~;
#X obj 238 233 -;
#X obj 252 267 /;
#X msg 287 159 1;
#X obj 289 135 t b f;
#X obj 301 185 -;
#X text 120 130 x1;
#X obj 209 144 *;
#X text 238 146 y1;
#X text 258 285 m2;
#X obj 115 252 -~;
#X text 141 254 b2;
#X text 206 213 ak;
#X text 323 160 gk;
#X obj 194 3 clip 0 0.99;
#X obj 66 366 *~ 512;
#X obj 18 507 *~;
#X obj 337 330 * -1;
#X obj 55 480 clip 0 1;
#X obj 51 538 *~;
#X obj 91 517 clip 0 1;
#X obj 82 566 *~;
#X obj 112 546 clip 0 1;
#X obj 99 600 *~;
#X obj 129 580 clip 0 1;
#X text 30 56 9 klasse geometrie...;
#N canvas 0 22 619 465 triangle01 0;
#X obj 262 148 * 2;
#X obj 254 184 - 1;
#X obj 229 201 *;
#X obj 216 90 t f f;
#X obj 193 26 inlet;
#X obj 263 404 outlet;
#X obj 299 114 < 0.5;
#X obj 267 246 -;
#X obj 272 282 + 1;
#X obj 283 322 * 2;
#X connect 0 0 1 0;
#X connect 1 0 2 1;
#X connect 2 0 7 0;
#X connect 3 0 2 0;
#X connect 3 1 6 0;
#X connect 4 0 3 0;
#X connect 6 0 0 0;
#X connect 6 0 7 1;
#X connect 7 0 8 0;
#X connect 8 0 9 0;
#X connect 9 0 5 0;
#X restore 157 413 pd triangle01;
#N canvas 0 22 619 465 triangle01 0;
#X obj 262 148 * 2;
#X obj 254 184 - 1;
#X obj 229 201 *;
#X obj 216 90 t f f;
#X obj 193 26 inlet;
#X obj 263 404 outlet;
#X obj 299 114 < 0.5;
#X obj 267 246 -;
#X obj 272 282 + 1;
#X obj 283 322 * 2;
#X connect 0 0 1 0;
#X connect 1 0 2 1;
#X connect 2 0 7 0;
#X connect 3 0 2 0;
#X connect 3 1 6 0;
#X connect 4 0 3 0;
#X connect 6 0 0 0;
#X connect 6 0 7 1;
#X connect 7 0 8 0;
#X connect 8 0 9 0;
#X connect 9 0 5 0;
#X restore 254 434 pd triangle01;
#X obj 195 376 + 0.5;
#X obj 268 390 + 1;
#X obj 311 397 + 1.5;
#N canvas 0 22 619 465 triangle01 0;
#X obj 262 148 * 2;
#X obj 254 184 - 1;
#X obj 229 201 *;
#X obj 216 90 t f f;
#X obj 193 26 inlet;
#X obj 263 404 outlet;
#X obj 299 114 < 0.5;
#X obj 267 246 -;
#X obj 272 282 + 1;
#X obj 283 322 * 2;
#X connect 0 0 1 0;
#X connect 1 0 2 1;
#X connect 2 0 7 0;
#X connect 3 0 2 0;
#X connect 3 1 6 0;
#X connect 4 0 3 0;
#X connect 6 0 0 0;
#X connect 6 0 7 1;
#X connect 7 0 8 0;
#X connect 8 0 9 0;
#X connect 9 0 5 0;
#X restore 284 465 pd triangle01;
#X obj 327 492 + 2;
#N canvas 0 22 619 465 triangle01 0;
#X obj 262 148 * 2;
#X obj 254 184 - 1;
#X obj 229 201 *;
#X obj 216 90 t f f;
#X obj 193 26 inlet;
#X obj 263 404 outlet;
#X obj 299 114 < 0.5;
#X obj 267 246 -;
#X obj 272 282 + 1;
#X obj 283 322 * 2;
#X connect 0 0 1 0;
#X connect 1 0 2 1;
#X connect 2 0 7 0;
#X connect 3 0 2 0;
#X connect 3 1 6 0;
#X connect 4 0 3 0;
#X connect 6 0 0 0;
#X connect 6 0 7 1;
#X connect 7 0 8 0;
#X connect 8 0 9 0;
#X connect 9 0 5 0;
#X restore 335 515 pd triangle01;
#X obj 364 232 * 1.5;
#X text 53 -4 freq;
#X text 414 199 wave;
#X text 241 -32 geom;
#X obj 66 440 tabread4~ \$0squarewave;
#X obj 122 474 tabread4~ \$0sawwave;
#X obj 173 513 tabread4~ \$0triwave;
#X obj 198 549 tabread4~ \$0sinewave;
#X connect 0 0 7 0;
#X connect 0 0 6 0;
#X connect 1 0 0 0;
#X connect 3 0 55 0;
#X connect 3 0 56 0;
#X connect 3 0 57 0;
#X connect 3 0 58 0;
#X connect 4 0 51 0;
#X connect 5 0 32 0;
#X connect 6 0 5 0;
#X connect 7 0 27 0;
#X connect 8 0 5 1;
#X connect 8 0 24 1;
#X connect 9 0 10 0;
#X connect 9 1 8 1;
#X connect 10 0 8 0;
#X connect 11 0 31 0;
#X connect 12 0 13 0;
#X connect 13 0 6 2;
#X connect 13 0 7 1;
#X connect 13 0 21 0;
#X connect 13 0 24 0;
#X connect 13 0 27 1;
#X connect 14 0 18 0;
#X connect 15 0 14 0;
#X connect 15 1 18 1;
#X connect 17 0 32 0;
#X connect 18 0 19 0;
#X connect 19 0 17 1;
#X connect 20 0 22 0;
#X connect 21 0 20 0;
#X connect 21 1 22 1;
#X connect 22 0 19 1;
#X connect 24 0 15 0;
#X connect 27 0 17 0;
#X connect 31 0 9 0;
#X connect 31 0 12 0;
#X connect 32 0 3 0;
#X connect 33 0 2 0;
#X connect 34 0 45 0;
#X connect 34 0 46 0;
#X connect 34 0 47 0;
#X connect 34 0 49 0;
#X connect 35 0 33 1;
#X connect 36 0 2 0;
#X connect 37 0 36 1;
#X connect 38 0 2 0;
#X connect 39 0 38 1;
#X connect 40 0 2 0;
#X connect 41 0 40 1;
#X connect 43 0 35 0;
#X connect 44 0 37 0;
#X connect 45 0 43 0;
#X connect 46 0 44 0;
#X connect 47 0 48 0;
#X connect 48 0 39 0;
#X connect 49 0 50 0;
#X connect 50 0 41 0;
#X connect 51 0 34 0;
#X connect 55 0 33 0;
#X connect 56 0 36 0;
#X connect 57 0 38 0;
#X connect 58 0 40 0;
#X restore 48 209 pd mod4osc1;
#X obj 47 183 mtof;
#X obj 108 136 +;
#X obj 47 142 -;
#X obj 95 267 outlet~;
#X text 277 35 wave;
#X text 225 35 geom;
#X connect 0 0 11 0;
#X connect 0 0 10 0;
#X connect 1 0 8 1;
#X connect 1 0 6 1;
#X connect 2 0 8 2;
#X connect 2 0 6 2;
#X connect 3 0 11 1;
#X connect 3 0 10 1;
#X connect 6 0 12 0;
#X connect 7 0 6 0;
#X connect 8 0 12 0;
#X connect 9 0 8 0;
#X connect 10 0 7 0;
#X connect 11 0 9 0;
#X restore -240 314 pd twooscs1;
#X text -247 19 simple subtractive chord-synth (pd vanilla);
#X text -240 51 4/2010 martin brinkmann;
#X floatatom 103 137 3 0 12 0 - - -;
#X floatatom 103 161 3 0 12 0 - - -;
#X floatatom 103 185 3 0 12 0 - - -;
#X obj -67 55 loadbang;
#X msg -2 82 set \$1;
#X msg 7 106 3;
#X msg 7 132 set \$1;
#X msg 16 156 7;
#X msg 13 192 set \$1;
#X msg 22 216 10;
#X text 101 117 tp;
#N canvas 0 22 450 300 twooscs1 0;
#X obj 50 39 inlet;
#X obj 227 54 inlet;
#X obj 275 55 inlet;
#X obj 98 39 inlet;
#X text 58 14 pitch;
#X text 108 18 det;
#N canvas 0 136 1183 715 mod4osc1 0;
#X obj -3 28 phasor~;
#X obj -2 -6 inlet~;
#X obj 72 637 outlet~;
#X obj 66 392 +~ 1;
#X obj 370 200 inlet;
#X obj 22 193 *~;
#X obj 6 146 clip~ 0 0.5;
#X obj 117 169 clip~ 0.5 1;
#X obj 207 91 -;
#X obj 199 43 t b f;
#X msg 200 69 1;
#X obj 198 -32 inlet;
#X obj 132 76 / 2;
#X obj 131 102 + 0.5;
#X msg 224 207 1;
#X obj 226 183 t b f;
#X text 53 186 m;
#X obj 103 300 *~;
#X obj 238 233 -;
#X obj 252 267 /;
#X msg 287 159 1;
#X obj 289 135 t b f;
#X obj 301 185 -;
#X text 120 130 x1;
#X obj 209 144 *;
#X text 238 146 y1;
#X text 258 285 m2;
#X obj 115 252 -~;
#X text 141 254 b2;
#X text 206 213 ak;
#X text 323 160 gk;
#X obj 194 3 clip 0 0.99;
#X obj 66 366 *~ 512;
#X obj 18 507 *~;
#X obj 337 330 * -1;
#X obj 55 480 clip 0 1;
#X obj 51 538 *~;
#X obj 91 517 clip 0 1;
#X obj 82 566 *~;
#X obj 112 546 clip 0 1;
#X obj 99 600 *~;
#X obj 129 580 clip 0 1;
#X text 30 56 9 klasse geometrie...;
#N canvas 0 22 619 465 triangle01 0;
#X obj 262 148 * 2;
#X obj 254 184 - 1;
#X obj 229 201 *;
#X obj 216 90 t f f;
#X obj 193 26 inlet;
#X obj 263 404 outlet;
#X obj 299 114 < 0.5;
#X obj 267 246 -;
#X obj 272 282 + 1;
#X obj 283 322 * 2;
#X connect 0 0 1 0;
#X connect 1 0 2 1;
#X connect 2 0 7 0;
#X connect 3 0 2 0;
#X connect 3 1 6 0;
#X connect 4 0 3 0;
#X connect 6 0 0 0;
#X connect 6 0 7 1;
#X connect 7 0 8 0;
#X connect 8 0 9 0;
#X connect 9 0 5 0;
#X restore 157 413 pd triangle01;
#N canvas 0 22 619 465 triangle01 0;
#X obj 262 148 * 2;
#X obj 254 184 - 1;
#X obj 229 201 *;
#X obj 216 90 t f f;
#X obj 193 26 inlet;
#X obj 263 404 outlet;
#X obj 299 114 < 0.5;
#X obj 267 246 -;
#X obj 272 282 + 1;
#X obj 283 322 * 2;
#X connect 0 0 1 0;
#X connect 1 0 2 1;
#X connect 2 0 7 0;
#X connect 3 0 2 0;
#X connect 3 1 6 0;
#X connect 4 0 3 0;
#X connect 6 0 0 0;
#X connect 6 0 7 1;
#X connect 7 0 8 0;
#X connect 8 0 9 0;
#X connect 9 0 5 0;
#X restore 254 434 pd triangle01;
#X obj 195 376 + 0.5;
#X obj 268 390 + 1;
#X obj 311 397 + 1.5;
#N canvas 0 22 619 465 triangle01 0;
#X obj 262 148 * 2;
#X obj 254 184 - 1;
#X obj 229 201 *;
#X obj 216 90 t f f;
#X obj 193 26 inlet;
#X obj 263 404 outlet;
#X obj 299 114 < 0.5;
#X obj 267 246 -;
#X obj 272 282 + 1;
#X obj 283 322 * 2;
#X connect 0 0 1 0;
#X connect 1 0 2 1;
#X connect 2 0 7 0;
#X connect 3 0 2 0;
#X connect 3 1 6 0;
#X connect 4 0 3 0;
#X connect 6 0 0 0;
#X connect 6 0 7 1;
#X connect 7 0 8 0;
#X connect 8 0 9 0;
#X connect 9 0 5 0;
#X restore 284 465 pd triangle01;
#X obj 327 492 + 2;
#N canvas 0 22 619 465 triangle01 0;
#X obj 262 148 * 2;
#X obj 254 184 - 1;
#X obj 229 201 *;
#X obj 216 90 t f f;
#X obj 193 26 inlet;
#X obj 263 404 outlet;
#X obj 299 114 < 0.5;
#X obj 267 246 -;
#X obj 272 282 + 1;
#X obj 283 322 * 2;
#X connect 0 0 1 0;
#X connect 1 0 2 1;
#X connect 2 0 7 0;
#X connect 3 0 2 0;
#X connect 3 1 6 0;
#X connect 4 0 3 0;
#X connect 6 0 0 0;
#X connect 6 0 7 1;
#X connect 7 0 8 0;
#X connect 8 0 9 0;
#X connect 9 0 5 0;
#X restore 335 515 pd triangle01;
#X obj 364 232 * 1.5;
#X text 53 -4 freq;
#X text 414 199 wave;
#X text 241 -32 geom;
#X obj 65 439 tabread4~ \$0squarewave;
#X obj 122 474 tabread4~ \$0sawwave;
#X obj 173 514 tabread4~ \$0triwave;
#X obj 199 549 tabread4~ \$0sinewave;
#X connect 0 0 7 0;
#X connect 0 0 6 0;
#X connect 1 0 0 0;
#X connect 3 0 55 0;
#X connect 3 0 56 0;
#X connect 3 0 57 0;
#X connect 3 0 58 0;
#X connect 4 0 51 0;
#X connect 5 0 32 0;
#X connect 6 0 5 0;
#X connect 7 0 27 0;
#X connect 8 0 5 1;
#X connect 8 0 24 1;
#X connect 9 0 10 0;
#X connect 9 1 8 1;
#X connect 10 0 8 0;
#X connect 11 0 31 0;
#X connect 12 0 13 0;
#X connect 13 0 6 2;
#X connect 13 0 7 1;
#X connect 13 0 21 0;
#X connect 13 0 24 0;
#X connect 13 0 27 1;
#X connect 14 0 18 0;
#X connect 15 0 14 0;
#X connect 15 1 18 1;
#X connect 17 0 32 0;
#X connect 18 0 19 0;
#X connect 19 0 17 1;
#X connect 20 0 22 0;
#X connect 21 0 20 0;
#X connect 21 1 22 1;
#X connect 22 0 19 1;
#X connect 24 0 15 0;
#X connect 27 0 17 0;
#X connect 31 0 9 0;
#X connect 31 0 12 0;
#X connect 32 0 3 0;
#X connect 33 0 2 0;
#X connect 34 0 45 0;
#X connect 34 0 46 0;
#X connect 34 0 47 0;
#X connect 34 0 49 0;
#X connect 35 0 33 1;
#X connect 36 0 2 0;
#X connect 37 0 36 1;
#X connect 38 0 2 0;
#X connect 39 0 38 1;
#X connect 40 0 2 0;
#X connect 41 0 40 1;
#X connect 43 0 35 0;
#X connect 44 0 37 0;
#X connect 45 0 43 0;
#X connect 46 0 44 0;
#X connect 47 0 48 0;
#X connect 48 0 39 0;
#X connect 49 0 50 0;
#X connect 50 0 41 0;
#X connect 51 0 34 0;
#X connect 55 0 33 0;
#X connect 56 0 36 0;
#X connect 57 0 38 0;
#X connect 58 0 40 0;
#X restore 135 207 pd mod4osc1;
#X obj 118 176 mtof;
#N canvas 0 136 1183 715 mod4osc1 0;
#X obj -3 28 phasor~;
#X obj -2 -6 inlet~;
#X obj 72 637 outlet~;
#X obj 66 392 +~ 1;
#X obj 370 200 inlet;
#X obj 22 193 *~;
#X obj 6 146 clip~ 0 0.5;
#X obj 117 169 clip~ 0.5 1;
#X obj 207 91 -;
#X obj 199 43 t b f;
#X msg 200 69 1;
#X obj 198 -32 inlet;
#X obj 132 76 / 2;
#X obj 131 102 + 0.5;
#X msg 224 207 1;
#X obj 226 183 t b f;
#X text 53 186 m;
#X obj 103 300 *~;
#X obj 238 233 -;
#X obj 252 267 /;
#X msg 287 159 1;
#X obj 289 135 t b f;
#X obj 301 185 -;
#X text 120 130 x1;
#X obj 209 144 *;
#X text 238 146 y1;
#X text 258 285 m2;
#X obj 115 252 -~;
#X text 141 254 b2;
#X text 206 213 ak;
#X text 323 160 gk;
#X obj 194 3 clip 0 0.99;
#X obj 66 366 *~ 512;
#X obj 18 507 *~;
#X obj 337 330 * -1;
#X obj 55 480 clip 0 1;
#X obj 51 538 *~;
#X obj 91 517 clip 0 1;
#X obj 82 566 *~;
#X obj 112 546 clip 0 1;
#X obj 99 600 *~;
#X obj 129 580 clip 0 1;
#X text 30 56 9 klasse geometrie...;
#N canvas 0 22 619 465 triangle01 0;
#X obj 262 148 * 2;
#X obj 254 184 - 1;
#X obj 229 201 *;
#X obj 216 90 t f f;
#X obj 193 26 inlet;
#X obj 263 404 outlet;
#X obj 299 114 < 0.5;
#X obj 267 246 -;
#X obj 272 282 + 1;
#X obj 283 322 * 2;
#X connect 0 0 1 0;
#X connect 1 0 2 1;
#X connect 2 0 7 0;
#X connect 3 0 2 0;
#X connect 3 1 6 0;
#X connect 4 0 3 0;
#X connect 6 0 0 0;
#X connect 6 0 7 1;
#X connect 7 0 8 0;
#X connect 8 0 9 0;
#X connect 9 0 5 0;
#X restore 157 413 pd triangle01;
#N canvas 0 22 619 465 triangle01 0;
#X obj 262 148 * 2;
#X obj 254 184 - 1;
#X obj 229 201 *;
#X obj 216 90 t f f;
#X obj 193 26 inlet;
#X obj 263 404 outlet;
#X obj 299 114 < 0.5;
#X obj 267 246 -;
#X obj 272 282 + 1;
#X obj 283 322 * 2;
#X connect 0 0 1 0;
#X connect 1 0 2 1;
#X connect 2 0 7 0;
#X connect 3 0 2 0;
#X connect 3 1 6 0;
#X connect 4 0 3 0;
#X connect 6 0 0 0;
#X connect 6 0 7 1;
#X connect 7 0 8 0;
#X connect 8 0 9 0;
#X connect 9 0 5 0;
#X restore 254 434 pd triangle01;
#X obj 195 376 + 0.5;
#X obj 268 390 + 1;
#X obj 311 397 + 1.5;
#N canvas 0 22 619 465 triangle01 0;
#X obj 262 148 * 2;
#X obj 254 184 - 1;
#X obj 229 201 *;
#X obj 216 90 t f f;
#X obj 193 26 inlet;
#X obj 263 404 outlet;
#X obj 299 114 < 0.5;
#X obj 267 246 -;
#X obj 272 282 + 1;
#X obj 283 322 * 2;
#X connect 0 0 1 0;
#X connect 1 0 2 1;
#X connect 2 0 7 0;
#X connect 3 0 2 0;
#X connect 3 1 6 0;
#X connect 4 0 3 0;
#X connect 6 0 0 0;
#X connect 6 0 7 1;
#X connect 7 0 8 0;
#X connect 8 0 9 0;
#X connect 9 0 5 0;
#X restore 284 465 pd triangle01;
#X obj 327 492 + 2;
#N canvas 0 22 619 465 triangle01 0;
#X obj 262 148 * 2;
#X obj 254 184 - 1;
#X obj 229 201 *;
#X obj 216 90 t f f;
#X obj 193 26 inlet;
#X obj 263 404 outlet;
#X obj 299 114 < 0.5;
#X obj 267 246 -;
#X obj 272 282 + 1;
#X obj 283 322 * 2;
#X connect 0 0 1 0;
#X connect 1 0 2 1;
#X connect 2 0 7 0;
#X connect 3 0 2 0;
#X connect 3 1 6 0;
#X connect 4 0 3 0;
#X connect 6 0 0 0;
#X connect 6 0 7 1;
#X connect 7 0 8 0;
#X connect 8 0 9 0;
#X connect 9 0 5 0;
#X restore 335 515 pd triangle01;
#X obj 364 232 * 1.5;
#X text 53 -4 freq;
#X text 414 199 wave;
#X text 241 -32 geom;
#X obj 66 440 tabread4~ \$0squarewave;
#X obj 122 474 tabread4~ \$0sawwave;
#X obj 173 513 tabread4~ \$0triwave;
#X obj 198 549 tabread4~ \$0sinewave;
#X connect 0 0 7 0;
#X connect 0 0 6 0;
#X connect 1 0 0 0;
#X connect 3 0 55 0;
#X connect 3 0 56 0;
#X connect 3 0 57 0;
#X connect 3 0 58 0;
#X connect 4 0 51 0;
#X connect 5 0 32 0;
#X connect 6 0 5 0;
#X connect 7 0 27 0;
#X connect 8 0 5 1;
#X connect 8 0 24 1;
#X connect 9 0 10 0;
#X connect 9 1 8 1;
#X connect 10 0 8 0;
#X connect 11 0 31 0;
#X connect 12 0 13 0;
#X connect 13 0 6 2;
#X connect 13 0 7 1;
#X connect 13 0 21 0;
#X connect 13 0 24 0;
#X connect 13 0 27 1;
#X connect 14 0 18 0;
#X connect 15 0 14 0;
#X connect 15 1 18 1;
#X connect 17 0 32 0;
#X connect 18 0 19 0;
#X connect 19 0 17 1;
#X connect 20 0 22 0;
#X connect 21 0 20 0;
#X connect 21 1 22 1;
#X connect 22 0 19 1;
#X connect 24 0 15 0;
#X connect 27 0 17 0;
#X connect 31 0 9 0;
#X connect 31 0 12 0;
#X connect 32 0 3 0;
#X connect 33 0 2 0;
#X connect 34 0 45 0;
#X connect 34 0 46 0;
#X connect 34 0 47 0;
#X connect 34 0 49 0;
#X connect 35 0 33 1;
#X connect 36 0 2 0;
#X connect 37 0 36 1;
#X connect 38 0 2 0;
#X connect 39 0 38 1;
#X connect 40 0 2 0;
#X connect 41 0 40 1;
#X connect 43 0 35 0;
#X connect 44 0 37 0;
#X connect 45 0 43 0;
#X connect 46 0 44 0;
#X connect 47 0 48 0;
#X connect 48 0 39 0;
#X connect 49 0 50 0;
#X connect 50 0 41 0;
#X connect 51 0 34 0;
#X connect 55 0 33 0;
#X connect 56 0 36 0;
#X connect 57 0 38 0;
#X connect 58 0 40 0;
#X restore 48 209 pd mod4osc1;
#X obj 47 183 mtof;
#X obj 108 136 +;
#X obj 47 142 -;
#X obj 95 267 outlet~;
#X text 277 35 wave;
#X text 225 35 geom;
#X connect 0 0 11 0;
#X connect 0 0 10 0;
#X connect 1 0 8 1;
#X connect 1 0 6 1;
#X connect 2 0 8 2;
#X connect 2 0 6 2;
#X connect 3 0 11 1;
#X connect 3 0 10 1;
#X connect 6 0 12 0;
#X connect 7 0 6 0;
#X connect 8 0 12 0;
#X connect 9 0 8 0;
#X connect 10 0 7 0;
#X connect 11 0 9 0;
#X restore -219 350 pd twooscs1;
#X obj -145 319 +;
#X obj -249 456 *~ 0.25;
#N canvas 0 22 450 300 twooscs1 0;
#X obj 50 39 inlet;
#X obj 227 54 inlet;
#X obj 275 55 inlet;
#X obj 98 39 inlet;
#X text 58 14 pitch;
#X text 108 18 det;
#N canvas 0 136 1183 715 mod4osc1 0;
#X obj -3 28 phasor~;
#X obj -2 -6 inlet~;
#X obj 72 637 outlet~;
#X obj 66 392 +~ 1;
#X obj 370 200 inlet;
#X obj 22 193 *~;
#X obj 6 146 clip~ 0 0.5;
#X obj 117 169 clip~ 0.5 1;
#X obj 207 91 -;
#X obj 199 43 t b f;
#X msg 200 69 1;
#X obj 198 -32 inlet;
#X obj 132 76 / 2;
#X obj 131 102 + 0.5;
#X msg 224 207 1;
#X obj 226 183 t b f;
#X text 53 186 m;
#X obj 103 300 *~;
#X obj 238 233 -;
#X obj 252 267 /;
#X msg 287 159 1;
#X obj 289 135 t b f;
#X obj 301 185 -;
#X text 120 130 x1;
#X obj 209 144 *;
#X text 238 146 y1;
#X text 258 285 m2;
#X obj 115 252 -~;
#X text 141 254 b2;
#X text 206 213 ak;
#X text 323 160 gk;
#X obj 194 3 clip 0 0.99;
#X obj 66 366 *~ 512;
#X obj 18 507 *~;
#X obj 337 330 * -1;
#X obj 55 480 clip 0 1;
#X obj 51 538 *~;
#X obj 91 517 clip 0 1;
#X obj 82 566 *~;
#X obj 112 546 clip 0 1;
#X obj 99 600 *~;
#X obj 129 580 clip 0 1;
#X text 30 56 9 klasse geometrie...;
#N canvas 0 22 619 465 triangle01 0;
#X obj 262 148 * 2;
#X obj 254 184 - 1;
#X obj 229 201 *;
#X obj 216 90 t f f;
#X obj 193 26 inlet;
#X obj 263 404 outlet;
#X obj 299 114 < 0.5;
#X obj 267 246 -;
#X obj 272 282 + 1;
#X obj 283 322 * 2;
#X connect 0 0 1 0;
#X connect 1 0 2 1;
#X connect 2 0 7 0;
#X connect 3 0 2 0;
#X connect 3 1 6 0;
#X connect 4 0 3 0;
#X connect 6 0 0 0;
#X connect 6 0 7 1;
#X connect 7 0 8 0;
#X connect 8 0 9 0;
#X connect 9 0 5 0;
#X restore 157 413 pd triangle01;
#N canvas 0 22 619 465 triangle01 0;
#X obj 262 148 * 2;
#X obj 254 184 - 1;
#X obj 229 201 *;
#X obj 216 90 t f f;
#X obj 193 26 inlet;
#X obj 263 404 outlet;
#X obj 299 114 < 0.5;
#X obj 267 246 -;
#X obj 272 282 + 1;
#X obj 283 322 * 2;
#X connect 0 0 1 0;
#X connect 1 0 2 1;
#X connect 2 0 7 0;
#X connect 3 0 2 0;
#X connect 3 1 6 0;
#X connect 4 0 3 0;
#X connect 6 0 0 0;
#X connect 6 0 7 1;
#X connect 7 0 8 0;
#X connect 8 0 9 0;
#X connect 9 0 5 0;
#X restore 254 434 pd triangle01;
#X obj 195 376 + 0.5;
#X obj 268 390 + 1;
#X obj 311 397 + 1.5;
#N canvas 0 22 619 465 triangle01 0;
#X obj 262 148 * 2;
#X obj 254 184 - 1;
#X obj 229 201 *;
#X obj 216 90 t f f;
#X obj 193 26 inlet;
#X obj 263 404 outlet;
#X obj 299 114 < 0.5;
#X obj 267 246 -;
#X obj 272 282 + 1;
#X obj 283 322 * 2;
#X connect 0 0 1 0;
#X connect 1 0 2 1;
#X connect 2 0 7 0;
#X connect 3 0 2 0;
#X connect 3 1 6 0;
#X connect 4 0 3 0;
#X connect 6 0 0 0;
#X connect 6 0 7 1;
#X connect 7 0 8 0;
#X connect 8 0 9 0;
#X connect 9 0 5 0;
#X restore 284 465 pd triangle01;
#X obj 327 492 + 2;
#N canvas 0 22 619 465 triangle01 0;
#X obj 262 148 * 2;
#X obj 254 184 - 1;
#X obj 229 201 *;
#X obj 216 90 t f f;
#X obj 193 26 inlet;
#X obj 263 404 outlet;
#X obj 299 114 < 0.5;
#X obj 267 246 -;
#X obj 272 282 + 1;
#X obj 283 322 * 2;
#X connect 0 0 1 0;
#X connect 1 0 2 1;
#X connect 2 0 7 0;
#X connect 3 0 2 0;
#X connect 3 1 6 0;
#X connect 4 0 3 0;
#X connect 6 0 0 0;
#X connect 6 0 7 1;
#X connect 7 0 8 0;
#X connect 8 0 9 0;
#X connect 9 0 5 0;
#X restore 335 515 pd triangle01;
#X obj 364 232 * 1.5;
#X text 53 -4 freq;
#X text 414 199 wave;
#X text 241 -32 geom;
#X obj 65 439 tabread4~ \$0squarewave;
#X obj 122 474 tabread4~ \$0sawwave;
#X obj 173 514 tabread4~ \$0triwave;
#X obj 199 549 tabread4~ \$0sinewave;
#X connect 0 0 7 0;
#X connect 0 0 6 0;
#X connect 1 0 0 0;
#X connect 3 0 55 0;
#X connect 3 0 56 0;
#X connect 3 0 57 0;
#X connect 3 0 58 0;
#X connect 4 0 51 0;
#X connect 5 0 32 0;
#X connect 6 0 5 0;
#X connect 7 0 27 0;
#X connect 8 0 5 1;
#X connect 8 0 24 1;
#X connect 9 0 10 0;
#X connect 9 1 8 1;
#X connect 10 0 8 0;
#X connect 11 0 31 0;
#X connect 12 0 13 0;
#X connect 13 0 6 2;
#X connect 13 0 7 1;
#X connect 13 0 21 0;
#X connect 13 0 24 0;
#X connect 13 0 27 1;
#X connect 14 0 18 0;
#X connect 15 0 14 0;
#X connect 15 1 18 1;
#X connect 17 0 32 0;
#X connect 18 0 19 0;
#X connect 19 0 17 1;
#X connect 20 0 22 0;
#X connect 21 0 20 0;
#X connect 21 1 22 1;
#X connect 22 0 19 1;
#X connect 24 0 15 0;
#X connect 27 0 17 0;
#X connect 31 0 9 0;
#X connect 31 0 12 0;
#X connect 32 0 3 0;
#X connect 33 0 2 0;
#X connect 34 0 45 0;
#X connect 34 0 46 0;
#X connect 34 0 47 0;
#X connect 34 0 49 0;
#X connect 35 0 33 1;
#X connect 36 0 2 0;
#X connect 37 0 36 1;
#X connect 38 0 2 0;
#X connect 39 0 38 1;
#X connect 40 0 2 0;
#X connect 41 0 40 1;
#X connect 43 0 35 0;
#X connect 44 0 37 0;
#X connect 45 0 43 0;
#X connect 46 0 44 0;
#X connect 47 0 48 0;
#X connect 48 0 39 0;
#X connect 49 0 50 0;
#X connect 50 0 41 0;
#X connect 51 0 34 0;
#X connect 55 0 33 0;
#X connect 56 0 36 0;
#X connect 57 0 38 0;
#X connect 58 0 40 0;
#X restore 135 207 pd mod4osc1;
#X obj 118 176 mtof;
#N canvas 0 136 1183 715 mod4osc1 0;
#X obj -3 28 phasor~;
#X obj -2 -6 inlet~;
#X obj 72 637 outlet~;
#X obj 66 392 +~ 1;
#X obj 370 200 inlet;
#X obj 22 193 *~;
#X obj 6 146 clip~ 0 0.5;
#X obj 117 169 clip~ 0.5 1;
#X obj 207 91 -;
#X obj 199 43 t b f;
#X msg 200 69 1;
#X obj 198 -32 inlet;
#X obj 132 76 / 2;
#X obj 131 102 + 0.5;
#X msg 224 207 1;
#X obj 226 183 t b f;
#X text 53 186 m;
#X obj 103 300 *~;
#X obj 238 233 -;
#X obj 252 267 /;
#X msg 287 159 1;
#X obj 289 135 t b f;
#X obj 301 185 -;
#X text 120 130 x1;
#X obj 209 144 *;
#X text 238 146 y1;
#X text 258 285 m2;
#X obj 115 252 -~;
#X text 141 254 b2;
#X text 206 213 ak;
#X text 323 160 gk;
#X obj 194 3 clip 0 0.99;
#X obj 66 366 *~ 512;
#X obj 18 507 *~;
#X obj 337 330 * -1;
#X obj 55 480 clip 0 1;
#X obj 51 538 *~;
#X obj 91 517 clip 0 1;
#X obj 82 566 *~;
#X obj 112 546 clip 0 1;
#X obj 99 600 *~;
#X obj 129 580 clip 0 1;
#X text 30 56 9 klasse geometrie...;
#N canvas 0 22 619 465 triangle01 0;
#X obj 262 148 * 2;
#X obj 254 184 - 1;
#X obj 229 201 *;
#X obj 216 90 t f f;
#X obj 193 26 inlet;
#X obj 263 404 outlet;
#X obj 299 114 < 0.5;
#X obj 267 246 -;
#X obj 272 282 + 1;
#X obj 283 322 * 2;
#X connect 0 0 1 0;
#X connect 1 0 2 1;
#X connect 2 0 7 0;
#X connect 3 0 2 0;
#X connect 3 1 6 0;
#X connect 4 0 3 0;
#X connect 6 0 0 0;
#X connect 6 0 7 1;
#X connect 7 0 8 0;
#X connect 8 0 9 0;
#X connect 9 0 5 0;
#X restore 157 413 pd triangle01;
#N canvas 0 22 619 465 triangle01 0;
#X obj 262 148 * 2;
#X obj 254 184 - 1;
#X obj 229 201 *;
#X obj 216 90 t f f;
#X obj 193 26 inlet;
#X obj 263 404 outlet;
#X obj 299 114 < 0.5;
#X obj 267 246 -;
#X obj 272 282 + 1;
#X obj 283 322 * 2;
#X connect 0 0 1 0;
#X connect 1 0 2 1;
#X connect 2 0 7 0;
#X connect 3 0 2 0;
#X connect 3 1 6 0;
#X connect 4 0 3 0;
#X connect 6 0 0 0;
#X connect 6 0 7 1;
#X connect 7 0 8 0;
#X connect 8 0 9 0;
#X connect 9 0 5 0;
#X restore 254 434 pd triangle01;
#X obj 195 376 + 0.5;
#X obj 268 390 + 1;
#X obj 311 397 + 1.5;
#N canvas 0 22 619 465 triangle01 0;
#X obj 262 148 * 2;
#X obj 254 184 - 1;
#X obj 229 201 *;
#X obj 216 90 t f f;
#X obj 193 26 inlet;
#X obj 263 404 outlet;
#X obj 299 114 < 0.5;
#X obj 267 246 -;
#X obj 272 282 + 1;
#X obj 283 322 * 2;
#X connect 0 0 1 0;
#X connect 1 0 2 1;
#X connect 2 0 7 0;
#X connect 3 0 2 0;
#X connect 3 1 6 0;
#X connect 4 0 3 0;
#X connect 6 0 0 0;
#X connect 6 0 7 1;
#X connect 7 0 8 0;
#X connect 8 0 9 0;
#X connect 9 0 5 0;
#X restore 284 465 pd triangle01;
#X obj 327 492 + 2;
#N canvas 0 22 619 465 triangle01 0;
#X obj 262 148 * 2;
#X obj 254 184 - 1;
#X obj 229 201 *;
#X obj 216 90 t f f;
#X obj 193 26 inlet;
#X obj 263 404 outlet;
#X obj 299 114 < 0.5;
#X obj 267 246 -;
#X obj 272 282 + 1;
#X obj 283 322 * 2;
#X connect 0 0 1 0;
#X connect 1 0 2 1;
#X connect 2 0 7 0;
#X connect 3 0 2 0;
#X connect 3 1 6 0;
#X connect 4 0 3 0;
#X connect 6 0 0 0;
#X connect 6 0 7 1;
#X connect 7 0 8 0;
#X connect 8 0 9 0;
#X connect 9 0 5 0;
#X restore 335 515 pd triangle01;
#X obj 364 232 * 1.5;
#X text 53 -4 freq;
#X text 414 199 wave;
#X text 241 -32 geom;
#X obj 66 440 tabread4~ \$0squarewave;
#X obj 122 474 tabread4~ \$0sawwave;
#X obj 173 513 tabread4~ \$0triwave;
#X obj 198 549 tabread4~ \$0sinewave;
#X connect 0 0 7 0;
#X connect 0 0 6 0;
#X connect 1 0 0 0;
#X connect 3 0 55 0;
#X connect 3 0 56 0;
#X connect 3 0 57 0;
#X connect 3 0 58 0;
#X connect 4 0 51 0;
#X connect 5 0 32 0;
#X connect 6 0 5 0;
#X connect 7 0 27 0;
#X connect 8 0 5 1;
#X connect 8 0 24 1;
#X connect 9 0 10 0;
#X connect 9 1 8 1;
#X connect 10 0 8 0;
#X connect 11 0 31 0;
#X connect 12 0 13 0;
#X connect 13 0 6 2;
#X connect 13 0 7 1;
#X connect 13 0 21 0;
#X connect 13 0 24 0;
#X connect 13 0 27 1;
#X connect 14 0 18 0;
#X connect 15 0 14 0;
#X connect 15 1 18 1;
#X connect 17 0 32 0;
#X connect 18 0 19 0;
#X connect 19 0 17 1;
#X connect 20 0 22 0;
#X connect 21 0 20 0;
#X connect 21 1 22 1;
#X connect 22 0 19 1;
#X connect 24 0 15 0;
#X connect 27 0 17 0;
#X connect 31 0 9 0;
#X connect 31 0 12 0;
#X connect 32 0 3 0;
#X connect 33 0 2 0;
#X connect 34 0 45 0;
#X connect 34 0 46 0;
#X connect 34 0 47 0;
#X connect 34 0 49 0;
#X connect 35 0 33 1;
#X connect 36 0 2 0;
#X connect 37 0 36 1;
#X connect 38 0 2 0;
#X connect 39 0 38 1;
#X connect 40 0 2 0;
#X connect 41 0 40 1;
#X connect 43 0 35 0;
#X connect 44 0 37 0;
#X connect 45 0 43 0;
#X connect 46 0 44 0;
#X connect 47 0 48 0;
#X connect 48 0 39 0;
#X connect 49 0 50 0;
#X connect 50 0 41 0;
#X connect 51 0 34 0;
#X connect 55 0 33 0;
#X connect 56 0 36 0;
#X connect 57 0 38 0;
#X connect 58 0 40 0;
#X restore 48 209 pd mod4osc1;
#X obj 47 183 mtof;
#X obj 108 136 +;
#X obj 47 142 -;
#X obj 95 267 outlet~;
#X text 277 35 wave;
#X text 225 35 geom;
#X connect 0 0 11 0;
#X connect 0 0 10 0;
#X connect 1 0 8 1;
#X connect 1 0 6 1;
#X connect 2 0 8 2;
#X connect 2 0 6 2;
#X connect 3 0 11 1;
#X connect 3 0 10 1;
#X connect 6 0 12 0;
#X connect 7 0 6 0;
#X connect 8 0 12 0;
#X connect 9 0 8 0;
#X connect 10 0 7 0;
#X connect 11 0 9 0;
#X restore -201 392 pd twooscs1;
#X obj -127 361 +;
#N canvas 0 22 450 300 twooscs1 0;
#X obj 50 39 inlet;
#X obj 227 54 inlet;
#X obj 275 55 inlet;
#X obj 98 39 inlet;
#X text 58 14 pitch;
#X text 108 18 det;
#N canvas 0 136 1183 715 mod4osc1 0;
#X obj -3 28 phasor~;
#X obj -2 -6 inlet~;
#X obj 72 637 outlet~;
#X obj 66 392 +~ 1;
#X obj 370 200 inlet;
#X obj 22 193 *~;
#X obj 6 146 clip~ 0 0.5;
#X obj 117 169 clip~ 0.5 1;
#X obj 207 91 -;
#X obj 199 43 t b f;
#X msg 200 69 1;
#X obj 198 -32 inlet;
#X obj 132 76 / 2;
#X obj 131 102 + 0.5;
#X msg 224 207 1;
#X obj 226 183 t b f;
#X text 53 186 m;
#X obj 103 300 *~;
#X obj 238 233 -;
#X obj 252 267 /;
#X msg 287 159 1;
#X obj 289 135 t b f;
#X obj 301 185 -;
#X text 120 130 x1;
#X obj 209 144 *;
#X text 238 146 y1;
#X text 258 285 m2;
#X obj 115 252 -~;
#X text 141 254 b2;
#X text 206 213 ak;
#X text 323 160 gk;
#X obj 194 3 clip 0 0.99;
#X obj 66 366 *~ 512;
#X obj 18 507 *~;
#X obj 337 330 * -1;
#X obj 55 480 clip 0 1;
#X obj 51 538 *~;
#X obj 91 517 clip 0 1;
#X obj 82 566 *~;
#X obj 112 546 clip 0 1;
#X obj 99 600 *~;
#X obj 129 580 clip 0 1;
#X text 30 56 9 klasse geometrie...;
#N canvas 0 22 619 465 triangle01 0;
#X obj 262 148 * 2;
#X obj 254 184 - 1;
#X obj 229 201 *;
#X obj 216 90 t f f;
#X obj 193 26 inlet;
#X obj 263 404 outlet;
#X obj 299 114 < 0.5;
#X obj 267 246 -;
#X obj 272 282 + 1;
#X obj 283 322 * 2;
#X connect 0 0 1 0;
#X connect 1 0 2 1;
#X connect 2 0 7 0;
#X connect 3 0 2 0;
#X connect 3 1 6 0;
#X connect 4 0 3 0;
#X connect 6 0 0 0;
#X connect 6 0 7 1;
#X connect 7 0 8 0;
#X connect 8 0 9 0;
#X connect 9 0 5 0;
#X restore 157 413 pd triangle01;
#N canvas 0 22 619 465 triangle01 0;
#X obj 262 148 * 2;
#X obj 254 184 - 1;
#X obj 229 201 *;
#X obj 216 90 t f f;
#X obj 193 26 inlet;
#X obj 263 404 outlet;
#X obj 299 114 < 0.5;
#X obj 267 246 -;
#X obj 272 282 + 1;
#X obj 283 322 * 2;
#X connect 0 0 1 0;
#X connect 1 0 2 1;
#X connect 2 0 7 0;
#X connect 3 0 2 0;
#X connect 3 1 6 0;
#X connect 4 0 3 0;
#X connect 6 0 0 0;
#X connect 6 0 7 1;
#X connect 7 0 8 0;
#X connect 8 0 9 0;
#X connect 9 0 5 0;
#X restore 254 434 pd triangle01;
#X obj 195 376 + 0.5;
#X obj 268 390 + 1;
#X obj 311 397 + 1.5;
#N canvas 0 22 619 465 triangle01 0;
#X obj 262 148 * 2;
#X obj 254 184 - 1;
#X obj 229 201 *;
#X obj 216 90 t f f;
#X obj 193 26 inlet;
#X obj 263 404 outlet;
#X obj 299 114 < 0.5;
#X obj 267 246 -;
#X obj 272 282 + 1;
#X obj 283 322 * 2;
#X connect 0 0 1 0;
#X connect 1 0 2 1;
#X connect 2 0 7 0;
#X connect 3 0 2 0;
#X connect 3 1 6 0;
#X connect 4 0 3 0;
#X connect 6 0 0 0;
#X connect 6 0 7 1;
#X connect 7 0 8 0;
#X connect 8 0 9 0;
#X connect 9 0 5 0;
#X restore 284 465 pd triangle01;
#X obj 327 492 + 2;
#N canvas 0 22 619 465 triangle01 0;
#X obj 262 148 * 2;
#X obj 254 184 - 1;
#X obj 229 201 *;
#X obj 216 90 t f f;
#X obj 193 26 inlet;
#X obj 263 404 outlet;
#X obj 299 114 < 0.5;
#X obj 267 246 -;
#X obj 272 282 + 1;
#X obj 283 322 * 2;
#X connect 0 0 1 0;
#X connect 1 0 2 1;
#X connect 2 0 7 0;
#X connect 3 0 2 0;
#X connect 3 1 6 0;
#X connect 4 0 3 0;
#X connect 6 0 0 0;
#X connect 6 0 7 1;
#X connect 7 0 8 0;
#X connect 8 0 9 0;
#X connect 9 0 5 0;
#X restore 335 515 pd triangle01;
#X obj 364 232 * 1.5;
#X text 53 -4 freq;
#X text 414 199 wave;
#X text 241 -32 geom;
#X obj 65 439 tabread4~ \$0squarewave;
#X obj 122 474 tabread4~ \$0sawwave;
#X obj 173 514 tabread4~ \$0triwave;
#X obj 199 549 tabread4~ \$0sinewave;
#X connect 0 0 7 0;
#X connect 0 0 6 0;
#X connect 1 0 0 0;
#X connect 3 0 55 0;
#X connect 3 0 56 0;
#X connect 3 0 57 0;
#X connect 3 0 58 0;
#X connect 4 0 51 0;
#X connect 5 0 32 0;
#X connect 6 0 5 0;
#X connect 7 0 27 0;
#X connect 8 0 5 1;
#X connect 8 0 24 1;
#X connect 9 0 10 0;
#X connect 9 1 8 1;
#X connect 10 0 8 0;
#X connect 11 0 31 0;
#X connect 12 0 13 0;
#X connect 13 0 6 2;
#X connect 13 0 7 1;
#X connect 13 0 21 0;
#X connect 13 0 24 0;
#X connect 13 0 27 1;
#X connect 14 0 18 0;
#X connect 15 0 14 0;
#X connect 15 1 18 1;
#X connect 17 0 32 0;
#X connect 18 0 19 0;
#X connect 19 0 17 1;
#X connect 20 0 22 0;
#X connect 21 0 20 0;
#X connect 21 1 22 1;
#X connect 22 0 19 1;
#X connect 24 0 15 0;
#X connect 27 0 17 0;
#X connect 31 0 9 0;
#X connect 31 0 12 0;
#X connect 32 0 3 0;
#X connect 33 0 2 0;
#X connect 34 0 45 0;
#X connect 34 0 46 0;
#X connect 34 0 47 0;
#X connect 34 0 49 0;
#X connect 35 0 33 1;
#X connect 36 0 2 0;
#X connect 37 0 36 1;
#X connect 38 0 2 0;
#X connect 39 0 38 1;
#X connect 40 0 2 0;
#X connect 41 0 40 1;
#X connect 43 0 35 0;
#X connect 44 0 37 0;
#X connect 45 0 43 0;
#X connect 46 0 44 0;
#X connect 47 0 48 0;
#X connect 48 0 39 0;
#X connect 49 0 50 0;
#X connect 50 0 41 0;
#X connect 51 0 34 0;
#X connect 55 0 33 0;
#X connect 56 0 36 0;
#X connect 57 0 38 0;
#X connect 58 0 40 0;
#X restore 135 207 pd mod4osc1;
#X obj 118 176 mtof;
#N canvas 0 136 1183 715 mod4osc1 0;
#X obj -3 28 phasor~;
#X obj -2 -6 inlet~;
#X obj 72 637 outlet~;
#X obj 66 392 +~ 1;
#X obj 370 200 inlet;
#X obj 22 193 *~;
#X obj 6 146 clip~ 0 0.5;
#X obj 117 169 clip~ 0.5 1;
#X obj 207 91 -;
#X obj 199 43 t b f;
#X msg 200 69 1;
#X obj 198 -32 inlet;
#X obj 132 76 / 2;
#X obj 131 102 + 0.5;
#X msg 224 207 1;
#X obj 226 183 t b f;
#X text 53 186 m;
#X obj 103 300 *~;
#X obj 238 233 -;
#X obj 252 267 /;
#X msg 287 159 1;
#X obj 289 135 t b f;
#X obj 301 185 -;
#X text 120 130 x1;
#X obj 209 144 *;
#X text 238 146 y1;
#X text 258 285 m2;
#X obj 115 252 -~;
#X text 141 254 b2;
#X text 206 213 ak;
#X text 323 160 gk;
#X obj 194 3 clip 0 0.99;
#X obj 66 366 *~ 512;
#X obj 18 507 *~;
#X obj 337 330 * -1;
#X obj 55 480 clip 0 1;
#X obj 51 538 *~;
#X obj 91 517 clip 0 1;
#X obj 82 566 *~;
#X obj 112 546 clip 0 1;
#X obj 99 600 *~;
#X obj 129 580 clip 0 1;
#X text 30 56 9 klasse geometrie...;
#N canvas 0 22 619 465 triangle01 0;
#X obj 262 148 * 2;
#X obj 254 184 - 1;
#X obj 229 201 *;
#X obj 216 90 t f f;
#X obj 193 26 inlet;
#X obj 263 404 outlet;
#X obj 299 114 < 0.5;
#X obj 267 246 -;
#X obj 272 282 + 1;
#X obj 283 322 * 2;
#X connect 0 0 1 0;
#X connect 1 0 2 1;
#X connect 2 0 7 0;
#X connect 3 0 2 0;
#X connect 3 1 6 0;
#X connect 4 0 3 0;
#X connect 6 0 0 0;
#X connect 6 0 7 1;
#X connect 7 0 8 0;
#X connect 8 0 9 0;
#X connect 9 0 5 0;
#X restore 157 413 pd triangle01;
#N canvas 0 22 619 465 triangle01 0;
#X obj 262 148 * 2;
#X obj 254 184 - 1;
#X obj 229 201 *;
#X obj 216 90 t f f;
#X obj 193 26 inlet;
#X obj 263 404 outlet;
#X obj 299 114 < 0.5;
#X obj 267 246 -;
#X obj 272 282 + 1;
#X obj 283 322 * 2;
#X connect 0 0 1 0;
#X connect 1 0 2 1;
#X connect 2 0 7 0;
#X connect 3 0 2 0;
#X connect 3 1 6 0;
#X connect 4 0 3 0;
#X connect 6 0 0 0;
#X connect 6 0 7 1;
#X connect 7 0 8 0;
#X connect 8 0 9 0;
#X connect 9 0 5 0;
#X restore 254 434 pd triangle01;
#X obj 195 376 + 0.5;
#X obj 268 390 + 1;
#X obj 311 397 + 1.5;
#N canvas 0 22 619 465 triangle01 0;
#X obj 262 148 * 2;
#X obj 254 184 - 1;
#X obj 229 201 *;
#X obj 216 90 t f f;
#X obj 193 26 inlet;
#X obj 263 404 outlet;
#X obj 299 114 < 0.5;
#X obj 267 246 -;
#X obj 272 282 + 1;
#X obj 283 322 * 2;
#X connect 0 0 1 0;
#X connect 1 0 2 1;
#X connect 2 0 7 0;
#X connect 3 0 2 0;
#X connect 3 1 6 0;
#X connect 4 0 3 0;
#X connect 6 0 0 0;
#X connect 6 0 7 1;
#X connect 7 0 8 0;
#X connect 8 0 9 0;
#X connect 9 0 5 0;
#X restore 284 465 pd triangle01;
#X obj 327 492 + 2;
#N canvas 0 22 619 465 triangle01 0;
#X obj 262 148 * 2;
#X obj 254 184 - 1;
#X obj 229 201 *;
#X obj 216 90 t f f;
#X obj 193 26 inlet;
#X obj 263 404 outlet;
#X obj 299 114 < 0.5;
#X obj 267 246 -;
#X obj 272 282 + 1;
#X obj 283 322 * 2;
#X connect 0 0 1 0;
#X connect 1 0 2 1;
#X connect 2 0 7 0;
#X connect 3 0 2 0;
#X connect 3 1 6 0;
#X connect 4 0 3 0;
#X connect 6 0 0 0;
#X connect 6 0 7 1;
#X connect 7 0 8 0;
#X connect 8 0 9 0;
#X connect 9 0 5 0;
#X restore 335 515 pd triangle01;
#X obj 364 232 * 1.5;
#X text 53 -4 freq;
#X text 414 199 wave;
#X text 241 -32 geom;
#X obj 66 440 tabread4~ \$0squarewave;
#X obj 122 474 tabread4~ \$0sawwave;
#X obj 173 513 tabread4~ \$0triwave;
#X obj 198 549 tabread4~ \$0sinewave;
#X connect 0 0 7 0;
#X connect 0 0 6 0;
#X connect 1 0 0 0;
#X connect 3 0 55 0;
#X connect 3 0 56 0;
#X connect 3 0 57 0;
#X connect 3 0 58 0;
#X connect 4 0 51 0;
#X connect 5 0 32 0;
#X connect 6 0 5 0;
#X connect 7 0 27 0;
#X connect 8 0 5 1;
#X connect 8 0 24 1;
#X connect 9 0 10 0;
#X connect 9 1 8 1;
#X connect 10 0 8 0;
#X connect 11 0 31 0;
#X connect 12 0 13 0;
#X connect 13 0 6 2;
#X connect 13 0 7 1;
#X connect 13 0 21 0;
#X connect 13 0 24 0;
#X connect 13 0 27 1;
#X connect 14 0 18 0;
#X connect 15 0 14 0;
#X connect 15 1 18 1;
#X connect 17 0 32 0;
#X connect 18 0 19 0;
#X connect 19 0 17 1;
#X connect 20 0 22 0;
#X connect 21 0 20 0;
#X connect 21 1 22 1;
#X connect 22 0 19 1;
#X connect 24 0 15 0;
#X connect 27 0 17 0;
#X connect 31 0 9 0;
#X connect 31 0 12 0;
#X connect 32 0 3 0;
#X connect 33 0 2 0;
#X connect 34 0 45 0;
#X connect 34 0 46 0;
#X connect 34 0 47 0;
#X connect 34 0 49 0;
#X connect 35 0 33 1;
#X connect 36 0 2 0;
#X connect 37 0 36 1;
#X connect 38 0 2 0;
#X connect 39 0 38 1;
#X connect 40 0 2 0;
#X connect 41 0 40 1;
#X connect 43 0 35 0;
#X connect 44 0 37 0;
#X connect 45 0 43 0;
#X connect 46 0 44 0;
#X connect 47 0 48 0;
#X connect 48 0 39 0;
#X connect 49 0 50 0;
#X connect 50 0 41 0;
#X connect 51 0 34 0;
#X connect 55 0 33 0;
#X connect 56 0 36 0;
#X connect 57 0 38 0;
#X connect 58 0 40 0;
#X restore 48 209 pd mod4osc1;
#X obj 47 183 mtof;
#X obj 108 136 +;
#X obj 47 142 -;
#X obj 95 267 outlet~;
#X text 277 35 wave;
#X text 225 35 geom;
#X connect 0 0 11 0;
#X connect 0 0 10 0;
#X connect 1 0 8 1;
#X connect 1 0 6 1;
#X connect 2 0 8 2;
#X connect 2 0 6 2;
#X connect 3 0 11 1;
#X connect 3 0 10 1;
#X connect 6 0 12 0;
#X connect 7 0 6 0;
#X connect 8 0 12 0;
#X connect 9 0 8 0;
#X connect 10 0 7 0;
#X connect 11 0 9 0;
#X restore -164 424 pd twooscs1;
#X obj -87 394 +;
#X connect 0 0 20 1;
#X connect 0 0 20 0;
#X connect 1 0 45 0;
#X connect 2 0 3 1;
#X connect 3 0 70 0;
#X connect 3 0 85 0;
#X connect 3 0 88 0;
#X connect 3 0 90 0;
#X connect 4 0 32 0;
#X connect 5 0 37 2;
#X connect 5 0 65 0;
#X connect 6 0 34 0;
#X connect 7 0 10 0;
#X connect 8 0 38 1;
#X connect 8 0 39 1;
#X connect 9 0 15 0;
#X connect 10 0 67 0;
#X connect 11 0 3 0;
#X connect 13 0 47 0;
#X connect 16 0 7 1;
#X connect 16 0 58 1;
#X connect 17 0 19 0;
#X connect 18 0 16 1;
#X connect 19 0 16 0;
#X connect 19 1 18 0;
#X connect 20 0 22 1;
#X connect 20 0 22 0;
#X connect 21 0 60 1;
#X connect 22 0 21 0;
#X connect 23 0 29 0;
#X connect 24 0 27 0;
#X connect 27 0 28 0;
#X connect 28 0 33 0;
#X connect 29 0 30 0;
#X connect 30 0 31 0;
#X connect 31 0 10 1;
#X connect 31 0 57 1;
#X connect 32 0 31 0;
#X connect 32 1 31 1;
#X connect 33 0 16 0;
#X connect 34 0 33 0;
#X connect 34 1 33 1;
#X connect 35 0 70 2;
#X connect 35 0 84 2;
#X connect 35 0 87 2;
#X connect 35 0 89 2;
#X connect 36 0 70 3;
#X connect 36 0 84 3;
#X connect 36 0 89 3;
#X connect 36 0 87 3;
#X connect 37 0 40 0;
#X connect 38 0 39 0;
#X connect 39 0 9 0;
#X connect 40 0 42 0;
#X connect 41 0 44 1;
#X connect 42 0 38 0;
#X connect 43 0 63 0;
#X connect 43 1 41 0;
#X connect 44 0 42 1;
#X connect 45 0 2 0;
#X connect 46 0 70 1;
#X connect 46 0 84 1;
#X connect 46 0 87 1;
#X connect 46 0 89 1;
#X connect 47 0 60 0;
#X connect 48 0 51 1;
#X connect 48 0 51 0;
#X connect 49 0 54 1;
#X connect 49 0 54 0;
#X connect 50 0 60 3;
#X connect 51 0 53 1;
#X connect 51 0 53 0;
#X connect 52 0 60 2;
#X connect 53 0 52 0;
#X connect 54 0 56 1;
#X connect 54 0 56 0;
#X connect 55 0 60 4;
#X connect 56 0 55 0;
#X connect 57 0 66 0;
#X connect 58 0 57 0;
#X connect 59 0 37 1;
#X connect 60 0 7 0;
#X connect 60 0 62 0;
#X connect 61 0 58 0;
#X connect 61 0 69 0;
#X connect 61 0 69 1;
#X connect 62 0 61 0;
#X connect 63 0 44 0;
#X connect 64 0 40 1;
#X connect 65 0 64 0;
#X connect 66 0 59 0;
#X connect 67 0 8 0;
#X connect 67 0 43 0;
#X connect 69 0 9 1;
#X connect 70 0 86 0;
#X connect 73 0 77 0;
#X connect 73 0 85 1;
#X connect 74 0 79 0;
#X connect 74 0 88 1;
#X connect 75 0 81 0;
#X connect 75 0 90 1;
#X connect 76 0 78 0;
#X connect 76 0 80 0;
#X connect 76 0 82 0;
#X connect 77 0 78 0;
#X connect 78 0 73 0;
#X connect 79 0 80 0;
#X connect 80 0 74 0;
#X connect 81 0 82 0;
#X connect 82 0 75 0;
#X connect 84 0 86 0;
#X connect 85 0 84 0;
#X connect 86 0 37 0;
#X connect 87 0 86 0;
#X connect 88 0 87 0;
#X connect 89 0 86 0;
#X connect 90 0 89 0;
#X coords 0 -1 1 1 182 100 1 100 100;
#X restore 21 47 pd twooscchord1;
#X connect 0 0 7 0;
#X connect 0 1 13 0;
#X connect 1 0 3 0;
#X connect 2 0 12 0;
#X connect 3 0 5 0;
#X connect 4 0 8 0;
#X connect 5 0 4 0;
#X connect 6 0 7 0;
#X connect 7 0 2 0;
#X connect 8 0 2 1;
#X connect 8 0 6 0;
#X connect 10 0 22 0;
#X connect 11 0 14 0;
#X connect 11 1 15 0;
#X connect 12 0 24 0;
#X connect 13 0 24 1;
#X connect 14 0 24 0;
#X connect 15 0 24 1;
#X connect 20 0 24 0;
#X connect 21 0 24 1;
#X connect 24 0 10 0;
#X coords 0 1 100 -1 217 150 1 0 0;
#X restore -65 80 graph;
#X obj -65 59 r note1;
#X obj 103 59 r vel1;
#X connect 1 0 0 0;
#X connect 2 0 1 0;
#X connect 3 0 1 1;
