#N canvas 0 22 467 370 10;
#X declare -path z_rhodey_abs;
#N canvas 0 22 1024 720 (subpatch) 0;
#X obj -226 174 hsl 128 15 0 1 0 0 empty empty tone_(0...1) 20 7 1
10 -262144 -1 -1 2646 1;
#X obj -473 230 pack 0 0;
#X floatatom -457 253 5 0 0 3 pitch - -;
#X floatatom -364 251 5 0 0 3 velocity - -;
#X text -490 -124 Rhodes piano realised with a 4-operator FM synth
;
#X text -484 -68 Inlet 0: midi note/velocity pairs;
#X text -183 -122 It's a clone of the STK Rhodey.;
#X obj -364 297 r \$0-in1;
#X obj -229 219 s \$0-in1;
#X msg -229 195 tone \$1;
#X obj -229 304 s \$0-in1;
#X floatatom -229 259 5 0 0 0 - - -;
#X obj -117 303 s \$0-in1;
#X floatatom -117 258 5 0 0 0 - - -;
#X msg -348 324 help;
#X obj -228 402 s \$0-in1;
#X floatatom -228 357 5 0 0 0 - - -;
#X msg -228 379 mod \$1;
#X msg -229 280 vib-freq \$1;
#X msg -117 280 vib-depth \$1;
#X text -422 -27 tone: float from 0...1 \, default is 0.5);
#X text -422 14 vib-freq: vibrato frequency (try 11);
#X text -421 34 vib-depth: vibrato depth (try 1);
#X text -484 -47 Inlet 1 accepts various methods:;
#X text -485 -99 Args: <Name>;
#X obj -114 400 s \$0-in1;
#X floatatom -114 355 5 0 127 0 - - -;
#X msg -114 377 adsr24 \$1;
#X text -421 79 adsr24: depth of the modulating operator's (2 and 4)
envelopes (0-127 \, default 127) (this is an exotic parameter...);
#X text -421 58 mod: modulation index for first operator pair (default
1);
#X obj -60 219 s \$0-in1;
#X floatatom -60 174 5 0 0 0 - - -;
#X msg -60 196 decay \$1;
#X text -422 -9 decay: decay of note in msec (default: 1500);
#X obj -473 324 z-s_rhodey mypiano;
#X obj -473 207 stripnote;
#X obj -481 160 inlet;
#X obj -439 161 inlet;
#X obj -476 354 outlet~;
#X floatatom 5 120 5 0 0 0 - - -;
#X obj 14 92 knob 25 25 0 127 0 0 empty empty Vib_f 0 -8 32 10 -1 -4034
-1 300 1;
#X floatatom 54 120 5 0 0 0 - - -;
#X obj 63 92 knob 25 25 0 127 0 0 empty empty Vib_d 0 -8 32 10 -1 -4034
-1 200 1;
#X floatatom 105 119 5 0 0 0 - - -;
#X obj 114 91 knob 25 25 0 127 0 0 empty Mod Mod 0 -8 32 10 -1 -4034
-1 300 1;
#X floatatom 152 119 5 0 0 0 - - -;
#X obj 161 91 knob 25 25 0 127 0 0 empty empty Adsr 0 -8 32 10 -1 -4034
-1 400 1;
#X floatatom 107 46 5 0 0 0 - - -;
#X obj 116 18 knob 25 25 0 5000 0 0 empty empty Decay 0 -8 32 10 -1
-260097 -1 600 1;
#X floatatom 51 46 5 0 0 0 - - -;
#X obj 60 18 knob 25 25 0 1 0 0 empty empty Tone 0 -8 32 10 -1 -260097
-1 500 1;
#X obj -573 -125 z-s_rhodey;
#X connect 0 0 9 0;
#X connect 1 0 34 0;
#X connect 7 0 34 1;
#X connect 9 0 8 0;
#X connect 11 0 18 0;
#X connect 13 0 19 0;
#X connect 14 0 34 1;
#X connect 16 0 17 0;
#X connect 17 0 15 0;
#X connect 18 0 10 0;
#X connect 19 0 12 0;
#X connect 26 0 27 0;
#X connect 27 0 25 0;
#X connect 31 0 32 0;
#X connect 32 0 30 0;
#X connect 34 0 38 0;
#X connect 35 0 1 0;
#X connect 35 0 2 0;
#X connect 35 1 1 1;
#X connect 35 1 3 0;
#X connect 36 0 35 0;
#X connect 37 0 35 1;
#X connect 39 0 11 0;
#X connect 40 0 39 0;
#X connect 41 0 13 0;
#X connect 42 0 41 0;
#X connect 43 0 16 0;
#X connect 44 0 43 0;
#X connect 45 0 26 0;
#X connect 46 0 45 0;
#X connect 47 0 31 0;
#X connect 48 0 47 0;
#X connect 49 0 0 0;
#X connect 50 0 49 0;
#X coords 0 1 100 -1 200 140 1 0 0;
#X restore -171 112 graph;
#X obj -226 55 notein;
#X floatatom -171 96 5 0 0 0 - - -;
#X floatatom -3 96 5 0 0 0 - - -;
#N canvas 0 22 450 300 (subpatch) 0;
#X obj -30 22 spigot;
#X obj 2 3 tgl 15 0 empty empty empty 17 7 0 10 -262144 -1 -1 0 1;
#X obj -58 0 inlet;
#X obj -54 54 outlet;
#X connect 0 0 3 0;
#X connect 1 0 0 1;
#X connect 2 0 0 0;
#X coords 0 1 100 -1 20 20 1 0 0;
#X restore -171 54 graph;
#N canvas 0 22 450 300 (subpatch) 0;
#X obj -30 22 spigot;
#X obj 2 3 tgl 15 0 empty empty empty 17 7 0 10 -262144 -1 -1 0 1;
#X obj -58 0 inlet;
#X obj -54 54 outlet;
#X connect 0 0 3 0;
#X connect 1 0 0 1;
#X connect 2 0 0 0;
#X coords 0 1 100 -1 20 20 1 0 0;
#X restore -3 54 graph;
#N canvas 0 22 450 300 (subpatch) 0;
#X obj -30 22 spigot;
#X obj 2 3 tgl 15 0 empty empty empty 17 7 0 10 -262144 -1 -1 0 1;
#X obj -58 0 inlet;
#X obj -54 54 outlet;
#X connect 0 0 3 0;
#X connect 1 0 0 1;
#X connect 2 0 0 0;
#X coords 0 1 100 -1 20 20 1 0 0;
#X restore -226 76 graph;
#N canvas 0 22 450 300 (subpatch) 0;
#X obj -30 22 spigot;
#X obj 2 3 tgl 15 0 empty empty empty 17 7 0 10 -262144 -1 -1 0 1;
#X obj -58 0 inlet;
#X obj -54 54 outlet;
#X connect 0 0 3 0;
#X connect 1 0 0 1;
#X connect 2 0 0 0;
#X coords 0 1 100 -1 20 20 1 0 0;
#X restore -206 76 graph;
#N canvas 0 22 450 300 (subpatch) 0;
#X obj 59 155 inlet;
#X obj 3 89 inlet~;
#X obj 58 182 change;
#X msg 60 246 set \$1;
#X obj 60 227 tosymbol;
#X obj 59 204 sprintf Bus%d;
#X obj 3 282 throw~ Bus0;
#X obj 2 3 popup 124 25 #ffffff popup Bus0 Bus1 Bus2 Bus3 Bus4 Bus5
Bus6 Bus7 Bus8 Bus9 Bus10 Bus11 Bus12 Bus13 Bus14 Bus15 Bus16;
#X obj 1 32 route bang;
#X obj 154 202 *~;
#X obj 141 7 tgl 15 0 empty empty Dac 19 7 0 10 -262144 -1 -1 1 1;
#X obj 155 238 dac~;
#X obj 1 -51 loadbang;
#X text 59 -53 Bus0 mutes;
#X msg 1 -33 options Bus0 Bus1 Bus2 Bus3 Bus4 Bus5 Bus6 Bus7 Bus8 Bus9
Bus10 Bus11 Bus12 Bus13 Bus14 Bus15 Bus16;
#X connect 0 0 2 0;
#X connect 1 0 6 0;
#X connect 1 0 9 0;
#X connect 2 0 5 0;
#X connect 3 0 6 0;
#X connect 4 0 3 0;
#X connect 5 0 4 0;
#X connect 7 0 8 0;
#X connect 8 1 2 0;
#X connect 9 0 11 0;
#X connect 9 0 11 1;
#X connect 10 0 9 1;
#X connect 12 0 14 0;
#X connect 14 0 7 0;
#X coords 0 1 100 -1 180 30 1 0 0;
#X restore -171 252 graph;
#X obj -171 15 r noteRh;
#X obj -3 20 r velRh;
#X obj 58 272 declare -path z_rhodey_abs;
#X connect 0 0 8 0;
#X connect 1 0 6 0;
#X connect 1 1 7 0;
#X connect 2 0 0 0;
#X connect 3 0 0 1;
#X connect 4 0 2 0;
#X connect 5 0 3 0;
#X connect 6 0 2 0;
#X connect 7 0 3 0;
#X connect 9 0 4 0;
#X connect 10 0 5 0;
