#N canvas 94 112 450 300 10;
#N canvas 0 22 1024 720 (subpatch) 0;
#X floatatom 7 8 5 0 1 0 - - -;
#X text 44 8 mute strings;
#N canvas 0 25 491 311 stringunit 0;
#N canvas 0 25 995 656 delay-writer 0;
#X obj 86 220 inlet~;
#X obj 252 739 outlet~;
#X obj 277 455 +~;
#X obj 134 220 inlet;
#X obj 398 319 hip~ 5;
#X obj 400 406 *~ 3;
#X obj 398 299 lop~ 1000;
#X obj 398 280 *~ 0.015;
#X obj 135 376 hip~ 5;
#X obj 136 412 clip~ -1 1;
#X obj 135 343 lop~ 6000;
#X obj 135 313 *~ 0.973;
#X obj 400 431 clip~ -1 1;
#X obj 137 630 *~ 0.11;
#X obj 401 630 *~ 400;
#X obj 256 220 inlet muting;
#X obj 241 359 bp~ 311 50;
#X obj 319 359 bp~ 504 50;
#X obj 399 357 bp~ 767 50;
#X obj 477 357 bp~ 1119 50;
#X obj 562 358 bp~ 1246 50;
#X obj 392 197 block~ 1;
#X obj 253 698 *~ 1;
#X text 44 358 string;
#X text 454 487 it recirculates;
#X text 484 630 output mostly comes from the body;
#X text 488 277 much more energy passed to string than to body;
#X text 649 356 body formant;
#X obj 134 252 delread~ \$0-stringdel1;
#X obj 276 487 delwrite~ \$0-stringdel1 1000;
#X connect 0 0 11 0;
#X connect 2 0 29 0;
#X connect 3 0 28 0;
#X connect 4 0 16 0;
#X connect 4 0 17 0;
#X connect 4 0 18 0;
#X connect 4 0 19 0;
#X connect 4 0 20 0;
#X connect 5 0 12 0;
#X connect 6 0 4 0;
#X connect 7 0 6 0;
#X connect 8 0 9 0;
#X connect 9 0 13 0;
#X connect 9 0 2 0;
#X connect 10 0 8 0;
#X connect 11 0 10 0;
#X connect 12 0 2 1;
#X connect 12 0 14 0;
#X connect 13 0 22 0;
#X connect 14 0 22 0;
#X connect 15 0 11 1;
#X connect 16 0 5 0;
#X connect 17 0 5 0;
#X connect 18 0 5 0;
#X connect 19 0 5 0;
#X connect 20 0 5 0;
#X connect 22 0 1 0;
#X connect 28 0 7 0;
#X connect 28 0 11 0;
#X restore 149 246 pd delay-writer;
#X obj 192 219 expr 1000/$f1;
#X obj 192 200 mtof;
#N canvas 0 25 371 300 gopluckyourself 0;
#X obj -30 199 *~;
#X obj -107 105 hip~ 5;
#X obj -11 97 vline~;
#X obj -16 122 *~;
#X msg -11 76 1 1 0 \, 0 9 1;
#X obj 40 -33 inlet bang;
#X obj -29 222 outlet~;
#X obj 94 205 switch~;
#X obj 94 186 tgl 15 0 empty empty empty 0 -6 0 10 -262144 -1 -1 0
1;
#X msg 79 152 1;
#X msg 110 152 0;
#X floatatom 110 114 5 0 0 0 - - -;
#X obj 110 132 sel 0;
#X obj 40 -11 t b b b;
#X obj -107 85 lop~ 12000;
#X obj -107 65 clip~ -0.3 0.3;
#X obj -137 -9 noise~;
#X obj -138 17 expr~ if ($v1 == 0 \, 0 \, (if ($v1 < 0 \, -1 \, 1)))
;
#X text -91 0 TOTAL DISTORTION;
#X msg 110 76 1 0 \, 0 15;
#X obj 110 95 line 1 15;
#X connect 0 0 6 0;
#X connect 1 0 0 0;
#X connect 2 0 3 0;
#X connect 2 0 3 1;
#X connect 3 0 0 1;
#X connect 4 0 2 0;
#X connect 5 0 13 0;
#X connect 8 0 7 0;
#X connect 9 0 8 0;
#X connect 10 0 8 0;
#X connect 11 0 12 0;
#X connect 12 0 10 0;
#X connect 13 0 19 0;
#X connect 13 1 4 0;
#X connect 13 2 9 0;
#X connect 14 0 1 0;
#X connect 15 0 14 0;
#X connect 16 0 17 0;
#X connect 17 0 15 0;
#X connect 19 0 20 0;
#X connect 20 0 11 0;
#X restore 195 154 pd gopluckyourself;
#X obj 93 5 inlet note;
#X obj 150 282 outlet~;
#X obj 236 5 inlet muting;
#X obj 19 231 tgl 15 0 empty empty empty 0 -6 0 10 -262144 -1 -1 1
1;
#X msg 4 197 1;
#X msg 35 197 0;
#X floatatom 36 162 5 0 0 0 - - -;
#X obj 35 178 sel 0;
#X obj 19 251 switch~ 16;
#X msg 36 124 1 0 \, 0 15000;
#X obj 36 143 line 1 15000;
#X floatatom 93 29 5 0 0 0 - - -;
#N canvas 0 25 1016 656 pick-position 0;
#X obj 81 21 inlet~;
#X obj 80 267 outlet~;
#X obj 171 20 inlet position;
#X obj 81 216 -~;
#X obj 15 21 inlet bang;
#X obj -4 226 tgl 15 0 empty empty empty 0 -6 0 10 -262144 -1 -1 0
1;
#X msg -9 181 1;
#X msg 22 181 0;
#X floatatom 31 135 5 0 0 0 - - -;
#X obj 31 153 sel 0;
#X obj 1 64 t b b;
#X msg 31 97 1 0 \, 0 40;
#X obj 31 116 line 1 40;
#X obj -4 247 switch~ 16;
#X obj 143 87 delwrite~ \$0-pick-position 100;
#X obj 141 116 delread~ \$0-pick-position 3;
#X connect 0 0 3 0;
#X connect 0 0 14 0;
#X connect 2 0 15 0;
#X connect 3 0 1 0;
#X connect 4 0 10 0;
#X connect 5 0 13 0;
#X connect 6 0 5 0;
#X connect 7 0 5 0;
#X connect 8 0 9 0;
#X connect 9 0 7 0;
#X connect 10 0 11 0;
#X connect 10 1 6 0;
#X connect 11 0 12 0;
#X connect 12 0 8 0;
#X connect 15 0 3 1;
#X restore 150 180 pd pick-position;
#X floatatom 243 100 5 0 0 0 - - -;
#N canvas 0 25 251 182 pick-position-delay-calculator 0;
#N canvas 0 22 450 300 midi-to-delay-length 0;
#X obj 33 51 mtof;
#X obj 33 71 expr 1000/$f1;
#X obj 33 31 inlet;
#X obj 33 92 outlet;
#X connect 0 0 1 0;
#X connect 1 0 3 0;
#X connect 2 0 0 0;
#X restore 56 6 pd midi-to-delay-length;
#X obj 56 -34 loadbang;
#X msg 56 -14 40;
#X obj 32 47 / 4;
#X floatatom 5 -59 5 0 0 0 - - -;
#X obj 5 -42 t b f;
#X obj 5 -80 r \$0-pick-location;
#X obj 32 67 outlet pickpositiondelay;
#X connect 0 0 3 0;
#X connect 1 0 2 0;
#X connect 2 0 0 0;
#X connect 3 0 7 0;
#X connect 4 0 5 0;
#X connect 5 0 3 0;
#X connect 5 1 3 1;
#X connect 6 0 4 0;
#X restore 243 54 pd pick-position-delay-calculator;
#X obj 93 50 t b b b f b;
#X text 274 98 pick position delay in ms;
#X connect 0 0 5 0;
#X connect 1 0 0 1;
#X connect 2 0 1 0;
#X connect 3 0 16 1;
#X connect 4 0 15 0;
#X connect 6 0 0 2;
#X connect 7 0 12 0;
#X connect 8 0 7 0;
#X connect 9 0 7 0;
#X connect 10 0 11 0;
#X connect 11 0 9 0;
#X connect 13 0 14 0;
#X connect 14 0 10 0;
#X connect 15 0 19 0;
#X connect 16 0 0 0;
#X connect 17 0 16 2;
#X connect 18 0 17 0;
#X connect 19 0 13 0;
#X connect 19 1 3 0;
#X connect 19 2 16 0;
#X connect 19 3 2 0;
#X connect 19 4 8 0;
#X restore 120 377 pd stringunit;
#X obj 22 46 hsl 128 15 2 50 0 0 \$0-pick-location empty empty -2 -6
0 10 -262144 -1 -1 994 1;
#X text 38 28 pick location;
#X floatatom 19 70 5 0 0 0 - - -;
#X text 3 70 1/;
#X text 52 70 up string from bridge;
#X obj 121 467 *~;
#X msg 390 89 5;
#X text 805 543 sg 2008;
#X text 326 -56 KARPLUS-STRONG SYNTHESIS WITH BODY FORMANTS;
#X obj 301 -26 loadbang;
#X msg 301 -6 0.977;
#X obj 227 86 inlet;
#X obj 248 104 inlet;
#X obj 155 448 line;
#X floatatom 199 431 5 0 0 0 - - -;
#X obj 242 393 loadbang;
#X msg 242 414 50;
#X obj 154 429 + 0.05;
#X obj 153 409 / 127;
#X obj 541 85 inlet;
#X obj 230 188 poly 4 1;
#X obj 230 158 stripnote;
#X obj 235 214 pack f f f;
#X obj 240 247 route 1 2 3 4;
#X obj 118 345 unpack f f;
#X obj 303 635 outlet~;
#X obj 264 585 *~ 0.25;
#N canvas 0 25 491 311 stringunit 0;
#N canvas 0 25 995 656 delay-writer 0;
#X obj 86 220 inlet~;
#X obj 252 739 outlet~;
#X obj 277 455 +~;
#X obj 134 220 inlet;
#X obj 398 319 hip~ 5;
#X obj 400 406 *~ 3;
#X obj 398 299 lop~ 1000;
#X obj 398 280 *~ 0.015;
#X obj 135 376 hip~ 5;
#X obj 136 412 clip~ -1 1;
#X obj 135 343 lop~ 6000;
#X obj 135 313 *~ 0.973;
#X obj 400 431 clip~ -1 1;
#X obj 137 630 *~ 0.11;
#X obj 401 630 *~ 400;
#X obj 256 220 inlet muting;
#X obj 241 359 bp~ 311 50;
#X obj 319 359 bp~ 504 50;
#X obj 399 357 bp~ 767 50;
#X obj 477 357 bp~ 1119 50;
#X obj 562 358 bp~ 1246 50;
#X obj 392 197 block~ 1;
#X obj 253 698 *~ 1;
#X text 44 358 string;
#X text 454 487 it recirculates;
#X text 484 630 output mostly comes from the body;
#X text 488 277 much more energy passed to string than to body;
#X text 649 356 body formant;
#X obj 134 252 delread~ \$0-stringdel2;
#X obj 276 487 delwrite~ \$0-stringdel2 1000;
#X connect 0 0 11 0;
#X connect 2 0 29 0;
#X connect 3 0 28 0;
#X connect 4 0 16 0;
#X connect 4 0 17 0;
#X connect 4 0 18 0;
#X connect 4 0 19 0;
#X connect 4 0 20 0;
#X connect 5 0 12 0;
#X connect 6 0 4 0;
#X connect 7 0 6 0;
#X connect 8 0 9 0;
#X connect 9 0 13 0;
#X connect 9 0 2 0;
#X connect 10 0 8 0;
#X connect 11 0 10 0;
#X connect 12 0 2 1;
#X connect 12 0 14 0;
#X connect 13 0 22 0;
#X connect 14 0 22 0;
#X connect 15 0 11 1;
#X connect 16 0 5 0;
#X connect 17 0 5 0;
#X connect 18 0 5 0;
#X connect 19 0 5 0;
#X connect 20 0 5 0;
#X connect 22 0 1 0;
#X connect 28 0 7 0;
#X connect 28 0 11 0;
#X restore 149 246 pd delay-writer;
#X obj 192 219 expr 1000/$f1;
#X obj 192 200 mtof;
#N canvas 0 25 371 300 gopluckyourself 0;
#X obj -30 199 *~;
#X obj -107 105 hip~ 5;
#X obj -11 97 vline~;
#X obj -16 122 *~;
#X msg -11 76 1 1 0 \, 0 9 1;
#X obj 40 -33 inlet bang;
#X obj -29 222 outlet~;
#X obj 94 205 switch~;
#X obj 94 186 tgl 15 0 empty empty empty 0 -6 0 10 -262144 -1 -1 0
1;
#X msg 79 152 1;
#X msg 110 152 0;
#X floatatom 110 114 5 0 0 0 - - -;
#X obj 110 132 sel 0;
#X obj 40 -11 t b b b;
#X obj -107 85 lop~ 12000;
#X obj -107 65 clip~ -0.3 0.3;
#X obj -137 -9 noise~;
#X obj -138 17 expr~ if ($v1 == 0 \, 0 \, (if ($v1 < 0 \, -1 \, 1)))
;
#X text -91 0 TOTAL DISTORTION;
#X msg 110 76 1 0 \, 0 15;
#X obj 110 95 line 1 15;
#X connect 0 0 6 0;
#X connect 1 0 0 0;
#X connect 2 0 3 0;
#X connect 2 0 3 1;
#X connect 3 0 0 1;
#X connect 4 0 2 0;
#X connect 5 0 13 0;
#X connect 8 0 7 0;
#X connect 9 0 8 0;
#X connect 10 0 8 0;
#X connect 11 0 12 0;
#X connect 12 0 10 0;
#X connect 13 0 19 0;
#X connect 13 1 4 0;
#X connect 13 2 9 0;
#X connect 14 0 1 0;
#X connect 15 0 14 0;
#X connect 16 0 17 0;
#X connect 17 0 15 0;
#X connect 19 0 20 0;
#X connect 20 0 11 0;
#X restore 195 154 pd gopluckyourself;
#X obj 93 5 inlet note;
#X obj 150 282 outlet~;
#X obj 236 5 inlet muting;
#X obj 19 231 tgl 15 0 empty empty empty 0 -6 0 10 -262144 -1 -1 1
1;
#X msg 4 197 1;
#X msg 35 197 0;
#X floatatom 36 162 5 0 0 0 - - -;
#X obj 35 178 sel 0;
#X obj 19 251 switch~ 16;
#X msg 36 124 1 0 \, 0 15000;
#X obj 36 143 line 1 15000;
#X floatatom 93 29 5 0 0 0 - - -;
#N canvas 0 25 1016 656 pick-position 0;
#X obj 81 21 inlet~;
#X obj 80 267 outlet~;
#X obj 171 20 inlet position;
#X obj 81 216 -~;
#X obj 15 21 inlet bang;
#X obj -4 226 tgl 15 0 empty empty empty 0 -6 0 10 -262144 -1 -1 0
1;
#X msg -9 181 1;
#X msg 22 181 0;
#X floatatom 31 135 5 0 0 0 - - -;
#X obj 31 153 sel 0;
#X obj 1 64 t b b;
#X msg 31 97 1 0 \, 0 40;
#X obj 31 116 line 1 40;
#X obj -4 247 switch~ 16;
#X obj 143 87 delwrite~ \$0-pick-position1 100;
#X obj 141 116 delread~ \$0-pick-position1 3;
#X connect 0 0 3 0;
#X connect 0 0 14 0;
#X connect 2 0 15 0;
#X connect 3 0 1 0;
#X connect 4 0 10 0;
#X connect 5 0 13 0;
#X connect 6 0 5 0;
#X connect 7 0 5 0;
#X connect 8 0 9 0;
#X connect 9 0 7 0;
#X connect 10 0 11 0;
#X connect 10 1 6 0;
#X connect 11 0 12 0;
#X connect 12 0 8 0;
#X connect 15 0 3 1;
#X restore 150 180 pd pick-position;
#X floatatom 243 100 5 0 0 0 - - -;
#N canvas 0 25 251 182 pick-position-delay-calculator 0;
#N canvas 0 22 450 300 midi-to-delay-length 0;
#X obj 33 51 mtof;
#X obj 33 71 expr 1000/$f1;
#X obj 33 31 inlet;
#X obj 33 92 outlet;
#X connect 0 0 1 0;
#X connect 1 0 3 0;
#X connect 2 0 0 0;
#X restore 56 6 pd midi-to-delay-length;
#X obj 56 -34 loadbang;
#X msg 56 -14 40;
#X obj 32 47 / 4;
#X floatatom 5 -59 5 0 0 0 - - -;
#X obj 5 -42 t b f;
#X obj 5 -80 r \$0-pick-location;
#X obj 32 67 outlet pickpositiondelay;
#X connect 0 0 3 0;
#X connect 1 0 2 0;
#X connect 2 0 0 0;
#X connect 3 0 7 0;
#X connect 4 0 5 0;
#X connect 5 0 3 0;
#X connect 5 1 3 1;
#X connect 6 0 4 0;
#X restore 243 54 pd pick-position-delay-calculator;
#X obj 93 50 t b b b f b;
#X text 274 98 pick position delay in ms;
#X connect 0 0 5 0;
#X connect 1 0 0 1;
#X connect 2 0 1 0;
#X connect 3 0 16 1;
#X connect 4 0 15 0;
#X connect 6 0 0 2;
#X connect 7 0 12 0;
#X connect 8 0 7 0;
#X connect 9 0 7 0;
#X connect 10 0 11 0;
#X connect 11 0 9 0;
#X connect 13 0 14 0;
#X connect 14 0 10 0;
#X connect 15 0 19 0;
#X connect 16 0 0 0;
#X connect 17 0 16 2;
#X connect 18 0 17 0;
#X connect 19 0 13 0;
#X connect 19 1 3 0;
#X connect 19 2 16 0;
#X connect 19 3 2 0;
#X connect 19 4 8 0;
#X restore 298 368 pd stringunit;
#X obj 299 458 *~;
#X obj 333 439 line;
#X floatatom 377 422 5 0 0 0 - - -;
#X obj 420 384 loadbang;
#X msg 420 405 50;
#X obj 332 420 + 0.05;
#X obj 331 400 / 127;
#X obj 296 336 unpack f f;
#N canvas 0 25 491 311 stringunit 0;
#N canvas 0 25 995 656 delay-writer 0;
#X obj 86 220 inlet~;
#X obj 252 739 outlet~;
#X obj 277 455 +~;
#X obj 134 220 inlet;
#X obj 398 319 hip~ 5;
#X obj 400 406 *~ 3;
#X obj 398 299 lop~ 1000;
#X obj 398 280 *~ 0.015;
#X obj 135 376 hip~ 5;
#X obj 136 412 clip~ -1 1;
#X obj 135 343 lop~ 6000;
#X obj 135 313 *~ 0.973;
#X obj 400 431 clip~ -1 1;
#X obj 137 630 *~ 0.11;
#X obj 401 630 *~ 400;
#X obj 256 220 inlet muting;
#X obj 241 359 bp~ 311 50;
#X obj 319 359 bp~ 504 50;
#X obj 399 357 bp~ 767 50;
#X obj 477 357 bp~ 1119 50;
#X obj 562 358 bp~ 1246 50;
#X obj 392 197 block~ 1;
#X obj 253 698 *~ 1;
#X text 44 358 string;
#X text 454 487 it recirculates;
#X text 484 630 output mostly comes from the body;
#X text 488 277 much more energy passed to string than to body;
#X text 649 356 body formant;
#X obj 134 252 delread~ \$0-stringdel3;
#X obj 276 487 delwrite~ \$0-stringdel3 1000;
#X connect 0 0 11 0;
#X connect 2 0 29 0;
#X connect 3 0 28 0;
#X connect 4 0 16 0;
#X connect 4 0 17 0;
#X connect 4 0 18 0;
#X connect 4 0 19 0;
#X connect 4 0 20 0;
#X connect 5 0 12 0;
#X connect 6 0 4 0;
#X connect 7 0 6 0;
#X connect 8 0 9 0;
#X connect 9 0 13 0;
#X connect 9 0 2 0;
#X connect 10 0 8 0;
#X connect 11 0 10 0;
#X connect 12 0 2 1;
#X connect 12 0 14 0;
#X connect 13 0 22 0;
#X connect 14 0 22 0;
#X connect 15 0 11 1;
#X connect 16 0 5 0;
#X connect 17 0 5 0;
#X connect 18 0 5 0;
#X connect 19 0 5 0;
#X connect 20 0 5 0;
#X connect 22 0 1 0;
#X connect 28 0 7 0;
#X connect 28 0 11 0;
#X restore 149 246 pd delay-writer;
#X obj 192 219 expr 1000/$f1;
#X obj 192 200 mtof;
#N canvas 0 25 371 300 gopluckyourself 0;
#X obj -30 199 *~;
#X obj -107 105 hip~ 5;
#X obj -11 97 vline~;
#X obj -16 122 *~;
#X msg -11 76 1 1 0 \, 0 9 1;
#X obj 40 -33 inlet bang;
#X obj -29 222 outlet~;
#X obj 94 205 switch~;
#X obj 94 186 tgl 15 0 empty empty empty 0 -6 0 10 -262144 -1 -1 0
1;
#X msg 79 152 1;
#X msg 110 152 0;
#X floatatom 110 114 5 0 0 0 - - -;
#X obj 110 132 sel 0;
#X obj 40 -11 t b b b;
#X obj -107 85 lop~ 12000;
#X obj -107 65 clip~ -0.3 0.3;
#X obj -137 -9 noise~;
#X obj -138 17 expr~ if ($v1 == 0 \, 0 \, (if ($v1 < 0 \, -1 \, 1)))
;
#X text -91 0 TOTAL DISTORTION;
#X msg 110 76 1 0 \, 0 15;
#X obj 110 95 line 1 15;
#X connect 0 0 6 0;
#X connect 1 0 0 0;
#X connect 2 0 3 0;
#X connect 2 0 3 1;
#X connect 3 0 0 1;
#X connect 4 0 2 0;
#X connect 5 0 13 0;
#X connect 8 0 7 0;
#X connect 9 0 8 0;
#X connect 10 0 8 0;
#X connect 11 0 12 0;
#X connect 12 0 10 0;
#X connect 13 0 19 0;
#X connect 13 1 4 0;
#X connect 13 2 9 0;
#X connect 14 0 1 0;
#X connect 15 0 14 0;
#X connect 16 0 17 0;
#X connect 17 0 15 0;
#X connect 19 0 20 0;
#X connect 20 0 11 0;
#X restore 195 154 pd gopluckyourself;
#X obj 93 5 inlet note;
#X obj 150 282 outlet~;
#X obj 236 5 inlet muting;
#X obj 19 231 tgl 15 0 empty empty empty 0 -6 0 10 -262144 -1 -1 1
1;
#X msg 4 197 1;
#X msg 35 197 0;
#X floatatom 36 162 5 0 0 0 - - -;
#X obj 35 178 sel 0;
#X obj 19 251 switch~ 16;
#X msg 36 124 1 0 \, 0 15000;
#X obj 36 143 line 1 15000;
#X floatatom 93 29 5 0 0 0 - - -;
#N canvas 0 25 1016 656 pick-position 0;
#X obj 81 21 inlet~;
#X obj 80 267 outlet~;
#X obj 171 20 inlet position;
#X obj 81 216 -~;
#X obj 15 21 inlet bang;
#X obj -4 226 tgl 15 0 empty empty empty 0 -6 0 10 -262144 -1 -1 0
1;
#X msg -9 181 1;
#X msg 22 181 0;
#X floatatom 31 135 5 0 0 0 - - -;
#X obj 31 153 sel 0;
#X obj 1 64 t b b;
#X msg 31 97 1 0 \, 0 40;
#X obj 31 116 line 1 40;
#X obj -4 247 switch~ 16;
#X obj 143 87 delwrite~ \$0-pick-position2 100;
#X obj 141 116 delread~ \$0-pick-position2 3;
#X connect 0 0 3 0;
#X connect 0 0 14 0;
#X connect 2 0 15 0;
#X connect 3 0 1 0;
#X connect 4 0 10 0;
#X connect 5 0 13 0;
#X connect 6 0 5 0;
#X connect 7 0 5 0;
#X connect 8 0 9 0;
#X connect 9 0 7 0;
#X connect 10 0 11 0;
#X connect 10 1 6 0;
#X connect 11 0 12 0;
#X connect 12 0 8 0;
#X connect 15 0 3 1;
#X restore 150 180 pd pick-position;
#X floatatom 243 100 5 0 0 0 - - -;
#N canvas 0 25 251 182 pick-position-delay-calculator 0;
#N canvas 0 22 450 300 midi-to-delay-length 0;
#X obj 33 51 mtof;
#X obj 33 71 expr 1000/$f1;
#X obj 33 31 inlet;
#X obj 33 92 outlet;
#X connect 0 0 1 0;
#X connect 1 0 3 0;
#X connect 2 0 0 0;
#X restore 56 6 pd midi-to-delay-length;
#X obj 56 -34 loadbang;
#X msg 56 -14 40;
#X obj 32 47 / 4;
#X floatatom 5 -59 5 0 0 0 - - -;
#X obj 5 -42 t b f;
#X obj 5 -80 r \$0-pick-location;
#X obj 32 67 outlet pickpositiondelay;
#X connect 0 0 3 0;
#X connect 1 0 2 0;
#X connect 2 0 0 0;
#X connect 3 0 7 0;
#X connect 4 0 5 0;
#X connect 5 0 3 0;
#X connect 5 1 3 1;
#X connect 6 0 4 0;
#X restore 243 54 pd pick-position-delay-calculator;
#X obj 93 50 t b b b f b;
#X text 274 98 pick position delay in ms;
#X connect 0 0 5 0;
#X connect 1 0 0 1;
#X connect 2 0 1 0;
#X connect 3 0 16 1;
#X connect 4 0 15 0;
#X connect 6 0 0 2;
#X connect 7 0 12 0;
#X connect 8 0 7 0;
#X connect 9 0 7 0;
#X connect 10 0 11 0;
#X connect 11 0 9 0;
#X connect 13 0 14 0;
#X connect 14 0 10 0;
#X connect 15 0 19 0;
#X connect 16 0 0 0;
#X connect 17 0 16 2;
#X connect 18 0 17 0;
#X connect 19 0 13 0;
#X connect 19 1 3 0;
#X connect 19 2 16 0;
#X connect 19 3 2 0;
#X connect 19 4 8 0;
#X restore 484 363 pd stringunit;
#X obj 485 453 *~;
#X obj 519 434 line;
#X floatatom 563 417 5 0 0 0 - - -;
#X obj 606 379 loadbang;
#X msg 606 400 50;
#X obj 518 415 + 0.05;
#X obj 517 395 / 127;
#X obj 482 331 unpack f f;
#N canvas 0 25 491 311 stringunit 0;
#N canvas 0 25 995 656 delay-writer 0;
#X obj 86 220 inlet~;
#X obj 252 739 outlet~;
#X obj 277 455 +~;
#X obj 134 220 inlet;
#X obj 398 319 hip~ 5;
#X obj 400 406 *~ 3;
#X obj 398 299 lop~ 1000;
#X obj 398 280 *~ 0.015;
#X obj 135 376 hip~ 5;
#X obj 136 412 clip~ -1 1;
#X obj 135 343 lop~ 6000;
#X obj 135 313 *~ 0.973;
#X obj 400 431 clip~ -1 1;
#X obj 137 630 *~ 0.11;
#X obj 401 630 *~ 400;
#X obj 256 220 inlet muting;
#X obj 241 359 bp~ 311 50;
#X obj 319 359 bp~ 504 50;
#X obj 399 357 bp~ 767 50;
#X obj 477 357 bp~ 1119 50;
#X obj 562 358 bp~ 1246 50;
#X obj 392 197 block~ 1;
#X obj 253 698 *~ 1;
#X text 44 358 string;
#X text 454 487 it recirculates;
#X text 484 630 output mostly comes from the body;
#X text 488 277 much more energy passed to string than to body;
#X text 649 356 body formant;
#X obj 134 252 delread~ \$0-stringdel4;
#X obj 276 487 delwrite~ \$0-stringdel4 1000;
#X connect 0 0 11 0;
#X connect 2 0 29 0;
#X connect 3 0 28 0;
#X connect 4 0 16 0;
#X connect 4 0 17 0;
#X connect 4 0 18 0;
#X connect 4 0 19 0;
#X connect 4 0 20 0;
#X connect 5 0 12 0;
#X connect 6 0 4 0;
#X connect 7 0 6 0;
#X connect 8 0 9 0;
#X connect 9 0 13 0;
#X connect 9 0 2 0;
#X connect 10 0 8 0;
#X connect 11 0 10 0;
#X connect 12 0 2 1;
#X connect 12 0 14 0;
#X connect 13 0 22 0;
#X connect 14 0 22 0;
#X connect 15 0 11 1;
#X connect 16 0 5 0;
#X connect 17 0 5 0;
#X connect 18 0 5 0;
#X connect 19 0 5 0;
#X connect 20 0 5 0;
#X connect 22 0 1 0;
#X connect 28 0 7 0;
#X connect 28 0 11 0;
#X restore 149 246 pd delay-writer;
#X obj 192 219 expr 1000/$f1;
#X obj 192 200 mtof;
#N canvas 0 25 371 300 gopluckyourself 0;
#X obj -30 199 *~;
#X obj -107 105 hip~ 5;
#X obj -11 97 vline~;
#X obj -16 122 *~;
#X msg -11 76 1 1 0 \, 0 9 1;
#X obj 40 -33 inlet bang;
#X obj -29 222 outlet~;
#X obj 94 205 switch~;
#X obj 94 186 tgl 15 0 empty empty empty 0 -6 0 10 -262144 -1 -1 0
1;
#X msg 79 152 1;
#X msg 110 152 0;
#X floatatom 110 114 5 0 0 0 - - -;
#X obj 110 132 sel 0;
#X obj 40 -11 t b b b;
#X obj -107 85 lop~ 12000;
#X obj -107 65 clip~ -0.3 0.3;
#X obj -137 -9 noise~;
#X obj -138 17 expr~ if ($v1 == 0 \, 0 \, (if ($v1 < 0 \, -1 \, 1)))
;
#X text -91 0 TOTAL DISTORTION;
#X msg 110 76 1 0 \, 0 15;
#X obj 110 95 line 1 15;
#X connect 0 0 6 0;
#X connect 1 0 0 0;
#X connect 2 0 3 0;
#X connect 2 0 3 1;
#X connect 3 0 0 1;
#X connect 4 0 2 0;
#X connect 5 0 13 0;
#X connect 8 0 7 0;
#X connect 9 0 8 0;
#X connect 10 0 8 0;
#X connect 11 0 12 0;
#X connect 12 0 10 0;
#X connect 13 0 19 0;
#X connect 13 1 4 0;
#X connect 13 2 9 0;
#X connect 14 0 1 0;
#X connect 15 0 14 0;
#X connect 16 0 17 0;
#X connect 17 0 15 0;
#X connect 19 0 20 0;
#X connect 20 0 11 0;
#X restore 195 154 pd gopluckyourself;
#X obj 93 5 inlet note;
#X obj 150 282 outlet~;
#X obj 236 5 inlet muting;
#X obj 19 231 tgl 15 0 empty empty empty 0 -6 0 10 -262144 -1 -1 1
1;
#X msg 4 197 1;
#X msg 35 197 0;
#X floatatom 36 162 5 0 0 0 - - -;
#X obj 35 178 sel 0;
#X obj 19 251 switch~ 16;
#X msg 36 124 1 0 \, 0 15000;
#X obj 36 143 line 1 15000;
#X floatatom 93 29 5 0 0 0 - - -;
#N canvas 0 25 1016 656 pick-position 0;
#X obj 81 21 inlet~;
#X obj 80 267 outlet~;
#X obj 171 20 inlet position;
#X obj 81 216 -~;
#X obj 15 21 inlet bang;
#X obj -4 226 tgl 15 0 empty empty empty 0 -6 0 10 -262144 -1 -1 0
1;
#X msg -9 181 1;
#X msg 22 181 0;
#X floatatom 31 135 5 0 0 0 - - -;
#X obj 31 153 sel 0;
#X obj 1 64 t b b;
#X msg 31 97 1 0 \, 0 40;
#X obj 31 116 line 1 40;
#X obj -4 247 switch~ 16;
#X obj 143 87 delwrite~ \$0-pick-position3 100;
#X obj 141 116 delread~ \$0-pick-position3 3;
#X connect 0 0 3 0;
#X connect 0 0 14 0;
#X connect 2 0 15 0;
#X connect 3 0 1 0;
#X connect 4 0 10 0;
#X connect 5 0 13 0;
#X connect 6 0 5 0;
#X connect 7 0 5 0;
#X connect 8 0 9 0;
#X connect 9 0 7 0;
#X connect 10 0 11 0;
#X connect 10 1 6 0;
#X connect 11 0 12 0;
#X connect 12 0 8 0;
#X connect 15 0 3 1;
#X restore 150 180 pd pick-position;
#X floatatom 243 100 5 0 0 0 - - -;
#N canvas 0 25 251 182 pick-position-delay-calculator 0;
#N canvas 0 22 450 300 midi-to-delay-length 0;
#X obj 33 51 mtof;
#X obj 33 71 expr 1000/$f1;
#X obj 33 31 inlet;
#X obj 33 92 outlet;
#X connect 0 0 1 0;
#X connect 1 0 3 0;
#X connect 2 0 0 0;
#X restore 56 6 pd midi-to-delay-length;
#X obj 56 -34 loadbang;
#X msg 56 -14 40;
#X obj 32 47 / 4;
#X floatatom 5 -59 5 0 0 0 - - -;
#X obj 5 -42 t b f;
#X obj 5 -80 r \$0-pick-location;
#X obj 32 67 outlet pickpositiondelay;
#X connect 0 0 3 0;
#X connect 1 0 2 0;
#X connect 2 0 0 0;
#X connect 3 0 7 0;
#X connect 4 0 5 0;
#X connect 5 0 3 0;
#X connect 5 1 3 1;
#X connect 6 0 4 0;
#X restore 243 54 pd pick-position-delay-calculator;
#X obj 93 50 t b b b f b;
#X text 274 98 pick position delay in ms;
#X connect 0 0 5 0;
#X connect 1 0 0 1;
#X connect 2 0 1 0;
#X connect 3 0 16 1;
#X connect 4 0 15 0;
#X connect 6 0 0 2;
#X connect 7 0 12 0;
#X connect 8 0 7 0;
#X connect 9 0 7 0;
#X connect 10 0 11 0;
#X connect 11 0 9 0;
#X connect 13 0 14 0;
#X connect 14 0 10 0;
#X connect 15 0 19 0;
#X connect 16 0 0 0;
#X connect 17 0 16 2;
#X connect 18 0 17 0;
#X connect 19 0 13 0;
#X connect 19 1 3 0;
#X connect 19 2 16 0;
#X connect 19 3 2 0;
#X connect 19 4 8 0;
#X restore 672 365 pd stringunit;
#X obj 673 455 *~;
#X obj 707 436 line;
#X floatatom 751 419 5 0 0 0 - - -;
#X obj 794 381 loadbang;
#X msg 794 402 50;
#X obj 706 417 + 0.05;
#X obj 705 397 / 127;
#X obj 670 333 unpack f f;
#X connect 0 0 2 1;
#X connect 2 0 8 0;
#X connect 3 0 5 0;
#X connect 8 0 29 0;
#X connect 9 0 3 0;
#X connect 12 0 13 0;
#X connect 12 0 9 0;
#X connect 13 0 0 0;
#X connect 14 0 24 0;
#X connect 15 0 24 1;
#X connect 16 0 8 1;
#X connect 17 0 16 1;
#X connect 18 0 19 0;
#X connect 19 0 17 0;
#X connect 20 0 16 0;
#X connect 21 0 20 0;
#X connect 22 0 26 0;
#X connect 23 0 25 0;
#X connect 23 1 25 1;
#X connect 23 2 25 2;
#X connect 24 0 23 0;
#X connect 24 1 23 1;
#X connect 25 0 26 0;
#X connect 26 0 27 0;
#X connect 26 1 38 0;
#X connect 26 2 47 0;
#X connect 26 3 56 0;
#X connect 27 0 2 0;
#X connect 27 1 21 0;
#X connect 29 0 28 0;
#X connect 30 0 31 0;
#X connect 31 0 29 0;
#X connect 32 0 31 1;
#X connect 33 0 32 1;
#X connect 34 0 35 0;
#X connect 35 0 33 0;
#X connect 36 0 32 0;
#X connect 37 0 36 0;
#X connect 38 0 30 0;
#X connect 38 1 37 0;
#X connect 39 0 40 0;
#X connect 40 0 29 0;
#X connect 41 0 40 1;
#X connect 42 0 41 1;
#X connect 43 0 44 0;
#X connect 44 0 42 0;
#X connect 45 0 41 0;
#X connect 46 0 45 0;
#X connect 47 0 39 0;
#X connect 47 1 46 0;
#X connect 48 0 49 0;
#X connect 49 0 29 0;
#X connect 50 0 49 1;
#X connect 51 0 50 1;
#X connect 52 0 53 0;
#X connect 53 0 51 0;
#X connect 54 0 50 0;
#X connect 55 0 54 0;
#X connect 56 0 48 0;
#X connect 56 1 55 0;
#X coords 0 1 100 -1 200 90 1 0 0;
#X restore -82 -37 graph;
#X obj -137 -94 notein;
#X floatatom -82 -53 5 0 0 0 - - -;
#X floatatom -50 -53 5 0 0 0 - - -;
#N canvas 0 22 450 300 (subpatch) 0;
#X obj -30 22 spigot;
#X obj 2 3 tgl 15 0 empty empty empty 17 7 0 10 -262144 -1 -1 1 1;
#X obj -58 0 inlet;
#X obj -54 54 outlet;
#X connect 0 0 3 0;
#X connect 1 0 0 1;
#X connect 2 0 0 0;
#X coords 0 1 100 -1 20 20 1 0 0;
#X restore -82 -95 graph;
#N canvas 0 22 450 300 (subpatch) 0;
#X obj -30 22 spigot;
#X obj 2 3 tgl 15 0 empty empty empty 17 7 0 10 -262144 -1 -1 1 1;
#X obj -58 0 inlet;
#X obj -54 54 outlet;
#X connect 0 0 3 0;
#X connect 1 0 0 1;
#X connect 2 0 0 0;
#X coords 0 1 100 -1 20 20 1 0 0;
#X restore -50 -95 graph;
#N canvas 0 22 450 300 (subpatch) 0;
#X obj -30 22 spigot;
#X obj 2 3 tgl 15 0 empty empty empty 17 7 0 10 -262144 -1 -1 0 1;
#X obj -58 0 inlet;
#X obj -54 54 outlet;
#X connect 0 0 3 0;
#X connect 1 0 0 1;
#X connect 2 0 0 0;
#X coords 0 1 100 -1 20 20 1 0 0;
#X restore -137 -73 graph;
#N canvas 0 22 450 300 (subpatch) 0;
#X obj -30 22 spigot;
#X obj 2 3 tgl 15 0 empty empty empty 17 7 0 10 -262144 -1 -1 0 1;
#X obj -58 0 inlet;
#X obj -54 54 outlet;
#X connect 0 0 3 0;
#X connect 1 0 0 1;
#X connect 2 0 0 0;
#X coords 0 1 100 -1 20 20 1 0 0;
#X restore -117 -73 graph;
#N canvas 0 22 450 300 (subpatch) 0;
#X obj 59 155 inlet;
#X obj 3 89 inlet~;
#X obj 58 182 change;
#X msg 60 246 set \$1;
#X obj 60 227 tosymbol;
#X obj 59 204 sprintf Bus%d;
#X obj 3 282 throw~ Bus0;
#X obj 2 3 popup 124 25 #ffffff popup Bus0 Bus1 Bus2 Bus3 Bus4 Bus5
Bus6 Bus7 Bus8 Bus9 Bus10 Bus11 Bus12 Bus13 Bus14 Bus15 Bus16;
#X obj 1 32 route bang;
#X obj 154 202 *~;
#X obj 141 7 tgl 15 0 empty empty Dac 19 7 0 10 -262144 -1 -1 1 1;
#X obj 155 238 dac~;
#X obj 1 -49 loadbang;
#X text 59 -51 Bus0 mutes;
#X msg 1 -31 options Bus0 Bus1 Bus2 Bus3 Bus4 Bus5 Bus6 Bus7 Bus8 Bus9
Bus10 Bus11 Bus12 Bus13 Bus14 Bus15 Bus16;
#X connect 0 0 2 0;
#X connect 1 0 6 0;
#X connect 1 0 9 0;
#X connect 2 0 5 0;
#X connect 3 0 6 0;
#X connect 4 0 3 0;
#X connect 5 0 4 0;
#X connect 7 0 8 0;
#X connect 8 1 2 0;
#X connect 9 0 11 0;
#X connect 9 0 11 1;
#X connect 10 0 9 1;
#X connect 12 0 14 0;
#X connect 14 0 7 0;
#X coords 0 1 100 -1 180 30 1 0 0;
#X restore -81 67 graph;
#N canvas 0 22 450 300 (subpatch) 0;
#X obj -30 22 spigot;
#X obj 2 3 tgl 15 0 empty empty empty 17 7 0 10 -262144 -1 -1 0 1;
#X obj -58 0 inlet;
#X obj -54 54 outlet;
#X connect 0 0 3 0;
#X connect 1 0 0 1;
#X connect 2 0 0 0;
#X coords 0 1 100 -1 20 20 1 0 0;
#X restore 89 -79 graph;
#X obj 89 -104 r polynote;
#X obj -82 -140 r note1;
#X obj -50 -120 r vel1;
#X obj -5 -115 r note2;
#X obj 21 -74 r vel2;
#X connect 0 0 8 0;
#X connect 1 0 6 0;
#X connect 1 1 7 0;
#X connect 2 0 0 0;
#X connect 3 0 0 1;
#X connect 4 0 2 0;
#X connect 5 0 3 0;
#X connect 6 0 2 0;
#X connect 7 0 3 0;
#X connect 9 0 0 2;
#X connect 10 0 9 0;
#X connect 11 0 4 0;
#X connect 12 0 5 0;
#X connect 13 0 0 0;
#X connect 14 0 0 1;
