#N canvas 0 22 592 548 10;
#X declare -path ../FX;
#N canvas 0 22 608 637 (subpatch) 0;
#X obj 58 -149 osc~;
#X floatatom -25 -322 5 0 0 0 - - -;
#X text 12 -321 modulator frequency;
#X obj -25 -299 osc~;
#X obj 42 -256 *~;
#X floatatom 58 -273 5 0 0 0 - - -;
#X obj 81 -171 +~;
#X floatatom 97 -188 5 0 0 0 - - -;
#X text 100 -273 FM index;
#X text 140 -189 carrier frequency;
#X msg 293 -256 0 \$1;
#X obj -21 -392 mtof;
#X obj 77 -356 / 50;
#X obj 180 -329 / 20;
#X obj -19 -418 stripnote;
#X msg 344 -256 1 \$1;
#X msg 383 -257 2 \$1;
#X obj 14 -114 *~;
#X obj 457 -150 bng 15 250 50 0 empty empty empty 17 7 0 10 -262144
-1 -1;
#X obj 38 -63 *~;
#X obj 38 -29 *~;
#X obj 63 -87 / 100;
#X obj 65 -48 line;
#X floatatom 110 -70 5 0 0 0 - - -;
#X text 148 -71 time offset to adjust volume to velocity;
#N canvas 0 22 450 300 eald~ 0;
#X msg 394 133 bang;
#X floatatom 504 74 5 0 0 0 - - -;
#X floatatom 555 73 5 0 0 0 - - -;
#X floatatom 605 73 5 0 0 0 - - -;
#X text 471 25 "ALD" enveloppe;
#X obj 504 49 inlet;
#X obj 555 48 inlet;
#X obj 605 48 inlet;
#X obj 408 52 inlet;
#X obj 379 432 outlet~;
#X text 633 133 ENVELOPE SECTION;
#X obj 379 346 vline~;
#X msg 352 245 1;
#X obj 352 265 pack f f;
#X obj 352 286 unpack f f;
#X msg 456 246 0;
#X obj 456 267 pack f f f;
#X obj 456 288 unpack f f f;
#X obj 456 225 delay 5;
#X text 102 283 Attack : sends a 1 to get to in A msec;
#X text 529 224 wait the end of the attack;
#X text 538 254 Length+Decay : 0 to get to in D msec \, after L msec
;
#X text 493 74 A;
#X text 544 74 L;
#X text 594 74 D;
#X connect 0 0 12 0;
#X connect 0 0 18 0;
#X connect 1 0 13 1;
#X connect 1 0 18 1;
#X connect 2 0 16 2;
#X connect 3 0 16 1;
#X connect 5 0 1 0;
#X connect 6 0 2 0;
#X connect 7 0 3 0;
#X connect 8 0 0 0;
#X connect 11 0 9 0;
#X connect 12 0 13 0;
#X connect 13 0 14 0;
#X connect 14 0 11 0;
#X connect 14 1 11 1;
#X connect 15 0 16 0;
#X connect 16 0 17 0;
#X connect 17 0 11 0;
#X connect 17 1 11 1;
#X connect 17 2 11 2;
#X connect 18 0 15 0;
#X restore 461 -129 pd eald~;
#X obj 153 -108 loadbang;
#X msg 153 -87 50;
#X obj 64 -67 + 0.2;
#X obj -15 -448 inlet;
#X obj 35 -448 inlet;
#X obj 138 -399 inlet;
#X obj 188 -399 inlet;
#X obj 306 -387 inlet;
#X obj 356 -387 inlet;
#X obj 402 -387 inlet;
#X obj 484 -245 inlet;
#X obj 534 -245 inlet;
#X obj 580 -245 inlet;
#X obj 8 3 FX_st-vibrato;
#X obj 8 71 FX_mono-pureverb;
#X obj 22 158 outlet~;
#X connect 0 0 17 1;
#X connect 1 0 3 0;
#X connect 3 0 4 0;
#X connect 3 0 17 0;
#X connect 4 0 6 0;
#X connect 5 0 4 1;
#X connect 6 0 0 0;
#X connect 7 0 6 1;
#X connect 10 0 39 2;
#X connect 11 0 1 0;
#X connect 12 0 5 0;
#X connect 13 0 7 0;
#X connect 14 0 11 0;
#X connect 14 0 18 0;
#X connect 14 1 21 0;
#X connect 15 0 39 2;
#X connect 16 0 39 2;
#X connect 17 0 19 0;
#X connect 18 0 23 0;
#X connect 18 0 25 0;
#X connect 19 0 20 0;
#X connect 20 0 39 0;
#X connect 20 0 39 1;
#X connect 21 0 28 0;
#X connect 22 0 20 1;
#X connect 23 0 22 1;
#X connect 25 0 19 1;
#X connect 26 0 27 0;
#X connect 27 0 23 0;
#X connect 28 0 22 0;
#X connect 29 0 14 0;
#X connect 30 0 14 1;
#X connect 31 0 12 0;
#X connect 32 0 13 0;
#X connect 33 0 10 0;
#X connect 34 0 15 0;
#X connect 35 0 16 0;
#X connect 36 0 25 1;
#X connect 37 0 25 2;
#X connect 38 0 25 3;
#X connect 39 0 40 0;
#X connect 39 1 40 0;
#X connect 40 0 41 0;
#X coords 0 1 100 -1 200 140 1 0 0;
#X restore 7 221 graph;
#X obj 82 188 * 100;
#X obj 120 188 * 100;
#X obj 159 188 / 100;
#X obj 200 188 / 100;
#X obj 238 188 / 100;
#X obj 7 -70 r noteFM1;
#X obj 40 -50 r velFM1;
#X floatatom 278 172 5 0 0 0 - - -;
#X floatatom 316 172 5 0 0 0 - - -;
#X floatatom 352 172 5 0 0 0 - - -;
#X obj 278 65 ctlin 6;
#X obj 317 84 ctlin 7;
#X obj 352 103 ctlin 8;
#X floatatom 316 205 5 0 0 0 - - -;
#X floatatom 352 205 5 0 0 0 - - -;
#X obj 316 188 * 10;
#X obj 278 188 * 1;
#X floatatom 278 205 5 0 0 0 - - -;
#X obj 352 188 * 10;
#X obj 82 -30 ctlin 1;
#X obj 119 -11 ctlin 2;
#X obj 159 9 ctlin 3;
#X obj 200 28 ctlin 4;
#X obj 238 46 ctlin 5;
#X floatatom 200 205 5 0 0 0 - - -;
#X floatatom 238 205 5 0 0 0 - - -;
#X floatatom 159 205 5 0 0 0 - - -;
#X floatatom 120 205 5 0 0 0 - - -;
#X floatatom 82 205 5 0 0 0 - - -;
#X floatatom 200 172 5 0 0 0 - - -;
#X floatatom 238 172 5 0 0 0 - - -;
#X floatatom 159 172 5 0 0 0 - - -;
#X floatatom 120 172 5 0 0 0 - - -;
#X floatatom 82 172 5 0 0 0 - - -;
#X text 134 -32 FM index;
#X text 173 -12 Carrier frequency;
#X text 213 10 Vib speed;
#X text 252 27 Vib depth;
#X text 291 44 Vib depth;
#X text 330 63 Attack;
#X text 371 86 Length;
#X text 401 103 Decay;
#X obj -50 165 notein;
#X floatatom 2 180 5 0 0 0 - - -;
#X floatatom 40 205 5 0 0 0 - - -;
#X obj 352 143 knob 25 25 0 127 0 0 empty empty empty 0 -8 32 8 -1
-260097 -260097 0 1;
#X obj 317 143 knob 25 25 0 127 0 0 empty empty empty 0 -8 32 8 -1
-260097 -260097 0 1;
#X obj 278 143 knob 25 25 0 127 0 0 empty empty empty 0 -8 32 8 -1
-260097 -260097 0 1;
#X obj 238 143 knob 25 25 0 127 0 0 empty empty empty 0 -8 32 8 -1
-260097 -260097 0 1;
#X obj 200 143 knob 25 25 0 127 0 0 empty empty empty 0 -8 32 8 -1
-260097 -260097 0 1;
#X obj 159 143 knob 25 25 0 127 0 0 empty empty empty 0 -8 32 8 -1
-260097 -260097 0 1;
#X obj 120 143 knob 25 25 0 127 0 0 empty empty empty 0 -8 32 8 -1
-260097 -260097 0 1;
#X obj 82 143 knob 25 25 0 127 0 0 empty empty empty 0 -8 32 8 -1 -260097
-260097 0 1;
#N canvas 0 22 450 300 (subpatch) 0;
#X obj 59 155 inlet;
#X obj 3 89 inlet~;
#X obj 58 182 change;
#X msg 60 246 set \$1;
#X obj 60 227 tosymbol;
#X obj 59 204 sprintf Bus%d;
#X obj 3 282 throw~ Bus0;
#X obj 2 3 popup 124 25 #ffffff popup Bus0 Bus1 Bus2 Bus3 Bus4 Bus5
;
#X obj 1 32 route bang;
#X obj 154 202 *~;
#X obj 141 7 tgl 15 0 empty empty Dac 19 7 0 10 -262144 -1 -1 0 1;
#X obj 155 238 dac~;
#X obj 1 -58 loadbang;
#X text 59 -60 Bus0 mutes;
#X msg 1 -40 options Bus0 Bus1 Bus2 Bus3 Bus4 Bus5 Bus6 Bus7 Bus8 Bus9
Bus10 Bus11 Bus12 Bus13 Bus14 Bus15 Bus16;
#X connect 0 0 2 0;
#X connect 1 0 6 0;
#X connect 1 0 9 0;
#X connect 2 0 5 0;
#X connect 3 0 6 0;
#X connect 4 0 3 0;
#X connect 5 0 4 0;
#X connect 7 0 8 0;
#X connect 8 1 2 0;
#X connect 9 0 11 0;
#X connect 9 0 11 1;
#X connect 10 0 9 1;
#X connect 12 0 14 0;
#X connect 14 0 7 0;
#X coords 0 1 100 -1 180 30 1 0 0;
#X restore 7 361 graph;
#N canvas 0 22 450 300 (subpatch) 0;
#X obj -30 22 spigot;
#X obj 2 3 tgl 15 0 empty empty empty 17 7 0 10 -262144 -1 -1 0 1;
#X obj -58 0 inlet;
#X obj -54 54 outlet;
#X connect 0 0 3 0;
#X connect 1 0 0 1;
#X connect 2 0 0 0;
#X coords 0 1 100 -1 20 20 1 0 0;
#X restore 278 120 graph;
#N canvas 0 22 450 300 (subpatch) 0;
#X obj -30 22 spigot;
#X obj 2 3 tgl 15 0 empty empty empty 17 7 0 10 -262144 -1 -1 0 1;
#X obj -58 0 inlet;
#X obj -54 54 outlet;
#X connect 0 0 3 0;
#X connect 1 0 0 1;
#X connect 2 0 0 0;
#X coords 0 1 100 -1 20 20 1 0 0;
#X restore 317 120 graph;
#N canvas 0 22 450 300 (subpatch) 0;
#X obj -30 22 spigot;
#X obj 2 3 tgl 15 0 empty empty empty 17 7 0 10 -262144 -1 -1 0 1;
#X obj -58 0 inlet;
#X obj -54 54 outlet;
#X connect 0 0 3 0;
#X connect 1 0 0 1;
#X connect 2 0 0 0;
#X coords 0 1 100 -1 20 20 1 0 0;
#X restore 352 120 graph;
#N canvas 0 22 450 300 (subpatch) 0;
#X obj -30 22 spigot;
#X obj 2 3 tgl 15 0 empty empty empty 17 7 0 10 -262144 -1 -1 0 1;
#X obj -58 0 inlet;
#X obj -54 54 outlet;
#X connect 0 0 3 0;
#X connect 1 0 0 1;
#X connect 2 0 0 0;
#X coords 0 1 100 -1 20 20 1 0 0;
#X restore 159 120 graph;
#N canvas 0 22 450 300 (subpatch) 0;
#X obj -30 22 spigot;
#X obj 2 3 tgl 15 0 empty empty empty 17 7 0 10 -262144 -1 -1 0 1;
#X obj -58 0 inlet;
#X obj -54 54 outlet;
#X connect 0 0 3 0;
#X connect 1 0 0 1;
#X connect 2 0 0 0;
#X coords 0 1 100 -1 20 20 1 0 0;
#X restore 200 120 graph;
#N canvas 0 22 450 300 (subpatch) 0;
#X obj -30 22 spigot;
#X obj 2 3 tgl 15 0 empty empty empty 17 7 0 10 -262144 -1 -1 0 1;
#X obj -58 0 inlet;
#X obj -54 54 outlet;
#X connect 0 0 3 0;
#X connect 1 0 0 1;
#X connect 2 0 0 0;
#X coords 0 1 100 -1 20 20 1 0 0;
#X restore 238 120 graph;
#N canvas 0 22 450 300 (subpatch) 0;
#X obj -30 22 spigot;
#X obj 2 3 tgl 15 0 empty empty empty 17 7 0 10 -262144 -1 -1 0 1;
#X obj -58 0 inlet;
#X obj -54 54 outlet;
#X connect 0 0 3 0;
#X connect 1 0 0 1;
#X connect 2 0 0 0;
#X coords 0 1 100 -1 20 20 1 0 0;
#X restore 40 120 graph;
#N canvas 0 22 450 300 (subpatch) 0;
#X obj -30 22 spigot;
#X obj 2 3 tgl 15 0 empty empty empty 17 7 0 10 -262144 -1 -1 0 1;
#X obj -58 0 inlet;
#X obj -54 54 outlet;
#X connect 0 0 3 0;
#X connect 1 0 0 1;
#X connect 2 0 0 0;
#X coords 0 1 100 -1 20 20 1 0 0;
#X restore 82 120 graph;
#N canvas 0 22 450 300 (subpatch) 0;
#X obj -30 22 spigot;
#X obj 2 3 tgl 15 0 empty empty empty 17 7 0 10 -262144 -1 -1 0 1;
#X obj -58 0 inlet;
#X obj -54 54 outlet;
#X connect 0 0 3 0;
#X connect 1 0 0 1;
#X connect 2 0 0 0;
#X coords 0 1 100 -1 20 20 1 0 0;
#X restore 119 120 graph;
#N canvas 0 22 450 300 (subpatch) 0;
#X obj -30 22 spigot;
#X obj 2 3 tgl 15 0 empty empty empty 17 7 0 10 -262144 -1 -1 0 1;
#X obj -58 0 inlet;
#X obj -54 54 outlet;
#X connect 0 0 3 0;
#X connect 1 0 0 1;
#X connect 2 0 0 0;
#X coords 0 1 100 -1 20 20 1 0 0;
#X restore -50 185 graph;
#N canvas 0 22 450 300 (subpatch) 0;
#X obj -30 22 spigot;
#X obj 2 3 tgl 15 0 empty empty empty 17 7 0 10 -262144 -1 -1 0 1;
#X obj -58 0 inlet;
#X obj -54 54 outlet;
#X connect 0 0 3 0;
#X connect 1 0 0 1;
#X connect 2 0 0 0;
#X coords 0 1 100 -1 20 20 1 0 0;
#X restore -30 185 graph;
#N canvas 0 22 450 300 (subpatch) 0;
#X obj -30 22 spigot;
#X obj 2 3 tgl 15 0 empty empty empty 17 7 0 10 -262144 -1 -1 0 1;
#X obj -58 0 inlet;
#X obj -54 54 outlet;
#X connect 0 0 3 0;
#X connect 1 0 0 1;
#X connect 2 0 0 0;
#X coords 0 1 100 -1 20 20 1 0 0;
#X restore 7 120 graph;
#X obj 282 369 declare -path ../FX;
#X obj -26 250 + 24;
#X connect 0 0 54 0;
#X connect 1 0 29 0;
#X connect 2 0 28 0;
#X connect 3 0 27 0;
#X connect 4 0 25 0;
#X connect 5 0 26 0;
#X connect 6 0 66 0;
#X connect 7 0 61 0;
#X connect 8 0 17 0;
#X connect 9 0 16 0;
#X connect 10 0 19 0;
#X connect 11 0 55 0;
#X connect 12 0 56 0;
#X connect 13 0 57 0;
#X connect 14 0 0 8;
#X connect 15 0 0 9;
#X connect 16 0 14 0;
#X connect 17 0 18 0;
#X connect 18 0 0 7;
#X connect 19 0 15 0;
#X connect 20 0 62 0;
#X connect 21 0 63 0;
#X connect 22 0 58 0;
#X connect 23 0 59 0;
#X connect 24 0 60 0;
#X connect 25 0 0 5;
#X connect 26 0 0 6;
#X connect 27 0 0 4;
#X connect 28 0 0 3;
#X connect 29 0 0 2;
#X connect 30 0 4 0;
#X connect 31 0 5 0;
#X connect 32 0 3 0;
#X connect 33 0 2 0;
#X connect 34 0 1 0;
#X connect 43 0 64 0;
#X connect 43 1 65 0;
#X connect 44 0 68 0;
#X connect 45 0 0 1;
#X connect 46 0 10 0;
#X connect 47 0 9 0;
#X connect 48 0 8 0;
#X connect 49 0 31 0;
#X connect 50 0 30 0;
#X connect 51 0 32 0;
#X connect 52 0 33 0;
#X connect 53 0 34 0;
#X connect 55 0 48 0;
#X connect 56 0 47 0;
#X connect 57 0 46 0;
#X connect 58 0 51 0;
#X connect 59 0 50 0;
#X connect 60 0 49 0;
#X connect 61 0 45 0;
#X connect 62 0 53 0;
#X connect 63 0 52 0;
#X connect 64 0 44 0;
#X connect 65 0 45 0;
#X connect 66 0 44 0;
#X connect 68 0 0 0;
