#N canvas 0 22 407 385 10;
#N canvas 0 22 1009 720 (subpatch) 0;
#X text 133 31 Musical Box wrapper;
#X text 133 42 Nitendo like wrapper;
#X text 133 52 Brass sound toy;
#X text 133 61 Backwards ?;
#X obj 122 5 vradio 10 1 0 8 empty empty empty 0 -8 0 10 -262144 -1
-1 0;
#X text 133 1 Hollow Strings;
#X text 133 12 Bass sound wrapper;
#X text 133 22 Pluckstring wrapper;
#X obj -311 -164 inlet;
#X obj 63 154 hsl 128 20 0 1 0 1 empty empty pan_position 6 10 1 11
-262131 -1 -1 6350 0;
#X obj -66 393 equal_power_pan~;
#X obj -66 416 outlet~;
#X obj 42 416 outlet~;
#X obj 507 -158 loadbang;
#X msg 513 -128 0.5;
#X obj -121 372 *~;
#X obj -104 344 / 100;
#N canvas 0 22 450 300 3cossynth 0;
#X obj 146 195 osc~;
#X obj 145 220 *~ 0.09;
#X obj 202 195 osc~;
#X obj 265 195 osc~;
#X obj 202 220 *~ 0.05;
#X obj 266 222 *~ 0.02;
#X obj 202 170 *;
#X obj 265 171 *;
#X obj 218 141 * 4;
#X obj 281 141 * 8;
#X obj 201 259 clip~ -0.1 0.1;
#X obj 93 348 *~;
#X obj 46 121 mtof;
#X obj 93 317 line;
#X obj 93 396 outlet~;
#X obj 46 228 pack 1 1;
#X obj 93 289 pack 0 1;
#X obj 93 262 del 1;
#X obj 93 370 *~;
#X obj 46 84 unpack 1 2 3 4 5 6 7 8 9;
#X obj 97 196 t f f;
#X obj 46 176 t b b;
#X obj 46 51 inlet parameters;
#X text 40 20 3 oscillator and clip synth;
#X connect 0 0 1 0;
#X connect 1 0 10 0;
#X connect 2 0 4 0;
#X connect 3 0 5 0;
#X connect 4 0 10 0;
#X connect 5 0 10 0;
#X connect 6 0 2 0;
#X connect 7 0 3 0;
#X connect 8 0 6 1;
#X connect 9 0 7 1;
#X connect 10 0 11 1;
#X connect 11 0 18 0;
#X connect 12 0 0 0;
#X connect 12 0 6 0;
#X connect 12 0 7 0;
#X connect 12 0 21 0;
#X connect 13 0 11 0;
#X connect 15 0 13 0;
#X connect 16 0 13 0;
#X connect 17 0 16 0;
#X connect 18 0 14 0;
#X connect 19 0 12 0;
#X connect 19 1 1 1;
#X connect 19 2 4 1;
#X connect 19 3 5 1;
#X connect 19 4 8 0;
#X connect 19 5 9 0;
#X connect 19 6 20 0;
#X connect 19 7 16 1;
#X connect 19 8 18 1;
#X connect 20 0 15 1;
#X connect 20 1 17 1;
#X connect 21 0 15 0;
#X connect 21 1 17 0;
#X connect 22 0 19 0;
#X restore -81 274 pd 3cossynth;
#X text 42 219 (note \, l0 \, l1 \, l2 \, f1 \, f2 \, A \, D \, Amp)
;
#X msg -223 -250 \$1 0.298 0.353 0.172 0.122 0.251 20 1000 0.9;
#X msg -204 -214 \$1 0.298 0.353 0.172 0.122 0.502 10 100 0.4;
#N canvas 0 22 753 576 HollowString 0;
#X obj 191 374 random 2;
#X obj 154 395 spigot;
#X obj 370 217 * 0.02;
#X obj 370 240 + 0.69;
#X obj 293 177 random 100;
#X obj 293 196 / 100;
#X obj 293 241 + 0.369;
#X obj 293 218 * 0.001;
#X obj 370 177 random 100;
#X obj 370 196 / 100;
#X obj 454 177 random 100;
#X obj 454 196 / 100;
#X obj 454 217 * 100;
#X obj 454 240 + 50;
#X obj 531 176 random 100;
#X obj 531 195 / 100;
#X obj 154 315 pack f f f f f;
#X obj 531 216 * 800;
#X obj 531 239 + 120;
#X msg 154 340 \$1 0.298 0.2 0.2 \$2 \$3 \$4 \$5 0.6;
#X text 186 25 stringy resonances;
#X text 399 150 randomised synth parameters;
#X text 287 322 fixed synth parameters;
#X obj 155 431 outlet;
#X obj 39 54 inlet;
#X obj 77 91 bng 15 250 50 0 empty empty empty 17 7 0 10 -262144 -1
-1;
#X connect 0 0 1 1;
#X connect 2 0 3 0;
#X connect 3 0 16 2;
#X connect 4 0 5 0;
#X connect 5 0 7 0;
#X connect 6 0 16 1;
#X connect 7 0 6 0;
#X connect 8 0 9 0;
#X connect 9 0 2 0;
#X connect 10 0 11 0;
#X connect 11 0 12 0;
#X connect 12 0 13 0;
#X connect 13 0 16 3;
#X connect 14 0 15 0;
#X connect 15 0 17 0;
#X connect 16 0 19 0;
#X connect 17 0 18 0;
#X connect 18 0 16 4;
#X connect 19 0 23 0;
#X connect 24 0 25 0;
#X connect 24 0 16 0;
#X connect 25 0 4 0;
#X connect 25 0 8 0;
#X connect 25 0 10 0;
#X connect 25 0 14 0;
#X connect 25 0 0 0;
#X restore -241 -291 pd HollowString;
#X obj -241 -361 prepend;
#X floatatom -154 -367 5 0 0 0 - - -;
#X msg -185 -181 \$1 0 0 0.25 1 1 0 500;
#X msg -167 -146 \$1 1 0 0 0 0.354 7.99 450;
#X msg -146 -114 \$1 1 0 1 1 0 52.91 720;
#X msg -132 -81 \$1 1 0 1 1 1 150 0;
#X floatatom -42 -305 5 0 0 0 - - -;
#X floatatom -3 -306 5 0 0 0 - - -;
#X floatatom 33 -306 5 0 0 0 - - -;
#X floatatom 75 -305 5 0 0 0 - - -;
#X floatatom 114 -306 5 0 0 0 - - -;
#X floatatom 150 -306 5 0 0 0 - - -;
#X floatatom 187 -305 5 0 0 0 - - -;
#X floatatom 226 -306 5 0 0 0 - - -;
#X floatatom 262 -306 5 0 0 0 - - -;
#X obj -37 -338 unpack 0 0 0 0 0 0 0 0 0;
#X obj -33 199 pack f f f f f f f f f;
#X obj 222 100 knob 25 25 0 1000 0 0 \$0xcza \$0dczejn empty 0 -8 32
8 -1 -260097 -260097 0 1;
#X obj 187 101 knob 25 25 0 500 0 0 \$0azoidx \$0xzanh empty 0 -8 32
8 -1 -260097 -260097 0 1;
#X obj 151 100 knob 25 25 0 1 0 0 \$0xzadxz \$0azidnza empty 0 -8 32
8 -1 -260097 -260097 0 1;
#X obj 114 101 knob 25 25 0 1 0 0 \$0dsqdc \$0ciuqsh empty 0 -8 32
8 -1 -260097 -260097 0 1;
#X obj 77 100 knob 25 25 0 1 0 0 \$0-azdfj \$0-cxwcze empty 0 -8 32
8 -1 -260097 -260097 0 1;
#X obj 41 100 knob 25 25 0 1 0 0 \$0-aze \$0oijhijo empty 0 -8 32 8
-1 -260097 -260097 0 1;
#X obj 5 100 knob 25 25 0 1 0 0 \$0-qSDS \$0-azdijz empty 0 -8 32 8
-1 -260097 -260097 0 1;
#X floatatom 223 131 5 0 0 0 - - -;
#X floatatom 188 131 5 0 0 0 - - -;
#X floatatom 6 130 5 0 0 0 - - -;
#X floatatom 42 130 5 0 0 0 - - -;
#X floatatom 78 131 5 0 0 0 - - -;
#X floatatom 115 131 5 0 0 0 - - -;
#X floatatom 152 131 5 0 0 0 - - -;
#X text 8 84 IO;
#X text 43 84 I1;
#X text 80 84 I2;
#X text 120 84 F1;
#X text 156 84 F2;
#X text 194 84 A;
#X text 227 84 D;
#X floatatom -325 -46 5 0 0 0 - - -;
#X obj -161 9 t b f;
#X obj -241 -342 route 0 1 2 3 4 5 6 7;
#X msg -120 -46 \$1;
#X text 134 72 Knobs;
#X obj -254 9 t f f;
#X connect 4 0 61 0;
#X connect 8 0 65 0;
#X connect 9 0 10 1;
#X connect 10 0 11 0;
#X connect 10 1 12 0;
#X connect 13 0 14 0;
#X connect 14 0 9 0;
#X connect 15 0 10 0;
#X connect 16 0 15 1;
#X connect 17 0 15 0;
#X connect 19 0 37 0;
#X connect 20 0 37 0;
#X connect 21 0 37 0;
#X connect 22 0 62 0;
#X connect 23 0 22 1;
#X connect 24 0 37 0;
#X connect 25 0 37 0;
#X connect 26 0 37 0;
#X connect 27 0 37 0;
#X connect 28 0 38 0;
#X connect 29 0 45 0;
#X connect 30 0 44 0;
#X connect 31 0 43 0;
#X connect 32 0 42 0;
#X connect 33 0 41 0;
#X connect 34 0 40 0;
#X connect 35 0 39 0;
#X connect 36 0 38 8;
#X connect 37 0 28 0;
#X connect 37 1 29 0;
#X connect 37 2 30 0;
#X connect 37 3 31 0;
#X connect 37 4 32 0;
#X connect 37 5 33 0;
#X connect 37 6 34 0;
#X connect 37 7 35 0;
#X connect 37 8 36 0;
#X connect 38 0 17 0;
#X connect 39 0 46 0;
#X connect 40 0 47 0;
#X connect 41 0 52 0;
#X connect 42 0 51 0;
#X connect 43 0 50 0;
#X connect 44 0 49 0;
#X connect 45 0 48 0;
#X connect 46 0 38 7;
#X connect 47 0 38 6;
#X connect 48 0 38 1;
#X connect 49 0 38 2;
#X connect 50 0 38 3;
#X connect 51 0 38 4;
#X connect 52 0 38 5;
#X connect 60 0 65 0;
#X connect 61 0 65 0;
#X connect 61 1 23 0;
#X connect 62 0 21 0;
#X connect 62 1 19 0;
#X connect 62 2 20 0;
#X connect 62 3 24 0;
#X connect 62 4 25 0;
#X connect 62 5 26 0;
#X connect 62 6 27 0;
#X connect 62 7 63 0;
#X connect 63 0 38 0;
#X connect 65 0 22 0;
#X connect 65 1 16 0;
#X coords 0 1 100 -1 260 175 1 0 0;
#X restore -2 23 graph;
#X obj -2 6 pack f f;
#X obj -57 -52 notein;
#X floatatom -2 -11 5 0 0 0 - - -;
#X floatatom 30 -11 5 0 0 0 - - -;
#N canvas 0 22 450 300 (subpatch) 0;
#X obj -30 22 spigot;
#X obj 2 3 tgl 15 0 empty empty empty 17 7 0 10 -262144 -1 -1 0 1;
#X obj -58 0 inlet;
#X obj -54 54 outlet;
#X connect 0 0 3 0;
#X connect 1 0 0 1;
#X connect 2 0 0 0;
#X coords 0 1 100 -1 20 20 1 0 0;
#X restore -2 -53 graph;
#N canvas 0 22 450 300 (subpatch) 0;
#X obj -30 22 spigot;
#X obj 2 3 tgl 15 0 empty empty empty 17 7 0 10 -262144 -1 -1 0 1;
#X obj -58 0 inlet;
#X obj -54 54 outlet;
#X connect 0 0 3 0;
#X connect 1 0 0 1;
#X connect 2 0 0 0;
#X coords 0 1 100 -1 20 20 1 0 0;
#X restore 30 -53 graph;
#N canvas 0 22 450 300 (subpatch) 0;
#X obj -30 22 spigot;
#X obj 2 3 tgl 15 0 empty empty empty 17 7 0 10 -262144 -1 -1 0 1;
#X obj -58 0 inlet;
#X obj -54 54 outlet;
#X connect 0 0 3 0;
#X connect 1 0 0 1;
#X connect 2 0 0 0;
#X coords 0 1 100 -1 20 20 1 0 0;
#X restore -57 -31 graph;
#N canvas 0 22 450 300 (subpatch) 0;
#X obj -30 22 spigot;
#X obj 2 3 tgl 15 0 empty empty empty 17 7 0 10 -262144 -1 -1 0 1;
#X obj -58 0 inlet;
#X obj -54 54 outlet;
#X connect 0 0 3 0;
#X connect 1 0 0 1;
#X connect 2 0 0 0;
#X coords 0 1 100 -1 20 20 1 0 0;
#X restore -37 -31 graph;
#X obj -2 -92 r note;
#X obj 30 -72 r vel;
#N canvas 0 22 450 300 (subpatch) 0;
#X obj 59 155 inlet;
#X obj 3 89 inlet~;
#X obj 58 182 change;
#X msg 60 246 set \$1;
#X obj 60 227 tosymbol;
#X obj 59 204 sprintf Bus%d;
#X obj 3 282 throw~ Bus0;
#X obj 2 3 popup 124 25 #ffffff popup Bus0 Bus1 Bus2 Bus3 Bus4 Bus5
Bus6 Bus7 Bus8 Bus9 Bus10 Bus11 Bus12 Bus13 Bus14 Bus15 Bus16;
#X obj 1 32 route bang;
#X obj 154 202 *~;
#X obj 141 7 tgl 15 0 empty empty Dac 19 7 0 10 -262144 -1 -1 0 1;
#X obj 155 238 dac~;
#X obj 1 -41 loadbang;
#X text 59 -43 Bus0 mutes;
#X msg 1 -23 options Bus0 Bus1 Bus2 Bus3 Bus4 Bus5 Bus6 Bus7 Bus8 Bus9
Bus10 Bus11 Bus12 Bus13 Bus14 Bus15 Bus16;
#X connect 0 0 2 0;
#X connect 1 0 6 0;
#X connect 1 0 9 0;
#X connect 2 0 5 0;
#X connect 3 0 6 0;
#X connect 4 0 3 0;
#X connect 5 0 4 0;
#X connect 7 0 8 0;
#X connect 8 1 2 0;
#X connect 9 0 11 0;
#X connect 10 0 9 1;
#X connect 12 0 14 0;
#X connect 14 0 7 0;
#X coords 0 1 100 -1 180 30 1 0 0;
#X restore -2 198 graph;
#N canvas 0 22 450 300 (subpatch) 0;
#X obj 59 155 inlet;
#X obj 3 89 inlet~;
#X obj 58 182 change;
#X msg 60 246 set \$1;
#X obj 60 227 tosymbol;
#X obj 59 204 sprintf Bus%d;
#X obj 3 282 throw~ Bus0;
#X obj 2 3 popup 124 25 #ffffff popup Bus0 Bus1 Bus2 Bus3 Bus4 Bus5
Bus6 Bus7 Bus8 Bus9 Bus10 Bus11 Bus12 Bus13 Bus14 Bus15 Bus16;
#X obj 1 32 route bang;
#X obj 154 202 *~;
#X obj 141 7 tgl 15 0 empty empty Dac 19 7 0 10 -262144 -1 -1 0 1;
#X obj 155 238 dac~;
#X obj 1 -41 loadbang;
#X text 59 -43 Bus0 mutes;
#X msg 1 -23 options Bus0 Bus1 Bus2 Bus3 Bus4 Bus5 Bus6 Bus7 Bus8 Bus9
Bus10 Bus11 Bus12 Bus13 Bus14 Bus15 Bus16;
#X connect 0 0 2 0;
#X connect 1 0 6 0;
#X connect 1 0 9 0;
#X connect 2 0 5 0;
#X connect 3 0 6 0;
#X connect 4 0 3 0;
#X connect 5 0 4 0;
#X connect 7 0 8 0;
#X connect 8 1 2 0;
#X connect 9 0 11 1;
#X connect 10 0 9 1;
#X connect 12 0 14 0;
#X connect 14 0 7 0;
#X coords 0 1 100 -1 180 30 1 0 0;
#X restore -2 231 graph;
#X text -12 206 L;
#X text -13 239 R;
#X connect 0 0 11 0;
#X connect 0 1 12 0;
#X connect 1 0 0 0;
#X connect 2 0 7 0;
#X connect 2 1 8 0;
#X connect 3 0 1 0;
#X connect 4 0 1 1;
#X connect 5 0 3 0;
#X connect 6 0 4 0;
#X connect 7 0 3 0;
#X connect 8 0 4 0;
#X connect 9 0 5 0;
#X connect 10 0 6 0;
