#N canvas 20 22 763 332 10;
#X obj -36 -118 notein;
#X obj 28 -196 r note;
#X obj 65 -177 r vel;
#X floatatom 28 -78 5 0 0 0 - - -;
#X floatatom 65 -78 5 0 0 0 - - -;
#N canvas 0 22 450 300 (subpatch) 0;
#N canvas 0 22 677 461 3cossynth 0;
#X obj 146 195 osc~;
#X obj 145 220 *~ 0.09;
#X obj 202 195 osc~;
#X obj 265 195 osc~;
#X obj 202 220 *~ 0.05;
#X obj 266 222 *~ 0.02;
#X obj 202 170 *;
#X obj 265 171 *;
#X obj 218 141 * 4;
#X obj 281 141 * 8;
#X obj 201 259 clip~ -0.1 0.1;
#X obj 93 348 *~;
#X obj 46 121 mtof;
#X obj 93 317 line;
#X obj 93 396 outlet~;
#X obj 46 228 pack 1 1;
#X obj 93 289 pack 0 1;
#X obj 93 262 del 1;
#X obj 93 370 *~;
#X obj 46 84 unpack 1 2 3 4 5 6 7 8 9;
#X obj 97 196 t f f;
#X obj 46 176 t b b;
#X obj 46 51 inlet parameters;
#X text 40 20 3 oscillator and clip synth;
#X connect 0 0 1 0;
#X connect 1 0 10 0;
#X connect 2 0 4 0;
#X connect 3 0 5 0;
#X connect 4 0 10 0;
#X connect 5 0 10 0;
#X connect 6 0 2 0;
#X connect 7 0 3 0;
#X connect 8 0 6 1;
#X connect 9 0 7 1;
#X connect 10 0 11 1;
#X connect 11 0 18 0;
#X connect 12 0 0 0;
#X connect 12 0 6 0;
#X connect 12 0 7 0;
#X connect 12 0 21 0;
#X connect 13 0 11 0;
#X connect 15 0 13 0;
#X connect 16 0 13 0;
#X connect 17 0 16 0;
#X connect 18 0 14 0;
#X connect 19 0 12 0;
#X connect 19 1 1 1;
#X connect 19 2 4 1;
#X connect 19 3 5 1;
#X connect 19 4 8 0;
#X connect 19 5 9 0;
#X connect 19 6 20 0;
#X connect 19 7 16 1;
#X connect 19 8 18 1;
#X connect 20 0 15 1;
#X connect 20 1 17 1;
#X connect 21 0 15 0;
#X connect 21 1 17 0;
#X connect 22 0 19 0;
#X restore -8 181 pd 3cossynth;
#X text 74 182 (note \, l0 \, l1 \, l2 \, f1 \, f2 \, A \, D \, Amp)
;
#X obj -8 154 pack f f f f f f f f f;
#X obj -203 83 stripnote;
#X obj -153 103 / 100;
#X obj 274 24 knob 25 25 0 127 0 0 empty empty empty 0 -8 32 8 -1 -260097
-260097 0 1;
#X obj 231 25 knob 25 25 0 127 0 0 empty empty empty 0 -8 32 8 -1 -260097
-260097 0 1;
#X obj 188 23 knob 25 25 0 127 0 0 empty empty empty 0 -8 32 8 -1 -260097
-260097 0 1;
#X obj 144 23 knob 25 25 0 127 0 0 empty empty empty 0 -8 32 8 -1 -260097
-260097 0 1;
#X obj 100 24 knob 25 25 0 127 0 0 empty empty empty 0 -8 32 8 -1 -260097
-260097 0 1;
#X obj 55 23 knob 25 25 0 127 0 0 empty empty empty 0 -8 32 8 -1 -260097
-260097 0 1;
#X obj 11 23 knob 25 25 0 127 0 0 empty empty empty 0 -8 32 8 -1 -260097
-260097 0 1;
#X floatatom 11 52 5 0 0 0 - - -;
#X floatatom 55 52 5 0 0 0 - - -;
#X floatatom 100 53 5 0 0 0 - - -;
#X floatatom 144 52 5 0 0 0 - - -;
#X floatatom 188 52 5 0 0 0 - - -;
#X floatatom 231 54 5 0 0 0 - - -;
#X floatatom 274 53 5 0 0 0 - - -;
#X floatatom 274 87 5 0 0 0 - - -;
#X obj 274 69 * 10;
#X obj 231 70 * 1;
#X floatatom 231 87 5 0 0 0 - - -;
#X floatatom 11 86 5 0 0 0 - - -;
#X floatatom 55 86 5 0 0 0 - - -;
#X floatatom 100 87 5 0 0 0 - - -;
#X floatatom 144 86 5 0 0 0 - - -;
#X floatatom 188 86 5 0 0 0 - - -;
#X obj 11 69 / 127;
#X obj 55 69 / 127;
#X obj 100 70 / 127;
#X obj 144 69 / 127;
#X obj 188 69 / 127;
#X text 14 7 IO;
#X text 57 7 I1;
#X text 103 8 I2;
#X text 146 7 F1;
#X text 191 7 F2;
#X text 233 7 A;
#X text 279 8 D;
#X obj -234 40 inlet;
#X obj -166 42 inlet;
#X obj -9 211 outlet~;
#X obj 12 -50 inlet;
#X obj 52 -50 inlet;
#X obj 90 -50 inlet;
#X obj 130 -50 inlet;
#X obj 165 -51 inlet;
#X obj 205 -51 inlet;
#X obj 255 -49 inlet;
#X connect 0 0 42 0;
#X connect 2 0 0 0;
#X connect 3 0 2 0;
#X connect 3 1 4 0;
#X connect 4 0 2 8;
#X connect 5 0 18 0;
#X connect 6 0 17 0;
#X connect 7 0 16 0;
#X connect 8 0 15 0;
#X connect 9 0 14 0;
#X connect 10 0 13 0;
#X connect 11 0 12 0;
#X connect 12 0 28 0;
#X connect 13 0 29 0;
#X connect 14 0 30 0;
#X connect 15 0 31 0;
#X connect 16 0 32 0;
#X connect 17 0 21 0;
#X connect 18 0 20 0;
#X connect 19 0 2 7;
#X connect 20 0 19 0;
#X connect 21 0 22 0;
#X connect 22 0 2 6;
#X connect 23 0 2 1;
#X connect 24 0 2 2;
#X connect 25 0 2 3;
#X connect 26 0 2 4;
#X connect 27 0 2 5;
#X connect 28 0 23 0;
#X connect 29 0 24 0;
#X connect 30 0 25 0;
#X connect 31 0 26 0;
#X connect 32 0 27 0;
#X connect 40 0 3 0;
#X connect 41 0 3 1;
#X connect 43 0 11 0;
#X connect 44 0 10 0;
#X connect 45 0 9 0;
#X connect 46 0 8 0;
#X connect 47 0 7 0;
#X connect 48 0 6 0;
#X connect 49 0 5 0;
#X coords 0 1 100 -1 310 110 1 0 0;
#X restore 28 -62 graph;
#X text 338 23 <- collect those to create presets;
#X obj 331 -99 ctlin 8;
#X obj 293 -119 ctlin 7;
#X obj 255 -138 ctlin 5;
#X obj 217 -119 ctlin 4;
#X obj 179 -99 ctlin 3;
#X obj 141 -118 ctlin 2;
#X obj 103 -138 ctlin 1;
#N canvas 0 22 450 300 (subpatch) 0;
#X obj 59 155 inlet;
#X obj 3 89 inlet~;
#X obj 58 182 change;
#X msg 60 246 set \$1;
#X obj 60 227 tosymbol;
#X obj 59 204 sprintf Bus%d;
#X obj 3 282 throw~ Bus0;
#X obj 2 3 popup 124 25 #ffffff popup Bus0 Bus1 Bus2 Bus3 Bus4 Bus5
;
#X obj 1 32 route bang;
#X obj 154 202 *~;
#X obj 141 7 tgl 15 0 empty empty Dac 19 7 0 10 -262144 -1 -1 0 1;
#X obj 155 238 dac~;
#X obj 1 -50 loadbang;
#X text 59 -52 Bus0 mutes;
#X msg 1 -32 options Bus0 Bus1 Bus2 Bus3 Bus4 Bus5 Bus6 Bus7 Bus8 Bus9
Bus10 Bus11 Bus12 Bus13 Bus14 Bus15 Bus16;
#X connect 0 0 2 0;
#X connect 1 0 6 0;
#X connect 1 0 9 0;
#X connect 2 0 5 0;
#X connect 3 0 6 0;
#X connect 4 0 3 0;
#X connect 5 0 4 0;
#X connect 7 0 8 0;
#X connect 8 1 2 0;
#X connect 9 0 11 0;
#X connect 9 0 11 1;
#X connect 10 0 9 1;
#X connect 12 0 14 0;
#X connect 14 0 7 0;
#X coords 0 1 100 -1 180 30 1 0 0;
#X restore 28 48 graph;
#N canvas 0 22 450 300 (subpatch) 0;
#X obj -30 22 spigot;
#X obj 2 3 tgl 15 0 empty empty empty 17 7 0 10 -262144 -1 -1 0 1;
#X obj -58 0 inlet;
#X obj -54 54 outlet;
#X connect 0 0 3 0;
#X connect 1 0 0 1;
#X connect 2 0 0 0;
#X coords 0 1 100 -1 20 20 1 0 0;
#X restore 293 -82 graph;
#N canvas 0 22 450 300 (subpatch) 0;
#X obj -30 22 spigot;
#X obj 2 3 tgl 15 0 empty empty empty 17 7 0 10 -262144 -1 -1 0 1;
#X obj -58 0 inlet;
#X obj -54 54 outlet;
#X connect 0 0 3 0;
#X connect 1 0 0 1;
#X connect 2 0 0 0;
#X coords 0 1 100 -1 20 20 1 0 0;
#X restore 331 -82 graph;
#N canvas 0 22 450 300 (subpatch) 0;
#X obj -30 22 spigot;
#X obj 2 3 tgl 15 0 empty empty empty 17 7 0 10 -262144 -1 -1 0 1;
#X obj -58 0 inlet;
#X obj -54 54 outlet;
#X connect 0 0 3 0;
#X connect 1 0 0 1;
#X connect 2 0 0 0;
#X coords 0 1 100 -1 20 20 1 0 0;
#X restore 217 -82 graph;
#N canvas 0 22 450 300 (subpatch) 0;
#X obj -30 22 spigot;
#X obj 2 3 tgl 15 0 empty empty empty 17 7 0 10 -262144 -1 -1 0 1;
#X obj -58 0 inlet;
#X obj -54 54 outlet;
#X connect 0 0 3 0;
#X connect 1 0 0 1;
#X connect 2 0 0 0;
#X coords 0 1 100 -1 20 20 1 0 0;
#X restore 255 -82 graph;
#N canvas 0 22 450 300 (subpatch) 0;
#X obj -30 22 spigot;
#X obj 2 3 tgl 15 0 empty empty empty 17 7 0 10 -262144 -1 -1 0 1;
#X obj -58 0 inlet;
#X obj -54 54 outlet;
#X connect 0 0 3 0;
#X connect 1 0 0 1;
#X connect 2 0 0 0;
#X coords 0 1 100 -1 20 20 1 0 0;
#X restore 141 -82 graph;
#N canvas 0 22 450 300 (subpatch) 0;
#X obj -30 22 spigot;
#X obj 2 3 tgl 15 0 empty empty empty 17 7 0 10 -262144 -1 -1 0 1;
#X obj -58 0 inlet;
#X obj -54 54 outlet;
#X connect 0 0 3 0;
#X connect 1 0 0 1;
#X connect 2 0 0 0;
#X coords 0 1 100 -1 20 20 1 0 0;
#X restore 179 -82 graph;
#N canvas 0 22 450 300 (subpatch) 0;
#X obj -30 22 spigot;
#X obj 2 3 tgl 15 0 empty empty empty 17 7 0 10 -262144 -1 -1 0 1;
#X obj -58 0 inlet;
#X obj -54 54 outlet;
#X connect 0 0 3 0;
#X connect 1 0 0 1;
#X connect 2 0 0 0;
#X coords 0 1 100 -1 20 20 1 0 0;
#X restore 28 -138 graph;
#N canvas 0 22 450 300 (subpatch) 0;
#X obj -30 22 spigot;
#X obj 2 3 tgl 15 0 empty empty empty 17 7 0 10 -262144 -1 -1 0 1;
#X obj -58 0 inlet;
#X obj -54 54 outlet;
#X connect 0 0 3 0;
#X connect 1 0 0 1;
#X connect 2 0 0 0;
#X coords 0 1 100 -1 20 20 1 0 0;
#X restore 65 -138 graph;
#N canvas 0 22 450 300 (subpatch) 0;
#X obj -30 22 spigot;
#X obj 2 3 tgl 15 0 empty empty empty 17 7 0 10 -262144 -1 -1 0 1;
#X obj -58 0 inlet;
#X obj -54 54 outlet;
#X connect 0 0 3 0;
#X connect 1 0 0 1;
#X connect 2 0 0 0;
#X coords 0 1 100 -1 20 20 1 0 0;
#X restore -36 -98 graph;
#N canvas 0 22 450 300 (subpatch) 0;
#X obj -30 22 spigot;
#X obj 2 3 tgl 15 0 empty empty empty 17 7 0 10 -262144 -1 -1 0 1;
#X obj -58 0 inlet;
#X obj -54 54 outlet;
#X connect 0 0 3 0;
#X connect 1 0 0 1;
#X connect 2 0 0 0;
#X coords 0 1 100 -1 20 20 1 0 0;
#X restore -16 -98 graph;
#N canvas 0 22 450 300 (subpatch) 0;
#X obj -30 22 spigot;
#X obj 2 3 tgl 15 0 empty empty empty 17 7 0 10 -262144 -1 -1 0 1;
#X obj -58 0 inlet;
#X obj -54 54 outlet;
#X connect 0 0 3 0;
#X connect 1 0 0 1;
#X connect 2 0 0 0;
#X coords 0 1 100 -1 20 20 1 0 0;
#X restore 103 -82 graph;
#X connect 0 0 23 0;
#X connect 0 1 24 0;
#X connect 1 0 21 0;
#X connect 2 0 22 0;
#X connect 3 0 5 0;
#X connect 4 0 5 1;
#X connect 5 0 14 0;
#X connect 7 0 16 0;
#X connect 8 0 15 0;
#X connect 9 0 18 0;
#X connect 10 0 17 0;
#X connect 11 0 20 0;
#X connect 12 0 19 0;
#X connect 13 0 25 0;
#X connect 15 0 5 7;
#X connect 16 0 5 8;
#X connect 17 0 5 5;
#X connect 18 0 5 6;
#X connect 19 0 5 3;
#X connect 20 0 5 4;
#X connect 21 0 3 0;
#X connect 22 0 4 0;
#X connect 23 0 3 0;
#X connect 24 0 4 0;
#X connect 25 0 5 2;
