#N canvas 119 22 445 477 10;
#X declare -lib iemmatrix;
#X declare -path z_8x8_abs;
#N canvas 0 22 450 300 (subpatch) 0;
#X obj 202 408 *~ 0;
#X obj 202 367 mtof;
#X obj 202 327 loadbang;
#X obj 264 408 *~ 0;
#X obj 264 367 mtof;
#X obj 264 327 loadbang;
#X obj 326 408 *~ 0;
#X obj 326 367 mtof;
#X obj 326 327 loadbang;
#X obj 388 408 *~ 0;
#X obj 388 367 mtof;
#X obj 388 327 loadbang;
#X obj 193 453 +~;
#X obj 6 211 mix.out_~;
#X msg -2 367 \$8 \$7 \$6 \$5 \$4 \$3 \$2 \$1;
#X obj 452 406 *~ 0;
#X obj 452 365 mtof;
#X obj 452 325 loadbang;
#X obj 514 406 *~ 0;
#X obj 514 365 mtof;
#X obj 514 325 loadbang;
#X obj 576 406 *~ 0;
#X obj 576 365 mtof;
#X obj 576 325 loadbang;
#X obj 638 406 *~ 0;
#X obj 638 365 mtof;
#X obj 638 325 loadbang;
#X obj 0 397 unpack f f f f f f f f;
#X msg 189 -91 6 1 0 0 1 0 0 1;
#X msg 202 347 60;
#X msg 264 347 62;
#X msg 326 347 64;
#X msg 388 347 65;
#X msg 451 345 67;
#X msg 514 345 69;
#X msg 576 345 71;
#X msg 638 345 72;
#X obj 202 387 osc~;
#X obj 264 387 osc~;
#X obj 326 387 osc~;
#X obj 388 387 osc~;
#X obj 452 385 osc~;
#X obj 514 385 osc~;
#X obj 576 385 osc~;
#X obj 638 385 osc~;
#X floatatom -86 55 5 0 0 0 - - -;
#X text 303 -92 column number followed by the eigth values of the toggles.
;
#X obj 6 5 timing.tempo_ 120 1 8;
#X text -18 -116 Description: Eight 8 step step beat sequencers.;
#X obj 6 49 seq.8x8_;
#X obj 346 201 flow.prepend set;
#X msg 348 227 1 0 0 0 0 1 1 0 1;
#X obj -212 367 flow.prepend set;
#X msg -210 393 0 0 0 0 0 0 0 0;
#N canvas 0 22 458 308 randomize 0;
#X obj 173 136 convert.byte2binary;
#X obj 136 65 t b f;
#X obj 68 136 random 8;
#X obj 68 157 + 1;
#X floatatom 72 181 5 0 0 0 - - -;
#X obj 136 23 inlet;
#X obj 136 253 outlet;
#X obj 125 215 list append;
#X connect 0 0 7 1;
#X connect 1 0 2 0;
#X connect 1 1 0 0;
#X connect 2 0 3 0;
#X connect 3 0 4 0;
#X connect 4 0 7 0;
#X connect 5 0 1 0;
#X connect 7 0 6 0;
#X restore 367 79 pd randomize;
#X floatatom 371 42 5 0 0 0 - - -;
#X obj 149 550 outlet~;
#X obj 371 554 outlet~;
#X obj 11 -43 inlet;
#X connect 0 0 12 0;
#X connect 1 0 37 0;
#X connect 2 0 29 0;
#X connect 3 0 12 0;
#X connect 4 0 38 0;
#X connect 5 0 30 0;
#X connect 6 0 12 1;
#X connect 7 0 39 0;
#X connect 8 0 31 0;
#X connect 9 0 12 1;
#X connect 10 0 40 0;
#X connect 11 0 32 0;
#X connect 12 0 13 0;
#X connect 12 0 13 1;
#X connect 14 0 27 0;
#X connect 15 0 12 0;
#X connect 16 0 41 0;
#X connect 17 0 33 0;
#X connect 18 0 12 1;
#X connect 19 0 42 0;
#X connect 20 0 34 0;
#X connect 21 0 12 1;
#X connect 22 0 43 0;
#X connect 23 0 35 0;
#X connect 24 0 12 0;
#X connect 25 0 44 0;
#X connect 26 0 36 0;
#X connect 27 0 0 1;
#X connect 27 1 3 1;
#X connect 27 2 6 1;
#X connect 27 3 9 1;
#X connect 27 4 15 1;
#X connect 27 5 18 1;
#X connect 27 6 21 1;
#X connect 27 7 24 1;
#X connect 28 0 49 1;
#X connect 29 0 1 0;
#X connect 30 0 4 0;
#X connect 31 0 7 0;
#X connect 32 0 10 0;
#X connect 33 0 16 0;
#X connect 34 0 19 0;
#X connect 35 0 22 0;
#X connect 36 0 25 0;
#X connect 37 0 0 0;
#X connect 38 0 3 0;
#X connect 39 0 6 0;
#X connect 40 0 9 0;
#X connect 41 0 15 0;
#X connect 42 0 18 0;
#X connect 43 0 21 0;
#X connect 44 0 24 0;
#X connect 45 0 49 0;
#X connect 47 0 45 0;
#X connect 49 0 14 0;
#X connect 49 0 52 0;
#X connect 50 0 51 0;
#X connect 52 0 53 0;
#X connect 54 0 50 0;
#X connect 54 0 49 1;
#X connect 55 0 54 0;
#X connect 58 0 47 0;
#X coords 0 1 100 -1 270 250 1 0 0;
#X restore 66 -1 graph;
#N canvas 0 22 450 300 armfloat 0;
#X obj 119 84 inlet bang;
#X obj 222 83 inlet trig;
#X obj 119 387 f;
#X obj 119 410 change;
#X obj 119 435 outlet trig;
#X obj 355 83 inlet wait;
#X obj 284 262 f;
#X msg 299 220 0;
#X obj 284 287 + 1;
#X obj 119 195 spigot;
#X msg 152 160 0;
#X msg 184 159 1;
#X obj 222 113 t b b;
#X obj 355 195 moses 1;
#X obj 284 310 sel 1;
#X connect 0 0 9 0;
#X connect 1 0 2 1;
#X connect 1 0 12 0;
#X connect 2 0 3 0;
#X connect 3 0 4 0;
#X connect 5 0 13 0;
#X connect 6 0 8 0;
#X connect 7 0 6 1;
#X connect 8 0 6 1;
#X connect 8 0 14 0;
#X connect 9 0 6 0;
#X connect 10 0 9 1;
#X connect 11 0 9 1;
#X connect 12 0 11 0;
#X connect 12 1 7 0;
#X connect 13 1 14 1;
#X connect 14 0 2 0;
#X connect 14 0 10 0;
#X restore 66 -19 pd armfloat;
#X obj 66 -37 r Mbang;
#X obj 97 -54 tgl 15 0 empty empty empty 0 -6 0 8 -262144 -1 -1 0 1
;
#N canvas 0 22 450 300 (subpatch) 0;
#X obj 59 155 inlet;
#X obj 3 89 inlet~;
#X obj 58 182 change;
#X msg 60 246 set \$1;
#X obj 60 227 tosymbol;
#X obj 59 204 sprintf Bus%d;
#X obj 3 282 throw~ Bus0;
#X obj 2 3 popup 124 25 #ffffff popup Bus0 Bus1 Bus2 Bus3 Bus4 Bus5
Bus6 Bus7 Bus8 Bus9 Bus10 Bus11 Bus12 Bus13 Bus14 Bus15 Bus16;
#X obj 1 32 route bang;
#X obj 154 202 *~;
#X obj 141 7 tgl 15 0 empty empty Dac 19 7 0 10 -262144 -1 -1 1 1;
#X obj 155 238 dac~;
#X obj 1 -41 loadbang;
#X text 59 -43 Bus0 mutes;
#X msg 1 -23 options Bus0 Bus1 Bus2 Bus3 Bus4 Bus5 Bus6 Bus7 Bus8 Bus9
Bus10 Bus11 Bus12 Bus13 Bus14 Bus15 Bus16;
#X connect 0 0 2 0;
#X connect 1 0 6 0;
#X connect 1 0 9 0;
#X connect 2 0 5 0;
#X connect 3 0 6 0;
#X connect 4 0 3 0;
#X connect 5 0 4 0;
#X connect 7 0 8 0;
#X connect 8 1 2 0;
#X connect 9 0 11 0;
#X connect 10 0 9 1;
#X connect 12 0 14 0;
#X connect 14 0 7 0;
#X coords 0 1 100 -1 180 30 1 0 0;
#X restore 110 278 graph;
#N canvas 0 22 450 300 (subpatch) 0;
#X obj 59 155 inlet;
#X obj 3 89 inlet~;
#X obj 58 182 change;
#X msg 60 246 set \$1;
#X obj 60 227 tosymbol;
#X obj 59 204 sprintf Bus%d;
#X obj 3 282 throw~ Bus0;
#X obj 2 3 popup 124 25 #ffffff popup Bus0 Bus1 Bus2 Bus3 Bus4 Bus5
Bus6 Bus7 Bus8 Bus9 Bus10 Bus11 Bus12 Bus13 Bus14 Bus15 Bus16;
#X obj 1 32 route bang;
#X obj 154 202 *~;
#X obj 141 7 tgl 15 0 empty empty Dac 19 7 0 10 -262144 -1 -1 1 1;
#X obj 155 238 dac~;
#X obj 1 -41 loadbang;
#X text 59 -43 Bus0 mutes;
#X msg 1 -23 options Bus0 Bus1 Bus2 Bus3 Bus4 Bus5 Bus6 Bus7 Bus8 Bus9
Bus10 Bus11 Bus12 Bus13 Bus14 Bus15 Bus16;
#X connect 0 0 2 0;
#X connect 1 0 6 0;
#X connect 1 0 9 0;
#X connect 2 0 5 0;
#X connect 3 0 6 0;
#X connect 4 0 3 0;
#X connect 5 0 4 0;
#X connect 7 0 8 0;
#X connect 8 1 2 0;
#X connect 9 0 11 1;
#X connect 10 0 9 1;
#X connect 12 0 14 0;
#X connect 14 0 7 0;
#X coords 0 1 100 -1 180 30 1 0 0;
#X restore 110 311 graph;
#X text 96 283 L;
#X text 95 316 R;
#X obj 203 -27 declare -path z_8x8_abs;
#X connect 0 0 4 0;
#X connect 0 1 5 0;
#X connect 1 0 0 0;
#X connect 2 0 1 0;
#X connect 3 0 1 1;
