#N canvas 0 22 650 568 10;
#X declare -path z_syn_abs;
#X text 356 -168 Attack;
#X text 392 -152 Length;
#X text 433 -130 Decay;
#X text 310 -191 Gain;
#X text 263 -212 Keyfollow;
#X text 220 -231 Lowpass;
#X text 175 -251 LowpassB;
#X text 130 -271 DetuneB;
#X text 85 -292 LowpassA;
#X msg -8 -7 0 \$1;
#X text 42 -313 DetuneA;
#X msg 35 -7 1 \$1;
#X msg 80 -7 2 \$1;
#X msg 124 -7 3 \$1;
#X msg 168 -7 4 \$1;
#X msg 211 -7 5 \$1;
#X msg 254 -7 6 \$1;
#N canvas 0 22 450 300 (subpatch) 0;
#X obj -86 -33 stripnote;
#X obj -88 -3 mtof;
#X obj 10 6 syn-stringsynth;
#X obj 223 189 bng 15 250 50 0 empty empty empty 17 7 0 10 -262144
-1 -1;
#X obj 240 254 *~;
#X obj 240 288 *~;
#X obj 265 230 / 100;
#X obj 267 269 line;
#X floatatom 312 247 5 0 0 0 - - -;
#X text 350 246 time offset to adjust volume to velocity;
#N canvas 0 22 450 300 eald~ 0;
#X msg 394 133 bang;
#X floatatom 504 74 5 0 0 0 - - -;
#X floatatom 555 73 5 0 0 0 - - -;
#X floatatom 605 73 5 0 0 0 - - -;
#X text 471 25 "ALD" enveloppe;
#X obj 504 49 inlet;
#X obj 555 48 inlet;
#X obj 605 48 inlet;
#X obj 408 52 inlet;
#X obj 379 432 outlet~;
#X text 633 133 ENVELOPE SECTION;
#X obj 379 346 vline~;
#X msg 352 245 1;
#X obj 352 265 pack f f;
#X obj 352 286 unpack f f;
#X msg 456 246 0;
#X obj 456 267 pack f f f;
#X obj 456 288 unpack f f f;
#X obj 456 225 delay 5;
#X text 102 283 Attack : sends a 1 to get to in A msec;
#X text 529 224 wait the end of the attack;
#X text 538 254 Length+Decay : 0 to get to in D msec \, after L msec
;
#X text 493 74 A;
#X text 544 74 L;
#X text 594 74 D;
#X connect 0 0 12 0;
#X connect 0 0 18 0;
#X connect 1 0 13 1;
#X connect 1 0 18 1;
#X connect 2 0 16 2;
#X connect 3 0 16 1;
#X connect 5 0 1 0;
#X connect 6 0 2 0;
#X connect 7 0 3 0;
#X connect 8 0 0 0;
#X connect 11 0 9 0;
#X connect 12 0 13 0;
#X connect 13 0 14 0;
#X connect 14 0 11 0;
#X connect 14 1 11 1;
#X connect 15 0 16 0;
#X connect 16 0 17 0;
#X connect 17 0 11 0;
#X connect 17 1 11 1;
#X connect 17 2 11 2;
#X connect 18 0 15 0;
#X restore 227 210 pd eald~;
#X obj 355 209 loadbang;
#X obj 266 250 + 0.05;
#X msg 355 230 1000;
#X obj -118 -55 inlet;
#X obj -47 -59 inlet;
#X obj 109 -39 inlet;
#X obj 261 127 inlet;
#X obj 304 124 inlet;
#X obj 349 123 inlet;
#X obj 240 311 outlet~;
#X connect 0 0 1 0;
#X connect 0 1 6 0;
#X connect 1 0 3 0;
#X connect 1 0 2 0;
#X connect 2 0 4 0;
#X connect 3 0 10 0;
#X connect 3 0 13 0;
#X connect 4 0 5 0;
#X connect 5 0 20 0;
#X connect 6 0 12 0;
#X connect 7 0 5 1;
#X connect 8 0 7 1;
#X connect 10 0 4 1;
#X connect 11 0 13 0;
#X connect 12 0 7 0;
#X connect 13 0 8 0;
#X connect 14 0 0 0;
#X connect 15 0 0 1;
#X connect 16 0 2 1;
#X connect 17 0 10 1;
#X connect 18 0 10 2;
#X connect 19 0 10 3;
#X coords 0 1 100 -1 200 140 1 0 0;
#X restore -85 10 graph;
#X obj -140 -47 notein;
#X floatatom -85 -6 5 0 0 0 - - -;
#X floatatom -53 -6 5 0 0 0 - - -;
#X floatatom -8 -56 5 0 0 0 - - -;
#X floatatom 35 -56 5 0 0 0 - - -;
#X floatatom 80 -56 5 0 0 0 - - -;
#X floatatom 124 -56 5 0 0 0 - - -;
#X floatatom 168 -56 5 0 0 0 - - -;
#X floatatom 211 -56 5 0 0 0 - - -;
#X floatatom 254 -56 5 0 0 0 - - -;
#X floatatom 297 -55 5 0 0 0 - - -;
#X floatatom 254 -23 5 0 0 0 - - -;
#X floatatom 297 -22 5 0 0 0 - - -;
#X floatatom 211 -23 5 0 0 0 - - -;
#X obj 297 -39 * 10;
#X floatatom -8 -23 5 0 0 0 - - -;
#X floatatom 35 -23 5 0 0 0 - - -;
#X floatatom 80 -23 5 0 0 0 - - -;
#X floatatom 124 -23 5 0 0 0 - - -;
#X floatatom 168 -23 5 0 0 0 - - -;
#X obj -8 -40 / 127;
#X obj 35 -40 / 127;
#X obj 80 -40 / 127;
#X obj 124 -40 / 127;
#X obj 168 -40 / 127;
#N canvas 0 22 450 300 (subpatch) 0;
#X obj -30 22 spigot;
#X obj 2 3 tgl 15 0 empty empty empty 17 7 0 10 -262144 -1 -1 0 1;
#X obj -58 0 inlet;
#X obj -54 54 outlet;
#X connect 0 0 3 0;
#X connect 1 0 0 1;
#X connect 2 0 0 0;
#X coords 0 1 100 -1 20 20 1 0 0;
#X restore -85 -48 graph;
#N canvas 0 22 450 300 (subpatch) 0;
#X obj -30 22 spigot;
#X obj 2 3 tgl 15 0 empty empty empty 17 7 0 10 -262144 -1 -1 0 1;
#X obj -58 0 inlet;
#X obj -54 54 outlet;
#X connect 0 0 3 0;
#X connect 1 0 0 1;
#X connect 2 0 0 0;
#X coords 0 1 100 -1 20 20 1 0 0;
#X restore -53 -48 graph;
#N canvas 0 22 450 300 (subpatch) 0;
#X obj -30 22 spigot;
#X obj 2 3 tgl 15 0 empty empty empty 17 7 0 10 -262144 -1 -1 0 1;
#X obj -58 0 inlet;
#X obj -54 54 outlet;
#X connect 0 0 3 0;
#X connect 1 0 0 1;
#X connect 2 0 0 0;
#X coords 0 1 100 -1 20 20 1 0 0;
#X restore -140 -26 graph;
#N canvas 0 22 450 300 (subpatch) 0;
#X obj -30 22 spigot;
#X obj 2 3 tgl 15 0 empty empty empty 17 7 0 10 -262144 -1 -1 0 1;
#X obj -58 0 inlet;
#X obj -54 54 outlet;
#X connect 0 0 3 0;
#X connect 1 0 0 1;
#X connect 2 0 0 0;
#X coords 0 1 100 -1 20 20 1 0 0;
#X restore -120 -26 graph;
#X obj 297 -84 knob 25 25 0 127 0 0 empty empty empty 0 -8 32 8 -1
-260097 -260097 0 1;
#X obj 254 -85 knob 25 25 0 127 0 0 empty empty empty 0 -8 32 8 -1
-260097 -260097 0 1;
#X obj 211 -85 knob 25 25 0 127 0 0 empty empty empty 0 -8 32 8 -1
-260097 -260097 0 1;
#X obj 168 -85 knob 25 25 0 127 0 0 empty empty empty 0 -8 32 8 -1
-260097 -260097 0 1;
#X obj 124 -85 knob 25 25 0 127 0 0 empty empty empty 0 -8 32 8 -1
-260097 -260097 0 1;
#X obj 80 -85 knob 25 25 0 127 0 0 empty empty empty 0 -8 32 8 -1 -260097
-260097 0 1;
#X obj 35 -85 knob 25 25 0 127 0 0 empty empty empty 0 -8 32 8 -1 -260097
-260097 0 1;
#X obj -8 -85 knob 25 25 0 127 0 0 empty empty empty 0 -8 32 8 -1 -260097
-260097 0 1;
#N canvas 0 22 450 300 (subpatch) 0;
#X obj -30 22 spigot;
#X obj 2 3 tgl 15 0 empty empty empty 17 7 0 10 -262144 -1 -1 0 1;
#X obj -58 0 inlet;
#X obj -54 54 outlet;
#X connect 0 0 3 0;
#X connect 1 0 0 1;
#X connect 2 0 0 0;
#X coords 0 1 100 -1 20 20 1 0 0;
#X restore -8 -108 graph;
#N canvas 0 22 450 300 (subpatch) 0;
#X obj -30 22 spigot;
#X obj 2 3 tgl 15 0 empty empty empty 17 7 0 10 -262144 -1 -1 0 1;
#X obj -58 0 inlet;
#X obj -54 54 outlet;
#X connect 0 0 3 0;
#X connect 1 0 0 1;
#X connect 2 0 0 0;
#X coords 0 1 100 -1 20 20 1 0 0;
#X restore 35 -108 graph;
#N canvas 0 22 450 300 (subpatch) 0;
#X obj -30 22 spigot;
#X obj 2 3 tgl 15 0 empty empty empty 17 7 0 10 -262144 -1 -1 0 1;
#X obj -58 0 inlet;
#X obj -54 54 outlet;
#X connect 0 0 3 0;
#X connect 1 0 0 1;
#X connect 2 0 0 0;
#X coords 0 1 100 -1 20 20 1 0 0;
#X restore 297 -107 graph;
#N canvas 0 22 450 300 (subpatch) 0;
#X obj -30 22 spigot;
#X obj 2 3 tgl 15 0 empty empty empty 17 7 0 10 -262144 -1 -1 0 1;
#X obj -58 0 inlet;
#X obj -54 54 outlet;
#X connect 0 0 3 0;
#X connect 1 0 0 1;
#X connect 2 0 0 0;
#X coords 0 1 100 -1 20 20 1 0 0;
#X restore 80 -108 graph;
#N canvas 0 22 450 300 (subpatch) 0;
#X obj -30 22 spigot;
#X obj 2 3 tgl 15 0 empty empty empty 17 7 0 10 -262144 -1 -1 0 1;
#X obj -58 0 inlet;
#X obj -54 54 outlet;
#X connect 0 0 3 0;
#X connect 1 0 0 1;
#X connect 2 0 0 0;
#X coords 0 1 100 -1 20 20 1 0 0;
#X restore 124 -108 graph;
#N canvas 0 22 450 300 (subpatch) 0;
#X obj -30 22 spigot;
#X obj 2 3 tgl 15 0 empty empty empty 17 7 0 10 -262144 -1 -1 0 1;
#X obj -58 0 inlet;
#X obj -54 54 outlet;
#X connect 0 0 3 0;
#X connect 1 0 0 1;
#X connect 2 0 0 0;
#X coords 0 1 100 -1 20 20 1 0 0;
#X restore 168 -108 graph;
#N canvas 0 22 450 300 (subpatch) 0;
#X obj -30 22 spigot;
#X obj 2 3 tgl 15 0 empty empty empty 17 7 0 10 -262144 -1 -1 0 1;
#X obj -58 0 inlet;
#X obj -54 54 outlet;
#X connect 0 0 3 0;
#X connect 1 0 0 1;
#X connect 2 0 0 0;
#X coords 0 1 100 -1 20 20 1 0 0;
#X restore 211 -108 graph;
#N canvas 0 22 450 300 (subpatch) 0;
#X obj -30 22 spigot;
#X obj 2 3 tgl 15 0 empty empty empty 17 7 0 10 -262144 -1 -1 0 1;
#X obj -58 0 inlet;
#X obj -54 54 outlet;
#X connect 0 0 3 0;
#X connect 1 0 0 1;
#X connect 2 0 0 0;
#X coords 0 1 100 -1 20 20 1 0 0;
#X restore 254 -108 graph;
#X obj 297 -169 ctlin 8;
#X obj 254 -191 ctlin 7;
#X obj 211 -211 ctlin 6;
#X obj 168 -231 ctlin 5;
#X obj 124 -252 ctlin 4;
#X obj 80 -272 ctlin 3;
#X obj 35 -292 ctlin 2;
#X obj -8 -313 ctlin 1;
#X obj -85 -353 r noteString;
#X obj -53 -333 r velString;
#X obj 211 -40 / 127;
#X obj 254 -40 / 127;
#X floatatom 339 -54 5 0 0 0 - - -;
#X floatatom 339 -21 5 0 0 0 - - -;
#X obj 339 -38 * 10;
#X obj 339 -83 knob 25 25 0 127 0 0 empty empty empty 0 -8 32 8 -1
-260097 -260097 0 1;
#N canvas 0 22 450 300 (subpatch) 0;
#X obj -30 22 spigot;
#X obj 2 3 tgl 15 0 empty empty empty 17 7 0 10 -262144 -1 -1 0 1;
#X obj -58 0 inlet;
#X obj -54 54 outlet;
#X connect 0 0 3 0;
#X connect 1 0 0 1;
#X connect 2 0 0 0;
#X coords 0 1 100 -1 20 20 1 0 0;
#X restore 339 -106 graph;
#X obj 339 -150 ctlin 8;
#X floatatom 380 -53 5 0 0 0 - - -;
#X floatatom 380 -20 5 0 0 0 - - -;
#X obj 380 -37 * 10;
#X obj 380 -82 knob 25 25 0 127 0 0 empty empty empty 0 -8 32 8 -1
-260097 -260097 0 1;
#N canvas 0 22 450 300 (subpatch) 0;
#X obj -30 22 spigot;
#X obj 2 3 tgl 15 0 empty empty empty 17 7 0 10 -262144 -1 -1 0 1;
#X obj -58 0 inlet;
#X obj -54 54 outlet;
#X connect 0 0 3 0;
#X connect 1 0 0 1;
#X connect 2 0 0 0;
#X coords 0 1 100 -1 20 20 1 0 0;
#X restore 380 -105 graph;
#X obj 380 -130 ctlin 8;
#N canvas 0 22 450 300 (subpatch) 0;
#X obj 59 155 inlet;
#X obj 3 89 inlet~;
#X obj 58 182 change;
#X msg 60 246 set \$1;
#X obj 60 227 tosymbol;
#X obj 59 204 sprintf Bus%d;
#X obj 3 282 throw~ Bus0;
#X obj 2 3 popup 124 25 #ffffff popup Bus0 Bus1 Bus2 Bus3 Bus4 Bus5
;
#X obj 1 32 route bang;
#X obj 154 202 *~;
#X obj 141 7 tgl 15 0 empty empty Dac 19 7 0 10 -262144 -1 -1 0 1;
#X obj 155 238 dac~;
#X obj 1 -41 loadbang;
#X text 59 -43 Bus0 mutes;
#X msg 1 -23 options Bus0 Bus1 Bus2 Bus3 Bus4 Bus5 Bus6 Bus7 Bus8 Bus9
Bus10 Bus11 Bus12 Bus13 Bus14 Bus15 Bus16;
#X connect 0 0 2 0;
#X connect 1 0 6 0;
#X connect 1 0 9 0;
#X connect 2 0 5 0;
#X connect 3 0 6 0;
#X connect 4 0 3 0;
#X connect 5 0 4 0;
#X connect 7 0 8 0;
#X connect 8 1 2 0;
#X connect 9 0 11 0;
#X connect 9 0 11 1;
#X connect 10 0 9 1;
#X connect 12 0 14 0;
#X connect 14 0 7 0;
#X coords 0 1 100 -1 180 30 1 0 0;
#X restore -85 150 graph;
#X obj 184 146 declare -path z_syn_abs;
#X connect 9 0 17 2;
#X connect 11 0 17 2;
#X connect 12 0 17 2;
#X connect 13 0 17 2;
#X connect 14 0 17 2;
#X connect 15 0 17 2;
#X connect 16 0 17 2;
#X connect 17 0 87 0;
#X connect 18 0 45 0;
#X connect 18 1 46 0;
#X connect 19 0 17 0;
#X connect 20 0 17 1;
#X connect 21 0 38 0;
#X connect 22 0 39 0;
#X connect 23 0 40 0;
#X connect 24 0 41 0;
#X connect 25 0 42 0;
#X connect 26 0 73 0;
#X connect 27 0 74 0;
#X connect 28 0 32 0;
#X connect 29 0 16 0;
#X connect 30 0 17 3;
#X connect 31 0 15 0;
#X connect 32 0 30 0;
#X connect 33 0 9 0;
#X connect 34 0 11 0;
#X connect 35 0 12 0;
#X connect 36 0 13 0;
#X connect 37 0 14 0;
#X connect 38 0 33 0;
#X connect 39 0 34 0;
#X connect 40 0 35 0;
#X connect 41 0 36 0;
#X connect 42 0 37 0;
#X connect 43 0 19 0;
#X connect 44 0 20 0;
#X connect 45 0 19 0;
#X connect 46 0 20 0;
#X connect 47 0 28 0;
#X connect 48 0 27 0;
#X connect 49 0 26 0;
#X connect 50 0 25 0;
#X connect 51 0 24 0;
#X connect 52 0 23 0;
#X connect 53 0 22 0;
#X connect 54 0 21 0;
#X connect 55 0 54 0;
#X connect 56 0 53 0;
#X connect 57 0 47 0;
#X connect 58 0 52 0;
#X connect 59 0 51 0;
#X connect 60 0 50 0;
#X connect 61 0 49 0;
#X connect 62 0 48 0;
#X connect 63 0 57 0;
#X connect 64 0 62 0;
#X connect 65 0 61 0;
#X connect 66 0 60 0;
#X connect 67 0 59 0;
#X connect 68 0 58 0;
#X connect 69 0 56 0;
#X connect 70 0 55 0;
#X connect 71 0 43 0;
#X connect 72 0 44 0;
#X connect 73 0 31 0;
#X connect 74 0 29 0;
#X connect 75 0 77 0;
#X connect 76 0 17 4;
#X connect 77 0 76 0;
#X connect 78 0 75 0;
#X connect 79 0 78 0;
#X connect 80 0 79 0;
#X connect 81 0 83 0;
#X connect 82 0 17 5;
#X connect 83 0 82 0;
#X connect 84 0 81 0;
#X connect 85 0 84 0;
#X connect 86 0 85 0;
