#N canvas 315 200 467 429 10;
#X declare -path ../effects;
#X floatatom -148 -8 5 0 0 0 - - -;
#X obj -148 -155 ctlin 1;
#X floatatom -108 -8 5 0 0 0 - - -;
#X obj -108 -134 ctlin 2;
#X obj -148 8 / 127;
#X floatatom -67 -8 5 0 0 0 - - -;
#X floatatom -27 -8 5 0 0 0 - - -;
#X floatatom 14 -8 5 0 0 0 - - -;
#X obj -67 -115 ctlin 6;
#X obj -27 -95 ctlin 7;
#X obj 14 -77 ctlin 8;
#X floatatom -27 25 5 0 0 0 - - -;
#X floatatom 14 25 5 0 0 0 - - -;
#X obj -27 8 * 10;
#X obj -67 8 * 1;
#X floatatom -67 25 5 0 0 0 - - -;
#X obj 14 8 * 10;
#X floatatom -108 25 5 0 0 0 - - -;
#X floatatom -148 25 5 0 0 0 - - -;
#X obj -229 -193 r noteHarm;
#X obj -189 -174 r velHarm;
#X text -97 -155 Offset for 2nd osc frequency;
#X text -55 -135 Add vs Multiply;
#X text -15 -116 Attack;
#X text 23 -97 Length;
#X text 63 -76 Decay;
#N canvas 0 22 1024 720 (subpatch) 0;
#X obj 65 112 hsl 128 15 0 1 0 0 empty empty add-vs-multiply -2 -6
0 8 -241291 -1 -1 0 1;
#N canvas 0 22 450 300 crossfader 0;
#X obj 122 29 inlet~;
#X obj 182 28 inlet~;
#X obj 252 27 inlet;
#X obj 257 104 -;
#X obj 252 52 t b f;
#X msg 238 78 1;
#X obj 141 146 *~;
#X obj 141 178 outlet~;
#X obj 173 146 *~;
#X connect 0 0 6 0;
#X connect 1 0 8 0;
#X connect 2 0 4 0;
#X connect 3 0 8 1;
#X connect 4 0 5 0;
#X connect 4 1 3 1;
#X connect 4 1 6 1;
#X connect 5 0 3 0;
#X connect 6 0 7 0;
#X connect 8 0 7 0;
#X restore 499 283 pd crossfader;
#X obj 543 247 *~;
#X obj 500 246 +~;
#X obj 147 27 vsl 10 50 0 1 0 0 empty empty empty 0 -8 0 8 -44926 -1
-1 0 1;
#X obj 161 27 vsl 10 50 0 1 0 0 empty empty empty 0 -8 0 8 -44926 -1
-1 0 1;
#X obj 175 27 vsl 10 50 0 1 0 0 empty empty empty 0 -8 0 8 -44926 -1
-1 0 1;
#X obj 189 27 vsl 10 50 0 1 0 0 empty empty empty 0 -8 0 8 -44926 -1
-1 0 1;
#X obj 203 27 vsl 10 50 0 1 0 0 empty empty empty 0 -8 0 8 -44926 -1
-1 0 1;
#X obj 217 27 vsl 10 50 0 1 0 0 empty empty empty 0 -8 0 8 -44926 -1
-1 0 1;
#X floatatom 725 187 8 0 0 3 frequency - -;
#X obj 133 27 vsl 10 50 0 1 0 0 empty empty empty 0 -8 0 8 -44926 -1
-1 0 1;
#X obj 725 50 vsl 15 128 20 20000 0 0 empty empty empty 0 -8 0 8 -262144
-1 -1 0 1;
#X obj 231 27 vsl 10 50 0 1 0 0 empty empty empty 0 -8 0 8 -44926 -1
-1 0 1;
#X obj 18 27 vsl 10 50 0 1 0 0 empty empty empty 0 -8 0 8 -44926 -1
-1 0 1;
#X obj 32 27 vsl 10 50 0 1 0 0 empty empty empty 0 -8 0 8 -44926 -1
-1 0 1;
#X obj 46 27 vsl 10 50 0 1 0 0 empty empty empty 0 -8 0 8 -44926 -1
-1 0 1;
#X obj 60 27 vsl 10 50 0 1 0 0 empty empty empty 0 -8 0 8 -44926 -1
-1 0 1;
#X obj 74 27 vsl 10 50 0 1 0 0 empty empty empty 0 -8 0 8 -44926 -1
-1 0 1;
#X obj 88 27 vsl 10 50 0 1 0 0 empty empty empty 0 -8 0 8 -44926 -1
-1 0 1;
#X floatatom 540 181 8 0 0 3 frequency - -;
#X obj 4 27 vsl 10 50 0 1 0 0 empty empty empty 0 -8 0 8 -44926 -1
-1 0 1;
#X obj 540 44 vsl 15 128 20 20000 0 0 empty empty empty 0 -8 0 8 -262144
-1 -1 0 1;
#X obj 102 27 vsl 10 50 0 1 0 0 empty empty empty 0 -8 0 8 -44926 -1
-1 0 1;
#X obj 375 -18 stripnote;
#X obj 389 4 mtof;
#X floatatom 537 22 5 0 0 0 - - -;
#X floatatom 722 26 5 0 0 0 - - -;
#X obj 407 28 + 2;
#X obj 451 210 FX_Harmoniques;
#X obj 636 216 FX_Harmoniques;
#X obj 483 449 bng 15 250 50 0 empty empty empty 17 7 0 10 -262144
-1 -1;
#X obj 500 514 *~;
#X obj 500 548 *~;
#X obj 525 490 / 100;
#X obj 527 529 line;
#X floatatom 572 507 5 0 0 0 - - -;
#X text 610 506 time offset to adjust volume to velocity;
#N canvas 0 22 450 300 eald~ 0;
#X msg 394 133 bang;
#X floatatom 504 74 5 0 0 0 - - -;
#X floatatom 555 73 5 0 0 0 - - -;
#X floatatom 605 73 5 0 0 0 - - -;
#X text 471 25 "ALD" enveloppe;
#X obj 504 49 inlet;
#X obj 555 48 inlet;
#X obj 605 48 inlet;
#X obj 408 52 inlet;
#X obj 379 432 outlet~;
#X text 633 133 ENVELOPE SECTION;
#X obj 379 346 vline~;
#X msg 352 245 1;
#X obj 352 265 pack f f;
#X obj 352 286 unpack f f;
#X msg 456 246 0;
#X obj 456 267 pack f f f;
#X obj 456 288 unpack f f f;
#X obj 456 225 delay 5;
#X text 102 283 Attack : sends a 1 to get to in A msec;
#X text 529 224 wait the end of the attack;
#X text 538 254 Length+Decay : 0 to get to in D msec \, after L msec
;
#X text 493 74 A;
#X text 544 74 L;
#X text 594 74 D;
#X connect 0 0 12 0;
#X connect 0 0 18 0;
#X connect 1 0 13 1;
#X connect 1 0 18 1;
#X connect 2 0 16 2;
#X connect 3 0 16 1;
#X connect 5 0 1 0;
#X connect 6 0 2 0;
#X connect 7 0 3 0;
#X connect 8 0 0 0;
#X connect 11 0 9 0;
#X connect 12 0 13 0;
#X connect 13 0 14 0;
#X connect 14 0 11 0;
#X connect 14 1 11 1;
#X connect 15 0 16 0;
#X connect 16 0 17 0;
#X connect 17 0 11 0;
#X connect 17 1 11 1;
#X connect 17 2 11 2;
#X connect 18 0 15 0;
#X restore 487 470 pd eald~;
#X obj 615 469 loadbang;
#X msg 615 490 50;
#X obj 526 510 + 0.05;
#X obj 372 -42 inlet;
#X obj 427 -51 inlet;
#X obj 485 -43 inlet;
#X obj 525 -43 inlet;
#X obj 601 -31 inlet;
#X obj 641 -31 inlet;
#X obj 684 -30 inlet;
#X obj 499 566 outlet~;
#X text 27 6 1st OSC;
#X text 169 5 2nd OSC;
#X connect 0 0 1 2;
#X connect 1 0 32 0;
#X connect 2 0 1 1;
#X connect 3 0 1 0;
#X connect 4 0 30 1;
#X connect 5 0 30 2;
#X connect 6 0 30 3;
#X connect 7 0 30 4;
#X connect 8 0 30 5;
#X connect 9 0 30 6;
#X connect 10 0 30 8;
#X connect 11 0 30 0;
#X connect 12 0 10 0;
#X connect 13 0 30 7;
#X connect 14 0 29 1;
#X connect 15 0 29 2;
#X connect 16 0 29 3;
#X connect 17 0 29 4;
#X connect 18 0 29 5;
#X connect 19 0 29 6;
#X connect 20 0 29 8;
#X connect 21 0 29 0;
#X connect 22 0 20 0;
#X connect 23 0 29 7;
#X connect 24 0 25 0;
#X connect 24 0 31 0;
#X connect 24 1 34 0;
#X connect 25 0 26 0;
#X connect 25 0 28 0;
#X connect 26 0 22 0;
#X connect 27 0 12 0;
#X connect 28 0 27 0;
#X connect 29 0 3 0;
#X connect 29 0 2 0;
#X connect 30 0 3 1;
#X connect 30 0 2 1;
#X connect 31 0 36 0;
#X connect 31 0 38 0;
#X connect 32 0 33 0;
#X connect 33 0 49 0;
#X connect 34 0 41 0;
#X connect 35 0 33 1;
#X connect 36 0 35 1;
#X connect 38 0 32 1;
#X connect 39 0 40 0;
#X connect 40 0 36 0;
#X connect 41 0 35 0;
#X connect 42 0 24 0;
#X connect 43 0 24 1;
#X connect 44 0 28 1;
#X connect 45 0 0 0;
#X connect 46 0 38 1;
#X connect 47 0 38 2;
#X connect 48 0 38 3;
#X coords 0 1 100 -1 250 140 1 0 0;
#X restore -229 41 graph;
#X obj -108 8 / 127;
#X obj -302 -15 notein;
#X floatatom -229 25 5 0 0 0 - - -;
#X floatatom -189 25 5 0 0 0 - - -;
#X obj 14 -37 knob 25 25 0 127 0 0 empty empty empty 0 -8 32 8 -1 -260097
-260097 0 1;
#X obj -27 -37 knob 25 25 0 127 0 0 empty empty empty 0 -8 32 8 -1
-260097 -260097 0 1;
#X obj -67 -37 knob 25 25 0 127 0 0 empty empty empty 0 -8 32 8 -1
-260097 -260097 0 1;
#X obj -108 -37 knob 25 25 0 127 0 0 empty empty empty 0 -8 32 8 -1
-260097 -260097 0 1;
#X obj -148 -37 knob 25 25 0 127 0 0 empty empty empty 0 -8 32 8 -1
-260097 -260097 0 1;
#N canvas 0 22 450 300 (subpatch) 0;
#X obj 59 155 inlet;
#X obj 3 89 inlet~;
#X obj 58 182 change;
#X msg 60 246 set \$1;
#X obj 60 227 tosymbol;
#X obj 59 204 sprintf Bus%d;
#X obj 3 282 throw~ Bus0;
#X obj 2 3 popup 124 25 #ffffff popup Bus0 Bus1 Bus2 Bus3 Bus4 Bus5
Bus6 Bus7 Bus8 Bus9 Bus10 Bus11 Bus12 Bus13 Bus14 Bus15 Bus16;
#X obj 1 32 route bang;
#X obj 154 202 *~;
#X obj 141 7 tgl 15 0 empty empty Dac 19 7 0 10 -262144 -1 -1 0 1;
#X obj 155 238 dac~;
#X obj 0 -55 loadbang;
#X text 58 -57 Bus0 mutes;
#X msg 0 -37 options Bus0 Bus1 Bus2 Bus3 Bus4 Bus5 Bus6 Bus7 Bus8 Bus9
Bus10 Bus11 Bus12 Bus13 Bus14 Bus15 Bus16;
#X connect 0 0 2 0;
#X connect 1 0 6 0;
#X connect 1 0 9 0;
#X connect 2 0 5 0;
#X connect 3 0 6 0;
#X connect 4 0 3 0;
#X connect 5 0 4 0;
#X connect 7 0 8 0;
#X connect 8 1 2 0;
#X connect 9 0 11 0;
#X connect 9 0 11 1;
#X connect 10 0 9 1;
#X connect 12 0 14 0;
#X connect 14 0 7 0;
#X coords 0 1 100 -1 180 30 1 0 0;
#X restore -229 181 graph;
#N canvas 0 22 450 300 (subpatch) 0;
#X obj -30 22 spigot;
#X obj 2 3 tgl 15 0 empty empty empty 17 7 0 10 -262144 -1 -1 0 1;
#X obj -58 0 inlet;
#X obj -54 54 outlet;
#X connect 0 0 3 0;
#X connect 1 0 0 1;
#X connect 2 0 0 0;
#X coords 0 1 100 -1 20 20 1 0 0;
#X restore -67 -60 graph;
#N canvas 0 22 450 300 (subpatch) 0;
#X obj -30 22 spigot;
#X obj 2 3 tgl 15 0 empty empty empty 17 7 0 10 -262144 -1 -1 0 1;
#X obj -58 0 inlet;
#X obj -54 54 outlet;
#X connect 0 0 3 0;
#X connect 1 0 0 1;
#X connect 2 0 0 0;
#X coords 0 1 100 -1 20 20 1 0 0;
#X restore -27 -60 graph;
#N canvas 0 22 450 300 (subpatch) 0;
#X obj -30 22 spigot;
#X obj 2 3 tgl 15 0 empty empty empty 17 7 0 10 -262144 -1 -1 0 1;
#X obj -58 0 inlet;
#X obj -54 54 outlet;
#X connect 0 0 3 0;
#X connect 1 0 0 1;
#X connect 2 0 0 0;
#X coords 0 1 100 -1 20 20 1 0 0;
#X restore 14 -60 graph;
#N canvas 0 22 450 300 (subpatch) 0;
#X obj -30 22 spigot;
#X obj 2 3 tgl 15 0 empty empty empty 17 7 0 10 -262144 -1 -1 0 1;
#X obj -58 0 inlet;
#X obj -54 54 outlet;
#X connect 0 0 3 0;
#X connect 1 0 0 1;
#X connect 2 0 0 0;
#X coords 0 1 100 -1 20 20 1 0 0;
#X restore -189 -60 graph;
#N canvas 0 22 450 300 (subpatch) 0;
#X obj -30 22 spigot;
#X obj 2 3 tgl 15 0 empty empty empty 17 7 0 10 -262144 -1 -1 0 1;
#X obj -58 0 inlet;
#X obj -54 54 outlet;
#X connect 0 0 3 0;
#X connect 1 0 0 1;
#X connect 2 0 0 0;
#X coords 0 1 100 -1 20 20 1 0 0;
#X restore -148 -60 graph;
#N canvas 0 22 450 300 (subpatch) 0;
#X obj -30 22 spigot;
#X obj 2 3 tgl 15 0 empty empty empty 17 7 0 10 -262144 -1 -1 0 1;
#X obj -58 0 inlet;
#X obj -54 54 outlet;
#X connect 0 0 3 0;
#X connect 1 0 0 1;
#X connect 2 0 0 0;
#X coords 0 1 100 -1 20 20 1 0 0;
#X restore -108 -60 graph;
#N canvas 0 22 450 300 (subpatch) 0;
#X obj -30 22 spigot;
#X obj 2 3 tgl 15 0 empty empty empty 17 7 0 10 -262144 -1 -1 0 1;
#X obj -58 0 inlet;
#X obj -54 54 outlet;
#X connect 0 0 3 0;
#X connect 1 0 0 1;
#X connect 2 0 0 0;
#X coords 0 1 100 -1 20 20 1 0 0;
#X restore -302 5 graph;
#N canvas 0 22 450 300 (subpatch) 0;
#X obj -30 22 spigot;
#X obj 2 3 tgl 15 0 empty empty empty 17 7 0 10 -262144 -1 -1 0 1;
#X obj -58 0 inlet;
#X obj -54 54 outlet;
#X connect 0 0 3 0;
#X connect 1 0 0 1;
#X connect 2 0 0 0;
#X coords 0 1 100 -1 20 20 1 0 0;
#X restore -282 5 graph;
#N canvas 0 22 450 300 (subpatch) 0;
#X obj -30 22 spigot;
#X obj 2 3 tgl 15 0 empty empty empty 17 7 0 10 -262144 -1 -1 0 1;
#X obj -58 0 inlet;
#X obj -54 54 outlet;
#X connect 0 0 3 0;
#X connect 1 0 0 1;
#X connect 2 0 0 0;
#X coords 0 1 100 -1 20 20 1 0 0;
#X restore -229 -61 graph;
#X obj -15 190 declare -path ../effects;
#X connect 0 0 4 0;
#X connect 1 0 41 0;
#X connect 2 0 27 0;
#X connect 3 0 42 0;
#X connect 4 0 18 0;
#X connect 5 0 14 0;
#X connect 6 0 13 0;
#X connect 7 0 16 0;
#X connect 8 0 37 0;
#X connect 9 0 38 0;
#X connect 10 0 39 0;
#X connect 11 0 26 5;
#X connect 12 0 26 6;
#X connect 13 0 11 0;
#X connect 14 0 15 0;
#X connect 15 0 26 4;
#X connect 16 0 12 0;
#X connect 17 0 26 3;
#X connect 18 0 26 2;
#X connect 19 0 45 0;
#X connect 20 0 40 0;
#X connect 26 0 36 0;
#X connect 27 0 17 0;
#X connect 28 0 43 0;
#X connect 28 1 44 0;
#X connect 29 0 26 0;
#X connect 30 0 26 1;
#X connect 31 0 7 0;
#X connect 32 0 6 0;
#X connect 33 0 5 0;
#X connect 34 0 2 0;
#X connect 35 0 0 0;
#X connect 37 0 33 0;
#X connect 38 0 32 0;
#X connect 39 0 31 0;
#X connect 40 0 30 0;
#X connect 41 0 35 0;
#X connect 42 0 34 0;
#X connect 43 0 29 0;
#X connect 44 0 30 0;
#X connect 45 0 29 0;
