#N canvas 228 209 477 337 10;
#N canvas 0 22 450 300 (subpatch) 0;
#X obj 59 155 inlet;
#X obj 3 89 inlet~;
#X obj 58 182 change;
#X msg 60 246 set \$1;
#X obj 60 227 tosymbol;
#X obj 59 204 sprintf Bus%d;
#X obj 3 282 throw~ Bus0;
#X obj 2 3 popup 124 25 #ffffff popup Bus0 Bus1 Bus2 Bus3 Bus4 Bus5
Bus6 Bus7 Bus8 Bus9 Bus10 Bus11 Bus12 Bus13 Bus14 Bus15 Bus16;
#X obj 1 32 route bang;
#X obj 154 202 *~;
#X obj 141 7 tgl 15 0 empty empty Dac 19 7 0 10 -262144 -1 -1 1 1;
#X obj 155 238 dac~;
#X obj 1 -49 loadbang;
#X text 59 -51 Bus0 mutes;
#X msg 1 -31 options Bus0 Bus1 Bus2 Bus3 Bus4 Bus5 Bus6 Bus7 Bus8 Bus9
Bus10 Bus11 Bus12 Bus13 Bus14 Bus15 Bus16;
#X connect 0 0 2 0;
#X connect 1 0 6 0;
#X connect 1 0 9 0;
#X connect 2 0 5 0;
#X connect 3 0 6 0;
#X connect 4 0 3 0;
#X connect 5 0 4 0;
#X connect 7 0 8 0;
#X connect 8 1 2 0;
#X connect 9 0 11 0;
#X connect 9 0 11 1;
#X connect 10 0 9 1;
#X connect 12 0 14 0;
#X connect 14 0 7 0;
#X coords 0 1 100 -1 180 30 1 0 0;
#X restore -65 234 graph;
#N canvas 147 57 529 405 (subpatch) 0;
#N canvas 0 22 592 473 midimono 0;
#X obj 179 125 stripnote;
#X obj 304 226 select;
#X obj 295 123 float;
#X obj 282 70 t b f;
#X obj 304 197 float;
#X obj 295 152 sel 0;
#X obj 246 226 / 127;
#X obj 175 8 notein;
#X obj 246 320 outlet;
#X msg 317 252 0;
#X obj 136 317 outlet;
#X text 273 47 taken from the pd doc-monosynth-example;
#X connect 0 0 1 1;
#X connect 0 0 10 0;
#X connect 1 0 9 0;
#X connect 2 0 5 0;
#X connect 3 0 2 0;
#X connect 3 1 4 1;
#X connect 4 0 1 0;
#X connect 5 0 4 0;
#X connect 5 1 6 0;
#X connect 6 0 8 0;
#X connect 7 0 0 0;
#X connect 7 0 3 0;
#X connect 7 1 0 1;
#X connect 7 1 2 1;
#X connect 9 0 8 0;
#X restore 167 -156 pd midimono;
#X obj 11 -133 bendin;
#X obj 125 -89 +;
#X obj 10 -110 - 8192;
#X obj 10 -65 clip -1 1;
#X obj 10 -86 / 8192;
#X msg 58 -134 bang;
#X obj 125 -108 int;
#X obj 9 -46 * 2;
#X text 55 -93 bend range;
#X obj 20 152 *~ 0.5;
#N canvas 217 65 807 703 qwertz-keys 0;
#X msg -121 181 0;
#X msg -89 182 1;
#X msg -57 182 2;
#X msg -23 182 3;
#X msg 10 182 4;
#X msg 44 182 5;
#X msg 78 183 6;
#X msg 116 182 7;
#X msg 150 182 8;
#X msg 182 183 9;
#X msg 214 183 10;
#X msg 247 182 11;
#X msg 281 183 12;
#X msg 315 183 13;
#X msg 351 183 14;
#X msg 387 183 15;
#X msg 427 183 16;
#X obj -173 623 outlet;
#X obj 66 654 outlet;
#X obj -97 71 key;
#X obj -25 128 select 113 50 119 51 101 114 53 116 54 122 55 117 105
57 111 48 112;
#X obj 20 78 keyup;
#X obj 11 541 ==;
#X msg -121 468 1;
#X msg 87 593 0;
#X obj 12 568 moses 0.1;
#X obj -146 435 + 48;
#X obj 69 621 change;
#X text -3 111 q2w3er5t6z7ui9o0p \, 'upper manual';
#X text -3 17 monophonic qwertz keyboard. german keyboard layout. turn
key-auto-repeat off!;
#X msg 123 356 0;
#X msg 155 357 1;
#X msg 187 357 2;
#X msg 221 357 3;
#X msg 254 357 4;
#X msg 288 357 5;
#X msg 322 358 6;
#X msg 360 357 7;
#X msg 394 357 8;
#X msg 426 358 9;
#X msg 465 359 10;
#X msg 501 360 11;
#X obj 121 424 + 36;
#X floatatom -124 112 5 0 0 0 - - -;
#X text 321 297 ysxdcvgbhnjm \, 'lower manaul';
#X obj 172 317 select 121 115 120 100 99 118 103 98 104 110 106 109
;
#X connect 0 0 26 0;
#X connect 1 0 26 0;
#X connect 2 0 26 0;
#X connect 3 0 26 0;
#X connect 4 0 26 0;
#X connect 5 0 26 0;
#X connect 6 0 26 0;
#X connect 7 0 26 0;
#X connect 8 0 26 0;
#X connect 9 0 26 0;
#X connect 10 0 26 0;
#X connect 11 0 26 0;
#X connect 12 0 26 0;
#X connect 13 0 26 0;
#X connect 14 0 26 0;
#X connect 15 0 26 0;
#X connect 16 0 26 0;
#X connect 19 0 20 0;
#X connect 19 0 22 1;
#X connect 19 0 43 0;
#X connect 19 0 45 0;
#X connect 20 0 0 0;
#X connect 20 1 1 0;
#X connect 20 2 2 0;
#X connect 20 3 3 0;
#X connect 20 4 4 0;
#X connect 20 5 5 0;
#X connect 20 6 6 0;
#X connect 20 7 7 0;
#X connect 20 8 8 0;
#X connect 20 9 9 0;
#X connect 20 10 10 0;
#X connect 20 11 11 0;
#X connect 20 12 12 0;
#X connect 20 13 13 0;
#X connect 20 14 14 0;
#X connect 20 15 15 0;
#X connect 20 16 16 0;
#X connect 21 0 22 0;
#X connect 22 0 25 0;
#X connect 23 0 27 0;
#X connect 24 0 27 0;
#X connect 25 1 24 0;
#X connect 26 0 23 0;
#X connect 26 0 17 0;
#X connect 27 0 18 0;
#X connect 30 0 42 0;
#X connect 31 0 42 0;
#X connect 32 0 42 0;
#X connect 33 0 42 0;
#X connect 34 0 42 0;
#X connect 35 0 42 0;
#X connect 36 0 42 0;
#X connect 37 0 42 0;
#X connect 38 0 42 0;
#X connect 39 0 42 0;
#X connect 40 0 42 0;
#X connect 41 0 42 0;
#X connect 42 0 23 0;
#X connect 42 0 17 0;
#X connect 45 0 30 0;
#X connect 45 1 31 0;
#X connect 45 2 32 0;
#X connect 45 3 33 0;
#X connect 45 4 34 0;
#X connect 45 5 35 0;
#X connect 45 6 36 0;
#X connect 45 7 37 0;
#X connect 45 8 38 0;
#X connect 45 9 39 0;
#X connect 45 10 40 0;
#X connect 45 11 41 0;
#X restore 256 -96 pd qwertz-keys;
#N canvas 0 22 450 300 (subpatch) 0;
#X obj -30 22 spigot;
#X obj 2 3 tgl 15 0 empty empty empty 17 7 0 10 -262144 -1 -1 0 1;
#X obj -58 0 inlet;
#X obj -54 54 outlet;
#X connect 0 0 3 0;
#X connect 1 0 0 1;
#X connect 2 0 0 0;
#X coords 0 1 100 -1 20 20 1 0 0;
#X restore 3 2 graph;
#N canvas 0 22 450 300 (subpatch) 0;
#X obj -30 22 spigot;
#X obj 2 3 tgl 15 0 empty empty empty 17 7 0 10 -262144 -1 -1 0 1;
#X obj -58 0 inlet;
#X obj -54 54 outlet;
#X connect 0 0 3 0;
#X connect 1 0 0 1;
#X connect 2 0 0 0;
#X coords 0 1 100 -1 20 20 1 0 0;
#X restore 3 24 graph;
#N canvas 0 22 450 300 (subpatch) 0;
#X obj -30 22 spigot;
#X obj 2 3 tgl 15 0 empty empty empty 17 7 0 10 -262144 -1 -1 0 1;
#X obj -58 0 inlet;
#X obj -54 54 outlet;
#X connect 0 0 3 0;
#X connect 1 0 0 1;
#X connect 2 0 0 0;
#X coords 0 1 100 -1 20 20 1 0 0;
#X restore 104 2 graph;
#N canvas 0 22 450 300 (subpatch) 0;
#X obj -30 22 spigot;
#X obj 2 3 tgl 15 0 empty empty empty 17 7 0 10 -262144 -1 -1 0 1;
#X obj -58 0 inlet;
#X obj -54 54 outlet;
#X connect 0 0 3 0;
#X connect 1 0 0 1;
#X connect 2 0 0 0;
#X coords 0 1 100 -1 20 20 1 0 0;
#X restore 104 24 graph;
#X text 128 3 Keyboard input;
#X text 128 23 Keyboard input;
#X text 28 3 Notein input;
#X text 28 23 Notein input;
#X obj 274 -141 inlet;
#X obj 284 -131 inlet;
#X obj 30 177 outlet~;
#N canvas 0 22 1009 720 stringens1 0;
#X obj -11 918 outlet~;
#X obj -174 32 inlet;
#X obj -141 214 pack 0 0 0;
#X obj -81 50 inlet;
#X obj -144 97 pack f f;
#X obj -69 192 / 128;
#X obj -112 392 *~;
#X obj -11 895 *~ 0.5;
#X obj 105 115 hsl 100 8 0 1 0 1 empty empty a 2 4 0 10 -262144 -1
-1 800 1;
#X obj 105 126 hsl 100 8 0 1 0 1 empty empty r 2 4 0 10 -262144 -1
-1 1500 1;
#X obj 105 139 hsl 100 8 1 1000 1 1 empty empty vel>a 2 4 0 10 -262144
-1 -1 700 1;
#X obj -143 318 int;
#X obj -300 46 bendin;
#X obj -301 69 - 8192;
#X obj -301 114 clip -1 1;
#X obj -301 93 / 8192;
#X obj -299 143 * 2;
#X text -270 144 bend range;
#X obj -311 330 t b f;
#N canvas 0 22 830 804 ar_env 0;
#X obj 77 98 inlet;
#X obj -13 687 outlet~;
#X obj -2 629 line~;
#X obj 154 15 inlet;
#X obj 277 15 inlet;
#X obj 406 131 inlet;
#X obj 83 204 moses 0.001;
#X obj 310 123 *;
#X obj 320 181 * 10000;
#X obj 313 148 *;
#X obj 199 153 *;
#X obj 214 207 * 10000;
#X obj 200 179 *;
#X obj 185 434 pack f f;
#X obj 47 438 pack f f;
#X obj 255 392 /;
#X obj 405 201 t b f;
#X obj 505 207 inlet;
#X msg 20 301 0;
#X obj 485 307 -;
#X msg 472 281 1;
#X obj 487 247 t b f;
#X obj 187 356 *;
#X obj 186 383 +;
#X obj 297 279 *;
#X obj 144 232 t f b f;
#X obj 295 303 clip 1 10000;
#X connect 0 0 6 0;
#X connect 2 0 1 0;
#X connect 3 0 7 1;
#X connect 3 0 7 0;
#X connect 4 0 10 1;
#X connect 4 0 10 0;
#X connect 5 0 16 0;
#X connect 6 0 18 0;
#X connect 6 1 25 0;
#X connect 7 0 9 1;
#X connect 7 0 9 0;
#X connect 8 0 15 0;
#X connect 9 0 8 0;
#X connect 10 0 12 1;
#X connect 10 0 12 0;
#X connect 11 0 14 1;
#X connect 12 0 11 0;
#X connect 13 0 2 0;
#X connect 14 0 2 0;
#X connect 15 0 13 1;
#X connect 16 0 8 0;
#X connect 16 1 24 1;
#X connect 17 0 21 0;
#X connect 17 0 23 1;
#X connect 18 0 14 0;
#X connect 19 0 22 1;
#X connect 20 0 19 0;
#X connect 21 0 20 0;
#X connect 21 1 19 1;
#X connect 22 0 23 0;
#X connect 23 0 13 0;
#X connect 24 0 26 0;
#X connect 25 0 22 0;
#X connect 25 1 8 0;
#X connect 25 2 24 0;
#X connect 26 0 15 1;
#X restore -27 328 pd ar_env;
#X obj 105 149 hsl 100 8 1 0 0 1 empty empty vel>s 2 4 0 10 -262144
-1 -1 4500 1;
#X obj -47 517 *~;
#X obj -59 448 int;
#N canvas 0 22 830 804 ar_env 0;
#X obj 77 98 inlet;
#X obj -13 687 outlet~;
#X obj -2 629 line~;
#X obj 154 15 inlet;
#X obj 277 15 inlet;
#X obj 406 131 inlet;
#X obj 83 204 moses 0.001;
#X obj 310 123 *;
#X obj 320 181 * 10000;
#X obj 313 148 *;
#X obj 199 153 *;
#X obj 214 207 * 10000;
#X obj 200 179 *;
#X obj 185 434 pack f f;
#X obj 47 438 pack f f;
#X obj 255 392 /;
#X obj 405 201 t b f;
#X obj 505 207 inlet;
#X msg 20 301 0;
#X obj 485 307 -;
#X msg 472 281 1;
#X obj 487 247 t b f;
#X obj 187 356 *;
#X obj 186 383 +;
#X obj 297 279 *;
#X obj 144 232 t f b f;
#X obj 295 303 clip 1 10000;
#X connect 0 0 6 0;
#X connect 2 0 1 0;
#X connect 3 0 7 1;
#X connect 3 0 7 0;
#X connect 4 0 10 1;
#X connect 4 0 10 0;
#X connect 5 0 16 0;
#X connect 6 0 18 0;
#X connect 6 1 25 0;
#X connect 7 0 9 1;
#X connect 7 0 9 0;
#X connect 8 0 15 0;
#X connect 9 0 8 0;
#X connect 10 0 12 1;
#X connect 10 0 12 0;
#X connect 11 0 14 1;
#X connect 12 0 11 0;
#X connect 13 0 2 0;
#X connect 14 0 2 0;
#X connect 15 0 13 1;
#X connect 16 0 8 0;
#X connect 16 1 24 1;
#X connect 17 0 21 0;
#X connect 17 0 23 1;
#X connect 18 0 14 0;
#X connect 19 0 22 1;
#X connect 20 0 19 0;
#X connect 21 0 20 0;
#X connect 21 1 19 1;
#X connect 22 0 23 0;
#X connect 23 0 13 0;
#X connect 24 0 26 0;
#X connect 25 0 22 0;
#X connect 25 1 8 0;
#X connect 25 2 24 0;
#X connect 26 0 15 1;
#X restore 3 463 pd ar_env;
#X obj 32 620 *~;
#X obj 20 551 int;
#N canvas 0 22 830 804 ar_env 0;
#X obj 77 98 inlet;
#X obj -13 687 outlet~;
#X obj -2 629 line~;
#X obj 154 15 inlet;
#X obj 277 15 inlet;
#X obj 406 131 inlet;
#X obj 83 204 moses 0.001;
#X obj 310 123 *;
#X obj 320 181 * 10000;
#X obj 313 148 *;
#X obj 199 153 *;
#X obj 214 207 * 10000;
#X obj 200 179 *;
#X obj 185 434 pack f f;
#X obj 47 438 pack f f;
#X obj 255 392 /;
#X obj 405 201 t b f;
#X obj 505 207 inlet;
#X msg 20 301 0;
#X obj 485 307 -;
#X msg 472 281 1;
#X obj 487 247 t b f;
#X obj 187 356 *;
#X obj 186 383 +;
#X obj 297 279 *;
#X obj 144 232 t f b f;
#X obj 295 303 clip 1 10000;
#X connect 0 0 6 0;
#X connect 2 0 1 0;
#X connect 3 0 7 1;
#X connect 3 0 7 0;
#X connect 4 0 10 1;
#X connect 4 0 10 0;
#X connect 5 0 16 0;
#X connect 6 0 18 0;
#X connect 6 1 25 0;
#X connect 7 0 9 1;
#X connect 7 0 9 0;
#X connect 8 0 15 0;
#X connect 9 0 8 0;
#X connect 10 0 12 1;
#X connect 10 0 12 0;
#X connect 11 0 14 1;
#X connect 12 0 11 0;
#X connect 13 0 2 0;
#X connect 14 0 2 0;
#X connect 15 0 13 1;
#X connect 16 0 8 0;
#X connect 16 1 24 1;
#X connect 17 0 21 0;
#X connect 17 0 23 1;
#X connect 18 0 14 0;
#X connect 19 0 22 1;
#X connect 20 0 19 0;
#X connect 21 0 20 0;
#X connect 21 1 19 1;
#X connect 22 0 23 0;
#X connect 23 0 13 0;
#X connect 24 0 26 0;
#X connect 25 0 22 0;
#X connect 25 1 8 0;
#X connect 25 2 24 0;
#X connect 26 0 15 1;
#X restore 82 566 pd ar_env;
#X obj 113 717 *~;
#X obj 101 648 int;
#N canvas 0 22 830 804 ar_env 0;
#X obj 77 98 inlet;
#X obj -13 687 outlet~;
#X obj -2 629 line~;
#X obj 154 15 inlet;
#X obj 277 15 inlet;
#X obj 406 131 inlet;
#X obj 83 204 moses 0.001;
#X obj 310 123 *;
#X obj 320 181 * 10000;
#X obj 313 148 *;
#X obj 199 153 *;
#X obj 214 207 * 10000;
#X obj 200 179 *;
#X obj 185 434 pack f f;
#X obj 47 438 pack f f;
#X obj 255 392 /;
#X obj 405 201 t b f;
#X obj 505 207 inlet;
#X msg 20 301 0;
#X obj 485 307 -;
#X msg 472 281 1;
#X obj 487 247 t b f;
#X obj 187 356 *;
#X obj 186 383 +;
#X obj 297 279 *;
#X obj 144 232 t f b f;
#X obj 295 303 clip 1 10000;
#X connect 0 0 6 0;
#X connect 2 0 1 0;
#X connect 3 0 7 1;
#X connect 3 0 7 0;
#X connect 4 0 10 1;
#X connect 4 0 10 0;
#X connect 5 0 16 0;
#X connect 6 0 18 0;
#X connect 6 1 25 0;
#X connect 7 0 9 1;
#X connect 7 0 9 0;
#X connect 8 0 15 0;
#X connect 9 0 8 0;
#X connect 10 0 12 1;
#X connect 10 0 12 0;
#X connect 11 0 14 1;
#X connect 12 0 11 0;
#X connect 13 0 2 0;
#X connect 14 0 2 0;
#X connect 15 0 13 1;
#X connect 16 0 8 0;
#X connect 16 1 24 1;
#X connect 17 0 21 0;
#X connect 17 0 23 1;
#X connect 18 0 14 0;
#X connect 19 0 22 1;
#X connect 20 0 19 0;
#X connect 21 0 20 0;
#X connect 21 1 19 1;
#X connect 22 0 23 0;
#X connect 23 0 13 0;
#X connect 24 0 26 0;
#X connect 25 0 22 0;
#X connect 25 1 8 0;
#X connect 25 2 24 0;
#X connect 26 0 15 1;
#X restore 163 663 pd ar_env;
#X obj -140 235 route 1 2 3 4;
#X obj -133 162 poly 4 1;
#N canvas 0 22 450 300 string3osc1 0;
#X obj 151 138 tabosc4~ \$0stringishwave1;
#X obj 222 83 tabosc4~ \$0stringishwave1;
#X obj 146 231 *~ 0.33;
#X obj 106 178 tabosc4~ \$0stringishwave1;
#X obj 349 503 lop~;
#X obj 91 81 mtof;
#X obj 91 54 - 0.02;
#X obj 220 39 + 0.03;
#X obj 157 52 - 0.01;
#X obj 157 80 mtof;
#X obj 221 59 mtof;
#X obj 350 535 lop~;
#N canvas 192 254 839 634 comb1 0;
#X obj 125 281 inlet~;
#X obj 398 525 outlet~;
#X obj 199 507 +~;
#X obj 219 476 *~;
#X obj 45 400 block~ 1;
#X obj 241 272 inlet;
#X obj 448 274 inlet;
#X obj 242 314 vd~ \$0comb1a;
#X obj 196 531 delwrite~ \$0comb1a 100;
#X connect 0 0 2 0;
#X connect 2 0 8 0;
#X connect 3 0 2 1;
#X connect 5 0 7 0;
#X connect 6 0 3 1;
#X connect 7 0 1 0;
#X connect 7 0 3 0;
#X restore 188 389 pd comb1;
#X obj 321 467 *~ 0.33;
#N canvas 192 254 839 634 comb2 0;
#X obj 125 281 inlet~;
#X obj 398 525 outlet~;
#X obj 199 507 +~;
#X obj 219 476 *~;
#X obj 45 400 block~ 1;
#X obj 241 272 inlet;
#X obj 448 274 inlet;
#X obj 242 314 vd~ \$0comb2a;
#X obj 197 531 delwrite~ \$0comb2a 100;
#X connect 0 0 2 0;
#X connect 2 0 8 0;
#X connect 3 0 2 1;
#X connect 5 0 7 0;
#X connect 6 0 3 1;
#X connect 7 0 1 0;
#X connect 7 0 3 0;
#X restore 326 335 pd comb2;
#N canvas 192 254 840 634 comb3 0;
#X obj 125 281 inlet~;
#X obj 398 525 outlet~;
#X obj 199 507 +~;
#X obj 219 476 *~;
#X obj 45 400 block~ 1;
#X obj 241 272 inlet;
#X obj 448 274 inlet;
#X obj 242 314 vd~ \$0comb3a;
#X obj 196 531 delwrite~ \$0comb3a 100;
#X connect 0 0 2 0;
#X connect 2 0 8 0;
#X connect 3 0 2 1;
#X connect 5 0 7 0;
#X connect 6 0 3 1;
#X connect 7 0 1 0;
#X connect 7 0 3 0;
#X restore 441 327 pd comb3;
#X msg 244 359 0.53;
#X msg 367 287 0.49;
#X msg 518 265 0.51;
#X msg 201 324 1000;
#X msg 367 -217 bang;
#X obj 385 170 t b b;
#X obj 207 356 /;
#X msg 325 257 1000;
#X obj 331 289 /;
#X msg 363 257 980;
#X msg 440 252 1000;
#X obj 446 284 /;
#X obj 365 -240 loadbang;
#X msg 484 252 350;
#X obj 194 -54 line;
#X obj 195 -121 random 500;
#X obj 101 28 +;
#X obj 124 -57 t b f;
#X obj 279 -53 line;
#X obj 158 21 +;
#X obj 220 14 +;
#X obj 281 -120 random 1000;
#X obj 376 -53 line;
#X obj 378 -120 random 1000;
#X obj 195 -99 / 90000;
#X obj 279 -98 / 90000;
#X obj 376 -98 / 90000;
#X obj 206 -162 metro 120;
#X obj 288 -164 metro 113;
#X obj 391 -160 metro 117;
#X msg 195 -76 \$1 120;
#X msg 279 -75 \$1 113;
#X msg 376 -75 \$1 117;
#X obj 352 374 * 65;
#X obj 94 -185 inlet;
#X obj 365 569 outlet~;
#X msg 247 327 7000;
#X connect 0 0 2 0;
#X connect 1 0 2 0;
#X connect 2 0 12 0;
#X connect 2 0 14 0;
#X connect 2 0 15 0;
#X connect 3 0 2 0;
#X connect 4 0 11 0;
#X connect 5 0 3 0;
#X connect 6 0 5 0;
#X connect 7 0 10 0;
#X connect 8 0 9 0;
#X connect 9 0 0 0;
#X connect 10 0 1 0;
#X connect 11 0 51 0;
#X connect 12 0 13 0;
#X connect 13 0 4 0;
#X connect 14 0 13 0;
#X connect 15 0 13 0;
#X connect 16 0 12 2;
#X connect 17 0 14 2;
#X connect 18 0 15 2;
#X connect 19 0 22 0;
#X connect 20 0 21 0;
#X connect 20 0 43 0;
#X connect 20 0 44 0;
#X connect 20 0 45 0;
#X connect 21 0 19 0;
#X connect 21 0 23 0;
#X connect 21 0 26 0;
#X connect 21 1 52 0;
#X connect 21 1 16 0;
#X connect 21 1 17 0;
#X connect 21 1 18 0;
#X connect 21 1 25 0;
#X connect 21 1 29 0;
#X connect 22 0 12 1;
#X connect 23 0 24 0;
#X connect 24 0 14 1;
#X connect 25 0 24 1;
#X connect 26 0 27 0;
#X connect 27 0 15 1;
#X connect 28 0 20 0;
#X connect 29 0 27 1;
#X connect 30 0 32 0;
#X connect 31 0 40 0;
#X connect 32 0 6 0;
#X connect 33 0 32 0;
#X connect 33 0 35 0;
#X connect 33 0 36 0;
#X connect 33 1 32 1;
#X connect 33 1 35 1;
#X connect 33 1 36 1;
#X connect 33 1 49 0;
#X connect 34 0 35 0;
#X connect 35 0 8 0;
#X connect 36 0 7 0;
#X connect 37 0 41 0;
#X connect 38 0 36 0;
#X connect 39 0 42 0;
#X connect 40 0 46 0;
#X connect 41 0 47 0;
#X connect 42 0 48 0;
#X connect 43 0 31 0;
#X connect 44 0 37 0;
#X connect 45 0 39 0;
#X connect 46 0 30 0;
#X connect 47 0 34 0;
#X connect 48 0 38 0;
#X connect 49 0 4 1;
#X connect 49 0 11 1;
#X connect 50 0 33 0;
#X connect 52 0 22 1;
#X restore -118 364 pd string3osc1;
#N canvas 0 22 450 300 (subpatch) 0;
#X array \$0stringishwave1 515 float 1;
#A 0 -1 -1 -1 -1 -1 -1 -0.993333 -0.993333 -0.98 -0.966667 -0.966667
-0.953333 -0.946667 -0.94 -0.926667 -0.92 -0.92 -0.913333 -0.9 -0.893333
-0.88 -0.873333 -0.873333 -0.86 -0.846667 -0.833333 -0.826667 -0.823334
-0.82 -0.806667 -0.793334 -0.78 -0.773334 -0.76 -0.746667 -0.733334
-0.72 -0.713334 -0.7 -0.68 -0.673334 -0.666667 -0.653334 -0.64 -0.626667
-0.606667 -0.593334 -0.58 -0.56 -0.553334 -0.54 -0.52 -0.52 -0.506667
-0.486667 -0.473334 -0.473334 -0.460001 -0.446667 -0.433334 -0.420001
-0.400001 -0.393334 -0.373334 -0.370001 -0.360001 -0.353334 -0.346667
-0.333334 -0.326667 -0.306667 -0.300001 -0.280001 -0.273334 -0.266667
-0.246667 -0.240001 -0.226667 -0.213334 -0.193334 -0.173334 -0.166667
-0.153334 -0.133334 -0.113334 -0.106667 -0.0933338 -0.0866672 -0.0800005
-0.0733338 -0.0466671 -0.0400005 -0.0333338 -0.0200004 -0.0200004 -0.0066671
0.0133328 -5.85802e-07 -0.00666726 -0.0133339 -0.0200006 -0.0266673
-0.0333339 -0.0400006 -0.0466673 -0.053334 -0.0666673 -0.073334 -0.0866673
-0.093334 -0.106667 -0.120001 -0.133334 -0.133334 -0.146667 -0.146667
-0.160001 -0.163334 -0.166667 -0.173334 -0.180001 -0.186667 -0.193334
-0.200001 -0.213334 -0.213334 -0.220001 -0.233334 -0.240001 -0.253334
-0.260001 -0.266668 -0.273334 -0.286667 -0.293334 -0.300001 -0.313334
-0.320001 -0.326667 -0.333334 -0.340001 -0.340001 -0.353334 -0.360001
-0.360001 -0.373334 -0.400001 -0.400001 -0.400001 -0.413334 -0.413334
-0.420001 -0.433334 -0.440001 -0.446667 -0.453334 -0.453334 -0.460001
-0.466667 -0.473334 -0.480001 -0.486667 -0.493334 -0.500001 -0.506667
-0.513334 -0.520001 -0.526667 -0.526667 -0.533334 -0.540001 -0.540001
-0.546667 -0.553334 -0.560001 -0.566667 -0.566667 -0.573334 -0.586667
-0.586667 -0.593334 -0.600001 -0.606667 -0.606667 -0.606667 -0.613334
-0.626667 -0.633334 -0.646667 -0.660001 -0.663334 -0.666667 -0.673334
-0.676667 -0.680001 -0.686667 -0.693334 -0.700001 -0.713334 -0.720001
-0.720001 -0.713334 -0.726667 -0.726667 -0.733334 -0.733334 -0.74 -0.746667
-0.753334 -0.753334 -0.76 -0.76 -0.766667 -0.773334 -0.773334 -0.773334
-0.78 -0.786667 -0.793334 -0.8 -0.806667 -0.813334 -0.82 -0.826667
-0.833334 -0.84 -0.846667 -0.85 -0.86 -0.86 -0.866667 -0.873334 -0.886667
-0.886667 -0.893334 -0.9 -0.906667 -0.906667 -0.913334 -0.913334 -0.926667
-0.926667 -0.933334 -0.946667 -0.953334 -0.96 -0.966667 -0.973334 -0.986667
-0.986667 -0.986667 -0.98 -0.976667 -0.973334 -0.966667 -0.96 -0.953334
-0.926667 -0.926667 -0.92 -0.913334 -0.913334 -0.913334 -0.893334 -0.886667
-0.88 -0.873334 -0.866667 -0.86 -0.846667 -0.84 -0.833334 -0.826667
-0.82 -0.806667 -0.806667 -0.8 -0.793334 -0.786667 -0.780001 -0.773334
-0.766667 -0.760001 -0.746667 -0.740001 -0.733334 -0.726667 -0.720001
-0.713334 -0.706667 -0.693334 -0.680001 -0.673334 -0.666667 -0.653334
-0.640001 -0.633334 -0.620001 -0.606667 -0.606667 -0.593334 -0.586667
-0.573334 -0.573334 -0.560001 -0.553334 -0.550001 -0.540001 -0.533334
-0.520001 -0.513334 -0.506667 -0.506667 -0.500001 -0.493334 -0.480001
-0.473334 -0.466667 -0.460001 -0.453334 -0.433334 -0.433334 -0.426667
-0.413334 -0.406668 -0.400001 -0.393334 -0.380001 -0.373334 -0.366668
-0.360001 -0.353334 -0.346668 -0.326668 -0.320001 -0.306668 -0.303334
-0.300001 -0.286668 -0.273334 -0.266668 -0.260001 -0.253334 -0.233334
-0.226668 -0.220001 -0.213334 -0.206668 -0.200001 -0.193334 -0.180001
-0.176667 -0.166667 -0.160001 -0.153334 -0.146667 -0.133334 -0.120001
-0.113334 -0.106667 -0.093334 -0.093334 -0.0866674 -0.0800007 -0.073334
-0.0666673 -0.053334 -0.0500007 -0.0466673 -0.0400007 -0.033334 -0.0200006
-0.013334 -0.0066673 -6.32368e-07 0.00666604 0.0133327 0.0266661 0.0333327
0.0466661 0.046666 0.0466659 0.0533326 0.0533326 0.0733326 0.086666
0.0933326 0.106666 0.106666 0.113333 0.119999 0.126666 0.133333 0.139999
0.146666 0.153333 0.159999 0.173333 0.173333 0.186666 0.193333 0.199999
0.206666 0.219999 0.226666 0.233333 0.246666 0.253333 0.26 0.27 0.273333
0.279999 0.286666 0.286666 0.299999 0.313333 0.319999 0.319999 0.326666
0.333333 0.339999 0.346666 0.353333 0.359999 0.366666 0.366666 0.379999
0.386666 0.386666 0.399999 0.406666 0.419999 0.426666 0.433333 0.439999
0.446666 0.459999 0.466666 0.473333 0.479999 0.493333 0.499999 0.506666
0.513333 0.526666 0.533333 0.533333 0.533333 0.546666 0.553333 0.559999
0.566666 0.586666 0.586666 0.593333 0.606666 0.613333 0.619999 0.626666
0.633333 0.646666 0.646666 0.659999 0.666666 0.673333 0.679999 0.686666
0.693332 0.699999 0.699999 0.713332 0.719999 0.733332 0.739999 0.739999
0.746666 0.759999 0.766666 0.779999 0.779999 0.779999 0.793332 0.793332
0.793332 0.799999 0.813332 0.819999 0.826666 0.833332 0.839999 0.843332
0.846666 0.853332 0.866666 0.866666 0.879999 0.879999 0.896666 0.899999
0.913332 0.919999 0.926666 0.926666 0.933332 0.933332 0.939999 0.946666
0.946666 0.966666 0.973332 0.979999 0.993332 0.993332 -0.993334 -0.993334
;
#X coords 0 1 514 -1 500 300 1;
#X restore 205 197 graph;
#N canvas 0 22 972 765 string3osc2 0;
#X obj 151 138 tabosc4~ \$0stringishwave1;
#X obj 222 83 tabosc4~ \$0stringishwave1;
#X obj 146 231 *~ 0.33;
#X obj 106 178 tabosc4~ \$0stringishwave1;
#X obj 349 503 lop~;
#X obj 91 81 mtof;
#X obj 91 54 - 0.02;
#X obj 220 39 + 0.03;
#X obj 157 52 - 0.01;
#X obj 157 80 mtof;
#X obj 221 59 mtof;
#X obj 350 535 lop~;
#N canvas 192 254 839 634 comb1 0;
#X obj 125 281 inlet~;
#X obj 398 525 outlet~;
#X obj 199 507 +~;
#X obj 219 476 *~;
#X obj 45 400 block~ 1;
#X obj 241 272 inlet;
#X obj 448 274 inlet;
#X obj 242 314 vd~ \$0comb1a2;
#X obj 196 531 delwrite~ \$0comb1a2 100;
#X connect 0 0 2 0;
#X connect 2 0 8 0;
#X connect 3 0 2 1;
#X connect 5 0 7 0;
#X connect 6 0 3 1;
#X connect 7 0 1 0;
#X connect 7 0 3 0;
#X restore 188 389 pd comb1;
#X obj 321 467 *~ 0.33;
#N canvas 192 254 839 634 comb2 0;
#X obj 125 281 inlet~;
#X obj 398 525 outlet~;
#X obj 199 507 +~;
#X obj 219 476 *~;
#X obj 45 400 block~ 1;
#X obj 241 272 inlet;
#X obj 448 274 inlet;
#X obj 242 314 vd~ \$0comb2a2;
#X obj 198 530 delwrite~ \$0comb2a2 100;
#X connect 0 0 2 0;
#X connect 2 0 8 0;
#X connect 3 0 2 1;
#X connect 5 0 7 0;
#X connect 6 0 3 1;
#X connect 7 0 1 0;
#X connect 7 0 3 0;
#X restore 326 335 pd comb2;
#N canvas 192 254 839 634 comb3 0;
#X obj 125 281 inlet~;
#X obj 398 525 outlet~;
#X obj 199 507 +~;
#X obj 219 476 *~;
#X obj 45 400 block~ 1;
#X obj 241 272 inlet;
#X obj 448 274 inlet;
#X obj 242 314 vd~ \$0comb3a2;
#X obj 197 531 delwrite~ \$0comb3a2 100;
#X connect 0 0 2 0;
#X connect 2 0 8 0;
#X connect 3 0 2 1;
#X connect 5 0 7 0;
#X connect 6 0 3 1;
#X connect 7 0 1 0;
#X connect 7 0 3 0;
#X restore 441 327 pd comb3;
#X msg 244 359 0.53;
#X msg 367 287 0.49;
#X msg 518 265 0.51;
#X msg 201 324 1000;
#X msg 367 -217 bang;
#X obj 385 170 t b b;
#X obj 207 356 /;
#X msg 325 257 1000;
#X obj 331 289 /;
#X msg 363 257 980;
#X msg 440 252 1000;
#X obj 446 284 /;
#X obj 365 -240 loadbang;
#X msg 484 252 350;
#X obj 194 -54 line;
#X obj 195 -121 random 500;
#X obj 101 28 +;
#X obj 124 -57 t b f;
#X obj 279 -53 line;
#X obj 158 21 +;
#X obj 220 14 +;
#X obj 281 -120 random 1000;
#X obj 376 -53 line;
#X obj 378 -120 random 1000;
#X obj 195 -99 / 90000;
#X obj 279 -98 / 90000;
#X obj 376 -98 / 90000;
#X obj 206 -162 metro 120;
#X obj 288 -164 metro 113;
#X obj 391 -160 metro 117;
#X msg 195 -76 \$1 120;
#X msg 279 -75 \$1 113;
#X msg 376 -75 \$1 117;
#X obj 352 374 * 65;
#X obj 94 -185 inlet;
#X obj 365 569 outlet~;
#X msg 247 327 7000;
#X connect 0 0 2 0;
#X connect 1 0 2 0;
#X connect 2 0 12 0;
#X connect 2 0 14 0;
#X connect 2 0 15 0;
#X connect 3 0 2 0;
#X connect 4 0 11 0;
#X connect 5 0 3 0;
#X connect 6 0 5 0;
#X connect 7 0 10 0;
#X connect 8 0 9 0;
#X connect 9 0 0 0;
#X connect 10 0 1 0;
#X connect 11 0 51 0;
#X connect 12 0 13 0;
#X connect 13 0 4 0;
#X connect 14 0 13 0;
#X connect 15 0 13 0;
#X connect 16 0 12 2;
#X connect 17 0 14 2;
#X connect 18 0 15 2;
#X connect 19 0 22 0;
#X connect 20 0 21 0;
#X connect 20 0 43 0;
#X connect 20 0 44 0;
#X connect 20 0 45 0;
#X connect 21 0 19 0;
#X connect 21 0 23 0;
#X connect 21 0 26 0;
#X connect 21 1 52 0;
#X connect 21 1 16 0;
#X connect 21 1 17 0;
#X connect 21 1 18 0;
#X connect 21 1 25 0;
#X connect 21 1 29 0;
#X connect 22 0 12 1;
#X connect 23 0 24 0;
#X connect 24 0 14 1;
#X connect 25 0 24 1;
#X connect 26 0 27 0;
#X connect 27 0 15 1;
#X connect 28 0 20 0;
#X connect 29 0 27 1;
#X connect 30 0 32 0;
#X connect 31 0 40 0;
#X connect 32 0 6 0;
#X connect 33 0 32 0;
#X connect 33 0 35 0;
#X connect 33 0 36 0;
#X connect 33 1 32 1;
#X connect 33 1 35 1;
#X connect 33 1 36 1;
#X connect 33 1 49 0;
#X connect 34 0 35 0;
#X connect 35 0 8 0;
#X connect 36 0 7 0;
#X connect 37 0 41 0;
#X connect 38 0 36 0;
#X connect 39 0 42 0;
#X connect 40 0 46 0;
#X connect 41 0 47 0;
#X connect 42 0 48 0;
#X connect 43 0 31 0;
#X connect 44 0 37 0;
#X connect 45 0 39 0;
#X connect 46 0 30 0;
#X connect 47 0 34 0;
#X connect 48 0 38 0;
#X connect 49 0 4 1;
#X connect 49 0 11 1;
#X connect 50 0 33 0;
#X connect 52 0 22 1;
#X restore -47 493 pd string3osc2;
#N canvas 0 22 972 765 string3osc3 0;
#X obj 151 138 tabosc4~ \$0stringishwave1;
#X obj 222 83 tabosc4~ \$0stringishwave1;
#X obj 146 231 *~ 0.33;
#X obj 106 178 tabosc4~ \$0stringishwave1;
#X obj 349 503 lop~;
#X obj 91 81 mtof;
#X obj 91 54 - 0.02;
#X obj 220 39 + 0.03;
#X obj 157 52 - 0.01;
#X obj 157 80 mtof;
#X obj 221 59 mtof;
#X obj 350 535 lop~;
#N canvas 192 254 839 634 comb1 0;
#X obj 125 281 inlet~;
#X obj 398 525 outlet~;
#X obj 199 507 +~;
#X obj 219 476 *~;
#X obj 45 400 block~ 1;
#X obj 241 272 inlet;
#X obj 448 274 inlet;
#X obj 242 314 vd~ \$0comb1a3;
#X obj 196 531 delwrite~ \$0comb1a3 100;
#X connect 0 0 2 0;
#X connect 2 0 8 0;
#X connect 3 0 2 1;
#X connect 5 0 7 0;
#X connect 6 0 3 1;
#X connect 7 0 1 0;
#X connect 7 0 3 0;
#X restore 188 389 pd comb1;
#X obj 321 467 *~ 0.33;
#N canvas 192 254 839 634 comb2 0;
#X obj 125 281 inlet~;
#X obj 398 525 outlet~;
#X obj 199 507 +~;
#X obj 219 476 *~;
#X obj 45 400 block~ 1;
#X obj 241 272 inlet;
#X obj 448 274 inlet;
#X obj 242 314 vd~ \$0comb2a3;
#X obj 198 530 delwrite~ \$0comb2a3 100;
#X connect 0 0 2 0;
#X connect 2 0 8 0;
#X connect 3 0 2 1;
#X connect 5 0 7 0;
#X connect 6 0 3 1;
#X connect 7 0 1 0;
#X connect 7 0 3 0;
#X restore 326 335 pd comb2;
#N canvas 192 254 839 634 comb3 0;
#X obj 125 281 inlet~;
#X obj 398 525 outlet~;
#X obj 199 507 +~;
#X obj 219 476 *~;
#X obj 45 400 block~ 1;
#X obj 241 272 inlet;
#X obj 448 274 inlet;
#X obj 242 314 vd~ \$0comb3a3;
#X obj 197 531 delwrite~ \$0comb3a3 100;
#X connect 0 0 2 0;
#X connect 2 0 8 0;
#X connect 3 0 2 1;
#X connect 5 0 7 0;
#X connect 6 0 3 1;
#X connect 7 0 1 0;
#X connect 7 0 3 0;
#X restore 441 327 pd comb3;
#X msg 244 359 0.53;
#X msg 367 287 0.49;
#X msg 518 265 0.51;
#X msg 201 324 1000;
#X msg 367 -217 bang;
#X obj 385 170 t b b;
#X obj 207 356 /;
#X msg 325 257 1000;
#X obj 331 289 /;
#X msg 363 257 980;
#X msg 440 252 1000;
#X obj 446 284 /;
#X obj 365 -240 loadbang;
#X msg 484 252 350;
#X obj 194 -54 line;
#X obj 195 -121 random 500;
#X obj 101 28 +;
#X obj 124 -57 t b f;
#X obj 279 -53 line;
#X obj 158 21 +;
#X obj 220 14 +;
#X obj 281 -120 random 1000;
#X obj 376 -53 line;
#X obj 378 -120 random 1000;
#X obj 195 -99 / 90000;
#X obj 279 -98 / 90000;
#X obj 376 -98 / 90000;
#X obj 206 -162 metro 120;
#X obj 288 -164 metro 113;
#X obj 391 -160 metro 117;
#X msg 195 -76 \$1 120;
#X msg 279 -75 \$1 113;
#X msg 376 -75 \$1 117;
#X obj 352 374 * 65;
#X obj 94 -185 inlet;
#X obj 365 569 outlet~;
#X msg 247 327 7000;
#X connect 0 0 2 0;
#X connect 1 0 2 0;
#X connect 2 0 12 0;
#X connect 2 0 14 0;
#X connect 2 0 15 0;
#X connect 3 0 2 0;
#X connect 4 0 11 0;
#X connect 5 0 3 0;
#X connect 6 0 5 0;
#X connect 7 0 10 0;
#X connect 8 0 9 0;
#X connect 9 0 0 0;
#X connect 10 0 1 0;
#X connect 11 0 51 0;
#X connect 12 0 13 0;
#X connect 13 0 4 0;
#X connect 14 0 13 0;
#X connect 15 0 13 0;
#X connect 16 0 12 2;
#X connect 17 0 14 2;
#X connect 18 0 15 2;
#X connect 19 0 22 0;
#X connect 20 0 21 0;
#X connect 20 0 43 0;
#X connect 20 0 44 0;
#X connect 20 0 45 0;
#X connect 21 0 19 0;
#X connect 21 0 23 0;
#X connect 21 0 26 0;
#X connect 21 1 52 0;
#X connect 21 1 16 0;
#X connect 21 1 17 0;
#X connect 21 1 18 0;
#X connect 21 1 25 0;
#X connect 21 1 29 0;
#X connect 22 0 12 1;
#X connect 23 0 24 0;
#X connect 24 0 14 1;
#X connect 25 0 24 1;
#X connect 26 0 27 0;
#X connect 27 0 15 1;
#X connect 28 0 20 0;
#X connect 29 0 27 1;
#X connect 30 0 32 0;
#X connect 31 0 40 0;
#X connect 32 0 6 0;
#X connect 33 0 32 0;
#X connect 33 0 35 0;
#X connect 33 0 36 0;
#X connect 33 1 32 1;
#X connect 33 1 35 1;
#X connect 33 1 36 1;
#X connect 33 1 49 0;
#X connect 34 0 35 0;
#X connect 35 0 8 0;
#X connect 36 0 7 0;
#X connect 37 0 41 0;
#X connect 38 0 36 0;
#X connect 39 0 42 0;
#X connect 40 0 46 0;
#X connect 41 0 47 0;
#X connect 42 0 48 0;
#X connect 43 0 31 0;
#X connect 44 0 37 0;
#X connect 45 0 39 0;
#X connect 46 0 30 0;
#X connect 47 0 34 0;
#X connect 48 0 38 0;
#X connect 49 0 4 1;
#X connect 49 0 11 1;
#X connect 50 0 33 0;
#X connect 52 0 22 1;
#X restore 32 596 pd string3osc3;
#N canvas 0 22 972 765 string3osc4 0;
#X obj 151 138 tabosc4~ \$0stringishwave1;
#X obj 222 83 tabosc4~ \$0stringishwave1;
#X obj 146 231 *~ 0.33;
#X obj 106 178 tabosc4~ \$0stringishwave1;
#X obj 349 503 lop~;
#X obj 91 81 mtof;
#X obj 91 54 - 0.02;
#X obj 220 39 + 0.03;
#X obj 157 52 - 0.01;
#X obj 157 80 mtof;
#X obj 221 59 mtof;
#X obj 350 535 lop~;
#N canvas 192 254 839 634 comb1 0;
#X obj 125 281 inlet~;
#X obj 398 525 outlet~;
#X obj 199 507 +~;
#X obj 219 476 *~;
#X obj 45 400 block~ 1;
#X obj 241 272 inlet;
#X obj 448 274 inlet;
#X obj 242 314 vd~ \$0comb1a4;
#X obj 196 531 delwrite~ \$0comb1a4 100;
#X connect 0 0 2 0;
#X connect 2 0 8 0;
#X connect 3 0 2 1;
#X connect 5 0 7 0;
#X connect 6 0 3 1;
#X connect 7 0 1 0;
#X connect 7 0 3 0;
#X restore 188 389 pd comb1;
#X obj 321 467 *~ 0.33;
#N canvas 192 254 839 634 comb2 0;
#X obj 125 281 inlet~;
#X obj 398 525 outlet~;
#X obj 199 507 +~;
#X obj 219 476 *~;
#X obj 45 400 block~ 1;
#X obj 241 272 inlet;
#X obj 448 274 inlet;
#X obj 198 530 delwrite~ \$0comb2a4 100;
#X obj 242 314 vd~ \$0comb2a4;
#X connect 0 0 2 0;
#X connect 2 0 7 0;
#X connect 3 0 2 1;
#X connect 5 0 8 0;
#X connect 6 0 3 1;
#X connect 8 0 1 0;
#X connect 8 0 3 0;
#X restore 326 335 pd comb2;
#N canvas 192 254 839 634 comb3 0;
#X obj 125 281 inlet~;
#X obj 398 525 outlet~;
#X obj 199 507 +~;
#X obj 219 476 *~;
#X obj 45 400 block~ 1;
#X obj 241 272 inlet;
#X obj 448 274 inlet;
#X obj 241 314 vd~ \$0comb3a4;
#X obj 197 531 delwrite~ \$0comb3a4 100;
#X connect 0 0 2 0;
#X connect 2 0 8 0;
#X connect 3 0 2 1;
#X connect 5 0 7 0;
#X connect 6 0 3 1;
#X connect 7 0 1 0;
#X connect 7 0 3 0;
#X restore 441 327 pd comb3;
#X msg 244 359 0.53;
#X msg 367 287 0.49;
#X msg 518 265 0.51;
#X msg 201 324 1000;
#X msg 367 -217 bang;
#X obj 385 170 t b b;
#X obj 207 356 /;
#X msg 325 257 1000;
#X obj 331 289 /;
#X msg 363 257 980;
#X msg 440 252 1000;
#X obj 446 284 /;
#X obj 365 -240 loadbang;
#X msg 484 252 350;
#X obj 194 -54 line;
#X obj 195 -121 random 500;
#X obj 101 28 +;
#X obj 124 -57 t b f;
#X obj 279 -53 line;
#X obj 158 21 +;
#X obj 220 14 +;
#X obj 281 -120 random 1000;
#X obj 376 -53 line;
#X obj 378 -120 random 1000;
#X obj 195 -99 / 90000;
#X obj 279 -98 / 90000;
#X obj 376 -98 / 90000;
#X obj 206 -162 metro 120;
#X obj 288 -164 metro 113;
#X obj 391 -160 metro 117;
#X msg 195 -76 \$1 120;
#X msg 279 -75 \$1 113;
#X msg 376 -75 \$1 117;
#X obj 352 374 * 65;
#X obj 94 -185 inlet;
#X obj 365 569 outlet~;
#X msg 247 327 7000;
#X connect 0 0 2 0;
#X connect 1 0 2 0;
#X connect 2 0 12 0;
#X connect 2 0 14 0;
#X connect 2 0 15 0;
#X connect 3 0 2 0;
#X connect 4 0 11 0;
#X connect 5 0 3 0;
#X connect 6 0 5 0;
#X connect 7 0 10 0;
#X connect 8 0 9 0;
#X connect 9 0 0 0;
#X connect 10 0 1 0;
#X connect 11 0 51 0;
#X connect 12 0 13 0;
#X connect 13 0 4 0;
#X connect 14 0 13 0;
#X connect 15 0 13 0;
#X connect 16 0 12 2;
#X connect 17 0 14 2;
#X connect 18 0 15 2;
#X connect 19 0 22 0;
#X connect 20 0 21 0;
#X connect 20 0 43 0;
#X connect 20 0 44 0;
#X connect 20 0 45 0;
#X connect 21 0 19 0;
#X connect 21 0 23 0;
#X connect 21 0 26 0;
#X connect 21 1 52 0;
#X connect 21 1 16 0;
#X connect 21 1 17 0;
#X connect 21 1 18 0;
#X connect 21 1 25 0;
#X connect 21 1 29 0;
#X connect 22 0 12 1;
#X connect 23 0 24 0;
#X connect 24 0 14 1;
#X connect 25 0 24 1;
#X connect 26 0 27 0;
#X connect 27 0 15 1;
#X connect 28 0 20 0;
#X connect 29 0 27 1;
#X connect 30 0 32 0;
#X connect 31 0 40 0;
#X connect 32 0 6 0;
#X connect 33 0 32 0;
#X connect 33 0 35 0;
#X connect 33 0 36 0;
#X connect 33 1 32 1;
#X connect 33 1 35 1;
#X connect 33 1 36 1;
#X connect 33 1 49 0;
#X connect 34 0 35 0;
#X connect 35 0 8 0;
#X connect 36 0 7 0;
#X connect 37 0 41 0;
#X connect 38 0 36 0;
#X connect 39 0 42 0;
#X connect 40 0 46 0;
#X connect 41 0 47 0;
#X connect 42 0 48 0;
#X connect 43 0 31 0;
#X connect 44 0 37 0;
#X connect 45 0 39 0;
#X connect 46 0 30 0;
#X connect 47 0 34 0;
#X connect 48 0 38 0;
#X connect 49 0 4 1;
#X connect 49 0 11 1;
#X connect 50 0 33 0;
#X connect 52 0 22 1;
#X restore 115 694 pd string3osc4;
#X obj -36 66 inlet;
#X obj -132 340 + 0;
#X obj -48 470 + 0;
#X obj 31 573 + 0;
#X obj 112 670 + 0;
#X obj -147 270 unpack f f;
#X obj -60 423 unpack f f;
#X obj 19 526 unpack f f;
#X obj 100 623 unpack f f;
#X connect 1 0 4 0;
#X connect 2 0 30 0;
#X connect 3 0 4 1;
#X connect 4 0 31 0;
#X connect 5 0 2 2;
#X connect 6 0 7 0;
#X connect 7 0 0 0;
#X connect 8 0 19 1;
#X connect 8 0 23 1;
#X connect 8 0 26 1;
#X connect 8 0 29 1;
#X connect 9 0 19 2;
#X connect 9 0 23 2;
#X connect 9 0 26 2;
#X connect 9 0 29 2;
#X connect 10 0 19 3;
#X connect 10 0 23 3;
#X connect 10 0 26 3;
#X connect 10 0 29 3;
#X connect 11 0 38 0;
#X connect 12 0 13 0;
#X connect 13 0 15 0;
#X connect 14 0 16 0;
#X connect 15 0 14 0;
#X connect 16 0 18 0;
#X connect 18 0 11 0;
#X connect 18 0 22 0;
#X connect 18 0 25 0;
#X connect 18 0 28 0;
#X connect 18 1 38 1;
#X connect 18 1 39 1;
#X connect 18 1 40 1;
#X connect 18 1 41 1;
#X connect 19 0 6 1;
#X connect 20 0 19 4;
#X connect 20 0 23 4;
#X connect 20 0 26 4;
#X connect 20 0 29 4;
#X connect 21 0 7 0;
#X connect 22 0 39 0;
#X connect 23 0 21 1;
#X connect 24 0 7 0;
#X connect 25 0 40 0;
#X connect 26 0 24 1;
#X connect 27 0 7 0;
#X connect 28 0 41 0;
#X connect 29 0 27 1;
#X connect 30 0 42 0;
#X connect 30 1 43 0;
#X connect 30 2 44 0;
#X connect 30 3 45 0;
#X connect 31 0 2 0;
#X connect 31 1 2 1;
#X connect 31 2 5 0;
#X connect 32 0 6 0;
#X connect 34 0 21 0;
#X connect 35 0 24 0;
#X connect 36 0 27 0;
#X connect 37 0 30 0;
#X connect 38 0 32 0;
#X connect 39 0 34 0;
#X connect 40 0 35 0;
#X connect 41 0 36 0;
#X connect 42 0 11 0;
#X connect 42 1 19 0;
#X connect 43 0 22 0;
#X connect 43 1 23 0;
#X connect 44 0 25 0;
#X connect 44 1 26 0;
#X connect 45 0 28 0;
#X connect 45 1 29 0;
#X coords 0 -1 1 1 110 60 1 100 100;
#X restore 48 52 pd stringens1;
#X obj 353 -123 inlet;
#X connect 0 0 7 0;
#X connect 0 1 13 0;
#X connect 1 0 3 0;
#X connect 2 0 12 0;
#X connect 3 0 5 0;
#X connect 4 0 8 0;
#X connect 5 0 4 0;
#X connect 6 0 7 0;
#X connect 7 0 2 0;
#X connect 8 0 2 1;
#X connect 8 0 6 0;
#X connect 10 0 22 0;
#X connect 11 0 14 0;
#X connect 11 1 15 0;
#X connect 12 0 23 0;
#X connect 13 0 23 1;
#X connect 14 0 23 0;
#X connect 15 0 23 1;
#X connect 20 0 23 0;
#X connect 21 0 23 1;
#X connect 23 0 10 0;
#X connect 24 0 23 2;
#X coords 0 1 100 -1 217 115 1 0 0;
#X restore -65 80 graph;
#X obj -65 59 r note1;
#X obj 37 62 r vel1;
#N canvas 0 22 450 300 (subpatch) 0;
#X obj -30 22 spigot;
#X obj 2 3 tgl 15 0 empty empty empty 17 7 0 10 -262144 -1 -1 1 1;
#X obj -58 0 inlet;
#X obj -54 54 outlet;
#X connect 0 0 3 0;
#X connect 1 0 0 1;
#X connect 2 0 0 0;
#X coords 0 1 100 -1 20 20 1 0 0;
#X restore 207 39 graph;
#X obj 206 17 r polynote;
#X text 235 41 receive from polyseq32;
#X connect 1 0 0 0;
#X connect 2 0 1 0;
#X connect 3 0 1 1;
#X connect 4 0 1 2;
#X connect 5 0 4 0;
