#N canvas 32 258 450 300 10;
#N canvas 257 68 455 488 synth 0;
#X obj 144 80 inlet;
#N canvas 477 165 450 300 part 0;
#X obj 105 37 inlet;
#X obj 188 109 line~;
#X msg 184 77 1 0;
#X obj 206 52 t b b;
#X obj 152 149 mtof;
#X obj 168 256 *~;
#X obj 263 242 outlet~;
#X obj 154 211 osc~;
#X obj 268 184 osc~;
#X obj 154 190 +~;
#X obj 207 192 *~;
#X obj 256 155 mtof;
#X msg 225 79 0 1000;
#X obj 125 107 + 36;
#X obj 252 131 + 7;
#X obj 325 212 /~ 3;
#X obj 204 232 +~;
#X obj 338 159 osc~ 3;
#X obj 203 147 *~ 2048;
#X connect 0 0 3 0;
#X connect 0 0 13 0;
#X connect 1 0 16 0;
#X connect 1 0 18 0;
#X connect 2 0 1 0;
#X connect 3 0 12 0;
#X connect 3 1 2 0;
#X connect 4 0 9 0;
#X connect 5 0 6 0;
#X connect 7 0 5 0;
#X connect 8 0 10 1;
#X connect 9 0 7 0;
#X connect 10 0 9 1;
#X connect 11 0 8 0;
#X connect 12 0 1 0;
#X connect 13 0 4 0;
#X connect 13 0 14 0;
#X connect 14 0 11 0;
#X connect 15 0 16 1;
#X connect 16 0 5 1;
#X connect 17 0 15 0;
#X connect 18 0 10 0;
#X restore 144 254 pd part;
#X msg 144 110 \$1 127;
#X obj 144 177 pack 0 0 0;
#X obj 144 232 unpack;
#X obj 194 232 unpack;
#X obj 244 232 unpack;
#X obj 294 232 unpack;
#X obj 144 207 route 1 2 3 4;
#X obj 144 152 poly 4 1;
#N canvas 477 165 450 300 part 0;
#X obj 105 37 inlet;
#X obj 188 109 line~;
#X msg 184 77 1 0;
#X obj 206 52 t b b;
#X obj 152 149 mtof;
#X obj 168 256 *~;
#X obj 263 242 outlet~;
#X obj 154 211 osc~;
#X obj 268 184 osc~;
#X obj 154 190 +~;
#X obj 207 192 *~;
#X obj 256 155 mtof;
#X msg 225 79 0 1000;
#X obj 125 107 + 36;
#X obj 252 131 + 7;
#X obj 325 212 /~ 3;
#X obj 204 232 +~;
#X obj 338 159 osc~ 3;
#X obj 203 147 *~ 2048;
#X connect 0 0 3 0;
#X connect 0 0 13 0;
#X connect 1 0 16 0;
#X connect 1 0 18 0;
#X connect 2 0 1 0;
#X connect 3 0 12 0;
#X connect 3 1 2 0;
#X connect 4 0 9 0;
#X connect 5 0 6 0;
#X connect 7 0 5 0;
#X connect 8 0 10 1;
#X connect 9 0 7 0;
#X connect 10 0 9 1;
#X connect 11 0 8 0;
#X connect 12 0 1 0;
#X connect 13 0 4 0;
#X connect 13 0 14 0;
#X connect 14 0 11 0;
#X connect 15 0 16 1;
#X connect 16 0 5 1;
#X connect 17 0 15 0;
#X connect 18 0 10 0;
#X restore 194 254 pd part;
#N canvas 477 165 450 300 part 0;
#X obj 105 37 inlet;
#X obj 188 109 line~;
#X msg 184 77 1 0;
#X obj 206 52 t b b;
#X obj 152 149 mtof;
#X obj 168 256 *~;
#X obj 263 242 outlet~;
#X obj 154 211 osc~;
#X obj 268 184 osc~;
#X obj 154 190 +~;
#X obj 207 192 *~;
#X obj 256 155 mtof;
#X msg 225 79 0 1000;
#X obj 125 107 + 36;
#X obj 252 131 + 7;
#X obj 325 212 /~ 3;
#X obj 204 232 +~;
#X obj 338 159 osc~ 3;
#X obj 203 147 *~ 2048;
#X connect 0 0 3 0;
#X connect 0 0 13 0;
#X connect 1 0 16 0;
#X connect 1 0 18 0;
#X connect 2 0 1 0;
#X connect 3 0 12 0;
#X connect 3 1 2 0;
#X connect 4 0 9 0;
#X connect 5 0 6 0;
#X connect 7 0 5 0;
#X connect 8 0 10 1;
#X connect 9 0 7 0;
#X connect 10 0 9 1;
#X connect 11 0 8 0;
#X connect 12 0 1 0;
#X connect 13 0 4 0;
#X connect 13 0 14 0;
#X connect 14 0 11 0;
#X connect 15 0 16 1;
#X connect 16 0 5 1;
#X connect 17 0 15 0;
#X connect 18 0 10 0;
#X restore 244 254 pd part;
#N canvas 477 165 450 300 part 0;
#X obj 105 37 inlet;
#X obj 188 109 line~;
#X msg 184 77 1 0;
#X obj 206 52 t b b;
#X obj 152 149 mtof;
#X obj 168 256 *~;
#X obj 263 242 outlet~;
#X obj 154 211 osc~;
#X obj 268 184 osc~;
#X obj 154 190 +~;
#X obj 207 192 *~;
#X obj 256 155 mtof;
#X msg 225 79 0 1000;
#X obj 125 107 + 36;
#X obj 252 131 + 7;
#X obj 325 212 /~ 3;
#X obj 204 232 +~;
#X obj 338 159 osc~ 3;
#X obj 203 147 *~ 2048;
#X connect 0 0 3 0;
#X connect 0 0 13 0;
#X connect 1 0 16 0;
#X connect 1 0 18 0;
#X connect 2 0 1 0;
#X connect 3 0 12 0;
#X connect 3 1 2 0;
#X connect 4 0 9 0;
#X connect 5 0 6 0;
#X connect 7 0 5 0;
#X connect 8 0 10 1;
#X connect 9 0 7 0;
#X connect 10 0 9 1;
#X connect 11 0 8 0;
#X connect 12 0 1 0;
#X connect 13 0 4 0;
#X connect 13 0 14 0;
#X connect 14 0 11 0;
#X connect 15 0 16 1;
#X connect 16 0 5 1;
#X connect 17 0 15 0;
#X connect 18 0 10 0;
#X restore 294 254 pd part;
#X obj 198 382 outlet~;
#X obj 205 347 freeverb~;
#X obj 258 382 outlet~;
#X obj 275 129 inlet;
#X obj 285 322 /~ 8;
#X obj 216 310 /~ 8;
#X connect 0 0 2 0;
#X connect 1 0 17 0;
#X connect 1 0 18 0;
#X connect 2 0 9 0;
#X connect 3 0 8 0;
#X connect 4 0 1 0;
#X connect 5 0 10 0;
#X connect 6 0 11 0;
#X connect 7 0 12 0;
#X connect 8 0 4 0;
#X connect 8 1 5 0;
#X connect 8 2 6 0;
#X connect 8 3 7 0;
#X connect 9 0 3 0;
#X connect 9 1 3 1;
#X connect 9 2 3 2;
#X connect 10 0 17 0;
#X connect 10 0 18 0;
#X connect 11 0 17 0;
#X connect 11 0 18 0;
#X connect 12 0 17 0;
#X connect 12 0 18 0;
#X connect 14 0 13 0;
#X connect 14 1 15 0;
#X connect 16 0 8 0;
#X connect 17 0 15 0;
#X connect 17 0 13 0;
#X connect 18 0 14 0;
#X connect 18 0 14 1;
#X restore 148 59 pd synth;
#N canvas 0 22 450 300 (subpatch) 0;
#X obj 59 155 inlet;
#X obj 3 89 inlet~;
#X obj 58 182 change;
#X msg 60 246 set \$1;
#X obj 60 227 tosymbol;
#X obj 59 204 sprintf Bus%d;
#X obj 3 282 throw~ Bus0;
#X obj 2 3 popup 124 25 #ffffff popup Bus0 Bus1 Bus2 Bus3 Bus4 Bus5
Bus6 Bus7 Bus8 Bus9 Bus10 Bus11 Bus12 Bus13 Bus14 Bus15 Bus16;
#X obj 1 32 route bang;
#X obj 154 202 *~;
#X obj 141 7 tgl 15 0 empty empty Dac 19 7 0 10 -262144 -1 -1 1 1;
#X obj 155 238 dac~;
#X obj 5 -62 loadbang;
#X text 63 -64 Bus0 mutes;
#X msg 5 -44 options Bus0 Bus1 Bus2 Bus3 Bus4 Bus5 Bus6 Bus7 Bus8 Bus9
Bus10 Bus11 Bus12 Bus13 Bus14 Bus15 Bus16;
#X connect 0 0 2 0;
#X connect 1 0 6 0;
#X connect 1 0 9 0;
#X connect 2 0 5 0;
#X connect 3 0 6 0;
#X connect 4 0 3 0;
#X connect 5 0 4 0;
#X connect 7 0 8 0;
#X connect 8 1 2 0;
#X connect 9 0 11 0;
#X connect 10 0 9 1;
#X connect 12 0 14 0;
#X connect 14 0 7 0;
#X coords 0 1 100 -1 180 30 1 0 0;
#X restore 148 82 graph;
#N canvas 0 22 450 300 (subpatch) 0;
#X obj 59 155 inlet;
#X obj 3 89 inlet~;
#X obj 58 182 change;
#X msg 60 246 set \$1;
#X obj 60 227 tosymbol;
#X obj 59 204 sprintf Bus%d;
#X obj 3 282 throw~ Bus0;
#X obj 2 3 popup 124 25 #ffffff popup Bus0 Bus1 Bus2 Bus3 Bus4 Bus5
Bus6 Bus7 Bus8 Bus9 Bus10 Bus11 Bus12 Bus13 Bus14 Bus15 Bus16;
#X obj 1 32 route bang;
#X obj 154 202 *~;
#X obj 141 7 tgl 15 0 empty empty Dac 19 7 0 10 -262144 -1 -1 1 1;
#X obj 155 238 dac~;
#X obj 5 -62 loadbang;
#X text 63 -64 Bus0 mutes;
#X msg 5 -44 options Bus0 Bus1 Bus2 Bus3 Bus4 Bus5 Bus6 Bus7 Bus8 Bus9
Bus10 Bus11 Bus12 Bus13 Bus14 Bus15 Bus16;
#X connect 0 0 2 0;
#X connect 1 0 6 0;
#X connect 1 0 9 0;
#X connect 2 0 5 0;
#X connect 3 0 6 0;
#X connect 4 0 3 0;
#X connect 5 0 4 0;
#X connect 7 0 8 0;
#X connect 8 1 2 0;
#X connect 9 0 11 1;
#X connect 10 0 9 1;
#X connect 12 0 14 0;
#X connect 14 0 7 0;
#X coords 0 1 100 -1 180 30 1 0 0;
#X restore 193 116 graph;
#X obj 148 -26 r note1;
#X obj 87 -5 notein;
#X floatatom 148 39 5 0 0 0 - - -;
#N canvas 0 22 450 300 (subpatch) 0;
#X obj -30 22 spigot;
#X obj 2 3 tgl 15 0 empty empty empty 17 7 0 10 -262144 -1 -1 0 1;
#X obj -58 0 inlet;
#X obj -54 54 outlet;
#X connect 0 0 3 0;
#X connect 1 0 0 1;
#X connect 2 0 0 0;
#X coords 0 1 100 -1 20 20 1 0 0;
#X restore 148 -5 graph;
#N canvas 0 22 450 300 (subpatch) 0;
#X obj -30 22 spigot;
#X obj 2 3 tgl 15 0 empty empty empty 17 7 0 10 -262144 -1 -1 0 1;
#X obj -58 0 inlet;
#X obj -54 54 outlet;
#X connect 0 0 3 0;
#X connect 1 0 0 1;
#X connect 2 0 0 0;
#X coords 0 1 100 -1 20 20 1 0 0;
#X restore 87 19 graph;
#N canvas 0 22 450 300 (subpatch) 0;
#X obj -30 22 spigot;
#X obj 2 3 tgl 15 0 empty empty empty 17 7 0 10 -262144 -1 -1 1 1;
#X obj -58 0 inlet;
#X obj -54 54 outlet;
#X connect 0 0 3 0;
#X connect 1 0 0 1;
#X connect 2 0 0 0;
#X coords 0 1 100 -1 20 20 1 0 0;
#X restore 197 29 graph;
#X obj 196 7 r polynote;
#X text 225 31 receive from polyseq32;
#X connect 0 0 1 0;
#X connect 0 1 2 0;
#X connect 3 0 6 0;
#X connect 4 0 7 0;
#X connect 5 0 0 0;
#X connect 6 0 5 0;
#X connect 7 0 5 0;
#X connect 8 0 0 1;
#X connect 9 0 8 0;
