#N canvas 0 22 463 593 12;
#X floatatom 147 259 5 0 0 0 - - -;
#X floatatom 189 259 5 0 0 0 - - -;
#X floatatom 231 259 5 0 0 0 - - -;
#X floatatom 189 299 5 0 0 0 - - -;
#X floatatom 231 299 5 0 0 0 - - -;
#X obj 189 278 * 10;
#X obj 147 278 * 1;
#X floatatom 147 299 5 0 0 0 - - -;
#X obj 231 278 * 10;
#X floatatom 61 260 5 0 0 0 - - -;
#X floatatom 105 260 5 0 0 0 - - -;
#X obj 61 279 * 1;
#X obj 105 279 * 1;
#X obj -22 41 r note1;
#X obj 17 65 r vel1;
#X floatatom 61 299 5 0 0 0 - - -;
#X floatatom 105 299 5 0 0 0 - - -;
#X obj 231 181 ctlin 8;
#X text 115 94 center frequency;
#X text 160 116 index;
#X text 203 137 attack;
#X text 243 160 length;
#X text 287 178 Decay;
#X obj -103 255 notein;
#X floatatom -22 299 5 0 0 0 - - -;
#X floatatom 17 299 5 0 0 0 - - -;
#N canvas 0 22 1009 720 (subpatch) 0;
#X obj -413 384 cos~;
#X obj -413 361 *~;
#X obj -370 384 cos~;
#X obj -314 318 wrap~;
#X obj -350 318 -~;
#X obj -370 361 +~;
#X obj -377 414 -~;
#X obj -357 446 *~;
#X obj -395 446 +~;
#X obj -351 291 samphold~;
#X floatatom -292 169 4 0 500 0 - - -;
#X obj -292 192 / 10;
#X text -294 102 center;
#X obj -292 240 line~;
#X text -294 150 fundamental);
#X obj -292 217 pack 0 50;
#X obj -412 237 phasor~;
#X floatatom -412 216 4 0 0 0 - - -;
#X text -432 189 fundamental;
#X text -148 251 index;
#X text -148 268 (percent);
#X floatatom -148 289 4 0 500 0 - - -;
#X obj -148 335 line~;
#X obj -227 355 *~;
#X obj -148 312 pack 0 50;
#N canvas 0 22 450 300 (subpatch) 0;
#X array bell-curve 200 float 1;
#A 0 1.12535e-07 1.54727e-07 2.12059e-07 2.89706e-07 3.94519e-07 5.35535e-07
7.24633e-07 9.77371e-07 1.31404e-06 1.76105e-06 2.35258e-06 3.13275e-06
4.15832e-06 5.50199e-06 7.25659e-06 9.54016e-06 1.25023e-05 1.63317e-05
2.1266e-05 2.76026e-05 3.57128e-05 4.60584e-05 5.92113e-05 7.58768e-05
9.69224e-05 0.00012341 0.000156634 0.000198167 0.000249912 0.000314163
0.000393669 0.000491721 0.000612231 0.000759842 0.000940028 0.00115923
0.00142498 0.00174605 0.00213263 0.00259648 0.00315111 0.00381201 0.00459678
0.0055254 0.0066204 0.00790705 0.0094136 0.0111714 0.013215 0.0155826
0.0183156 0.0214592 0.0250621 0.0291763 0.0338573 0.0391639 0.0451575
0.0519019 0.0594631 0.0679081 0.0773047 0.0877205 0.0992216 0.111872
0.125732 0.140858 0.1573 0.1751 0.194291 0.214896 0.236928 0.260383
0.285247 0.311486 0.339053 0.367879 0.397882 0.428956 0.46098 0.493812
0.527292 0.561244 0.595473 0.62977 0.663916 0.697676 0.730811 0.763074
0.794216 0.823987 0.852144 0.878447 0.902668 0.924595 0.944027 0.960789
0.974725 0.985703 0.99362 0.998401 1 0.998401 0.99362 0.985703 0.974725
0.960789 0.944027 0.924595 0.902668 0.878447 0.852144 0.823987 0.794216
0.763074 0.730811 0.697676 0.663916 0.62977 0.595473 0.561244 0.527292
0.493812 0.46098 0.428956 0.397882 0.367879 0.339053 0.311486 0.285247
0.260383 0.236928 0.214896 0.194291 0.1751 0.1573 0.140858 0.125732
0.111872 0.0992216 0.0877205 0.0773047 0.0679081 0.0594631 0.0519019
0.0451575 0.0391639 0.0338573 0.0291763 0.0250621 0.0214592 0.0183156
0.0155826 0.013215 0.0111714 0.0094136 0.00790705 0.0066204 0.0055254
0.00459678 0.00381201 0.00315111 0.00259648 0.00213263 0.00174605 0.00142498
0.00115923 0.000940028 0.000759842 0.000612231 0.000491721 0.000393669
0.000314163 0.000249912 0.000198167 0.000156634 0.00012341 9.69224e-05
7.58768e-05 5.92113e-05 4.60584e-05 3.57128e-05 2.76026e-05 2.1266e-05
1.63317e-05 1.25023e-05 9.54016e-06 7.25659e-06 5.50199e-06 4.15832e-06
3.13275e-06 2.35258e-06 1.76105e-06 1.31404e-06 9.77371e-07 7.24633e-07
5.35535e-07 3.94519e-07 2.89706e-07 2.12059e-07 1.54727e-07;
#X coords 0 1 199 0 200 140 1;
#X restore -8 346 graph;
#N canvas 94 264 600 388 make-table 0;
#X msg 81 44 bang;
#X obj 81 73 t b b;
#X obj 159 142 f;
#X obj 197 142 + 1;
#X msg 175 112 0;
#X obj 81 102 until;
#X obj 161 177 t f f;
#X obj 76 306 tabwrite bell-curve;
#X obj 52 270 expr exp(-$f1*$f1);
#X obj 63 168 sel 199;
#X obj 51 241 expr ($f1-100)/25;
#X connect 0 0 1 0;
#X connect 1 0 5 0;
#X connect 1 1 4 0;
#X connect 2 0 3 0;
#X connect 2 0 6 0;
#X connect 2 0 9 0;
#X connect 3 0 2 1;
#X connect 4 0 2 1;
#X connect 5 0 2 0;
#X connect 6 0 10 0;
#X connect 6 1 7 1;
#X connect 8 0 7 0;
#X connect 9 0 5 1;
#X connect 10 0 8 0;
#X restore 56 306 pd make-table;
#X obj -227 332 cos~;
#X obj -227 309 -~ 0.25;
#X obj -227 378 +~ 100;
#X obj -227 401 tabread4~ bell-curve;
#X obj -356 475 *~;
#X text -320 473 <--ring mod step;
#X text -195 426 waveshaper;
#X text -294 117 frequency;
#X text -294 133 (tenths of;
#X text -10 489 0;
#X text 181 488 200;
#N canvas 0 22 450 300 (subpatch) 0;
#X array F12-spectrum 259 float 0;
#X coords 0 0.51 258 -0.008 256 130 1;
#X restore 17 20 graph;
#X text 18 150 0;
#X text 75 150 -- frequency --;
#X text 244 151 2700;
#X obj -357 516 hip~;
#N canvas 122 211 558 609 fft 0;
#X obj 23 55 inlet~;
#X obj 210 303 inlet;
#X obj 27 215 rfft~;
#X obj 27 248 *~;
#X obj 58 248 *~;
#X obj 27 278 sqrt~;
#X obj 334 200 block~ 4096 1;
#X obj 27 304 biquad~ 0 0 0 0 1;
#X text 91 216 Fourier series;
#X text 96 269 magnitude;
#X text 94 254 calculate;
#X text 21 3 This subpatch computes the spectrum of the incoming signal
with a (rectangular windowed) FFT. FFTs aren't properly introduced
until much later.;
#X text 83 61 signal to analyze;
#X text 195 255 delay two samples;
#X text 193 273 for better graphing;
#X obj 292 79 samplerate~;
#X obj 240 352 metro 500;
#X obj 240 329 inlet;
#X text 293 327 toggle to graph repeatedly;
#X text 264 303 bang to graph once;
#X obj 27 328 /~ 4096;
#X obj 292 54 bang~;
#X msg 211 413 \; pd dsp 1;
#X obj 292 102 / 4096;
#X obj 58 135 osc~;
#X obj 58 163 +~ 1;
#X obj 28 188 *~;
#X text 113 138 hanning window;
#X obj 254 79 0.5;
#X obj 240 390 tabwrite~ F12-spectrum;
#X connect 0 0 26 0;
#X connect 1 0 22 0;
#X connect 1 0 29 0;
#X connect 2 0 3 0;
#X connect 2 0 3 1;
#X connect 2 1 4 0;
#X connect 2 1 4 1;
#X connect 3 0 5 0;
#X connect 4 0 5 0;
#X connect 5 0 7 0;
#X connect 7 0 20 0;
#X connect 15 0 23 0;
#X connect 16 0 29 0;
#X connect 17 0 16 0;
#X connect 17 0 22 0;
#X connect 20 0 29 0;
#X connect 21 0 15 0;
#X connect 21 0 28 0;
#X connect 23 0 24 0;
#X connect 24 0 25 0;
#X connect 25 0 26 1;
#X connect 26 0 2 0;
#X connect 28 0 24 1;
#X restore -303 516 pd fft;
#X obj 67 172 bng 18 250 50 0 empty empty empty 0 -6 0 8 -262144 -1
-1;
#X obj 166 172 tgl 18 0 empty empty empty 0 -6 0 8 -262144 -1 -1 0
1;
#X text -434 -188 Instead of using the two cosines as FM carrier oscillators
\, we can use them as ring modulators for a natural or synthetic tone.
Here we use waveshaping - to wit \, a sinusoid looking up a Gaussian
bell curve. This has the nice properties that the partials are always
positive cosines in phase \, and the spectrum spreads out smoothly
as the index changes.;
#X text -353 -208 PAF: TWO-COSINE RING MODULATOR FOR WAVESHAPER;
#X text 23 -84 Then with ~* we do the ring modulation and we're done.
This is the PAF (phase-aligned formant) synthesis algorithm (patented
1993 by IRCAM).;
#X obj -227 283 *~ 0.5;
#X text 18 -208 For phase coherency \, the waveshaper and the cosine
pair are driven from the same phasor~ object. Since the waveshaping
is done using a symmetric curve \, its output is at double the frequency
of the input. So for each cycle of the phasor we compute a half-cycle
of the sine function (by multiplying by 0.5 and subtracting 0.25 before
the cosine lookup). We center the cosine output for lookup in a 200-point
table containing a bell curve.;
#X obj -472 158 stripnote;
#X obj -49 648 bng 15 250 50 0 empty empty empty 17 7 0 10 -262144
-1 -1;
#X obj -32 713 *~;
#X obj -26 749 *~;
#X obj -7 689 / 100;
#X obj -5 728 line;
#X floatatom 40 706 5 0 0 0 - - -;
#X text 78 705 time offset to adjust volume to velocity;
#N canvas 0 22 450 300 eald~ 0;
#X msg 394 133 bang;
#X floatatom 504 74 5 0 0 0 - - -;
#X floatatom 555 73 5 0 0 0 - - -;
#X floatatom 605 73 5 0 0 0 - - -;
#X text 471 25 "ALD" enveloppe;
#X obj 504 49 inlet;
#X obj 555 48 inlet;
#X obj 605 48 inlet;
#X obj 408 52 inlet;
#X obj 379 432 outlet~;
#X text 633 133 ENVELOPE SECTION;
#X obj 379 346 vline~;
#X msg 352 245 1;
#X obj 352 265 pack f f;
#X obj 352 286 unpack f f;
#X msg 456 246 0;
#X obj 456 267 pack f f f;
#X obj 456 288 unpack f f f;
#X obj 456 225 delay 5;
#X text 102 283 Attack : sends a 1 to get to in A msec;
#X text 529 224 wait the end of the attack;
#X text 538 254 Length+Decay : 0 to get to in D msec \, after L msec
;
#X text 493 74 A;
#X text 544 74 L;
#X text 594 74 D;
#X connect 0 0 12 0;
#X connect 0 0 18 0;
#X connect 1 0 13 1;
#X connect 1 0 18 1;
#X connect 2 0 16 2;
#X connect 3 0 16 1;
#X connect 5 0 1 0;
#X connect 6 0 2 0;
#X connect 7 0 3 0;
#X connect 8 0 0 0;
#X connect 11 0 9 0;
#X connect 12 0 13 0;
#X connect 13 0 14 0;
#X connect 14 0 11 0;
#X connect 14 1 11 1;
#X connect 15 0 16 0;
#X connect 16 0 17 0;
#X connect 17 0 11 0;
#X connect 17 1 11 1;
#X connect 17 2 11 2;
#X connect 18 0 15 0;
#X restore -45 669 pd eald~;
#X obj 83 668 loadbang;
#X msg 83 689 50;
#X obj -6 709 + 0.05;
#X obj -476 183 mtof;
#X obj -19 774 outlet~;
#X obj -472 126 inlet;
#X obj -417 126 inlet;
#X obj -241 84 inlet;
#X obj -186 84 inlet;
#X obj 109 574 inlet;
#X obj 164 574 inlet;
#X obj 210 576 inlet;
#X text 89 172 graph once;
#X text 187 171 repeatedly;
#X connect 0 0 6 1;
#X connect 0 0 8 0;
#X connect 1 0 5 0;
#X connect 1 0 0 0;
#X connect 2 0 6 0;
#X connect 3 0 4 1;
#X connect 3 0 7 1;
#X connect 4 0 1 1;
#X connect 5 0 2 0;
#X connect 6 0 7 0;
#X connect 7 0 8 1;
#X connect 8 0 31 0;
#X connect 9 0 4 0;
#X connect 9 0 3 0;
#X connect 10 0 11 0;
#X connect 11 0 15 0;
#X connect 13 0 9 0;
#X connect 15 0 13 0;
#X connect 16 0 9 1;
#X connect 16 0 5 1;
#X connect 16 0 1 0;
#X connect 16 0 49 0;
#X connect 17 0 16 0;
#X connect 21 0 24 0;
#X connect 22 0 23 1;
#X connect 23 0 29 0;
#X connect 24 0 22 0;
#X connect 27 0 23 0;
#X connect 28 0 27 0;
#X connect 29 0 30 0;
#X connect 30 0 31 1;
#X connect 31 0 42 0;
#X connect 31 0 43 0;
#X connect 42 0 53 0;
#X connect 44 0 43 1;
#X connect 45 0 43 2;
#X connect 49 0 28 0;
#X connect 51 0 52 0;
#X connect 51 0 63 0;
#X connect 51 1 55 0;
#X connect 52 0 59 0;
#X connect 52 0 61 0;
#X connect 53 0 54 0;
#X connect 54 0 64 0;
#X connect 55 0 62 0;
#X connect 56 0 54 1;
#X connect 57 0 56 1;
#X connect 59 0 53 1;
#X connect 60 0 61 0;
#X connect 61 0 57 0;
#X connect 62 0 56 0;
#X connect 63 0 17 0;
#X connect 65 0 51 0;
#X connect 66 0 51 1;
#X connect 67 0 10 0;
#X connect 68 0 21 0;
#X connect 69 0 59 1;
#X connect 70 0 59 2;
#X connect 71 0 59 3;
#X coords 0 1 100 -1 290 200 1 0 0;
#X restore -22 318 graph;
#X obj 231 230 knob 25 25 0 127 0 0 empty empty empty 0 -8 32 8 -1
-260097 -260097 0 1;
#X obj 189 230 knob 25 25 0 127 0 0 empty empty empty 0 -8 32 8 -1
-260097 -260097 0 1;
#X obj 148 230 knob 25 25 0 127 0 0 empty empty empty 0 -8 32 8 -1
-260097 -260097 0 1;
#X obj 105 231 knob 25 25 0 127 0 0 empty empty empty 0 -8 32 8 -1
-260097 -260097 0 1;
#X obj 61 231 knob 25 25 0 127 0 0 empty empty empty 0 -8 32 8 -1 -260097
-260097 0 1;
#X obj 189 159 ctlin 7;
#X obj 146 137 ctlin 6;
#X obj 105 117 ctlin 2;
#X obj 61 95 ctlin 1;
#N canvas 0 22 450 300 (subpatch) 0;
#X obj 59 155 inlet;
#X obj 3 89 inlet~;
#X obj 58 182 change;
#X msg 60 246 set \$1;
#X obj 60 227 tosymbol;
#X obj 59 204 sprintf Bus%d;
#X obj 3 282 throw~ Bus0;
#X obj 2 3 popup 124 25 #ffffff popup Bus0 Bus1 Bus2 Bus3 Bus4 Bus5
;
#X obj 1 32 route bang;
#X obj 154 202 *~;
#X obj 141 7 tgl 15 0 empty empty Dac 19 7 0 10 -262144 -1 -1 0 1;
#X obj 155 238 dac~;
#X obj 5 -62 loadbang;
#X text 63 -64 Bus0 mutes;
#X msg 5 -44 options Bus0 Bus1 Bus2 Bus3 Bus4 Bus5 Bus6 Bus7 Bus8 Bus9
Bus10 Bus11 Bus12 Bus13 Bus14 Bus15 Bus16;
#X connect 0 0 2 0;
#X connect 1 0 6 0;
#X connect 1 0 9 0;
#X connect 2 0 5 0;
#X connect 3 0 6 0;
#X connect 4 0 3 0;
#X connect 5 0 4 0;
#X connect 7 0 8 0;
#X connect 8 1 2 0;
#X connect 9 0 11 0;
#X connect 9 0 11 1;
#X connect 10 0 9 1;
#X connect 12 0 14 0;
#X connect 14 0 7 0;
#X coords 0 1 100 -1 180 30 1 0 0;
#X restore -22 518 graph;
#N canvas 0 22 450 300 (subpatch) 0;
#X obj -30 22 spigot;
#X obj 2 3 tgl 15 0 empty empty empty 17 7 0 10 -262144 -1 -1 0 1;
#X obj -58 0 inlet;
#X obj -54 54 outlet;
#X connect 0 0 3 0;
#X connect 1 0 0 1;
#X connect 2 0 0 0;
#X coords 0 1 100 -1 20 20 1 0 0;
#X restore 231 207 graph;
#N canvas 0 22 450 300 (subpatch) 0;
#X obj -30 22 spigot;
#X obj 2 3 tgl 15 0 empty empty empty 17 7 0 10 -262144 -1 -1 0 1;
#X obj -58 0 inlet;
#X obj -54 54 outlet;
#X connect 0 0 3 0;
#X connect 1 0 0 1;
#X connect 2 0 0 0;
#X coords 0 1 100 -1 20 20 1 0 0;
#X restore 189 207 graph;
#N canvas 0 22 450 300 (subpatch) 0;
#X obj -30 22 spigot;
#X obj 2 3 tgl 15 0 empty empty empty 17 7 0 10 -262144 -1 -1 0 1;
#X obj -58 0 inlet;
#X obj -54 54 outlet;
#X connect 0 0 3 0;
#X connect 1 0 0 1;
#X connect 2 0 0 0;
#X coords 0 1 100 -1 20 20 1 0 0;
#X restore 148 207 graph;
#N canvas 0 22 450 300 (subpatch) 0;
#X obj -30 22 spigot;
#X obj 2 3 tgl 15 0 empty empty empty 17 7 0 10 -262144 -1 -1 0 1;
#X obj -58 0 inlet;
#X obj -54 54 outlet;
#X connect 0 0 3 0;
#X connect 1 0 0 1;
#X connect 2 0 0 0;
#X coords 0 1 100 -1 20 20 1 0 0;
#X restore 105 208 graph;
#N canvas 0 22 450 300 (subpatch) 0;
#X obj -30 22 spigot;
#X obj 2 3 tgl 15 0 empty empty empty 17 7 0 10 -262144 -1 -1 0 1;
#X obj -58 0 inlet;
#X obj -54 54 outlet;
#X connect 0 0 3 0;
#X connect 1 0 0 1;
#X connect 2 0 0 0;
#X coords 0 1 100 -1 20 20 1 0 0;
#X restore 61 208 graph;
#N canvas 0 22 450 300 (subpatch) 0;
#X obj -30 22 spigot;
#X obj 2 3 tgl 15 0 empty empty empty 17 7 0 10 -262144 -1 -1 0 1;
#X obj -58 0 inlet;
#X obj -54 54 outlet;
#X connect 0 0 3 0;
#X connect 1 0 0 1;
#X connect 2 0 0 0;
#X coords 0 1 100 -1 20 20 1 0 0;
#X restore 17 208 graph;
#N canvas 0 22 450 300 (subpatch) 0;
#X obj -30 22 spigot;
#X obj 2 3 tgl 15 0 empty empty empty 17 7 0 10 -262144 -1 -1 0 1;
#X obj -58 0 inlet;
#X obj -54 54 outlet;
#X connect 0 0 3 0;
#X connect 1 0 0 1;
#X connect 2 0 0 0;
#X coords 0 1 100 -1 20 20 1 0 0;
#X restore -22 207 graph;
#N canvas 0 22 450 300 (subpatch) 0;
#X obj -30 22 spigot;
#X obj 2 3 tgl 15 0 empty empty empty 17 7 0 10 -262144 -1 -1 0 1;
#X obj -58 0 inlet;
#X obj -54 54 outlet;
#X connect 0 0 3 0;
#X connect 1 0 0 1;
#X connect 2 0 0 0;
#X coords 0 1 100 -1 20 20 1 0 0;
#X restore -83 279 graph;
#N canvas 0 22 450 300 (subpatch) 0;
#X obj -30 22 spigot;
#X obj 2 3 tgl 15 0 empty empty empty 17 7 0 10 -262144 -1 -1 0 1;
#X obj -58 0 inlet;
#X obj -54 54 outlet;
#X connect 0 0 3 0;
#X connect 1 0 0 1;
#X connect 2 0 0 0;
#X coords 0 1 100 -1 20 20 1 0 0;
#X restore -103 279 graph;
#X connect 0 0 6 0;
#X connect 1 0 5 0;
#X connect 2 0 8 0;
#X connect 3 0 26 5;
#X connect 4 0 26 6;
#X connect 5 0 3 0;
#X connect 6 0 7 0;
#X connect 7 0 26 4;
#X connect 8 0 4 0;
#X connect 9 0 11 0;
#X connect 10 0 12 0;
#X connect 11 0 15 0;
#X connect 12 0 16 0;
#X connect 13 0 43 0;
#X connect 14 0 42 0;
#X connect 15 0 26 2;
#X connect 16 0 26 3;
#X connect 17 0 37 0;
#X connect 23 0 45 0;
#X connect 23 1 44 0;
#X connect 24 0 26 0;
#X connect 25 0 26 1;
#X connect 26 0 36 0;
#X connect 27 0 2 0;
#X connect 28 0 1 0;
#X connect 29 0 0 0;
#X connect 30 0 10 0;
#X connect 31 0 9 0;
#X connect 32 0 38 0;
#X connect 33 0 39 0;
#X connect 34 0 40 0;
#X connect 35 0 41 0;
#X connect 37 0 27 0;
#X connect 38 0 28 0;
#X connect 39 0 29 0;
#X connect 40 0 30 0;
#X connect 41 0 31 0;
#X connect 42 0 25 0;
#X connect 43 0 24 0;
#X connect 44 0 25 0;
#X connect 45 0 24 0;
