#N canvas 0 22 840 652 10;
#X declare -path z_polyshaper_abs;
#N canvas 0 22 1024 705 shapersynth 0;
#X obj 100 100 cnv 15 350 165 empty empty empty 20 12 0 14 -233017
-66577 0;
#X obj 194 150 vsl 15 100 4 4000 0 1 empty \$0-D-r D 5 28 0 10 -262144
-258699 -1 5500 1;
#X obj 155 150 vsl 15 100 0 1 0 1 empty \$0-vb-r vb 3 28 0 10 -262144
-258699 -1 2357 1;
#X obj 179 150 vsl 15 100 0 400 0 1 empty \$0-A-r A 5 28 0 10 -262144
-258699 -1 5971 1;
#X obj 194 383 t b;
#X obj 156 124 hradio 17 1 1 16 empty \$0-oscsel-r oscillator 40 6
0 10 -1 -258699 -262144 1;
#X obj 247 150 vsl 15 100 0 1 0 1 empty \$0-mx1-r 1 5 28 0 10 -262144
-258699 -1 6286 1;
#X obj 236 384 t b;
#X obj 262 150 vsl 15 100 0 1 0 1 empty \$0-mx2-r 2 5 28 0 10 -262144
-258699 -1 7071 1;
#X obj 277 150 vsl 15 100 0 1 0 1 empty \$0-mx3-r 3 5 28 0 10 -262144
-258699 -1 6600 1;
#X obj 292 150 vsl 15 100 0 1 0 1 empty \$0-mx4-r 4 5 28 0 10 -262144
-258699 -1 5814 1;
#X obj 295 481 pack f f f f;
#X obj 294 505 s \$0-mixparms;
#X obj 391 506 s \$0-softclipamt;
#X obj 314 150 vsl 15 100 0 1 0 1 empty \$0-frm1-r W 5 28 0 10 -262144
-258699 -1 7386 1;
#X obj 266 531 t b;
#X obj 329 150 vsl 15 100 0 1 0 1 empty \$0-frm2-r X 5 28 0 10 -262144
-258699 -1 6914 1;
#X obj 344 150 vsl 15 100 0 1 0 1 empty \$0-frm3-r Y 5 28 0 10 -262144
-258699 -1 5657 1;
#X obj 359 150 vsl 15 100 0 1 0 1 empty \$0-frm4-r Z 5 28 0 10 -262144
-258699 -1 5343 1;
#X obj 374 150 vsl 15 100 0 1 0 1 empty \$0-frmx-r M 5 28 0 10 -262144
-258699 -1 5814 1;
#X obj 260 554 pack f f f f f;
#X obj 260 577 s \$0-formantprms;
#X obj 380 578 s \$0-c3sel;
#X obj 466 578 s \$0-c5sel;
#X obj 382 601 s \$0-c4sel;
#X obj 468 601 s \$0-c6sel;
#X obj 414 148 tgl 10 0 empty \$0-cheb1-r empty 0 -6 0 8 -262144 -258699
-1 1 1;
#X obj 380 553 sel 0 1;
#X obj 414 161 tgl 10 0 empty \$0-cheb2-r empty 0 -6 1 8 -262144 -258699
-1 0 1;
#X obj 434 553 sel 0 1;
#X obj 156 578 s \$0-envs;
#X obj 39 555 s \$0-oscilselect;
#X obj 389 150 vsl 15 100 0 1 0 1 empty \$0-clp-r C 5 28 0 10 -262144
-258699 -1 4871 1;
#X obj 224 150 vsl 15 100 4 4000 0 1 empty \$0-R-r R 5 28 0 10 -262144
-258699 -1 2671 1;
#X obj 209 150 vsl 15 100 0 100 0 1 empty \$0-S-r S 5 28 0 10 -262144
-258699 -1 5657 1;
#X obj 156 555 pack f f f f f;
#X obj 109 231 bng 20 250 50 0 empty empty store 0 -6 0 10 -258699
-1 -1;
#X obj 393 460 s \$0-chebs1;
#X obj 393 481 s \$0-chebs2;
#X obj 108 148 nbx 3 15 0 7 0 1 empty empty patch 0 -6 0 10 -33289
-262144 -1 3 256;
#X obj 136 490 s \$0-presetnum;
#X obj 157 441 s \$0-presetload;
#X obj -6 473 s \$0-presetstore;
#N canvas 33 112 630 347 store 0;
#N canvas 108 141 1091 385 preset 0;
#X obj 236 25 r \$0-oscilselect;
#X obj 24 21 inlet store;
#X obj 361 24 r \$0-envs;
#X obj 361 48 unpack f f f f f;
#X obj 482 25 r \$0-formantprms;
#X obj 482 48 unpack f f f f f;
#X obj 629 25 r \$0-mixparms;
#X obj 623 53 unpack f f f f;
#X obj 729 23 r \$0-softclipamt;
#X obj 849 23 r \$0-chebs1;
#X obj 936 23 r \$0-chebs2;
#X obj 332 131 outlet;
#X obj 332 103 pack f f f f f f f f f f f f f f f f f f f;
#X connect 0 0 12 1;
#X connect 1 0 12 0;
#X connect 2 0 3 0;
#X connect 3 0 12 2;
#X connect 3 1 12 3;
#X connect 3 2 12 4;
#X connect 3 3 12 5;
#X connect 3 4 12 6;
#X connect 4 0 5 0;
#X connect 5 0 12 7;
#X connect 5 1 12 8;
#X connect 5 2 12 9;
#X connect 5 3 12 10;
#X connect 5 4 12 11;
#X connect 6 0 7 0;
#X connect 7 0 12 12;
#X connect 7 1 12 13;
#X connect 7 2 12 14;
#X connect 7 3 12 15;
#X connect 8 0 12 16;
#X connect 9 0 12 17;
#X connect 10 0 12 18;
#X connect 12 0 11 0;
#X restore 37 -68 pd preset store;
#N canvas 367 356 657 412 preset 0;
#X obj 115 45 inlet;
#X obj -1 176 s \$0-oscsel-r;
#X obj 96 176 s \$0-vb-r;
#X obj 166 176 s \$0-A-r;
#X obj 230 175 s \$0-D-r;
#X obj 291 175 s \$0-S-r;
#X obj 353 174 s \$0-R-r;
#X obj 331 220 s \$0-mx1-r;
#X obj 333 242 s \$0-mx2-r;
#X obj 334 266 s \$0-mx3-r;
#X obj 336 288 s \$0-mx4-r;
#X obj 458 225 s \$0-frm1-r;
#X obj 458 245 s \$0-frm2-r;
#X obj 458 265 s \$0-frm3-r;
#X obj 458 285 s \$0-frm4-r;
#X obj 458 305 s \$0-frmx-r;
#X obj 367 112 s \$0-clp-r;
#X obj 456 181 s \$0-cheb1-r;
#X obj 457 200 s \$0-cheb2-r;
#X obj 67 292 s \$0-patchname;
#X obj 68 228 loadbang;
#X msg 68 249 shaper synth;
#X obj 68 270 tosymbol;
#X obj 115 74 unpack f f f f f f f f f f f f f f f f f f s;
#X connect 0 0 23 0;
#X connect 20 0 21 0;
#X connect 21 0 22 0;
#X connect 22 0 19 0;
#X connect 23 0 1 0;
#X connect 23 1 2 0;
#X connect 23 2 3 0;
#X connect 23 3 4 0;
#X connect 23 4 5 0;
#X connect 23 5 6 0;
#X connect 23 6 11 0;
#X connect 23 7 12 0;
#X connect 23 8 13 0;
#X connect 23 9 14 0;
#X connect 23 10 15 0;
#X connect 23 11 7 0;
#X connect 23 12 8 0;
#X connect 23 13 9 0;
#X connect 23 14 10 0;
#X connect 23 15 16 0;
#X connect 23 16 17 0;
#X connect 23 17 18 0;
#X connect 23 18 19 0;
#X restore 153 94 pd preset gui load;
#N canvas 0 22 443 220 pgrmpatch 0;
#X obj 96 -39 inlet store list;
#X obj 18 -39 inlet bang;
#X obj 17 101 outlet;
#X msg 9 16 set \$1 \$2 \$3 \$4 \$5 \$6 \$7 \$8 \$9 \$10 \$11 \$12
\$13 \$14 \$15 \$16 \$17 \$18;
#X msg 18 52 7 0 0 130.857 4.7619 67.4286 0.936508 0.396825 0.571429
0.825397 0.396825 0 0 0.555556 0.365079 0.761905 1 0 glitch-acid;
#X connect 0 0 3 0;
#X connect 1 0 4 0;
#X connect 3 0 4 0;
#X connect 4 0 2 0;
#X restore 8 26 pd pgrmpatch;
#N canvas 0 22 443 220 pgrmpatch 0;
#X obj 96 -39 inlet store list;
#X obj 18 -39 inlet bang;
#X obj 17 100 outlet;
#X msg 9 16 set \$1 \$2 \$3 \$4 \$5 \$6 \$7 \$8 \$9 \$10 \$11 \$12
\$13 \$14 \$15 \$16 \$17 \$18;
#X msg 18 52 3 0 19.0476 765.143 44.4444 130.857 0.428571 0.349206
0.52381 0.31746 0 0.15873 0.253968 0.301587 0.666667 0.349206 0 0 resbas
;
#X connect 0 0 3 0;
#X connect 1 0 4 0;
#X connect 3 0 4 0;
#X connect 4 0 2 0;
#X restore 97 26 pd pgrmpatch;
#N canvas 0 22 443 220 pgrmpatch 0;
#X obj 96 -39 inlet store list;
#X obj 18 -39 inlet bang;
#X obj 18 77 outlet;
#X msg 9 16 set \$1 \$2 \$3 \$4 \$5 \$6 \$7 \$8 \$9 \$10 \$11 \$12
\$13 \$14 \$15 \$16 \$17 \$18;
#X msg 18 52 5 0 0 257.714 3.1746 1336 0.68254 0.269841 0.47619 0.698413
0.460317 0.396825 0.285714 0.412698 0.47619 0.492063 1 1 eighties;
#X connect 0 0 3 0;
#X connect 1 0 4 0;
#X connect 3 0 4 0;
#X connect 4 0 2 0;
#X restore 186 25 pd pgrmpatch;
#N canvas 0 22 443 220 pgrmpatch 0;
#X obj 96 -39 inlet store list;
#X obj 18 -39 inlet bang;
#X obj 18 77 outlet;
#X msg 9 16 set \$1 \$2 \$3 \$4 \$5 \$6 \$7 \$8 \$9 \$10 \$11 \$12
\$13 \$14 \$15 \$16 \$17 \$18;
#X msg 17 52 1 0.238095 241.27 2224 57.1429 1082.29 0.746032 0.698413
0.571429 0.539683 0.587302 0.634921 0.714286 0.666667 0.587302 0.492063
1 0 warbler;
#X connect 0 0 3 0;
#X connect 1 0 4 0;
#X connect 3 0 4 0;
#X connect 4 0 2 0;
#X restore 275 25 pd pgrmpatch;
#X obj 37 -92 f;
#X obj 37 -39 route 0 1 2 3 4 5 6 7;
#X obj 203 -41 sel 0 1 2 3 4 5 6 7;
#X obj 203 -95 f;
#X obj 108 -153 t f f;
#X obj 108 -177 r \$0-presetnum;
#X obj 203 -119 r \$0-presetload;
#X obj 37 -115 r \$0-presetstore;
#N canvas 0 22 443 220 pgrmpatch 0;
#X obj 96 -39 inlet store list;
#X obj 18 -39 inlet bang;
#X obj 17 101 outlet;
#X msg 9 16 set \$1 \$2 \$3 \$4 \$5 \$6 \$7 \$8 \$9 \$10 \$11 \$12
\$13 \$14 \$15 \$16 \$17 \$18;
#X msg 18 52 7 0.111111 0 1462.86 84.127 4 0.380952 0.507937 0.650794
0.746032 0.857143 0.349206 0.539683 0 0 0.31746 0 0 organ;
#X connect 0 0 3 0;
#X connect 1 0 4 0;
#X connect 3 0 4 0;
#X connect 4 0 2 0;
#X restore 8 56 pd pgrmpatch;
#N canvas 0 22 443 220 pgrmpatch 0;
#X obj 96 -39 inlet store list;
#X obj 18 -39 inlet bang;
#X obj 17 100 outlet;
#X msg 9 16 set \$1 \$2 \$3 \$4 \$5 \$6 \$7 \$8 \$9 \$10 \$11 \$12
\$13 \$14 \$15 \$16 \$17 \$18;
#X msg 18 52 1 0.111111 12.6984 1209.14 7.93651 130.857 0.555556 0.31746
0.0634921 0.825397 0.396825 0.746032 0.428571 0.555556 0.619048 0.571429
0 0 ebass;
#X connect 0 0 3 0;
#X connect 1 0 4 0;
#X connect 3 0 4 0;
#X connect 4 0 2 0;
#X restore 97 56 pd pgrmpatch;
#N canvas 0 22 443 220 pgrmpatch 0;
#X obj 96 -39 inlet store list;
#X obj 18 -39 inlet bang;
#X obj 18 77 outlet;
#X msg 9 16 set \$1 \$2 \$3 \$4 \$5 \$6 \$7 \$8 \$9 \$10 \$11 \$12
\$13 \$14 \$15 \$16 \$17 \$18;
#X msg 18 52 2 0.111111 6.34921 448 11.1111 1526.29 0.349206 0.539683
0.650794 0.126984 0.396825 0.714286 0.428571 0.603175 0.666667 0.619048
1 1 bellbass;
#X connect 0 0 3 0;
#X connect 1 0 4 0;
#X connect 3 0 4 0;
#X connect 4 0 2 0;
#X restore 186 55 pd pgrmpatch;
#N canvas 0 22 443 220 pgrmpatch 0;
#X obj 96 -39 inlet store list;
#X obj 18 -39 inlet bang;
#X obj 18 77 outlet;
#X msg 9 16 set \$1 \$2 \$3 \$4 \$5 \$6 \$7 \$8 \$9 \$10 \$11 \$12
\$13 \$14 \$15 \$16 \$17 \$18;
#X msg 18 52 9 0.190476 133.333 1843.43 33.3333 4 1 0.968254 0.968254
0.777778 0.126984 0 0 0.777778 0.84127 0.619048 1 1 saxy;
#X connect 0 0 3 0;
#X connect 1 0 4 0;
#X connect 3 0 4 0;
#X connect 4 0 2 0;
#X restore 275 55 pd pgrmpatch;
#X text 241 -93 <--- currently selected patch in floats;
#X text 352 -42 <--- either route to save inlets;
#X text 352 -23 <--- or bang restore inlets;
#X text 293 95 <--- send GUI restore to sliders and buttons;
#X connect 0 0 7 0;
#X connect 2 0 1 0;
#X connect 3 0 1 0;
#X connect 4 0 1 0;
#X connect 5 0 1 0;
#X connect 6 0 0 0;
#X connect 7 0 2 1;
#X connect 7 1 3 1;
#X connect 7 2 4 1;
#X connect 7 3 5 1;
#X connect 7 4 14 1;
#X connect 7 5 15 1;
#X connect 7 6 16 1;
#X connect 7 7 17 1;
#X connect 8 0 2 0;
#X connect 8 1 3 0;
#X connect 8 2 4 0;
#X connect 8 3 5 0;
#X connect 8 4 14 0;
#X connect 8 5 15 0;
#X connect 8 6 16 0;
#X connect 8 7 17 0;
#X connect 9 0 8 0;
#X connect 10 0 6 1;
#X connect 10 1 9 1;
#X connect 11 0 10 0;
#X connect 12 0 9 0;
#X connect 13 0 6 0;
#X connect 14 0 1 0;
#X connect 15 0 1 0;
#X connect 16 0 1 0;
#X connect 17 0 1 0;
#X restore 886 200 pd store and recall;
#N canvas 0 22 1009 720 guts 0;
#X obj -167 65 sig~;
#X obj -214 163 *~;
#X obj -165 -293 t f f;
#X obj -167 44 mtof;
#X obj -213 -21 sqrt~;
#X obj -231 278 *~;
#X obj -230 31 *~;
#X obj -166 87 +~;
#X obj -128 43 osc~ 8;
#X obj -129 1 *~ 8;
#X obj -128 23 +~ 0.5;
#X obj -129 -21 vline~;
#X obj -212 -256 t f b b;
#X obj -128 65 *~;
#X obj -95 1 *~ 5;
#X obj -72 -21 / 2;
#X obj -102 -73 t f f;
#X obj -102 -95 * 8;
#X msg -129 -45 0 \, 1 \$1;
#X obj -129 -101 f;
#N canvas 0 22 682 329 ssumtabosc 0;
#X obj 198 288 s \$0-t0;
#N canvas 0 22 450 300 (subpatch) 0;
#X array \$0-t0 259 float 3;
#A 0 -0.0418197 0 0.0418197 0.0835638 0.125157 0.166524 0.207591 0.248283
0.288528 0.328253 0.367387 0.405862 0.443608 0.480559 0.51665 0.551819
0.586004 0.619146 0.651191 0.682082 0.711769 0.740202 0.767337 0.793128
0.817537 0.840525 0.862059 0.882107 0.900641 0.917638 0.933074 0.946934
0.959201 0.969865 0.978919 0.986358 0.992181 0.996391 0.998994 1 0.999421
0.997274 0.993577 0.988355 0.981631 0.973436 0.963801 0.952761 0.940354
0.926619 0.911601 0.895344 0.877897 0.85931 0.839634 0.818925 0.797239
0.774634 0.75117 0.726907 0.701908 0.676237 0.649959 0.623138 0.595841
0.568136 0.540088 0.511764 0.483234 0.454563 0.425818 0.397066 0.368373
0.339804 0.311423 0.283293 0.255476 0.228034 0.201024 0.174505 0.148531
0.123158 0.0984358 0.0744152 0.0511432 0.0286649 0.00702274 -0.0137432
-0.0335956 -0.0524999 -0.0704242 -0.0873396 -0.10322 -0.118043 -0.131788
-0.144438 -0.155979 -0.166402 -0.175698 -0.183862 -0.190895 -0.196797
-0.201573 -0.205233 -0.207787 -0.209249 -0.209637 -0.20897 -0.207273
-0.20457 -0.20089 -0.196265 -0.190729 -0.184317 -0.177068 -0.169023
-0.160225 -0.150719 -0.140552 -0.129772 -0.118431 -0.106579 -0.0942706
-0.0815594 -0.068501 -0.055152 -0.0415695 -0.0278113 -0.0139358 -1.50759e-06
0.0139328 0.0278083 0.0415665 0.0551491 0.0684982 0.0815566 0.0942679
0.106577 0.118428 0.12977 0.140549 0.150717 0.160223 0.169021 0.177066
0.184315 0.190727 0.196264 0.20089 0.204569 0.207272 0.20897 0.209637
0.209249 0.207787 0.205234 0.201574 0.196798 0.190896 0.183864 0.175699
0.166404 0.155982 0.14444 0.131791 0.118046 0.103223 0.0873431 0.0704279
0.0525038 0.0335998 0.0137476 -0.00701815 -0.0286601 -0.0511382 -0.0744101
-0.0984305 -0.123152 -0.148526 -0.174499 -0.201018 -0.228028 -0.255471
-0.283287 -0.311417 -0.339798 -0.368367 -0.39706 -0.425812 -0.454556
-0.483228 -0.511758 -0.540081 -0.56813 -0.595836 -0.623132 -0.649953
-0.676232 -0.701903 -0.726901 -0.751164 -0.774629 -0.797234 -0.818921
-0.83963 -0.859306 -0.877893 -0.895341 -0.911598 -0.926616 -0.940351
-0.952759 -0.963799 -0.973434 -0.98163 -0.988353 -0.993576 -0.997273
-0.999421 -1 -0.998995 -0.996392 -0.992182 -0.986359 -0.978921 -0.969867
-0.959203 -0.946936 -0.933077 -0.917641 -0.900645 -0.882111 -0.862064
-0.84053 -0.817542 -0.793134 -0.767342 -0.740208 -0.711775 -0.682088
-0.651197 -0.619153 -0.586011 -0.551826 -0.516658 -0.480567 -0.443616
-0.40587 -0.367396 -0.328261 -0.288536 -0.248292 -0.2076 -0.166533
-0.125166 -0.0835728 -0.0418287 -9.04557e-06 0.0418107;
#X coords 0 0 259 1 200 140 0;
#X restore 31 246 graph;
#X msg 199 267 sinesum 256 \$1 \$2 \$3 \$4 \$5 \$6 \$7 \$8;
#X obj 172 94 vsl 10 64 0 1 0 1 empty empty empty 0 -8 0 8 -262144
-258699 -1 2300 1;
#X obj 169 196 pack f f f f f f f f;
#X obj 175 173 t b;
#X obj 182 94 vsl 10 64 0 1 0 1 empty empty empty 0 -8 0 8 -262144
-258699 -1 1500 1;
#X obj 192 94 vsl 10 64 0 1 0 1 empty empty empty 0 -8 0 8 -262144
-258699 -1 2600 1;
#X obj 202 94 vsl 10 64 0 1 0 1 empty empty empty 0 -8 0 8 -262144
-258699 -1 4700 1;
#X obj 212 94 vsl 10 64 0 1 0 1 empty empty empty 0 -8 0 8 -262144
-258699 -1 5700 1;
#X obj 222 94 vsl 10 64 0 1 0 1 empty empty empty 0 -8 0 8 -262144
-258699 -1 6000 1;
#X obj 232 94 vsl 10 64 0 1 0 1 empty empty empty 0 -8 0 8 -262144
-258699 -1 6300 1;
#X obj 242 94 vsl 10 64 0 1 0 1 empty empty empty 0 -8 0 8 -262144
-258699 -1 6300 1;
#X msg 124 266 normalize;
#X obj 169 217 t b l;
#X obj 124 245 del 2;
#X obj -84 178 inlet~;
#X obj -85 269 outlet~;
#X obj 148 62 r \$0-oscillatorparts;
#X obj -84 246 tabread4~ \$0-t0;
#X obj -84 223 *~ 256;
#N canvas 0 22 701 555 oscil 0;
#X obj 205 26 s \$0-oscillatorparts;
#X msg 218 -315 1 0 0 0 0 0 0 0;
#X msg 222 -283 1 1 0 0 0 0 0 0;
#X msg 225 -254 1 0 1 0 0 0 0 0;
#X msg 234 -225 1 1 1 0 0 0 0 0;
#X msg 238 -199 1 0 0 1 0 0 0 0;
#X msg 245 -174 1 1 0 1 0 1 0 0;
#X msg 249 -143 1 1 1 1 1 0 0 0;
#X msg 253 -114 1 1 0 1 1 1 0 1;
#X msg 260 -90 1 1 1 1 1 1 0 0;
#X msg 270 -62 1 1 1 1 1 1 1 1;
#X msg 276 -35 0 1 0 1 0 1 0 1;
#X obj 235 -361 sel 0 1 2 3 4 5 6 7 8 9 10 11 12 13 14 15;
#X obj 235 -383 r \$0-oscilselect;
#X connect 1 0 0 0;
#X connect 2 0 0 0;
#X connect 3 0 0 0;
#X connect 4 0 0 0;
#X connect 5 0 0 0;
#X connect 6 0 0 0;
#X connect 7 0 0 0;
#X connect 8 0 0 0;
#X connect 9 0 0 0;
#X connect 10 0 0 0;
#X connect 11 0 0 0;
#X connect 12 0 1 0;
#X connect 12 1 2 0;
#X connect 12 2 3 0;
#X connect 12 3 4 0;
#X connect 12 4 5 0;
#X connect 12 5 6 0;
#X connect 12 6 7 0;
#X connect 12 7 8 0;
#X connect 12 8 9 0;
#X connect 12 9 10 0;
#X connect 12 10 11 0;
#X connect 13 0 12 0;
#X restore 323 131 pd oscil slect map;
#X text 56 6 Additive source using sinesum to fill a table with sinusoid
components. The table is then normalised.;
#X connect 2 0 0 0;
#X connect 3 0 4 0;
#X connect 4 0 14 0;
#X connect 5 0 4 0;
#X connect 6 0 5 0;
#X connect 6 0 4 1;
#X connect 7 0 5 0;
#X connect 7 0 4 2;
#X connect 8 0 5 0;
#X connect 8 0 4 3;
#X connect 9 0 5 0;
#X connect 9 0 4 4;
#X connect 10 0 5 0;
#X connect 10 0 4 5;
#X connect 11 0 5 0;
#X connect 11 0 4 6;
#X connect 12 0 5 0;
#X connect 12 0 4 7;
#X connect 13 0 0 0;
#X connect 14 0 15 0;
#X connect 14 1 2 0;
#X connect 15 0 13 0;
#X connect 16 0 20 0;
#X connect 18 0 14 0;
#X connect 19 0 17 0;
#X connect 20 0 19 0;
#X coords 0 0 1 1 180 100 0;
#X restore -167 129 pd ssumtabosc;
#X obj -113 -125 / 2;
#X obj -113 -166 t f f;
#N canvas 0 22 926 640 mix4 0;
#X obj 40 289 inlet~;
#X obj 105 448 outlet~;
#X obj 143 321 unpack f f f f;
#X obj 90 288 inlet~;
#X obj 141 287 inlet~;
#X obj 191 286 inlet~;
#X obj 77 370 *~;
#X obj 104 370 *~;
#X obj 133 370 *~;
#X obj 160 370 *~;
#X obj 104 421 *~ 0.25;
#X obj 249 284 inlet mix parms;
#X connect 0 0 6 0;
#X connect 2 0 6 1;
#X connect 2 1 7 1;
#X connect 2 2 8 1;
#X connect 2 3 9 1;
#X connect 3 0 7 0;
#X connect 4 0 8 0;
#X connect 5 0 9 0;
#X connect 6 0 10 0;
#X connect 7 0 10 0;
#X connect 8 0 10 0;
#X connect 9 0 10 0;
#X connect 10 0 1 0;
#X connect 11 0 2 0;
#X coords 0 0 1 1 100 100 0;
#X restore -241 338 pd mix4;
#X obj -230 301 *~ 2;
#X obj -178 287 *~ 0.125;
#X obj -80 285 *~ 0.125;
#X obj -231 9 *~ 0.1;
#X obj -166 107 phasor~;
#X obj -292 215 cos~;
#X obj -220 -428 inlet notes vel;
#X obj -242 452 outlet~;
#X obj -291 275 *~ 0.25;
#N canvas 0 22 450 300 cheby46shp 0;
#N canvas 0 22 450 300 (subpatch) 0;
#X array \$0-c7 259 float 3;
#A 0 1.12746 1 0.877426 0.759644 0.646563 0.538094 0.434146 0.334633
0.239467 0.14856 0.0618258 -0.0208201 -0.099463 -0.174187 -0.245075
-0.31221 -0.375673 -0.435547 -0.491911 -0.544845 -0.594429 -0.640739
-0.683856 -0.723854 -0.76081 -0.7948 -0.825898 -0.854179 -0.879715
-0.90258 -0.922845 -0.940582 -0.95586 -0.96875 -0.979321 -0.98764 -0.993776
-0.997795 -0.999764 -0.999748 -0.997811 -0.994019 -0.988433 -0.981117
-0.972132 -0.96154 -0.949401 -0.935775 -0.920721 -0.904297 -0.88656
-0.867568 -0.847377 -0.826042 -0.803618 -0.780159 -0.755717 -0.730347
-0.704099 -0.677024 -0.649174 -0.620598 -0.591344 -0.561462 -0.530998
-0.5 -0.468513 -0.436584 -0.404256 -0.371574 -0.338582 -0.30532 -0.271832
-0.238159 -0.204341 -0.170417 -0.136427 -0.102409 -0.0684009 -0.0344386
-0.000558853 0.0332031 0.0668125 0.100235 0.133439 0.166389 0.199056
0.231408 0.263413 0.295044 0.32627 0.357064 0.387397 0.417244 0.446578
0.475373 0.503605 0.53125 0.558285 0.584687 0.610434 0.635506 0.659881
0.683541 0.706466 0.728638 0.750039 0.770653 0.790464 0.809456 0.827614
0.844925 0.861376 0.876953 0.891645 0.905442 0.918332 0.930305 0.941354
0.95147 0.960645 0.968872 0.976146 0.98246 0.987812 0.992195 0.995608
0.998047 0.999512 1 0.999512 0.998047 0.995608 0.992195 0.987812 0.98246
0.976146 0.968872 0.960645 0.95147 0.941354 0.930305 0.918332 0.905442
0.891645 0.876953 0.861376 0.844925 0.827614 0.809456 0.790464 0.770653
0.750039 0.728638 0.706466 0.683541 0.659881 0.635506 0.610434 0.584687
0.558285 0.53125 0.503605 0.475373 0.446578 0.417244 0.387397 0.357064
0.32627 0.295044 0.263413 0.231408 0.199056 0.166389 0.133439 0.100235
0.0668125 0.0332031 -0.000558853 -0.0344386 -0.0684009 -0.102409 -0.136427
-0.170417 -0.204341 -0.238159 -0.271832 -0.30532 -0.338582 -0.371574
-0.404256 -0.436584 -0.468513 -0.5 -0.530998 -0.561462 -0.591344 -0.620598
-0.649174 -0.677024 -0.704099 -0.730347 -0.755717 -0.780159 -0.803618
-0.826042 -0.847377 -0.867568 -0.88656 -0.904297 -0.920721 -0.935775
-0.949401 -0.96154 -0.972132 -0.981117 -0.988433 -0.994019 -0.997811
-0.999748 -0.999764 -0.997795 -0.993776 -0.98764 -0.979321 -0.96875
-0.95586 -0.940582 -0.922845 -0.90258 -0.879715 -0.854179 -0.825898
-0.7948 -0.76081 -0.723854 -0.683856 -0.640739 -0.594429 -0.544845
-0.491911 -0.435547 -0.375673 -0.31221 -0.245075 -0.174187 -0.099463
-0.0208201 0.0618258 0.14856 0.239467 0.334633 0.434146 0.538094 0.646563
0.759644 0.877426 1 1.12746;
#X coords 0 0 1 1 200 140 0;
#X restore 64 194 graph;
#X obj -48 156 *~ 128;
#X obj -49 175 +~ 128;
#N canvas 113 22 817 374 make-table 0;
#X obj 118 158 t b b;
#X obj 190 183 f;
#X obj 228 183 + 1;
#X msg 212 160 0;
#X obj 118 181 until;
#X obj 190 213 t f f;
#X obj 117 209 sel 258;
#X obj 118 139 bng 15 250 50 0 empty empty empty 0 -6 0 8 -262144 -1
-1;
#X obj 65 240 expr ($f1-129)/128;
#X obj 118 116 inlet;
#X obj 451 100 t b b;
#X obj 523 125 f;
#X obj 561 125 + 1;
#X msg 545 102 0;
#X obj 451 123 until;
#X obj 523 155 t f f;
#X obj 450 151 sel 258;
#X obj 451 81 bng 15 250 50 0 empty empty empty 0 -6 0 8 -262144 -1
-1;
#X obj 395 182 expr ($f1-129)/128;
#X obj 451 58 inlet;
#X obj 65 264 expr 8*$f1*$f1*$f1*$f1-8*$f1*$f1+1;
#X obj 395 206 expr 32*$f1*$f1*$f1*$f1*$f1*$f1 -48*$f1*$f1*$f1*$f1+18*$f1*$f1-1
;
#X text 588 246 6th C.P. and basta.;
#X text 278 284 4th C.P.;
#X text 135 22 This patch computes Chebychev polynomials and stores
them in a wavetable for use later.;
#X obj 91 290 tabwrite \$0-c7;
#X obj 424 248 tabwrite \$0-c7;
#X connect 0 0 4 0;
#X connect 0 1 3 0;
#X connect 1 0 2 0;
#X connect 1 0 5 0;
#X connect 1 0 6 0;
#X connect 2 0 1 1;
#X connect 3 0 1 1;
#X connect 4 0 1 0;
#X connect 5 0 8 0;
#X connect 5 1 25 1;
#X connect 6 0 4 1;
#X connect 7 0 0 0;
#X connect 8 0 20 0;
#X connect 9 0 7 0;
#X connect 10 0 14 0;
#X connect 10 1 13 0;
#X connect 11 0 12 0;
#X connect 11 0 15 0;
#X connect 11 0 16 0;
#X connect 12 0 11 1;
#X connect 13 0 11 1;
#X connect 14 0 11 0;
#X connect 15 0 18 0;
#X connect 15 1 26 1;
#X connect 16 0 14 1;
#X connect 17 0 10 0;
#X connect 18 0 21 0;
#X connect 19 0 17 0;
#X connect 20 0 25 0;
#X connect 21 0 26 0;
#X restore 106 194 pd make-table;
#X obj -48 131 inlet~;
#X obj -48 218 outlet~;
#X obj -48 194 tabread4~ \$0-c7;
#X obj 107 173 r \$0-c4sel;
#X obj 193 173 r \$0-c6sel;
#X connect 1 0 2 0;
#X connect 2 0 6 0;
#X connect 4 0 1 0;
#X connect 6 0 5 0;
#X connect 7 0 3 0;
#X connect 8 0 3 1;
#X coords 0 0 1 1 85 60 0;
#X restore -80 221 pd cheby46shp;
#N canvas 0 22 450 300 cheby35shp 0;
#N canvas 0 22 450 300 (subpatch) 0;
#X array \$0-c6 259 float 3;
#A 0 -1.20148 -1 -0.810724 -0.63326 -0.467216 -0.31221 -0.167866 -0.0338144
0.0903053 0.204849 0.310166 0.406597 0.494477 0.574137 0.645895 0.71007
0.766969 0.816895 0.860145 0.897008 0.927771 0.952708 0.972093 0.98619
0.995261 0.999557 0.999329 0.994816 0.986257 0.97388 0.957912 0.938572
0.916074 0.890625 0.86243 0.831684 0.798582 0.76331 0.726049 0.686977
0.646266 0.60408 0.560583 0.515931 0.470276 0.423765 0.37654 0.328738
0.280493 0.231934 0.183183 0.13436 0.0855808 0.0369554 -0.01141 -0.0594134
-0.106956 -0.153946 -0.200292 -0.245909 -0.290715 -0.334633 -0.377589
-0.419512 -0.460337 -0.5 -0.538443 -0.57561 -0.611449 -0.645912 -0.678953
-0.710532 -0.740609 -0.76915 -0.796122 -0.821497 -0.845248 -0.867354
-0.887794 -0.906551 -0.923612 -0.938965 -0.952601 -0.964516 -0.974704
-0.983167 -0.989906 -0.994925 -0.99823 -0.999832 -0.999741 -0.997972
-0.994539 -0.98946 -0.982757 -0.97445 -0.964564 -0.953125 -0.94016
-0.925699 -0.909772 -0.892414 -0.873658 -0.85354 -0.832098 -0.809372
-0.785401 -0.760228 -0.733895 -0.706446 -0.677928 -0.648387 -0.61787
-0.586426 -0.554105 -0.520957 -0.487033 -0.452386 -0.417069 -0.381135
-0.344638 -0.307632 -0.270174 -0.232319 -0.194122 -0.15564 -0.11693
-0.0780487 -0.039053 0 0.039053 0.0780487 0.11693 0.15564 0.194122
0.232319 0.270174 0.307632 0.344638 0.381135 0.417069 0.452386 0.487033
0.520957 0.554105 0.586426 0.61787 0.648387 0.677928 0.706446 0.733895
0.760228 0.785401 0.809372 0.832098 0.85354 0.873658 0.892414 0.909772
0.925699 0.94016 0.953125 0.964564 0.97445 0.982757 0.98946 0.994539
0.997972 0.999741 0.999832 0.99823 0.994925 0.989906 0.983167 0.974704
0.964516 0.952601 0.938965 0.923612 0.906551 0.887794 0.867354 0.845248
0.821497 0.796122 0.76915 0.740609 0.710532 0.678953 0.645912 0.611449
0.57561 0.538443 0.5 0.460337 0.419512 0.377589 0.334633 0.290715 0.245909
0.200292 0.153946 0.106956 0.0594134 0.01141 -0.0369554 -0.0855808
-0.13436 -0.183183 -0.231934 -0.280493 -0.328738 -0.37654 -0.423765
-0.470276 -0.515931 -0.560583 -0.60408 -0.646266 -0.686977 -0.726049
-0.76331 -0.798582 -0.831684 -0.86243 -0.890625 -0.916074 -0.938572
-0.957912 -0.97388 -0.986257 -0.994816 -0.999329 -0.999557 -0.995261
-0.98619 -0.972093 -0.952708 -0.927771 -0.897008 -0.860145 -0.816895
-0.766969 -0.71007 -0.645895 -0.574137 -0.494477 -0.406597 -0.310166
-0.204849 -0.0903053 0.0338144 0.167866 0.31221 0.467216 0.63326 0.810724
1 1.20148;
#X coords 0 0 1 1 200 140 0;
#X restore 64 194 graph;
#X obj -48 156 *~ 128;
#X obj -49 175 +~ 128;
#N canvas 113 22 849 700 make-table 0;
#X obj 141 304 t b b;
#X obj 213 329 f;
#X obj 251 329 + 1;
#X msg 235 306 0;
#X obj 141 327 until;
#X obj 213 359 t f f;
#X obj 140 355 sel 258;
#X obj 141 285 bng 15 250 50 0 empty empty empty 0 -6 0 8 -262144 -1
-1;
#X obj 88 386 expr ($f1-129)/128;
#X obj 141 262 inlet;
#X obj 444 228 t b b;
#X obj 516 253 f;
#X obj 554 253 + 1;
#X msg 538 230 0;
#X obj 444 251 until;
#X obj 516 283 t f f;
#X obj 443 279 sel 258;
#X obj 391 334 expr 16*$f1*$f1*$f1*$f1*$f1-20*$f1*$f1*$f1+5*$f1;
#X obj 444 209 bng 15 250 50 0 empty empty empty 0 -6 0 8 -262144 -1
-1;
#X obj 391 310 expr ($f1-129)/128;
#X obj 444 186 inlet;
#X obj 88 410 expr 4*$f1*$f1*$f1-3*$f1;
#X text 309 410 3rd C.P.;
#X text 613 357 5th C.P.;
#X text 118 151 This patch computes Chebychev polynomials and stores
them in a wavetable for use later.;
#X obj 114 436 tabwrite \$0-c6;
#X obj 417 360 tabwrite \$0-c6;
#X connect 0 0 4 0;
#X connect 0 1 3 0;
#X connect 1 0 2 0;
#X connect 1 0 5 0;
#X connect 1 0 6 0;
#X connect 2 0 1 1;
#X connect 3 0 1 1;
#X connect 4 0 1 0;
#X connect 5 0 8 0;
#X connect 5 1 25 1;
#X connect 6 0 4 1;
#X connect 7 0 0 0;
#X connect 8 0 21 0;
#X connect 9 0 7 0;
#X connect 10 0 14 0;
#X connect 10 1 13 0;
#X connect 11 0 12 0;
#X connect 11 0 15 0;
#X connect 11 0 16 0;
#X connect 12 0 11 1;
#X connect 13 0 11 1;
#X connect 14 0 11 0;
#X connect 15 0 19 0;
#X connect 15 1 26 1;
#X connect 16 0 14 1;
#X connect 17 0 26 0;
#X connect 18 0 10 0;
#X connect 19 0 17 0;
#X connect 20 0 18 0;
#X connect 21 0 25 0;
#X restore 106 194 pd make-table;
#X obj -48 131 inlet~;
#X obj -48 218 outlet~;
#X obj -48 194 tabread4~ \$0-c6;
#X obj 106 165 r \$0-c3sel;
#X obj 192 165 r \$0-c5sel;
#X connect 1 0 2 0;
#X connect 2 0 6 0;
#X connect 4 0 1 0;
#X connect 6 0 5 0;
#X connect 7 0 3 0;
#X connect 8 0 3 1;
#X coords 0 0 1 1 85 60 0;
#X restore -179 222 pd cheby35shp;
#X obj -291 242 *~;
#N canvas 0 22 603 470 cosclip 0;
#X obj 46 174 inlet~;
#X obj 45 241 +~ 128;
#X obj 45 268 tabread4~ \$0-sm1;
#X obj 44 317 outlet~;
#N canvas 0 22 450 300 (subpatch) 0;
#X array \$0-sm1 259 float 3;
#A 0 -0.0245412 0 0.0245412 0.0490676 0.0735645 0.0980171 0.122411
0.14673 0.170962 0.19509 0.219101 0.24298 0.266713 0.290284 0.313681
0.33689 0.359895 0.382683 0.405241 0.427555 0.449611 0.471396 0.492898
0.514102 0.534997 0.55557 0.575808 0.595699 0.615231 0.634393 0.653172
0.671558 0.68954 0.707106 0.724247 0.740951 0.757208 0.77301 0.788346
0.803207 0.817584 0.831469 0.844853 0.857728 0.870087 0.881921 0.893224
0.903989 0.914209 0.923879 0.932992 0.941544 0.949528 0.95694 0.963776
0.970031 0.975702 0.980785 0.985277 0.989176 0.992479 0.995185 0.99729
0.998795 0.999699 1 0.999699 0.998796 0.997291 0.995185 0.99248 0.989177
0.985278 0.980786 0.975702 0.970032 0.963776 0.956941 0.949529 0.941545
0.932993 0.92388 0.91421 0.90399 0.893225 0.881922 0.870088 0.85773
0.844855 0.831471 0.817586 0.803209 0.788348 0.773012 0.75721 0.740952
0.724248 0.707108 0.689542 0.67156 0.653174 0.634395 0.615233 0.595701
0.57581 0.555572 0.534999 0.514105 0.4929 0.471399 0.449613 0.427557
0.405243 0.382686 0.359897 0.336892 0.313684 0.290287 0.266715 0.242983
0.219104 0.195093 0.170964 0.146733 0.122413 0.0980197 0.0735671 0.0490703
0.0245439 2.65359e-06 -0.0245386 -0.049065 -0.0735619 -0.0980144 -0.122408
-0.146728 -0.170959 -0.195088 -0.219098 -0.242977 -0.26671 -0.290282
-0.313679 -0.336887 -0.359892 -0.382681 -0.405239 -0.427552 -0.449609
-0.471394 -0.492896 -0.5141 -0.534995 -0.555568 -0.575806 -0.595697
-0.615229 -0.634391 -0.65317 -0.671557 -0.689538 -0.707104 -0.724245
-0.740949 -0.757207 -0.773008 -0.788344 -0.803205 -0.817583 -0.831468
-0.844852 -0.857727 -0.870085 -0.88192 -0.893223 -0.903988 -0.914208
-0.923878 -0.932992 -0.941543 -0.949527 -0.956939 -0.963775 -0.97003
-0.975701 -0.980785 -0.985277 -0.989176 -0.992479 -0.995184 -0.99729
-0.998795 -0.999699 -1 -0.999699 -0.998796 -0.997291 -0.995185 -0.99248
-0.989177 -0.985278 -0.980786 -0.975703 -0.970032 -0.963777 -0.956942
-0.94953 -0.941545 -0.932994 -0.923881 -0.914212 -0.903991 -0.893226
-0.881923 -0.870089 -0.857731 -0.844856 -0.831472 -0.817587 -0.80321
-0.788349 -0.773013 -0.757212 -0.740954 -0.72425 -0.70711 -0.689544
-0.671562 -0.653176 -0.634397 -0.615235 -0.595703 -0.575812 -0.555574
-0.535002 -0.514107 -0.492902 -0.471401 -0.449616 -0.42756 -0.405246
-0.382688 -0.3599 -0.336895 -0.313687 -0.29029 -0.266718 -0.242985
-0.219106 -0.195095 -0.170967 -0.146736 -0.122416 -0.0980223 -0.0735698
-0.0490729 -0.0245465 -5.30718e-06 0.0245359;
#X coords 0 0 259 1 258 258 0;
#X restore 165 267 graph;
#X obj 165 245 s \$0-sm1;
#X msg 165 222 sinesum 256 1;
#X obj 165 200 loadbang;
#X obj 46 206 *~ 64;
#X obj 45 291 hip~ 10;
#X obj 111 158 * 256;
#X obj 111 182 + 64;
#X obj 111 66 inlet distort;
#X connect 0 0 8 0;
#X connect 1 0 2 0;
#X connect 2 0 9 0;
#X connect 6 0 5 0;
#X connect 7 0 6 0;
#X connect 8 0 1 0;
#X connect 9 0 3 0;
#X connect 10 0 11 0;
#X connect 11 0 8 1;
#X connect 12 0 10 0;
#X coords 0 0 1 1 85 60 0;
#X restore -240 366 pd cosclip;
#N canvas 0 22 926 640 bq-formant 0;
#X obj 47 425 biquad~;
#X obj 48 383 inlet~;
#X obj 47 584 outlet~;
#X obj 46 467 biquad~;
#X obj 92 401 highpass 49 100;
#X msg 124 371 bang;
#X obj 54 446 bandpass 400 33;
#X obj 94 489 biquad~;
#X obj 145 510 biquad~;
#X obj 193 532 biquad~;
#X obj 47 563 biquad~;
#X obj 53 542 lowpass 10000 70;
#X obj 104 468 bandpass 640 33;
#X obj 153 489 bandpass 770 33;
#X obj 203 511 bandpass 933 33;
#X obj 31 332 pack f 33;
#X obj 105 330 pack f 33;
#X obj 175 330 pack f 33;
#X obj 247 329 pack f 33;
#X obj 31 291 * 300;
#X obj 31 312 + 20;
#X obj 105 289 * 500;
#X obj 105 309 + 300;
#X obj 176 289 * 500;
#X obj 249 286 * 500;
#X obj 106 255 unpack f f f f f;
#X obj 10 498 *~;
#X obj 123 351 loadbang;
#X obj 106 232 inlet parms;
#X obj 175 309 + 600;
#X obj 249 306 + 900;
#X connect 0 0 3 0;
#X connect 0 0 7 0;
#X connect 0 0 8 0;
#X connect 0 0 9 0;
#X connect 1 0 0 0;
#X connect 3 0 10 0;
#X connect 3 0 26 0;
#X connect 4 0 0 0;
#X connect 5 0 4 0;
#X connect 5 0 6 0;
#X connect 5 0 11 0;
#X connect 5 0 12 0;
#X connect 5 0 13 0;
#X connect 5 0 14 0;
#X connect 6 0 3 0;
#X connect 7 0 10 0;
#X connect 8 0 10 0;
#X connect 9 0 10 0;
#X connect 10 0 2 0;
#X connect 11 0 10 0;
#X connect 12 0 7 0;
#X connect 13 0 8 0;
#X connect 14 0 9 0;
#X connect 15 0 6 0;
#X connect 16 0 12 0;
#X connect 17 0 13 0;
#X connect 18 0 14 0;
#X connect 19 0 20 0;
#X connect 20 0 15 0;
#X connect 21 0 22 0;
#X connect 22 0 16 0;
#X connect 23 0 29 0;
#X connect 24 0 30 0;
#X connect 25 0 19 0;
#X connect 25 1 21 0;
#X connect 25 2 23 0;
#X connect 25 3 24 0;
#X connect 25 4 26 1;
#X connect 26 0 2 0;
#X connect 27 0 5 0;
#X connect 28 0 25 0;
#X connect 29 0 17 0;
#X connect 30 0 18 0;
#X coords 0 0 1 1 100 100 0;
#X restore -241 397 pd bq-formant;
#X obj -292 193 *~ 2;
#X obj -219 -58 lop~ 200;
#X obj -148 316 r \$0-mixparms;
#X obj -175 344 r \$0-softclipamt;
#X obj -155 375 r \$0-formantprms;
#X obj -166 -208 r \$0-envs;
#X obj -163 -315 / 127;
#X obj -166 -187 unpack f f f f f;
#X obj -219 -82 adsr 1 2 3 4;
#X msg -190 -233 1;
#X msg -115 -318 0;
#X obj -163 -338 spigot;
#X obj -126 -360 > 0;
#X obj -221 -408 unpack f f;
#X obj -156 -382 t f f;
#X obj -115 -338 sel 0;
#X obj -212 -277 spigot;
#X text -234 415 ajf 2006;
#X obj -242 430 *~ 2;
#X connect 0 0 7 0;
#X connect 1 0 34 0;
#X connect 1 0 5 1;
#X connect 1 0 33 0;
#X connect 2 0 46 1;
#X connect 2 1 6 1;
#X connect 3 0 0 0;
#X connect 4 0 27 0;
#X connect 4 0 1 0;
#X connect 5 0 24 0;
#X connect 6 0 5 0;
#X connect 7 0 28 0;
#X connect 8 0 13 0;
#X connect 9 0 10 0;
#X connect 10 0 8 0;
#X connect 11 0 9 0;
#X connect 11 0 14 0;
#X connect 12 0 3 0;
#X connect 12 1 47 0;
#X connect 12 2 19 0;
#X connect 13 0 7 1;
#X connect 14 0 13 1;
#X connect 15 0 14 1;
#X connect 16 0 9 1;
#X connect 16 1 15 0;
#X connect 17 0 16 0;
#X connect 18 0 11 0;
#X connect 19 0 18 0;
#X connect 20 0 1 1;
#X connect 21 0 19 1;
#X connect 22 0 21 0;
#X connect 22 1 46 3;
#X connect 23 0 36 0;
#X connect 24 0 23 1;
#X connect 25 0 23 2;
#X connect 26 0 23 3;
#X connect 27 0 6 0;
#X connect 28 0 20 0;
#X connect 28 0 38 0;
#X connect 29 0 35 0;
#X connect 30 0 51 0;
#X connect 32 0 23 0;
#X connect 33 0 26 0;
#X connect 34 0 25 0;
#X connect 35 0 32 0;
#X connect 36 0 37 0;
#X connect 37 0 56 0;
#X connect 38 0 29 0;
#X connect 39 0 4 0;
#X connect 39 0 35 1;
#X connect 40 0 23 4;
#X connect 41 0 36 1;
#X connect 42 0 37 1;
#X connect 43 0 45 0;
#X connect 44 0 2 0;
#X connect 45 0 17 0;
#X connect 45 1 46 2;
#X connect 45 2 22 0;
#X connect 45 3 46 4;
#X connect 46 0 39 0;
#X connect 47 0 46 0;
#X connect 48 0 46 0;
#X connect 49 0 44 0;
#X connect 50 0 49 1;
#X connect 50 0 53 0;
#X connect 50 0 54 1;
#X connect 51 0 54 0;
#X connect 51 1 52 0;
#X connect 52 0 49 0;
#X connect 52 1 50 0;
#X connect 53 0 48 0;
#X connect 54 0 12 0;
#X connect 56 0 31 0;
#X restore 889 274 pd guts;
#X obj 889 247 inlet;
#X symbolatom 156 107 45 0 0 0 - - -;
#X obj 145 50 r \$0-patchname;
#X obj -28 199 t b;
#X obj 109 108 tgl 20 0 \$0-mute \$0chjzebc_ez empty 0 -6 0 8 -262144
-1 -1 1 1;
#X obj 943 272 line~;
#X msg 944 252 \$1 300;
#X obj 889 299 *~;
#X obj 888 322 outlet~;
#X obj 944 231 r \$0-mute;
#X obj 6 379 spigot;
#X obj 108 202 tgl 15 0 empty empty Arm 17 7 0 10 -262144 -1 -1 0 1
;
#X connect 1 0 4 0;
#X connect 1 0 35 2;
#X connect 2 0 35 0;
#X connect 3 0 4 0;
#X connect 3 0 35 1;
#X connect 4 0 35 0;
#X connect 5 0 31 0;
#X connect 6 0 11 0;
#X connect 7 0 11 0;
#X connect 8 0 7 0;
#X connect 8 0 11 1;
#X connect 9 0 7 0;
#X connect 9 0 11 2;
#X connect 10 0 7 0;
#X connect 10 0 11 3;
#X connect 11 0 12 0;
#X connect 14 0 20 0;
#X connect 15 0 20 0;
#X connect 16 0 15 0;
#X connect 16 0 20 1;
#X connect 17 0 15 0;
#X connect 17 0 20 2;
#X connect 18 0 15 0;
#X connect 18 0 20 3;
#X connect 19 0 20 4;
#X connect 19 0 15 0;
#X connect 20 0 21 0;
#X connect 26 0 27 0;
#X connect 26 0 37 0;
#X connect 27 0 22 0;
#X connect 27 1 24 0;
#X connect 28 0 29 0;
#X connect 28 0 38 0;
#X connect 29 0 23 0;
#X connect 29 1 25 0;
#X connect 32 0 13 0;
#X connect 33 0 4 0;
#X connect 33 0 35 4;
#X connect 34 0 4 0;
#X connect 34 0 35 3;
#X connect 35 0 30 0;
#X connect 36 0 55 0;
#X connect 39 0 40 0;
#X connect 39 0 48 0;
#X connect 44 0 52 0;
#X connect 45 0 44 0;
#X connect 47 0 46 0;
#X connect 48 0 41 0;
#X connect 50 0 52 1;
#X connect 51 0 50 0;
#X connect 52 0 53 0;
#X connect 54 0 51 0;
#X connect 55 0 42 0;
#X connect 56 0 55 1;
#X coords 0 -1 1 1 350 165 1 100 100;
#X restore 75 37 pd shapersynth;
#X text 440 106 Additive + Chebychev waveshaper instrument;
#X obj -62 -8 kbd2midi;
#N canvas 0 22 839 719 randiverb 0;
#X obj 31 139 +~;
#X obj 31 187 +~;
#X obj 34 236 +~;
#X obj -17 406 +~;
#X obj -17 457 +~;
#X obj 65 104 r~ fb;
#X obj 87 634 s~ fb;
#X obj -17 338 delread~ \$0-h1 100;
#X obj -1 380 delread~ \$0-w1 100;
#X obj 17 427 delread~ \$0-l1 100;
#X obj 31 163 delwrite~ \$0-h1 2000;
#X obj 31 212 delwrite~ \$0-w1 2000;
#X obj 34 261 delwrite~ \$0-l1 2000;
#X msg -1 358 577;
#X msg 17 405 761;
#X obj 16 290 loadbang;
#X msg 220 106 2 3 5 7 11 13 17 19 23 29 31 37 41 43 47 53 59 61 67
71 73 79 83 89 97 101 103 107 109 113 127 131 137 139 149 151 157 163
167 173 179 181 191 193 197 199 211 223 227 229 233 239 241 251 257
263 269 271 277 281 283 293 307 311 313 317 331 337 347 349 353 359
367 373 379 383 389 397 401 409 419 421 431 433 439 443 449 457 461
463 467 479 487 491 499 503 509 521 523 541 547 557 563 569 571 577
587 593 599 601 607 613 617 619 631 641 643 647 653 659 661 673 677
683 691 701 709 719 727 733 739 743 751 757 761 769 773 787 797 809
;
#X text 284 231 http://primes.utm.edu/lists/small/1000.txt;
#X msg -17 316 389;
#X obj -33 715 outlet~;
#X obj 22 715 outlet~;
#X obj -17 490 *~ 0.7;
#X obj 181 136 bng 12 250 50 0 empty empty rand 1 -7 1 8 -262144 -1
-1;
#N canvas 0 22 632 512 randomprimes 0;
#X obj 106 241 list split 10;
#X msg 228 353 \$1;
#X obj 106 56 t l b b b;
#X obj 195 147 +;
#X obj 125 183 +;
#X obj 105 279 list split 10;
#X obj 106 318 list split 10;
#X msg 168 353 \$1;
#X msg 108 354 \$1;
#X obj 265 112 + 7;
#X obj 106 27 inlet;
#X obj 108 376 outlet;
#X obj 168 376 outlet;
#X obj 228 376 outlet;
#X obj 195 118 + 1;
#X obj 125 118 + 1;
#X obj 125 91 random 8;
#X obj 195 91 random 8;
#X obj 265 91 random 8;
#X connect 0 1 1 0;
#X connect 0 1 5 0;
#X connect 1 0 13 0;
#X connect 2 0 0 0;
#X connect 2 1 16 0;
#X connect 2 2 17 0;
#X connect 2 3 18 0;
#X connect 3 0 4 1;
#X connect 3 0 5 1;
#X connect 4 0 6 1;
#X connect 5 1 6 0;
#X connect 5 1 7 0;
#X connect 6 1 8 0;
#X connect 7 0 12 0;
#X connect 8 0 11 0;
#X connect 9 0 3 1;
#X connect 9 0 0 1;
#X connect 10 0 2 0;
#X connect 14 0 3 0;
#X connect 15 0 4 0;
#X connect 16 0 15 0;
#X connect 17 0 14 0;
#X connect 18 0 9 0;
#X restore 220 250 pd randomprimes;
#X obj 109 129 hsl 64 10 0 1 0 1 empty empty fb 20 6 1 8 -262144 -1
-1 3700 1;
#X obj 104 498 +~ 0.2;
#X obj 88 522 *~;
#X obj 106 472 *~ 0.2;
#X obj 22 532 +~;
#X obj 38 508 *~ 0.3;
#X obj 22 464 *~ 0.3;
#N canvas 0 22 450 300 crossfade 0;
#X obj 113 115 *~;
#X obj 158 114 *~;
#X obj 129 46 swap 1;
#X obj 129 69 -;
#X obj 140 16 t f f;
#X obj 41 10 inlet~;
#X obj 90 11 inlet~;
#X obj 125 146 outlet~;
#X obj 140 -6 inlet;
#X connect 0 0 7 0;
#X connect 1 0 7 0;
#X connect 2 0 3 0;
#X connect 2 1 3 1;
#X connect 3 0 0 1;
#X connect 4 0 2 0;
#X connect 4 1 1 1;
#X connect 5 0 0 0;
#X connect 6 0 1 0;
#X connect 8 0 4 0;
#X restore 22 671 pd crossfade;
#X obj 109 139 hsl 64 10 0 1 0 1 empty empty amount 20 6 1 8 -262144
-1 -1 2300 1;
#N canvas 0 22 450 300 crossfade 0;
#X obj 113 115 *~;
#X obj 158 114 *~;
#X obj 129 46 swap 1;
#X obj 129 69 -;
#X obj 140 16 t f f;
#X obj 41 10 inlet~;
#X obj 90 11 inlet~;
#X obj 125 146 outlet~;
#X obj 140 -6 inlet;
#X connect 0 0 7 0;
#X connect 1 0 7 0;
#X connect 2 0 3 0;
#X connect 2 1 3 1;
#X connect 3 0 0 1;
#X connect 4 0 2 0;
#X connect 4 1 1 1;
#X connect 5 0 0 0;
#X connect 6 0 1 0;
#X connect 8 0 4 0;
#X restore -32 647 pd crossfade;
#X obj 109 119 hsl 64 10 0.01 1 1 1 empty empty lowpass 20 6 1 8 -262144
-1 -1 4300 1;
#X obj 87 547 lop~;
#X obj 87 567 lop~;
#X obj 164 452 * 2000;
#X obj 87 589 clip~ -0.8 0.8;
#X obj 87 612 hip~ 30;
#N canvas 0 22 450 300 bypass~ 0;
#X obj 35 32 inlet~;
#X obj 251 35 inlet;
#X obj 35 279 outlet~;
#X obj 51 227 line~;
#X obj 35 252 *~;
#X msg 51 195 1 5;
#X msg 84 195 0 5;
#X text 84 32 audio input;
#X obj 252 278 outlet~;
#X obj 268 226 line~;
#X obj 252 251 *~;
#X msg 268 194 1 5;
#X msg 301 194 0 5;
#X text 290 36 toggle (0/1);
#X obj 251 58 sel 0;
#X obj 238 92 t b b;
#X obj 281 92 t b b;
#X text 90 279 outlet for bypass;
#X text 310 278 outlet for processing;
#X obj 172 92 loadbang;
#X connect 0 0 4 0;
#X connect 0 0 10 0;
#X connect 1 0 14 0;
#X connect 3 0 4 1;
#X connect 4 0 2 0;
#X connect 5 0 3 0;
#X connect 6 0 3 0;
#X connect 9 0 10 1;
#X connect 10 0 8 0;
#X connect 11 0 9 0;
#X connect 12 0 9 0;
#X connect 14 0 15 0;
#X connect 14 1 16 0;
#X connect 15 0 5 0;
#X connect 15 1 12 0;
#X connect 16 0 6 0;
#X connect 16 1 11 0;
#X connect 19 0 5 0;
#X connect 19 0 12 0;
#X restore -30 63 pd bypass~;
#X obj -32 103 *~ 1;
#X obj 179 104 tgl 15 0 empty empty empty 17 7 0 10 -262144 -1 -1 1
1;
#X obj -12 31 inlet~;
#X connect 0 0 10 0;
#X connect 1 0 11 0;
#X connect 2 0 12 0;
#X connect 3 0 4 0;
#X connect 4 0 21 0;
#X connect 4 0 26 0;
#X connect 5 0 0 1;
#X connect 5 0 1 1;
#X connect 5 0 2 1;
#X connect 7 0 3 0;
#X connect 7 0 29 0;
#X connect 8 0 3 1;
#X connect 8 0 30 0;
#X connect 9 0 4 1;
#X connect 13 0 8 0;
#X connect 14 0 9 0;
#X connect 15 0 18 0;
#X connect 15 0 13 0;
#X connect 15 0 14 0;
#X connect 16 0 23 0;
#X connect 18 0 7 0;
#X connect 21 0 33 1;
#X connect 22 0 16 0;
#X connect 23 0 7 0;
#X connect 23 1 8 0;
#X connect 23 2 9 0;
#X connect 24 0 27 0;
#X connect 25 0 26 1;
#X connect 26 0 35 0;
#X connect 27 0 25 0;
#X connect 28 0 31 1;
#X connect 29 0 28 1;
#X connect 30 0 28 0;
#X connect 31 0 20 0;
#X connect 32 0 31 2;
#X connect 32 0 33 2;
#X connect 33 0 19 0;
#X connect 34 0 37 0;
#X connect 35 0 36 0;
#X connect 36 0 38 0;
#X connect 37 0 35 1;
#X connect 37 0 36 1;
#X connect 38 0 39 0;
#X connect 39 0 6 0;
#X connect 40 0 19 0;
#X connect 40 0 20 0;
#X connect 40 1 41 0;
#X connect 41 0 0 0;
#X connect 41 0 1 0;
#X connect 41 0 2 0;
#X connect 41 0 31 0;
#X connect 41 0 33 0;
#X connect 42 0 40 1;
#X connect 43 0 40 0;
#X coords 0 -1 1 1 100 50 1 100 100;
#X restore 75 202 pd randiverb;
#X obj 461 147 declare -path z_polyshaper_abs;
#N canvas 0 22 1009 705 (subpatch) 0;
#X obj 0 0 cnv 10 660 350 empty empty empty 20 12 0 14 -1 -66577 0
;
#X obj 888 273 outlet;
#X obj -782 737 max 0;
#X obj -782 761 min 127;
#X obj -798 867 outlet;
#X floatatom 787 295 5 0 0 0 - - -;
#X obj 42 6 cnv 15 609 20 empty empty empty 20 12 0 14 -66577 -66577
0;
#X obj 746 188 i;
#X obj 794 189 + 1;
#X msg 776 158 0;
#X obj 764 90 sel 0;
#X obj 210 8 nbx 2 14 1 16 0 0 empty empty Modulo 45 8 0 11 -1 -260097
-260097 16 256;
#X obj 134 -61 loadbang;
#X text 68 -92 NOte sequencer;
#X obj 741 45 metro 500;
#X obj 46 9 tgl 15 0 empty empty On/Off 17 7 0 11 -1 -260097 -260097
0 1;
#X obj 46 -48 inlet;
#X obj 111 8 nbx 4 14 0 10000 0 0 empty empty Metro 53 8 0 11 -1 -260097
-260097 500 256;
#X msg 134 -39 500;
#X obj 594 9 bng 15 250 50 0 empty empty Reset 18 7 0 11 -1 -260097
-260097;
#N canvas 324 99 700 545 counter 0;
#X obj 270 22 inlet;
#X obj 82 285 loadbang;
#X msg 90 206 \$1 color \$2 \$2 \$2;
#X obj 195 179 pack;
#X obj 309 143 - 1;
#X obj 270 116 t f b f;
#X obj 309 172 sel -1;
#X obj 336 275 pack;
#X obj 330 231 t f b;
#X msg 336 302 \$1 color \$2 \$2 \$2;
#X msg 82 342 color \$1 \$1 \$1;
#X obj 216 154 f -1.67434e+07;
#X obj 82 309 f 10;
#X obj 357 253 f 10;
#X obj 264 685 s \$0-1color.r;
#X obj 279 666 s \$0-2color.r;
#X obj 295 646 s \$0-3color.r;
#X obj 311 627 s \$0-4color.r;
#X obj 327 608 s \$0-5color.r;
#X obj 343 589 s \$0-6color.r;
#X obj 359 570 s \$0-7color.r;
#X obj 375 551 s \$0-8color.r;
#X obj 309 199 15;
#X obj 264 372 route 0 1 2 3 4 5 6 7 8 9 10 11 12 13 14 15;
#X obj 391 532 s \$0-9color.r;
#X obj 407 513 s \$0-10color.r;
#X obj 423 493 s \$0-11color.r;
#X obj 439 474 s \$0-12color.r;
#X obj 455 455 s \$0-13color.r;
#X obj 471 436 s \$0-14color.r;
#X obj 487 417 s \$0-15color.r;
#X obj 503 398 s \$0-16color.r;
#X obj 390 30 inlet;
#X obj 395 111 inlet;
#X connect 0 0 5 0;
#X connect 1 0 12 0;
#X connect 2 0 23 0;
#X connect 3 0 2 0;
#X connect 4 0 6 0;
#X connect 5 0 3 0;
#X connect 5 1 11 0;
#X connect 5 2 4 0;
#X connect 6 0 22 0;
#X connect 6 1 8 0;
#X connect 7 0 9 0;
#X connect 8 0 7 0;
#X connect 8 1 13 0;
#X connect 9 0 23 0;
#X connect 10 0 14 0;
#X connect 10 0 15 0;
#X connect 10 0 16 0;
#X connect 10 0 17 0;
#X connect 10 0 18 0;
#X connect 10 0 19 0;
#X connect 10 0 20 0;
#X connect 10 0 21 0;
#X connect 10 0 24 0;
#X connect 10 0 25 0;
#X connect 10 0 26 0;
#X connect 10 0 27 0;
#X connect 10 0 28 0;
#X connect 10 0 29 0;
#X connect 10 0 30 0;
#X connect 10 0 31 0;
#X connect 11 0 3 1;
#X connect 12 0 10 0;
#X connect 13 0 7 1;
#X connect 22 0 8 0;
#X connect 23 0 14 0;
#X connect 23 1 15 0;
#X connect 23 2 16 0;
#X connect 23 3 17 0;
#X connect 23 4 18 0;
#X connect 23 5 19 0;
#X connect 23 6 20 0;
#X connect 23 7 21 0;
#X connect 23 8 24 0;
#X connect 23 9 25 0;
#X connect 23 10 26 0;
#X connect 23 11 27 0;
#X connect 23 12 28 0;
#X connect 23 13 29 0;
#X connect 23 14 30 0;
#X connect 23 15 31 0;
#X connect 32 0 10 0;
#X connect 33 0 4 0;
#X connect 33 0 22 1;
#X restore 712 -25 pd counter;
#X obj 104 742 min 500;
#X obj 3 64 cnv 15 32 104 empty empty Notes 2 12 0 10 -4160 -262144
0;
#X obj 3 175 cnv 15 32 25 empty empty delay 2 12 0 10 -4034 -262144
0;
#X obj 3 208 cnv 15 32 25 empty empty dur 2 12 0 10 -159808 -262144
0;
#X obj 3 241 cnv 15 32 104 empty empty Vel 2 12 0 10 -258113 -262144
0;
#X obj -390 393 sel 0 1 2 3 4 5 6 7 8 9 10 11 12 13 14 15;
#X obj 723 224 mod 16;
#X obj 35 64 cnv 15 620 104 empty empty empty 2 12 1 11 -16662 -262144
0;
#X obj 36 175 cnv 15 620 25 empty empty empty 2 12 1 11 -13381 -262144
0;
#X obj 36 208 cnv 15 620 25 empty empty empty 2 12 1 11 -45076 -262144
0;
#X obj 36 241 cnv 15 620 104 empty empty empty 2 12 1 11 -86277 -262144
0;
#X obj 41 31 cnv 15 609 29 empty \$0-modulo empty 2 12 1 11 -260097
-262144 0;
#X obj 48 33 tgl 25 0 \$0-blah \$0-1color.r empty 17 7 0 10 -233017
-233017 -233017 0 1;
#X obj 85 33 tgl 25 0 \$0-blah \$0-2color.r empty 17 7 0 10 -233017
-233017 -233017 0 1;
#X obj 124 33 tgl 25 0 \$0-blah \$0-3color.r empty 17 7 0 10 -233017
-233017 -233017 0 1;
#X obj 162 33 tgl 25 0 \$0-blah \$0-4color.r empty 17 7 0 10 -233017
-233017 -233017 0 1;
#X obj 199 33 tgl 25 0 \$0-blah \$0-5color.r empty 17 7 0 10 -233017
-233017 -233017 0 1;
#X obj 237 33 tgl 25 0 \$0-blah \$0-6color.r empty 17 7 0 10 -233017
-233017 -233017 0 1;
#X obj 275 33 tgl 25 0 \$0-blah \$0-7color.r empty 17 7 0 10 -233017
-233017 -233017 0 1;
#X obj 313 33 tgl 25 0 \$0-blah \$0-8color.r empty 17 7 0 10 -233017
-233017 -233017 0 1;
#X obj 351 33 tgl 25 0 \$0-blah \$0-9color.r empty 17 7 0 10 -233017
-233017 -233017 0 1;
#X obj 388 33 tgl 25 0 \$0-blah \$0-10color.r empty 17 7 0 10 -233017
-233017 -233017 0 1;
#X obj 426 33 tgl 25 0 \$0-blah \$0-11color.r empty 17 7 0 10 -233017
-233017 -233017 0 1;
#X obj 465 33 tgl 25 0 \$0-blah \$0-12color.r empty 17 7 0 10 -260026
-260026 -260026 0 1;
#X obj 503 33 tgl 25 0 \$0-blah \$0-13color.r empty 17 7 0 10 -233017
-233017 -233017 0 1;
#X obj 541 33 tgl 25 0 \$0-blah \$0-14color.r empty 17 7 0 10 -233017
-233017 -233017 0 1;
#X obj 579 33 tgl 25 0 \$0-blah \$0-15color.r empty 17 7 0 10 -233017
-233017 -233017 0 1;
#X obj 616 33 tgl 25 0 \$0-blah \$0-16color.r empty 17 7 0 10 -260026
-260026 -260026 0 1;
#X obj 44 212 hsliderpurple;
#X obj 43 66 Step-Blue;
#X obj 43 243 Step-Red;
#X obj 81 212 hsliderpurple;
#X obj 81 66 Step-Blue;
#X obj 81 243 Step-Red;
#X obj 119 212 hsliderpurple;
#X obj 119 66 Step-Blue;
#X obj 119 243 Step-Red;
#X obj 157 212 hsliderpurple;
#X obj 157 66 Step-Blue;
#X obj 157 243 Step-Red;
#X obj 195 212 hsliderpurple;
#X obj 195 66 Step-Blue;
#X obj 195 243 Step-Red;
#X obj 233 212 hsliderpurple;
#X obj 233 66 Step-Blue;
#X obj 233 243 Step-Red;
#X obj 271 212 hsliderpurple;
#X obj 271 66 Step-Blue;
#X obj 271 243 Step-Red;
#X obj 310 212 hsliderpurple;
#X obj 309 66 Step-Blue;
#X obj 309 243 Step-Red;
#X obj 349 213 hsliderpurple;
#X obj 347 66 Step-Blue;
#X obj 347 243 Step-Red;
#X obj 386 213 hsliderpurple;
#X obj 385 66 Step-Blue;
#X obj 385 243 Step-Red;
#X obj 424 213 hsliderpurple;
#X obj 423 66 Step-Blue;
#X obj 423 243 Step-Red;
#X obj 462 213 hsliderpurple;
#X obj 461 66 Step-Blue;
#X obj 461 243 Step-Red;
#X obj 500 213 hsliderpurple;
#X obj 499 66 Step-Blue;
#X obj 499 243 Step-Red;
#X obj 538 213 hsliderpurple;
#X obj 537 66 Step-Blue;
#X obj 537 243 Step-Red;
#X obj 575 213 hsliderpurple;
#X obj 575 66 Step-Blue;
#X obj 575 243 Step-Red;
#X obj 614 213 hsliderpurple;
#X obj 613 66 Step-Blue;
#X obj 613 243 Step-Red;
#X obj 43 178 hslidergreen;
#X obj 80 178 hslidergreen;
#X obj 118 178 hslidergreen;
#X obj 156 178 hslidergreen;
#X obj 194 179 hslidergreen;
#X obj 233 179 hslidergreen;
#X obj 271 179 hslidergreen;
#X obj 309 179 hslidergreen;
#X obj 347 179 hslidergreen;
#X obj 385 179 hslidergreen;
#X obj 423 179 hslidergreen;
#X obj 461 179 hslidergreen;
#X obj 499 179 hslidergreen;
#X obj 537 179 hslidergreen;
#X obj 575 179 hslidergreen;
#X obj 614 179 hslidergreen;
#N canvas 531 71 450 300 canvasmodulo 0;
#X obj 238 283 line;
#X obj 223 230 expr ($f1 + 1);
#X floatatom 222 190 5 0 0 0 - - -;
#X obj 221 166 i;
#X obj 224 143 inlet;
#X obj 218 335 s \$0-modulo;
#X obj 222 209 * 38;
#X msg 217 312 vis_size \$1 29;
#X msg 324 310 vis_size \$1 2;
#X obj 331 332 s \$0-modulo2;
#X msg 236 260 \$1 250;
#X connect 0 0 7 0;
#X connect 0 0 8 0;
#X connect 1 0 10 0;
#X connect 2 0 6 0;
#X connect 3 0 2 0;
#X connect 4 0 3 0;
#X connect 6 0 1 0;
#X connect 7 0 5 0;
#X connect 8 0 9 0;
#X connect 10 0 0 0;
#X restore 663 -60 pd canvasmodulo;
#X obj 204 671 i;
#X obj 230 670 i;
#X obj 255 670 i;
#X obj 281 669 i;
#X obj 307 670 i;
#X obj 333 669 i;
#X obj 356 668 i;
#X obj 384 668 i;
#X obj 408 667 i;
#X obj 434 667 i;
#X obj 459 667 i;
#X obj 485 666 i;
#X obj 514 670 i;
#X obj 537 666 i;
#X obj 562 666 i;
#X obj 588 665 i;
#X obj 102 718 max 0;
#X obj -390 426 delay 0;
#X obj -364 472 delay 0;
#X obj -338 514 delay 0;
#X obj -311 558 delay 0;
#X obj -289 430 delay 0;
#X obj -263 475 delay 0;
#X obj -235 524 delay 0;
#X obj -208 575 delay 0;
#X obj -186 430 delay 0;
#X obj -161 476 delay 0;
#X obj -134 527 delay 0;
#X obj -87 568 delay 0;
#X obj -28 425 delay 0;
#X obj 18 471 delay 0;
#X obj 77 510 delay 0;
#X obj 142 538 delay 0;
#X obj -782 677 i;
#X obj -756 676 i;
#X obj -731 676 i;
#X obj -705 676 i;
#X obj -679 676 i;
#X obj -653 676 i;
#X obj -628 676 i;
#X obj -603 676 i;
#X obj -578 676 i;
#X obj -552 676 i;
#X obj -527 676 i;
#X obj -501 676 i;
#X obj -475 676 i;
#X obj -449 675 i;
#X obj -424 675 i;
#X obj -398 675 i;
#X obj -366 725 max 0;
#X obj -366 749 min 127;
#X floatatom 104 765 5 0 0 0 - - -;
#X obj 706 264 t f f f f;
#X obj 38 236 cnv 1 609 2 empty \$0-modulo2 empty 2 12 1 11 -260097
-262144 0;
#X obj 39 203 cnv 1 609 2 empty \$0-modulo2 empty 2 12 1 11 -260097
-262144 0;
#X obj 40 170 cnv 1 609 2 empty \$0-modulo2 empty 2 12 1 11 -260097
-262144 0;
#X obj -311 678 f;
#X obj -285 677 f;
#X obj -260 677 f;
#X obj -234 677 f;
#X obj -208 677 f;
#X obj -182 677 f;
#X obj -157 677 f;
#X obj -132 677 f;
#X obj -107 677 f;
#X obj -81 677 f;
#X obj -56 677 f;
#X obj -30 677 f;
#X obj -4 677 f;
#X obj 22 676 f;
#X obj 47 676 f;
#X obj 73 676 f;
#X obj 145 559 t b b b;
#X obj 80 535 t b b b;
#X obj 19 493 t b b b;
#X obj -27 446 t b b b;
#X obj -184 451 t b b b;
#X obj -159 498 t b b b;
#X obj -134 548 t b b b;
#X obj -85 589 t b b b;
#X obj -192 595 t b b b;
#X obj -235 546 t b b b;
#X obj -262 497 t b b b;
#X obj -288 450 t b b b;
#X obj -390 449 t b b b;
#X obj -363 493 t b b b;
#X obj -338 534 t b b b;
#X obj -311 579 t b b b;
#X obj -802 796 makenote;
#X obj -799 824 pack f f;
#X obj 654 663 f;
#X obj 680 662 f;
#X obj 705 662 f;
#X obj 731 662 f;
#X obj 757 662 f;
#X obj 783 662 f;
#X obj 808 662 f;
#X obj 833 662 f;
#X obj 858 662 f;
#X obj 884 662 f;
#X obj 909 662 f;
#X obj 935 662 f;
#X obj 961 662 f;
#X obj 987 661 f;
#X obj 1012 661 f;
#X obj 1038 661 f;
#X obj -731 737 pack f f f f f f f f f f f f f f f f;
#X obj -304 737 pack f f f f f f f f f f f f f f f f;
#X obj 215 752 pack f f f f f f f f f f f f f f f f;
#X obj 620 741 pack f f f f f f f f f f f f f f f f;
#X msg -740 810 set \$1 \$2 \$3 \$4 \$5 \$6 \$7 \$8 \$9 \$10 \$11 \$12
\$13 \$14 \$15 \$16;
#X msg -322 784 set \$1 \$2 \$3 \$4 \$5 \$6 \$7 \$8 \$9 \$10 \$11 \$12
\$13 \$14 \$15 \$16;
#X msg 144 809 set \$1 \$2 \$3 \$4 \$5 \$6 \$7 \$8 \$9 \$10 \$11 \$12
\$13 \$14 \$15 \$16;
#X msg 624 809 set \$1 \$2 \$3 \$4 \$5 \$6 \$7 \$8 \$9 \$10 \$11 \$12
\$13 \$14 \$15 \$16;
#X obj -731 780 spigot;
#X obj -304 759 spigot;
#X obj 213 774 spigot;
#X obj 621 773 spigot;
#X obj -708 840 s \$0-notes-save;
#X obj -311 836 s \$0-vel-save;
#X obj 156 847 s \$0-dur-save;
#X obj 623 850 s \$0-del-save;
#X obj -449 48 unpack f f f f f f f f f f f f f f f f;
#X obj -448 22 r \$0-note-load;
#X obj -304 226 unpack f f f f f f f f f f f f f f f f;
#X obj -303 200 r \$0-vel-load;
#X obj -318 103 unpack f f f f f f f f f f f f f f f f;
#X obj -317 77 r \$0-del-load;
#X obj -421 152 unpack f f f f f f f f f f f f f f f f;
#X obj -420 126 r \$0-dur-load;
#X obj 886 6 r \$0-save;
#X obj 895 78 metro 2;
#X obj 893 36 t b b;
#X msg 930 107 0;
#X msg 160 -38 16;
#X obj 917 152 f 0;
#X obj 946 152 + 1;
#X obj 906 225 tgl 15 0 empty empty empty 17 7 0 10 -262144 -1 -1 0
1;
#X obj 922 186 sel 15;
#X obj 928 416 t b;
#X obj 519 480 r \$0-arm-save;
#X obj -515 -72 r \$0-patterns;
#N canvas 250 142 450 300 \$0-patterns 1;
#N canvas 353 95 651 580 pattern-template 0;
#X msg 56 143 33 0 0 0 83 0 0 76 0 0 69 0 0 0 0 0;
#X msg 57 220 89 0 0 0 58 0 0 98 0 0 83 0 0 0 0 0;
#X msg 63 302 1310 0 0 0 1310 0 0 1145 0 0 1310 0 0 0 0 0;
#N canvas 0 22 450 300 reveive-saved-values 0;
#X obj 47 52 r \$0-notes-save;
#X obj 165 52 r \$0-vel-save;
#X obj 273 49 r \$0-dur-save;
#X obj 370 50 r \$0-del-save;
#X obj 54 88 outlet;
#X obj 165 84 outlet;
#X obj 278 97 outlet;
#X obj 389 93 outlet;
#X connect 0 0 4 0;
#X connect 1 0 5 0;
#X connect 2 0 6 0;
#X connect 3 0 7 0;
#X restore 52 62 pd reveive-saved-values;
#X msg 59 358 0 0 0 0 140 0 0 0 0 0 0 0 0 0 0 0;
#X obj -84 89 inlet;
#X obj 56 165 s \$0-note-load;
#X obj 58 244 s \$0-vel-load;
#X obj 64 324 s \$0-dur-load;
#X obj 58 381 s \$0-del-load;
#X connect 0 0 6 0;
#X connect 1 0 7 0;
#X connect 2 0 8 0;
#X connect 3 0 0 0;
#X connect 3 1 1 0;
#X connect 3 2 2 0;
#X connect 3 3 4 0;
#X connect 4 0 9 0;
#X connect 5 0 0 0;
#X connect 5 0 1 0;
#X connect 5 0 2 0;
#X connect 5 0 4 0;
#X restore 53 74 pd pattern-template;
#X obj 31 155 bng 20 250 50 0 empty empty Load 25 10 0 10 -262144 -1
-1;
#N canvas 353 95 651 580 pattern-clear 0;
#X msg 56 143 0 0 0 0 0 0 0 0 0 0 0 0 0 0 0 0;
#X msg 57 220 0 0 0 0 0 0 0 0 0 0 0 0 0 0 0 0;
#X msg 63 302 0 0 0 0 0 0 0 0 0 0 0 0 0 0 0 0;
#X msg 59 358 0 0 0 0 0 0 0 0 0 0 0 0 0 0 0 0;
#X obj -84 89 inlet;
#X obj 56 165 s \$0-note-load;
#X obj 58 244 s \$0-vel-load;
#X obj 64 324 s \$0-dur-load;
#X obj 58 381 s \$0-del-load;
#X connect 0 0 5 0;
#X connect 1 0 6 0;
#X connect 2 0 7 0;
#X connect 3 0 8 0;
#X connect 4 0 0 0;
#X connect 4 0 1 0;
#X connect 4 0 2 0;
#X connect 4 0 3 0;
#X restore 31 177 pd pattern-clear;
#N canvas 353 95 651 580 pattern-1 0;
#X msg 56 143 56 0 0 0 83 0 0 77 0 0 70 0 0 0 0 0;
#X msg 57 220 89 0 0 0 58 0 0 99 0 0 83 0 0 0 0 0;
#X msg 63 302 605 0 0 0 1215 0 0 230 0 0 980 0 0 0 0 0;
#X msg 59 358 0 0 0 0 140 0 0 0 0 0 0 0 0 0 0 0;
#X obj -84 89 inlet;
#X obj 56 165 s \$0-note-load;
#X obj 58 244 s \$0-vel-load;
#X obj 64 324 s \$0-dur-load;
#X obj 58 381 s \$0-del-load;
#X connect 0 0 5 0;
#X connect 1 0 6 0;
#X connect 2 0 7 0;
#X connect 3 0 8 0;
#X connect 4 0 0 0;
#X connect 4 0 1 0;
#X connect 4 0 2 0;
#X connect 4 0 3 0;
#X restore 28 228 pd pattern-1;
#X obj 27 204 bng 20 250 50 0 empty empty Load 25 10 0 10 -262144 -1
-1;
#X connect 1 0 2 0;
#X connect 4 0 3 0;
#X restore -329 -43 pd \$0-patterns;
#X msg -514 -42 vis 1;
#X obj -507 -8 s pd-\$0-patterns;
#X obj 320 8 tgl 15 0 \$0-arm-save \$0cjincijnze Arm 17 7 0 10 -1 -260097
-260097 1 1;
#X obj 363 8 bng 15 250 50 0 \$0-save \$0avczeinvedz Save 17 7 0 10
-1 -260097 -260097;
#X obj 411 8 bng 15 250 50 0 \$0-patterns \$0avczeinvedz Patt_Pannel
17 7 0 10 -1 -260097 -260097;
#X connect 2 0 3 0;
#X connect 3 0 202 0;
#X connect 7 0 8 0;
#X connect 7 0 27 0;
#X connect 8 0 7 1;
#X connect 9 0 7 0;
#X connect 10 0 9 0;
#X connect 11 0 27 1;
#X connect 11 0 113 0;
#X connect 11 0 20 2;
#X connect 12 0 18 0;
#X connect 12 0 248 0;
#X connect 14 0 7 0;
#X connect 15 0 14 0;
#X connect 16 0 15 0;
#X connect 17 0 14 1;
#X connect 17 0 21 1;
#X connect 18 0 17 0;
#X connect 19 0 9 0;
#X connect 19 0 20 1;
#X connect 21 0 165 0;
#X connect 26 0 131 0;
#X connect 26 1 132 0;
#X connect 26 2 133 0;
#X connect 26 3 134 0;
#X connect 26 4 135 0;
#X connect 26 5 136 0;
#X connect 26 6 137 0;
#X connect 26 7 138 0;
#X connect 26 8 139 0;
#X connect 26 9 140 0;
#X connect 26 10 141 0;
#X connect 26 11 142 0;
#X connect 26 12 143 0;
#X connect 26 13 144 0;
#X connect 26 14 145 0;
#X connect 26 15 146 0;
#X connect 27 0 1 0;
#X connect 27 0 5 0;
#X connect 27 0 166 0;
#X connect 49 0 114 1;
#X connect 50 0 147 1;
#X connect 51 0 170 1;
#X connect 52 0 115 1;
#X connect 53 0 148 1;
#X connect 54 0 171 1;
#X connect 55 0 116 1;
#X connect 56 0 149 1;
#X connect 57 0 172 1;
#X connect 58 0 117 1;
#X connect 59 0 150 1;
#X connect 60 0 173 1;
#X connect 61 0 118 1;
#X connect 62 0 151 1;
#X connect 63 0 174 1;
#X connect 64 0 119 1;
#X connect 65 0 152 1;
#X connect 66 0 175 1;
#X connect 67 0 120 1;
#X connect 68 0 153 1;
#X connect 69 0 176 1;
#X connect 70 0 121 1;
#X connect 71 0 154 1;
#X connect 72 0 177 1;
#X connect 73 0 122 1;
#X connect 74 0 155 1;
#X connect 75 0 178 1;
#X connect 76 0 123 1;
#X connect 77 0 156 1;
#X connect 78 0 179 1;
#X connect 79 0 124 1;
#X connect 80 0 157 1;
#X connect 81 0 180 1;
#X connect 82 0 125 1;
#X connect 83 0 158 1;
#X connect 84 0 181 1;
#X connect 85 0 126 1;
#X connect 86 0 159 1;
#X connect 87 0 182 1;
#X connect 88 0 127 1;
#X connect 89 0 160 1;
#X connect 90 0 183 1;
#X connect 91 0 128 1;
#X connect 92 0 161 1;
#X connect 93 0 184 1;
#X connect 94 0 129 1;
#X connect 95 0 162 1;
#X connect 96 0 185 1;
#X connect 97 0 131 1;
#X connect 97 0 204 1;
#X connect 98 0 132 1;
#X connect 98 0 205 1;
#X connect 99 0 133 1;
#X connect 99 0 206 1;
#X connect 100 0 134 1;
#X connect 100 0 207 1;
#X connect 101 0 135 1;
#X connect 101 0 208 1;
#X connect 102 0 136 1;
#X connect 102 0 209 1;
#X connect 103 0 137 1;
#X connect 103 0 210 1;
#X connect 104 0 138 1;
#X connect 104 0 211 1;
#X connect 105 0 139 1;
#X connect 105 0 212 1;
#X connect 106 0 140 1;
#X connect 106 0 213 1;
#X connect 107 0 141 1;
#X connect 107 0 214 1;
#X connect 108 0 142 1;
#X connect 108 0 215 1;
#X connect 109 0 143 1;
#X connect 109 0 216 1;
#X connect 110 0 144 1;
#X connect 110 0 217 1;
#X connect 111 0 145 1;
#X connect 111 0 218 1;
#X connect 112 0 146 1;
#X connect 112 0 219 1;
#X connect 114 0 130 0;
#X connect 114 0 222 0;
#X connect 115 0 130 0;
#X connect 115 0 222 1;
#X connect 116 0 130 0;
#X connect 116 0 222 2;
#X connect 117 0 130 0;
#X connect 117 0 222 3;
#X connect 118 0 130 0;
#X connect 118 0 222 4;
#X connect 119 0 130 0;
#X connect 119 0 222 5;
#X connect 120 0 130 0;
#X connect 120 0 222 6;
#X connect 121 0 130 0;
#X connect 121 0 222 7;
#X connect 122 0 130 0;
#X connect 122 0 222 8;
#X connect 123 0 130 0;
#X connect 123 0 222 9;
#X connect 124 0 130 0;
#X connect 124 0 222 10;
#X connect 125 0 130 0;
#X connect 125 0 222 11;
#X connect 126 0 130 0;
#X connect 126 0 222 12;
#X connect 127 0 130 0;
#X connect 127 0 222 13;
#X connect 128 0 130 0;
#X connect 128 0 222 14;
#X connect 129 0 130 0;
#X connect 129 0 222 15;
#X connect 130 0 21 0;
#X connect 131 0 198 0;
#X connect 132 0 199 0;
#X connect 133 0 200 0;
#X connect 134 0 201 0;
#X connect 135 0 197 0;
#X connect 136 0 196 0;
#X connect 137 0 195 0;
#X connect 138 0 194 0;
#X connect 139 0 190 0;
#X connect 140 0 191 0;
#X connect 141 0 192 0;
#X connect 142 0 193 0;
#X connect 143 0 189 0;
#X connect 144 0 188 0;
#X connect 145 0 187 0;
#X connect 146 0 186 0;
#X connect 147 0 2 0;
#X connect 147 0 220 0;
#X connect 148 0 2 0;
#X connect 148 0 220 1;
#X connect 149 0 2 0;
#X connect 149 0 220 2;
#X connect 150 0 2 0;
#X connect 150 0 220 3;
#X connect 151 0 2 0;
#X connect 151 0 220 4;
#X connect 152 0 2 0;
#X connect 152 0 220 5;
#X connect 153 0 2 0;
#X connect 153 0 220 6;
#X connect 154 0 2 0;
#X connect 154 0 220 7;
#X connect 155 0 2 0;
#X connect 155 0 220 8;
#X connect 156 0 2 0;
#X connect 156 0 220 9;
#X connect 157 0 2 0;
#X connect 157 0 220 10;
#X connect 158 0 2 0;
#X connect 158 0 220 11;
#X connect 159 0 2 0;
#X connect 159 0 220 12;
#X connect 160 0 2 0;
#X connect 160 0 220 13;
#X connect 161 0 2 0;
#X connect 161 0 220 14;
#X connect 162 0 2 0;
#X connect 162 0 220 15;
#X connect 163 0 164 0;
#X connect 164 0 202 1;
#X connect 165 0 202 2;
#X connect 166 0 20 0;
#X connect 166 1 26 0;
#X connect 170 0 163 0;
#X connect 170 0 221 0;
#X connect 171 0 163 0;
#X connect 171 0 221 1;
#X connect 172 0 163 0;
#X connect 172 0 221 2;
#X connect 173 0 163 0;
#X connect 173 0 221 3;
#X connect 174 0 163 0;
#X connect 174 0 221 4;
#X connect 175 0 163 0;
#X connect 175 0 221 5;
#X connect 176 0 163 0;
#X connect 176 0 221 6;
#X connect 177 0 163 0;
#X connect 177 0 221 7;
#X connect 178 0 163 0;
#X connect 178 0 221 8;
#X connect 179 0 163 0;
#X connect 179 0 221 9;
#X connect 180 0 163 0;
#X connect 180 0 221 10;
#X connect 181 0 163 0;
#X connect 181 0 221 11;
#X connect 182 0 163 0;
#X connect 182 0 221 12;
#X connect 183 0 163 0;
#X connect 183 0 221 13;
#X connect 184 0 163 0;
#X connect 184 0 221 14;
#X connect 185 0 163 0;
#X connect 185 0 221 15;
#X connect 186 0 162 0;
#X connect 186 1 185 0;
#X connect 186 2 129 0;
#X connect 187 0 161 0;
#X connect 187 1 184 0;
#X connect 187 2 128 0;
#X connect 188 0 160 0;
#X connect 188 1 183 0;
#X connect 188 2 127 0;
#X connect 189 0 159 0;
#X connect 189 1 182 0;
#X connect 189 2 126 0;
#X connect 190 0 155 0;
#X connect 190 1 178 0;
#X connect 190 2 122 0;
#X connect 191 0 156 0;
#X connect 191 1 179 0;
#X connect 191 2 123 0;
#X connect 192 0 157 0;
#X connect 192 1 180 0;
#X connect 192 2 124 0;
#X connect 193 0 158 0;
#X connect 193 1 181 0;
#X connect 193 2 125 0;
#X connect 194 0 154 0;
#X connect 194 1 177 0;
#X connect 194 2 121 0;
#X connect 195 0 153 0;
#X connect 195 1 176 0;
#X connect 195 2 120 0;
#X connect 196 0 152 0;
#X connect 196 1 175 0;
#X connect 196 2 119 0;
#X connect 197 0 151 0;
#X connect 197 1 174 0;
#X connect 197 2 118 0;
#X connect 198 0 147 0;
#X connect 198 1 170 0;
#X connect 198 2 114 0;
#X connect 199 0 148 0;
#X connect 199 1 171 0;
#X connect 199 2 115 0;
#X connect 200 0 149 0;
#X connect 200 1 172 0;
#X connect 200 2 116 0;
#X connect 201 0 150 0;
#X connect 201 1 173 0;
#X connect 201 2 117 0;
#X connect 202 0 203 0;
#X connect 202 1 203 1;
#X connect 203 0 4 0;
#X connect 204 0 223 0;
#X connect 205 0 223 1;
#X connect 206 0 223 2;
#X connect 207 0 223 3;
#X connect 208 0 223 4;
#X connect 209 0 223 5;
#X connect 210 0 223 6;
#X connect 211 0 223 7;
#X connect 212 0 223 8;
#X connect 213 0 223 9;
#X connect 214 0 223 10;
#X connect 215 0 223 11;
#X connect 216 0 223 12;
#X connect 217 0 223 13;
#X connect 218 0 223 14;
#X connect 219 0 223 15;
#X connect 220 0 228 0;
#X connect 221 0 229 0;
#X connect 222 0 230 0;
#X connect 223 0 231 0;
#X connect 224 0 232 0;
#X connect 225 0 233 0;
#X connect 226 0 234 0;
#X connect 227 0 235 0;
#X connect 228 0 224 0;
#X connect 229 0 225 0;
#X connect 230 0 226 0;
#X connect 231 0 227 0;
#X connect 236 0 50 0;
#X connect 236 1 53 0;
#X connect 236 2 56 0;
#X connect 236 3 59 0;
#X connect 236 4 62 0;
#X connect 236 5 65 0;
#X connect 236 6 68 0;
#X connect 236 7 71 0;
#X connect 236 8 74 0;
#X connect 236 9 77 0;
#X connect 236 10 80 0;
#X connect 236 11 83 0;
#X connect 236 12 86 0;
#X connect 236 13 89 0;
#X connect 236 14 92 0;
#X connect 236 15 95 0;
#X connect 237 0 236 0;
#X connect 238 0 51 0;
#X connect 238 1 54 0;
#X connect 238 2 57 0;
#X connect 238 3 60 0;
#X connect 238 4 63 0;
#X connect 238 5 66 0;
#X connect 238 6 69 0;
#X connect 238 7 72 0;
#X connect 238 8 75 0;
#X connect 238 9 78 0;
#X connect 238 10 81 0;
#X connect 238 11 84 0;
#X connect 238 12 87 0;
#X connect 238 13 90 0;
#X connect 238 14 93 0;
#X connect 238 15 96 0;
#X connect 239 0 238 0;
#X connect 240 0 97 0;
#X connect 240 1 98 0;
#X connect 240 2 99 0;
#X connect 240 3 100 0;
#X connect 240 4 101 0;
#X connect 240 5 102 0;
#X connect 240 6 103 0;
#X connect 240 7 104 0;
#X connect 240 8 105 0;
#X connect 240 9 106 0;
#X connect 240 10 107 0;
#X connect 240 11 108 0;
#X connect 240 12 109 0;
#X connect 240 13 110 0;
#X connect 240 14 111 0;
#X connect 240 15 112 0;
#X connect 241 0 240 0;
#X connect 242 0 49 0;
#X connect 242 1 52 0;
#X connect 242 2 55 0;
#X connect 242 3 58 0;
#X connect 242 4 61 0;
#X connect 242 5 64 0;
#X connect 242 6 67 0;
#X connect 242 7 70 0;
#X connect 242 8 73 0;
#X connect 242 9 76 0;
#X connect 242 10 79 0;
#X connect 242 11 82 0;
#X connect 242 12 85 0;
#X connect 242 13 88 0;
#X connect 242 14 91 0;
#X connect 242 15 94 0;
#X connect 243 0 242 0;
#X connect 244 0 246 0;
#X connect 244 0 253 0;
#X connect 245 0 249 0;
#X connect 246 0 251 0;
#X connect 246 1 247 0;
#X connect 247 0 249 0;
#X connect 248 0 11 0;
#X connect 249 0 250 0;
#X connect 249 0 27 0;
#X connect 249 0 252 0;
#X connect 250 0 249 1;
#X connect 251 0 245 0;
#X connect 252 0 251 0;
#X connect 253 0 204 0;
#X connect 253 0 205 0;
#X connect 253 0 206 0;
#X connect 253 0 207 0;
#X connect 253 0 208 0;
#X connect 253 0 209 0;
#X connect 253 0 210 0;
#X connect 253 0 211 0;
#X connect 253 0 212 0;
#X connect 253 0 213 0;
#X connect 253 0 214 0;
#X connect 253 0 215 0;
#X connect 253 0 216 0;
#X connect 253 0 217 0;
#X connect 253 0 218 0;
#X connect 253 0 219 0;
#X connect 254 0 229 1;
#X connect 254 0 228 1;
#X connect 254 0 230 1;
#X connect 254 0 231 1;
#X connect 255 0 257 0;
#X connect 257 0 258 0;
#X coords 0 1 100 -1 660 350 1 0 0;
#X restore 75 -313 graph;
#N canvas 0 22 450 300 (subpatch) 0;
#X obj 59 155 inlet;
#X obj 3 89 inlet~;
#X obj 58 182 change;
#X msg 60 246 set \$1;
#X obj 60 227 tosymbol;
#X obj 59 204 sprintf Bus%d;
#X obj 3 282 throw~ Bus0;
#X obj 2 3 popup 124 25 #ffffff popup Bus0 Bus1 Bus2 Bus3 Bus4 Bus5
Bus6 Bus7 Bus8 Bus9 Bus10 Bus11 Bus12 Bus13 Bus14 Bus15 Bus16;
#X obj 1 32 route bang;
#X obj 154 202 *~;
#X obj 141 7 tgl 15 0 empty empty Dac 19 7 0 10 -262144 -1 -1 1 1;
#X obj 155 238 dac~;
#X obj 1 -41 loadbang;
#X text 59 -43 Bus0 mutes;
#X msg 1 -23 options Bus0 Bus1 Bus2 Bus3 Bus4 Bus5 Bus6 Bus7 Bus8 Bus9
Bus10 Bus11 Bus12 Bus13 Bus14 Bus15 Bus16;
#X connect 0 0 2 0;
#X connect 1 0 6 0;
#X connect 1 0 9 0;
#X connect 2 0 5 0;
#X connect 3 0 6 0;
#X connect 4 0 3 0;
#X connect 5 0 4 0;
#X connect 7 0 8 0;
#X connect 8 1 2 0;
#X connect 9 0 11 0;
#X connect 10 0 9 1;
#X connect 12 0 14 0;
#X connect 14 0 7 0;
#X coords 0 1 100 -1 180 30 1 0 0;
#X restore 75 253 graph;
#N canvas 0 22 450 300 (subpatch) 0;
#X obj 59 155 inlet;
#X obj 3 89 inlet~;
#X obj 58 182 change;
#X msg 60 246 set \$1;
#X obj 60 227 tosymbol;
#X obj 59 204 sprintf Bus%d;
#X obj 3 282 throw~ Bus0;
#X obj 2 3 popup 124 25 #ffffff popup Bus0 Bus1 Bus2 Bus3 Bus4 Bus5
Bus6 Bus7 Bus8 Bus9 Bus10 Bus11 Bus12 Bus13 Bus14 Bus15 Bus16;
#X obj 1 32 route bang;
#X obj 154 202 *~;
#X obj 141 7 tgl 15 0 empty empty Dac 19 7 0 10 -262144 -1 -1 1 1;
#X obj 155 238 dac~;
#X obj 1 -41 loadbang;
#X text 59 -43 Bus0 mutes;
#X msg 1 -23 options Bus0 Bus1 Bus2 Bus3 Bus4 Bus5 Bus6 Bus7 Bus8 Bus9
Bus10 Bus11 Bus12 Bus13 Bus14 Bus15 Bus16;
#X connect 0 0 2 0;
#X connect 1 0 6 0;
#X connect 1 0 9 0;
#X connect 2 0 5 0;
#X connect 3 0 6 0;
#X connect 4 0 3 0;
#X connect 5 0 4 0;
#X connect 7 0 8 0;
#X connect 8 1 2 0;
#X connect 9 0 11 1;
#X connect 10 0 9 1;
#X connect 12 0 14 0;
#X connect 14 0 7 0;
#X coords 0 1 100 -1 180 30 1 0 0;
#X restore 75 286 graph;
#X connect 0 0 3 0;
#X connect 2 0 0 0;
#X connect 3 0 6 0;
#X connect 3 1 7 0;
#X connect 5 0 0 0;
