#N canvas 0 22 773 615 12;
#X declare -path z_shepard_abs;
#X floatatom -216 303 0 0 0 0 - - -;
#X floatatom -296 303 0 0 0 0 - - -;
#X text -402 218 START;
#X floatatom -402 463 0 0 0 0 - - -;
#X obj -402 440 r incr;
#X obj -424 415 metro 50;
#X floatatom -424 533 5 0 0 0 - - -;
#X obj -424 554 s phase;
#X obj -424 510 +;
#X obj -296 326 s dropoff+;
#X obj -150 326 s interval+;
#X floatatom -150 303 0 0 0 0 - - -;
#X obj -216 326 s pitch+;
#X obj -296 280 r dropoff;
#X obj -216 280 r pitch;
#X obj -150 280 r interval;
#X obj -371 393 r metro;
#X obj -383 510 f;
#X floatatom 160 469 0 0 0 0 - - -;
#X obj 160 446 r rev;
#X obj 215 446 r revtime;
#X floatatom 215 469 0 0 0 0 - - -;
#X obj -383 533 mod 10000;
#X obj -424 487 f;
#X obj 117 489 rev2~;
#X obj 23 509 output~;
#X obj -424 395 tgl 15 0 empty empty empty 0 -6 0 8 -262144 -1 -1 0
1;
#X msg -424 237 \; dropoff 10 \; pitch 60 \; interval 120 \; metro
1 \; rev 84 \; revtime 87 \; incr -2 \; pd dsp 1;
#X text -424 5 SHEPARD TONE;
#X text -426 198 updated for Pd version 0.37;
#X text -426 29 This patch is a bank of 20 sinusoids \, arranged so
that their frequencies sweep upward or downward in parallel \, and
their amplitudes fade in and out so that each one is quiet when it
wraps around from one end to the other. The overall "phase" computed
here is added to each voice's relative phase (its creation argument).
The "incr" parameter controlls how fast the phase changes \, "dropoff"
the slope at which the amplitudes fall off at the ends \, "pitch" the
center pitch of the cluster \, "interval" the number of (tenths of
halftones) between successive voices \, and "rev" and "revtime" the
reverberator at bottom.;
#X obj 23 32 z_shepvoice 0;
#X obj 23 55 z_shepvoice 500;
#X obj 23 78 z_shepvoice 1000;
#X obj 23 101 z_shepvoice 1500;
#X obj 23 124 z_shepvoice 2000;
#X obj 23 147 z_shepvoice 2500;
#X obj 23 170 z_shepvoice 3000;
#X obj 23 193 z_shepvoice 3500;
#X obj 23 216 z_shepvoice 4000;
#X obj 23 239 z_shepvoice 4500;
#X obj 23 262 z_shepvoice 5000;
#X obj 23 285 z_shepvoice 5500;
#X obj 23 308 z_shepvoice 6000;
#X obj 23 331 z_shepvoice 6500;
#X obj 23 354 z_shepvoice 7000;
#X obj 23 377 z_shepvoice 7500;
#X obj 23 400 z_shepvoice 8000;
#X obj 23 423 z_shepvoice 8500;
#X obj 23 446 z_shepvoice 9000;
#X obj 23 469 z_shepvoice 9500;
#N canvas 0 22 450 300 (subpatch) 0;
#X obj 59 155 inlet;
#X obj 3 89 inlet~;
#X obj 58 182 change;
#X msg 60 246 set \$1;
#X obj 60 227 tosymbol;
#X obj 59 204 sprintf Bus%d;
#X obj 3 282 throw~ Bus0;
#X obj 2 3 popup 124 25 #ffffff popup Bus0 Bus1 Bus2 Bus3 Bus4 Bus5
Bus6 Bus7 Bus8 Bus9 Bus10 Bus11 Bus12 Bus13 Bus14 Bus15 Bus16;
#X obj 1 32 route bang;
#X obj 154 202 *~;
#X obj 141 7 tgl 15 0 empty empty Dac 19 7 0 10 -262144 -1 -1 0 1;
#X obj 155 238 dac~;
#X obj -4 -51 loadbang;
#X text 58 -52 Bus0 mutes;
#X msg 0 -32 options Bus0 Bus1 Bus2 Bus3 Bus4 Bus5 Bus6 Bus7 Bus8 Bus9
Bus10 Bus11 Bus12 Bus13 Bus14 Bus15 Bus16;
#X connect 0 0 2 0;
#X connect 1 0 6 0;
#X connect 1 0 9 0;
#X connect 2 0 5 0;
#X connect 3 0 6 0;
#X connect 4 0 3 0;
#X connect 5 0 4 0;
#X connect 7 0 8 0;
#X connect 8 1 2 0;
#X connect 9 0 11 0;
#X connect 9 0 11 1;
#X connect 10 0 9 1;
#X connect 12 0 14 0;
#X connect 14 0 7 0;
#X coords 0 1 100 -1 180 30 1 0 0;
#X restore 23 553 graph;
#X obj 25 588 declare -path z_shepard_abs;
#X connect 0 0 12 0;
#X connect 1 0 9 0;
#X connect 3 0 23 1;
#X connect 4 0 3 0;
#X connect 5 0 23 0;
#X connect 6 0 7 0;
#X connect 8 0 17 0;
#X connect 8 0 6 0;
#X connect 11 0 10 0;
#X connect 13 0 1 0;
#X connect 14 0 0 0;
#X connect 15 0 11 0;
#X connect 16 0 5 1;
#X connect 17 0 22 0;
#X connect 18 0 24 1;
#X connect 19 0 18 0;
#X connect 20 0 21 0;
#X connect 21 0 24 2;
#X connect 22 0 8 1;
#X connect 23 0 8 0;
#X connect 24 0 25 0;
#X connect 24 1 25 1;
#X connect 25 0 51 0;
#X connect 25 1 51 0;
#X connect 26 0 5 0;
#X connect 31 0 32 0;
#X connect 32 0 33 0;
#X connect 33 0 34 0;
#X connect 34 0 35 0;
#X connect 35 0 36 0;
#X connect 36 0 37 0;
#X connect 37 0 38 0;
#X connect 38 0 39 0;
#X connect 39 0 40 0;
#X connect 40 0 41 0;
#X connect 41 0 42 0;
#X connect 42 0 43 0;
#X connect 43 0 44 0;
#X connect 44 0 45 0;
#X connect 45 0 46 0;
#X connect 46 0 47 0;
#X connect 47 0 48 0;
#X connect 48 0 49 0;
#X connect 49 0 50 0;
#X connect 50 0 24 0;
#X connect 50 0 25 0;
#X connect 50 0 25 1;
