#N canvas 0 22 477 450 10;
#N canvas 0 22 1024 705 (subpatch) 0;
#N canvas 0 22 450 300 (subpatch) 0;
#X array graph-output1 441 float 0;
#X coords 0 1 440 -1 100 100 1;
#X restore 118 73 graph;
#X obj 658 455 metro 80;
#X obj 658 436 tgl 15 0 empty empty empty 0 -6 0 8 -262144 -1 -1 0
1;
#X obj 231 500 *~ 0.2;
#N canvas 0 22 450 300 (subpatch) 0;
#X array wavetable1 128 float 1;
#A 0 -1 -0.984375 -0.96875 -0.953125 -0.9375 -0.921875 -0.90625 -0.890625
-0.875 -0.859375 -0.84375 -0.828125 -0.8125 -0.796875 -0.78125 -0.765625
-0.75 -0.734375 -0.71875 -0.703125 -0.6875 -0.671875 -0.65625 -0.640625
-0.625 -0.609375 -0.59375 -0.578125 -0.5625 -0.546875 -0.53125 -0.515625
-0.5 -0.484375 -0.46875 -0.453125 -0.4375 -0.421875 -0.40625 -0.390625
-0.375 -0.359375 -0.34375 -0.328125 -0.3125 -0.296875 -0.28125 -0.265625
-0.25 -0.234375 -0.21875 -0.203125 -0.1875 -0.171875 -0.15625 -0.140625
-0.125 -0.109375 -0.09375 -0.078125 -0.0625 -0.046875 -0.03125 -0.015625
0 0.015625 0.03125 0.046875 0.0625 0.078125 0.09375 0.109375 0.125
0.140625 0.15625 0.171875 0.1875 0.203125 0.21875 0.234375 0.25 0.265625
0.28125 0.296875 0.3125 0.328125 0.34375 0.359375 0.375 0.390625 0.40625
0.421875 0.4375 0.453125 0.46875 0.484375 0.5 0.515625 0.53125 0.546875
0.5625 0.578125 0.59375 0.609375 0.625 0.640625 0.65625 0.671875 0.6875
0.703125 0.71875 0.734375 0.75 0.765625 0.78125 0.796875 0.8125 0.828125
0.84375 0.859375 0.875 0.890625 0.90625 0.921875 0.9375 0.953125 0.96875
0.984375;
#X coords 0 1 127 -1 100 100 1;
#X restore 7 72 graph;
#X obj 709 279 f;
#X obj 737 279 + 1;
#X obj 709 258 until;
#X obj 709 300 t f f;
#X msg 709 236 128;
#X obj 229 391 osc~ 200;
#X obj 709 321 / 64;
#X obj 709 341 - 1;
#X obj 229 410 *~ 64;
#X obj 229 429 +~ 64;
#X obj 709 362 tabwrite wavetable1;
#X obj 229 449 tabread4~ wavetable1;
#X obj 277 474 s~ graphme1;
#X obj 666 474 r~ graphme1;
#X obj 658 494 tabwrite~ graph-output1;
#X obj 831 260 f;
#X obj 831 239 until;
#X obj 831 281 t f f;
#X msg 831 217 128;
#X obj 831 302 / 128;
#X obj 831 342 cos;
#X obj 831 322 * 6.283;
#X obj 953 260 f;
#X obj 981 260 + 1;
#X obj 953 239 until;
#X obj 953 281 t f f;
#X msg 953 217 128;
#X obj 953 302 / 128;
#X obj 953 342 cos;
#X obj 953 322 * 3.14159;
#X obj 831 362 tabwrite wavetable1;
#X obj 952 362 tabwrite wavetable1;
#X floatatom 238 318 5 0 0 0 - - -;
#X obj 238 295 mtof;
#X obj 238 270 stripnote;
#X obj 403 482 bng 15 250 50 0 empty empty empty 17 7 0 10 -262144
-1 -1;
#X obj 420 547 *~;
#X obj 420 581 *~;
#X obj 445 523 / 100;
#X obj 447 562 line;
#X floatatom 492 540 5 0 0 0 - - -;
#X text 530 539 time offset to adjust volume to velocity;
#N canvas 0 22 450 300 eald~ 0;
#X msg 394 133 bang;
#X floatatom 504 74 5 0 0 0 - - -;
#X floatatom 555 73 5 0 0 0 - - -;
#X floatatom 605 73 5 0 0 0 - - -;
#X text 471 25 "ALD" enveloppe;
#X obj 504 49 inlet;
#X obj 555 48 inlet;
#X obj 605 48 inlet;
#X obj 408 52 inlet;
#X obj 379 432 outlet~;
#X text 633 133 ENVELOPE SECTION;
#X obj 379 346 vline~;
#X msg 352 245 1;
#X obj 352 265 pack f f;
#X obj 352 286 unpack f f;
#X msg 456 246 0;
#X obj 456 267 pack f f f;
#X obj 456 288 unpack f f f;
#X obj 456 225 delay 5;
#X text 102 283 Attack : sends a 1 to get to in A msec;
#X text 529 224 wait the end of the attack;
#X text 538 254 Length+Decay : 0 to get to in D msec \, after L msec
;
#X text 493 74 A;
#X text 544 74 L;
#X text 594 74 D;
#X connect 0 0 12 0;
#X connect 0 0 18 0;
#X connect 1 0 13 1;
#X connect 1 0 18 1;
#X connect 2 0 16 2;
#X connect 3 0 16 1;
#X connect 5 0 1 0;
#X connect 6 0 2 0;
#X connect 7 0 3 0;
#X connect 8 0 0 0;
#X connect 11 0 9 0;
#X connect 12 0 13 0;
#X connect 13 0 14 0;
#X connect 14 0 11 0;
#X connect 14 1 11 1;
#X connect 15 0 16 0;
#X connect 16 0 17 0;
#X connect 17 0 11 0;
#X connect 17 1 11 1;
#X connect 17 2 11 2;
#X connect 18 0 15 0;
#X restore 407 503 pd eald~;
#X obj 535 502 loadbang;
#X msg 535 523 50;
#X obj 446 543 + 0.05;
#X obj 420 604 outlet~;
#X obj 711 188 bng 15 250 50 0 empty empty empty 17 7 0 10 -262144
-1 -1;
#X obj 831 192 bng 15 250 50 0 empty empty empty 17 7 0 10 -262144
-1 -1;
#X obj 953 193 bng 15 250 50 0 empty empty empty 17 7 0 10 -262144
-1 -1;
#X obj 236 232 inlet;
#X obj 291 236 inlet;
#X obj 424 243 inlet;
#X obj 479 247 inlet;
#X obj 528 250 inlet;
#X obj 859 260 + 1;
#X obj 118 5 tgl 15 0 empty empty empty 17 7 0 10 -262144 -1 -1 0 1
;
#X obj 8 6 bng 15 250 50 0 empty empty empty 17 7 0 10 -262144 -1 -1
;
#X obj 8 22 bng 15 250 50 0 empty empty empty 17 7 0 10 -262144 -1
-1;
#X obj 8 38 bng 15 250 50 0 empty empty empty 17 7 0 10 -262144 -1
-1;
#X text 136 4 Toggle Graph;
#X text 24 5 wave1;
#X text 25 21 wave2;
#X text 26 37 wave3;
#X connect 1 0 19 0;
#X connect 2 0 1 0;
#X connect 3 0 41 0;
#X connect 5 0 6 0;
#X connect 5 0 8 0;
#X connect 6 0 5 1;
#X connect 7 0 5 0;
#X connect 8 0 11 0;
#X connect 8 1 15 1;
#X connect 9 0 7 0;
#X connect 10 0 13 0;
#X connect 11 0 12 0;
#X connect 12 0 15 0;
#X connect 13 0 14 0;
#X connect 14 0 16 0;
#X connect 16 0 3 0;
#X connect 16 0 17 0;
#X connect 18 0 19 0;
#X connect 20 0 22 0;
#X connect 20 0 60 0;
#X connect 21 0 20 0;
#X connect 22 0 24 0;
#X connect 22 1 35 1;
#X connect 23 0 21 0;
#X connect 24 0 26 0;
#X connect 25 0 35 0;
#X connect 26 0 25 0;
#X connect 27 0 28 0;
#X connect 27 0 30 0;
#X connect 28 0 27 1;
#X connect 29 0 27 0;
#X connect 30 0 32 0;
#X connect 30 1 36 1;
#X connect 31 0 29 0;
#X connect 32 0 34 0;
#X connect 33 0 36 0;
#X connect 34 0 33 0;
#X connect 37 0 10 0;
#X connect 38 0 37 0;
#X connect 39 0 38 0;
#X connect 39 0 40 0;
#X connect 39 1 43 0;
#X connect 40 0 47 0;
#X connect 40 0 49 0;
#X connect 41 0 42 0;
#X connect 42 0 51 0;
#X connect 43 0 50 0;
#X connect 44 0 42 1;
#X connect 45 0 44 1;
#X connect 47 0 41 1;
#X connect 48 0 49 0;
#X connect 48 0 9 0;
#X connect 49 0 45 0;
#X connect 50 0 44 0;
#X connect 52 0 9 0;
#X connect 53 0 23 0;
#X connect 54 0 31 0;
#X connect 55 0 39 0;
#X connect 56 0 39 1;
#X connect 57 0 47 1;
#X connect 58 0 47 2;
#X connect 59 0 47 3;
#X connect 60 0 20 1;
#X connect 61 0 2 0;
#X connect 62 0 52 0;
#X connect 63 0 53 0;
#X connect 64 0 54 0;
#X coords 0 1 100 -1 225 190 1 0 0;
#X restore 18 101 graph;
#X obj -37 44 notein;
#X floatatom 18 85 5 0 0 0 - - -;
#X floatatom 50 85 5 0 0 0 - - -;
#X floatatom 125 52 5 0 0 0 - - -;
#X floatatom 168 52 5 0 0 0 - - -;
#X floatatom 211 52 5 0 0 0 - - -;
#X floatatom 168 85 5 0 0 0 - - -;
#X floatatom 211 85 5 0 0 0 - - -;
#X obj 168 68 * 10;
#X obj 125 68 * 1;
#X floatatom 125 85 5 0 0 0 - - -;
#X obj 211 68 * 10;
#N canvas 0 22 450 300 (subpatch) 0;
#X obj -30 22 spigot;
#X obj 2 3 tgl 15 0 empty empty empty 17 7 0 10 -262144 -1 -1 0 1;
#X obj -58 0 inlet;
#X obj -54 54 outlet;
#X connect 0 0 3 0;
#X connect 1 0 0 1;
#X connect 2 0 0 0;
#X coords 0 1 100 -1 20 20 1 0 0;
#X restore 18 43 graph;
#N canvas 0 22 450 300 (subpatch) 0;
#X obj -30 22 spigot;
#X obj 2 3 tgl 15 0 empty empty empty 17 7 0 10 -262144 -1 -1 0 1;
#X obj -58 0 inlet;
#X obj -54 54 outlet;
#X connect 0 0 3 0;
#X connect 1 0 0 1;
#X connect 2 0 0 0;
#X coords 0 1 100 -1 20 20 1 0 0;
#X restore 50 43 graph;
#N canvas 0 22 450 300 (subpatch) 0;
#X obj -30 22 spigot;
#X obj 2 3 tgl 15 0 empty empty empty 17 7 0 10 -262144 -1 -1 0 1;
#X obj -58 0 inlet;
#X obj -54 54 outlet;
#X connect 0 0 3 0;
#X connect 1 0 0 1;
#X connect 2 0 0 0;
#X coords 0 1 100 -1 20 20 1 0 0;
#X restore -37 65 graph;
#N canvas 0 22 450 300 (subpatch) 0;
#X obj -30 22 spigot;
#X obj 2 3 tgl 15 0 empty empty empty 17 7 0 10 -262144 -1 -1 0 1;
#X obj -58 0 inlet;
#X obj -54 54 outlet;
#X connect 0 0 3 0;
#X connect 1 0 0 1;
#X connect 2 0 0 0;
#X coords 0 1 100 -1 20 20 1 0 0;
#X restore -17 65 graph;
#X obj 211 23 knob 25 25 0 127 0 0 empty empty empty 0 -8 32 8 -1 -260097
-260097 0 1;
#X obj 168 23 knob 25 25 0 127 0 0 empty empty empty 0 -8 32 8 -1 -260097
-260097 0 1;
#X obj 125 23 knob 25 25 0 127 0 0 empty empty empty 0 -8 32 8 -1 -260097
-260097 0 1;
#N canvas 0 22 450 300 (subpatch) 0;
#X obj -30 22 spigot;
#X obj 2 3 tgl 15 0 empty empty empty 17 7 0 10 -262144 -1 -1 0 1;
#X obj -58 0 inlet;
#X obj -54 54 outlet;
#X connect 0 0 3 0;
#X connect 1 0 0 1;
#X connect 2 0 0 0;
#X coords 0 1 100 -1 20 20 1 0 0;
#X restore 211 0 graph;
#N canvas 0 22 450 300 (subpatch) 0;
#X obj -30 22 spigot;
#X obj 2 3 tgl 15 0 empty empty empty 17 7 0 10 -262144 -1 -1 0 1;
#X obj -58 0 inlet;
#X obj -54 54 outlet;
#X connect 0 0 3 0;
#X connect 1 0 0 1;
#X connect 2 0 0 0;
#X coords 0 1 100 -1 20 20 1 0 0;
#X restore 125 0 graph;
#N canvas 0 22 450 300 (subpatch) 0;
#X obj -30 22 spigot;
#X obj 2 3 tgl 15 0 empty empty empty 17 7 0 10 -262144 -1 -1 0 1;
#X obj -58 0 inlet;
#X obj -54 54 outlet;
#X connect 0 0 3 0;
#X connect 1 0 0 1;
#X connect 2 0 0 0;
#X coords 0 1 100 -1 20 20 1 0 0;
#X restore 168 0 graph;
#X obj 211 -17 ctlin 8;
#X obj 168 -39 ctlin 7;
#X obj 125 -59 ctlin 6;
#N canvas 0 22 450 300 (subpatch) 0;
#X obj 59 155 inlet;
#X obj 3 89 inlet~;
#X obj 58 182 change;
#X msg 60 246 set \$1;
#X obj 60 227 tosymbol;
#X obj 59 204 sprintf Bus%d;
#X obj 3 282 throw~ Bus0;
#X obj 2 3 popup 124 25 #ffffff popup Bus0 Bus1 Bus2 Bus3 Bus4 Bus5
;
#X obj 1 32 route bang;
#X obj 154 202 *~;
#X obj 141 7 tgl 15 0 empty empty Dac 19 7 0 10 -262144 -1 -1 0 1;
#X obj 155 238 dac~;
#X obj 1 -41 loadbang;
#X text 59 -43 Bus0 mutes;
#X msg 1 -23 options Bus0 Bus1 Bus2 Bus3 Bus4 Bus5 Bus6 Bus7 Bus8 Bus9
Bus10 Bus11 Bus12 Bus13 Bus14 Bus15 Bus16;
#X connect 0 0 2 0;
#X connect 1 0 6 0;
#X connect 1 0 9 0;
#X connect 2 0 5 0;
#X connect 3 0 6 0;
#X connect 4 0 3 0;
#X connect 5 0 4 0;
#X connect 7 0 8 0;
#X connect 8 1 2 0;
#X connect 9 0 11 0;
#X connect 9 0 11 1;
#X connect 10 0 9 1;
#X connect 12 0 14 0;
#X connect 14 0 7 0;
#X coords 0 1 100 -1 180 30 1 0 0;
#X restore 18 291 graph;
#X obj 18 -81 r noteTS;
#X obj 50 -61 r velTS;
#X text 179 -58 A;
#X text 219 -37 L;
#X text 261 -17 D;
#X connect 0 0 26 0;
#X connect 1 0 15 0;
#X connect 1 1 16 0;
#X connect 2 0 0 0;
#X connect 3 0 0 1;
#X connect 4 0 10 0;
#X connect 5 0 9 0;
#X connect 6 0 12 0;
#X connect 7 0 0 3;
#X connect 8 0 0 4;
#X connect 9 0 7 0;
#X connect 10 0 11 0;
#X connect 11 0 0 2;
#X connect 12 0 8 0;
#X connect 13 0 2 0;
#X connect 14 0 3 0;
#X connect 15 0 2 0;
#X connect 16 0 3 0;
#X connect 17 0 6 0;
#X connect 18 0 5 0;
#X connect 19 0 4 0;
#X connect 20 0 17 0;
#X connect 21 0 19 0;
#X connect 22 0 18 0;
#X connect 23 0 20 0;
#X connect 24 0 22 0;
#X connect 25 0 21 0;
#X connect 27 0 13 0;
#X connect 28 0 14 0;
