#N canvas 0 22 607 415 10;
#X obj -128 -105 r noteGliss;
#X obj -92 -85 r velGliss;
#X floatatom 142 141 5 0 0 0 - - -;
#X floatatom 179 141 5 0 0 0 - - -;
#X floatatom 217 141 5 0 0 0 - - -;
#X obj 142 34 ctlin 6;
#X obj 179 53 ctlin 7;
#X obj 217 72 ctlin 8;
#X floatatom 179 174 5 0 0 0 - - -;
#X floatatom 217 174 5 0 0 0 - - -;
#X obj 179 157 * 10;
#X obj 142 157 * 1;
#X floatatom 142 174 5 0 0 0 - - -;
#X obj 217 157 * 10;
#X floatatom 29 141 5 0 0 0 - - -;
#X floatatom 29 174 5 0 0 0 - - -;
#X obj 29 157 * 8;
#X obj 29 -22 ctlin 3;
#X floatatom 66 141 5 0 0 0 - - -;
#X floatatom 66 174 5 0 0 0 - - -;
#X obj 66 157 * 8;
#X obj 66 -3 ctlin 4;
#X floatatom 104 141 5 0 0 0 - - -;
#X floatatom 104 174 5 0 0 0 - - -;
#X obj 104 157 * 8;
#X floatatom -47 141 5 0 0 0 - - -;
#X floatatom -47 174 5 0 0 0 - - -;
#X obj -47 157 * 8;
#X floatatom -9 141 5 0 0 0 - - -;
#X floatatom -9 174 5 0 0 0 - - -;
#X obj -9 157 * 8;
#X obj 104 16 ctlin 5;
#X obj -47 -64 ctlin 1;
#X obj -9 -43 ctlin 2;
#N canvas 0 22 824 497 oscGlissCanon_______________ 0;
#X floatatom -109 254 5 0 0 0 - - -;
#X obj -107 332 line;
#X obj -107 353 osc~;
#X obj -117 202 stripnote;
#X obj -109 230 mtof;
#X obj 37 311 bng 15 250 50 0 empty empty empty 17 7 0 10 -262144 -1
-1;
#X obj 54 376 *~;
#X obj -15 585 *~;
#X obj 10 527 / 100;
#X obj 12 566 line;
#X floatatom 57 544 5 0 0 0 - - -;
#N canvas 0 22 450 300 eald~ 0;
#X msg 394 133 bang;
#X floatatom 504 74 5 0 0 0 - - -;
#X floatatom 555 73 5 0 0 0 - - -;
#X floatatom 605 73 5 0 0 0 - - -;
#X text 471 25 "ALD" enveloppe;
#X obj 504 49 inlet;
#X obj 555 48 inlet;
#X obj 605 48 inlet;
#X obj 408 52 inlet;
#X obj 379 432 outlet~;
#X text 633 133 ENVELOPE SECTION;
#X obj 379 346 vline~;
#X msg 352 245 1;
#X obj 352 265 pack f f;
#X obj 352 286 unpack f f;
#X msg 456 246 0;
#X obj 456 267 pack f f f;
#X obj 456 288 unpack f f f;
#X obj 456 225 delay 5;
#X text 102 283 Attack : sends a 1 to get to in A msec;
#X text 529 224 wait the end of the attack;
#X text 538 254 Length+Decay : 0 to get to in D msec \, after L msec
;
#X text 493 74 A;
#X text 544 74 L;
#X text 594 74 D;
#X connect 0 0 12 0;
#X connect 0 0 18 0;
#X connect 1 0 13 1;
#X connect 1 0 18 1;
#X connect 2 0 16 2;
#X connect 3 0 16 1;
#X connect 5 0 1 0;
#X connect 6 0 2 0;
#X connect 7 0 3 0;
#X connect 8 0 0 0;
#X connect 11 0 9 0;
#X connect 12 0 13 0;
#X connect 13 0 14 0;
#X connect 14 0 11 0;
#X connect 14 1 11 1;
#X connect 15 0 16 0;
#X connect 16 0 17 0;
#X connect 17 0 11 0;
#X connect 17 1 11 1;
#X connect 17 2 11 2;
#X connect 18 0 15 0;
#X restore 41 332 pd eald~;
#X obj 100 506 loadbang;
#X obj 11 547 + 0.05;
#X obj -107 279 pack f f;
#X msg 100 527 1000;
#X obj -107 302 unpack f f;
#X floatatom 244 252 5 0 0 0 - - -;
#X obj 246 330 line;
#X obj 246 351 osc~;
#X floatatom 390 213 5 0 0 0 - - -;
#X floatatom 441 212 5 0 0 0 - - -;
#X floatatom 491 212 5 0 0 0 - - -;
#X obj 390 188 ctlin 6;
#X obj 441 187 ctlin 7;
#X obj 491 187 ctlin 8;
#X obj 390 309 bng 15 250 50 0 empty empty empty 17 7 0 10 -262144
-1 -1;
#X floatatom 442 257 5 0 0 0 - - -;
#X floatatom 491 260 5 0 0 0 - - -;
#X obj 407 374 *~;
#X obj 442 235 * 10;
#X obj 391 236 * 1;
#X floatatom 391 257 5 0 0 0 - - -;
#N canvas 0 22 450 300 eald~ 0;
#X msg 394 133 bang;
#X floatatom 504 74 5 0 0 0 - - -;
#X floatatom 555 73 5 0 0 0 - - -;
#X floatatom 605 73 5 0 0 0 - - -;
#X text 471 25 "ALD" enveloppe;
#X obj 504 49 inlet;
#X obj 555 48 inlet;
#X obj 605 48 inlet;
#X obj 408 52 inlet;
#X obj 379 432 outlet~;
#X text 633 133 ENVELOPE SECTION;
#X obj 379 346 vline~;
#X msg 352 245 1;
#X obj 352 265 pack f f;
#X obj 352 286 unpack f f;
#X msg 456 246 0;
#X obj 456 267 pack f f f;
#X obj 456 288 unpack f f f;
#X obj 456 225 delay 5;
#X text 102 283 Attack : sends a 1 to get to in A msec;
#X text 529 224 wait the end of the attack;
#X text 538 254 Length+Decay : 0 to get to in D msec \, after L msec
;
#X text 493 74 A;
#X text 544 74 L;
#X text 594 74 D;
#X connect 0 0 12 0;
#X connect 0 0 18 0;
#X connect 1 0 13 1;
#X connect 1 0 18 1;
#X connect 2 0 16 2;
#X connect 3 0 16 1;
#X connect 5 0 1 0;
#X connect 6 0 2 0;
#X connect 7 0 3 0;
#X connect 8 0 0 0;
#X connect 11 0 9 0;
#X connect 12 0 13 0;
#X connect 13 0 14 0;
#X connect 14 0 11 0;
#X connect 14 1 11 1;
#X connect 15 0 16 0;
#X connect 16 0 17 0;
#X connect 17 0 11 0;
#X connect 17 1 11 1;
#X connect 17 2 11 2;
#X connect 18 0 15 0;
#X restore 394 330 pd eald~;
#X obj 492 237 * 10;
#X obj 246 277 pack f f;
#X obj 246 300 unpack f f;
#X floatatom 576 251 5 0 0 0 - - -;
#X obj 578 329 line;
#X obj 578 350 osc~;
#X floatatom 722 212 5 0 0 0 - - -;
#X floatatom 773 211 5 0 0 0 - - -;
#X floatatom 817 207 5 0 0 0 - - -;
#X obj 722 187 ctlin 6;
#X obj 773 186 ctlin 7;
#X obj 817 182 ctlin 8;
#X obj 722 308 bng 15 250 50 0 empty empty empty 17 7 0 10 -262144
-1 -1;
#X floatatom 774 256 5 0 0 0 - - -;
#X floatatom 818 251 5 0 0 0 - - -;
#X obj 739 373 *~;
#X obj 774 234 * 10;
#X obj 723 235 * 1;
#X floatatom 723 256 5 0 0 0 - - -;
#N canvas 0 22 450 300 eald~ 0;
#X msg 394 133 bang;
#X floatatom 504 74 5 0 0 0 - - -;
#X floatatom 555 73 5 0 0 0 - - -;
#X floatatom 605 73 5 0 0 0 - - -;
#X text 471 25 "ALD" enveloppe;
#X obj 504 49 inlet;
#X obj 555 48 inlet;
#X obj 605 48 inlet;
#X obj 408 52 inlet;
#X obj 379 432 outlet~;
#X text 633 133 ENVELOPE SECTION;
#X obj 379 346 vline~;
#X msg 352 245 1;
#X obj 352 265 pack f f;
#X obj 352 286 unpack f f;
#X msg 456 246 0;
#X obj 456 267 pack f f f;
#X obj 456 288 unpack f f f;
#X obj 456 225 delay 5;
#X text 102 283 Attack : sends a 1 to get to in A msec;
#X text 529 224 wait the end of the attack;
#X text 538 254 Length+Decay : 0 to get to in D msec \, after L msec
;
#X text 493 74 A;
#X text 544 74 L;
#X text 594 74 D;
#X connect 0 0 12 0;
#X connect 0 0 18 0;
#X connect 1 0 13 1;
#X connect 1 0 18 1;
#X connect 2 0 16 2;
#X connect 3 0 16 1;
#X connect 5 0 1 0;
#X connect 6 0 2 0;
#X connect 7 0 3 0;
#X connect 8 0 0 0;
#X connect 11 0 9 0;
#X connect 12 0 13 0;
#X connect 13 0 14 0;
#X connect 14 0 11 0;
#X connect 14 1 11 1;
#X connect 15 0 16 0;
#X connect 16 0 17 0;
#X connect 17 0 11 0;
#X connect 17 1 11 1;
#X connect 17 2 11 2;
#X connect 18 0 15 0;
#X restore 726 329 pd eald~;
#X obj 818 230 * 10;
#X obj 578 276 pack f f;
#X obj 578 299 unpack f f;
#X obj 238 185 pipe;
#X obj 581 188 pipe;
#X obj 241 215 * 2;
#X obj 579 216 * 3;
#X obj -15 608 outlet~;
#X obj -123 172 inlet;
#X obj -74 176 inlet;
#X obj 319 66 inlet;
#X obj 368 70 inlet;
#X obj 421 65 inlet;
#X obj 474 65 inlet;
#X obj 525 64 inlet;
#X obj 577 65 inlet;
#X obj 624 68 inlet;
#X obj 676 69 inlet;
#X obj 264 279 notein;
#X floatatom 264 305 5 0 0 0 - - -;
#X floatatom 300 305 5 0 0 0 - - -;
#X connect 0 0 14 0;
#X connect 1 0 2 0;
#X connect 2 0 6 0;
#X connect 3 0 4 0;
#X connect 3 0 5 0;
#X connect 3 1 8 0;
#X connect 4 0 0 0;
#X connect 4 0 57 0;
#X connect 4 0 58 0;
#X connect 5 0 10 0;
#X connect 5 0 11 0;
#X connect 6 0 7 0;
#X connect 7 0 61 0;
#X connect 8 0 13 0;
#X connect 9 0 7 1;
#X connect 10 0 9 1;
#X connect 11 0 6 1;
#X connect 12 0 15 0;
#X connect 13 0 9 0;
#X connect 14 0 16 0;
#X connect 15 0 10 0;
#X connect 16 0 1 0;
#X connect 16 0 1 1;
#X connect 17 0 35 0;
#X connect 18 0 19 0;
#X connect 19 0 29 0;
#X connect 20 0 31 0;
#X connect 21 0 30 0;
#X connect 22 0 34 0;
#X connect 23 0 20 0;
#X connect 24 0 21 0;
#X connect 25 0 22 0;
#X connect 26 0 33 0;
#X connect 27 0 33 2;
#X connect 28 0 33 3;
#X connect 29 0 7 0;
#X connect 30 0 27 0;
#X connect 31 0 32 0;
#X connect 32 0 33 1;
#X connect 33 0 29 1;
#X connect 34 0 28 0;
#X connect 35 0 36 0;
#X connect 36 0 18 0;
#X connect 36 0 18 1;
#X connect 37 0 55 0;
#X connect 38 0 39 0;
#X connect 39 0 49 0;
#X connect 40 0 51 0;
#X connect 41 0 50 0;
#X connect 42 0 54 0;
#X connect 43 0 40 0;
#X connect 44 0 41 0;
#X connect 45 0 42 0;
#X connect 46 0 53 0;
#X connect 47 0 53 2;
#X connect 48 0 53 3;
#X connect 49 0 7 0;
#X connect 50 0 47 0;
#X connect 51 0 52 0;
#X connect 52 0 53 1;
#X connect 53 0 49 1;
#X connect 54 0 48 0;
#X connect 55 0 56 0;
#X connect 56 0 38 0;
#X connect 56 0 38 1;
#X connect 57 0 59 0;
#X connect 57 0 26 0;
#X connect 58 0 60 0;
#X connect 58 0 46 0;
#X connect 59 0 17 0;
#X connect 60 0 37 0;
#X connect 62 0 3 0;
#X connect 63 0 3 1;
#X connect 64 0 57 1;
#X connect 65 0 58 1;
#X connect 66 0 14 1;
#X connect 67 0 35 1;
#X connect 68 0 55 1;
#X connect 69 0 11 1;
#X connect 70 0 11 2;
#X connect 71 0 11 2;
#X connect 72 0 73 0;
#X connect 72 1 74 0;
#X restore -128 190 pd oscGlissCanon_______________;
#X text 10 -65 Time Offset between 1st and 2nd note;
#X text 40 -43 Time Offset between 2nd and 3rd note;
#X text 78 -24 Gliss time 1;
#X text 118 -2 Gliss time 2;
#X text 156 16 Gliss time 3;
#X text 192 33 Attack;
#X text 265 70 Decay;
#X text 232 52 Length;
#X obj -187 134 notein;
#X floatatom -128 174 5 0 0 0 - - -;
#X floatatom -92 174 5 0 0 0 - - -;
#N canvas 0 22 450 300 (subpatch) 0;
#X obj 59 155 inlet;
#X obj 3 89 inlet~;
#X obj 58 182 change;
#X msg 60 246 set \$1;
#X obj 60 227 tosymbol;
#X obj 59 204 sprintf Bus%d;
#X obj 3 282 throw~ Bus0;
#X obj 2 3 popup 124 25 #ffffff popup Bus0 Bus1 Bus2 Bus3 Bus4 Bus5
;
#X obj 1 32 route bang;
#X obj 154 202 *~;
#X obj 141 7 tgl 15 0 empty empty Dac 19 7 0 10 -262144 -1 -1 0 1;
#X obj 155 238 dac~;
#X obj 5 -65 loadbang;
#X text 63 -67 Bus0 mutes;
#X msg 5 -47 options Bus0 Bus1 Bus2 Bus3 Bus4 Bus5 Bus6 Bus7 Bus8 Bus9
Bus10 Bus11 Bus12 Bus13 Bus14 Bus15 Bus16;
#X connect 0 0 2 0;
#X connect 1 0 6 0;
#X connect 1 0 9 0;
#X connect 2 0 5 0;
#X connect 3 0 6 0;
#X connect 4 0 3 0;
#X connect 5 0 4 0;
#X connect 7 0 8 0;
#X connect 8 1 2 0;
#X connect 9 0 11 0;
#X connect 9 0 11 1;
#X connect 10 0 9 1;
#X connect 12 0 14 0;
#X connect 14 0 7 0;
#X coords 0 1 100 -1 180 30 1 0 0;
#X restore -128 207 graph;
#X obj 217 112 knob 25 25 0 127 0 0 empty empty empty 0 -8 32 8 -1
-260097 -260097 0 1;
#X obj 179 112 knob 25 25 0 127 0 0 empty empty empty 0 -8 32 8 -1
-260097 -260097 0 1;
#X obj 142 112 knob 25 25 0 127 0 0 empty empty empty 0 -8 32 8 -1
-260097 -260097 0 1;
#X obj 104 112 knob 25 25 0 127 0 0 empty empty empty 0 -8 32 8 -1
-260097 -260097 0 1;
#X obj 67 112 knob 25 25 0 127 0 0 empty empty empty 0 -8 32 8 -1 -260097
-260097 0 1;
#X obj 29 112 knob 25 25 0 127 0 0 empty empty empty 0 -8 32 8 -1 -260097
-260097 0 1;
#X obj -9 112 knob 25 25 0 127 0 0 empty empty empty 0 -8 32 8 -1 -260097
-260097 0 1;
#X obj -47 112 knob 25 25 0 127 0 0 empty empty empty 0 -8 32 8 -1
-260097 -260097 0 1;
#N canvas 0 22 450 300 (subpatch) 0;
#X obj -30 22 spigot;
#X obj 2 3 tgl 15 0 empty empty empty 17 7 0 10 -262144 -1 -1 0 1;
#X obj -58 0 inlet;
#X obj -54 54 outlet;
#X connect 0 0 3 0;
#X connect 1 0 0 1;
#X connect 2 0 0 0;
#X coords 0 1 100 -1 20 20 1 0 0;
#X restore 142 89 graph;
#N canvas 0 22 450 300 (subpatch) 0;
#X obj -30 22 spigot;
#X obj 2 3 tgl 15 0 empty empty empty 17 7 0 10 -262144 -1 -1 0 1;
#X obj -58 0 inlet;
#X obj -54 54 outlet;
#X connect 0 0 3 0;
#X connect 1 0 0 1;
#X connect 2 0 0 0;
#X coords 0 1 100 -1 20 20 1 0 0;
#X restore 179 89 graph;
#N canvas 0 22 450 300 (subpatch) 0;
#X obj -30 22 spigot;
#X obj 2 3 tgl 15 0 empty empty empty 17 7 0 10 -262144 -1 -1 0 1;
#X obj -58 0 inlet;
#X obj -54 54 outlet;
#X connect 0 0 3 0;
#X connect 1 0 0 1;
#X connect 2 0 0 0;
#X coords 0 1 100 -1 20 20 1 0 0;
#X restore 217 89 graph;
#N canvas 0 22 450 300 (subpatch) 0;
#X obj -30 22 spigot;
#X obj 2 3 tgl 15 0 empty empty empty 17 7 0 10 -262144 -1 -1 0 1;
#X obj -58 0 inlet;
#X obj -54 54 outlet;
#X connect 0 0 3 0;
#X connect 1 0 0 1;
#X connect 2 0 0 0;
#X coords 0 1 100 -1 20 20 1 0 0;
#X restore 29 89 graph;
#N canvas 0 22 450 300 (subpatch) 0;
#X obj -30 22 spigot;
#X obj 2 3 tgl 15 0 empty empty empty 17 7 0 10 -262144 -1 -1 0 1;
#X obj -58 0 inlet;
#X obj -54 54 outlet;
#X connect 0 0 3 0;
#X connect 1 0 0 1;
#X connect 2 0 0 0;
#X coords 0 1 100 -1 20 20 1 0 0;
#X restore 67 89 graph;
#N canvas 0 22 450 300 (subpatch) 0;
#X obj -30 22 spigot;
#X obj 2 3 tgl 15 0 empty empty empty 17 7 0 10 -262144 -1 -1 0 1;
#X obj -58 0 inlet;
#X obj -54 54 outlet;
#X connect 0 0 3 0;
#X connect 1 0 0 1;
#X connect 2 0 0 0;
#X coords 0 1 100 -1 20 20 1 0 0;
#X restore 104 89 graph;
#N canvas 0 22 450 300 (subpatch) 0;
#X obj -30 22 spigot;
#X obj 2 3 tgl 15 0 empty empty empty 17 7 0 10 -262144 -1 -1 0 1;
#X obj -58 0 inlet;
#X obj -54 54 outlet;
#X connect 0 0 3 0;
#X connect 1 0 0 1;
#X connect 2 0 0 0;
#X coords 0 1 100 -1 20 20 1 0 0;
#X restore -92 89 graph;
#N canvas 0 22 450 300 (subpatch) 0;
#X obj -30 22 spigot;
#X obj 2 3 tgl 15 0 empty empty empty 17 7 0 10 -262144 -1 -1 0 1;
#X obj -58 0 inlet;
#X obj -54 54 outlet;
#X connect 0 0 3 0;
#X connect 1 0 0 1;
#X connect 2 0 0 0;
#X coords 0 1 100 -1 20 20 1 0 0;
#X restore -47 89 graph;
#N canvas 0 22 450 300 (subpatch) 0;
#X obj -30 22 spigot;
#X obj 2 3 tgl 15 0 empty empty empty 17 7 0 10 -262144 -1 -1 0 1;
#X obj -58 0 inlet;
#X obj -54 54 outlet;
#X connect 0 0 3 0;
#X connect 1 0 0 1;
#X connect 2 0 0 0;
#X coords 0 1 100 -1 20 20 1 0 0;
#X restore -9 89 graph;
#N canvas 0 22 450 300 (subpatch) 0;
#X obj -30 22 spigot;
#X obj 2 3 tgl 15 0 empty empty empty 17 7 0 10 -262144 -1 -1 0 1;
#X obj -58 0 inlet;
#X obj -54 54 outlet;
#X connect 0 0 3 0;
#X connect 1 0 0 1;
#X connect 2 0 0 0;
#X coords 0 1 100 -1 20 20 1 0 0;
#X restore -187 154 graph;
#N canvas 0 22 450 300 (subpatch) 0;
#X obj -30 22 spigot;
#X obj 2 3 tgl 15 0 empty empty empty 17 7 0 10 -262144 -1 -1 0 1;
#X obj -58 0 inlet;
#X obj -54 54 outlet;
#X connect 0 0 3 0;
#X connect 1 0 0 1;
#X connect 2 0 0 0;
#X coords 0 1 100 -1 20 20 1 0 0;
#X restore -167 154 graph;
#N canvas 0 22 450 300 (subpatch) 0;
#X obj -30 22 spigot;
#X obj 2 3 tgl 15 0 empty empty empty 17 7 0 10 -262144 -1 -1 0 1;
#X obj -58 0 inlet;
#X obj -54 54 outlet;
#X connect 0 0 3 0;
#X connect 1 0 0 1;
#X connect 2 0 0 0;
#X coords 0 1 100 -1 20 20 1 0 0;
#X restore -128 89 graph;
#X connect 0 0 66 0;
#X connect 1 0 61 0;
#X connect 2 0 11 0;
#X connect 3 0 10 0;
#X connect 4 0 13 0;
#X connect 5 0 55 0;
#X connect 6 0 56 0;
#X connect 7 0 57 0;
#X connect 8 0 34 8;
#X connect 9 0 34 9;
#X connect 10 0 8 0;
#X connect 11 0 12 0;
#X connect 12 0 34 7;
#X connect 13 0 9 0;
#X connect 14 0 16 0;
#X connect 15 0 34 4;
#X connect 16 0 15 0;
#X connect 17 0 58 0;
#X connect 18 0 20 0;
#X connect 19 0 34 5;
#X connect 20 0 19 0;
#X connect 21 0 59 0;
#X connect 22 0 24 0;
#X connect 23 0 34 6;
#X connect 24 0 23 0;
#X connect 25 0 27 0;
#X connect 26 0 34 2;
#X connect 27 0 26 0;
#X connect 28 0 30 0;
#X connect 29 0 34 3;
#X connect 30 0 29 0;
#X connect 31 0 60 0;
#X connect 32 0 62 0;
#X connect 33 0 63 0;
#X connect 34 0 46 0;
#X connect 43 0 64 0;
#X connect 43 1 65 0;
#X connect 44 0 34 0;
#X connect 45 0 34 1;
#X connect 47 0 4 0;
#X connect 48 0 3 0;
#X connect 49 0 2 0;
#X connect 50 0 22 0;
#X connect 51 0 18 0;
#X connect 52 0 14 0;
#X connect 53 0 28 0;
#X connect 54 0 25 0;
#X connect 55 0 49 0;
#X connect 56 0 48 0;
#X connect 57 0 47 0;
#X connect 58 0 52 0;
#X connect 59 0 51 0;
#X connect 60 0 50 0;
#X connect 61 0 45 0;
#X connect 62 0 54 0;
#X connect 63 0 53 0;
#X connect 64 0 44 0;
#X connect 65 0 45 0;
#X connect 66 0 44 0;
