#N canvas 0 22 624 470 12;
#X text 362 -46 control line duration;
#X text 186 -129 1st loop duration;
#X text 238 -108 2nd loop duration;
#X text 276 -87 3rd loop duration;
#X text 320 -65 4th loop duration;
#X text 407 -26 Attack;
#X text 445 -5 Length;
#X text 490 17 Decay;
#N canvas 0 22 919 675 texture_________________________ 0;
#X obj -92 212 line~;
#X obj -92 235 osc~;
#X obj -1 318 delwrite~ buff1 10000;
#X obj 93 414 sig~;
#X floatatom 93 390 5 0 0 0 - - -;
#X obj 94 444 vd~ buff1;
#X obj 93 496 *~;
#X floatatom 114 474 7 0 0 0 - - -;
#X obj 235 413 sig~;
#X floatatom 235 389 5 0 0 0 - - -;
#X obj 236 443 vd~ buff1;
#X obj 235 495 *~;
#X floatatom 256 473 5 0 0 0 - - -;
#X obj 376 414 sig~;
#X floatatom 376 390 5 0 0 0 - - -;
#X obj 377 444 vd~ buff1;
#X obj 376 496 *~;
#X floatatom 397 474 5 0 0 0 - - -;
#X obj 518 413 sig~;
#X floatatom 518 389 5 0 0 0 - - -;
#X obj 519 443 vd~ buff1;
#X obj 518 495 *~;
#X floatatom 539 473 5 0 0 0 - - -;
#X obj 93 607 *~;
#X obj 92 635 hip~ 5;
#X text 91 369 loop duration;
#X text 232 366 loop duration;
#X text 374 366 loop duration;
#X text 518 365 loop duration;
#X text 395 576 total volume;
#X text 339 644 www.pd-tutorial.com;
#X text 338 617 Johannes Kreidler;
#X obj 292 232 loadbang;
#X msg 255 305 0.27;
#X msg 297 305 0.17;
#X msg 339 305 0.17;
#X msg 381 304 0.33;
#X msg 255 277 214;
#X msg 297 277 466;
#X msg 339 277 911;
#X msg 381 276 638;
#X obj -92 136 stripnote;
#X obj -93 162 mtof;
#X obj 225 621 tgl 15 0 empty empty empty 17 7 0 10 -262144 -1 -1 1
1;
#X msg -92 187 \$1;
#X text 292 210 Texture;
#X obj 13 191 bng 15 250 50 0 empty empty empty 17 7 0 10 -262144 -1
-1;
#X obj 30 256 *~;
#X obj 30 290 *~;
#X obj 55 232 / 100;
#X obj 57 271 line;
#X floatatom 102 249 5 0 0 0 - - -;
#N canvas 0 22 450 300 eald~ 0;
#X msg 394 133 bang;
#X floatatom 504 74 5 0 0 0 - - -;
#X floatatom 555 73 5 0 0 0 - - -;
#X floatatom 605 73 5 0 0 0 - - -;
#X text 471 25 "ALD" enveloppe;
#X obj 504 49 inlet;
#X obj 555 48 inlet;
#X obj 605 48 inlet;
#X obj 408 52 inlet;
#X obj 379 432 outlet~;
#X text 633 133 ENVELOPE SECTION;
#X obj 379 346 vline~;
#X msg 352 245 1;
#X obj 352 265 pack f f;
#X obj 352 286 unpack f f;
#X msg 456 246 0;
#X obj 456 267 pack f f f;
#X obj 456 288 unpack f f f;
#X obj 456 225 delay 5;
#X text 102 283 Attack : sends a 1 to get to in A msec;
#X text 529 224 wait the end of the attack;
#X text 538 254 Length+Decay : 0 to get to in D msec \, after L msec
;
#X text 493 74 A;
#X text 544 74 L;
#X text 594 74 D;
#X connect 0 0 12 0;
#X connect 0 0 18 0;
#X connect 1 0 13 1;
#X connect 1 0 18 1;
#X connect 2 0 16 2;
#X connect 3 0 16 1;
#X connect 5 0 1 0;
#X connect 6 0 2 0;
#X connect 7 0 3 0;
#X connect 8 0 0 0;
#X connect 11 0 9 0;
#X connect 12 0 13 0;
#X connect 13 0 14 0;
#X connect 14 0 11 0;
#X connect 14 1 11 1;
#X connect 15 0 16 0;
#X connect 16 0 17 0;
#X connect 17 0 11 0;
#X connect 17 1 11 1;
#X connect 17 2 11 2;
#X connect 18 0 15 0;
#X restore 17 212 pd eald~;
#X obj 145 211 loadbang;
#X obj 56 252 + 0.05;
#X msg 145 232 1000;
#X obj -92 98 inlet;
#X obj -35 97 inlet;
#X obj 158 111 inlet;
#X obj 215 110 inlet;
#X obj 281 109 inlet;
#X obj 338 108 inlet;
#X obj 391 109 inlet;
#X obj 448 108 inlet;
#X obj 502 107 inlet;
#X obj 559 106 inlet;
#X obj 93 668 outlet~;
#X msg 422 284 1;
#X connect 0 0 1 0;
#X connect 1 0 47 0;
#X connect 3 0 5 0;
#X connect 4 0 3 0;
#X connect 5 0 6 0;
#X connect 6 0 23 0;
#X connect 6 0 2 0;
#X connect 7 0 6 1;
#X connect 8 0 10 0;
#X connect 9 0 8 0;
#X connect 10 0 11 0;
#X connect 11 0 23 0;
#X connect 11 0 2 0;
#X connect 12 0 11 1;
#X connect 13 0 15 0;
#X connect 14 0 13 0;
#X connect 15 0 16 0;
#X connect 16 0 23 0;
#X connect 16 0 2 0;
#X connect 17 0 16 1;
#X connect 18 0 20 0;
#X connect 19 0 18 0;
#X connect 20 0 21 0;
#X connect 21 0 23 0;
#X connect 21 0 2 0;
#X connect 22 0 21 1;
#X connect 23 0 24 0;
#X connect 24 0 66 0;
#X connect 32 0 37 0;
#X connect 32 0 38 0;
#X connect 32 0 39 0;
#X connect 32 0 40 0;
#X connect 32 0 33 0;
#X connect 32 0 34 0;
#X connect 32 0 35 0;
#X connect 32 0 36 0;
#X connect 32 0 67 0;
#X connect 33 0 7 0;
#X connect 34 0 12 0;
#X connect 35 0 17 0;
#X connect 36 0 22 0;
#X connect 37 0 4 0;
#X connect 38 0 9 0;
#X connect 39 0 14 0;
#X connect 40 0 19 0;
#X connect 41 0 42 0;
#X connect 41 0 46 0;
#X connect 41 1 49 0;
#X connect 42 0 44 0;
#X connect 43 0 23 1;
#X connect 44 0 0 0;
#X connect 46 0 52 0;
#X connect 46 0 55 0;
#X connect 47 0 48 0;
#X connect 48 0 2 0;
#X connect 49 0 54 0;
#X connect 50 0 48 1;
#X connect 51 0 50 1;
#X connect 52 0 47 1;
#X connect 53 0 55 0;
#X connect 54 0 50 0;
#X connect 55 0 51 0;
#X connect 56 0 41 0;
#X connect 57 0 41 1;
#X connect 58 0 4 0;
#X connect 59 0 9 0;
#X connect 60 0 14 0;
#X connect 61 0 19 0;
#X connect 62 0 0 1;
#X connect 63 0 52 1;
#X connect 64 0 52 2;
#X connect 65 0 52 3;
#X connect 67 0 43 0;
#X restore 48 138 pd texture_________________________;
#X obj -7 78 notein;
#X floatatom 48 119 5 0 0 0 - - -;
#X floatatom 80 119 5 0 0 0 - - -;
#X floatatom 127 86 5 0 0 0 - - -;
#X floatatom 170 86 5 0 0 0 - - -;
#X floatatom 215 86 5 0 0 0 - - -;
#X floatatom 259 86 5 0 0 0 - - -;
#X floatatom 303 86 5 0 0 0 - - -;
#X floatatom 346 86 5 0 0 0 - - -;
#X floatatom 389 86 5 0 0 0 - - -;
#X floatatom 432 86 5 0 0 0 - - -;
#X floatatom 389 119 5 0 0 0 - - -;
#X floatatom 432 119 5 0 0 0 - - -;
#X obj 389 102 * 10;
#X obj 346 102 * 1;
#X floatatom 346 119 5 0 0 0 - - -;
#X obj 432 102 * 10;
#X floatatom 127 119 5 0 0 0 - - -;
#X floatatom 170 119 5 0 0 0 - - -;
#X floatatom 215 119 5 0 0 0 - - -;
#X floatatom 259 119 5 0 0 0 - - -;
#X floatatom 303 119 5 0 0 0 - - -;
#N canvas 0 22 450 300 (subpatch) 0;
#X obj -30 22 spigot;
#X obj 2 3 tgl 15 0 empty empty empty 17 7 0 10 -262144 -1 -1 0 1;
#X obj -58 0 inlet;
#X obj -54 54 outlet;
#X connect 0 0 3 0;
#X connect 1 0 0 1;
#X connect 2 0 0 0;
#X coords 0 1 100 -1 20 20 1 0 0;
#X restore 48 77 graph;
#N canvas 0 22 450 300 (subpatch) 0;
#X obj -30 22 spigot;
#X obj 2 3 tgl 15 0 empty empty empty 17 7 0 10 -262144 -1 -1 0 1;
#X obj -58 0 inlet;
#X obj -54 54 outlet;
#X connect 0 0 3 0;
#X connect 1 0 0 1;
#X connect 2 0 0 0;
#X coords 0 1 100 -1 20 20 1 0 0;
#X restore 80 77 graph;
#N canvas 0 22 450 300 (subpatch) 0;
#X obj -30 22 spigot;
#X obj 2 3 tgl 15 0 empty empty empty 17 7 0 10 -262144 -1 -1 0 1;
#X obj -58 0 inlet;
#X obj -54 54 outlet;
#X connect 0 0 3 0;
#X connect 1 0 0 1;
#X connect 2 0 0 0;
#X coords 0 1 100 -1 20 20 1 0 0;
#X restore -7 99 graph;
#N canvas 0 22 450 300 (subpatch) 0;
#X obj -30 22 spigot;
#X obj 2 3 tgl 15 0 empty empty empty 17 7 0 10 -262144 -1 -1 0 1;
#X obj -58 0 inlet;
#X obj -54 54 outlet;
#X connect 0 0 3 0;
#X connect 1 0 0 1;
#X connect 2 0 0 0;
#X coords 0 1 100 -1 20 20 1 0 0;
#X restore 13 99 graph;
#X obj 432 57 knob 25 25 0 127 0 0 empty empty empty 0 -8 32 8 -1 -260097
-260097 0 1;
#X obj 389 57 knob 25 25 0 127 0 0 empty empty empty 0 -8 32 8 -1 -260097
-260097 0 1;
#X obj 346 57 knob 25 25 0 127 0 0 empty empty empty 0 -8 32 8 -1 -260097
-260097 0 1;
#X obj 303 57 knob 25 25 0 127 0 0 empty empty empty 0 -8 32 8 -1 -260097
-260097 0 1;
#X obj 259 57 knob 25 25 0 127 0 0 empty empty empty 0 -8 32 8 -1 -260097
-260097 0 1;
#X obj 215 57 knob 25 25 0 127 0 0 empty empty empty 0 -8 32 8 -1 -260097
-260097 0 1;
#X obj 170 57 knob 25 25 0 127 0 0 empty empty empty 0 -8 32 8 -1 -260097
-260097 0 1;
#X obj 127 57 knob 25 25 0 127 0 0 empty empty empty 0 -8 32 8 -1 -260097
-260097 0 1;
#N canvas 0 22 450 300 (subpatch) 0;
#X obj -30 22 spigot;
#X obj 2 3 tgl 15 0 empty empty empty 17 7 0 10 -262144 -1 -1 0 1;
#X obj -58 0 inlet;
#X obj -54 54 outlet;
#X connect 0 0 3 0;
#X connect 1 0 0 1;
#X connect 2 0 0 0;
#X coords 0 1 100 -1 20 20 1 0 0;
#X restore 127 34 graph;
#N canvas 0 22 450 300 (subpatch) 0;
#X obj -30 22 spigot;
#X obj 2 3 tgl 15 0 empty empty empty 17 7 0 10 -262144 -1 -1 0 1;
#X obj -58 0 inlet;
#X obj -54 54 outlet;
#X connect 0 0 3 0;
#X connect 1 0 0 1;
#X connect 2 0 0 0;
#X coords 0 1 100 -1 20 20 1 0 0;
#X restore 170 34 graph;
#N canvas 0 22 450 300 (subpatch) 0;
#X obj -30 22 spigot;
#X obj 2 3 tgl 15 0 empty empty empty 17 7 0 10 -262144 -1 -1 0 1;
#X obj -58 0 inlet;
#X obj -54 54 outlet;
#X connect 0 0 3 0;
#X connect 1 0 0 1;
#X connect 2 0 0 0;
#X coords 0 1 100 -1 20 20 1 0 0;
#X restore 432 34 graph;
#N canvas 0 22 450 300 (subpatch) 0;
#X obj -30 22 spigot;
#X obj 2 3 tgl 15 0 empty empty empty 17 7 0 10 -262144 -1 -1 0 1;
#X obj -58 0 inlet;
#X obj -54 54 outlet;
#X connect 0 0 3 0;
#X connect 1 0 0 1;
#X connect 2 0 0 0;
#X coords 0 1 100 -1 20 20 1 0 0;
#X restore 215 34 graph;
#N canvas 0 22 450 300 (subpatch) 0;
#X obj -30 22 spigot;
#X obj 2 3 tgl 15 0 empty empty empty 17 7 0 10 -262144 -1 -1 0 1;
#X obj -58 0 inlet;
#X obj -54 54 outlet;
#X connect 0 0 3 0;
#X connect 1 0 0 1;
#X connect 2 0 0 0;
#X coords 0 1 100 -1 20 20 1 0 0;
#X restore 259 34 graph;
#N canvas 0 22 450 300 (subpatch) 0;
#X obj -30 22 spigot;
#X obj 2 3 tgl 15 0 empty empty empty 17 7 0 10 -262144 -1 -1 0 1;
#X obj -58 0 inlet;
#X obj -54 54 outlet;
#X connect 0 0 3 0;
#X connect 1 0 0 1;
#X connect 2 0 0 0;
#X coords 0 1 100 -1 20 20 1 0 0;
#X restore 303 34 graph;
#N canvas 0 22 450 300 (subpatch) 0;
#X obj -30 22 spigot;
#X obj 2 3 tgl 15 0 empty empty empty 17 7 0 10 -262144 -1 -1 0 1;
#X obj -58 0 inlet;
#X obj -54 54 outlet;
#X connect 0 0 3 0;
#X connect 1 0 0 1;
#X connect 2 0 0 0;
#X coords 0 1 100 -1 20 20 1 0 0;
#X restore 346 34 graph;
#N canvas 0 22 450 300 (subpatch) 0;
#X obj -30 22 spigot;
#X obj 2 3 tgl 15 0 empty empty empty 17 7 0 10 -262144 -1 -1 0 1;
#X obj -58 0 inlet;
#X obj -54 54 outlet;
#X connect 0 0 3 0;
#X connect 1 0 0 1;
#X connect 2 0 0 0;
#X coords 0 1 100 -1 20 20 1 0 0;
#X restore 389 34 graph;
#X obj 432 17 ctlin 8;
#X obj 389 -5 ctlin 7;
#X obj 346 -25 ctlin 6;
#X obj 303 -45 ctlin 5;
#X obj 259 -66 ctlin 4;
#X obj 215 -86 ctlin 3;
#X obj 170 -106 ctlin 2;
#X obj 127 -127 ctlin 1;
#N canvas 0 22 450 300 (subpatch) 0;
#X obj 59 155 inlet;
#X obj 3 89 inlet~;
#X obj 58 182 change;
#X msg 60 246 set \$1;
#X obj 60 227 tosymbol;
#X obj 59 204 sprintf Bus%d;
#X obj 3 282 throw~ Bus0;
#X obj 2 3 popup 124 25 #ffffff popup Bus0 Bus1 Bus2 Bus3 Bus4 Bus5
Bus6 Bus7 Bus8 Bus9 Bus10 Bus11 Bus12 Bus13 Bus14 Bus15 Bus16;
#X obj 1 32 route bang;
#X obj 154 202 *~;
#X obj 141 7 tgl 15 0 empty empty Dac 19 7 0 10 -262144 -1 -1 0 1;
#X obj 155 238 dac~;
#X obj 1 -41 loadbang;
#X text 59 -43 Bus0 mutes;
#X msg 1 -23 options Bus0 Bus1 Bus2 Bus3 Bus4 Bus5 Bus6 Bus7 Bus8 Bus9
Bus10 Bus11 Bus12 Bus13 Bus14 Bus15 Bus16;
#X connect 0 0 2 0;
#X connect 1 0 6 0;
#X connect 1 0 9 0;
#X connect 2 0 5 0;
#X connect 3 0 6 0;
#X connect 4 0 3 0;
#X connect 5 0 4 0;
#X connect 7 0 8 0;
#X connect 8 1 2 0;
#X connect 9 0 11 0;
#X connect 9 0 11 1;
#X connect 10 0 9 1;
#X connect 12 0 14 0;
#X connect 14 0 7 0;
#X coords 0 1 100 -1 180 30 1 0 0;
#X restore 48 158 graph;
#X obj 48 -167 r noteText;
#X obj 80 -147 r velText;
#X obj 127 102 * 10;
#X obj 170 102 * 10;
#X obj 215 102 * 10;
#X obj 259 102 * 10;
#X obj 303 102 * 50;
#X connect 8 0 59 0;
#X connect 9 0 33 0;
#X connect 9 1 34 0;
#X connect 10 0 8 0;
#X connect 11 0 8 1;
#X connect 12 0 62 0;
#X connect 13 0 63 0;
#X connect 14 0 64 0;
#X connect 15 0 65 0;
#X connect 16 0 66 0;
#X connect 17 0 23 0;
#X connect 18 0 22 0;
#X connect 19 0 25 0;
#X connect 20 0 8 8;
#X connect 21 0 8 9;
#X connect 22 0 20 0;
#X connect 23 0 24 0;
#X connect 24 0 8 7;
#X connect 25 0 21 0;
#X connect 26 0 8 2;
#X connect 27 0 8 3;
#X connect 28 0 8 4;
#X connect 29 0 8 5;
#X connect 30 0 8 6;
#X connect 31 0 10 0;
#X connect 32 0 11 0;
#X connect 33 0 10 0;
#X connect 34 0 11 0;
#X connect 35 0 19 0;
#X connect 36 0 18 0;
#X connect 37 0 17 0;
#X connect 38 0 16 0;
#X connect 39 0 15 0;
#X connect 40 0 14 0;
#X connect 41 0 13 0;
#X connect 42 0 12 0;
#X connect 43 0 42 0;
#X connect 44 0 41 0;
#X connect 45 0 35 0;
#X connect 46 0 40 0;
#X connect 47 0 39 0;
#X connect 48 0 38 0;
#X connect 49 0 37 0;
#X connect 50 0 36 0;
#X connect 51 0 45 0;
#X connect 52 0 50 0;
#X connect 53 0 49 0;
#X connect 54 0 48 0;
#X connect 55 0 47 0;
#X connect 56 0 46 0;
#X connect 57 0 44 0;
#X connect 58 0 43 0;
#X connect 60 0 31 0;
#X connect 61 0 32 0;
#X connect 62 0 26 0;
#X connect 63 0 27 0;
#X connect 64 0 28 0;
#X connect 65 0 29 0;
#X connect 66 0 30 0;
