#N canvas 0 22 590 522 10;
#X text 252 43 Factor 2nd osc freq;
#X text 301 64 Vol 2nd osc freq;
#X text 346 86 Attack;
#X text 383 104 Length;
#X text 436 125 Decay;
#X obj 62 187 notein;
#X floatatom 117 228 5 0 0 0 - - -;
#X floatatom 149 228 5 0 0 0 - - -;
#X floatatom 202 195 5 0 0 0 - - -;
#X floatatom 246 195 5 0 0 0 - - -;
#X floatatom 289 195 5 0 0 0 - - -;
#X floatatom 332 195 5 0 0 0 - - -;
#X floatatom 375 195 5 0 0 0 - - -;
#X floatatom 332 228 5 0 0 0 - - -;
#X floatatom 375 228 5 0 0 0 - - -;
#X obj 332 211 * 10;
#X obj 289 211 * 1;
#X floatatom 289 228 5 0 0 0 - - -;
#X obj 375 211 * 10;
#X floatatom 202 228 5 0 0 0 - - -;
#X floatatom 246 228 5 0 0 0 - - -;
#X obj 202 211 / 127;
#X obj 246 211 / 127;
#N canvas 0 22 450 300 (subpatch) 0;
#X obj -30 22 spigot;
#X obj 2 3 tgl 15 0 empty empty empty 17 7 0 10 -262144 -1 -1 0 1;
#X obj -58 0 inlet;
#X obj -54 54 outlet;
#X connect 0 0 3 0;
#X connect 1 0 0 1;
#X connect 2 0 0 0;
#X coords 0 1 100 -1 20 20 1 0 0;
#X restore 117 186 graph;
#N canvas 0 22 450 300 (subpatch) 0;
#X obj -30 22 spigot;
#X obj 2 3 tgl 15 0 empty empty empty 17 7 0 10 -262144 -1 -1 0 1;
#X obj -58 0 inlet;
#X obj -54 54 outlet;
#X connect 0 0 3 0;
#X connect 1 0 0 1;
#X connect 2 0 0 0;
#X coords 0 1 100 -1 20 20 1 0 0;
#X restore 149 186 graph;
#N canvas 0 22 450 300 (subpatch) 0;
#X obj -30 22 spigot;
#X obj 2 3 tgl 15 0 empty empty empty 17 7 0 10 -262144 -1 -1 0 1;
#X obj -58 0 inlet;
#X obj -54 54 outlet;
#X connect 0 0 3 0;
#X connect 1 0 0 1;
#X connect 2 0 0 0;
#X coords 0 1 100 -1 20 20 1 0 0;
#X restore 62 208 graph;
#N canvas 0 22 450 300 (subpatch) 0;
#X obj -30 22 spigot;
#X obj 2 3 tgl 15 0 empty empty empty 17 7 0 10 -262144 -1 -1 0 1;
#X obj -58 0 inlet;
#X obj -54 54 outlet;
#X connect 0 0 3 0;
#X connect 1 0 0 1;
#X connect 2 0 0 0;
#X coords 0 1 100 -1 20 20 1 0 0;
#X restore 82 208 graph;
#X obj 375 166 knob 25 25 0 127 0 0 empty empty empty 0 -8 32 8 -1
-260097 -260097 0 1;
#X obj 332 166 knob 25 25 0 127 0 0 empty empty empty 0 -8 32 8 -1
-260097 -260097 0 1;
#X obj 289 166 knob 25 25 0 127 0 0 empty empty empty 0 -8 32 8 -1
-260097 -260097 0 1;
#X obj 246 166 knob 25 25 0 127 0 0 empty empty empty 0 -8 32 8 -1
-260097 -260097 0 1;
#X obj 202 166 knob 25 25 0 127 0 0 empty empty empty 0 -8 32 8 -1
-260097 -260097 0 1;
#N canvas 0 22 450 300 (subpatch) 0;
#X obj -30 22 spigot;
#X obj 2 3 tgl 15 0 empty empty empty 17 7 0 10 -262144 -1 -1 0 1;
#X obj -58 0 inlet;
#X obj -54 54 outlet;
#X connect 0 0 3 0;
#X connect 1 0 0 1;
#X connect 2 0 0 0;
#X coords 0 1 100 -1 20 20 1 0 0;
#X restore 375 143 graph;
#N canvas 0 22 450 300 (subpatch) 0;
#X obj -30 22 spigot;
#X obj 2 3 tgl 15 0 empty empty empty 17 7 0 10 -262144 -1 -1 0 1;
#X obj -58 0 inlet;
#X obj -54 54 outlet;
#X connect 0 0 3 0;
#X connect 1 0 0 1;
#X connect 2 0 0 0;
#X coords 0 1 100 -1 20 20 1 0 0;
#X restore 202 143 graph;
#N canvas 0 22 450 300 (subpatch) 0;
#X obj -30 22 spigot;
#X obj 2 3 tgl 15 0 empty empty empty 17 7 0 10 -262144 -1 -1 0 1;
#X obj -58 0 inlet;
#X obj -54 54 outlet;
#X connect 0 0 3 0;
#X connect 1 0 0 1;
#X connect 2 0 0 0;
#X coords 0 1 100 -1 20 20 1 0 0;
#X restore 246 143 graph;
#N canvas 0 22 450 300 (subpatch) 0;
#X obj -30 22 spigot;
#X obj 2 3 tgl 15 0 empty empty empty 17 7 0 10 -262144 -1 -1 0 1;
#X obj -58 0 inlet;
#X obj -54 54 outlet;
#X connect 0 0 3 0;
#X connect 1 0 0 1;
#X connect 2 0 0 0;
#X coords 0 1 100 -1 20 20 1 0 0;
#X restore 289 143 graph;
#N canvas 0 22 450 300 (subpatch) 0;
#X obj -30 22 spigot;
#X obj 2 3 tgl 15 0 empty empty empty 17 7 0 10 -262144 -1 -1 0 1;
#X obj -58 0 inlet;
#X obj -54 54 outlet;
#X connect 0 0 3 0;
#X connect 1 0 0 1;
#X connect 2 0 0 0;
#X coords 0 1 100 -1 20 20 1 0 0;
#X restore 332 143 graph;
#X obj 375 126 ctlin 8;
#X obj 332 104 ctlin 7;
#X obj 289 84 ctlin 6;
#X obj 246 64 ctlin 5;
#X obj 202 43 ctlin 4;
#N canvas 0 22 450 300 (subpatch) 0;
#X obj 59 155 inlet;
#X obj 3 89 inlet~;
#X obj 58 182 change;
#X msg 60 246 set \$1;
#X obj 60 227 tosymbol;
#X obj 59 204 sprintf Bus%d;
#X obj 3 282 throw~ Bus0;
#X obj 2 3 popup 124 25 #ffffff popup Bus0 Bus1 Bus2 Bus3 Bus4 Bus5
;
#X obj 1 32 route bang;
#X obj 154 202 *~;
#X obj 141 7 tgl 15 0 empty empty Dac 19 7 0 10 -262144 -1 -1 0 1;
#X obj 155 238 dac~;
#X obj 1 -41 loadbang;
#X text 59 -43 Bus0 mutes;
#X msg 1 -23 options Bus0 Bus1 Bus2 Bus3 Bus4 Bus5 Bus6 Bus7 Bus8 Bus9
Bus10 Bus11 Bus12 Bus13 Bus14 Bus15 Bus16;
#X connect 0 0 2 0;
#X connect 1 0 6 0;
#X connect 1 0 9 0;
#X connect 2 0 5 0;
#X connect 3 0 6 0;
#X connect 4 0 3 0;
#X connect 5 0 4 0;
#X connect 7 0 8 0;
#X connect 8 1 2 0;
#X connect 9 0 11 0;
#X connect 9 0 11 1;
#X connect 10 0 9 1;
#X connect 12 0 14 0;
#X connect 14 0 7 0;
#X coords 0 1 100 -1 180 30 1 0 0;
#X restore 117 261 graph;
#N canvas 18 277 450 300 phasemod__________________ 0;
#X obj 56 233 *~;
#X obj 40 258 +~;
#X floatatom 167 204 5 0 0 0 - - -;
#X obj 239 322 *~ 0.8;
#X obj 7 170 phasor~ 200;
#X obj 40 281 cos~;
#X obj 99 171 osc~ 600;
#X obj 29 47 stripnote;
#X obj 18 91 mtof;
#X obj 70 119 * 2;
#X obj 223 201 bng 15 250 50 0 empty empty empty 17 7 0 10 -262144
-1 -1;
#X obj 240 266 *~;
#X obj 240 300 *~;
#X obj 265 242 / 100;
#X obj 267 281 line;
#X floatatom 312 259 5 0 0 0 - - -;
#X text 350 258 time offset to adjust volume to velocity;
#N canvas 0 22 450 300 eald~ 0;
#X msg 394 133 bang;
#X floatatom 504 74 5 0 0 0 - - -;
#X floatatom 555 73 5 0 0 0 - - -;
#X floatatom 605 73 5 0 0 0 - - -;
#X text 471 25 "ALD" enveloppe;
#X obj 504 49 inlet;
#X obj 555 48 inlet;
#X obj 605 48 inlet;
#X obj 408 52 inlet;
#X obj 379 432 outlet~;
#X text 633 133 ENVELOPE SECTION;
#X obj 379 346 vline~;
#X msg 352 245 1;
#X obj 352 265 pack f f;
#X obj 352 286 unpack f f;
#X msg 456 246 0;
#X obj 456 267 pack f f f;
#X obj 456 288 unpack f f f;
#X obj 456 225 delay 5;
#X text 102 283 Attack : sends a 1 to get to in A msec;
#X text 529 224 wait the end of the attack;
#X text 538 254 Length+Decay : 0 to get to in D msec \, after L msec
;
#X text 493 74 A;
#X text 544 74 L;
#X text 594 74 D;
#X connect 0 0 12 0;
#X connect 0 0 18 0;
#X connect 1 0 13 1;
#X connect 1 0 18 1;
#X connect 2 0 16 2;
#X connect 3 0 16 1;
#X connect 5 0 1 0;
#X connect 6 0 2 0;
#X connect 7 0 3 0;
#X connect 8 0 0 0;
#X connect 11 0 9 0;
#X connect 12 0 13 0;
#X connect 13 0 14 0;
#X connect 14 0 11 0;
#X connect 14 1 11 1;
#X connect 15 0 16 0;
#X connect 16 0 17 0;
#X connect 17 0 11 0;
#X connect 17 1 11 1;
#X connect 17 2 11 2;
#X connect 18 0 15 0;
#X restore 227 222 pd eald~;
#X obj 355 221 loadbang;
#X msg 355 242 50;
#X obj 266 262 + 0.05;
#X obj 70 11 inlet;
#X obj 108 13 inlet;
#X obj 174 20 inlet;
#X obj 221 31 inlet;
#X obj 295 26 inlet;
#X obj 305 68 inlet;
#X obj 352 79 inlet;
#X obj 247 357 outlet~;
#X connect 0 0 1 1;
#X connect 1 0 5 0;
#X connect 2 0 0 1;
#X connect 3 0 28 0;
#X connect 4 0 1 0;
#X connect 5 0 11 0;
#X connect 6 0 0 0;
#X connect 7 0 8 0;
#X connect 7 0 10 0;
#X connect 7 1 13 0;
#X connect 8 0 9 0;
#X connect 8 0 4 0;
#X connect 9 0 6 0;
#X connect 10 0 15 0;
#X connect 10 0 17 0;
#X connect 11 0 12 0;
#X connect 12 0 3 0;
#X connect 13 0 20 0;
#X connect 14 0 12 1;
#X connect 15 0 14 1;
#X connect 17 0 11 1;
#X connect 18 0 19 0;
#X connect 19 0 15 0;
#X connect 20 0 14 0;
#X connect 21 0 7 0;
#X connect 22 0 7 1;
#X connect 23 0 9 1;
#X connect 24 0 2 0;
#X connect 25 0 17 1;
#X connect 26 0 17 2;
#X connect 27 0 17 3;
#X restore 117 244 pd phasemod__________________;
#X obj 117 -3 r notephasemod;
#X obj 149 17 r velphasemod;
#X connect 5 0 25 0;
#X connect 5 1 26 0;
#X connect 6 0 43 0;
#X connect 7 0 43 1;
#X connect 8 0 21 0;
#X connect 9 0 22 0;
#X connect 10 0 16 0;
#X connect 11 0 15 0;
#X connect 12 0 18 0;
#X connect 13 0 43 5;
#X connect 14 0 43 6;
#X connect 15 0 13 0;
#X connect 16 0 17 0;
#X connect 17 0 43 4;
#X connect 18 0 14 0;
#X connect 19 0 43 2;
#X connect 20 0 43 3;
#X connect 21 0 19 0;
#X connect 22 0 20 0;
#X connect 23 0 6 0;
#X connect 24 0 7 0;
#X connect 25 0 6 0;
#X connect 26 0 7 0;
#X connect 27 0 12 0;
#X connect 28 0 11 0;
#X connect 29 0 10 0;
#X connect 30 0 9 0;
#X connect 31 0 8 0;
#X connect 32 0 27 0;
#X connect 33 0 31 0;
#X connect 34 0 30 0;
#X connect 35 0 29 0;
#X connect 36 0 28 0;
#X connect 37 0 32 0;
#X connect 38 0 36 0;
#X connect 39 0 35 0;
#X connect 40 0 34 0;
#X connect 41 0 33 0;
#X connect 43 0 42 0;
#X connect 44 0 23 0;
#X connect 45 0 24 0;
