#N canvas 337 209 408 303 10;
#X obj -200 -85 r noteGliss;
#X obj -165 -65 r velGliss;
#X floatatom -91 80 5 0 0 0 - - -;
#X floatatom -52 80 5 0 0 0 - - -;
#X floatatom -14 82 5 0 0 0 - - -;
#X obj -91 -25 ctlin 6;
#X obj -52 -6 ctlin 7;
#X obj -14 13 ctlin 8;
#X floatatom -52 113 5 0 0 0 - - -;
#X floatatom -14 113 5 0 0 0 - - -;
#X obj -52 96 * 10;
#X obj -91 96 * 1;
#X floatatom -91 113 5 0 0 0 - - -;
#X obj -14 96 * 10;
#X floatatom -130 80 5 0 0 0 - - -;
#X floatatom -130 113 5 0 0 0 - - -;
#X obj -130 -46 ctlin 5;
#X obj -130 96 * 8;
#X text -79 -46 Length of the glissando;
#X text -39 -26 Attack;
#X text 4 -5 Decay;
#X text 37 11 Length;
#X obj -247 73 notein;
#X floatatom -200 113 5 0 0 0 - - -;
#X floatatom -165 113 5 0 0 0 - - -;
#N canvas 0 22 450 300 (subpatch) 0;
#X obj 59 155 inlet;
#X obj 3 89 inlet~;
#X obj 58 182 change;
#X msg 60 246 set \$1;
#X obj 60 227 tosymbol;
#X obj 59 204 sprintf Bus%d;
#X obj 3 282 throw~ Bus0;
#X obj 2 3 popup 124 25 #ffffff popup Bus0 Bus1 Bus2 Bus3 Bus4 Bus5
;
#X obj 1 32 route bang;
#X obj 154 202 *~;
#X obj 141 7 tgl 15 0 empty empty Dac 19 7 0 10 -262144 -1 -1 0 1;
#X obj 155 238 dac~;
#X obj 1 -59 loadbang;
#X text 59 -61 Bus0 mutes;
#X msg 1 -41 options Bus0 Bus1 Bus2 Bus3 Bus4 Bus5 Bus6 Bus7 Bus8 Bus9
Bus10 Bus11 Bus12 Bus13 Bus14 Bus15 Bus16;
#X connect 0 0 2 0;
#X connect 1 0 6 0;
#X connect 1 0 9 0;
#X connect 2 0 5 0;
#X connect 3 0 6 0;
#X connect 4 0 3 0;
#X connect 5 0 4 0;
#X connect 7 0 8 0;
#X connect 8 1 2 0;
#X connect 9 0 11 0;
#X connect 9 0 11 1;
#X connect 10 0 9 1;
#X connect 12 0 14 0;
#X connect 14 0 7 0;
#X coords 0 1 100 -1 180 30 1 0 0;
#X restore -200 146 graph;
#X obj -14 53 knob 25 25 0 127 0 0 empty empty empty 0 -8 32 8 -1 -260097
-260097 0 1;
#X obj -52 51 knob 25 25 0 127 0 0 empty empty empty 0 -8 32 8 -1 -260097
-260097 0 1;
#X obj -91 51 knob 25 25 0 127 0 0 empty empty empty 0 -8 32 8 -1 -260097
-260097 0 1;
#X obj -130 51 knob 25 25 0 127 0 0 empty empty empty 0 -8 32 8 -1
-260097 -260097 0 1;
#N canvas 0 22 450 300 sineGliss__________________ 0;
#X floatatom -108 284 5 0 0 0 - - -;
#X obj -106 362 line;
#X obj -106 383 osc~;
#X obj -116 232 stripnote;
#X obj -108 260 mtof;
#X obj 37 311 bng 15 250 50 0 empty empty empty 17 7 0 10 -262144 -1
-1;
#X obj 54 376 *~;
#X obj -15 585 *~;
#X obj 10 527 / 100;
#X obj 12 566 line;
#X floatatom 57 544 5 0 0 0 - - -;
#N canvas 0 22 450 300 eald~ 0;
#X msg 394 133 bang;
#X floatatom 504 74 5 0 0 0 - - -;
#X floatatom 555 73 5 0 0 0 - - -;
#X floatatom 605 73 5 0 0 0 - - -;
#X text 471 25 "ALD" enveloppe;
#X obj 504 49 inlet;
#X obj 555 48 inlet;
#X obj 605 48 inlet;
#X obj 408 52 inlet;
#X obj 379 432 outlet~;
#X text 633 133 ENVELOPE SECTION;
#X obj 379 346 vline~;
#X msg 352 245 1;
#X obj 352 265 pack f f;
#X obj 352 286 unpack f f;
#X msg 456 246 0;
#X obj 456 267 pack f f f;
#X obj 456 288 unpack f f f;
#X obj 456 225 delay 5;
#X text 102 283 Attack : sends a 1 to get to in A msec;
#X text 529 224 wait the end of the attack;
#X text 538 254 Length+Decay : 0 to get to in D msec \, after L msec
;
#X text 493 74 A;
#X text 544 74 L;
#X text 594 74 D;
#X connect 0 0 12 0;
#X connect 0 0 18 0;
#X connect 1 0 13 1;
#X connect 1 0 18 1;
#X connect 2 0 16 2;
#X connect 3 0 16 1;
#X connect 5 0 1 0;
#X connect 6 0 2 0;
#X connect 7 0 3 0;
#X connect 8 0 0 0;
#X connect 11 0 9 0;
#X connect 12 0 13 0;
#X connect 13 0 14 0;
#X connect 14 0 11 0;
#X connect 14 1 11 1;
#X connect 15 0 16 0;
#X connect 16 0 17 0;
#X connect 17 0 11 0;
#X connect 17 1 11 1;
#X connect 17 2 11 2;
#X connect 18 0 15 0;
#X restore 41 332 pd eald~;
#X obj 100 506 loadbang;
#X obj 11 547 + 0.05;
#X obj -106 309 pack f f;
#X msg 100 527 1000;
#X obj -106 332 unpack f f;
#X obj -15 608 outlet~;
#X obj -100 175 inlet;
#X obj -60 180 inlet;
#X obj 60 212 inlet;
#X obj 99 205 inlet;
#X floatatom -48 442 5 0 0 0 - - -;
#X obj 154 251 inlet;
#X obj 193 244 inlet;
#X connect 0 0 14 0;
#X connect 1 0 2 0;
#X connect 1 0 22 0;
#X connect 2 0 6 0;
#X connect 3 0 4 0;
#X connect 3 0 5 0;
#X connect 3 1 8 0;
#X connect 4 0 0 0;
#X connect 5 0 10 0;
#X connect 5 0 11 0;
#X connect 6 0 7 0;
#X connect 7 0 17 0;
#X connect 8 0 13 0;
#X connect 9 0 7 1;
#X connect 10 0 9 1;
#X connect 11 0 6 1;
#X connect 12 0 15 0;
#X connect 13 0 9 0;
#X connect 14 0 16 0;
#X connect 15 0 10 0;
#X connect 16 0 1 0;
#X connect 16 1 1 1;
#X connect 18 0 3 0;
#X connect 19 0 3 1;
#X connect 20 0 14 1;
#X connect 21 0 11 1;
#X connect 23 0 11 2;
#X restore -200 129 pd sineGliss__________________;
#N canvas 0 22 450 300 (subpatch) 0;
#X obj -30 22 spigot;
#X obj 2 3 tgl 15 0 empty empty empty 17 7 0 10 -262144 -1 -1 0 1;
#X obj -58 0 inlet;
#X obj -54 54 outlet;
#X connect 0 0 3 0;
#X connect 1 0 0 1;
#X connect 2 0 0 0;
#X coords 0 1 100 -1 20 20 1 0 0;
#X restore -91 28 graph;
#N canvas 0 22 450 300 (subpatch) 0;
#X obj -30 22 spigot;
#X obj 2 3 tgl 15 0 empty empty empty 17 7 0 10 -262144 -1 -1 0 1;
#X obj -58 0 inlet;
#X obj -54 54 outlet;
#X connect 0 0 3 0;
#X connect 1 0 0 1;
#X connect 2 0 0 0;
#X coords 0 1 100 -1 20 20 1 0 0;
#X restore -52 28 graph;
#N canvas 0 22 450 300 (subpatch) 0;
#X obj -30 22 spigot;
#X obj 2 3 tgl 15 0 empty empty empty 17 7 0 10 -262144 -1 -1 0 1;
#X obj -58 0 inlet;
#X obj -54 54 outlet;
#X connect 0 0 3 0;
#X connect 1 0 0 1;
#X connect 2 0 0 0;
#X coords 0 1 100 -1 20 20 1 0 0;
#X restore -14 30 graph;
#N canvas 0 22 450 300 (subpatch) 0;
#X obj -30 22 spigot;
#X obj 2 3 tgl 15 0 empty empty empty 17 7 0 10 -262144 -1 -1 0 1;
#X obj -58 0 inlet;
#X obj -54 54 outlet;
#X connect 0 0 3 0;
#X connect 1 0 0 1;
#X connect 2 0 0 0;
#X coords 0 1 100 -1 20 20 1 0 0;
#X restore -200 28 graph;
#N canvas 0 22 450 300 (subpatch) 0;
#X obj -30 22 spigot;
#X obj 2 3 tgl 15 0 empty empty empty 17 7 0 10 -262144 -1 -1 0 1;
#X obj -58 0 inlet;
#X obj -54 54 outlet;
#X connect 0 0 3 0;
#X connect 1 0 0 1;
#X connect 2 0 0 0;
#X coords 0 1 100 -1 20 20 1 0 0;
#X restore -165 28 graph;
#N canvas 0 22 450 300 (subpatch) 0;
#X obj -30 22 spigot;
#X obj 2 3 tgl 15 0 empty empty empty 17 7 0 10 -262144 -1 -1 0 1;
#X obj -58 0 inlet;
#X obj -54 54 outlet;
#X connect 0 0 3 0;
#X connect 1 0 0 1;
#X connect 2 0 0 0;
#X coords 0 1 100 -1 20 20 1 0 0;
#X restore -130 28 graph;
#N canvas 0 22 450 300 (subpatch) 0;
#X obj -30 22 spigot;
#X obj 2 3 tgl 15 0 empty empty empty 17 7 0 10 -262144 -1 -1 0 1;
#X obj -58 0 inlet;
#X obj -54 54 outlet;
#X connect 0 0 3 0;
#X connect 1 0 0 1;
#X connect 2 0 0 0;
#X coords 0 1 100 -1 20 20 1 0 0;
#X restore -247 93 graph;
#N canvas 0 22 450 300 (subpatch) 0;
#X obj -30 22 spigot;
#X obj 2 3 tgl 15 0 empty empty empty 17 7 0 10 -262144 -1 -1 0 1;
#X obj -58 0 inlet;
#X obj -54 54 outlet;
#X connect 0 0 3 0;
#X connect 1 0 0 1;
#X connect 2 0 0 0;
#X coords 0 1 100 -1 20 20 1 0 0;
#X restore -227 93 graph;
#X connect 0 0 34 0;
#X connect 1 0 35 0;
#X connect 2 0 11 0;
#X connect 3 0 10 0;
#X connect 4 0 13 0;
#X connect 5 0 31 0;
#X connect 6 0 32 0;
#X connect 7 0 33 0;
#X connect 8 0 30 4;
#X connect 9 0 30 5;
#X connect 10 0 8 0;
#X connect 11 0 12 0;
#X connect 12 0 30 3;
#X connect 13 0 9 0;
#X connect 14 0 17 0;
#X connect 15 0 30 2;
#X connect 16 0 36 0;
#X connect 17 0 15 0;
#X connect 22 0 37 0;
#X connect 22 1 38 0;
#X connect 23 0 30 0;
#X connect 24 0 30 1;
#X connect 26 0 4 0;
#X connect 27 0 3 0;
#X connect 28 0 2 0;
#X connect 29 0 14 0;
#X connect 30 0 25 0;
#X connect 31 0 28 0;
#X connect 32 0 27 0;
#X connect 33 0 26 0;
#X connect 34 0 23 0;
#X connect 35 0 24 0;
#X connect 36 0 29 0;
#X connect 37 0 23 0;
#X connect 38 0 24 0;
