#N canvas 0 22 723 464 12;
#X floatatom 171 214 5 0 0 0 - - -;
#X floatatom 213 214 5 0 0 0 - - -;
#X floatatom 255 214 5 0 0 0 - - -;
#X obj 171 99 ctlin 6;
#X obj 212 120 ctlin 7;
#X obj 255 142 ctlin 8;
#X floatatom 213 253 5 0 0 0 - - -;
#X floatatom 255 253 5 0 0 0 - - -;
#X obj 213 233 * 10;
#X obj 171 233 * 1;
#X floatatom 171 253 5 0 0 0 - - -;
#X obj 255 233 * 10;
#X floatatom 5 214 5 0 0 0 - - -;
#X obj 5 -2 ctlin 1;
#X floatatom 46 214 5 0 0 0 - - -;
#X floatatom 87 214 5 0 0 0 - - -;
#X floatatom 129 214 5 0 0 0 - - -;
#X obj 46 21 ctlin 2;
#X obj 87 46 ctlin 3;
#X obj 129 74 ctlin 4;
#X obj 5 233 * 1;
#X obj 46 233 * 1;
#X obj 87 233 * 1;
#X obj 129 233 * 1;
#X floatatom 5 253 5 0 0 0 - - -;
#X floatatom 46 253 5 0 0 0 - - -;
#X floatatom 87 253 5 0 0 0 - - -;
#X floatatom 129 253 5 0 0 0 - - -;
#X obj -91 -50 r noteFilter;
#X obj -51 -26 r velFilter;
#X text 60 -3 sweep speed;
#X text 104 23 sweep depth;
#X text 146 46 base freq;
#X text 189 73 Q;
#X text 227 98 Attack;
#X text 313 142 Decay;
#X text 272 121 Length;
#X obj -140 209 notein;
#X floatatom -91 253 5 0 0 0 - - -;
#X floatatom -51 253 5 0 0 0 - - -;
#X obj 255 185 knob 25 25 0 127 0 0 empty empty empty 0 -8 32 8 -1
-260097 -260097 0 1;
#X obj 212 185 knob 25 25 0 127 0 0 empty empty empty 0 -8 32 8 -1
-260097 -260097 0 1;
#X obj 171 185 knob 25 25 0 127 0 0 empty empty empty 0 -8 32 8 -1
-260097 -260097 0 1;
#X obj 129 185 knob 25 25 0 127 0 0 empty empty empty 0 -8 32 8 -1
-260097 -260097 0 1;
#X obj 87 185 knob 25 25 0 127 0 0 empty empty empty 0 -8 32 8 -1 -260097
-260097 0 1;
#X obj 46 185 knob 25 25 0 127 0 0 empty empty empty 0 -8 32 8 -1 -260097
-260097 0 1;
#X obj 5 185 knob 25 25 0 127 0 0 empty empty empty 0 -8 32 8 -1 -260097
-260097 0 1;
#N canvas 0 22 450 300 (subpatch) 0;
#X obj 59 155 inlet;
#X obj 3 89 inlet~;
#X obj 58 182 change;
#X msg 60 246 set \$1;
#X obj 60 227 tosymbol;
#X obj 59 204 sprintf Bus%d;
#X obj 3 282 throw~ Bus0;
#X obj 2 3 popup 124 25 #ffffff popup Bus0 Bus1 Bus2 Bus3 Bus4 Bus5
;
#X obj 1 32 route bang;
#X obj 154 202 *~;
#X obj 141 7 tgl 15 0 empty empty Dac 19 7 0 10 -262144 -1 -1 0 1;
#X obj 155 238 dac~;
#X obj 2 -54 loadbang;
#X text 60 -56 Bus0 mutes;
#X msg 2 -36 options Bus0 Bus1 Bus2 Bus3 Bus4 Bus5 Bus6 Bus7 Bus8 Bus9
Bus10 Bus11 Bus12 Bus13 Bus14 Bus15 Bus16;
#X connect 0 0 2 0;
#X connect 1 0 6 0;
#X connect 1 0 9 0;
#X connect 2 0 5 0;
#X connect 3 0 6 0;
#X connect 4 0 3 0;
#X connect 5 0 4 0;
#X connect 7 0 8 0;
#X connect 8 1 2 0;
#X connect 9 0 11 0;
#X connect 9 0 11 1;
#X connect 10 0 9 1;
#X connect 12 0 14 0;
#X connect 14 0 7 0;
#X coords 0 1 100 -1 180 30 1 0 0;
#X restore -91 292 graph;
#N canvas 0 22 450 300 FilterSweep______________ 0;
#X text 671 213 SWEEPING FILTERS;
#X obj 44 193 phasor~;
#X obj 59 351 +~;
#X floatatom 81 326 5 0 100 0 - #0-offset -;
#X floatatom 60 222 5 0 0 0 - #0-speed -;
#X floatatom 82 273 5 0 100 0 - #0-depth -;
#X floatatom 75 404 5 0 1000 0 - #0-q -;
#X obj 44 426 vcf~;
#X obj 59 375 tabread4~ mtof;
#X text 127 403 <-- Q (selectivity);
#X text 115 182 sawtooth;
#X text 116 198 oscillator;
#X text 112 221 <-- sweep speed;
#X text 137 245 LFO for sweep;
#X text 134 274 <-- sweep depth;
#X text 131 326 <-- base center frequency;
#X text 103 350 add base to sweep;
#X text 192 375 convert to Hz.;
#X text 97 144 <-- pitch;
#X obj 44 169 mtof;
#X obj 60 244 phasor~;
#X obj 60 298 *~;
#X text 573 397 updated for Pd version 0.39;
#N canvas 706 247 450 300 startup 0;
#X obj 85 16 loadbang;
#X obj 85 40 bng 15 250 50 0 empty empty empty 0 -6 0 8 -262144 -1
-1;
#X obj 85 59 f \$0;
#X text 9 257 boxes.;
#X text 18 209 This subpatch loads initial values in number;
#X msg 85 83 \; \$1-pitch 48 \; \$1-speed -2 \; \$1-depth 27 \; \$1-offset
56 \; \$1-q 2;
#X connect 0 0 1 0;
#X connect 1 0 2 0;
#X connect 2 0 5 0;
#X restore 321 230 pd startup;
#X text 559 313 Note the different effects of negative and positive
sweep speeds.;
#X text 558 236 If you want actively changing center frequencies \,
use "vcf~" instead of "bp~". The vcf~ module takes an audio signal
to set center frequency. (Q is still set by messages though.) Vcf is
computationally somewhat more expensive than bp~.;
#N canvas 0 22 612 404 conversion-tables 0;
#N canvas 0 22 450 300 (subpatch) 0;
#X array mtof 130 float 1;
#A 0 8.1758 8.66196 9.17702 9.72272 10.3009 10.9134 11.5623 12.2499
12.9783 13.75 14.5676 15.4339 16.3516 17.3239 18.354 19.4454 20.6017
21.8268 23.1247 24.4997 25.9565 27.5 29.1352 30.8677 32.7032 34.6478
36.7081 38.8909 41.2034 43.6535 46.2493 48.9994 51.9131 55 58.2705
61.7354 65.4064 69.2957 73.4162 77.7817 82.4069 87.3071 92.4986 97.9989
103.826 110 116.541 123.471 130.813 138.591 146.832 155.563 164.814
174.614 184.997 195.998 207.652 220 233.082 246.942 261.626 277.183
293.665 311.127 329.628 349.228 369.994 391.995 415.305 440 466.164
493.883 523.251 554.365 587.33 622.254 659.255 698.456 739.989 783.991
830.609 880 932.328 987.767 1046.5 1108.73 1174.66 1244.51 1318.51
1396.91 1479.98 1567.98 1661.22 1760 1864.66 1975.53 2093 2217.46 2349.32
2489.02 2637.02 2793.83 2959.96 3135.96 3322.44 3520 3729.31 3951.07
4186.01 4434.92 4698.64 4978.03 5274.04 5587.65 5919.91 6271.93 6644.88
7040 7458.62 7902.13 8372.02 8869.84 9397.27 9956.06 10548.1 11175.3
11839.8 12543.9 13289.8 14080;
#X coords 0 12000 130 0 200 100 1;
#X restore 309 225 graph;
#X text 319 333 ------ 130 samples ------;
#X text 518 318 0;
#X text 520 218 12000;
#X restore 321 202 pd conversion-tables;
#X obj -110 145 stripnote;
#X obj 122 565 bng 15 250 50 0 empty empty empty 17 7 0 10 -262144
-1 -1;
#X obj 139 630 *~;
#X obj 139 664 *~;
#X obj 164 606 / 100;
#X obj 166 645 line;
#X floatatom 211 623 5 0 0 0 - - -;
#X text 249 622 time offset to adjust volume to velocity;
#N canvas 0 22 450 300 eald~ 0;
#X msg 394 133 bang;
#X floatatom 504 74 5 0 0 0 - - -;
#X floatatom 555 73 5 0 0 0 - - -;
#X floatatom 605 73 5 0 0 0 - - -;
#X text 471 25 "ALD" enveloppe;
#X obj 504 49 inlet;
#X obj 555 48 inlet;
#X obj 605 48 inlet;
#X obj 408 52 inlet;
#X obj 379 432 outlet~;
#X text 633 133 ENVELOPE SECTION;
#X obj 379 346 vline~;
#X msg 352 245 1;
#X obj 352 265 pack f f;
#X obj 352 286 unpack f f;
#X msg 456 246 0;
#X obj 456 267 pack f f f;
#X obj 456 288 unpack f f f;
#X obj 456 225 delay 5;
#X text 102 283 Attack : sends a 1 to get to in A msec;
#X text 529 224 wait the end of the attack;
#X text 538 254 Length+Decay : 0 to get to in D msec \, after L msec
;
#X text 493 74 A;
#X text 544 74 L;
#X text 594 74 D;
#X connect 0 0 12 0;
#X connect 0 0 18 0;
#X connect 1 0 13 1;
#X connect 1 0 18 1;
#X connect 2 0 16 2;
#X connect 3 0 16 1;
#X connect 5 0 1 0;
#X connect 6 0 2 0;
#X connect 7 0 3 0;
#X connect 8 0 0 0;
#X connect 11 0 9 0;
#X connect 12 0 13 0;
#X connect 13 0 14 0;
#X connect 14 0 11 0;
#X connect 14 1 11 1;
#X connect 15 0 16 0;
#X connect 16 0 17 0;
#X connect 17 0 11 0;
#X connect 17 1 11 1;
#X connect 17 2 11 2;
#X connect 18 0 15 0;
#X restore 126 586 pd eald~;
#X obj 254 585 loadbang;
#X msg 254 606 50;
#X obj 165 626 + 0.05;
#X obj -115 116 inlet;
#X obj -52 111 inlet;
#X obj 153 94 inlet;
#X obj 216 89 inlet;
#X obj 280 92 inlet;
#X obj 343 87 inlet;
#X obj 399 87 inlet;
#X obj 463 90 inlet;
#X obj 526 85 inlet;
#X obj 146 686 outlet~;
#X obj 204 219 notein;
#X floatatom 204 245 5 0 0 0 - - -;
#X floatatom 240 245 5 0 0 0 - - -;
#X connect 1 0 7 0;
#X connect 2 0 8 0;
#X connect 3 0 2 1;
#X connect 4 0 20 0;
#X connect 5 0 21 1;
#X connect 6 0 7 2;
#X connect 7 0 29 0;
#X connect 8 0 7 1;
#X connect 19 0 1 0;
#X connect 20 0 21 0;
#X connect 21 0 2 0;
#X connect 27 0 28 0;
#X connect 27 0 19 0;
#X connect 27 1 31 0;
#X connect 28 0 35 0;
#X connect 28 0 37 0;
#X connect 29 0 30 0;
#X connect 30 0 48 0;
#X connect 31 0 38 0;
#X connect 32 0 30 1;
#X connect 33 0 32 1;
#X connect 35 0 29 1;
#X connect 36 0 37 0;
#X connect 37 0 33 0;
#X connect 38 0 32 0;
#X connect 39 0 27 0;
#X connect 40 0 27 1;
#X connect 41 0 20 0;
#X connect 42 0 21 1;
#X connect 43 0 2 1;
#X connect 44 0 7 2;
#X connect 45 0 35 1;
#X connect 46 0 35 2;
#X connect 47 0 35 3;
#X connect 49 0 50 0;
#X connect 49 1 51 0;
#X restore -91 272 pd FilterSweep______________;
#N canvas 0 22 450 300 (subpatch) 0;
#X obj -30 22 spigot;
#X obj 2 3 tgl 15 0 empty empty empty 17 7 0 10 -262144 -1 -1 0 1;
#X obj -58 0 inlet;
#X obj -54 54 outlet;
#X connect 0 0 3 0;
#X connect 1 0 0 1;
#X connect 2 0 0 0;
#X coords 0 1 100 -1 20 20 1 0 0;
#X restore 212 162 graph;
#N canvas 0 22 450 300 (subpatch) 0;
#X obj -30 22 spigot;
#X obj 2 3 tgl 15 0 empty empty empty 17 7 0 10 -262144 -1 -1 0 1;
#X obj -58 0 inlet;
#X obj -54 54 outlet;
#X connect 0 0 3 0;
#X connect 1 0 0 1;
#X connect 2 0 0 0;
#X coords 0 1 100 -1 20 20 1 0 0;
#X restore 255 162 graph;
#N canvas 0 22 450 300 (subpatch) 0;
#X obj -30 22 spigot;
#X obj 2 3 tgl 15 0 empty empty empty 17 7 0 10 -262144 -1 -1 0 1;
#X obj -58 0 inlet;
#X obj -54 54 outlet;
#X connect 0 0 3 0;
#X connect 1 0 0 1;
#X connect 2 0 0 0;
#X coords 0 1 100 -1 20 20 1 0 0;
#X restore 129 162 graph;
#N canvas 0 22 450 300 (subpatch) 0;
#X obj -30 22 spigot;
#X obj 2 3 tgl 15 0 empty empty empty 17 7 0 10 -262144 -1 -1 0 1;
#X obj -58 0 inlet;
#X obj -54 54 outlet;
#X connect 0 0 3 0;
#X connect 1 0 0 1;
#X connect 2 0 0 0;
#X coords 0 1 100 -1 20 20 1 0 0;
#X restore 171 162 graph;
#N canvas 0 22 450 300 (subpatch) 0;
#X obj -30 22 spigot;
#X obj 2 3 tgl 15 0 empty empty empty 17 7 0 10 -262144 -1 -1 0 1;
#X obj -58 0 inlet;
#X obj -54 54 outlet;
#X connect 0 0 3 0;
#X connect 1 0 0 1;
#X connect 2 0 0 0;
#X coords 0 1 100 -1 20 20 1 0 0;
#X restore 46 162 graph;
#N canvas 0 22 450 300 (subpatch) 0;
#X obj -30 22 spigot;
#X obj 2 3 tgl 15 0 empty empty empty 17 7 0 10 -262144 -1 -1 0 1;
#X obj -58 0 inlet;
#X obj -54 54 outlet;
#X connect 0 0 3 0;
#X connect 1 0 0 1;
#X connect 2 0 0 0;
#X coords 0 1 100 -1 20 20 1 0 0;
#X restore 87 162 graph;
#N canvas 0 22 450 300 (subpatch) 0;
#X obj -30 22 spigot;
#X obj 2 3 tgl 15 0 empty empty empty 17 7 0 10 -262144 -1 -1 0 1;
#X obj -58 0 inlet;
#X obj -54 54 outlet;
#X connect 0 0 3 0;
#X connect 1 0 0 1;
#X connect 2 0 0 0;
#X coords 0 1 100 -1 20 20 1 0 0;
#X restore -51 157 graph;
#N canvas 0 22 450 300 (subpatch) 0;
#X obj -30 22 spigot;
#X obj 2 3 tgl 15 0 empty empty empty 17 7 0 10 -262144 -1 -1 0 1;
#X obj -58 0 inlet;
#X obj -54 54 outlet;
#X connect 0 0 3 0;
#X connect 1 0 0 1;
#X connect 2 0 0 0;
#X coords 0 1 100 -1 20 20 1 0 0;
#X restore 5 162 graph;
#N canvas 0 22 450 300 (subpatch) 0;
#X obj -30 22 spigot;
#X obj 2 3 tgl 15 0 empty empty empty 17 7 0 10 -262144 -1 -1 0 1;
#X obj -58 0 inlet;
#X obj -54 54 outlet;
#X connect 0 0 3 0;
#X connect 1 0 0 1;
#X connect 2 0 0 0;
#X coords 0 1 100 -1 20 20 1 0 0;
#X restore -140 233 graph;
#N canvas 0 22 450 300 (subpatch) 0;
#X obj -30 22 spigot;
#X obj 2 3 tgl 15 0 empty empty empty 17 7 0 10 -262144 -1 -1 0 1;
#X obj -58 0 inlet;
#X obj -54 54 outlet;
#X connect 0 0 3 0;
#X connect 1 0 0 1;
#X connect 2 0 0 0;
#X coords 0 1 100 -1 20 20 1 0 0;
#X restore -91 157 graph;
#N canvas 0 22 450 300 (subpatch) 0;
#X obj -30 22 spigot;
#X obj 2 3 tgl 15 0 empty empty empty 17 7 0 10 -262144 -1 -1 0 1;
#X obj -58 0 inlet;
#X obj -54 54 outlet;
#X connect 0 0 3 0;
#X connect 1 0 0 1;
#X connect 2 0 0 0;
#X coords 0 1 100 -1 20 20 1 0 0;
#X restore -120 233 graph;
#X connect 0 0 9 0;
#X connect 1 0 8 0;
#X connect 2 0 11 0;
#X connect 3 0 52 0;
#X connect 4 0 49 0;
#X connect 5 0 50 0;
#X connect 6 0 48 7;
#X connect 7 0 48 8;
#X connect 8 0 6 0;
#X connect 9 0 10 0;
#X connect 10 0 48 6;
#X connect 11 0 7 0;
#X connect 12 0 20 0;
#X connect 13 0 56 0;
#X connect 14 0 21 0;
#X connect 15 0 22 0;
#X connect 16 0 23 0;
#X connect 17 0 53 0;
#X connect 18 0 54 0;
#X connect 19 0 51 0;
#X connect 20 0 24 0;
#X connect 21 0 25 0;
#X connect 22 0 26 0;
#X connect 23 0 27 0;
#X connect 24 0 48 2;
#X connect 25 0 48 3;
#X connect 26 0 48 4;
#X connect 27 0 48 5;
#X connect 28 0 58 0;
#X connect 29 0 55 0;
#X connect 37 0 57 0;
#X connect 37 1 59 0;
#X connect 38 0 48 0;
#X connect 39 0 48 1;
#X connect 40 0 2 0;
#X connect 41 0 1 0;
#X connect 42 0 0 0;
#X connect 43 0 16 0;
#X connect 44 0 15 0;
#X connect 45 0 14 0;
#X connect 46 0 12 0;
#X connect 48 0 47 0;
#X connect 49 0 41 0;
#X connect 50 0 40 0;
#X connect 51 0 43 0;
#X connect 52 0 42 0;
#X connect 53 0 45 0;
#X connect 54 0 44 0;
#X connect 55 0 39 0;
#X connect 56 0 46 0;
#X connect 57 0 38 0;
#X connect 58 0 38 0;
#X connect 59 0 39 0;
