#N canvas 0 22 565 375 12;
#X text 349 39 Decay;
#X text 309 18 Length;
#X text 265 -3 Attack;
#X obj 8 105 notein;
#X floatatom 63 146 5 0 0 0 - - -;
#X floatatom 95 146 5 0 0 0 - - -;
#X floatatom 163 108 5 0 0 0 - - -;
#X floatatom 206 108 5 0 0 0 - - -;
#X floatatom 249 108 5 0 0 0 - - -;
#X floatatom 292 108 5 0 0 0 - - -;
#X floatatom 249 147 5 0 0 0 - - -;
#X floatatom 292 147 5 0 0 0 - - -;
#X obj 249 127 * 10;
#X obj 206 127 * 1;
#X floatatom 206 147 5 0 0 0 - - -;
#X obj 292 127 * 10;
#X floatatom 163 147 5 0 0 0 - - -;
#X obj 163 127 / 127;
#N canvas 0 22 450 300 (subpatch) 0;
#X obj -30 22 spigot;
#X obj 2 3 tgl 15 0 empty empty empty 17 7 0 10 -262144 -1 -1 0 1;
#X obj -58 0 inlet;
#X obj -54 54 outlet;
#X connect 0 0 3 0;
#X connect 1 0 0 1;
#X connect 2 0 0 0;
#X coords 0 1 100 -1 20 20 1 0 0;
#X restore 63 104 graph;
#N canvas 0 22 450 300 (subpatch) 0;
#X obj -30 22 spigot;
#X obj 2 3 tgl 15 0 empty empty empty 17 7 0 10 -262144 -1 -1 0 1;
#X obj -58 0 inlet;
#X obj -54 54 outlet;
#X connect 0 0 3 0;
#X connect 1 0 0 1;
#X connect 2 0 0 0;
#X coords 0 1 100 -1 20 20 1 0 0;
#X restore 95 104 graph;
#N canvas 0 22 450 300 (subpatch) 0;
#X obj -30 22 spigot;
#X obj 2 3 tgl 15 0 empty empty empty 17 7 0 10 -262144 -1 -1 0 1;
#X obj -58 0 inlet;
#X obj -54 54 outlet;
#X connect 0 0 3 0;
#X connect 1 0 0 1;
#X connect 2 0 0 0;
#X coords 0 1 100 -1 20 20 1 0 0;
#X restore 8 126 graph;
#N canvas 0 22 450 300 (subpatch) 0;
#X obj -30 22 spigot;
#X obj 2 3 tgl 15 0 empty empty empty 17 7 0 10 -262144 -1 -1 0 1;
#X obj -58 0 inlet;
#X obj -54 54 outlet;
#X connect 0 0 3 0;
#X connect 1 0 0 1;
#X connect 2 0 0 0;
#X coords 0 1 100 -1 20 20 1 0 0;
#X restore 28 126 graph;
#X obj 292 79 knob 25 25 0 127 0 0 empty empty empty 0 -8 32 8 -1 -260097
-260097 2200 1;
#X obj 249 79 knob 25 25 0 127 0 0 empty empty empty 0 -8 32 8 -1 -260097
-260097 900 1;
#X obj 206 79 knob 25 25 0 127 0 0 empty empty empty 0 -8 32 8 -1 -260097
-260097 100 1;
#X obj 163 79 knob 25 25 0 127 0 0 empty empty empty 0 -8 32 8 -1 -260097
-260097 2400 1;
#N canvas 0 22 450 300 (subpatch) 0;
#X obj -30 22 spigot;
#X obj 2 3 tgl 15 0 empty empty empty 17 7 0 10 -262144 -1 -1 0 1;
#X obj -58 0 inlet;
#X obj -54 54 outlet;
#X connect 0 0 3 0;
#X connect 1 0 0 1;
#X connect 2 0 0 0;
#X coords 0 1 100 -1 20 20 1 0 0;
#X restore 292 56 graph;
#N canvas 0 22 450 300 (subpatch) 0;
#X obj -30 22 spigot;
#X obj 2 3 tgl 15 0 empty empty empty 17 7 0 10 -262144 -1 -1 0 1;
#X obj -58 0 inlet;
#X obj -54 54 outlet;
#X connect 0 0 3 0;
#X connect 1 0 0 1;
#X connect 2 0 0 0;
#X coords 0 1 100 -1 20 20 1 0 0;
#X restore 163 56 graph;
#N canvas 0 22 450 300 (subpatch) 0;
#X obj -30 22 spigot;
#X obj 2 3 tgl 15 0 empty empty empty 17 7 0 10 -262144 -1 -1 0 1;
#X obj -58 0 inlet;
#X obj -54 54 outlet;
#X connect 0 0 3 0;
#X connect 1 0 0 1;
#X connect 2 0 0 0;
#X coords 0 1 100 -1 20 20 1 0 0;
#X restore 206 56 graph;
#N canvas 0 22 450 300 (subpatch) 0;
#X obj -30 22 spigot;
#X obj 2 3 tgl 15 0 empty empty empty 17 7 0 10 -262144 -1 -1 0 1;
#X obj -58 0 inlet;
#X obj -54 54 outlet;
#X connect 0 0 3 0;
#X connect 1 0 0 1;
#X connect 2 0 0 0;
#X coords 0 1 100 -1 20 20 1 0 0;
#X restore 249 56 graph;
#X obj 292 39 ctlin 8;
#X obj 249 17 ctlin 7;
#X obj 206 -3 ctlin 6;
#X obj 163 -23 ctlin 5;
#N canvas 0 22 450 300 (subpatch) 0;
#X obj 59 155 inlet;
#X obj 3 89 inlet~;
#X obj 58 182 change;
#X msg 60 246 set \$1;
#X obj 60 227 tosymbol;
#X obj 59 204 sprintf Bus%d;
#X obj 3 282 throw~ Bus0;
#X obj 2 3 popup 124 25 #ffffff popup Bus0 Bus1 Bus2 Bus3 Bus4 Bus5
Bus6 Bus7 Bus8 Bus9 Bus10 Bus11 Bus12 Bus13 Bus14 Bus15 Bus16;
#X obj 1 32 route bang;
#X obj 154 202 *~;
#X obj 141 7 tgl 15 0 empty empty Dac 19 7 0 10 -262144 -1 -1 1 1;
#X obj 155 238 dac~;
#X obj 1 -41 loadbang;
#X text 59 -43 Bus0 mutes;
#X msg 1 -23 options Bus0 Bus1 Bus2 Bus3 Bus4 Bus5 Bus6 Bus7 Bus8 Bus9
Bus10 Bus11 Bus12 Bus13 Bus14 Bus15 Bus16;
#X connect 0 0 2 0;
#X connect 1 0 6 0;
#X connect 1 0 9 0;
#X connect 2 0 5 0;
#X connect 3 0 6 0;
#X connect 4 0 3 0;
#X connect 5 0 4 0;
#X connect 7 0 8 0;
#X connect 8 1 2 0;
#X connect 9 0 11 0;
#X connect 9 0 11 1;
#X connect 10 0 9 1;
#X connect 12 0 14 0;
#X connect 14 0 7 0;
#X coords 0 1 100 -1 180 30 1 0 0;
#X restore 63 186 graph;
#X obj 63 -67 r noteKarplus;
#X obj 95 -46 r velKarplus;
#N canvas 0 22 921 690 Karplus-Strong_________ 0;
#X obj 131 169 bng 15 250 50 0 empty empty empty 0 -6 0 8 -262144 -1
-1;
#X floatatom 203 205 5 0 0 0 - - -;
#X obj 164 239 del;
#X msg 131 265 1;
#X msg 164 265 0;
#X text 128 147 start;
#X obj 43 269 noise~;
#X obj 44 338 *~;
#X obj 224 296 vd~ buffer 100;
#X obj 165 529 *~ 0.99;
#X floatatom 211 504 5 0 0 0 - - -;
#X obj 43 579 delwrite~ buffer 1000;
#X obj 224 339 *~ 0.5;
#X obj 311 328 z~ 1;
#X obj 312 355 *~ 0.5;
#X obj 225 392 +~;
#X obj 203 174 expr 44100/($f1*1.09545)*0.025;
#X floatatom 203 137 5 0 0 0 - - -;
#X text 44 41 3.4.2.10. Karplus Strong 3;
#X text 262 139 Frequency (Hz.);
#X text 367 325 Delay by 1 Sample;
#X text 369 370 calculates average;
#X text 428 220 damping factor (between 0 and 1);
#X text 376 613 www.pd-tutorial.com;
#X text 381 586 Johannes Kreidler;
#X obj 64 84 stripnote;
#X obj 65 116 mtof;
#X obj 522 439 bng 15 250 50 0 empty empty empty 17 7 0 10 -262144
-1 -1;
#X obj 539 504 *~;
#X obj 539 538 *~;
#X obj 564 480 / 100;
#X obj 566 519 line;
#X floatatom 611 497 5 0 0 0 - - -;
#X text 649 496 time offset to adjust volume to velocity;
#N canvas 0 22 450 300 eald~ 0;
#X msg 394 133 bang;
#X floatatom 504 74 5 0 0 0 - - -;
#X floatatom 555 73 5 0 0 0 - - -;
#X floatatom 605 73 5 0 0 0 - - -;
#X text 471 25 "ALD" enveloppe;
#X obj 504 49 inlet;
#X obj 555 48 inlet;
#X obj 605 48 inlet;
#X obj 408 52 inlet;
#X obj 379 432 outlet~;
#X text 633 133 ENVELOPE SECTION;
#X obj 379 346 vline~;
#X msg 352 245 1;
#X obj 352 265 pack f f;
#X obj 352 286 unpack f f;
#X msg 456 246 0;
#X obj 456 267 pack f f f;
#X obj 456 288 unpack f f f;
#X obj 456 225 delay 5;
#X text 102 283 Attack : sends a 1 to get to in A msec;
#X text 529 224 wait the end of the attack;
#X text 538 254 Length+Decay : 0 to get to in D msec \, after L msec
;
#X text 493 74 A;
#X text 544 74 L;
#X text 594 74 D;
#X connect 0 0 12 0;
#X connect 0 0 18 0;
#X connect 1 0 13 1;
#X connect 1 0 18 1;
#X connect 2 0 16 2;
#X connect 3 0 16 1;
#X connect 5 0 1 0;
#X connect 6 0 2 0;
#X connect 7 0 3 0;
#X connect 8 0 0 0;
#X connect 11 0 9 0;
#X connect 12 0 13 0;
#X connect 13 0 14 0;
#X connect 14 0 11 0;
#X connect 14 1 11 1;
#X connect 15 0 16 0;
#X connect 16 0 17 0;
#X connect 17 0 11 0;
#X connect 17 1 11 1;
#X connect 17 2 11 2;
#X connect 18 0 15 0;
#X restore 526 460 pd eald~;
#X obj 654 459 loadbang;
#X msg 654 480 50;
#X obj 565 500 + 0.05;
#X obj 540 567 outlet~;
#X obj 49 13 inlet;
#X obj 112 14 inlet;
#X obj 432 53 inlet;
#X obj 525 50 inlet;
#X obj 551 61 inlet;
#X obj 593 63 inlet;
#X connect 0 0 2 0;
#X connect 0 0 3 0;
#X connect 0 0 27 0;
#X connect 1 0 2 1;
#X connect 1 0 8 0;
#X connect 2 0 4 0;
#X connect 3 0 7 1;
#X connect 4 0 7 1;
#X connect 6 0 7 0;
#X connect 7 0 11 0;
#X connect 8 0 12 0;
#X connect 8 0 13 0;
#X connect 9 0 11 0;
#X connect 9 0 28 0;
#X connect 10 0 9 1;
#X connect 12 0 15 0;
#X connect 13 0 14 0;
#X connect 14 0 15 1;
#X connect 15 0 9 0;
#X connect 16 0 1 0;
#X connect 17 0 16 0;
#X connect 25 0 26 0;
#X connect 25 0 0 0;
#X connect 25 1 30 0;
#X connect 26 0 17 0;
#X connect 27 0 34 0;
#X connect 27 0 36 0;
#X connect 28 0 29 0;
#X connect 29 0 38 0;
#X connect 30 0 37 0;
#X connect 31 0 29 1;
#X connect 32 0 31 1;
#X connect 34 0 28 1;
#X connect 35 0 36 0;
#X connect 36 0 32 0;
#X connect 37 0 31 0;
#X connect 39 0 25 0;
#X connect 40 0 25 1;
#X connect 41 0 10 0;
#X connect 42 0 34 1;
#X connect 43 0 34 2;
#X connect 44 0 34 3;
#X restore 63 166 pd Karplus-Strong_________;
#X text 222 -24 Buffer's gain (=127);
#X connect 3 0 20 0;
#X connect 3 1 21 0;
#X connect 4 0 37 0;
#X connect 5 0 37 1;
#X connect 6 0 17 0;
#X connect 7 0 13 0;
#X connect 8 0 12 0;
#X connect 9 0 15 0;
#X connect 10 0 37 4;
#X connect 11 0 37 5;
#X connect 12 0 10 0;
#X connect 13 0 14 0;
#X connect 14 0 37 3;
#X connect 15 0 11 0;
#X connect 16 0 37 2;
#X connect 17 0 16 0;
#X connect 18 0 4 0;
#X connect 19 0 5 0;
#X connect 20 0 4 0;
#X connect 21 0 5 0;
#X connect 22 0 9 0;
#X connect 23 0 8 0;
#X connect 24 0 7 0;
#X connect 25 0 6 0;
#X connect 26 0 22 0;
#X connect 27 0 25 0;
#X connect 28 0 24 0;
#X connect 29 0 23 0;
#X connect 30 0 26 0;
#X connect 31 0 29 0;
#X connect 32 0 28 0;
#X connect 33 0 27 0;
#X connect 35 0 18 0;
#X connect 36 0 19 0;
#X connect 37 0 34 0;
