#N canvas 0 22 735 439 10;
#X floatatom -6 269 5 0 0 0 - - -;
#X floatatom 34 269 5 0 0 0 - - -;
#X floatatom -6 302 5 0 0 0 - - -;
#X floatatom 34 302 5 0 0 0 - - -;
#X obj -6 285 * 10;
#X obj 34 285 * 50;
#X floatatom 73 269 5 0 0 0 - - -;
#X floatatom 116 269 5 0 0 0 - - -;
#X floatatom 73 302 5 0 0 0 - - -;
#X floatatom 116 302 5 0 0 0 - - -;
#X obj 73 285 * 10;
#X obj 116 285 * 50;
#X floatatom 157 269 5 0 0 0 - - -;
#X floatatom 195 269 5 0 0 0 - - -;
#X obj 157 137 ctlin 7;
#X obj 196 157 ctlin 8;
#X floatatom 157 302 5 0 0 0 - - -;
#X floatatom 195 302 5 0 0 0 - - -;
#X obj 157 285 * 10;
#X obj 195 285 * 50;
#X floatatom -90 269 5 0 0 0 - - -;
#X floatatom -90 302 5 0 0 0 - - -;
#X obj -90 285 * 10;
#X obj -90 16 ctlin 1;
#X floatatom -49 269 5 0 0 0 - - -;
#X floatatom -49 302 5 0 0 0 - - -;
#X obj -49 285 * 10;
#X obj -49 39 ctlin 2;
#X obj -6 59 ctlin 3;
#X obj 34 80 ctlin 4;
#X obj 72 100 ctlin 5;
#X obj 116 119 ctlin 6;
#X obj -167 -24 r noteGlissC;
#X obj -131 -4 r velGlissC;
#N canvas 0 22 450 300 sineCanonGliss_______________________________
0;
#X floatatom -22 299 5 0 0 0 - - -;
#X msg -22 319 \$1 500;
#X obj -22 340 line;
#X obj -22 361 osc~;
#X obj -117 202 stripnote;
#X obj 20 409 ead~;
#X obj 7 384 bng 15 250 50 0 empty empty empty 17 7 0 10 -262144 -1
-1;
#X obj 5 431 *~;
#X obj 219 590 *~;
#X obj -109 230 mtof;
#X floatatom 228 315 5 0 0 0 - - -;
#X msg 228 335 \$1 500;
#X obj 228 356 line;
#X obj 228 377 osc~;
#X obj 270 425 ead~;
#X obj 257 400 bng 15 250 50 0 empty empty empty 17 7 0 10 -262144
-1 -1;
#X floatatom 389 304 5 0 0 0 - - -;
#X msg 389 324 \$1 500;
#X obj 389 345 line;
#X obj 389 366 osc~;
#X obj 431 414 ead~;
#X obj 418 389 bng 15 250 50 0 empty empty empty 17 7 0 10 -262144
-1 -1;
#X obj 416 436 *~;
#X obj 153 525 *~ 0.4;
#X obj 226 290 pipe;
#X obj 387 279 pipe;
#X obj 188 265 * 3;
#X obj 357 255 * 5;
#X obj 255 447 *~;
#X obj 255 471 *~ 0.9;
#X obj 417 463 *~ 0.6;
#X obj 256 524 / 100;
#X obj 258 563 line;
#X floatatom 303 541 5 0 0 0 - - -;
#X text 341 540 time offset to adjust volume to velocity;
#X obj 346 503 loadbang;
#X obj 257 544 + 0.05;
#X msg 346 524 1000;
#X obj 219 611 outlet~;
#X obj -118 164 inlet;
#X obj -72 163 inlet;
#X obj -14 170 inlet;
#X obj 32 169 inlet;
#X obj 77 166 inlet;
#X obj 123 165 inlet;
#X obj 166 164 inlet;
#X obj 212 163 inlet;
#X obj 250 163 inlet;
#X obj 296 162 inlet;
#X obj 353 170 inlet;
#X obj 399 169 inlet;
#X obj 244 259 notein;
#X floatatom 244 285 5 0 0 0 - - -;
#X floatatom 280 285 5 0 0 0 - - -;
#X connect 0 0 1 0;
#X connect 1 0 2 0;
#X connect 2 0 3 0;
#X connect 3 0 7 0;
#X connect 4 0 6 0;
#X connect 4 0 9 0;
#X connect 4 1 31 0;
#X connect 5 0 7 1;
#X connect 6 0 5 0;
#X connect 7 0 23 0;
#X connect 8 0 38 0;
#X connect 9 0 0 0;
#X connect 9 0 26 0;
#X connect 9 0 27 0;
#X connect 10 0 11 0;
#X connect 11 0 12 0;
#X connect 12 0 13 0;
#X connect 13 0 28 0;
#X connect 14 0 28 1;
#X connect 15 0 14 0;
#X connect 16 0 17 0;
#X connect 17 0 18 0;
#X connect 18 0 19 0;
#X connect 19 0 22 0;
#X connect 20 0 22 1;
#X connect 21 0 20 0;
#X connect 22 0 30 0;
#X connect 23 0 8 0;
#X connect 24 0 10 0;
#X connect 24 0 15 0;
#X connect 25 0 16 0;
#X connect 25 0 21 0;
#X connect 26 0 24 0;
#X connect 27 0 25 0;
#X connect 28 0 29 0;
#X connect 29 0 23 0;
#X connect 30 0 23 0;
#X connect 31 0 36 0;
#X connect 32 0 8 1;
#X connect 33 0 32 1;
#X connect 35 0 37 0;
#X connect 36 0 32 0;
#X connect 37 0 33 0;
#X connect 39 0 4 0;
#X connect 40 0 4 1;
#X connect 41 0 24 1;
#X connect 42 0 25 0;
#X connect 43 0 5 1;
#X connect 44 0 5 2;
#X connect 45 0 14 1;
#X connect 46 0 14 2;
#X connect 47 0 20 1;
#X connect 48 0 20 2;
#X connect 49 0 26 1;
#X connect 50 0 27 1;
#X connect 51 0 52 0;
#X connect 51 1 53 0;
#X restore -167 318 pd sineCanonGliss_______________________________
;
#X floatatom 236 269 5 0 0 0 - - -;
#X floatatom 275 269 5 0 0 0 - - -;
#X floatatom 236 302 5 0 0 0 - - -;
#X floatatom 275 302 5 0 0 0 - - -;
#X obj 236 285 / 127;
#X obj 275 285 / 127;
#X text -38 18 Time Offset between 1st and 2nd note;
#X text 3 40 Time Offset between 2nd and 3rd note;
#X text 46 60 Attack;
#X text 88 80 Decay;
#X text 127 98 Attack;
#X text 171 118 Decay;
#X text 215 137 Attack;
#X text 246 157 Decay;
#X obj -215 262 notein;
#X floatatom -167 302 5 0 0 0 - - -;
#X floatatom -131 302 5 0 0 0 - - -;
#X obj 275 240 knob 25 25 0 127 0 0 empty empty empty 0 -8 32 8 -1
-260097 -260097 0 1;
#X obj 236 240 knob 25 25 0 127 0 0 empty empty empty 0 -8 32 8 -1
-260097 -260097 0 1;
#X obj 196 240 knob 25 25 0 127 0 0 empty empty empty 0 -8 32 8 -1
-260097 -260097 0 1;
#X obj 157 240 knob 25 25 0 127 0 0 empty empty empty 0 -8 32 8 -1
-260097 -260097 0 1;
#X obj 116 240 knob 25 25 0 127 0 0 empty empty empty 0 -8 32 8 -1
-260097 -260097 0 1;
#X obj 72 240 knob 25 25 0 127 0 0 empty empty empty 0 -8 32 8 -1 -260097
-260097 0 1;
#X obj 34 240 knob 25 25 0 127 0 0 empty empty empty 0 -8 32 8 -1 -260097
-260097 0 1;
#X obj -6 240 knob 25 25 0 127 0 0 empty empty empty 0 -8 32 8 -1 -260097
-260097 0 1;
#X obj -49 240 knob 25 25 0 127 0 0 empty empty empty 0 -8 32 8 -1
-260097 -260097 0 1;
#X obj -90 240 knob 25 25 0 127 0 0 empty empty empty 0 -8 32 8 -1
-260097 -260097 0 1;
#N canvas 0 22 450 300 (subpatch) 0;
#X obj 59 155 inlet;
#X obj 3 89 inlet~;
#X obj 58 182 change;
#X msg 60 246 set \$1;
#X obj 60 227 tosymbol;
#X obj 59 204 sprintf Bus%d;
#X obj 3 282 throw~ Bus0;
#X obj 2 3 popup 124 25 #ffffff popup Bus0 Bus1 Bus2 Bus3 Bus4 Bus5
;
#X obj 1 32 route bang;
#X obj 154 202 *~;
#X obj 141 7 tgl 15 0 empty empty Dac 19 7 0 10 -262144 -1 -1 0 1;
#X obj 155 238 dac~;
#X obj 1 -62 loadbang;
#X text 59 -64 Bus0 mutes;
#X msg 1 -44 options Bus0 Bus1 Bus2 Bus3 Bus4 Bus5 Bus6 Bus7 Bus8 Bus9
Bus10 Bus11 Bus12 Bus13 Bus14 Bus15 Bus16;
#X connect 0 0 2 0;
#X connect 1 0 6 0;
#X connect 1 0 9 0;
#X connect 2 0 5 0;
#X connect 3 0 6 0;
#X connect 4 0 3 0;
#X connect 5 0 4 0;
#X connect 7 0 8 0;
#X connect 8 1 2 0;
#X connect 9 0 11 0;
#X connect 9 0 11 1;
#X connect 10 0 9 1;
#X connect 12 0 14 0;
#X connect 14 0 7 0;
#X coords 0 1 100 -1 180 30 1 0 0;
#X restore -167 335 graph;
#N canvas 0 22 450 300 (subpatch) 0;
#X obj -30 22 spigot;
#X obj 2 3 tgl 15 0 empty empty empty 17 7 0 10 -262144 -1 -1 0 1;
#X obj -58 0 inlet;
#X obj -54 54 outlet;
#X connect 0 0 3 0;
#X connect 1 0 0 1;
#X connect 2 0 0 0;
#X coords 0 1 100 -1 20 20 1 0 0;
#X restore -90 217 graph;
#N canvas 0 22 450 300 (subpatch) 0;
#X obj -30 22 spigot;
#X obj 2 3 tgl 15 0 empty empty empty 17 7 0 10 -262144 -1 -1 0 1;
#X obj -58 0 inlet;
#X obj -54 54 outlet;
#X connect 0 0 3 0;
#X connect 1 0 0 1;
#X connect 2 0 0 0;
#X coords 0 1 100 -1 20 20 1 0 0;
#X restore -49 217 graph;
#N canvas 0 22 450 300 (subpatch) 0;
#X obj -30 22 spigot;
#X obj 2 3 tgl 15 0 empty empty empty 17 7 0 10 -262144 -1 -1 0 1;
#X obj -58 0 inlet;
#X obj -54 54 outlet;
#X connect 0 0 3 0;
#X connect 1 0 0 1;
#X connect 2 0 0 0;
#X coords 0 1 100 -1 20 20 1 0 0;
#X restore -6 217 graph;
#N canvas 0 22 450 300 (subpatch) 0;
#X obj -30 22 spigot;
#X obj 2 3 tgl 15 0 empty empty empty 17 7 0 10 -262144 -1 -1 0 1;
#X obj -58 0 inlet;
#X obj -54 54 outlet;
#X connect 0 0 3 0;
#X connect 1 0 0 1;
#X connect 2 0 0 0;
#X coords 0 1 100 -1 20 20 1 0 0;
#X restore 34 217 graph;
#N canvas 0 22 450 300 (subpatch) 0;
#X obj -30 22 spigot;
#X obj 2 3 tgl 15 0 empty empty empty 17 7 0 10 -262144 -1 -1 0 1;
#X obj -58 0 inlet;
#X obj -54 54 outlet;
#X connect 0 0 3 0;
#X connect 1 0 0 1;
#X connect 2 0 0 0;
#X coords 0 1 100 -1 20 20 1 0 0;
#X restore 72 217 graph;
#N canvas 0 22 450 300 (subpatch) 0;
#X obj -30 22 spigot;
#X obj 2 3 tgl 15 0 empty empty empty 17 7 0 10 -262144 -1 -1 0 1;
#X obj -58 0 inlet;
#X obj -54 54 outlet;
#X connect 0 0 3 0;
#X connect 1 0 0 1;
#X connect 2 0 0 0;
#X coords 0 1 100 -1 20 20 1 0 0;
#X restore 116 217 graph;
#N canvas 0 22 450 300 (subpatch) 0;
#X obj -30 22 spigot;
#X obj 2 3 tgl 15 0 empty empty empty 17 7 0 10 -262144 -1 -1 0 1;
#X obj -58 0 inlet;
#X obj -54 54 outlet;
#X connect 0 0 3 0;
#X connect 1 0 0 1;
#X connect 2 0 0 0;
#X coords 0 1 100 -1 20 20 1 0 0;
#X restore 157 217 graph;
#N canvas 0 22 450 300 (subpatch) 0;
#X obj -30 22 spigot;
#X obj 2 3 tgl 15 0 empty empty empty 17 7 0 10 -262144 -1 -1 0 1;
#X obj -58 0 inlet;
#X obj -54 54 outlet;
#X connect 0 0 3 0;
#X connect 1 0 0 1;
#X connect 2 0 0 0;
#X coords 0 1 100 -1 20 20 1 0 0;
#X restore 196 217 graph;
#N canvas 0 22 450 300 (subpatch) 0;
#X obj -30 22 spigot;
#X obj 2 3 tgl 15 0 empty empty empty 17 7 0 10 -262144 -1 -1 0 1;
#X obj -58 0 inlet;
#X obj -54 54 outlet;
#X connect 0 0 3 0;
#X connect 1 0 0 1;
#X connect 2 0 0 0;
#X coords 0 1 100 -1 20 20 1 0 0;
#X restore 236 217 graph;
#N canvas 0 22 450 300 (subpatch) 0;
#X obj -30 22 spigot;
#X obj 2 3 tgl 15 0 empty empty empty 17 7 0 10 -262144 -1 -1 0 1;
#X obj -58 0 inlet;
#X obj -54 54 outlet;
#X connect 0 0 3 0;
#X connect 1 0 0 1;
#X connect 2 0 0 0;
#X coords 0 1 100 -1 20 20 1 0 0;
#X restore 275 217 graph;
#N canvas 0 22 450 300 (subpatch) 0;
#X obj -30 22 spigot;
#X obj 2 3 tgl 15 0 empty empty empty 17 7 0 10 -262144 -1 -1 0 1;
#X obj -58 0 inlet;
#X obj -54 54 outlet;
#X connect 0 0 3 0;
#X connect 1 0 0 1;
#X connect 2 0 0 0;
#X coords 0 1 100 -1 20 20 1 0 0;
#X restore -167 217 graph;
#N canvas 0 22 450 300 (subpatch) 0;
#X obj -30 22 spigot;
#X obj 2 3 tgl 15 0 empty empty empty 17 7 0 10 -262144 -1 -1 0 1;
#X obj -58 0 inlet;
#X obj -54 54 outlet;
#X connect 0 0 3 0;
#X connect 1 0 0 1;
#X connect 2 0 0 0;
#X coords 0 1 100 -1 20 20 1 0 0;
#X restore -131 217 graph;
#N canvas 0 22 450 300 (subpatch) 0;
#X obj -30 22 spigot;
#X obj 2 3 tgl 15 0 empty empty empty 17 7 0 10 -262144 -1 -1 0 1;
#X obj -58 0 inlet;
#X obj -54 54 outlet;
#X connect 0 0 3 0;
#X connect 1 0 0 1;
#X connect 2 0 0 0;
#X coords 0 1 100 -1 20 20 1 0 0;
#X restore -215 282 graph;
#N canvas 0 22 450 300 (subpatch) 0;
#X obj -30 22 spigot;
#X obj 2 3 tgl 15 0 empty empty empty 17 7 0 10 -262144 -1 -1 0 1;
#X obj -58 0 inlet;
#X obj -54 54 outlet;
#X connect 0 0 3 0;
#X connect 1 0 0 1;
#X connect 2 0 0 0;
#X coords 0 1 100 -1 20 20 1 0 0;
#X restore -195 282 graph;
#X obj 236 177 ctlin 9;
#X obj 275 197 ctlin 10;
#X text 285 177 Transposition Factor 2nd note;
#X text 328 197 Transposition Factor 3rd note;
#X connect 0 0 4 0;
#X connect 1 0 5 0;
#X connect 2 0 34 4;
#X connect 3 0 34 5;
#X connect 4 0 2 0;
#X connect 5 0 3 0;
#X connect 6 0 10 0;
#X connect 7 0 11 0;
#X connect 8 0 34 6;
#X connect 9 0 34 7;
#X connect 10 0 8 0;
#X connect 11 0 9 0;
#X connect 12 0 18 0;
#X connect 13 0 19 0;
#X connect 14 0 69 0;
#X connect 15 0 70 0;
#X connect 16 0 34 8;
#X connect 17 0 34 9;
#X connect 18 0 16 0;
#X connect 19 0 17 0;
#X connect 20 0 22 0;
#X connect 21 0 34 2;
#X connect 22 0 21 0;
#X connect 23 0 63 0;
#X connect 24 0 26 0;
#X connect 25 0 34 3;
#X connect 26 0 25 0;
#X connect 27 0 64 0;
#X connect 28 0 65 0;
#X connect 29 0 66 0;
#X connect 30 0 67 0;
#X connect 31 0 68 0;
#X connect 32 0 73 0;
#X connect 33 0 74 0;
#X connect 34 0 62 0;
#X connect 35 0 39 0;
#X connect 36 0 40 0;
#X connect 37 0 34 10;
#X connect 38 0 34 11;
#X connect 39 0 37 0;
#X connect 40 0 38 0;
#X connect 49 0 75 0;
#X connect 49 1 76 0;
#X connect 50 0 34 0;
#X connect 51 0 34 1;
#X connect 52 0 36 0;
#X connect 53 0 35 0;
#X connect 54 0 13 0;
#X connect 55 0 12 0;
#X connect 56 0 7 0;
#X connect 57 0 6 0;
#X connect 58 0 1 0;
#X connect 59 0 0 0;
#X connect 60 0 24 0;
#X connect 61 0 20 0;
#X connect 63 0 61 0;
#X connect 64 0 60 0;
#X connect 65 0 59 0;
#X connect 66 0 58 0;
#X connect 67 0 57 0;
#X connect 68 0 56 0;
#X connect 69 0 55 0;
#X connect 70 0 54 0;
#X connect 71 0 53 0;
#X connect 72 0 52 0;
#X connect 73 0 50 0;
#X connect 74 0 51 0;
#X connect 75 0 50 0;
#X connect 76 0 51 0;
#X connect 77 0 71 0;
#X connect 78 0 72 0;
