#N canvas 0 22 606 428 10;
#X text 370 81 Decay;
#X text 328 54 Length;
#X text 283 37 Attack;
#X text 191 -5 index 1;
#X text 235 16 index 2;
#N canvas 0 22 450 300 simpleFM_______________ 0;
#X obj 167 379 *~;
#X obj 167 423 +~;
#X obj 167 446 osc~;
#X obj 386 636 *~ 0.8;
#X obj 221 403 sig~ 600;
#X obj 167 337 osc~ 200;
#X obj 222 360 sig~ 50;
#X floatatom 167 304 5 0 0 0 - - -;
#X text 204 305 modulator frequency;
#X obj 171 234 mtof;
#X obj 173 208 stripnote;
#X obj 368 518 bng 15 250 50 0 empty empty empty 17 7 0 10 -262144
-1 -1;
#X obj 385 583 *~;
#X obj 385 617 *~;
#X obj 410 559 / 100;
#X obj 412 598 line;
#X floatatom 457 576 5 0 0 0 - - -;
#X text 495 575 time offset to adjust volume to velocity;
#N canvas 0 22 450 300 eald~ 0;
#X msg 394 133 bang;
#X floatatom 504 74 5 0 0 0 - - -;
#X floatatom 555 73 5 0 0 0 - - -;
#X floatatom 605 73 5 0 0 0 - - -;
#X text 471 25 "ALD" enveloppe;
#X obj 504 49 inlet;
#X obj 555 48 inlet;
#X obj 605 48 inlet;
#X obj 408 52 inlet;
#X obj 379 432 outlet~;
#X text 633 133 ENVELOPE SECTION;
#X obj 379 346 vline~;
#X msg 352 245 1;
#X obj 352 265 pack f f;
#X obj 352 286 unpack f f;
#X msg 456 246 0;
#X obj 456 267 pack f f f;
#X obj 456 288 unpack f f f;
#X obj 456 225 delay 5;
#X text 102 283 Attack : sends a 1 to get to in A msec;
#X text 529 224 wait the end of the attack;
#X text 538 254 Length+Decay : 0 to get to in D msec \, after L msec
;
#X text 493 74 A;
#X text 544 74 L;
#X text 594 74 D;
#X connect 0 0 12 0;
#X connect 0 0 18 0;
#X connect 1 0 13 1;
#X connect 1 0 18 1;
#X connect 2 0 16 2;
#X connect 3 0 16 1;
#X connect 5 0 1 0;
#X connect 6 0 2 0;
#X connect 7 0 3 0;
#X connect 8 0 0 0;
#X connect 11 0 9 0;
#X connect 12 0 13 0;
#X connect 13 0 14 0;
#X connect 14 0 11 0;
#X connect 14 1 11 1;
#X connect 15 0 16 0;
#X connect 16 0 17 0;
#X connect 17 0 11 0;
#X connect 17 1 11 1;
#X connect 17 2 11 2;
#X connect 18 0 15 0;
#X restore 372 539 pd eald~;
#X obj 500 538 loadbang;
#X msg 500 559 50;
#X obj 411 579 + 0.05;
#X obj 167 172 inlet;
#X obj 213 174 inlet;
#X obj 365 193 inlet;
#X obj 411 195 inlet;
#X obj 453 194 inlet;
#X obj 499 196 inlet;
#X obj 548 199 inlet;
#X obj 387 658 outlet~;
#X connect 0 0 1 0;
#X connect 1 0 2 0;
#X connect 2 0 12 0;
#X connect 3 0 29 0;
#X connect 4 0 1 1;
#X connect 5 0 0 0;
#X connect 6 0 0 1;
#X connect 7 0 5 0;
#X connect 9 0 7 0;
#X connect 10 0 9 0;
#X connect 10 0 11 0;
#X connect 10 1 14 0;
#X connect 11 0 18 0;
#X connect 11 0 20 0;
#X connect 12 0 13 0;
#X connect 13 0 3 0;
#X connect 14 0 21 0;
#X connect 15 0 13 1;
#X connect 16 0 15 1;
#X connect 18 0 12 1;
#X connect 19 0 20 0;
#X connect 20 0 16 0;
#X connect 21 0 15 0;
#X connect 22 0 10 0;
#X connect 23 0 10 1;
#X connect 24 0 6 0;
#X connect 25 0 4 0;
#X connect 26 0 18 1;
#X connect 27 0 18 2;
#X connect 28 0 18 3;
#X restore 63 195 pd simpleFM_______________;
#X obj 8 138 notein;
#X floatatom 63 179 5 0 0 0 - - -;
#X floatatom 95 179 5 0 0 0 - - -;
#X floatatom 142 146 5 0 0 0 - - -;
#X floatatom 185 146 5 0 0 0 - - -;
#X floatatom 230 146 5 0 0 0 - - -;
#X floatatom 274 146 5 0 0 0 - - -;
#X floatatom 318 146 5 0 0 0 - - -;
#X floatatom 142 179 5 0 0 0 - - -;
#X floatatom 185 179 5 0 0 0 - - -;
#X floatatom 230 179 5 0 0 0 - - -;
#X floatatom 274 179 5 0 0 0 - - -;
#X floatatom 318 179 5 0 0 0 - - -;
#X obj 142 162 / 127;
#X obj 185 162 / 127;
#X obj 230 162 / 127;
#X obj 274 162 / 127;
#X obj 318 162 / 127;
#N canvas 0 22 450 300 (subpatch) 0;
#X obj -30 22 spigot;
#X obj 2 3 tgl 15 0 empty empty empty 17 7 0 10 -262144 -1 -1 0 1;
#X obj -58 0 inlet;
#X obj -54 54 outlet;
#X connect 0 0 3 0;
#X connect 1 0 0 1;
#X connect 2 0 0 0;
#X coords 0 1 100 -1 20 20 1 0 0;
#X restore 63 137 graph;
#N canvas 0 22 450 300 (subpatch) 0;
#X obj -30 22 spigot;
#X obj 2 3 tgl 15 0 empty empty empty 17 7 0 10 -262144 -1 -1 0 1;
#X obj -58 0 inlet;
#X obj -54 54 outlet;
#X connect 0 0 3 0;
#X connect 1 0 0 1;
#X connect 2 0 0 0;
#X coords 0 1 100 -1 20 20 1 0 0;
#X restore 95 137 graph;
#N canvas 0 22 450 300 (subpatch) 0;
#X obj -30 22 spigot;
#X obj 2 3 tgl 15 0 empty empty empty 17 7 0 10 -262144 -1 -1 0 1;
#X obj -58 0 inlet;
#X obj -54 54 outlet;
#X connect 0 0 3 0;
#X connect 1 0 0 1;
#X connect 2 0 0 0;
#X coords 0 1 100 -1 20 20 1 0 0;
#X restore 8 159 graph;
#N canvas 0 22 450 300 (subpatch) 0;
#X obj -30 22 spigot;
#X obj 2 3 tgl 15 0 empty empty empty 17 7 0 10 -262144 -1 -1 0 1;
#X obj -58 0 inlet;
#X obj -54 54 outlet;
#X connect 0 0 3 0;
#X connect 1 0 0 1;
#X connect 2 0 0 0;
#X coords 0 1 100 -1 20 20 1 0 0;
#X restore 28 159 graph;
#X obj 318 117 knob 25 25 0 127 0 0 empty empty empty 0 -8 32 8 -1
-260097 -260097 0 1;
#X obj 274 117 knob 25 25 0 127 0 0 empty empty empty 0 -8 32 8 -1
-260097 -260097 0 1;
#X obj 230 117 knob 25 25 0 127 0 0 empty empty empty 0 -8 32 8 -1
-260097 -260097 0 1;
#X obj 185 117 knob 25 25 0 127 0 0 empty empty empty 0 -8 32 8 -1
-260097 -260097 0 1;
#X obj 142 117 knob 25 25 0 127 0 0 empty empty empty 0 -8 32 8 -1
-260097 -260097 0 1;
#N canvas 0 22 450 300 (subpatch) 0;
#X obj -30 22 spigot;
#X obj 2 3 tgl 15 0 empty empty empty 17 7 0 10 -262144 -1 -1 0 1;
#X obj -58 0 inlet;
#X obj -54 54 outlet;
#X connect 0 0 3 0;
#X connect 1 0 0 1;
#X connect 2 0 0 0;
#X coords 0 1 100 -1 20 20 1 0 0;
#X restore 142 94 graph;
#N canvas 0 22 450 300 (subpatch) 0;
#X obj -30 22 spigot;
#X obj 2 3 tgl 15 0 empty empty empty 17 7 0 10 -262144 -1 -1 0 1;
#X obj -58 0 inlet;
#X obj -54 54 outlet;
#X connect 0 0 3 0;
#X connect 1 0 0 1;
#X connect 2 0 0 0;
#X coords 0 1 100 -1 20 20 1 0 0;
#X restore 185 94 graph;
#N canvas 0 22 450 300 (subpatch) 0;
#X obj -30 22 spigot;
#X obj 2 3 tgl 15 0 empty empty empty 17 7 0 10 -262144 -1 -1 0 1;
#X obj -58 0 inlet;
#X obj -54 54 outlet;
#X connect 0 0 3 0;
#X connect 1 0 0 1;
#X connect 2 0 0 0;
#X coords 0 1 100 -1 20 20 1 0 0;
#X restore 230 94 graph;
#N canvas 0 22 450 300 (subpatch) 0;
#X obj -30 22 spigot;
#X obj 2 3 tgl 15 0 empty empty empty 17 7 0 10 -262144 -1 -1 0 1;
#X obj -58 0 inlet;
#X obj -54 54 outlet;
#X connect 0 0 3 0;
#X connect 1 0 0 1;
#X connect 2 0 0 0;
#X coords 0 1 100 -1 20 20 1 0 0;
#X restore 274 94 graph;
#N canvas 0 22 450 300 (subpatch) 0;
#X obj -30 22 spigot;
#X obj 2 3 tgl 15 0 empty empty empty 17 7 0 10 -262144 -1 -1 0 1;
#X obj -58 0 inlet;
#X obj -54 54 outlet;
#X connect 0 0 3 0;
#X connect 1 0 0 1;
#X connect 2 0 0 0;
#X coords 0 1 100 -1 20 20 1 0 0;
#X restore 318 94 graph;
#X obj 318 77 ctlin 5;
#X obj 274 56 ctlin 4;
#X obj 230 36 ctlin 3;
#X obj 185 16 ctlin 2;
#X obj 142 -5 ctlin 1;
#N canvas 0 22 450 300 (subpatch) 0;
#X obj 59 155 inlet;
#X obj 3 89 inlet~;
#X obj 58 182 change;
#X msg 60 246 set \$1;
#X obj 60 227 tosymbol;
#X obj 59 204 sprintf Bus%d;
#X obj 3 282 throw~ Bus0;
#X obj 2 3 popup 124 25 #ffffff popup Bus0 Bus1 Bus2 Bus3 Bus4 Bus5
;
#X obj 1 32 route bang;
#X obj 154 202 *~;
#X obj 141 7 tgl 15 0 empty empty Dac 19 7 0 10 -262144 -1 -1 0 1;
#X obj 155 238 dac~;
#X obj 1 -41 loadbang;
#X text 59 -43 Bus0 mutes;
#X msg 1 -23 options Bus0 Bus1 Bus2 Bus3 Bus4 Bus5 Bus6 Bus7 Bus8 Bus9
Bus10 Bus11 Bus12 Bus13 Bus14 Bus15 Bus16;
#X connect 0 0 2 0;
#X connect 1 0 6 0;
#X connect 1 0 9 0;
#X connect 2 0 5 0;
#X connect 3 0 6 0;
#X connect 4 0 3 0;
#X connect 5 0 4 0;
#X connect 7 0 8 0;
#X connect 8 1 2 0;
#X connect 9 0 11 0;
#X connect 9 0 11 1;
#X connect 10 0 9 1;
#X connect 12 0 14 0;
#X connect 14 0 7 0;
#X coords 0 1 100 -1 180 30 1 0 0;
#X restore 63 212 graph;
#X obj 63 -45 r noteFM2;
#X obj 95 -25 r velFM2;
#X connect 5 0 43 0;
#X connect 6 0 26 0;
#X connect 6 1 27 0;
#X connect 7 0 5 0;
#X connect 8 0 5 1;
#X connect 9 0 19 0;
#X connect 10 0 20 0;
#X connect 11 0 21 0;
#X connect 12 0 22 0;
#X connect 13 0 23 0;
#X connect 14 0 5 2;
#X connect 15 0 5 3;
#X connect 16 0 5 4;
#X connect 17 0 5 5;
#X connect 18 0 5 6;
#X connect 19 0 14 0;
#X connect 20 0 15 0;
#X connect 21 0 16 0;
#X connect 22 0 17 0;
#X connect 23 0 18 0;
#X connect 24 0 7 0;
#X connect 25 0 8 0;
#X connect 26 0 7 0;
#X connect 27 0 8 0;
#X connect 28 0 13 0;
#X connect 29 0 12 0;
#X connect 30 0 11 0;
#X connect 31 0 10 0;
#X connect 32 0 9 0;
#X connect 33 0 32 0;
#X connect 34 0 31 0;
#X connect 35 0 30 0;
#X connect 36 0 29 0;
#X connect 37 0 28 0;
#X connect 38 0 37 0;
#X connect 39 0 36 0;
#X connect 40 0 35 0;
#X connect 41 0 34 0;
#X connect 42 0 33 0;
#X connect 44 0 24 0;
#X connect 45 0 25 0;
