#N canvas 0 22 450 296 10;
#N canvas 0 22 450 300 (subpatch) 0;
#X text 11 406 computer music;
#X text 11 415 center \, columbia;
#X text 12 423 university;
#X text 8 231 pressure \, reed stiffness \,;
#X text 7 166 flip~;
#X text 7 180 signal inverter;
#X text 12 397 by r. luke dubois \,;
#X text 9 318 inspired by the most excellet;
#X text 9 326 'fold2' unit generator in;
#X text 9 333 james mccartney's supercollider;
#X text 7 211 flip~ takes a carrier signal;
#X text 8 221 and 'flips' it around a threshold;
#X text 7 240 signal if the absolute value of;
#X text 8 250 the carrier input is greater than;
#X text 7 259 the absolute value of the threshold.;
#X text 805 262 some examples...;
#X msg 727 296 1 0;
#X msg 727 320 0.5 0.75;
#X msg 728 345 0.75 0.5;
#X msg 729 371 0.75 5;
#X obj 700 276 loadbang;
#X obj 790 406 unpack 0 0;
#X obj 791 471 flip~;
#X obj 790 448 sig~;
#X floatatom 790 430 5 0 0 0 - - -;
#X obj 845 451 sig~;
#X floatatom 845 433 5 0 0 0 - - -;
#X obj 737 477 metro 20;
#X obj 792 494 snapshot~;
#X obj 737 458 tgl 15 0 empty empty empty 0 -6 0 8 -262144 -1 -1 1
1;
#X msg 700 411 1;
#X floatatom 792 516 5 0 0 0 - - -;
#X floatatom 265 384 5 0 0 0 - - -;
#X obj 265 357 counter 0 15;
#N canvas 0 22 450 300 (subpatch) 0;
#X array mycoll 16 float 1;
#A 0 46.4295 48.7151 54.2006 57.4004 58.7718 64.7144 63.8002 58.3147
57.8576 57.4004 60.6003 66.0858 66.5429 56.9433 57.629 58.7718;
#X coords 0 80 15 48 180 110 1;
#X restore 9 18 graph;
#X obj 265 408 tabread mycoll;
#X obj 265 435 mtof;
#X msg 265 462 \$1 20;
#X obj 265 516 osc~;
#X obj 329 515 osc~;
#X floatatom 329 464 5 0 0 0 - - -;
#X text 327 449 of the flip oscillator;
#X text 329 440 change the frequency;
#X obj 265 489 line~;
#X obj 460 555 tgl 15 0 empty empty empty 0 -6 0 8 -262144 -1 -1 0
1;
#X text 415 509 reverse 'carrier' and;
#X text 410 526 'modulator' signals;
#N canvas 0 22 564 422 revcarmod 0;
#X obj 74 46 inlet;
#X floatatom 74 112 5 0 0 0 - - -;
#X obj 115 50 tgl 15 0 empty empty empty 0 -6 0 8 -262144 -1 -1 0 1
;
#X obj 198 43 inlet~;
#X obj 346 45 inlet~;
#X obj 101 92 expr ($i1-1)*-1;
#X floatatom 115 113 5 0 0 0 - - -;
#X obj 199 214 *~;
#X obj 200 246 +~;
#X obj 201 279 outlet~;
#X obj 232 214 *~;
#X obj 315 211 *~;
#X obj 316 246 +~;
#X obj 317 282 outlet~;
#X obj 346 211 *~;
#X connect 0 0 1 0;
#X connect 1 0 5 0;
#X connect 1 0 10 1;
#X connect 1 0 11 1;
#X connect 2 0 1 0;
#X connect 3 0 7 0;
#X connect 3 0 11 0;
#X connect 4 0 10 0;
#X connect 4 0 14 0;
#X connect 5 0 6 0;
#X connect 6 0 7 1;
#X connect 6 0 14 1;
#X connect 7 0 8 0;
#X connect 8 0 9 0;
#X connect 10 0 8 1;
#X connect 11 0 12 0;
#X connect 12 0 13 0;
#X connect 14 0 12 1;
#X restore 233 568 pd revcarmod;
#X obj 234 600 flip~ 0;
#X text 769 295 a theshold of 0 inverts the polarity of the incoming
signal;
#X text 787 314 incoming signals below a non-zero threshold or its
inverse are passed;
#X text 801 342 incoming signals above a non-zero threshold are flipped
around the threshold;
#X text 798 373 the threshold applies for both positive and negative
signals;
#X obj 319 316 metro;
#X obj 408 262 inlet;
#X obj 338 239 inlet;
#X msg 339 269 0;
#X obj 234 648 outlet~;
#X obj 540 333 inlet;
#X obj 470 310 inlet;
#X connect 16 0 21 0;
#X connect 17 0 21 0;
#X connect 18 0 21 0;
#X connect 19 0 21 0;
#X connect 20 0 16 0;
#X connect 20 0 30 0;
#X connect 21 0 24 0;
#X connect 21 1 26 0;
#X connect 22 0 28 0;
#X connect 23 0 22 0;
#X connect 24 0 23 0;
#X connect 25 0 22 1;
#X connect 26 0 25 0;
#X connect 27 0 28 0;
#X connect 28 0 31 0;
#X connect 29 0 27 0;
#X connect 30 0 29 0;
#X connect 32 0 35 0;
#X connect 33 0 32 0;
#X connect 35 0 36 0;
#X connect 36 0 37 0;
#X connect 37 0 43 0;
#X connect 38 0 47 1;
#X connect 39 0 47 2;
#X connect 40 0 39 0;
#X connect 43 0 38 0;
#X connect 44 0 47 0;
#X connect 47 0 48 0;
#X connect 47 1 48 1;
#X connect 48 0 57 0;
#X connect 53 0 33 0;
#X connect 54 0 53 1;
#X connect 55 0 53 0;
#X connect 58 0 44 0;
#X connect 59 0 40 0;
#X coords 0 1 100 -1 200 140 1 0 0;
#X restore 22 -135 graph;
#X text 191 -186 of the flip oscillator;
#X text 193 -197 change the frequency;
#X text 235 -155 reverse 'carrier' and;
#X text 230 -143 'modulator' signals;
#X obj 22 -152 tgl 15 1 empty empty empty 0 -6 0 10 -262144 -1 -1 0
1;
#X obj 87 -151 nbx 5 14 -1e+37 1e+37 0 1 empty empty empty 0 -6 0 10
-262144 -1 -1 200 256;
#X obj 87 -170 r Mmetro;
#X obj 215 -152 tgl 15 1 empty empty empty 0 -6 0 10 -262144 -1 -1
0 1;
#X floatatom 150 -153 5 0 0 0 - - -;
#X obj 159 -181 knob 25 25 0 127 0 0 empty empty empty 0 -8 32 8 -1
-4034 -260097 0 1;
#N canvas 0 22 450 300 armfloat 0;
#X obj 119 84 inlet bang;
#X obj 222 83 inlet trig;
#X obj 119 387 f;
#X obj 119 410 change;
#X obj 119 435 outlet trig;
#X obj 355 83 inlet wait;
#X obj 284 262 f;
#X msg 299 220 0;
#X obj 284 287 + 1;
#X obj 119 195 spigot;
#X msg 152 160 0;
#X msg 184 159 1;
#X obj 222 113 t b b;
#X obj 355 195 moses 1;
#X obj 284 310 sel 1;
#X connect 0 0 9 0;
#X connect 1 0 2 1;
#X connect 1 0 12 0;
#X connect 2 0 3 0;
#X connect 3 0 4 0;
#X connect 5 0 13 0;
#X connect 6 0 8 0;
#X connect 7 0 6 1;
#X connect 8 0 6 1;
#X connect 8 0 14 0;
#X connect 9 0 6 0;
#X connect 10 0 9 1;
#X connect 11 0 9 1;
#X connect 12 0 11 0;
#X connect 12 1 7 0;
#X connect 13 1 14 1;
#X connect 14 0 2 0;
#X connect 14 0 10 0;
#X restore 11 -169 pd armfloat;
#X obj 11 -187 r Mbang;
#X obj 42 -204 tgl 15 0 empty empty empty 0 -6 0 8 -262144 -1 -1 0
1;
#N canvas 0 22 450 300 (subpatch) 0;
#X obj 59 155 inlet;
#X obj 3 89 inlet~;
#X obj 58 182 change;
#X msg 60 246 set \$1;
#X obj 60 227 tosymbol;
#X obj 59 204 sprintf Bus%d;
#X obj 3 282 throw~ Bus0;
#X obj 2 3 popup 124 25 #ffffff popup Bus0 Bus1 Bus2 Bus3 Bus4 Bus5
Bus6 Bus7 Bus8 Bus9 Bus10 Bus11 Bus12 Bus13 Bus14 Bus15 Bus16;
#X obj 1 32 route bang;
#X obj 154 202 *~;
#X obj 141 7 tgl 15 0 empty empty Dac 19 7 0 10 -262144 -1 -1 0 1;
#X obj 155 238 dac~;
#X obj 1 -49 loadbang;
#X text 59 -51 Bus0 mutes;
#X msg 1 -31 options Bus0 Bus1 Bus2 Bus3 Bus4 Bus5 Bus6 Bus7 Bus8 Bus9
Bus10 Bus11 Bus12 Bus13 Bus14 Bus15 Bus16;
#X connect 0 0 2 0;
#X connect 1 0 6 0;
#X connect 1 0 9 0;
#X connect 2 0 5 0;
#X connect 3 0 6 0;
#X connect 4 0 3 0;
#X connect 5 0 4 0;
#X connect 7 0 8 0;
#X connect 8 1 2 0;
#X connect 9 0 11 0;
#X connect 9 0 11 1;
#X connect 10 0 9 1;
#X connect 12 0 14 0;
#X connect 14 0 7 0;
#X coords 0 1 100 -1 180 30 1 0 0;
#X restore 22 5 graph;
#X connect 0 0 14 0;
#X connect 5 0 0 0;
#X connect 6 0 0 1;
#X connect 7 0 6 0;
#X connect 8 0 0 3;
#X connect 9 0 0 2;
#X connect 10 0 9 0;
#X connect 11 0 5 0;
#X connect 12 0 11 0;
#X connect 13 0 11 1;
