#N canvas 99 22 439 277 10;
#N canvas 0 22 1024 705 (subpatch) 0;
#N canvas 0 22 450 300 (subpatch) 0;
#X array notes 4 float 2;
#X coords 0 64 4 40 200 140 1;
#X restore 316 -3 graph;
#N canvas 0 22 450 300 (subpatch) 0;
#X array volume 4 float 2;
#X coords 0 1 4 0 200 140 1;
#X restore 533 -6 graph;
#X obj -255 -1 metro 200;
#X obj -254 34 f;
#X obj -221 34 + 1;
#X obj -253 92 t f f;
#X obj -290 149 mtof;
#X obj -290 174 osc~;
#X obj -218 314 vline~;
#X obj 7 21 vsl 15 100 40 64 0 0 empty empty empty 0 -9 0 10 -262144
-1 -1 0 1;
#X obj 23 21 vsl 15 100 40 64 0 0 empty empty empty 0 -9 0 10 -262144
-1 -1 0 1;
#X obj 39 21 vsl 15 100 40 64 0 0 empty empty empty 0 -9 0 10 -262144
-1 -1 0 1;
#X obj 55 21 vsl 15 100 40 64 0 0 empty empty empty 0 -9 0 10 -262144
-1 -1 0 1;
#X obj -36 222 int;
#X obj -8 222 int;
#X obj -7 243 t b f;
#X obj -8 265 s bng;
#X obj -77 287 r bng;
#X obj 31 221 int;
#X obj 32 243 t b f;
#X obj 31 266 s bng;
#X obj 71 219 int;
#X obj 71 241 t b f;
#X obj 71 263 s bng;
#X obj -32 310 pack f f f f;
#X msg -30 348 0 \$1 \$2 \$3 \$4;
#X obj -27 373 s notes;
#X obj -253 63 mod 4;
#X obj 125 22 vsl 15 100 0 1 0 0 empty empty empty 0 -9 0 10 -262144
-1 -1 0 1;
#X obj 141 22 vsl 15 100 0 1 0 0 empty empty empty 0 -9 0 10 -262144
-1 -1 0 1;
#X obj 157 22 vsl 15 100 0 1 0 0 empty empty empty 0 -9 0 10 -262144
-1 -1 0 1;
#X obj 173 22 vsl 15 100 0 1 0 0 empty empty empty 0 -9 0 10 -262144
-1 -1 0 1;
#X obj 193 245 t b f;
#X obj 193 268 s bng;
#X obj 140 287 r bng;
#X obj 235 243 t b f;
#X obj 235 266 s bng;
#X obj 275 245 t b f;
#X obj 276 267 s bng;
#X obj 185 310 pack f f f f;
#X msg 187 348 0 \$1 \$2 \$3 \$4;
#X obj 190 373 s volume;
#X floatatom -194 83 5 0 0 0 - - -;
#X obj -290 123 tabread notes;
#X obj -156 225 tabread volume;
#X obj -272 343 *~;
#X obj -158 176 change;
#X obj -155 200 i;
#X obj -245 177 t b b;
#X obj -244 248 delay 230;
#X msg -157 249 \$1 30 \, 0 170 30;
#X msg -244 270 0 170;
#X obj -106 202 bng 15 250 50 0 empty empty empty 17 7 0 10 -262144
-1 -1;
#X obj -246 147 t f b;
#X msg -219 202 1 12;
#X msg -233 225 stop;
#X obj -250 -23 inlet;
#X obj -264 394 outlet~;
#X text 14 2 Note;
#X text 143 2 Vel;
#X obj -191 -45 inlet;
#X connect 2 0 3 0;
#X connect 3 0 4 0;
#X connect 3 0 27 0;
#X connect 4 0 3 1;
#X connect 5 0 43 0;
#X connect 5 1 47 1;
#X connect 6 0 7 0;
#X connect 7 0 45 0;
#X connect 8 0 45 1;
#X connect 9 0 13 0;
#X connect 10 0 14 0;
#X connect 11 0 18 0;
#X connect 12 0 21 0;
#X connect 13 0 24 0;
#X connect 14 0 15 0;
#X connect 15 0 16 0;
#X connect 15 1 24 1;
#X connect 17 0 24 0;
#X connect 18 0 19 0;
#X connect 19 0 20 0;
#X connect 19 1 24 2;
#X connect 21 0 22 0;
#X connect 22 0 23 0;
#X connect 22 1 24 3;
#X connect 24 0 25 0;
#X connect 25 0 26 0;
#X connect 27 0 5 0;
#X connect 27 0 42 0;
#X connect 28 0 39 0;
#X connect 29 0 32 0;
#X connect 30 0 35 0;
#X connect 31 0 37 0;
#X connect 32 0 33 0;
#X connect 32 1 39 1;
#X connect 34 0 39 0;
#X connect 35 0 36 0;
#X connect 35 1 39 2;
#X connect 37 0 38 0;
#X connect 37 1 39 3;
#X connect 39 0 40 0;
#X connect 40 0 41 0;
#X connect 43 0 6 0;
#X connect 43 0 53 0;
#X connect 44 0 50 0;
#X connect 45 0 57 0;
#X connect 46 0 47 0;
#X connect 46 0 52 0;
#X connect 46 0 55 0;
#X connect 47 0 44 0;
#X connect 48 0 49 0;
#X connect 48 1 54 0;
#X connect 49 0 51 0;
#X connect 50 0 8 0;
#X connect 51 0 8 0;
#X connect 53 0 46 0;
#X connect 53 1 48 0;
#X connect 54 0 8 0;
#X connect 55 0 49 0;
#X connect 56 0 2 0;
#X connect 60 0 2 1;
#X coords 0 1 100 -1 200 140 1 0 0;
#X restore 100 20 graph;
#X obj 100 4 tgl 15 0 empty empty empty 17 7 0 10 -262144 -1 -1 0 1
;
#X floatatom 268 4 5 0 0 0 - - -;
#X text 265 -21 Speed;
#X text 98 -22 On/off;
#N canvas 0 22 450 300 armfloat 0;
#X obj 119 84 inlet bang;
#X obj 222 83 inlet trig;
#X obj 119 387 f;
#X obj 119 410 change;
#X obj 119 435 outlet trig;
#X obj 355 83 inlet wait;
#X obj 284 262 f;
#X msg 299 220 0;
#X obj 284 287 + 1;
#X obj 119 195 spigot;
#X msg 152 160 0;
#X msg 184 159 1;
#X obj 222 113 t b b;
#X obj 355 195 moses 1;
#X obj 284 310 sel 1;
#X connect 0 0 9 0;
#X connect 1 0 2 1;
#X connect 1 0 12 0;
#X connect 2 0 3 0;
#X connect 3 0 4 0;
#X connect 5 0 13 0;
#X connect 6 0 8 0;
#X connect 7 0 6 1;
#X connect 8 0 6 1;
#X connect 8 0 14 0;
#X connect 9 0 6 0;
#X connect 10 0 9 1;
#X connect 11 0 9 1;
#X connect 12 0 11 0;
#X connect 12 1 7 0;
#X connect 13 1 14 1;
#X connect 14 0 2 0;
#X connect 14 0 10 0;
#X restore 100 -41 pd armfloat;
#X obj 100 -59 r Mbang;
#X obj 131 -76 tgl 15 0 empty empty empty 0 -6 0 8 -262144 -1 -1 0
1;
#N canvas 0 22 450 300 (subpatch) 0;
#X obj 59 155 inlet;
#X obj 3 89 inlet~;
#X obj 58 182 change;
#X msg 60 246 set \$1;
#X obj 60 227 tosymbol;
#X obj 59 204 sprintf Bus%d;
#X obj 3 282 throw~ Bus0;
#X obj 2 3 popup 124 25 #ffffff popup Bus0 Bus1 Bus2 Bus3 Bus4 Bus5
Bus6 Bus7 Bus8 Bus9 Bus10 Bus11 Bus12 Bus13 Bus14 Bus15 Bus16;
#X obj 1 32 route bang;
#X obj 154 202 *~;
#X obj 141 7 tgl 15 0 empty empty Dac 19 7 0 10 -262144 -1 -1 0 1;
#X obj 155 238 dac~;
#X obj 1 -49 loadbang;
#X text 59 -51 Bus0 mutes;
#X msg 1 -31 options Bus0 Bus1 Bus2 Bus3 Bus4 Bus5 Bus6 Bus7 Bus8 Bus9
Bus10 Bus11 Bus12 Bus13 Bus14 Bus15 Bus16;
#X connect 0 0 2 0;
#X connect 1 0 6 0;
#X connect 1 0 9 0;
#X connect 2 0 5 0;
#X connect 3 0 6 0;
#X connect 4 0 3 0;
#X connect 5 0 4 0;
#X connect 7 0 8 0;
#X connect 8 1 2 0;
#X connect 9 0 11 0;
#X connect 9 0 11 1;
#X connect 10 0 9 1;
#X connect 12 0 14 0;
#X connect 14 0 7 0;
#X coords 0 1 100 -1 180 30 1 0 0;
#X restore 100 162 graph;
#X connect 0 0 8 0;
#X connect 1 0 0 0;
#X connect 2 0 0 1;
#X connect 5 0 1 0;
#X connect 6 0 5 0;
#X connect 7 0 5 1;
