#N canvas 186 88 469 269 10;
#N canvas 0 22 450 300 (subpatch) 0;
#X obj 296 -55 metro;
#X obj 385 -109 inlet;
#X obj 260 -126 inlet;
#X msg 316 -102 0;
#X text -47 317 computer music;
#X text -47 326 center \, columbia;
#X text -46 334 university;
#X text -46 308 by luke dubois \,;
#X text -46 153 escalator~;
#X text -46 167 signal rounder...;
#X text -45 193 escalator~ takes the incoming;
#X text -44 203 signal and rounds it to the;
#X text -44 213 nearest integer. an argument;
#X text -45 222 or and in in the right outlet;
#X text -44 232 determines the rounding;
#X text -44 241 algorithm (-1 always round;
#X text -44 249 down \, 0 = round normally (>=;
#X text -44 257 0.5 round up \, otherwise;
#X text -44 265 down) \, 1 always round up.;
#X floatatom 308 -12 5 0 0 0 - - -;
#X obj 308 7 phasor~ 0.25;
#X obj 308 29 *~ 16;
#X obj 308 50 escalator~ -1;
#X text 403 51 <-- use to turn a ramp into a step sequencer...;
#X obj 308 72 snapshot~ 1;
#X obj 308 96 i;
#N canvas 0 22 450 300 (subpatch) 0;
#X array mycoll 16 float 1;
#A 0 42 50 56 56 56 56 56 56 56.4 56.4 56.4 53.2 50.4001 41.6002 54
48;
#X coords 0 64 15 36 180 110 1;
#X restore 10 21 graph;
#X obj 308 119 tabread mycoll;
#X obj 308 143 mtof;
#X msg 308 165 \$1 20;
#X obj 308 192 line~;
#X obj 307 261 *~ 5;
#X obj 308 286 escalator~ -1;
#X obj 309 311 *~ 0.2;
#X obj 307 224 osc~;
#X floatatom 372 148 5 0 0 0 - - -;
#X text 164 201 play around...;
#X floatatom 165 222 5 0 0 0 - - -;
#X floatatom 166 311 5 0 0 0 - - -;
#X msg 210 219 0;
#X msg 237 219 -1;
#X msg 263 219 1;
#X obj 166 267 escalator~ -1;
#X obj 166 289 snapshot~ 1;
#X obj 165 242 sig~;
#X obj 310 332 outlet~;
#X connect 0 0 24 0;
#X connect 0 0 37 0;
#X connect 1 0 0 1;
#X connect 2 0 0 0;
#X connect 19 0 20 0;
#X connect 20 0 21 0;
#X connect 21 0 22 0;
#X connect 22 0 24 0;
#X connect 24 0 25 0;
#X connect 25 0 27 0;
#X connect 27 0 28 0;
#X connect 27 0 35 0;
#X connect 28 0 29 0;
#X connect 29 0 30 0;
#X connect 30 0 34 0;
#X connect 31 0 32 0;
#X connect 32 0 33 0;
#X connect 34 0 31 0;
#X connect 37 0 44 0;
#X connect 39 0 42 0;
#X connect 40 0 42 0;
#X connect 41 0 42 0;
#X connect 42 0 43 0;
#X connect 43 0 38 0;
#X connect 44 0 42 0;
#X coords 0 1 100 -1 200 140 1 0 0;
#X restore 48 46 graph;
#X obj 48 30 tgl 15 1 empty empty empty 0 -6 0 10 -262144 -1 -1 0 1
;
#X obj 241 30 nbx 5 14 -1e+37 1e+37 0 1 empty empty empty 0 -6 0 10
-262144 -1 -1 200 256;
#X obj 241 11 r Mmetro;
#N canvas 0 22 450 300 (subpatch) 0;
#X obj 59 155 inlet;
#X obj 3 89 inlet~;
#X obj 58 182 change;
#X msg 60 246 set \$1;
#X obj 60 227 tosymbol;
#X obj 59 204 sprintf Bus%d;
#X obj 3 282 throw~ Bus0;
#X obj 2 3 popup 124 25 #ffffff popup Bus0 Bus1 Bus2 Bus3 Bus4 Bus5
Bus6 Bus7 Bus8 Bus9 Bus10 Bus11 Bus12 Bus13 Bus14 Bus15 Bus16;
#X obj 1 32 route bang;
#X obj 154 202 *~;
#X obj 141 7 tgl 15 0 empty empty Dac 19 7 0 10 -262144 -1 -1 0 1;
#X obj 155 238 dac~;
#X obj 1 -49 loadbang;
#X text 59 -51 Bus0 mutes;
#X msg 1 -31 options Bus0 Bus1 Bus2 Bus3 Bus4 Bus5 Bus6 Bus7 Bus8 Bus9
Bus10 Bus11 Bus12 Bus13 Bus14 Bus15 Bus16;
#X connect 0 0 2 0;
#X connect 1 0 6 0;
#X connect 1 0 9 0;
#X connect 2 0 5 0;
#X connect 3 0 6 0;
#X connect 4 0 3 0;
#X connect 5 0 4 0;
#X connect 7 0 8 0;
#X connect 8 1 2 0;
#X connect 9 0 11 0;
#X connect 9 0 11 1;
#X connect 10 0 9 1;
#X connect 12 0 14 0;
#X connect 14 0 7 0;
#X coords 0 1 100 -1 180 30 1 0 0;
#X restore 48 191 graph;
#N canvas 0 22 450 300 armfloat 0;
#X obj 119 84 inlet bang;
#X obj 222 83 inlet trig;
#X obj 119 387 f;
#X obj 119 410 change;
#X obj 119 435 outlet trig;
#X obj 355 83 inlet wait;
#X obj 284 262 f;
#X msg 299 220 0;
#X obj 284 287 + 1;
#X obj 119 195 spigot;
#X msg 152 160 0;
#X msg 184 159 1;
#X obj 222 113 t b b;
#X obj 355 195 moses 1;
#X obj 284 310 sel 1;
#X connect 0 0 9 0;
#X connect 1 0 2 1;
#X connect 1 0 12 0;
#X connect 2 0 3 0;
#X connect 3 0 4 0;
#X connect 5 0 13 0;
#X connect 6 0 8 0;
#X connect 7 0 6 1;
#X connect 8 0 6 1;
#X connect 8 0 14 0;
#X connect 9 0 6 0;
#X connect 10 0 9 1;
#X connect 11 0 9 1;
#X connect 12 0 11 0;
#X connect 12 1 7 0;
#X connect 13 1 14 1;
#X connect 14 0 2 0;
#X connect 14 0 10 0;
#X restore 48 11 pd armfloat;
#X obj 48 -7 r Mbang;
#X obj 79 -24 tgl 15 0 empty empty empty 0 -6 0 8 -262144 -1 -1 0 1
;
#X connect 0 0 4 0;
#X connect 1 0 0 0;
#X connect 2 0 0 1;
#X connect 3 0 2 0;
#X connect 5 0 1 0;
#X connect 6 0 5 0;
#X connect 7 0 5 1;
