#N canvas 144 22 654 263 10;
#X obj 46 -3 tgl 15 1 empty empty empty 0 -6 0 10 -262144 -1 -1 0 1
;
#X obj 519 -5 nbx 5 14 -1e+37 1e+37 0 1 empty empty empty 0 -6 0 10
-262144 -1 -1 206 256;
#N canvas 0 22 1024 720 (subpatch) 0;
#X obj 5 24 cnv 15 470 133 empty empty empty 20 12 0 14 -128992 -66577
0;
#X obj 4 -53 f;
#X obj 50 -52 + 1;
#X obj 4 -86 metro;
#X obj 4 -22 mod 16;
#X obj 4 5 hradio 15 1 0 16 empty empty empty 0 -6 0 10 -262144 -1
-1 0;
#X obj 4 244 select 0 1 2 3 4 5 6 7 8 9 10 11 12 13 14 15;
#X obj 7 26 vsl 15 128 0 127 0 1 empty empty empty 0 -8 0 10 -262144
-1 -1 1300 1;
#X obj 4 278 f;
#X obj 37 26 vsl 15 128 0 127 0 1 empty empty empty 0 -8 0 10 -262144
-1 -1 1000 1;
#X obj 34 278 f;
#X obj 67 26 vsl 15 128 0 127 0 1 empty empty empty 0 -8 0 10 -262144
-1 -1 5400 1;
#X obj 64 278 f;
#X obj 97 26 vsl 15 128 0 127 0 1 empty empty empty 0 -8 0 10 -262144
-1 -1 8900 1;
#X obj 94 278 f;
#X obj 127 26 vsl 15 128 0 127 0 1 empty empty empty 0 -8 0 10 -262144
-1 -1 8000 1;
#X obj 124 278 f;
#X obj 157 26 vsl 15 128 0 127 0 1 empty empty empty 0 -8 0 10 -262144
-1 -1 3200 1;
#X obj 154 278 f;
#X obj 187 26 vsl 15 128 0 127 0 1 empty empty empty 0 -8 0 10 -262144
-1 -1 4300 1;
#X obj 184 278 f;
#X obj 217 26 vsl 15 128 0 127 0 1 empty empty empty 0 -8 0 10 -262144
-1 -1 5800 1;
#X obj 214 278 f;
#X obj 247 26 vsl 15 128 0 127 0 1 empty empty empty 0 -8 0 10 -262144
-1 -1 6900 1;
#X obj 244 278 f;
#X obj 277 26 vsl 15 128 0 127 0 1 empty empty empty 0 -8 0 10 -262144
-1 -1 7600 1;
#X obj 274 278 f;
#X obj 307 26 vsl 15 128 0 127 0 1 empty empty empty 0 -8 0 10 -262144
-1 -1 9100 1;
#X obj 304 278 f;
#X obj 337 26 vsl 15 128 0 127 0 1 empty empty empty 0 -8 0 10 -262144
-1 -1 10100 1;
#X obj 334 278 f;
#X obj 367 26 vsl 15 128 0 127 0 1 empty empty empty 0 -8 0 10 -262144
-1 -1 8900 1;
#X obj 364 278 f;
#X obj 397 26 vsl 15 128 0 127 0 1 empty empty empty 0 -8 0 10 -262144
-1 -1 7400 1;
#X obj 394 278 f;
#X obj 427 26 vsl 15 128 0 127 0 1 empty empty empty 0 -8 0 10 -262144
-1 -1 6000 1;
#X obj 424 278 f;
#X obj 457 26 vsl 15 128 0 127 0 1 empty empty empty 0 -8 0 10 -262144
-1 -1 900 1;
#X obj 454 278 f;
#X obj 4 400 phasor~;
#X obj 4 327 mtof;
#X obj 4 456 bp~ 220 5;
#X obj 29 429 * 1.5;
#X text 194 -47 Here is the counter we built in the previous examples.
;
#X text 129 400 [phasor~] gets a frequency from [mtof].;
#X text 130 324 Above \, we have added an [vslider] and an [f] for
each step of our 16 step sequencer. The value of each step is only
sent out when the counter reaches that step \, so you can change the
values of the [vslider]s in between the steps.;
#X text 129 428 Multiply the frequency from [mtof] by 1.5 and send
it to the filter [bp~]. [bp~] filters the sound so that the center
frequency is a half-octave above that of the [phasor~]. The Resonance
is high \, so the harsh sound of the [phasor~] is softened.;
#X text 469 -67 ctl5.pd;
#X text 130 511 You could also add an Envelope Generator here if you
don't want the sharp clicks in between the notes.;
#X obj 93 -140 inlet;
#X obj -32 -157 inlet;
#X obj 4 527 outlet~;
#X connect 1 0 2 0;
#X connect 1 0 4 0;
#X connect 2 0 1 1;
#X connect 3 0 1 0;
#X connect 4 0 5 0;
#X connect 5 0 6 0;
#X connect 6 0 8 0;
#X connect 6 1 10 0;
#X connect 6 2 12 0;
#X connect 6 3 14 0;
#X connect 6 4 16 0;
#X connect 6 5 18 0;
#X connect 6 6 20 0;
#X connect 6 7 22 0;
#X connect 6 8 24 0;
#X connect 6 9 26 0;
#X connect 6 10 28 0;
#X connect 6 11 30 0;
#X connect 6 12 32 0;
#X connect 6 13 34 0;
#X connect 6 14 36 0;
#X connect 6 15 38 0;
#X connect 7 0 8 1;
#X connect 8 0 40 0;
#X connect 9 0 10 1;
#X connect 10 0 40 0;
#X connect 11 0 12 1;
#X connect 12 0 40 0;
#X connect 13 0 14 1;
#X connect 14 0 40 0;
#X connect 15 0 16 1;
#X connect 16 0 40 0;
#X connect 17 0 18 1;
#X connect 18 0 40 0;
#X connect 19 0 20 1;
#X connect 20 0 40 0;
#X connect 21 0 22 1;
#X connect 22 0 40 0;
#X connect 23 0 24 1;
#X connect 24 0 40 0;
#X connect 25 0 26 1;
#X connect 26 0 40 0;
#X connect 27 0 28 1;
#X connect 28 0 40 0;
#X connect 29 0 30 1;
#X connect 30 0 40 0;
#X connect 31 0 32 1;
#X connect 32 0 40 0;
#X connect 33 0 34 1;
#X connect 34 0 40 0;
#X connect 35 0 36 1;
#X connect 36 0 40 0;
#X connect 37 0 38 1;
#X connect 38 0 40 0;
#X connect 39 0 41 0;
#X connect 40 0 39 0;
#X connect 40 0 42 0;
#X connect 41 0 51 0;
#X connect 42 0 41 1;
#X connect 49 0 3 1;
#X connect 50 0 3 0;
#X coords 0 1 100 -1 480 160 1 0 0;
#X restore 46 12 graph;
#X obj 519 -24 r Mmetro;
#N canvas 0 22 450 300 (subpatch) 0;
#X obj 59 155 inlet;
#X obj 3 89 inlet~;
#X obj 58 182 change;
#X msg 60 246 set \$1;
#X obj 60 227 tosymbol;
#X obj 59 204 sprintf Bus%d;
#X obj 3 282 throw~ Bus0;
#X obj 2 3 popup 124 25 #ffffff popup Bus0 Bus1 Bus2 Bus3 Bus4 Bus5
;
#X obj 1 32 route bang;
#X obj 154 202 *~;
#X obj 141 7 tgl 15 0 empty empty Dac 19 7 0 10 -262144 -1 -1 1 1;
#X obj 155 238 dac~;
#X obj 1 -41 loadbang;
#X text 59 -43 Bus0 mutes;
#X msg 1 -23 options Bus0 Bus1 Bus2 Bus3 Bus4 Bus5 Bus6 Bus7 Bus8 Bus9
Bus10 Bus11 Bus12 Bus13 Bus14 Bus15 Bus16;
#X connect 0 0 2 0;
#X connect 1 0 6 0;
#X connect 1 0 9 0;
#X connect 2 0 5 0;
#X connect 3 0 6 0;
#X connect 4 0 3 0;
#X connect 5 0 4 0;
#X connect 7 0 8 0;
#X connect 8 1 2 0;
#X connect 9 0 11 0;
#X connect 9 0 11 1;
#X connect 10 0 9 1;
#X connect 12 0 14 0;
#X connect 14 0 7 0;
#X coords 0 1 100 -1 180 30 1 0 0;
#X restore 46 172 graph;
#N canvas 0 22 450 300 armfloat 0;
#X obj 119 84 inlet bang;
#X obj 222 83 inlet trig;
#X obj 119 387 f;
#X obj 119 410 change;
#X obj 119 435 outlet trig;
#X obj 355 83 inlet wait;
#X obj 284 262 f;
#X msg 299 220 0;
#X obj 284 287 + 1;
#X obj 119 195 spigot;
#X msg 152 160 0;
#X msg 184 159 1;
#X obj 222 113 t b b;
#X obj 355 195 moses 1;
#X obj 284 310 sel 1;
#X connect 0 0 9 0;
#X connect 1 0 2 1;
#X connect 1 0 12 0;
#X connect 2 0 3 0;
#X connect 3 0 4 0;
#X connect 5 0 13 0;
#X connect 6 0 8 0;
#X connect 7 0 6 1;
#X connect 8 0 6 1;
#X connect 8 0 14 0;
#X connect 9 0 6 0;
#X connect 10 0 9 1;
#X connect 11 0 9 1;
#X connect 12 0 11 0;
#X connect 12 1 7 0;
#X connect 13 1 14 1;
#X connect 14 0 2 0;
#X connect 14 0 10 0;
#X restore 46 -21 pd armfloat;
#X obj 46 -39 r Mbang;
#X obj 77 -56 tgl 15 0 empty empty empty 0 -6 0 8 -262144 -1 -1 0 1
;
#X connect 0 0 2 0;
#X connect 1 0 2 1;
#X connect 2 0 4 0;
#X connect 3 0 1 0;
#X connect 5 0 0 0;
#X connect 6 0 5 0;
#X connect 7 0 5 1;
