#N canvas 277 143 734 558 10;
#X obj 20 13 cnv 15 35 100 empty empty empty 20 12 0 14 -33289 -66577
0;
#X obj 24 84 tgl 25 0 \$0-toggle \$0-toggle.r 127 2 14 0 12 -64 -64
-262144 1 1;
#X floatatom 103 118 5 0 0 0 - - -;
#X floatatom 221 45 5 0 0 0 - - -;
#X obj 208 253 line;
#X msg 206 230 \$1 100;
#X obj 193 200 expr ($f1 + 1);
#X obj 192 179 / 2;
#X obj 102 137 select 0;
#X msg 102 164 0;
#X obj 485 -211 r \$0-toggle;
#X obj 610 -69 MouseState;
#X msg 609 -103 poll;
#X msg 545 -103 nopoll;
#X msg 647 -104 zero;
#X obj 612 -150 t b b b;
#X obj 646 68 * -1;
#X obj 646 90 +;
#X obj 699 54 f 0;
#X obj 646 136 clip 0 127;
#X obj 644 169 s \$0-velocity;
#X obj 568 3 sel 0;
#X obj 408 -133 r \$0-velocity;
#N canvas 0 22 434 342 rgb 0;
#X obj 91 55 inlet;
#X obj 168 57 inlet;
#X obj 234 58 inlet;
#X text 96 30 red;
#X text 166 32 green;
#X text 238 32 blue;
#X obj 234 114 t b f;
#X obj 168 172 +;
#X obj 168 197 t b f;
#X obj 168 228 +;
#X obj 168 259 - 1;
#X obj 164 288 outlet;
#X obj 234 92 * -65536;
#X obj 168 92 * -256;
#X obj 91 91 * -1;
#X connect 0 0 14 0;
#X connect 1 0 13 0;
#X connect 2 0 12 0;
#X connect 6 1 7 1;
#X connect 7 0 8 0;
#X connect 8 1 9 1;
#X connect 9 0 10 0;
#X connect 10 0 11 0;
#X connect 12 0 6 0;
#X connect 13 0 7 0;
#X connect 14 0 9 0;
#X restore 407 3 pd rgb;
#X obj 407 -72 * 2;
#X msg 407 -47 \$1 0 0;
#X obj 407 -22 unpack f f f;
#X msg 407 30 color \$1 \$1 0;
#X obj 407 91 s \$0-toggle.r;
#X obj 306 1 makefilename %d;
#X msg 305 22 label \$1;
#X text 810 76 .mmb;
#X obj 485 -183 sel 0 1;
#X msg 370 -140 0;
#X obj 102 -149 loadbang;
#X obj 104 -117 f \$0;
#X obj 403 123 s \$0-test;
#X obj 183 340 s \$0-test;
#X obj 379 322 s \$0-test;
#X obj 384 239 expr 83 - $f1;
#X obj 279 160 outlet;
#X obj 188 111 f 0;
#X floatatom 199 157 5 0 0 0 - - -;
#X obj 24 19 vsl 25 62 0 127 0 0 empty \$0-blah empty 0 -9 0 10 -203904
-203904 -1 6100 1;
#X obj 24 18 cnv 10 24 64 empty \$0-test empty 0 15 0 8 -64 -262144
0;
#X obj 157 84 f;
#X obj 225 113 f;
#X msg 388 281 pos 24 \$1;
#X msg 187 282 vis_size 24 \$1;
#X obj 20 -26 inlet;
#X connect 1 0 2 0;
#X connect 2 0 8 0;
#X connect 3 0 24 0;
#X connect 3 0 29 0;
#X connect 3 0 46 0;
#X connect 3 0 18 1;
#X connect 4 0 48 0;
#X connect 4 0 39 0;
#X connect 5 0 4 0;
#X connect 6 0 5 0;
#X connect 7 0 6 0;
#X connect 8 0 9 0;
#X connect 8 0 41 0;
#X connect 10 0 32 0;
#X connect 11 0 21 0;
#X connect 11 2 16 0;
#X connect 12 0 11 0;
#X connect 13 0 11 0;
#X connect 14 0 11 0;
#X connect 15 0 12 0;
#X connect 15 1 14 0;
#X connect 15 2 18 0;
#X connect 16 0 17 0;
#X connect 17 0 19 0;
#X connect 18 0 17 1;
#X connect 18 0 20 0;
#X connect 19 0 20 0;
#X connect 21 0 13 0;
#X connect 22 0 3 0;
#X connect 22 0 43 0;
#X connect 23 0 27 0;
#X connect 24 0 25 0;
#X connect 25 0 26 0;
#X connect 26 0 23 0;
#X connect 26 1 23 1;
#X connect 26 2 23 2;
#X connect 27 0 28 0;
#X connect 27 0 36 0;
#X connect 29 0 30 0;
#X connect 30 0 28 0;
#X connect 32 0 33 0;
#X connect 32 1 15 0;
#X connect 33 0 24 0;
#X connect 33 0 29 0;
#X connect 34 0 35 0;
#X connect 34 0 33 0;
#X connect 39 0 47 0;
#X connect 41 0 42 0;
#X connect 42 0 7 0;
#X connect 42 0 40 0;
#X connect 43 0 45 0;
#X connect 45 0 3 0;
#X connect 46 0 42 0;
#X connect 47 0 38 0;
#X connect 48 0 37 0;
#X connect 49 0 43 0;
#X coords 0 -1 1 1 35 100 2 20 13;
