#N canvas 223 215 745 533 10;
#X obj 33 24 inlet;
#X obj 215 26 inlet;
#X obj 33 57 mtof;
#X obj 105 267 inlet;
#X obj 33 134 osc~;
#X obj 34 195 *~;
#X obj 34 476 outlet~;
#X obj 81 134 osc~;
#X obj 82 195 *~;
#X obj 133 134 osc~;
#X obj 133 107 * 1;
#X obj 134 195 *~;
#X obj 173 134 osc~;
#X obj 174 195 *~;
#X obj 213 134 osc~;
#X obj 214 195 *~;
#X obj 253 134 osc~;
#X obj 254 195 *~;
#X obj 293 134 osc~;
#X obj 294 195 *~;
#X obj 343 134 osc~;
#X obj 344 195 *~;
#X obj 33 107 * 0.5;
#X obj 81 107 * 1.5;
#X obj 173 107 * 2;
#X obj 213 107 * 3;
#X obj 253 107 * 4;
#X obj 293 107 * 5.04;
#X obj 343 107 * 5.99;
#X obj 393 134 osc~;
#X obj 394 195 *~;
#X obj 393 107 * 8;
#X obj 215 62 unpack \$1 \$2 \$3 \$4 \$5 \$6 \$7 \$8 \$9;
#X obj 33 234 expr~ $v1 + $v2 + $v3 + $v4 + $v5 + $v6 + $v7 + $v8 +
$v9;
#X obj 34 446 *~;
#X obj 105 311 == 0;
#X msg 105 381 0;
#X obj 150 312 > 0;
#X obj 105 359 spigot;
#X obj 150 359 spigot;
#X obj 105 430 line~;
#X obj 105 334 t b f;
#X obj 150 334 t b f;
#X msg 105 407 \$1 5;
#X obj 150 382 expr $f2 / 127 * 0.05;
#X obj 150 291 t f f;
#X connect 0 0 2 0;
#X connect 1 0 32 0;
#X connect 2 0 22 0;
#X connect 2 0 23 0;
#X connect 2 0 10 0;
#X connect 2 0 24 0;
#X connect 2 0 25 0;
#X connect 2 0 26 0;
#X connect 2 0 27 0;
#X connect 2 0 28 0;
#X connect 2 0 31 0;
#X connect 3 0 35 0;
#X connect 3 0 45 0;
#X connect 4 0 5 0;
#X connect 5 0 33 0;
#X connect 7 0 8 0;
#X connect 8 0 33 1;
#X connect 9 0 11 0;
#X connect 10 0 9 0;
#X connect 11 0 33 2;
#X connect 12 0 13 0;
#X connect 13 0 33 3;
#X connect 14 0 15 0;
#X connect 15 0 33 4;
#X connect 16 0 17 0;
#X connect 17 0 33 5;
#X connect 18 0 19 0;
#X connect 19 0 33 6;
#X connect 20 0 21 0;
#X connect 21 0 33 7;
#X connect 22 0 4 0;
#X connect 23 0 7 0;
#X connect 24 0 12 0;
#X connect 25 0 14 0;
#X connect 26 0 16 0;
#X connect 27 0 18 0;
#X connect 28 0 20 0;
#X connect 29 0 30 0;
#X connect 30 0 33 8;
#X connect 31 0 29 0;
#X connect 32 0 5 1;
#X connect 32 1 8 1;
#X connect 32 2 11 1;
#X connect 32 3 13 1;
#X connect 32 4 15 1;
#X connect 32 5 17 1;
#X connect 32 6 19 1;
#X connect 32 7 21 1;
#X connect 32 8 30 1;
#X connect 33 0 34 0;
#X connect 34 0 6 0;
#X connect 35 0 41 0;
#X connect 36 0 43 0;
#X connect 37 0 42 0;
#X connect 38 0 36 0;
#X connect 39 0 44 0;
#X connect 40 0 34 1;
#X connect 41 0 38 0;
#X connect 41 1 38 1;
#X connect 42 0 39 0;
#X connect 42 1 39 1;
#X connect 43 0 40 0;
#X connect 44 0 43 0;
#X connect 45 0 37 0;
#X connect 45 1 44 1;
