#N canvas 0 115 1090 653 10;
#X obj 32 46 notein;
#X obj 32 122 poly 16;
#X obj 32 89 pack \$1 \$2;
#X obj 32 185 select 1 2 3 4 5 6 7 8 9 10 11 12 13 14 15 16;
#X obj 609 45 vsl 10 70 0 1 0 0 empty empty empty 0 -9 0 10 -262144
-1 -1 0 1;
#X obj 629 45 vsl 10 70 0 1 0 0 empty empty empty 0 -9 0 10 -262144
-1 -1 0 1;
#X obj 649 45 vsl 10 70 0 1 0 0 empty empty empty 0 -9 0 10 -262144
-1 -1 0 1;
#X obj 669 45 vsl 10 70 0 1 0 0 empty empty empty 0 -9 0 10 -262144
-1 -1 0 1;
#X obj 689 45 vsl 10 70 0 1 0 0 empty empty empty 0 -9 0 10 -262144
-1 -1 0 1;
#X obj 709 45 vsl 10 70 0 1 0 0 empty empty empty 0 -9 0 10 -262144
-1 -1 0 1;
#X obj 729 45 vsl 10 70 0 1 0 0 empty empty empty 0 -9 0 10 -262144
-1 -1 0 1;
#X obj 749 45 vsl 10 70 0 1 0 0 empty empty empty 0 -9 0 10 -262144
-1 -1 0 1;
#X obj 769 45 vsl 10 70 0 1 0 0 empty empty empty 0 -9 0 10 -262144
-1 -1 0 1;
#X obj 844 118 b;
#X obj 609 207 pack \$1 \$2 \$3 \$4 \$5 \$6 \$7 \$8 \$9;
#X obj 60 304 f;
#X obj 32 304 f;
#X obj 32 260 t b b;
#X obj 98 155 s 1327-velo;
#X obj 72 260 r 1327-note;
#X obj 72 281 r 1327-velo;
#X obj 145 304 f;
#X obj 117 304 f;
#X obj 117 260 t b b;
#X obj 157 260 r 1327-note;
#X obj 157 281 r 1327-velo;
#X obj 229 304 f;
#X obj 201 304 f;
#X obj 201 260 t b b;
#X obj 241 260 r 1327-note;
#X obj 241 281 r 1327-velo;
#X obj 314 304 f;
#X obj 286 304 f;
#X obj 286 260 t b b;
#X obj 326 260 r 1327-note;
#X obj 326 281 r 1327-velo;
#X obj 397 304 f;
#X obj 369 304 f;
#X obj 369 260 t b b;
#X obj 409 260 r 1327-note;
#X obj 409 281 r 1327-velo;
#X obj 482 304 f;
#X obj 454 304 f;
#X obj 454 260 t b b;
#X obj 494 260 r 1327-note;
#X obj 494 281 r 1327-velo;
#X obj 566 304 f;
#X obj 538 304 f;
#X obj 538 260 t b b;
#X obj 578 260 r 1327-note;
#X obj 578 281 r 1327-velo;
#X obj 623 329 organvoice;
#X obj 651 304 f;
#X obj 623 304 f;
#X obj 623 260 t b b;
#X obj 663 260 r 1327-note;
#X obj 663 281 r 1327-velo;
#X obj 60 405 f;
#X obj 32 405 f;
#X obj 32 361 t b b;
#X obj 72 361 r 1327-note;
#X obj 72 382 r 1327-velo;
#X obj 145 405 f;
#X obj 117 405 f;
#X obj 117 361 t b b;
#X obj 157 361 r 1327-note;
#X obj 157 382 r 1327-velo;
#X obj 229 405 f;
#X obj 201 405 f;
#X obj 201 361 t b b;
#X obj 241 361 r 1327-note;
#X obj 241 382 r 1327-velo;
#X obj 314 405 f;
#X obj 286 405 f;
#X obj 286 361 t b b;
#X obj 326 361 r 1327-note;
#X obj 326 382 r 1327-velo;
#X obj 397 405 f;
#X obj 369 405 f;
#X obj 369 361 t b b;
#X obj 409 361 r 1327-note;
#X obj 409 382 r 1327-velo;
#X obj 482 405 f;
#X obj 454 405 f;
#X obj 454 361 t b b;
#X obj 494 361 r 1327-note;
#X obj 494 382 r 1327-velo;
#X obj 566 405 f;
#X obj 538 405 f;
#X obj 538 361 t b b;
#X obj 578 361 r 1327-note;
#X obj 578 382 r 1327-velo;
#X obj 651 405 f;
#X obj 623 405 f;
#X obj 623 361 t b b;
#X obj 663 361 r 1327-note;
#X obj 663 382 r 1327-velo;
#X obj 727 345 expr~ $v1 + $v2 + $v3 + $v4 + $v5 + $v6 + $v7 + $v8
;
#X obj 32 329 organvoice;
#X obj 117 329 organvoice;
#X obj 201 329 organvoice;
#X obj 286 329 organvoice;
#X obj 369 329 organvoice;
#X obj 454 329 organvoice;
#X obj 538 329 organvoice;
#X obj 32 430 organvoice;
#X obj 117 430 organvoice;
#X obj 201 430 organvoice;
#X obj 286 430 organvoice;
#X obj 369 430 organvoice;
#X obj 454 430 organvoice;
#X obj 538 430 organvoice;
#X obj 623 430 organvoice;
#X obj 748 446 expr~ $v1 + $v2 + $v3 + $v4 + $v5 + $v6 + $v7 + $v8
;
#X obj 726 483 expr~ $v1 + $v2;
#X obj 816 45 vsl 10 70 0 1 0 0 empty empty empty 0 -9 0 10 -262144
-1 -1 0 1;
#X obj 725 533 *~;
#X obj 726 511 hip~ 30;
#X obj 51 155 s 1327-note;
#X obj 726 559 outlet~;
#X obj 118 38 inlet;
#X obj 166 66 inlet;
#X obj 282 62 route 1 2 3 4;
#X obj 285 4 inlet;
#X obj 265 96 unpack f f;
#X obj 283 121 unpack f f;
#X obj 309 149 unpack f f;
#X obj 333 173 unpack f f;
#X connect 0 0 2 0;
#X connect 0 1 2 1;
#X connect 1 0 3 0;
#X connect 1 1 118 0;
#X connect 1 2 18 0;
#X connect 2 0 1 0;
#X connect 3 0 17 0;
#X connect 3 1 23 0;
#X connect 3 2 28 0;
#X connect 3 3 33 0;
#X connect 3 4 38 0;
#X connect 3 5 43 0;
#X connect 3 6 48 0;
#X connect 3 7 54 0;
#X connect 3 8 59 0;
#X connect 3 9 64 0;
#X connect 3 10 69 0;
#X connect 3 11 74 0;
#X connect 3 12 79 0;
#X connect 3 13 84 0;
#X connect 3 14 89 0;
#X connect 3 15 94 0;
#X connect 4 0 14 0;
#X connect 5 0 13 0;
#X connect 5 0 14 1;
#X connect 6 0 13 0;
#X connect 6 0 14 2;
#X connect 7 0 13 0;
#X connect 7 0 14 3;
#X connect 8 0 13 0;
#X connect 8 0 14 4;
#X connect 9 0 13 0;
#X connect 9 0 14 5;
#X connect 10 0 13 0;
#X connect 10 0 14 6;
#X connect 11 0 13 0;
#X connect 11 0 14 7;
#X connect 12 0 13 0;
#X connect 12 0 14 8;
#X connect 13 0 14 0;
#X connect 14 0 98 2;
#X connect 14 0 99 2;
#X connect 14 0 100 2;
#X connect 14 0 101 2;
#X connect 14 0 102 2;
#X connect 14 0 103 2;
#X connect 14 0 104 2;
#X connect 14 0 51 2;
#X connect 14 0 105 2;
#X connect 14 0 106 2;
#X connect 14 0 107 2;
#X connect 14 0 108 2;
#X connect 14 0 109 2;
#X connect 14 0 110 2;
#X connect 14 0 111 2;
#X connect 14 0 112 2;
#X connect 15 0 98 1;
#X connect 16 0 98 0;
#X connect 17 0 16 0;
#X connect 17 1 15 0;
#X connect 19 0 16 1;
#X connect 20 0 15 1;
#X connect 21 0 99 1;
#X connect 22 0 99 0;
#X connect 23 0 22 0;
#X connect 23 1 21 0;
#X connect 24 0 22 1;
#X connect 25 0 21 1;
#X connect 26 0 100 1;
#X connect 27 0 100 0;
#X connect 28 0 27 0;
#X connect 28 1 26 0;
#X connect 29 0 27 1;
#X connect 30 0 26 1;
#X connect 31 0 101 1;
#X connect 32 0 101 0;
#X connect 33 0 32 0;
#X connect 33 1 31 0;
#X connect 34 0 32 1;
#X connect 35 0 31 1;
#X connect 36 0 102 1;
#X connect 37 0 102 0;
#X connect 38 0 37 0;
#X connect 38 1 36 0;
#X connect 39 0 37 1;
#X connect 40 0 36 1;
#X connect 41 0 103 1;
#X connect 42 0 103 0;
#X connect 43 0 42 0;
#X connect 43 1 41 0;
#X connect 44 0 42 1;
#X connect 45 0 41 1;
#X connect 46 0 104 1;
#X connect 47 0 104 0;
#X connect 48 0 47 0;
#X connect 48 1 46 0;
#X connect 49 0 47 1;
#X connect 50 0 46 1;
#X connect 51 0 97 7;
#X connect 52 0 51 1;
#X connect 53 0 51 0;
#X connect 54 0 53 0;
#X connect 54 1 52 0;
#X connect 55 0 53 1;
#X connect 56 0 52 1;
#X connect 57 0 105 1;
#X connect 58 0 105 0;
#X connect 59 0 58 0;
#X connect 59 1 57 0;
#X connect 60 0 58 1;
#X connect 61 0 57 1;
#X connect 62 0 106 1;
#X connect 63 0 106 0;
#X connect 64 0 63 0;
#X connect 64 1 62 0;
#X connect 65 0 63 1;
#X connect 66 0 62 1;
#X connect 67 0 107 1;
#X connect 68 0 107 0;
#X connect 69 0 68 0;
#X connect 69 1 67 0;
#X connect 70 0 68 1;
#X connect 71 0 67 1;
#X connect 72 0 108 1;
#X connect 73 0 108 0;
#X connect 74 0 73 0;
#X connect 74 1 72 0;
#X connect 75 0 73 1;
#X connect 76 0 72 1;
#X connect 77 0 109 1;
#X connect 78 0 109 0;
#X connect 79 0 78 0;
#X connect 79 1 77 0;
#X connect 80 0 78 1;
#X connect 81 0 77 1;
#X connect 82 0 110 1;
#X connect 83 0 110 0;
#X connect 84 0 83 0;
#X connect 84 1 82 0;
#X connect 85 0 83 1;
#X connect 86 0 82 1;
#X connect 87 0 111 1;
#X connect 88 0 111 0;
#X connect 89 0 88 0;
#X connect 89 1 87 0;
#X connect 90 0 88 1;
#X connect 91 0 87 1;
#X connect 92 0 112 1;
#X connect 93 0 112 0;
#X connect 94 0 93 0;
#X connect 94 1 92 0;
#X connect 95 0 93 1;
#X connect 96 0 92 1;
#X connect 97 0 114 0;
#X connect 98 0 97 0;
#X connect 99 0 97 1;
#X connect 100 0 97 2;
#X connect 101 0 97 3;
#X connect 102 0 97 4;
#X connect 103 0 97 5;
#X connect 104 0 97 6;
#X connect 105 0 113 0;
#X connect 106 0 113 1;
#X connect 107 0 113 2;
#X connect 108 0 113 3;
#X connect 109 0 113 4;
#X connect 110 0 113 5;
#X connect 111 0 113 6;
#X connect 112 0 113 7;
#X connect 113 0 114 1;
#X connect 114 0 117 0;
#X connect 115 0 116 1;
#X connect 116 0 119 0;
#X connect 117 0 116 0;
#X connect 120 0 2 0;
#X connect 121 0 2 1;
#X connect 122 0 124 0;
#X connect 122 1 125 0;
#X connect 122 2 126 0;
#X connect 122 3 127 0;
#X connect 123 0 122 0;
#X connect 124 0 98 0;
#X connect 124 1 98 1;
#X connect 125 0 99 0;
#X connect 125 1 99 1;
#X connect 126 0 100 0;
#X connect 126 1 100 1;
#X connect 127 0 101 0;
#X connect 127 1 101 1;
#X coords 0 -1 1 1 235 90 2 600 35;
