#N canvas 0 0 1201 858 12;
#X obj 42 42 inlet~ audio;
#X obj 197 42 inlet speed;
#X obj 37 786 outlet~ L;
#X obj 156 787 outlet~ R;
#X msg 438 271 100;
#X msg 639 273 87.5;
#X msg 854 281 75;
#X msg 1054 276 62.5;
#X msg 413 610 50;
#X msg 625 610 37.5;
#X msg 849 614 25;
#X msg 1045 618 12.5;
#X obj 1009 420 loadbang;
#X obj 362 39 inlet speedOffset;
#X obj 358 181 * 1;
#X obj 323 207 +;
#X obj 323 151 t b f;
#X obj 533 206 +;
#X obj 533 150 t b f;
#X obj 568 180 * 2;
#X obj 737 214 +;
#X obj 737 158 t b f;
#X obj 933 218 +;
#X obj 933 162 t b f;
#X obj 772 188 * 3;
#X obj 968 192 * 4;
#X obj 319 541 +;
#X obj 319 486 t b f;
#X obj 529 541 +;
#X obj 529 485 t b f;
#X obj 754 547 +;
#X obj 754 492 t b f;
#X obj 950 552 +;
#X obj 950 495 t b f;
#X obj 354 516 * 5;
#X obj 564 515 * 6;
#X obj 789 522 * 7;
#X obj 985 525 * 8;
#X obj 518 38 inlet stereo;
#X obj 122 105 / 100;
#X obj 59 704 *~;
#X obj 157 742 +~;
#X obj 172 703 *~;
#X obj 38 749 +~;
#X obj 39 505 +~;
#X obj 39 532 +~;
#X obj 39 560 +~;
#X obj 156 504 +~;
#X obj 156 531 +~;
#X obj 156 559 +~;
#X obj 322 275 vd~ \$0-del1;
#X obj 532 275 vd~ \$0-del2;
#X obj 736 280 vd~ \$0-del3;
#X obj 932 284 vd~ \$0-del4;
#X obj 318 611 vd~ \$0-del5;
#X obj 528 611 vd~ \$0-del6;
#X obj 753 614 vd~ \$0-del7;
#X obj 949 618 vd~ \$0-del8;
#X obj 41 184 delwrite~ \$0-del1 4000;
#X obj 321 350 delwrite~ \$0-del2 4000;
#X obj 531 351 delwrite~ \$0-del3 4000;
#X obj 735 358 delwrite~ \$0-del4 4000;
#X obj 933 362 delwrite~ \$0-del5 4000;
#X obj 317 679 delwrite~ \$0-del6 4000;
#X obj 528 678 delwrite~ \$0-del7 4000;
#X obj 754 680 delwrite~ \$0-del8 4000;
#N canvas 0 0 454 304 volctrl 0;
#X obj 80 45 inlet~;
#X obj 242 44 inlet vol;
#X obj 242 268 line~;
#X msg 277 177 set \$1 30;
#X obj 242 143 t b f;
#X msg 242 220 1 30;
#X obj 242 104 / 100;
#X obj 80 349 *~;
#X obj 79 412 outlet~;
#X connect 0 0 7 0;
#X connect 1 0 6 0;
#X connect 2 0 7 1;
#X connect 3 0 5 0;
#X connect 4 0 5 0;
#X connect 4 1 3 0;
#X connect 5 0 2 0;
#X connect 6 0 4 0;
#X connect 7 0 8 0;
#X restore 363 315 pd volctrl;
#N canvas 0 0 454 304 volctrl 0;
#X obj 80 45 inlet~;
#X obj 242 44 inlet vol;
#X obj 242 268 line~;
#X msg 277 177 set \$1 30;
#X obj 242 143 t b f;
#X msg 242 220 0.5 30;
#X obj 242 104 / 100;
#X obj 80 349 *~;
#X obj 79 412 outlet~;
#X connect 0 0 7 0;
#X connect 1 0 6 0;
#X connect 2 0 7 1;
#X connect 3 0 5 0;
#X connect 4 0 5 0;
#X connect 4 1 3 0;
#X connect 5 0 2 0;
#X connect 6 0 4 0;
#X connect 7 0 8 0;
#X restore 338 647 pd volctrl;
#N canvas 0 0 454 304 volctrl 0;
#X obj 80 45 inlet~;
#X obj 242 44 inlet vol;
#X obj 242 268 line~;
#X msg 277 177 set \$1 30;
#X obj 242 143 t b f;
#X msg 242 220 0.25 30;
#X obj 242 104 / 100;
#X obj 80 349 *~;
#X obj 79 412 outlet~;
#X connect 0 0 7 0;
#X connect 1 0 6 0;
#X connect 2 0 7 1;
#X connect 3 0 5 0;
#X connect 4 0 5 0;
#X connect 4 1 3 0;
#X connect 5 0 2 0;
#X connect 6 0 4 0;
#X connect 7 0 8 0;
#X restore 774 654 pd volctrl;
#N canvas 0 0 454 304 volctrl 0;
#X obj 80 45 inlet~;
#X obj 242 44 inlet vol;
#X obj 242 268 line~;
#X msg 277 177 set \$1 30;
#X obj 242 143 t b f;
#X msg 242 220 0.125 30;
#X obj 242 104 / 100;
#X obj 80 349 *~;
#X obj 79 412 outlet~;
#X connect 0 0 7 0;
#X connect 1 0 6 0;
#X connect 2 0 7 1;
#X connect 3 0 5 0;
#X connect 4 0 5 0;
#X connect 4 1 3 0;
#X connect 5 0 2 0;
#X connect 6 0 4 0;
#X connect 7 0 8 0;
#X restore 970 657 pd volctrl;
#N canvas 0 0 454 304 volctrl 0;
#X obj 80 45 inlet~;
#X obj 242 44 inlet vol;
#X obj 242 268 line~;
#X msg 277 177 set \$1 30;
#X obj 242 143 t b f;
#X msg 242 220 0.875 30;
#X obj 242 104 / 100;
#X obj 80 349 *~;
#X obj 79 412 outlet~;
#X connect 0 0 7 0;
#X connect 1 0 6 0;
#X connect 2 0 7 1;
#X connect 3 0 5 0;
#X connect 4 0 5 0;
#X connect 4 1 3 0;
#X connect 5 0 2 0;
#X connect 6 0 4 0;
#X connect 7 0 8 0;
#X restore 564 311 pd volctrl;
#N canvas 0 0 454 304 volctrl 0;
#X obj 80 45 inlet~;
#X obj 242 44 inlet vol;
#X obj 242 268 line~;
#X msg 277 177 set \$1 30;
#X obj 242 143 t b f;
#X msg 242 220 0.75 30;
#X obj 242 104 / 100;
#X obj 80 349 *~;
#X obj 79 412 outlet~;
#X connect 0 0 7 0;
#X connect 1 0 6 0;
#X connect 2 0 7 1;
#X connect 3 0 5 0;
#X connect 4 0 5 0;
#X connect 4 1 3 0;
#X connect 5 0 2 0;
#X connect 6 0 4 0;
#X connect 7 0 8 0;
#X restore 779 314 pd volctrl;
#N canvas 0 0 454 304 volctrl 0;
#X obj 80 45 inlet~;
#X obj 242 44 inlet vol;
#X obj 242 268 line~;
#X msg 277 177 set \$1 30;
#X obj 242 143 t b f;
#X msg 242 220 0.625 30;
#X obj 242 104 / 100;
#X obj 80 349 *~;
#X obj 79 412 outlet~;
#X connect 0 0 7 0;
#X connect 1 0 6 0;
#X connect 2 0 7 1;
#X connect 3 0 5 0;
#X connect 4 0 5 0;
#X connect 4 1 3 0;
#X connect 5 0 2 0;
#X connect 6 0 4 0;
#X connect 7 0 8 0;
#X restore 979 320 pd volctrl;
#N canvas 0 0 454 304 volctrl 0;
#X obj 80 45 inlet~;
#X obj 242 44 inlet vol;
#X obj 242 268 line~;
#X msg 277 177 set \$1 30;
#X obj 242 143 t b f;
#X msg 242 220 0.375 30;
#X obj 242 104 / 100;
#X obj 80 349 *~;
#X obj 79 412 outlet~;
#X connect 0 0 7 0;
#X connect 1 0 6 0;
#X connect 2 0 7 1;
#X connect 3 0 5 0;
#X connect 4 0 5 0;
#X connect 4 1 3 0;
#X connect 5 0 2 0;
#X connect 6 0 4 0;
#X connect 7 0 8 0;
#X restore 550 649 pd volctrl;
#X obj 809 37 inlet massive;
#X obj 878 415 spigot~;
#X obj 702 734 spigot~;
#X obj 809 68 route 1;
#X msg 809 93 0;
#X msg 860 92 1;
#N canvas 0 0 458 308 smooth 0;
#X obj 50 48 inlet tempo;
#X obj 169 49 inlet smoothTime;
#X obj 49 147 pack f f;
#X obj 49 188 line~;
#X obj 49 239 outlet~;
#X msg 169 110 30;
#X obj 169 84 loadbang;
#X obj 253 136 bng 15 250 50 0 empty empty empty 0 -6 0 8 -262144 -1
-1;
#X connect 0 0 2 0;
#X connect 1 0 2 1;
#X connect 2 0 3 0;
#X connect 3 0 4 0;
#X connect 5 0 2 1;
#X connect 6 0 5 0;
#X connect 7 0 5 0;
#X restore 323 240 pd smooth;
#X obj 637 40 inlet smoothTime;
#N canvas 0 0 458 308 smooth 0;
#X obj 50 48 inlet tempo;
#X obj 169 49 inlet smoothTime;
#X obj 49 147 pack f f;
#X obj 49 188 line~;
#X obj 49 239 outlet~;
#X msg 169 110 30;
#X obj 169 84 loadbang;
#X obj 253 136 bng 15 250 50 0 empty empty empty 0 -6 0 8 -262144 -1
-1;
#X connect 0 0 2 0;
#X connect 1 0 2 1;
#X connect 2 0 3 0;
#X connect 3 0 4 0;
#X connect 5 0 2 1;
#X connect 6 0 5 0;
#X connect 7 0 5 0;
#X restore 533 236 pd smooth;
#N canvas 0 0 458 308 smooth 0;
#X obj 50 48 inlet tempo;
#X obj 169 49 inlet smoothTime;
#X obj 49 147 pack f f;
#X obj 49 188 line~;
#X obj 49 239 outlet~;
#X msg 169 110 30;
#X obj 169 84 loadbang;
#X obj 253 136 bng 15 250 50 0 empty empty empty 0 -6 0 8 -262144 -1
-1;
#X connect 0 0 2 0;
#X connect 1 0 2 1;
#X connect 2 0 3 0;
#X connect 3 0 4 0;
#X connect 5 0 2 1;
#X connect 6 0 5 0;
#X connect 7 0 5 0;
#X restore 737 242 pd smooth;
#N canvas 0 0 458 308 smooth 0;
#X obj 50 48 inlet tempo;
#X obj 169 49 inlet smoothTime;
#X obj 49 147 pack f f;
#X obj 49 188 line~;
#X obj 49 239 outlet~;
#X msg 169 110 30;
#X obj 169 84 loadbang;
#X obj 253 136 bng 15 250 50 0 empty empty empty 0 -6 0 8 -262144 -1
-1;
#X connect 0 0 2 0;
#X connect 1 0 2 1;
#X connect 2 0 3 0;
#X connect 3 0 4 0;
#X connect 5 0 2 1;
#X connect 6 0 5 0;
#X connect 7 0 5 0;
#X restore 933 245 pd smooth;
#N canvas 0 0 458 308 smooth 0;
#X obj 50 48 inlet tempo;
#X obj 169 49 inlet smoothTime;
#X obj 49 147 pack f f;
#X obj 49 188 line~;
#X obj 49 239 outlet~;
#X msg 169 110 30;
#X obj 169 84 loadbang;
#X obj 253 136 bng 15 250 50 0 empty empty empty 0 -6 0 8 -262144 -1
-1;
#X connect 0 0 2 0;
#X connect 1 0 2 1;
#X connect 2 0 3 0;
#X connect 3 0 4 0;
#X connect 5 0 2 1;
#X connect 6 0 5 0;
#X connect 7 0 5 0;
#X restore 319 574 pd smooth;
#N canvas 0 0 458 308 smooth 0;
#X obj 50 48 inlet tempo;
#X obj 169 49 inlet smoothTime;
#X obj 49 147 pack f f;
#X obj 49 188 line~;
#X obj 49 239 outlet~;
#X msg 169 110 30;
#X obj 169 84 loadbang;
#X obj 253 136 bng 15 250 50 0 empty empty empty 0 -6 0 8 -262144 -1
-1;
#X connect 0 0 2 0;
#X connect 1 0 2 1;
#X connect 2 0 3 0;
#X connect 3 0 4 0;
#X connect 5 0 2 1;
#X connect 6 0 5 0;
#X connect 7 0 5 0;
#X restore 529 575 pd smooth;
#N canvas 0 0 458 308 smooth 0;
#X obj 50 48 inlet tempo;
#X obj 169 49 inlet smoothTime;
#X obj 49 147 pack f f;
#X obj 49 188 line~;
#X obj 49 239 outlet~;
#X msg 169 110 30;
#X obj 169 84 loadbang;
#X obj 253 136 bng 15 250 50 0 empty empty empty 0 -6 0 8 -262144 -1
-1;
#X connect 0 0 2 0;
#X connect 1 0 2 1;
#X connect 2 0 3 0;
#X connect 3 0 4 0;
#X connect 5 0 2 1;
#X connect 6 0 5 0;
#X connect 7 0 5 0;
#X restore 754 577 pd smooth;
#N canvas 0 0 458 308 smooth 0;
#X obj 50 48 inlet tempo;
#X obj 169 49 inlet smoothTime;
#X obj 49 147 pack f f;
#X obj 49 188 line~;
#X obj 49 239 outlet~;
#X msg 169 110 30;
#X obj 169 84 loadbang;
#X obj 253 136 bng 15 250 50 0 empty empty empty 0 -6 0 8 -262144 -1
-1;
#X connect 0 0 2 0;
#X connect 1 0 2 1;
#X connect 2 0 3 0;
#X connect 3 0 4 0;
#X connect 5 0 2 1;
#X connect 6 0 5 0;
#X connect 7 0 5 0;
#X restore 950 582 pd smooth;
#X connect 0 0 58 0;
#X connect 1 0 15 0;
#X connect 1 0 17 0;
#X connect 1 0 20 0;
#X connect 1 0 22 0;
#X connect 1 0 26 0;
#X connect 1 0 28 0;
#X connect 1 0 30 0;
#X connect 1 0 32 0;
#X connect 4 0 66 1;
#X connect 5 0 70 1;
#X connect 6 0 71 1;
#X connect 7 0 72 1;
#X connect 8 0 67 1;
#X connect 9 0 73 1;
#X connect 10 0 68 1;
#X connect 11 0 69 1;
#X connect 12 0 4 0;
#X connect 12 0 5 0;
#X connect 12 0 7 0;
#X connect 12 0 8 0;
#X connect 12 0 9 0;
#X connect 12 0 10 0;
#X connect 12 0 11 0;
#X connect 12 0 6 0;
#X connect 13 0 16 0;
#X connect 13 0 18 0;
#X connect 13 0 21 0;
#X connect 13 0 23 0;
#X connect 13 0 27 0;
#X connect 13 0 29 0;
#X connect 13 0 31 0;
#X connect 13 0 33 0;
#X connect 14 0 15 1;
#X connect 15 0 80 0;
#X connect 16 0 15 0;
#X connect 16 1 14 0;
#X connect 17 0 82 0;
#X connect 18 0 17 0;
#X connect 18 1 19 0;
#X connect 19 0 17 1;
#X connect 20 0 83 0;
#X connect 21 0 20 0;
#X connect 21 1 24 0;
#X connect 22 0 84 0;
#X connect 23 0 22 0;
#X connect 23 1 25 0;
#X connect 24 0 20 1;
#X connect 25 0 22 1;
#X connect 26 0 85 0;
#X connect 27 0 26 0;
#X connect 27 1 34 0;
#X connect 28 0 86 0;
#X connect 29 0 28 0;
#X connect 29 1 35 0;
#X connect 30 0 87 0;
#X connect 31 0 30 0;
#X connect 31 1 36 0;
#X connect 32 0 88 0;
#X connect 33 0 32 0;
#X connect 33 1 37 0;
#X connect 34 0 26 1;
#X connect 35 0 28 1;
#X connect 36 0 30 1;
#X connect 37 0 32 1;
#X connect 38 0 39 0;
#X connect 39 0 40 1;
#X connect 39 0 42 1;
#X connect 40 0 41 1;
#X connect 41 0 3 0;
#X connect 42 0 43 1;
#X connect 43 0 2 0;
#X connect 44 0 45 0;
#X connect 45 0 46 0;
#X connect 46 0 40 0;
#X connect 46 0 43 0;
#X connect 47 0 48 0;
#X connect 48 0 49 0;
#X connect 49 0 42 0;
#X connect 49 0 41 0;
#X connect 50 0 59 0;
#X connect 50 0 66 0;
#X connect 51 0 60 0;
#X connect 51 0 70 0;
#X connect 52 0 61 0;
#X connect 52 0 71 0;
#X connect 53 0 62 0;
#X connect 53 0 72 0;
#X connect 54 0 63 0;
#X connect 54 0 67 0;
#X connect 55 0 64 0;
#X connect 55 0 73 0;
#X connect 56 0 65 0;
#X connect 56 0 68 0;
#X connect 57 0 69 0;
#X connect 66 0 44 0;
#X connect 67 0 45 1;
#X connect 68 0 46 1;
#X connect 68 0 76 0;
#X connect 69 0 49 1;
#X connect 70 0 47 0;
#X connect 71 0 44 1;
#X connect 72 0 47 1;
#X connect 72 0 75 0;
#X connect 73 0 48 1;
#X connect 74 0 77 0;
#X connect 75 0 58 0;
#X connect 76 0 60 0;
#X connect 77 0 78 0;
#X connect 77 1 79 0;
#X connect 78 0 75 1;
#X connect 78 0 76 1;
#X connect 79 0 75 1;
#X connect 79 0 76 1;
#X connect 80 0 50 0;
#X connect 81 0 80 1;
#X connect 81 0 82 1;
#X connect 81 0 83 1;
#X connect 81 0 84 1;
#X connect 81 0 85 1;
#X connect 81 0 86 1;
#X connect 81 0 87 1;
#X connect 81 0 88 1;
#X connect 82 0 51 0;
#X connect 83 0 52 0;
#X connect 84 0 53 0;
#X connect 85 0 54 0;
#X connect 86 0 55 0;
#X connect 87 0 56 0;
#X connect 88 0 57 0;
