#N canvas 457 266 677 385 12;
#X obj 138 56 key;
#X obj 294 251 outlet;
#X obj 138 102 sel 97 233 122 34 101 114 40 116 167 121 232 117 105
231 111 224 112;
#X floatatom 83 88 5 0 0 0 - - -;
#X msg 26 170 1;
#X msg 62 170 2;
#X msg 101 170 3;
#X msg 136 170 4;
#X msg 174 169 5;
#X msg 210 169 6;
#X msg 247 169 7;
#X msg 284 169 8;
#X msg 322 169 9;
#X msg 359 168 10;
#X msg 396 169 11;
#X msg 432 169 12;
#X msg 469 168 13;
#X msg 507 168 14;
#X msg 544 168 15;
#X msg 581 168 16;
#X msg 618 167 17;
#X connect 0 0 2 0;
#X connect 0 0 3 0;
#X connect 2 0 4 0;
#X connect 2 1 5 0;
#X connect 2 2 6 0;
#X connect 2 3 7 0;
#X connect 2 4 8 0;
#X connect 2 5 9 0;
#X connect 2 6 10 0;
#X connect 2 7 11 0;
#X connect 2 8 12 0;
#X connect 2 9 13 0;
#X connect 2 10 14 0;
#X connect 2 11 15 0;
#X connect 2 12 16 0;
#X connect 2 13 17 0;
#X connect 2 14 18 0;
#X connect 2 15 19 0;
#X connect 2 16 20 0;
#X connect 4 0 1 0;
#X connect 5 0 1 0;
#X connect 6 0 1 0;
#X connect 7 0 1 0;
#X connect 8 0 1 0;
#X connect 9 0 1 0;
#X connect 10 0 1 0;
#X connect 11 0 1 0;
#X connect 12 0 1 0;
#X connect 13 0 1 0;
#X connect 14 0 1 0;
#X connect 15 0 1 0;
#X connect 16 0 1 0;
#X connect 17 0 1 0;
#X connect 18 0 1 0;
#X connect 19 0 1 0;
#X connect 20 0 1 0;
