#N canvas 181 194 576 537 12;
#X floatatom 121 113 5 0 0 0 - - -;
#X obj 276 159 *;
#X obj 276 92 / 1000;
#X obj 276 122 t b f;
#X obj 276 64 abs;
#X obj 231 267 +;
#X obj 336 269 -;
#X floatatom 231 323 5 0 0 0 - - -;
#X floatatom 336 324 5 0 0 0 - - -;
#X obj 276 194 t b f;
#X obj 430 110 60000;
#X obj 430 147 /;
#X obj 430 82 t b f;
#X floatatom 487 212 5 0 0 0 - - -;
#X obj 430 247 metro;
#X obj 294 421 line;
#X obj 231 356 pack f f;
#X obj 336 356 pack f f;
#X obj 430 285 0;
#X obj 430 336 route 0 1;
#X obj 430 394 1;
#X obj 463 394 0;
#X obj 430 436 bng 15 250 50 0 empty empty empty 0 -6 0 8 -262144 -1
-1;
#X obj 463 436 bng 15 250 50 0 empty empty empty 0 -6 0 8 -262144 -1
-1;
#X obj 18 17 inlet onOff;
#X obj 121 18 inlet baseFreq;
#X obj 276 18 inlet amount;
#X obj 430 20 inlet spd;
#X obj 294 466 outlet;
#X obj 430 181 t b f;
#X obj 430 55 abs;
#X connect 0 0 1 0;
#X connect 0 0 5 0;
#X connect 0 0 6 0;
#X connect 1 0 9 0;
#X connect 2 0 3 0;
#X connect 3 0 1 0;
#X connect 3 1 1 1;
#X connect 4 0 2 0;
#X connect 5 0 7 0;
#X connect 6 0 8 0;
#X connect 7 0 16 0;
#X connect 8 0 17 0;
#X connect 9 0 6 0;
#X connect 9 0 5 0;
#X connect 9 1 6 1;
#X connect 9 1 5 1;
#X connect 10 0 11 0;
#X connect 11 0 29 0;
#X connect 12 0 10 0;
#X connect 12 1 11 1;
#X connect 13 0 14 1;
#X connect 13 0 16 1;
#X connect 13 0 17 1;
#X connect 14 0 18 0;
#X connect 15 0 28 0;
#X connect 16 0 15 0;
#X connect 17 0 15 0;
#X connect 18 0 19 0;
#X connect 19 0 20 0;
#X connect 19 1 21 0;
#X connect 20 0 18 1;
#X connect 20 0 22 0;
#X connect 21 0 18 1;
#X connect 21 0 23 0;
#X connect 22 0 16 0;
#X connect 23 0 17 0;
#X connect 24 0 14 0;
#X connect 25 0 0 0;
#X connect 26 0 4 0;
#X connect 27 0 30 0;
#X connect 29 0 14 0;
#X connect 29 1 13 0;
#X connect 30 0 12 0;
