#N canvas 0 0 448 421 12;
#X obj 51 44 inlet maxValue;
#X obj 219 44 inlet startBang;
#X obj 156 313 outlet loopValue;
#X msg 121 153 2048;
#X obj 219 114 t b b;
#X obj 121 207 f;
#X msg 254 155 0;
#X obj 121 179 until;
#X obj 121 274 + 1;
#X obj 121 233 t f f;
#X msg 51 94 set \$1;
#X connect 0 0 10 0;
#X connect 1 0 4 0;
#X connect 3 0 7 0;
#X connect 4 0 3 0;
#X connect 4 1 6 0;
#X connect 5 0 9 0;
#X connect 6 0 5 1;
#X connect 7 0 5 0;
#X connect 8 0 5 1;
#X connect 9 0 8 0;
#X connect 9 1 2 0;
#X connect 10 0 3 0;
