#N canvas 0 0 1211 825 12;
#X obj 293 104 f;
#X obj 91 238 pack f f;
#X msg 91 109 set \$1;
#X obj 155 110 t b f;
#X obj 91 336 unpack f;
#X obj 546 340 unpack f;
#X obj 332 104 r newVal;
#X msg 546 381 bang;
#X text 590 382 generate bang from new float;
#X text 159 234 if seq : create pack 0 \, 0.1 \, 0.2 ...;
#X text 159 247 if rnd : create pack 1 \, 1.1 \, 1.2 ...;
#X obj 293 31 inlet metroBang;
#X obj 91 29 inlet typeSelector;
#X obj 330 691 outlet value;
#X msg 226 137 -1;
#X obj 91 467 t b b;
#X obj 556 24 inlet restartBang;
#X obj 226 57 loadbang;
#X obj 91 293 route 0 1 2;
#X text 191 293 0 = seq fwd \, 1 = seq bckw \, 2 = seq rnd;
#X obj 91 375 + 1;
#X obj 374 343 unpack f;
#X obj 374 464 t b b;
#X obj 374 382 - 1;
#X obj 374 423 sel -1;
#X obj 556 136 route 0 1 2;
#X msg 556 184 -1;
#X msg 556 72 0;
#X msg 91 144 0;
#X obj 546 423 random 16;
#X msg 597 225 28;
#X obj 91 416 sel 16;
#X msg 409 499 28;
#X obj 716 23 inlet randomBang;
#X obj -38 30 inlet maxSteps;
#X msg -36 103 set \$1;
#X msg 171 87 set 0;
#X connect 0 0 3 0;
#X connect 1 0 18 0;
#X connect 2 0 28 0;
#X connect 2 0 27 0;
#X connect 3 0 28 0;
#X connect 3 1 1 1;
#X connect 4 0 20 0;
#X connect 5 0 7 0;
#X connect 6 0 0 1;
#X connect 7 0 29 0;
#X connect 11 0 0 0;
#X connect 12 0 2 0;
#X connect 14 0 0 1;
#X connect 15 0 0 0;
#X connect 15 1 14 0;
#X connect 16 0 27 0;
#X connect 17 0 14 0;
#X connect 17 0 36 0;
#X connect 18 0 4 0;
#X connect 18 1 21 0;
#X connect 18 2 5 0;
#X connect 20 0 31 0;
#X connect 21 0 23 0;
#X connect 22 0 0 0;
#X connect 22 1 32 0;
#X connect 23 0 24 0;
#X connect 24 0 22 0;
#X connect 24 1 13 0;
#X connect 24 1 0 1;
#X connect 25 0 26 0;
#X connect 25 1 30 0;
#X connect 25 2 26 0;
#X connect 26 0 0 1;
#X connect 27 0 25 0;
#X connect 28 0 1 0;
#X connect 29 0 13 0;
#X connect 29 0 0 1;
#X connect 30 0 0 1;
#X connect 31 0 15 0;
#X connect 31 1 13 0;
#X connect 31 1 0 1;
#X connect 32 0 0 1;
#X connect 33 0 29 0;
#X connect 34 0 31 1;
#X connect 34 0 29 1;
#X connect 34 0 35 0;
#X connect 35 0 30 0;
#X connect 35 0 32 0;
#X connect 36 0 28 0;
