#N canvas 540 286 760 628 12;
#X obj 38 32 inlet freq;
#X obj 256 30 inlet window;
#X obj 38 569 outlet~;
#X obj 101 396 *~;
#X obj 256 334 line~;
#X obj 256 308 pack 0 200;
#X obj 38 181 exp;
#X floatatom 38 207 6 0 0 0 - - -;
#X obj 38 297 /;
#X obj 165 227 * 0.001;
#X obj 365 404 line~;
#X obj 365 379 pack 0 200;
#X obj 101 422 +~;
#X obj 38 448 cos~;
#X obj 38 475 *~;
#X obj 38 504 +~;
#X obj 125 355 wrap~;
#X obj 302 399 *~;
#X obj 302 432 +~;
#X obj 239 459 cos~;
#X obj 239 486 *~;
#X obj 165 254 t b f;
#X floatatom 38 323 6 0 0 0 - - -;
#X obj 125 328 +~ 0.5;
#X obj 38 396 -~ 0.5;
#X obj 38 422 *~ 0.5;
#X obj 239 398 -~ 0.5;
#X obj 239 431 *~ 0.5;
#X obj 38 234 - 1;
#X obj 38 155 * 0.05776;
#X obj 38 260 * -1;
#X text 101 201 speed;
#X text 100 215 change;
#X text 73 290 tape head;
#X obj 38 354 phasor~;
#X obj 365 355 max 1.5;
#X obj 256 177 max 1;
#X text 74 303 rotation freq;
#X obj 464 33 inlet~ audio;
#X obj 462 160 delwrite~ \$0-smp1pitch 5000;
#X obj 101 448 vd~ \$0-smp1pitch;
#X obj 302 461 vd~ \$0-smp1pitch;
#X obj 365 30 inlet delay;
#X connect 0 0 29 0;
#X connect 1 0 36 0;
#X connect 3 0 12 0;
#X connect 4 0 3 1;
#X connect 4 0 17 1;
#X connect 5 0 4 0;
#X connect 6 0 7 0;
#X connect 7 0 28 0;
#X connect 8 0 22 0;
#X connect 9 0 21 0;
#X connect 10 0 12 1;
#X connect 10 0 18 1;
#X connect 11 0 10 0;
#X connect 12 0 40 0;
#X connect 13 0 14 0;
#X connect 14 0 15 0;
#X connect 15 0 2 0;
#X connect 16 0 17 0;
#X connect 16 0 26 0;
#X connect 17 0 18 0;
#X connect 18 0 41 0;
#X connect 19 0 20 0;
#X connect 20 0 15 1;
#X connect 21 0 8 0;
#X connect 21 1 8 1;
#X connect 22 0 34 0;
#X connect 23 0 16 0;
#X connect 24 0 25 0;
#X connect 25 0 13 0;
#X connect 26 0 27 0;
#X connect 27 0 19 0;
#X connect 28 0 30 0;
#X connect 29 0 6 0;
#X connect 30 0 8 0;
#X connect 34 0 3 0;
#X connect 34 0 24 0;
#X connect 34 0 23 0;
#X connect 35 0 11 0;
#X connect 36 0 9 0;
#X connect 36 0 5 0;
#X connect 38 0 39 0;
#X connect 40 0 14 1;
#X connect 41 0 20 1;
#X connect 42 0 35 0;
