#N canvas 0 0 462 465 12;
#X obj 80 45 inlet~;
#X obj 242 44 inlet vol;
#X obj 242 268 line~;
#X msg 277 177 set \$1 30;
#X obj 242 143 t b f;
#X msg 242 220 0.322835 30;
#X obj 242 104 / 100;
#X obj 80 349 *~;
#X obj 79 412 outlet~;
#X connect 0 0 7 0;
#X connect 1 0 6 0;
#X connect 2 0 7 1;
#X connect 3 0 5 0;
#X connect 4 0 5 0;
#X connect 4 1 3 0;
#X connect 5 0 2 0;
#X connect 6 0 4 0;
#X connect 7 0 8 0;
