#N canvas 106 160 918 591 12;
#X obj 324 85 inlet;
#X obj 429 589 *~;
#X obj 285 527 inlet~;
#X obj 272 619 outlet~;
#X obj 322 586 +~;
#X obj 635 215 +;
#X obj 324 109 data-start template-toplevel;
#X obj 236 178 data-array template-toplevel amp template-amp;
#X obj 635 138 data-array template-toplevel pitch template-pitch;
#X text 243 35 This is an abstraction used in the sequencer example.
Here we take care of the audio synthesis \, according to timed controls
from the the "data-start" and "data-array" subpatches.;
#X text 751 468 calculate time-varying center frequencies;
#X text 582 562 ... for three VCFs acting on a noise source.;
#X text 324 633 summing bus;
#X text 667 36 Pitch is in eighth-tones (because 4 pixels per half
tone looks reasonable on the screen.) Hence the * 0.25 objects below.
;
#X obj 392 206 AmpEnvelope;
#X obj 766 398 vcfBandwith;
#X obj 776 288 TimeVarFreq;
#X obj 496 314 tgl 15 0 empty empty empty 0 -6 0 8 -262144 -1 -1 0
1;
#X floatatom 514 283 5 0 0 0 - - -;
#X floatatom 552 321 5 0 100 2 vol - -;
#N canvas 98 45 926 718 audiosf 0;
#X text 91 549 sfread <channels> <skip samples (e.g.header)>;
#X obj 443 232 openpanel;
#X obj 443 213 bng 15 250 50 0 empty empty empty 0 -6 0 8 -262144 -1
-1;
#X obj 220 348 sfplay 2;
#X msg 17 118 start;
#X msg 51 139 stop;
#X msg 21 266 goto 100;
#X msg 21 243 rewind;
#X obj 279 401 print;
#X msg 380 248 close;
#X floatatom 285 324 5 0 0 0 - - -;
#X obj 227 281 tgl 15 0 empty empty empty 0 -6 0 8 -262144 -1 -1 0
1;
#X obj 227 215 inlet;
#X obj 306 70 inlet;
#X obj 443 176 inlet;
#X msg 281 204 1;
#X msg 335 230 0;
#X obj 306 161 change;
#X obj 608 177 inlet;
#X obj 400 337 dbtorms;
#X obj 163 427 line~;
#X obj 198 499 *~;
#X obj 400 367 pack 0 50;
#X text 492 386 audio in;
#X text 471 336 <-- convert from dB to linear units;
#X text 489 366 <-- make a ramp to avoid clicks or zipper noise;
#X obj 288 498 *~;
#X obj 219 449 hip~ 3;
#X obj 281 449 hip~ 3;
#X obj 306 140 i;
#X msg 279 376 done;
#X obj 335 204 print audsec;
#X msg 116 166 goto \$1;
#X msg 443 277 open bollywood/son_bollywood.wav l;
#X obj 306 179 t b f b;
#X msg 443 253 open \$1 l;
#X obj 477 303 moses 100;
#X obj 198 529 outlet~;
#X connect 1 0 35 0;
#X connect 2 0 1 0;
#X connect 3 0 27 0;
#X connect 3 1 28 0;
#X connect 3 2 30 0;
#X connect 4 0 3 0;
#X connect 5 0 3 0;
#X connect 6 0 3 0;
#X connect 7 0 3 0;
#X connect 9 0 3 0;
#X connect 10 0 3 1;
#X connect 11 0 3 0;
#X connect 12 0 11 0;
#X connect 13 0 29 0;
#X connect 14 0 2 0;
#X connect 15 0 11 0;
#X connect 16 0 11 0;
#X connect 17 0 34 0;
#X connect 18 0 36 0;
#X connect 19 0 22 0;
#X connect 20 0 26 0;
#X connect 20 0 21 0;
#X connect 21 0 37 0;
#X connect 22 0 20 0;
#X connect 26 0 37 0;
#X connect 27 0 21 1;
#X connect 28 0 26 1;
#X connect 29 0 17 0;
#X connect 30 0 8 0;
#X connect 32 0 3 0;
#X connect 33 0 3 0;
#X connect 34 0 15 0;
#X connect 34 1 3 1;
#X connect 34 2 16 0;
#X connect 35 0 3 0;
#X connect 36 0 19 0;
#X restore 496 337 pd audiosf;
#X obj 532 312 bng 17 250 50 0 empty empty load 0 -6 0 8 -24198 -258699
-1;
#X text 473 296 ON/OFF;
#X text 513 263 Position dans fichier;
#X connect 0 0 6 0;
#X connect 1 0 4 1;
#X connect 2 0 4 0;
#X connect 4 0 3 0;
#X connect 5 0 16 0;
#X connect 6 0 7 0;
#X connect 6 0 8 0;
#X connect 6 1 5 1;
#X connect 7 1 14 0;
#X connect 7 2 14 1;
#X connect 8 0 5 0;
#X connect 8 1 16 1;
#X connect 8 2 16 2;
#X connect 14 0 1 0;
#X connect 15 0 1 1;
#X connect 15 1 1 1;
#X connect 15 2 1 1;
#X connect 16 0 15 1;
#X connect 16 1 15 2;
#X connect 16 2 15 3;
#X connect 17 0 20 0;
#X connect 18 0 20 1;
#X connect 19 0 20 3;
#X connect 21 0 20 2;
