#N canvas 77 194 947 574 10;
#X obj 211 226 translateXYZ;
#X obj 210 102 alpha;
#X obj 211 174 colorRGB 1 1 1 0.6;
#X obj 408 70 inlet;
#X obj 444 70 inlet;
#X obj 210 79 gemhead \$1;
#X obj 432 236 osc~;
#X obj 562 224 metro;
#X obj 556 310 line~;
#X obj 562 178 tgl 15 0 empty empty empty 0 -6 0 10 -262144 -1 -1 1
1;
#X obj 561 153 loadbang;
#X obj 461 106 * 100;
#X obj 433 177 * 100;
#X obj 496 326 *~;
#X text 220 383 create form;
#X text 483 471 create sound;
#X obj 727 206 pipe 200;
#X msg 567 273 0.5 1;
#X msg 622 271 0 1;
#X obj 575 246 del 5;
#X obj 714 241 -;
#X obj 714 282 abs;
#X obj 707 183 * 1000;
#X obj 713 304 / 4000;
#X floatatom 714 328 5 0 0 0 - - -;
#X obj 502 405 *~;
#X obj 715 367 line~;
#X msg 715 346 \$1 1;
#X obj 759 346 s alpha;
#X obj 359 71 r alpha;
#X obj 433 206 + 1000;
#X obj 315 101 + 0.6;
#N canvas 0 22 454 304 random3 0;
#X obj 167 139 random 100;
#X obj 167 162 * 0.01;
#X obj 234 139 random 100;
#X obj 234 162 * 0.01;
#X obj 304 139 random 100;
#X obj 304 162 * 0.01;
#X obj 168 190 outlet;
#X obj 234 188 outlet;
#X obj 303 187 outlet;
#X obj 240 88 loadbang;
#X connect 0 0 1 0;
#X connect 1 0 6 0;
#X connect 2 0 3 0;
#X connect 3 0 7 0;
#X connect 4 0 5 0;
#X connect 5 0 8 0;
#X connect 9 0 0 0;
#X connect 9 0 2 0;
#X connect 9 0 4 0;
#X restore 237 140 pd random3;
#X obj 319 218 + 0.1;
#X msg 319 240 \$1 200;
#X obj 319 262 line;
#N canvas 0 22 450 300 tex 0;
#X obj 105 48 inlet;
#X obj 108 252 outlet;
#X obj 109 220 pix_texture;
#X obj 108 199 pix_image;
#X msg 181 140 open grad.png;
#X obj 182 117 loadbang;
#X connect 0 0 3 0;
#X connect 2 0 1 0;
#X connect 3 0 2 0;
#X connect 4 0 3 0;
#X connect 5 0 4 0;
#X restore 194 140 pd tex;
#X obj 212 336 circle 0.1 15;
#X obj 499 437 outlet~;
#X connect 0 0 37 0;
#X connect 1 0 36 0;
#X connect 2 0 0 0;
#X connect 3 0 0 1;
#X connect 3 0 12 0;
#X connect 3 0 22 0;
#X connect 4 0 0 2;
#X connect 4 0 11 0;
#X connect 5 0 1 0;
#X connect 6 0 13 0;
#X connect 7 0 17 0;
#X connect 7 0 19 0;
#X connect 8 0 13 1;
#X connect 9 0 7 0;
#X connect 10 0 9 0;
#X connect 11 0 7 1;
#X connect 12 0 30 0;
#X connect 13 0 25 0;
#X connect 16 0 20 0;
#X connect 17 0 8 0;
#X connect 18 0 8 0;
#X connect 19 0 18 0;
#X connect 20 0 21 0;
#X connect 21 0 23 0;
#X connect 22 0 16 0;
#X connect 22 0 20 1;
#X connect 23 0 24 0;
#X connect 24 0 27 0;
#X connect 24 0 28 0;
#X connect 25 0 38 0;
#X connect 26 0 25 1;
#X connect 27 0 26 0;
#X connect 29 0 31 0;
#X connect 29 0 33 0;
#X connect 30 0 6 0;
#X connect 31 0 2 4;
#X connect 32 0 2 1;
#X connect 32 1 2 2;
#X connect 32 2 2 3;
#X connect 33 0 34 0;
#X connect 34 0 35 0;
#X connect 35 0 37 1;
#X connect 36 0 2 0;
