#N canvas 219 104 602 700 10;
#X obj 145 93 tgl 15 0 empty empty empty 0 -6 0 10 -262144 -1 -1 1
1;
#X obj 133 488 line;
#X floatatom 133 513 5 0 0 0 - - -;
#X obj 175 488 line;
#X floatatom 175 513 5 0 0 0 - - -;
#X obj 215 489 line;
#X floatatom 215 514 5 0 0 0 - - -;
#X obj 259 489 line;
#X floatatom 259 514 5 0 0 0 - - -;
#X obj 303 489 line;
#X floatatom 303 514 5 0 0 0 - - -;
#X obj 347 490 line;
#X floatatom 347 515 5 0 0 0 - - -;
#X obj 391 491 line;
#X floatatom 391 516 5 0 0 0 - - -;
#X obj 145 116 metro 100;
#X obj 144 61 loadbang;
#X obj 145 183 tabread \$1;
#X obj 133 259 pack f \$2;
#X obj 172 283 pack f \$2;
#X obj 215 307 pack f \$2;
#X obj 258 330 pack f \$2;
#X obj 296 352 pack f \$2;
#X obj 339 376 pack f \$2;
#X obj 382 399 pack f \$2;
#X obj 146 144 counter 10;
#X obj 132 212 demux 1 2 3 4 5 6 7 8 9 10;
#X obj 406 421 pack f \$2;
#X obj 446 442 pack f \$2;
#X obj 498 463 pack f \$2;
#X obj 432 490 line;
#X floatatom 432 515 5 0 0 0 - - -;
#X obj 476 491 line;
#X floatatom 476 516 5 0 0 0 - - -;
#X obj 520 492 line;
#X floatatom 520 517 5 0 0 0 - - -;
#X obj 140 561 outlet;
#X obj 150 571 outlet;
#X obj 160 581 outlet;
#X obj 170 591 outlet;
#X obj 180 601 outlet;
#X obj 190 611 outlet;
#X obj 200 621 outlet;
#X obj 210 631 outlet;
#X obj 220 641 outlet;
#X obj 230 651 outlet;
#X connect 0 0 15 0;
#X connect 1 0 2 0;
#X connect 2 0 36 0;
#X connect 3 0 4 0;
#X connect 4 0 37 0;
#X connect 5 0 6 0;
#X connect 6 0 38 0;
#X connect 7 0 8 0;
#X connect 8 0 39 0;
#X connect 9 0 10 0;
#X connect 10 0 40 0;
#X connect 11 0 12 0;
#X connect 12 0 41 0;
#X connect 13 0 14 0;
#X connect 14 0 42 0;
#X connect 15 0 25 0;
#X connect 16 0 0 0;
#X connect 17 0 26 0;
#X connect 18 0 1 0;
#X connect 19 0 3 0;
#X connect 20 0 5 0;
#X connect 21 0 7 0;
#X connect 22 0 9 0;
#X connect 23 0 11 0;
#X connect 24 0 13 0;
#X connect 25 0 17 0;
#X connect 25 0 26 1;
#X connect 26 0 18 0;
#X connect 26 1 19 0;
#X connect 26 2 20 0;
#X connect 26 3 21 0;
#X connect 26 4 22 0;
#X connect 26 5 23 0;
#X connect 26 6 24 0;
#X connect 26 7 27 0;
#X connect 26 8 28 0;
#X connect 26 9 29 0;
#X connect 27 0 30 0;
#X connect 28 0 32 0;
#X connect 29 0 34 0;
#X connect 30 0 31 0;
#X connect 31 0 43 0;
#X connect 32 0 33 0;
#X connect 33 0 44 0;
#X connect 34 0 35 0;
#X connect 35 0 45 0;
