#N canvas 514 286 757 447 10;
#X obj 295 215 * 40;
#X obj 267 215 * 0;
#X obj 267 293 pack f f f;
#X obj 348 186 sel 1;
#X obj 267 341 s pd-creationPool;
#X obj 267 136 tgl 15 0 empty empty empty 0 -6 0 10 -262144 -1 -1 0
1;
#X obj 92 221 * 0;
#X obj 166 185 sel 1;
#X obj 92 341 s pd-creationPool;
#X obj 92 254 + 10;
#X obj 92 135 tgl 15 0 empty empty empty 0 -6 0 10 -262144 -1 -1 0
1;
#X obj 267 245 + 100;
#X msg 92 317 obj \$1 \$2 inlet;
#X obj 92 290 pack f f;
#X obj 118 221 * 40;
#X obj 507 184 sel 1;
#X obj 433 340 s pd-creationPool;
#X obj 433 134 tgl 15 0 empty empty empty 0 -6 0 10 -262144 -1 -1 0
1;
#X obj 433 287 pack f f;
#X msg 433 314 connect \$1 0 \$2 0;
#X obj 267 185 counter 10;
#X obj 267 157 metro 100;
#X obj 92 157 metro 100;
#X obj 433 156 metro 100;
#X obj 77 74 gemwin;
#X obj 77 29 loadbang;
#X obj 587 179 counter 10;
#X obj 661 179 sel 1;
#X obj 587 342 s pd-creationPool;
#X obj 587 131 tgl 15 0 empty empty empty 0 -6 0 10 -262144 -1 -1 0
1;
#X obj 587 287 pack f f;
#X obj 587 151 metro 100;
#X obj 629 245 + 20;
#X msg 587 316 connect \$1 0 \$2 1;
#X obj 92 185 counter 20;
#X obj 465 242 + 20;
#X obj 587 244 + 10;
#X obj 433 215 - 1;
#X obj 587 208 - 1;
#X obj 433 184 counter 10;
#X text 290 27 dynamic object creation comes here.;
#X text 256 44 object will be created in 'creationPool' subpatch;
#X msg 266 317 obj \$1 \$2 bot \$3;
#X msg 77 51 color 1 1 1 \, create \, 1;
#X connect 0 0 2 1;
#X connect 1 0 11 0;
#X connect 2 0 42 0;
#X connect 3 0 5 0;
#X connect 5 0 21 0;
#X connect 6 0 9 0;
#X connect 7 0 10 0;
#X connect 9 0 13 0;
#X connect 10 0 22 0;
#X connect 11 0 2 0;
#X connect 12 0 8 0;
#X connect 13 0 12 0;
#X connect 14 0 13 1;
#X connect 15 0 17 0;
#X connect 17 0 23 0;
#X connect 18 0 19 0;
#X connect 19 0 16 0;
#X connect 20 0 1 0;
#X connect 20 0 0 0;
#X connect 20 0 2 2;
#X connect 20 2 3 0;
#X connect 21 0 20 0;
#X connect 22 0 34 0;
#X connect 23 0 39 0;
#X connect 25 0 43 0;
#X connect 26 0 38 0;
#X connect 26 2 27 0;
#X connect 27 0 29 0;
#X connect 29 0 31 0;
#X connect 30 0 33 0;
#X connect 31 0 26 0;
#X connect 32 0 30 1;
#X connect 33 0 28 0;
#X connect 34 0 6 0;
#X connect 34 0 14 0;
#X connect 34 2 7 0;
#X connect 35 0 18 1;
#X connect 36 0 30 0;
#X connect 37 0 35 0;
#X connect 37 0 18 0;
#X connect 38 0 32 0;
#X connect 38 0 36 0;
#X connect 39 0 37 0;
#X connect 39 2 15 0;
#X connect 42 0 4 0;
#X connect 43 0 24 0;
