#N canvas 574 161 410 530 10;
#X obj 161 428 *~;
#X obj 88 428 *~;
#X obj 103 397 cos~;
#X obj 176 397 cos~;
#X obj 176 373 +~ 0.25;
#X obj 185 123 phasor~ 0.8;
#X obj 185 145 -~ 0.5;
#X obj 185 169 abs~;
#X obj 185 193 -~ 0.25;
#X obj 185 217 *~ 2;
#X obj 103 320 +~ 0.5;
#X obj 103 346 *~ 0.25;
#X obj 88 480 outlet~;
#X obj 161 480 outlet~;
#X obj 88 58 inlet~;
#X obj 185 67 r apan_rate;
#X obj 254 167 r apan_depth;
#X text 211 396 seno;
#N canvas 843 250 182 173 fade 0;
#X obj 65 50 inlet;
#X obj 65 72 pack 0 30;
#X obj 65 94 line~;
#X obj 65 116 outlet~;
#X connect 0 0 1 0;
#X connect 1 0 2 0;
#X connect 2 0 3 0;
#X restore 269 239 pd fade;
#X obj 269 217 r apan_on-off;
#X obj 254 264 *~;
#X obj 185 281 *~;
#N canvas 843 250 182 173 fade 0;
#X obj 65 50 inlet;
#X obj 65 72 pack 0 30;
#X obj 65 94 line~;
#X obj 65 116 outlet~;
#X connect 0 0 1 0;
#X connect 1 0 2 0;
#X connect 2 0 3 0;
#X restore 254 190 pd fade;
#X obj 185 92 * 10;
#X connect 0 0 13 0;
#X connect 1 0 12 0;
#X connect 2 0 1 1;
#X connect 3 0 0 1;
#X connect 4 0 3 0;
#X connect 5 0 6 0;
#X connect 6 0 7 0;
#X connect 7 0 8 0;
#X connect 8 0 9 0;
#X connect 9 0 21 0;
#X connect 10 0 11 0;
#X connect 11 0 4 0;
#X connect 11 0 2 0;
#X connect 14 0 1 0;
#X connect 14 0 0 0;
#X connect 15 0 23 0;
#X connect 16 0 22 0;
#X connect 18 0 20 1;
#X connect 19 0 18 0;
#X connect 20 0 21 1;
#X connect 21 0 10 0;
#X connect 22 0 20 0;
#X connect 23 0 5 0;
