#N canvas 121 413 354 408 10;
#X obj 56 52 inlet~;
#X obj 56 364 outlet~;
#X obj 66 81 delwrite~ miDelay 2000;
#X obj 195 193 *~;
#X obj 226 126 r del_feedback;
#X obj 226 148 * 0.9;
#X obj 226 171 pack 0 30;
#X obj 226 192 line~;
#X obj 86 154 r del_time;
#X obj 86 177 * 1800;
#X obj 86 201 pack 0 30;
#X obj 86 225 line~;
#X obj 86 251 vd~ miDelay 1000;
#X obj 101 281 r del_on-off;
#X obj 86 326 *~;
#N canvas 843 250 182 173 fade 0;
#X obj 65 50 inlet;
#X obj 65 72 pack 0 30;
#X obj 65 94 line~;
#X obj 65 116 outlet~;
#X connect 0 0 1 0;
#X connect 1 0 2 0;
#X connect 2 0 3 0;
#X restore 101 303 pd fade;
#X connect 0 0 2 0;
#X connect 0 0 1 0;
#X connect 3 0 2 0;
#X connect 4 0 5 0;
#X connect 5 0 6 0;
#X connect 6 0 7 0;
#X connect 7 0 3 1;
#X connect 8 0 9 0;
#X connect 9 0 10 0;
#X connect 10 0 11 0;
#X connect 11 0 12 0;
#X connect 12 0 3 0;
#X connect 12 0 14 0;
#X connect 13 0 15 0;
#X connect 14 0 1 0;
#X connect 15 0 14 1;
