#N canvas 564 159 350 443 10;
#X obj 91 18 inlet~;
#X obj 91 378 outlet~;
#X obj 143 157 *~;
#X obj 158 134 line~;
#X obj 158 111 pack 0 30;
#X obj 158 88 * 50;
#X obj 158 61 r dist_rate;
#N canvas 438 397 303 333 tanh~ 0;
#X obj 118 80 inlet~;
#X obj 97 282 outlet~;
#X text 49 24 calculo da tangente hiperbolica;
#X text 39 41 tanh(x)=(e^x - e^-x) / (e^x + e^-x);
#X obj 97 116 sig~ 2.71828;
#X obj 97 174 pow~;
#X obj 147 174 pow~;
#X obj 168 151 *~ -1;
#X obj 97 208 -~;
#X obj 147 208 +~;
#X obj 97 238 /~;
#X connect 0 0 7 0;
#X connect 0 0 5 1;
#X connect 4 0 5 0;
#X connect 4 0 6 0;
#X connect 5 0 8 0;
#X connect 5 0 9 0;
#X connect 6 0 8 1;
#X connect 6 0 9 1;
#X connect 7 0 6 1;
#X connect 8 0 10 0;
#X connect 9 0 10 1;
#X connect 10 0 1 0;
#X restore 143 223 pd tanh~;
#X obj 143 260 /~ 10;
#X text 203 133 estimula;
#X text 188 259 regula;
#X obj 143 340 *~;
#N canvas 843 250 182 173 fade 0;
#X obj 65 50 inlet;
#X obj 65 72 pack 0 30;
#X obj 65 94 line~;
#X obj 65 116 outlet~;
#X connect 0 0 1 0;
#X connect 1 0 2 0;
#X connect 2 0 3 0;
#X restore 158 317 pd fade;
#X obj 158 295 r dist_on-off;
#X connect 0 0 1 0;
#X connect 0 0 2 0;
#X connect 2 0 7 0;
#X connect 3 0 2 1;
#X connect 4 0 3 0;
#X connect 5 0 4 0;
#X connect 6 0 5 0;
#X connect 7 0 8 0;
#X connect 8 0 11 0;
#X connect 11 0 1 0;
#X connect 12 0 11 1;
#X connect 13 0 12 0;
