#N canvas 91 340 276 397 10;
#X obj 73 39 inlet;
#X obj 73 326 outlet~;
#X obj 73 140 mtof;
#X floatatom 73 117 5 0 0 0 - - -;
#X obj 73 268 *~;
#N canvas 644 275 365 377 filtro 0;
#X obj 61 331 outlet~;
#X obj 61 49 inlet~;
#X obj 61 295 vcf~;
#X text 269 167 Q;
#X obj 71 167 sig~;
#X floatatom 71 146 5 0 0 0 - - -;
#X obj 116 86 r freq_filt;
#X obj 116 108 * 11950;
#X obj 116 129 + 50;
#X obj 230 169 r q_filt;
#X obj 230 193 * 9;
#X obj 230 214 + 1;
#X floatatom 230 236 5 0 0 0 - - -;
#X text 194 84 Freq;
#X obj 71 218 +~;
#X obj 86 197 r~ lfo_filt;
#X obj 71 266 *~;
#N canvas 264 237 574 461 envolvente_filtro 0;
#X obj 91 19 inlet;
#X obj 91 415 outlet~;
#X obj 91 50 sel 1 0;
#X obj 91 366 vline~;
#X msg 91 80 bang;
#X floatatom 109 116 5 0 0 0 - - -;
#X floatatom 128 136 5 0 0 0 - - -;
#X floatatom 146 157 5 0 0 0 - - -;
#X floatatom 165 180 5 0 0 0 - - -;
#X msg 324 261 \$5;
#X obj 279 287 pack 0 0;
#X msg 279 79 bang;
#X text 143 113 attack;
#X text 165 134 sustain;
#X text 182 155 decay;
#X text 201 179 release;
#X obj 345 77 * 4995;
#X obj 345 99 + 5;
#X obj 395 77 * 4995;
#X obj 395 99 + 5;
#X obj 495 77 * 4995;
#X obj 495 99 + 5;
#X obj 345 45 r fq_a;
#X obj 395 45 r fq_d;
#X obj 445 45 r fq_s;
#X obj 495 45 r fq_r;
#X obj 345 206 + 10;
#X floatatom 345 228 5 0 0 0 - - -;
#X text 383 227 attack + cutoff;
#X obj 91 244 pack 0 0 0 0 0 0;
#X msg 91 287 0 10 \, 1 \$2 10 \, \$3 \$4 \$6;
#X connect 0 0 2 0;
#X connect 2 0 4 0;
#X connect 2 1 11 0;
#X connect 3 0 1 0;
#X connect 4 0 29 0;
#X connect 5 0 29 1;
#X connect 6 0 29 2;
#X connect 7 0 29 3;
#X connect 8 0 29 4;
#X connect 9 0 10 1;
#X connect 10 0 3 0;
#X connect 11 0 10 0;
#X connect 16 0 17 0;
#X connect 17 0 5 0;
#X connect 17 0 26 0;
#X connect 18 0 19 0;
#X connect 19 0 7 0;
#X connect 20 0 21 0;
#X connect 21 0 8 0;
#X connect 22 0 16 0;
#X connect 23 0 18 0;
#X connect 24 0 6 0;
#X connect 25 0 20 0;
#X connect 26 0 27 0;
#X connect 27 0 29 5;
#X connect 29 0 30 0;
#X connect 29 0 9 0;
#X connect 30 0 3 0;
#X restore 86 244 pd envolvente_filtro;
#X obj 288 49 inlet;
#X obj 230 278 line;
#X obj 230 257 pack 0 30;
#X connect 1 0 2 0;
#X connect 2 0 0 0;
#X connect 4 0 14 0;
#X connect 5 0 4 0;
#X connect 6 0 7 0;
#X connect 7 0 8 0;
#X connect 8 0 5 0;
#X connect 9 0 10 0;
#X connect 10 0 11 0;
#X connect 11 0 12 0;
#X connect 12 0 20 0;
#X connect 14 0 16 0;
#X connect 15 0 14 1;
#X connect 16 0 2 1;
#X connect 17 0 16 1;
#X connect 18 0 17 0;
#X connect 19 0 2 2;
#X connect 20 0 19 0;
#X restore 73 219 pd filtro;
#N canvas 6 439 450 300 osciladores 0;
#N canvas 48 22 650 417 oscilador1 0;
#X obj 96 191 osc~;
#X obj 96 279 *~ 0.1;
#X obj 96 320 *~;
#X obj 206 279 *~ 0.1;
#X obj 206 320 *~;
#X obj 466 320 *~;
#X obj 466 191 noise~;
#X floatatom 96 170 5 0 0 0 - - -;
#X obj 466 279 *~ 0.04;
#X obj 131 305 tgl 15 0 empty empty empty 17 7 0 10 -262144 -1 -1 0
1;
#X obj 241 305 tgl 15 0 empty empty empty 17 7 0 10 -262144 -1 -1 0
1;
#X obj 501 305 tgl 15 0 empty empty empty 17 7 0 10 -262144 -1 -1 0
1;
#X obj 96 19 inlet;
#X obj 96 359 outlet~;
#X obj 144 288 r osc1;
#X obj 254 288 r phasor1;
#X obj 524 288 r noise1;
#N canvas 837 415 246 250 square 0;
#X obj 96 42 inlet;
#X obj 96 188 outlet~;
#X obj 96 89 osc~;
#X obj 96 111 *~ 200;
#X obj 96 134 clip~ -1 1;
#X connect 0 0 2 0;
#X connect 2 0 3 0;
#X connect 3 0 4 0;
#X connect 4 0 1 0;
#X restore 336 191 pd square;
#X obj 336 279 *~ 0.1;
#X obj 336 320 *~;
#X obj 371 305 tgl 15 0 empty empty empty 17 7 0 10 -262144 -1 -1 1
1;
#X obj 384 288 r square1;
#N canvas 837 415 246 250 saw 0;
#X obj 96 42 inlet;
#X obj 96 188 outlet~;
#X obj 96 91 phasor~;
#X obj 96 113 -~ 0.5;
#X obj 96 133 *~ 2;
#X connect 0 0 2 0;
#X connect 2 0 3 0;
#X connect 3 0 4 0;
#X connect 4 0 1 0;
#X restore 206 191 pd saw;
#X floatatom 96 65 5 0 0 0 - - -;
#X text 275 57 f* 2^(x/12) - formula pra microafinacao em semitons
;
#X obj 217 23 r fine1;
#X obj 217 48 t b f;
#X obj 244 90 / 12;
#X obj 213 117 pow 1;
#X msg 213 90 2;
#X obj 96 87 t f b;
#X obj 96 134 *;
#X connect 0 0 1 0;
#X connect 1 0 2 0;
#X connect 2 0 13 0;
#X connect 3 0 4 0;
#X connect 4 0 13 0;
#X connect 5 0 13 0;
#X connect 6 0 8 0;
#X connect 7 0 0 0;
#X connect 7 0 17 0;
#X connect 7 0 22 0;
#X connect 8 0 5 0;
#X connect 9 0 2 1;
#X connect 10 0 4 1;
#X connect 11 0 5 1;
#X connect 12 0 23 0;
#X connect 14 0 9 0;
#X connect 15 0 10 0;
#X connect 16 0 11 0;
#X connect 17 0 18 0;
#X connect 18 0 19 0;
#X connect 19 0 13 0;
#X connect 20 0 19 1;
#X connect 21 0 20 0;
#X connect 22 0 3 0;
#X connect 23 0 30 0;
#X connect 25 0 26 0;
#X connect 26 0 23 0;
#X connect 26 1 27 0;
#X connect 27 0 28 1;
#X connect 28 0 31 1;
#X connect 29 0 28 0;
#X connect 30 0 31 0;
#X connect 30 1 29 0;
#X connect 31 0 7 0;
#X restore 164 73 pd oscilador1;
#N canvas 698 22 636 417 oscilador2 0;
#X obj 96 191 osc~;
#X obj 96 279 *~ 0.1;
#X obj 96 320 *~;
#X obj 206 279 *~ 0.1;
#X obj 206 320 *~;
#X obj 466 320 *~;
#X obj 466 191 noise~;
#X floatatom 96 169 5 0 0 0 - - -;
#X obj 466 279 *~ 0.04;
#X obj 131 305 tgl 15 0 empty empty empty 17 7 0 10 -262144 -1 -1 0
1;
#X obj 241 305 tgl 15 0 empty empty empty 17 7 0 10 -262144 -1 -1 0
1;
#X obj 501 305 tgl 15 0 empty empty empty 17 7 0 10 -262144 -1 -1 1
1;
#X obj 96 359 outlet~;
#N canvas 837 415 246 250 square 0;
#X obj 96 42 inlet;
#X obj 96 188 outlet~;
#X obj 96 89 osc~;
#X obj 96 111 *~ 200;
#X obj 96 134 clip~ -1 1;
#X connect 0 0 2 0;
#X connect 2 0 3 0;
#X connect 3 0 4 0;
#X connect 4 0 1 0;
#X restore 336 191 pd square;
#X obj 336 279 *~ 0.1;
#X obj 336 320 *~;
#X obj 371 305 tgl 15 0 empty empty empty 17 7 0 10 -262144 -1 -1 0
1;
#N canvas 837 415 246 250 saw 0;
#X obj 96 42 inlet;
#X obj 96 188 outlet~;
#X obj 96 91 phasor~;
#X obj 96 113 -~ 0.5;
#X obj 96 133 *~ 2;
#X connect 0 0 2 0;
#X connect 2 0 3 0;
#X connect 3 0 4 0;
#X connect 4 0 1 0;
#X restore 206 191 pd saw;
#X obj 144 288 r osc2;
#X obj 254 288 r phasor2;
#X obj 384 288 r square2;
#X obj 524 288 r noise2;
#X obj 96 19 inlet;
#X floatatom 96 65 5 0 0 0 - - -;
#X text 275 57 f* 2^(x/12) - formula pra microafinacao em semitons
;
#X obj 217 48 t b f;
#X obj 244 90 / 12;
#X obj 213 117 pow 1;
#X msg 213 90 2;
#X obj 96 87 t f b;
#X obj 96 134 *;
#X obj 217 23 r fine2;
#X connect 0 0 1 0;
#X connect 1 0 2 0;
#X connect 2 0 12 0;
#X connect 3 0 4 0;
#X connect 4 0 12 0;
#X connect 5 0 12 0;
#X connect 6 0 8 0;
#X connect 7 0 0 0;
#X connect 7 0 13 0;
#X connect 7 0 17 0;
#X connect 8 0 5 0;
#X connect 9 0 2 1;
#X connect 10 0 4 1;
#X connect 11 0 5 1;
#X connect 13 0 14 0;
#X connect 14 0 15 0;
#X connect 15 0 12 0;
#X connect 16 0 15 1;
#X connect 17 0 3 0;
#X connect 18 0 9 0;
#X connect 19 0 10 0;
#X connect 20 0 16 0;
#X connect 21 0 11 0;
#X connect 22 0 23 0;
#X connect 23 0 29 0;
#X connect 25 0 23 0;
#X connect 25 1 26 0;
#X connect 26 0 27 1;
#X connect 27 0 30 1;
#X connect 28 0 27 0;
#X connect 29 0 30 0;
#X connect 29 1 28 0;
#X connect 30 0 7 0;
#X connect 31 0 25 0;
#X restore 264 73 pd oscilador2;
#X obj 46 29 r osc_mix;
#X floatatom 46 51 5 0 0 0 - - -;
#X obj 164 19 inlet;
#X obj 164 257 outlet~;
#X obj 73 95 - 1;
#X obj 73 115 abs;
#X floatatom 73 136 5 0 0 0 - - -;
#X obj 179 174 line~;
#X msg 179 152 \$1 20;
#X obj 46 73 t f f;
#X obj 279 174 line~;
#X msg 279 152 \$1 20;
#X obj 164 196 *~;
#X obj 264 196 *~;
#X connect 0 0 14 0;
#X connect 1 0 15 0;
#X connect 2 0 3 0;
#X connect 3 0 11 0;
#X connect 4 0 0 0;
#X connect 4 0 1 0;
#X connect 6 0 7 0;
#X connect 7 0 8 0;
#X connect 8 0 10 0;
#X connect 9 0 14 1;
#X connect 10 0 9 0;
#X connect 11 0 13 0;
#X connect 11 1 6 0;
#X connect 12 0 15 1;
#X connect 13 0 12 0;
#X connect 14 0 5 0;
#X connect 15 0 5 0;
#X restore 73 176 pd osciladores;
#X obj 73 78 unpack;
#X obj 119 144 > 0;
#N canvas 264 237 565 432 envolvente_voz 0;
#X obj 91 19 inlet;
#X obj 91 385 outlet~;
#X obj 91 50 sel 1 0;
#X obj 91 326 vline~;
#X msg 91 80 bang;
#X floatatom 109 116 5 0 0 0 - - -;
#X floatatom 128 136 5 0 0 0 - - -;
#X floatatom 146 157 5 0 0 0 - - -;
#X floatatom 165 180 5 0 0 0 - - -;
#X msg 293 251 \$5;
#X obj 248 278 pack 0 0;
#X msg 248 80 bang;
#X text 143 113 attack;
#X text 165 134 sustain;
#X text 182 155 decay;
#X text 201 179 release;
#X obj 315 77 * 4995;
#X obj 315 99 + 5;
#X obj 365 77 * 4995;
#X obj 365 99 + 5;
#X obj 465 77 * 4995;
#X obj 465 99 + 5;
#X obj 315 45 r amp_a;
#X obj 365 45 r amp_d;
#X obj 415 45 r amp_s;
#X obj 465 45 r amp_r;
#X obj 91 234 pack 0 0 0 0 0 0;
#X obj 315 198 + 10;
#X floatatom 315 218 5 0 0 0 - - -;
#X text 357 219 attack + cutoff;
#X msg 91 277 0 10 \, 1 \$2 10 \, \$3 \$4 \$6;
#X connect 0 0 2 0;
#X connect 2 0 4 0;
#X connect 2 1 11 0;
#X connect 3 0 1 0;
#X connect 4 0 26 0;
#X connect 5 0 26 1;
#X connect 6 0 26 2;
#X connect 7 0 26 3;
#X connect 8 0 26 4;
#X connect 9 0 10 1;
#X connect 10 0 3 0;
#X connect 11 0 10 0;
#X connect 16 0 17 0;
#X connect 17 0 5 0;
#X connect 17 0 27 0;
#X connect 18 0 19 0;
#X connect 19 0 7 0;
#X connect 20 0 21 0;
#X connect 21 0 8 0;
#X connect 22 0 16 0;
#X connect 23 0 18 0;
#X connect 24 0 6 0;
#X connect 25 0 20 0;
#X connect 26 0 30 0;
#X connect 26 0 9 0;
#X connect 27 0 28 0;
#X connect 28 0 26 5;
#X connect 30 0 3 0;
#X restore 119 251 pd envolvente_voz;
#X connect 0 0 7 0;
#X connect 2 0 6 0;
#X connect 3 0 2 0;
#X connect 4 0 1 0;
#X connect 5 0 4 0;
#X connect 6 0 5 0;
#X connect 7 0 3 0;
#X connect 7 1 8 0;
#X connect 8 0 9 0;
#X connect 8 0 5 1;
#X connect 9 0 4 1;
