#N canvas 340 410 493 491 10;
#X obj 476 162 outlet~;
#X obj 476 -1 inlet;
#N canvas 1275 38 553 501 sampler 0;
#X obj 251 355 table \$0-array;
#X obj 326 189 r \$0-start.offset;
#X obj 326 156 r \$0-block.size;
#X obj 194 94 r \$0-retrigger;
#X obj 161 130 spigot;
#X obj 161 69 r \$0-bbang;
#X obj 106 40 r \$0-playback.speed;
#X obj 34 -63 inlet;
#X obj 55 65 r \$0-stop.samp;
#N canvas 823 530 348 268 file_name 0;
#X obj 15 18 inlet;
#X obj 15 76 splitfilename;
#X obj 90 109 pack s \$0;
#X obj 104 84 symbol --------;
#X obj 104 47 initbang;
#X msg 90 138 set \$1;
#X obj 90 167 s \$0-fname;
#X connect 0 0 1 0;
#X connect 1 1 2 0;
#X connect 2 0 5 0;
#X connect 3 0 2 0;
#X connect 4 0 3 0;
#X connect 5 0 6 0;
#X restore 56 -22 pd file_name;
#X obj 34 349 outlet~;
#N canvas 1067 298 472 477 first_step 0;
#N canvas 226 196 450 300 len2freq 0;
#X obj 28 19 inlet;
#X obj 28 43 t b f;
#X msg 28 71 1;
#X obj 40 106 /;
#X obj 40 131 outlet;
#X text 79 16 Calculate the frequency required in order to play a single
loop at the correct tempo.;
#X connect 0 0 1 0;
#X connect 1 0 2 0;
#X connect 1 1 3 1;
#X connect 2 0 3 0;
#X connect 3 0 4 0;
#X restore 48 208 pd len2freq;
#N canvas 969 200 480 385 samp2sec 0;
#X obj 74 75 t f f;
#X obj 105 146 t b f;
#X obj 97 195 /;
#X obj 83 25 inlet;
#X obj 97 274 outlet;
#X msg 105 107 48000;
#X connect 0 0 2 0;
#X connect 0 1 5 0;
#X connect 1 0 2 0;
#X connect 1 1 2 1;
#X connect 2 0 4 0;
#X connect 3 0 0 0;
#X connect 5 0 1 0;
#X restore 48 178 pd samp2sec;
#X obj 48 136 soundfiler;
#X obj 48 81 pack s \$0;
#X msg 48 106 read -resize \$1 \$2-array;
#X obj 48 24 inlet;
#X obj 112 287 outlet;
#X obj 48 288 outlet;
#X connect 0 0 7 0;
#X connect 1 0 0 0;
#X connect 2 0 1 0;
#X connect 2 0 6 0;
#X connect 3 0 4 0;
#X connect 4 0 2 0;
#X connect 5 0 3 0;
#X restore 34 5 pd first_step;
#N canvas 937 251 533 489 third_step 0;
#X obj 33 -100 *~ 0;
#X obj 33 -19 tabread4~ \$0-array;
#X obj 151 51 tgl 15 0 empty empty empty 17 7 0 10 -262144 -1 -1 1
1;
#X msg 83 -100 range 0 \$1;
#X obj 94 -74 unsig~ 50;
#X obj 173 51 / 127;
#X obj 32 112 *~ 1;
#X obj 83 -45 s \$0-samp.pos;
#X obj 151 8 loadbang;
#X obj 33 207 outlet~;
#X obj 106 -194 inlet;
#X obj 33 -193 inlet~;
#X obj 214 -196 inlet;
#X obj 274 -194 inlet;
#X connect 0 0 1 0;
#X connect 0 0 4 0;
#X connect 1 0 6 0;
#X connect 2 0 6 1;
#X connect 3 0 7 0;
#X connect 4 0 7 0;
#X connect 5 0 6 1;
#X connect 6 0 9 0;
#X connect 8 0 2 0;
#X connect 10 0 3 0;
#X connect 10 0 0 1;
#X connect 11 0 0 0;
#X connect 12 0 2 0;
#X connect 13 0 5 0;
#X restore 34 280 pd third_step;
#X obj 1123 463;
#X obj 124 241 r \$0-volume;
#X obj 115 214 r \$0-mute;
#N canvas 865 447 592 468 second_step-------- 0;
#X obj 99 42 inlet;
#X obj 149 42 inlet;
#X obj 47 42 inlet;
#X obj 423 102 inlet;
#X obj 355 83 inlet;
#X obj 47 402 outlet~;
#X msg 99 113 0;
#X obj 47 228 wrap~;
#X obj 47 330 +~;
#X obj 47 363 wrap~;
#X obj 62 298 line~;
#X obj 47 194 *~ 0;
#X obj 47 265 /~ 0;
#X msg 149 113 0;
#X obj 204 42 inlet;
#X obj 47 155 phasor~;
#X obj 255 85 * -1;
#X obj 240 113 f;
#X obj 244 42 inlet;
#X obj 203 110 f;
#X obj 184 289 edge~;
#X obj 184 322 bng 15 250 50 0 empty empty empty 17 7 0 10 -262144
-1 -1;
#X obj 184 195 *~ 0;
#X obj 205 157 r \$0-oneshot;
#X floatatom 283 315 5 0 0 0 - - -;
#X obj 283 283 unsig~ 50;
#X obj 212 326 bng 15 250 50 0 empty empty empty 17 7 0 10 -262144
-1 -1;
#X obj 184 229 expr~ $v1<.5;
#X floatatom 280 391 5 0 0 0 - - -;
#X obj 280 359 unsig~ 50;
#X connect 0 0 6 0;
#X connect 1 0 13 0;
#X connect 2 0 15 0;
#X connect 2 0 16 0;
#X connect 2 0 19 1;
#X connect 3 0 10 0;
#X connect 4 0 11 1;
#X connect 4 0 12 1;
#X connect 6 0 15 0;
#X connect 7 0 12 0;
#X connect 7 0 25 0;
#X connect 7 0 22 0;
#X connect 8 0 9 0;
#X connect 9 0 5 0;
#X connect 10 0 8 1;
#X connect 11 0 7 0;
#X connect 12 0 8 0;
#X connect 13 0 15 1;
#X connect 14 0 19 0;
#X connect 15 0 11 0;
#X connect 16 0 17 1;
#X connect 17 0 15 0;
#X connect 18 0 17 0;
#X connect 19 0 15 0;
#X connect 20 0 21 0;
#X connect 20 1 26 0;
#X connect 21 0 6 0;
#X connect 22 0 27 0;
#X connect 23 0 22 1;
#X connect 25 0 24 0;
#X connect 27 0 20 0;
#X connect 27 0 29 0;
#X connect 29 0 28 0;
#X restore 34 190 pd second_step--------;
#X obj 327 124 r \$0-reverse;
#X obj 242 123 r \$0-forward;
#X obj 10 72 f;
#X obj 10 39 r \$0-reset.spd;
#X obj 155 6 r \$0-trigger.sample;
#X connect 1 0 16 6;
#X connect 2 0 16 5;
#X connect 3 0 4 1;
#X connect 4 0 16 2;
#X connect 5 0 4 0;
#X connect 6 0 16 0;
#X connect 7 0 9 0;
#X connect 7 0 11 0;
#X connect 8 0 16 1;
#X connect 11 0 16 0;
#X connect 11 0 19 1;
#X connect 11 1 12 1;
#X connect 12 0 10 0;
#X connect 14 0 12 3;
#X connect 15 0 12 2;
#X connect 16 0 12 0;
#X connect 17 0 16 4;
#X connect 18 0 16 3;
#X connect 19 0 16 0;
#X connect 20 0 19 0;
#X connect 21 0 16 3;
#X connect 21 0 4 0;
#X restore 476 97 pd sampler;
#X obj 24 89 hsl 55 15 0 176400 0 0 empty empty empty -2 -8 0 10 -262144
-1 -1 956 1;
#X obj 85 25 bng 15 250 50 0 empty empty P 4 7 0 10 -4034 -1 -1;
#X obj 104 25 bng 15 250 50 0 empty empty s 4 7 0 10 -258113 -1 -1
;
#X obj 85 46 bng 15 250 50 0 empty empty m 4 7 0 10 -262144 -1 -1;
#X symbolatom 3 5 19 0 0 0 - - -;
#X obj 211 174 r \$0-fname;
#X obj 211 282 s \$0-mute;
#X obj 3 134 s \$0-volume;
#X obj 233 147 r \$0-samp.pos;
#X obj 211 67 loadbang;
#X obj 211 121 r \$0-cvol;
#X obj 214 6 r \$0-cbut;
#X msg 211 94 127;
#X obj 211 307 s \$0-stop.samp;
#X obj 22 25 bng 60 250 50 0 empty empty empty 17 7 0 10 -262144 -1
-1;
#N canvas 989 218 426 483 signal_route 0;
#X obj -217 72 s \$0-playback.speed;
#X obj -190 105 s \$0-pitch.control;
#X obj -161 132 s \$0-block.size;
#X obj -134 222 s \$0-start.offset;
#X obj -107 192 s \$0-bbang;
#X obj -134 159 t f b;
#X obj -217 -38 inlet;
#X obj -85 313 s \$0-bus.select;
#X obj -110 260 s \$0-cvol;
#X obj -217 4 route spd pch bs so vol bus cbut;
#X obj -48 289 s \$0-cbut;
#X obj 1 4 loadbang;
#X obj 1 142 s \$0-start.offset;
#X msg 1 116 0;
#X obj 11 76 s \$0-block.size;
#X msg 11 50 1;
#X obj -220 229 pack \$0;
#X floatatom -220 256 5 0 0 0 - - -;
#X obj -220 186 bng 15 250 50 0 empty empty empty 17 7 0 10 -262144
-1 -1;
#X obj -88 359 r \$0-bus.select;
#X connect 5 0 3 0;
#X connect 5 1 4 0;
#X connect 6 0 9 0;
#X connect 9 0 0 0;
#X connect 9 1 1 0;
#X connect 9 2 2 0;
#X connect 9 3 5 0;
#X connect 9 4 8 0;
#X connect 9 5 7 0;
#X connect 9 6 10 0;
#X connect 11 0 15 0;
#X connect 11 0 13 0;
#X connect 13 0 12 0;
#X connect 15 0 14 0;
#X connect 16 0 17 0;
#X connect 18 0 16 0;
#X restore 357 40 pd signal_route;
#X obj 357 -4 inlet;
#X obj 3 27 vsl 15 55 0 127 0 0 empty empty empty 0 -9 0 10 -262144
-1 -1 5400 1;
#X obj 211 258 s \$0-retrigger;
#X obj 211 228 tgl 15 0 empty empty empty 17 7 0 10 -262144 -1 -1 1
1;
#X obj 3 89 bng 15 250 50 0 empty empty empty 17 7 0 10 -262144 -1
-1;
#X obj 494 53 openpanel;
#X obj 22 185 s \$0-trigger.sample;
#X obj 104 46 bng 15 250 50 0 empty empty <R 2 7 0 9 -262144 -1 -1
;
#X obj 210 203 s \$0-reverse;
#X obj 211 333 s \$0-forward;
#X obj 211 359 s \$0-reset.spd;
#X obj 85 65 bng 15 250 50 0 empty empty RS 2 7 0 9 -260097 -1 -1;
#X obj 214 38 select 1 2 3 4 5 6 7;
#X obj 105 134 s \$0-oneshot;
#X obj 103 65 tgl 15 0 empty empty empty 17 7 0 10 -262144 -1 -1 0
1;
#X connect 1 0 2 0;
#X connect 2 0 0 0;
#X connect 4 0 28 0;
#X connect 5 0 16 0;
#X connect 6 0 9 0;
#X connect 8 0 7 0;
#X connect 11 0 3 0;
#X connect 12 0 15 0;
#X connect 12 0 22 0;
#X connect 13 0 20 0;
#X connect 14 0 31 0;
#X connect 15 0 20 0;
#X connect 17 0 25 0;
#X connect 19 0 18 0;
#X connect 20 0 10 0;
#X connect 22 0 21 0;
#X connect 23 0 24 0;
#X connect 24 0 2 0;
#X connect 26 0 27 0;
#X connect 30 0 29 0;
#X connect 31 0 5 0;
#X connect 31 1 4 0;
#X connect 31 2 6 0;
#X connect 31 3 26 0;
#X connect 31 5 17 0;
#X connect 33 0 32 0;
#X coords 0 -1 1 1 120 110 1 0 0;
