#N canvas 555 269 469 499 10;
#X obj 0 0 tgl 25 0 \$0-toggle \$0-toggle.r 0 2 14 1 12 -1 -1 -262144
0 1;
#X text 66 8 <-- click and drag;
#X floatatom -26 110 5 0 0 0 - - -;
#N canvas 135 209 450 300 toggle 0;
#X obj 434 64 r \$0-toggle;
#X obj 460 248 MouseState;
#X msg 459 214 poll;
#X msg 395 214 nopoll;
#X msg 497 213 zero;
#X obj 462 167 t b b b;
#X obj 496 385 * -1;
#X obj 496 407 +;
#X obj 549 371 f 0;
#X obj 496 453 clip 0 127;
#X obj 494 486 s \$0-velocity;
#X obj 566 342 r \$0-velocity;
#X obj 418 320 sel 0;
#X obj 216 367 r \$0-velocity;
#N canvas 0 22 434 342 rgb 0;
#X obj 91 55 inlet;
#X obj 168 57 inlet;
#X obj 234 58 inlet;
#X text 96 30 red;
#X text 166 32 green;
#X text 238 32 blue;
#X obj 234 114 t b f;
#X obj 168 172 +;
#X obj 168 197 t b f;
#X obj 168 228 +;
#X obj 168 92 * -256;
#X obj 168 259 - 1;
#X obj 164 288 outlet;
#X obj 234 92 * -65536;
#X obj 91 91 * -1;
#X connect 0 0 14 0;
#X connect 1 0 10 0;
#X connect 2 0 13 0;
#X connect 6 1 7 1;
#X connect 7 0 8 0;
#X connect 8 1 9 1;
#X connect 9 0 11 0;
#X connect 10 0 7 0;
#X connect 11 0 12 0;
#X connect 13 0 6 0;
#X connect 14 0 9 0;
#X restore 216 470 pd rgb;
#X obj 216 395 * 2;
#X msg 216 420 \$1 0 0;
#X obj 216 445 unpack f f f;
#X obj 216 558 s \$0-toggle.r;
#X obj 115 468 makefilename %d;
#X msg 114 489 label \$1;
#X text 619 543 .mmb;
#X obj 398 115 sel 0 1;
#X msg 179 327 0;
#X obj 317 438 outlet;
#X obj 64 40 loadbang;
#X obj 66 72 f \$0;
#X msg 216 497 color \$1 \$1 0;
#X msg 181 73 0;
#X connect 0 0 22 0;
#X connect 1 0 12 0;
#X connect 1 2 6 0;
#X connect 2 0 1 0;
#X connect 3 0 1 0;
#X connect 4 0 1 0;
#X connect 5 0 2 0;
#X connect 5 1 4 0;
#X connect 5 2 8 0;
#X connect 6 0 7 0;
#X connect 7 0 9 0;
#X connect 8 0 7 1;
#X connect 8 0 10 0;
#X connect 9 0 10 0;
#X connect 11 0 8 1;
#X connect 12 0 3 0;
#X connect 13 0 15 0;
#X connect 13 0 19 0;
#X connect 13 0 24 0;
#X connect 14 0 27 0;
#X connect 15 0 16 0;
#X connect 16 0 17 0;
#X connect 17 0 14 0;
#X connect 17 1 14 1;
#X connect 17 2 14 2;
#X connect 19 0 20 0;
#X connect 20 0 18 0;
#X connect 22 0 23 0;
#X connect 22 1 5 0;
#X connect 23 0 15 0;
#X connect 23 0 19 0;
#X connect 25 0 26 0;
#X connect 25 0 28 0;
#X connect 27 0 18 0;
#X connect 28 0 22 0;
#X restore 19 123 pd toggle;
#X floatatom 21 174 5 0 0 0 - - -;
#X obj -17 250 outlet;
#X obj 43 248 outlet;
#X connect 0 0 2 0;
#X connect 2 0 5 0;
#X connect 3 0 4 0;
#X connect 4 0 6 0;
#X coords 0 -1 1 1 25 25 2 0 0;
