#N canvas 84 22 940 626 10;
#X obj 381 450 outlet;
#X obj 68 448 outlet;
#X obj 0 0 cnv 15 245 40 empty \$0-back.r empty 20 12 0 14 -102401
-262144 0;
#X obj 379 303 min 127;
#X obj 379 240 f;
#X obj 405 239 f;
#X obj 430 239 f;
#X obj 456 238 f;
#X obj 482 239 f;
#X obj 508 238 f;
#X obj 540 237 f;
#X obj 438 150 sel 0 1 2 3 4 5 6 7;
#X obj 68 356 max 0;
#X obj 68 380 min 127;
#X obj 62 172 sel 0 1 2 3 4 5 6 7;
#X obj 8 8 ColoredToggleBlue;
#X obj 37 8 ColoredToggleBlue;
#X obj 66 8 ColoredToggleBlue;
#X obj 95 8 ColoredToggleBlue;
#X obj 124 8 ColoredToggleBlue;
#X obj 153 8 ColoredToggleBlue;
#X obj 182 8 ColoredToggleBlue;
#X obj 211 8 ColoredToggleBlue;
#X obj -14 320 f 36;
#X obj -14 299 spigot;
#X obj 30 319 f 36;
#X obj 30 298 spigot;
#X obj 74 319 f 36;
#X obj 74 298 spigot;
#X obj 118 318 f 36;
#X obj 118 297 spigot;
#X obj 162 316 f 36;
#X obj 162 295 spigot;
#X obj 206 315 f 36;
#X obj 206 294 spigot;
#X obj 250 315 f 36;
#X obj 250 294 spigot;
#X obj 294 314 f 36;
#X obj 294 293 spigot;
#X obj 570 237 f;
#X obj 437 37 inlet;
#X obj 318 22 inlet;
#N canvas 0 22 434 342 rgb 0;
#X obj 91 55 inlet;
#X obj 168 57 inlet;
#X obj 234 58 inlet;
#X text 96 30 red;
#X text 166 32 green;
#X text 238 32 blue;
#X obj 234 114 t b f;
#X obj 168 172 +;
#X obj 168 197 t b f;
#X obj 168 228 +;
#X obj 168 92 * -256;
#X obj 168 259 - 1;
#X obj 164 288 outlet;
#X obj 91 91 * -65536;
#X obj 234 92 * -1;
#X connect 0 0 13 0;
#X connect 1 0 10 0;
#X connect 2 0 14 0;
#X connect 6 1 7 1;
#X connect 7 0 8 0;
#X connect 8 1 9 1;
#X connect 9 0 11 0;
#X connect 10 0 7 0;
#X connect 11 0 12 0;
#X connect 13 0 9 0;
#X connect 14 0 6 0;
#X restore 611 242 pd rgb;
#X msg 611 192 \$1 0 0;
#X obj 611 217 unpack f f f;
#X msg 611 269 color \$1 \$1 0;
#X obj 618 312 s \$0-back.r;
#X obj 611 169 * 2;
#X obj 2 227 bng 15 250 50 0 empty empty empty 17 7 0 10 -262144 -1
-1;
#X obj 32 229 bng 15 250 50 0 empty empty empty 17 7 0 10 -262144 -1
-1;
#X obj 67 230 bng 15 250 50 0 empty empty empty 17 7 0 10 -262144 -1
-1;
#X obj 117 225 bng 15 250 50 0 empty empty empty 17 7 0 10 -262144
-1 -1;
#X obj 147 227 bng 15 250 50 0 empty empty empty 17 7 0 10 -262144
-1 -1;
#X obj 182 228 bng 15 250 50 0 empty empty empty 17 7 0 10 -262144
-1 -1;
#X obj 229 220 bng 15 250 50 0 empty empty empty 17 7 0 10 -262144
-1 -1;
#X obj 259 222 bng 15 250 50 0 empty empty empty 17 7 0 10 -262144
-1 -1;
#X obj 388 197 bng 15 250 50 0 empty empty empty 17 7 0 10 -262144
-1 -1;
#X obj 413 198 bng 15 250 50 0 empty empty empty 17 7 0 10 -262144
-1 -1;
#X obj 442 197 bng 15 250 50 0 empty empty empty 17 7 0 10 -262144
-1 -1;
#X obj 467 198 bng 15 250 50 0 empty empty empty 17 7 0 10 -262144
-1 -1;
#X obj 491 198 bng 15 250 50 0 empty empty empty 17 7 0 10 -262144
-1 -1;
#X obj 513 198 bng 15 250 50 0 empty empty empty 17 7 0 10 -262144
-1 -1;
#X obj 537 199 bng 15 250 50 0 empty empty empty 17 7 0 10 -262144
-1 -1;
#X obj 563 198 bng 15 250 50 0 empty empty empty 17 7 0 10 -262144
-1 -1;
#X obj 379 279 max 1;
#X connect 3 0 0 0;
#X connect 4 0 64 0;
#X connect 5 0 64 0;
#X connect 6 0 64 0;
#X connect 7 0 64 0;
#X connect 8 0 64 0;
#X connect 9 0 64 0;
#X connect 10 0 64 0;
#X connect 11 0 56 0;
#X connect 11 1 57 0;
#X connect 11 2 58 0;
#X connect 11 3 59 0;
#X connect 11 4 60 0;
#X connect 11 5 61 0;
#X connect 11 6 62 0;
#X connect 11 7 63 0;
#X connect 12 0 13 0;
#X connect 13 0 1 0;
#X connect 14 0 48 0;
#X connect 14 1 49 0;
#X connect 14 2 50 0;
#X connect 14 3 51 0;
#X connect 14 4 52 0;
#X connect 14 5 53 0;
#X connect 14 6 54 0;
#X connect 14 7 55 0;
#X connect 15 0 24 1;
#X connect 15 1 4 1;
#X connect 16 0 26 1;
#X connect 16 1 5 1;
#X connect 17 0 28 1;
#X connect 17 1 6 1;
#X connect 18 0 30 1;
#X connect 18 1 7 1;
#X connect 19 0 32 1;
#X connect 19 1 8 1;
#X connect 20 0 34 1;
#X connect 20 1 9 1;
#X connect 21 0 36 1;
#X connect 21 1 10 1;
#X connect 22 0 38 1;
#X connect 22 1 39 1;
#X connect 23 0 12 0;
#X connect 24 0 23 0;
#X connect 25 0 12 0;
#X connect 26 0 25 0;
#X connect 27 0 12 0;
#X connect 28 0 27 0;
#X connect 29 0 12 0;
#X connect 30 0 29 0;
#X connect 31 0 12 0;
#X connect 32 0 31 0;
#X connect 33 0 12 0;
#X connect 34 0 33 0;
#X connect 35 0 12 0;
#X connect 36 0 35 0;
#X connect 37 0 12 0;
#X connect 38 0 37 0;
#X connect 39 0 64 0;
#X connect 40 0 14 0;
#X connect 40 0 11 0;
#X connect 41 0 23 1;
#X connect 41 0 25 1;
#X connect 41 0 27 1;
#X connect 41 0 29 1;
#X connect 41 0 31 1;
#X connect 41 0 33 1;
#X connect 41 0 35 1;
#X connect 41 0 37 1;
#X connect 41 0 47 0;
#X connect 42 0 45 0;
#X connect 43 0 44 0;
#X connect 44 0 42 0;
#X connect 44 1 42 1;
#X connect 44 2 42 2;
#X connect 45 0 46 0;
#X connect 47 0 43 0;
#X connect 48 0 24 0;
#X connect 49 0 26 0;
#X connect 50 0 28 0;
#X connect 51 0 30 0;
#X connect 52 0 32 0;
#X connect 53 0 34 0;
#X connect 54 0 36 0;
#X connect 55 0 38 0;
#X connect 56 0 4 0;
#X connect 57 0 5 0;
#X connect 58 0 6 0;
#X connect 59 0 7 0;
#X connect 60 0 8 0;
#X connect 61 0 9 0;
#X connect 62 0 10 0;
#X connect 63 0 39 0;
#X connect 64 0 3 0;
#X coords 0 -1 1 1 245 40 1 0 0;
