#N canvas 88 24 806 511 10;
#X declare -path z_machineDrumElectro_abs;
#X text 174 241 CURRENT INSTRUMENT;
#X obj 223 31 sequencetable;
#X obj 224 350 s copybar;
#X obj 297 343 bng 20 250 50 0 empty empty empty 20 8 0 8 -262130 -159808
-1;
#X text 120 309 CLEAR PATTERN;
#X text 325 320 COPY PATTERN;
#X text 324 349 PASTE PATTERN;
#X obj 4 261 hradio 30 1 0 10 empty empty empty 8 -8 0 8 -262130 -159808
-258699 2;
#N canvas 58 22 1223 907 pattern 0;
#X obj 582 296 r beat;
#X floatatom 928 398 0 0 0 0 - - -;
#X floatatom 96 623 0 0 0 0 - - -;
#X floatatom 122 621 0 0 0 0 - - -;
#X floatatom 154 621 0 0 0 0 - - -;
#X floatatom 186 621 0 0 0 0 - - -;
#X floatatom 218 621 0 0 0 0 - - -;
#X floatatom 250 621 0 0 0 0 - - -;
#X floatatom 282 621 0 0 0 0 - - -;
#X floatatom 315 621 0 0 0 0 - - -;
#X floatatom 347 621 0 0 0 0 - - -;
#X floatatom 379 621 0 0 0 0 - - -;
#X floatatom 411 621 0 0 0 0 - - -;
#X floatatom 443 621 0 0 0 0 - - -;
#X floatatom 475 621 0 0 0 0 - - -;
#X floatatom 507 621 0 0 0 0 - - -;
#X floatatom 539 621 0 0 0 0 - - -;
#X floatatom 571 621 0 0 0 0 - - -;
#X text 85 641 extended note info;
#X obj 997 406 bng 20 250 50 0 empty empty empty 20 8 0 8 -203904 -262130
-1;
#X text 702 131 INSTRUMENT;
#X obj 118 553 sequence a--------------------------------------------------
;
#X text 602 130 CLEAR PATTERN;
#X text 777 132 PASTE PATTERN;
#X obj 231 406 tgl 30 0 empty empty empty 20 8 0 8 -262130 -258113
-4160 0 1;
#X msg 790 389 0;
#X obj 246 391 bng 15 100 50 0 empty empty empty 0 -6 0 10 -203904
-262130 -1;
#X obj 264 406 tgl 30 0 empty empty empty 20 8 0 8 -262130 -258113
-4160 0 1;
#X obj 279 391 bng 15 100 50 0 empty empty empty 0 -6 0 10 -203904
-262130 -1;
#X obj 297 406 tgl 30 0 empty empty empty 20 8 0 8 -262130 -258113
-4160 0 1;
#X obj 312 391 bng 15 100 50 0 empty empty empty 0 -6 0 10 -203904
-262130 -1;
#X obj 330 406 tgl 30 0 empty empty empty 20 8 0 8 -262130 -258113
-4160 0 1;
#X obj 345 391 bng 15 100 50 0 empty empty empty 0 -6 0 10 -203904
-262130 -1;
#X obj 363 406 tgl 30 0 empty empty empty 20 8 0 8 -262130 -258113
-4160 0 1;
#X obj 378 391 bng 15 100 50 0 empty empty empty 0 -6 0 10 -203904
-262130 -1;
#X obj 396 406 tgl 30 0 empty empty empty 20 8 0 8 -262130 -258113
-4160 0 1;
#X obj 411 391 bng 15 100 50 0 empty empty empty 0 -6 0 10 -203904
-262130 -1;
#X obj 429 406 tgl 30 0 empty empty empty 20 8 0 8 -262130 -258113
-4160 0 1;
#X obj 444 391 bng 15 100 50 0 empty empty empty 0 -6 0 10 -203904
-262130 -1;
#X obj 462 406 tgl 30 0 empty empty empty 20 8 0 8 -262130 -258113
-4160 0 1;
#X obj 477 391 bng 15 100 50 0 empty empty empty 0 -6 0 10 -203904
-262130 -1;
#X obj 18 374 sel 0 1 2 3 4 5 6 7;
#N canvas 501 233 417 136 route 0;
#X obj 18 23 inlet;
#X obj 60 22 inlet;
#X obj 105 21 inlet;
#X obj 147 20 inlet;
#X obj 12 88 outlet;
#X obj 58 88 outlet;
#X obj 107 87 outlet;
#X obj 153 87 outlet;
#X obj 211 23 inlet;
#X obj 253 22 inlet;
#X obj 298 21 inlet;
#X obj 340 20 inlet;
#X obj 205 88 outlet;
#X obj 251 88 outlet;
#X obj 300 87 outlet;
#X obj 346 87 outlet;
#X connect 0 0 4 0;
#X connect 1 0 5 0;
#X connect 2 0 6 0;
#X connect 3 0 7 0;
#X connect 8 0 12 0;
#X connect 9 0 13 0;
#X connect 10 0 14 0;
#X connect 11 0 15 0;
#X restore 4 389 pd route UP----------------;
#N canvas 501 233 421 140 route 0;
#X obj 18 23 inlet;
#X obj 60 22 inlet;
#X obj 105 21 inlet;
#X obj 147 20 inlet;
#X obj 12 88 outlet;
#X obj 58 88 outlet;
#X obj 107 87 outlet;
#X obj 153 87 outlet;
#X obj 211 23 inlet;
#X obj 253 22 inlet;
#X obj 298 21 inlet;
#X obj 340 20 inlet;
#X obj 205 88 outlet;
#X obj 251 88 outlet;
#X obj 300 87 outlet;
#X obj 346 87 outlet;
#X connect 0 0 4 0;
#X connect 1 0 5 0;
#X connect 2 0 6 0;
#X connect 3 0 7 0;
#X connect 8 0 12 0;
#X connect 9 0 13 0;
#X connect 10 0 14 0;
#X connect 11 0 15 0;
#X restore 6 436 pd route BOTTOM----------------;
#X obj 248 457 tgl 30 0 empty empty empty 20 8 0 8 -262130 -258113
-4160 0 1;
#X msg 796 440 0;
#X obj 263 442 bng 15 100 50 0 empty empty empty 0 -6 0 10 -203904
-262130 -1;
#X obj 281 457 tgl 30 0 empty empty empty 20 8 0 8 -262130 -258113
-4160 0 1;
#X obj 296 442 bng 15 100 50 0 empty empty empty 0 -6 0 10 -203904
-262130 -1;
#X obj 314 457 tgl 30 0 empty empty empty 20 8 0 8 -262130 -258113
-4160 0 1;
#X obj 329 442 bng 15 100 50 0 empty empty empty 0 -6 0 10 -203904
-262130 -1;
#X obj 347 457 tgl 30 0 empty empty empty 20 8 0 8 -262130 -258113
-4160 0 1;
#X obj 362 442 bng 15 100 50 0 empty empty empty 0 -6 0 10 -203904
-262130 -1;
#X obj 380 457 tgl 30 0 empty empty empty 20 8 0 8 -262130 -258113
-4160 0 1;
#X obj 395 442 bng 15 100 50 0 empty empty empty 0 -6 0 10 -203904
-262130 -1;
#X obj 413 457 tgl 30 0 empty empty empty 20 8 0 8 -262130 -258113
-4160 0 1;
#X obj 428 442 bng 15 100 50 0 empty empty empty 0 -6 0 10 -203904
-262130 -1;
#X obj 446 457 tgl 30 0 empty empty empty 20 8 0 8 -262130 -258113
-4160 0 1;
#X obj 461 442 bng 15 100 50 0 empty empty empty 0 -6 0 10 -203904
-262130 -1;
#X obj 479 457 tgl 30 0 empty empty empty 20 8 0 8 -262130 -258113
-4160 0 1;
#X obj 494 442 bng 15 100 50 0 empty empty empty 0 -6 0 10 -203904
-262130 -1;
#N canvas 501 233 417 136 route 0;
#X obj 18 23 inlet;
#X obj 60 22 inlet;
#X obj 105 21 inlet;
#X obj 147 20 inlet;
#X obj 12 88 outlet;
#X obj 58 88 outlet;
#X obj 107 87 outlet;
#X obj 153 87 outlet;
#X obj 211 23 inlet;
#X obj 253 22 inlet;
#X obj 298 21 inlet;
#X obj 340 20 inlet;
#X obj 205 88 outlet;
#X obj 251 88 outlet;
#X obj 300 87 outlet;
#X obj 346 87 outlet;
#X connect 0 0 4 0;
#X connect 1 0 5 0;
#X connect 2 0 6 0;
#X connect 3 0 7 0;
#X connect 8 0 12 0;
#X connect 9 0 13 0;
#X connect 10 0 14 0;
#X connect 11 0 15 0;
#X restore 614 440 pd route UP----------------;
#N canvas 501 233 417 136 route 0;
#X obj 18 23 inlet;
#X obj 60 22 inlet;
#X obj 105 21 inlet;
#X obj 147 20 inlet;
#X obj 12 88 outlet;
#X obj 58 88 outlet;
#X obj 107 87 outlet;
#X obj 153 87 outlet;
#X obj 211 23 inlet;
#X obj 253 22 inlet;
#X obj 298 21 inlet;
#X obj 340 20 inlet;
#X obj 205 88 outlet;
#X obj 251 88 outlet;
#X obj 300 87 outlet;
#X obj 346 87 outlet;
#X connect 0 0 4 0;
#X connect 1 0 5 0;
#X connect 2 0 6 0;
#X connect 3 0 7 0;
#X connect 8 0 12 0;
#X connect 9 0 13 0;
#X connect 10 0 14 0;
#X connect 11 0 15 0;
#X restore 617 487 pd route BOTTOM----------------;
#X obj 615 425 sel 8 9 10 11 12 13 14 15;
#X obj 798 150 inlet;
#X obj 718 151 inlet;
#X obj 621 151 inlet;
#X obj 94 86 key;
#X floatatom 94 113 5 0 0 0 - - -;
#X obj 59 209 sel 97 115 100 102 103 104 106 107;
#X obj 150 166 spigot;
#X obj 204 104 tgl 30 0 empty empty empty 0 -6 0 10 -262144 -1 -1 1
1;
#X obj 294 210 sel 122 120 99 118 98 110 109 44;
#X obj 204 77 inlet;
#X text 182 56 on/off key control;
#X obj 226 148 s KBD;
#X obj 531 146 sel 47;
#X obj 531 126 key;
#X obj 621 229 bng 20 250 50 0 empty empty empty 20 8 0 8 -203904 -262130
-1;
#X obj 531 197 spigot;
#X obj 564 170 r KBD;
#X connect 0 0 41 0;
#X connect 0 0 63 0;
#X connect 1 0 21 16;
#X connect 3 0 21 1;
#X connect 4 0 21 2;
#X connect 5 0 21 3;
#X connect 6 0 21 4;
#X connect 7 0 21 5;
#X connect 8 0 21 6;
#X connect 9 0 21 7;
#X connect 10 0 21 8;
#X connect 11 0 21 9;
#X connect 12 0 21 10;
#X connect 13 0 21 11;
#X connect 14 0 21 12;
#X connect 15 0 21 13;
#X connect 16 0 21 14;
#X connect 17 0 21 15;
#X connect 19 0 21 17;
#X connect 21 0 2 0;
#X connect 21 0 42 0;
#X connect 21 1 3 0;
#X connect 21 1 42 1;
#X connect 21 2 4 0;
#X connect 21 2 42 2;
#X connect 21 3 5 0;
#X connect 21 3 42 3;
#X connect 21 4 6 0;
#X connect 21 4 42 4;
#X connect 21 5 7 0;
#X connect 21 5 42 5;
#X connect 21 6 8 0;
#X connect 21 6 42 6;
#X connect 21 7 9 0;
#X connect 21 7 42 7;
#X connect 21 8 10 0;
#X connect 21 8 61 0;
#X connect 21 9 11 0;
#X connect 21 9 61 1;
#X connect 21 10 12 0;
#X connect 21 10 61 2;
#X connect 21 11 13 0;
#X connect 21 11 61 3;
#X connect 21 12 14 0;
#X connect 21 12 61 4;
#X connect 21 13 15 0;
#X connect 21 13 61 5;
#X connect 21 14 16 0;
#X connect 21 14 61 6;
#X connect 21 15 17 0;
#X connect 21 15 61 7;
#X connect 24 0 43 0;
#X connect 25 0 24 0;
#X connect 25 0 27 0;
#X connect 25 0 29 0;
#X connect 25 0 31 0;
#X connect 25 0 33 0;
#X connect 25 0 35 0;
#X connect 25 0 37 0;
#X connect 25 0 39 0;
#X connect 27 0 43 1;
#X connect 29 0 43 2;
#X connect 31 0 43 3;
#X connect 33 0 43 4;
#X connect 35 0 43 5;
#X connect 37 0 43 6;
#X connect 39 0 43 7;
#X connect 41 0 26 0;
#X connect 41 1 28 0;
#X connect 41 2 30 0;
#X connect 41 3 32 0;
#X connect 41 4 34 0;
#X connect 41 5 36 0;
#X connect 41 6 38 0;
#X connect 41 7 40 0;
#X connect 42 0 24 0;
#X connect 42 1 27 0;
#X connect 42 2 29 0;
#X connect 42 3 31 0;
#X connect 42 4 33 0;
#X connect 42 5 35 0;
#X connect 42 6 37 0;
#X connect 42 7 39 0;
#X connect 43 0 21 0;
#X connect 43 1 21 1;
#X connect 43 2 21 2;
#X connect 43 3 21 3;
#X connect 43 4 21 4;
#X connect 43 5 21 5;
#X connect 43 6 21 6;
#X connect 43 7 21 7;
#X connect 44 0 62 0;
#X connect 45 0 44 0;
#X connect 45 0 47 0;
#X connect 45 0 49 0;
#X connect 45 0 51 0;
#X connect 45 0 53 0;
#X connect 45 0 55 0;
#X connect 45 0 57 0;
#X connect 45 0 59 0;
#X connect 47 0 62 1;
#X connect 49 0 62 2;
#X connect 51 0 62 3;
#X connect 53 0 62 4;
#X connect 55 0 62 5;
#X connect 57 0 62 6;
#X connect 59 0 62 7;
#X connect 61 0 44 0;
#X connect 61 1 47 0;
#X connect 61 2 49 0;
#X connect 61 3 51 0;
#X connect 61 4 53 0;
#X connect 61 5 55 0;
#X connect 61 6 57 0;
#X connect 61 7 59 0;
#X connect 62 0 21 8;
#X connect 62 1 21 9;
#X connect 62 2 21 10;
#X connect 62 3 21 11;
#X connect 62 4 21 12;
#X connect 62 5 21 13;
#X connect 62 6 21 14;
#X connect 62 7 21 15;
#X connect 63 0 46 0;
#X connect 63 1 48 0;
#X connect 63 2 50 0;
#X connect 63 3 52 0;
#X connect 63 4 54 0;
#X connect 63 5 56 0;
#X connect 63 6 58 0;
#X connect 63 7 60 0;
#X connect 64 0 19 0;
#X connect 65 0 1 0;
#X connect 66 0 78 0;
#X connect 67 0 68 0;
#X connect 68 0 70 0;
#X connect 69 0 24 0;
#X connect 69 1 27 0;
#X connect 69 2 29 0;
#X connect 69 3 31 0;
#X connect 69 4 33 0;
#X connect 69 5 35 0;
#X connect 69 6 37 0;
#X connect 69 7 39 0;
#X connect 70 0 69 0;
#X connect 70 0 72 0;
#X connect 71 0 70 1;
#X connect 71 0 75 0;
#X connect 72 0 44 0;
#X connect 72 1 47 0;
#X connect 72 2 49 0;
#X connect 72 3 51 0;
#X connect 72 4 53 0;
#X connect 72 5 55 0;
#X connect 72 6 57 0;
#X connect 72 7 59 0;
#X connect 73 0 71 0;
#X connect 76 0 79 0;
#X connect 77 0 76 0;
#X connect 78 0 25 0;
#X connect 78 0 45 0;
#X connect 79 0 78 0;
#X connect 80 0 79 1;
#X coords 0 -1 1 1 300 130 1 220 370;
#X restore 4 369 pd pattern;
#X obj 151 326 bng 20 250 50 0 empty empty empty 20 8 0 8 -262130 -159808
-1;
#X obj 4 330 tgl 30 0 empty empty empty 0 -6 0 10 -262130 -260097 -1
1 1;
#X text 39 335 KBD CTRL;
#X obj 297 317 bng 20 250 50 0 empty empty empty 20 8 0 8 -262130 -159808
-1;
#N canvas 0 22 405 250 instr_sel 0;
#X obj 39 50 key;
#X floatatom 209 67 5 0 0 0 - - -;
#X msg 30 146 0;
#X msg 57 146 1;
#X msg 84 146 2;
#X msg 112 146 3;
#X msg 140 146 4;
#X msg 169 146 5;
#X msg 198 146 6;
#X msg 226 146 7;
#X msg 255 146 8;
#X msg 284 146 9;
#X obj 39 73 spigot;
#X obj 72 25 r KBD;
#X obj 83 47 tgl 15 0 empty empty empty 0 -6 0 10 -262144 -1 -1 1 1
;
#X obj 77 182 outlet;
#X obj 39 99 sel 113 119 101 114 116 121 117 105 111 112;
#X connect 0 0 1 0;
#X connect 0 0 12 0;
#X connect 2 0 15 0;
#X connect 3 0 15 0;
#X connect 4 0 15 0;
#X connect 5 0 15 0;
#X connect 6 0 15 0;
#X connect 7 0 15 0;
#X connect 8 0 15 0;
#X connect 9 0 15 0;
#X connect 10 0 15 0;
#X connect 11 0 15 0;
#X connect 12 0 16 0;
#X connect 13 0 12 1;
#X connect 13 0 14 0;
#X connect 16 0 2 0;
#X connect 16 1 3 0;
#X connect 16 2 4 0;
#X connect 16 3 5 0;
#X connect 16 4 6 0;
#X connect 16 5 7 0;
#X connect 16 6 8 0;
#X connect 16 7 9 0;
#X connect 16 8 10 0;
#X connect 16 9 11 0;
#X restore 4 239 pd instr_sel;
#X obj 312 467 hradio 30 1 0 16 empty empty empty 8 -8 0 8 -262130
-159808 -258699 0;
#X obj 312 448 r beat;
#N canvas 183 88 629 578 controls 0;
#X obj 33 366 s init;
#X obj 114 397 s bar;
#X obj 110 135 tgl 30 0 empty empty ON/OFF 0 -5 0 12 -262130 -258113
-1 1 1;
#X obj 117 174 bng 25 250 50 0 empty empty reset 30 10 0 8 -262130
-159808 -1;
#X obj 190 197 bng 20 250 50 0 empty empty empty 30 10 0 8 -262130
-159808 -1;
#X obj 215 197 bng 20 250 50 0 empty empty empty 30 10 0 8 -262130
-159808 -1;
#X text 195 179 << >>;
#X text 244 196 skipbar;
#X obj 6 5 loadbang;
#X obj 271 291 tgl 20 0 empty empty empty 20 8 0 8 -262130 -258699
-1 0 1;
#X text 70 5 CLOCK;
#X msg 33 338 bang;
#X obj 17 391 s sampleinit;
#X obj 209 131 nbx 3 30 -1e+37 1e+37 0 0 empty empty empty 0 -6 2 30
-262144 -1 -1 120 256;
#X obj 190 225 nbx 3 25 -1e+37 1e+37 0 0 empty empty empty 0 -6 2 25
-262144 -1 -1 0 256;
#X msg 211 23 120;
#N canvas 363 191 656 456 clock 0;
#X obj 74 150 metro 120;
#X floatatom 174 82 0 0 0 0 - - -;
#X obj 190 264 s beat;
#X obj 39 26 inlet;
#X obj 344 24 inlet;
#X obj 316 182 int;
#X obj 401 23 inlet;
#X obj 163 25 inlet;
#X obj 230 24 inlet;
#X obj 217 354 outlet;
#X obj 492 288 int;
#X obj 535 268 + 1;
#X obj 329 323 int;
#X obj 372 303 - 1;
#X obj 372 336 moses 0;
#X obj 454 24 inlet;
#X obj 508 23 inlet;
#X obj 131 350 spigot;
#X msg 498 216 bang;
#X text 535 211 next bar;
#X text 406 303 last bar;
#X obj 69 289 select 15;
#X obj 123 214 counter 0 0 15;
#X obj 261 48 r on;
#X obj 233 74 spigot;
#X msg 250 120 0;
#X msg 196 116 1;
#X connect 0 0 22 0;
#X connect 1 0 0 1;
#X connect 3 0 0 0;
#X connect 4 0 12 0;
#X connect 5 0 9 0;
#X connect 5 0 10 1;
#X connect 5 0 12 1;
#X connect 6 0 10 0;
#X connect 7 0 1 0;
#X connect 8 0 24 0;
#X connect 10 0 11 0;
#X connect 11 0 5 0;
#X connect 12 0 13 0;
#X connect 13 0 14 0;
#X connect 14 1 5 0;
#X connect 15 0 5 0;
#X connect 16 0 17 1;
#X connect 17 0 18 0;
#X connect 18 0 10 0;
#X connect 21 0 17 0;
#X connect 22 0 2 0;
#X connect 22 0 21 0;
#X connect 23 0 24 1;
#X connect 24 0 25 0;
#X connect 24 0 26 0;
#X connect 25 0 0 0;
#X connect 25 0 22 3;
#X connect 26 0 0 0;
#X restore 114 334 pd clock ----;
#X obj 81 37 key;
#X floatatom 107 38 5 0 0 0 - - -;
#X obj 81 58 spigot;
#X obj 160 41 r KBD;
#X obj 190 256 nbx 3 25 -1e+37 1e+37 0 0 empty empty empty 0 -6 2 25
-262144 -1 -1 0 256;
#X text 258 227 setbar;
#X text 264 261 bar;
#X text 187 291 link bar -->;
#X obj 351 311 r pat;
#X obj 81 79 sel 8 32;
#X msg 361 160 1 \$1;
#X obj 361 184 /;
#X obj 363 207 * 60000;
#X obj 363 233 / 4;
#X floatatom 363 256 5 0 0 0 - - -;
#X obj 43 193 s on;
#X text 261 117 BPM;
#X connect 2 0 16 0;
#X connect 2 0 32 0;
#X connect 3 0 16 2;
#X connect 4 0 16 3;
#X connect 5 0 16 4;
#X connect 8 0 11 0;
#X connect 8 0 3 0;
#X connect 8 0 15 0;
#X connect 9 0 16 6;
#X connect 11 0 0 0;
#X connect 11 0 12 0;
#X connect 13 0 27 0;
#X connect 14 0 16 5;
#X connect 15 0 13 0;
#X connect 16 0 21 0;
#X connect 17 0 18 0;
#X connect 17 0 19 0;
#X connect 19 0 26 0;
#X connect 20 0 19 1;
#X connect 21 0 1 0;
#X connect 25 0 16 5;
#X connect 26 0 3 0;
#X connect 26 1 2 0;
#X connect 27 0 28 0;
#X connect 28 0 29 0;
#X connect 29 0 30 0;
#X connect 30 0 31 0;
#X connect 31 0 16 1;
#X coords 0 -1 1 1 200 220 1 100 100;
#X restore 4 5 pd controls;
#X obj 542 0 comment 0 30 helvetica ? 0 0 0 0 PD MachineDrum;
#X obj 531 17 comment 0 30 helvetica ? 0 0 0 0 --------------------------
;
#N canvas 13 22 979 569 electro 0;
#X obj 31 110 angriff;
#X obj 31 483 outlet~;
#X msg 31 83 100;
#X obj 204 110 angriff 2;
#X obj 383 110 angriff 3;
#X msg 204 82 100;
#X msg 383 83 100;
#X obj 204 486 outlet~;
#X obj 383 482 outlet~;
#X msg 104 86 load bass.txt;
#X msg 273 86 load snare.txt;
#X obj 566 110 angriff 3;
#X msg 566 83 100;
#X obj 566 482 outlet~;
#X msg 639 82 load clap.txt;
#X obj 751 109 angriff 3;
#X msg 751 82 100;
#X obj 751 481 outlet~;
#X msg 826 79 load gong.txt;
#X msg 454 86 load hihat.txt;
#X obj 677 8 r init;
#X obj 41 23 inlet;
#X obj 243 21 inlet;
#X obj 399 18 inlet;
#X obj 577 29 inlet;
#X obj 762 24 inlet;
#X connect 0 0 1 0;
#X connect 2 0 0 0;
#X connect 3 0 7 0;
#X connect 4 0 8 0;
#X connect 5 0 3 0;
#X connect 6 0 4 0;
#X connect 9 0 0 1;
#X connect 10 0 3 1;
#X connect 11 0 13 0;
#X connect 12 0 11 0;
#X connect 14 0 11 1;
#X connect 15 0 17 0;
#X connect 16 0 15 0;
#X connect 18 0 15 1;
#X connect 19 0 4 1;
#X connect 20 0 18 0;
#X connect 20 0 14 0;
#X connect 20 0 19 0;
#X connect 20 0 10 0;
#X connect 20 0 9 0;
#X connect 21 0 2 0;
#X connect 22 0 5 0;
#X connect 23 0 6 0;
#X connect 24 0 12 0;
#X connect 25 0 16 0;
#X restore 429 146 pd electro 1-----5;
#X text 729 444 by Strangy;
#X text 674 42 ver. 1.01 "electro";
#X obj 4 301 loadbang;
#N canvas 28 61 1069 486 gate 0;
#X obj 437 6 r channel1;
#X obj 448 28 r channel2;
#X obj 463 53 r channel3;
#X obj 111 118 tgl 16 0 empty empty empty 0 -6 0 10 -261682 -258113
-1 1 1;
#X obj 134 118 tgl 16 0 empty empty empty 0 -6 0 10 -261682 -258113
-1 1 1;
#X obj 158 118 tgl 16 0 empty empty empty 0 -6 0 10 -261682 -258113
-1 1 1;
#X obj 182 118 tgl 16 0 empty empty empty 0 -6 0 10 -261682 -258113
-1 1 1;
#X obj 206 118 tgl 16 0 empty empty empty 0 -6 0 10 -261682 -258113
-1 1 1;
#X obj 230 118 tgl 16 0 empty empty empty 0 -6 0 10 -261682 -258113
-1 1 1;
#X obj 255 118 tgl 16 0 empty empty empty 0 -6 0 10 -261682 -258113
-1 1 1;
#X obj 280 118 tgl 16 0 empty empty empty 0 -6 0 10 -261682 -258113
-1 1 1;
#X obj 303 118 tgl 16 0 empty empty empty 0 -6 0 10 -261682 -258113
-1 1 1;
#X obj 327 118 tgl 16 0 empty empty empty 0 -6 0 10 -261682 -258113
-1 1 1;
#X obj 481 76 r channel4;
#X obj 505 101 r channel5;
#X obj 528 122 r channel6;
#X obj 563 145 r channel7;
#X obj 603 166 r channel8;
#X obj 637 187 r channel9;
#X obj 682 209 r channel10;
#X obj 63 242 spigot;
#X obj 117 250 spigot;
#X obj 167 251 spigot;
#X obj 217 250 spigot;
#X obj 270 249 spigot;
#X obj 320 248 spigot;
#X obj 370 249 spigot;
#X obj 420 250 spigot;
#X obj 468 248 spigot;
#X obj 519 249 spigot;
#X obj 56 308 outlet;
#X obj 116 319 outlet;
#X obj 167 307 outlet;
#X obj 217 329 outlet;
#X obj 270 316 outlet;
#X obj 320 347 outlet;
#X obj 370 332 outlet;
#X obj 420 376 outlet;
#X obj 468 346 outlet;
#X obj 519 391 outlet;
#X obj 332 12 r init;
#X msg 332 34 1;
#X obj 109 46 sel 0 1 2 3 4 5 6 7 8 9;
#X obj 109 21 r mix;
#X obj 112 138 bng 15 70 50 0 empty empty empty 0 -6 0 10 -261682 -203904
-1;
#X obj 134 138 bng 15 70 50 0 empty empty empty 0 -6 0 10 -261682 -203904
-1;
#X obj 158 139 bng 15 70 50 0 empty empty empty 0 -6 0 10 -261682 -203904
-1;
#X obj 181 139 bng 15 70 50 0 empty empty empty 0 -6 0 10 -261682 -203904
-1;
#X obj 206 139 bng 15 70 50 0 empty empty empty 0 -6 0 10 -261682 -203904
-1;
#X obj 230 139 bng 15 250 50 0 empty empty empty 0 -6 0 10 -261682
-203904 -1;
#X obj 256 139 bng 15 70 50 0 empty empty empty 0 -6 0 10 -261682 -203904
-1;
#X obj 280 139 bng 15 70 50 0 empty empty empty 0 -6 0 10 -261682 -203904
-1;
#X obj 304 139 bng 15 70 50 0 empty empty empty 0 -6 0 10 -261682 -203904
-1;
#X obj 327 139 bng 15 70 50 0 empty empty empty 0 -6 0 10 -261682 -203904
-1;
#X obj -62 98 r bangs;
#X obj -62 121 sel 0 1 2 3 4 5 6 7 8 9;
#X connect 0 0 20 0;
#X connect 1 0 21 0;
#X connect 2 0 22 0;
#X connect 3 0 20 1;
#X connect 4 0 21 1;
#X connect 5 0 22 1;
#X connect 6 0 23 1;
#X connect 7 0 24 1;
#X connect 8 0 25 1;
#X connect 9 0 26 1;
#X connect 10 0 27 1;
#X connect 11 0 28 1;
#X connect 12 0 29 1;
#X connect 13 0 23 0;
#X connect 14 0 24 0;
#X connect 15 0 25 0;
#X connect 16 0 26 0;
#X connect 17 0 27 0;
#X connect 18 0 28 0;
#X connect 19 0 29 0;
#X connect 20 0 44 0;
#X connect 21 0 45 0;
#X connect 22 0 46 0;
#X connect 23 0 47 0;
#X connect 24 0 48 0;
#X connect 25 0 49 0;
#X connect 26 0 50 0;
#X connect 27 0 51 0;
#X connect 28 0 52 0;
#X connect 29 0 53 0;
#X connect 40 0 41 0;
#X connect 41 0 3 0;
#X connect 41 0 4 0;
#X connect 41 0 5 0;
#X connect 41 0 6 0;
#X connect 41 0 7 0;
#X connect 41 0 8 0;
#X connect 41 0 9 0;
#X connect 41 0 10 0;
#X connect 41 0 11 0;
#X connect 41 0 12 0;
#X connect 42 0 3 0;
#X connect 42 1 4 0;
#X connect 42 2 5 0;
#X connect 42 3 6 0;
#X connect 42 4 7 0;
#X connect 42 5 8 0;
#X connect 42 6 9 0;
#X connect 42 7 10 0;
#X connect 42 8 11 0;
#X connect 42 9 12 0;
#X connect 43 0 42 0;
#X connect 44 0 30 0;
#X connect 45 0 31 0;
#X connect 46 0 32 0;
#X connect 47 0 33 0;
#X connect 48 0 34 0;
#X connect 49 0 35 0;
#X connect 50 0 36 0;
#X connect 51 0 37 0;
#X connect 52 0 38 0;
#X connect 53 0 39 0;
#X connect 54 0 55 0;
#X connect 55 0 44 0;
#X connect 55 1 45 0;
#X connect 55 2 46 0;
#X connect 55 3 47 0;
#X connect 55 4 48 0;
#X connect 55 5 49 0;
#X connect 55 6 50 0;
#X connect 55 7 51 0;
#X connect 55 8 52 0;
#X connect 55 9 53 0;
#X coords 0 -1 1 1 250 60 1 100 100;
#X restore 428 78 pd gate;
#N canvas 0 22 973 458 mix/pattern_key_control 0;
#X obj 121 17 key;
#X floatatom 159 21 5 0 0 0 - - -;
#X obj 121 48 sel 49 50 51 52 53 54 55 56 57 48;
#X msg 432 206 2;
#X msg 378 153 1;
#X msg 94 88 0;
#X msg 123 89 1;
#X msg 150 91 2;
#X msg 181 90 3;
#X msg 208 90 4;
#X msg 236 90 5;
#X msg 264 89 6;
#X msg 291 88 7;
#X msg 323 88 8;
#X msg 351 87 9;
#X floatatom 202 148 5 0 0 0 - - -;
#X obj 430 87 r KBD;
#X floatatom 265 271 5 0 0 0 - - -;
#X floatatom 215 272 5 0 0 0 - - -;
#X msg 406 179 0;
#X obj 582 85 key;
#X obj 531 83 keyup;
#X obj 582 109 sel 96;
#X obj 531 108 sel 96;
#X obj 397 58 r init;
#X obj 265 298 s mix;
#X obj 215 299 s pat;
#X obj 430 110 sel 0 1;
#X obj 551 173 spigot;
#X obj 552 139 r KBD;
#X obj 507 173 spigot;
#X obj 692 88 key;
#X obj 641 86 keyup;
#X obj 661 176 spigot;
#X obj 662 142 r KBD;
#X obj 617 176 spigot;
#X obj 642 111 sel 93;
#X obj 692 112 sel 93;
#X obj 192 219 gate 3;
#X obj 158 300 s bangs;
#X floatatom 158 274 5 0 0 0 - - -;
#X msg 459 230 3;
#X connect 0 0 1 0;
#X connect 0 0 2 0;
#X connect 2 0 5 0;
#X connect 2 1 6 0;
#X connect 2 2 7 0;
#X connect 2 3 8 0;
#X connect 2 4 9 0;
#X connect 2 5 10 0;
#X connect 2 6 11 0;
#X connect 2 7 12 0;
#X connect 2 8 13 0;
#X connect 2 9 14 0;
#X connect 3 0 38 0;
#X connect 4 0 38 0;
#X connect 5 0 15 0;
#X connect 6 0 15 0;
#X connect 7 0 15 0;
#X connect 8 0 15 0;
#X connect 9 0 15 0;
#X connect 10 0 15 0;
#X connect 11 0 15 0;
#X connect 12 0 15 0;
#X connect 13 0 15 0;
#X connect 14 0 15 0;
#X connect 15 0 38 1;
#X connect 16 0 27 0;
#X connect 17 0 25 0;
#X connect 18 0 26 0;
#X connect 19 0 38 0;
#X connect 20 0 22 0;
#X connect 21 0 23 0;
#X connect 22 0 28 0;
#X connect 23 0 30 0;
#X connect 24 0 4 0;
#X connect 27 0 19 0;
#X connect 27 1 4 0;
#X connect 28 0 3 0;
#X connect 29 0 28 1;
#X connect 29 0 30 1;
#X connect 30 0 4 0;
#X connect 31 0 37 0;
#X connect 32 0 36 0;
#X connect 33 0 41 0;
#X connect 34 0 33 1;
#X connect 34 0 35 1;
#X connect 35 0 4 0;
#X connect 36 0 35 0;
#X connect 37 0 33 0;
#X connect 38 0 40 0;
#X connect 38 1 18 0;
#X connect 38 2 17 0;
#X connect 40 0 39 0;
#X connect 41 0 38 0;
#X restore 223 58 pd mix/pattern_key_control;
#X floatatom 702 350 0 0 0 0 - - -;
#N canvas 159 26 505 276 output 0;
#X obj 338 160 t b;
#X obj 338 110 f;
#X obj 338 60 inlet;
#X text 344 29 mute;
#X obj 338 185 f;
#X msg 425 178 0;
#X msg 338 85 bang;
#X obj 338 135 moses 1;
#X obj 425 153 t b f;
#X obj 397 117 moses 1;
#X obj 83 148 dbtorms;
#X obj 397 92 r master-lvl;
#X obj 83 42 r master-lvl;
#X obj 338 210 s master-lvl;
#X obj 22 181 inlet~;
#X obj 199 41 inlet;
#X text 199 18 level;
#X obj 199 100 s master-lvl;
#X msg 96 65 set \$1;
#X obj 96 89 outlet;
#X msg 214 64 \; pd dsp 1;
#X obj 83 194 line~;
#X obj 22 212 *~;
#X obj 83 171 pack 0 50;
#X text 20 158 audio;
#X text 93 110 show level;
#X obj 22 241 outlet~;
#X connect 0 0 4 0;
#X connect 1 0 7 0;
#X connect 2 0 6 0;
#X connect 4 0 13 0;
#X connect 5 0 13 0;
#X connect 6 0 1 0;
#X connect 7 0 0 0;
#X connect 7 1 8 0;
#X connect 8 0 5 0;
#X connect 9 1 4 1;
#X connect 10 0 23 0;
#X connect 11 0 1 1;
#X connect 11 0 9 0;
#X connect 12 0 10 0;
#X connect 12 0 18 0;
#X connect 14 0 22 0;
#X connect 15 0 17 0;
#X connect 15 0 20 0;
#X connect 18 0 19 0;
#X connect 21 0 22 1;
#X connect 22 0 26 0;
#X connect 23 0 21 0;
#X restore 677 371 pd output;
#N canvas 0 22 882 675 mixer 0;
#X obj 131 132 vsl 18 128 0 127 0 0 empty empty empty 0 -8 0 10 -262144
-1 -1 10000 1;
#X obj 67 511 *~;
#X obj 107 132 vsl 18 128 0 127 0 0 empty empty empty 0 -8 0 10 -262144
-1 -1 10000 1;
#X obj 35 510 *~;
#X obj 179 132 vsl 18 128 0 127 0 0 empty empty empty 0 -8 0 10 -262144
-1 -1 10000 1;
#X obj 134 512 *~;
#X obj 155 132 vsl 18 128 0 127 0 0 empty empty empty 0 -8 0 10 -262144
-1 -1 10000 1;
#X obj 98 511 *~;
#X obj 228 132 vsl 18 128 0 127 0 0 empty empty empty 0 -8 0 10 -262144
-1 -1 10000 1;
#X obj 460 437 *~;
#X obj 204 132 vsl 18 128 0 127 0 0 empty empty empty 0 -8 0 10 -262144
-1 -1 10000 1;
#X obj 169 513 *~;
#X obj 276 132 vsl 18 128 0 127 0 0 empty empty empty 0 -8 0 10 -262144
-1 -1 10000 1;
#X obj 525 437 *~;
#X obj 252 132 vsl 18 128 0 127 0 0 empty empty empty 0 -8 0 10 -262144
-1 -1 10000 1;
#X obj 492 436 *~;
#X obj 325 133 vsl 18 128 0 127 0 0 empty empty empty 0 -8 0 10 -262144
-1 -1 10000 1;
#X obj 584 438 *~;
#X obj 301 133 vsl 18 128 0 127 0 0 empty empty empty 0 -8 0 10 -262144
-1 -1 10000 1;
#X obj 552 438 *~;
#X obj -6 323 inlet~;
#X obj 32 204 inlet~;
#X obj 19 238 inlet~;
#X obj 7 282 inlet~;
#X obj 351 11 inlet~;
#X obj 540 20 inlet~;
#X obj 458 8 inlet~;
#X obj 400 13 inlet~;
#X obj 615 23 inlet~;
#X obj 45 164 inlet~;
#X obj 11 585 outlet~;
#X obj 62 585 outlet~;
#X obj 114 586 outlet~;
#X obj 166 587 outlet~;
#X obj 217 587 outlet~;
#X obj 459 565 outlet~;
#X obj 492 540 outlet~;
#X obj 525 517 outlet~;
#X obj 552 493 outlet~;
#X obj 584 471 outlet~;
#X obj 191 36 loadbang;
#X msg 191 61 100;
#X obj 107 329 linedrive 127 1 1.06 30;
#X obj 131 357 linedrive 127 1 1.06 30;
#X obj 155 386 linedrive 127 1 1.06 30;
#X obj 179 413 linedrive 127 1 1.06 30;
#X obj 654 200 linedrive 127 1 1.06 30;
#X obj 663 223 linedrive 127 1 1.06 30;
#X obj 678 244 linedrive 127 1 1.06 30;
#X obj 687 267 linedrive 127 1 1.06 30;
#X obj 205 441 linedrive 127 1 1.06 30;
#X obj 694 293 linedrive 127 1 1.06 30;
#X floatatom 50 383 5 0 0 0 - - -;
#X floatatom 81 408 5 0 0 0 - - -;
#X floatatom 113 430 5 0 0 0 - - -;
#X floatatom 149 455 5 0 0 0 - - -;
#X floatatom 184 474 5 0 0 0 - - -;
#X floatatom 475 349 5 0 0 0 - - -;
#X floatatom 507 364 5 0 0 0 - - -;
#X floatatom 540 383 5 0 0 0 - - -;
#X floatatom 567 400 5 0 0 0 - - -;
#X floatatom 599 419 5 0 0 0 - - -;
#X connect 0 0 43 0;
#X connect 1 0 31 0;
#X connect 2 0 42 0;
#X connect 3 0 30 0;
#X connect 4 0 45 0;
#X connect 5 0 33 0;
#X connect 6 0 44 0;
#X connect 7 0 32 0;
#X connect 8 0 46 0;
#X connect 9 0 35 0;
#X connect 10 0 50 0;
#X connect 11 0 34 0;
#X connect 12 0 48 0;
#X connect 13 0 37 0;
#X connect 14 0 47 0;
#X connect 15 0 36 0;
#X connect 16 0 51 0;
#X connect 17 0 39 0;
#X connect 18 0 49 0;
#X connect 19 0 38 0;
#X connect 20 0 3 0;
#X connect 21 0 5 0;
#X connect 22 0 7 0;
#X connect 23 0 1 0;
#X connect 24 0 9 0;
#X connect 25 0 19 0;
#X connect 26 0 13 0;
#X connect 27 0 15 0;
#X connect 28 0 17 0;
#X connect 29 0 11 0;
#X connect 40 0 41 0;
#X connect 41 0 2 0;
#X connect 41 0 0 0;
#X connect 41 0 6 0;
#X connect 41 0 4 0;
#X connect 41 0 10 0;
#X connect 41 0 8 0;
#X connect 41 0 14 0;
#X connect 41 0 12 0;
#X connect 41 0 18 0;
#X connect 41 0 16 0;
#X connect 42 0 52 0;
#X connect 43 0 53 0;
#X connect 44 0 54 0;
#X connect 45 0 55 0;
#X connect 46 0 57 0;
#X connect 47 0 58 0;
#X connect 48 0 59 0;
#X connect 49 0 60 0;
#X connect 50 0 56 0;
#X connect 51 0 61 0;
#X connect 52 0 3 1;
#X connect 53 0 1 1;
#X connect 54 0 7 1;
#X connect 55 0 5 1;
#X connect 56 0 11 1;
#X connect 57 0 9 1;
#X connect 58 0 15 1;
#X connect 59 0 13 1;
#X connect 60 0 19 1;
#X connect 61 0 17 1;
#X coords 0 -1 1 1 250 200 1 100 100;
#X restore 429 171 pd mixer;
#X obj 687 204 vsl 20 128 0 127 0 0 empty empty empty 0 -8 0 10 -232576
-1 -1 11000 1;
#X text 687 181 master;
#X obj 744 159 r init;
#X msg 744 184 110;
#N canvas 60 26 1019 826 notes 0;
#X text 291 -16 tom@nullpointer.co.uk;
#X text 293 -33 www.nullpointer.co.uk;
#X obj -368 132 comment 0 20 times ? 0 0 0 0 comment;
#X text -254 224 comment;
#X obj -262 208 image help.gif;
#X obj -56 581 image keys.gif;
#X text 297 -50 original patch from;
#X coords 0 0 1 1 200 300 0;
#X restore 223 6 pd notes;
#N canvas 13 22 983 573 electro 0;
#X obj 31 110 angriff;
#X obj 31 483 outlet~;
#X msg 31 83 100;
#X obj 204 110 angriff 2;
#X obj 383 110 angriff 3;
#X msg 204 82 100;
#X msg 383 83 100;
#X obj 204 486 outlet~;
#X obj 383 482 outlet~;
#X msg 104 86 load bass.txt;
#X msg 273 86 load snare.txt;
#X obj 566 110 angriff 3;
#X msg 566 83 100;
#X obj 566 482 outlet~;
#X msg 639 82 load clap.txt;
#X obj 751 109 angriff 3;
#X msg 751 82 100;
#X obj 751 481 outlet~;
#X msg 826 79 load gong.txt;
#X msg 454 86 load hihat.txt;
#X obj 677 8 r init;
#X obj 41 23 inlet;
#X obj 243 21 inlet;
#X obj 399 18 inlet;
#X obj 577 29 inlet;
#X obj 762 24 inlet;
#X connect 0 0 1 0;
#X connect 2 0 0 0;
#X connect 3 0 7 0;
#X connect 4 0 8 0;
#X connect 5 0 3 0;
#X connect 6 0 4 0;
#X connect 9 0 0 1;
#X connect 10 0 3 1;
#X connect 11 0 13 0;
#X connect 12 0 11 0;
#X connect 14 0 11 1;
#X connect 15 0 17 0;
#X connect 16 0 15 0;
#X connect 18 0 15 1;
#X connect 19 0 4 1;
#X connect 20 0 18 0;
#X connect 20 0 14 0;
#X connect 20 0 19 0;
#X connect 20 0 10 0;
#X connect 20 0 9 0;
#X connect 21 0 2 0;
#X connect 22 0 5 0;
#X connect 23 0 6 0;
#X connect 24 0 12 0;
#X connect 25 0 16 0;
#X restore 566 146 pd electro 1-----5;
#X msg 728 313 MUTE;
#X obj 281 7 declare -path z_machineDrumElectro_abs;
#N canvas 0 22 450 300 (subpatch) 0;
#X obj 59 155 inlet;
#X obj 3 89 inlet~;
#X obj 58 182 change;
#X msg 60 246 set \$1;
#X obj 60 227 tosymbol;
#X obj 59 204 sprintf Bus%d;
#X obj 3 282 throw~ Bus0;
#X obj 2 3 popup 124 25 #ffffff popup Bus0 Bus1 Bus2 Bus3 Bus4 Bus5
Bus6 Bus7 Bus8 Bus9 Bus10 Bus11 Bus12 Bus13 Bus14 Bus15 Bus16;
#X obj 1 32 route bang;
#X obj 154 202 *~;
#X obj 141 7 tgl 15 0 empty empty Dac 19 7 0 10 -262144 -1 -1 0 1;
#X obj 155 238 dac~;
#X obj 1 -49 loadbang;
#X text 59 -51 Bus0 mutes;
#X msg 1 -31 options Bus0 Bus1 Bus2 Bus3 Bus4 Bus5 Bus6 Bus7 Bus8 Bus9
Bus10 Bus11 Bus12 Bus13 Bus14 Bus15 Bus16;
#X connect 0 0 2 0;
#X connect 1 0 6 0;
#X connect 1 0 9 0;
#X connect 2 0 5 0;
#X connect 3 0 6 0;
#X connect 4 0 3 0;
#X connect 5 0 4 0;
#X connect 7 0 8 0;
#X connect 8 1 2 0;
#X connect 9 0 11 0;
#X connect 9 0 11 1;
#X connect 10 0 9 1;
#X connect 12 0 14 0;
#X connect 14 0 7 0;
#X coords 0 1 100 -1 180 30 1 0 0;
#X restore 515 416 graph;
#X connect 3 0 8 3;
#X connect 7 0 8 2;
#X connect 9 0 8 1;
#X connect 10 0 8 0;
#X connect 12 0 2 0;
#X connect 13 0 7 0;
#X connect 15 0 14 0;
#X connect 19 0 27 0;
#X connect 19 1 27 1;
#X connect 19 2 27 2;
#X connect 19 3 27 3;
#X connect 19 4 27 4;
#X connect 22 0 10 0;
#X connect 23 0 19 0;
#X connect 23 1 19 1;
#X connect 23 2 19 2;
#X connect 23 3 19 3;
#X connect 23 4 19 4;
#X connect 23 5 33 0;
#X connect 23 6 33 1;
#X connect 23 7 33 2;
#X connect 23 8 33 3;
#X connect 23 9 33 4;
#X connect 25 0 26 1;
#X connect 26 0 36 0;
#X connect 26 1 25 0;
#X connect 27 0 26 0;
#X connect 27 1 26 0;
#X connect 27 2 26 0;
#X connect 27 3 26 0;
#X connect 27 4 26 0;
#X connect 27 5 26 0;
#X connect 27 6 26 0;
#X connect 27 7 26 0;
#X connect 27 8 26 0;
#X connect 27 9 26 0;
#X connect 28 0 25 0;
#X connect 30 0 31 0;
#X connect 31 0 28 0;
#X connect 31 0 25 0;
#X connect 33 0 27 5;
#X connect 33 1 27 6;
#X connect 33 2 27 7;
#X connect 33 3 27 8;
#X connect 33 4 27 9;
#X connect 34 0 26 2;
