#N canvas 64 22 279 437 12;
#X obj 20 22 tgl 15 0 empty empty empty 0 -6 0 8 -262144 -1 -1 0 1
;
#N canvas 0 22 450 300 (subpatch) 0;
#X array seqprob 16 float 3;
#A 0 12.1426 36.4284 10.7141 32.8568 43.5711 43.5711 71.4281 52.8568
52.8568 12.8569 97.8565 94.9994 62.8564 84.285 80.7136 97.8565;
#X coords 0 100 15 0 200 140 1;
#X restore 21 110 graph;
#N canvas 0 22 450 300 (subpatch) 0;
#X array seq 16 float 3;
#A 0 19.0498 29.027 53.5204 93.4358 70.7567 83.457 56.2419 57.1491
56.2419 82.5498 36.2846 35.3774 35.3774 35.3774 39.0061 39.9132;
#X coords 0 127 15 0 200 140 1;
#X restore 21 269 graph;
#N canvas 0 22 450 300 ProbRythmic___ 0;
#X obj 18 90 metro 250;
#X obj 331 173 tabread seqprob;
#X obj 18 122 f;
#X obj 70 122 + 1;
#X obj 18 156 % 16;
#X obj 18 221 random 100;
#X obj 18 185 t b f;
#X obj 18 251 <=;
#X obj 18 285 sel 1;
#X obj 248 428 bang;
#N canvas 212 86 434 586 gensound 0;
#X obj 112 356 osc~;
#X obj 111 155 mtof;
#X obj 136 272 osc~;
#X obj 112 327 +~;
#X obj 136 300 *~;
#X obj 111 196 sig~;
#X obj 37 -3 inlet;
#X obj 113 -3 inlet;
#X obj 228 187 line~;
#X obj 112 456 *~;
#X obj 112 537 outlet~;
#X obj 220 0 inlet;
#X obj 164 455 / 100;
#X obj 110 498 *~;
#X obj 256 311 delay 5;
#X obj 163 395 line~;
#X msg 256 274 0 5;
#X obj 289 391 delay 5;
#X msg 320 430 0 2500;
#X obj 182 56 random 440;
#X obj 231 96 random 400;
#X obj 233 126 / 4;
#X msg 224 159 \$1 \, 110 125;
#X msg 276 357 0.25 5;
#X connect 0 0 9 0;
#X connect 1 0 5 0;
#X connect 2 0 4 0;
#X connect 3 0 0 0;
#X connect 4 0 3 1;
#X connect 5 0 3 0;
#X connect 6 0 16 0;
#X connect 6 0 19 0;
#X connect 6 0 20 0;
#X connect 7 0 1 0;
#X connect 8 0 4 1;
#X connect 9 0 13 0;
#X connect 11 0 12 0;
#X connect 12 0 13 1;
#X connect 13 0 10 0;
#X connect 14 0 23 0;
#X connect 15 0 9 1;
#X connect 16 0 14 0;
#X connect 16 0 15 0;
#X connect 17 0 18 0;
#X connect 18 0 15 0;
#X connect 19 0 2 0;
#X connect 20 0 21 0;
#X connect 21 0 22 0;
#X connect 22 0 8 0;
#X connect 23 0 17 0;
#X connect 23 0 15 0;
#X restore 248 466 pd gensound;
#X obj 289 370 tabread seq;
#N canvas 0 22 259 305 bdrum 0;
#X obj 131 71 inlet;
#X obj 131 143 line~;
#X obj 23 143 line~;
#X obj 132 178 osc~;
#X obj 64 210 *~;
#X obj 63 239 outlet~;
#X msg 131 113 125 \, 25 71;
#X msg 23 114 0.25 \, 0 250;
#X connect 0 0 6 0;
#X connect 0 0 7 0;
#X connect 1 0 3 0;
#X connect 2 0 4 0;
#X connect 3 0 4 1;
#X connect 4 0 5 0;
#X connect 6 0 1 0;
#X connect 7 0 2 0;
#X restore 18 466 pd bdrum;
#X obj 18 414 tgl 15 0 empty empty empty 0 -6 0 8 -262144 -1 -1 0 1
;
#X obj 37 413 tgl 15 0 empty empty empty 0 -6 0 8 -262144 -1 -1 0 1
;
#X obj 37 388 sel 1;
#X obj 38 363 > 50;
#X obj 18 438 &&;
#N canvas 105 70 434 484 snare 0;
#X obj 119 106 f;
#X obj 171 106 + 1;
#X obj 119 225 line~;
#X obj 99 274 *~;
#X obj 53 231 noise~;
#X obj 119 76 bang;
#X obj 119 173 sel 1;
#X obj 119 140 % 4;
#X obj 119 40 inlet;
#X obj 158 433 outlet~;
#X obj 265 236 line~;
#X obj 218 234 line~;
#X obj 265 277 osc~;
#X obj 245 303 *~;
#X obj 157 388 +~;
#X msg 119 200 0.21 \, 0 75;
#X msg 313 207 330 \, 125 125;
#X msg 217 206 0.1 \, 0 125;
#X connect 0 0 1 0;
#X connect 0 0 7 0;
#X connect 1 0 0 1;
#X connect 2 0 3 1;
#X connect 3 0 14 0;
#X connect 4 0 3 0;
#X connect 5 0 0 0;
#X connect 6 0 15 0;
#X connect 6 0 16 0;
#X connect 6 0 17 0;
#X connect 7 0 6 0;
#X connect 8 0 5 0;
#X connect 10 0 12 0;
#X connect 11 0 13 0;
#X connect 12 0 13 1;
#X connect 13 0 14 1;
#X connect 14 0 9 0;
#X connect 15 0 2 0;
#X connect 16 0 10 0;
#X connect 17 0 11 0;
#X restore 92 464 pd snare;
#N canvas 425 178 359 371 hithat 0;
#X obj 119 106 f;
#X obj 171 106 + 1;
#X obj 119 226 line~;
#X obj 48 263 *~;
#X obj 15 76 noise~;
#X obj 119 173 sel 1;
#X obj 119 40 inlet;
#X obj 48 312 outlet~;
#X obj 119 75 bang;
#X obj 119 140 % \$1;
#X obj 16 184 bp~ 10000 10;
#X obj 161 140 random 4;
#X msg 119 200 0.15 \, 0 50;
#X connect 0 0 1 0;
#X connect 0 0 9 0;
#X connect 1 0 0 1;
#X connect 2 0 3 1;
#X connect 3 0 7 0;
#X connect 4 0 10 0;
#X connect 5 0 12 0;
#X connect 6 0 8 0;
#X connect 8 0 0 0;
#X connect 8 0 11 0;
#X connect 9 0 5 0;
#X connect 10 0 3 0;
#X connect 11 0 9 1;
#X connect 12 0 2 0;
#X restore 166 466 pd hithat;
#X obj 110 435 bng 15 250 50 0 empty empty empty 0 -6 0 8 -262144 -1
-1;
#X obj 91 58 r MMetro;
#X obj 17 61 inlet;
#X obj 97 30 inlet;
#X obj 151 525 outlet~;
#X connect 0 0 2 0;
#X connect 1 0 7 1;
#X connect 1 0 10 2;
#X connect 1 0 16 0;
#X connect 1 0 19 0;
#X connect 2 0 3 0;
#X connect 2 0 4 0;
#X connect 3 0 2 1;
#X connect 4 0 6 0;
#X connect 5 0 7 0;
#X connect 6 0 5 0;
#X connect 6 1 1 0;
#X connect 6 1 11 0;
#X connect 7 0 8 0;
#X connect 8 0 9 0;
#X connect 8 0 13 0;
#X connect 9 0 10 0;
#X connect 10 0 24 0;
#X connect 11 0 10 1;
#X connect 12 0 24 0;
#X connect 13 0 17 0;
#X connect 14 0 17 1;
#X connect 15 0 14 0;
#X connect 15 0 18 0;
#X connect 16 0 15 0;
#X connect 17 0 12 0;
#X connect 18 0 24 0;
#X connect 19 0 24 0;
#X connect 20 0 18 0;
#X connect 20 0 12 0;
#X connect 20 0 19 0;
#X connect 20 0 10 0;
#X connect 21 0 0 1;
#X connect 22 0 0 0;
#X connect 23 0 0 1;
#X restore 20 40 pd ProbRythmic___;
#X floatatom 136 20 5 0 0 0 - - -;
#X text 176 20 ms;
#N canvas 0 22 450 300 (subpatch) 0;
#X obj 59 155 inlet;
#X obj 3 89 inlet~;
#X obj 58 182 change;
#X msg 60 246 set \$1;
#X obj 60 227 tosymbol;
#X obj 59 204 sprintf Bus%d;
#X obj 3 282 throw~ Bus0;
#X obj 2 3 popup 124 25 #ffffff popup Bus0 Bus1 Bus2 Bus3 Bus4 Bus5
;
#X obj 1 32 route bang;
#X obj 154 202 *~;
#X obj 141 7 tgl 15 0 empty empty Dac 19 7 0 10 -262144 -1 -1 0 1;
#X obj 155 238 dac~;
#X obj 1 -64 loadbang;
#X text 55 -75 Bus0 mutes everything;
#X text 56 -62 Bus6 goes to dac;
#X msg 1 -46 options Bus0 Bus1 Bus2 Bus3 Bus4 Bus5 Bus6 Bus7 Bus8 Bus9
Bus10 Bus11 Bus12 Bus13 Bus14 Bus15 Bus16;
#X connect 0 0 2 0;
#X connect 1 0 6 0;
#X connect 1 0 9 0;
#X connect 2 0 5 0;
#X connect 3 0 6 0;
#X connect 4 0 3 0;
#X connect 5 0 4 0;
#X connect 7 0 8 0;
#X connect 8 1 2 0;
#X connect 9 0 11 0;
#X connect 9 0 11 1;
#X connect 10 0 9 1;
#X connect 12 0 15 0;
#X connect 15 0 7 0;
#X coords 0 1 100 -1 180 30 1 0 0;
#X restore 20 60 graph;
#X connect 0 0 3 0;
#X connect 3 0 6 0;
#X connect 4 0 3 1;
