#N canvas 360 73 536 298 10;
#X declare -path z_drums4dummies_abs;
#N canvas 5 49 719 665 track 0;
#X obj 42 318 r timecode;
#X obj 42 516 mod;
#X obj 81 447 *;
#X obj 81 468 * 240;
#X obj 42 586 spigot 1;
#X obj 42 463 - 0;
#N canvas 0 22 701 794 notes 0;
#X obj 137 161 route 100;
#X obj 188 399 unpack f f f s f f f;
#X obj 358 516 r tempo;
#X obj 173 449 f;
#X obj 242 289 moses;
#X obj 285 264 t b f;
#X obj 285 289 random 100;
#X obj 312 193 unpack f f f f s f f f;
#X obj 269 335 f;
#X obj 269 312 b;
#X obj 285 177 t b a;
#X obj 285 209 f;
#X obj 67 86 sel 0;
#X text 329 179 prob != 100;
#X text 99 186 prob = 100;
#X obj 269 361 pack f f f s f f f;
#X obj 118 69 unpack f f f f f s f f f;
#X obj 137 135 pack f f f f s f f f;
#X obj 67 118 f;
#X obj 118 11 inlet;
#X obj 88 716 outlet;
#X obj 343 600 expr $f2*60000/(240*$f1);
#X obj 57 487 symbol note;
#X obj 137 377 t b b b a;
#X obj 94 39 r \$1-sel-gprob;
#X obj 200 519 +;
#X obj 173 494 +;
#X obj 343 576 f;
#X obj 215 499 r \$1-from_velshift;
#X obj 188 474 r \$1-from_pitchshift;
#X obj 183 543 moses 0;
#X obj 222 565 moses 127;
#X obj 183 564 b;
#X obj 183 585 0;
#X obj 273 587 b;
#X obj 273 608 127;
#X obj 343 489 t b f;
#X obj 88 675 pack s s f f f f f f;
#X text 70 737 patch | note | pitch | velocite | duree ms | v1 | v2
| v3;
#X obj 553 578 r \$1-from-patch;
#X obj 520 599 symbol;
#X obj 555 669 +;
#X obj 570 649 r \$1-from_pitchshift;
#X obj 520 508 r \$1-from-midi-lpk;
#X obj 520 529 t b b l;
#X obj 559 552 unpack f f;
#X obj 520 700 pack s s f f f f f;
#X obj 537 623 symbol midi-note;
#X obj 358 545 route float bang;
#X obj 285 245 -;
#X msg 285 227 100 \$1;
#X obj 37 464 symbol ride;
#X connect 0 0 23 0;
#X connect 0 1 10 0;
#X connect 1 0 3 1;
#X connect 1 1 36 0;
#X connect 1 2 25 0;
#X connect 1 4 37 5;
#X connect 1 5 37 6;
#X connect 1 6 37 7;
#X connect 2 0 48 0;
#X connect 3 0 26 0;
#X connect 4 1 9 0;
#X connect 5 0 6 0;
#X connect 5 1 4 1;
#X connect 6 0 4 0;
#X connect 7 0 11 1;
#X connect 7 1 8 1;
#X connect 7 2 15 1;
#X connect 7 3 15 2;
#X connect 7 4 15 3;
#X connect 7 5 15 4;
#X connect 7 6 15 5;
#X connect 7 7 15 6;
#X connect 8 0 15 0;
#X connect 9 0 8 0;
#X connect 10 0 11 0;
#X connect 10 1 7 0;
#X connect 11 0 50 0;
#X connect 12 0 18 0;
#X connect 15 0 23 0;
#X connect 16 0 12 0;
#X connect 16 1 18 1;
#X connect 16 2 17 1;
#X connect 16 3 17 2;
#X connect 16 4 17 3;
#X connect 16 5 17 4;
#X connect 16 6 17 5;
#X connect 16 7 17 6;
#X connect 16 8 17 7;
#X connect 17 0 0 0;
#X connect 18 0 17 0;
#X connect 19 0 16 0;
#X connect 21 0 37 4;
#X connect 22 0 37 1;
#X connect 23 0 51 0;
#X connect 23 1 22 0;
#X connect 23 2 3 0;
#X connect 23 3 1 0;
#X connect 24 0 12 1;
#X connect 25 0 30 0;
#X connect 26 0 37 2;
#X connect 27 0 21 0;
#X connect 28 0 25 1;
#X connect 29 0 26 1;
#X connect 30 0 32 0;
#X connect 30 1 31 0;
#X connect 31 0 37 3;
#X connect 31 1 34 0;
#X connect 32 0 33 0;
#X connect 33 0 37 3;
#X connect 34 0 35 0;
#X connect 35 0 37 3;
#X connect 36 0 27 0;
#X connect 36 1 21 1;
#X connect 37 0 20 0;
#X connect 39 0 40 1;
#X connect 40 0 46 0;
#X connect 41 0 46 2;
#X connect 42 0 41 1;
#X connect 43 0 44 0;
#X connect 44 0 40 0;
#X connect 44 1 47 0;
#X connect 44 2 45 0;
#X connect 45 0 41 0;
#X connect 45 1 46 3;
#X connect 46 0 20 0;
#X connect 47 0 46 1;
#X connect 48 0 27 1;
#X connect 49 0 5 0;
#X connect 50 0 49 0;
#X connect 51 0 37 0;
#X restore 449 518 pd notes;
#X obj 81 410 f;
#X obj 192 393 t b f;
#X obj 42 484 + 0;
#X obj 192 368 route float;
#X obj 81 384 route float;
#X obj 273 570 == 0;
#X obj 273 471 f;
#X obj 273 491 - 1;
#X obj 302 471 f;
#X obj 302 491 + 1;
#X obj 273 511 moses 0;
#X msg 273 530 0;
#X obj 273 548 f;
#X obj 273 432 sel 0;
#X obj 302 453 b;
#X obj 449 574 s outseq;
#X obj 449 554 spigot 1;
#X obj 42 611 s 1-to-sequence;
#X obj 23 631 s 1-to-sequence-masher;
#X obj 273 413 r 1-cut-tc;
#N canvas 523 25 715 773 \$1-sequence 0;
#X obj 100 50 r 1-to-sequence;
#X obj 100 500 s 1-from-sequence;
#X obj 0 70 sel 950;
#X msg 0 130 list 562 0 100 48 68.75 89 note 0 0 0;
#X obj 20 90 sel 110;
#X msg 20 150 list 562 0 100 60 70.25 110 note 0 0 0;
#X obj 40 110 sel 191;
#X msg 40 170 list 562 0 100 36 48.75 61.5 note 0 0 0;
#X obj 60 130 sel 229;
#X msg 60 190 list 562 0 90 48 70.75 88.5 note 0 0 0;
#X obj 80 150 sel 349;
#X msg 80 210 list 562 0 100 60 71.375 113.5 note 0 0 0;
#X obj 100 170 sel 431;
#X msg 100 230 list 562 0 100 36 48.875 58.5 note 0 0 0;
#X obj 120 190 sel 469;
#X msg 120 250 list 562 0 100 48 71 100 note 0 0 0;
#X obj 140 210 sel 589;
#X msg 140 270 list 562 0 100 60 71 110 note 0 0 0;
#X obj 160 230 sel 671;
#X msg 160 290 list 562 0 100 36 49.25 60 note 0 0 0;
#X obj 180 250 sel 709;
#X msg 180 310 list 562 0 90 48 71 93 note 0 0 0;
#X obj 200 270 sel 828;
#X msg 200 330 list 562 0 100 60 71.5 110 note 0 0 0;
#X obj 220 290 sel 911;
#X msg 220 350 list 562 0 100 36 49.25 57 note 0 0 0;
#X connect 0 0 2 0;
#X connect 0 0 4 0;
#X connect 0 0 6 0;
#X connect 0 0 8 0;
#X connect 0 0 10 0;
#X connect 0 0 12 0;
#X connect 0 0 14 0;
#X connect 0 0 16 0;
#X connect 0 0 18 0;
#X connect 0 0 20 0;
#X connect 0 0 22 0;
#X connect 0 0 24 0;
#X connect 2 0 3 0;
#X connect 3 0 1 0;
#X connect 4 0 5 0;
#X connect 5 0 1 0;
#X connect 6 0 7 0;
#X connect 7 0 1 0;
#X connect 8 0 9 0;
#X connect 9 0 1 0;
#X connect 10 0 11 0;
#X connect 11 0 1 0;
#X connect 12 0 13 0;
#X connect 13 0 1 0;
#X connect 14 0 15 0;
#X connect 15 0 1 0;
#X connect 16 0 17 0;
#X connect 17 0 1 0;
#X connect 18 0 19 0;
#X connect 19 0 1 0;
#X connect 20 0 21 0;
#X connect 21 0 1 0;
#X connect 22 0 23 0;
#X connect 23 0 1 0;
#X connect 24 0 25 0;
#X connect 25 0 1 0;
#X restore 446 400 pd \$1-sequence;
#N canvas 0 25 368 437 \$1-mash 0;
#X obj 48 260 seq-mash 109.75 48 58 0 0 0 0 1;
#X restore 446 421 pd \$1-mash;
#X obj 449 485 route 562;
#X obj 449 463 r 1-from-sequence;
#X obj 101 101 cnv 15 83 60 empty empty ride 10 12 0 14 -204786 -66577
0;
#X obj 157 111 vsl 15 128 0 127 0 0 empty empty empty 0 -9 0 10 -262144
-1 -1 10000 1;
#X obj 157 248 / 127;
#N canvas 0 22 452 365 notes 0;
#X obj 35 27 r outseq;
#X obj 35 46 list trim;
#X obj 35 66 route ride hithat snare2;
#X obj 35 108 route note;
#X obj 163 108 route note;
#X obj 293 108 route note;
#X obj 35 197 outlet;
#X obj 163 197 outlet;
#X obj 293 197 outlet;
#X connect 0 0 1 0;
#X connect 1 0 2 0;
#X connect 2 0 3 0;
#X connect 2 1 4 0;
#X connect 2 2 5 0;
#X connect 3 0 6 0;
#X connect 4 0 7 0;
#X connect 5 0 8 0;
#X restore 312 78 pd notes;
#N canvas 510 238 549 458 ride 0;
#X obj 25 20 inlet;
#X obj 26 207 tabplay~ ride;
#X obj 25 61 unpack f f f f f f;
#X obj 26 187 t b f;
#X obj 25 113 pack f f f;
#X obj 25 90 poly 4 1;
#X obj 26 244 *~;
#X obj 55 228 / 127;
#X obj 143 212 tabplay~ ride;
#X obj 143 192 t b f;
#X obj 143 249 *~;
#X obj 172 233 / 127;
#X obj 267 232 tabplay~ ride;
#X obj 267 212 t b f;
#X obj 267 269 *~;
#X obj 296 253 / 127;
#X obj 367 232 tabplay~ ride;
#X obj 367 212 t b f;
#X obj 367 269 *~;
#X obj 396 253 / 127;
#X obj 25 139 route 1 2 3 4;
#X obj 218 416 outlet~;
#X obj 218 396 *~ 2;
#X connect 0 0 2 0;
#X connect 1 0 6 0;
#X connect 2 0 5 0;
#X connect 2 1 5 1;
#X connect 3 0 1 0;
#X connect 3 1 7 0;
#X connect 4 0 20 0;
#X connect 5 0 4 0;
#X connect 5 1 4 1;
#X connect 5 2 4 2;
#X connect 6 0 22 0;
#X connect 7 0 6 1;
#X connect 8 0 10 0;
#X connect 9 0 8 0;
#X connect 9 1 11 0;
#X connect 10 0 22 0;
#X connect 11 0 10 1;
#X connect 12 0 14 0;
#X connect 13 0 12 0;
#X connect 13 1 15 0;
#X connect 14 0 22 0;
#X connect 15 0 14 1;
#X connect 16 0 18 0;
#X connect 17 0 16 0;
#X connect 17 1 19 0;
#X connect 18 0 22 0;
#X connect 19 0 18 1;
#X connect 20 0 3 0;
#X connect 20 1 9 0;
#X connect 20 2 13 0;
#X connect 20 3 17 0;
#X connect 22 0 21 0;
#X restore 312 138 pd ride;
#X obj 313 286 dac~;
#X obj 313 265 *~;
#X obj 360 513 r reset;
#X obj 15 29 loadbang;
#X obj 81 359 1;
#X obj 192 342 4;
#X obj 157 46 100;
#X connect 0 0 5 0;
#X connect 1 0 4 0;
#X connect 1 0 25 0;
#X connect 2 0 3 0;
#X connect 3 0 1 1;
#X connect 3 0 9 1;
#X connect 4 0 24 0;
#X connect 5 0 9 0;
#X connect 6 0 23 0;
#X connect 7 0 2 0;
#X connect 8 0 7 0;
#X connect 8 1 2 1;
#X connect 9 0 1 0;
#X connect 10 0 8 0;
#X connect 11 0 7 0;
#X connect 12 0 4 1;
#X connect 13 0 14 0;
#X connect 14 0 17 0;
#X connect 15 0 16 0;
#X connect 16 0 17 0;
#X connect 17 0 18 0;
#X connect 17 1 19 0;
#X connect 18 0 19 0;
#X connect 19 0 13 1;
#X connect 19 0 15 1;
#X connect 19 0 12 0;
#X connect 20 0 13 0;
#X connect 20 1 21 0;
#X connect 21 0 15 0;
#X connect 23 0 22 0;
#X connect 26 0 20 0;
#X connect 29 0 6 0;
#X connect 30 0 29 0;
#X connect 32 0 33 0;
#X connect 33 0 37 1;
#X connect 34 0 35 0;
#X connect 35 0 37 0;
#X connect 37 0 36 0;
#X connect 37 0 36 1;
#X connect 38 0 18 0;
#X connect 39 0 40 0;
#X connect 39 0 41 0;
#X connect 39 0 42 0;
#X connect 40 0 11 0;
#X connect 41 0 10 0;
#X connect 42 0 32 0;
#X coords 0 -1 1 1 85 150 1 100 100;
#X restore 14 72 pd track 1;
#X obj 14 38 bng 30 250 50 0 play toplay Play 4 -6 0 10 -204786 -1
-1;
#X obj 74 38 bng 30 250 50 0 stop tostop Stop 4 -6 0 10 -262144 -1
-1;
#X obj 44 38 tgl 30 0 pause to-pause Pause 1 -6 0 10 -262130 -1 -1
0 1;
#N canvas 5 49 719 665 track 0;
#X obj 78 377 r timecode;
#X obj 78 575 mod;
#X obj 117 506 *;
#X obj 117 527 * 240;
#X obj 78 645 spigot 1;
#N canvas 0 22 701 794 notes 0;
#X obj 137 161 route 100;
#X obj 188 399 unpack f f f s f f f;
#X obj 358 516 r tempo;
#X obj 173 449 f;
#X obj 242 289 moses;
#X obj 285 264 t b f;
#X obj 285 289 random 100;
#X obj 312 193 unpack f f f f s f f f;
#X obj 269 335 f;
#X obj 269 312 b;
#X obj 285 177 t b a;
#X obj 285 209 f;
#X obj 67 86 sel 0;
#X text 329 179 prob != 100;
#X text 99 186 prob = 100;
#X obj 269 361 pack f f f s f f f;
#X obj 118 69 unpack f f f f f s f f f;
#X obj 137 135 pack f f f f s f f f;
#X obj 67 118 f;
#X obj 118 11 inlet;
#X obj 88 716 outlet;
#X obj 343 600 expr $f2*60000/(240*$f1);
#X obj 57 487 symbol note;
#X obj 137 377 t b b b a;
#X obj 94 39 r \$1-sel-gprob;
#X obj 200 519 +;
#X obj 173 494 +;
#X obj 343 576 f;
#X obj 215 499 r \$1-from_velshift;
#X obj 188 474 r \$1-from_pitchshift;
#X obj 183 543 moses 0;
#X obj 222 565 moses 127;
#X obj 183 564 b;
#X obj 183 585 0;
#X obj 273 587 b;
#X obj 273 608 127;
#X obj 343 489 t b f;
#X obj 88 675 pack s s f f f f f f;
#X text 70 737 patch | note | pitch | velocite | duree ms | v1 | v2
| v3;
#X obj 553 578 r \$1-from-patch;
#X obj 520 599 symbol;
#X obj 555 669 +;
#X obj 570 649 r \$1-from_pitchshift;
#X obj 520 508 r \$1-from-midi-lpk;
#X obj 520 529 t b b l;
#X obj 559 552 unpack f f;
#X obj 520 700 pack s s f f f f f;
#X obj 537 623 symbol midi-note;
#X obj 358 545 route float bang;
#X obj 285 245 -;
#X msg 285 227 100 \$1;
#X obj 37 464 symbol hithat;
#X connect 0 0 23 0;
#X connect 0 1 10 0;
#X connect 1 0 3 1;
#X connect 1 1 36 0;
#X connect 1 2 25 0;
#X connect 1 4 37 5;
#X connect 1 5 37 6;
#X connect 1 6 37 7;
#X connect 2 0 48 0;
#X connect 3 0 26 0;
#X connect 4 1 9 0;
#X connect 5 0 6 0;
#X connect 5 1 4 1;
#X connect 6 0 4 0;
#X connect 7 0 11 1;
#X connect 7 1 8 1;
#X connect 7 2 15 1;
#X connect 7 3 15 2;
#X connect 7 4 15 3;
#X connect 7 5 15 4;
#X connect 7 6 15 5;
#X connect 7 7 15 6;
#X connect 8 0 15 0;
#X connect 9 0 8 0;
#X connect 10 0 11 0;
#X connect 10 1 7 0;
#X connect 11 0 50 0;
#X connect 12 0 18 0;
#X connect 15 0 23 0;
#X connect 16 0 12 0;
#X connect 16 1 18 1;
#X connect 16 2 17 1;
#X connect 16 3 17 2;
#X connect 16 4 17 3;
#X connect 16 5 17 4;
#X connect 16 6 17 5;
#X connect 16 7 17 6;
#X connect 16 8 17 7;
#X connect 17 0 0 0;
#X connect 18 0 17 0;
#X connect 19 0 16 0;
#X connect 21 0 37 4;
#X connect 22 0 37 1;
#X connect 23 0 51 0;
#X connect 23 1 22 0;
#X connect 23 2 3 0;
#X connect 23 3 1 0;
#X connect 24 0 12 1;
#X connect 25 0 30 0;
#X connect 26 0 37 2;
#X connect 27 0 21 0;
#X connect 28 0 25 1;
#X connect 29 0 26 1;
#X connect 30 0 32 0;
#X connect 30 1 31 0;
#X connect 31 0 37 3;
#X connect 31 1 34 0;
#X connect 32 0 33 0;
#X connect 33 0 37 3;
#X connect 34 0 35 0;
#X connect 35 0 37 3;
#X connect 36 0 27 0;
#X connect 36 1 21 1;
#X connect 37 0 20 0;
#X connect 39 0 40 1;
#X connect 40 0 46 0;
#X connect 41 0 46 2;
#X connect 42 0 41 1;
#X connect 43 0 44 0;
#X connect 44 0 40 0;
#X connect 44 1 47 0;
#X connect 44 2 45 0;
#X connect 45 0 41 0;
#X connect 45 1 46 3;
#X connect 46 0 20 0;
#X connect 47 0 46 1;
#X connect 48 0 27 1;
#X connect 49 0 5 0;
#X connect 50 0 49 0;
#X connect 51 0 37 0;
#X restore 437 489 pd notes;
#X obj 117 469 f;
#X obj 228 452 t b f;
#X obj 78 543 + 0;
#X obj 228 427 route float;
#X obj 117 443 route float;
#X obj 299 629 == 0;
#X obj 299 530 f;
#X obj 299 550 - 1;
#X obj 328 530 f;
#X obj 328 550 + 1;
#X obj 299 570 moses 0;
#X msg 299 589 0;
#X obj 299 607 f;
#X obj 299 491 sel 0;
#X obj 328 512 b;
#X obj 437 555 s outseq;
#X obj 437 535 spigot 1;
#X obj 553 519 != 1;
#X obj 553 487 r from-mix-mute\$1;
#X obj 78 522 + 15;
#X obj 59 690 s 2-to-sequence-masher;
#X obj 78 670 s 2-to-sequence;
#X obj 299 472 r 2-cut-tc;
#N canvas 523 25 715 773 \$1-sequence 0;
#X obj 100 50 r 2-to-sequence;
#X obj 100 500 s 2-from-sequence;
#X obj 0 70 sel 120;
#X msg 0 130 list 562 0 100 72 60 100 note 45 0 0;
#X obj 20 90 sel 240;
#X msg 20 150 list 562 0 20 48 60 64 note 0 0 0;
#X obj 40 110 sel 360;
#X msg 40 170 list 562 0 100 72 60 100 note 30 0 0;
#X obj 60 130 sel 600;
#X msg 60 190 list 562 0 100 72 60 100 note 30 0 0;
#X obj 80 150 sel 720;
#X msg 80 210 list 562 0 10 48 60 65 note 0 0 0;
#X obj 100 170 sel 840;
#X msg 100 230 list 562 0 100 72 60 100 note 45 30 0;
#X connect 0 0 2 0;
#X connect 0 0 4 0;
#X connect 0 0 6 0;
#X connect 0 0 8 0;
#X connect 0 0 10 0;
#X connect 0 0 12 0;
#X connect 2 0 3 0;
#X connect 3 0 1 0;
#X connect 4 0 5 0;
#X connect 5 0 1 0;
#X connect 6 0 7 0;
#X connect 7 0 1 0;
#X connect 8 0 9 0;
#X connect 9 0 1 0;
#X connect 10 0 11 0;
#X connect 11 0 1 0;
#X connect 12 0 13 0;
#X connect 13 0 1 0;
#X restore 447 364 pd \$1-sequence;
#N canvas 0 25 368 437 \$1-mash 0;
#X obj 144 270 seq-mash 360 48 57 0 0 0 100 2;
#X obj 144 280 seq-mash 360 48 56 0 40 0 100 2;
#X restore 447 385 pd \$1-mash;
#X obj 437 466 route 562;
#X obj 437 444 r 2-from-sequence;
#X obj 101 101 cnv 15 83 60 empty empty hithat 10 12 0 14 -262130 -66577
0;
#X obj 160 113 vsl 15 128 0 127 0 0 empty empty empty 0 -9 0 10 -262144
-1 -1 10000 1;
#X obj 160 250 / 127;
#N canvas 0 22 452 365 notes 0;
#X obj 35 27 r outseq;
#X obj 35 46 list trim;
#X obj 35 66 route ride hithat snare2;
#X obj 35 108 route note;
#X obj 163 108 route note;
#X obj 293 108 route note;
#X obj 35 197 outlet;
#X obj 163 197 outlet;
#X obj 293 197 outlet;
#X connect 0 0 1 0;
#X connect 1 0 2 0;
#X connect 2 0 3 0;
#X connect 2 1 4 0;
#X connect 2 2 5 0;
#X connect 3 0 6 0;
#X connect 4 0 7 0;
#X connect 5 0 8 0;
#X restore 302 74 pd notes;
#N canvas 0 22 450 300 hithat 0;
#X obj 32 27 inlet;
#X obj 40 105 tabplay~ hithat1;
#X obj 150 105 tabplay~ hithat2;
#X obj 104 241 outlet~;
#X obj 32 52 unpack f f f f f f;
#X obj 95 72 sel 45 30 0;
#X obj 149 154 *~ 0.5;
#X obj 105 207 *~ 0.7;
#X connect 0 0 4 0;
#X connect 1 0 7 0;
#X connect 2 0 6 0;
#X connect 4 3 5 0;
#X connect 5 0 1 0;
#X connect 5 1 1 0;
#X connect 5 2 2 0;
#X connect 6 0 7 0;
#X connect 7 0 3 0;
#X restore 324 144 pd hithat;
#X obj 325 289 dac~;
#X obj 324 267 *~;
#X obj 372 572 r reset;
#X obj 15 31 loadbang;
#X obj 160 48 100;
#X obj 117 418 1;
#X obj 228 401 4;
#X connect 0 0 25 0;
#X connect 1 0 4 0;
#X connect 1 0 26 0;
#X connect 2 0 3 0;
#X connect 3 0 1 1;
#X connect 3 0 8 1;
#X connect 4 0 27 0;
#X connect 5 0 22 0;
#X connect 6 0 2 0;
#X connect 7 0 6 0;
#X connect 7 1 2 1;
#X connect 8 0 1 0;
#X connect 9 0 7 0;
#X connect 10 0 6 0;
#X connect 11 0 4 1;
#X connect 12 0 13 0;
#X connect 13 0 16 0;
#X connect 14 0 15 0;
#X connect 15 0 16 0;
#X connect 16 0 17 0;
#X connect 16 1 18 0;
#X connect 17 0 18 0;
#X connect 18 0 12 1;
#X connect 18 0 14 1;
#X connect 18 0 11 0;
#X connect 19 0 12 0;
#X connect 19 1 20 0;
#X connect 20 0 14 0;
#X connect 22 0 21 0;
#X connect 23 0 22 1;
#X connect 24 0 23 0;
#X connect 25 0 8 0;
#X connect 28 0 19 0;
#X connect 31 0 5 0;
#X connect 32 0 31 0;
#X connect 34 0 35 0;
#X connect 35 0 39 1;
#X connect 36 1 37 0;
#X connect 37 0 39 0;
#X connect 39 0 38 0;
#X connect 39 0 38 1;
#X connect 40 0 17 0;
#X connect 41 0 42 0;
#X connect 41 0 44 0;
#X connect 41 0 43 0;
#X connect 42 0 34 0;
#X connect 43 0 10 0;
#X connect 44 0 9 0;
#X coords 0 -1 1 1 85 150 1 100 100;
#X restore 101 72 pd track 2;
#N canvas 5 49 719 665 track 0;
#X obj 66 337 r timecode;
#X obj 66 535 mod;
#X obj 105 466 *;
#X obj 105 487 * 240;
#X obj 66 605 spigot 1;
#N canvas 0 22 701 794 notes 0;
#X obj 137 161 route 100;
#X obj 188 399 unpack f f f s f f f;
#X obj 358 516 r tempo;
#X obj 173 449 f;
#X obj 242 289 moses;
#X obj 285 264 t b f;
#X obj 285 289 random 100;
#X obj 312 193 unpack f f f f s f f f;
#X obj 269 335 f;
#X obj 269 312 b;
#X obj 285 177 t b a;
#X obj 285 209 f;
#X obj 67 86 sel 0;
#X text 329 179 prob != 100;
#X text 99 186 prob = 100;
#X obj 269 361 pack f f f s f f f;
#X obj 118 69 unpack f f f f f s f f f;
#X obj 137 135 pack f f f f s f f f;
#X obj 67 118 f;
#X obj 118 11 inlet;
#X obj 88 716 outlet;
#X obj 343 600 expr $f2*60000/(240*$f1);
#X obj 57 487 symbol note;
#X obj 137 377 t b b b a;
#X obj 94 39 r \$1-sel-gprob;
#X obj 200 519 +;
#X obj 173 494 +;
#X obj 343 576 f;
#X obj 215 499 r \$1-from_velshift;
#X obj 188 474 r \$1-from_pitchshift;
#X obj 183 543 moses 0;
#X obj 222 565 moses 127;
#X obj 183 564 b;
#X obj 183 585 0;
#X obj 273 587 b;
#X obj 273 608 127;
#X obj 343 489 t b f;
#X obj 88 675 pack s s f f f f f f;
#X text 70 737 patch | note | pitch | velocite | duree ms | v1 | v2
| v3;
#X obj 358 545 route float bang;
#X obj 285 245 -;
#X msg 285 227 100 \$1;
#X obj 37 464 symbol snare2;
#X connect 0 0 23 0;
#X connect 0 1 10 0;
#X connect 1 0 3 1;
#X connect 1 1 36 0;
#X connect 1 2 25 0;
#X connect 1 4 37 5;
#X connect 1 5 37 6;
#X connect 1 6 37 7;
#X connect 2 0 39 0;
#X connect 3 0 26 0;
#X connect 4 1 9 0;
#X connect 5 0 6 0;
#X connect 5 1 4 1;
#X connect 6 0 4 0;
#X connect 7 0 11 1;
#X connect 7 1 8 1;
#X connect 7 2 15 1;
#X connect 7 3 15 2;
#X connect 7 4 15 3;
#X connect 7 5 15 4;
#X connect 7 6 15 5;
#X connect 7 7 15 6;
#X connect 8 0 15 0;
#X connect 9 0 8 0;
#X connect 10 0 11 0;
#X connect 10 1 7 0;
#X connect 11 0 41 0;
#X connect 12 0 18 0;
#X connect 15 0 23 0;
#X connect 16 0 12 0;
#X connect 16 1 18 1;
#X connect 16 2 17 1;
#X connect 16 3 17 2;
#X connect 16 4 17 3;
#X connect 16 5 17 4;
#X connect 16 6 17 5;
#X connect 16 7 17 6;
#X connect 16 8 17 7;
#X connect 17 0 0 0;
#X connect 18 0 17 0;
#X connect 19 0 16 0;
#X connect 21 0 37 4;
#X connect 22 0 37 1;
#X connect 23 0 42 0;
#X connect 23 1 22 0;
#X connect 23 2 3 0;
#X connect 23 3 1 0;
#X connect 24 0 12 1;
#X connect 25 0 30 0;
#X connect 26 0 37 2;
#X connect 27 0 21 0;
#X connect 28 0 25 1;
#X connect 29 0 26 1;
#X connect 30 0 32 0;
#X connect 30 1 31 0;
#X connect 31 0 37 3;
#X connect 31 1 34 0;
#X connect 32 0 33 0;
#X connect 33 0 37 3;
#X connect 34 0 35 0;
#X connect 35 0 37 3;
#X connect 36 0 27 0;
#X connect 36 1 21 1;
#X connect 37 0 20 0;
#X connect 39 0 27 1;
#X connect 40 0 5 0;
#X connect 41 0 40 0;
#X connect 42 0 37 0;
#X restore 476 444 pd notes;
#X obj 105 429 f;
#X obj 216 412 t b f;
#X obj 66 503 + 0;
#X obj 216 387 route float;
#X obj 105 403 route float;
#X obj 287 589 == 0;
#X obj 287 490 f;
#X obj 287 510 - 1;
#X obj 316 490 f;
#X obj 316 510 + 1;
#X obj 287 530 moses 0;
#X msg 287 549 0;
#X obj 287 567 f;
#X obj 287 451 sel 0;
#X obj 316 472 b;
#X obj 476 510 s outseq;
#X obj 476 490 spigot 1;
#X obj 582 474 != 1;
#X obj 582 442 r from-mix-mute\$1;
#X obj 66 482 + 0;
#X obj 66 630 s 3-to-sequence;
#X obj 47 650 s 3-to-sequence-masher;
#X obj 287 432 r 3-cut-tc;
#N canvas 523 25 715 773 \$1-sequence 0;
#X obj 100 50 r 3-to-sequence;
#X obj 100 500 s 3-from-sequence;
#X obj 0 70 sel 954;
#X msg 0 130 list 562 0 100 68 35.375 112 note 0 0 0;
#X obj 20 90 sel 65;
#X msg 20 150 list 562 0 100 68 24.5 110.5 note 0 0 0;
#X obj 40 110 sel 305;
#X msg 40 170 list 562 0 100 62 55.125 112 note 0 0 0;
#X obj 60 130 sel 356;
#X msg 60 190 list 562 0 100 51 63.5 100 note 0 0 0;
#X obj 80 150 sel 425;
#X msg 80 210 list 562 0 100 51 54.875 100 note 0 0 0;
#X obj 100 170 sel 544;
#X msg 100 230 list 562 0 100 68 56.125 108.5 note 0 0 0;
#X obj 120 190 sel 665;
#X msg 120 250 list 562 0 100 68 55.125 100 note 0 0 0;
#X obj 140 210 sel 712;
#X msg 140 270 list 562 0 100 51 68.25 112.5 note 0 0 0;
#X obj 160 230 sel 1058;
#X msg 160 290 list 562 0 100 68 52.25 108.5 note 0 0 0;
#X obj 180 250 sel 1189;
#X msg 180 310 list 562 0 100 51 70.75 113.5 note 0 0 0;
#X obj 200 270 sel 1391;
#X msg 200 330 list 562 0 100 68 48.875 100 note 0 0 0;
#X obj 220 290 sel 1429;
#X msg 220 350 list 562 0 100 55 51 105 note 0 0 0;
#X obj 240 310 sel 1508;
#X msg 240 370 list 562 0 100 55 32.375 103.5 note 0 0 0;
#X obj 260 330 sel 1669;
#X msg 260 390 list 562 0 100 51 71 116 note 0 0 0;
#X obj 280 350 sel 1747;
#X msg 280 410 list 562 0 100 51 52.5 94 note 0 0 0;
#X obj 300 370 sel 1788;
#X msg 300 430 list 562 0 100 51 71.5 94 note 0 0 0;
#X obj 320 390 sel 1871;
#X msg 320 450 list 562 0 100 51 49.25 115.5 note 0 0 0;
#X obj 340 410 sel 1911;
#X msg 340 470 list 562 0 100 55 68.75 112.5 note 0 0 0;
#X obj 360 430 sel 1988;
#X msg 360 490 list 562 0 100 55 52.25 100 note 0 0 0;
#X obj 380 450 sel 2030;
#X msg 380 510 list 562 0 100 55 70.25 100 note 0 0 0;
#X obj 400 470 sel 2111;
#X msg 400 530 list 562 0 100 55 48.75 119.5 note 0 0 0;
#X obj 420 490 sel 2152;
#X msg 420 550 list 562 0 100 62 70.75 118.5 note 0 0 0;
#X obj 440 510 sel 2230;
#X msg 440 570 list 562 0 100 62 52.125 101.5 note 0 0 0;
#X obj 460 530 sel 2271;
#X msg 460 590 list 562 0 100 62 71.375 100 note 0 0 0;
#X obj 480 550 sel 2354;
#X msg 480 610 list 562 0 100 62 48.875 118.5 note 0 0 0;
#X connect 0 0 2 0;
#X connect 0 0 4 0;
#X connect 0 0 6 0;
#X connect 0 0 8 0;
#X connect 0 0 10 0;
#X connect 0 0 12 0;
#X connect 0 0 14 0;
#X connect 0 0 16 0;
#X connect 0 0 18 0;
#X connect 0 0 20 0;
#X connect 0 0 22 0;
#X connect 0 0 24 0;
#X connect 0 0 26 0;
#X connect 0 0 28 0;
#X connect 0 0 30 0;
#X connect 0 0 32 0;
#X connect 0 0 34 0;
#X connect 0 0 36 0;
#X connect 0 0 38 0;
#X connect 0 0 40 0;
#X connect 0 0 42 0;
#X connect 0 0 44 0;
#X connect 0 0 46 0;
#X connect 0 0 48 0;
#X connect 0 0 50 0;
#X connect 2 0 3 0;
#X connect 3 0 1 0;
#X connect 4 0 5 0;
#X connect 5 0 1 0;
#X connect 6 0 7 0;
#X connect 7 0 1 0;
#X connect 8 0 9 0;
#X connect 9 0 1 0;
#X connect 10 0 11 0;
#X connect 11 0 1 0;
#X connect 12 0 13 0;
#X connect 13 0 1 0;
#X connect 14 0 15 0;
#X connect 15 0 1 0;
#X connect 16 0 17 0;
#X connect 17 0 1 0;
#X connect 18 0 19 0;
#X connect 19 0 1 0;
#X connect 20 0 21 0;
#X connect 21 0 1 0;
#X connect 22 0 23 0;
#X connect 23 0 1 0;
#X connect 24 0 25 0;
#X connect 25 0 1 0;
#X connect 26 0 27 0;
#X connect 27 0 1 0;
#X connect 28 0 29 0;
#X connect 29 0 1 0;
#X connect 30 0 31 0;
#X connect 31 0 1 0;
#X connect 32 0 33 0;
#X connect 33 0 1 0;
#X connect 34 0 35 0;
#X connect 35 0 1 0;
#X connect 36 0 37 0;
#X connect 37 0 1 0;
#X connect 38 0 39 0;
#X connect 39 0 1 0;
#X connect 40 0 41 0;
#X connect 41 0 1 0;
#X connect 42 0 43 0;
#X connect 43 0 1 0;
#X connect 44 0 45 0;
#X connect 45 0 1 0;
#X connect 46 0 47 0;
#X connect 47 0 1 0;
#X connect 48 0 49 0;
#X connect 49 0 1 0;
#X connect 50 0 51 0;
#X connect 51 0 1 0;
#X restore 478 302 pd \$1-sequence;
#N canvas 0 25 368 437 \$1-mash 0;
#X obj 0 130 seq-mash 953.625 48 71 0 0 0 0 3;
#X obj 0 360 seq-mash 953.625 0 48 0 0 0 0 3;
#X obj 0 350 seq-mash 953.625 0 49 0 0 0 0 3;
#X obj 96 360 seq-mash 233.375 192 48 0 0 0 0 3;
#X obj 96 120 seq-mash 233.375 96 72 0 0 0 0 3;
#X obj 120 230 seq-mash 304.875 16 61 0 0 0 0 3;
#X obj 140 150 seq-mash 354.875 48 69 0 0 0 0 3;
#X obj 288 160 seq-mash 711.75 32 68 0 0 0 0 3;
#X obj 288 140 seq-mash 711.75 48 70 0 60 0 0 3;
#X obj 384 190 seq-mash 951.25 24 65 0 0 0 0 3;
#X obj 384 240 seq-mash 951.25 16 60 0 0 0 0 3;
#X obj 384 180 seq-mash 951.25 192 66 0 0 0 0 3;
#X obj 456 170 seq-mash 1151.25 48 67 0 0 0 0 3;
#X obj 480 210 seq-mash 1189.25 16 63 0 0 0 0 3;
#X obj 576 220 seq-mash 1429 16 62 0 0 0 0 3;
#X obj 576 200 seq-mash 1429 48 64 0 0 0 0 3;
#X obj 638 250 seq-mash 1584 24 59 0 0 0 0 3;
#X obj 672 350 seq-mash 1669 48 49 0 0 0 0 3;
#X obj 710 340 seq-mash 1784.5 48 50 0 16 0 0 3;
#X obj 768 330 seq-mash 1911.25 48 51 0 0 0 0 3;
#X obj 806 320 seq-mash 2024.75 48 52 0 16 0 0 3;
#X obj 865 310 seq-mash 2151.75 48 53 0 0 0 0 3;
#X obj 903 300 seq-mash 2267.38 48 54 0 16 0 0 3;
#X restore 478 323 pd \$1-mash;
#X obj 476 421 route 562;
#X obj 476 399 r 3-from-sequence;
#X obj 101 101 cnv 15 83 60 empty empty drum 10 12 0 14 -203904 -66577
0;
#X obj 159 110 vsl 15 128 0 127 0 0 empty empty empty 0 -9 0 10 -262144
-1 -1 8000 1;
#X obj 159 247 / 127;
#N canvas 0 22 452 365 notes 0;
#X obj 35 27 r outseq;
#X obj 35 46 list trim;
#X obj 35 66 route ride hithat snare2;
#X obj 35 108 route note;
#X obj 163 108 route note;
#X obj 293 108 route note;
#X obj 35 197 outlet;
#X obj 163 197 outlet;
#X obj 293 197 outlet;
#X connect 0 0 1 0;
#X connect 1 0 2 0;
#X connect 2 0 3 0;
#X connect 2 1 4 0;
#X connect 2 2 5 0;
#X connect 3 0 6 0;
#X connect 4 0 7 0;
#X connect 5 0 8 0;
#X restore 313 116 pd notes;
#N canvas 0 22 618 340 drums 0;
#X obj 32 27 inlet;
#X obj 32 63 route 51 55 62 68;
#N canvas 0 22 461 437 snare 0;
#X obj 40 40 inlet;
#X obj 67 293 / 127;
#X obj 39 309 *~;
#X obj 40 271 tabplay~ snare1;
#X obj 40 164 route 1 2 3;
#X obj 109 77 random 3;
#X obj 109 99 + 1;
#X obj 40 120 list prepend;
#X obj 40 141 list trim;
#X obj 40 61 t l b;
#X obj 40 224 unpack f f f f f;
#X obj 40 248 t b f;
#X obj 177 293 / 127;
#X obj 149 309 *~;
#X obj 150 224 unpack f f f f f;
#X obj 150 248 t b f;
#X obj 287 293 / 127;
#X obj 259 309 *~;
#X obj 260 224 unpack f f f f f;
#X obj 260 248 t b f;
#X obj 260 271 tabplay~ snare3;
#X obj 150 271 tabplay~ snare2;
#X obj 39 352 outlet~;
#X connect 0 0 9 0;
#X connect 1 0 2 1;
#X connect 2 0 22 0;
#X connect 3 0 2 0;
#X connect 4 0 10 0;
#X connect 4 1 14 0;
#X connect 4 2 18 0;
#X connect 5 0 6 0;
#X connect 6 0 7 1;
#X connect 7 0 8 0;
#X connect 8 0 4 0;
#X connect 9 0 7 0;
#X connect 9 1 5 0;
#X connect 10 0 11 0;
#X connect 11 0 3 0;
#X connect 11 1 1 0;
#X connect 12 0 13 1;
#X connect 13 0 22 0;
#X connect 14 0 15 0;
#X connect 15 0 21 0;
#X connect 15 1 12 0;
#X connect 16 0 17 1;
#X connect 17 0 22 0;
#X connect 18 0 19 0;
#X connect 19 0 20 0;
#X connect 19 1 16 0;
#X connect 20 0 17 0;
#X connect 21 0 13 0;
#X restore 32 160 pd snare;
#N canvas 0 22 461 437 tom 0;
#X obj 40 40 inlet;
#X obj 67 293 / 127;
#X obj 39 309 *~;
#X obj 40 164 route 1 2 3;
#X obj 109 77 random 3;
#X obj 109 99 + 1;
#X obj 40 120 list prepend;
#X obj 40 141 list trim;
#X obj 40 61 t l b;
#X obj 40 224 unpack f f f f f;
#X obj 40 248 t b f;
#X obj 177 293 / 127;
#X obj 149 309 *~;
#X obj 150 224 unpack f f f f f;
#X obj 150 248 t b f;
#X obj 287 293 / 127;
#X obj 259 309 *~;
#X obj 260 224 unpack f f f f f;
#X obj 260 248 t b f;
#X obj 39 352 outlet~;
#X obj 40 271 tabplay~ tom_a-1;
#X obj 150 271 tabplay~ tom_a-2;
#X obj 260 272 tabplay~ tom_a-3;
#X connect 0 0 8 0;
#X connect 1 0 2 1;
#X connect 2 0 19 0;
#X connect 3 0 9 0;
#X connect 3 1 13 0;
#X connect 3 2 17 0;
#X connect 4 0 5 0;
#X connect 5 0 6 1;
#X connect 6 0 7 0;
#X connect 7 0 3 0;
#X connect 8 0 6 0;
#X connect 8 1 4 0;
#X connect 9 0 10 0;
#X connect 10 0 20 0;
#X connect 10 1 1 0;
#X connect 11 0 12 1;
#X connect 12 0 19 0;
#X connect 13 0 14 0;
#X connect 14 0 21 0;
#X connect 14 1 11 0;
#X connect 15 0 16 1;
#X connect 16 0 19 0;
#X connect 17 0 18 0;
#X connect 18 0 22 0;
#X connect 18 1 15 0;
#X connect 20 0 2 0;
#X connect 21 0 12 0;
#X connect 22 0 16 0;
#X restore 92 160 pd tom a;
#N canvas 0 22 461 437 tom 0;
#X obj 40 40 inlet;
#X obj 67 293 / 127;
#X obj 39 309 *~;
#X obj 40 164 route 1 2 3;
#X obj 109 77 random 3;
#X obj 109 99 + 1;
#X obj 40 120 list prepend;
#X obj 40 141 list trim;
#X obj 40 61 t l b;
#X obj 40 224 unpack f f f f f;
#X obj 40 248 t b f;
#X obj 177 293 / 127;
#X obj 149 309 *~;
#X obj 150 224 unpack f f f f f;
#X obj 150 248 t b f;
#X obj 287 293 / 127;
#X obj 259 309 *~;
#X obj 260 224 unpack f f f f f;
#X obj 260 248 t b f;
#X obj 39 352 outlet~;
#X obj 40 271 tabplay~ tom_b-1;
#X obj 150 271 tabplay~ tom_b-2;
#X obj 260 271 tabplay~ tom_b-3;
#X connect 0 0 8 0;
#X connect 1 0 2 1;
#X connect 2 0 19 0;
#X connect 3 0 9 0;
#X connect 3 1 13 0;
#X connect 3 2 17 0;
#X connect 4 0 5 0;
#X connect 5 0 6 1;
#X connect 6 0 7 0;
#X connect 7 0 3 0;
#X connect 8 0 6 0;
#X connect 8 1 4 0;
#X connect 9 0 10 0;
#X connect 10 0 20 0;
#X connect 10 1 1 0;
#X connect 11 0 12 1;
#X connect 12 0 19 0;
#X connect 13 0 14 0;
#X connect 14 0 21 0;
#X connect 14 1 11 0;
#X connect 15 0 16 1;
#X connect 16 0 19 0;
#X connect 17 0 18 0;
#X connect 18 0 22 0;
#X connect 18 1 15 0;
#X connect 20 0 2 0;
#X connect 21 0 12 0;
#X connect 22 0 16 0;
#X restore 152 160 pd tom b;
#N canvas 0 22 461 437 tom 0;
#X obj 40 40 inlet;
#X obj 67 293 / 127;
#X obj 39 309 *~;
#X obj 40 164 route 1 2 3;
#X obj 109 99 + 1;
#X obj 40 120 list prepend;
#X obj 40 141 list trim;
#X obj 40 61 t l b;
#X obj 40 224 unpack f f f f f;
#X obj 40 248 t b f;
#X obj 177 293 / 127;
#X obj 149 309 *~;
#X obj 150 224 unpack f f f f f;
#X obj 150 248 t b f;
#X obj 287 293 / 127;
#X obj 259 309 *~;
#X obj 260 224 unpack f f f f f;
#X obj 260 248 t b f;
#X obj 39 352 outlet~;
#X obj 40 271 tabplay~ tom_c-1;
#X obj 150 271 tabplay~ tom_c-2;
#X obj 260 271 tabplay~ tom_c-3;
#X obj 109 77 random 2;
#X connect 0 0 7 0;
#X connect 1 0 2 1;
#X connect 2 0 18 0;
#X connect 3 0 8 0;
#X connect 3 1 12 0;
#X connect 3 2 16 0;
#X connect 4 0 5 1;
#X connect 5 0 6 0;
#X connect 6 0 3 0;
#X connect 7 0 5 0;
#X connect 7 1 22 0;
#X connect 8 0 9 0;
#X connect 9 0 19 0;
#X connect 9 1 1 0;
#X connect 10 0 11 1;
#X connect 11 0 18 0;
#X connect 12 0 13 0;
#X connect 13 0 20 0;
#X connect 13 1 10 0;
#X connect 14 0 15 1;
#X connect 15 0 18 0;
#X connect 16 0 17 0;
#X connect 17 0 21 0;
#X connect 17 1 14 0;
#X connect 19 0 2 0;
#X connect 20 0 11 0;
#X connect 21 0 15 0;
#X connect 22 0 4 0;
#X restore 212 160 pd tom c;
#X obj 32 232 outlet~;
#X obj 32 212 *~ 0.5;
#X connect 0 0 1 0;
#X connect 1 0 2 0;
#X connect 1 1 3 0;
#X connect 1 2 4 0;
#X connect 1 3 5 0;
#X connect 2 0 7 0;
#X connect 3 0 7 0;
#X connect 4 0 7 0;
#X connect 5 0 7 0;
#X connect 7 0 6 0;
#X restore 358 186 pd drums;
#X obj 358 285 dac~;
#X obj 358 264 *~;
#X obj 382 532 r reset;
#X obj 15 28 loadbang;
#X obj 159 45 80;
#X obj 105 378 1;
#X obj 216 361 4;
#X connect 0 0 25 0;
#X connect 1 0 4 0;
#X connect 1 0 27 0;
#X connect 2 0 3 0;
#X connect 3 0 1 1;
#X connect 3 0 8 1;
#X connect 4 0 26 0;
#X connect 5 0 22 0;
#X connect 6 0 2 0;
#X connect 7 0 6 0;
#X connect 7 1 2 1;
#X connect 8 0 1 0;
#X connect 9 0 7 0;
#X connect 10 0 6 0;
#X connect 11 0 4 1;
#X connect 12 0 13 0;
#X connect 13 0 16 0;
#X connect 14 0 15 0;
#X connect 15 0 16 0;
#X connect 16 0 17 0;
#X connect 16 1 18 0;
#X connect 17 0 18 0;
#X connect 18 0 12 1;
#X connect 18 0 14 1;
#X connect 18 0 11 0;
#X connect 19 0 12 0;
#X connect 19 1 20 0;
#X connect 20 0 14 0;
#X connect 22 0 21 0;
#X connect 23 0 22 1;
#X connect 24 0 23 0;
#X connect 25 0 8 0;
#X connect 28 0 19 0;
#X connect 31 0 5 0;
#X connect 32 0 31 0;
#X connect 34 0 35 0;
#X connect 35 0 39 1;
#X connect 36 2 37 0;
#X connect 37 0 39 0;
#X connect 39 0 38 0;
#X connect 39 0 38 1;
#X connect 40 0 17 0;
#X connect 41 0 42 0;
#X connect 41 0 43 0;
#X connect 41 0 44 0;
#X connect 42 0 34 0;
#X connect 43 0 10 0;
#X connect 44 0 9 0;
#X coords 0 -1 1 1 85 150 1 100 100;
#X restore 188 72 pd track 3;
#N canvas 0 22 807 544 keyboard 0;
#X obj 137 7 keyname;
#X obj 137 49 symbol;
#X obj 137 28 t b f;
#X obj 332 157 route q s d f g h j k l m;
#X obj 591 157 route w x c v b n;
#X obj 361 328 list prepend;
#X obj 629 228 list prepend;
#X obj 657 208 list prepend;
#X obj 302 484 list trim;
#X obj 302 505 s to-seq-mash-trigger;
#X obj 390 288 list prepend 66;
#X obj 28 157 route a z e r t y u i o p;
#X obj 137 70 pack s f;
#X obj 137 100 list trim;
#X obj 405 268 list prepend 48;
#X obj 332 368 list prepend 70;
#X obj 585 288 list prepend 69;
#X obj 599 268 list prepend 49;
#X obj 614 248 list prepend 50;
#X obj 28 368 list prepend 64;
#X obj 42 348 list prepend 51;
#X obj 57 328 list prepend 52;
#X obj 160 188 list prepend 71;
#X obj 145 208 list prepend 54;
#X obj 130 228 list prepend 53;
#X obj 72 308 list prepend 63;
#X obj 86 288 list prepend 62;
#X obj 101 268 list prepend 61;
#X obj 116 248 list prepend 60;
#X obj 346 348 list prepend 68;
#X obj 420 248 list prepend 72;
#X obj 376 308 list prepend 65;
#X obj 673 188 list prepend 59;
#X obj 464 188 list prepend 58;
#X obj 449 208 list prepend 57;
#X obj 434 228 list prepend 56;
#X connect 0 0 2 0;
#X connect 0 1 1 1;
#X connect 1 0 12 0;
#X connect 2 0 1 0;
#X connect 2 1 12 1;
#X connect 3 0 15 0;
#X connect 3 1 29 0;
#X connect 3 2 5 0;
#X connect 3 3 31 0;
#X connect 3 4 10 0;
#X connect 3 5 14 0;
#X connect 3 6 30 0;
#X connect 3 7 35 0;
#X connect 3 8 34 0;
#X connect 3 9 33 0;
#X connect 4 0 16 0;
#X connect 4 1 17 0;
#X connect 4 2 18 0;
#X connect 4 3 6 0;
#X connect 4 4 7 0;
#X connect 4 5 32 0;
#X connect 5 0 8 0;
#X connect 6 0 8 0;
#X connect 7 0 8 0;
#X connect 8 0 9 0;
#X connect 10 0 8 0;
#X connect 11 0 19 0;
#X connect 11 1 20 0;
#X connect 11 2 21 0;
#X connect 11 3 25 0;
#X connect 11 4 26 0;
#X connect 11 5 27 0;
#X connect 11 6 28 0;
#X connect 11 7 24 0;
#X connect 11 8 23 0;
#X connect 11 9 22 0;
#X connect 12 0 13 0;
#X connect 13 0 3 0;
#X connect 13 0 4 0;
#X connect 13 0 11 0;
#X connect 14 0 8 0;
#X connect 15 0 8 0;
#X connect 16 0 8 0;
#X connect 17 0 8 0;
#X connect 18 0 8 0;
#X connect 19 0 8 0;
#X connect 20 0 8 0;
#X connect 21 0 8 0;
#X connect 22 0 8 0;
#X connect 23 0 8 0;
#X connect 24 0 8 0;
#X connect 25 0 8 0;
#X connect 26 0 8 0;
#X connect 27 0 8 0;
#X connect 28 0 8 0;
#X connect 29 0 8 0;
#X connect 30 0 8 0;
#X connect 31 0 8 0;
#X connect 32 0 8 0;
#X connect 33 0 8 0;
#X connect 34 0 8 0;
#X connect 35 0 8 0;
#X restore 343 171 pd keyboard;
#X floatatom 70 6 5 0 0 0 tempo to_tempo tempo;
#X obj 276 72 clock 4 4 110;
#N canvas 351 22 673 715 samples 0;
#X obj 44 307 table hithat1;
#X obj 44 327 table hithat2;
#X obj 148 320 table ride;
#X obj 227 300 table snare1;
#X obj 227 320 table snare2;
#X obj 227 340 table snare3;
#X obj 317 301 table tom_a-1;
#X obj 317 321 table tom_a-2;
#X obj 317 341 table tom_a-3;
#X obj 407 301 table tom_b-1;
#X obj 407 321 table tom_b-2;
#X obj 407 341 table tom_b-3;
#X obj 497 301 table tom_c-1;
#X obj 497 321 table tom_c-2;
#X obj 497 341 table tom_c-3;
#X obj 251 416 loadbang;
#X msg 251 451 1;
#X msg 285 451 2;
#X msg 318 451 3;
#X obj 219 686 soundfiler;
#X msg 140 582 read -resize ride.wav ride;
#X msg 183 555 read -resize snare\$1.wav snare\$1;
#X msg 428 528 read -resize tom_a-\$1.wav tom_a-\$1;
#X msg 428 568 read -resize tom_c-\$1.wav tom_c-\$1;
#X msg 428 548 read -resize tom_b-\$1.wav tom_b-\$1;
#X msg 443 479 \; from\$1mash 1;
#X msg 444 432 \; pd dsp 1;
#X msg 50 602 read -resize hithat\$1.wav hithat\$1;
#X obj 249 209 tabplay~;
#X msg 249 184 set \$1;
#X obj 210 167 t b s;
#X msg 46 51 symbol hithat1;
#X msg 155 51 symbol ride;
#X msg 501 52 symbol tom_c-1;
#X msg 46 71 symbol hithat2;
#X msg 233 51 symbol snare1;
#X msg 233 71 symbol snare2;
#X msg 233 91 symbol snare3;
#X msg 321 52 symbol tom_a-1;
#X msg 321 72 symbol tom_a-2;
#X msg 321 92 symbol tom_a-3;
#X msg 412 52 symbol tom_b-1;
#X msg 411 72 symbol tom_b-2;
#X msg 411 92 symbol tom_b-3;
#X msg 501 72 symbol tom_c-2;
#X msg 501 92 symbol tom_c-3;
#X text 67 20 individual samples;
#X obj 249 242 outlet~;
#X connect 15 0 16 0;
#X connect 15 0 17 0;
#X connect 15 0 18 0;
#X connect 15 0 26 0;
#X connect 16 0 27 0;
#X connect 16 0 20 0;
#X connect 16 0 21 0;
#X connect 16 0 22 0;
#X connect 16 0 24 0;
#X connect 16 0 23 0;
#X connect 16 0 25 0;
#X connect 17 0 27 0;
#X connect 17 0 21 0;
#X connect 17 0 22 0;
#X connect 17 0 24 0;
#X connect 17 0 23 0;
#X connect 17 0 25 0;
#X connect 18 0 21 0;
#X connect 18 0 22 0;
#X connect 18 0 24 0;
#X connect 18 0 23 0;
#X connect 18 0 25 0;
#X connect 20 0 19 0;
#X connect 21 0 19 0;
#X connect 22 0 19 0;
#X connect 23 0 19 0;
#X connect 24 0 19 0;
#X connect 27 0 19 0;
#X connect 28 0 47 0;
#X connect 29 0 28 0;
#X connect 30 0 28 0;
#X connect 30 1 29 0;
#X connect 31 0 30 0;
#X connect 32 0 30 0;
#X connect 33 0 30 0;
#X connect 34 0 30 0;
#X connect 35 0 30 0;
#X connect 36 0 30 0;
#X connect 37 0 30 0;
#X connect 38 0 30 0;
#X connect 39 0 30 0;
#X connect 40 0 30 0;
#X connect 41 0 30 0;
#X connect 42 0 30 0;
#X connect 43 0 30 0;
#X connect 44 0 30 0;
#X connect 45 0 30 0;
#X restore 276 171 pd samples;
#X obj 116 38 bng 30 250 50 0 reset empty reset 1 15 0 10 -262144 -1
-1;
#X text 153 35 1: hit play;
#X text 17 229 If some sounds disapear \, please hit reset and disable
keyboard repetition in your operating system. Be carefull with the
caps lock key.;
#X text 153 48 2: press the keyboard lower case letters to play drums
;
#N canvas 0 22 450 300 (subpatch) 0;
#X obj 59 155 inlet;
#X obj 3 89 inlet~;
#X obj 58 182 change;
#X msg 60 246 set \$1;
#X obj 60 227 tosymbol;
#X obj 59 204 sprintf Bus%d;
#X obj 3 282 throw~ Bus0;
#X obj 2 3 popup 124 25 #ffffff popup Bus0 Bus1 Bus2 Bus3 Bus4 Bus5
Bus6 Bus7 Bus8 Bus9 Bus10 Bus11 Bus12 Bus13 Bus14 Bus15 Bus16;
#X obj 1 32 route bang;
#X obj 154 202 *~;
#X obj 141 7 tgl 15 0 empty empty Dac 19 7 0 10 -262144 -1 -1 0 1;
#X obj 155 238 dac~;
#X obj 1 -49 loadbang;
#X text 59 -51 Bus0 mutes;
#X msg 1 -31 options Bus0 Bus1 Bus2 Bus3 Bus4 Bus5 Bus6 Bus7 Bus8 Bus9
Bus10 Bus11 Bus12 Bus13 Bus14 Bus15 Bus16;
#X connect 0 0 2 0;
#X connect 1 0 6 0;
#X connect 1 0 9 0;
#X connect 2 0 5 0;
#X connect 3 0 6 0;
#X connect 4 0 3 0;
#X connect 5 0 4 0;
#X connect 7 0 8 0;
#X connect 8 1 2 0;
#X connect 9 0 11 0;
#X connect 9 0 11 1;
#X connect 10 0 9 1;
#X connect 12 0 14 0;
#X connect 14 0 7 0;
#X coords 0 1 100 -1 180 30 1 0 0;
#X restore 276 192 graph;
#X obj 250 11 declare -path z_drums4dummies_abs;
#X connect 9 0 14 0;
