#N canvas 360 51 635 373 12;
#X declare -path z_machine_abs;
#X obj -163 -194 sequencer;
#N canvas 0 24 1016 660 samplers 0;
#X obj 183 11 r tosamps;
#X obj 183 39 unpack f f f f f f f;
#X obj 795 141 s refresh;
#X obj 103 102 cnv 15 288 216 empty empty empty 20 12 0 14 -1 -66577
0;
#X obj 105 104 cnv 15 284 212 empty empty empty 20 12 0 14 -191407
-66577 0;
#N canvas 0 24 1024 664 samploader 0;
#X obj 103 103 bng 15 250 50 0 empty empty load 17 7 0 10 -262144 -1
-1;
#X obj 323 527 outlet;
#X obj 366 123 getdir;
#X obj 366 151 list2symbol;
#X obj 292 213 folder_list;
#X obj 366 185 makefilename %s/samples/kick/*;
#X obj 343 82 t b b b;
#X obj 321 418 coll;
#C restore;
#X obj 292 247 t b a;
#X obj 320 386 pack f s;
#X obj 273 346 i;
#X obj 309 345 + 1;
#X msg 393 242 0;
#X obj 343 42 r refresh;
#X obj 218 393 random;
#X obj 321 452 prepend open;
#X obj 118 425 openpanel;
#X connect 0 0 16 0;
#X connect 2 0 3 0;
#X connect 3 0 5 0;
#X connect 4 0 8 0;
#X connect 5 0 4 1;
#X connect 6 0 4 0;
#X connect 6 1 2 0;
#X connect 6 2 12 0;
#X connect 7 0 15 0;
#X connect 8 0 10 0;
#X connect 8 1 9 1;
#X connect 9 0 7 0;
#X connect 10 0 11 0;
#X connect 10 0 9 0;
#X connect 10 0 14 1;
#X connect 11 0 10 1;
#X connect 12 0 10 1;
#X connect 13 0 6 0;
#X connect 14 0 7 0;
#X connect 15 0 1 0;
#X connect 16 0 15 0;
#X coords 0 -1 1 1 66 21 2 100 100;
#X restore 109 127 pd samploader;
#X obj 109 109 cnv 12 66 15 empty empty kick 2 8 0 14 -1 -262144 0
;
#N canvas 0 24 1016 660 samploader 0;
#X obj 103 103 bng 15 250 50 0 empty empty load 17 7 0 10 -262144 -1
-1;
#X obj 323 527 outlet;
#X obj 366 123 getdir;
#X obj 366 151 list2symbol;
#X obj 292 213 folder_list;
#X obj 343 82 t b b b;
#X obj 321 418 coll;
#C restore;
#X obj 292 247 t b a;
#X obj 320 386 pack f s;
#X obj 273 346 i;
#X obj 309 345 + 1;
#X msg 393 242 0;
#X obj 343 42 r refresh;
#X obj 218 393 random;
#X obj 321 452 prepend open;
#X obj 366 185 makefilename %s/samples/hat/*;
#X obj 117 402 openpanel;
#X connect 0 0 16 0;
#X connect 2 0 3 0;
#X connect 3 0 15 0;
#X connect 4 0 7 0;
#X connect 5 0 4 0;
#X connect 5 1 2 0;
#X connect 5 2 11 0;
#X connect 6 0 14 0;
#X connect 7 0 9 0;
#X connect 7 1 8 1;
#X connect 8 0 6 0;
#X connect 9 0 10 0;
#X connect 9 0 8 0;
#X connect 9 0 13 1;
#X connect 10 0 9 1;
#X connect 11 0 9 1;
#X connect 12 0 5 0;
#X connect 13 0 6 0;
#X connect 14 0 1 0;
#X connect 15 0 4 1;
#X connect 16 0 14 0;
#X coords 0 -1 1 1 66 21 2 100 100;
#X restore 179 127 pd samploader;
#X obj 179 109 cnv 12 66 15 empty empty hat 2 8 0 14 -1 -262144 0;
#N canvas 0 24 1016 660 samploader 0;
#X obj 103 103 bng 15 250 50 0 empty empty load 17 7 0 10 -262144 -1
-1;
#X obj 323 527 outlet;
#X obj 366 123 getdir;
#X obj 366 151 list2symbol;
#X obj 292 213 folder_list;
#X obj 343 82 t b b b;
#X obj 321 418 coll;
#C restore;
#X obj 292 247 t b a;
#X obj 320 386 pack f s;
#X obj 273 346 i;
#X obj 309 345 + 1;
#X msg 393 242 0;
#X obj 343 42 r refresh;
#X obj 218 393 random;
#X obj 321 452 prepend open;
#X obj 366 185 makefilename %s/samples/snare/*;
#X obj 162 438 openpanel;
#X connect 0 0 16 0;
#X connect 2 0 3 0;
#X connect 3 0 15 0;
#X connect 4 0 7 0;
#X connect 5 0 4 0;
#X connect 5 1 2 0;
#X connect 5 2 11 0;
#X connect 6 0 14 0;
#X connect 7 0 9 0;
#X connect 7 1 8 1;
#X connect 8 0 6 0;
#X connect 9 0 10 0;
#X connect 9 0 8 0;
#X connect 9 0 13 1;
#X connect 10 0 9 1;
#X connect 11 0 9 1;
#X connect 12 0 5 0;
#X connect 13 0 6 0;
#X connect 14 0 1 0;
#X connect 15 0 4 1;
#X connect 16 0 14 0;
#X coords 0 -1 1 1 66 21 2 100 100;
#X restore 248 127 pd samploader;
#X obj 248 109 cnv 12 66 15 empty empty snare 2 8 0 14 -1 -262144 0
;
#N canvas 0 24 1016 660 samploader 0;
#X obj 103 103 bng 15 250 50 0 empty empty load 17 7 0 10 -262144 -1
-1;
#X obj 323 527 outlet;
#X obj 366 123 getdir;
#X obj 366 151 list2symbol;
#X obj 292 213 folder_list;
#X obj 343 82 t b b b;
#X obj 321 418 coll;
#C restore;
#X obj 292 247 t b a;
#X obj 320 386 pack f s;
#X obj 273 346 i;
#X obj 309 345 + 1;
#X msg 393 242 0;
#X obj 343 42 r refresh;
#X obj 218 393 random;
#X obj 321 452 prepend open;
#X obj 366 185 makefilename %s/samples/clap/*;
#X obj 137 408 openpanel;
#X connect 0 0 16 0;
#X connect 2 0 3 0;
#X connect 3 0 15 0;
#X connect 4 0 7 0;
#X connect 5 0 4 0;
#X connect 5 1 2 0;
#X connect 5 2 11 0;
#X connect 6 0 14 0;
#X connect 7 0 9 0;
#X connect 7 1 8 1;
#X connect 8 0 6 0;
#X connect 9 0 10 0;
#X connect 9 0 8 0;
#X connect 9 0 13 1;
#X connect 10 0 9 1;
#X connect 11 0 9 1;
#X connect 12 0 5 0;
#X connect 13 0 6 0;
#X connect 14 0 1 0;
#X connect 15 0 4 1;
#X connect 16 0 14 0;
#X coords 0 -1 1 1 66 21 2 100 100;
#X restore 318 127 pd samploader;
#X obj 318 109 cnv 12 66 15 empty empty clap 2 8 0 14 -1 -262144 0
;
#N canvas 0 24 1016 660 samploader 0;
#X obj 103 103 bng 15 250 50 0 empty empty load 17 7 0 10 -262144 -1
-1;
#X obj 323 527 outlet;
#X obj 366 123 getdir;
#X obj 366 151 list2symbol;
#X obj 292 213 folder_list;
#X obj 343 82 t b b b;
#X obj 321 418 coll;
#C restore;
#X obj 292 247 t b a;
#X obj 320 386 pack f s;
#X obj 273 346 i;
#X obj 309 345 + 1;
#X msg 393 242 0;
#X obj 343 42 r refresh;
#X obj 227 378 random;
#X obj 321 452 prepend open;
#X obj 366 185 makefilename %s/samples/cym/*;
#X obj 130 402 openpanel;
#X connect 0 0 16 0;
#X connect 2 0 3 0;
#X connect 3 0 15 0;
#X connect 4 0 7 0;
#X connect 5 0 4 0;
#X connect 5 1 2 0;
#X connect 5 2 11 0;
#X connect 6 0 14 0;
#X connect 7 0 9 0;
#X connect 7 1 8 1;
#X connect 8 0 6 0;
#X connect 9 0 10 0;
#X connect 9 0 8 0;
#X connect 9 0 13 1;
#X connect 10 0 9 1;
#X connect 11 0 9 1;
#X connect 12 0 5 0;
#X connect 13 0 6 0;
#X connect 14 0 1 0;
#X connect 15 0 4 1;
#X connect 16 0 14 0;
#X coords 0 -1 1 1 66 21 2 100 100;
#X restore 109 228 pd samploader;
#X obj 109 210 cnv 12 66 15 empty empty cym 2 8 0 14 -1 -262144 0;
#N canvas 0 24 1016 660 samploader 0;
#X obj 103 103 bng 15 250 50 0 empty empty load 17 7 0 10 -262144 -1
-1;
#X obj 323 527 outlet;
#X obj 366 123 getdir;
#X obj 366 151 list2symbol;
#X obj 292 213 folder_list;
#X obj 343 82 t b b b;
#X obj 321 418 coll;
#C restore;
#X obj 292 247 t b a;
#X obj 320 386 pack f s;
#X obj 273 346 i;
#X obj 309 345 + 1;
#X msg 393 242 0;
#X obj 343 42 r refresh;
#X obj 218 393 random;
#X obj 321 452 prepend open;
#X obj 366 185 makefilename %s/samples/perc/*;
#X obj 126 424 openpanel;
#X connect 0 0 16 0;
#X connect 2 0 3 0;
#X connect 3 0 15 0;
#X connect 4 0 7 0;
#X connect 5 0 4 0;
#X connect 5 1 2 0;
#X connect 5 2 11 0;
#X connect 6 0 14 0;
#X connect 7 0 9 0;
#X connect 7 1 8 1;
#X connect 8 0 6 0;
#X connect 9 0 10 0;
#X connect 9 0 8 0;
#X connect 9 0 13 1;
#X connect 10 0 9 1;
#X connect 11 0 9 1;
#X connect 12 0 5 0;
#X connect 13 0 6 0;
#X connect 14 0 1 0;
#X connect 15 0 4 1;
#X connect 16 0 14 0;
#X coords 0 -1 1 1 66 21 2 100 100;
#X restore 179 228 pd samploader;
#X obj 179 210 cnv 12 66 15 empty empty perc 2 8 0 14 -1 -262144 0
;
#X obj 248 253 sampler;
#N canvas 0 24 1016 660 samploader 0;
#X obj 103 103 bng 15 250 50 0 empty empty load 17 7 0 10 -262144 -1
-1;
#X obj 323 527 outlet;
#X obj 366 123 getdir;
#X obj 366 151 list2symbol;
#X obj 292 213 folder_list;
#X obj 343 82 t b b b;
#X obj 321 418 coll;
#C restore;
#X obj 292 247 t b a;
#X obj 320 386 pack f s;
#X obj 273 346 i;
#X obj 309 345 + 1;
#X msg 393 242 0;
#X obj 343 42 r refresh;
#X obj 218 393 random;
#X obj 321 452 prepend open;
#X obj 366 185 makefilename %s/samples/misc/*;
#X obj 142 412 openpanel;
#X connect 0 0 16 0;
#X connect 2 0 3 0;
#X connect 3 0 15 0;
#X connect 4 0 7 0;
#X connect 5 0 4 0;
#X connect 5 1 2 0;
#X connect 5 2 11 0;
#X connect 6 0 14 0;
#X connect 7 0 9 0;
#X connect 7 1 8 1;
#X connect 8 0 6 0;
#X connect 9 0 10 0;
#X connect 9 0 8 0;
#X connect 9 0 13 1;
#X connect 10 0 9 1;
#X connect 11 0 9 1;
#X connect 12 0 5 0;
#X connect 13 0 6 0;
#X connect 14 0 1 0;
#X connect 15 0 4 1;
#X connect 16 0 14 0;
#X coords 0 -1 1 1 66 21 2 100 100;
#X restore 248 228 pd samploader;
#X obj 248 210 cnv 12 66 15 empty empty misc 2 8 0 14 -1 -262144 0
;
#X obj 109 151 sampler;
#X obj 179 151 sampler;
#X obj 248 151 sampler;
#X obj 318 151 sampler;
#X obj 109 253 sampler;
#X obj 179 253 sampler;
#X obj 796 108 r lb;
#X obj 118 497 s~ ch1;
#X obj 172 497 s~ ch2;
#X obj 226 498 s~ ch3;
#X obj 280 498 s~ ch4;
#X obj 334 497 s~ ch5;
#X obj 388 497 s~ ch6;
#X obj 442 498 s~ ch7;
#X obj 317 211 cnv 15 66 98 empty empty empty 20 12 0 14 -1 -66577
0;
#X obj 321 215 cnv 15 58 90 empty empty empty 20 12 0 14 -191407 -66577
0;
#X obj 325 218 cnv 15 50 82 empty empty empty 20 12 0 14 -1 -66577
0;
#X obj 329 221 cnv 15 42 76 empty empty empty 20 12 0 14 -191407 -66577
0;
#X obj 333 225 cnv 15 34 68 empty empty empty 20 12 0 14 -1 -66577
0;
#X obj 337 228 cnv 15 26 60 empty empty empty 20 12 0 14 -191407 -66577
0;
#X obj 341 232 cnv 15 18 52 empty empty empty 20 12 0 14 -1 -66577
0;
#X connect 0 0 1 0;
#X connect 1 0 20 1;
#X connect 1 1 21 1;
#X connect 1 2 22 1;
#X connect 1 3 23 1;
#X connect 1 4 24 1;
#X connect 1 5 25 1;
#X connect 1 6 17 1;
#X connect 5 0 20 0;
#X connect 7 0 21 0;
#X connect 9 0 22 0;
#X connect 11 0 23 0;
#X connect 13 0 24 0;
#X connect 15 0 25 0;
#X connect 17 0 33 0;
#X connect 18 0 17 0;
#X connect 20 0 27 0;
#X connect 21 0 28 0;
#X connect 22 0 29 0;
#X connect 23 0 30 0;
#X connect 24 0 31 0;
#X connect 25 0 32 0;
#X connect 26 0 2 0;
#X coords 0 -1 1 1 293 220 2 100 100;
#X restore -163 -92 pd samplers;
#X obj 133 -16 mixer;
#X obj 391 -39 s lb;
#X obj 133 -124 r~ mixL;
#X obj 133 -92 r~ mixR;
#X obj 391 -61 loadbang;
#N canvas 0 22 839 439 (subpatch) 0;
#X obj 88 90 change;
#X msg 90 154 set \$1;
#X obj 90 135 tosymbol;
#X obj 89 112 sprintf Bus%d;
#X msg 135 203 Bus5;
#X obj 91 6 tgl 20 0 empty empty DAC 23 10 1 11 -262144 -1 -1 0 1;
#X obj 250 174 *~;
#X obj 251 210 dac~;
#X obj 37 3 nbx 3 25 0 16 0 0 empty empty BUS -35 13 1 14 -1 -260097
-260097 0 256;
#X obj 1 49 inlet~;
#X obj -1 232 throw~ Bus0;
#X connect 0 0 3 0;
#X connect 1 0 4 0;
#X connect 1 0 10 0;
#X connect 2 0 1 0;
#X connect 3 0 2 0;
#X connect 5 0 6 1;
#X connect 6 0 7 0;
#X connect 8 0 0 0;
#X connect 9 0 6 0;
#X connect 9 0 10 0;
#X coords 0 1 100 -1 140 30 1 0 0;
#X restore 195 -104 graph;
#N canvas 0 22 839 439 (subpatch) 0;
#X obj 88 90 change;
#X msg 90 154 set \$1;
#X obj 90 135 tosymbol;
#X obj 89 112 sprintf Bus%d;
#X msg 135 203 Bus5;
#X obj 91 6 tgl 20 0 empty empty DAC 23 10 1 11 -262144 -1 -1 0 1;
#X obj 250 174 *~;
#X obj 251 210 dac~;
#X obj 37 3 nbx 3 25 0 16 0 0 empty empty BUS -35 13 1 14 -1 -260097
-260097 0 256;
#X obj 1 49 inlet~;
#X obj -1 232 throw~ Bus0;
#X connect 0 0 3 0;
#X connect 1 0 4 0;
#X connect 1 0 10 0;
#X connect 2 0 1 0;
#X connect 3 0 2 0;
#X connect 5 0 6 1;
#X connect 6 0 7 1;
#X connect 8 0 0 0;
#X connect 9 0 6 0;
#X connect 9 0 10 0;
#X coords 0 1 100 -1 140 30 1 0 0;
#X restore 195 -72 graph;
#X obj 195 -39 declare -path z_machine_abs;
#X connect 4 0 7 0;
#X connect 5 0 8 0;
#X connect 6 0 3 0;
