#N canvas 0 22 490 160 10;
#N canvas 0 22 614 440 FreeBeats 0;
#X floatatom 278 141 5 0 0 0 - - #0-metro;
#X obj 278 116 pow -1;
#X obj 278 77 / 60000;
#X obj 278 96 * 1;
#X obj 102 128 tgl 30 0 \$0-ON empty ON 0 -6 0 10 -191407 -1 -1 0 1
;
#X obj 137 141 nbx 4 17 -1e+37 1e+37 0 0 \$0-speed empty bpm 0 -8 0
10 -261682 -1 -1 128 256;
#X obj 278 58 r \$0-speed;
#X obj 211 57 loadbang;
#X text 324 143 ms;
#X obj 211 102 line;
#X msg 211 80 128 100;
#N canvas 0 22 450 300 drums 0;
#X obj 195 37 r \$0-ON;
#N canvas 0 22 450 300 tom 0;
#X obj 30 133 *~;
#X obj 17 0 bng 15 250 50 0 empty empty empty 17 7 0 10 -262144 -1
-1;
#X obj 90 136 *~;
#X obj 58 168 +~;
#X obj 59 240 hip~ 5;
#X obj 77 -5 inlet;
#X obj 46 105 bp~ 280 25;
#X obj 31 58 ead~ 2 30;
#X obj 91 58 ead~ 9 80;
#X obj 106 105 bp~ 3250 22;
#X obj 46 82 osc~ 453;
#X obj 106 82 osc~ 397;
#X obj 59 213 *~;
#X obj 74 189 osc~ 0.7;
#X obj 60 264 throw~ L;
#X connect 0 0 3 0;
#X connect 1 0 7 0;
#X connect 1 0 8 0;
#X connect 2 0 3 1;
#X connect 3 0 12 0;
#X connect 4 0 14 0;
#X connect 5 0 7 0;
#X connect 5 0 8 0;
#X connect 6 0 0 1;
#X connect 7 0 0 0;
#X connect 8 0 2 0;
#X connect 9 0 2 1;
#X connect 10 0 6 0;
#X connect 11 0 9 0;
#X connect 12 0 4 0;
#X connect 13 0 12 1;
#X restore 142 203 pd tom;
#N canvas 0 22 450 300 spike 0;
#X obj 30 133 *~;
#X obj 17 0 bng 15 250 50 0 empty empty empty 17 7 0 10 -262144 -1
-1;
#X obj 120 133 *~;
#X obj 58 168 +~;
#X obj 59 249 hip~ 5;
#X obj 107 -5 inlet;
#X obj 121 58 ead~ 2 60;
#X obj 30 58 ead~ 1 40;
#X obj 136 82 phasor~ 7790;
#X obj 45 82 phasor~ 4350;
#X obj 136 105 bp~ 8250 25;
#X obj 45 105 bp~ 9650 27;
#X obj 58 224 *~;
#X obj 74 197 osc~ 0.5;
#X obj 59 283 throw~ R;
#X connect 0 0 3 0;
#X connect 1 0 6 0;
#X connect 1 0 7 0;
#X connect 2 0 3 1;
#X connect 3 0 12 0;
#X connect 4 0 14 0;
#X connect 5 0 6 0;
#X connect 5 0 7 0;
#X connect 6 0 2 0;
#X connect 7 0 0 0;
#X connect 8 0 10 0;
#X connect 9 0 11 0;
#X connect 10 0 2 1;
#X connect 11 0 0 1;
#X connect 12 0 4 0;
#X connect 13 0 12 1;
#X restore 158 164 pd spike;
#N canvas 0 22 450 300 mt 0;
#X obj 239 70 inlet;
#X obj 239 204 outlet;
#X obj 258 178 outlet;
#X obj 239 122 random 3;
#X obj 239 147 sel 0 1;
#X obj 239 95 metro 152;
#X obj 290 35 r \$0-metro;
#X obj 290 58 / 2;
#X connect 0 0 5 0;
#X connect 3 0 4 0;
#X connect 4 0 1 0;
#X connect 4 1 2 0;
#X connect 5 0 3 0;
#X connect 6 0 7 0;
#X connect 7 0 5 1;
#X restore 240 154 pd mt;
#N canvas 0 22 450 300 hh 0;
#X obj 30 133 *~;
#X obj 31 34 bng 15 250 50 0 empty empty empty 17 7 0 10 -262144 -1
-1;
#X obj 161 133 *~;
#X obj 31 157 +~;
#X obj 31 10 inlet;
#X obj 177 102 bp~ 3250 22;
#X obj 164 8 inlet;
#X obj 164 31 bng 15 250 50 0 empty empty empty 17 7 0 10 -262144 -1
-1;
#X obj 46 105 bp~ 6280 25;
#X obj 108 62 noise~;
#X obj 162 55 ead~ 3 50;
#X obj 31 58 ead~ 1 30;
#X obj 32 218 *~;
#X obj 159 186 *~;
#X obj 48 185 osc~ 0.2;
#X obj 175 160 osc~ 0.3;
#X obj 31 240 throw~ L;
#X obj 160 207 throw~ R;
#X connect 0 0 3 0;
#X connect 1 0 11 0;
#X connect 2 0 13 0;
#X connect 3 0 12 0;
#X connect 4 0 1 0;
#X connect 5 0 2 1;
#X connect 6 0 7 0;
#X connect 7 0 10 0;
#X connect 8 0 0 1;
#X connect 9 0 5 0;
#X connect 9 0 8 0;
#X connect 10 0 2 0;
#X connect 11 0 0 0;
#X connect 12 0 16 0;
#X connect 13 0 17 0;
#X connect 14 0 12 1;
#X connect 15 0 13 1;
#X restore 240 184 pd hh;
#N canvas 0 22 573 366 mt3 0;
#X obj 290 -20 inlet;
#X obj 238 200 outlet;
#X obj 238 73 random 3;
#X obj 303 155 outlet;
#X msg 238 121 bang;
#X msg 303 126 bang;
#X obj 303 71 random 3;
#X obj 303 96 sel 0;
#X obj 373 158 outlet;
#X msg 373 129 bang;
#X obj 373 74 random 3;
#X obj 373 99 sel 0;
#X obj 238 51 metro 152;
#X obj 303 49 metro 152;
#X obj 373 52 metro 304;
#X obj 408 -35 r \$0-metro;
#X obj 425 25 / 4;
#X obj 289 22 / 3;
#X obj 359 17 / 4;
#X obj 238 98 sel 0;
#X connect 0 0 12 0;
#X connect 0 0 13 0;
#X connect 0 0 14 0;
#X connect 2 0 19 0;
#X connect 4 0 1 0;
#X connect 5 0 3 0;
#X connect 6 0 7 0;
#X connect 7 0 5 0;
#X connect 9 0 8 0;
#X connect 10 0 11 0;
#X connect 11 0 9 0;
#X connect 12 0 2 0;
#X connect 13 0 6 0;
#X connect 14 0 10 0;
#X connect 15 0 16 0;
#X connect 15 0 17 0;
#X connect 15 0 18 0;
#X connect 16 0 14 1;
#X connect 17 0 12 1;
#X connect 18 0 13 1;
#X connect 19 0 4 0;
#X restore 142 142 pd mt3;
#N canvas 0 66 1280 894 bd 0;
#X obj 196 341 hip~ 5;
#X obj 147 -19 inlet;
#X obj 147 25 metro 608;
#X obj 198 -22 r \$0-metro;
#X obj 177 374 throw~ L;
#X obj 222 393 throw~ R;
#X obj 224 87 random 100;
#X obj 224 111 moses 20;
#X obj 224 137 bng 15 250 50 0 empty empty empty 17 7 0 10 -262144
-1 -1;
#X obj 224 167 del \$1;
#X obj 227 18 / 4;
#X obj 208 249 osc~ 80;
#X obj 193 308 *~;
#X obj 192 186 bng 15 250 50 0 empty empty empty 17 7 0 10 -262144
-1 -1;
#X obj 209 274 lop~ 100;
#X obj 193 212 ead~ 6 30;
#X connect 0 0 4 0;
#X connect 0 0 5 0;
#X connect 1 0 2 0;
#X connect 2 0 6 0;
#X connect 2 0 13 0;
#X connect 3 0 2 1;
#X connect 3 0 10 0;
#X connect 6 0 7 0;
#X connect 7 0 8 0;
#X connect 8 0 9 0;
#X connect 9 0 13 0;
#X connect 10 0 9 1;
#X connect 11 0 14 0;
#X connect 12 0 0 0;
#X connect 13 0 15 0;
#X connect 14 0 12 1;
#X connect 15 0 12 0;
#X restore 263 106 pd bd;
#N canvas 0 22 466 446 sd 0;
#X obj 30 133 *~;
#X obj 17 0 bng 15 250 50 0 empty empty empty 17 7 0 10 -262144 -1
-1;
#X obj 120 133 *~;
#X obj 107 -5 inlet;
#X obj 121 58 ead~ 2 60;
#X obj 76 78 noise~;
#X obj 136 105 bp~ 9250 29;
#X obj 29 59 ead~ 8 101;
#X obj 44 105 bp~ 1650 25;
#X obj 30 183 *~;
#X obj 45 159 osc~ 0.9;
#X obj 30 207 throw~ L;
#X obj 121 224 throw~ R;
#X obj 120 194 *~;
#X obj 134 170 osc~ 0.8;
#X connect 0 0 9 0;
#X connect 1 0 4 0;
#X connect 1 0 7 0;
#X connect 2 0 13 0;
#X connect 3 0 4 0;
#X connect 3 0 7 0;
#X connect 4 0 2 0;
#X connect 5 0 6 0;
#X connect 5 0 8 0;
#X connect 6 0 2 1;
#X connect 7 0 0 0;
#X connect 8 0 0 1;
#X connect 9 0 11 0;
#X connect 10 0 9 1;
#X connect 13 0 12 0;
#X connect 14 0 13 1;
#X restore 175 183 pd sd;
#X connect 0 0 5 0;
#X connect 0 0 3 0;
#X connect 0 0 6 0;
#X connect 3 0 4 0;
#X connect 3 1 4 1;
#X connect 5 0 1 0;
#X connect 5 1 2 0;
#X connect 5 2 7 0;
#X restore 25 102 pd drums;
#X msg 210 128 \; pd dsp 1;
#X text 89 -39 fabio iaci www.sounday-times.com;
#X connect 1 0 0 0;
#X connect 2 0 3 0;
#X connect 3 0 1 0;
#X connect 6 0 2 0;
#X connect 7 0 10 0;
#X connect 7 0 12 0;
#X connect 9 0 5 0;
#X connect 10 0 9 0;
#X coords 0 -1 1 1 85 60 1 100 100;
#X restore 28 -66 pd FreeBeats;
#X obj 120 -60 catch~ L;
#X obj 183 -60 catch~ R;
#N canvas 0 22 450 300 (subpatch) 0;
#X obj 59 155 inlet;
#X obj 3 89 inlet~;
#X obj 58 182 change;
#X msg 60 246 set \$1;
#X obj 60 227 tosymbol;
#X obj 59 204 sprintf Bus%d;
#X obj 3 282 throw~ Bus0;
#X obj 2 3 popup 124 25 #ffffff popup Bus0 Bus1 Bus2 Bus3 Bus4 Bus5
;
#X obj 1 32 route bang;
#X obj 154 202 *~;
#X obj 141 7 tgl 15 0 empty empty Dac 19 7 0 10 -262144 -1 -1 0 1;
#X obj 155 238 dac~;
#X obj 1 -59 loadbang;
#X text 59 -61 Bus0 mutes;
#X msg 1 -41 options Bus0 Bus1 Bus2 Bus3 Bus4 Bus5 Bus6 Bus7 Bus8 Bus9
Bus10 Bus11 Bus12 Bus13 Bus14 Bus15 Bus16;
#X connect 0 0 2 0;
#X connect 1 0 6 0;
#X connect 1 0 9 0;
#X connect 2 0 5 0;
#X connect 3 0 6 0;
#X connect 4 0 3 0;
#X connect 5 0 4 0;
#X connect 7 0 8 0;
#X connect 8 1 2 0;
#X connect 9 0 11 0;
#X connect 10 0 9 1;
#X connect 12 0 14 0;
#X connect 14 0 7 0;
#X coords 0 1 100 -1 180 30 1 0 0;
#X restore 120 -40 graph;
#N canvas 0 22 450 300 (subpatch) 0;
#X obj 59 155 inlet;
#X obj 3 89 inlet~;
#X obj 58 182 change;
#X msg 60 246 set \$1;
#X obj 60 227 tosymbol;
#X obj 59 204 sprintf Bus%d;
#X obj 3 282 throw~ Bus0;
#X obj 2 3 popup 124 25 #ffffff popup Bus0 Bus1 Bus2 Bus3 Bus4 Bus5
;
#X obj 1 32 route bang;
#X obj 154 202 *~;
#X obj 141 7 tgl 15 0 empty empty Dac 19 7 0 10 -262144 -1 -1 0 1;
#X obj 155 238 dac~;
#X obj 1 -51 loadbang;
#X text 59 -53 Bus0 mutes;
#X msg 1 -33 options Bus0 Bus1 Bus2 Bus3 Bus4 Bus5 Bus6 Bus7 Bus8 Bus9
Bus10 Bus11 Bus12 Bus13 Bus14 Bus15 Bus16;
#X connect 0 0 2 0;
#X connect 1 0 6 0;
#X connect 1 0 9 0;
#X connect 2 0 5 0;
#X connect 3 0 6 0;
#X connect 4 0 3 0;
#X connect 5 0 4 0;
#X connect 7 0 8 0;
#X connect 8 1 2 0;
#X connect 9 0 11 1;
#X connect 10 0 9 1;
#X connect 12 0 14 0;
#X connect 14 0 7 0;
#X coords 0 1 100 -1 180 30 1 0 0;
#X restore 184 -10 graph;
#X connect 1 0 3 0;
#X connect 2 0 4 0;
