#N canvas 0 30 313 437 10;
#N canvas 0 22 800 532 guts 0;
#N canvas 0 22 800 532 steps 0;
#X obj 540 121 table \$0-steps 8;
#X obj 130 121 r \$0-s1;
#X obj 130 148 * -1;
#X obj 130 173 + 7;
#X obj 179 148 * -1;
#X obj 179 173 + 7;
#X obj 234 148 * -1;
#X obj 234 173 + 7;
#X obj 284 148 * -1;
#X obj 284 173 + 7;
#X obj 333 148 * -1;
#X obj 333 173 + 7;
#X obj 382 148 * -1;
#X obj 382 173 + 7;
#X obj 437 148 * -1;
#X obj 437 173 + 7;
#X obj 487 148 * -1;
#X obj 487 173 + 7;
#X obj 179 121 r \$0-s2;
#X obj 234 121 r \$0-s3;
#X obj 284 121 r \$0-s4;
#X obj 333 121 r \$0-s5;
#X obj 382 121 r \$0-s6;
#X obj 437 121 r \$0-s7;
#X obj 487 121 r \$0-s8;
#X obj 234 335 pack \$0 f f f f f f f f;
#X obj 130 204 t b f;
#X obj 179 205 t b f;
#X obj 234 204 t b f;
#X obj 283 205 t b f;
#X obj 333 204 t b f;
#X obj 383 205 t b f;
#X obj 438 204 t b f;
#X obj 487 205 t b f;
#X msg 234 359 \; \$1-steps 0 \$2 \$3 \$4 \$5 \$6 \$7 \$8 \$9;
#X connect 1 0 2 0;
#X connect 2 0 3 0;
#X connect 3 0 26 0;
#X connect 4 0 5 0;
#X connect 5 0 27 0;
#X connect 6 0 7 0;
#X connect 7 0 28 0;
#X connect 8 0 9 0;
#X connect 9 0 29 0;
#X connect 10 0 11 0;
#X connect 11 0 30 0;
#X connect 12 0 13 0;
#X connect 13 0 31 0;
#X connect 14 0 15 0;
#X connect 15 0 32 0;
#X connect 16 0 17 0;
#X connect 17 0 33 0;
#X connect 18 0 4 0;
#X connect 19 0 6 0;
#X connect 20 0 8 0;
#X connect 21 0 10 0;
#X connect 22 0 12 0;
#X connect 23 0 14 0;
#X connect 24 0 16 0;
#X connect 25 0 34 0;
#X connect 26 0 25 0;
#X connect 26 1 25 1;
#X connect 27 0 25 0;
#X connect 27 1 25 2;
#X connect 28 0 25 0;
#X connect 28 1 25 3;
#X connect 29 0 25 0;
#X connect 29 1 25 4;
#X connect 30 0 25 0;
#X connect 30 1 25 5;
#X connect 31 0 25 0;
#X connect 31 1 25 6;
#X connect 32 0 25 0;
#X connect 32 1 25 7;
#X connect 33 0 25 0;
#X connect 33 1 25 8;
#X restore 67 -157 pd steps;
#N canvas 0 22 800 532 rv 0;
#X obj 234 335 pack \$0 f f f f f f f f;
#X obj 130 204 t b f;
#X obj 179 205 t b f;
#X obj 234 204 t b f;
#X obj 283 205 t b f;
#X obj 333 204 t b f;
#X obj 383 205 t b f;
#X obj 438 204 t b f;
#X obj 487 205 t b f;
#X obj 544 176 table \$0-reverse 8;
#X msg 234 359 \; \$1-reverse 0 \$2 \$3 \$4 \$5 \$6 \$7 \$8 \$9;
#X obj 130 121 r \$0-r1;
#X obj 188 121 r \$0-r2;
#X obj 243 121 r \$0-r3;
#X obj 301 121 r \$0-r4;
#X obj 360 121 r \$0-r5;
#X obj 418 121 r \$0-r6;
#X obj 473 121 r \$0-r7;
#X obj 531 121 r \$0-r8;
#X connect 0 0 10 0;
#X connect 1 0 0 0;
#X connect 1 1 0 1;
#X connect 2 0 0 0;
#X connect 2 1 0 2;
#X connect 3 0 0 0;
#X connect 3 1 0 3;
#X connect 4 0 0 0;
#X connect 4 1 0 4;
#X connect 5 0 0 0;
#X connect 5 1 0 5;
#X connect 6 0 0 0;
#X connect 6 1 0 6;
#X connect 7 0 0 0;
#X connect 7 1 0 7;
#X connect 8 0 0 0;
#X connect 8 1 0 8;
#X connect 11 0 1 0;
#X connect 12 0 2 0;
#X connect 13 0 3 0;
#X connect 14 0 4 0;
#X connect 15 0 5 0;
#X connect 16 0 6 0;
#X connect 17 0 7 0;
#X connect 18 0 8 0;
#X restore 67 -137 pd rv;
#N canvas 0 22 800 532 drill 0;
#X obj 234 335 pack \$0 f f f f f f f f;
#X obj 130 204 t b f;
#X obj 179 205 t b f;
#X obj 234 204 t b f;
#X obj 283 205 t b f;
#X obj 333 204 t b f;
#X obj 383 205 t b f;
#X obj 438 204 t b f;
#X obj 487 205 t b f;
#X obj 130 121 r \$0-dr1;
#X obj 188 121 r \$0-dr2;
#X obj 243 121 r \$0-dr3;
#X obj 301 121 r \$0-dr4;
#X obj 360 121 r \$0-dr5;
#X obj 418 121 r \$0-dr6;
#X obj 473 121 r \$0-dr7;
#X obj 531 121 r \$0-dr8;
#X msg 234 359 \; \$1-drill 0 \$2 \$3 \$4 \$5 \$6 \$7 \$8 \$9;
#N canvas 0 22 450 300 (subpatch) 0;
#X array \$0-drill 8 float 3;
#A 0 0 0 0 0 0 0 0 0;
#X coords 0 200 8 0 200 140 1;
#X restore 553 175 graph;
#X connect 0 0 17 0;
#X connect 1 0 0 0;
#X connect 1 1 0 1;
#X connect 2 0 0 0;
#X connect 2 1 0 2;
#X connect 3 0 0 0;
#X connect 3 1 0 3;
#X connect 4 0 0 0;
#X connect 4 1 0 4;
#X connect 5 0 0 0;
#X connect 5 1 0 5;
#X connect 6 0 0 0;
#X connect 6 1 0 6;
#X connect 7 0 0 0;
#X connect 7 1 0 7;
#X connect 8 0 0 0;
#X connect 8 1 0 8;
#X connect 9 0 1 0;
#X connect 10 0 2 0;
#X connect 11 0 3 0;
#X connect 12 0 4 0;
#X connect 13 0 5 0;
#X connect 14 0 6 0;
#X connect 15 0 7 0;
#X connect 16 0 8 0;
#X restore 67 -117 pd drill;
#X obj 622 -97 openpanel;
#X obj 622 7 soundfiler;
#X obj 622 27 / 44.1;
#X obj 622 51 s \$0-dur;
#X obj 692 24 s \$0-len;
#X obj 621 75 pack f \$0;
#X msg 621 97 \; \$2-pos range 0 \$1;
#X obj 622 -52 pack s \$0;
#X msg 622 -15 read -resize \$1 \$2-sample;
#X obj 449 11 r \$0-len;
#X obj 507 11 r \$0-dur;
#X obj 370 -123 metro 100;
#X obj 370 -85 t b b b;
#X obj 370 8 f;
#X obj 434 40 f;
#X obj 492 43 f;
#X obj 492 68 / 8;
#X obj 366 196 pack f f f;
#X obj 391 111 *;
#X obj 367 268 tabread~ \$0-sample;
#X obj 391 145 +;
#X obj 366 242 line~;
#X msg 366 219 \$1 \, \$2 \$3;
#X obj 468 -113 tabread \$0-steps;
#X obj 468 -191 i;
#X obj 499 -191 + 1;
#X obj 468 -166 % 8;
#X obj 434 72 / 8;
#X obj 305 236 line;
#X obj 305 259 s \$0-pos;
#X obj 304 119 f;
#X obj 332 118 f;
#X obj 277 60 t b b;
#X obj 277 33 bng 15 250 50 0 empty empty empty 17 7 0 10 -262144 -1
-1;
#X obj 477 -83 tabread \$0-reverse;
#X obj 277 9 sel 1;
#X obj 287 -52 metro 10;
#X obj 500 -57 tabread \$0-drill;
#X obj 285 -125 sel 0;
#X msg 283 -93 1;
#X msg 311 -93 0;
#X obj 500 -35 t f f;
#X obj 621 -133 r \$0-open;
#X obj 370 -183 r \$0-play;
#X obj 368 303 outlet~;
#X connect 3 0 10 0;
#X connect 4 0 5 0;
#X connect 4 0 7 0;
#X connect 4 0 8 0;
#X connect 5 0 6 0;
#X connect 8 0 9 0;
#X connect 10 0 11 0;
#X connect 11 0 4 0;
#X connect 12 0 17 1;
#X connect 13 0 18 1;
#X connect 14 0 15 0;
#X connect 14 0 27 0;
#X connect 15 0 16 0;
#X connect 15 1 17 0;
#X connect 15 2 18 0;
#X connect 16 0 20 0;
#X connect 16 0 33 1;
#X connect 17 0 30 0;
#X connect 18 0 19 0;
#X connect 19 0 20 2;
#X connect 19 0 14 1;
#X connect 20 0 25 0;
#X connect 21 0 16 1;
#X connect 21 0 23 0;
#X connect 22 0 47 0;
#X connect 23 0 20 1;
#X connect 23 0 34 1;
#X connect 24 0 22 0;
#X connect 25 0 24 0;
#X connect 25 0 31 0;
#X connect 26 0 21 1;
#X connect 27 0 28 0;
#X connect 27 0 29 0;
#X connect 28 0 27 1;
#X connect 29 0 26 0;
#X connect 29 0 37 0;
#X connect 29 0 40 0;
#X connect 30 0 21 0;
#X connect 30 0 23 1;
#X connect 31 0 32 0;
#X connect 33 0 20 1;
#X connect 34 0 20 0;
#X connect 35 0 34 0;
#X connect 35 1 33 0;
#X connect 36 0 35 0;
#X connect 37 0 38 0;
#X connect 38 0 36 0;
#X connect 39 0 16 0;
#X connect 40 0 44 0;
#X connect 41 0 43 0;
#X connect 41 1 42 0;
#X connect 42 0 39 0;
#X connect 43 0 39 0;
#X connect 44 0 41 0;
#X connect 44 1 39 1;
#X connect 45 0 3 0;
#X connect 46 0 14 0;
#X restore 33 140 pd guts;
#X obj 33 -230 cnv 11 222 367 empty empty empty 20 12 0 14 -33289 -66577
0;
#N canvas 0 22 450 300 (subpatch) 0;
#X array \$0-sample 65450 float 2;
#X coords 0 1 65450 -1 127 100 1;
#X restore 41 -181 graph;
#X obj 44 -181 hsl 123 100 0 65450 0 0 empty \$0-pos empty -2 -8 0
10 -204800 -1 -1 0 1;
#X obj 41 -79 vradio 15 1 0 8 \$0-s1 \$0-sr1 empty 0 -8 0 10 -204800
-13330 -1 0;
#X obj 57 -79 vradio 15 1 0 8 \$0-s2 \$0-sr2 empty 0 -8 0 10 -204800
-13330 -1 0;
#X obj 73 -79 vradio 15 1 0 8 \$0-s3 \$0-sr3 empty 0 -8 0 10 -204800
-13330 -1 0;
#X obj 89 -79 vradio 15 1 0 8 \$0-s4 \$0-sr4 empty 0 -8 0 10 -204800
-13330 -1 0;
#X obj 105 -79 vradio 15 1 0 8 \$0-s5 \$0-sr5 empty 0 -8 0 10 -204800
-13330 -1 0;
#X obj 121 -79 vradio 15 1 0 8 \$0-s6 \$0-sr6 empty 0 -8 0 10 -204800
-13330 -1 0;
#X obj 137 -79 vradio 15 1 0 8 \$0-s7 \$0-sr7 empty 0 -8 0 10 -204800
-13330 -1 0;
#X obj 153 -79 vradio 15 1 0 8 \$0-s8 \$0-sr8 empty 0 -8 0 10 -204800
-13330 -1 0;
#X obj 41 48 tgl 15 0 \$0-r1 \$0-rrv1 empty 17 7 0 10 -204800 -1 -1
0 1;
#X obj 57 48 tgl 15 0 \$0-r2 \$0-rrv2 empty 17 7 0 10 -204800 -1 -1
0 1;
#X obj 73 48 tgl 15 0 \$0-r3 \$0-rr3 empty 17 7 0 10 -204800 -1 -1
0 1;
#X obj 89 48 tgl 15 0 \$0-r4 \$0-rr4 empty 17 7 0 10 -204800 -1 -1
0 1;
#X obj 105 48 tgl 15 0 \$0-r5 \$0-rr5 empty 17 7 0 10 -204800 -1 -1
0 1;
#X obj 121 48 tgl 15 0 \$0-r6 \$0-rr6 empty 17 7 0 10 -204800 -1 -1
0 1;
#X obj 137 48 tgl 15 0 \$0-r7 \$0-rr7 empty 17 7 0 10 -204800 -1 -1
0 1;
#X obj 153 48 tgl 15 0 \$0-r8 \$0-rr8 empty 17 7 0 10 -204800 -1 -1
0 1;
#X obj 41 72 vsl 15 55 0 127 0 0 \$0-dr1 \$0-drr1 empty 0 -9 0 10 -204800
-1 -1 0 1;
#X obj 57 72 vsl 15 55 0 127 0 0 \$0-dr2 \$0-drr2 empty 0 -9 0 10 -204800
-1 -1 0 1;
#X obj 73 72 vsl 15 55 0 127 0 0 \$0-dr3 \$0-drr3 empty 0 -9 0 10 -204800
-1 -1 0 1;
#X obj 89 72 vsl 15 55 0 127 0 0 \$0-dr4 \$0-drr4 empty 0 -9 0 10 -204800
-1 -1 0 1;
#X obj 105 72 vsl 15 55 0 127 0 0 \$0-dr5 \$0-drr5 empty 0 -9 0 10
-204800 -1 -1 0 1;
#X obj 121 72 vsl 15 55 0 127 0 0 \$0-dr6 \$0-drr6 empty 0 -9 0 10
-204800 -1 -1 0 1;
#X obj 137 72 vsl 15 55 0 127 0 0 \$0-dr7 \$0-drr7 empty 0 -9 0 10
-204800 -1 -1 0 1;
#X obj 153 72 vsl 15 55 0 127 0 0 \$0-dr8 \$0-drr8 empty 0 -9 0 10
-204800 -1 -1 0 1;
#X obj 42 -219 cnv 15 127 35 empty \$0-name empty 20 12 0 14 -13330
-66577 0;
#X obj 173 -180 cnv 15 76 98 empty empty empty 20 12 0 14 -204786 -66577
0;
#X obj 175 -155 bng 15 250 50 0 \$0-open empty OPEN 17 7 0 10 -262144
-1 -1;
#X obj 175 -176 tgl 15 0 \$0-play empty PLAY 17 7 0 10 -262144 -1 -1
0 1;
#X obj 173 -78 cnv 15 76 118 empty empty empty 20 12 0 14 -204786 -66577
0;
#X obj 177 -24 comment 0 20 times ? 0 0 0 0 <= steps;
#X obj 170 43 comment 0 20 times ? 0 255 128 0 <= reverse;
#X obj 176 88 comment 0 20 times ? 0 255 128 0 <= drill;
#N canvas 0 22 450 300 (subpatch) 0;
#X obj 59 155 inlet;
#X obj 3 89 inlet~;
#X obj 58 182 change;
#X msg 60 246 set \$1;
#X obj 60 227 tosymbol;
#X obj 59 204 sprintf Bus%d;
#X obj 3 282 throw~ Bus0;
#X obj 2 3 popup 124 25 #ffffff popup Bus0 Bus1 Bus2 Bus3 Bus4 Bus5
;
#X obj 1 32 route bang;
#X obj 154 202 *~;
#X obj 141 7 tgl 15 0 empty empty Dac 19 7 0 10 -262144 -1 -1 0 1;
#X obj 155 238 dac~;
#X obj 1 -66 loadbang;
#X text 55 -77 Bus0 mutes everything;
#X text 56 -64 Bus6 goes to dac;
#X msg 1 -48 options Bus0 Bus1 Bus2 Bus3 Bus4 Bus5 Bus6 Bus7 Bus8 Bus9
Bus10 Bus11 Bus12 Bus13 Bus14 Bus15 Bus16;
#X connect 0 0 2 0;
#X connect 1 0 6 0;
#X connect 1 0 9 0;
#X connect 2 0 5 0;
#X connect 3 0 6 0;
#X connect 4 0 3 0;
#X connect 5 0 4 0;
#X connect 7 0 8 0;
#X connect 8 1 2 0;
#X connect 9 0 11 0;
#X connect 9 0 11 1;
#X connect 10 0 9 1;
#X connect 12 0 15 0;
#X connect 15 0 7 0;
#X coords 0 1 100 -1 180 30 1 0 0;
#X restore 33 160 graph;
#X connect 0 0 36 0;
