#N canvas 55 43 388 214 10;
#N canvas 0 22 450 300 (subpatch) 0;
#X obj 20 333 osc~ 800;
#X obj 206 622 *~ 0;
#X floatatom 5 117 5 0 1 1 vol - -;
#X obj 5 47 vsl 32 64 0 1 0 0 empty empty empty 0 -9 0 10 -262144 -1
-1 0 1;
#X obj 20 243 random 12;
#X obj 20 312 * 100;
#X obj 4 5 tgl 32 0 empty empty empty 17 7 0 10 -262144 -1 -1 0 1;
#X obj 20 455 *~;
#X obj 94 409 line~;
#X obj 102 344 bang;
#X obj 20 263 trigger b f;
#X obj 207 260 noise~;
#X obj 207 449 *~;
#X obj 20 223 metro 250;
#X obj 414 414 osc~;
#X obj 437 354 line;
#X msg 94 319 1 15;
#X msg 102 384 0 10;
#X obj 102 364 delay 40;
#X obj 265 418 line~;
#X obj 273 353 bang;
#X obj 273 373 delay 4;
#X msg 273 393 0 40;
#X msg 265 328 1 4;
#X text 463 475 Here \, we use the same type of mini envelope to control
the amplitude of a white noise signal \, the result is a sort of Lo-Fi
closed Hi-Hat sound. The kick sound is done with an oscillator which
frequency quickly goes from a high pitch (120Hz freq) to low pitch
(OHz freq).;
#X obj 207 538 /~ 3;
#X text 462 563 We have 3 signals so to avoid overflow we divide by
3 The sum is taken care of directly by the operator.;
#X obj 265 305 metro 500;
#X obj 437 314 metro 1000;
#X obj 305 487 *~ 4;
#X msg 437 334 500 \, 0 100;
#X obj 462 154 inlet;
#X obj 385 236 * 2;
#X obj 434 235 * 4;
#X obj 206 720 outlet~;
#X connect 0 0 7 0;
#X connect 1 0 34 0;
#X connect 3 0 1 1;
#X connect 3 0 2 0;
#X connect 4 0 10 0;
#X connect 5 0 0 0;
#X connect 6 0 13 0;
#X connect 6 0 27 0;
#X connect 6 0 28 0;
#X connect 7 0 25 0;
#X connect 8 0 7 1;
#X connect 9 0 18 0;
#X connect 10 0 16 0;
#X connect 10 1 5 0;
#X connect 11 0 12 0;
#X connect 12 0 25 0;
#X connect 13 0 4 0;
#X connect 14 0 29 0;
#X connect 15 0 14 0;
#X connect 16 0 8 0;
#X connect 16 0 9 0;
#X connect 17 0 8 0;
#X connect 18 0 17 0;
#X connect 19 0 12 1;
#X connect 20 0 21 0;
#X connect 21 0 22 0;
#X connect 22 0 19 0;
#X connect 23 0 19 0;
#X connect 23 0 20 0;
#X connect 25 0 1 0;
#X connect 27 0 23 0;
#X connect 28 0 30 0;
#X connect 29 0 25 0;
#X connect 30 0 15 0;
#X connect 31 0 13 1;
#X connect 31 0 32 0;
#X connect 31 0 33 0;
#X connect 32 0 27 1;
#X connect 33 0 28 1;
#X coords 0 1 100 -1 60 140 1 0 0;
#X restore 100 20 graph;
#N canvas 0 22 450 300 (subpatch) 0;
#X obj 59 155 inlet;
#X obj 3 89 inlet~;
#X obj 58 182 change;
#X msg 60 246 set \$1;
#X obj 60 227 tosymbol;
#X obj 59 204 sprintf Bus%d;
#X obj 3 282 throw~ Bus0;
#X obj 2 3 popup 124 25 #ffffff popup Bus0 Bus1 Bus2 Bus3 Bus4 Bus5
Bus6 Bus7 Bus8 Bus9 Bus10 Bus11 Bus12 Bus13 Bus14 Bus15 Bus16;
#X obj 1 32 route bang;
#X obj 154 202 *~;
#X obj 141 7 tgl 15 0 empty empty Dac 19 7 0 10 -262144 -1 -1 0 1;
#X obj 155 238 dac~;
#X obj 1 -49 loadbang;
#X text 59 -51 Bus0 mutes;
#X msg 1 -31 options Bus0 Bus1 Bus2 Bus3 Bus4 Bus5 Bus6 Bus7 Bus8 Bus9
Bus10 Bus11 Bus12 Bus13 Bus14 Bus15 Bus16;
#X connect 0 0 2 0;
#X connect 1 0 6 0;
#X connect 1 0 9 0;
#X connect 2 0 5 0;
#X connect 3 0 6 0;
#X connect 4 0 3 0;
#X connect 5 0 4 0;
#X connect 7 0 8 0;
#X connect 8 1 2 0;
#X connect 9 0 11 0;
#X connect 9 0 11 1;
#X connect 10 0 9 1;
#X connect 12 0 14 0;
#X connect 14 0 7 0;
#X coords 0 1 100 -1 180 30 1 0 0;
#X restore 100 160 graph;
#X connect 0 0 1 0;
