#N canvas 382 32 470 320 10;
#X obj 29 85 bng 15 250 50 0 empty empty empty 0 -6 0 8 -262144 -1
-1;
#X obj 151 136 delay;
#X floatatom 104 103 5 0 250 0 attack - -;
#X floatatom 190 103 5 0 250 0 decay - -;
#X floatatom 285 103 5 0 100 0 sustain - -;
#X floatatom 382 103 5 0 250 0 release - -;
#X obj 175 157 bng 15 250 50 0 empty empty empty 0 -6 0 8 -262144 -1
-1;
#X obj 88 180 pack 100 0;
#X msg 38 180 0;
#X obj 185 180 pack 0 0;
#X obj 346 157 pack 0 0;
#X obj 345 80 bng 15 250 50 0 empty empty empty 0 -6 0 8 -262144 -1
-1;
#X obj 47 131 t;
#X obj 31 18 inlet;
#X obj 110 19 inlet;
#X obj 187 20 inlet;
#X obj 278 21 inlet;
#X obj 377 22 inlet;
#X obj 33 42 select 0;
#X msg 145 81 stop;
#X obj 219 150 float;
#X obj 174 263 line~;
#X obj 180 294 outlet~;
#X connect 0 0 12 0;
#X connect 1 0 6 0;
#X connect 2 0 7 1;
#X connect 2 0 1 1;
#X connect 3 0 9 1;
#X connect 4 0 20 1;
#X connect 5 0 10 1;
#X connect 6 0 9 0;
#X connect 6 0 20 0;
#X connect 7 0 21 0;
#X connect 8 0 21 0;
#X connect 9 0 21 0;
#X connect 10 0 21 0;
#X connect 11 0 10 0;
#X connect 12 0 7 0;
#X connect 12 1 8 0;
#X connect 12 1 1 0;
#X connect 13 0 18 0;
#X connect 14 0 2 0;
#X connect 15 0 3 0;
#X connect 16 0 4 0;
#X connect 17 0 5 0;
#X connect 18 0 11 0;
#X connect 18 0 19 0;
#X connect 18 1 0 0;
#X connect 19 0 1 0;
#X connect 20 0 9 0;
#X connect 21 0 22 0;
