#N canvas 277 143 659 537 10;
#X obj 228 273 line;
#X obj 213 220 expr ($f1 + 1);
#X obj 70 215 makefilename %d;
#X msg 69 236 label \$1;
#X floatatom 258 28 5 0 0 0 - - -;
#X msg 226 250 \$1 100;
#X obj 132 52 i;
#X obj 3 0 hsl 29 18 0 262 0 0 \$0-blah \$0-blahblah empty -2 -8 0
10 -232576 -232576 -262144 0 1;
#X obj 0 0 cnv 1 1 17 empty \$0-hcanvas 0 1 11 1 11 -159808 -45076
0;
#X obj 203 360 s \$0-hcanvas;
#X floatatom 214 196 5 0 0 0 - - -;
#X obj 230 142 / 8;
#X msg 207 302 vis_size \$1 17;
#X obj 167 -15 loadbang;
#X msg 124 15 0;
#X obj 49 364 outlet;
#X text 125 174 <- edit this;
#X obj 94 177 * 5;
#X obj 47 -39 inlet;
#X connect 0 0 12 0;
#X connect 1 0 5 0;
#X connect 2 0 3 0;
#X connect 3 0 9 0;
#X connect 4 0 11 0;
#X connect 4 0 17 0;
#X connect 5 0 0 0;
#X connect 6 0 4 0;
#X connect 7 0 6 0;
#X connect 10 0 1 0;
#X connect 11 0 10 0;
#X connect 12 0 9 0;
#X connect 13 0 14 0;
#X connect 14 0 6 0;
#X connect 17 0 2 0;
#X connect 17 0 15 0;
#X connect 18 0 7 0;
#X coords 0 -1 1 1 34 18 2 0 0;
