#N canvas 306 107 404 367 12;
#X obj -26 169 *~;
#X obj 39 169 *~;
#X obj 35 67 hsl 50 8 0 1 0 0 empty empty empty 0 -6 1 6 -258113 -1
-1 2450 1;
#X obj -39 137 inlet~;
#X obj 38 194 outlet~;
#X obj -25 194 outlet~;
#X obj 89 -5 loadbang;
#X obj 20 137 expr~ 1-$v1;
#X obj 89 22 0.5;
#X obj 51 85 pack f 15;
#X obj 51 109 line~;
#X obj 34 22 inlet;
#X text -28 251 left inlet: audio signal;
#X text -28 270 right inlet: control \, number between 0 and 1;
#X text -29 292 outlets: left and right audio signal;
#X text -28 328 Les Objets Volants 2008;
#X connect 0 0 5 0;
#X connect 1 0 4 0;
#X connect 2 0 9 0;
#X connect 3 0 0 0;
#X connect 3 0 1 0;
#X connect 6 0 8 0;
#X connect 7 0 0 1;
#X connect 8 0 2 0;
#X connect 9 0 10 0;
#X connect 10 0 7 0;
#X connect 10 0 1 1;
#X connect 11 0 2 0;
#X coords 0 -1 1 1 60 28 1 30 50;
