#N canvas 678 107 467 494 12;
#X obj 54 148 tgl 12 0 empty empty go 15 5 1 10 -258699 -1 -1 0 1;
#X obj 87 148 bng 12 250 50 0 empty empty reset 14 5 1 10 -258699 -1
-1;
#X obj 132 234 int;
#X obj 165 234 + 1;
#X obj 192 264 outlet count;
#X obj 130 272 select;
#X obj 205 234 int;
#X obj 63 197 metro;
#X obj 132 148 bng 12 250 50 0 empty empty empty 17 7 0 10 -260818
-1 -1;
#X obj 16 29 inlet control;
#X obj 16 88 route position beatnumber beatlength;
#X obj 313 26 \$1;
#X obj 303 53 \$2;
#X obj 353 47 loadbang;
#X msg 145 35 beatnumber \$1;
#X msg 145 61 beatlength \$1;
#X obj 148 148 nbx 4 12 0 1e+037 0 0 empty empty count 42 5 1 10 -262144
-1 -1 100 256;
#X msg 251 174 set \$1;
#X text 44 364 input messages:;
#X text 48 306 creation argument 1: number of beats before stop;
#X text 48 326 creation argument 2: length of beats in ms;
#X text 47 384 1 to start \, 0 to stop;
#X text 47 403 position to set position;
#X text 48 423 beatnumber to change number of beats;
#X text 48 442 beatlength to change length of beats;
#X msg 141 197 0;
#X connect 0 0 7 0;
#X connect 1 0 25 0;
#X connect 2 0 3 0;
#X connect 2 0 4 0;
#X connect 2 0 5 0;
#X connect 2 0 6 0;
#X connect 2 0 8 0;
#X connect 2 0 17 0;
#X connect 3 0 2 1;
#X connect 5 0 0 0;
#X connect 5 0 1 0;
#X connect 7 0 2 0;
#X connect 9 0 10 0;
#X connect 10 0 16 0;
#X connect 10 1 5 1;
#X connect 10 2 7 1;
#X connect 10 3 0 0;
#X connect 11 0 14 0;
#X connect 12 0 15 0;
#X connect 13 0 11 0;
#X connect 13 0 12 0;
#X connect 14 0 10 0;
#X connect 15 0 10 0;
#X connect 16 0 2 1;
#X connect 16 0 6 0;
#X connect 17 0 16 0;
#X connect 25 0 2 1;
#X coords 0 -1 1 1 170 34 1 50 130;
