#N canvas 0 0 745 467 12;
#X obj 244 155 +~;
#X obj 249 240 bng 15 100 50 0 empty empty empty 17 7 0 10 -262144
-1 -1;
#X obj 214 289 *~;
#X obj 224 73 noise~;
#X obj 55 81 hsl 40 10 0 1 0 0 \$0-decay \$0-decayinput decay -2 -6
1 8 -258699 -1 -1 234 1;
#X obj 55 59 hsl 40 10 0 1 0 0 \$0-attack \$0-attackinput attack -2
-6 1 8 -258699 -1 -1 0 1;
#X obj 55 103 hsl 40 10 0 1 0 0 \$0-cutoff \$0-cutoffinput cutoff -2
-6 1 8 -258699 -1 -1 2200 1;
#X obj 311 247 r \$0-cutoff;
#X obj 158 70 +~;
#X obj 213 262 +~;
#X obj 245 368 outlet~;
#X obj 400 92 inlet control;
#X obj 388 147 s \$0-attackinput;
#X obj 444 173 s \$0-decayinput;
#X obj 501 199 s \$0-cutoffinput;
#X obj 388 36 loadbang;
#N canvas 0 0 466 366 env 0;
#X obj 101 174 pack 1 f;
#X obj 173 149 delay;
#X obj 173 174 pack 0 f;
#X obj 101 204 line~;
#X obj 128 122 + 3;
#X obj 234 101 r \$0-decay;
#X obj 128 72 r \$0-attack;
#X obj 101 30 inlet bang;
#X obj 100 258 outlet~;
#X obj 101 231 expr~ pow($v1 \, 9);
#X obj 128 97 * 300;
#X obj 234 125 * 500;
#X obj 234 149 + 3;
#X obj 193 32 bng 15 250 50 0 empty empty empty 17 7 0 10 -262144 -1
-1;
#X connect 0 0 3 0;
#X connect 1 0 2 0;
#X connect 2 0 3 0;
#X connect 3 0 9 0;
#X connect 4 0 1 1;
#X connect 4 0 0 1;
#X connect 5 0 11 0;
#X connect 6 0 10 0;
#X connect 7 0 0 0;
#X connect 7 0 1 0;
#X connect 7 0 13 0;
#X connect 9 0 8 0;
#X connect 10 0 4 0;
#X connect 11 0 12 0;
#X connect 12 0 2 1;
#X restore 249 262 pd env;
#X obj 175 15 phasor~ 675;
#X obj 159 44 phasor~ 424;
#X obj 245 128 osc~ 930;
#X obj 264 101 osc~ 1080;
#X obj 245 325 vcf~ 10;
#X obj 158 96 *~ 0.1;
#X obj 245 181 *~ 0.4;
#X obj 249 214 inlet bang;
#X msg 388 63 vol 1 \, attack 0 \, decay 0.1 \, cutoff 1;
#X obj 311 271 * 5000;
#X obj 311 295 + 10;
#X obj 388 120 route attack decay cutoff;
#X connect 0 0 23 0;
#X connect 1 0 16 0;
#X connect 2 0 21 0;
#X connect 3 0 9 0;
#X connect 7 0 26 0;
#X connect 8 0 22 0;
#X connect 9 0 2 0;
#X connect 11 0 28 0;
#X connect 15 0 25 0;
#X connect 16 0 2 1;
#X connect 17 0 8 1;
#X connect 18 0 8 0;
#X connect 19 0 0 0;
#X connect 20 0 0 1;
#X connect 21 0 10 0;
#X connect 22 0 9 0;
#X connect 23 0 9 0;
#X connect 24 0 1 0;
#X connect 25 0 28 0;
#X connect 26 0 27 0;
#X connect 27 0 21 1;
#X connect 28 0 12 0;
#X connect 28 1 13 0;
#X connect 28 2 14 0;
#X coords 0 -1 1 1 50 85 1 50 30;
