#N canvas 0 0 523 300 12;
#X obj 86 23 inlet number;
#X obj 86 168 outlet mappednumber;
#X obj 161 118 \$1;
#X obj 236 118 \$2;
#X obj 311 118 \$3;
#X obj 387 118 \$4;
#X obj 288 80 loadbang;
#X obj 86 143 expr ($f1-$f2)*($f5-$f4)/($f3-$f2)+$f4;
#X obj 115 48 inlet low1;
#X obj 203 48 inlet high1;
#X obj 298 48 inlet low2;
#X obj 386 48 inlet high2;
#X connect 0 0 7 0;
#X connect 2 0 7 1;
#X connect 3 0 7 2;
#X connect 4 0 7 3;
#X connect 5 0 7 4;
#X connect 6 0 2 0;
#X connect 6 0 3 0;
#X connect 6 0 4 0;
#X connect 6 0 5 0;
#X connect 7 0 1 0;
#X connect 8 0 7 1;
#X connect 9 0 7 2;
#X connect 10 0 7 3;
#X connect 11 0 7 4;
