#N canvas 0 0 405 220 12;
#X obj 71 78 osc~;
#X obj 125 78 metro 1;
#X obj 125 53 loadbang;
#X obj 104 54 bng 15 250 50 0 empty empty empty 17 7 0 10 -262144 -1
-1;
#X obj 72 116 snapshot~;
#X obj 72 141 outlet;
#X obj 31 44 \$1;
#X obj 31 19 loadbang;
#X obj 101 19 inlet;
#X text 186 170 like osc~ but not audio;
#X text 188 193 Les Objets Volants 2008;
#X connect 0 0 4 0;
#X connect 1 0 4 0;
#X connect 2 0 1 0;
#X connect 3 0 1 0;
#X connect 4 0 5 0;
#X connect 6 0 0 0;
#X connect 7 0 6 0;
#X connect 8 0 0 0;
