#N canvas 62 17 797 677 12;
#X obj 386 219 +~;
#X obj 428 219 +~;
#X obj 261 642 outlet~;
#X obj 385 291 +~;
#X obj 494 292 +~;
#X obj 427 291 -~;
#X obj 534 291 -~;
#X obj 384 347 +~;
#X obj 428 348 +~;
#X obj 472 349 -~;
#X obj 511 349 -~;
#X obj 471 401 *~ 0;
#X obj 429 400 *~ 0;
#X obj 384 399 *~ 0;
#X obj 512 402 *~ 0;
#X obj 442 157 delread~ \$0-loop-del1 60;
#X obj 484 182 delread~ \$0-loop-del2 71.9345;
#X obj 495 212 delread~ \$0-loop-del3 86.7545;
#X obj 517 237 delread~ \$0-loop-del4 95.945;
#X obj 511 430 delwrite~ \$0-loop-del4 95.945;
#X obj 472 453 delwrite~ \$0-loop-del3 86.7545;
#X obj 430 476 delwrite~ \$0-loop-del2 71.9345;
#X obj 385 498 delwrite~ \$0-loop-del1 60;
#X obj 26 48 hsl 40 10 0 1 0 0 \$0-fromlength \$0-tolength length -2
-5 1 8 -258113 -1 -1 390 1;
#X obj 537 24 inlet control;
#X obj 567 347 * 0.5;
#X obj 26 70 hsl 40 10 0 1 0 0 \$0-frommix \$0-tomix mix -2 -5 1 8
-258113 -1 -1 234 1;
#X obj 514 106 s \$0-tomix;
#X obj 623 109 s \$0-tolength;
#X obj 567 319 r \$0-fromlength;
#X obj 310 586 *~;
#X obj 277 607 +~;
#X obj 390 551 r \$0-frommix;
#X obj 119 12 inlet~;
#X obj 174 12 inlet~;
#X obj 120 60 +~;
#X obj 156 60 -~;
#X obj 120 144 +~;
#X obj 156 144 -~;
#X obj 121 222 +~;
#X obj 157 222 -~;
#X obj 120 304 +~;
#X obj 156 304 -~;
#X obj 157 84 delwrite~ \$0-d1 5.43216;
#X obj 157 109 delread~ \$0-d1 5.43216;
#X obj 157 168 delwrite~ \$0-d2 8.45346;
#X obj 156 194 delread~ \$0-d2 8.45346;
#X obj 158 246 delwrite~ \$0-d3 13.4367;
#X obj 157 272 delread~ \$0-d3 13.4367;
#X obj 157 328 delwrite~ \$0-d4 21.5463;
#X obj 156 354 delread~ \$0-d4 21.5463;
#X obj 121 385 +~;
#X obj 157 385 -~;
#X obj 121 464 +~;
#X obj 157 464 -~;
#X obj 158 409 delwrite~ \$0-d5 34.3876;
#X obj 157 435 delread~ \$0-d5 34.3876;
#X obj 158 488 delwrite~ \$0-d6 55.5437;
#X obj 156 514 delread~ \$0-d6 55.5437;
#X obj 325 643 outlet~;
#X obj 354 587 *~;
#X obj 333 613 +~;
#X obj 567 71 route mix length;
#X connect 0 0 3 0;
#X connect 0 0 5 0;
#X connect 0 0 30 0;
#X connect 1 0 3 1;
#X connect 1 0 5 1;
#X connect 1 0 60 0;
#X connect 3 0 7 0;
#X connect 3 0 9 0;
#X connect 4 0 9 1;
#X connect 4 0 7 1;
#X connect 5 0 8 0;
#X connect 5 0 10 0;
#X connect 6 0 8 1;
#X connect 6 0 10 1;
#X connect 7 0 13 0;
#X connect 8 0 12 0;
#X connect 9 0 11 0;
#X connect 10 0 14 0;
#X connect 11 0 20 0;
#X connect 12 0 21 0;
#X connect 13 0 22 0;
#X connect 14 0 19 0;
#X connect 15 0 0 1;
#X connect 16 0 1 1;
#X connect 17 0 4 0;
#X connect 17 0 6 0;
#X connect 18 0 4 1;
#X connect 18 0 6 1;
#X connect 24 0 62 0;
#X connect 25 0 13 1;
#X connect 25 0 12 1;
#X connect 25 0 11 1;
#X connect 25 0 14 1;
#X connect 29 0 25 0;
#X connect 30 0 31 1;
#X connect 31 0 2 0;
#X connect 32 0 30 1;
#X connect 32 0 60 1;
#X connect 33 0 35 0;
#X connect 33 0 36 0;
#X connect 33 0 31 0;
#X connect 34 0 35 1;
#X connect 34 0 36 1;
#X connect 34 0 61 0;
#X connect 35 0 37 0;
#X connect 35 0 38 0;
#X connect 36 0 43 0;
#X connect 37 0 39 0;
#X connect 37 0 40 0;
#X connect 38 0 45 0;
#X connect 39 0 41 0;
#X connect 39 0 42 0;
#X connect 40 0 47 0;
#X connect 41 0 51 0;
#X connect 41 0 52 0;
#X connect 42 0 49 0;
#X connect 44 0 37 1;
#X connect 44 0 38 1;
#X connect 46 0 39 1;
#X connect 46 0 40 1;
#X connect 48 0 41 1;
#X connect 48 0 42 1;
#X connect 50 0 51 1;
#X connect 50 0 52 1;
#X connect 51 0 53 0;
#X connect 51 0 54 0;
#X connect 52 0 55 0;
#X connect 53 0 0 0;
#X connect 54 0 57 0;
#X connect 56 0 53 1;
#X connect 56 0 54 1;
#X connect 58 0 1 0;
#X connect 60 0 61 1;
#X connect 61 0 59 0;
#X connect 62 0 27 0;
#X connect 62 1 28 0;
#X connect 62 2 28 0;
#X coords 0 -1 1 1 50 65 1 20 20;
