#N canvas 433 11 708 557 12;
#X obj 166 69 int;
#X obj 199 69 + 1;
#X obj 242 97 bng 15 250 50 0 empty empty empty 0 -6 0 8 -262144 -1
-1;
#X obj 54 321 vsl 9 30 0 1 0 0 empty empty empty 0 -8 0 8 -195568 -1
-1 0 1;
#X obj 66 321 vsl 9 30 0 1 0 0 empty empty empty 0 -8 0 8 -262144 -1
-1 2208 1;
#X obj 78 321 vsl 9 30 0 1 0 0 empty empty empty 0 -8 0 8 -262144 -1
-1 1361 1;
#X obj 90 321 vsl 9 30 0 1 0 0 empty empty empty 0 -8 0 8 -262144 -1
-1 1918 1;
#X obj 102 321 vsl 9 30 0 1 0 0 empty empty empty 0 -8 0 8 -195568
-1 -1 602 1;
#X obj 114 321 vsl 9 30 0 1 0 0 empty empty empty 0 -8 0 8 -262144
-1 -1 2521 1;
#X obj 126 321 vsl 9 30 0 1 0 0 empty empty empty 0 -8 0 8 -262144
-1 -1 1138 1;
#X obj 138 321 vsl 9 30 0 1 0 0 empty empty empty 0 -8 0 8 -262144
-1 -1 2521 1;
#X obj 150 321 vsl 9 30 0 1 0 0 empty empty empty 0 -8 0 8 -195568
-1 -1 1807 1;
#X obj 162 321 vsl 9 30 0 1 0 0 empty empty empty 0 -8 0 8 -262144
-1 -1 1048 1;
#X obj 174 321 vsl 9 30 0 1 0 0 empty empty empty 0 -8 0 8 -262144
-1 -1 2833 1;
#X obj 186 321 vsl 9 30 0 1 0 0 empty empty empty 0 -8 0 8 -262144
-1 -1 2432 1;
#X obj 198 321 vsl 9 30 0 1 0 0 empty empty empty 0 -8 0 8 -195568
-1 -1 245 1;
#X obj 210 321 vsl 9 30 0 1 0 0 empty empty empty 0 -8 0 8 -262144
-1 -1 2833 1;
#X obj 222 321 vsl 9 30 0 1 0 0 empty empty empty 0 -8 0 8 -262144
-1 -1 2320 1;
#X obj 234 321 vsl 9 30 0 1 0 0 empty empty empty 0 -8 0 8 -262144
-1 -1 1539 1;
#X obj 18 264 route 0 1 2 3 4 5 6 7 8 9 10 11 12 13 14 15;
#X obj 151 305 bng 10 250 50 0 \$0-fromseed \$0-toseed seed 12 5 1
8 -258699 -1 -1;
#X obj 224 305 bng 10 250 50 0 \$0-fromreset \$0-toreset reset 12 5
1 8 -258699 -1 -1;
#X obj 166 46 bng 15 250 50 0 empty empty empty 0 -6 0 8 -262144 -1
-1;
#X obj 182 305 tgl 10 0 \$0-fromchange \$0-tochange change 12 5 1 8
-258699 -1 -1 0 1;
#X obj 128 305 nbx 2 10 1 16 0 0 \$0-fromlength \$0-tolength empty
20 5 1 6 -262144 -1 -1 16 256;
#X obj 445 187 loadbang;
#X obj 231 69 %;
#X obj 126 400 f;
#X obj 424 114 s \$0-tochange;
#X obj 166 19 inlet beat;
#X obj 191 43 r \$0-fromlength;
#X obj 166 95 select 0;
#X msg 445 211 16;
#X obj 445 235 s \$0-tolength;
#X obj 368 60 inlet control;
#X obj 394 411 outlet control;
#X obj 126 438 outlet note;
#X msg 497 382 change \$1;
#X obj 499 355 r \$0-fromchange;
#X msg 394 381 step \$1 \$2;
#X obj 394 355 pack f f;
#X obj 394 330 int;
#X obj 418 301 t b f;
#N canvas 564 209 327 312 change 0;
#X obj 75 155 random 16;
#X obj 110 180 random 130;
#X obj 110 205 / 130;
#X obj 75 233 pack;
#X obj 118 74 r \$0-fromchange;
#X obj 75 103 spigot;
#X obj 75 128 t b b;
#X obj 75 262 outlet;
#X obj 75 48 select 0;
#X obj 74 22 inlet;
#X connect 0 0 3 0;
#X connect 1 0 2 0;
#X connect 2 0 3 1;
#X connect 3 0 7 0;
#X connect 4 0 5 1;
#X connect 5 0 6 0;
#X connect 6 0 0 0;
#X connect 6 1 1 0;
#X connect 8 0 5 0;
#X connect 9 0 8 0;
#X restore 55 149 pd change;
#N canvas 486 188 326 304 reset 0;
#X obj 54 100 until;
#X obj 54 125 int;
#X obj 85 125 + 1;
#X obj 54 74 16;
#X obj 115 125 % 16;
#X obj 54 49 r \$0-fromreset;
#X obj 54 151 pack f 0;
#X obj 77 203 outlet;
#X connect 0 0 1 0;
#X connect 1 0 2 0;
#X connect 1 0 6 0;
#X connect 2 0 4 0;
#X connect 3 0 0 0;
#X connect 4 0 1 1;
#X connect 5 0 3 0;
#X connect 6 0 7 0;
#X restore 42 90 pd reset;
#N canvas 404 150 385 312 seed 0;
#X obj 100 101 until;
#X obj 77 125 int;
#X obj 108 125 + 1;
#X obj 79 103 bng 15 250 50 0 empty empty empty 0 -6 0 8 -262144 -1
-1;
#X obj 118 151 random 130;
#X obj 118 176 / 130;
#X obj 100 76 16;
#X obj 140 125 % 16;
#X obj 79 48 r \$0-fromseed;
#X obj 77 202 pack f f;
#X obj 79 241 outlet;
#X connect 0 0 1 0;
#X connect 0 0 4 0;
#X connect 1 0 2 0;
#X connect 1 0 9 0;
#X connect 2 0 7 0;
#X connect 3 0 6 0;
#X connect 4 0 5 0;
#X connect 5 0 9 1;
#X connect 6 0 0 0;
#X connect 7 0 1 1;
#X connect 8 0 3 0;
#X connect 9 0 10 0;
#X restore 25 49 pd seed;
#X obj 482 140 s \$0-toseed;
#X obj 368 86 route step change seed length;
#X obj 538 114 s \$0-tolength;
#X text 93 477 outlet gives numbers from 0 to 1;
#X connect 0 0 1 0;
#X connect 0 0 19 0;
#X connect 0 0 31 0;
#X connect 0 0 41 1;
#X connect 0 0 43 0;
#X connect 1 0 26 0;
#X connect 3 0 27 1;
#X connect 4 0 27 1;
#X connect 5 0 27 1;
#X connect 6 0 27 1;
#X connect 7 0 27 1;
#X connect 8 0 27 1;
#X connect 9 0 27 1;
#X connect 10 0 27 1;
#X connect 11 0 27 1;
#X connect 12 0 27 1;
#X connect 13 0 27 1;
#X connect 14 0 27 1;
#X connect 15 0 27 1;
#X connect 16 0 27 1;
#X connect 17 0 27 1;
#X connect 18 0 27 1;
#X connect 19 0 3 0;
#X connect 19 1 4 0;
#X connect 19 2 5 0;
#X connect 19 3 6 0;
#X connect 19 4 7 0;
#X connect 19 5 8 0;
#X connect 19 6 9 0;
#X connect 19 7 10 0;
#X connect 19 8 11 0;
#X connect 19 9 12 0;
#X connect 19 10 13 0;
#X connect 19 11 14 0;
#X connect 19 12 15 0;
#X connect 19 13 16 0;
#X connect 19 14 17 0;
#X connect 19 15 18 0;
#X connect 22 0 0 0;
#X connect 22 0 27 0;
#X connect 25 0 32 0;
#X connect 26 0 0 1;
#X connect 27 0 36 0;
#X connect 27 0 42 0;
#X connect 29 0 22 0;
#X connect 30 0 26 1;
#X connect 31 0 2 0;
#X connect 32 0 33 0;
#X connect 34 0 47 0;
#X connect 37 0 35 0;
#X connect 38 0 37 0;
#X connect 39 0 35 0;
#X connect 40 0 39 0;
#X connect 41 0 40 0;
#X connect 42 0 41 0;
#X connect 42 1 40 1;
#X connect 43 0 19 0;
#X connect 44 0 19 0;
#X connect 45 0 19 0;
#X connect 47 0 19 0;
#X connect 47 1 28 0;
#X connect 47 2 46 0;
#X connect 47 3 48 0;
#X coords 0 -1 1 1 205 57 1 50 300;
