#N canvas 381 82 768 470 12;
#X obj 215 136 line~;
#X floatatom 143 30 5 0 0 0 - - -;
#X obj 143 54 mtof;
#X obj 144 125 phasor~;
#X obj 143 220 cos~;
#X obj 143 244 +~ 1;
#X obj 143 296 *~;
#X obj 214 163 *~ 0.5;
#X obj 189 196 *~;
#X obj 188 245 cos~;
#X obj 143 269 *~;
#X obj 274 11 bng 15 250 50 0 empty empty empty 17 7 0 10 -262144 -1
-1;
#X obj 144 347 outlet~;
#X obj 26 52 hsl 40 10 0 1 0 0 \$0-fromattack \$0-toattack attack -2
-6 1 8 -258113 -1 -1 0 1;
#X obj 76 52 hsl 40 10 0 1 0 0 \$0-fromdecay \$0-todecay decay -2 -6
1 8 -258113 -1 -1 1409 1;
#X obj 144 152 -~ 0.5;
#X obj 144 320 *~ 0.5;
#X obj 215 111 pack 1 f;
#X obj 273 84 pack 0 f;
#X obj 273 59 delay;
#X obj 75 74 hsl 40 10 0 1 0 0 \$0-fromshape \$0-toshape shape -2 -6
1 8 -258113 -1 -1 1886 1;
#X obj 295 164 pack f 10;
#X obj 295 189 line~;
#X obj 189 221 *~;
#X obj 295 140 expr $f1*11+1;
#X obj 26 74 hsl 40 10 0 1 0 0 \$0-fromglide \$0-toglide glide -2 -6
1 8 -258113 -1 -1 810 1;
#X obj 144 77 pack f f;
#X obj 144 102 line~;
#X obj 286 253 inlet;
#X obj 521 333 s \$0-note;
#X obj 336 227 loadbang;
#X obj 286 281 route shape attack decay glide;
#X obj 194 -16 r \$0-note;
#X obj 286 308 s \$0-toshape;
#X obj 295 116 r \$0-fromshape;
#X obj 380 34 * 700;
#X obj 380 60 + 5;
#X obj 380 9 r \$0-fromdecay;
#X obj 403 360 s \$0-todecay;
#X obj 344 334 s \$0-toattack;
#X obj 330 -16 r \$0-fromattack;
#X obj 330 8 * 300;
#X obj 330 33 + 2;
#X msg 336 253 attack 0.1 \, decay 0.3 \, shape 0.5;
#X obj 203 30 r \$0-fromglide;
#X obj 462 309 s \$0-toglide;
#X obj 204 54 * 500;
#X text 461 114 attack;
#X text 463 93 messages accepted:;
#X text 462 133 decay;
#X text 463 155 glide;
#X text 463 175 shape;
#X text 534 139 + value between 0 and 1;
#X text 463 204 or number as midi note;
#X connect 0 0 6 1;
#X connect 0 0 7 0;
#X connect 1 0 2 0;
#X connect 2 0 26 0;
#X connect 3 0 15 0;
#X connect 4 0 5 0;
#X connect 5 0 10 0;
#X connect 6 0 16 0;
#X connect 7 0 8 1;
#X connect 8 0 23 0;
#X connect 9 0 10 1;
#X connect 10 0 6 0;
#X connect 11 0 17 0;
#X connect 11 0 19 0;
#X connect 15 0 4 0;
#X connect 15 0 8 0;
#X connect 16 0 12 0;
#X connect 17 0 0 0;
#X connect 18 0 0 0;
#X connect 19 0 18 0;
#X connect 21 0 22 0;
#X connect 22 0 23 1;
#X connect 23 0 9 0;
#X connect 24 0 21 0;
#X connect 26 0 27 0;
#X connect 27 0 3 0;
#X connect 28 0 31 0;
#X connect 30 0 43 0;
#X connect 31 0 33 0;
#X connect 31 1 39 0;
#X connect 31 2 38 0;
#X connect 31 3 45 0;
#X connect 31 4 29 0;
#X connect 32 0 11 0;
#X connect 32 0 1 0;
#X connect 34 0 24 0;
#X connect 35 0 36 0;
#X connect 36 0 18 1;
#X connect 37 0 35 0;
#X connect 40 0 41 0;
#X connect 41 0 42 0;
#X connect 42 0 19 1;
#X connect 42 0 17 1;
#X connect 43 0 31 0;
#X connect 44 0 46 0;
#X connect 46 0 26 1;
#X coords 0 -1 1 1 100 67 1 20 20;
