#N canvas 455 20 394 626 12;
#X obj 155 582 outlet~ sound;
#X obj 90 303 vsl 15 60 0 2000 0 0 empty empty empty 0 -9 0 10 -262144
-1 -1 5900 1;
#X floatatom 108 347 5 0 0 0 - - -;
#X obj 71 375 bng 15 250 50 0 empty empty empty 17 7 0 10 -262144 -1
-1;
#X floatatom 71 443 5 0 0 0 - - -;
#X obj 52 468 *~;
#X obj 71 394 1;
#X obj 71 419 -;
#X obj 90 370 / 2300;
#X obj 52 277 expr~ pow($v1 \, 3)*0.8;
#X obj 51 504 bp~ 1200 10;
#X obj 52 88 mtof;
#X obj 52 136 line~;
#X obj 52 113 pack f f;
#X obj 37 10 inlet;
#X obj 53 252 osc~;
#X obj 53 227 +~;
#X obj 105 196 *~ 100;
#X obj 143 172 * 2000;
#X obj 105 172 osc~;
#X obj 105 148 * 2;
#X obj 155 556 *~;
#X obj 176 506 line~;
#X obj 167 385 * 400;
#X obj 214 414 bng 15 250 50 0 empty empty empty 17 7 0 10 -262144
-1 -1;
#X obj 163 475 pack 1 f;
#X obj 234 475 pack 0 f;
#X obj 293 423 * 500;
#X obj 167 409 + 2;
#X obj 295 447 + 2;
#X obj 299 303 loadbang;
#X floatatom 166 441 5 0 0 0 - - -;
#X obj 230 446 delay;
#X floatatom 311 475 5 0 0 0 - - -;
#X obj 175 531 expr~ sqrt(sqrt($v1));
#X obj 50 50 route attack decay glide fm;
#X msg 273 337 0;
#X msg 314 339 1;
#X floatatom 182 142 5 0 0 0 - - -;
#X floatatom 156 77 5 0 0 0 - - -;
#X obj 156 99 * 200;
#X connect 1 0 2 0;
#X connect 1 0 3 0;
#X connect 1 0 8 0;
#X connect 3 0 6 0;
#X connect 4 0 5 1;
#X connect 5 0 10 0;
#X connect 6 0 7 0;
#X connect 7 0 4 0;
#X connect 8 0 7 1;
#X connect 9 0 5 0;
#X connect 10 0 21 0;
#X connect 11 0 1 0;
#X connect 11 0 13 0;
#X connect 11 0 20 0;
#X connect 12 0 16 0;
#X connect 13 0 12 0;
#X connect 14 0 35 0;
#X connect 15 0 9 0;
#X connect 16 0 15 0;
#X connect 17 0 16 1;
#X connect 18 0 17 1;
#X connect 19 0 17 0;
#X connect 20 0 19 0;
#X connect 21 0 0 0;
#X connect 22 0 34 0;
#X connect 23 0 28 0;
#X connect 24 0 25 0;
#X connect 24 0 32 0;
#X connect 25 0 22 0;
#X connect 26 0 22 0;
#X connect 27 0 29 0;
#X connect 28 0 25 1;
#X connect 28 0 31 0;
#X connect 28 0 32 1;
#X connect 29 0 26 1;
#X connect 29 0 33 0;
#X connect 30 0 36 0;
#X connect 30 0 37 0;
#X connect 32 0 26 0;
#X connect 34 0 21 1;
#X connect 35 0 23 0;
#X connect 35 1 27 0;
#X connect 35 2 39 0;
#X connect 35 3 18 0;
#X connect 35 3 38 0;
#X connect 35 4 11 0;
#X connect 35 4 24 0;
#X connect 36 0 23 0;
#X connect 37 0 27 0;
#X connect 39 0 40 0;
#X connect 40 0 13 1;
