#N canvas 534 6 375 399 12;
#X obj 103 160 +;
#X obj 104 84 random 3;
#X obj 103 107 - 1;
#X obj 103 60 metro 1;
#X obj 103 209 max 0;
#X obj 53 162 float;
#X obj 40 252 outlet;
#X obj 43 189 hsl 50 10 0 1 0 0 empty empty empty -2 -6 0 8 -262144
-1 -1 836 1;
#X obj 103 45 tgl 10 0 empty empty empty 0 -6 1 6 -262144 -1 -1 1 1
;
#X obj 100 15 inlet;
#X obj 104 185 min 1;
#X obj 104 134 / \$1;
#X obj 157 14 inlet;
#X text 42 295 outputs continuously varying numbers;
#X text 40 314 between 0 and 1 creation argument;
#X text 41 334 sets depth of variation.;
#X text 41 361 Les Objets Volants 2008;
#X obj 40 228 line;
#X msg 40 204 \$1 1;
#X connect 0 0 10 0;
#X connect 1 0 2 0;
#X connect 2 0 11 0;
#X connect 3 0 1 0;
#X connect 3 0 5 0;
#X connect 4 0 5 1;
#X connect 5 0 7 0;
#X connect 7 0 0 0;
#X connect 7 0 18 0;
#X connect 8 0 3 0;
#X connect 9 0 8 0;
#X connect 10 0 4 0;
#X connect 11 0 0 1;
#X connect 12 0 11 1;
#X connect 17 0 6 0;
#X connect 18 0 17 0;
#X coords 0 0 1 1 60 35 0;
