#N canvas 534 6 416 342 12;
#X obj 104 119 vsl 8 30 0 1 0 0 empty empty empty 0 -8 0 8 -258699
-1 -1 1400 1;
#X obj 19 275 *~;
#X obj 115 142 tgl 10 0 empty empty m 2 -5 1 8 -258699 -1 -1 0 1;
#X obj 39 250 *~;
#X obj 114 171 expr 1-$f1;
#X obj 114 218 line~;
#X obj 114 195 pack f 10;
#X obj 38 222 line~;
#X obj 38 198 pack f 3;
#X msg 138 260 mute \$1;
#X obj 232 13 loadbang;
#X msg 252 40 mute 0;
#X msg 216 40 0.5;
#X obj 170 72 route mute;
#X obj 18 299 outlet~ audio;
#X obj 129 299 outlet control;
#X obj 18 13 inlet~ audio;
#X obj 120 13 inlet control;
#X text 231 98 left inlet: audio;
#X text 230 126 right inlet:;
#X text 231 148 number between 0 and 1;
#X text 233 174 or message 'mute';
#X text 282 193 + 0 or 1;
#X obj 38 172 *;
#X obj 38 147 t f f;
#X connect 0 0 15 0;
#X connect 0 0 24 0;
#X connect 1 0 14 0;
#X connect 2 0 4 0;
#X connect 2 0 9 0;
#X connect 3 0 1 1;
#X connect 4 0 6 0;
#X connect 5 0 3 1;
#X connect 6 0 5 0;
#X connect 7 0 3 0;
#X connect 8 0 7 0;
#X connect 9 0 15 0;
#X connect 10 0 12 0;
#X connect 10 0 11 0;
#X connect 11 0 13 0;
#X connect 12 0 13 0;
#X connect 13 0 2 0;
#X connect 13 1 0 0;
#X connect 16 0 1 0;
#X connect 17 0 13 0;
#X connect 23 0 8 0;
#X connect 24 0 23 0;
#X connect 24 1 23 1;
#X coords 0 -1 1 1 28 55 1 100 100;
