#N canvas 714 2 427 705 12;
#X obj 104 118 vsl 12 30 0 1 0 0 empty empty empty 0 -8 1 8 -258699
-1 -1 2900 1;
#X obj 36 299 *~;
#X obj 18 13 inlet~;
#X obj 35 325 outlet~;
#X obj 118 141 tgl 10 0 empty empty m 2 -4 1 8 -4034 -1 -1 0 1;
#X obj 54 274 *~;
#X obj 174 179 expr 1-$f1;
#X obj 174 227 line~;
#X obj 53 235 line~;
#X obj 170 324 outlet;
#X obj 142 14 inlet;
#X msg 178 296 mute \$1;
#X obj 192 14 loadbang;
#X obj 131 118 vsl 8 30 0 100 0 0 empty empty empty 0 -8 0 8 -162280
-1 -1 2303 1;
#X obj 80 13 inlet~;
#X obj 101 298 *~;
#X obj 100 324 outlet~;
#X obj 119 273 *~;
#X obj 230 103 env~;
#X floatatom 272 103 5 0 0 0 - - -;
#X obj 230 152 line;
#X obj 230 128 pack f 30;
#X text 29 417 first two inlets: left and right audio;
#X text 28 437 third inlet: control \, number between 0 and 1;
#X text 29 492 first two outlets: left and right audio;
#X text 28 512 third outlet: control \, number between 0 and 1;
#X text 143 458 or message 'mute' with 0 or 1;
#X text 148 532 or message 'mute' with 0 or 1;
#X obj 170 64 route mute;
#X text 21 642 Les Objets Volants 2008;
#X obj 119 116 bng 10 250 50 0 empty empty empty 17 7 0 10 -262144
-1 -1;
#X obj 119 116 cnv 10 10 10 empty \$0-cnv empty 20 12 0 14 -62784 -262144
0;
#X obj 298 234 s \$0-cnv;
#X msg 298 208 color \$1;
#X msg 334 179 13;
#X msg 298 179 18;
#X text 39 575 blue button: red when clipping occurs;
#X msg 44 69 0;
#X text 42 596 click or move red slider to get back to blue;
#X obj 53 188 *;
#X msg 176 203 \$1 10;
#X msg 192 38 0.7 \, mute 0;
#X msg 53 211 \$1 3;
#X obj 53 163 t f f;
#X obj 265 262 env~;
#X floatatom 309 263 5 0 0 0 - - -;
#X floatatom 314 286 6 0 0 0 - - -;
#X obj 265 286 max 0;
#X obj 314 308 moses 100;
#X msg 257 224 0;
#X connect 0 0 9 0;
#X connect 0 0 37 0;
#X connect 0 0 43 0;
#X connect 1 0 3 0;
#X connect 1 0 18 0;
#X connect 1 0 44 0;
#X connect 2 0 1 0;
#X connect 4 0 6 0;
#X connect 4 0 11 0;
#X connect 5 0 1 1;
#X connect 6 0 40 0;
#X connect 7 0 5 1;
#X connect 7 0 17 1;
#X connect 8 0 5 0;
#X connect 8 0 17 0;
#X connect 10 0 28 0;
#X connect 11 0 9 0;
#X connect 12 0 41 0;
#X connect 14 0 15 0;
#X connect 15 0 16 0;
#X connect 15 0 18 0;
#X connect 15 0 44 0;
#X connect 17 0 15 1;
#X connect 18 0 19 0;
#X connect 18 0 21 0;
#X connect 20 0 13 0;
#X connect 21 0 20 0;
#X connect 28 0 4 0;
#X connect 28 1 0 0;
#X connect 30 0 35 0;
#X connect 33 0 32 0;
#X connect 34 0 33 0;
#X connect 35 0 33 0;
#X connect 35 0 49 0;
#X connect 37 0 30 0;
#X connect 39 0 42 0;
#X connect 40 0 7 0;
#X connect 41 0 28 0;
#X connect 42 0 8 0;
#X connect 43 0 39 0;
#X connect 43 1 39 1;
#X connect 44 0 45 0;
#X connect 44 0 47 0;
#X connect 46 0 47 1;
#X connect 46 0 48 0;
#X connect 47 0 46 0;
#X connect 48 1 34 0;
#X connect 49 0 47 1;
#X coords 0 -1 1 1 43 55 1 100 100;
