#N canvas 147 38 1024 534 10;
#X msg 886 67 \; pd dsp 1;
#X obj 113 152 metro 1000;
#X floatatom 170 68 5 40 208 1 Bpm - -;
#X floatatom 170 109 5 0 0 0 - - -;
#X obj 170 88 expr (60*1000)/$f1;
#X obj 113 188 bng 15 250 50 0 empty empty empty 17 7 0 10 -262144
-1 -1;
#X floatatom 184 167 5 0 0 1 Croma - -;
#X obj 444 203 bng 15 250 50 0 empty empty empty 17 7 0 10 -262144
-1 -1;
#X obj 444 49 tgl 15 0 empty empty empty 17 7 0 10 -262144 -1 -1 1
1;
#X obj 113 19 tgl 30 0 empty empty on/off 35 7 0 10 -258113 -1 -1 1
1;
#X obj 184 140 expr $f1/2;
#X obj 825 141 time;
#X obj 825 120 bng 15 250 50 0 empty empty empty 17 7 0 10 -262144
-1 -1;
#X floatatom 846 164 5 0 0 0 - - -;
#X msg 846 192 seed \$1;
#X obj 654 218 counter 0 3;
#X obj 654 259 route 0 1 2 3;
#X obj 206 227 route 0 1 2 3;
#X obj 206 203 counter 0 3;
#X obj 813 286 gate 4;
#X obj 813 235 + 1;
#X obj 886 34 loadbang;
#X obj 110 272 unpack f f f f;
#X obj 444 183 metro;
#X obj 17 210 counter 0 2;
#X obj 17 233 route 0 1 2;
#X obj 17 171 sel 0;
#X obj 17 192 bng 15 250 50 0 empty empty empty 17 7 0 10 -262144 -1
-1;
#X obj 17 150 counter 0 7;
#N canvas 264 71 450 300 sequenze 0;
#X msg 43 152 60 64 67 72;
#X obj 43 121 inlet;
#X obj 123 121 inlet;
#X obj 203 121 inlet;
#X obj 43 216 outlet;
#X obj 295 91 notein;
#X floatatom 295 117 5 0 0 0 - - -;
#X msg 123 152 55 59 62 65;
#X msg 203 152 57 60 64 65;
#X connect 0 0 4 0;
#X connect 1 0 0 0;
#X connect 2 0 7 0;
#X connect 3 0 8 0;
#X connect 5 0 6 0;
#X connect 7 0 4 0;
#X connect 8 0 4 0;
#X restore 17 255 pd sequenze;
#X obj 94 203 bng 15 250 50 0 empty empty empty 17 7 0 10 -262144 -1
-1;
#X obj 94 103 bng 15 250 50 0 empty empty empty 17 7 0 10 -262144 -1
-1;
#X obj 17 118 bng 15 250 50 0 empty empty empty 17 7 0 10 -262144 -1
-1;
#N canvas 264 165 450 383 MainOut 0;
#X obj 22 182 *~;
#X obj 23 209 dac~;
#X obj 116 164 line~;
#X obj 116 120 knob 32 32 0 1 0 0 empty empty empty 0 -8 0 8 -262144
-258113 -1 1923 1;
#X obj 101 -48 inlet~;
#X obj 171 53 loadbang;
#X obj 171 101 line;
#X obj 101 77 *~;
#X floatatom 117 -16 5 0 0 0 - - -;
#X obj 117 30 sig~;
#X obj 117 6 mtof;
#X obj 194 -110 tgl 15 0 empty empty empty 17 7 0 10 -262144 -1 -1
1 1;
#X obj 194 -87 metro 100;
#X msg 214 -58 2;
#X obj 194 -33 counter 21 100;
#X obj 245 -118 inlet;
#X obj 117 53 osc~;
#X floatatom 51 -17 5 0 0 0 - - -;
#X obj 51 29 sig~;
#X obj 51 5 mtof;
#X obj 51 52 osc~;
#X obj 21 95 vcf~ 5e-005;
#X msg 171 76 0 \, 0.33 1000;
#X obj 212 229 tabwrite~ array1;
#X obj 212 206 metro 100;
#X obj 212 180 tgl 15 0 empty empty empty 17 7 0 10 -262144 -1 -1 1
1;
#X connect 0 0 1 0;
#X connect 0 0 1 1;
#X connect 0 0 23 0;
#X connect 2 0 0 1;
#X connect 3 0 2 0;
#X connect 4 0 7 0;
#X connect 5 0 22 0;
#X connect 5 0 13 0;
#X connect 5 0 11 0;
#X connect 5 0 25 0;
#X connect 6 0 3 0;
#X connect 7 0 21 0;
#X connect 8 0 10 0;
#X connect 9 0 16 0;
#X connect 10 0 9 0;
#X connect 11 0 12 0;
#X connect 12 0 14 0;
#X connect 13 0 14 1;
#X connect 14 0 8 0;
#X connect 14 0 17 0;
#X connect 15 0 12 1;
#X connect 16 0 7 1;
#X connect 17 0 19 0;
#X connect 18 0 20 0;
#X connect 19 0 18 0;
#X connect 20 0 21 1;
#X connect 21 0 0 0;
#X connect 22 0 6 0;
#X connect 24 0 23 0;
#X connect 25 0 24 0;
#X coords 0 -1 1 1 60 60 1 100 100;
#X restore 127 427 pd MainOut;
#X floatatom 846 265 5 0 0 0 - - -;
#N canvas 344 165 450 300 Voce 0;
#X obj 200 75 inlet;
#X obj 150 281 outlet~;
#X obj 150 171 mtof;
#X obj 150 200 sig~;
#X obj 150 225 osc~;
#X obj 150 253 *~;
#X floatatom 150 135 5 0 0 0 - - -;
#X obj 200 228 line~;
#X obj 150 75 inlet;
#X msg 200 109 1 50;
#X obj 237 109 del 50;
#X msg 237 137 0 100;
#X connect 0 0 9 0;
#X connect 0 0 10 0;
#X connect 2 0 3 0;
#X connect 3 0 4 0;
#X connect 4 0 5 0;
#X connect 5 0 1 0;
#X connect 6 0 2 0;
#X connect 7 0 5 1;
#X connect 8 0 6 0;
#X connect 9 0 7 0;
#X connect 10 0 11 0;
#X connect 11 0 7 0;
#X coords 0 -1 1 1 85 60 1 100 100;
#X restore 128 307 pd Voce;
#N canvas 344 165 450 300 Voce 0;
#X obj 200 75 inlet;
#X obj 150 281 outlet~;
#X obj 150 171 mtof;
#X obj 150 200 sig~;
#X obj 150 225 osc~;
#X obj 150 253 *~;
#X floatatom 150 135 5 0 0 0 - - -;
#X obj 200 228 line~;
#X obj 150 75 inlet;
#X msg 200 109 1 50;
#X obj 237 109 del 50;
#X msg 237 137 0 100;
#X connect 0 0 9 0;
#X connect 0 0 10 0;
#X connect 2 0 3 0;
#X connect 3 0 4 0;
#X connect 4 0 5 0;
#X connect 5 0 1 0;
#X connect 6 0 2 0;
#X connect 7 0 5 1;
#X connect 8 0 6 0;
#X connect 9 0 7 0;
#X connect 10 0 11 0;
#X connect 11 0 7 0;
#X coords 0 -1 1 1 85 60 1 100 100;
#X restore 218 307 pd Voce;
#N canvas 344 165 450 300 Voce 0;
#X obj 200 75 inlet;
#X obj 150 281 outlet~;
#X obj 150 171 mtof;
#X obj 150 200 sig~;
#X obj 150 225 osc~;
#X obj 150 253 *~;
#X floatatom 150 135 5 0 0 0 - - -;
#X obj 200 228 line~;
#X obj 150 75 inlet;
#X msg 200 109 1 50;
#X obj 237 109 del 50;
#X msg 237 137 0 100;
#X connect 0 0 9 0;
#X connect 0 0 10 0;
#X connect 2 0 3 0;
#X connect 3 0 4 0;
#X connect 4 0 5 0;
#X connect 5 0 1 0;
#X connect 6 0 2 0;
#X connect 7 0 5 1;
#X connect 8 0 6 0;
#X connect 9 0 7 0;
#X connect 10 0 11 0;
#X connect 11 0 7 0;
#X coords 0 -1 1 1 85 60 1 100 100;
#X restore 308 307 pd Voce;
#N canvas 344 165 450 300 Voce 0;
#X obj 200 75 inlet;
#X obj 150 281 outlet~;
#X obj 150 171 mtof;
#X obj 150 200 sig~;
#X obj 150 225 osc~;
#X obj 150 253 *~;
#X floatatom 150 135 5 0 0 0 - - -;
#X obj 200 228 line~;
#X obj 150 75 inlet;
#X msg 200 109 1 50;
#X obj 237 109 del 50;
#X msg 237 137 0 100;
#X connect 0 0 9 0;
#X connect 0 0 10 0;
#X connect 2 0 3 0;
#X connect 3 0 4 0;
#X connect 4 0 5 0;
#X connect 5 0 1 0;
#X connect 6 0 2 0;
#X connect 7 0 5 1;
#X connect 8 0 6 0;
#X connect 9 0 7 0;
#X connect 10 0 11 0;
#X connect 11 0 7 0;
#X coords 0 -1 1 1 85 60 1 100 100;
#X restore 398 307 pd Voce;
#N canvas 344 165 450 300 Voce 0;
#X obj 200 75 inlet;
#X obj 150 281 outlet~;
#X obj 150 171 mtof;
#X obj 150 200 sig~;
#X obj 150 225 osc~;
#X obj 150 253 *~;
#X floatatom 150 135 5 0 0 0 - - -;
#X obj 200 228 line~;
#X obj 150 75 inlet;
#X msg 200 109 1 50;
#X obj 237 109 del 50;
#X msg 237 137 0 100;
#X connect 0 0 9 0;
#X connect 0 0 10 0;
#X connect 2 0 3 0;
#X connect 3 0 4 0;
#X connect 4 0 5 0;
#X connect 5 0 1 0;
#X connect 6 0 2 0;
#X connect 7 0 5 1;
#X connect 8 0 6 0;
#X connect 9 0 7 0;
#X connect 10 0 11 0;
#X connect 11 0 7 0;
#X coords 0 -1 1 1 85 60 1 100 100;
#X restore 576 367 pd Voce;
#N canvas 344 165 450 300 Voce 0;
#X obj 200 75 inlet;
#X obj 150 281 outlet~;
#X obj 150 171 mtof;
#X obj 150 200 sig~;
#X obj 150 225 osc~;
#X obj 150 253 *~;
#X floatatom 150 135 5 0 0 0 - - -;
#X obj 200 228 line~;
#X obj 150 75 inlet;
#X msg 200 109 1 50;
#X obj 237 109 del 50;
#X msg 237 137 0 100;
#X connect 0 0 9 0;
#X connect 0 0 10 0;
#X connect 2 0 3 0;
#X connect 3 0 4 0;
#X connect 4 0 5 0;
#X connect 5 0 1 0;
#X connect 6 0 2 0;
#X connect 7 0 5 1;
#X connect 8 0 6 0;
#X connect 9 0 7 0;
#X connect 10 0 11 0;
#X connect 11 0 7 0;
#X coords 0 -1 1 1 85 60 1 100 100;
#X restore 666 367 pd Voce;
#N canvas 344 165 450 300 Voce 0;
#X obj 200 75 inlet;
#X obj 150 281 outlet~;
#X obj 150 171 mtof;
#X obj 150 200 sig~;
#X obj 150 225 osc~;
#X obj 150 253 *~;
#X floatatom 150 135 5 0 0 0 - - -;
#X obj 200 228 line~;
#X obj 150 75 inlet;
#X msg 200 109 1 50;
#X obj 237 109 del 50;
#X msg 237 137 0 100;
#X connect 0 0 9 0;
#X connect 0 0 10 0;
#X connect 2 0 3 0;
#X connect 3 0 4 0;
#X connect 4 0 5 0;
#X connect 5 0 1 0;
#X connect 6 0 2 0;
#X connect 7 0 5 1;
#X connect 8 0 6 0;
#X connect 9 0 7 0;
#X connect 10 0 11 0;
#X connect 11 0 7 0;
#X coords 0 -1 1 1 85 60 1 100 100;
#X restore 756 367 pd Voce;
#N canvas 344 165 450 300 Voce 0;
#X obj 200 75 inlet;
#X obj 150 281 outlet~;
#X obj 150 171 mtof;
#X obj 150 200 sig~;
#X obj 150 225 osc~;
#X obj 150 253 *~;
#X floatatom 150 135 5 0 0 0 - - -;
#X obj 200 228 line~;
#X obj 150 75 inlet;
#X msg 200 109 1 50;
#X obj 237 109 del 50;
#X msg 237 137 0 100;
#X connect 0 0 9 0;
#X connect 0 0 10 0;
#X connect 2 0 3 0;
#X connect 3 0 4 0;
#X connect 4 0 5 0;
#X connect 5 0 1 0;
#X connect 6 0 2 0;
#X connect 7 0 5 1;
#X connect 8 0 6 0;
#X connect 9 0 7 0;
#X connect 10 0 11 0;
#X connect 11 0 7 0;
#X coords 0 -1 1 1 85 60 1 100 100;
#X restore 846 367 pd Voce;
#X obj 846 218 random 24;
#X obj 846 242 + 60;
#X msg 835 51 208;
#N canvas 0 0 450 300 (subpatch) 0;
#X array array1 4410 float 0;
#X coords 0 1 4409 -1 100 70 1 0 0;
#X restore 209 446 graph;
#X connect 1 0 5 0;
#X connect 2 0 4 0;
#X connect 3 0 1 1;
#X connect 3 0 10 0;
#X connect 4 0 3 0;
#X connect 5 0 18 0;
#X connect 5 0 30 0;
#X connect 6 0 23 1;
#X connect 6 0 33 1;
#X connect 7 0 15 0;
#X connect 7 0 43 0;
#X connect 8 0 23 0;
#X connect 9 0 8 0;
#X connect 9 0 1 0;
#X connect 10 0 6 0;
#X connect 11 3 13 0;
#X connect 12 0 11 0;
#X connect 13 0 14 0;
#X connect 14 0 43 0;
#X connect 15 0 16 0;
#X connect 15 0 20 0;
#X connect 16 0 39 1;
#X connect 16 1 40 1;
#X connect 16 2 41 1;
#X connect 16 3 42 1;
#X connect 17 0 35 1;
#X connect 17 1 36 1;
#X connect 17 2 37 1;
#X connect 17 3 38 1;
#X connect 18 0 17 0;
#X connect 19 0 39 0;
#X connect 19 1 40 0;
#X connect 19 2 41 0;
#X connect 19 3 42 0;
#X connect 20 0 19 0;
#X connect 21 0 0 0;
#X connect 21 0 45 0;
#X connect 21 0 12 0;
#X connect 22 0 35 0;
#X connect 22 1 36 0;
#X connect 22 2 37 0;
#X connect 22 3 38 0;
#X connect 23 0 7 0;
#X connect 24 0 25 0;
#X connect 25 0 29 0;
#X connect 25 1 29 1;
#X connect 25 2 29 2;
#X connect 26 0 27 0;
#X connect 27 0 24 0;
#X connect 28 0 26 0;
#X connect 29 0 22 0;
#X connect 30 0 31 0;
#X connect 31 0 32 0;
#X connect 32 0 28 0;
#X connect 34 0 19 1;
#X connect 35 0 33 0;
#X connect 36 0 33 0;
#X connect 37 0 33 0;
#X connect 38 0 33 0;
#X connect 39 0 33 0;
#X connect 40 0 33 0;
#X connect 41 0 33 0;
#X connect 42 0 33 0;
#X connect 43 0 44 0;
#X connect 44 0 34 0;
#X connect 45 0 2 0;
