#N canvas 0 22 825 480 10;
#X declare -path z_blsynth_abs;
#N canvas 0 22 450 300 (subpatch) 0;
#X floatatom -5 55 5 0 0 0 - - -;
#X obj 4 5 knob 25 25 0 127 0 0 empty empty empty 0 -8 32 8 -1 -260097
-260097 0 1;
#X obj -20 89 *~;
#X obj -21 115 equal_power_pan~;
#X obj 39 8 hsl 128 20 0 1 0 1 empty empty pan_position 6 10 1 11 -262131
-1 -1 6900 0;
#X obj -83 9 inlet~;
#X obj -72 159 outlet~;
#X obj 47 168 outlet~;
#X obj 2 -31 inlet;
#X obj 85 -39 inlet;
#X obj -5 71 / 127;
#X connect 0 0 10 0;
#X connect 1 0 0 0;
#X connect 2 0 3 0;
#X connect 3 0 6 0;
#X connect 3 1 7 0;
#X connect 4 0 3 1;
#X connect 5 0 2 0;
#X connect 8 0 1 0;
#X connect 9 0 4 0;
#X connect 10 0 2 1;
#X coords 0 1 100 -1 175 40 1 0 0;
#X restore 18 589 graph;
#X obj 210 576 bl-init.mmb \$0;
#N canvas 0 22 450 300 (subpatch) 0;
#X obj 59 155 inlet;
#X obj 3 89 inlet~;
#X obj 58 182 change;
#X msg 60 246 set \$1;
#X obj 60 227 tosymbol;
#X obj 59 204 sprintf Bus%d;
#X obj 3 282 throw~ Bus0;
#X obj 2 3 popup 124 25 #ffffff popup Bus0 Bus1 Bus2 Bus3 Bus4 Bus5
Bus6 Bus7 Bus8 Bus9 Bus10 Bus11 Bus12 Bus13 Bus14 Bus15 Bus16;
#X obj 1 32 route bang;
#X obj 154 202 *~;
#X obj 141 7 tgl 15 0 empty empty Dac 19 7 0 10 -262144 -1 -1 0 1;
#X obj 155 238 dac~;
#X obj 1 -41 loadbang;
#X text 59 -43 Bus0 mutes;
#X msg 1 -23 options Bus0 Bus1 Bus2 Bus3 Bus4 Bus5 Bus6 Bus7 Bus8 Bus9
Bus10 Bus11 Bus12 Bus13 Bus14 Bus15 Bus16;
#X connect 0 0 2 0;
#X connect 1 0 6 0;
#X connect 1 0 9 0;
#X connect 2 0 5 0;
#X connect 3 0 6 0;
#X connect 4 0 3 0;
#X connect 5 0 4 0;
#X connect 7 0 8 0;
#X connect 8 1 2 0;
#X connect 9 0 11 0;
#X connect 10 0 9 1;
#X connect 12 0 14 0;
#X connect 14 0 7 0;
#X coords 0 1 100 -1 180 30 1 0 0;
#X restore 18 633 graph;
#N canvas 0 22 450 300 (subpatch) 0;
#X obj 59 155 inlet;
#X obj 3 89 inlet~;
#X obj 58 182 change;
#X msg 60 246 set \$1;
#X obj 60 227 tosymbol;
#X obj 59 204 sprintf Bus%d;
#X obj 3 282 throw~ Bus0;
#X obj 2 3 popup 124 25 #ffffff popup Bus0 Bus1 Bus2 Bus3 Bus4 Bus5
Bus6 Bus7 Bus8 Bus9 Bus10 Bus11 Bus12 Bus13 Bus14 Bus15 Bus16;
#X obj 1 32 route bang;
#X obj 154 202 *~;
#X obj 141 7 tgl 15 0 empty empty Dac 19 7 0 10 -262144 -1 -1 0 1;
#X obj 155 238 dac~;
#X obj 1 -41 loadbang;
#X text 59 -43 Bus0 mutes;
#X msg 1 -23 options Bus0 Bus1 Bus2 Bus3 Bus4 Bus5 Bus6 Bus7 Bus8 Bus9
Bus10 Bus11 Bus12 Bus13 Bus14 Bus15 Bus16;
#X connect 0 0 2 0;
#X connect 1 0 6 0;
#X connect 1 0 9 0;
#X connect 2 0 5 0;
#X connect 3 0 6 0;
#X connect 4 0 3 0;
#X connect 5 0 4 0;
#X connect 7 0 8 0;
#X connect 8 1 2 0;
#X connect 9 0 11 1;
#X connect 10 0 9 1;
#X connect 12 0 14 0;
#X connect 14 0 7 0;
#X coords 0 1 100 -1 180 30 1 0 0;
#X restore 198 632 graph;
#X obj 209 599 declare -path z_blsynth_abs;
#X obj -37 510 notein;
#X floatatom 18 551 5 0 0 0 - - -;
#X floatatom 50 551 5 0 0 0 - - -;
#X floatatom 97 518 5 0 0 0 - - -;
#X floatatom 140 518 5 0 0 0 - - -;
#X floatatom 97 551 5 0 0 0 - - -;
#X floatatom 140 551 5 0 0 0 - - -;
#N canvas 0 22 450 300 (subpatch) 0;
#X obj -30 22 spigot;
#X obj 2 3 tgl 15 0 empty empty empty 17 7 0 10 -262144 -1 -1 0 1;
#X obj -58 0 inlet;
#X obj -54 54 outlet;
#X connect 0 0 3 0;
#X connect 1 0 0 1;
#X connect 2 0 0 0;
#X coords 0 1 100 -1 20 20 1 0 0;
#X restore 18 509 graph;
#N canvas 0 22 450 300 (subpatch) 0;
#X obj -30 22 spigot;
#X obj 2 3 tgl 15 0 empty empty empty 17 7 0 10 -262144 -1 -1 0 1;
#X obj -58 0 inlet;
#X obj -54 54 outlet;
#X connect 0 0 3 0;
#X connect 1 0 0 1;
#X connect 2 0 0 0;
#X coords 0 1 100 -1 20 20 1 0 0;
#X restore 50 509 graph;
#N canvas 0 22 450 300 (subpatch) 0;
#X obj -30 22 spigot;
#X obj 2 3 tgl 15 0 empty empty empty 17 7 0 10 -262144 -1 -1 0 1;
#X obj -58 0 inlet;
#X obj -54 54 outlet;
#X connect 0 0 3 0;
#X connect 1 0 0 1;
#X connect 2 0 0 0;
#X coords 0 1 100 -1 20 20 1 0 0;
#X restore -37 531 graph;
#N canvas 0 22 450 300 (subpatch) 0;
#X obj -30 22 spigot;
#X obj 2 3 tgl 15 0 empty empty empty 17 7 0 10 -262144 -1 -1 0 1;
#X obj -58 0 inlet;
#X obj -54 54 outlet;
#X connect 0 0 3 0;
#X connect 1 0 0 1;
#X connect 2 0 0 0;
#X coords 0 1 100 -1 20 20 1 0 0;
#X restore -17 531 graph;
#X obj 140 489 knob 25 25 0 127 0 0 empty empty empty 0 -8 32 8 -1
-260097 -260097 0 1;
#X obj 97 489 knob 25 25 0 127 0 0 empty empty empty 0 -8 32 8 -1 -260097
-260097 0 1;
#N canvas 0 22 450 300 (subpatch) 0;
#X obj -30 22 spigot;
#X obj 2 3 tgl 15 0 empty empty empty 17 7 0 10 -262144 -1 -1 0 1;
#X obj -58 0 inlet;
#X obj -54 54 outlet;
#X connect 0 0 3 0;
#X connect 1 0 0 1;
#X connect 2 0 0 0;
#X coords 0 1 100 -1 20 20 1 0 0;
#X restore 97 466 graph;
#N canvas 0 22 450 300 (subpatch) 0;
#X obj -30 22 spigot;
#X obj 2 3 tgl 15 0 empty empty empty 17 7 0 10 -262144 -1 -1 0 1;
#X obj -58 0 inlet;
#X obj -54 54 outlet;
#X connect 0 0 3 0;
#X connect 1 0 0 1;
#X connect 2 0 0 0;
#X coords 0 1 100 -1 20 20 1 0 0;
#X restore 140 466 graph;
#X obj 141 442 ctlin 2;
#X obj 98 421 ctlin 1;
#X text 154 420 <-- peak position;
#X text 193 441 Compare;
#X obj 19 381 r note;
#X obj 51 401 r vel;
#X obj 97 534 / 1;
#X obj 140 534 / 127;
#N canvas 0 22 633 532 Pulse 0;
#X obj 138 292 mtof;
#X obj 138 376 line~;
#X floatatom 187 309 0 0 0 0 - - -;
#X floatatom 138 269 5 0 0 0 - - -;
#X obj 138 595 lin-xfade.mmb~;
#X obj 251 575 hsl 128 15 0 1 0 0 empty empty empty -2 -8 0 10 -262144
-1 -1 0 1;
#X msg 340 472 0;
#X obj 187 352 /;
#X floatatom 187 375 0 0 0 0 - - -;
#X msg 187 332 22050 \$1;
#X msg 138 321 \$1 200;
#X text 178 270 MIDI note number;
#X text 237 308 frequency;
#X text 231 377 harmonics;
#X text 370 472 sync phases;
#X text 393 575 <-- move this slider to compare;
#X floatatom 246 417 5 0 100 1 - #0-pulse.width -;
#X obj 246 437 / 100;
#X obj 246 460 sig~;
#X text 244 559 bl-asymtri;
#X text 320 559 perfect asymtri;
#X text 279 417 <-- peak position;
#X obj 138 243 inlet;
#X obj 281 385 inlet;
#X obj 379 508 inlet;
#X obj 142 640 outlet~;
#X obj 132 512 bl-pulse.mmb~ \$0;
#N canvas 0 22 370 308 perfectpulse 0;
#X obj 109 75 inlet~;
#X obj 169 75 inlet~;
#X obj 239 75 inlet;
#X obj 109 126 vphasor.mmb~;
#X obj 220 159 clip~ 0 1;
#X obj 109 213 outlet~;
#X obj 108 183 expr~ ($v1>$v2) * -2 + 1;
#X connect 0 0 3 0;
#X connect 1 0 4 0;
#X connect 2 0 3 1;
#X connect 3 0 6 0;
#X connect 4 0 6 1;
#X connect 6 0 5 0;
#X restore 247 512 pd perfectpulse;
#X connect 0 0 10 0;
#X connect 0 0 2 0;
#X connect 1 0 26 0;
#X connect 1 0 27 0;
#X connect 2 0 9 0;
#X connect 3 0 0 0;
#X connect 4 0 25 0;
#X connect 5 0 4 2;
#X connect 6 0 26 2;
#X connect 6 0 27 2;
#X connect 7 0 8 0;
#X connect 9 0 7 0;
#X connect 10 0 1 0;
#X connect 16 0 17 0;
#X connect 17 0 18 0;
#X connect 18 0 26 1;
#X connect 18 0 27 1;
#X connect 22 0 3 0;
#X connect 23 0 17 0;
#X connect 24 0 5 0;
#X connect 26 0 4 0;
#X connect 27 0 4 1;
#X restore 18 571 pd Pulse;
#X connect 0 0 2 0;
#X connect 0 1 3 0;
#X connect 5 0 14 0;
#X connect 5 1 15 0;
#X connect 6 0 28 0;
#X connect 7 0 0 1;
#X connect 8 0 26 0;
#X connect 9 0 27 0;
#X connect 10 0 28 1;
#X connect 11 0 28 2;
#X connect 12 0 6 0;
#X connect 13 0 7 0;
#X connect 14 0 6 0;
#X connect 15 0 7 0;
#X connect 16 0 9 0;
#X connect 17 0 8 0;
#X connect 18 0 17 0;
#X connect 19 0 16 0;
#X connect 20 0 19 0;
#X connect 21 0 18 0;
#X connect 24 0 12 0;
#X connect 25 0 13 0;
#X connect 26 0 10 0;
#X connect 27 0 11 0;
#X connect 28 0 0 0;
