#N canvas 117 22 544 490 10;
#X declare -path z_d-mostro_abs;
#N canvas 44 52 485 466 d-mostro 0;
#N canvas 5 188 820 338 d-adsr------------------------------ 0;
#N canvas 0 22 634 567 vadsr~ 0;
#X obj 189 504 outlet~;
#X obj 109 5 inlet;
#X obj 95 187 line~;
#X obj 326 191 line~;
#X obj 205 188 line~;
#X obj 189 416 *~;
#X obj 189 440 *~;
#X obj 119 153 pack f f;
#X obj 192 153 pack f f;
#X obj 320 157 pack f f;
#X obj 212 71 unpack f f f f;
#X msg 271 154 1;
#X msg 67 148 1;
#X msg 367 119 0;
#X obj 192 108 del;
#X msg 192 131 0;
#X obj 205 368 +~;
#X obj 221 270 expr 1 - $f1;
#X obj 205 344 *~;
#X msg 152 80 bang;
#X obj 67 91 t b b b;
#X obj 93 487 snapshot~;
#X msg 119 132 0;
#X obj 93 378 +~;
#X obj 22 296 expr 1 - $f1;
#X obj 93 355 *~;
#X text 410 19 analog-style envelope generator;
#X msg 358 301 <attack> <decay> <sustain> <release>;
#X text 346 281 to set up:;
#X text 349 371 attack:;
#X msg 420 368 a;
#X text 350 397 release:;
#X msg 420 394 r;
#X text 372 493 Ben Saylor <bsaylor@macalester.edu>;
#X text 357 320 (times are in ms \, sustain level is 0..1);
#X obj 19 148 s \$0-a;
#X obj 159 58 s \$0-r;
#X obj 367 96 r \$0-r;
#X obj 271 132 r \$0-a;
#X obj 93 461 r \$0-snap;
#X obj 121 111 s \$0-snap;
#X obj 240 32 pack \$1 \$2 \$3 \$4;
#X obj 240 7 loadbang;
#X text 356 343 (or give as creation args);
#X obj 337 232 expr~ pow($v1 \, $v2);
#X obj 205 244 expr~ pow($v1 \, $v2);
#X obj 109 28 route a r curves;
#X obj 465 207 sig~ 4;
#X obj 289 208 sig~ 4;
#X obj 145 211 sig~ 4;
#X obj 432 100 unpack f f f;
#X msg 352 421 curves <attack> <decay> <release>;
#X text 364 444 higher values -> more curved;
#X text 388 461 (default is 4 4 4);
#X obj 8 257 expr~ pow($v1 \, $v2) * -1 + 1;
#X text 372 515 mod by dondo (2006);
#X obj 234 349 vline~;
#X msg 234 328 \$1 10;
#X obj 221 319 vline~;
#X msg 221 298 \$1 10;
#X connect 1 0 46 0;
#X connect 2 0 54 0;
#X connect 3 0 44 0;
#X connect 4 0 45 0;
#X connect 5 0 6 0;
#X connect 6 0 0 0;
#X connect 6 0 21 0;
#X connect 7 0 2 0;
#X connect 8 0 4 0;
#X connect 9 0 3 0;
#X connect 10 0 7 1;
#X connect 10 0 14 1;
#X connect 10 1 8 1;
#X connect 10 2 17 0;
#X connect 10 2 57 0;
#X connect 10 3 9 1;
#X connect 11 0 3 0;
#X connect 11 0 4 0;
#X connect 12 0 2 0;
#X connect 13 0 9 0;
#X connect 14 0 15 0;
#X connect 15 0 8 0;
#X connect 16 0 5 1;
#X connect 17 0 59 0;
#X connect 18 0 16 0;
#X connect 19 0 14 0;
#X connect 20 0 22 0;
#X connect 20 0 35 0;
#X connect 20 1 12 0;
#X connect 20 2 40 0;
#X connect 21 0 23 1;
#X connect 21 0 24 0;
#X connect 22 0 7 0;
#X connect 23 0 5 0;
#X connect 24 0 25 1;
#X connect 25 0 23 0;
#X connect 37 0 13 0;
#X connect 38 0 11 0;
#X connect 39 0 21 0;
#X connect 41 0 10 0;
#X connect 42 0 41 0;
#X connect 44 0 6 1;
#X connect 45 0 18 0;
#X connect 46 0 19 0;
#X connect 46 0 20 0;
#X connect 46 1 36 0;
#X connect 46 2 50 0;
#X connect 46 3 10 0;
#X connect 47 0 44 1;
#X connect 48 0 45 1;
#X connect 49 0 54 1;
#X connect 50 0 49 0;
#X connect 50 1 48 0;
#X connect 50 2 47 0;
#X connect 54 0 25 0;
#X connect 56 0 16 1;
#X connect 57 0 56 0;
#X connect 58 0 18 1;
#X connect 59 0 58 0;
#X restore 177 244 pd vadsr~;
#X msg 399 207 curves \$1 \$2 \$3;
#X obj 399 173 pack f f f;
#X obj 399 141 f;
#X msg 579 100 bang;
#X obj 39 143 pack f f f f;
#X obj 39 115 f;
#X msg 309 113 bang;
#X text 465 37 ------curves------;
#X text 130 37 --a-----d----s-----r---;
#X text -102 35 ---note-on-off---;
#X obj -31 55 inlet;
#X obj -71 55 inlet;
#X msg -71 153 a;
#X msg -36 154 r;
#X obj -58 118 sel 1 0;
#X obj -71 92 sel bang;
#X msg -5 91 bang;
#X obj 177 275 outlet~;
#X obj 128 106 line;
#X msg 128 83 \$1 100;
#X obj 39 55 r m-a;
#X obj 129 55 r m-d;
#X obj 219 55 r m-s;
#X obj 309 55 r m-r;
#X obj 399 55 r m-ca;
#X obj 489 55 r m-cd;
#X obj 578 54 r m-cr;
#X connect 0 0 18 0;
#X connect 1 0 0 0;
#X connect 2 0 1 0;
#X connect 3 0 2 0;
#X connect 4 0 3 0;
#X connect 5 0 0 0;
#X connect 6 0 5 0;
#X connect 7 0 6 0;
#X connect 11 0 17 0;
#X connect 12 0 15 0;
#X connect 12 0 16 0;
#X connect 13 0 0 0;
#X connect 14 0 0 0;
#X connect 15 0 13 0;
#X connect 15 1 14 0;
#X connect 16 0 13 0;
#X connect 17 0 14 0;
#X connect 19 0 5 2;
#X connect 19 0 7 0;
#X connect 20 0 19 0;
#X connect 21 0 6 0;
#X connect 22 0 5 1;
#X connect 22 0 7 0;
#X connect 23 0 20 0;
#X connect 24 0 5 3;
#X connect 24 0 7 0;
#X connect 25 0 3 0;
#X connect 26 0 2 1;
#X connect 26 0 4 0;
#X connect 27 0 2 2;
#X connect 27 0 4 0;
#X restore 127 258 pd d-adsr------------------------------;
#N canvas 194 336 830 300 grapolarization-level-1 0;
#X obj 221 -33 inlet;
#X obj 271 34 +;
#X obj 271 64 *;
#X obj 271 94 +;
#X obj 321 34 +;
#X obj 321 64 *;
#X obj 321 94 +;
#X obj 171 34 -;
#X obj 171 64 /;
#X obj 171 94 -;
#X obj 121 34 -;
#X obj 121 64 /;
#X obj 121 94 -;
#X obj 121 182 outlet;
#X obj 171 182 outlet;
#X obj 221 182 outlet;
#X obj 271 182 outlet;
#X obj 321 182 outlet;
#X obj 271 -33 r m-radd1;
#X obj 381 -33 r m-mul1;
#X obj 491 -33 r m-aadd1;
#X connect 0 0 1 0;
#X connect 0 0 7 0;
#X connect 0 0 15 0;
#X connect 1 0 2 0;
#X connect 2 0 3 0;
#X connect 3 0 4 0;
#X connect 3 0 16 0;
#X connect 4 0 5 0;
#X connect 5 0 6 0;
#X connect 6 0 17 0;
#X connect 7 0 8 0;
#X connect 8 0 9 0;
#X connect 9 0 10 0;
#X connect 9 0 14 0;
#X connect 10 0 11 0;
#X connect 11 0 12 0;
#X connect 12 0 13 0;
#X connect 18 0 10 1;
#X connect 18 0 7 1;
#X connect 18 0 1 1;
#X connect 18 0 4 1;
#X connect 19 0 11 1;
#X connect 19 0 8 1;
#X connect 19 0 2 1;
#X connect 19 0 5 1;
#X connect 20 0 12 1;
#X connect 20 0 9 1;
#X connect 20 0 3 1;
#X connect 20 0 6 1;
#X restore 113 127 pd grapolarization-level-1;
#N canvas 142 80 882 485 grapolarization-level-2 0;
#X obj -19 -33 inlet;
#X obj 31 34 +;
#X obj 31 64 *;
#X obj 31 94 +;
#X obj -69 34 -;
#X obj -69 64 /;
#X obj -69 94 -;
#X obj 31 -33 r radd2;
#X obj 91 -33 r mul2;
#X obj 151 -33 r aadd2;
#X obj -69 182 osc~;
#X obj -19 182 osc~;
#X obj 31 182 osc~;
#X obj -20 248 outlet~;
#X obj 211 -33 inlet;
#X obj 261 34 +;
#X obj 261 64 *;
#X obj 261 94 +;
#X obj 161 34 -;
#X obj 161 64 /;
#X obj 161 94 -;
#X obj 261 -33 r radd2;
#X obj 321 -33 r mul2;
#X obj 381 -33 r aadd2;
#X obj 161 182 osc~;
#X obj 211 182 osc~;
#X obj 261 182 osc~;
#X obj 210 248 outlet~;
#X obj 441 -33 inlet;
#X obj 491 34 +;
#X obj 491 64 *;
#X obj 491 94 +;
#X obj 391 34 -;
#X obj 391 64 /;
#X obj 391 94 -;
#X obj 491 -33 r radd2;
#X obj 551 -33 r mul2;
#X obj 611 -33 r aadd2;
#X obj 391 182 osc~;
#X obj 441 182 osc~;
#X obj 491 182 osc~;
#X obj 440 248 outlet~;
#X obj 681 -33 inlet;
#X obj 731 34 +;
#X obj 731 64 *;
#X obj 731 94 +;
#X obj 631 34 -;
#X obj 631 64 /;
#X obj 631 94 -;
#X obj 731 -33 r radd2;
#X obj 791 -33 r mul2;
#X obj 851 -33 r aadd2;
#X obj 631 182 osc~;
#X obj 681 182 osc~;
#X obj 731 182 osc~;
#X obj 680 248 outlet~;
#X obj 911 -33 inlet;
#X obj 961 34 +;
#X obj 961 64 *;
#X obj 961 94 +;
#X obj 861 34 -;
#X obj 861 64 /;
#X obj 861 94 -;
#X obj 961 -33 r radd2;
#X obj 1021 -33 r mul2;
#X obj 1081 -33 r aadd2;
#X obj 861 182 osc~;
#X obj 911 182 osc~;
#X obj 961 182 osc~;
#X obj 910 248 outlet~;
#X obj 701 337 s aadd2;
#X obj 591 337 s mul2;
#X obj 481 337 s radd2;
#X obj 481 287 r m-radd2;
#X obj 591 287 r m-mul2;
#X obj 701 287 r m-aadd2;
#X connect 0 0 1 0;
#X connect 0 0 4 0;
#X connect 0 0 11 0;
#X connect 1 0 2 0;
#X connect 2 0 3 0;
#X connect 3 0 12 0;
#X connect 4 0 5 0;
#X connect 5 0 6 0;
#X connect 6 0 10 0;
#X connect 7 0 4 1;
#X connect 7 0 1 1;
#X connect 8 0 5 1;
#X connect 8 0 2 1;
#X connect 9 0 6 1;
#X connect 9 0 3 1;
#X connect 10 0 13 0;
#X connect 11 0 13 0;
#X connect 12 0 13 0;
#X connect 14 0 15 0;
#X connect 14 0 18 0;
#X connect 14 0 25 0;
#X connect 15 0 16 0;
#X connect 16 0 17 0;
#X connect 17 0 26 0;
#X connect 18 0 19 0;
#X connect 19 0 20 0;
#X connect 20 0 24 0;
#X connect 21 0 18 1;
#X connect 21 0 15 1;
#X connect 22 0 19 1;
#X connect 22 0 16 1;
#X connect 23 0 20 1;
#X connect 23 0 17 1;
#X connect 24 0 27 0;
#X connect 25 0 27 0;
#X connect 26 0 27 0;
#X connect 28 0 29 0;
#X connect 28 0 32 0;
#X connect 28 0 39 0;
#X connect 29 0 30 0;
#X connect 30 0 31 0;
#X connect 31 0 40 0;
#X connect 32 0 33 0;
#X connect 33 0 34 0;
#X connect 34 0 38 0;
#X connect 35 0 32 1;
#X connect 35 0 29 1;
#X connect 36 0 33 1;
#X connect 36 0 30 1;
#X connect 37 0 34 1;
#X connect 37 0 31 1;
#X connect 38 0 41 0;
#X connect 39 0 41 0;
#X connect 40 0 41 0;
#X connect 42 0 43 0;
#X connect 42 0 46 0;
#X connect 42 0 53 0;
#X connect 43 0 44 0;
#X connect 44 0 45 0;
#X connect 45 0 54 0;
#X connect 46 0 47 0;
#X connect 47 0 48 0;
#X connect 48 0 52 0;
#X connect 49 0 46 1;
#X connect 49 0 43 1;
#X connect 50 0 47 1;
#X connect 50 0 44 1;
#X connect 51 0 48 1;
#X connect 51 0 45 1;
#X connect 52 0 55 0;
#X connect 53 0 55 0;
#X connect 54 0 55 0;
#X connect 56 0 57 0;
#X connect 56 0 60 0;
#X connect 56 0 67 0;
#X connect 57 0 58 0;
#X connect 58 0 59 0;
#X connect 59 0 68 0;
#X connect 60 0 61 0;
#X connect 61 0 62 0;
#X connect 62 0 66 0;
#X connect 63 0 60 1;
#X connect 63 0 57 1;
#X connect 64 0 61 1;
#X connect 64 0 58 1;
#X connect 65 0 62 1;
#X connect 65 0 59 1;
#X connect 66 0 69 0;
#X connect 67 0 69 0;
#X connect 68 0 69 0;
#X connect 73 0 72 0;
#X connect 74 0 71 0;
#X connect 75 0 70 0;
#X restore 113 169 pd grapolarization-level-2;
#X obj 112 283 *~;
#X obj 113 52 unpack f f f;
#X obj 112 363 *~;
#X msg 77 213 1;
#X msg 395 127 bang;
#X obj 439 128 * 1000;
#X obj 395 155 del 500;
#X obj 129 335 vline~;
#X msg 129 309 \$1 5;
#X msg 223 234 game-over!;
#N canvas 48 40 806 587 displays 0;
#X obj 14 97 s m-d1;
#X msg 14 72 label \$1;
#X obj 14 50 makefilename %d;
#X msg 124 72 label \$1;
#X obj 124 50 makefilename %d;
#X obj 124 97 s m-d3;
#X msg 14 182 label \$1;
#X obj 14 160 makefilename %d;
#X msg 124 182 label \$1;
#X obj 124 160 makefilename %d;
#X obj 14 207 s m-d4;
#X obj 124 207 s m-d6;
#X msg 14 292 label \$1;
#X obj 14 270 makefilename %d;
#X msg 124 292 label \$1;
#X obj 124 270 makefilename %d;
#X msg 14 442 label \$1;
#X obj 14 420 makefilename %d;
#X msg 124 442 label \$1;
#X obj 124 420 makefilename %d;
#X obj 14 317 s m-d7;
#X obj 124 317 s m-d9;
#X obj 14 467 s m-d10;
#X obj 124 467 s m-d12;
#X msg 264 92 label \$1;
#X obj 264 70 makefilename %d;
#X obj 264 46 * 1000;
#X msg 264 212 label \$1;
#X obj 264 190 makefilename %d;
#X obj 264 166 * 1000;
#X msg 264 332 label \$1;
#X obj 264 310 makefilename %d;
#X obj 264 286 * 1000;
#X msg 264 452 label \$1;
#X obj 264 430 makefilename %d;
#X obj 264 406 * 1000;
#X msg 408 73 label \$1;
#X obj 408 51 makefilename %d;
#X msg 408 204 label \$1;
#X obj 408 182 makefilename %d;
#X msg 540 74 label \$1;
#X obj 540 52 makefilename %d;
#X msg 540 184 label \$1;
#X obj 540 162 makefilename %d;
#X obj 264 117 s m-d2;
#X obj 264 237 s m-d5;
#X obj 264 357 s m-d8;
#X obj 264 477 s m-d11;
#X obj 408 98 s m-d13;
#X obj 408 155 * 1000;
#X obj 408 229 s m-d14;
#X obj 540 99 s m-d15;
#X obj 540 209 s m-d16;
#X msg 540 324 label \$1;
#X obj 540 302 makefilename %d;
#X msg 540 434 label \$1;
#X obj 540 412 makefilename %d;
#X obj 540 349 s m-d17;
#X obj 540 459 s m-d18;
#X obj 540 272 * 100;
#X msg 680 104 label \$1;
#X obj 680 82 makefilename %d;
#X obj 680 129 s m-d19;
#X obj 680 51 * 100;
#X msg 680 244 label \$1;
#X obj 680 222 makefilename %d;
#X obj 680 191 * 100;
#X msg 680 384 label \$1;
#X obj 680 362 makefilename %d;
#X obj 680 331 * 100;
#X obj 680 269 s m-d20;
#X obj 680 409 s m-d21;
#X obj 14 383 * 100;
#X obj 124 383 * 100;
#X msg 679 490 label \$1;
#X obj 679 468 makefilename %d;
#X obj 679 515 s m-d22;
#X obj 14 20 r m-radd1;
#X obj 124 20 r m-aadd1;
#X obj 264 20 r m-mul1;
#X obj 408 21 r m-freq-base;
#X obj 540 22 r m-a;
#X obj 680 22 r m-ca;
#X obj 14 130 r m-radd2;
#X obj 124 130 r m-aadd2;
#X obj 264 140 r m-mul2;
#X obj 408 122 r m-q-base;
#X obj 540 132 r m-d;
#X obj 680 162 r m-cd;
#X obj 14 240 r m-radd3;
#X obj 124 239 r m-aadd3;
#X obj 264 260 r m-mul3;
#X obj 540 242 r m-s;
#X obj 680 302 r m-cr;
#X obj 540 382 r m-r;
#X obj 679 437 r m-fi;
#X obj 264 380 r m-mul4;
#X obj 124 350 r m-aadd4;
#X obj 14 350 r m-radd4;
#X connect 1 0 0 0;
#X connect 2 0 1 0;
#X connect 3 0 5 0;
#X connect 4 0 3 0;
#X connect 6 0 10 0;
#X connect 7 0 6 0;
#X connect 8 0 11 0;
#X connect 9 0 8 0;
#X connect 12 0 20 0;
#X connect 13 0 12 0;
#X connect 14 0 21 0;
#X connect 15 0 14 0;
#X connect 16 0 22 0;
#X connect 17 0 16 0;
#X connect 18 0 23 0;
#X connect 19 0 18 0;
#X connect 24 0 44 0;
#X connect 25 0 24 0;
#X connect 26 0 25 0;
#X connect 27 0 45 0;
#X connect 28 0 27 0;
#X connect 29 0 28 0;
#X connect 30 0 46 0;
#X connect 31 0 30 0;
#X connect 32 0 31 0;
#X connect 33 0 47 0;
#X connect 34 0 33 0;
#X connect 35 0 34 0;
#X connect 36 0 48 0;
#X connect 37 0 36 0;
#X connect 38 0 50 0;
#X connect 39 0 38 0;
#X connect 40 0 51 0;
#X connect 41 0 40 0;
#X connect 42 0 52 0;
#X connect 43 0 42 0;
#X connect 49 0 39 0;
#X connect 53 0 57 0;
#X connect 54 0 53 0;
#X connect 55 0 58 0;
#X connect 56 0 55 0;
#X connect 59 0 54 0;
#X connect 60 0 62 0;
#X connect 61 0 60 0;
#X connect 63 0 61 0;
#X connect 64 0 70 0;
#X connect 65 0 64 0;
#X connect 66 0 65 0;
#X connect 67 0 71 0;
#X connect 68 0 67 0;
#X connect 69 0 68 0;
#X connect 72 0 17 0;
#X connect 73 0 19 0;
#X connect 74 0 76 0;
#X connect 75 0 74 0;
#X connect 77 0 2 0;
#X connect 78 0 4 0;
#X connect 79 0 26 0;
#X connect 80 0 37 0;
#X connect 81 0 41 0;
#X connect 82 0 63 0;
#X connect 83 0 7 0;
#X connect 84 0 9 0;
#X connect 85 0 29 0;
#X connect 86 0 49 0;
#X connect 87 0 43 0;
#X connect 88 0 66 0;
#X connect 89 0 13 0;
#X connect 90 0 15 0;
#X connect 91 0 32 0;
#X connect 92 0 59 0;
#X connect 93 0 69 0;
#X connect 94 0 56 0;
#X connect 95 0 75 0;
#X connect 96 0 35 0;
#X connect 97 0 73 0;
#X connect 98 0 72 0;
#X restore 18 5 pd displays;
#N canvas 0 107 1069 533 grapolarization-level-3-4 0;
#X obj 172 8 inlet~;
#X obj 312 8 inlet~;
#X obj 452 8 inlet~;
#X obj 592 8 inlet~;
#X obj 732 8 inlet~;
#X obj 769 104 *;
#X obj 769 74 +;
#X obj 769 134 +;
#X obj 629 104 *;
#X obj 629 74 +;
#X obj 629 134 +;
#X obj 349 74 -;
#X obj 349 104 /;
#X obj 349 134 -;
#X obj 209 134 -;
#X obj 209 104 /;
#X obj 209 74 -;
#X obj 387 184 -;
#X obj 387 214 /;
#X obj 387 244 -;
#X obj 247 244 -;
#X obj 247 214 /;
#X obj 247 184 -;
#X obj 807 214 *;
#X obj 807 184 +;
#X obj 807 244 +;
#X obj 667 214 *;
#X obj 667 184 +;
#X obj 667 244 +;
#X obj 452 449 outlet~;
#X obj 489 -53 r m-freq-base;
#X obj 527 75 r m-q-base;
#X obj 171 350 bp2~ 600 0.5 3000;
#X obj 311 350 bp2~ 600 0.5 3000;
#X obj 451 350 bp2~ 600 0.5 3000;
#X obj 591 350 bp2~ 600 0.5 3000;
#X obj 731 350 bp2~ 600 0.5 3000;
#X obj 527 148 f;
#X obj 489 -18 f;
#X msg 820 -32 bang;
#X msg 885 109 bang;
#X obj 856 11 r m-radd3;
#X obj 972 11 r m-mul3;
#X obj 1081 11 r m-aadd3;
#X obj 856 151 r m-radd4;
#X obj 972 151 r m-mul4;
#X obj 1081 151 r m-aadd4;
#X obj 902 272 r m-fi;
#X connect 0 0 32 0;
#X connect 1 0 33 0;
#X connect 2 0 34 0;
#X connect 3 0 35 0;
#X connect 4 0 36 0;
#X connect 5 0 7 0;
#X connect 6 0 5 0;
#X connect 7 0 36 1;
#X connect 8 0 10 0;
#X connect 9 0 8 0;
#X connect 10 0 6 0;
#X connect 10 0 35 1;
#X connect 11 0 12 0;
#X connect 12 0 13 0;
#X connect 13 0 16 0;
#X connect 13 0 33 1;
#X connect 14 0 32 1;
#X connect 15 0 14 0;
#X connect 16 0 15 0;
#X connect 17 0 18 0;
#X connect 18 0 19 0;
#X connect 19 0 22 0;
#X connect 19 0 33 2;
#X connect 20 0 32 2;
#X connect 21 0 20 0;
#X connect 22 0 21 0;
#X connect 23 0 25 0;
#X connect 24 0 23 0;
#X connect 25 0 36 2;
#X connect 26 0 28 0;
#X connect 27 0 26 0;
#X connect 28 0 24 0;
#X connect 28 0 35 2;
#X connect 30 0 38 0;
#X connect 31 0 37 0;
#X connect 32 0 29 0;
#X connect 33 0 29 0;
#X connect 34 0 29 0;
#X connect 35 0 29 0;
#X connect 36 0 29 0;
#X connect 37 0 34 2;
#X connect 37 0 17 0;
#X connect 37 0 27 0;
#X connect 38 0 34 1;
#X connect 38 0 9 0;
#X connect 38 0 11 0;
#X connect 39 0 38 0;
#X connect 40 0 37 0;
#X connect 41 0 6 1;
#X connect 41 0 9 1;
#X connect 41 0 11 1;
#X connect 41 0 16 1;
#X connect 41 0 39 0;
#X connect 42 0 5 1;
#X connect 42 0 8 1;
#X connect 42 0 12 1;
#X connect 42 0 15 1;
#X connect 42 0 39 0;
#X connect 43 0 7 1;
#X connect 43 0 10 1;
#X connect 43 0 13 1;
#X connect 43 0 14 1;
#X connect 43 0 39 0;
#X connect 44 0 24 1;
#X connect 44 0 27 1;
#X connect 44 0 17 1;
#X connect 44 0 22 1;
#X connect 44 0 40 0;
#X connect 45 0 23 1;
#X connect 45 0 26 1;
#X connect 45 0 18 1;
#X connect 45 0 21 1;
#X connect 45 0 40 0;
#X connect 46 0 25 1;
#X connect 46 0 28 1;
#X connect 46 0 19 1;
#X connect 46 0 20 1;
#X connect 46 0 40 0;
#X connect 47 0 36 3;
#X connect 47 0 35 3;
#X connect 47 0 34 3;
#X connect 47 0 33 3;
#X connect 47 0 32 3;
#X restore 113 212 pd grapolarization-level-3-4;
#X obj 152 99 / 3;
#N canvas 0 22 450 300 jamx-labels 0;
#X obj 8 3 loadbang;
#X msg 8 26 volume note-time;
#X obj 8 48 s d-mostro-note_jx.c.label;
#X connect 0 0 1 0;
#X connect 1 0 2 0;
#X restore 316 397 pd jamx-labels;
#X obj 113 92 mtof;
#X obj 117 405 outlet~;
#X obj 113 -6 inlet;
#X obj 113 31 pack f f f;
#X obj 156 -4 inlet;
#X obj 201 -5 inlet;
#X connect 0 0 3 1;
#X connect 1 0 2 0;
#X connect 1 1 2 1;
#X connect 1 2 2 2;
#X connect 1 3 2 3;
#X connect 1 4 2 4;
#X connect 2 0 14 0;
#X connect 2 1 14 1;
#X connect 2 2 14 2;
#X connect 2 3 14 3;
#X connect 2 4 14 4;
#X connect 3 0 5 0;
#X connect 4 0 6 0;
#X connect 4 0 7 0;
#X connect 4 0 17 0;
#X connect 4 1 15 0;
#X connect 4 2 8 0;
#X connect 5 0 18 0;
#X connect 6 0 0 0;
#X connect 7 0 9 0;
#X connect 8 0 9 1;
#X connect 9 0 0 1;
#X connect 10 0 5 1;
#X connect 11 0 10 0;
#X connect 14 0 3 0;
#X connect 15 0 11 0;
#X connect 17 0 1 0;
#X connect 19 0 20 0;
#X connect 20 0 4 0;
#X connect 21 0 20 1;
#X connect 22 0 20 2;
#X restore 287 204 pd d-mostro;
#N canvas 380 144 333 522 parameters 0;
#X obj 6 7 netpd-fx \$0 m-radd1 m-radd1-r 0;
#X obj 6 47 netpd-fx \$0 m-aadd1 m-aadd1-r 0;
#X obj 6 77 netpd-fx \$0 m-radd2 m-radd2-r 0;
#X obj 6 27 netpd-fx \$0 m-mul1 m-mul1-r 1;
#X obj 6 97 netpd-fx \$0 m-mul2 m-mul2-r 1;
#X obj 6 117 netpd-fx \$0 m-aadd2 m-aadd2-r 0;
#X obj 6 147 netpd-fx \$0 m-radd3 m-radd3-r 0;
#X obj 6 167 netpd-fx \$0 m-mul3 m-mul3-r 1;
#X obj 6 187 netpd-fx \$0 m-aadd3 m-aadd3-r 0;
#X obj 6 237 netpd-fx \$0 m-mul4 m-mul4-r 1;
#X obj 6 257 netpd-fx \$0 m-aadd4 m-aadd4-r 0;
#X obj 6 217 netpd-fx \$0 m-radd4 m-radd4-r 0;
#X obj 6 277 netpd-fx \$0 m-freq-base m-freq-base-r 1000;
#X obj 6 297 netpd-fx \$0 m-q-base m-q-base-r 0.5;
#X obj 6 327 netpd-fx \$0 m-a m-a-r 20;
#X obj 6 347 netpd-fx \$0 m-d m-d-r 500;
#X obj 6 367 netpd-fx \$0 m-s m-s-r 0.3;
#X obj 6 387 netpd-fx \$0 m-r m-r-r 400;
#X obj 6 417 netpd-fx \$0 m-ca m-ca-r 4;
#X obj 6 437 netpd-fx \$0 m-cd m-cd-r 4;
#X obj 6 457 netpd-fx \$0 m-cr m-cr-r 4;
#X obj 235 342 loadbang;
#X obj 235 420 s m-d-r;
#X msg 235 382 500;
#X obj 6 487 netpd-fx \$0 m-fi m-fi-r 3000;
#X connect 21 0 23 0;
#X connect 23 0 22 0;
#X restore 224 -157 pd parameters;
#N canvas 629 65 183 140 abslist 0;
#X msg 59 24 jamx;
#X msg 59 45 i2mx~;
#X msg 59 66 mx_manager;
#X msg 59 88 pad;
#X restore 224 -136 pd abslist;
#X text 295 -32 Patch by dondo (2006);
#X text 247 -11 Clustered Additive Synthesis Engine;
#X msg 224 -115 version 0.1.1;
#X obj 224 -96 declare -path z_d-mostro_abs;
#X text 364 202 note amp decay;
#X obj 232 146 notein;
#X floatatom 287 187 5 0 0 0 - - -;
#X floatatom 319 187 5 0 0 0 - - -;
#X floatatom 366 154 5 0 0 0 - - -;
#X floatatom 366 187 5 0 0 0 - - -;
#X obj 366 170 / 127;
#N canvas 0 22 450 300 (subpatch) 0;
#X obj -30 22 spigot;
#X obj 2 3 tgl 15 0 empty empty empty 17 7 0 10 -262144 -1 -1 0 1;
#X obj -58 0 inlet;
#X obj -54 54 outlet;
#X connect 0 0 3 0;
#X connect 1 0 0 1;
#X connect 2 0 0 0;
#X coords 0 1 100 -1 20 20 1 0 0;
#X restore 287 145 graph;
#N canvas 0 22 450 300 (subpatch) 0;
#X obj -30 22 spigot;
#X obj 2 3 tgl 15 0 empty empty empty 17 7 0 10 -262144 -1 -1 0 1;
#X obj -58 0 inlet;
#X obj -54 54 outlet;
#X connect 0 0 3 0;
#X connect 1 0 0 1;
#X connect 2 0 0 0;
#X coords 0 1 100 -1 20 20 1 0 0;
#X restore 319 145 graph;
#N canvas 0 22 450 300 (subpatch) 0;
#X obj -30 22 spigot;
#X obj 2 3 tgl 15 0 empty empty empty 17 7 0 10 -262144 -1 -1 0 1;
#X obj -58 0 inlet;
#X obj -54 54 outlet;
#X connect 0 0 3 0;
#X connect 1 0 0 1;
#X connect 2 0 0 0;
#X coords 0 1 100 -1 20 20 1 0 0;
#X restore 232 167 graph;
#N canvas 0 22 450 300 (subpatch) 0;
#X obj -30 22 spigot;
#X obj 2 3 tgl 15 0 empty empty empty 17 7 0 10 -262144 -1 -1 0 1;
#X obj -58 0 inlet;
#X obj -54 54 outlet;
#X connect 0 0 3 0;
#X connect 1 0 0 1;
#X connect 2 0 0 0;
#X coords 0 1 100 -1 20 20 1 0 0;
#X restore 252 167 graph;
#X obj 287 43 r noteBanded;
#X obj 319 63 r velBanded;
#X obj 366 125 knob 25 25 0 127 0 0 empty empty empty 0 -8 32 8 -1
-260097 -260097 0 1;
#N canvas 0 22 450 300 (subpatch) 0;
#X obj -30 22 spigot;
#X obj 2 3 tgl 15 0 empty empty empty 17 7 0 10 -262144 -1 -1 0 1;
#X obj -58 0 inlet;
#X obj -54 54 outlet;
#X connect 0 0 3 0;
#X connect 1 0 0 1;
#X connect 2 0 0 0;
#X coords 0 1 100 -1 20 20 1 0 0;
#X restore 366 102 graph;
#X obj 366 83 ctlin 1;
#N canvas 0 22 450 300 (subpatch) 0;
#X obj 59 155 inlet;
#X obj 3 89 inlet~;
#X obj 58 182 change;
#X msg 60 246 set \$1;
#X obj 60 227 tosymbol;
#X obj 59 204 sprintf Bus%d;
#X obj 3 282 throw~ Bus0;
#X obj 2 3 popup 124 25 #ffffff popup Bus0 Bus1 Bus2 Bus3 Bus4 Bus5
;
#X obj 1 32 route bang;
#X obj 154 202 *~;
#X obj 141 7 tgl 15 0 empty empty Dac 19 7 0 10 -262144 -1 -1 0 1;
#X obj 155 238 dac~;
#X obj 2 -58 loadbang;
#X text 60 -60 Bus0 mutes;
#X msg 2 -40 options Bus0 Bus1 Bus2 Bus3 Bus4 Bus5 Bus6 Bus7 Bus8 Bus9
Bus10 Bus11 Bus12 Bus13 Bus14 Bus15 Bus16;
#X connect 0 0 2 0;
#X connect 1 0 6 0;
#X connect 1 0 9 0;
#X connect 2 0 5 0;
#X connect 3 0 6 0;
#X connect 4 0 3 0;
#X connect 5 0 4 0;
#X connect 7 0 8 0;
#X connect 8 1 2 0;
#X connect 9 0 11 0;
#X connect 9 0 11 1;
#X connect 10 0 9 1;
#X connect 12 0 14 0;
#X connect 14 0 7 0;
#X coords 0 1 100 -1 180 30 1 0 0;
#X restore 287 222 graph;
#N canvas 0 22 450 300 (subpatch) 0;
#X obj 2 3 cnv 15 210 420 empty empty d-mostro 12 12 0 20 -42246 -262144
0;
#X obj 22 28 hsl 128 15 0 300 0 0 m-radd1 m-radd1-r relative-adder
8 8 0 8 -1 -24198 -262144 0 1;
#X obj 22 45 hsl 128 15 0.618 1.618 0 0 m-mul1 m-mul1-r multiplier-demultiplier
8 8 0 8 -1 -24198 -262144 4851 1;
#X obj 154 28 cnv 15 50 15 empty m-d1 80 12 9 0 12 -1 -24198 0;
#X obj 154 45 cnv 15 50 15 empty m-d2 1618 9 9 0 12 -1 -24198 0;
#X obj 22 62 hsl 128 15 0 300 0 0 m-aadd1 m-aadd1-r absolute-adder
8 8 0 8 -1 -24198 -262144 0 1;
#X obj 22 82 hsl 128 15 0 300 0 0 m-radd2 m-radd2-r relative-adder
8 8 0 8 -1 -24198 -262144 0 1;
#X obj 22 99 hsl 128 15 0.618 1.618 0 0 m-mul2 m-mul2-r multiplier-demultiplier
8 8 0 8 -1 -24198 -262144 4851 1;
#X obj 22 116 hsl 128 15 0 300 0 0 m-aadd2 m-aadd2-r absolute-adder
8 8 0 8 -1 -24198 -262144 0 1;
#X obj 22 136 hsl 128 15 0 300 0 0 m-radd3 m-radd3-r relative-adder
8 8 0 8 -1 -24198 -262144 0 1;
#X obj 22 153 hsl 128 15 0.618 1.618 0 0 m-mul3 m-mul3-r multiplier-demultiplier
8 8 0 8 -1 -24198 -262144 4851 1;
#X obj 22 170 hsl 128 15 0 300 0 0 m-aadd3 m-aadd3-r absolute-adder
8 8 0 8 -1 -24198 -262144 0 1;
#X obj 22 207 hsl 128 15 0 10 0 0 m-radd4 m-radd4-r relative-adder
8 8 0 8 -1 -24198 -262144 0 1;
#X obj 22 224 hsl 128 15 0.618 1.618 0 0 m-mul4 m-mul4-r multiplier-demultiplier
8 8 0 8 -1 -24198 -262144 4851 1;
#X obj 22 241 hsl 128 15 0 10 0 0 m-aadd4 m-aadd4-r absolute-adder
8 8 0 8 -1 -24198 -262144 0 1;
#X obj 154 62 cnv 15 50 15 empty m-d3 61 12 9 0 12 -1 -24198 0;
#X obj 154 82 cnv 15 50 15 empty m-d4 0 12 9 0 12 -1 -24198 0;
#X obj 154 116 cnv 15 50 15 empty m-d6 0 12 9 0 12 -1 -24198 0;
#X obj 154 136 cnv 15 50 15 empty m-d7 0 12 9 0 12 -1 -24198 0;
#X obj 154 170 cnv 15 50 15 empty m-d9 0 12 9 0 12 -1 -24198 0;
#X obj 154 207 cnv 15 50 15 empty m-d10 0 12 9 0 12 -1 -24198 0;
#X obj 154 241 cnv 15 50 15 empty m-d12 275 12 9 0 12 -1 -24198 0;
#X obj 154 99 cnv 15 50 15 empty m-d5 787 9 9 0 12 -1 -24198 0;
#X obj 154 153 cnv 15 50 15 empty m-d8 637 9 9 0 12 -1 -24198 0;
#X obj 154 224 cnv 15 50 15 empty m-d11 716 9 9 0 12 -1 -24198 0;
#X obj 22 187 hsl 128 15 60 12000 0 0 m-freq-base m-freq-base-r base-frequency
8 8 0 8 -1 -24198 -262144 1000 1;
#X obj 154 187 cnv 15 50 15 empty m-d13 1940 8 9 0 12 -1 -24198 0;
#X obj 22 258 hsl 128 15 0.2 30 0 0 m-q-base m-q-base-r base-resonance
8 8 0 8 -1 -24198 -262144 128 1;
#X obj 154 258 cnv 15 50 15 empty m-d14 200 12 9 0 12 -1 -24198 0;
#X obj 22 278 hsl 128 15 5 1000 0 0 m-a m-a-r attack 8 8 0 8 -1 -24198
-262144 191 1;
#X obj 154 278 cnv 15 50 15 empty m-d15 450 12 9 0 12 -1 -24198 0;
#X obj 22 295 hsl 128 15 5 1000 0 0 m-d m-d-r decay 8 8 0 8 -1 -24198
-262144 6318 1;
#X obj 154 295 cnv 15 50 15 empty m-d16 499 12 9 0 12 -1 -24198 0;
#X obj 22 312 hsl 128 15 0 1 0 0 m-s m-s-r sustain 8 8 0 8 -1 -24198
-262144 3810 1;
#X obj 154 312 cnv 15 50 15 empty m-d17 0 12 9 0 12 -1 -24198 0;
#X obj 22 329 hsl 128 15 5 1000 0 0 m-r m-r-r release 8 8 0 8 -1 -24198
-262144 5042 1;
#X obj 154 329 cnv 15 50 15 empty m-d18 5 12 9 0 12 -1 -24198 0;
#X obj 22 349 hsl 128 15 0.5 10 1 0 m-ca m-ca-r attack-curve 8 8 0
8 -1 -24198 -262144 8816 1;
#X obj 154 349 cnv 15 50 15 empty m-d19 400 12 9 0 12 -1 -24198 0;
#X obj 22 366 hsl 128 15 0.5 10 1 0 m-cd m-cd-r decay-curve 8 8 0 8
-1 -24198 -262144 8816 1;
#X obj 154 366 cnv 15 50 15 empty m-d20 400 12 9 0 12 -1 -24198 0;
#X obj 22 383 hsl 128 15 0.5 10 1 0 m-cr m-cr-r release-curve 8 8 0
8 -1 -24198 -262144 8816 1;
#X obj 154 383 cnv 15 50 15 empty m-d21 400 12 9 0 12 -1 -24198 0;
#X obj 7 28 cnv 10 10 49 empty empty 1 1 25 0 14 -1 -24198 0;
#X obj 7 82 cnv 10 10 49 empty empty 2 1 25 0 14 -1 -24198 0;
#X obj 7 136 cnv 10 10 66 empty empty 3 1 33 0 14 -1 -24198 0;
#X obj 7 207 cnv 10 10 66 empty empty 4 1 33 0 14 -1 -24198 0;
#X obj 7 278 cnv 10 10 120 empty empty E 1 60 0 14 -1 -24198 0;
#X obj 22 403 hsl 128 15 10 60000 1 0 m-fi m-fi-r filter-inertia 8
8 0 8 -1 -24198 -262144 8327 1;
#X obj 154 403 cnv 15 50 15 empty m-d22 3000 12 9 0 12 -1 -24198 0
;
#X obj 7 403 cnv 10 10 15 empty empty I 1 8 0 14 -1 -24198 0;
#X coords 0 1 100 -1 215 425 1 0 0;
#X restore 5 -158 graph;
#X connect 0 0 23 0;
#X connect 8 0 16 0;
#X connect 8 1 17 0;
#X connect 9 0 0 0;
#X connect 10 0 0 1;
#X connect 11 0 13 0;
#X connect 12 0 0 2;
#X connect 13 0 12 0;
#X connect 14 0 9 0;
#X connect 15 0 10 0;
#X connect 16 0 9 0;
#X connect 17 0 10 0;
#X connect 18 0 14 0;
#X connect 19 0 15 0;
#X connect 20 0 11 0;
#X connect 21 0 20 0;
#X connect 22 0 21 0;
