#N canvas 148 135 752 572 10;
#N canvas 259 146 983 667 rezchord1 0;
#X obj -45 -6 inlet~;
#X obj 329 27 inlet;
#X obj -12 380 outlet~;
#X obj 102 142 vsl 8 128 0 127 0 1 empty empty lp 0 -8 0 8 -262144
-1 -1 11200 1;
#X obj 29 56 mtof;
#X obj -39 20 *~;
#X obj 112 142 vsl 8 128 0 127 0 1 empty empty hp 0 -8 0 8 -262144
-1 -1 9500 1;
#X obj 24 118 mtof;
#X text 371 31 tp;
#X obj 246 105 hsl 56 8 0.05 0.3 0 1 empty empty in -16 6 0 10 -262144
-1 -1 5500 1;
#X obj -26 96 lop~;
#X obj -12 152 hip~;
#N canvas 0 60 839 714 resond 0;
#X obj 130 384 inlet~;
#X obj 246 582 outlet~;
#X obj 117 126 hsl 96 8 0.6 0.999 1 1 empty empty fb -15 4 0 8 -262144
-1 -1 8700 1;
#X obj 117 114 hsl 96 8 75 127 1 1 empty empty dp -15 4 0 8 -262144
-1 -1 9500 1;
#X obj 202 428 mtof;
#X floatatom 246 117 4 10 120 0 p - -;
#X obj 318 376 mtof;
#X msg 266 371 1000;
#X obj 305 417 /;
#X obj 366 209 +;
#X obj 372 27 inlet;
#X obj 221 125 tgl 10 1 empty empty md 0 -6 0 8 -262144 -1 -1 2 2;
#X obj 234 218 - 1;
#X obj 371 57 t b f;
#X msg 310 106 set \$1;
#X msg 310 135 69;
#X obj 461 34 loadbang;
#N canvas 192 254 839 634 delayline 0;
#X obj 125 281 inlet~;
#X obj 418 525 outlet~;
#X obj 199 507 +~;
#X obj 228 478 *~;
#X obj 29 267 block~ 1;
#X obj 355 374 lop~;
#X obj 390 290 inlet;
#X obj 288 277 inlet;
#X obj 215 266 inlet;
#X obj 208 530 delwrite~ \$0resd 100;
#X obj 304 342 vd~ \$0resd;
#X connect 0 0 2 0;
#X connect 2 0 9 0;
#X connect 3 0 2 1;
#X connect 5 0 3 1;
#X connect 6 0 5 1;
#X connect 7 0 10 0;
#X connect 8 0 3 0;
#X connect 10 0 1 0;
#X connect 10 0 5 0;
#X restore 231 494 pd delayline;
#X obj 202 289 *;
#X obj 170 247 float;
#X obj 188 194 t b f;
#X obj 447 157 - 63;
#X obj 448 180 / 64;
#X obj 290 182 t b f;
#X obj 303 459 +;
#X obj 449 202 - 1;
#X obj 448 225 abs;
#X obj 321 344 float;
#X obj 341 302 t b b f;
#X obj 445 254 *;
#X obj 451 282 * -0.2;
#X connect 0 0 17 0;
#X connect 2 0 19 0;
#X connect 3 0 4 0;
#X connect 3 0 21 0;
#X connect 4 0 17 3;
#X connect 5 0 14 0;
#X connect 5 0 23 0;
#X connect 6 0 8 1;
#X connect 7 0 8 0;
#X connect 8 0 24 0;
#X connect 9 0 27 0;
#X connect 10 0 13 0;
#X connect 11 0 20 0;
#X connect 12 0 18 1;
#X connect 13 0 5 0;
#X connect 13 1 9 1;
#X connect 14 0 15 0;
#X connect 15 0 5 0;
#X connect 16 0 15 0;
#X connect 17 0 1 0;
#X connect 18 0 17 1;
#X connect 19 0 18 0;
#X connect 20 0 19 0;
#X connect 20 1 12 0;
#X connect 21 0 22 0;
#X connect 22 0 25 0;
#X connect 23 0 7 0;
#X connect 23 1 9 0;
#X connect 24 0 17 2;
#X connect 25 0 26 0;
#X connect 26 0 29 1;
#X connect 26 0 29 0;
#X connect 27 0 6 0;
#X connect 28 0 7 0;
#X connect 28 1 27 0;
#X connect 28 2 24 1;
#X connect 29 0 30 0;
#X connect 30 0 28 0;
#X coords 0 -1 1 1 180 40 1 100 100;
#X restore 125 246 pd resond;
#N canvas 0 60 839 714 resonc 0;
#X obj 130 384 inlet~;
#X obj 246 582 outlet~;
#X obj 117 126 hsl 96 8 0.6 0.999 1 1 empty empty fb -15 4 0 8 -262144
-1 -1 9400 1;
#X obj 117 114 hsl 96 8 75 127 1 1 empty empty dp -15 4 0 8 -262144
-1 -1 9500 1;
#X obj 202 428 mtof;
#X floatatom 246 117 4 10 120 0 p - -;
#X obj 318 376 mtof;
#X msg 266 371 1000;
#X obj 305 417 /;
#X obj 366 209 +;
#X obj 372 27 inlet;
#X obj 221 125 tgl 10 1 empty empty md 0 -6 0 8 -262144 -1 -1 2 2;
#X obj 234 218 - 1;
#X obj 371 57 t b f;
#X msg 310 106 set \$1;
#X msg 310 135 57;
#X obj 461 34 loadbang;
#N canvas 192 254 839 634 delayline 0;
#X obj 125 281 inlet~;
#X obj 418 525 outlet~;
#X obj 199 507 +~;
#X obj 228 478 *~;
#X obj 29 267 block~ 1;
#X obj 355 374 lop~;
#X obj 390 290 inlet;
#X obj 288 277 inlet;
#X obj 215 266 inlet;
#X obj 304 342 vd~ \$0resc;
#X obj 203 530 delwrite~ \$0resc 100;
#X connect 0 0 2 0;
#X connect 2 0 10 0;
#X connect 3 0 2 1;
#X connect 5 0 3 1;
#X connect 6 0 5 1;
#X connect 7 0 9 0;
#X connect 8 0 3 0;
#X connect 9 0 1 0;
#X connect 9 0 5 0;
#X restore 231 494 pd delayline;
#X obj 202 289 *;
#X obj 170 247 float;
#X obj 188 194 t b f;
#X obj 447 157 - 63;
#X obj 448 180 / 64;
#X obj 290 182 t b f;
#X obj 303 459 +;
#X obj 449 202 - 1;
#X obj 448 225 abs;
#X obj 321 344 float;
#X obj 341 302 t b b f;
#X obj 445 254 *;
#X obj 451 282 * -0.2;
#X connect 0 0 17 0;
#X connect 2 0 19 0;
#X connect 3 0 4 0;
#X connect 3 0 21 0;
#X connect 4 0 17 3;
#X connect 5 0 14 0;
#X connect 5 0 23 0;
#X connect 6 0 8 1;
#X connect 7 0 8 0;
#X connect 8 0 24 0;
#X connect 9 0 27 0;
#X connect 10 0 13 0;
#X connect 11 0 20 0;
#X connect 12 0 18 1;
#X connect 13 0 5 0;
#X connect 13 1 9 1;
#X connect 14 0 15 0;
#X connect 15 0 5 0;
#X connect 16 0 15 0;
#X connect 17 0 1 0;
#X connect 18 0 17 1;
#X connect 19 0 18 0;
#X connect 20 0 19 0;
#X connect 20 1 12 0;
#X connect 21 0 22 0;
#X connect 22 0 25 0;
#X connect 23 0 7 0;
#X connect 23 1 9 0;
#X connect 24 0 17 2;
#X connect 25 0 26 0;
#X connect 26 0 29 1;
#X connect 26 0 29 0;
#X connect 27 0 6 0;
#X connect 28 0 7 0;
#X connect 28 1 27 0;
#X connect 28 2 24 1;
#X connect 29 0 30 0;
#X connect 30 0 28 0;
#X coords 0 -1 1 1 180 40 1 100 100;
#X restore 125 203 pd resonc;
#N canvas 0 60 839 714 resonb 0;
#X obj 130 384 inlet~;
#X obj 246 582 outlet~;
#X obj 117 126 hsl 96 8 0.6 0.999 1 1 empty empty fb -15 4 0 8 -262144
-1 -1 9200 1;
#X obj 117 114 hsl 96 8 75 127 1 1 empty empty dp -15 4 0 8 -262144
-1 -1 9500 1;
#X obj 202 428 mtof;
#X floatatom 246 117 4 10 120 0 p - -;
#X obj 318 376 mtof;
#X msg 266 371 1000;
#X obj 305 417 /;
#X obj 366 209 +;
#X obj 372 27 inlet;
#X obj 221 125 tgl 10 1 empty empty md 0 -6 0 8 -262144 -1 -1 2 2;
#X obj 234 218 - 1;
#X obj 371 57 t b f;
#X msg 310 106 set \$1;
#X msg 310 135 63;
#X obj 461 34 loadbang;
#N canvas 192 254 839 634 delayline 0;
#X obj 125 281 inlet~;
#X obj 418 525 outlet~;
#X obj 199 507 +~;
#X obj 228 478 *~;
#X obj 29 267 block~ 1;
#X obj 355 374 lop~;
#X obj 390 290 inlet;
#X obj 288 277 inlet;
#X obj 215 266 inlet;
#X obj 304 342 vd~ \$0resb;
#X obj 203 530 delwrite~ \$0resb 100;
#X connect 0 0 2 0;
#X connect 2 0 10 0;
#X connect 3 0 2 1;
#X connect 5 0 3 1;
#X connect 6 0 5 1;
#X connect 7 0 9 0;
#X connect 8 0 3 0;
#X connect 9 0 1 0;
#X connect 9 0 5 0;
#X restore 231 494 pd delayline;
#X obj 202 289 *;
#X obj 170 247 float;
#X obj 188 194 t b f;
#X obj 447 157 - 63;
#X obj 448 180 / 64;
#X obj 290 182 t b f;
#X obj 303 459 +;
#X obj 449 202 - 1;
#X obj 448 225 abs;
#X obj 321 344 float;
#X obj 341 302 t b b f;
#X obj 445 254 *;
#X obj 451 282 * -0.2;
#X connect 0 0 17 0;
#X connect 2 0 19 0;
#X connect 3 0 4 0;
#X connect 3 0 21 0;
#X connect 4 0 17 3;
#X connect 5 0 14 0;
#X connect 5 0 23 0;
#X connect 6 0 8 1;
#X connect 7 0 8 0;
#X connect 8 0 24 0;
#X connect 9 0 27 0;
#X connect 10 0 13 0;
#X connect 11 0 20 0;
#X connect 12 0 18 1;
#X connect 13 0 5 0;
#X connect 13 1 9 1;
#X connect 14 0 15 0;
#X connect 15 0 5 0;
#X connect 16 0 15 0;
#X connect 17 0 1 0;
#X connect 18 0 17 1;
#X connect 19 0 18 0;
#X connect 20 0 19 0;
#X connect 20 1 12 0;
#X connect 21 0 22 0;
#X connect 22 0 25 0;
#X connect 23 0 7 0;
#X connect 23 1 9 0;
#X connect 24 0 17 2;
#X connect 25 0 26 0;
#X connect 26 0 29 1;
#X connect 26 0 29 0;
#X connect 27 0 6 0;
#X connect 28 0 7 0;
#X connect 28 1 27 0;
#X connect 28 2 24 1;
#X connect 29 0 30 0;
#X connect 30 0 28 0;
#X coords 0 -1 1 1 180 40 1 100 100;
#X restore 125 160 pd resonb;
#N canvas 0 60 839 714 resona 0;
#X obj 130 384 inlet~;
#X obj 246 582 outlet~;
#X obj 117 126 hsl 96 8 0.6 0.999 1 1 empty empty fb -15 4 0 8 -262144
-1 -1 9400 1;
#X obj 117 114 hsl 96 8 75 127 1 1 empty empty dp -15 4 0 8 -262144
-1 -1 9500 1;
#X obj 202 428 mtof;
#X floatatom 246 117 4 10 120 0 p - -;
#X obj 318 376 mtof;
#X msg 266 371 1000;
#X obj 305 417 /;
#X obj 366 209 +;
#X obj 372 27 inlet;
#X obj 221 125 tgl 10 1 empty empty md 0 -6 0 8 -262144 -1 -1 2 2;
#X obj 234 218 - 1;
#X obj 371 57 t b f;
#X msg 310 106 set \$1;
#X msg 310 135 60;
#X obj 461 34 loadbang;
#N canvas 192 258 839 634 delayline 0;
#X obj 125 281 inlet~;
#X obj 418 525 outlet~;
#X obj 199 507 +~;
#X obj 228 478 *~;
#X obj 29 267 block~ 1;
#X obj 355 374 lop~;
#X obj 304 342 vd~ \$0resa;
#X obj 203 530 delwrite~ \$0resa 100;
#X obj 390 290 inlet;
#X obj 288 277 inlet;
#X obj 215 266 inlet;
#X connect 0 0 2 0;
#X connect 2 0 7 0;
#X connect 3 0 2 1;
#X connect 5 0 3 1;
#X connect 6 0 1 0;
#X connect 6 0 5 0;
#X connect 8 0 5 1;
#X connect 9 0 6 0;
#X connect 10 0 3 0;
#X restore 231 494 pd delayline;
#X obj 202 289 *;
#X obj 170 247 float;
#X obj 188 194 t b f;
#X obj 447 157 - 63;
#X obj 448 180 / 64;
#X obj 290 182 t b f;
#X obj 303 459 +;
#X obj 449 202 - 1;
#X obj 448 225 abs;
#X obj 321 344 float;
#X obj 341 302 t b b f;
#X obj 445 254 *;
#X obj 451 282 * -0.2;
#X connect 0 0 17 0;
#X connect 2 0 19 0;
#X connect 3 0 4 0;
#X connect 3 0 21 0;
#X connect 4 0 17 3;
#X connect 5 0 14 0;
#X connect 5 0 23 0;
#X connect 6 0 8 1;
#X connect 7 0 8 0;
#X connect 8 0 24 0;
#X connect 9 0 27 0;
#X connect 10 0 13 0;
#X connect 11 0 20 0;
#X connect 12 0 18 1;
#X connect 13 0 5 0;
#X connect 13 1 9 1;
#X connect 14 0 15 0;
#X connect 15 0 5 0;
#X connect 16 0 15 0;
#X connect 17 0 1 0;
#X connect 18 0 17 1;
#X connect 19 0 18 0;
#X connect 20 0 19 0;
#X connect 20 1 12 0;
#X connect 21 0 22 0;
#X connect 22 0 25 0;
#X connect 23 0 7 0;
#X connect 23 1 9 0;
#X connect 24 0 17 2;
#X connect 25 0 26 0;
#X connect 26 0 29 1;
#X connect 26 0 29 0;
#X connect 27 0 6 0;
#X connect 28 0 7 0;
#X connect 28 1 27 0;
#X connect 28 2 24 1;
#X connect 29 0 30 0;
#X connect 30 0 28 0;
#X coords 0 -1 1 1 180 40 1 100 100;
#X restore 125 117 pd resona;
#X connect 0 0 5 0;
#X connect 1 0 15 1;
#X connect 1 0 14 1;
#X connect 1 0 13 1;
#X connect 1 0 12 1;
#X connect 3 0 4 0;
#X connect 4 0 10 1;
#X connect 5 0 10 0;
#X connect 6 0 7 0;
#X connect 7 0 11 1;
#X connect 9 0 5 1;
#X connect 10 0 11 0;
#X connect 11 0 15 0;
#X connect 11 0 14 0;
#X connect 11 0 13 0;
#X connect 11 0 12 0;
#X connect 12 0 2 0;
#X connect 13 0 2 0;
#X connect 14 0 2 0;
#X connect 15 0 2 0;
#X coords 0 -1 1 1 210 190 1 100 100;
#X restore 90 117 pd rezchord1;
#N canvas 0 22 450 300 (subpatch) 0;
#X obj 59 155 inlet;
#X obj 3 89 inlet~;
#X obj 58 182 change;
#X msg 60 246 set \$1;
#X obj 60 227 tosymbol;
#X obj 59 204 sprintf Bus%d;
#X obj 3 282 throw~ Bus0;
#X obj 2 3 popup 124 25 #ffffff popup Bus0 Bus1 Bus2 Bus3 Bus4 Bus5
Bus6 Bus7 Bus8 Bus9 Bus10 Bus11 Bus12 Bus13 Bus14 Bus15 Bus16;
#X obj 1 32 route bang;
#X obj 154 202 *~;
#X obj 141 7 tgl 15 0 empty empty Dac 19 7 0 10 -262144 -1 -1 1 1;
#X obj 155 238 dac~;
#X obj 1 -49 loadbang;
#X text 59 -51 Bus0 mutes;
#X msg 1 -31 options Bus0 Bus1 Bus2 Bus3 Bus4 Bus5 Bus6 Bus7 Bus8 Bus9
Bus10 Bus11 Bus12 Bus13 Bus14 Bus15 Bus16;
#X connect 0 0 2 0;
#X connect 1 0 6 0;
#X connect 1 0 9 0;
#X connect 2 0 5 0;
#X connect 3 0 6 0;
#X connect 4 0 3 0;
#X connect 5 0 4 0;
#X connect 7 0 8 0;
#X connect 8 1 2 0;
#X connect 9 0 11 0;
#X connect 9 0 11 1;
#X connect 10 0 9 1;
#X connect 12 0 14 0;
#X connect 14 0 7 0;
#X coords 0 1 100 -1 180 30 1 0 0;
#X restore 100 335 graph;
#X obj 79 35 adc~;
#X connect 0 0 1 0;
#X connect 2 0 0 0;
#X connect 2 1 0 0;
