#N canvas 333 158 691 610 10;
#X obj 72 16 adc~;
#X obj 72 103 fiddle~;
#X obj 71 126 mtof;
#X floatatom 32 107 5 0 0 0 - - -;
#X obj 121 406 *~;
#X obj 138 387 r \$0-master-amp;
#X obj 549 24 vsl 22 200 0 1 0 0 \$0-master-amp empty volume -9 -8
1 8 -225271 -1 -1 0 0;
#X floatatom 129 105 5 0 0 0 - - -;
#X obj 119 299 osc~;
#X obj 124 234 +~;
#X obj 140 203 *~;
#X obj 119 179 osc~;
#X obj 17 187 phasor~;
#X obj 157 164 * 5;
#X obj 92 152 * 2;
#X text 194 76 sing into the mic to control the FM synthesizer;
#X text 17 539 (C) Copyright 2004 Hans-Christoph Steiner <hans@at.or.at>
;
#X text 236 555 released under the GNU GPL;
#X obj 539 249 pddp/dsp;
#N canvas 0 22 450 300 (subpatch) 0;
#X obj 59 155 inlet;
#X obj 3 89 inlet~;
#X obj 58 182 change;
#X msg 60 246 set \$1;
#X obj 60 227 tosymbol;
#X obj 59 204 sprintf Bus%d;
#X obj 3 282 throw~ Bus0;
#X obj 2 3 popup 124 25 #ffffff popup Bus0 Bus1 Bus2 Bus3 Bus4 Bus5
;
#X obj 1 32 route bang;
#X obj 154 202 *~;
#X obj 141 7 tgl 15 0 empty empty Dac 19 7 0 10 -262144 -1 -1 0 1;
#X obj 155 238 dac~;
#X obj 1 -52 loadbang;
#X text 59 -54 Bus0 mutes;
#X msg 1 -34 options Bus0 Bus1 Bus2 Bus3 Bus4 Bus5 Bus6 Bus7 Bus8 Bus9
Bus10 Bus11 Bus12 Bus13 Bus14 Bus15 Bus16;
#X connect 0 0 2 0;
#X connect 1 0 6 0;
#X connect 1 0 9 0;
#X connect 2 0 5 0;
#X connect 3 0 6 0;
#X connect 4 0 3 0;
#X connect 5 0 4 0;
#X connect 7 0 8 0;
#X connect 8 1 2 0;
#X connect 9 0 11 0;
#X connect 9 0 11 1;
#X connect 10 0 9 1;
#X connect 12 0 14 0;
#X connect 14 0 7 0;
#X coords 0 1 100 -1 180 30 1 0 0;
#X restore 129 494 graph;
#X text 317 500 Mono;
#X connect 0 0 1 0;
#X connect 1 0 2 0;
#X connect 1 0 3 0;
#X connect 1 3 7 0;
#X connect 1 3 13 0;
#X connect 2 0 12 0;
#X connect 2 0 14 0;
#X connect 4 0 19 0;
#X connect 5 0 4 1;
#X connect 8 0 4 0;
#X connect 9 0 8 0;
#X connect 10 0 9 1;
#X connect 11 0 10 0;
#X connect 12 0 9 0;
#X connect 13 0 10 1;
#X connect 14 0 11 0;
