#N canvas 169 49 1021 665 10;
#X obj 545 229 metro;
#X msg 395 212 stop;
#X obj 545 275 f;
#X obj 575 275 + 1;
#X obj 560 150 s to_tempo;
#X obj 526 214 tgl 15 0 empty empty empty 17 7 0 10 -262144 -1 -1 0
1;
#X obj 526 192 1;
#X text 398 71 play;
#X text 397 108 pause;
#X text 397 145 stop;
#X obj 461 142 expr 1-$f1;
#X obj 572 198 expr 60000/(240*$f1);
#X obj 572 171 r tempo;
#X obj 453 197 0;
#X obj 396 91 r play;
#X obj 395 161 r stop;
#X obj 545 355 s timecode;
#X obj 395 125 r pause;
#X text 439 79 Génération du timecode qui déclenche les évènement des
séquences;
#X obj 453 278 s to-pause;
#X msg 453 251 set 0;
#X floatatom 170 165 5 1 8 2 tps - from-steps;
#X obj 111 425 + 1;
#X obj 111 385 mod;
#X obj 230 337 loadbang;
#X obj 146 388 /;
#X obj 146 411 mod;
#X obj 147 464 + 1;
#X floatatom 135 165 5 1 8 2 mes. - from-mes;
#X obj 789 188 spigot 1;
#X obj 829 15 loadbang;
#X obj 829 39 f \$3;
#X obj 829 62 s to_tempo;
#X text 6 11 [clock nbmes nbtps tempo];
#X obj 230 370 float \$1;
#X obj 161 368 float \$2;
#X obj 124 327 div 240;
#X obj 124 348 change;
#X msg 97 455 set \$1;
#X msg 147 486 set \$1;
#X obj 526 108 t b b b b b;
#X obj 796 125 s preplay;
#X obj 804 338 240;
#X obj 804 360 *;
#X obj 804 430 *;
#X obj 804 385 t f b;
#X obj 804 467 - 1;
#X obj 831 344 f \$2;
#X obj 831 413 f \$1;
#X obj 26 177 - 1;
#X obj 26 236 *;
#X obj 53 220 f \$2;
#X obj 26 255 * 240;
#X floatatom 804 508 5 0 0 0 - - -;
#X obj 804 315 t b b;
#X obj 26 199 t f b;
#X obj 545 300 +;
#X obj 804 271 t b f;
#X obj 647 302 moses 7679;
#X obj 704 345 b;
#X obj 140 255 + 0;
#X floatatom 26 286 5 0 0 0 - - -;
#X obj 661 361 bng 15 250 50 0 empty empty empty 17 7 0 10 -262144
-1 -1;
#X obj 634 46 r tmp-chg;
#X floatatom 170 136 5 1 8 2 nbtps - -;
#X floatatom 135 136 5 1 8 2 nbmes - -;
#X obj 892 274 t b f;
#X obj 71 195 t b f;
#X obj 60 66 r tempo-mes;
#X obj 4 26 r tempo-steps;
#X obj 3 367 s to-tempo-steps;
#X obj 21 348 s to-tempo-mes;
#X obj 560 251 0;
#X obj 4 65 f \$2;
#X obj 10 46 loadbang;
#X obj 7 112 1;
#X obj 60 104 f \$1;
#X connect 0 0 2 0;
#X connect 1 0 0 0;
#X connect 2 0 3 0;
#X connect 2 0 56 0;
#X connect 2 0 58 0;
#X connect 3 0 2 1;
#X connect 5 0 0 0;
#X connect 6 0 5 0;
#X connect 6 0 20 0;
#X connect 10 0 5 0;
#X connect 11 0 0 1;
#X connect 12 0 11 0;
#X connect 13 0 5 0;
#X connect 13 0 20 0;
#X connect 14 0 40 0;
#X connect 15 0 1 0;
#X connect 15 0 13 0;
#X connect 17 0 10 0;
#X connect 20 0 19 0;
#X connect 22 0 38 0;
#X connect 23 0 22 0;
#X connect 24 0 34 0;
#X connect 24 0 35 0;
#X connect 25 0 26 0;
#X connect 26 0 27 0;
#X connect 27 0 39 0;
#X connect 29 0 72 0;
#X connect 30 0 31 0;
#X connect 31 0 32 0;
#X connect 34 0 26 1;
#X connect 35 0 23 1;
#X connect 35 0 25 1;
#X connect 36 0 37 0;
#X connect 37 0 23 0;
#X connect 37 0 25 0;
#X connect 38 0 21 0;
#X connect 39 0 28 0;
#X connect 40 0 6 0;
#X connect 40 1 29 0;
#X connect 40 2 4 0;
#X connect 40 4 41 0;
#X connect 42 0 43 0;
#X connect 43 0 45 0;
#X connect 44 0 46 0;
#X connect 45 0 44 0;
#X connect 45 1 48 0;
#X connect 46 0 53 0;
#X connect 46 0 58 1;
#X connect 47 0 43 1;
#X connect 48 0 44 1;
#X connect 49 0 55 0;
#X connect 50 0 52 0;
#X connect 51 0 50 1;
#X connect 52 0 56 1;
#X connect 52 0 61 0;
#X connect 54 0 42 0;
#X connect 54 1 47 0;
#X connect 55 0 50 0;
#X connect 55 1 51 0;
#X connect 56 0 16 0;
#X connect 56 0 58 0;
#X connect 56 0 36 0;
#X connect 57 0 54 0;
#X connect 57 1 48 1;
#X connect 58 1 59 0;
#X connect 59 0 62 0;
#X connect 59 0 72 0;
#X connect 60 0 57 0;
#X connect 63 0 32 0;
#X connect 64 0 66 0;
#X connect 64 0 67 0;
#X connect 64 0 35 0;
#X connect 64 0 70 0;
#X connect 65 0 57 0;
#X connect 65 0 34 0;
#X connect 65 0 71 0;
#X connect 66 0 54 0;
#X connect 66 1 47 1;
#X connect 67 1 51 1;
#X connect 68 0 76 0;
#X connect 69 0 73 0;
#X connect 72 0 2 1;
#X connect 73 0 64 0;
#X connect 74 0 73 0;
#X connect 74 0 75 0;
#X connect 74 0 76 0;
#X connect 75 0 28 0;
#X connect 75 0 21 0;
#X connect 76 0 65 0;
#X coords 0 -1 1 1 120 90 1 100 100;
