#N canvas 88 60 614 654 10;
#X obj 113 133 spigot;
#X obj 113 284 mod;
#X obj 203 536 f \$1;
#X obj 165 206 f \$2;
#X obj 341 117 route \$3;
#X obj 233 84 r from\$8mash;
#X obj 113 576 s \$8-to-sequence;
#X obj 341 91 r to-seq-mash-trigger;
#X obj 165 230 * 2.5;
#X obj 113 552 +;
#X obj 113 101 spigot 1;
#X obj 113 45 r \$8-to-sequence-masher;
#X obj 341 227 s \$8-cut-tc;
#X obj 113 262 + \$5;
#X obj 113 445 moses;
#X obj 155 394 abs;
#X obj 128 352 f \$6;
#X obj 128 182 trigger b b b;
#X obj 140 466 spigot;
#X obj 128 372 sel 0;
#X obj 128 394 f;
#X obj 179 388 > 0;
#X obj 234 461 moses;
#X obj 261 410 abs;
#X obj 261 482 spigot;
#X obj 234 388 sel 0;
#X obj 234 410 f;
#X obj 299 404 > 0;
#X obj 234 368 f \$7;
#X obj 155 414 - 1;
#X obj 261 429 - 1;
#X obj 165 268 - 0;
#X obj 203 480 f \$1;
#X obj 203 498 + 0.5;
#X obj 203 516 int;
#X obj 128 156 loadbang;
#X connect 0 0 13 0;
#X connect 1 0 14 0;
#X connect 2 0 9 1;
#X connect 3 0 8 0;
#X connect 4 0 0 1;
#X connect 4 0 12 0;
#X connect 5 0 10 1;
#X connect 7 0 4 0;
#X connect 8 0 20 1;
#X connect 8 0 26 1;
#X connect 8 0 31 0;
#X connect 9 0 6 0;
#X connect 10 0 0 0;
#X connect 11 0 10 0;
#X connect 13 0 1 0;
#X connect 14 0 9 0;
#X connect 14 1 18 0;
#X connect 14 1 22 0;
#X connect 15 0 29 0;
#X connect 16 0 19 0;
#X connect 17 0 16 0;
#X connect 17 0 28 0;
#X connect 17 1 3 0;
#X connect 17 2 32 0;
#X connect 18 0 9 0;
#X connect 19 0 20 0;
#X connect 19 1 15 0;
#X connect 19 1 21 0;
#X connect 20 0 14 1;
#X connect 21 0 18 1;
#X connect 22 1 24 0;
#X connect 23 0 30 0;
#X connect 24 0 9 0;
#X connect 25 0 26 0;
#X connect 25 1 23 0;
#X connect 25 1 27 0;
#X connect 26 0 22 1;
#X connect 27 0 24 1;
#X connect 28 0 25 0;
#X connect 29 0 14 1;
#X connect 30 0 22 1;
#X connect 31 0 1 1;
#X connect 32 0 33 0;
#X connect 33 0 34 0;
#X connect 34 0 2 0;
#X connect 35 0 17 0;
