#N canvas 0 22 974 695 10;
#X declare -path /z_perk_abs;
#X declare -path /z_perk_abs;
#N canvas 0 22 450 300 (subpatch) 0;
#X obj 59 155 inlet;
#X obj 3 89 inlet~;
#X obj 58 182 change;
#X msg 60 246 set \$1;
#X obj 60 227 tosymbol;
#X obj 59 204 sprintf Bus%d;
#X obj 3 282 throw~ Bus0;
#X obj 2 3 popup 124 25 #ffffff popup Bus0 Bus1 Bus2 Bus3 Bus4 Bus5
;
#X obj 1 32 route bang;
#X obj 154 202 *~;
#X obj 141 7 tgl 15 0 empty empty Dac 19 7 0 10 -262144 -1 -1 0 1;
#X obj 155 238 dac~;
#X obj 1 -57 loadbang;
#X text 59 -65 Bus0 mutes everything;
#X text 56 -55 Bus6 goes to dac;
#X msg 1 -39 options Bus0 Bus1 Bus2 Bus3 Bus4 Bus5 Bus6 Bus7 Bus8 Bus9
Bus10 Bus11 Bus12 Bus13 Bus14 Bus15 Bus16;
#X connect 0 0 2 0;
#X connect 1 0 6 0;
#X connect 1 0 9 0;
#X connect 2 0 5 0;
#X connect 3 0 6 0;
#X connect 4 0 3 0;
#X connect 5 0 4 0;
#X connect 7 0 8 0;
#X connect 8 1 2 0;
#X connect 9 0 11 0;
#X connect 9 0 11 1;
#X connect 10 0 9 1;
#X connect 12 0 15 0;
#X connect 15 0 7 0;
#X coords 0 1 100 -1 180 30 1 0 0;
#X restore -115 439 graph;
#N canvas 0 22 1009 720 (subpatch) 0;
#X obj -46 348 tanh~;
#X obj 30 23 perk-bassdrum \$1/bd;
#X obj 214 189 perk-hihat \$1/hh;
#X obj 212 23 perk-snare \$1/sn;
#X obj 394 24 perk-clap \$1/cl;
#X obj 758 24 perk-bell \$1/be;
#X obj 760 189 perk-cowbell \$1/co;
#X obj 576 24 perk-hightom \$1/hi;
#X obj 577 93 perk-lowtom \$1/lo;
#X obj 396 190 perk-cymbal \$1/cy;
#X obj 578 190 perk-cymbal2 \$1/c2;
#X obj 396 174 bng 15 250 50 0 empty empty empty 17 7 0 10 -262144
-1 -1;
#X obj 578 174 bng 15 250 50 0 empty empty empty 17 7 0 10 -262144
-1 -1;
#X obj 760 173 bng 15 250 50 0 empty empty empty 17 7 0 10 -262144
-1 -1;
#X obj 577 78 bng 15 250 50 0 empty empty empty 17 7 0 10 -262144 -1
-1;
#X obj 758 8 bng 15 250 50 0 empty empty empty 17 7 0 10 -262144 -1
-1;
#X obj 576 8 bng 15 250 50 0 empty empty empty 17 7 0 10 -262144 -1
-1;
#X obj 212 7 bng 15 250 50 0 empty empty empty 17 7 0 10 -262144 -1
-1;
#X obj 394 8 bng 15 250 50 0 empty empty empty 17 7 0 10 -262144 -1
-1;
#X obj 214 173 bng 15 250 50 0 empty empty empty 17 7 0 10 -262144
-1 -1;
#X obj 30 7 bng 15 250 50 0 empty empty empty 17 7 0 10 -262144 -1
-1;
#X obj 32 189 perk-hihat \$1/hh;
#X obj 32 173 bng 15 250 50 0 empty empty empty 17 7 0 10 -262144 -1
-1;
#X obj -45 431 *~;
#X floatatom 653 -174 5 0 0 0 - - -;
#X obj 654 -151 / 100;
#X floatatom 706 -175 5 0 0 0 - - -;
#X obj 707 -152 / 100;
#X floatatom 757 -176 5 0 0 0 - - -;
#X floatatom 807 -176 5 0 0 0 - - -;
#X floatatom 444 -172 5 0 0 0 - - -;
#X floatatom 497 -173 5 0 0 0 - - -;
#X floatatom 548 -174 5 0 0 0 - - -;
#X obj 549 -151 / 100;
#X floatatom 598 -174 5 0 0 0 - - -;
#X obj 599 -151 / 100;
#X obj 445 -149 / 100;
#X obj 758 -153 / 100;
#X obj 808 -153 / 100;
#X obj 498 -150 / 100;
#X msg 444 -125 0 \$1;
#X msg 481 -125 1 \$1;
#X msg 518 -125 2 \$1;
#X msg 555 -125 3 \$1;
#X msg 591 -125 4 \$1;
#X msg 628 -125 5 \$1;
#X msg 665 -125 6 \$1;
#X msg 702 -125 8 \$1;
#X msg 737 -125 9 \$1;
#X msg 774 -125 10 \$1;
#X msg 811 -125 11 \$1;
#X msg 445 -102 0 \$1;
#X msg 482 -102 1 \$1;
#X msg 519 -102 2 \$1;
#X msg 556 -102 3 \$1;
#X msg 592 -102 4 \$1;
#X msg 629 -102 5 \$1;
#X msg 666 -102 6 \$1;
#X msg 703 -102 8 \$1;
#X msg 738 -102 9 \$1;
#X msg 775 -102 10 \$1;
#X msg 812 -102 11 \$1;
#X msg 446 -80 0 \$1;
#X msg 483 -80 1 \$1;
#X msg 520 -80 2 \$1;
#X msg 557 -80 3 \$1;
#X msg 593 -80 4 \$1;
#X msg 630 -80 5 \$1;
#X msg 667 -80 6 \$1;
#X msg 704 -80 8 \$1;
#X msg 739 -80 9 \$1;
#X msg 443 -59 0 \$1;
#X msg 480 -59 1 \$1;
#X msg 517 -59 2 \$1;
#X msg 554 -59 3 \$1;
#X msg 590 -59 4 \$1;
#X msg 627 -59 5 \$1;
#X msg 664 -59 6 \$1;
#X msg 701 -59 8 \$1;
#X msg 444 -38 0 \$1;
#X msg 481 -38 1 \$1;
#X msg 518 -38 2 \$1;
#X msg 555 -38 3 \$1;
#X msg 591 -38 4 \$1;
#X msg 628 -38 5 \$1;
#X msg 665 -38 6 \$1;
#X msg 89 170 7 0.3;
#X obj 55 -206 stripnote;
#X obj 89 152 loadbang;
#X obj -90 34 perk-BdReso;
#X obj 5 7 bng 15 250 50 0 empty empty empty 17 7 0 10 -262144 -1 -1
;
#X obj -31 374 / 100;
#X obj -30 412 line;
#X floatatom 15 397 5 0 0 0 - - -;
#X text 53 396 time offset to adjust volume to velocity;
#X obj 15 362 loadbang;
#X msg 15 380 50;
#X obj -30 394 + 0.05;
#X obj 444 -197 r ctl1;
#X obj 497 -198 r ctl2;
#X obj 548 -199 r ctl3;
#X obj 598 -199 r ctl4;
#X obj 653 -199 r ctl5;
#X obj 706 -200 r ctl6;
#X obj 757 -201 r ctl7;
#X obj 807 -201 r ctl8;
#X obj 64 -178 select 36 37 38 39 40 41 42 43 44 45 46;
#X obj 55 -251 inlet;
#X obj 69 -231 inlet;
#X obj -45 455 outlet~;
#X obj 251 -219 declare -path /z_perk_abs;
#X connect 0 0 23 0;
#X connect 1 0 0 0;
#X connect 2 0 0 0;
#X connect 3 0 0 0;
#X connect 4 0 0 0;
#X connect 5 0 0 0;
#X connect 6 0 0 0;
#X connect 7 0 0 0;
#X connect 8 0 0 0;
#X connect 9 0 0 0;
#X connect 10 0 0 0;
#X connect 11 0 9 0;
#X connect 12 0 10 0;
#X connect 13 0 6 0;
#X connect 14 0 8 0;
#X connect 15 0 5 0;
#X connect 16 0 7 0;
#X connect 17 0 3 0;
#X connect 18 0 4 0;
#X connect 19 0 2 0;
#X connect 20 0 1 0;
#X connect 21 0 0 0;
#X connect 22 0 21 0;
#X connect 23 0 109 0;
#X connect 24 0 25 0;
#X connect 26 0 27 0;
#X connect 28 0 37 0;
#X connect 29 0 38 0;
#X connect 30 0 36 0;
#X connect 31 0 39 0;
#X connect 32 0 33 0;
#X connect 34 0 35 0;
#X connect 86 0 21 1;
#X connect 87 0 106 0;
#X connect 87 1 91 0;
#X connect 87 1 96 0;
#X connect 88 0 86 0;
#X connect 89 0 0 0;
#X connect 90 0 89 0;
#X connect 91 0 97 0;
#X connect 92 0 23 1;
#X connect 93 0 92 1;
#X connect 95 0 96 0;
#X connect 96 0 93 0;
#X connect 97 0 92 0;
#X connect 98 0 30 0;
#X connect 99 0 31 0;
#X connect 100 0 32 0;
#X connect 101 0 34 0;
#X connect 102 0 24 0;
#X connect 103 0 26 0;
#X connect 104 0 28 0;
#X connect 105 0 29 0;
#X connect 106 0 20 0;
#X connect 106 0 90 0;
#X connect 106 1 22 0;
#X connect 106 2 19 0;
#X connect 106 3 17 0;
#X connect 106 4 11 0;
#X connect 106 5 18 0;
#X connect 106 6 16 0;
#X connect 106 7 14 0;
#X connect 106 8 15 0;
#X connect 106 9 12 0;
#X connect 106 10 13 0;
#X connect 107 0 87 0;
#X connect 108 0 87 1;
#X coords 0 1 100 -1 950 350 1 0 0;
#X restore -115 89 graph;
#X floatatom -115 73 5 0 0 0 - - -;
#X floatatom 803 73 5 0 0 0 - - -;
#X obj -115 35 r noteDrum;
#X obj 776 36 r velDrum;
#X obj 59 33 notein;
#N canvas 0 22 450 300 (subpatch) 0;
#X obj -30 22 spigot;
#X obj 2 3 tgl 15 0 empty empty empty 17 7 0 10 -262144 -1 -1 0 1;
#X obj -58 0 inlet;
#X obj -54 54 outlet;
#X connect 0 0 3 0;
#X connect 1 0 0 1;
#X connect 2 0 0 0;
#X coords 0 1 100 -1 20 20 1 0 0;
#X restore 59 53 graph;
#N canvas 0 22 450 300 (subpatch) 0;
#X obj -30 22 spigot;
#X obj 2 3 tgl 15 0 empty empty empty 17 7 0 10 -262144 -1 -1 0 1;
#X obj -58 0 inlet;
#X obj -54 54 outlet;
#X connect 0 0 3 0;
#X connect 1 0 0 1;
#X connect 2 0 0 0;
#X coords 0 1 100 -1 20 20 1 0 0;
#X restore 79 53 graph;
#N canvas 0 22 450 300 (subpatch) 0;
#X obj -30 22 spigot;
#X obj 2 3 tgl 15 0 empty empty empty 17 7 0 10 -262144 -1 -1 0 1;
#X obj -58 0 inlet;
#X obj -54 54 outlet;
#X connect 0 0 3 0;
#X connect 1 0 0 1;
#X connect 2 0 0 0;
#X coords 0 1 100 -1 20 20 1 0 0;
#X restore -115 53 graph;
#N canvas 0 22 450 300 (subpatch) 0;
#X obj -30 22 spigot;
#X obj 2 3 tgl 15 0 empty empty empty 17 7 0 10 -262144 -1 -1 0 1;
#X obj -58 0 inlet;
#X obj -54 54 outlet;
#X connect 0 0 3 0;
#X connect 1 0 0 1;
#X connect 2 0 0 0;
#X coords 0 1 100 -1 20 20 1 0 0;
#X restore 776 53 graph;
#X obj 173 46 declare -path /z_perk_abs;
#X connect 1 0 0 0;
#X connect 2 0 1 0;
#X connect 3 0 1 1;
#X connect 4 0 9 0;
#X connect 5 0 10 0;
#X connect 6 0 7 0;
#X connect 6 1 8 0;
#X connect 7 0 2 0;
#X connect 8 0 3 0;
#X connect 9 0 2 0;
#X connect 10 0 3 0;
