#N canvas 0 22 1009 720 10;
#X msg 36 216 next;
#X obj 21 326 pack 0 p;
#X obj 21 9 inlet;
#X obj 21 38 route start stop;
#X msg 74 59 \; reset bang;
#X obj 240 115 s reset;
#X obj 36 196 r next-evt;
#X obj 431 431 print UNMAPPED_COLOR;
#X obj 21 280 t p p;
#X text 118 202 first pointer is "moving-cursor" \, then the rest are
"template-sample";
#X obj 119 124 move-cursor;
#X obj 99 273 bang;
#X text 133 274 if its not a template-sample \, get another pointer
;
#X obj 21 250 pointer template-toplevel;
#X obj 261 713 outlet~;
#X msg 20 169 traverse pd-data \, next;
#X obj 21 302 get template-toplevel voiceno;
#X obj -128 382 voice16wave;
#X obj -122 401 voiceBell;
#X obj -114 421 voiceClassic;
#X obj -104 441 voiceCranks;
#X obj -87 462 voiceCz10;
#X obj -82 481 voiceDetune3osc;
#X obj -65 501 voiceDetuneOsc;
#X obj -8 521 voiceN;
#X obj 26 540 voiceRain;
#X obj 36 560 voiceSimpleFM;
#X obj 53 582 voiceSineSum;
#X obj 80 605 voiceSquare;
#X obj 84 626 voiceStringSynth;
#X obj 153 648 voiceUgur;
#X obj 200 668 voiceWind;
#X obj 252 693 voiceXfm;
#X text -185 382 blue = 9;
#X text -190 401 green = 90;
#X text -176 418 red = 900;
#X text -174 440 cyan = 99;
#X text -172 462 magenta = 909;
#X text -162 482 yellow = 990;
#X text -131 502 pink = 944;
#X text -125 521 olive green = 240;
#X text -75 540 lavender = 647;
#X text -75 563 apple green = 582;
#X text -76 584 emerald green = 365;
#X text 4 607 parm = 958;
#X text 14 628 egg = 993;
#X text 66 650 mustard = 750;
#X text 118 672 prun = 202;
#X text 172 694 orange = 960;
#X obj 21 349 route 777 9 90 900 99 909 990 944 240 647 582 365 958
993 750 202 960;
#X obj 578 82 r reset;
#X msg 655 153 \; reset-stop stop \; time-of-last-evt 0 \; pd-data
sort \;;
#X obj 21 95 trigger bang bang bang bang;
#X msg 28 136 \; pd-data sort \;;
#X obj 659 373 s delay-multiplier;
#X obj 662 298 t b f;
#X msg 658 325 1000;
#X obj 676 349 /;
#X obj 662 272 r tempo;
#X text 382 354 grey = 777;
#X connect 0 0 13 0;
#X connect 1 0 49 0;
#X connect 2 0 3 0;
#X connect 3 0 52 0;
#X connect 3 1 4 0;
#X connect 6 0 0 0;
#X connect 8 0 16 0;
#X connect 8 1 1 1;
#X connect 11 0 0 0;
#X connect 13 0 8 0;
#X connect 13 1 11 0;
#X connect 15 0 13 0;
#X connect 16 0 1 0;
#X connect 17 0 18 0;
#X connect 18 0 19 0;
#X connect 19 0 20 0;
#X connect 20 0 21 0;
#X connect 21 0 22 0;
#X connect 22 0 23 0;
#X connect 23 0 24 0;
#X connect 24 0 25 0;
#X connect 25 0 26 0;
#X connect 26 0 27 0;
#X connect 27 0 28 0;
#X connect 28 0 29 0;
#X connect 29 0 30 0;
#X connect 30 0 31 0;
#X connect 31 0 32 0;
#X connect 32 0 14 0;
#X connect 49 1 17 1;
#X connect 49 2 18 1;
#X connect 49 3 19 1;
#X connect 49 4 20 1;
#X connect 49 5 21 1;
#X connect 49 6 22 1;
#X connect 49 7 23 1;
#X connect 49 8 24 1;
#X connect 49 9 25 1;
#X connect 49 10 26 1;
#X connect 49 11 27 1;
#X connect 49 12 28 1;
#X connect 49 13 29 1;
#X connect 49 14 30 1;
#X connect 49 15 31 1;
#X connect 49 16 32 1;
#X connect 49 17 7 0;
#X connect 50 0 51 0;
#X connect 52 0 15 0;
#X connect 52 1 53 0;
#X connect 52 2 10 0;
#X connect 52 3 5 0;
#X connect 55 0 56 0;
#X connect 55 1 57 1;
#X connect 56 0 57 0;
#X connect 57 0 54 0;
#X connect 58 0 55 0;
