#N canvas 0 22 757 616 12;
#X obj 516 522 t b;
#X obj 516 469 f;
#X obj 516 547 f;
#X msg 630 546 0;
#X obj 516 499 moses 1;
#X obj 630 518 t b f;
#X obj 596 479 moses 1;
#X obj 31 160 dbtorms;
#X obj 87 233 inlet~;
#X msg 278 300 \; pd dsp 1;
#X obj 31 233 line~;
#X obj 66 305 *~;
#X obj 31 190 pack 0 50;
#X text 123 209 audio in;
#X text 301 496 test if less than 1 -->;
#X text 267 523 if true convert to bang -->;
#X text 102 159 <-- convert from dB to linear units;
#X floatatom 20 7 3 0 100 0 dB - -;
#X obj 94 11 bng 15 250 50 0 empty empty mute -38 7 0 12 -262144 -1
-1;
#X text 120 189 <-- make a ramp to avoid clicks or zipper noise;
#X obj 150 233 inlet~;
#X obj 156 304 *~;
#X text 502 399 MUTE logic:;
#X obj 278 193 r \$0-master-lvl;
#X obj 516 573 s \$0-master-lvl;
#X obj 293 247 s \$0-master-out;
#X obj 31 134 r \$0-master-out;
#X obj 596 450 r \$0-master-out;
#X text 268 8 Level control abstraction \, used in many of the Pd example
patches. The "level" and "mute" controls show up on the parent \, calling
patch.;
#X text 229 549 previous nonzero master-lvl -->;
#X text 301 453 recall previous;
#X text 301 471 value of master-lvl -->;
#X text 18 373 automatically start DSP -->;
#X obj 87 255 hip~ 3;
#X obj 149 255 hip~ 3;
#N canvas 0 22 450 300 (subpatch) 0;
#X obj 59 155 inlet;
#X obj 3 89 inlet~;
#X obj 58 182 change;
#X msg 60 246 set \$1;
#X obj 60 227 tosymbol;
#X obj 59 204 sprintf Bus%d;
#X obj 3 282 throw~ Bus0;
#X obj 2 3 popup 124 25 #ffffff popup Bus0 Bus1 Bus2 Bus3 Bus4 Bus5
;
#X obj 1 32 route bang;
#X obj 154 202 *~;
#X obj 141 7 tgl 15 0 empty empty Dac 19 7 0 10 -262144 -1 -1 0 1;
#X obj 155 238 dac~;
#X obj 1 -41 loadbang;
#X msg 1 -23 options Bus0 Bus1 Bus2 Bus3 Bus4 Bus5;
#X text 59 -43 Bus0 mutes;
#X connect 0 0 2 0;
#X connect 1 0 6 0;
#X connect 1 0 9 0;
#X connect 2 0 5 0;
#X connect 3 0 6 0;
#X connect 4 0 3 0;
#X connect 5 0 4 0;
#X connect 7 0 8 0;
#X connect 8 1 2 0;
#X connect 9 0 11 0;
#X connect 9 0 11 1;
#X connect 10 0 9 1;
#X connect 12 0 13 0;
#X connect 13 0 7 0;
#X coords 0 1 100 -1 180 30 1 0 0;
#X restore 3 42 graph;
#X connect 0 0 2 0;
#X connect 1 0 4 0;
#X connect 2 0 24 0;
#X connect 3 0 24 0;
#X connect 4 0 0 0;
#X connect 4 1 5 0;
#X connect 5 0 3 0;
#X connect 6 1 2 1;
#X connect 7 0 12 0;
#X connect 8 0 33 0;
#X connect 10 0 21 0;
#X connect 10 0 11 0;
#X connect 11 0 35 0;
#X connect 12 0 10 0;
#X connect 17 0 9 0;
#X connect 17 0 25 0;
#X connect 18 0 1 0;
#X connect 20 0 34 0;
#X connect 21 0 35 0;
#X connect 23 0 17 0;
#X connect 26 0 7 0;
#X connect 27 0 1 1;
#X connect 27 0 6 0;
#X connect 33 0 11 1;
#X connect 34 0 21 1;
#X coords 0 0 1 1 190 80 2 0 0;
