#N canvas 0 22 914 528 10;
#X obj 107 137 vcf~ 10;
#X obj 182 137 vcf~ 10;
#X obj 257 137 vcf~ 10;
#X obj 89 59 inlet~;
#X obj 90 286 outlet~;
#X obj 188 51 inlet~;
#X obj 257 44 inlet~;
#X obj 325 59 inlet~;
#X text 16 59 inlet audio;
#X text 175 24 inlet lowBand;
#X text 274 23 inlet centerBand;
#X text 374 59 inlet HighBand;
#X obj 156 280 outlet~;
#X obj 231 288 outlet~;
#X connect 0 0 4 0;
#X connect 1 0 12 0;
#X connect 2 0 13 0;
#X connect 3 0 0 0;
#X connect 3 0 1 0;
#X connect 3 0 2 0;
#X connect 5 0 0 1;
#X connect 6 0 1 1;
#X connect 7 0 2 1;
