#N canvas 354 258 418 256 10;
#X obj 105 55 tgl 20 0 \$0-tg_tilde \$0-tg_tilde_in empty 17 7 0 10
-24198 -1 -262144 1 1;
#X obj 250 45 sel 1;
#X obj 250 122 s \$0-tg_tilde_in;
#X msg 250 97 color \$1;
#X msg 282 70 13;
#X msg 250 70 16;
#X obj 250 18 r \$0-tg_tilde;
#X obj 28 121 inlet~;
#X obj 28 221 outlet~;
#X obj 28 195 *~;
#X obj 43 174 line~;
#X msg 43 154 \$1 50;
#X obj 186 45 loadbang;
#X msg 186 70 1;
#X obj 86 126 r \$0-tg_tilde;
#X obj 186 121 inlet~;
#X obj 186 221 outlet~;
#X obj 186 195 *~;
#X obj 201 174 line~;
#X msg 201 154 \$1 50;
#X obj 362 17 inlet;
#X connect 1 0 5 0;
#X connect 1 1 4 0;
#X connect 3 0 2 0;
#X connect 4 0 3 0;
#X connect 5 0 3 0;
#X connect 6 0 1 0;
#X connect 7 0 9 0;
#X connect 9 0 8 0;
#X connect 10 0 9 1;
#X connect 11 0 10 0;
#X connect 12 0 13 0;
#X connect 13 0 2 0;
#X connect 14 0 11 0;
#X connect 14 0 19 0;
#X connect 15 0 17 0;
#X connect 17 0 16 0;
#X connect 18 0 17 1;
#X connect 19 0 18 0;
#X connect 20 0 2 0;
#X coords 0 -1 1 1 30 30 2 100 50;
