#N canvas 0 22 1014 594 10;
#X declare -path z_erbe_abs;
#X obj 277 72 vsl 15 128 40 100 0 0 volume midivolume volume 0 -9 0
10 -262144 -1 -1 0 1;
#X obj 271 247 vsl 15 128 0 50 0 0 index index index 0 -9 0 10 -262144
-1 -1 0 1;
#X floatatom 271 385 5 0 0 0 - index -;
#X obj 324 72 vsl 15 128 0 200 0 0 f1attack f1attack a_attack 0 -9
0 10 -262144 -1 -1 0 1;
#X floatatom 324 209 5 0 0 0 - f1attack -;
#X obj 384 72 vsl 15 128 0 5000 0 0 f1decay f1decay a_decay 0 -9 0
10 -262144 -1 -1 0 1;
#X floatatom 384 209 5 0 0 0 - f1decay -;
#X obj 443 71 vsl 15 128 0 100 0 0 f1sustain f1sustain a_sustain 0
-9 0 10 -262144 -1 -1 0 1;
#X floatatom 440 209 5 0 0 0 - f1sustain -;
#X obj 507 72 vsl 15 128 0 500 0 0 f1release f1release a_release 0
-9 0 10 -262144 -1 -1 0 1;
#X floatatom 507 209 5 0 0 0 - f1release -;
#X obj 325 249 vsl 15 128 0 200 0 0 f2attack f2attack i_attack 0 -9
0 10 -262144 -1 -1 0 1;
#X floatatom 325 386 5 0 0 0 - f2attack -;
#X obj 385 249 vsl 15 128 0 5000 0 0 f2decay f2decay i_decay 0 -9 0
10 -262144 -1 -1 0 1;
#X floatatom 385 386 5 0 0 0 - f2decay -;
#X obj 441 249 vsl 15 128 0 100 0 0 f2sustain f2sustain i_sustain 0
-9 0 10 -262144 -1 -1 0 1;
#X floatatom 441 386 5 0 0 0 - f2sustain -;
#X obj 508 249 vsl 15 128 0 1000 0 0 f2release f2release i_release
0 -9 0 10 -262144 -1 -1 0 1;
#X floatatom 508 386 5 0 0 0 - f2release -;
#X floatatom 268 25 5 0 0 0 ratio ratio ratio;
#X obj -67 159 notein;
#X floatatom -12 200 5 0 0 0 - - -;
#X floatatom 20 200 5 0 0 0 - - -;
#N canvas 0 22 450 300 (subpatch) 0;
#X obj -30 22 spigot;
#X obj 2 3 tgl 15 0 empty empty empty 17 7 0 10 -262144 -1 -1 0 1;
#X obj -58 0 inlet;
#X obj -54 54 outlet;
#X connect 0 0 3 0;
#X connect 1 0 0 1;
#X connect 2 0 0 0;
#X coords 0 1 100 -1 20 20 1 0 0;
#X restore -12 158 graph;
#N canvas 0 22 450 300 (subpatch) 0;
#X obj -30 22 spigot;
#X obj 2 3 tgl 15 0 empty empty empty 17 7 0 10 -262144 -1 -1 0 1;
#X obj -58 0 inlet;
#X obj -54 54 outlet;
#X connect 0 0 3 0;
#X connect 1 0 0 1;
#X connect 2 0 0 0;
#X coords 0 1 100 -1 20 20 1 0 0;
#X restore 20 158 graph;
#N canvas 0 22 450 300 (subpatch) 0;
#X obj -30 22 spigot;
#X obj 2 3 tgl 15 0 empty empty empty 17 7 0 10 -262144 -1 -1 0 1;
#X obj -58 0 inlet;
#X obj -54 54 outlet;
#X connect 0 0 3 0;
#X connect 1 0 0 1;
#X connect 2 0 0 0;
#X coords 0 1 100 -1 20 20 1 0 0;
#X restore -67 180 graph;
#N canvas 0 22 450 300 (subpatch) 0;
#X obj -30 22 spigot;
#X obj 2 3 tgl 15 0 empty empty empty 17 7 0 10 -262144 -1 -1 0 1;
#X obj -58 0 inlet;
#X obj -54 54 outlet;
#X connect 0 0 3 0;
#X connect 1 0 0 1;
#X connect 2 0 0 0;
#X coords 0 1 100 -1 20 20 1 0 0;
#X restore -47 180 graph;
#X obj -12 114 r noteBanded;
#X obj 20 134 r velBanded;
#N canvas 0 22 450 300 (subpatch) 0;
#X obj 59 155 inlet;
#X obj 3 89 inlet~;
#X obj 58 182 change;
#X msg 60 246 set \$1;
#X obj 60 227 tosymbol;
#X obj 59 204 sprintf Bus%d;
#X obj 3 282 throw~ Bus0;
#X obj 2 3 popup 124 25 #ffffff popup Bus0 Bus1 Bus2 Bus3 Bus4 Bus5
;
#X obj 1 32 route bang;
#X obj 154 202 *~;
#X obj 141 7 tgl 15 0 empty empty Dac 19 7 0 10 -262144 -1 -1 0 1;
#X obj 155 238 dac~;
#X obj 1 -41 loadbang;
#X text 59 -43 Bus0 mutes;
#X msg 1 -23 options Bus0 Bus1 Bus2 Bus3 Bus4 Bus5 Bus6 Bus7 Bus8 Bus9
Bus10 Bus11 Bus12 Bus13 Bus14 Bus15 Bus16;
#X connect 0 0 2 0;
#X connect 1 0 6 0;
#X connect 1 0 9 0;
#X connect 2 0 5 0;
#X connect 3 0 6 0;
#X connect 4 0 3 0;
#X connect 5 0 4 0;
#X connect 7 0 8 0;
#X connect 8 1 2 0;
#X connect 9 0 11 0;
#X connect 9 0 11 1;
#X connect 10 0 9 1;
#X connect 12 0 14 0;
#X connect 14 0 7 0;
#X coords 0 1 100 -1 180 30 1 0 0;
#X restore -12 233 graph;
#N canvas 109 85 605 426 FMstuff---------- 0;
#X obj 135 255 catch~ fmvoc;
#N canvas 69 80 597 461 fm-osc 0;
#X floatatom 69 114 5 0 0 0 midi-note - -;
#X obj 75 136 mtof;
#X obj 207 202 osc~;
#X floatatom 208 96 5 0 0 0 ratio ratio -;
#X obj 208 149 *;
#X floatatom 210 177 5 0 0 0 - - -;
#X floatatom 70 157 5 0 0 0 - - -;
#X obj 180 325 osc~;
#X floatatom 125 97 5 0 0 0 index index -;
#X obj 184 227 *~;
#X obj 169 300 +~;
#X obj 157 175 line~;
#X obj 171 201 *~;
#X obj 123 149 pack f 300;
#X obj 183 252 *~;
#X obj 188 348 *~;
#X floatatom 341 258 5 0 0 0 - - -;
#X floatatom 380 258 5 0 0 0 - - -;
#X floatatom 420 258 5 0 0 0 - - -;
#X floatatom 462 258 5 0 0 0 - - -;
#X obj 362 181 dbtorms~;
#X obj 375 324 dbtorms~;
#X obj 118 12 inlet;
#X obj 189 370 throw~ fmvoc;
#X obj 138 51 unpack f f;
#X obj 339 214 r f1attack;
#X obj 207 123 t b f;
#X obj 383 234 r f1decay;
#X obj 417 214 r f1sustain;
#X obj 456 234 r f1release;
#X floatatom 327 119 5 0 0 0 - - -;
#X floatatom 370 118 5 0 0 0 - - -;
#X floatatom 410 118 5 0 0 0 - - -;
#X floatatom 452 118 5 0 0 0 - - -;
#X obj 329 74 r f2attack;
#X obj 373 94 r f2decay;
#X obj 407 74 r f2sustain;
#X obj 446 94 r f2release;
#X obj 184 277 *~;
#X obj 226 253 dbtorms~;
#X obj 255 107 sel 0;
#X obj 258 135 / 127;
#X obj 259 159 * 40;
#X obj 259 182 + 80;
#X obj 260 204 sig~;
#X obj 378 155 adsr-erbe~;
#X obj 386 299 adsr-erbe~;
#X connect 0 0 1 0;
#X connect 1 0 4 0;
#X connect 1 0 6 0;
#X connect 2 0 9 1;
#X connect 3 0 26 0;
#X connect 4 0 5 0;
#X connect 5 0 2 0;
#X connect 5 0 12 1;
#X connect 6 0 10 0;
#X connect 7 0 15 0;
#X connect 8 0 13 0;
#X connect 9 0 14 0;
#X connect 10 0 7 0;
#X connect 11 0 12 0;
#X connect 12 0 9 0;
#X connect 13 0 11 0;
#X connect 14 0 38 0;
#X connect 15 0 23 0;
#X connect 16 0 46 1;
#X connect 17 0 46 2;
#X connect 18 0 46 3;
#X connect 19 0 46 4;
#X connect 20 0 14 1;
#X connect 21 0 15 1;
#X connect 22 0 24 0;
#X connect 24 0 0 0;
#X connect 24 1 40 0;
#X connect 24 1 45 0;
#X connect 24 1 46 0;
#X connect 25 0 16 0;
#X connect 26 0 4 0;
#X connect 26 1 4 1;
#X connect 27 0 17 0;
#X connect 28 0 18 0;
#X connect 29 0 19 0;
#X connect 30 0 45 1;
#X connect 31 0 45 2;
#X connect 32 0 45 3;
#X connect 33 0 45 4;
#X connect 34 0 30 0;
#X connect 35 0 31 0;
#X connect 36 0 32 0;
#X connect 37 0 33 0;
#X connect 38 0 10 0;
#X connect 39 0 38 1;
#X connect 40 1 41 0;
#X connect 41 0 42 0;
#X connect 42 0 43 0;
#X connect 43 0 44 0;
#X connect 44 0 39 0;
#X connect 45 0 20 0;
#X connect 46 0 21 0;
#X restore 23 152 pd fm-osc;
#X obj 134 346 *~ 0.16;
#N canvas 30 145 460 316 midi------ 0;
#X obj 46 135 pack f f f;
#X obj 45 162 route 1 2 3 4 5 6;
#X obj 44 266 outlet;
#X obj 64 240 outlet;
#X obj 84 214 outlet;
#X obj 103 266 outlet;
#X obj 122 242 outlet;
#X obj 140 216 outlet;
#X obj 47 105 poly 6 1;
#X obj 45 32 midiin-erbe;
#X obj 305 30 r midictl7;
#X obj 304 62 * 60;
#X obj 304 89 + 40;
#X obj 302 120 s midivolume;
#X obj 45 81 inlet;
#X obj 92 78 inlet;
#X connect 0 0 1 0;
#X connect 1 0 2 0;
#X connect 1 1 3 0;
#X connect 1 2 4 0;
#X connect 1 3 5 0;
#X connect 1 4 6 0;
#X connect 1 5 7 0;
#X connect 8 0 0 0;
#X connect 8 1 0 1;
#X connect 8 2 0 2;
#X connect 10 0 11 0;
#X connect 11 0 12 0;
#X connect 12 0 13 0;
#X connect 14 0 8 0;
#X connect 15 0 8 1;
#X restore 23 17 pd midi------;
#X obj 118 319 *~;
#X obj 33 202 r volume;
#X obj 34 226 pack f 100;
#X obj 35 251 vline~ 0;
#X obj 35 276 dbtorms~;
#N canvas 266 91 585 449 fm-osc 0;
#X floatatom 74 113 5 0 0 0 midi-note - -;
#X obj 75 136 mtof;
#X obj 207 202 osc~;
#X floatatom 208 96 5 0 0 0 ratio ratio -;
#X obj 208 149 *;
#X floatatom 210 177 5 0 0 0 - - -;
#X floatatom 70 157 5 0 0 0 - - -;
#X obj 180 325 osc~;
#X floatatom 125 97 5 0 0 0 index index -;
#X obj 184 227 *~;
#X obj 169 300 +~;
#X obj 157 175 line~;
#X obj 171 201 *~;
#X obj 123 149 pack f 300;
#X obj 183 252 *~;
#X obj 188 348 *~;
#X floatatom 341 258 5 0 0 0 - - -;
#X floatatom 380 258 5 0 0 0 - - -;
#X floatatom 420 258 5 0 0 0 - - -;
#X floatatom 462 258 5 0 0 0 - - -;
#X obj 362 181 dbtorms~;
#X obj 375 324 dbtorms~;
#X obj 118 12 inlet;
#X obj 189 370 throw~ fmvoc;
#X obj 138 51 unpack f f;
#X obj 339 214 r f1attack;
#X obj 207 123 t b f;
#X obj 383 234 r f1decay;
#X obj 417 214 r f1sustain;
#X obj 456 234 r f1release;
#X floatatom 327 119 5 0 0 0 - - -;
#X floatatom 370 118 5 0 0 0 - - -;
#X floatatom 410 118 5 0 0 0 - - -;
#X floatatom 452 118 5 0 0 0 - - -;
#X obj 329 74 r f2attack;
#X obj 373 94 r f2decay;
#X obj 407 74 r f2sustain;
#X obj 446 94 r f2release;
#X obj 184 277 *~;
#X obj 226 253 dbtorms~;
#X obj 255 107 sel 0;
#X obj 258 135 / 127;
#X obj 259 159 * 40;
#X obj 259 182 + 80;
#X obj 260 204 sig~;
#X obj 378 155 adsr-erbe~;
#X obj 386 299 adsr-erbe~;
#X connect 0 0 1 0;
#X connect 1 0 4 0;
#X connect 1 0 6 0;
#X connect 2 0 9 1;
#X connect 3 0 26 0;
#X connect 4 0 5 0;
#X connect 5 0 2 0;
#X connect 5 0 12 1;
#X connect 6 0 10 0;
#X connect 7 0 15 0;
#X connect 8 0 13 0;
#X connect 9 0 14 0;
#X connect 10 0 7 0;
#X connect 11 0 12 0;
#X connect 12 0 9 0;
#X connect 13 0 11 0;
#X connect 14 0 38 0;
#X connect 15 0 23 0;
#X connect 16 0 46 1;
#X connect 17 0 46 2;
#X connect 18 0 46 3;
#X connect 19 0 46 4;
#X connect 20 0 14 1;
#X connect 21 0 15 1;
#X connect 22 0 24 0;
#X connect 24 0 0 0;
#X connect 24 1 40 0;
#X connect 24 1 45 0;
#X connect 24 1 46 0;
#X connect 25 0 16 0;
#X connect 26 0 4 0;
#X connect 26 1 4 1;
#X connect 27 0 17 0;
#X connect 28 0 18 0;
#X connect 29 0 19 0;
#X connect 30 0 45 1;
#X connect 31 0 45 2;
#X connect 32 0 45 3;
#X connect 33 0 45 4;
#X connect 34 0 30 0;
#X connect 35 0 31 0;
#X connect 36 0 32 0;
#X connect 37 0 33 0;
#X connect 38 0 10 0;
#X connect 39 0 38 1;
#X connect 40 1 41 0;
#X connect 41 0 42 0;
#X connect 42 0 43 0;
#X connect 43 0 44 0;
#X connect 44 0 39 0;
#X connect 45 0 20 0;
#X connect 46 0 21 0;
#X restore 112 43 pd fm-osc;
#N canvas 69 80 581 445 fm-osc 0;
#X floatatom 74 113 5 0 0 0 midi-note - -;
#X obj 75 136 mtof;
#X obj 207 202 osc~;
#X floatatom 208 96 5 0 0 0 ratio ratio -;
#X obj 208 149 *;
#X floatatom 210 177 5 0 0 0 - - -;
#X floatatom 70 157 5 0 0 0 - - -;
#X obj 180 325 osc~;
#X floatatom 125 97 5 0 0 0 index index -;
#X obj 184 227 *~;
#X obj 169 300 +~;
#X obj 157 175 line~;
#X obj 171 201 *~;
#X obj 123 149 pack f 300;
#X obj 183 252 *~;
#X obj 188 348 *~;
#X floatatom 341 258 5 0 0 0 - - -;
#X floatatom 380 258 5 0 0 0 - - -;
#X floatatom 420 258 5 0 0 0 - - -;
#X floatatom 462 258 5 0 0 0 - - -;
#X obj 362 181 dbtorms~;
#X obj 375 324 dbtorms~;
#X obj 118 12 inlet;
#X obj 189 370 throw~ fmvoc;
#X obj 138 51 unpack f f;
#X obj 339 214 r f1attack;
#X obj 207 123 t b f;
#X obj 383 234 r f1decay;
#X obj 417 214 r f1sustain;
#X obj 456 234 r f1release;
#X floatatom 327 119 5 0 0 0 - - -;
#X floatatom 370 118 5 0 0 0 - - -;
#X floatatom 410 118 5 0 0 0 - - -;
#X floatatom 452 118 5 0 0 0 - - -;
#X obj 329 74 r f2attack;
#X obj 373 94 r f2decay;
#X obj 407 74 r f2sustain;
#X obj 446 94 r f2release;
#X obj 184 277 *~;
#X obj 226 253 dbtorms~;
#X obj 255 107 sel 0;
#X obj 258 135 / 127;
#X obj 259 159 * 40;
#X obj 259 182 + 80;
#X obj 260 204 sig~;
#X obj 378 155 adsr-erbe~;
#X obj 386 299 adsr-erbe~;
#X connect 0 0 1 0;
#X connect 1 0 4 0;
#X connect 1 0 6 0;
#X connect 2 0 9 1;
#X connect 3 0 26 0;
#X connect 4 0 5 0;
#X connect 5 0 2 0;
#X connect 5 0 12 1;
#X connect 6 0 10 0;
#X connect 7 0 15 0;
#X connect 8 0 13 0;
#X connect 9 0 14 0;
#X connect 10 0 7 0;
#X connect 11 0 12 0;
#X connect 12 0 9 0;
#X connect 13 0 11 0;
#X connect 14 0 38 0;
#X connect 15 0 23 0;
#X connect 16 0 46 1;
#X connect 17 0 46 2;
#X connect 18 0 46 3;
#X connect 19 0 46 4;
#X connect 20 0 14 1;
#X connect 21 0 15 1;
#X connect 22 0 24 0;
#X connect 24 0 0 0;
#X connect 24 1 40 0;
#X connect 24 1 45 0;
#X connect 24 1 46 0;
#X connect 25 0 16 0;
#X connect 26 0 4 0;
#X connect 26 1 4 1;
#X connect 27 0 17 0;
#X connect 28 0 18 0;
#X connect 29 0 19 0;
#X connect 30 0 45 1;
#X connect 31 0 45 2;
#X connect 32 0 45 3;
#X connect 33 0 45 4;
#X connect 34 0 30 0;
#X connect 35 0 31 0;
#X connect 36 0 32 0;
#X connect 37 0 33 0;
#X connect 38 0 10 0;
#X connect 39 0 38 1;
#X connect 40 1 41 0;
#X connect 41 0 42 0;
#X connect 42 0 43 0;
#X connect 43 0 44 0;
#X connect 44 0 39 0;
#X connect 45 0 20 0;
#X connect 46 0 21 0;
#X restore 57 108 pd fm-osc;
#N canvas 69 80 581 445 fm-osc 0;
#X floatatom 74 113 5 0 0 0 midi-note - -;
#X obj 75 136 mtof;
#X obj 207 202 osc~;
#X floatatom 208 96 5 0 0 0 ratio ratio -;
#X obj 208 149 *;
#X floatatom 210 177 5 0 0 0 - - -;
#X floatatom 70 157 5 0 0 0 - - -;
#X obj 180 325 osc~;
#X floatatom 125 97 5 0 0 0 index index -;
#X obj 184 227 *~;
#X obj 169 300 +~;
#X obj 157 175 line~;
#X obj 171 201 *~;
#X obj 123 149 pack f 300;
#X obj 183 252 *~;
#X obj 188 348 *~;
#X floatatom 341 258 5 0 0 0 - - -;
#X floatatom 380 258 5 0 0 0 - - -;
#X floatatom 420 258 5 0 0 0 - - -;
#X floatatom 462 258 5 0 0 0 - - -;
#X obj 362 181 dbtorms~;
#X obj 375 324 dbtorms~;
#X obj 118 12 inlet;
#X obj 189 370 throw~ fmvoc;
#X obj 138 51 unpack f f;
#X obj 339 214 r f1attack;
#X obj 207 123 t b f;
#X obj 383 234 r f1decay;
#X obj 417 214 r f1sustain;
#X obj 456 234 r f1release;
#X floatatom 327 119 5 0 0 0 - - -;
#X floatatom 370 118 5 0 0 0 - - -;
#X floatatom 410 118 5 0 0 0 - - -;
#X floatatom 452 118 5 0 0 0 - - -;
#X obj 329 74 r f2attack;
#X obj 373 94 r f2decay;
#X obj 407 74 r f2sustain;
#X obj 446 94 r f2release;
#X obj 184 277 *~;
#X obj 226 253 dbtorms~;
#X obj 255 107 sel 0;
#X obj 258 135 / 127;
#X obj 259 159 * 40;
#X obj 259 182 + 80;
#X obj 260 204 sig~;
#X obj 378 155 adsr-erbe~;
#X obj 386 299 adsr-erbe~;
#X connect 0 0 1 0;
#X connect 1 0 4 0;
#X connect 1 0 6 0;
#X connect 2 0 9 1;
#X connect 3 0 26 0;
#X connect 4 0 5 0;
#X connect 5 0 2 0;
#X connect 5 0 12 1;
#X connect 6 0 10 0;
#X connect 7 0 15 0;
#X connect 8 0 13 0;
#X connect 9 0 14 0;
#X connect 10 0 7 0;
#X connect 11 0 12 0;
#X connect 12 0 9 0;
#X connect 13 0 11 0;
#X connect 14 0 38 0;
#X connect 15 0 23 0;
#X connect 16 0 46 1;
#X connect 17 0 46 2;
#X connect 18 0 46 3;
#X connect 19 0 46 4;
#X connect 20 0 14 1;
#X connect 21 0 15 1;
#X connect 22 0 24 0;
#X connect 24 0 0 0;
#X connect 24 1 40 0;
#X connect 24 1 45 0;
#X connect 24 1 46 0;
#X connect 25 0 16 0;
#X connect 26 0 4 0;
#X connect 26 1 4 1;
#X connect 27 0 17 0;
#X connect 28 0 18 0;
#X connect 29 0 19 0;
#X connect 30 0 45 1;
#X connect 31 0 45 2;
#X connect 32 0 45 3;
#X connect 33 0 45 4;
#X connect 34 0 30 0;
#X connect 35 0 31 0;
#X connect 36 0 32 0;
#X connect 37 0 33 0;
#X connect 38 0 10 0;
#X connect 39 0 38 1;
#X connect 40 1 41 0;
#X connect 41 0 42 0;
#X connect 42 0 43 0;
#X connect 43 0 44 0;
#X connect 44 0 39 0;
#X connect 45 0 20 0;
#X connect 46 0 21 0;
#X restore 78 89 pd fm-osc;
#N canvas 69 80 581 445 fm-osc 0;
#X floatatom 74 113 5 0 0 0 midi-note - -;
#X obj 75 136 mtof;
#X obj 207 202 osc~;
#X floatatom 208 96 5 0 0 0 ratio ratio -;
#X obj 208 149 *;
#X floatatom 210 177 5 0 0 0 - - -;
#X floatatom 70 157 5 0 0 0 - - -;
#X obj 180 325 osc~;
#X floatatom 125 97 5 0 0 0 index index -;
#X obj 184 227 *~;
#X obj 169 300 +~;
#X obj 157 175 line~;
#X obj 171 201 *~;
#X obj 123 149 pack f 300;
#X obj 183 252 *~;
#X obj 188 348 *~;
#X floatatom 341 258 5 0 0 0 - - -;
#X floatatom 380 258 5 0 0 0 - - -;
#X floatatom 420 258 5 0 0 0 - - -;
#X floatatom 462 258 5 0 0 0 - - -;
#X obj 362 181 dbtorms~;
#X obj 375 324 dbtorms~;
#X obj 118 12 inlet;
#X obj 189 370 throw~ fmvoc;
#X obj 138 51 unpack f f;
#X obj 339 214 r f1attack;
#X obj 207 123 t b f;
#X obj 383 234 r f1decay;
#X obj 417 214 r f1sustain;
#X obj 456 234 r f1release;
#X floatatom 327 119 5 0 0 0 - - -;
#X floatatom 370 118 5 0 0 0 - - -;
#X floatatom 410 118 5 0 0 0 - - -;
#X floatatom 452 118 5 0 0 0 - - -;
#X obj 329 74 r f2attack;
#X obj 373 94 r f2decay;
#X obj 407 74 r f2sustain;
#X obj 446 94 r f2release;
#X obj 184 277 *~;
#X obj 226 253 dbtorms~;
#X obj 255 107 sel 0;
#X obj 258 135 / 127;
#X obj 259 159 * 40;
#X obj 259 182 + 80;
#X obj 260 204 sig~;
#X obj 378 155 adsr-erbe~;
#X obj 386 299 adsr-erbe~;
#X connect 0 0 1 0;
#X connect 1 0 4 0;
#X connect 1 0 6 0;
#X connect 2 0 9 1;
#X connect 3 0 26 0;
#X connect 4 0 5 0;
#X connect 5 0 2 0;
#X connect 5 0 12 1;
#X connect 6 0 10 0;
#X connect 7 0 15 0;
#X connect 8 0 13 0;
#X connect 9 0 14 0;
#X connect 10 0 7 0;
#X connect 11 0 12 0;
#X connect 12 0 9 0;
#X connect 13 0 11 0;
#X connect 14 0 38 0;
#X connect 15 0 23 0;
#X connect 16 0 46 1;
#X connect 17 0 46 2;
#X connect 18 0 46 3;
#X connect 19 0 46 4;
#X connect 20 0 14 1;
#X connect 21 0 15 1;
#X connect 22 0 24 0;
#X connect 24 0 0 0;
#X connect 24 1 40 0;
#X connect 24 1 45 0;
#X connect 24 1 46 0;
#X connect 25 0 16 0;
#X connect 26 0 4 0;
#X connect 26 1 4 1;
#X connect 27 0 17 0;
#X connect 28 0 18 0;
#X connect 29 0 19 0;
#X connect 30 0 45 1;
#X connect 31 0 45 2;
#X connect 32 0 45 3;
#X connect 33 0 45 4;
#X connect 34 0 30 0;
#X connect 35 0 31 0;
#X connect 36 0 32 0;
#X connect 37 0 33 0;
#X connect 38 0 10 0;
#X connect 39 0 38 1;
#X connect 40 1 41 0;
#X connect 41 0 42 0;
#X connect 42 0 43 0;
#X connect 43 0 44 0;
#X connect 44 0 39 0;
#X connect 45 0 20 0;
#X connect 46 0 21 0;
#X restore 94 67 pd fm-osc;
#N canvas 69 80 581 445 fm-osc 0;
#X floatatom 74 113 5 0 0 0 midi-note - -;
#X obj 75 136 mtof;
#X obj 207 202 osc~;
#X floatatom 208 96 5 0 0 0 ratio ratio -;
#X obj 208 149 *;
#X floatatom 210 177 5 0 0 0 - - -;
#X floatatom 70 157 5 0 0 0 - - -;
#X obj 180 325 osc~;
#X floatatom 125 97 5 0 0 0 index index -;
#X obj 184 227 *~;
#X obj 169 300 +~;
#X obj 157 175 line~;
#X obj 171 201 *~;
#X obj 123 149 pack f 300;
#X obj 183 252 *~;
#X obj 188 348 *~;
#X floatatom 341 258 5 0 0 0 - - -;
#X floatatom 380 258 5 0 0 0 - - -;
#X floatatom 420 258 5 0 0 0 - - -;
#X floatatom 462 258 5 0 0 0 - - -;
#X obj 362 181 dbtorms~;
#X obj 375 324 dbtorms~;
#X obj 118 12 inlet;
#X obj 189 370 throw~ fmvoc;
#X obj 138 51 unpack f f;
#X obj 339 214 r f1attack;
#X obj 207 123 t b f;
#X obj 383 234 r f1decay;
#X obj 417 214 r f1sustain;
#X obj 456 234 r f1release;
#X floatatom 327 119 5 0 0 0 - - -;
#X floatatom 370 118 5 0 0 0 - - -;
#X floatatom 410 118 5 0 0 0 - - -;
#X floatatom 452 118 5 0 0 0 - - -;
#X obj 329 74 r f2attack;
#X obj 373 94 r f2decay;
#X obj 407 74 r f2sustain;
#X obj 446 94 r f2release;
#X obj 184 277 *~;
#X obj 226 253 dbtorms~;
#X obj 255 107 sel 0;
#X obj 258 135 / 127;
#X obj 259 159 * 40;
#X obj 259 182 + 80;
#X obj 260 204 sig~;
#X obj 378 155 adsr-erbe~;
#X obj 386 299 adsr-erbe~;
#X connect 0 0 1 0;
#X connect 1 0 4 0;
#X connect 1 0 6 0;
#X connect 2 0 9 1;
#X connect 3 0 26 0;
#X connect 4 0 5 0;
#X connect 5 0 2 0;
#X connect 5 0 12 1;
#X connect 6 0 10 0;
#X connect 7 0 15 0;
#X connect 8 0 13 0;
#X connect 9 0 14 0;
#X connect 10 0 7 0;
#X connect 11 0 12 0;
#X connect 12 0 9 0;
#X connect 13 0 11 0;
#X connect 14 0 38 0;
#X connect 15 0 23 0;
#X connect 16 0 46 1;
#X connect 17 0 46 2;
#X connect 18 0 46 3;
#X connect 19 0 46 4;
#X connect 20 0 14 1;
#X connect 21 0 15 1;
#X connect 22 0 24 0;
#X connect 24 0 0 0;
#X connect 24 1 40 0;
#X connect 24 1 45 0;
#X connect 24 1 46 0;
#X connect 25 0 16 0;
#X connect 26 0 4 0;
#X connect 26 1 4 1;
#X connect 27 0 17 0;
#X connect 28 0 18 0;
#X connect 29 0 19 0;
#X connect 30 0 45 1;
#X connect 31 0 45 2;
#X connect 32 0 45 3;
#X connect 33 0 45 4;
#X connect 34 0 30 0;
#X connect 35 0 31 0;
#X connect 36 0 32 0;
#X connect 37 0 33 0;
#X connect 38 0 10 0;
#X connect 39 0 38 1;
#X connect 40 1 41 0;
#X connect 41 0 42 0;
#X connect 42 0 43 0;
#X connect 43 0 44 0;
#X connect 44 0 39 0;
#X connect 45 0 20 0;
#X connect 46 0 21 0;
#X restore 34 131 pd fm-osc;
#X obj 22 -8 inlet;
#X obj 95 -10 inlet;
#X obj 123 378 outlet~;
#X connect 0 0 4 1;
#X connect 2 0 16 0;
#X connect 3 0 1 0;
#X connect 3 1 13 0;
#X connect 3 2 10 0;
#X connect 3 3 11 0;
#X connect 3 4 12 0;
#X connect 3 5 9 0;
#X connect 4 0 2 0;
#X connect 5 0 6 0;
#X connect 6 0 7 0;
#X connect 7 0 8 0;
#X connect 8 0 4 0;
#X connect 14 0 3 0;
#X connect 15 0 3 1;
#X restore -12 216 pd FMstuff----------;
#X msg 585 254 \; ratio 1.4 \; index 10 \; f1attack 0 \; f1decay 15000
\; f1sustain 0 \; f1release 0 \; f2attack 0 \; f2decay 15000 \; f2sustain
0 \; f2release 0;
#X text 586 228 bell-like?;
#X text 696 227 wood drum?;
#X msg 698 253 \; ratio 0.7 \; index 25 \; f1attack 25 \; f1decay 150
\; f1sustain 0 \; f1release 0 \; f2attack 0 \; f2decay 50 \; f2sustain
0 \; f2release 0;
#X text 797 233 brass-like?;
#X msg 797 253 \; ratio 1 \; index 5 \; f1attack 100 \; f1decay 100
\; f1sustain 85 \; f1release 500 \; f2attack 100 \; f2decay 100 \;
f2sustain 85 \; f2release 500;
#X obj 3 310 declare -path z_erbe_abs;
#X connect 20 0 25 0;
#X connect 20 1 26 0;
#X connect 21 0 30 0;
#X connect 22 0 30 1;
#X connect 23 0 21 0;
#X connect 24 0 22 0;
#X connect 25 0 21 0;
#X connect 26 0 22 0;
#X connect 27 0 23 0;
#X connect 28 0 24 0;
#X connect 30 0 29 0;
