#N canvas 182 31 576 388 10;
#X floatatom 233 -119 5 55 91 2 pitch init_pitch raw_pitch;
#X obj 232 -85 vsl 15 128 40 100 0 0 db_amp init_db_amp db_amp 0 -8
0 11 -262144 -1 -1 0 1;
#N canvas 80 54 895 490 guts 0;
#N canvas 185 59 587 435 param_tables 0;
#N canvas 0 22 450 300 (subpatch) 0;
#X array f2tab 37 float 1;
#A 0 2892.8 2892.8 2892.8 2892.8 2892.8 2892.8 2892.8 2871.37 2871.37
2871.37 2849.95 2807.09 2785.66 2742.8 2721.38 2699.95 2678.52 2635.66
2614.23 2592.81 2592.81 2549.95 2507.09 2464.24 2399.95 2378.52 2335.67
2314.24 2292.81 2292.81 2249.96 2185.67 2164.24 2164.24 2164.24 2164.24
2164.24;
#X coords 0 3000 36 0 200 140 1;
#X restore -5 -152 graph;
#N canvas 0 22 450 300 (subpatch) 0;
#X array I1tab 37 float 1;
#A 0 0.251786 0.251786 0.251786 0.25 0.251786 0.251786 0.235714 0.192857
0.178572 0.158929 0.117857 0.103572 0.0892859 0.0732144 0.0732144 0.0732144
0.0714287 0.0660715 0.0642858 0.0607144 0.0571429 0.0535715 0.0500001
0.0464287 0.0446429 0.0428572 0.0392858 0.0339287 0.0321429 0.0321429
0.0303572 0.0303572 0.0285715 0.0250001 0.0214287 0.0178572 0.0178572
;
#X coords 0 0.25 36 0 200 140 1;
#X restore 268 -153 graph;
#N canvas 0 22 450 300 (subpatch) 0;
#X array A2tab 37 float 1;
#A 0 0.041429 0.0378575 0.0350003 0.0285717 0.0271431 0.0257145 0.0235717
0.0207145 0.0228574 0.0235717 0.0257145 0.0271431 0.0300003 0.0335718
0.0335718 0.0357146 0.0371432 0.0400004 0.0428575 0.0457147 0.046429
0.0485719 0.0500004 0.0521433 0.0542862 0.0557148 0.0578576 0.0600005
0.063572 0.0664292 0.0700006 0.0721435 0.0764293 0.0792865 0.0814293
0.0828579 0.0842865;
#X coords 0 0.1 36 0 200 140 1;
#X restore -6 43 graph;
#N canvas 0 22 450 300 (subpatch) 0;
#X array I2tab 37 float 1;
#A 0 4.89287 4.85715 4.39287 4.03573 3.78573 2.9643 2.75001 2.64287
2.21429 1.92858 1.64286 1.50001 1.39286 1.46429 1.57143 1.67858 1.75001
1.85715 1.92858 2.00001 2.07144 2.21429 2.28572 2.39287 2.50001 2.50001
2.53572 2.64287 2.64287 2.64287 2.64287 2.7143 2.46429 2.28572 2.10715
1.92858 1.82144;
#X coords 0 5 36 0 200 140 1;
#X restore 274 47 graph;
#X restore 702 213 pd param_tables;
#N canvas 0 57 1125 388 compute_params 0;
#X obj 144 42 mtof;
#X obj 144 70 s fm;
#X obj 144 15 r pitch;
#X obj 245 147 / 1;
#X obj 245 43 t f f;
#X obj 245 173 + 0.5;
#X obj 245 200 int;
#X obj 284 250 s fc2;
#X obj 245 16 r pitch;
#X obj 395 16 r pitch;
#X obj 395 92 s I1;
#X obj 530 15 r pitch;
#X obj 671 13 r pitch;
#X obj 530 91 s I2;
#X obj 671 89 s A2;
#X obj 714 112 f 1;
#X obj 714 87 t b f;
#X obj 730 139 - 0;
#X obj 730 164 s A1;
#X obj 814 14 r pitch;
#X obj 814 41 mtof;
#X obj 814 70 log;
#X obj 849 149 log;
#X obj 849 123 f 2;
#X obj 814 176 / 1;
#X obj 814 97 t f b;
#X obj 814 234 s vib_wth;
#X obj 245 71 - 55;
#X obj 303 120 mtof;
#X obj 530 40 - 55;
#X obj 395 41 - 55;
#X obj 671 37 - 55;
#X floatatom 144 97 5 0 0 0 - - -;
#X floatatom 439 94 5 0 0 0 - - -;
#X floatatom 569 92 5 0 0 0 - - -;
#X floatatom 659 113 5 0 0 0 - - -;
#X floatatom 682 165 5 0 0 0 - - -;
#X floatatom 894 234 5 0 0 0 - - -;
#X floatatom 252 122 5 0 0 0 - - -;
#X obj 18 168 dbtorms;
#X obj 18 247 s amp;
#X obj 18 142 r db_amp;
#X obj 185 70 s fc1;
#X obj 284 225 *;
#X floatatom 236 251 5 0 0 0 - - -;
#X obj 814 205 * 0.002;
#X obj 947 13 r pitch;
#X obj 947 37 - 55;
#X obj 947 64 / 37;
#X obj 947 89 * 1.5;
#X obj 947 115 + 5;
#X obj 947 141 s vib_rate;
#X floatatom 984 118 5 0 0 0 - - -;
#X obj 18 219 line 10;
#X obj 21 15 r raw_pitch;
#X obj 19 64 line;
#X obj 19 88 s pitch;
#X obj 20 40 pack 0 40;
#X obj 245 95 tabread4 f2tab;
#X obj 395 66 tabread4 I1tab;
#X obj 530 65 tabread4 I2tab;
#X obj 671 61 tabread4 A2tab;
#X obj 18 193 pack 0 40;
#X connect 0 0 1 0;
#X connect 0 0 32 0;
#X connect 0 0 42 0;
#X connect 2 0 0 0;
#X connect 3 0 5 0;
#X connect 4 0 27 0;
#X connect 4 1 28 0;
#X connect 5 0 6 0;
#X connect 6 0 43 0;
#X connect 8 0 4 0;
#X connect 9 0 30 0;
#X connect 11 0 29 0;
#X connect 12 0 31 0;
#X connect 15 0 17 0;
#X connect 16 0 15 0;
#X connect 16 1 17 1;
#X connect 17 0 18 0;
#X connect 17 0 36 0;
#X connect 19 0 20 0;
#X connect 20 0 21 0;
#X connect 21 0 25 0;
#X connect 22 0 24 1;
#X connect 23 0 22 0;
#X connect 24 0 45 0;
#X connect 25 0 24 0;
#X connect 25 1 23 0;
#X connect 27 0 58 0;
#X connect 28 0 3 1;
#X connect 28 0 43 1;
#X connect 29 0 60 0;
#X connect 30 0 59 0;
#X connect 31 0 61 0;
#X connect 39 0 62 0;
#X connect 41 0 39 0;
#X connect 43 0 7 0;
#X connect 43 0 44 0;
#X connect 45 0 26 0;
#X connect 45 0 37 0;
#X connect 46 0 47 0;
#X connect 47 0 48 0;
#X connect 48 0 49 0;
#X connect 49 0 50 0;
#X connect 50 0 51 0;
#X connect 50 0 52 0;
#X connect 53 0 40 0;
#X connect 54 0 57 0;
#X connect 55 0 56 0;
#X connect 57 0 55 0;
#X connect 58 0 3 0;
#X connect 58 0 38 0;
#X connect 59 0 10 0;
#X connect 59 0 33 0;
#X connect 60 0 13 0;
#X connect 60 0 34 0;
#X connect 61 0 14 0;
#X connect 61 0 16 0;
#X connect 61 0 35 0;
#X connect 62 0 53 0;
#X restore 702 239 pd compute_params;
#N canvas 381 70 643 444 vib_generator 0;
#X obj 50 33 r vib_wth;
#X obj 206 33 r attack;
#X obj 280 32 r release;
#X obj 242 93 line~;
#X msg 206 60 0 \, 1 600;
#X msg 280 60 0 100;
#X obj 146 128 *~;
#X floatatom 85 124 5 0 0 2 fr init_fr -;
#X obj 390 31 loadbang;
#X obj 145 100 sig~;
#X obj 165 193 r vib_rate;
#X obj 145 250 *~;
#X text 206 10 vibrato envelope;
#X obj 127 284 +~;
#X text 218 219 vibrato;
#X text 38 181 vib depth;
#X obj 162 286 sig~ 1;
#X obj 127 316 +~;
#X obj 125 375 s~ v;
#X msg 390 57 \; init_fr 2;
#X obj 165 219 osc~ 5;
#X obj 303 212 r attack;
#X obj 303 302 line~;
#X obj 428 245 del 100;
#X msg 428 273 0 50;
#X obj 127 345 +~;
#X text 305 190 port dev;
#X msg 303 272 -0.09 \, 0.03 150;
#N canvas 0 22 450 300 w8b-randi 0;
#X obj 95 271 outlet~;
#X obj 94 109 metro;
#X obj 94 87 tgl 15 0 empty start_rand start_rand 0 -6 0 10 -262144
-1 -1 1 1;
#X obj 94 137 random 1000;
#X obj 94 165 * 0.001;
#X obj 94 194 *;
#X obj 197 70 f 1;
#X obj 197 44 t b f;
#X obj 213 96 / 1;
#X obj 213 123 * 1000;
#X obj 94 245 line~;
#X obj 187 224 loadbang;
#X obj 94 220 pack 0 0;
#X obj 37 171 inlet;
#X obj 197 18 inlet;
#X msg 187 250 \; start_rand 1;
#X text 99 91 comment;
#X connect 1 0 3 0;
#X connect 2 0 1 0;
#X connect 3 0 4 0;
#X connect 4 0 5 0;
#X connect 5 0 12 0;
#X connect 6 0 8 0;
#X connect 7 0 6 0;
#X connect 7 1 8 1;
#X connect 8 0 9 0;
#X connect 9 0 1 1;
#X connect 9 0 12 1;
#X connect 10 0 0 0;
#X connect 11 0 15 0;
#X connect 12 0 10 0;
#X connect 13 0 5 1;
#X connect 14 0 7 0;
#X restore 50 150 pd w8b-randi;
#X obj 230 148 r init_vib_rate;
#X connect 0 0 9 0;
#X connect 0 0 28 0;
#X connect 1 0 4 0;
#X connect 2 0 5 0;
#X connect 3 0 6 1;
#X connect 4 0 3 0;
#X connect 5 0 3 0;
#X connect 6 0 11 0;
#X connect 7 0 28 1;
#X connect 8 0 19 0;
#X connect 9 0 6 0;
#X connect 10 0 20 0;
#X connect 11 0 13 1;
#X connect 13 0 17 0;
#X connect 16 0 17 1;
#X connect 17 0 25 0;
#X connect 20 0 11 1;
#X connect 21 0 27 0;
#X connect 21 0 23 0;
#X connect 22 0 25 1;
#X connect 23 0 24 0;
#X connect 24 0 22 0;
#X connect 25 0 18 0;
#X connect 27 0 22 0;
#X connect 28 0 13 0;
#X connect 29 0 20 0;
#X restore 701 265 pd vib_generator;
#X obj 40 -88 r amp;
#X obj 40 -61 sqrt;
#X obj 92 -89 r A1;
#X obj 40 -30 *;
#X obj 136 -89 r attack;
#X obj 209 -88 r release;
#X obj 163 -30 line~;
#X msg 209 -64 0 80;
#X obj 40 -6 sig~;
#X obj 144 26 *~;
#X obj 338 -86 r I1;
#X obj 386 -86 r fm;
#X obj 338 -55 *;
#X obj 386 -57 osc~;
#X obj 338 -30 sig~;
#X obj 367 -2 *~;
#X text 339 -110 modulator;
#X obj 216 63 +~;
#X obj 216 7 r fc1;
#X obj 216 34 sig~;
#X obj 217 99 *~;
#X obj 216 128 osc~;
#X obj 196 161 *~;
#X text 253 126 carrier 1;
#X text 59 -114 carrier 1 envelope;
#X obj 649 -92 r amp;
#X obj 649 -65 sqrt;
#X obj 690 44 *;
#X obj 753 -93 r attack;
#X obj 826 -92 r release;
#X obj 780 -34 line~;
#X msg 826 -68 0 80;
#X obj 690 68 sig~;
#X obj 690 97 *~;
#X text 676 -118 carrier 2 envelope;
#X obj 504 -36 r I2;
#X obj 543 -36 r I1;
#X obj 520 -9 /;
#X obj 540 40 r fc2;
#X obj 483 97 *~;
#X obj 482 124 osc~;
#X text 401 125 carrier 2;
#X text 345 66 vibrato;
#X obj 482 158 *~;
#X obj 350 217 +~;
#X obj 350 246 *~ 0.5;
#X text 210 -14 carrier 1 freq;
#X text 488 -57 carrier 2 freq;
#X obj 709 -93 r A2;
#X obj 674 -12 *;
#X obj 649 -39 t f f f;
#X obj 649 12 *;
#X floatatom 80 -7 5 0 0 0 - - -;
#X floatatom 735 69 5 0 0 0 - - -;
#X floatatom 267 143 5 0 0 0 - - -;
#X obj 48 222 metro 200;
#X obj 48 247 snapshot~;
#X floatatom 48 273 5 0 0 0 - - -;
#X obj 48 201 tgl 15 0 empty empty empty 0 -6 0 8 -262144 -1 -1 0 1
;
#X obj 520 16 sig~;
#X obj 502 42 *~;
#X obj 502 69 +~ 0;
#X floatatom 526 125 5 0 0 0 - - -;
#X obj 368 35 r~ v;
#X msg 753 -67 1 100;
#X msg 136 -63 1 100;
#X obj 350 276 outlet~;
#X connect 3 0 4 0;
#X connect 4 0 6 0;
#X connect 5 0 6 1;
#X connect 6 0 11 0;
#X connect 6 0 55 0;
#X connect 7 0 68 0;
#X connect 8 0 10 0;
#X connect 9 0 12 1;
#X connect 10 0 9 0;
#X connect 11 0 12 0;
#X connect 12 0 25 0;
#X connect 13 0 15 0;
#X connect 14 0 15 1;
#X connect 14 0 16 0;
#X connect 15 0 17 0;
#X connect 16 0 18 1;
#X connect 17 0 18 0;
#X connect 18 0 20 1;
#X connect 18 0 63 0;
#X connect 20 0 23 0;
#X connect 21 0 22 0;
#X connect 21 0 57 0;
#X connect 22 0 20 0;
#X connect 23 0 24 0;
#X connect 24 0 25 1;
#X connect 25 0 47 0;
#X connect 28 0 29 0;
#X connect 29 0 53 0;
#X connect 30 0 35 0;
#X connect 30 0 56 0;
#X connect 31 0 67 0;
#X connect 32 0 34 0;
#X connect 33 0 36 1;
#X connect 34 0 33 0;
#X connect 35 0 36 0;
#X connect 36 0 46 1;
#X connect 38 0 40 0;
#X connect 39 0 40 1;
#X connect 40 0 62 0;
#X connect 41 0 64 1;
#X connect 41 0 65 0;
#X connect 42 0 43 0;
#X connect 43 0 46 0;
#X connect 46 0 47 1;
#X connect 47 0 48 0;
#X connect 48 0 69 0;
#X connect 51 0 30 1;
#X connect 52 0 54 1;
#X connect 53 0 54 0;
#X connect 53 1 52 0;
#X connect 53 2 52 1;
#X connect 54 0 30 0;
#X connect 58 0 59 0;
#X connect 59 0 60 0;
#X connect 61 0 58 0;
#X connect 62 0 63 1;
#X connect 63 0 64 0;
#X connect 64 0 42 1;
#X connect 66 0 42 0;
#X connect 66 0 23 1;
#X connect 67 0 33 0;
#X connect 68 0 9 0;
#X restore 289 20 pd guts;
#X obj 52 32 bng 15 250 50 0 attack empty attack 0 -6 0 10 -262144
-1 -1;
#X obj 98 34 bng 15 250 50 0 release empty release 0 -6 0 10 -262144
-1 -1;
#X obj 289 -71 loadbang;
#X msg 289 -54 \; init_db_amp 40 \; init_pitch 55 \; init_vib_rate
5 \; pd dsp 1;
#X floatatom 232 53 5 0 0 0 - db_amp -;
#X obj 289 -92 midiin-erbe;
#X obj 37 -68 poly 1 1;
#X obj 37 -47 s init_pitch;
#X obj 82 -25 sel 0;
#N canvas 0 22 450 300 (subpatch) 0;
#X obj 59 155 inlet;
#X obj 3 89 inlet~;
#X obj 58 182 change;
#X msg 60 246 set \$1;
#X obj 60 227 tosymbol;
#X obj 59 204 sprintf Bus%d;
#X obj 3 282 throw~ Bus0;
#X obj 2 3 popup 124 25 #ffffff popup Bus0 Bus1 Bus2 Bus3 Bus4 Bus5
;
#X obj 1 32 route bang;
#X obj 154 202 *~;
#X obj 141 7 tgl 15 0 empty empty Dac 19 7 0 10 -262144 -1 -1 0 1;
#X obj 155 238 dac~;
#X obj 1 -41 loadbang;
#X text 59 -43 Bus0 mutes;
#X msg 1 -23 options Bus0 Bus1 Bus2 Bus3 Bus4 Bus5 Bus6 Bus7 Bus8 Bus9
Bus10 Bus11 Bus12 Bus13 Bus14 Bus15 Bus16;
#X connect 0 0 2 0;
#X connect 1 0 6 0;
#X connect 1 0 9 0;
#X connect 2 0 5 0;
#X connect 3 0 6 0;
#X connect 4 0 3 0;
#X connect 5 0 4 0;
#X connect 7 0 8 0;
#X connect 8 1 2 0;
#X connect 9 0 11 0;
#X connect 9 0 11 1;
#X connect 10 0 9 1;
#X connect 12 0 14 0;
#X connect 14 0 7 0;
#X coords 0 1 100 -1 180 30 1 0 0;
#X restore 289 38 graph;
#X obj -18 -126 notein;
#X floatatom 37 -85 5 0 0 0 - - -;
#X floatatom 69 -85 5 0 0 0 - - -;
#N canvas 0 22 450 300 (subpatch) 0;
#X obj -30 22 spigot;
#X obj 2 3 tgl 15 0 empty empty empty 17 7 0 10 -262144 -1 -1 0 1;
#X obj -58 0 inlet;
#X obj -54 54 outlet;
#X connect 0 0 3 0;
#X connect 1 0 0 1;
#X connect 2 0 0 0;
#X coords 0 1 100 -1 20 20 1 0 0;
#X restore 37 -127 graph;
#N canvas 0 22 450 300 (subpatch) 0;
#X obj -30 22 spigot;
#X obj 2 3 tgl 15 0 empty empty empty 17 7 0 10 -262144 -1 -1 0 1;
#X obj -58 0 inlet;
#X obj -54 54 outlet;
#X connect 0 0 3 0;
#X connect 1 0 0 1;
#X connect 2 0 0 0;
#X coords 0 1 100 -1 20 20 1 0 0;
#X restore 69 -127 graph;
#N canvas 0 22 450 300 (subpatch) 0;
#X obj -30 22 spigot;
#X obj 2 3 tgl 15 0 empty empty empty 17 7 0 10 -262144 -1 -1 0 1;
#X obj -58 0 inlet;
#X obj -54 54 outlet;
#X connect 0 0 3 0;
#X connect 1 0 0 1;
#X connect 2 0 0 0;
#X coords 0 1 100 -1 20 20 1 0 0;
#X restore -18 -105 graph;
#N canvas 0 22 450 300 (subpatch) 0;
#X obj -30 22 spigot;
#X obj 2 3 tgl 15 0 empty empty empty 17 7 0 10 -262144 -1 -1 0 1;
#X obj -58 0 inlet;
#X obj -54 54 outlet;
#X connect 0 0 3 0;
#X connect 1 0 0 1;
#X connect 2 0 0 0;
#X coords 0 1 100 -1 20 20 1 0 0;
#X restore 2 -105 graph;
#X obj 37 -172 r noteBanded;
#X obj 69 -152 r velBanded;
#X floatatom 124 -57 5 0 0 0 - - -;
#X floatatom 124 -24 5 0 0 0 - - -;
#X obj 124 -86 knob 25 25 0 127 0 0 empty empty empty 0 -8 32 8 -1
-260097 -260097 0 1;
#N canvas 0 22 450 300 (subpatch) 0;
#X obj -30 22 spigot;
#X obj 2 3 tgl 15 0 empty empty empty 17 7 0 10 -262144 -1 -1 0 1;
#X obj -58 0 inlet;
#X obj -54 54 outlet;
#X connect 0 0 3 0;
#X connect 1 0 0 1;
#X connect 2 0 0 0;
#X coords 0 1 100 -1 20 20 1 0 0;
#X restore 124 -109 graph;
#X obj 124 -129 ctlin 1;
#X obj 52 48 del;
#X text 174 -129 dur;
#X obj 124 -41 * 10;
#X connect 2 0 12 0;
#X connect 3 0 27 0;
#X connect 5 0 6 0;
#X connect 9 1 10 0;
#X connect 9 2 11 0;
#X connect 11 1 3 0;
#X connect 13 0 18 0;
#X connect 13 1 19 0;
#X connect 14 0 9 0;
#X connect 15 0 9 1;
#X connect 16 0 14 0;
#X connect 17 0 15 0;
#X connect 18 0 14 0;
#X connect 19 0 15 0;
#X connect 20 0 16 0;
#X connect 21 0 17 0;
#X connect 22 0 29 0;
#X connect 23 0 27 1;
#X connect 24 0 22 0;
#X connect 25 0 24 0;
#X connect 26 0 25 0;
#X connect 27 0 4 0;
#X connect 29 0 23 0;
