#N canvas 223 120 355 205 10;
#X obj 107 18 cnv 15 45 90 empty empty empty 20 12 0 14 -261234 -66577
0;
#X obj 112 21 tgl 15 0 step1 empty empty 17 7 0 10 -262144 -1 -1 0
1;
#X obj 133 22 bng 15 250 50 0 empty empty empty 17 7 0 10 -262144 -1
-1;
#X floatatom 112 44 5 0 0 3 note - note1;
#X floatatom 111 76 5 0 10 3 preset - preset1;
#X obj 157 18 cnv 15 45 90 step2 empty empty 20 12 0 14 -261682 -66577
0;
#X obj 161 22 tgl 15 0 step2 empty empty 17 7 0 10 -262144 -1 -1 0
1;
#X obj 183 22 bng 15 250 50 0 empty empty empty 17 7 0 10 -262144 -1
-1;
#X floatatom 162 44 5 0 0 3 note - note2;
#X floatatom 161 76 5 0 10 3 preset - preset2;
#X obj 208 18 cnv 15 45 90 step3 empty empty 20 12 0 14 -204786 -66577
0;
#X obj 212 22 tgl 15 0 step3 empty empty 17 7 0 10 -262144 -1 -1 0
1;
#X obj 234 22 bng 15 250 50 0 empty empty empty 17 7 0 10 -262144 -1
-1;
#X floatatom 213 44 5 0 0 3 note - note3;
#X floatatom 213 77 5 0 10 3 preset - preset3;
#X obj 258 18 cnv 15 45 90 empty empty empty 20 12 0 14 -204800 -66577
0;
#X obj 263 21 tgl 15 0 step4 empty empty 17 7 0 10 -262144 -1 -1 0
1;
#X obj 284 22 bng 15 250 50 0 empty empty empty 17 7 0 10 -262144 -1
-1;
#X floatatom 263 44 5 0 0 3 note - note4;
#X floatatom 262 76 5 0 10 3 preset - preset4;
#X obj 32 19 cnv 15 65 90 empty empty empty 20 12 0 14 -191407 -66577
0;
#X obj 36 23 tgl 15 0 metro empty on/off 17 7 0 10 -262144 -1 -1 0
1;
#X floatatom 36 76 5 0 0 3 speed - speed;
#N canvas 121 22 589 467 sound 0;
#N canvas 234 54 349 371 voice 0;
#X floatatom 28 64 5 0 0 0 midi-note - -;
#X obj 26 104 mtof;
#X obj 213 195 osc~;
#X floatatom 243 63 5 0 0 0 ratio - -;
#X obj 244 138 *;
#X floatatom 221 170 5 0 0 0 - - -;
#X floatatom 23 172 5 0 0 0 - - -;
#X obj 161 265 osc~;
#X floatatom 164 64 5 0 0 0 index - -;
#X obj 190 220 *~;
#X obj 162 243 +~;
#X obj 144 165 line~;
#X obj 151 193 *~;
#X obj 236 89 t b f;
#X obj 15 29 inlet;
#X obj 69 340 throw~ sum;
#X obj 156 30 r index;
#X obj 235 29 r ratio;
#X obj 29 81 t f b;
#X obj 153 88 t b f;
#X obj 159 133 pack f 0;
#X obj 88 136 pack 1 f;
#X obj 61 29 r notelength;
#X obj 25 262 line~;
#X obj 43 234 pack 0 f;
#X msg -7 234 1 0;
#X obj 4 205 t b b;
#X obj 30 290 *~;
#X obj 77 317 *~;
#X obj 73 77 * 4;
#X obj 102 75 * 2;
#X connect 0 0 18 0;
#X connect 1 0 4 0;
#X connect 1 0 6 0;
#X connect 2 0 9 1;
#X connect 3 0 13 0;
#X connect 4 0 5 0;
#X connect 5 0 2 0;
#X connect 5 0 12 1;
#X connect 6 0 10 0;
#X connect 6 0 26 0;
#X connect 7 0 28 1;
#X connect 8 0 19 0;
#X connect 9 0 10 1;
#X connect 10 0 7 0;
#X connect 11 0 12 0;
#X connect 12 0 9 0;
#X connect 13 0 4 0;
#X connect 13 1 4 1;
#X connect 14 0 0 0;
#X connect 16 0 8 0;
#X connect 17 0 3 0;
#X connect 18 0 1 0;
#X connect 19 0 21 0;
#X connect 19 1 20 0;
#X connect 20 0 11 0;
#X connect 21 0 11 0;
#X connect 22 0 30 0;
#X connect 22 0 29 0;
#X connect 23 0 27 0;
#X connect 23 0 27 1;
#X connect 24 0 23 0;
#X connect 25 0 23 0;
#X connect 26 0 24 0;
#X connect 26 1 25 0;
#X connect 27 0 28 0;
#X connect 28 0 15 0;
#X connect 29 0 24 1;
#X connect 30 0 21 1;
#X restore 107 409 pd voice;
#X obj 46 128 metro;
#X obj 19 81 r metro;
#X obj 153 11 r speed;
#X obj 87 103 /;
#X obj 84 8 loadbang;
#X floatatom 84 50 5 0 0 0 - - -;
#X obj 105 76 t b f;
#X msg 84 29 1000;
#X obj 150 38 max 0.001;
#X obj 364 72 catch~ sum;
#X obj 76 159 f 1;
#X obj 114 159 + 1;
#X msg 101 130 1;
#X obj 101 189 sel 4;
#X obj 74 211 sel 1 2 3 4;
#X obj 75 283 spigot;
#X obj 108 236 r note1;
#X obj 76 259 float;
#X obj 126 259 r step1;
#X obj 189 280 spigot;
#X obj 190 256 float;
#X obj 300 280 spigot;
#X obj 301 256 float;
#X obj 406 283 spigot;
#X obj 407 259 float;
#X obj 222 233 r note2;
#X obj 242 254 r step2;
#X obj 351 256 r step3;
#X obj 333 233 r note3;
#X obj 439 236 r note4;
#X obj 457 259 r step4;
#X obj 425 400 s preset;
#X obj 75 351 spigot;
#X obj 75 326 float;
#X obj 126 327 r step1;
#X obj 182 352 spigot;
#X obj 183 328 float;
#X obj 235 326 r step2;
#X obj 300 354 spigot;
#X obj 301 330 float;
#X obj 351 330 r step3;
#X obj 419 355 spigot;
#X obj 420 331 float;
#X obj 470 331 r step4;
#X obj 108 304 r preset1;
#X obj 215 305 r preset2;
#X obj 333 307 r preset3;
#X obj 452 308 r preset4;
#X obj 159 134 s notelength;
#N canvas 807 150 349 371 voice 0;
#X floatatom 28 64 5 0 0 0 midi-note - -;
#X obj 26 104 mtof;
#X obj 213 195 osc~;
#X floatatom 243 63 5 0 0 0 ratio - -;
#X obj 244 138 *;
#X floatatom 221 170 5 0 0 0 - - -;
#X floatatom 23 172 5 0 0 0 - - -;
#X obj 161 265 osc~;
#X floatatom 164 64 5 0 0 0 index - -;
#X obj 190 220 *~;
#X obj 162 243 +~;
#X obj 144 165 line~;
#X obj 151 193 *~;
#X obj 236 89 t b f;
#X obj 15 29 inlet;
#X obj 69 340 throw~ sum;
#X obj 156 30 r index;
#X obj 235 29 r ratio;
#X obj 29 81 t f b;
#X obj 153 88 t b f;
#X obj 159 133 pack f 0;
#X obj 88 136 pack 1 f;
#X obj 61 29 r notelength;
#X obj 25 262 line~;
#X obj 43 234 pack 0 f;
#X msg -7 234 1 0;
#X obj 4 205 t b b;
#X obj 30 290 *~;
#X obj 77 317 *~;
#X obj 73 77 * 4;
#X obj 102 75 * 2;
#X connect 0 0 18 0;
#X connect 1 0 4 0;
#X connect 1 0 6 0;
#X connect 2 0 9 1;
#X connect 3 0 13 0;
#X connect 4 0 5 0;
#X connect 5 0 2 0;
#X connect 5 0 12 1;
#X connect 6 0 10 0;
#X connect 6 0 26 0;
#X connect 7 0 28 1;
#X connect 8 0 19 0;
#X connect 9 0 10 1;
#X connect 10 0 7 0;
#X connect 11 0 12 0;
#X connect 12 0 9 0;
#X connect 13 0 4 0;
#X connect 13 1 4 1;
#X connect 14 0 0 0;
#X connect 16 0 8 0;
#X connect 17 0 3 0;
#X connect 18 0 1 0;
#X connect 19 0 21 0;
#X connect 19 1 20 0;
#X connect 20 0 11 0;
#X connect 21 0 11 0;
#X connect 22 0 30 0;
#X connect 22 0 29 0;
#X connect 23 0 27 0;
#X connect 23 0 27 1;
#X connect 24 0 23 0;
#X connect 25 0 23 0;
#X connect 26 0 24 0;
#X connect 26 1 25 0;
#X connect 27 0 28 0;
#X connect 28 0 15 0;
#X connect 29 0 24 1;
#X connect 30 0 21 1;
#X restore 180 411 pd voice;
#N canvas 807 150 349 371 voice 0;
#X floatatom 28 64 5 0 0 0 midi-note - -;
#X obj 26 104 mtof;
#X obj 213 195 osc~;
#X floatatom 243 63 5 0 0 0 ratio - -;
#X obj 244 138 *;
#X floatatom 221 170 5 0 0 0 - - -;
#X floatatom 23 172 5 0 0 0 - - -;
#X obj 161 265 osc~;
#X floatatom 164 64 5 0 0 0 index - -;
#X obj 190 220 *~;
#X obj 162 243 +~;
#X obj 144 165 line~;
#X obj 151 193 *~;
#X obj 236 89 t b f;
#X obj 15 29 inlet;
#X obj 69 340 throw~ sum;
#X obj 156 30 r index;
#X obj 235 29 r ratio;
#X obj 29 81 t f b;
#X obj 153 88 t b f;
#X obj 159 133 pack f 0;
#X obj 88 136 pack 1 f;
#X obj 61 29 r notelength;
#X obj 25 262 line~;
#X obj 43 234 pack 0 f;
#X msg -7 234 1 0;
#X obj 4 205 t b b;
#X obj 30 290 *~;
#X obj 77 317 *~;
#X obj 73 77 * 4;
#X obj 102 75 * 2;
#X connect 0 0 18 0;
#X connect 1 0 4 0;
#X connect 1 0 6 0;
#X connect 2 0 9 1;
#X connect 3 0 13 0;
#X connect 4 0 5 0;
#X connect 5 0 2 0;
#X connect 5 0 12 1;
#X connect 6 0 10 0;
#X connect 6 0 26 0;
#X connect 7 0 28 1;
#X connect 8 0 19 0;
#X connect 9 0 10 1;
#X connect 10 0 7 0;
#X connect 11 0 12 0;
#X connect 12 0 9 0;
#X connect 13 0 4 0;
#X connect 13 1 4 1;
#X connect 14 0 0 0;
#X connect 16 0 8 0;
#X connect 17 0 3 0;
#X connect 18 0 1 0;
#X connect 19 0 21 0;
#X connect 19 1 20 0;
#X connect 20 0 11 0;
#X connect 21 0 11 0;
#X connect 22 0 30 0;
#X connect 22 0 29 0;
#X connect 23 0 27 0;
#X connect 23 0 27 1;
#X connect 24 0 23 0;
#X connect 25 0 23 0;
#X connect 26 0 24 0;
#X connect 26 1 25 0;
#X connect 27 0 28 0;
#X connect 28 0 15 0;
#X connect 29 0 24 1;
#X connect 30 0 21 1;
#X restore 252 418 pd voice;
#N canvas 807 150 349 371 voice 0;
#X floatatom 28 64 5 0 0 0 midi-note - -;
#X obj 26 104 mtof;
#X obj 213 195 osc~;
#X floatatom 243 63 5 0 0 0 ratio - -;
#X obj 244 138 *;
#X floatatom 221 170 5 0 0 0 - - -;
#X floatatom 23 172 5 0 0 0 - - -;
#X obj 161 265 osc~;
#X floatatom 164 64 5 0 0 0 index - -;
#X obj 190 220 *~;
#X obj 162 243 +~;
#X obj 144 165 line~;
#X obj 151 193 *~;
#X obj 236 89 t b f;
#X obj 15 29 inlet;
#X obj 69 340 throw~ sum;
#X obj 156 30 r index;
#X obj 235 29 r ratio;
#X obj 29 81 t f b;
#X obj 153 88 t b f;
#X obj 159 133 pack f 0;
#X obj 88 136 pack 1 f;
#X obj 61 29 r notelength;
#X obj 25 262 line~;
#X obj 43 234 pack 0 f;
#X msg -7 234 1 0;
#X obj 4 205 t b b;
#X obj 30 290 *~;
#X obj 77 317 *~;
#X obj 73 77 * 4;
#X obj 102 75 * 2;
#X connect 0 0 18 0;
#X connect 1 0 4 0;
#X connect 1 0 6 0;
#X connect 2 0 9 1;
#X connect 3 0 13 0;
#X connect 4 0 5 0;
#X connect 5 0 2 0;
#X connect 5 0 12 1;
#X connect 6 0 10 0;
#X connect 6 0 26 0;
#X connect 7 0 28 1;
#X connect 8 0 19 0;
#X connect 9 0 10 1;
#X connect 10 0 7 0;
#X connect 11 0 12 0;
#X connect 12 0 9 0;
#X connect 13 0 4 0;
#X connect 13 1 4 1;
#X connect 14 0 0 0;
#X connect 16 0 8 0;
#X connect 17 0 3 0;
#X connect 18 0 1 0;
#X connect 19 0 21 0;
#X connect 19 1 20 0;
#X connect 20 0 11 0;
#X connect 21 0 11 0;
#X connect 22 0 30 0;
#X connect 22 0 29 0;
#X connect 23 0 27 0;
#X connect 23 0 27 1;
#X connect 24 0 23 0;
#X connect 25 0 23 0;
#X connect 26 0 24 0;
#X connect 26 1 25 0;
#X connect 27 0 28 0;
#X connect 28 0 15 0;
#X connect 29 0 24 1;
#X connect 30 0 21 1;
#X restore 339 411 pd voice;
#X obj 430 100 *~ 0.25;
#X obj 366 158 outlet~;
#X connect 1 0 11 0;
#X connect 2 0 1 0;
#X connect 3 0 9 0;
#X connect 4 0 1 1;
#X connect 4 0 49 0;
#X connect 5 0 8 0;
#X connect 6 0 4 0;
#X connect 7 0 4 0;
#X connect 7 1 4 1;
#X connect 8 0 6 0;
#X connect 9 0 7 0;
#X connect 10 0 53 0;
#X connect 11 0 12 0;
#X connect 11 0 14 0;
#X connect 11 0 15 0;
#X connect 12 0 11 1;
#X connect 13 0 11 1;
#X connect 14 0 13 0;
#X connect 15 0 18 0;
#X connect 15 0 34 0;
#X connect 15 1 21 0;
#X connect 15 1 37 0;
#X connect 15 2 23 0;
#X connect 15 2 40 0;
#X connect 15 3 25 0;
#X connect 15 3 43 0;
#X connect 16 0 0 0;
#X connect 17 0 18 1;
#X connect 18 0 16 0;
#X connect 19 0 16 1;
#X connect 20 0 50 0;
#X connect 21 0 20 0;
#X connect 22 0 51 0;
#X connect 23 0 22 0;
#X connect 24 0 52 0;
#X connect 25 0 24 0;
#X connect 26 0 21 1;
#X connect 27 0 20 1;
#X connect 28 0 22 1;
#X connect 29 0 23 1;
#X connect 30 0 25 1;
#X connect 31 0 24 1;
#X connect 33 0 32 0;
#X connect 34 0 33 0;
#X connect 35 0 33 1;
#X connect 36 0 32 0;
#X connect 37 0 36 0;
#X connect 38 0 36 1;
#X connect 39 0 32 0;
#X connect 40 0 39 0;
#X connect 41 0 39 1;
#X connect 42 0 32 0;
#X connect 43 0 42 0;
#X connect 44 0 42 1;
#X connect 45 0 34 1;
#X connect 46 0 37 1;
#X connect 47 0 40 1;
#X connect 48 0 43 1;
#X connect 53 0 54 0;
#X restore 47 132 pd sound;
#N canvas 266 182 450 300 preset 0;
#X obj 113 55 r preset;
#X obj 113 85 sel 1 2 3 4 5 6 7 8 9 10;
#X msg 67 122 \; ratio 1 \; index 10;
#X msg 89 175 \; ratio 7 \; index 9;
#X msg 165 121 \; ratio 2 \; index 3;
#X msg 182 173 \; ratio 7 \; index 1000;
#X msg 206 223 \; ratio 1.5 \; index 4;
#X msg 243 121 \; ratio 0.5 \; index 20;
#X msg 262 172 \; ratio 0.1 \; index 8;
#X msg 291 222 \; ratio 1 \; index 30;
#X msg 317 120 \; ratio 1.7 \; index 40;
#X msg 115 222 \; ratio 2.03 \; index 15;
#X connect 0 0 1 0;
#X connect 1 0 2 0;
#X connect 1 1 3 0;
#X connect 1 2 11 0;
#X connect 1 3 4 0;
#X connect 1 4 5 0;
#X connect 1 5 6 0;
#X connect 1 6 7 0;
#X connect 1 7 8 0;
#X connect 1 8 9 0;
#X connect 1 9 10 0;
#X restore 109 132 pd preset;
#N canvas 0 22 450 300 (subpatch) 0;
#X obj 59 155 inlet;
#X obj 3 89 inlet~;
#X obj 58 182 change;
#X msg 60 246 set \$1;
#X obj 60 227 tosymbol;
#X obj 59 204 sprintf Bus%d;
#X obj 3 282 throw~ Bus0;
#X obj 2 3 popup 124 25 #ffffff popup Bus0 Bus1 Bus2 Bus3 Bus4 Bus5
Bus6 Bus7 Bus8 Bus9 Bus10 Bus11 Bus12 Bus13 Bus14 Bus15 Bus16;
#X obj 1 32 route bang;
#X obj 154 202 *~;
#X obj 141 7 tgl 15 0 empty empty Dac 19 7 0 10 -262144 -1 -1 0 1;
#X obj 155 238 dac~;
#X obj 1 -41 loadbang;
#X text 59 -43 Bus0 mutes;
#X msg 1 -23 options Bus0 Bus1 Bus2 Bus3 Bus4 Bus5 Bus6 Bus7 Bus8 Bus9
Bus10 Bus11 Bus12 Bus13 Bus14 Bus15 Bus16;
#X connect 0 0 2 0;
#X connect 1 0 6 0;
#X connect 1 0 9 0;
#X connect 2 0 5 0;
#X connect 3 0 6 0;
#X connect 4 0 3 0;
#X connect 5 0 4 0;
#X connect 7 0 8 0;
#X connect 8 1 2 0;
#X connect 9 0 11 0;
#X connect 9 0 11 1;
#X connect 10 0 9 1;
#X connect 12 0 14 0;
#X connect 14 0 7 0;
#X coords 0 1 100 -1 180 30 1 0 0;
#X restore 47 149 graph;
#X connect 23 0 25 0;
