#N canvas 431 67 762 648 10;
#X obj 204 5 inlet;
#X obj 240 212 symbol;
#X obj 25 209 float;
#X obj 267 3 loadbang;
#X obj 237 496 outlet saved_value;
#X text 515 607 comments: contactcaucasian//gmail.com;
#X text 573 590 built in Pd 0.41.4-extended;
#X msg 25 370 \$1 \$2 \$3;
#X msg 240 370 \$1 \$2 \$3 \$4;
#X obj 25 345 pack f s f;
#X obj 240 343 pack f s s s;
#X obj 240 413 s sendtocoll;
#X obj 432 76 r vt_save_composition_now;
#X obj 25 236 t b f;
#X obj 240 238 t b s;
#X obj 158 236 symbol;
#X msg 158 213 module;
#X obj 25 313 expr ($f1-1000)*100+$f2;
#X obj 25 289 f \$1;
#X obj 160 288 f \$2;
#X text 21 530 1st parameter is module ID;
#X obj 25 263 t b b;
#X obj 240 315 expr ($f1-1000)*100+$f2;
#X obj 240 291 f \$1;
#X obj 375 290 f \$2;
#X obj 240 265 t b b;
#X text 3 -20 This storage abstraction is designed for VisualTracker
modules;
#X text 21 575 4th parameter is number/symbol switch;
#X text 22 544 2ndparameter is preset number within unique module;
#X obj 267 28 symbol \$4;
#X text 22 560 3rd parameter is module creation parameter;
#X obj 441 318 expr ($f1-1000)*100+$f2;
#X obj 441 294 f \$1;
#X obj 576 293 f \$2;
#X obj 441 268 t b b;
#X msg 460 245 end_of_module_storage_list;
#X text 503 261 adding end of storage list identifier;
#X obj 267 53 select number symbol end;
#X msg 267 77 0;
#X msg 325 76 1;
#X msg 384 77 2;
#X obj 204 118 demux 0 1 2;
#X obj 321 120 demux 0 1 2;
#X obj 487 294 l2s;
#X text 398 119 decides whether value is number \, symbol or end;
#X obj 237 473 l \$3;
#X obj 237 448 r vt_load_values_now;
#X obj 441 198 float;
#X obj 441 223 t b b f;
#X obj 441 345 pack f s s f;
#X msg 441 373 \$1 \$2 \$3 \$4;
#X connect 0 0 41 0;
#X connect 1 0 14 0;
#X connect 2 0 13 0;
#X connect 3 0 16 0;
#X connect 3 0 29 0;
#X connect 7 0 11 0;
#X connect 8 0 11 0;
#X connect 9 0 7 0;
#X connect 10 0 8 0;
#X connect 12 0 42 0;
#X connect 13 0 21 0;
#X connect 13 1 9 2;
#X connect 14 0 25 0;
#X connect 14 1 10 3;
#X connect 15 0 9 1;
#X connect 15 0 10 1;
#X connect 15 0 49 1;
#X connect 16 0 15 0;
#X connect 17 0 9 0;
#X connect 18 0 17 0;
#X connect 19 0 17 1;
#X connect 21 0 18 0;
#X connect 21 1 19 0;
#X connect 22 0 10 0;
#X connect 23 0 22 0;
#X connect 24 0 22 1;
#X connect 25 0 23 0;
#X connect 25 1 24 0;
#X connect 29 0 37 0;
#X connect 31 0 49 0;
#X connect 32 0 31 0;
#X connect 33 0 31 1;
#X connect 34 0 32 0;
#X connect 34 1 33 0;
#X connect 35 0 43 0;
#X connect 37 0 38 0;
#X connect 37 1 39 0;
#X connect 37 2 40 0;
#X connect 38 0 41 1;
#X connect 38 0 42 1;
#X connect 39 0 41 1;
#X connect 39 0 42 1;
#X connect 40 0 41 1;
#X connect 40 0 42 1;
#X connect 41 0 2 1;
#X connect 41 1 1 1;
#X connect 41 2 47 1;
#X connect 42 0 2 0;
#X connect 42 1 1 0;
#X connect 42 2 47 0;
#X connect 43 0 49 2;
#X connect 45 0 4 0;
#X connect 46 0 45 0;
#X connect 47 0 48 0;
#X connect 48 0 34 0;
#X connect 48 1 35 0;
#X connect 48 2 49 3;
#X connect 49 0 50 0;
#X connect 50 0 11 0;
#X coords 0 0 1 1 85 60 0;
