#N canvas 842 783 450 300 10;
#X obj 118 178 dac~;
#X obj 118 120 *~;
#X obj 74 89 vline~;
#X msg 15 59 stop;
#X msg 29 32 0 2000;
#X msg 83 33 1 1000;
#X obj 118 148 *~ 0.5;
#X obj 153 92 noise~;
#X msg 48 6 1 10 \, 0 100 10;
#X connect 1 0 6 0;
#X connect 2 0 1 0;
#X connect 3 0 2 0;
#X connect 4 0 2 0;
#X connect 5 0 2 0;
#X connect 6 0 0 0;
#X connect 6 0 0 1;
#X connect 7 0 1 1;
#X connect 8 0 2 0;
