#N canvas 742 691 450 300 10;
#X obj 118 178 dac~;
#X obj 153 92 osc~ 220;
#X obj 118 120 *~;
#X obj 74 89 vline~;
#X floatatom 153 63 5 0 0 0 - - -;
#X obj 152 36 mtof;
#X floatatom 151 11 5 0 0 0 - - -;
#X msg 15 59 stop;
#X msg 29 32 0 2000;
#X msg 48 6 1 10 \, 0 500 10;
#X msg 83 33 1 1000;
#X obj 118 148 *~ 0.5;
#X connect 1 0 2 1;
#X connect 2 0 11 0;
#X connect 3 0 2 0;
#X connect 4 0 1 0;
#X connect 5 0 4 0;
#X connect 6 0 5 0;
#X connect 7 0 3 0;
#X connect 8 0 3 0;
#X connect 9 0 3 0;
#X connect 10 0 3 0;
#X connect 11 0 0 0;
#X connect 11 0 0 1;
