#N canvas 75 71 686 558 10;
#X declare -path z_Percolate;
#X obj 38 -191 notein;
#X floatatom 275 -186 5 0 0 0 - - -;
#X obj 275 -255 ctlin 1;
#X floatatom 368 -187 5 0 0 0 - - -;
#X floatatom 462 -187 5 0 0 0 - - -;
#X obj 462 -169 / 100;
#X obj 275 -168 / 100;
#X obj 368 -169 / 10;
#X obj 89 -215 r noteAgogo;
#X obj 182 -215 r velAgogo;
#N canvas 0 22 450 300 (subpatch) 0;
#X obj 32 228 agogo~ _________________________________;
#X obj 84 26 vsl 15 128 0 1 0 0 empty empty empty 0 -8 0 8 -262144
-1 -1 12573 1;
#X floatatom 84 160 5 0 0 0 - - -;
#X obj 131 26 vsl 15 128 0 1.55 0 0 empty empty empty 0 -8 0 8 -262144
-1 -1 7046 1;
#X floatatom 131 160 5 0 0 0 - - -;
#X obj 178 26 vsl 15 128 0 1 0 0 empty empty empty 0 -8 0 8 -262144
-1 -1 12446 1;
#X floatatom 178 160 5 0 0 0 - - -;
#X obj 225 26 vsl 15 128 0 10 0 0 empty empty empty 0 -8 0 8 -262144
-1 -1 3810 1;
#X floatatom 225 160 5 0 0 0 - - -;
#X obj 272 26 vsl 15 128 0 1 0 0 empty empty empty 0 -8 0 8 -262144
-1 -1 0 1;
#X floatatom 272 159 5 0 0 0 - - -;
#X obj 319 26 vsl 15 128 100 3100 0 0 empty empty empty 0 -8 0 8 -262144
-1 -1 3758 1;
#X floatatom 319 157 5 0 0 0 - - -;
#X text 177 6 amp;
#X text 315 1 freq;
#X text -158 -172 agogo~;
#X text -158 -158 agogo modal synthesis model;
#X obj 4 39 hdl 15 1 0 3 empty empty empty 0 -6 0 8 -262144 -1 -1 0
;
#X text 149 -221 try these presets;
#X obj 204 -277 loadbang;
#X msg 204 -257 0;
#X obj 204 -184 int;
#X text 60 0 stick;
#X text 59 9 hardness;
#X text 125 -2 stick;
#X text 118 10 position;
#X text 221 -4 vib;
#X text 217 5 freq;
#X text 270 -4 vib;
#X text 264 5 gain;
#X text -157 -132 agogo~ is a model synthesis;
#X text -157 -103 the percussion instrument.;
#X text -156 -112 you control different values of;
#X text -156 -122 implementation of an agogo.;
#X text -156 -77 perry cook and gary scavone).;
#X text -156 -85 ported from the STK (by;
#X text -158 -46 by dan trueman \,;
#X text -159 -37 computer music;
#X text -159 -28 center \, columbia;
#X text -158 -20 university;
#N canvas 389 265 539 342 mypresets 0;
#X obj 2 2 inlet;
#X obj 2 231 outlet;
#X obj 40 231 outlet;
#X obj 78 231 outlet;
#X obj 116 231 outlet;
#X obj 154 231 outlet;
#X obj 192 231 outlet;
#X obj 2 21 sel 0 1 2;
#X obj 2 205 unpack 0 0 0 0 0 0;
#X msg 2 40 0.99 0.86 0.98 3 0 987.767;
#X msg 18 60 0.99 0.86 0.98 4.88 0.99 391.995;
#X msg 34 79 0.99 0.86 0.99 33 0.99 116.541;
#X connect 0 0 7 0;
#X connect 7 0 9 0;
#X connect 7 1 10 0;
#X connect 7 2 11 0;
#X connect 8 0 1 0;
#X connect 8 1 2 0;
#X connect 8 2 3 0;
#X connect 8 3 4 0;
#X connect 8 4 5 0;
#X connect 8 5 6 0;
#X connect 9 0 8 0;
#X connect 10 0 8 0;
#X connect 11 0 8 0;
#X restore 204 -159 pd mypresets;
#X obj 50 -124 stripnote;
#X obj 48 -77 mtof;
#X obj 87 -87 / 100;
#X obj 17 256 *~ 8;
#X obj 27 -52 * 5;
#X text -147 -207 Play Notes around 60;
#X obj 400 -196 inlet;
#X obj 504 -198 inlet;
#X obj 554 -198 inlet;
#X obj -2 -198 inlet;
#X obj 9 -233 inlet;
#X obj 33 302 outlet~;
#X connect 0 0 44 0;
#X connect 1 0 2 0;
#X connect 2 0 0 0;
#X connect 3 0 4 0;
#X connect 4 0 0 1;
#X connect 5 0 6 0;
#X connect 6 0 0 2;
#X connect 7 0 8 0;
#X connect 8 0 0 3;
#X connect 9 0 10 0;
#X connect 10 0 0 4;
#X connect 11 0 12 0;
#X connect 12 0 0 5;
#X connect 17 0 21 0;
#X connect 19 0 20 0;
#X connect 20 0 17 0;
#X connect 21 0 40 0;
#X connect 40 0 1 0;
#X connect 40 1 3 0;
#X connect 40 2 5 0;
#X connect 40 3 7 0;
#X connect 40 4 9 0;
#X connect 40 5 11 0;
#X connect 41 0 42 0;
#X connect 41 1 43 0;
#X connect 42 0 45 0;
#X connect 43 0 1 0;
#X connect 44 0 52 0;
#X connect 45 0 11 0;
#X connect 47 0 3 0;
#X connect 48 0 7 0;
#X connect 49 0 9 0;
#X connect 50 0 41 0;
#X connect 51 0 41 1;
#X coords 0 1 100 -1 380 180 1 0 0;
#X restore 89 -133 graph;
#X floatatom 89 -150 5 0 0 0 - - -;
#X floatatom 182 -149 5 0 0 0 - - -;
#N canvas 0 22 450 300 (subpatch) 0;
#X obj 59 155 inlet;
#X obj 3 89 inlet~;
#X obj 58 182 change;
#X msg 60 246 set \$1;
#X obj 60 227 tosymbol;
#X obj 59 204 sprintf Bus%d;
#X obj 3 282 throw~ Bus0;
#X obj 2 3 popup 124 25 #ffffff popup Bus0 Bus1 Bus2 Bus3 Bus4 Bus5
Bus6 Bus7 Bus8 Bus9 Bus10 Bus11 Bus12 Bus13 Bus14 Bus15 Bus16;
#X obj 1 32 route bang;
#X obj 154 202 *~;
#X obj 141 7 tgl 15 0 empty empty Dac 19 7 0 10 -262144 -1 -1 0 1;
#X obj 155 238 dac~;
#X obj 1 -41 loadbang;
#X text 59 -43 Bus0 mutes;
#X msg 1 -23 options Bus0 Bus1 Bus2 Bus3 Bus4 Bus5 Bus6 Bus7 Bus8 Bus9
Bus10 Bus11 Bus12 Bus13 Bus14 Bus15 Bus16;
#X connect 0 0 2 0;
#X connect 1 0 6 0;
#X connect 1 0 9 0;
#X connect 2 0 5 0;
#X connect 3 0 6 0;
#X connect 4 0 3 0;
#X connect 5 0 4 0;
#X connect 7 0 8 0;
#X connect 8 1 2 0;
#X connect 9 0 11 0;
#X connect 9 0 11 1;
#X connect 10 0 9 1;
#X connect 12 0 14 0;
#X connect 14 0 7 0;
#X coords 0 1 100 -1 180 30 1 0 0;
#X restore 88 47 graph;
#X floatatom 275 -149 5 0 0 0 - - -;
#X floatatom 368 -150 5 0 0 0 - - -;
#X floatatom 462 -150 5 0 0 0 - - -;
#X obj 368 -256 ctlin 2;
#X obj 462 -256 ctlin 4;
#X text 271 -272 Position;
#X text 365 -272 Vib frq;
#X text 465 -272 Vib Gain;
#X obj 462 -216 knob 25 25 0 127 0 0 empty empty empty 0 -8 32 8 -1
-260097 -260097 0 1;
#X obj 368 -216 knob 25 25 0 127 0 0 empty empty empty 0 -8 32 8 -1
-260097 -260097 0 1;
#X obj 275 -215 knob 25 25 0 127 0 0 empty empty empty 0 -8 32 8 -1
-260097 -260097 0 1;
#N canvas 0 22 450 300 (subpatch) 0;
#X obj -30 22 spigot;
#X obj 2 3 tgl 15 0 empty empty empty 17 7 0 10 -262144 -1 -1 0 1;
#X obj -58 0 inlet;
#X obj -54 54 outlet;
#X connect 0 0 3 0;
#X connect 1 0 0 1;
#X connect 2 0 0 0;
#X coords 0 1 100 -1 20 20 1 0 0;
#X restore 275 -238 graph;
#N canvas 0 22 450 300 (subpatch) 0;
#X obj -30 22 spigot;
#X obj 2 3 tgl 15 0 empty empty empty 17 7 0 10 -262144 -1 -1 0 1;
#X obj -58 0 inlet;
#X obj -54 54 outlet;
#X connect 0 0 3 0;
#X connect 1 0 0 1;
#X connect 2 0 0 0;
#X coords 0 1 100 -1 20 20 1 0 0;
#X restore 368 -239 graph;
#N canvas 0 22 450 300 (subpatch) 0;
#X obj -30 22 spigot;
#X obj 2 3 tgl 15 0 empty empty empty 17 7 0 10 -262144 -1 -1 0 1;
#X obj -58 0 inlet;
#X obj -54 54 outlet;
#X connect 0 0 3 0;
#X connect 1 0 0 1;
#X connect 2 0 0 0;
#X coords 0 1 100 -1 20 20 1 0 0;
#X restore 462 -239 graph;
#N canvas 0 22 450 300 (subpatch) 0;
#X obj -30 22 spigot;
#X obj 2 3 tgl 15 0 empty empty empty 17 7 0 10 -262144 -1 -1 0 1;
#X obj -58 0 inlet;
#X obj -54 54 outlet;
#X connect 0 0 3 0;
#X connect 1 0 0 1;
#X connect 2 0 0 0;
#X coords 0 1 100 -1 20 20 1 0 0;
#X restore 38 -170 graph;
#N canvas 0 22 450 300 (subpatch) 0;
#X obj -30 22 spigot;
#X obj 2 3 tgl 15 0 empty empty empty 17 7 0 10 -262144 -1 -1 0 1;
#X obj -58 0 inlet;
#X obj -54 54 outlet;
#X connect 0 0 3 0;
#X connect 1 0 0 1;
#X connect 2 0 0 0;
#X coords 0 1 100 -1 20 20 1 0 0;
#X restore 58 -170 graph;
#N canvas 0 22 450 300 (subpatch) 0;
#X obj -30 22 spigot;
#X obj 2 3 tgl 15 0 empty empty empty 17 7 0 10 -262144 -1 -1 0 1;
#X obj -58 0 inlet;
#X obj -54 54 outlet;
#X connect 0 0 3 0;
#X connect 1 0 0 1;
#X connect 2 0 0 0;
#X coords 0 1 100 -1 20 20 1 0 0;
#X restore 89 -198 graph;
#N canvas 0 22 450 300 (subpatch) 0;
#X obj -30 22 spigot;
#X obj 2 3 tgl 15 0 empty empty empty 17 7 0 10 -262144 -1 -1 0 1;
#X obj -58 0 inlet;
#X obj -54 54 outlet;
#X connect 0 0 3 0;
#X connect 1 0 0 1;
#X connect 2 0 0 0;
#X coords 0 1 100 -1 20 20 1 0 0;
#X restore 182 -198 graph;
#X obj 301 65 declare -path z_Percolate;
#X connect 0 0 28 0;
#X connect 0 1 29 0;
#X connect 1 0 6 0;
#X connect 2 0 25 0;
#X connect 3 0 7 0;
#X connect 4 0 5 0;
#X connect 5 0 16 0;
#X connect 6 0 14 0;
#X connect 7 0 15 0;
#X connect 8 0 30 0;
#X connect 9 0 31 0;
#X connect 10 0 13 0;
#X connect 11 0 10 0;
#X connect 12 0 10 1;
#X connect 14 0 10 2;
#X connect 15 0 10 3;
#X connect 16 0 10 4;
#X connect 17 0 26 0;
#X connect 18 0 27 0;
#X connect 22 0 4 0;
#X connect 23 0 3 0;
#X connect 24 0 1 0;
#X connect 25 0 24 0;
#X connect 26 0 23 0;
#X connect 27 0 22 0;
#X connect 28 0 11 0;
#X connect 29 0 12 0;
#X connect 30 0 11 0;
#X connect 31 0 12 0;
