#N canvas 293 30 609 479 10;
#X declare -path z_Percolate;
#N canvas 0 22 1009 720 (subpatch) 0;
#X obj 83 28 hsl 128 15 0 127 0 0 empty empty empty -2 -6 0 8 -262144
-1 -1 6000 1;
#X text 103 197 comment;
#X obj 82 54 hsl 128 15 0 127 0 0 empty empty empty -2 -6 0 8 -262144
-1 -1 1000 1;
#X obj 82 77 hsl 128 15 0 127 0 0 empty empty empty -2 -6 0 8 -262144
-1 -1 6400 1;
#X obj 82 100 hsl 128 15 0 127 0 0 empty empty empty -2 -6 0 8 -262144
-1 -1 10000 1;
#X obj 166 -155 loadbang;
#X obj 3 4 bng 15 250 50 0 empty empty empty 0 -6 0 8 -262144 -1 -1
;
#X text -90 162 noteOn \, amp;
#X msg 562 -61 stkCtrl 1 \$1;
#X floatatom 224 152 5 0 0 0 - - -;
#X obj 224 20 vsl 15 128 0 1500 0 0 empty empty empty 0 -8 0 8 -262144
-1 -1 1863 1;
#X text 222 0 Frequency;
#X msg 7 -17 220;
#X msg 568 -35 64;
#X text -96 148 CLICK TO PLAY;
#X msg -92 228 0;
#X text 2 28 Vibrato Gain;
#X msg 564 -1 stkCtrl 4 \$1;
#X text 11 52 Noise Gain;
#X obj -78 285 BlowBotl~;
#X msg 562 58 stkCtrl 11 \$1;
#X text 0 74 Vibrato Gain;
#X text 36 97 Volume;
#X msg 563 124 stkCtrl 128 \$1;
#X obj 129 465 line~;
#X obj 53 482 *~;
#X obj 164 411 delay 1000;
#X msg 129 436 1 100;
#X msg 173 435 0 200;
#X msg 563 24 100;
#X msg 566 -98 10;
#X msg 565 -148 60;
#X obj -113 -254 stripnote;
#X floatatom 293 -389 5 0 0 0 - - -;
#X obj 52 398 *~;
#X floatatom 85 -386 5 0 0 0 - - -;
#X floatatom 138 -387 5 0 0 0 - - -;
#X floatatom 189 -388 5 0 0 0 - - -;
#X floatatom 239 -388 5 0 0 0 - - -;
#X obj -111 -225 mtof;
#X obj 86 -363 * 1;
#X obj 139 -364 * 1;
#X obj 190 -365 * 1;
#X obj 240 -365 * 1;
#X msg -60 253 127;
#X obj 85 -411 inlet;
#X obj 138 -412 inlet;
#X obj 189 -413 inlet;
#X obj 239 -413 inlet;
#X obj 295 -411 inlet;
#X obj -106 -325 inlet;
#X obj -50 -323 inlet;
#X obj 52 509 outlet~;
#X connect 0 0 8 0;
#X connect 2 0 17 0;
#X connect 3 0 20 0;
#X connect 4 0 23 0;
#X connect 5 0 31 0;
#X connect 5 0 30 0;
#X connect 5 0 12 0;
#X connect 5 0 13 0;
#X connect 5 0 29 0;
#X connect 6 0 27 0;
#X connect 6 0 26 0;
#X connect 6 0 44 0;
#X connect 8 0 19 3;
#X connect 9 0 19 2;
#X connect 10 0 9 0;
#X connect 12 0 10 0;
#X connect 13 0 3 0;
#X connect 15 0 19 1;
#X connect 17 0 19 3;
#X connect 19 0 34 0;
#X connect 20 0 19 3;
#X connect 23 0 19 3;
#X connect 24 0 25 1;
#X connect 25 0 52 0;
#X connect 26 0 28 0;
#X connect 27 0 24 0;
#X connect 28 0 24 0;
#X connect 29 0 4 0;
#X connect 30 0 2 0;
#X connect 31 0 0 0;
#X connect 32 0 39 0;
#X connect 32 0 6 0;
#X connect 33 0 26 1;
#X connect 34 0 25 0;
#X connect 35 0 40 0;
#X connect 36 0 41 0;
#X connect 37 0 42 0;
#X connect 38 0 43 0;
#X connect 39 0 10 0;
#X connect 40 0 0 0;
#X connect 41 0 2 0;
#X connect 42 0 3 0;
#X connect 43 0 4 0;
#X connect 44 0 19 1;
#X connect 45 0 35 0;
#X connect 46 0 36 0;
#X connect 47 0 37 0;
#X connect 48 0 38 0;
#X connect 49 0 33 0;
#X connect 50 0 32 0;
#X connect 51 0 32 1;
#X coords 0 1 100 -1 300 175 1 0 0;
#X restore -4 -98 graph;
#X obj -59 -155 notein;
#X floatatom -4 -114 5 0 0 0 - - -;
#X floatatom 28 -114 5 0 0 0 - - -;
#X floatatom 88 -147 5 0 0 0 - - -;
#X floatatom 131 -147 5 0 0 0 - - -;
#X floatatom 176 -147 5 0 0 0 - - -;
#X floatatom 220 -147 5 0 0 0 - - -;
#X floatatom 264 -147 5 0 0 0 - - -;
#X floatatom 88 -114 5 0 0 0 - - -;
#X floatatom 131 -114 5 0 0 0 - - -;
#X floatatom 176 -114 5 0 0 0 - - -;
#X floatatom 220 -114 5 0 0 0 - - -;
#X floatatom 264 -114 5 0 0 0 - - -;
#N canvas 0 22 450 300 (subpatch) 0;
#X obj -30 22 spigot;
#X obj 2 3 tgl 15 0 empty empty empty 17 7 0 10 -262144 -1 -1 0 1;
#X obj -58 0 inlet;
#X obj -54 54 outlet;
#X connect 0 0 3 0;
#X connect 1 0 0 1;
#X connect 2 0 0 0;
#X coords 0 1 100 -1 20 20 1 0 0;
#X restore -4 -156 graph;
#N canvas 0 22 450 300 (subpatch) 0;
#X obj -30 22 spigot;
#X obj 2 3 tgl 15 0 empty empty empty 17 7 0 10 -262144 -1 -1 0 1;
#X obj -58 0 inlet;
#X obj -54 54 outlet;
#X connect 0 0 3 0;
#X connect 1 0 0 1;
#X connect 2 0 0 0;
#X coords 0 1 100 -1 20 20 1 0 0;
#X restore 28 -156 graph;
#N canvas 0 22 450 300 (subpatch) 0;
#X obj -30 22 spigot;
#X obj 2 3 tgl 15 0 empty empty empty 17 7 0 10 -262144 -1 -1 0 1;
#X obj -58 0 inlet;
#X obj -54 54 outlet;
#X connect 0 0 3 0;
#X connect 1 0 0 1;
#X connect 2 0 0 0;
#X coords 0 1 100 -1 20 20 1 0 0;
#X restore -59 -134 graph;
#N canvas 0 22 450 300 (subpatch) 0;
#X obj -30 22 spigot;
#X obj 2 3 tgl 15 0 empty empty empty 17 7 0 10 -262144 -1 -1 0 1;
#X obj -58 0 inlet;
#X obj -54 54 outlet;
#X connect 0 0 3 0;
#X connect 1 0 0 1;
#X connect 2 0 0 0;
#X coords 0 1 100 -1 20 20 1 0 0;
#X restore -39 -134 graph;
#X obj 264 -176 knob 25 25 0 127 0 0 empty empty empty 0 -8 32 8 -1
-260097 -260097 0 1;
#X obj 220 -176 knob 25 25 0 127 0 0 empty empty empty 0 -8 32 8 -1
-260097 -260097 0 1;
#X obj 176 -176 knob 25 25 0 127 0 0 empty empty empty 0 -8 32 8 -1
-260097 -260097 0 1;
#X obj 131 -176 knob 25 25 0 127 0 0 empty empty empty 0 -8 32 8 -1
-260097 -260097 0 1;
#X obj 88 -176 knob 25 25 0 127 0 0 empty empty empty 0 -8 32 8 -1
-260097 -260097 0 1;
#N canvas 0 22 450 300 (subpatch) 0;
#X obj -30 22 spigot;
#X obj 2 3 tgl 15 0 empty empty empty 17 7 0 10 -262144 -1 -1 0 1;
#X obj -58 0 inlet;
#X obj -54 54 outlet;
#X connect 0 0 3 0;
#X connect 1 0 0 1;
#X connect 2 0 0 0;
#X coords 0 1 100 -1 20 20 1 0 0;
#X restore 88 -199 graph;
#N canvas 0 22 450 300 (subpatch) 0;
#X obj -30 22 spigot;
#X obj 2 3 tgl 15 0 empty empty empty 17 7 0 10 -262144 -1 -1 0 1;
#X obj -58 0 inlet;
#X obj -54 54 outlet;
#X connect 0 0 3 0;
#X connect 1 0 0 1;
#X connect 2 0 0 0;
#X coords 0 1 100 -1 20 20 1 0 0;
#X restore 131 -199 graph;
#N canvas 0 22 450 300 (subpatch) 0;
#X obj -30 22 spigot;
#X obj 2 3 tgl 15 0 empty empty empty 17 7 0 10 -262144 -1 -1 0 1;
#X obj -58 0 inlet;
#X obj -54 54 outlet;
#X connect 0 0 3 0;
#X connect 1 0 0 1;
#X connect 2 0 0 0;
#X coords 0 1 100 -1 20 20 1 0 0;
#X restore 176 -199 graph;
#N canvas 0 22 450 300 (subpatch) 0;
#X obj -30 22 spigot;
#X obj 2 3 tgl 15 0 empty empty empty 17 7 0 10 -262144 -1 -1 0 1;
#X obj -58 0 inlet;
#X obj -54 54 outlet;
#X connect 0 0 3 0;
#X connect 1 0 0 1;
#X connect 2 0 0 0;
#X coords 0 1 100 -1 20 20 1 0 0;
#X restore 220 -199 graph;
#N canvas 0 22 450 300 (subpatch) 0;
#X obj -30 22 spigot;
#X obj 2 3 tgl 15 0 empty empty empty 17 7 0 10 -262144 -1 -1 0 1;
#X obj -58 0 inlet;
#X obj -54 54 outlet;
#X connect 0 0 3 0;
#X connect 1 0 0 1;
#X connect 2 0 0 0;
#X coords 0 1 100 -1 20 20 1 0 0;
#X restore 264 -199 graph;
#X obj 264 -216 ctlin 5;
#X obj 220 -237 ctlin 4;
#X obj 176 -257 ctlin 3;
#X obj 131 -277 ctlin 2;
#X obj 88 -298 ctlin 1;
#N canvas 0 22 450 300 (subpatch) 0;
#X obj 59 155 inlet;
#X obj 3 89 inlet~;
#X obj 58 182 change;
#X msg 60 246 set \$1;
#X obj 60 227 tosymbol;
#X obj 59 204 sprintf Bus%d;
#X obj 3 282 throw~ Bus0;
#X obj 2 3 popup 124 25 #ffffff popup Bus0 Bus1 Bus2 Bus3 Bus4 Bus5
;
#X obj 1 32 route bang;
#X obj 154 202 *~;
#X obj 141 7 tgl 15 0 empty empty Dac 19 7 0 10 -262144 -1 -1 0 1;
#X obj 155 238 dac~;
#X obj 1 -41 loadbang;
#X text 59 -61 Bus0 mutes;
#X msg 83 -37 options Bus0 Bus1 Bus2 Bus3 Bus4 Bus5 Bus6 Bus7 Bus8
Bus9 Bus10 Bus11 Bus12 Bus13 Bus14 Bus15 Bus16;
#X connect 0 0 2 0;
#X connect 1 0 6 0;
#X connect 1 0 9 0;
#X connect 2 0 5 0;
#X connect 3 0 6 0;
#X connect 4 0 3 0;
#X connect 5 0 4 0;
#X connect 7 0 8 0;
#X connect 8 1 2 0;
#X connect 9 0 11 0;
#X connect 9 0 11 1;
#X connect 10 0 9 1;
#X connect 12 0 14 0;
#X connect 14 0 7 0;
#X coords 0 1 100 -1 180 30 1 0 0;
#X restore -4 77 graph;
#X obj -4 -339 r noteBlow;
#X obj 28 -319 r velBlow;
#X obj 88 -131 / 1;
#X obj 131 -131 / 1;
#X obj 176 -131 / 1;
#X obj 220 -131 / 1;
#X text 139 -298 Vib gain;
#X text 179 -276 Noise gain;
#X text 232 -256 Vib2 gain;
#X text 271 -236 Volume;
#X text 318 -216 Decay;
#X obj 264 -131 * 10;
#X obj 321 85 declare -path z_Percolate;
#X connect 0 0 33 0;
#X connect 1 0 16 0;
#X connect 1 1 17 0;
#X connect 2 0 0 0;
#X connect 3 0 0 1;
#X connect 4 0 36 0;
#X connect 5 0 37 0;
#X connect 6 0 38 0;
#X connect 7 0 39 0;
#X connect 8 0 45 0;
#X connect 9 0 0 2;
#X connect 10 0 0 3;
#X connect 11 0 0 4;
#X connect 12 0 0 5;
#X connect 13 0 0 6;
#X connect 14 0 2 0;
#X connect 15 0 3 0;
#X connect 16 0 2 0;
#X connect 17 0 3 0;
#X connect 18 0 8 0;
#X connect 19 0 7 0;
#X connect 20 0 6 0;
#X connect 21 0 5 0;
#X connect 22 0 4 0;
#X connect 23 0 22 0;
#X connect 24 0 21 0;
#X connect 25 0 20 0;
#X connect 26 0 19 0;
#X connect 27 0 18 0;
#X connect 28 0 27 0;
#X connect 29 0 26 0;
#X connect 30 0 25 0;
#X connect 31 0 24 0;
#X connect 32 0 23 0;
#X connect 34 0 14 0;
#X connect 35 0 15 0;
#X connect 36 0 9 0;
#X connect 37 0 10 0;
#X connect 38 0 11 0;
#X connect 39 0 12 0;
#X connect 45 0 13 0;
