#N canvas 42 47 982 721 10;
#X obj 254 226 hsl 128 15 0 127 0 0 empty empty empty -2 -6 0 8 -262144
-1 -1 1200 1;
#X text 277 404 comment;
#X obj 256 281 hsl 128 15 0 127 0 0 empty empty empty -2 -6 0 8 -262144
-1 -1 11000 1;
#X obj 254 340 hsl 128 15 0 127 0 0 empty empty empty -2 -6 0 8 -262144
-1 -1 500 1;
#X obj 255 405 hsl 128 15 0 127 0 0 empty empty empty -2 -6 0 8 -262144
-1 -1 3500 1;
#X obj 255 465 hsl 128 15 0 127 0 0 empty empty empty -2 -6 0 8 -262144
-1 -1 2000 1;
#X obj 276 146 loadbang;
#X msg 547 28 \; pd dsp 1;
#X msg 544 74 \; pd dsp 0;
#X msg 251 249 stkCtrl 1 \$1;
#X msg 253 309 stkCtrl 2 \$1;
#X msg 251 368 stkCtrl 4 \$1;
#X msg 252 433 stkCtrl 11 \$1;
#X msg 252 493 stkCtrl 128 \$1;
#X floatatom 138 472 5 0 0 0 - - -;
#X obj 138 325 vsl 15 128 0 1500 0 0 empty empty empty 0 -8 0 8 -262144
-1 -1 931 1;
#X text 67 315 Frequency;
#X text 185 29 FMVoices~;
#X text 186 47 FM Synthesis Singing;
#X text 184 65 3 Carriers and 1 common Modulator \,;
#X text 185 80 Algorithm 6 of the TX81Z;
#X text 394 226 LFO Depth;
#X text 403 406 LFO Speed;
#X obj 32 586 FMVoices~;
#X msg 138 287 110;
#X text 400 464 Spectral Tilt;
#X text 398 338 Vowel;
#X text 399 283 FM Gains;
#X msg 212 276 110;
#X msg 221 225 12;
#X msg 214 376 35;
#X msg 206 327 5;
#X msg 213 440 20;
#X obj 51 432 vsl 15 128 0 127 0 0 empty empty empty 0 -8 0 8 -262144
-1 -1 12700 1;
#X text 15 411 Amplitude;
#X obj 17 20 notein;
#X floatatom 17 44 5 0 0 0 - - -;
#X floatatom 59 43 5 0 0 0 - - -;
#X floatatom 102 43 5 0 0 0 - - -;
#X obj 17 67 stripnote;
#X floatatom 597 385 5 0 0 0 - - -;
#X floatatom 648 384 5 0 0 0 - - -;
#X floatatom 698 384 5 0 0 0 - - -;
#X obj 597 360 ctlin 6;
#X obj 648 359 ctlin 7;
#X obj 698 359 ctlin 8;
#X obj 586 477 bng 15 250 50 0 empty empty empty 17 7 0 10 -262144
-1 -1;
#X floatatom 650 431 5 0 0 0 - - -;
#X floatatom 699 428 5 0 0 0 - - -;
#X obj 158 623 *~;
#X obj 158 657 *~;
#X obj 183 599 / 100;
#X obj 185 638 line;
#X floatatom 230 616 5 0 0 0 - - -;
#X text 268 615 time offset to adjust volume to velocity;
#X obj 598 408 * 1;
#X floatatom 598 429 5 0 0 0 - - -;
#N canvas 0 22 450 300 eald~ 0;
#X msg 394 133 bang;
#X floatatom 504 74 5 0 0 0 - - -;
#X floatatom 555 73 5 0 0 0 - - -;
#X floatatom 605 73 5 0 0 0 - - -;
#X text 471 25 "ALD" enveloppe;
#X obj 504 49 inlet;
#X obj 555 48 inlet;
#X obj 605 48 inlet;
#X obj 408 52 inlet;
#X obj 379 432 outlet~;
#X text 633 133 ENVELOPE SECTION;
#X obj 379 346 vline~;
#X msg 352 245 1;
#X obj 352 265 pack f f;
#X obj 352 286 unpack f f;
#X msg 456 246 0;
#X obj 456 267 pack f f f;
#X obj 456 288 unpack f f f;
#X obj 456 225 delay 5;
#X text 102 283 Attack : sends a 1 to get to in A msec;
#X text 529 224 wait the end of the attack;
#X text 538 254 Length+Decay : 0 to get to in D msec \, after L msec
;
#X text 493 74 A;
#X text 544 74 L;
#X text 594 74 D;
#X connect 0 0 12 0;
#X connect 0 0 18 0;
#X connect 1 0 13 1;
#X connect 1 0 18 1;
#X connect 2 0 16 2;
#X connect 3 0 16 1;
#X connect 5 0 1 0;
#X connect 6 0 2 0;
#X connect 7 0 3 0;
#X connect 8 0 0 0;
#X connect 11 0 9 0;
#X connect 12 0 13 0;
#X connect 13 0 14 0;
#X connect 14 0 11 0;
#X connect 14 1 11 1;
#X connect 15 0 16 0;
#X connect 16 0 17 0;
#X connect 17 0 11 0;
#X connect 17 1 11 1;
#X connect 17 2 11 2;
#X connect 18 0 15 0;
#X restore 601 502 pd eald~;
#X obj 273 578 loadbang;
#X msg 273 599 50;
#X obj 699 407 * 10;
#X obj 184 619 + 0.05;
#X floatatom 215 -65 5 0 0 0 - - -;
#X obj 215 -90 ctlin 1;
#X floatatom 268 -66 5 0 0 0 - - -;
#X floatatom 319 -67 5 0 0 0 - - -;
#X floatatom 369 -67 5 0 0 0 - - -;
#X obj 268 -91 ctlin 2;
#X obj 319 -92 ctlin 3;
#X obj 369 -92 ctlin 4;
#X obj 216 -42 * 1;
#X obj 269 -43 * 1;
#X obj 320 -44 * 1;
#X obj 370 -44 * 1;
#X obj 25 92 mtof;
#X obj 649 407 * 20;
#X obj 161 680 throw~ all;
#X floatatom 420 -66 5 0 0 0 - - -;
#X obj 421 -43 * 1;
#X obj 420 -91 ctlin 5;
#X msg 52 286 127;
#X connect 0 0 9 0;
#X connect 2 0 10 0;
#X connect 3 0 11 0;
#X connect 4 0 12 0;
#X connect 5 0 13 0;
#X connect 6 0 29 0;
#X connect 6 0 28 0;
#X connect 6 0 24 0;
#X connect 6 0 32 0;
#X connect 6 0 30 0;
#X connect 6 0 31 0;
#X connect 6 0 80 0;
#X connect 9 0 23 3;
#X connect 10 0 23 3;
#X connect 11 0 23 3;
#X connect 12 0 23 3;
#X connect 13 0 23 3;
#X connect 14 0 23 2;
#X connect 15 0 14 0;
#X connect 23 0 49 0;
#X connect 24 0 15 0;
#X connect 28 0 2 0;
#X connect 29 0 0 0;
#X connect 30 0 4 0;
#X connect 31 0 3 0;
#X connect 32 0 5 0;
#X connect 33 0 23 1;
#X connect 35 0 36 0;
#X connect 35 1 37 0;
#X connect 35 2 38 0;
#X connect 36 0 39 0;
#X connect 37 0 39 1;
#X connect 39 0 74 0;
#X connect 39 0 46 0;
#X connect 39 1 51 0;
#X connect 40 0 55 0;
#X connect 41 0 75 0;
#X connect 42 0 60 0;
#X connect 43 0 40 0;
#X connect 44 0 41 0;
#X connect 45 0 42 0;
#X connect 46 0 57 0;
#X connect 46 0 59 0;
#X connect 47 0 57 2;
#X connect 48 0 57 3;
#X connect 49 0 50 0;
#X connect 50 0 76 0;
#X connect 51 0 61 0;
#X connect 52 0 50 1;
#X connect 53 0 52 1;
#X connect 55 0 56 0;
#X connect 56 0 57 1;
#X connect 57 0 49 1;
#X connect 58 0 59 0;
#X connect 59 0 53 0;
#X connect 60 0 48 0;
#X connect 61 0 52 0;
#X connect 62 0 70 0;
#X connect 63 0 62 0;
#X connect 64 0 71 0;
#X connect 65 0 72 0;
#X connect 66 0 73 0;
#X connect 67 0 64 0;
#X connect 68 0 65 0;
#X connect 69 0 66 0;
#X connect 70 0 0 0;
#X connect 71 0 2 0;
#X connect 72 0 3 0;
#X connect 73 0 4 0;
#X connect 74 0 15 0;
#X connect 75 0 47 0;
#X connect 77 0 78 0;
#X connect 78 0 5 0;
#X connect 79 0 77 0;
#X connect 80 0 33 0;
