#N canvas 214 22 711 463 10;
#X declare -path z_Percolate;
#N canvas 0 22 1024 720 (subpatch) 0;
#X text -246 167 perry cook and gary scavone).;
#X text -246 159 ported from the STK (by;
#X text -243 238 by dan trueman \,;
#X text -244 247 computer music;
#X text -244 256 center \, columbia;
#X text -243 264 university;
#X text -248 7 marimba~;
#X text -248 21 marimba model;
#X text -248 52 marimba is a physical;
#X text -247 62 synthesis model of a struck;
#X text -247 72 marimba. you have control;
#X text -248 81 over the parameters of the;
#X text -248 91 marimba and the stick you hit;
#X text -248 100 it with.;
#X obj 122 40 vsl 15 128 0 1 0 0 empty empty empty 0 -8 0 8 -262144
-1 -1 12573 1;
#X floatatom 122 171 5 0 0 0 - - -;
#X obj 177 40 vsl 15 128 0 1 0 0 empty empty empty 0 -8 0 8 -262144
-1 -1 12573 1;
#X floatatom 177 172 5 0 0 0 - - -;
#X obj 232 40 vsl 15 128 0 1 0 0 empty empty empty 0 -8 0 8 -262144
-1 -1 12573 1;
#X floatatom 232 174 5 0 0 0 - - -;
#X obj 288 40 vsl 15 128 0 10 0 0 empty empty empty 0 -8 0 8 -262144
-1 -1 0 1;
#X floatatom 288 173 5 0 0 0 - - -;
#X obj 343 40 vsl 15 128 0 1 0 0 empty empty empty 0 -8 0 8 -262144
-1 -1 0 1;
#X floatatom 343 173 5 0 0 0 - - -;
#X obj 399 40 vsl 15 128 0 127 0 0 empty empty empty 0 -8 0 8 -262144
-1 -1 6900 1;
#X floatatom 399 172 5 0 0 0 - - -;
#X msg 6 236 noteon;
#X msg 50 236 noteoff;
#X obj 122 19 hdl 15 1 0 3 empty empty empty 0 -6 0 8 -262144 -1 -1
0;
#X text 120 1 try these presets;
#X obj 399 246 mtof;
#X floatatom 399 272 5 0 0 0 - - -;
#X text 120 186 stick;
#X text 120 197 hardness;
#X text 176 187 stick;
#X text 176 198 position;
#X text 232 189 amplitude;
#X text 292 187 vib;
#X text 292 198 freq;
#X text 344 188 vib;
#X text 344 199 gain;
#X text 397 187 frequency;
#X obj 122 308 marimba~ ______________________________________;
#N canvas 389 265 541 344 mypresets 0;
#X obj 2 2 inlet;
#X obj 17 299 outlet;
#X obj 55 299 outlet;
#X obj 93 299 outlet;
#X obj 131 299 outlet;
#X obj 169 299 outlet;
#X obj 207 299 outlet;
#X obj 2 21 sel 0 1 2;
#X obj 16 266 unpack 0 0 0 0 0 0;
#X msg 2 45 0.99 0.99 0.99 0 0 69;
#X connect 0 0 7 0;
#X connect 7 0 9 0;
#X connect 8 0 1 0;
#X connect 8 1 2 0;
#X connect 8 2 3 0;
#X connect 8 3 4 0;
#X connect 8 4 5 0;
#X connect 8 5 6 0;
#X connect 9 0 8 0;
#X restore 453 20 pd mypresets __________________________________;
#X obj 377 -25 mtof;
#X floatatom 377 -47 5 0 0 0 - - -;
#X text 240 -38 frequency;
#X obj 9 77 tgl 15 0 empty empty Play 18 7 0 8 -262144 -1 -1 1 1;
#X obj 350 -117 counter 0 15;
#N canvas 0 22 450 300 (subpatch) 0;
#X array mycoll 16 float 1;
#A 0 83.8571 86.7142 90.9999 81 85.2857 81 81 95.2856 96.7142 82.4285
85.2857 83.8571 96.7142 78.1428 81 52.0001;
#X coords 0 100 15 0 100 70 1;
#X restore 9 139 graph;
#X obj 350 -93 tabread mycoll;
#X obj 350 -72 sel 0;
#X obj 350 -141 metro 500;
#X obj -240 -140 stripnote;
#X floatatom -24 -152 5 0 0 0 - - -;
#X floatatom 29 -153 5 0 0 0 - - -;
#X floatatom 80 -154 5 0 0 0 - - -;
#X floatatom 130 -154 5 0 0 0 - - -;
#X obj -211 -252 inlet;
#X obj -197 -232 inlet;
#X obj -158 -48 + 0.2;
#X obj -157 -29 line;
#X floatatom -112 -51 5 0 0 0 - - -;
#X text -74 -52 time offset to adjust volume to velocity;
#X obj -112 -90 loadbang;
#X msg -112 -69 50;
#X obj -159 -68 / 50;
#X text 5 0 Tgl coll seq;
#X obj -24 -177 inlet;
#X obj 29 -178 inlet;
#X obj 80 -179 inlet;
#X obj 130 -179 inlet;
#X obj 121 373 outlet~;
#X obj -23 -129 / 1;
#X obj 30 -130 / 1;
#X obj 81 -131 / 1;
#X obj 131 -131 / 1;
#N canvas 0 22 450 300 armfloat 0;
#X obj 119 84 inlet bang;
#X obj 222 83 inlet trig;
#X obj 119 387 f;
#X obj 119 410 change;
#X obj 119 435 outlet trig;
#X obj 355 83 inlet wait;
#X obj 284 262 f;
#X msg 299 220 0;
#X obj 284 287 + 1;
#X obj 119 195 spigot;
#X msg 152 160 0;
#X msg 184 159 1;
#X obj 222 113 t b b;
#X obj 355 195 moses 1;
#X obj 284 310 sel 1;
#X connect 0 0 9 0;
#X connect 1 0 2 1;
#X connect 1 0 12 0;
#X connect 2 0 3 0;
#X connect 3 0 4 0;
#X connect 5 0 13 0;
#X connect 6 0 8 0;
#X connect 7 0 6 1;
#X connect 8 0 6 1;
#X connect 8 0 14 0;
#X connect 9 0 6 0;
#X connect 10 0 9 1;
#X connect 11 0 9 1;
#X connect 12 0 11 0;
#X connect 12 1 7 0;
#X connect 13 1 14 1;
#X connect 14 0 2 0;
#X connect 14 0 10 0;
#X restore 9 57 pd armfloat;
#X obj 9 39 r Mbang;
#X obj 40 22 tgl 15 0 empty empty Sync2Main 17 5 0 8 -262144 -1 -1
0 1;
#X floatatom 10 99 5 0 0 1 Metro_(ms) - -;
#X connect 14 0 15 0;
#X connect 15 0 42 0;
#X connect 16 0 17 0;
#X connect 17 0 42 1;
#X connect 18 0 19 0;
#X connect 19 0 42 2;
#X connect 20 0 21 0;
#X connect 21 0 42 3;
#X connect 22 0 23 0;
#X connect 23 0 42 4;
#X connect 24 0 25 0;
#X connect 25 0 30 0;
#X connect 26 0 42 0;
#X connect 27 0 42 0;
#X connect 28 0 43 0;
#X connect 30 0 31 0;
#X connect 31 0 42 5;
#X connect 42 0 72 0;
#X connect 43 0 14 0;
#X connect 43 1 16 0;
#X connect 43 2 18 0;
#X connect 43 3 20 0;
#X connect 43 4 22 0;
#X connect 43 5 24 0;
#X connect 44 0 42 5;
#X connect 45 0 44 0;
#X connect 47 0 52 0;
#X connect 48 0 50 0;
#X connect 50 0 51 0;
#X connect 50 0 26 0;
#X connect 51 1 45 0;
#X connect 52 0 48 0;
#X connect 53 0 30 0;
#X connect 53 0 26 0;
#X connect 53 0 65 0;
#X connect 53 1 66 0;
#X connect 54 0 73 0;
#X connect 55 0 74 0;
#X connect 56 0 75 0;
#X connect 57 0 76 0;
#X connect 58 0 53 0;
#X connect 59 0 53 1;
#X connect 60 0 61 0;
#X connect 61 0 18 0;
#X connect 62 0 61 1;
#X connect 64 0 65 0;
#X connect 65 0 62 0;
#X connect 66 0 60 0;
#X connect 68 0 54 0;
#X connect 69 0 55 0;
#X connect 70 0 56 0;
#X connect 71 0 57 0;
#X connect 73 0 14 0;
#X connect 74 0 16 0;
#X connect 75 0 20 0;
#X connect 76 0 22 0;
#X connect 77 0 47 0;
#X connect 78 0 77 0;
#X connect 79 0 77 1;
#X connect 80 0 52 1;
#X coords 0 1 100 -1 455 220 1 0 0;
#X restore -2 -194 graph;
#X obj -57 -251 notein;
#X floatatom -2 -210 5 0 0 0 - - -;
#X floatatom 30 -210 5 0 0 0 - - -;
#X floatatom 177 -243 5 0 0 0 - - -;
#X floatatom 220 -243 5 0 0 0 - - -;
#X floatatom 265 -243 5 0 0 0 - - -;
#X floatatom 309 -243 5 0 0 0 - - -;
#X floatatom 177 -210 5 0 0 0 - - -;
#X floatatom 220 -210 5 0 0 0 - - -;
#X floatatom 265 -210 5 0 0 0 - - -;
#X floatatom 309 -210 5 0 0 0 - - -;
#X obj 177 -227 / 127;
#X obj 220 -227 / 127;
#N canvas 0 22 450 300 (subpatch) 0;
#X obj -30 22 spigot;
#X obj 2 3 tgl 15 0 empty empty empty 17 7 0 10 -262144 -1 -1 0 1;
#X obj -58 0 inlet;
#X obj -54 54 outlet;
#X connect 0 0 3 0;
#X connect 1 0 0 1;
#X connect 2 0 0 0;
#X coords 0 1 100 -1 20 20 1 0 0;
#X restore -2 -252 graph;
#N canvas 0 22 450 300 (subpatch) 0;
#X obj -30 22 spigot;
#X obj 2 3 tgl 15 0 empty empty empty 17 7 0 10 -262144 -1 -1 0 1;
#X obj -58 0 inlet;
#X obj -54 54 outlet;
#X connect 0 0 3 0;
#X connect 1 0 0 1;
#X connect 2 0 0 0;
#X coords 0 1 100 -1 20 20 1 0 0;
#X restore 30 -252 graph;
#N canvas 0 22 450 300 (subpatch) 0;
#X obj -30 22 spigot;
#X obj 2 3 tgl 15 0 empty empty empty 17 7 0 10 -262144 -1 -1 0 1;
#X obj -58 0 inlet;
#X obj -54 54 outlet;
#X connect 0 0 3 0;
#X connect 1 0 0 1;
#X connect 2 0 0 0;
#X coords 0 1 100 -1 20 20 1 0 0;
#X restore -57 -230 graph;
#N canvas 0 22 450 300 (subpatch) 0;
#X obj -30 22 spigot;
#X obj 2 3 tgl 15 0 empty empty empty 17 7 0 10 -262144 -1 -1 0 1;
#X obj -58 0 inlet;
#X obj -54 54 outlet;
#X connect 0 0 3 0;
#X connect 1 0 0 1;
#X connect 2 0 0 0;
#X coords 0 1 100 -1 20 20 1 0 0;
#X restore -37 -230 graph;
#X obj 309 -272 knob 25 25 0 127 0 0 empty empty empty 0 -8 32 8 -1
-260097 -260097 0 1;
#X obj 265 -272 knob 25 25 0 127 0 0 empty empty empty 0 -8 32 8 -1
-260097 -260097 0 1;
#X obj 220 -272 knob 25 25 0 127 0 0 empty empty empty 0 -8 32 8 -1
-260097 -260097 0 1;
#X obj 177 -272 knob 25 25 0 127 0 0 empty empty empty 0 -8 32 8 -1
-260097 -260097 0 1;
#N canvas 0 22 450 300 (subpatch) 0;
#X obj -30 22 spigot;
#X obj 2 3 tgl 15 0 empty empty empty 17 7 0 10 -262144 -1 -1 0 1;
#X obj -58 0 inlet;
#X obj -54 54 outlet;
#X connect 0 0 3 0;
#X connect 1 0 0 1;
#X connect 2 0 0 0;
#X coords 0 1 100 -1 20 20 1 0 0;
#X restore 177 -295 graph;
#N canvas 0 22 450 300 (subpatch) 0;
#X obj -30 22 spigot;
#X obj 2 3 tgl 15 0 empty empty empty 17 7 0 10 -262144 -1 -1 0 1;
#X obj -58 0 inlet;
#X obj -54 54 outlet;
#X connect 0 0 3 0;
#X connect 1 0 0 1;
#X connect 2 0 0 0;
#X coords 0 1 100 -1 20 20 1 0 0;
#X restore 220 -295 graph;
#N canvas 0 22 450 300 (subpatch) 0;
#X obj -30 22 spigot;
#X obj 2 3 tgl 15 0 empty empty empty 17 7 0 10 -262144 -1 -1 0 1;
#X obj -58 0 inlet;
#X obj -54 54 outlet;
#X connect 0 0 3 0;
#X connect 1 0 0 1;
#X connect 2 0 0 0;
#X coords 0 1 100 -1 20 20 1 0 0;
#X restore 265 -295 graph;
#N canvas 0 22 450 300 (subpatch) 0;
#X obj -30 22 spigot;
#X obj 2 3 tgl 15 0 empty empty empty 17 7 0 10 -262144 -1 -1 0 1;
#X obj -58 0 inlet;
#X obj -54 54 outlet;
#X connect 0 0 3 0;
#X connect 1 0 0 1;
#X connect 2 0 0 0;
#X coords 0 1 100 -1 20 20 1 0 0;
#X restore 309 -295 graph;
#X obj 309 -312 ctlin 4;
#X obj 265 -332 ctlin 3;
#X obj 220 -352 ctlin 2;
#X obj 177 -373 ctlin 1;
#N canvas 0 22 450 300 (subpatch) 0;
#X obj 59 155 inlet;
#X obj 3 89 inlet~;
#X obj 58 182 change;
#X msg 60 246 set \$1;
#X obj 60 227 tosymbol;
#X obj 59 204 sprintf Bus%d;
#X obj 3 282 throw~ Bus0;
#X obj 2 3 popup 124 25 #ffffff popup Bus0 Bus1 Bus2 Bus3 Bus4 Bus5
Bus6 Bus7 Bus8 Bus9 Bus10 Bus11 Bus12 Bus13 Bus14 Bus15 Bus16;
#X obj 1 32 route bang;
#X obj 154 202 *~;
#X obj 141 7 tgl 15 0 empty empty Dac 19 7 0 10 -262144 -1 -1 1 1;
#X obj 155 238 dac~;
#X obj 4 -58 loadbang;
#X text 62 -60 Bus0 mutes;
#X msg 4 -40 options Bus0 Bus1 Bus2 Bus3 Bus4 Bus5 Bus6 Bus7 Bus8 Bus9
Bus10 Bus11 Bus12 Bus13 Bus14 Bus15 Bus16;
#X connect 0 0 2 0;
#X connect 1 0 6 0;
#X connect 1 0 9 0;
#X connect 2 0 5 0;
#X connect 3 0 6 0;
#X connect 4 0 3 0;
#X connect 5 0 4 0;
#X connect 7 0 8 0;
#X connect 8 1 2 0;
#X connect 9 0 11 0;
#X connect 9 0 11 1;
#X connect 10 0 9 1;
#X connect 12 0 14 0;
#X connect 14 0 7 0;
#X coords 0 1 100 -1 180 30 1 0 0;
#X restore -2 26 graph;
#X obj 265 -227 / 10;
#X obj 309 -227 / 100;
#X obj -2 -298 r notemarimba;
#X obj 30 -278 r velmarimba;
#X text 228 -372 Stick hardness;
#X text 268 -352 Stick position;
#X text 314 -331 Vib freq;
#X text 364 -310 Vib gain;
#X obj 224 41 declare -path z_Percolate;
#X connect 0 0 30 0;
#X connect 1 0 16 0;
#X connect 1 1 17 0;
#X connect 2 0 0 0;
#X connect 3 0 0 1;
#X connect 4 0 12 0;
#X connect 5 0 13 0;
#X connect 6 0 31 0;
#X connect 7 0 32 0;
#X connect 8 0 0 2;
#X connect 9 0 0 3;
#X connect 10 0 0 4;
#X connect 11 0 0 5;
#X connect 12 0 8 0;
#X connect 13 0 9 0;
#X connect 14 0 2 0;
#X connect 15 0 3 0;
#X connect 16 0 2 0;
#X connect 17 0 3 0;
#X connect 18 0 7 0;
#X connect 19 0 6 0;
#X connect 20 0 5 0;
#X connect 21 0 4 0;
#X connect 22 0 21 0;
#X connect 23 0 20 0;
#X connect 24 0 19 0;
#X connect 25 0 18 0;
#X connect 26 0 25 0;
#X connect 27 0 24 0;
#X connect 28 0 23 0;
#X connect 29 0 22 0;
#X connect 31 0 10 0;
#X connect 32 0 11 0;
#X connect 33 0 14 0;
#X connect 34 0 15 0;
