#N canvas 0 22 1009 720 10;
#X declare -path z_Percolate;
#X obj 342 259 hsl 128 15 0 127 0 0 empty empty empty -2 -6 0 8 -262144
-1 -1 7500 1;
#X text 363 383 comment;
#X obj 340 319 hsl 128 15 0 127 0 0 empty empty empty -2 -6 0 8 -262144
-1 -1 11000 1;
#X obj 341 384 hsl 128 15 0 127 0 0 empty empty empty -2 -6 0 8 -262144
-1 -1 11000 1;
#X obj 364 179 loadbang;
#X msg 339 282 stkCtrl 1 \$1;
#X floatatom 108 425 5 0 0 0 - - -;
#X obj 108 278 vsl 15 128 0 1500 0 0 empty empty empty 0 -8 0 8 -262144
-1 -1 3725 1;
#X text 37 268 Frequency;
#X obj 664 573 hradio 15 1 0 9 empty empty empty 0 -6 0 8 -262144 -1
-1 0;
#X floatatom 621 593 5 0 0 0 - - -;
#X msg 299 413 0;
#X msg 299 307 110;
#X msg 301 260 75;
#X msg 301 356 110;
#X obj 47 586 ModalBar~;
#X text 482 259 Direct Stick Mix;
#X text 482 315 Stick Hardness;
#X text 483 387 Stick Position;
#X text 364 443 comment;
#X obj 342 444 hsl 128 15 0 127 0 0 empty empty empty -2 -6 0 8 -262144
-1 -1 0 1;
#X text 363 500 comment;
#X obj 341 501 hsl 128 15 0 127 0 0 empty empty empty -2 -6 0 8 -262144
-1 -1 0 1;
#X msg 338 529 stkCtrl 11 \$1;
#X msg 335 349 stkCtrl 2 \$1;
#X msg 338 412 stkCtrl 4 \$1;
#X msg 339 472 stkCtrl 7 \$1;
#X text 484 447 Vibrato Frequency;
#X text 483 504 Vibrato Gain;
#X msg 664 600 stkCtrl 16 \$1;
#X text 364 552 comment;
#X obj 342 553 hsl 128 15 0 127 0 0 empty empty empty -2 -6 0 8 -262144
-1 -1 0 1;
#X text 484 556 Volume;
#X msg 339 581 stkCtrl 128 \$1;
#X text 659 428 0 - Marimba;
#X text 659 443 1 - Vibraphone;
#X text 659 458 2 - Agogo;
#X text 659 473 3 - Wood1;
#X text 659 488 4 - Reso;
#X text 659 504 5 - Wood2;
#X text 659 519 6 - Beats;
#X text 659 534 7 - Two Fixed;
#X text 659 548 8 - Clump;
#X msg 297 508 110;
#X msg 299 461 75;
#X msg 86 517 0;
#X obj 26 461 bng 15 250 50 0 empty empty empty 0 -6 0 8 -262144 -1
-1;
#X text -5 439 noteOn \, amp;
#X text -11 425 CLICK TO PLAY;
#X msg 27 511 100;
#X text 110 9 ModalBar~;
#X text 104 -7 Modal Synthesis of Struck Bar Instruments;
#X msg 108 241 440;
#X obj 17 20 notein;
#X floatatom 17 44 5 0 0 0 - - -;
#X floatatom 59 43 5 0 0 0 - - -;
#X floatatom 102 43 5 0 0 0 - - -;
#X obj 17 67 stripnote;
#X floatatom 444 100 5 0 0 0 - - -;
#X floatatom 495 99 5 0 0 0 - - -;
#X obj 66 681 *~;
#X obj 91 623 / 100;
#X obj 93 662 line;
#X floatatom 138 640 5 0 0 0 - - -;
#X text 176 639 time offset to adjust volume to velocity;
#X obj 444 122 * 1;
#X msg 181 623 50;
#X obj 92 643 + 0.05;
#X floatatom 212 99 5 0 0 0 - - -;
#X obj 212 74 ctlin 1;
#X floatatom 265 98 5 0 0 0 - - -;
#X floatatom 316 97 5 0 0 0 - - -;
#X floatatom 366 97 5 0 0 0 - - -;
#X obj 265 73 ctlin 2;
#X obj 316 72 ctlin 3;
#X obj 366 72 ctlin 4;
#X obj 213 122 * 1;
#X obj 266 121 * 1;
#X obj 317 120 * 1;
#X obj 367 120 * 1;
#X obj 25 92 mtof;
#X obj 119 703 throw~ all;
#X obj 496 122 * 1;
#X obj 444 75 ctlin 5;
#X obj 495 74 ctlin 6;
#X obj 672 164 declare -path z_Percolate;
#X connect 0 0 5 0;
#X connect 2 0 24 0;
#X connect 3 0 25 0;
#X connect 4 0 13 0;
#X connect 4 0 11 0;
#X connect 4 0 52 0;
#X connect 4 0 14 0;
#X connect 4 0 12 0;
#X connect 4 0 45 0;
#X connect 4 0 66 0;
#X connect 5 0 15 3;
#X connect 6 0 15 2;
#X connect 7 0 6 0;
#X connect 9 0 29 0;
#X connect 9 0 10 0;
#X connect 11 0 20 0;
#X connect 12 0 2 0;
#X connect 13 0 0 0;
#X connect 14 0 3 0;
#X connect 15 0 60 0;
#X connect 20 0 26 0;
#X connect 22 0 23 0;
#X connect 23 0 15 3;
#X connect 24 0 15 3;
#X connect 25 0 15 3;
#X connect 26 0 15 3;
#X connect 29 0 15 3;
#X connect 31 0 33 0;
#X connect 33 0 15 3;
#X connect 43 0 31 0;
#X connect 44 0 22 0;
#X connect 45 0 15 1;
#X connect 46 0 49 0;
#X connect 46 0 66 0;
#X connect 49 0 15 1;
#X connect 52 0 7 0;
#X connect 53 0 54 0;
#X connect 53 1 55 0;
#X connect 53 2 56 0;
#X connect 54 0 57 0;
#X connect 55 0 57 1;
#X connect 57 0 80 0;
#X connect 57 0 46 0;
#X connect 57 1 61 0;
#X connect 58 0 65 0;
#X connect 59 0 82 0;
#X connect 60 0 81 0;
#X connect 61 0 67 0;
#X connect 62 0 60 1;
#X connect 63 0 62 1;
#X connect 65 0 22 0;
#X connect 66 0 63 0;
#X connect 67 0 62 0;
#X connect 68 0 76 0;
#X connect 69 0 68 0;
#X connect 70 0 77 0;
#X connect 71 0 78 0;
#X connect 72 0 79 0;
#X connect 73 0 70 0;
#X connect 74 0 71 0;
#X connect 75 0 72 0;
#X connect 76 0 0 0;
#X connect 77 0 2 0;
#X connect 78 0 3 0;
#X connect 79 0 20 0;
#X connect 80 0 7 0;
#X connect 82 0 31 0;
#X connect 83 0 58 0;
#X connect 84 0 59 0;
