#N canvas 288 80 616 459 10;
#X declare -path z_Percolate;
#N canvas 0 22 1009 705 (subpatch) 0;
#X text -376 540 midi pitches;
#X obj -347 593 mtof;
#X text 248 424 blotar~;
#X text 324 425 flute-guitar hybrid model;
#X text 363 436 blotar~ is an example of what you can do with the synthesis
toolkit. Its parameters morph between an electric guitar model and
a flute.;
#X obj 4 16 bng 15 250 50 0 empty empty empty 0 -6 0 8 -262144 -1 -1
;
#X obj -436 672 blotar~ ___________________________________________________________
;
#X floatatom 25 38 5 0 0 0 - - -;
#X floatatom 25 57 5 0 0 0 - - -;
#X floatatom 25 76 5 0 0 0 - - -;
#X floatatom 25 95 5 0 0 0 - - -;
#X floatatom 25 114 5 0 0 0 - - -;
#X floatatom 25 133 5 0 0 0 - - -;
#X floatatom 208 38 5 0 0 0 - - -;
#X floatatom 208 57 5 0 0 0 - - -;
#X floatatom 208 76 5 0 0 0 - - -;
#X floatatom 208 95 5 0 0 0 - - -;
#X floatatom 208 114 5 0 0 0 - - -;
#X floatatom 208 133 5 0 0 0 - - -;
#X text 381 540 by dan trueman \, computer music center \, columbia
university;
#X text 61 36 pluck amp;
#X text 64 55 pluck position;
#X text 65 77 body size;
#X text 63 96 breath pressure;
#X text 60 115 jet/ feedback frequency;
#X text 61 132 noise gain;
#X text 243 37 vib fr;
#X text 244 57 vib amp;
#X text 245 76 flute/ string freq;
#X text 245 93 jet/ feedback coeff;
#X text 244 114 bore/ distortion gain;
#X text 248 131 friggin' filter ratio;
#X text 368 496 (interpolates between the one- pole filter of the flute
and the lowpass filter of the plucked string. nutty.);
#X obj -256 474 spigot;
#X obj 208 16 tgl 15 0 empty empty empty 0 -6 0 8 -262144 -1 -1 0 1
;
#X msg -412 396 clear;
#X floatatom -403 423 5 0 0 0 - - -;
#X msg -403 446 mic \$1;
#X obj 25 16 hdl 15 1 0 10 empty empty empty 0 -6 0 8 -262144 -1 -1
0;
#N canvas 389 265 535 338 mypresets 0;
#X obj 2 2 inlet;
#X obj 16 266 unpack 0 0 0 0 0 0 0 0 0 0 0 0;
#X obj 17 299 outlet;
#X obj 55 299 outlet;
#X obj 93 299 outlet;
#X obj 131 299 outlet;
#X obj 169 299 outlet;
#X obj 207 299 outlet;
#X obj 246 299 outlet;
#X obj 284 299 outlet;
#X obj 322 299 outlet;
#X obj 360 299 outlet;
#X obj 398 299 outlet;
#X obj 436 299 outlet;
#X msg 2 47 0 0.78 0.31 1.06 917.7 0.13 5 0.06 293.66 0.49 0.17 1;
#X obj 2 21 sel 0 1 2 3 4 5 6 7 8 9;
#X msg 15 67 3 0.64 1.63 0 232 0 0 0 523.25 0.06 0.99 1;
#X msg 32 87 2 0.22 0.55 0.83 132 0 0 0 349.23 0.63 0.95 1;
#X msg 45 107 3 0.64 1.63 0.82 1635.2 0 8 0.1 523.25 0.06 0.99 1;
#X msg 66 128 5 0.78 0.37 0 306.25 0 0 0 97.999 0 3.41 1;
#X msg 79 148 9 0.78 0.31 1.06 42 0.13 5 0.06 123.47 109 3.31 -1;
#X msg 96 168 9 0.78 0.31 1.06 42 0.13 5 0.06 196 109 3.31 0.02;
#X msg 109 188 78 0.78 0.06 1.53 42 0.13 5 47 97.999 109 3.31 0.02
;
#X msg 125 207 2 0.22 0.55 0.83 1635.2 0 0 0 523.25 0.63 0.95 1;
#X msg 136 227 3 0.64 1.63 0 3270.3 0 0 0 1046.5 0 2 0;
#X connect 0 0 15 0;
#X connect 1 0 2 0;
#X connect 1 1 3 0;
#X connect 1 2 4 0;
#X connect 1 3 5 0;
#X connect 1 4 6 0;
#X connect 1 5 7 0;
#X connect 1 6 8 0;
#X connect 1 7 9 0;
#X connect 1 8 10 0;
#X connect 1 9 11 0;
#X connect 1 10 12 0;
#X connect 1 11 13 0;
#X connect 14 0 1 0;
#X connect 15 0 14 0;
#X connect 15 1 16 0;
#X connect 15 2 17 0;
#X connect 15 3 18 0;
#X connect 15 4 19 0;
#X connect 15 5 20 0;
#X connect 15 6 21 0;
#X connect 15 7 22 0;
#X connect 15 8 23 0;
#X connect 15 9 24 0;
#X connect 16 0 1 0;
#X connect 17 0 1 0;
#X connect 18 0 1 0;
#X connect 19 0 1 0;
#X connect 20 0 1 0;
#X connect 21 0 1 0;
#X connect 22 0 1 0;
#X connect 23 0 1 0;
#X connect 24 0 1 0;
#X restore -320 442 pd mypresets _______________;
#X floatatom -347 572 5 0 0 0 - - -;
#X obj -373 485 stripnote;
#X floatatom 380 -51 5 0 0 0 - - -;
#X floatatom 433 -52 5 0 0 0 - - -;
#X floatatom 484 -53 5 0 0 0 - - -;
#X floatatom 210 -51 5 0 0 0 - - -;
#X floatatom 263 -52 5 0 0 0 - - -;
#X floatatom 314 -53 5 0 0 0 - - -;
#X obj -341 523 * 2;
#X obj -415 792 outlet~;
#X obj -437 232 inlet;
#X obj -414 253 inlet;
#X obj 210 -76 inlet;
#X obj 262 -77 inlet;
#X obj 314 -78 inlet;
#X obj 380 -76 inlet;
#X obj 433 -77 inlet;
#X obj 484 -78 inlet;
#X text 22 1 Try these presets;
#X text 204 -1 Link with bore freq;
#X obj -419 764 *~;
#X obj -348 708 / 100;
#X obj -347 728 + 0.2;
#X obj -346 747 line;
#X floatatom -301 725 5 0 0 0 - - -;
#X text -263 724 time offset to adjust volume to velocity;
#X obj -301 686 loadbang;
#X msg -301 707 50;
#X connect 1 0 15 0;
#X connect 1 0 33 0;
#X connect 5 0 6 0;
#X connect 5 0 67 0;
#X connect 6 0 60 0;
#X connect 7 0 6 0;
#X connect 8 0 6 1;
#X connect 9 0 6 2;
#X connect 10 0 6 3;
#X connect 11 0 6 4;
#X connect 12 0 6 5;
#X connect 13 0 6 6;
#X connect 14 0 6 7;
#X connect 15 0 6 8;
#X connect 16 0 6 9;
#X connect 17 0 6 10;
#X connect 18 0 6 11;
#X connect 33 0 11 0;
#X connect 34 0 33 1;
#X connect 35 0 6 0;
#X connect 36 0 37 0;
#X connect 37 0 6 0;
#X connect 38 0 39 0;
#X connect 39 0 7 0;
#X connect 39 1 8 0;
#X connect 39 2 9 0;
#X connect 39 3 10 0;
#X connect 39 4 11 0;
#X connect 39 5 12 0;
#X connect 39 6 13 0;
#X connect 39 7 14 0;
#X connect 39 8 15 0;
#X connect 39 9 16 0;
#X connect 39 10 17 0;
#X connect 39 11 18 0;
#X connect 40 0 1 0;
#X connect 41 0 5 0;
#X connect 41 0 48 0;
#X connect 41 1 61 0;
#X connect 42 0 7 0;
#X connect 43 0 8 0;
#X connect 44 0 9 0;
#X connect 45 0 10 0;
#X connect 46 0 17 0;
#X connect 47 0 18 0;
#X connect 48 0 40 0;
#X connect 50 0 41 0;
#X connect 51 0 41 1;
#X connect 52 0 45 0;
#X connect 53 0 46 0;
#X connect 54 0 47 0;
#X connect 55 0 42 0;
#X connect 56 0 43 0;
#X connect 57 0 44 0;
#X connect 60 0 49 0;
#X connect 61 0 62 0;
#X connect 62 0 63 0;
#X connect 63 0 60 1;
#X connect 64 0 63 1;
#X connect 66 0 67 0;
#X connect 67 0 64 0;
#X coords 0 1 100 -1 400 160 1 0 0;
#X restore -10 -134 graph;
#X obj -65 -191 notein;
#X floatatom -10 -150 5 0 0 0 - - -;
#X floatatom 22 -150 5 0 0 0 - - -;
#X floatatom 139 -183 5 0 0 0 - - -;
#X floatatom 182 -183 5 0 0 0 - - -;
#X floatatom 227 -183 5 0 0 0 - - -;
#X floatatom 271 -183 5 0 0 0 - - -;
#X floatatom 315 -183 5 0 0 0 - - -;
#X floatatom 139 -150 5 0 0 0 - - -;
#X floatatom 182 -150 5 0 0 0 - - -;
#X floatatom 227 -150 5 0 0 0 - - -;
#X floatatom 271 -150 5 0 0 0 - - -;
#X floatatom 315 -150 5 0 0 0 - - -;
#X obj 139 -167 / 127;
#X obj 182 -167 / 127;
#X obj 227 -167 / 127;
#X obj 271 -167 / 127;
#X obj 315 -167 / 127;
#N canvas 0 22 450 300 (subpatch) 0;
#X obj -30 22 spigot;
#X obj 2 3 tgl 15 0 empty empty empty 17 7 0 10 -262144 -1 -1 0 1;
#X obj -58 0 inlet;
#X obj -54 54 outlet;
#X connect 0 0 3 0;
#X connect 1 0 0 1;
#X connect 2 0 0 0;
#X coords 0 1 100 -1 20 20 1 0 0;
#X restore -10 -192 graph;
#N canvas 0 22 450 300 (subpatch) 0;
#X obj -30 22 spigot;
#X obj 2 3 tgl 15 0 empty empty empty 17 7 0 10 -262144 -1 -1 0 1;
#X obj -58 0 inlet;
#X obj -54 54 outlet;
#X connect 0 0 3 0;
#X connect 1 0 0 1;
#X connect 2 0 0 0;
#X coords 0 1 100 -1 20 20 1 0 0;
#X restore 22 -192 graph;
#N canvas 0 22 450 300 (subpatch) 0;
#X obj -30 22 spigot;
#X obj 2 3 tgl 15 0 empty empty empty 17 7 0 10 -262144 -1 -1 0 1;
#X obj -58 0 inlet;
#X obj -54 54 outlet;
#X connect 0 0 3 0;
#X connect 1 0 0 1;
#X connect 2 0 0 0;
#X coords 0 1 100 -1 20 20 1 0 0;
#X restore -65 -170 graph;
#N canvas 0 22 450 300 (subpatch) 0;
#X obj -30 22 spigot;
#X obj 2 3 tgl 15 0 empty empty empty 17 7 0 10 -262144 -1 -1 0 1;
#X obj -58 0 inlet;
#X obj -54 54 outlet;
#X connect 0 0 3 0;
#X connect 1 0 0 1;
#X connect 2 0 0 0;
#X coords 0 1 100 -1 20 20 1 0 0;
#X restore -45 -170 graph;
#X obj -10 -243 r noteBanded;
#X obj 22 -223 r velBanded;
#X obj 315 -212 knob 25 25 0 127 0 0 empty empty empty 0 -8 32 8 -1
-260097 -260097 0 1;
#X obj 271 -212 knob 25 25 0 127 0 0 empty empty empty 0 -8 32 8 -1
-260097 -260097 0 1;
#X obj 227 -212 knob 25 25 0 127 0 0 empty empty empty 0 -8 32 8 -1
-260097 -260097 0 1;
#X obj 182 -212 knob 25 25 0 127 0 0 empty empty empty 0 -8 32 8 -1
-260097 -260097 0 1;
#X obj 139 -212 knob 25 25 0 127 0 0 empty empty empty 0 -8 32 8 -1
-260097 -260097 0 1;
#N canvas 0 22 450 300 (subpatch) 0;
#X obj -30 22 spigot;
#X obj 2 3 tgl 15 0 empty empty empty 17 7 0 10 -262144 -1 -1 0 1;
#X obj -58 0 inlet;
#X obj -54 54 outlet;
#X connect 0 0 3 0;
#X connect 1 0 0 1;
#X connect 2 0 0 0;
#X coords 0 1 100 -1 20 20 1 0 0;
#X restore 139 -235 graph;
#N canvas 0 22 450 300 (subpatch) 0;
#X obj -30 22 spigot;
#X obj 2 3 tgl 15 0 empty empty empty 17 7 0 10 -262144 -1 -1 0 1;
#X obj -58 0 inlet;
#X obj -54 54 outlet;
#X connect 0 0 3 0;
#X connect 1 0 0 1;
#X connect 2 0 0 0;
#X coords 0 1 100 -1 20 20 1 0 0;
#X restore 182 -235 graph;
#N canvas 0 22 450 300 (subpatch) 0;
#X obj -30 22 spigot;
#X obj 2 3 tgl 15 0 empty empty empty 17 7 0 10 -262144 -1 -1 0 1;
#X obj -58 0 inlet;
#X obj -54 54 outlet;
#X connect 0 0 3 0;
#X connect 1 0 0 1;
#X connect 2 0 0 0;
#X coords 0 1 100 -1 20 20 1 0 0;
#X restore 227 -235 graph;
#N canvas 0 22 450 300 (subpatch) 0;
#X obj -30 22 spigot;
#X obj 2 3 tgl 15 0 empty empty empty 17 7 0 10 -262144 -1 -1 0 1;
#X obj -58 0 inlet;
#X obj -54 54 outlet;
#X connect 0 0 3 0;
#X connect 1 0 0 1;
#X connect 2 0 0 0;
#X coords 0 1 100 -1 20 20 1 0 0;
#X restore 271 -235 graph;
#N canvas 0 22 450 300 (subpatch) 0;
#X obj -30 22 spigot;
#X obj 2 3 tgl 15 0 empty empty empty 17 7 0 10 -262144 -1 -1 0 1;
#X obj -58 0 inlet;
#X obj -54 54 outlet;
#X connect 0 0 3 0;
#X connect 1 0 0 1;
#X connect 2 0 0 0;
#X coords 0 1 100 -1 20 20 1 0 0;
#X restore 315 -235 graph;
#X obj 358 -252 ctlin 6;
#X obj 315 -272 ctlin 5;
#X obj 271 -293 ctlin 4;
#X obj 227 -313 ctlin 3;
#X obj 182 -333 ctlin 2;
#X obj 139 -354 ctlin 1;
#N canvas 0 22 450 300 (subpatch) 0;
#X obj 59 155 inlet;
#X obj 3 89 inlet~;
#X obj 58 182 change;
#X msg 60 246 set \$1;
#X obj 60 227 tosymbol;
#X obj 59 204 sprintf Bus%d;
#X obj 3 282 throw~ Bus0;
#X obj 2 3 popup 124 25 #ffffff popup Bus0 Bus1 Bus2 Bus3 Bus4 Bus5
;
#X obj 1 32 route bang;
#X obj 154 202 *~;
#X obj 141 7 tgl 15 0 empty empty Dac 19 7 0 10 -262144 -1 -1 0 1;
#X obj 155 238 dac~;
#X obj 1 -41 loadbang;
#X text 59 -43 Bus0 mutes;
#X msg 1 -23 options Bus0 Bus1 Bus2 Bus3 Bus4 Bus5 Bus6 Bus7 Bus8 Bus9
Bus10 Bus11 Bus12 Bus13 Bus14 Bus15 Bus16;
#X connect 0 0 2 0;
#X connect 1 0 6 0;
#X connect 1 0 9 0;
#X connect 2 0 5 0;
#X connect 3 0 6 0;
#X connect 4 0 3 0;
#X connect 5 0 4 0;
#X connect 7 0 8 0;
#X connect 8 1 2 0;
#X connect 9 0 11 0;
#X connect 9 0 11 1;
#X connect 10 0 9 1;
#X connect 12 0 14 0;
#X connect 14 0 7 0;
#X coords 0 1 100 -1 180 30 1 0 0;
#X restore -10 26 graph;
#X floatatom 358 -183 5 0 0 0 - - -;
#X obj 358 -167 * 1;
#X floatatom 358 -150 5 0 0 0 - - -;
#X obj 358 -212 knob 25 25 0 127 0 0 empty empty empty 0 -8 32 8 -1
-260097 -260097 0 1;
#N canvas 0 22 450 300 (subpatch) 0;
#X obj -30 22 spigot;
#X obj 2 3 tgl 15 0 empty empty empty 17 7 0 10 -262144 -1 -1 0 1;
#X obj -58 0 inlet;
#X obj -54 54 outlet;
#X connect 0 0 3 0;
#X connect 1 0 0 1;
#X connect 2 0 0 0;
#X coords 0 1 100 -1 20 20 1 0 0;
#X restore 358 -235 graph;
#X text 190 -354 Breath presure;
#X text 232 -333 Bore /Dist gain;
#X text 275 -313 Filter ratio;
#X text 322 -294 Pluck amp;
#X text 369 -272 Pluck position;
#X text 406 -251 Body size;
#X obj 311 75 declare -path z_Percolate;
#X connect 0 0 41 0;
#X connect 1 0 21 0;
#X connect 1 1 22 0;
#X connect 2 0 0 0;
#X connect 3 0 0 1;
#X connect 4 0 14 0;
#X connect 5 0 15 0;
#X connect 6 0 16 0;
#X connect 7 0 17 0;
#X connect 8 0 18 0;
#X connect 9 0 0 2;
#X connect 10 0 0 3;
#X connect 11 0 0 4;
#X connect 12 0 0 5;
#X connect 13 0 0 6;
#X connect 14 0 9 0;
#X connect 15 0 10 0;
#X connect 16 0 11 0;
#X connect 17 0 12 0;
#X connect 18 0 13 0;
#X connect 19 0 2 0;
#X connect 20 0 3 0;
#X connect 21 0 2 0;
#X connect 22 0 3 0;
#X connect 23 0 19 0;
#X connect 24 0 20 0;
#X connect 25 0 8 0;
#X connect 26 0 7 0;
#X connect 27 0 6 0;
#X connect 28 0 5 0;
#X connect 29 0 4 0;
#X connect 30 0 29 0;
#X connect 31 0 28 0;
#X connect 32 0 27 0;
#X connect 33 0 26 0;
#X connect 34 0 25 0;
#X connect 35 0 46 0;
#X connect 36 0 34 0;
#X connect 37 0 33 0;
#X connect 38 0 32 0;
#X connect 39 0 31 0;
#X connect 40 0 30 0;
#X connect 42 0 43 0;
#X connect 43 0 44 0;
#X connect 44 0 0 7;
#X connect 45 0 42 0;
#X connect 46 0 45 0;
