#N canvas 0 22 586 496 10;
#X declare -path z_Percolate;
#N canvas 0 22 450 300 (subpatch) 0;
#X obj 342 -100 loadbang;
#X floatatom 30 148 5 0 0 0 - - -;
#X obj 30 17 vsl 15 128 0 1500 0 0 empty empty empty 0 -8 0 8 -262144
-1 -1 3725 1;
#X obj 31 225 line;
#X obj 30 198 pack 0 50;
#X floatatom 64 148 5 0 0 0 - - -;
#X msg -7 226 0;
#X obj 4 15 bng 15 250 50 0 empty empty empty 0 -6 0 8 -262144 -1 -1
;
#X text -87 152 noteOn \, amp;
#X text -93 138 CLICK TO PLAY;
#X msg -55 224 100;
#X msg 64 -58 440;
#X text -12 -210 Karplus-Strong Plucked String;
#X obj -20 300 Sitar~;
#X text -13 -243 Sitar~;
#X text -12 -224 Sitar Plucked String based on;
#X obj -44 -105 stripnote;
#X floatatom 403 -268 5 0 0 0 - - -;
#X floatatom 454 -269 5 0 0 0 - - -;
#X floatatom 504 -269 5 0 0 0 - - -;
#X obj 392 -176 bng 15 250 50 0 empty empty empty 17 7 0 10 -262144
-1 -1;
#X floatatom 456 -222 5 0 0 0 - - -;
#X floatatom 505 -225 5 0 0 0 - - -;
#X obj 96 327 *~;
#X obj 96 361 *~;
#X obj 121 303 / 100;
#X obj 123 342 line;
#X floatatom 168 320 5 0 0 0 - - -;
#X text 206 319 time offset to adjust volume to velocity;
#X obj 404 -245 * 1;
#X floatatom 404 -224 5 0 0 0 - - -;
#N canvas 0 22 450 300 eald~ 0;
#X msg 394 133 bang;
#X floatatom 504 74 5 0 0 0 - - -;
#X floatatom 555 73 5 0 0 0 - - -;
#X floatatom 605 73 5 0 0 0 - - -;
#X text 471 25 "ALD" enveloppe;
#X obj 504 49 inlet;
#X obj 555 48 inlet;
#X obj 605 48 inlet;
#X obj 408 52 inlet;
#X obj 379 432 outlet~;
#X text 633 133 ENVELOPE SECTION;
#X obj 379 346 vline~;
#X msg 352 245 1;
#X obj 352 265 pack f f;
#X obj 352 286 unpack f f;
#X msg 456 246 0;
#X obj 456 267 pack f f f;
#X obj 456 288 unpack f f f;
#X obj 456 225 delay 5;
#X text 102 283 Attack : sends a 1 to get to in A msec;
#X text 529 224 wait the end of the attack;
#X text 538 254 Length+Decay : 0 to get to in D msec \, after L msec
;
#X text 493 74 A;
#X text 544 74 L;
#X text 594 74 D;
#X connect 0 0 12 0;
#X connect 0 0 18 0;
#X connect 1 0 13 1;
#X connect 1 0 18 1;
#X connect 2 0 16 2;
#X connect 3 0 16 1;
#X connect 5 0 1 0;
#X connect 6 0 2 0;
#X connect 7 0 3 0;
#X connect 8 0 0 0;
#X connect 11 0 9 0;
#X connect 12 0 13 0;
#X connect 13 0 14 0;
#X connect 14 0 11 0;
#X connect 14 1 11 1;
#X connect 15 0 16 0;
#X connect 16 0 17 0;
#X connect 17 0 11 0;
#X connect 17 1 11 1;
#X connect 17 2 11 2;
#X connect 18 0 15 0;
#X restore 407 -151 pd eald~;
#X msg 211 303 50;
#X obj 505 -246 * 10;
#X obj 122 323 + 0.05;
#X floatatom 269 -293 5 0 0 0 - - -;
#X obj 270 -270 * 1;
#X obj -36 -80 mtof;
#X obj 455 -246 * 20;
#X obj 64 17 vsl 15 128 0 1500 0 0 empty empty empty 0 -8 0 8 -262144
-1 -1 0 1;
#X text 30 -1 Frq;
#X text 63 -1 Gliss time;
#X obj 269 -318 inlet;
#X obj 403 -293 inlet;
#X obj 454 -294 inlet;
#X obj 504 -294 inlet;
#X obj -58 -159 inlet;
#X obj 2 -160 inlet;
#X obj 99 384 outlet~;
#X connect 0 0 11 0;
#X connect 0 0 6 0;
#X connect 0 0 32 0;
#X connect 1 0 4 0;
#X connect 2 0 1 0;
#X connect 3 0 13 2;
#X connect 4 0 3 0;
#X connect 5 0 4 1;
#X connect 6 0 13 1;
#X connect 7 0 10 0;
#X connect 7 0 20 0;
#X connect 10 0 13 1;
#X connect 11 0 2 0;
#X connect 13 0 23 0;
#X connect 16 0 37 0;
#X connect 16 0 20 0;
#X connect 16 0 7 0;
#X connect 16 1 25 0;
#X connect 17 0 29 0;
#X connect 18 0 38 0;
#X connect 19 0 33 0;
#X connect 20 0 31 0;
#X connect 20 0 32 0;
#X connect 21 0 31 2;
#X connect 22 0 31 3;
#X connect 23 0 24 0;
#X connect 24 0 48 0;
#X connect 25 0 34 0;
#X connect 26 0 24 1;
#X connect 27 0 26 1;
#X connect 29 0 30 0;
#X connect 30 0 31 1;
#X connect 31 0 23 1;
#X connect 32 0 27 0;
#X connect 33 0 22 0;
#X connect 34 0 26 0;
#X connect 35 0 36 0;
#X connect 36 0 39 0;
#X connect 37 0 2 0;
#X connect 38 0 21 0;
#X connect 39 0 5 0;
#X connect 42 0 35 0;
#X connect 43 0 17 0;
#X connect 44 0 18 0;
#X connect 45 0 19 0;
#X connect 46 0 16 0;
#X connect 47 0 16 1;
#X coords 0 1 100 -1 130 170 1 0 0;
#X restore 16 -112 graph;
#X obj -39 -169 notein;
#X floatatom 16 -128 5 0 0 0 - - -;
#X floatatom 48 -128 5 0 0 0 - - -;
#X floatatom 95 -161 5 0 0 0 - - -;
#X floatatom 139 -161 5 0 0 0 - - -;
#X floatatom 182 -161 5 0 0 0 - - -;
#X floatatom 225 -161 5 0 0 0 - - -;
#X floatatom 182 -128 5 0 0 0 - - -;
#X floatatom 225 -128 5 0 0 0 - - -;
#X obj 182 -145 * 10;
#X obj 139 -145 * 1;
#X floatatom 139 -128 5 0 0 0 - - -;
#X obj 225 -145 * 10;
#X floatatom 95 -128 5 0 0 0 - - -;
#N canvas 0 22 450 300 (subpatch) 0;
#X obj -30 22 spigot;
#X obj 2 3 tgl 15 0 empty empty empty 17 7 0 10 -262144 -1 -1 0 1;
#X obj -58 0 inlet;
#X obj -54 54 outlet;
#X connect 0 0 3 0;
#X connect 1 0 0 1;
#X connect 2 0 0 0;
#X coords 0 1 100 -1 20 20 1 0 0;
#X restore 16 -170 graph;
#N canvas 0 22 450 300 (subpatch) 0;
#X obj -30 22 spigot;
#X obj 2 3 tgl 15 0 empty empty empty 17 7 0 10 -262144 -1 -1 0 1;
#X obj -58 0 inlet;
#X obj -54 54 outlet;
#X connect 0 0 3 0;
#X connect 1 0 0 1;
#X connect 2 0 0 0;
#X coords 0 1 100 -1 20 20 1 0 0;
#X restore 48 -170 graph;
#N canvas 0 22 450 300 (subpatch) 0;
#X obj -30 22 spigot;
#X obj 2 3 tgl 15 0 empty empty empty 17 7 0 10 -262144 -1 -1 0 1;
#X obj -58 0 inlet;
#X obj -54 54 outlet;
#X connect 0 0 3 0;
#X connect 1 0 0 1;
#X connect 2 0 0 0;
#X coords 0 1 100 -1 20 20 1 0 0;
#X restore -39 -148 graph;
#N canvas 0 22 450 300 (subpatch) 0;
#X obj -30 22 spigot;
#X obj 2 3 tgl 15 0 empty empty empty 17 7 0 10 -262144 -1 -1 0 1;
#X obj -58 0 inlet;
#X obj -54 54 outlet;
#X connect 0 0 3 0;
#X connect 1 0 0 1;
#X connect 2 0 0 0;
#X coords 0 1 100 -1 20 20 1 0 0;
#X restore -19 -148 graph;
#X obj 16 -331 r noteBanded;
#X obj 48 -311 r velBanded;
#X obj 225 -190 knob 25 25 0 127 0 0 empty empty empty 0 -8 32 8 -1
-260097 -260097 0 1;
#X obj 182 -190 knob 25 25 0 127 0 0 empty empty empty 0 -8 32 8 -1
-260097 -260097 0 1;
#X obj 139 -190 knob 25 25 0 127 0 0 empty empty empty 0 -8 32 8 -1
-260097 -260097 0 1;
#X obj 95 -190 knob 25 25 0 127 0 0 empty empty empty 0 -8 32 8 -1
-260097 -260097 0 1;
#N canvas 0 22 450 300 (subpatch) 0;
#X obj -30 22 spigot;
#X obj 2 3 tgl 15 0 empty empty empty 17 7 0 10 -262144 -1 -1 0 1;
#X obj -58 0 inlet;
#X obj -54 54 outlet;
#X connect 0 0 3 0;
#X connect 1 0 0 1;
#X connect 2 0 0 0;
#X coords 0 1 100 -1 20 20 1 0 0;
#X restore 95 -213 graph;
#N canvas 0 22 450 300 (subpatch) 0;
#X obj -30 22 spigot;
#X obj 2 3 tgl 15 0 empty empty empty 17 7 0 10 -262144 -1 -1 0 1;
#X obj -58 0 inlet;
#X obj -54 54 outlet;
#X connect 0 0 3 0;
#X connect 1 0 0 1;
#X connect 2 0 0 0;
#X coords 0 1 100 -1 20 20 1 0 0;
#X restore 225 -213 graph;
#N canvas 0 22 450 300 (subpatch) 0;
#X obj -30 22 spigot;
#X obj 2 3 tgl 15 0 empty empty empty 17 7 0 10 -262144 -1 -1 0 1;
#X obj -58 0 inlet;
#X obj -54 54 outlet;
#X connect 0 0 3 0;
#X connect 1 0 0 1;
#X connect 2 0 0 0;
#X coords 0 1 100 -1 20 20 1 0 0;
#X restore 139 -213 graph;
#N canvas 0 22 450 300 (subpatch) 0;
#X obj -30 22 spigot;
#X obj 2 3 tgl 15 0 empty empty empty 17 7 0 10 -262144 -1 -1 0 1;
#X obj -58 0 inlet;
#X obj -54 54 outlet;
#X connect 0 0 3 0;
#X connect 1 0 0 1;
#X connect 2 0 0 0;
#X coords 0 1 100 -1 20 20 1 0 0;
#X restore 182 -213 graph;
#X obj 225 -230 ctlin 8;
#X obj 182 -252 ctlin 7;
#X obj 139 -272 ctlin 6;
#X obj 95 -291 ctlin 1;
#N canvas 0 22 450 300 (subpatch) 1;
#X obj 59 155 inlet;
#X obj 3 89 inlet~;
#X obj 58 182 change;
#X msg 60 246 set \$1;
#X obj 60 227 tosymbol;
#X obj 59 204 sprintf Bus%d;
#X obj 3 282 throw~ Bus0;
#X obj 2 3 popup 124 25 #ffffff popup Bus0 Bus1 Bus2 Bus3 Bus4 Bus5
;
#X obj 1 32 route bang;
#X obj 154 202 *~;
#X obj 141 7 tgl 15 0 empty empty Dac 19 7 0 10 -262144 -1 -1 0 1;
#X obj 155 238 dac~;
#X obj 1 -52 loadbang;
#X text 59 -54 Bus0 mutes;
#X msg 1 -34 options Bus0 Bus1 Bus2 Bus3 Bus4 Bus5 Bus6 Bus7 Bus8 Bus9
Bus10 Bus11 Bus12 Bus13 Bus14 Bus15 Bus16;
#X connect 0 0 2 0;
#X connect 1 0 6 0;
#X connect 1 0 9 0;
#X connect 2 0 5 0;
#X connect 3 0 6 0;
#X connect 4 0 3 0;
#X connect 5 0 4 0;
#X connect 7 0 8 0;
#X connect 8 1 2 0;
#X connect 9 0 11 0;
#X connect 9 0 11 1;
#X connect 10 0 9 1;
#X connect 12 0 14 0;
#X connect 14 0 7 0;
#X coords 0 1 100 -1 180 30 1 0 0;
#X restore 16 58 graph;
#X text 142 -291 Gliss time;
#X text 189 -273 A;
#X text 233 -251 L;
#X text 276 -231 D;
#X obj 95 -145 * 15;
#X obj 155 20 declare -path z_Percolate;
#X connect 0 0 33 0;
#X connect 1 0 17 0;
#X connect 1 1 18 0;
#X connect 2 0 0 0;
#X connect 3 0 0 1;
#X connect 4 0 38 0;
#X connect 5 0 11 0;
#X connect 6 0 10 0;
#X connect 7 0 13 0;
#X connect 8 0 0 4;
#X connect 9 0 0 5;
#X connect 10 0 8 0;
#X connect 11 0 12 0;
#X connect 12 0 0 3;
#X connect 13 0 9 0;
#X connect 14 0 0 2;
#X connect 15 0 2 0;
#X connect 16 0 3 0;
#X connect 17 0 2 0;
#X connect 18 0 3 0;
#X connect 19 0 15 0;
#X connect 20 0 16 0;
#X connect 21 0 7 0;
#X connect 22 0 6 0;
#X connect 23 0 5 0;
#X connect 24 0 4 0;
#X connect 25 0 24 0;
#X connect 26 0 21 0;
#X connect 27 0 23 0;
#X connect 28 0 22 0;
#X connect 29 0 26 0;
#X connect 30 0 28 0;
#X connect 31 0 27 0;
#X connect 32 0 25 0;
#X connect 38 0 14 0;
