#N canvas 52 22 495 504 10;
#X declare -path z_Percolate;
#N canvas 0 22 450 300 (subpatch) 0;
#X obj 13 223 Mesh2D~;
#X obj 3 3 bng 15 250 50 0 empty empty empty 0 -6 0 8 -262144 -1 -1
;
#X text -81 96 noteOn \, amp;
#X text -87 82 CLICK TO PLAY;
#X msg -49 168 100;
#X floatatom 3 153 5 0 0 0 - - -;
#X obj 3 22 vsl 15 128 0 1500 0 0 empty empty empty 0 -8 0 8 -262144
-1 -1 0 1;
#X msg -6 -63 440;
#X obj 27 45 hsl 128 15 0 127 0 0 empty empty empty -2 -6 0 8 -262144
-1 -1 0 1;
#X msg 321 61 stkCtrl 1 \$1;
#X obj 27 65 hsl 128 15 0 255 0 0 empty empty empty -2 -6 0 8 -262144
-1 -1 0 1;
#X text 167 45 X-Y Input position;
#X msg 321 81 stkCtrl 2 \$1;
#X text 167 65 X dimension;
#X obj 27 89 hsl 128 15 0 127 0 0 empty empty empty -2 -6 0 8 -262144
-1 -1 0 1;
#X text 167 89 Y dimension;
#X msg 321 105 stkCtrl 4 \$1;
#X obj 27 112 hsl 128 15 0 127 0 0 empty empty empty -2 -6 0 8 -262144
-1 -1 0 1;
#X text 167 112 Mesh decay;
#X msg 321 128 stkCtrl 11 \$1;
#X obj -217 -32 stripnote;
#X floatatom 208 -181 5 0 0 0 - - -;
#X floatatom 259 -182 5 0 0 0 - - -;
#X floatatom 307 -181 5 0 0 0 - - -;
#X obj 441 217 bng 15 250 50 0 empty empty empty 17 7 0 10 -262144
-1 -1;
#X floatatom 261 -135 5 0 0 0 - - -;
#X floatatom 308 -137 5 0 0 0 - - -;
#X obj 13 282 *~;
#X obj 13 316 *~;
#X obj 38 258 / 100;
#X obj 40 297 line;
#X floatatom 85 275 5 0 0 0 - - -;
#X text 123 274 time offset to adjust volume to velocity;
#X obj 209 -158 * 1;
#X floatatom 209 -137 5 0 0 0 - - -;
#N canvas 0 22 450 300 eald~ 0;
#X msg 394 133 bang;
#X floatatom 504 74 5 0 0 0 - - -;
#X floatatom 555 73 5 0 0 0 - - -;
#X floatatom 605 73 5 0 0 0 - - -;
#X text 471 25 "ALD" enveloppe;
#X obj 504 49 inlet;
#X obj 555 48 inlet;
#X obj 605 48 inlet;
#X obj 408 52 inlet;
#X obj 379 432 outlet~;
#X text 633 133 ENVELOPE SECTION;
#X obj 379 346 vline~;
#X msg 352 245 1;
#X obj 352 265 pack f f;
#X obj 352 286 unpack f f;
#X msg 456 246 0;
#X obj 456 267 pack f f f;
#X obj 456 288 unpack f f f;
#X obj 456 225 delay 5;
#X text 102 283 Attack : sends a 1 to get to in A msec;
#X text 529 224 wait the end of the attack;
#X text 538 254 Length+Decay : 0 to get to in D msec \, after L msec
;
#X text 493 74 A;
#X text 544 74 L;
#X text 594 74 D;
#X connect 0 0 12 0;
#X connect 0 0 18 0;
#X connect 1 0 13 1;
#X connect 1 0 18 1;
#X connect 2 0 16 2;
#X connect 3 0 16 1;
#X connect 5 0 1 0;
#X connect 6 0 2 0;
#X connect 7 0 3 0;
#X connect 8 0 0 0;
#X connect 11 0 9 0;
#X connect 12 0 13 0;
#X connect 13 0 14 0;
#X connect 14 0 11 0;
#X connect 14 1 11 1;
#X connect 15 0 16 0;
#X connect 16 0 17 0;
#X connect 17 0 11 0;
#X connect 17 1 11 1;
#X connect 17 2 11 2;
#X connect 18 0 15 0;
#X restore 456 242 pd eald~;
#X obj 128 237 loadbang;
#X msg 128 258 50;
#X obj 39 278 + 0.05;
#X floatatom -19 -164 5 0 0 0 - - -;
#X floatatom 34 -165 5 0 0 0 - - -;
#X floatatom 85 -166 5 0 0 0 - - -;
#X floatatom 135 -166 5 0 0 0 - - -;
#X obj -18 -141 * 1;
#X obj 35 -142 * 1;
#X obj 86 -143 * 1;
#X obj 136 -143 * 1;
#X obj -209 -7 mtof;
#X obj 260 -159 * 1;
#X obj 308 -158 * 1;
#X obj -19 -189 inlet;
#X obj 34 -190 inlet;
#X obj 85 -191 inlet;
#X obj 135 -191 inlet;
#X obj 208 -206 inlet;
#X obj 259 -207 inlet;
#X obj 307 -206 inlet;
#X obj 16 339 outlet~;
#X obj -223 -85 inlet;
#X obj -170 -86 inlet;
#X connect 0 0 27 0;
#X connect 1 0 4 0;
#X connect 1 0 24 0;
#X connect 4 0 0 1;
#X connect 5 0 0 2;
#X connect 6 0 5 0;
#X connect 7 0 6 0;
#X connect 8 0 9 0;
#X connect 9 0 0 3;
#X connect 10 0 12 0;
#X connect 12 0 0 3;
#X connect 14 0 16 0;
#X connect 16 0 0 3;
#X connect 17 0 19 0;
#X connect 19 0 0 3;
#X connect 20 0 47 0;
#X connect 20 0 24 0;
#X connect 20 1 29 0;
#X connect 21 0 33 0;
#X connect 22 0 48 0;
#X connect 23 0 49 0;
#X connect 24 0 35 0;
#X connect 24 0 37 0;
#X connect 25 0 35 2;
#X connect 26 0 35 3;
#X connect 27 0 28 0;
#X connect 28 0 57 0;
#X connect 29 0 38 0;
#X connect 30 0 28 1;
#X connect 31 0 30 1;
#X connect 33 0 34 0;
#X connect 34 0 35 1;
#X connect 35 0 27 1;
#X connect 36 0 37 0;
#X connect 37 0 31 0;
#X connect 38 0 30 0;
#X connect 39 0 43 0;
#X connect 40 0 44 0;
#X connect 41 0 45 0;
#X connect 42 0 46 0;
#X connect 43 0 8 0;
#X connect 44 0 10 0;
#X connect 45 0 14 0;
#X connect 46 0 17 0;
#X connect 47 0 6 0;
#X connect 48 0 25 0;
#X connect 49 0 26 0;
#X connect 50 0 39 0;
#X connect 51 0 40 0;
#X connect 52 0 41 0;
#X connect 53 0 42 0;
#X connect 54 0 21 0;
#X connect 55 0 22 0;
#X connect 56 0 23 0;
#X connect 58 0 20 0;
#X connect 59 0 20 1;
#X coords 0 1 100 -1 280 180 1 0 0;
#X restore 50 -76 graph;
#X obj -5 -133 notein;
#X floatatom 50 -92 5 0 0 0 - - -;
#X floatatom 82 -92 5 0 0 0 - - -;
#X floatatom 129 -125 5 0 0 0 - - -;
#X floatatom 172 -125 5 0 0 0 - - -;
#X floatatom 217 -125 5 0 0 0 - - -;
#X floatatom 261 -125 5 0 0 0 - - -;
#X floatatom 323 -125 5 0 0 0 - - -;
#X floatatom 366 -125 5 0 0 0 - - -;
#X floatatom 409 -125 5 0 0 0 - - -;
#X floatatom 366 -92 5 0 0 0 - - -;
#X floatatom 409 -92 5 0 0 0 - - -;
#X obj 366 -109 * 10;
#X obj 323 -109 * 1;
#X floatatom 323 -92 5 0 0 0 - - -;
#X obj 409 -109 * 10;
#X floatatom 129 -92 5 0 0 0 - - -;
#X floatatom 172 -92 5 0 0 0 - - -;
#X floatatom 217 -92 5 0 0 0 - - -;
#X floatatom 261 -92 5 0 0 0 - - -;
#N canvas 0 22 450 300 (subpatch) 0;
#X obj -30 22 spigot;
#X obj 2 3 tgl 15 0 empty empty empty 17 7 0 10 -262144 -1 -1 0 1;
#X obj -58 0 inlet;
#X obj -54 54 outlet;
#X connect 0 0 3 0;
#X connect 1 0 0 1;
#X connect 2 0 0 0;
#X coords 0 1 100 -1 20 20 1 0 0;
#X restore 50 -134 graph;
#N canvas 0 22 450 300 (subpatch) 0;
#X obj -30 22 spigot;
#X obj 2 3 tgl 15 0 empty empty empty 17 7 0 10 -262144 -1 -1 0 1;
#X obj -58 0 inlet;
#X obj -54 54 outlet;
#X connect 0 0 3 0;
#X connect 1 0 0 1;
#X connect 2 0 0 0;
#X coords 0 1 100 -1 20 20 1 0 0;
#X restore 82 -134 graph;
#N canvas 0 22 450 300 (subpatch) 0;
#X obj -30 22 spigot;
#X obj 2 3 tgl 15 0 empty empty empty 17 7 0 10 -262144 -1 -1 0 1;
#X obj -58 0 inlet;
#X obj -54 54 outlet;
#X connect 0 0 3 0;
#X connect 1 0 0 1;
#X connect 2 0 0 0;
#X coords 0 1 100 -1 20 20 1 0 0;
#X restore -5 -112 graph;
#N canvas 0 22 450 300 (subpatch) 0;
#X obj -30 22 spigot;
#X obj 2 3 tgl 15 0 empty empty empty 17 7 0 10 -262144 -1 -1 0 1;
#X obj -58 0 inlet;
#X obj -54 54 outlet;
#X connect 0 0 3 0;
#X connect 1 0 0 1;
#X connect 2 0 0 0;
#X coords 0 1 100 -1 20 20 1 0 0;
#X restore 15 -112 graph;
#X obj 409 -154 knob 25 25 0 127 0 0 empty empty empty 0 -8 32 8 -1
-260097 -260097 0 1;
#X obj 366 -154 knob 25 25 0 127 0 0 empty empty empty 0 -8 32 8 -1
-260097 -260097 0 1;
#X obj 323 -154 knob 25 25 0 127 0 0 empty empty empty 0 -8 32 8 -1
-260097 -260097 0 1;
#X obj 261 -154 knob 25 25 0 127 0 0 empty empty empty 0 -8 32 8 -1
-260097 -260097 0 1;
#X obj 217 -154 knob 25 25 0 127 0 0 empty empty empty 0 -8 32 8 -1
-260097 -260097 0 1;
#X obj 172 -154 knob 25 25 0 127 0 0 empty empty empty 0 -8 32 8 -1
-260097 -260097 0 1;
#X obj 129 -154 knob 25 25 0 127 0 0 empty empty empty 0 -8 32 8 -1
-260097 -260097 0 1;
#N canvas 0 22 450 300 (subpatch) 0;
#X obj -30 22 spigot;
#X obj 2 3 tgl 15 0 empty empty empty 17 7 0 10 -262144 -1 -1 0 1;
#X obj -58 0 inlet;
#X obj -54 54 outlet;
#X connect 0 0 3 0;
#X connect 1 0 0 1;
#X connect 2 0 0 0;
#X coords 0 1 100 -1 20 20 1 0 0;
#X restore 129 -177 graph;
#N canvas 0 22 450 300 (subpatch) 0;
#X obj -30 22 spigot;
#X obj 2 3 tgl 15 0 empty empty empty 17 7 0 10 -262144 -1 -1 0 1;
#X obj -58 0 inlet;
#X obj -54 54 outlet;
#X connect 0 0 3 0;
#X connect 1 0 0 1;
#X connect 2 0 0 0;
#X coords 0 1 100 -1 20 20 1 0 0;
#X restore 172 -177 graph;
#N canvas 0 22 450 300 (subpatch) 0;
#X obj -30 22 spigot;
#X obj 2 3 tgl 15 0 empty empty empty 17 7 0 10 -262144 -1 -1 0 1;
#X obj -58 0 inlet;
#X obj -54 54 outlet;
#X connect 0 0 3 0;
#X connect 1 0 0 1;
#X connect 2 0 0 0;
#X coords 0 1 100 -1 20 20 1 0 0;
#X restore 409 -177 graph;
#N canvas 0 22 450 300 (subpatch) 0;
#X obj -30 22 spigot;
#X obj 2 3 tgl 15 0 empty empty empty 17 7 0 10 -262144 -1 -1 0 1;
#X obj -58 0 inlet;
#X obj -54 54 outlet;
#X connect 0 0 3 0;
#X connect 1 0 0 1;
#X connect 2 0 0 0;
#X coords 0 1 100 -1 20 20 1 0 0;
#X restore 217 -177 graph;
#N canvas 0 22 450 300 (subpatch) 0;
#X obj -30 22 spigot;
#X obj 2 3 tgl 15 0 empty empty empty 17 7 0 10 -262144 -1 -1 0 1;
#X obj -58 0 inlet;
#X obj -54 54 outlet;
#X connect 0 0 3 0;
#X connect 1 0 0 1;
#X connect 2 0 0 0;
#X coords 0 1 100 -1 20 20 1 0 0;
#X restore 261 -177 graph;
#N canvas 0 22 450 300 (subpatch) 0;
#X obj -30 22 spigot;
#X obj 2 3 tgl 15 0 empty empty empty 17 7 0 10 -262144 -1 -1 0 1;
#X obj -58 0 inlet;
#X obj -54 54 outlet;
#X connect 0 0 3 0;
#X connect 1 0 0 1;
#X connect 2 0 0 0;
#X coords 0 1 100 -1 20 20 1 0 0;
#X restore 323 -177 graph;
#N canvas 0 22 450 300 (subpatch) 0;
#X obj -30 22 spigot;
#X obj 2 3 tgl 15 0 empty empty empty 17 7 0 10 -262144 -1 -1 0 1;
#X obj -58 0 inlet;
#X obj -54 54 outlet;
#X connect 0 0 3 0;
#X connect 1 0 0 1;
#X connect 2 0 0 0;
#X coords 0 1 100 -1 20 20 1 0 0;
#X restore 366 -177 graph;
#X obj 409 -194 ctlin 8;
#X obj 366 -216 ctlin 7;
#X obj 323 -236 ctlin 6;
#X obj 261 -258 ctlin 4;
#X obj 217 -278 ctlin 3;
#X obj 172 -298 ctlin 2;
#X obj 129 -319 ctlin 1;
#N canvas 0 22 450 300 (subpatch) 0;
#X obj 59 155 inlet;
#X obj 3 89 inlet~;
#X obj 58 182 change;
#X msg 60 246 set \$1;
#X obj 60 227 tosymbol;
#X obj 59 204 sprintf Bus%d;
#X obj 3 282 throw~ Bus0;
#X obj 2 3 popup 124 25 #ffffff popup Bus0 Bus1 Bus2 Bus3 Bus4 Bus5
;
#X obj 1 32 route bang;
#X obj 154 202 *~;
#X obj 141 7 tgl 15 0 empty empty Dac 19 7 0 10 -262144 -1 -1 0 1;
#X obj 155 238 dac~;
#X obj 4 -53 loadbang;
#X text 62 -55 Bus0 mutes;
#X msg 4 -35 options Bus0 Bus1 Bus2 Bus3 Bus4 Bus5 Bus6 Bus7 Bus8 Bus9
Bus10 Bus11 Bus12 Bus13 Bus14 Bus15 Bus16;
#X connect 0 0 2 0;
#X connect 1 0 6 0;
#X connect 1 0 9 0;
#X connect 2 0 5 0;
#X connect 3 0 6 0;
#X connect 4 0 3 0;
#X connect 5 0 4 0;
#X connect 7 0 8 0;
#X connect 8 1 2 0;
#X connect 9 0 11 0;
#X connect 9 0 11 1;
#X connect 10 0 9 1;
#X connect 12 0 14 0;
#X connect 14 0 7 0;
#X coords 0 1 100 -1 180 30 1 0 0;
#X restore 50 104 graph;
#X obj 129 -109 / 1;
#X obj 172 -109 / 1;
#X obj 217 -109 / 1;
#X obj 261 -109 / 1;
#X text 181 -318 XY position;
#X text 223 -299 X dim;
#X text 271 -277 Y dim;
#X text 314 -256 Mesh Decay;
#X text 377 -237 A;
#X text 420 -214 L;
#X text 462 -195 D;
#X obj 50 -359 r noteMesh;
#X obj 82 -339 r velMesh;
#X obj 243 115 declare -path z_Percolate;
#X connect 0 0 46 0;
#X connect 1 0 23 0;
#X connect 1 1 24 0;
#X connect 2 0 0 0;
#X connect 3 0 0 1;
#X connect 4 0 47 0;
#X connect 5 0 48 0;
#X connect 6 0 49 0;
#X connect 7 0 50 0;
#X connect 8 0 14 0;
#X connect 9 0 13 0;
#X connect 10 0 16 0;
#X connect 11 0 0 7;
#X connect 12 0 0 8;
#X connect 13 0 11 0;
#X connect 14 0 15 0;
#X connect 15 0 0 6;
#X connect 16 0 12 0;
#X connect 17 0 0 2;
#X connect 18 0 0 3;
#X connect 19 0 0 4;
#X connect 20 0 0 5;
#X connect 21 0 2 0;
#X connect 22 0 3 0;
#X connect 23 0 2 0;
#X connect 24 0 3 0;
#X connect 25 0 10 0;
#X connect 26 0 9 0;
#X connect 27 0 8 0;
#X connect 28 0 7 0;
#X connect 29 0 6 0;
#X connect 30 0 5 0;
#X connect 31 0 4 0;
#X connect 32 0 31 0;
#X connect 33 0 30 0;
#X connect 34 0 25 0;
#X connect 35 0 29 0;
#X connect 36 0 28 0;
#X connect 37 0 27 0;
#X connect 38 0 26 0;
#X connect 39 0 34 0;
#X connect 40 0 38 0;
#X connect 41 0 37 0;
#X connect 42 0 36 0;
#X connect 43 0 35 0;
#X connect 44 0 33 0;
#X connect 45 0 32 0;
#X connect 47 0 17 0;
#X connect 48 0 18 0;
#X connect 49 0 19 0;
#X connect 50 0 20 0;
#X connect 58 0 21 0;
#X connect 59 0 22 0;
