#N canvas 3 22 745 659 10;
#X declare -path z_Percolate;
#N canvas 0 22 594 434 (subpatch) 0;
#X obj 7 143 hsl 128 15 0 127 0 0 empty empty empty -2 -6 0 8 -262144
-1 -1 7500 1;
#X obj 7 185 hsl 128 15 0 127 0 0 empty empty empty -2 -6 0 8 -262144
-1 -1 11000 1;
#X obj 7 233 hsl 128 15 0 127 0 0 empty empty empty -2 -6 0 8 -262144
-1 -1 11000 1;
#X obj 463 -11 loadbang;
#X msg 493 119 stkCtrl 1 \$1;
#X msg -428 270 stkCtrl 2 \$1;
#X msg 489 186 stkCtrl 4 \$1;
#X msg 492 249 stkCtrl 11 \$1;
#X floatatom -312 300 5 0 0 0 - - -;
#X text 144 45 Frequency;
#X text -145 453 Shakers~;
#X text -144 473 PhISEM (Physically Informed Stochastic Event Modeling)
;
#X text 144 143 Resonance Frequency;
#X text 144 93 Shake Energy;
#X text 144 235 System Decay;
#X text 145 187 Number of Objects;
#X obj -369 405 Shakers~;
#X msg 310 383 stkCtrl 1071 \$1;
#X floatatom 267 376 5 0 0 0 - - -;
#X text 307 10 0 - Maraca;
#X msg -304 49 300;
#X msg 452 233 0;
#X msg 448 144 110;
#X msg 462 95 75;
#X msg 455 193 110;
#X text 307 25 1 - Cabasa;
#X text 307 40 2 - Sekere;
#X text 307 55 3 - Guiro;
#X text 307 70 4 - Water Drops;
#X text 307 86 5 - Bamboo Chimes;
#X text 307 101 6 - Tambourine;
#X text 307 116 7 - Sleigh Bells;
#X text 307 130 8 - Sticks;
#X text 308 144 9 - Crunch;
#X text 308 158 10 - Wrench;
#X text 308 172 11 - Sand Paper;
#X text 309 188 12 - Coke Can;
#X text 309 203 13 - Next Mug;
#X text 309 218 14 - Penny + Mug;
#X text 309 234 15 - Nickel + Mug;
#X text 308 249 16 - Dime + Mug;
#X text 309 264 17 - Quarter + Mug;
#X text 309 278 18 - Franc + Mug;
#X text 310 292 19 - Peso + Mug;
#X text 310 306 20 - Big Rocks;
#X text 310 320 21 - Little Rocks;
#X text 310 334 22 - Tuned Bamboo Chimes;
#X floatatom -409 -147 5 0 0 0 - - -;
#X floatatom -367 -148 5 0 0 0 - - -;
#X floatatom -324 -148 5 0 0 0 - - -;
#X obj -409 -124 stripnote;
#X floatatom 129 -134 5 0 0 0 - - -;
#X floatatom 180 -135 5 0 0 0 - - -;
#X floatatom 230 -135 5 0 0 0 - - -;
#X obj 4 11 bng 15 250 50 0 empty empty empty 17 7 0 10 -262144 -1
-1;
#X floatatom 182 -88 5 0 0 0 - - -;
#X floatatom 231 -91 5 0 0 0 - - -;
#X obj -268 432 *~;
#X obj -268 466 *~;
#X obj -243 408 / 100;
#X obj -241 447 line;
#X floatatom -196 425 5 0 0 0 - - -;
#X text -158 424 time offset to adjust volume to velocity;
#X obj 130 -111 * 1;
#X floatatom 130 -90 5 0 0 0 - - -;
#N canvas 0 22 450 300 eald~ 0;
#X msg 394 133 bang;
#X floatatom 504 74 5 0 0 0 - - -;
#X floatatom 555 73 5 0 0 0 - - -;
#X floatatom 605 73 5 0 0 0 - - -;
#X text 471 25 "ALD" enveloppe;
#X obj 504 49 inlet;
#X obj 555 48 inlet;
#X obj 605 48 inlet;
#X obj 408 52 inlet;
#X obj 379 432 outlet~;
#X text 633 133 ENVELOPE SECTION;
#X obj 379 346 vline~;
#X msg 352 245 1;
#X obj 352 265 pack f f;
#X obj 352 286 unpack f f;
#X msg 456 246 0;
#X obj 456 267 pack f f f;
#X obj 456 288 unpack f f f;
#X obj 456 225 delay 5;
#X text 102 283 Attack : sends a 1 to get to in A msec;
#X text 529 224 wait the end of the attack;
#X text 538 254 Length+Decay : 0 to get to in D msec \, after L msec
;
#X text 493 74 A;
#X text 544 74 L;
#X text 594 74 D;
#X connect 0 0 12 0;
#X connect 0 0 18 0;
#X connect 1 0 13 1;
#X connect 1 0 18 1;
#X connect 2 0 16 2;
#X connect 3 0 16 1;
#X connect 5 0 1 0;
#X connect 6 0 2 0;
#X connect 7 0 3 0;
#X connect 8 0 0 0;
#X connect 11 0 9 0;
#X connect 12 0 13 0;
#X connect 13 0 14 0;
#X connect 14 0 11 0;
#X connect 14 1 11 1;
#X connect 15 0 16 0;
#X connect 16 0 17 0;
#X connect 17 0 11 0;
#X connect 17 1 11 1;
#X connect 17 2 11 2;
#X connect 18 0 15 0;
#X restore 133 -17 pd eald~;
#X msg -153 408 50;
#X obj -242 428 + 0.05;
#X floatatom -91 -132 5 0 0 0 - - -;
#X floatatom -38 -133 5 0 0 0 - - -;
#X floatatom 13 -134 5 0 0 0 - - -;
#X floatatom 63 -134 5 0 0 0 - - -;
#X obj -90 -109 * 1;
#X obj -37 -110 * 1;
#X obj 14 -111 * 1;
#X obj 64 -111 * 1;
#X obj -401 -99 mtof;
#X obj 289 9 vradio 15 1 0 23 empty empty empty 0 -8 0 10 -262144 -1
-1 0;
#X obj -409 -171 inlet;
#X obj -363 -173 inlet;
#X obj -91 -157 inlet;
#X obj -38 -158 inlet;
#X obj 13 -159 inlet;
#X obj 66 -160 inlet;
#X obj 129 -159 inlet;
#X obj 180 -160 inlet;
#X obj 230 -160 inlet;
#X obj 181 -112 * 1;
#X obj 231 -112 * 1;
#X obj -265 489 outlet~;
#X obj 7 49 hsl 128 15 0 1500 0 0 empty empty empty -2 -6 0 8 -262144
-1 -1 2540 1;
#X obj 8 94 hsl 128 15 0 127 0 0 empty empty empty -2 -6 0 8 -262144
-1 -1 0 1;
#X connect 0 0 4 0;
#X connect 1 0 6 0;
#X connect 2 0 7 0;
#X connect 3 0 23 0;
#X connect 3 0 21 0;
#X connect 3 0 20 0;
#X connect 3 0 24 0;
#X connect 3 0 22 0;
#X connect 4 0 16 3;
#X connect 5 0 16 3;
#X connect 6 0 16 3;
#X connect 7 0 16 3;
#X connect 8 0 16 2;
#X connect 16 0 57 0;
#X connect 17 0 16 3;
#X connect 20 0 90 0;
#X connect 21 0 16 1;
#X connect 22 0 1 0;
#X connect 23 0 0 0;
#X connect 24 0 2 0;
#X connect 47 0 50 0;
#X connect 48 0 50 1;
#X connect 50 0 76 0;
#X connect 50 0 54 0;
#X connect 50 1 59 0;
#X connect 51 0 63 0;
#X connect 52 0 87 0;
#X connect 53 0 88 0;
#X connect 54 0 65 0;
#X connect 54 0 66 0;
#X connect 55 0 65 2;
#X connect 56 0 65 3;
#X connect 57 0 58 0;
#X connect 58 0 89 0;
#X connect 59 0 67 0;
#X connect 60 0 58 1;
#X connect 61 0 60 1;
#X connect 63 0 64 0;
#X connect 64 0 65 1;
#X connect 65 0 57 1;
#X connect 66 0 61 0;
#X connect 67 0 60 0;
#X connect 68 0 72 0;
#X connect 69 0 73 0;
#X connect 70 0 74 0;
#X connect 71 0 75 0;
#X connect 72 0 91 0;
#X connect 73 0 0 0;
#X connect 74 0 1 0;
#X connect 75 0 2 0;
#X connect 76 0 90 0;
#X connect 77 0 18 0;
#X connect 77 0 17 0;
#X connect 78 0 47 0;
#X connect 79 0 48 0;
#X connect 80 0 68 0;
#X connect 81 0 69 0;
#X connect 82 0 70 0;
#X connect 83 0 71 0;
#X connect 84 0 51 0;
#X connect 85 0 52 0;
#X connect 86 0 53 0;
#X connect 87 0 55 0;
#X connect 88 0 56 0;
#X connect 90 0 8 0;
#X connect 91 0 5 0;
#X coords 0 1 100 -1 470 360 1 0 0;
#X restore 63 204 graph;
#X obj 8 147 notein;
#X floatatom 63 188 5 0 0 0 - - -;
#X floatatom 95 188 5 0 0 0 - - -;
#X floatatom 204 155 5 0 0 0 - - -;
#X floatatom 247 155 5 0 0 0 - - -;
#X floatatom 292 155 5 0 0 0 - - -;
#X floatatom 336 155 5 0 0 0 - - -;
#X floatatom 415 155 5 0 0 0 - - -;
#X floatatom 458 155 5 0 0 0 - - -;
#X floatatom 501 155 5 0 0 0 - - -;
#X floatatom 458 188 5 0 0 0 - - -;
#X floatatom 501 188 5 0 0 0 - - -;
#X obj 458 171 * 10;
#X obj 415 171 * 1;
#X floatatom 415 188 5 0 0 0 - - -;
#X obj 501 171 * 10;
#X floatatom 204 188 5 0 0 0 - - -;
#X floatatom 247 188 5 0 0 0 - - -;
#X floatatom 292 188 5 0 0 0 - - -;
#X floatatom 336 188 5 0 0 0 - - -;
#N canvas 0 22 450 300 (subpatch) 0;
#X obj -30 22 spigot;
#X obj 2 3 tgl 15 0 empty empty empty 17 7 0 10 -262144 -1 -1 0 1;
#X obj -58 0 inlet;
#X obj -54 54 outlet;
#X connect 0 0 3 0;
#X connect 1 0 0 1;
#X connect 2 0 0 0;
#X coords 0 1 100 -1 20 20 1 0 0;
#X restore 63 146 graph;
#N canvas 0 22 450 300 (subpatch) 0;
#X obj -30 22 spigot;
#X obj 2 3 tgl 15 0 empty empty empty 17 7 0 10 -262144 -1 -1 0 1;
#X obj -58 0 inlet;
#X obj -54 54 outlet;
#X connect 0 0 3 0;
#X connect 1 0 0 1;
#X connect 2 0 0 0;
#X coords 0 1 100 -1 20 20 1 0 0;
#X restore 95 146 graph;
#N canvas 0 22 450 300 (subpatch) 0;
#X obj -30 22 spigot;
#X obj 2 3 tgl 15 0 empty empty empty 17 7 0 10 -262144 -1 -1 0 1;
#X obj -58 0 inlet;
#X obj -54 54 outlet;
#X connect 0 0 3 0;
#X connect 1 0 0 1;
#X connect 2 0 0 0;
#X coords 0 1 100 -1 20 20 1 0 0;
#X restore 8 168 graph;
#N canvas 0 22 450 300 (subpatch) 0;
#X obj -30 22 spigot;
#X obj 2 3 tgl 15 0 empty empty empty 17 7 0 10 -262144 -1 -1 0 1;
#X obj -58 0 inlet;
#X obj -54 54 outlet;
#X connect 0 0 3 0;
#X connect 1 0 0 1;
#X connect 2 0 0 0;
#X coords 0 1 100 -1 20 20 1 0 0;
#X restore 28 168 graph;
#X obj 63 84 r noteBanded;
#X obj 95 104 r velBanded;
#X obj 501 126 knob 25 25 0 127 0 0 empty empty empty 0 -8 32 8 -1
-260097 -260097 0 1;
#X obj 458 126 knob 25 25 0 127 0 0 empty empty empty 0 -8 32 8 -1
-260097 -260097 0 1;
#X obj 415 126 knob 25 25 0 127 0 0 empty empty empty 0 -8 32 8 -1
-260097 -260097 0 1;
#X obj 336 126 knob 25 25 0 127 0 0 empty empty empty 0 -8 32 8 -1
-260097 -260097 0 1;
#X obj 292 126 knob 25 25 0 127 0 0 empty empty empty 0 -8 32 8 -1
-260097 -260097 0 1;
#X obj 247 126 knob 25 25 0 127 0 0 empty empty empty 0 -8 32 8 -1
-260097 -260097 0 1;
#X obj 204 126 knob 25 25 0 127 0 0 empty empty empty 0 -8 32 8 -1
-260097 -260097 0 1;
#N canvas 0 22 450 300 (subpatch) 0;
#X obj -30 22 spigot;
#X obj 2 3 tgl 15 0 empty empty empty 17 7 0 10 -262144 -1 -1 0 1;
#X obj -58 0 inlet;
#X obj -54 54 outlet;
#X connect 0 0 3 0;
#X connect 1 0 0 1;
#X connect 2 0 0 0;
#X coords 0 1 100 -1 20 20 1 0 0;
#X restore 204 103 graph;
#N canvas 0 22 450 300 (subpatch) 0;
#X obj -30 22 spigot;
#X obj 2 3 tgl 15 0 empty empty empty 17 7 0 10 -262144 -1 -1 0 1;
#X obj -58 0 inlet;
#X obj -54 54 outlet;
#X connect 0 0 3 0;
#X connect 1 0 0 1;
#X connect 2 0 0 0;
#X coords 0 1 100 -1 20 20 1 0 0;
#X restore 247 103 graph;
#N canvas 0 22 450 300 (subpatch) 0;
#X obj -30 22 spigot;
#X obj 2 3 tgl 15 0 empty empty empty 17 7 0 10 -262144 -1 -1 0 1;
#X obj -58 0 inlet;
#X obj -54 54 outlet;
#X connect 0 0 3 0;
#X connect 1 0 0 1;
#X connect 2 0 0 0;
#X coords 0 1 100 -1 20 20 1 0 0;
#X restore 501 103 graph;
#N canvas 0 22 450 300 (subpatch) 0;
#X obj -30 22 spigot;
#X obj 2 3 tgl 15 0 empty empty empty 17 7 0 10 -262144 -1 -1 0 1;
#X obj -58 0 inlet;
#X obj -54 54 outlet;
#X connect 0 0 3 0;
#X connect 1 0 0 1;
#X connect 2 0 0 0;
#X coords 0 1 100 -1 20 20 1 0 0;
#X restore 292 103 graph;
#N canvas 0 22 450 300 (subpatch) 0;
#X obj -30 22 spigot;
#X obj 2 3 tgl 15 0 empty empty empty 17 7 0 10 -262144 -1 -1 0 1;
#X obj -58 0 inlet;
#X obj -54 54 outlet;
#X connect 0 0 3 0;
#X connect 1 0 0 1;
#X connect 2 0 0 0;
#X coords 0 1 100 -1 20 20 1 0 0;
#X restore 336 103 graph;
#N canvas 0 22 450 300 (subpatch) 0;
#X obj -30 22 spigot;
#X obj 2 3 tgl 15 0 empty empty empty 17 7 0 10 -262144 -1 -1 0 1;
#X obj -58 0 inlet;
#X obj -54 54 outlet;
#X connect 0 0 3 0;
#X connect 1 0 0 1;
#X connect 2 0 0 0;
#X coords 0 1 100 -1 20 20 1 0 0;
#X restore 415 103 graph;
#N canvas 0 22 450 300 (subpatch) 0;
#X obj -30 22 spigot;
#X obj 2 3 tgl 15 0 empty empty empty 17 7 0 10 -262144 -1 -1 0 1;
#X obj -58 0 inlet;
#X obj -54 54 outlet;
#X connect 0 0 3 0;
#X connect 1 0 0 1;
#X connect 2 0 0 0;
#X coords 0 1 100 -1 20 20 1 0 0;
#X restore 458 103 graph;
#X obj 501 86 ctlin 8;
#X obj 458 64 ctlin 7;
#X obj 415 44 ctlin 6;
#X obj 336 25 ctlin 4;
#X obj 292 5 ctlin 3;
#X obj 247 -15 ctlin 2;
#X obj 204 -36 ctlin 1;
#X text 261 -35 Shake Energy;
#X text 296 -15 Resonance Frequency;
#X text 342 5 Number of objects;
#X text 386 26 System Decay;
#X text 463 43 A;
#X text 510 65 L;
#X text 552 87 D;
#N canvas 0 22 450 300 (subpatch) 0;
#X obj 59 155 inlet;
#X obj 3 89 inlet~;
#X obj 58 182 change;
#X msg 60 246 set \$1;
#X obj 60 227 tosymbol;
#X obj 59 204 sprintf Bus%d;
#X obj 3 282 throw~ Bus0;
#X obj 2 3 popup 124 25 #ffffff popup Bus0 Bus1 Bus2 Bus3 Bus4 Bus5
;
#X obj 1 32 route bang;
#X obj 154 202 *~;
#X obj 141 7 tgl 15 0 empty empty Dac 19 7 0 10 -262144 -1 -1 0 1;
#X obj 155 238 dac~;
#X obj 5 -53 loadbang;
#X text 63 -55 Bus0 mutes;
#X msg 5 -35 options Bus0 Bus1 Bus2 Bus3 Bus4 Bus5 Bus6 Bus7 Bus8 Bus9
Bus10 Bus11 Bus12 Bus13 Bus14 Bus15 Bus16;
#X connect 0 0 2 0;
#X connect 1 0 6 0;
#X connect 1 0 9 0;
#X connect 2 0 5 0;
#X connect 3 0 6 0;
#X connect 4 0 3 0;
#X connect 5 0 4 0;
#X connect 7 0 8 0;
#X connect 8 1 2 0;
#X connect 9 0 11 0;
#X connect 9 0 11 1;
#X connect 10 0 9 1;
#X connect 12 0 14 0;
#X connect 14 0 7 0;
#X coords 0 1 100 -1 180 30 1 0 0;
#X restore 63 564 graph;
#X obj 204 171 / 1;
#X obj 247 171 / 1;
#X obj 292 171 / 1;
#X obj 336 171 / 1;
#X obj 277 582 declare -path z_Percolate;
#X connect 0 0 55 0;
#X connect 1 0 23 0;
#X connect 1 1 24 0;
#X connect 2 0 0 0;
#X connect 3 0 0 1;
#X connect 4 0 56 0;
#X connect 5 0 57 0;
#X connect 6 0 58 0;
#X connect 7 0 59 0;
#X connect 8 0 14 0;
#X connect 9 0 13 0;
#X connect 10 0 16 0;
#X connect 11 0 0 7;
#X connect 12 0 0 8;
#X connect 13 0 11 0;
#X connect 14 0 15 0;
#X connect 15 0 0 6;
#X connect 16 0 12 0;
#X connect 17 0 0 2;
#X connect 18 0 0 3;
#X connect 19 0 0 4;
#X connect 20 0 0 5;
#X connect 21 0 2 0;
#X connect 22 0 3 0;
#X connect 23 0 2 0;
#X connect 24 0 3 0;
#X connect 25 0 21 0;
#X connect 26 0 22 0;
#X connect 27 0 10 0;
#X connect 28 0 9 0;
#X connect 29 0 8 0;
#X connect 30 0 7 0;
#X connect 31 0 6 0;
#X connect 32 0 5 0;
#X connect 33 0 4 0;
#X connect 34 0 33 0;
#X connect 35 0 32 0;
#X connect 36 0 27 0;
#X connect 37 0 31 0;
#X connect 38 0 30 0;
#X connect 39 0 29 0;
#X connect 40 0 28 0;
#X connect 41 0 36 0;
#X connect 42 0 40 0;
#X connect 43 0 39 0;
#X connect 44 0 38 0;
#X connect 45 0 37 0;
#X connect 46 0 35 0;
#X connect 47 0 34 0;
#X connect 56 0 17 0;
#X connect 57 0 18 0;
#X connect 58 0 19 0;
#X connect 59 0 20 0;
