#N canvas 24 22 986 725 10;
#X declare -path z_Percolate;
#N canvas 0 22 1009 705 (subpatch) 0;
#X obj 138 288 BandedWG~;
#X obj 163 21 hsl 128 15 0 127 0 0 empty empty empty -2 -6 0 8 -262144
-1 -1 0 1;
#X obj 163 58 hsl 128 15 0 127 0 0 empty empty empty -2 -6 0 8 -262144
-1 -1 0 1;
#X obj 162 94 hsl 128 15 0 127 0 0 empty empty empty -2 -6 0 8 -262144
-1 -1 0 1;
#X obj 163 131 hsl 128 15 0 127 0 0 empty empty empty -2 -6 0 8 -262144
-1 -1 0 1;
#X obj 163 166 hsl 128 15 0 128 0 0 empty empty empty -2 -6 0 8 -262144
-1 -1 0 1;
#X obj 613 309 loadbang;
#X obj 5 5 bng 20 250 50 0 empty empty empty 0 -6 0 8 -262144 -1 -1
;
#X text 14 212 noteOn \, amp;
#X msg 715 204 \; pd dsp 1;
#X msg 715 228 \; pd dsp 0;
#X msg 317 36 stkCtrl 1 \$1;
#X text 159 2 Gain;
#X text 160 41 Bow Pressure;
#X text 160 76 Bow Motion;
#X msg 318 73 stkCtrl 2 \$1;
#X msg 318 109 stkCtrl 4 \$1;
#X msg 315 146 stkCtrl 11 \$1;
#X msg -198 295 stkCtrl 16 \$1;
#X msg 313 181 stkCtrl 128 \$1;
#X obj 7 87 hradio 15 1 0 4 empty empty empty 0 -6 0 8 -262144 -1 -1
0;
#X floatatom 7 102 5 0 0 0 - - -;
#X text 6 120 0 Uniform Bar;
#X text 6 166 3 Tibetan bowl;
#X text 6 135 1 Tuned Bar;
#X text 6 151 2 Glass Harmonica;
#X text 158 149 Bow Velocity;
#X floatatom 116 152 5 0 0 0 - - -;
#X obj 116 20 vsl 15 128 0 1500 0 0 empty empty empty 0 -8 0 8 -262144
-1 -1 0 1;
#X text 4 200 CLICK TO PLAY;
#X text 159 113 Integration Constant;
#X msg 606 442 0;
#X obj 81 -117 stripnote;
#X floatatom 213 -197 5 0 0 0 - - -;
#X floatatom 416 -198 5 0 0 0 - - -;
#X floatatom 469 -199 5 0 0 0 - - -;
#X floatatom 520 -200 5 0 0 0 - - -;
#X floatatom 570 -200 5 0 0 0 - - -;
#X obj 21 -75 mtof;
#X text 99 1 Frequency;
#X obj 21 -55 * 2;
#X floatatom 772 -171 5 0 0 0 - - -;
#X floatatom 822 -172 5 0 0 0 - - -;
#X obj 107 425 *~;
#X obj 107 459 *~;
#X obj 134 440 line;
#X floatatom 179 418 5 0 0 0 - - -;
#X text 217 417 time offset to adjust volume to velocity;
#X floatatom 721 -171 5 0 0 0 - - -;
#N canvas 0 22 450 300 eald~ 0;
#X msg 394 133 bang;
#X floatatom 504 74 5 0 0 0 - - -;
#X floatatom 555 73 5 0 0 0 - - -;
#X floatatom 605 73 5 0 0 0 - - -;
#X text 471 25 "ALD" enveloppe;
#X obj 504 49 inlet;
#X obj 555 48 inlet;
#X obj 605 48 inlet;
#X obj 408 52 inlet;
#X obj 379 432 outlet~;
#X text 633 133 ENVELOPE SECTION;
#X obj 379 346 vline~;
#X msg 352 245 1;
#X obj 352 265 pack f f;
#X obj 352 286 unpack f f;
#X msg 456 246 0;
#X obj 456 267 pack f f f;
#X obj 456 288 unpack f f f;
#X obj 456 225 delay 5;
#X text 102 283 Attack : sends a 1 to get to in A msec;
#X text 529 224 wait the end of the attack;
#X text 538 254 Length+Decay : 0 to get to in D msec \, after L msec
;
#X text 493 74 A;
#X text 544 74 L;
#X text 594 74 D;
#X connect 0 0 12 0;
#X connect 0 0 18 0;
#X connect 1 0 13 1;
#X connect 1 0 18 1;
#X connect 2 0 16 2;
#X connect 3 0 16 1;
#X connect 5 0 1 0;
#X connect 6 0 2 0;
#X connect 7 0 3 0;
#X connect 8 0 0 0;
#X connect 11 0 9 0;
#X connect 12 0 13 0;
#X connect 13 0 14 0;
#X connect 14 0 11 0;
#X connect 14 1 11 1;
#X connect 15 0 16 0;
#X connect 16 0 17 0;
#X connect 17 0 11 0;
#X connect 17 1 11 1;
#X connect 17 2 11 2;
#X connect 18 0 15 0;
#X restore 94 381 pd eald~;
#X obj 222 380 loadbang;
#X obj 133 421 + 0.1;
#X obj 70 245 line;
#X obj 132 401 / 127;
#X obj 103 241 line;
#X obj 80 -157 inlet;
#X obj 124 -154 inlet;
#X obj 213 -222 inlet;
#X obj 416 -223 inlet;
#X obj 469 -224 inlet;
#X obj 520 -225 inlet;
#X obj 570 -225 inlet;
#X obj 720 -240 inlet;
#X obj 771 -241 inlet;
#X obj 821 -241 inlet;
#X text 5 71 Presets;
#X msg 222 401 150;
#X text 161 57 set to 0 for "strike";
#X text 163 92 if Bow Pressure != 0;
#X obj 106 495 outlet~;
#X connect 0 0 43 0;
#X connect 1 0 11 0;
#X connect 2 0 15 0;
#X connect 3 0 16 0;
#X connect 4 0 17 0;
#X connect 5 0 19 0;
#X connect 6 0 31 0;
#X connect 7 0 49 0;
#X connect 7 0 66 0;
#X connect 11 0 0 3;
#X connect 15 0 0 3;
#X connect 16 0 0 3;
#X connect 17 0 0 3;
#X connect 18 0 0 3;
#X connect 19 0 0 3;
#X connect 20 0 18 0;
#X connect 20 0 21 0;
#X connect 27 0 52 0;
#X connect 28 0 27 0;
#X connect 31 0 0 1;
#X connect 32 0 38 0;
#X connect 32 0 7 0;
#X connect 32 1 53 0;
#X connect 32 1 54 0;
#X connect 33 0 1 0;
#X connect 34 0 2 0;
#X connect 35 0 3 0;
#X connect 36 0 4 0;
#X connect 37 0 5 0;
#X connect 38 0 40 0;
#X connect 40 0 28 0;
#X connect 41 0 49 2;
#X connect 42 0 49 3;
#X connect 43 0 44 0;
#X connect 44 0 69 0;
#X connect 45 0 44 1;
#X connect 46 0 45 1;
#X connect 48 0 49 1;
#X connect 49 0 43 1;
#X connect 50 0 66 0;
#X connect 51 0 45 0;
#X connect 52 0 0 2;
#X connect 53 0 51 0;
#X connect 54 0 0 1;
#X connect 55 0 32 0;
#X connect 56 0 32 1;
#X connect 57 0 33 0;
#X connect 58 0 34 0;
#X connect 59 0 35 0;
#X connect 60 0 36 0;
#X connect 61 0 37 0;
#X connect 62 0 48 0;
#X connect 63 0 41 0;
#X connect 64 0 42 0;
#X connect 66 0 46 0;
#X connect 66 0 52 1;
#X connect 66 0 54 1;
#X coords 0 1 100 -1 300 190 1 0 0;
#X restore 203 177 graph;
#X obj 148 120 notein;
#X floatatom 203 161 5 0 0 0 - - -;
#X floatatom 235 161 5 0 0 0 - - -;
#X floatatom 282 128 5 0 0 0 - - -;
#X floatatom 325 128 5 0 0 0 - - -;
#X floatatom 370 128 5 0 0 0 - - -;
#X floatatom 414 128 5 0 0 0 - - -;
#X floatatom 458 128 5 0 0 0 - - -;
#X floatatom 501 128 5 0 0 0 - - -;
#X floatatom 544 128 5 0 0 0 - - -;
#X floatatom 587 128 5 0 0 0 - - -;
#X floatatom 544 161 5 0 0 0 - - -;
#X floatatom 587 161 5 0 0 0 - - -;
#X obj 544 144 * 10;
#X obj 501 144 * 1;
#X floatatom 501 161 5 0 0 0 - - -;
#X obj 587 144 * 10;
#X floatatom 282 161 5 0 0 0 - - -;
#X floatatom 325 161 5 0 0 0 - - -;
#X floatatom 370 161 5 0 0 0 - - -;
#X floatatom 414 161 5 0 0 0 - - -;
#X floatatom 458 161 5 0 0 0 - - -;
#N canvas 0 22 450 300 (subpatch) 0;
#X obj -30 22 spigot;
#X obj 2 3 tgl 15 0 empty empty empty 17 7 0 10 -262144 -1 -1 0 1;
#X obj -58 0 inlet;
#X obj -54 54 outlet;
#X connect 0 0 3 0;
#X connect 1 0 0 1;
#X connect 2 0 0 0;
#X coords 0 1 100 -1 20 20 1 0 0;
#X restore 203 119 graph;
#N canvas 0 22 450 300 (subpatch) 0;
#X obj -30 22 spigot;
#X obj 2 3 tgl 15 0 empty empty empty 17 7 0 10 -262144 -1 -1 0 1;
#X obj -58 0 inlet;
#X obj -54 54 outlet;
#X connect 0 0 3 0;
#X connect 1 0 0 1;
#X connect 2 0 0 0;
#X coords 0 1 100 -1 20 20 1 0 0;
#X restore 235 119 graph;
#N canvas 0 22 450 300 (subpatch) 0;
#X obj -30 22 spigot;
#X obj 2 3 tgl 15 0 empty empty empty 17 7 0 10 -262144 -1 -1 0 1;
#X obj -58 0 inlet;
#X obj -54 54 outlet;
#X connect 0 0 3 0;
#X connect 1 0 0 1;
#X connect 2 0 0 0;
#X coords 0 1 100 -1 20 20 1 0 0;
#X restore 148 141 graph;
#N canvas 0 22 450 300 (subpatch) 0;
#X obj -30 22 spigot;
#X obj 2 3 tgl 15 0 empty empty empty 17 7 0 10 -262144 -1 -1 0 1;
#X obj -58 0 inlet;
#X obj -54 54 outlet;
#X connect 0 0 3 0;
#X connect 1 0 0 1;
#X connect 2 0 0 0;
#X coords 0 1 100 -1 20 20 1 0 0;
#X restore 168 141 graph;
#X obj 203 -125 r noteBanded;
#X obj 235 -105 r velBanded;
#X obj 587 99 knob 25 25 0 127 0 0 empty empty empty 0 -8 32 8 -1 -260097
-260097 0 1;
#X obj 544 99 knob 25 25 0 127 0 0 empty empty empty 0 -8 32 8 -1 -260097
-260097 0 1;
#X obj 501 99 knob 25 25 0 127 0 0 empty empty empty 0 -8 32 8 -1 -260097
-260097 0 1;
#X obj 458 99 knob 25 25 0 127 0 0 empty empty empty 0 -8 32 8 -1 -260097
-260097 0 1;
#X obj 414 99 knob 25 25 0 127 0 0 empty empty empty 0 -8 32 8 -1 -260097
-260097 0 1;
#X obj 370 99 knob 25 25 0 127 0 0 empty empty empty 0 -8 32 8 -1 -260097
-260097 0 1;
#X obj 325 99 knob 25 25 0 127 0 0 empty empty empty 0 -8 32 8 -1 -260097
-260097 0 1;
#X obj 282 99 knob 25 25 0 127 0 0 empty empty empty 0 -8 32 8 -1 -260097
-260097 0 1;
#N canvas 0 22 450 300 (subpatch) 0;
#X obj -30 22 spigot;
#X obj 2 3 tgl 15 0 empty empty empty 17 7 0 10 -262144 -1 -1 0 1;
#X obj -58 0 inlet;
#X obj -54 54 outlet;
#X connect 0 0 3 0;
#X connect 1 0 0 1;
#X connect 2 0 0 0;
#X coords 0 1 100 -1 20 20 1 0 0;
#X restore 282 76 graph;
#N canvas 0 22 450 300 (subpatch) 0;
#X obj -30 22 spigot;
#X obj 2 3 tgl 15 0 empty empty empty 17 7 0 10 -262144 -1 -1 0 1;
#X obj -58 0 inlet;
#X obj -54 54 outlet;
#X connect 0 0 3 0;
#X connect 1 0 0 1;
#X connect 2 0 0 0;
#X coords 0 1 100 -1 20 20 1 0 0;
#X restore 325 76 graph;
#N canvas 0 22 450 300 (subpatch) 0;
#X obj -30 22 spigot;
#X obj 2 3 tgl 15 0 empty empty empty 17 7 0 10 -262144 -1 -1 0 1;
#X obj -58 0 inlet;
#X obj -54 54 outlet;
#X connect 0 0 3 0;
#X connect 1 0 0 1;
#X connect 2 0 0 0;
#X coords 0 1 100 -1 20 20 1 0 0;
#X restore 587 76 graph;
#N canvas 0 22 450 300 (subpatch) 0;
#X obj -30 22 spigot;
#X obj 2 3 tgl 15 0 empty empty empty 17 7 0 10 -262144 -1 -1 0 1;
#X obj -58 0 inlet;
#X obj -54 54 outlet;
#X connect 0 0 3 0;
#X connect 1 0 0 1;
#X connect 2 0 0 0;
#X coords 0 1 100 -1 20 20 1 0 0;
#X restore 370 76 graph;
#N canvas 0 22 450 300 (subpatch) 0;
#X obj -30 22 spigot;
#X obj 2 3 tgl 15 0 empty empty empty 17 7 0 10 -262144 -1 -1 0 1;
#X obj -58 0 inlet;
#X obj -54 54 outlet;
#X connect 0 0 3 0;
#X connect 1 0 0 1;
#X connect 2 0 0 0;
#X coords 0 1 100 -1 20 20 1 0 0;
#X restore 414 76 graph;
#N canvas 0 22 450 300 (subpatch) 0;
#X obj -30 22 spigot;
#X obj 2 3 tgl 15 0 empty empty empty 17 7 0 10 -262144 -1 -1 0 1;
#X obj -58 0 inlet;
#X obj -54 54 outlet;
#X connect 0 0 3 0;
#X connect 1 0 0 1;
#X connect 2 0 0 0;
#X coords 0 1 100 -1 20 20 1 0 0;
#X restore 458 76 graph;
#N canvas 0 22 450 300 (subpatch) 0;
#X obj -30 22 spigot;
#X obj 2 3 tgl 15 0 empty empty empty 17 7 0 10 -262144 -1 -1 0 1;
#X obj -58 0 inlet;
#X obj -54 54 outlet;
#X connect 0 0 3 0;
#X connect 1 0 0 1;
#X connect 2 0 0 0;
#X coords 0 1 100 -1 20 20 1 0 0;
#X restore 501 76 graph;
#N canvas 0 22 450 300 (subpatch) 0;
#X obj -30 22 spigot;
#X obj 2 3 tgl 15 0 empty empty empty 17 7 0 10 -262144 -1 -1 0 1;
#X obj -58 0 inlet;
#X obj -54 54 outlet;
#X connect 0 0 3 0;
#X connect 1 0 0 1;
#X connect 2 0 0 0;
#X coords 0 1 100 -1 20 20 1 0 0;
#X restore 544 76 graph;
#X obj 587 59 ctlin 8;
#X obj 544 37 ctlin 7;
#X obj 501 17 ctlin 6;
#X obj 458 -3 ctlin 5;
#X obj 414 -24 ctlin 4;
#X obj 370 -44 ctlin 3;
#X obj 325 -64 ctlin 2;
#X obj 282 -85 ctlin 1;
#N canvas 0 22 450 300 (subpatch) 0;
#X obj 59 155 inlet;
#X obj 3 89 inlet~;
#X obj 58 182 change;
#X msg 60 246 set \$1;
#X obj 60 227 tosymbol;
#X obj 59 204 sprintf Bus%d;
#X obj 3 282 throw~ Bus0;
#X obj 2 3 popup 124 25 #ffffff popup Bus0 Bus1 Bus2 Bus3 Bus4 Bus5
;
#X obj 1 32 route bang;
#X obj 154 202 *~;
#X obj 141 7 tgl 15 0 empty empty Dac 19 7 0 10 -262144 -1 -1 0 1;
#X obj 155 238 dac~;
#X obj 1 -41 loadbang;
#X text 59 -43 Bus0 mutes;
#X msg 1 -23 options Bus0 Bus1 Bus2 Bus3 Bus4 Bus5 Bus6 Bus7 Bus8 Bus9
Bus10 Bus11 Bus12 Bus13 Bus14 Bus15 Bus16;
#X connect 0 0 2 0;
#X connect 1 0 6 0;
#X connect 1 0 9 0;
#X connect 2 0 5 0;
#X connect 3 0 6 0;
#X connect 4 0 3 0;
#X connect 5 0 4 0;
#X connect 7 0 8 0;
#X connect 8 1 2 0;
#X connect 9 0 11 0;
#X connect 9 0 11 1;
#X connect 10 0 9 1;
#X connect 12 0 14 0;
#X connect 14 0 7 0;
#X coords 0 1 100 -1 180 30 1 0 0;
#X restore 203 367 graph;
#X obj 282 144 / 1;
#X obj 325 144 / 1;
#X obj 370 144 / 1;
#X obj 414 144 / 1;
#X obj 458 144 / 1;
#X obj 415 374 declare -path z_Percolate;
#X connect 0 0 53 0;
#X connect 1 0 25 0;
#X connect 1 1 26 0;
#X connect 2 0 0 0;
#X connect 3 0 0 1;
#X connect 4 0 54 0;
#X connect 5 0 55 0;
#X connect 6 0 56 0;
#X connect 7 0 57 0;
#X connect 8 0 58 0;
#X connect 9 0 15 0;
#X connect 10 0 14 0;
#X connect 11 0 17 0;
#X connect 12 0 0 8;
#X connect 13 0 0 9;
#X connect 14 0 12 0;
#X connect 15 0 16 0;
#X connect 16 0 0 7;
#X connect 17 0 13 0;
#X connect 18 0 0 2;
#X connect 19 0 0 3;
#X connect 20 0 0 4;
#X connect 21 0 0 5;
#X connect 22 0 0 6;
#X connect 23 0 2 0;
#X connect 24 0 3 0;
#X connect 25 0 2 0;
#X connect 26 0 3 0;
#X connect 27 0 23 0;
#X connect 28 0 24 0;
#X connect 29 0 11 0;
#X connect 30 0 10 0;
#X connect 31 0 9 0;
#X connect 32 0 8 0;
#X connect 33 0 7 0;
#X connect 34 0 6 0;
#X connect 35 0 5 0;
#X connect 36 0 4 0;
#X connect 37 0 36 0;
#X connect 38 0 35 0;
#X connect 39 0 29 0;
#X connect 40 0 34 0;
#X connect 41 0 33 0;
#X connect 42 0 32 0;
#X connect 43 0 31 0;
#X connect 44 0 30 0;
#X connect 45 0 39 0;
#X connect 46 0 44 0;
#X connect 47 0 43 0;
#X connect 48 0 42 0;
#X connect 49 0 41 0;
#X connect 50 0 40 0;
#X connect 51 0 38 0;
#X connect 52 0 37 0;
#X connect 54 0 18 0;
#X connect 55 0 19 0;
#X connect 56 0 20 0;
#X connect 57 0 21 0;
#X connect 58 0 22 0;
