#N canvas 0 22 1009 720 10;
#X declare -path z_Percolate;
#X obj 369 183 hsl 128 15 0 127 0 0 empty empty empty -2 -6 0 8 -262144
-1 -1 1500 1;
#X text 392 361 comment;
#X obj 371 238 hsl 128 15 0 127 0 0 empty empty empty -2 -6 0 8 -262144
-1 -1 4800 1;
#X obj 369 297 hsl 128 15 0 127 0 0 empty empty empty -2 -6 0 8 -262144
-1 -1 1000 1;
#X obj 370 362 hsl 128 15 0 127 0 0 empty empty empty -2 -6 0 8 -262144
-1 -1 9000 1;
#X obj 370 422 hsl 128 15 0 127 0 0 empty empty empty -2 -6 0 8 -262144
-1 -1 1000 1;
#X obj 195 124 loadbang;
#X obj 54 419 bng 15 250 50 0 empty empty empty 0 -6 0 8 -262144 -1
-1;
#X text 23 397 noteOn \, amp;
#X msg 54 468 127;
#X msg 659 51 \; pd dsp 1;
#X msg 660 87 \; pd dsp 0;
#X msg 366 206 stkCtrl 1 \$1;
#X msg 368 266 stkCtrl 2 \$1;
#X msg 366 325 stkCtrl 4 \$1;
#X msg 367 390 stkCtrl 11 \$1;
#X msg 367 450 stkCtrl 128 \$1;
#X floatatom 120 403 5 0 0 0 - - -;
#X obj 120 256 vsl 15 128 0 1500 0 0 empty empty empty 0 -8 0 8 -262144
-1 -1 1863 1;
#X text 137 242 Frequency;
#X obj 33 539 BeeThree~;
#X msg 20 467 0;
#X text 508 183 LFO Depth;
#X text 510 240 Feedback Gain;
#X text -194 59 4 - operator FM topology;
#X text -198 77 "Algorithm 8 of TX81Z";
#X text -195 43 Hammond-oid Organ FM Synth;
#X text 512 298 Operator 3 Gain;
#X text 516 357 LFO Speed;
#X text 515 421 ADSR 2 & 4 Target;
#X msg 244 156 15;
#X msg 243 183 48;
#X msg 243 214 10;
#X msg 244 248 90;
#X msg 246 280 10;
#X msg 120 222 220;
#X obj -175 140 notein;
#X floatatom -175 164 5 0 0 0 - - -;
#X floatatom -133 163 5 0 0 0 - - -;
#X floatatom -90 163 5 0 0 0 - - -;
#X obj -175 187 stripnote;
#X floatatom -149 493 5 0 0 0 - - -;
#X floatatom -98 492 5 0 0 0 - - -;
#X floatatom -48 492 5 0 0 0 - - -;
#X obj -149 464 ctlin 6;
#X obj -98 463 ctlin 7;
#X obj -48 463 ctlin 8;
#X obj -175 550 bng 15 250 50 0 empty empty empty 17 7 0 10 -262144
-1 -1;
#X floatatom -97 537 5 0 0 0 - - -;
#X floatatom -47 536 5 0 0 0 - - -;
#X obj -132 654 *~;
#X obj -97 515 * 10;
#X obj -132 688 *~;
#X obj -107 630 / 100;
#X obj -105 669 line;
#X floatatom -60 647 5 0 0 0 - - -;
#X text -22 646 time offset to adjust volume to velocity;
#X obj -148 516 * 1;
#X floatatom -148 537 5 0 0 0 - - -;
#N canvas 0 22 450 300 eald~ 0;
#X msg 394 133 bang;
#X floatatom 504 74 5 0 0 0 - - -;
#X floatatom 555 73 5 0 0 0 - - -;
#X floatatom 605 73 5 0 0 0 - - -;
#X text 471 25 "ALD" enveloppe;
#X obj 504 49 inlet;
#X obj 555 48 inlet;
#X obj 605 48 inlet;
#X obj 408 52 inlet;
#X obj 379 432 outlet~;
#X text 633 133 ENVELOPE SECTION;
#X obj 379 346 vline~;
#X msg 352 245 1;
#X obj 352 265 pack f f;
#X obj 352 286 unpack f f;
#X msg 456 246 0;
#X obj 456 267 pack f f f;
#X obj 456 288 unpack f f f;
#X obj 456 225 delay 5;
#X text 102 283 Attack : sends a 1 to get to in A msec;
#X text 529 224 wait the end of the attack;
#X text 538 254 Length+Decay : 0 to get to in D msec \, after L msec
;
#X text 493 74 A;
#X text 544 74 L;
#X text 594 74 D;
#X connect 0 0 12 0;
#X connect 0 0 18 0;
#X connect 1 0 13 1;
#X connect 1 0 18 1;
#X connect 2 0 16 2;
#X connect 3 0 16 1;
#X connect 5 0 1 0;
#X connect 6 0 2 0;
#X connect 7 0 3 0;
#X connect 8 0 0 0;
#X connect 11 0 9 0;
#X connect 12 0 13 0;
#X connect 13 0 14 0;
#X connect 14 0 11 0;
#X connect 14 1 11 1;
#X connect 15 0 16 0;
#X connect 16 0 17 0;
#X connect 17 0 11 0;
#X connect 17 1 11 1;
#X connect 17 2 11 2;
#X connect 18 0 15 0;
#X restore -145 610 pd eald~;
#X obj -17 609 loadbang;
#X msg -17 630 50;
#X obj -47 515 * 10;
#X obj -106 650 + 0.05;
#X obj -167 237 mtof;
#X obj -132 709 throw~ all;
#X floatatom 561 94 5 0 0 0 - - -;
#X floatatom 352 97 5 0 0 0 - - -;
#X obj 352 72 ctlin 1;
#X floatatom 405 96 5 0 0 0 - - -;
#X floatatom 456 95 5 0 0 0 - - -;
#X floatatom 506 95 5 0 0 0 - - -;
#X obj 561 69 ctlin 5;
#X obj 405 71 ctlin 2;
#X obj 456 70 ctlin 3;
#X obj 506 70 ctlin 4;
#X obj 353 120 * 1;
#X obj 406 119 * 1;
#X obj 457 118 * 1;
#X obj 507 118 * 1;
#X obj 562 115 * 1;
#X obj 199 585 declare -path z_Percolate;
#X connect 0 0 12 0;
#X connect 2 0 13 0;
#X connect 3 0 14 0;
#X connect 4 0 15 0;
#X connect 5 0 16 0;
#X connect 6 0 30 0;
#X connect 6 0 31 0;
#X connect 6 0 34 0;
#X connect 6 0 32 0;
#X connect 6 0 33 0;
#X connect 6 0 35 0;
#X connect 7 0 9 0;
#X connect 9 0 20 1;
#X connect 12 0 20 3;
#X connect 13 0 20 3;
#X connect 14 0 20 3;
#X connect 15 0 20 3;
#X connect 16 0 20 3;
#X connect 17 0 20 2;
#X connect 18 0 17 0;
#X connect 20 0 50 0;
#X connect 21 0 20 1;
#X connect 30 0 0 0;
#X connect 31 0 2 0;
#X connect 32 0 3 0;
#X connect 33 0 4 0;
#X connect 34 0 5 0;
#X connect 35 0 18 0;
#X connect 36 0 37 0;
#X connect 36 1 38 0;
#X connect 36 2 39 0;
#X connect 37 0 40 0;
#X connect 38 0 40 1;
#X connect 40 0 47 0;
#X connect 40 0 64 0;
#X connect 40 1 53 0;
#X connect 41 0 57 0;
#X connect 42 0 51 0;
#X connect 43 0 62 0;
#X connect 44 0 41 0;
#X connect 45 0 42 0;
#X connect 46 0 43 0;
#X connect 47 0 59 0;
#X connect 47 0 61 0;
#X connect 48 0 59 2;
#X connect 49 0 59 3;
#X connect 50 0 52 0;
#X connect 51 0 48 0;
#X connect 52 0 65 0;
#X connect 53 0 63 0;
#X connect 54 0 52 1;
#X connect 55 0 54 1;
#X connect 57 0 58 0;
#X connect 58 0 59 1;
#X connect 59 0 50 1;
#X connect 60 0 61 0;
#X connect 61 0 55 0;
#X connect 62 0 49 0;
#X connect 63 0 54 0;
#X connect 64 0 18 0;
#X connect 66 0 80 0;
#X connect 67 0 76 0;
#X connect 68 0 67 0;
#X connect 69 0 77 0;
#X connect 70 0 78 0;
#X connect 71 0 79 0;
#X connect 72 0 66 0;
#X connect 73 0 69 0;
#X connect 74 0 70 0;
#X connect 75 0 71 0;
#X connect 76 0 0 0;
#X connect 77 0 2 0;
#X connect 78 0 3 0;
#X connect 79 0 4 0;
#X connect 80 0 5 0;
