#N canvas 42 47 982 721 10;
#X declare -path z_Percolate;
#X obj 342 259 hsl 128 15 0 127 0 0 empty empty empty -2 -6 0 8 -262144
-1 -1 400 1;
#X text 365 437 comment;
#X obj 344 314 hsl 128 15 0 127 0 0 empty empty empty -2 -6 0 8 -262144
-1 -1 7600 1;
#X obj 342 373 hsl 128 15 0 127 0 0 empty empty empty -2 -6 0 8 -262144
-1 -1 7000 1;
#X obj 343 438 hsl 128 15 0 127 0 0 empty empty empty -2 -6 0 8 -262144
-1 -1 3500 1;
#X obj 343 498 hsl 128 15 0 127 0 0 empty empty empty -2 -6 0 8 -262144
-1 -1 2000 1;
#X obj 364 179 loadbang;
#X msg 339 282 stkCtrl 1 \$1;
#X msg 341 342 stkCtrl 2 \$1;
#X msg 339 401 stkCtrl 4 \$1;
#X msg 340 466 stkCtrl 11 \$1;
#X msg 340 526 stkCtrl 128 \$1;
#X floatatom 82 450 5 0 0 0 - - -;
#X obj 82 303 vsl 15 128 0 1500 0 0 empty empty empty 0 -8 0 8 -262144
-1 -1 1863 1;
#X text 11 293 Frequency;
#X msg 302 409 35;
#X obj 83 511 line;
#X obj 82 484 pack 0 50;
#X floatatom 140 429 5 0 0 0 - - -;
#X text 133 405 gliss time;
#X msg 38 522 0;
#X obj -4 460 bng 15 250 50 0 empty empty empty 0 -6 0 8 -262144 -1
-1;
#X text -35 438 noteOn \, amp;
#X text -41 424 CLICK TO PLAY;
#X msg -3 510 100;
#X msg 308 258 4;
#X text 185 29 Rhodey~;
#X text 185 47 Fender Rhdoes-like FM instrument;
#X text 185 61 2 FM pairs summed;
#X text 186 76 Algorithm 5 of the TX81Z;
#X text 483 259 LFO Depth;
#X text 485 314 Modulator Index 1;
#X text 484 369 Crossfade of Outputs;
#X text 485 441 LFO Speed;
#X text 487 497 ADSR 2 & 4 Gain;
#X obj 32 586 Rhodey~;
#X msg 300 309 76;
#X msg 295 360 70;
#X msg 301 473 20;
#X msg 83 266 220;
#X obj 27 30 notein;
#X floatatom 27 54 5 0 0 0 - - -;
#X floatatom 69 53 5 0 0 0 - - -;
#X floatatom 112 53 5 0 0 0 - - -;
#X obj 27 77 stripnote;
#X floatatom 648 368 5 0 0 0 - - -;
#X floatatom 699 367 5 0 0 0 - - -;
#X floatatom 749 367 5 0 0 0 - - -;
#X obj 648 343 ctlin 6;
#X obj 699 342 ctlin 7;
#X obj 749 342 ctlin 8;
#X obj 637 460 bng 15 250 50 0 empty empty empty 17 7 0 10 -262144
-1 -1;
#X floatatom 701 414 5 0 0 0 - - -;
#X floatatom 750 411 5 0 0 0 - - -;
#X obj 168 633 *~;
#X obj 168 667 *~;
#X obj 193 609 / 100;
#X obj 195 648 line;
#X floatatom 240 626 5 0 0 0 - - -;
#X text 278 625 time offset to adjust volume to velocity;
#X obj 649 391 * 1;
#X floatatom 649 412 5 0 0 0 - - -;
#N canvas 0 22 450 300 eald~ 0;
#X msg 394 133 bang;
#X floatatom 504 74 5 0 0 0 - - -;
#X floatatom 555 73 5 0 0 0 - - -;
#X floatatom 605 73 5 0 0 0 - - -;
#X text 471 25 "ALD" enveloppe;
#X obj 504 49 inlet;
#X obj 555 48 inlet;
#X obj 605 48 inlet;
#X obj 408 52 inlet;
#X obj 379 432 outlet~;
#X text 633 133 ENVELOPE SECTION;
#X obj 379 346 vline~;
#X msg 352 245 1;
#X obj 352 265 pack f f;
#X obj 352 286 unpack f f;
#X msg 456 246 0;
#X obj 456 267 pack f f f;
#X obj 456 288 unpack f f f;
#X obj 456 225 delay 5;
#X text 102 283 Attack : sends a 1 to get to in A msec;
#X text 529 224 wait the end of the attack;
#X text 538 254 Length+Decay : 0 to get to in D msec \, after L msec
;
#X text 493 74 A;
#X text 544 74 L;
#X text 594 74 D;
#X connect 0 0 12 0;
#X connect 0 0 18 0;
#X connect 1 0 13 1;
#X connect 1 0 18 1;
#X connect 2 0 16 2;
#X connect 3 0 16 1;
#X connect 5 0 1 0;
#X connect 6 0 2 0;
#X connect 7 0 3 0;
#X connect 8 0 0 0;
#X connect 11 0 9 0;
#X connect 12 0 13 0;
#X connect 13 0 14 0;
#X connect 14 0 11 0;
#X connect 14 1 11 1;
#X connect 15 0 16 0;
#X connect 16 0 17 0;
#X connect 17 0 11 0;
#X connect 17 1 11 1;
#X connect 17 2 11 2;
#X connect 18 0 15 0;
#X restore 652 485 pd eald~;
#X obj 283 588 loadbang;
#X msg 283 609 50;
#X obj 750 390 * 10;
#X obj 194 629 + 0.05;
#X floatatom 442 126 5 0 0 0 - - -;
#X obj 442 101 ctlin 1;
#X floatatom 495 125 5 0 0 0 - - -;
#X floatatom 546 124 5 0 0 0 - - -;
#X floatatom 596 124 5 0 0 0 - - -;
#X obj 495 100 ctlin 2;
#X obj 546 99 ctlin 3;
#X obj 596 99 ctlin 4;
#X obj 443 149 * 1;
#X obj 496 148 * 1;
#X obj 547 147 * 1;
#X obj 597 147 * 1;
#X obj 35 102 mtof;
#X obj 700 390 * 20;
#X obj 171 690 throw~ all;
#X floatatom 645 124 5 0 0 0 - - -;
#X obj 645 99 ctlin 5;
#X obj 471 235 declare -path z_Percolate;
#X connect 0 0 7 0;
#X connect 2 0 8 0;
#X connect 3 0 9 0;
#X connect 4 0 10 0;
#X connect 5 0 11 0;
#X connect 6 0 25 0;
#X connect 6 0 36 0;
#X connect 6 0 39 0;
#X connect 6 0 38 0;
#X connect 6 0 15 0;
#X connect 6 0 37 0;
#X connect 6 0 20 0;
#X connect 7 0 35 3;
#X connect 8 0 35 3;
#X connect 9 0 35 3;
#X connect 10 0 35 3;
#X connect 11 0 35 3;
#X connect 12 0 17 0;
#X connect 13 0 12 0;
#X connect 15 0 4 0;
#X connect 16 0 35 2;
#X connect 17 0 16 0;
#X connect 18 0 17 1;
#X connect 20 0 35 1;
#X connect 21 0 24 0;
#X connect 24 0 35 1;
#X connect 25 0 0 0;
#X connect 35 0 54 0;
#X connect 36 0 2 0;
#X connect 37 0 3 0;
#X connect 38 0 5 0;
#X connect 39 0 13 0;
#X connect 40 0 41 0;
#X connect 40 1 42 0;
#X connect 40 2 43 0;
#X connect 41 0 44 0;
#X connect 42 0 44 1;
#X connect 44 0 79 0;
#X connect 44 0 51 0;
#X connect 44 0 21 0;
#X connect 44 1 56 0;
#X connect 45 0 60 0;
#X connect 46 0 80 0;
#X connect 47 0 65 0;
#X connect 48 0 45 0;
#X connect 49 0 46 0;
#X connect 50 0 47 0;
#X connect 51 0 62 0;
#X connect 51 0 64 0;
#X connect 52 0 62 2;
#X connect 52 0 18 0;
#X connect 53 0 62 3;
#X connect 54 0 55 0;
#X connect 55 0 81 0;
#X connect 56 0 66 0;
#X connect 57 0 55 1;
#X connect 58 0 57 1;
#X connect 60 0 61 0;
#X connect 61 0 62 1;
#X connect 62 0 54 1;
#X connect 63 0 64 0;
#X connect 64 0 58 0;
#X connect 65 0 53 0;
#X connect 66 0 57 0;
#X connect 67 0 75 0;
#X connect 68 0 67 0;
#X connect 69 0 76 0;
#X connect 70 0 77 0;
#X connect 71 0 78 0;
#X connect 72 0 69 0;
#X connect 73 0 70 0;
#X connect 74 0 71 0;
#X connect 75 0 0 0;
#X connect 76 0 2 0;
#X connect 77 0 3 0;
#X connect 78 0 4 0;
#X connect 79 0 13 0;
#X connect 80 0 52 0;
#X connect 82 0 5 0;
#X connect 83 0 82 0;
