#N canvas 0 22 743 524 10;
#X declare -path z_Percolate;
#N canvas 0 22 450 300 (subpatch) 0;
#X obj 95 43 hsl 128 15 0 127 0 0 empty empty empty -2 -6 0 8 -262144
-1 -1 200 1;
#X obj 95 79 hsl 128 15 0 127 0 0 empty empty empty -2 -6 0 8 -262144
-1 -1 10000 1;
#X obj 96 113 hsl 128 15 0 127 0 0 empty empty empty -2 -6 0 8 -262144
-1 -1 11000 1;
#X obj 313 -121 loadbang;
#X msg 702 2 stkCtrl 1 \$1;
#X msg 702 73 stkCtrl 4 \$1;
#X msg 703 131 stkCtrl 11 \$1;
#X floatatom 31 150 5 0 0 0 - - -;
#X obj 31 19 vsl 15 128 0 1500 0 0 empty empty empty 0 -8 0 8 -262144
-1 -1 3725 1;
#X msg 658 29 100;
#X obj 32 211 line;
#X obj 31 184 pack 0 50;
#X floatatom 68 150 5 0 0 0 - - -;
#X msg -13 222 0;
#X obj 6 18 bng 15 250 50 0 empty empty empty 0 -6 0 8 -262144 -1 -1
;
#X text -86 138 noteOn \, amp;
#X text -92 124 CLICK TO PLAY;
#X msg 32 -34 440;
#X text 135 -271 StifKarp~;
#X text 134 -253 Enhanced Karplus-Strong Plucked String;
#X text 236 43 String Stretch;
#X text 237 75 Pickup Position;
#X text 238 116 String Sustain;
#X obj -19 286 StifKarp~;
#X msg 671 -22 2;
#X msg 665 75 110;
#X msg -53 209 90;
#X floatatom 396 -261 5 0 0 0 - - -;
#X floatatom 447 -262 5 0 0 0 - - -;
#X floatatom 497 -262 5 0 0 0 - - -;
#X obj 385 -169 bng 15 250 50 0 empty empty empty 17 7 0 10 -262144
-1 -1;
#X floatatom 449 -215 5 0 0 0 - - -;
#X floatatom 498 -218 5 0 0 0 - - -;
#X obj 107 323 *~;
#X obj 107 357 *~;
#X obj 132 299 / 100;
#X obj 134 338 line;
#X floatatom 179 316 5 0 0 0 - - -;
#X text 217 315 time offset to adjust volume to velocity;
#X obj 397 -238 * 1;
#X floatatom 397 -217 5 0 0 0 - - -;
#N canvas 0 22 450 300 eald~ 0;
#X msg 394 133 bang;
#X floatatom 504 74 5 0 0 0 - - -;
#X floatatom 555 73 5 0 0 0 - - -;
#X floatatom 605 73 5 0 0 0 - - -;
#X text 471 25 "ALD" enveloppe;
#X obj 504 49 inlet;
#X obj 555 48 inlet;
#X obj 605 48 inlet;
#X obj 408 52 inlet;
#X obj 379 432 outlet~;
#X text 633 133 ENVELOPE SECTION;
#X obj 379 346 vline~;
#X msg 352 245 1;
#X obj 352 265 pack f f;
#X obj 352 286 unpack f f;
#X msg 456 246 0;
#X obj 456 267 pack f f f;
#X obj 456 288 unpack f f f;
#X obj 456 225 delay 5;
#X text 102 283 Attack : sends a 1 to get to in A msec;
#X text 529 224 wait the end of the attack;
#X text 538 254 Length+Decay : 0 to get to in D msec \, after L msec
;
#X text 493 74 A;
#X text 544 74 L;
#X text 594 74 D;
#X connect 0 0 12 0;
#X connect 0 0 18 0;
#X connect 1 0 13 1;
#X connect 1 0 18 1;
#X connect 2 0 16 2;
#X connect 3 0 16 1;
#X connect 5 0 1 0;
#X connect 6 0 2 0;
#X connect 7 0 3 0;
#X connect 8 0 0 0;
#X connect 11 0 9 0;
#X connect 12 0 13 0;
#X connect 13 0 14 0;
#X connect 14 0 11 0;
#X connect 14 1 11 1;
#X connect 15 0 16 0;
#X connect 16 0 17 0;
#X connect 17 0 11 0;
#X connect 17 1 11 1;
#X connect 17 2 11 2;
#X connect 18 0 15 0;
#X restore 400 -144 pd eald~;
#X msg 222 299 50;
#X obj 133 319 + 0.05;
#X floatatom 164 -190 5 0 0 0 - - -;
#X floatatom 217 -191 5 0 0 0 - - -;
#X floatatom 268 -192 5 0 0 0 - - -;
#X floatatom 318 -192 5 0 0 0 - - -;
#X obj 165 -167 * 1;
#X obj 218 -168 * 1;
#X obj 269 -169 * 1;
#X obj 319 -169 * 1;
#X obj -54 -176 mtof;
#X obj 110 380 outlet~;
#X obj 68 19 vsl 15 128 0 1500 0 0 empty empty empty 0 -8 0 8 -262144
-1 -1 0 1;
#X text 67 1 Gliss time;
#X text 29 1 Frq;
#X obj 164 -215 inlet;
#X obj 217 -216 inlet;
#X obj 268 -217 inlet;
#X obj 318 -217 inlet;
#X obj 396 -286 inlet;
#X obj 447 -287 inlet;
#X obj 497 -287 inlet;
#X obj 448 -239 * 1;
#X obj 498 -239 * 1;
#X obj -55 -243 inlet;
#X obj -2 -244 inlet;
#X obj -62 -201 stripnote;
#X connect 0 0 4 0;
#X connect 1 0 5 0;
#X connect 2 0 6 0;
#X connect 3 0 24 0;
#X connect 3 0 17 0;
#X connect 3 0 25 0;
#X connect 3 0 9 0;
#X connect 3 0 13 0;
#X connect 4 0 23 3;
#X connect 5 0 23 3;
#X connect 6 0 23 3;
#X connect 7 0 11 0;
#X connect 8 0 7 0;
#X connect 9 0 1 0;
#X connect 10 0 23 2;
#X connect 11 0 10 0;
#X connect 12 0 11 1;
#X connect 13 0 23 1;
#X connect 14 0 26 0;
#X connect 14 0 30 0;
#X connect 17 0 8 0;
#X connect 23 0 33 0;
#X connect 24 0 0 0;
#X connect 25 0 2 0;
#X connect 26 0 23 1;
#X connect 27 0 39 0;
#X connect 28 0 64 0;
#X connect 29 0 65 0;
#X connect 30 0 41 0;
#X connect 30 0 42 0;
#X connect 31 0 41 2;
#X connect 32 0 41 3;
#X connect 33 0 34 0;
#X connect 34 0 53 0;
#X connect 35 0 43 0;
#X connect 36 0 34 1;
#X connect 37 0 36 1;
#X connect 39 0 40 0;
#X connect 40 0 41 1;
#X connect 41 0 33 1;
#X connect 42 0 37 0;
#X connect 43 0 36 0;
#X connect 44 0 48 0;
#X connect 45 0 49 0;
#X connect 46 0 50 0;
#X connect 47 0 51 0;
#X connect 48 0 54 0;
#X connect 49 0 0 0;
#X connect 50 0 1 0;
#X connect 51 0 2 0;
#X connect 52 0 8 0;
#X connect 54 0 12 0;
#X connect 57 0 44 0;
#X connect 58 0 45 0;
#X connect 59 0 46 0;
#X connect 60 0 47 0;
#X connect 61 0 27 0;
#X connect 62 0 28 0;
#X connect 63 0 29 0;
#X connect 64 0 31 0;
#X connect 65 0 32 0;
#X connect 66 0 68 0;
#X connect 67 0 68 1;
#X connect 68 0 52 0;
#X connect 68 0 30 0;
#X connect 68 0 14 0;
#X connect 68 1 35 0;
#X coords 0 1 100 -1 340 170 1 0 0;
#X restore -226 220 graph;
#X obj -281 163 notein;
#X floatatom -226 204 5 0 0 0 - - -;
#X floatatom -194 204 5 0 0 0 - - -;
#X floatatom -143 171 5 0 0 0 - - -;
#X floatatom -100 171 5 0 0 0 - - -;
#X floatatom -55 171 5 0 0 0 - - -;
#X floatatom -11 171 5 0 0 0 - - -;
#X floatatom 42 171 5 0 0 0 - - -;
#X floatatom 85 171 5 0 0 0 - - -;
#X floatatom 128 171 5 0 0 0 - - -;
#X floatatom 85 204 5 0 0 0 - - -;
#X floatatom 128 204 5 0 0 0 - - -;
#X obj 85 187 * 10;
#X obj 42 187 * 1;
#X floatatom 42 204 5 0 0 0 - - -;
#X obj 128 187 * 10;
#X floatatom -143 204 5 0 0 0 - - -;
#X floatatom -100 204 5 0 0 0 - - -;
#X floatatom -55 204 5 0 0 0 - - -;
#X floatatom -11 204 5 0 0 0 - - -;
#N canvas 0 22 450 300 (subpatch) 0;
#X obj -30 22 spigot;
#X obj 2 3 tgl 15 0 empty empty empty 17 7 0 10 -262144 -1 -1 0 1;
#X obj -58 0 inlet;
#X obj -54 54 outlet;
#X connect 0 0 3 0;
#X connect 1 0 0 1;
#X connect 2 0 0 0;
#X coords 0 1 100 -1 20 20 1 0 0;
#X restore -226 162 graph;
#N canvas 0 22 450 300 (subpatch) 0;
#X obj -30 22 spigot;
#X obj 2 3 tgl 15 0 empty empty empty 17 7 0 10 -262144 -1 -1 0 1;
#X obj -58 0 inlet;
#X obj -54 54 outlet;
#X connect 0 0 3 0;
#X connect 1 0 0 1;
#X connect 2 0 0 0;
#X coords 0 1 100 -1 20 20 1 0 0;
#X restore -194 162 graph;
#N canvas 0 22 450 300 (subpatch) 0;
#X obj -30 22 spigot;
#X obj 2 3 tgl 15 0 empty empty empty 17 7 0 10 -262144 -1 -1 0 1;
#X obj -58 0 inlet;
#X obj -54 54 outlet;
#X connect 0 0 3 0;
#X connect 1 0 0 1;
#X connect 2 0 0 0;
#X coords 0 1 100 -1 20 20 1 0 0;
#X restore -281 184 graph;
#N canvas 0 22 450 300 (subpatch) 0;
#X obj -30 22 spigot;
#X obj 2 3 tgl 15 0 empty empty empty 17 7 0 10 -262144 -1 -1 0 1;
#X obj -58 0 inlet;
#X obj -54 54 outlet;
#X connect 0 0 3 0;
#X connect 1 0 0 1;
#X connect 2 0 0 0;
#X coords 0 1 100 -1 20 20 1 0 0;
#X restore -261 184 graph;
#X obj 128 142 knob 25 25 0 127 0 0 empty empty empty 0 -8 32 8 -1
-260097 -260097 0 1;
#X obj 85 142 knob 25 25 0 127 0 0 empty empty empty 0 -8 32 8 -1 -260097
-260097 0 1;
#X obj 42 142 knob 25 25 0 127 0 0 empty empty empty 0 -8 32 8 -1 -260097
-260097 0 1;
#X obj -11 142 knob 25 25 0 127 0 0 empty empty empty 0 -8 32 8 -1
-260097 -260097 0 1;
#X obj -55 142 knob 25 25 0 127 0 0 empty empty empty 0 -8 32 8 -1
-260097 -260097 0 1;
#X obj -100 142 knob 25 25 0 127 0 0 empty empty empty 0 -8 32 8 -1
-260097 -260097 0 1;
#X obj -143 142 knob 25 25 0 127 0 0 empty empty empty 0 -8 32 8 -1
-260097 -260097 0 1;
#N canvas 0 22 450 300 (subpatch) 0;
#X obj -30 22 spigot;
#X obj 2 3 tgl 15 0 empty empty empty 17 7 0 10 -262144 -1 -1 0 1;
#X obj -58 0 inlet;
#X obj -54 54 outlet;
#X connect 0 0 3 0;
#X connect 1 0 0 1;
#X connect 2 0 0 0;
#X coords 0 1 100 -1 20 20 1 0 0;
#X restore -143 119 graph;
#N canvas 0 22 450 300 (subpatch) 0;
#X obj -30 22 spigot;
#X obj 2 3 tgl 15 0 empty empty empty 17 7 0 10 -262144 -1 -1 0 1;
#X obj -58 0 inlet;
#X obj -54 54 outlet;
#X connect 0 0 3 0;
#X connect 1 0 0 1;
#X connect 2 0 0 0;
#X coords 0 1 100 -1 20 20 1 0 0;
#X restore -100 119 graph;
#N canvas 0 22 450 300 (subpatch) 0;
#X obj -30 22 spigot;
#X obj 2 3 tgl 15 0 empty empty empty 17 7 0 10 -262144 -1 -1 0 1;
#X obj -58 0 inlet;
#X obj -54 54 outlet;
#X connect 0 0 3 0;
#X connect 1 0 0 1;
#X connect 2 0 0 0;
#X coords 0 1 100 -1 20 20 1 0 0;
#X restore 128 119 graph;
#N canvas 0 22 450 300 (subpatch) 0;
#X obj -30 22 spigot;
#X obj 2 3 tgl 15 0 empty empty empty 17 7 0 10 -262144 -1 -1 0 1;
#X obj -58 0 inlet;
#X obj -54 54 outlet;
#X connect 0 0 3 0;
#X connect 1 0 0 1;
#X connect 2 0 0 0;
#X coords 0 1 100 -1 20 20 1 0 0;
#X restore -55 119 graph;
#N canvas 0 22 450 300 (subpatch) 0;
#X obj -30 22 spigot;
#X obj 2 3 tgl 15 0 empty empty empty 17 7 0 10 -262144 -1 -1 0 1;
#X obj -58 0 inlet;
#X obj -54 54 outlet;
#X connect 0 0 3 0;
#X connect 1 0 0 1;
#X connect 2 0 0 0;
#X coords 0 1 100 -1 20 20 1 0 0;
#X restore -11 119 graph;
#N canvas 0 22 450 300 (subpatch) 0;
#X obj -30 22 spigot;
#X obj 2 3 tgl 15 0 empty empty empty 17 7 0 10 -262144 -1 -1 0 1;
#X obj -58 0 inlet;
#X obj -54 54 outlet;
#X connect 0 0 3 0;
#X connect 1 0 0 1;
#X connect 2 0 0 0;
#X coords 0 1 100 -1 20 20 1 0 0;
#X restore 42 119 graph;
#N canvas 0 22 450 300 (subpatch) 0;
#X obj -30 22 spigot;
#X obj 2 3 tgl 15 0 empty empty empty 17 7 0 10 -262144 -1 -1 0 1;
#X obj -58 0 inlet;
#X obj -54 54 outlet;
#X connect 0 0 3 0;
#X connect 1 0 0 1;
#X connect 2 0 0 0;
#X coords 0 1 100 -1 20 20 1 0 0;
#X restore 85 119 graph;
#X obj 128 102 ctlin 8;
#X obj 85 80 ctlin 7;
#X obj 42 60 ctlin 6;
#X obj -11 38 ctlin 4;
#X obj -55 18 ctlin 3;
#X obj -100 -2 ctlin 2;
#X obj -143 -23 ctlin 1;
#N canvas 0 22 450 300 (subpatch) 0;
#X obj 59 155 inlet;
#X obj 3 89 inlet~;
#X obj 58 182 change;
#X msg 60 246 set \$1;
#X obj 60 227 tosymbol;
#X obj 59 204 sprintf Bus%d;
#X obj 3 282 throw~ Bus0;
#X obj 2 3 popup 124 25 #ffffff popup Bus0 Bus1 Bus2 Bus3 Bus4 Bus5
;
#X obj 1 32 route bang;
#X obj 154 202 *~;
#X obj 141 7 tgl 15 0 empty empty Dac 19 7 0 10 -262144 -1 -1 0 1;
#X obj 155 238 dac~;
#X obj 3 -49 loadbang;
#X text 61 -51 Bus0 mutes;
#X msg 3 -31 options Bus0 Bus1 Bus2 Bus3 Bus4 Bus5 Bus6 Bus7 Bus8 Bus9
Bus10 Bus11 Bus12 Bus13 Bus14 Bus15 Bus16;
#X connect 0 0 2 0;
#X connect 1 0 6 0;
#X connect 1 0 9 0;
#X connect 2 0 5 0;
#X connect 3 0 6 0;
#X connect 4 0 3 0;
#X connect 5 0 4 0;
#X connect 7 0 8 0;
#X connect 8 1 2 0;
#X connect 9 0 11 0;
#X connect 9 0 11 1;
#X connect 10 0 9 1;
#X connect 12 0 14 0;
#X connect 14 0 7 0;
#X coords 0 1 100 -1 180 30 1 0 0;
#X restore -226 390 graph;
#X text -443 182 comment;
#X obj -100 187 / 1;
#X obj -55 187 / 1;
#X obj -11 187 / 1;
#X obj -143 187 * 15;
#X text -94 -23 Gliss time;
#X text -49 -2 String Stretch;
#X text -7 17 Pickup Position;
#X text 37 38 String Sustain;
#X text 90 63 A;
#X text 134 80 L;
#X text 181 103 D;
#X obj -226 -63 r noteStif;
#X obj -194 -43 r velStif;
#X obj 63 403 declare -path z_Percolate;
#X connect 0 0 46 0;
#X connect 1 0 23 0;
#X connect 1 1 24 0;
#X connect 2 0 0 0;
#X connect 3 0 0 1;
#X connect 4 0 51 0;
#X connect 5 0 48 0;
#X connect 6 0 49 0;
#X connect 7 0 50 0;
#X connect 8 0 14 0;
#X connect 9 0 13 0;
#X connect 10 0 16 0;
#X connect 11 0 0 7;
#X connect 12 0 0 8;
#X connect 13 0 11 0;
#X connect 14 0 15 0;
#X connect 15 0 0 6;
#X connect 16 0 12 0;
#X connect 17 0 0 2;
#X connect 18 0 0 3;
#X connect 19 0 0 4;
#X connect 20 0 0 5;
#X connect 21 0 2 0;
#X connect 22 0 3 0;
#X connect 23 0 2 0;
#X connect 24 0 3 0;
#X connect 25 0 10 0;
#X connect 26 0 9 0;
#X connect 27 0 8 0;
#X connect 28 0 7 0;
#X connect 29 0 6 0;
#X connect 30 0 5 0;
#X connect 31 0 4 0;
#X connect 32 0 31 0;
#X connect 33 0 30 0;
#X connect 34 0 25 0;
#X connect 35 0 29 0;
#X connect 36 0 28 0;
#X connect 37 0 27 0;
#X connect 38 0 26 0;
#X connect 39 0 34 0;
#X connect 40 0 38 0;
#X connect 41 0 37 0;
#X connect 42 0 36 0;
#X connect 43 0 35 0;
#X connect 44 0 33 0;
#X connect 45 0 32 0;
#X connect 48 0 18 0;
#X connect 49 0 19 0;
#X connect 50 0 20 0;
#X connect 51 0 17 0;
#X connect 59 0 21 0;
#X connect 60 0 22 0;
