#N canvas 48 22 575 645 10;
#X obj 216 340 cos~;
#X obj 217 315 +~;
#X text 192 133 freq;
#X text 257 365 amp;
#X obj 250 68 *~;
#X obj 250 89 *~;
#X obj 234 247 noise~;
#X obj 233 270 *~;
#X obj 250 112 *~;
#X obj 249 137 *~;
#X obj 285 247 *~ 0.33;
#X obj 216 205 phasor~;
#X obj 232 291 lop~;
#X obj 215 161 *~ 5000;
#X obj 215 183 +~ 100;
#X obj 270 578 *~ 0.33;
#X obj 233 388 *~;
#X obj 355 446 bp~ 40 3;
#X obj 269 446 bp~ 360 5;
#X obj 270 482 *~ 2.5;
#X obj 62 481 *~ 2;
#X obj 7 451 bp~ 1800 30;
#X obj 97 450 bp~ 2300 20;
#X obj 186 483 *~ 1.2;
#X obj 355 482 *~ 10;
#X obj 271 523 bp~ 2500 0.5;
#X obj 380 421 * 80;
#X obj 298 423 * 720;
#X obj 216 423 * 480;
#X obj 133 423 * 4600;
#X obj 43 423 * 3600;
#X obj 187 452 bp~ 240 7;
#X obj 394 337 * 1;
#X obj 434 447 bp~ 3000 0.5;
#X obj 434 482 *~ 2;
#X msg 394 314 0.9;
#X obj 251 39 line~;
#X obj 393 290 loadbang;
#X text 48 29 AK47 resonanted impulse;
#X obj 251 -3 bng 15 250 50 0 empty empty empty 17 7 0 10 -262144 -1
-1;
#X obj 252 -30 inlet;
#X msg 251 17 1 0 \, 0 25;
#X obj 261 605 outlet~;
#X connect 0 0 16 0;
#X connect 1 0 0 0;
#X connect 4 0 5 0;
#X connect 4 0 5 1;
#X connect 5 0 8 0;
#X connect 5 0 8 1;
#X connect 5 0 16 1;
#X connect 6 0 7 0;
#X connect 7 0 12 0;
#X connect 8 0 9 0;
#X connect 8 0 9 1;
#X connect 8 0 10 0;
#X connect 9 0 13 0;
#X connect 10 0 7 1;
#X connect 11 0 1 0;
#X connect 12 0 1 1;
#X connect 13 0 14 0;
#X connect 14 0 11 0;
#X connect 15 0 42 0;
#X connect 16 0 17 0;
#X connect 16 0 18 0;
#X connect 16 0 21 0;
#X connect 16 0 22 0;
#X connect 16 0 31 0;
#X connect 16 0 33 0;
#X connect 17 0 24 0;
#X connect 18 0 19 0;
#X connect 19 0 25 0;
#X connect 20 0 25 0;
#X connect 21 0 20 0;
#X connect 22 0 20 0;
#X connect 23 0 25 0;
#X connect 24 0 25 0;
#X connect 25 0 15 0;
#X connect 26 0 17 1;
#X connect 27 0 18 1;
#X connect 28 0 31 1;
#X connect 29 0 22 1;
#X connect 30 0 21 1;
#X connect 31 0 23 0;
#X connect 32 0 30 0;
#X connect 32 0 29 0;
#X connect 32 0 28 0;
#X connect 32 0 27 0;
#X connect 32 0 26 0;
#X connect 33 0 34 0;
#X connect 34 0 25 0;
#X connect 35 0 32 0;
#X connect 36 0 4 0;
#X connect 36 0 4 1;
#X connect 37 0 35 0;
#X connect 39 0 41 0;
#X connect 40 0 39 0;
#X connect 41 0 36 0;
