#N canvas 0 22 632 596 10;
#X obj 183 307 metro 250;
#X obj 188 350 f;
#X obj 233 285 expr 15000/$f1;
#X floatatom 151 116 5 0 0 0 BPM #0-bpm-r #0-bpm;
#X obj 104 115 tgl 15 0 \$0-onoff \$0-onoff-r empty 17 7 0 10 -262144
-1 -1 1 1;
#X obj 42 408 outlet;
#X obj 482 261 outlet bpm;
#X obj 234 263 r \$0-bpm;
#X obj 246 54 inlet onoff;
#X obj 366 137 inlet bpm;
#X obj 365 216 s \$0-bpm-r;
#X obj 483 240 r \$0-bpm;
#X obj 479 151 r \$0-bpm;
#X obj 261 130 s \$0-onoff-r;
#X obj 367 55 r \$0-onoff;
#X msg 219 187 125;
#X obj 219 166 loadbang;
#X obj 137 255 r \$0-onoff;
#X obj 137 275 t f f;
#X obj 139 308 sel 0;
#X msg 142 330 0;
#X floatatom 205 412 5 0 0 0 - - -;
#X obj 429 379 r groove;
#X obj 291 452 delay 100;
#X obj 349 371 r \$0-bpm;
#X obj 348 426 expr $f2+15000/$f1;
#X obj 218 351 + 1;
#X obj 217 373 mod 32;
#X obj 286 477 f;
#X floatatom 303 539 5 0 0 0 - - -;
#X obj 316 478 + 1;
#X obj 315 500 mod 32;
#X obj 239 524 outlet;
#X text 47 439 normal outlet;
#X text 194 551 "grooved" outlet;
#X obj 206 438 bng 15 250 50 0 empty empty empty 17 7 0 10 -262144
-1 -1;
#X obj 302 563 bng 15 250 50 0 empty empty empty 17 7 0 10 -262144
-1 -1;
#X floatatom 403 476 5 0 0 0 - - -;
#X obj 356 402 t f f;
#X connect 0 0 1 0;
#X connect 0 0 23 0;
#X connect 1 0 5 0;
#X connect 1 0 21 0;
#X connect 1 0 26 0;
#X connect 2 0 0 1;
#X connect 7 0 2 0;
#X connect 8 0 13 0;
#X connect 9 0 10 0;
#X connect 11 0 6 0;
#X connect 15 0 10 0;
#X connect 16 0 15 0;
#X connect 17 0 18 0;
#X connect 18 0 19 0;
#X connect 18 1 0 0;
#X connect 19 0 20 0;
#X connect 20 0 1 1;
#X connect 21 0 35 0;
#X connect 22 0 38 0;
#X connect 23 0 28 0;
#X connect 24 0 38 0;
#X connect 25 0 23 1;
#X connect 25 0 37 0;
#X connect 26 0 27 0;
#X connect 27 0 1 1;
#X connect 28 0 29 0;
#X connect 28 0 30 0;
#X connect 28 0 32 0;
#X connect 29 0 36 0;
#X connect 30 0 31 0;
#X connect 31 0 28 1;
#X connect 38 0 25 0;
#X connect 38 1 25 0;
#X coords 0 -1 1 1 85 35 1 100 100;
