#N canvas 397 240 450 300 10;
#X obj 64 216 dac~;
#X msg 67 34 0.5;
#X msg 108 27 0.78;
#X msg 168 27 0.95;
#N canvas 305 114 1056 743 ahihat2 0;
#X obj 245 704 outlet~;
#X obj 329 190 inlet;
#X text 374 188 <-trigger/level in;
#X obj 334 433 line~;
#X msg 271 394 0 71.227;
#X obj 311 464 *~;
#X obj 302 521 lop~ 200;
#X msg 359 399 1;
#X obj 107 115 hsl 128 8 1.27 800 1 1 dmp10 dmp10r dec 134 4 0 8 -262144
-1 -1 9300 1;
#X obj 250 264 +;
#X msg 252 234 0;
#X obj 243 674 *~;
#X obj 272 288 *;
#X msg 271 315 set 0 \$1;
#X obj 329 341 t b b;
#X obj 311 213 t f f;
#X obj 74 440 clip~ -1 1;
#X obj 74 372 bp~ 8906 1.437;
#X obj 74 394 bp~ 8906 1.437;
#X obj 74 352 hip~ 8000;
#N canvas 0 0 744 501 squarebattery 0;
#X obj 346 142 *~ 0.7;
#X obj 105 124 *~ 0.9;
#X obj 105 79 * 210;
#X obj 345 94 * 540;
#X obj 462 104 * 550;
#X obj 569 103 * 800;
#X obj 269 92 * 380;
#X obj 187 91 * 320;
#X obj 105 404 outlet~;
#X obj 105 11 inlet;
#X text 151 13 tuning;
#N canvas 0 0 438 462 square 0;
#X obj 132 215 -~ 0.5;
#X obj 42 197 wrap~;
#X obj 42 220 -~ 0.5;
#X obj 42 175 -~ 0.5;
#X obj 42 289 -~;
#X obj 42 317 outlet~;
#X obj 42 94 phasor~;
#X obj 42 64 inlet;
#X connect 0 0 4 1;
#X connect 1 0 2 0;
#X connect 2 0 4 0;
#X connect 3 0 1 0;
#X connect 4 0 5 0;
#X connect 6 0 3 0;
#X connect 6 0 0 0;
#X connect 7 0 6 0;
#X restore 345 114 pd square;
#N canvas 0 0 438 462 square 0;
#X obj 132 215 -~ 0.5;
#X obj 42 197 wrap~;
#X obj 42 220 -~ 0.5;
#X obj 42 175 -~ 0.5;
#X obj 42 289 -~;
#X obj 42 317 outlet~;
#X obj 42 94 phasor~;
#X obj 42 64 inlet;
#X connect 0 0 4 1;
#X connect 1 0 2 0;
#X connect 2 0 4 0;
#X connect 3 0 1 0;
#X connect 4 0 5 0;
#X connect 6 0 3 0;
#X connect 6 0 0 0;
#X connect 7 0 6 0;
#X restore 462 128 pd square;
#N canvas 0 0 438 462 square 0;
#X obj 132 215 -~ 0.5;
#X obj 42 197 wrap~;
#X obj 42 220 -~ 0.5;
#X obj 42 175 -~ 0.5;
#X obj 42 289 -~;
#X obj 42 317 outlet~;
#X obj 42 94 phasor~;
#X obj 42 64 inlet;
#X connect 0 0 4 1;
#X connect 1 0 2 0;
#X connect 2 0 4 0;
#X connect 3 0 1 0;
#X connect 4 0 5 0;
#X connect 6 0 3 0;
#X connect 6 0 0 0;
#X connect 7 0 6 0;
#X restore 569 128 pd square;
#N canvas 0 0 438 462 square 0;
#X obj 132 215 -~ 0.5;
#X obj 42 197 wrap~;
#X obj 42 220 -~ 0.5;
#X obj 42 175 -~ 0.5;
#X obj 42 289 -~;
#X obj 42 317 outlet~;
#X obj 42 94 phasor~;
#X obj 42 64 inlet;
#X connect 0 0 4 1;
#X connect 1 0 2 0;
#X connect 2 0 4 0;
#X connect 3 0 1 0;
#X connect 4 0 5 0;
#X connect 6 0 3 0;
#X connect 6 0 0 0;
#X connect 7 0 6 0;
#X restore 269 115 pd square;
#N canvas 0 0 438 462 square 0;
#X obj 132 215 -~ 0.5;
#X obj 42 197 wrap~;
#X obj 42 220 -~ 0.5;
#X obj 42 175 -~ 0.5;
#X obj 42 289 -~;
#X obj 42 317 outlet~;
#X obj 42 94 phasor~;
#X obj 42 64 inlet;
#X connect 0 0 4 1;
#X connect 1 0 2 0;
#X connect 2 0 4 0;
#X connect 3 0 1 0;
#X connect 4 0 5 0;
#X connect 6 0 3 0;
#X connect 6 0 0 0;
#X connect 7 0 6 0;
#X restore 187 119 pd square;
#N canvas 0 0 438 462 square 0;
#X obj 132 215 -~ 0.5;
#X obj 42 197 wrap~;
#X obj 42 220 -~ 0.5;
#X obj 42 175 -~ 0.5;
#X obj 42 289 -~;
#X obj 42 317 outlet~;
#X obj 42 94 phasor~;
#X obj 42 64 inlet;
#X connect 0 0 4 1;
#X connect 1 0 2 0;
#X connect 2 0 4 0;
#X connect 3 0 1 0;
#X connect 4 0 5 0;
#X connect 6 0 3 0;
#X connect 6 0 0 0;
#X connect 7 0 6 0;
#X restore 105 101 pd square;
#X connect 0 0 8 0;
#X connect 1 0 8 0;
#X connect 2 0 16 0;
#X connect 3 0 11 0;
#X connect 4 0 12 0;
#X connect 5 0 13 0;
#X connect 6 0 14 0;
#X connect 7 0 15 0;
#X connect 9 0 2 0;
#X connect 9 0 3 0;
#X connect 9 0 4 0;
#X connect 9 0 5 0;
#X connect 9 0 6 0;
#X connect 9 0 7 0;
#X connect 11 0 0 0;
#X connect 12 0 8 0;
#X connect 13 0 8 0;
#X connect 14 0 8 0;
#X connect 15 0 8 0;
#X connect 16 0 1 0;
#X restore 75 328 pd squarebattery;
#X obj 74 417 *~ 150;
#X obj 108 127 hsl 128 8 0 2 0 1 empty empty tun 134 4 0 8 -262144
-1 -1 2000 1;
#X obj 294 559 *~ 0.1;
#X text 348 482 quadratic amp env;
#X connect 1 0 15 0;
#X connect 3 0 5 1;
#X connect 3 0 5 0;
#X connect 4 0 3 0;
#X connect 5 0 6 0;
#X connect 6 0 23 0;
#X connect 7 0 3 0;
#X connect 8 0 9 1;
#X connect 9 0 12 0;
#X connect 10 0 9 0;
#X connect 11 0 0 0;
#X connect 12 0 13 0;
#X connect 13 0 4 0;
#X connect 13 0 14 0;
#X connect 14 0 4 0;
#X connect 14 1 7 0;
#X connect 15 0 10 0;
#X connect 15 1 12 1;
#X connect 16 0 11 0;
#X connect 17 0 18 0;
#X connect 18 0 21 0;
#X connect 19 0 17 0;
#X connect 20 0 19 0;
#X connect 21 0 16 0;
#X connect 22 0 20 0;
#X connect 23 0 11 1;
#X coords 0 -1 1 1 160 40 1 100 100;
#X restore 75 107 pd ahihat2;
#X connect 1 0 4 0;
#X connect 2 0 4 0;
#X connect 3 0 4 0;
#X connect 4 0 0 0;
#X connect 4 0 0 1;
