#N canvas 0 0 450 300 10;
#N canvas 97 62 1056 743 ahihat1 0;
#X obj 245 704 outlet~;
#X obj 329 190 inlet;
#X obj 107 126 hsl 128 8 0 127 0 1 empty empty amt 134 5 0 8 -262144
-1 -1 2400 1;
#X text 374 188 <-trigger/level in;
#X obj 63 480 noise~;
#X obj 334 433 line~;
#X msg 271 394 0 28.569;
#X obj 311 464 *~;
#X obj 312 506 lop~ 200;
#X msg 359 399 1;
#X obj 107 115 hsl 128 8 1.27 800 1 1 empty empty dec 134 4 0 8 -262144
-1 -1 7500 1;
#X obj 250 264 +;
#X msg 252 234 0;
#X obj 243 674 *~;
#X obj 107 139 hsl 128 8 70 120 0 1 empty empty cut 134 3 0 8 -262144
-1 -1 10500 1;
#X obj 102 282 mtof;
#X text 348 482 quadratic filter/amp env;
#X obj 166 341 *~;
#X obj 129 408 +~;
#X obj 160 299 mtof;
#X obj 107 152 hsl 128 8 1 5 0 1 empty empty res 134 3 0 8 -262144
-1 -1 7900 1;
#X obj 272 288 *;
#X msg 271 315 set 0 \$1;
#X obj 329 341 t b b;
#X obj 311 213 t f f;
#N canvas 38 323 659 544 fourhipassvcf 0;
#X obj 51 19 inlet~;
#X obj 200 348 outlet~;
#X obj 280 25 inlet;
#X obj 179 248 vcf~ 1;
#X obj 198 316 vcf~ 1;
#X obj 79 97 hip~;
#X obj 92 140 hip~;
#X obj 109 172 hip~;
#X obj 124 205 hip~;
#X obj 231 -46 inlet~;
#X obj 144 52 snapshot~;
#X obj 147 30 metro 5;
#X msg 148 0 bang;
#X connect 0 0 5 0;
#X connect 2 0 3 2;
#X connect 2 0 4 2;
#X connect 2 0 12 0;
#X connect 3 0 4 0;
#X connect 4 0 1 0;
#X connect 5 0 6 0;
#X connect 6 0 7 0;
#X connect 7 0 8 0;
#X connect 8 0 3 0;
#X connect 9 0 3 1;
#X connect 9 0 4 1;
#X connect 9 0 10 0;
#X connect 10 0 7 1;
#X connect 10 0 8 1;
#X connect 10 0 6 1;
#X connect 10 0 5 1;
#X connect 11 0 10 0;
#X connect 12 0 11 0;
#X restore 72 594 pd fourhipassvcf;
#X connect 1 0 24 0;
#X connect 2 0 19 0;
#X connect 4 0 25 0;
#X connect 5 0 7 1;
#X connect 5 0 7 0;
#X connect 6 0 5 0;
#X connect 7 0 8 0;
#X connect 8 0 13 1;
#X connect 8 0 17 0;
#X connect 9 0 5 0;
#X connect 10 0 11 1;
#X connect 11 0 21 0;
#X connect 12 0 11 0;
#X connect 13 0 0 0;
#X connect 14 0 15 0;
#X connect 15 0 18 0;
#X connect 17 0 18 1;
#X connect 18 0 25 1;
#X connect 19 0 17 1;
#X connect 20 0 25 2;
#X connect 21 0 22 0;
#X connect 22 0 6 0;
#X connect 22 0 23 0;
#X connect 23 0 6 0;
#X connect 23 1 9 0;
#X connect 24 0 12 0;
#X connect 24 1 21 1;
#X connect 25 0 13 0;
#X coords 0 -1 1 1 160 70 1 100 100;
#X restore 75 107 pd ahihat1;
#X obj 64 216 dac~;
#X msg 67 34 0.5;
#X msg 108 27 0.78;
#X msg 168 27 0.95;
#X connect 0 0 1 0;
#X connect 0 0 1 1;
#X connect 2 0 0 0;
#X connect 3 0 0 0;
#X connect 4 0 0 0;
