#N canvas 0 22 829 444 10;
#N canvas 0 22 450 300 (subpatch) 0;
#N canvas 105 38 1142 827 beatloop1 0;
#X floatatom 138 114 4 3 128 0 olen - -;
#X obj 109 163 hsl 123 8 0 1 0 0 empty empty empty -2 -6 0 8 -262144
-258699 -1 3812 1;
#X obj 96 -221 mod;
#X obj 16 -480 inlet;
#X obj -165 -450 inlet;
#X text 56 -479 <-bpm;
#X msg -17 -415 1;
#X obj 7 -391 /;
#X obj -20 -436 t f f;
#X obj 8 -362 * 15000;
#X text -69 -362 1/16 in ms;
#X obj 164 -119 /;
#X msg 133 -163 100;
#X obj 134 -195 t b f;
#X obj 126 -90 *;
#X obj 126 -65 t b f;
#X msg 91 -18 1;
#X floatatom 138 130 4 3 128 0 llen - -;
#X obj 205 4 /;
#X obj 155 -4 +;
#X obj 97 -246 +;
#X obj 229 -311 inlet;
#X text 273 -311 pos offset (1/16);
#X obj 332 -278 inlet;
#X text 383 -279 tp (semitones \, -36..36);
#X floatatom 204 130 4 -36 36 0 tp - -;
#X obj 489 -167 loadbang;
#X msg 327 20 set \$1;
#X msg 329 46 0;
#X msg 314 -62 set \$1;
#X msg 316 -36 16;
#X msg 389 39 set \$1;
#X msg 393 69 16;
#X floatatom 204 114 4 0 50 0 ofst - -;
#X msg 474 56 set \$1;
#X msg 466 84 0;
#X obj 135 461 soundfiler;
#X obj 372 536 loadbang;
#X msg 164 532 set \$1;
#X obj 478 1377 outlet~;
#X obj 329 572 t b b;
#X msg -36 942 0;
#X obj 140 840 pack;
#X obj 249 719 / 44.1;
#X msg 153 904 1.25332e+06 21315;
#X msg 157 865 set \$1 \$2;
#X obj 188 775 *;
#X obj 211 698 t b f b;
#X msg 564 633 1.05946;
#X obj 570 662 pow;
#X obj 554 569 * -1;
#X obj 54 1211 *~;
#X msg -3 910 -1 2.14145;
#X obj 17 194 hsl 128 8 100 160 0 1 empty empty slice_decay 0 -5 0
8 -262144 -1 -1 1400 1;
#X obj -14 1174 *~;
#X obj 10 522 dbtorms;
#X obj -133 575 moses 0.001;
#X obj -125 915 pack;
#X obj 18 216 hsl 128 8 100 150 0 1 empty empty slice_attack 0 -5 0
8 -262144 -1 -1 1300 1;
#X obj -113 535 dbtorms;
#X msg -121 981 1 1.80263;
#X msg -121 949 set \$1 \$2;
#X obj -63 684 t b b f;
#X obj -14 797 * -1;
#X msg 3 865 set \$1 \$2;
#X obj 6 836 pack;
#X obj -8 1143 +~;
#X text -120 1118 attack;
#X text 59 1112 release;
#X obj 553 597 t b f;
#X msg 81 882 313330;
#X obj 51 773 delay 1;
#X obj 51 796 t b b;
#X text 609 453 tp (semitones);
#X text -326 464 trigger/vel (0..1);
#X obj 133 766 *;
#X msg 46 827 set \$1;
#X obj 179 810 *;
#X obj 312 855 -;
#X msg 301 822 1;
#X text -145 461 duration (ms);
#X obj 286 776 t b b f;
#X obj 383 657 float;
#X msg -214 639 bang;
#X symbolatom 106 146 18 0 0 0 - - -;
#X text 437 432 sample start (percent);
#X obj 356 722 / 100;
#X obj 479 1342 +~;
#X obj -213 666 delay 1;
#X obj -268 480 pack;
#X obj -268 502 route 0 1;
#X obj -179 456 pack;
#X obj -182 490 route 0 1;
#X obj 408 451 pack;
#X obj 408 473 route 0 1;
#X obj 579 463 pack;
#X obj 579 485 route 0 1;
#X msg 838 943 0;
#X obj 1014 841 pack;
#X obj 1123 720 / 44.1;
#X msg 1027 905 1.25332e+06 19538.8;
#X msg 1031 866 set \$1 \$2;
#X obj 1062 776 *;
#X obj 1085 699 t b f b;
#X msg 1305 604 1.05946;
#X obj 1302 638 pow;
#X obj 1295 540 * -1;
#X msg 871 911 -1 2.14145;
#X obj 774 632 moses 0.001;
#X obj 755 913 pack;
#X msg 753 982 1 1.80263;
#X msg 753 950 set \$1 \$2;
#X obj 811 685 t b b f;
#X obj 860 798 * -1;
#X msg 877 866 set \$1 \$2;
#X obj 872 835 pack;
#X obj 866 1144 +~;
#X text 754 1119 attack;
#X text 933 1113 release;
#X obj 1294 568 t b f;
#X msg 955 883 391663;
#X obj 925 774 delay 1;
#X obj 925 797 t b b;
#X obj 1007 767 *;
#X msg 920 828 set \$1;
#X obj 1053 811 *;
#X obj 1186 856 -;
#X msg 1175 823 1;
#X obj 1160 777 t b b f;
#X obj 1242 673 float;
#X msg 780 663 bang;
#X obj 1230 723 / 100;
#X obj 745 742 delay 1;
#X text 635 783 2nd voice ->;
#X obj 963 1189 *~;
#X obj 1028 1028 vline~;
#X obj 176 1016 vline~;
#X obj 58 1092 vline~;
#X obj -97 1092 vline~;
#X obj 774 1091 vline~;
#X obj 931 1093 vline~;
#X text -219 317 <-voice nr;
#X obj -260 320 mod 2;
#X obj 131 238 splitfilename;
#X obj 513 162 inlet;
#X text 555 163 <-filename;
#X obj 142 483 t b a;
#X msg 112 733 1.25332e+06;
#X msg 975 734 1.25332e+06;
#X obj 157 341 t b a;
#X obj 145 374 pack \$0 s;
#X text -125 -450 <-pos;
#X obj 461 921 table \$0mnbbbloop1;
#X obj 153 1112 tabread4~ \$0mnbbbloop1;
#X obj 1029 1105 tabread4~ \$0mnbbbloop1;
#X msg 131 417 read -resize \$2 \$1mnbbbloop1;
#X msg 293 308 symbol /Users/Berenger/Documents/Programmation_audio/PureData/Sets/pdLive!_Samples/Generateur1.wav
;
#X msg 352 279 set symbol \$1;
#X connect 0 0 13 0;
#X connect 0 0 29 0;
#X connect 2 0 18 0;
#X connect 2 0 14 0;
#X connect 3 0 8 0;
#X connect 4 0 20 0;
#X connect 4 0 142 0;
#X connect 6 0 7 0;
#X connect 7 0 9 0;
#X connect 8 0 6 0;
#X connect 8 1 7 1;
#X connect 9 0 91 1;
#X connect 11 0 14 1;
#X connect 12 0 11 0;
#X connect 13 0 12 0;
#X connect 13 1 11 1;
#X connect 14 0 15 0;
#X connect 15 0 16 0;
#X connect 15 1 19 0;
#X connect 16 0 89 1;
#X connect 17 0 31 0;
#X connect 17 0 2 1;
#X connect 17 0 18 1;
#X connect 18 0 1 0;
#X connect 19 0 93 1;
#X connect 20 0 2 0;
#X connect 21 0 20 1;
#X connect 23 0 25 0;
#X connect 25 0 27 0;
#X connect 25 0 95 1;
#X connect 26 0 28 0;
#X connect 26 0 30 0;
#X connect 26 0 32 0;
#X connect 26 0 35 0;
#X connect 26 0 156 0;
#X connect 27 0 28 0;
#X connect 28 0 25 0;
#X connect 29 0 30 0;
#X connect 30 0 0 0;
#X connect 31 0 32 0;
#X connect 32 0 17 0;
#X connect 33 0 34 0;
#X connect 33 0 19 1;
#X connect 34 0 35 0;
#X connect 35 0 33 0;
#X connect 36 0 146 0;
#X connect 37 0 40 0;
#X connect 38 0 147 0;
#X connect 38 0 148 0;
#X connect 40 0 147 0;
#X connect 40 0 148 0;
#X connect 41 0 137 0;
#X connect 41 0 138 0;
#X connect 42 0 45 0;
#X connect 43 0 46 1;
#X connect 44 0 136 0;
#X connect 45 0 44 0;
#X connect 46 0 77 0;
#X connect 47 0 42 0;
#X connect 47 1 46 0;
#X connect 47 2 147 0;
#X connect 48 0 49 0;
#X connect 49 0 82 0;
#X connect 50 0 69 0;
#X connect 51 0 87 0;
#X connect 52 0 137 0;
#X connect 53 0 55 0;
#X connect 54 0 51 0;
#X connect 55 0 65 1;
#X connect 55 0 115 1;
#X connect 56 1 62 0;
#X connect 56 1 71 0;
#X connect 56 1 83 0;
#X connect 57 0 61 0;
#X connect 58 0 59 0;
#X connect 59 0 57 1;
#X connect 59 0 109 1;
#X connect 60 0 138 0;
#X connect 61 0 60 0;
#X connect 62 0 60 0;
#X connect 62 1 41 0;
#X connect 62 2 57 0;
#X connect 62 2 63 0;
#X connect 63 0 65 0;
#X connect 64 0 52 0;
#X connect 65 0 64 0;
#X connect 66 0 54 0;
#X connect 66 0 54 1;
#X connect 69 0 48 0;
#X connect 69 1 49 1;
#X connect 70 0 136 0;
#X connect 71 0 72 0;
#X connect 72 0 44 0;
#X connect 72 1 70 0;
#X connect 75 0 76 0;
#X connect 76 0 70 0;
#X connect 77 0 42 1;
#X connect 78 0 77 1;
#X connect 79 0 78 0;
#X connect 81 0 82 0;
#X connect 81 1 79 0;
#X connect 81 2 78 1;
#X connect 82 0 47 0;
#X connect 83 0 88 0;
#X connect 86 0 81 0;
#X connect 86 0 75 0;
#X connect 87 0 39 0;
#X connect 88 0 52 0;
#X connect 89 0 90 0;
#X connect 90 0 56 0;
#X connect 90 1 108 0;
#X connect 91 0 92 0;
#X connect 92 0 88 1;
#X connect 92 1 132 1;
#X connect 93 0 94 0;
#X connect 94 0 86 0;
#X connect 94 1 131 0;
#X connect 95 0 96 0;
#X connect 96 0 50 0;
#X connect 96 1 106 0;
#X connect 97 0 139 0;
#X connect 97 0 140 0;
#X connect 98 0 101 0;
#X connect 99 0 102 1;
#X connect 100 0 135 0;
#X connect 101 0 100 0;
#X connect 102 0 125 0;
#X connect 103 0 98 0;
#X connect 103 1 102 0;
#X connect 103 2 148 0;
#X connect 104 0 105 0;
#X connect 105 0 129 0;
#X connect 106 0 119 0;
#X connect 107 0 140 0;
#X connect 108 1 112 0;
#X connect 108 1 121 0;
#X connect 108 1 130 0;
#X connect 109 0 111 0;
#X connect 110 0 139 0;
#X connect 111 0 110 0;
#X connect 112 0 110 0;
#X connect 112 1 97 0;
#X connect 112 2 109 0;
#X connect 112 2 113 0;
#X connect 113 0 115 0;
#X connect 114 0 107 0;
#X connect 115 0 114 0;
#X connect 116 0 134 0;
#X connect 119 0 104 0;
#X connect 119 1 105 1;
#X connect 120 0 135 0;
#X connect 121 0 122 0;
#X connect 122 0 100 0;
#X connect 122 1 120 0;
#X connect 123 0 124 0;
#X connect 124 0 120 0;
#X connect 125 0 98 1;
#X connect 126 0 125 1;
#X connect 127 0 126 0;
#X connect 128 0 129 0;
#X connect 128 1 127 0;
#X connect 128 2 126 1;
#X connect 129 0 103 0;
#X connect 130 0 132 0;
#X connect 131 0 128 0;
#X connect 131 0 123 0;
#X connect 132 0 107 0;
#X connect 134 0 87 1;
#X connect 135 0 154 0;
#X connect 136 0 153 0;
#X connect 137 0 66 1;
#X connect 138 0 66 0;
#X connect 139 0 116 0;
#X connect 140 0 116 1;
#X connect 142 0 89 0;
#X connect 142 0 91 0;
#X connect 142 0 93 0;
#X connect 142 0 95 0;
#X connect 143 1 84 0;
#X connect 144 0 157 0;
#X connect 144 0 143 0;
#X connect 144 0 149 0;
#X connect 146 0 147 0;
#X connect 146 0 148 0;
#X connect 146 1 38 0;
#X connect 147 0 43 0;
#X connect 147 0 42 0;
#X connect 147 0 75 1;
#X connect 148 0 99 0;
#X connect 148 0 98 0;
#X connect 148 0 123 1;
#X connect 149 0 150 0;
#X connect 149 1 150 1;
#X connect 150 0 155 0;
#X connect 153 0 51 1;
#X connect 154 0 134 1;
#X connect 155 0 36 0;
#X connect 156 0 149 0;
#X connect 156 0 143 0;
#X connect 157 0 156 0;
#X coords 0 -1 1 1 140 75 1 100 100;
#X restore 6 49 pd beatloop1;
#X obj 141 390 *~ 0.5;
#X obj 203 -86 loadbang;
#X obj 351 59 playlist all 400 205 {Helvetica 10 bold} white yellow
black red;
#X msg 496 383 symbol /Users/Berenger/Documents/Programmation_audio/PureData/Sets/pdLive!_Samples/GlitchDrums/PWM8.wav
;
#X msg 451 338 PWM8.wav;
#X msg 449 310 set \$1;
#X msg 334 -50 location /home/mnb/wave_wrk;
#X msg 368 -28 location ..;
#X obj 327 138 vradio 15 1 0 6 empty empty empty 0 -6 0 8 -262144 -1
-1 0;
#X obj 352 309 t b b a;
#X obj 328 390 route 0 1 2 3 4 5;
#X obj 331 339 int;
#X obj 331 365 pack f s;
#X msg 352 283 set symbol \$1;
#X obj 330 417 mergefilename /;
#X obj 349 443 mergefilename /;
#X obj 366 469 mergefilename /;
#X obj 385 495 mergefilename /;
#X obj 403 524 mergefilename /;
#X obj 422 550 mergefilename /;
#X msg 335 -73 location /home/mnb/archiv/sounds;
#N canvas 224 46 961 852 16counter 0;
#X obj 318 440 + 1;
#X obj 267 436 float;
#X obj 272 622 mod 2;
#X obj 210 672 delay 0;
#X obj 260 651 *;
#X msg 206 296 1;
#X obj 218 321 /;
#X obj 209 273 t f f;
#X obj 228 344 * 15000;
#X obj 339 355 t b f;
#X obj 263 405 metro 125;
#X obj 182 578 *;
#X obj 268 596 t b f f;
#X obj 136 130 hsl 80 8 0 0.4 0 1 empty empty swing -33 4 0 10 -262144
-1 -1 0 1;
#X msg 340 329 -2;
#X obj 251 700 int;
#X obj 172 17 loadbang;
#X floatatom 126 113 5 30 300 0 bpm - -;
#X msg -2 85 set \$1;
#X msg 5 139 110;
#X obj 174 112 bng 15 250 50 0 empty empty empty 6 7 0 10 -261234 -1
-1;
#X obj 253 737 outlet;
#X obj 570 496 outlet;
#X text 618 497 bpm->;
#X obj 200 112 bng 15 50 20 0 empty empty empty 6 7 0 10 -204786 -1
-1;
#X obj 208 225 float;
#X obj 435 539 outlet;
#X text 144 343 1/16 in ms;
#X text 485 540 pos96->;
#X text 178 628 swing;
#X obj 259 373 / 6;
#X text 219 371 1/96;
#X obj 343 481 / 6;
#X obj 343 505 int;
#X obj 342 530 change;
#X text 304 738 pos16swing->;
#X obj 600 64 + 1;
#X obj 602 29 float;
#X obj 600 96 moses 2;
#X obj 600 155 timer;
#X obj 600 123 t b;
#X obj 648 122 t b b;
#X obj 653 243 /;
#X msg 623 221 60000;
#X obj 618 183 t b f;
#X obj 656 268 moses 10;
#X text 500 72 beatcounter;
#X obj 772 358 float;
#X obj 769 401 + 1;
#X obj 688 426 +;
#X obj 729 396 *;
#X obj 705 328 t f b;
#X obj 698 464 /;
#X msg 884 211 0;
#X text 499 302 mean (as seen on idafx blog);
#X obj 906 259 bng 15 250 50 0 empty empty empty 17 7 0 10 -262144
-1 -1;
#X obj 864 324 t f f;
#X obj 921 503 moses 0.1;
#X text 880 303 reset;
#X obj 870 366 /;
#X obj 849 431 < 0.75;
#X obj 903 435 > 1.25;
#X obj 869 391 t f f;
#X obj 877 471 ||;
#X obj 174 54 t b b b;
#X obj 43 -7 inlet;
#X obj 107 -11 inlet;
#X connect 0 0 1 1;
#X connect 0 0 32 0;
#X connect 0 0 26 0;
#X connect 1 0 0 0;
#X connect 2 0 4 0;
#X connect 3 0 15 0;
#X connect 4 0 3 1;
#X connect 5 0 6 0;
#X connect 6 0 8 0;
#X connect 7 0 5 0;
#X connect 7 1 6 1;
#X connect 8 0 11 1;
#X connect 8 0 30 0;
#X connect 9 0 10 0;
#X connect 9 1 1 0;
#X connect 10 0 1 0;
#X connect 11 0 4 1;
#X connect 12 0 3 0;
#X connect 12 1 2 0;
#X connect 12 2 15 1;
#X connect 13 0 11 0;
#X connect 14 0 9 0;
#X connect 15 0 21 0;
#X connect 16 0 64 0;
#X connect 17 0 18 0;
#X connect 17 0 25 1;
#X connect 18 0 19 0;
#X connect 19 0 17 0;
#X connect 20 0 14 0;
#X connect 20 0 25 0;
#X connect 24 0 37 0;
#X connect 25 0 7 0;
#X connect 25 0 22 0;
#X connect 30 0 10 1;
#X connect 32 0 33 0;
#X connect 33 0 34 0;
#X connect 34 0 12 0;
#X connect 36 0 37 1;
#X connect 36 0 38 0;
#X connect 37 0 36 0;
#X connect 38 0 40 0;
#X connect 38 1 41 0;
#X connect 39 0 44 0;
#X connect 39 0 56 0;
#X connect 40 0 39 0;
#X connect 41 0 39 0;
#X connect 41 1 39 1;
#X connect 42 0 45 0;
#X connect 43 0 42 0;
#X connect 44 0 43 0;
#X connect 44 1 42 1;
#X connect 45 1 51 0;
#X connect 47 0 48 0;
#X connect 47 0 50 0;
#X connect 48 0 47 1;
#X connect 48 0 52 1;
#X connect 49 0 52 0;
#X connect 50 0 49 1;
#X connect 51 0 49 0;
#X connect 51 1 47 0;
#X connect 52 0 50 1;
#X connect 52 0 17 0;
#X connect 53 0 47 1;
#X connect 53 0 37 1;
#X connect 53 0 55 0;
#X connect 56 0 59 1;
#X connect 56 1 59 0;
#X connect 57 1 53 0;
#X connect 59 0 62 0;
#X connect 60 0 63 0;
#X connect 61 0 63 1;
#X connect 62 0 60 0;
#X connect 62 1 61 0;
#X connect 63 0 57 0;
#X connect 64 0 20 0;
#X connect 64 1 20 0;
#X connect 64 2 19 0;
#X connect 65 0 20 0;
#X connect 66 0 24 0;
#X coords 0 -1 1 1 120 40 1 100 100;
#X restore 6 5 pd 16counter;
#N canvas 105 38 1142 827 beatloop2 0;
#X floatatom 138 114 4 3 128 0 olen - -;
#X obj 109 163 hsl 123 8 0 1 0 0 empty empty empty -2 -6 0 8 -262144
-258699 -1 3812 1;
#X obj 96 -221 mod;
#X obj 16 -480 inlet;
#X obj -165 -450 inlet;
#X text 56 -479 <-bpm;
#X msg -17 -415 1;
#X obj 7 -391 /;
#X obj -20 -436 t f f;
#X obj 8 -362 * 15000;
#X text -69 -362 1/16 in ms;
#X obj 164 -119 /;
#X msg 133 -163 100;
#X obj 134 -195 t b f;
#X obj 126 -90 *;
#X obj 126 -65 t b f;
#X msg 91 -18 1;
#X floatatom 138 130 4 3 128 0 llen - -;
#X obj 205 4 /;
#X obj 155 -4 +;
#X obj 97 -246 +;
#X obj 229 -311 inlet;
#X text 273 -311 pos offset (1/16);
#X obj 332 -278 inlet;
#X text 383 -279 tp (semitones \, -36..36);
#X floatatom 204 130 4 -36 36 0 tp - -;
#X obj 489 -167 loadbang;
#X msg 327 20 set \$1;
#X msg 329 46 0;
#X msg 314 -62 set \$1;
#X msg 316 -36 16;
#X msg 389 39 set \$1;
#X msg 393 69 16;
#X floatatom 204 114 4 0 50 0 ofst - -;
#X msg 474 56 set \$1;
#X msg 466 84 0;
#X obj 135 461 soundfiler;
#X obj 372 536 loadbang;
#X msg 164 532 set \$1;
#X obj 478 1377 outlet~;
#X obj 329 572 t b b;
#X msg -36 942 0;
#X obj 140 840 pack;
#X obj 249 719 / 44.1;
#X msg 153 904 15592 265.17;
#X msg 157 865 set \$1 \$2;
#X obj 188 775 *;
#X obj 211 698 t b f b;
#X msg 564 633 1.05946;
#X obj 570 662 pow;
#X obj 554 569 * -1;
#X obj 54 1211 *~;
#X msg -3 910 -1 2.14145;
#X obj 17 194 hsl 128 8 100 160 0 1 empty empty slice_decay 0 -5 0
8 -262144 -1 -1 1400 1;
#X obj -14 1174 *~;
#X obj 10 522 dbtorms;
#X obj -133 575 moses 0.001;
#X obj -125 915 pack;
#X obj 18 216 hsl 128 8 100 150 0 1 empty empty slice_attack 0 -5 0
8 -262144 -1 -1 1300 1;
#X obj -113 535 dbtorms;
#X msg -121 981 1 1.80263;
#X msg -121 949 set \$1 \$2;
#X obj -63 684 t b b f;
#X obj -14 797 * -1;
#X msg 3 865 set \$1 \$2;
#X obj 6 836 pack;
#X obj -8 1143 +~;
#X text -120 1118 attack;
#X text 59 1112 release;
#X obj 553 597 t b f;
#X msg 81 882 3898;
#X obj 51 773 delay 1;
#X obj 51 796 t b b;
#X text 609 453 tp (semitones);
#X text -326 464 trigger/vel (0..1);
#X obj 133 766 *;
#X msg 46 827 set \$1;
#X obj 179 810 *;
#X obj 312 855 -;
#X msg 301 822 1;
#X text -145 461 duration (ms);
#X obj 286 776 t b b f;
#X obj 383 657 float;
#X msg -214 639 bang;
#X symbolatom 106 146 18 0 0 0 - - -;
#X text 437 432 sample start (percent);
#X obj 356 722 / 100;
#X obj 479 1342 +~;
#X obj -213 666 delay 1;
#X obj -268 480 pack;
#X obj -268 502 route 0 1;
#X obj -179 456 pack;
#X obj -182 490 route 0 1;
#X obj 408 451 pack;
#X obj 408 473 route 0 1;
#X obj 579 463 pack;
#X obj 579 485 route 0 1;
#X msg 838 943 0;
#X obj 1014 841 pack;
#X obj 1123 720 / 44.1;
#X msg 1027 905 15592 243.073;
#X msg 1031 866 set \$1 \$2;
#X obj 1062 776 *;
#X obj 1085 699 t b f b;
#X msg 1305 604 1.05946;
#X obj 1302 638 pow;
#X obj 1295 540 * -1;
#X msg 871 911 -1 2.14145;
#X obj 774 632 moses 0.001;
#X obj 755 913 pack;
#X msg 753 982 1 1.80263;
#X msg 753 950 set \$1 \$2;
#X obj 811 685 t b b f;
#X obj 860 798 * -1;
#X msg 877 866 set \$1 \$2;
#X obj 872 835 pack;
#X obj 866 1144 +~;
#X text 754 1119 attack;
#X text 933 1113 release;
#X obj 1294 568 t b f;
#X msg 955 883 4872.5;
#X obj 925 774 delay 1;
#X obj 925 797 t b b;
#X obj 1007 767 *;
#X msg 920 828 set \$1;
#X obj 1053 811 *;
#X obj 1186 856 -;
#X msg 1175 823 1;
#X obj 1160 777 t b b f;
#X obj 1242 673 float;
#X msg 780 663 bang;
#X obj 1230 723 / 100;
#X obj 745 742 delay 1;
#X text 635 783 2nd voice ->;
#X obj 963 1189 *~;
#X obj 1028 1028 vline~;
#X obj 176 1016 vline~;
#X obj 58 1092 vline~;
#X obj -97 1092 vline~;
#X obj 774 1091 vline~;
#X obj 931 1093 vline~;
#X text -219 317 <-voice nr;
#X obj -260 320 mod 2;
#X obj 131 238 splitfilename;
#X obj 561 164 inlet;
#X text 603 165 <-filename;
#X obj 142 483 t b a;
#X msg 112 733 15592;
#X msg 975 734 15592;
#X obj 157 341 t b a;
#X obj 145 374 pack \$0 s;
#X text -125 -450 <-pos;
#X msg 131 417 read -resize \$2 \$1mnbbbloop2;
#X obj 461 921 table \$0mnbbbloop2;
#X obj 1029 1104 tabread4~ \$0mnbbbloop2;
#X obj 153 1112 tabread4~ \$0mnbbbloop2;
#X msg 296 305 symbol /Users/Berenger/Documents/Programmation_audio/PureData/Sets/pdLive!_Samples/GlitchDrums/PWM8.wav
;
#X msg 396 270 set symbol \$1;
#X connect 0 0 13 0;
#X connect 0 0 29 0;
#X connect 2 0 18 0;
#X connect 2 0 14 0;
#X connect 3 0 8 0;
#X connect 4 0 20 0;
#X connect 4 0 142 0;
#X connect 6 0 7 0;
#X connect 7 0 9 0;
#X connect 8 0 6 0;
#X connect 8 1 7 1;
#X connect 9 0 91 1;
#X connect 11 0 14 1;
#X connect 12 0 11 0;
#X connect 13 0 12 0;
#X connect 13 1 11 1;
#X connect 14 0 15 0;
#X connect 15 0 16 0;
#X connect 15 1 19 0;
#X connect 16 0 89 1;
#X connect 17 0 31 0;
#X connect 17 0 2 1;
#X connect 17 0 18 1;
#X connect 18 0 1 0;
#X connect 19 0 93 1;
#X connect 20 0 2 0;
#X connect 21 0 20 1;
#X connect 23 0 25 0;
#X connect 25 0 27 0;
#X connect 25 0 95 1;
#X connect 26 0 28 0;
#X connect 26 0 30 0;
#X connect 26 0 32 0;
#X connect 26 0 35 0;
#X connect 26 0 156 0;
#X connect 27 0 28 0;
#X connect 28 0 25 0;
#X connect 29 0 30 0;
#X connect 30 0 0 0;
#X connect 31 0 32 0;
#X connect 32 0 17 0;
#X connect 33 0 34 0;
#X connect 33 0 19 1;
#X connect 34 0 35 0;
#X connect 35 0 33 0;
#X connect 36 0 146 0;
#X connect 37 0 40 0;
#X connect 38 0 147 0;
#X connect 38 0 148 0;
#X connect 40 0 147 0;
#X connect 40 0 148 0;
#X connect 41 0 137 0;
#X connect 41 0 138 0;
#X connect 42 0 45 0;
#X connect 43 0 46 1;
#X connect 44 0 136 0;
#X connect 45 0 44 0;
#X connect 46 0 77 0;
#X connect 47 0 42 0;
#X connect 47 1 46 0;
#X connect 47 2 147 0;
#X connect 48 0 49 0;
#X connect 49 0 82 0;
#X connect 50 0 69 0;
#X connect 51 0 87 0;
#X connect 52 0 137 0;
#X connect 53 0 55 0;
#X connect 54 0 51 0;
#X connect 55 0 65 1;
#X connect 55 0 115 1;
#X connect 56 1 62 0;
#X connect 56 1 71 0;
#X connect 56 1 83 0;
#X connect 57 0 61 0;
#X connect 58 0 59 0;
#X connect 59 0 57 1;
#X connect 59 0 109 1;
#X connect 60 0 138 0;
#X connect 61 0 60 0;
#X connect 62 0 60 0;
#X connect 62 1 41 0;
#X connect 62 2 57 0;
#X connect 62 2 63 0;
#X connect 63 0 65 0;
#X connect 64 0 52 0;
#X connect 65 0 64 0;
#X connect 66 0 54 0;
#X connect 66 0 54 1;
#X connect 69 0 48 0;
#X connect 69 1 49 1;
#X connect 70 0 136 0;
#X connect 71 0 72 0;
#X connect 72 0 44 0;
#X connect 72 1 70 0;
#X connect 75 0 76 0;
#X connect 76 0 70 0;
#X connect 77 0 42 1;
#X connect 78 0 77 1;
#X connect 79 0 78 0;
#X connect 81 0 82 0;
#X connect 81 1 79 0;
#X connect 81 2 78 1;
#X connect 82 0 47 0;
#X connect 83 0 88 0;
#X connect 86 0 81 0;
#X connect 86 0 75 0;
#X connect 87 0 39 0;
#X connect 88 0 52 0;
#X connect 89 0 90 0;
#X connect 90 0 56 0;
#X connect 90 1 108 0;
#X connect 91 0 92 0;
#X connect 92 0 88 1;
#X connect 92 1 132 1;
#X connect 93 0 94 0;
#X connect 94 0 86 0;
#X connect 94 1 131 0;
#X connect 95 0 96 0;
#X connect 96 0 50 0;
#X connect 96 1 106 0;
#X connect 97 0 139 0;
#X connect 97 0 140 0;
#X connect 98 0 101 0;
#X connect 99 0 102 1;
#X connect 100 0 135 0;
#X connect 101 0 100 0;
#X connect 102 0 125 0;
#X connect 103 0 98 0;
#X connect 103 1 102 0;
#X connect 103 2 148 0;
#X connect 104 0 105 0;
#X connect 105 0 129 0;
#X connect 106 0 119 0;
#X connect 107 0 140 0;
#X connect 108 1 112 0;
#X connect 108 1 121 0;
#X connect 108 1 130 0;
#X connect 109 0 111 0;
#X connect 110 0 139 0;
#X connect 111 0 110 0;
#X connect 112 0 110 0;
#X connect 112 1 97 0;
#X connect 112 2 109 0;
#X connect 112 2 113 0;
#X connect 113 0 115 0;
#X connect 114 0 107 0;
#X connect 115 0 114 0;
#X connect 116 0 134 0;
#X connect 119 0 104 0;
#X connect 119 1 105 1;
#X connect 120 0 135 0;
#X connect 121 0 122 0;
#X connect 122 0 100 0;
#X connect 122 1 120 0;
#X connect 123 0 124 0;
#X connect 124 0 120 0;
#X connect 125 0 98 1;
#X connect 126 0 125 1;
#X connect 127 0 126 0;
#X connect 128 0 129 0;
#X connect 128 1 127 0;
#X connect 128 2 126 1;
#X connect 129 0 103 0;
#X connect 130 0 132 0;
#X connect 131 0 128 0;
#X connect 131 0 123 0;
#X connect 132 0 107 0;
#X connect 134 0 87 1;
#X connect 135 0 154 0;
#X connect 136 0 155 0;
#X connect 137 0 66 1;
#X connect 138 0 66 0;
#X connect 139 0 116 0;
#X connect 140 0 116 1;
#X connect 142 0 89 0;
#X connect 142 0 91 0;
#X connect 142 0 93 0;
#X connect 142 0 95 0;
#X connect 143 1 84 0;
#X connect 144 0 157 0;
#X connect 144 0 143 0;
#X connect 144 0 149 0;
#X connect 146 0 147 0;
#X connect 146 0 148 0;
#X connect 146 1 38 0;
#X connect 147 0 43 0;
#X connect 147 0 42 0;
#X connect 147 0 75 1;
#X connect 148 0 99 0;
#X connect 148 0 98 0;
#X connect 148 0 123 1;
#X connect 149 0 150 0;
#X connect 149 1 150 1;
#X connect 150 0 152 0;
#X connect 152 0 36 0;
#X connect 154 0 134 1;
#X connect 155 0 51 1;
#X connect 156 0 149 0;
#X connect 156 0 143 0;
#X connect 157 0 156 0;
#X coords 0 -1 1 1 140 75 1 100 100;
#X restore 6 129 pd beatloop2;
#N canvas 105 38 1142 827 beatloop3 0;
#X floatatom 138 114 4 3 128 0 olen - -;
#X obj 109 163 hsl 123 8 0 1 0 0 empty empty empty -2 -6 0 8 -262144
-258699 -1 3812 1;
#X obj 96 -221 mod;
#X obj 16 -480 inlet;
#X obj -165 -450 inlet;
#X text 56 -479 <-bpm;
#X msg -17 -415 1;
#X obj 7 -391 /;
#X obj -20 -436 t f f;
#X obj 8 -362 * 15000;
#X text -69 -362 1/16 in ms;
#X obj 164 -119 /;
#X msg 133 -163 100;
#X obj 134 -195 t b f;
#X obj 126 -90 *;
#X obj 126 -65 t b f;
#X msg 91 -18 1;
#X floatatom 138 130 4 3 128 0 llen - -;
#X obj 205 4 /;
#X obj 155 -4 +;
#X obj 97 -246 +;
#X obj 229 -311 inlet;
#X text 273 -311 pos offset (1/16);
#X obj 332 -278 inlet;
#X text 383 -279 tp (semitones \, -36..36);
#X floatatom 204 130 4 -36 36 0 tp - -;
#X obj 489 -167 loadbang;
#X msg 327 20 set \$1;
#X msg 329 46 0;
#X msg 314 -62 set \$1;
#X msg 316 -36 16;
#X msg 389 39 set \$1;
#X msg 393 69 16;
#X floatatom 204 114 4 0 50 0 ofst - -;
#X msg 474 56 set \$1;
#X msg 466 84 0;
#X obj 135 461 soundfiler;
#X obj 372 536 loadbang;
#X msg 164 532 set \$1;
#X obj 478 1377 outlet~;
#X obj 329 572 t b b;
#X msg -36 942 0;
#X obj 140 840 pack;
#X obj 249 719 / 44.1;
#X msg 153 904 0 0;
#X msg 157 865 set \$1 \$2;
#X obj 188 775 *;
#X obj 211 698 t b f b;
#X msg 564 633 1.05946;
#X obj 570 662 pow;
#X obj 554 569 * -1;
#X obj 54 1211 *~;
#X msg -3 910 -1 2.14145;
#X obj 17 194 hsl 128 8 100 160 0 1 empty empty slice_decay 0 -5 0
8 -262144 -1 -1 1400 1;
#X obj -14 1174 *~;
#X obj 10 522 dbtorms;
#X obj -133 575 moses 0.001;
#X obj -125 915 pack;
#X obj 18 216 hsl 128 8 100 150 0 1 empty empty slice_attack 0 -5 0
8 -262144 -1 -1 1300 1;
#X obj -113 535 dbtorms;
#X msg -121 981 1 1.80263;
#X msg -121 949 set \$1 \$2;
#X obj -63 684 t b b f;
#X obj -14 797 * -1;
#X msg 3 865 set \$1 \$2;
#X obj 6 836 pack;
#X obj -8 1143 +~;
#X text -120 1118 attack;
#X text 59 1112 release;
#X obj 553 597 t b f;
#X msg 81 882 0;
#X obj 51 773 delay 1;
#X obj 51 796 t b b;
#X text 609 453 tp (semitones);
#X text -326 464 trigger/vel (0..1);
#X obj 133 766 *;
#X msg 46 827 set \$1;
#X obj 179 810 *;
#X obj 312 855 -;
#X msg 301 822 1;
#X text -145 461 duration (ms);
#X obj 286 776 t b b f;
#X obj 383 657 float;
#X msg -214 639 bang;
#X symbolatom 106 146 18 0 0 0 - - -;
#X text 437 432 sample start (percent);
#X obj 356 722 / 100;
#X obj 479 1342 +~;
#X obj -213 666 delay 1;
#X obj -268 480 pack;
#X obj -268 502 route 0 1;
#X obj -179 456 pack;
#X obj -182 490 route 0 1;
#X obj 408 451 pack;
#X obj 408 473 route 0 1;
#X obj 579 463 pack;
#X obj 579 485 route 0 1;
#X msg 838 943 0;
#X obj 1014 841 pack;
#X obj 1123 720 / 44.1;
#X msg 1027 905 0 0;
#X msg 1031 866 set \$1 \$2;
#X obj 1062 776 *;
#X obj 1085 699 t b f b;
#X msg 1305 604 1.05946;
#X obj 1302 638 pow;
#X obj 1295 540 * -1;
#X msg 871 911 -1 2.14145;
#X obj 774 632 moses 0.001;
#X obj 755 913 pack;
#X msg 753 982 1 1.80263;
#X msg 753 950 set \$1 \$2;
#X obj 811 685 t b b f;
#X obj 860 798 * -1;
#X msg 877 866 set \$1 \$2;
#X obj 872 835 pack;
#X obj 866 1144 +~;
#X text 754 1119 attack;
#X text 933 1113 release;
#X obj 1294 568 t b f;
#X msg 955 883 0;
#X obj 925 774 delay 1;
#X obj 925 797 t b b;
#X obj 1007 767 *;
#X msg 920 828 set \$1;
#X obj 1053 811 *;
#X obj 1186 856 -;
#X msg 1175 823 1;
#X obj 1160 777 t b b f;
#X obj 1242 673 float;
#X msg 780 663 bang;
#X obj 1230 723 / 100;
#X obj 745 742 delay 1;
#X text 635 783 2nd voice ->;
#X obj 963 1189 *~;
#X obj 1028 1028 vline~;
#X obj 176 1016 vline~;
#X obj 58 1092 vline~;
#X obj -97 1092 vline~;
#X obj 774 1091 vline~;
#X obj 931 1093 vline~;
#X text -219 317 <-voice nr;
#X obj -260 320 mod 2;
#X obj 131 238 splitfilename;
#X obj 513 162 inlet;
#X text 555 163 <-filename;
#X obj 142 483 t b a;
#X msg 112 733 0;
#X msg 975 734 0;
#X obj 157 341 t b a;
#X obj 145 374 pack \$0 s;
#X text -125 -450 <-pos;
#X msg 293 308;
#X msg 352 279 set symbol \$1;
#X msg 131 417 read -resize \$2 \$1mnbbbloop3;
#X obj 461 921 table \$0mnbbbloop3;
#X obj 153 1112 tabread4~ \$0mnbbbloop3;
#X obj 1029 1105 tabread4~ \$0mnbbbloop3;
#X connect 0 0 13 0;
#X connect 0 0 29 0;
#X connect 2 0 18 0;
#X connect 2 0 14 0;
#X connect 3 0 8 0;
#X connect 4 0 20 0;
#X connect 4 0 142 0;
#X connect 6 0 7 0;
#X connect 7 0 9 0;
#X connect 8 0 6 0;
#X connect 8 1 7 1;
#X connect 9 0 91 1;
#X connect 11 0 14 1;
#X connect 12 0 11 0;
#X connect 13 0 12 0;
#X connect 13 1 11 1;
#X connect 14 0 15 0;
#X connect 15 0 16 0;
#X connect 15 1 19 0;
#X connect 16 0 89 1;
#X connect 17 0 31 0;
#X connect 17 0 2 1;
#X connect 17 0 18 1;
#X connect 18 0 1 0;
#X connect 19 0 93 1;
#X connect 20 0 2 0;
#X connect 21 0 20 1;
#X connect 23 0 25 0;
#X connect 25 0 27 0;
#X connect 25 0 95 1;
#X connect 26 0 28 0;
#X connect 26 0 30 0;
#X connect 26 0 32 0;
#X connect 26 0 35 0;
#X connect 26 0 152 0;
#X connect 27 0 28 0;
#X connect 28 0 25 0;
#X connect 29 0 30 0;
#X connect 30 0 0 0;
#X connect 31 0 32 0;
#X connect 32 0 17 0;
#X connect 33 0 34 0;
#X connect 33 0 19 1;
#X connect 34 0 35 0;
#X connect 35 0 33 0;
#X connect 36 0 146 0;
#X connect 37 0 40 0;
#X connect 38 0 147 0;
#X connect 38 0 148 0;
#X connect 40 0 147 0;
#X connect 40 0 148 0;
#X connect 41 0 137 0;
#X connect 41 0 138 0;
#X connect 42 0 45 0;
#X connect 43 0 46 1;
#X connect 44 0 136 0;
#X connect 45 0 44 0;
#X connect 46 0 77 0;
#X connect 47 0 42 0;
#X connect 47 1 46 0;
#X connect 47 2 147 0;
#X connect 48 0 49 0;
#X connect 49 0 82 0;
#X connect 50 0 69 0;
#X connect 51 0 87 0;
#X connect 52 0 137 0;
#X connect 53 0 55 0;
#X connect 54 0 51 0;
#X connect 55 0 65 1;
#X connect 55 0 115 1;
#X connect 56 1 62 0;
#X connect 56 1 71 0;
#X connect 56 1 83 0;
#X connect 57 0 61 0;
#X connect 58 0 59 0;
#X connect 59 0 57 1;
#X connect 59 0 109 1;
#X connect 60 0 138 0;
#X connect 61 0 60 0;
#X connect 62 0 60 0;
#X connect 62 1 41 0;
#X connect 62 2 57 0;
#X connect 62 2 63 0;
#X connect 63 0 65 0;
#X connect 64 0 52 0;
#X connect 65 0 64 0;
#X connect 66 0 54 0;
#X connect 66 0 54 1;
#X connect 69 0 48 0;
#X connect 69 1 49 1;
#X connect 70 0 136 0;
#X connect 71 0 72 0;
#X connect 72 0 44 0;
#X connect 72 1 70 0;
#X connect 75 0 76 0;
#X connect 76 0 70 0;
#X connect 77 0 42 1;
#X connect 78 0 77 1;
#X connect 79 0 78 0;
#X connect 81 0 82 0;
#X connect 81 1 79 0;
#X connect 81 2 78 1;
#X connect 82 0 47 0;
#X connect 83 0 88 0;
#X connect 86 0 81 0;
#X connect 86 0 75 0;
#X connect 87 0 39 0;
#X connect 88 0 52 0;
#X connect 89 0 90 0;
#X connect 90 0 56 0;
#X connect 90 1 108 0;
#X connect 91 0 92 0;
#X connect 92 0 88 1;
#X connect 92 1 132 1;
#X connect 93 0 94 0;
#X connect 94 0 86 0;
#X connect 94 1 131 0;
#X connect 95 0 96 0;
#X connect 96 0 50 0;
#X connect 96 1 106 0;
#X connect 97 0 139 0;
#X connect 97 0 140 0;
#X connect 98 0 101 0;
#X connect 99 0 102 1;
#X connect 100 0 135 0;
#X connect 101 0 100 0;
#X connect 102 0 125 0;
#X connect 103 0 98 0;
#X connect 103 1 102 0;
#X connect 103 2 148 0;
#X connect 104 0 105 0;
#X connect 105 0 129 0;
#X connect 106 0 119 0;
#X connect 107 0 140 0;
#X connect 108 1 112 0;
#X connect 108 1 121 0;
#X connect 108 1 130 0;
#X connect 109 0 111 0;
#X connect 110 0 139 0;
#X connect 111 0 110 0;
#X connect 112 0 110 0;
#X connect 112 1 97 0;
#X connect 112 2 109 0;
#X connect 112 2 113 0;
#X connect 113 0 115 0;
#X connect 114 0 107 0;
#X connect 115 0 114 0;
#X connect 116 0 134 0;
#X connect 119 0 104 0;
#X connect 119 1 105 1;
#X connect 120 0 135 0;
#X connect 121 0 122 0;
#X connect 122 0 100 0;
#X connect 122 1 120 0;
#X connect 123 0 124 0;
#X connect 124 0 120 0;
#X connect 125 0 98 1;
#X connect 126 0 125 1;
#X connect 127 0 126 0;
#X connect 128 0 129 0;
#X connect 128 1 127 0;
#X connect 128 2 126 1;
#X connect 129 0 103 0;
#X connect 130 0 132 0;
#X connect 131 0 128 0;
#X connect 131 0 123 0;
#X connect 132 0 107 0;
#X connect 134 0 87 1;
#X connect 135 0 157 0;
#X connect 136 0 156 0;
#X connect 137 0 66 1;
#X connect 138 0 66 0;
#X connect 139 0 116 0;
#X connect 140 0 116 1;
#X connect 142 0 89 0;
#X connect 142 0 91 0;
#X connect 142 0 93 0;
#X connect 142 0 95 0;
#X connect 143 1 84 0;
#X connect 144 0 153 0;
#X connect 144 0 143 0;
#X connect 144 0 149 0;
#X connect 146 0 147 0;
#X connect 146 0 148 0;
#X connect 146 1 38 0;
#X connect 147 0 43 0;
#X connect 147 0 42 0;
#X connect 147 0 75 1;
#X connect 148 0 99 0;
#X connect 148 0 98 0;
#X connect 148 0 123 1;
#X connect 149 0 150 0;
#X connect 149 1 150 1;
#X connect 150 0 154 0;
#X connect 152 0 149 0;
#X connect 152 0 143 0;
#X connect 153 0 152 0;
#X connect 154 0 36 0;
#X connect 156 0 51 1;
#X connect 157 0 134 1;
#X coords 0 -1 1 1 140 75 1 100 100;
#X restore 7 211 pd beatloop3;
#N canvas 105 38 1142 827 beatloop4 0;
#X floatatom 138 114 4 3 128 0 olen - -;
#X obj 109 163 hsl 123 8 0 1 0 0 empty empty empty -2 -6 0 8 -262144
-258699 -1 3812 1;
#X obj 96 -221 mod;
#X obj 16 -480 inlet;
#X obj -165 -450 inlet;
#X text 56 -479 <-bpm;
#X msg -17 -415 1;
#X obj 7 -391 /;
#X obj -20 -436 t f f;
#X obj 8 -362 * 15000;
#X text -69 -362 1/16 in ms;
#X obj 164 -119 /;
#X msg 133 -163 100;
#X obj 134 -195 t b f;
#X obj 126 -90 *;
#X obj 126 -65 t b f;
#X msg 91 -18 1;
#X floatatom 138 130 4 3 128 0 llen - -;
#X obj 205 4 /;
#X obj 155 -4 +;
#X obj 97 -246 +;
#X obj 229 -311 inlet;
#X text 273 -311 pos offset (1/16);
#X obj 332 -278 inlet;
#X text 383 -279 tp (semitones \, -36..36);
#X floatatom 204 130 4 -36 36 0 tp - -;
#X obj 489 -167 loadbang;
#X msg 327 20 set \$1;
#X msg 329 46 0;
#X msg 314 -62 set \$1;
#X msg 316 -36 16;
#X msg 389 39 set \$1;
#X msg 393 69 16;
#X floatatom 204 114 4 0 50 0 ofst - -;
#X msg 474 56 set \$1;
#X msg 466 84 0;
#X obj 135 461 soundfiler;
#X obj 372 536 loadbang;
#X msg 164 532 set \$1;
#X obj 478 1377 outlet~;
#X obj 329 572 t b b;
#X msg -36 942 0;
#X obj 140 840 pack;
#X obj 249 719 / 44.1;
#X msg 153 904 0 0;
#X msg 157 865 set \$1 \$2;
#X obj 188 775 *;
#X obj 211 698 t b f b;
#X msg 564 633 1.05946;
#X obj 570 662 pow;
#X obj 554 569 * -1;
#X obj 54 1211 *~;
#X msg -3 910 -1 2.14145;
#X obj 17 194 hsl 128 8 100 160 0 1 empty empty slice_decay 0 -5 0
8 -262144 -1 -1 1400 1;
#X obj -14 1174 *~;
#X obj 10 522 dbtorms;
#X obj -133 575 moses 0.001;
#X obj -125 915 pack;
#X obj 18 216 hsl 128 8 100 150 0 1 empty empty slice_attack 0 -5 0
8 -262144 -1 -1 1300 1;
#X obj -113 535 dbtorms;
#X msg -121 981 1 1.80263;
#X msg -121 949 set \$1 \$2;
#X obj -63 684 t b b f;
#X obj -14 797 * -1;
#X msg 3 865 set \$1 \$2;
#X obj 6 836 pack;
#X obj -8 1143 +~;
#X text -120 1118 attack;
#X text 59 1112 release;
#X obj 553 597 t b f;
#X msg 81 882 0;
#X obj 51 773 delay 1;
#X obj 51 796 t b b;
#X text 609 453 tp (semitones);
#X text -326 464 trigger/vel (0..1);
#X obj 133 766 *;
#X msg 46 827 set \$1;
#X obj 179 810 *;
#X obj 312 855 -;
#X msg 301 822 1;
#X text -145 461 duration (ms);
#X obj 286 776 t b b f;
#X obj 383 657 float;
#X msg -214 639 bang;
#X symbolatom 106 146 18 0 0 0 - - -;
#X text 437 432 sample start (percent);
#X obj 356 722 / 100;
#X obj 479 1342 +~;
#X obj -213 666 delay 1;
#X obj -268 480 pack;
#X obj -268 502 route 0 1;
#X obj -179 456 pack;
#X obj -182 490 route 0 1;
#X obj 408 451 pack;
#X obj 408 473 route 0 1;
#X obj 579 463 pack;
#X obj 579 485 route 0 1;
#X msg 838 943 0;
#X obj 1014 841 pack;
#X obj 1123 720 / 44.1;
#X msg 1027 905 0 0;
#X msg 1031 866 set \$1 \$2;
#X obj 1062 776 *;
#X obj 1085 699 t b f b;
#X msg 1305 604 1.05946;
#X obj 1302 638 pow;
#X obj 1295 540 * -1;
#X msg 871 911 -1 2.14145;
#X obj 774 632 moses 0.001;
#X obj 755 913 pack;
#X msg 753 982 1 1.80263;
#X msg 753 950 set \$1 \$2;
#X obj 811 685 t b b f;
#X obj 860 798 * -1;
#X msg 877 866 set \$1 \$2;
#X obj 872 835 pack;
#X obj 866 1144 +~;
#X text 754 1119 attack;
#X text 933 1113 release;
#X obj 1294 568 t b f;
#X msg 955 883 0;
#X obj 925 774 delay 1;
#X obj 925 797 t b b;
#X obj 1007 767 *;
#X msg 920 828 set \$1;
#X obj 1053 811 *;
#X obj 1186 856 -;
#X msg 1175 823 1;
#X obj 1160 777 t b b f;
#X obj 1242 673 float;
#X msg 780 663 bang;
#X obj 1230 723 / 100;
#X obj 745 742 delay 1;
#X text 635 783 2nd voice ->;
#X obj 963 1189 *~;
#X obj 1028 1028 vline~;
#X obj 176 1016 vline~;
#X obj 58 1092 vline~;
#X obj -97 1092 vline~;
#X obj 774 1091 vline~;
#X obj 931 1093 vline~;
#X text -219 317 <-voice nr;
#X obj -260 320 mod 2;
#X obj 131 238 splitfilename;
#X obj 561 164 inlet;
#X text 603 165 <-filename;
#X obj 142 483 t b a;
#X msg 112 733 0;
#X msg 975 734 0;
#X obj 157 341 t b a;
#X obj 145 374 pack \$0 s;
#X text -125 -450 <-pos;
#X msg 296 305;
#X msg 396 270 set symbol \$1;
#X obj 461 921 table \$0mnbbbloop4;
#X obj 153 1112 tabread4~ \$0mnbbbloop4;
#X obj 1029 1104 tabread4~ \$0mnbbbloop4;
#X msg 131 417 read -resize \$2 \$1mnbbbloop4;
#X connect 0 0 13 0;
#X connect 0 0 29 0;
#X connect 2 0 18 0;
#X connect 2 0 14 0;
#X connect 3 0 8 0;
#X connect 4 0 20 0;
#X connect 4 0 142 0;
#X connect 6 0 7 0;
#X connect 7 0 9 0;
#X connect 8 0 6 0;
#X connect 8 1 7 1;
#X connect 9 0 91 1;
#X connect 11 0 14 1;
#X connect 12 0 11 0;
#X connect 13 0 12 0;
#X connect 13 1 11 1;
#X connect 14 0 15 0;
#X connect 15 0 16 0;
#X connect 15 1 19 0;
#X connect 16 0 89 1;
#X connect 17 0 31 0;
#X connect 17 0 2 1;
#X connect 17 0 18 1;
#X connect 18 0 1 0;
#X connect 19 0 93 1;
#X connect 20 0 2 0;
#X connect 21 0 20 1;
#X connect 23 0 25 0;
#X connect 25 0 27 0;
#X connect 25 0 95 1;
#X connect 26 0 28 0;
#X connect 26 0 30 0;
#X connect 26 0 32 0;
#X connect 26 0 35 0;
#X connect 26 0 152 0;
#X connect 27 0 28 0;
#X connect 28 0 25 0;
#X connect 29 0 30 0;
#X connect 30 0 0 0;
#X connect 31 0 32 0;
#X connect 32 0 17 0;
#X connect 33 0 34 0;
#X connect 33 0 19 1;
#X connect 34 0 35 0;
#X connect 35 0 33 0;
#X connect 36 0 146 0;
#X connect 37 0 40 0;
#X connect 38 0 147 0;
#X connect 38 0 148 0;
#X connect 40 0 147 0;
#X connect 40 0 148 0;
#X connect 41 0 137 0;
#X connect 41 0 138 0;
#X connect 42 0 45 0;
#X connect 43 0 46 1;
#X connect 44 0 136 0;
#X connect 45 0 44 0;
#X connect 46 0 77 0;
#X connect 47 0 42 0;
#X connect 47 1 46 0;
#X connect 47 2 147 0;
#X connect 48 0 49 0;
#X connect 49 0 82 0;
#X connect 50 0 69 0;
#X connect 51 0 87 0;
#X connect 52 0 137 0;
#X connect 53 0 55 0;
#X connect 54 0 51 0;
#X connect 55 0 65 1;
#X connect 55 0 115 1;
#X connect 56 1 62 0;
#X connect 56 1 71 0;
#X connect 56 1 83 0;
#X connect 57 0 61 0;
#X connect 58 0 59 0;
#X connect 59 0 57 1;
#X connect 59 0 109 1;
#X connect 60 0 138 0;
#X connect 61 0 60 0;
#X connect 62 0 60 0;
#X connect 62 1 41 0;
#X connect 62 2 57 0;
#X connect 62 2 63 0;
#X connect 63 0 65 0;
#X connect 64 0 52 0;
#X connect 65 0 64 0;
#X connect 66 0 54 0;
#X connect 66 0 54 1;
#X connect 69 0 48 0;
#X connect 69 1 49 1;
#X connect 70 0 136 0;
#X connect 71 0 72 0;
#X connect 72 0 44 0;
#X connect 72 1 70 0;
#X connect 75 0 76 0;
#X connect 76 0 70 0;
#X connect 77 0 42 1;
#X connect 78 0 77 1;
#X connect 79 0 78 0;
#X connect 81 0 82 0;
#X connect 81 1 79 0;
#X connect 81 2 78 1;
#X connect 82 0 47 0;
#X connect 83 0 88 0;
#X connect 86 0 81 0;
#X connect 86 0 75 0;
#X connect 87 0 39 0;
#X connect 88 0 52 0;
#X connect 89 0 90 0;
#X connect 90 0 56 0;
#X connect 90 1 108 0;
#X connect 91 0 92 0;
#X connect 92 0 88 1;
#X connect 92 1 132 1;
#X connect 93 0 94 0;
#X connect 94 0 86 0;
#X connect 94 1 131 0;
#X connect 95 0 96 0;
#X connect 96 0 50 0;
#X connect 96 1 106 0;
#X connect 97 0 139 0;
#X connect 97 0 140 0;
#X connect 98 0 101 0;
#X connect 99 0 102 1;
#X connect 100 0 135 0;
#X connect 101 0 100 0;
#X connect 102 0 125 0;
#X connect 103 0 98 0;
#X connect 103 1 102 0;
#X connect 103 2 148 0;
#X connect 104 0 105 0;
#X connect 105 0 129 0;
#X connect 106 0 119 0;
#X connect 107 0 140 0;
#X connect 108 1 112 0;
#X connect 108 1 121 0;
#X connect 108 1 130 0;
#X connect 109 0 111 0;
#X connect 110 0 139 0;
#X connect 111 0 110 0;
#X connect 112 0 110 0;
#X connect 112 1 97 0;
#X connect 112 2 109 0;
#X connect 112 2 113 0;
#X connect 113 0 115 0;
#X connect 114 0 107 0;
#X connect 115 0 114 0;
#X connect 116 0 134 0;
#X connect 119 0 104 0;
#X connect 119 1 105 1;
#X connect 120 0 135 0;
#X connect 121 0 122 0;
#X connect 122 0 100 0;
#X connect 122 1 120 0;
#X connect 123 0 124 0;
#X connect 124 0 120 0;
#X connect 125 0 98 1;
#X connect 126 0 125 1;
#X connect 127 0 126 0;
#X connect 128 0 129 0;
#X connect 128 1 127 0;
#X connect 128 2 126 1;
#X connect 129 0 103 0;
#X connect 130 0 132 0;
#X connect 131 0 128 0;
#X connect 131 0 123 0;
#X connect 132 0 107 0;
#X connect 134 0 87 1;
#X connect 135 0 156 0;
#X connect 136 0 155 0;
#X connect 137 0 66 1;
#X connect 138 0 66 0;
#X connect 139 0 116 0;
#X connect 140 0 116 1;
#X connect 142 0 89 0;
#X connect 142 0 91 0;
#X connect 142 0 93 0;
#X connect 142 0 95 0;
#X connect 143 1 84 0;
#X connect 144 0 153 0;
#X connect 144 0 143 0;
#X connect 144 0 149 0;
#X connect 146 0 147 0;
#X connect 146 0 148 0;
#X connect 146 1 38 0;
#X connect 147 0 43 0;
#X connect 147 0 42 0;
#X connect 147 0 75 1;
#X connect 148 0 99 0;
#X connect 148 0 98 0;
#X connect 148 0 123 1;
#X connect 149 0 150 0;
#X connect 149 1 150 1;
#X connect 150 0 157 0;
#X connect 152 0 149 0;
#X connect 152 0 143 0;
#X connect 153 0 152 0;
#X connect 155 0 51 1;
#X connect 156 0 134 1;
#X connect 157 0 36 0;
#X coords 0 -1 1 1 140 75 1 100 100;
#X restore 165 49 pd beatloop4;
#N canvas 105 38 1142 827 beatloop5 0;
#X floatatom 138 114 4 3 128 0 olen - -;
#X obj 109 163 hsl 123 8 0 1 0 0 empty empty empty -2 -6 0 8 -262144
-258699 -1 3812 1;
#X obj 96 -221 mod;
#X obj 16 -480 inlet;
#X obj -165 -450 inlet;
#X text 56 -479 <-bpm;
#X msg -17 -415 1;
#X obj 7 -391 /;
#X obj -20 -436 t f f;
#X obj 8 -362 * 15000;
#X text -69 -362 1/16 in ms;
#X obj 164 -119 /;
#X msg 133 -163 100;
#X obj 134 -195 t b f;
#X obj 126 -90 *;
#X obj 126 -65 t b f;
#X msg 91 -18 1;
#X floatatom 138 130 4 3 128 0 llen - -;
#X obj 205 4 /;
#X obj 155 -4 +;
#X obj 97 -246 +;
#X obj 229 -311 inlet;
#X text 273 -311 pos offset (1/16);
#X obj 332 -278 inlet;
#X text 383 -279 tp (semitones \, -36..36);
#X floatatom 204 130 4 -36 36 0 tp - -;
#X obj 489 -167 loadbang;
#X msg 327 20 set \$1;
#X msg 329 46 0;
#X msg 314 -62 set \$1;
#X msg 316 -36 16;
#X msg 389 39 set \$1;
#X msg 393 69 16;
#X floatatom 204 114 4 0 50 0 ofst - -;
#X msg 474 56 set \$1;
#X msg 466 84 0;
#X obj 135 461 soundfiler;
#X obj 372 536 loadbang;
#X msg 164 532 set \$1;
#X obj 478 1377 outlet~;
#X obj 329 572 t b b;
#X msg -36 942 0;
#X obj 140 840 pack;
#X obj 249 719 / 44.1;
#X msg 153 904 0 0;
#X msg 157 865 set \$1 \$2;
#X obj 188 775 *;
#X obj 211 698 t b f b;
#X msg 564 633 1.05946;
#X obj 570 662 pow;
#X obj 554 569 * -1;
#X obj 54 1211 *~;
#X msg -3 910 -1 2.14145;
#X obj 17 194 hsl 128 8 100 160 0 1 empty empty slice_decay 0 -5 0
8 -262144 -1 -1 1400 1;
#X obj -14 1174 *~;
#X obj 10 522 dbtorms;
#X obj -133 575 moses 0.001;
#X obj -125 915 pack;
#X obj 18 216 hsl 128 8 100 150 0 1 empty empty slice_attack 0 -5 0
8 -262144 -1 -1 1300 1;
#X obj -113 535 dbtorms;
#X msg -121 981 1 1.80263;
#X msg -121 949 set \$1 \$2;
#X obj -63 684 t b b f;
#X obj -14 797 * -1;
#X msg 3 865 set \$1 \$2;
#X obj 6 836 pack;
#X obj -8 1143 +~;
#X text -120 1118 attack;
#X text 59 1112 release;
#X obj 553 597 t b f;
#X msg 81 882 0;
#X obj 51 773 delay 1;
#X obj 51 796 t b b;
#X text 609 453 tp (semitones);
#X text -326 464 trigger/vel (0..1);
#X obj 133 766 *;
#X msg 46 827 set \$1;
#X obj 179 810 *;
#X obj 312 855 -;
#X msg 301 822 1;
#X text -145 461 duration (ms);
#X obj 286 776 t b b f;
#X obj 383 657 float;
#X msg -214 639 bang;
#X symbolatom 106 146 18 0 0 0 - - -;
#X text 437 432 sample start (percent);
#X obj 356 722 / 100;
#X obj 479 1342 +~;
#X obj -213 666 delay 1;
#X obj -268 480 pack;
#X obj -268 502 route 0 1;
#X obj -179 456 pack;
#X obj -182 490 route 0 1;
#X obj 408 451 pack;
#X obj 408 473 route 0 1;
#X obj 579 463 pack;
#X obj 579 485 route 0 1;
#X msg 838 943 0;
#X obj 1014 841 pack;
#X obj 1123 720 / 44.1;
#X msg 1027 905 0 0;
#X msg 1031 866 set \$1 \$2;
#X obj 1062 776 *;
#X obj 1085 699 t b f b;
#X msg 1305 604 1.05946;
#X obj 1302 638 pow;
#X obj 1295 540 * -1;
#X msg 871 911 -1 2.14145;
#X obj 774 632 moses 0.001;
#X obj 755 913 pack;
#X msg 753 982 1 1.80263;
#X msg 753 950 set \$1 \$2;
#X obj 811 685 t b b f;
#X obj 860 798 * -1;
#X msg 877 866 set \$1 \$2;
#X obj 872 835 pack;
#X obj 866 1144 +~;
#X text 754 1119 attack;
#X text 933 1113 release;
#X obj 1294 568 t b f;
#X msg 955 883 0;
#X obj 925 774 delay 1;
#X obj 925 797 t b b;
#X obj 1007 767 *;
#X msg 920 828 set \$1;
#X obj 1053 811 *;
#X obj 1186 856 -;
#X msg 1175 823 1;
#X obj 1160 777 t b b f;
#X obj 1242 673 float;
#X msg 780 663 bang;
#X obj 1230 723 / 100;
#X obj 745 742 delay 1;
#X text 635 783 2nd voice ->;
#X obj 963 1189 *~;
#X obj 1028 1028 vline~;
#X obj 176 1016 vline~;
#X obj 58 1092 vline~;
#X obj -97 1092 vline~;
#X obj 774 1091 vline~;
#X obj 931 1093 vline~;
#X text -219 317 <-voice nr;
#X obj -260 320 mod 2;
#X obj 131 238 splitfilename;
#X obj 513 162 inlet;
#X text 555 163 <-filename;
#X obj 142 483 t b a;
#X msg 112 733 0;
#X msg 975 734 0;
#X obj 157 341 t b a;
#X obj 145 374 pack \$0 s;
#X text -125 -450 <-pos;
#X msg 293 308;
#X msg 352 279 set symbol \$1;
#X msg 131 417 read -resize \$2 \$1mnbbbloop5;
#X obj 461 921 table \$0mnbbbloop5;
#X obj 154 1112 tabread4~ \$0mnbbbloop5;
#X obj 1029 1105 tabread4~ \$0mnbbbloop5;
#X connect 0 0 13 0;
#X connect 0 0 29 0;
#X connect 2 0 18 0;
#X connect 2 0 14 0;
#X connect 3 0 8 0;
#X connect 4 0 20 0;
#X connect 4 0 142 0;
#X connect 6 0 7 0;
#X connect 7 0 9 0;
#X connect 8 0 6 0;
#X connect 8 1 7 1;
#X connect 9 0 91 1;
#X connect 11 0 14 1;
#X connect 12 0 11 0;
#X connect 13 0 12 0;
#X connect 13 1 11 1;
#X connect 14 0 15 0;
#X connect 15 0 16 0;
#X connect 15 1 19 0;
#X connect 16 0 89 1;
#X connect 17 0 31 0;
#X connect 17 0 2 1;
#X connect 17 0 18 1;
#X connect 18 0 1 0;
#X connect 19 0 93 1;
#X connect 20 0 2 0;
#X connect 21 0 20 1;
#X connect 23 0 25 0;
#X connect 25 0 27 0;
#X connect 25 0 95 1;
#X connect 26 0 28 0;
#X connect 26 0 30 0;
#X connect 26 0 32 0;
#X connect 26 0 35 0;
#X connect 26 0 152 0;
#X connect 27 0 28 0;
#X connect 28 0 25 0;
#X connect 29 0 30 0;
#X connect 30 0 0 0;
#X connect 31 0 32 0;
#X connect 32 0 17 0;
#X connect 33 0 34 0;
#X connect 33 0 19 1;
#X connect 34 0 35 0;
#X connect 35 0 33 0;
#X connect 36 0 146 0;
#X connect 37 0 40 0;
#X connect 38 0 147 0;
#X connect 38 0 148 0;
#X connect 40 0 147 0;
#X connect 40 0 148 0;
#X connect 41 0 137 0;
#X connect 41 0 138 0;
#X connect 42 0 45 0;
#X connect 43 0 46 1;
#X connect 44 0 136 0;
#X connect 45 0 44 0;
#X connect 46 0 77 0;
#X connect 47 0 42 0;
#X connect 47 1 46 0;
#X connect 47 2 147 0;
#X connect 48 0 49 0;
#X connect 49 0 82 0;
#X connect 50 0 69 0;
#X connect 51 0 87 0;
#X connect 52 0 137 0;
#X connect 53 0 55 0;
#X connect 54 0 51 0;
#X connect 55 0 65 1;
#X connect 55 0 115 1;
#X connect 56 1 62 0;
#X connect 56 1 71 0;
#X connect 56 1 83 0;
#X connect 57 0 61 0;
#X connect 58 0 59 0;
#X connect 59 0 57 1;
#X connect 59 0 109 1;
#X connect 60 0 138 0;
#X connect 61 0 60 0;
#X connect 62 0 60 0;
#X connect 62 1 41 0;
#X connect 62 2 57 0;
#X connect 62 2 63 0;
#X connect 63 0 65 0;
#X connect 64 0 52 0;
#X connect 65 0 64 0;
#X connect 66 0 54 0;
#X connect 66 0 54 1;
#X connect 69 0 48 0;
#X connect 69 1 49 1;
#X connect 70 0 136 0;
#X connect 71 0 72 0;
#X connect 72 0 44 0;
#X connect 72 1 70 0;
#X connect 75 0 76 0;
#X connect 76 0 70 0;
#X connect 77 0 42 1;
#X connect 78 0 77 1;
#X connect 79 0 78 0;
#X connect 81 0 82 0;
#X connect 81 1 79 0;
#X connect 81 2 78 1;
#X connect 82 0 47 0;
#X connect 83 0 88 0;
#X connect 86 0 81 0;
#X connect 86 0 75 0;
#X connect 87 0 39 0;
#X connect 88 0 52 0;
#X connect 89 0 90 0;
#X connect 90 0 56 0;
#X connect 90 1 108 0;
#X connect 91 0 92 0;
#X connect 92 0 88 1;
#X connect 92 1 132 1;
#X connect 93 0 94 0;
#X connect 94 0 86 0;
#X connect 94 1 131 0;
#X connect 95 0 96 0;
#X connect 96 0 50 0;
#X connect 96 1 106 0;
#X connect 97 0 139 0;
#X connect 97 0 140 0;
#X connect 98 0 101 0;
#X connect 99 0 102 1;
#X connect 100 0 135 0;
#X connect 101 0 100 0;
#X connect 102 0 125 0;
#X connect 103 0 98 0;
#X connect 103 1 102 0;
#X connect 103 2 148 0;
#X connect 104 0 105 0;
#X connect 105 0 129 0;
#X connect 106 0 119 0;
#X connect 107 0 140 0;
#X connect 108 1 112 0;
#X connect 108 1 121 0;
#X connect 108 1 130 0;
#X connect 109 0 111 0;
#X connect 110 0 139 0;
#X connect 111 0 110 0;
#X connect 112 0 110 0;
#X connect 112 1 97 0;
#X connect 112 2 109 0;
#X connect 112 2 113 0;
#X connect 113 0 115 0;
#X connect 114 0 107 0;
#X connect 115 0 114 0;
#X connect 116 0 134 0;
#X connect 119 0 104 0;
#X connect 119 1 105 1;
#X connect 120 0 135 0;
#X connect 121 0 122 0;
#X connect 122 0 100 0;
#X connect 122 1 120 0;
#X connect 123 0 124 0;
#X connect 124 0 120 0;
#X connect 125 0 98 1;
#X connect 126 0 125 1;
#X connect 127 0 126 0;
#X connect 128 0 129 0;
#X connect 128 1 127 0;
#X connect 128 2 126 1;
#X connect 129 0 103 0;
#X connect 130 0 132 0;
#X connect 131 0 128 0;
#X connect 131 0 123 0;
#X connect 132 0 107 0;
#X connect 134 0 87 1;
#X connect 135 0 157 0;
#X connect 136 0 156 0;
#X connect 137 0 66 1;
#X connect 138 0 66 0;
#X connect 139 0 116 0;
#X connect 140 0 116 1;
#X connect 142 0 89 0;
#X connect 142 0 91 0;
#X connect 142 0 93 0;
#X connect 142 0 95 0;
#X connect 143 1 84 0;
#X connect 144 0 153 0;
#X connect 144 0 143 0;
#X connect 144 0 149 0;
#X connect 146 0 147 0;
#X connect 146 0 148 0;
#X connect 146 1 38 0;
#X connect 147 0 43 0;
#X connect 147 0 42 0;
#X connect 147 0 75 1;
#X connect 148 0 99 0;
#X connect 148 0 98 0;
#X connect 148 0 123 1;
#X connect 149 0 150 0;
#X connect 149 1 150 1;
#X connect 150 0 154 0;
#X connect 152 0 149 0;
#X connect 152 0 143 0;
#X connect 153 0 152 0;
#X connect 154 0 36 0;
#X connect 156 0 51 1;
#X connect 157 0 134 1;
#X coords 0 -1 1 1 140 75 1 100 100;
#X restore 165 130 pd beatloop5;
#N canvas 105 38 1142 827 beatloop6 0;
#X floatatom 138 114 4 3 128 0 olen - -;
#X obj 109 163 hsl 123 8 0 1 0 0 empty empty empty -2 -6 0 8 -262144
-258699 -1 3812 1;
#X obj 96 -221 mod;
#X obj 16 -480 inlet;
#X obj -165 -450 inlet;
#X text 56 -479 <-bpm;
#X msg -17 -415 1;
#X obj 7 -391 /;
#X obj -20 -436 t f f;
#X obj 8 -362 * 15000;
#X text -69 -362 1/16 in ms;
#X obj 164 -119 /;
#X msg 133 -163 100;
#X obj 134 -195 t b f;
#X obj 126 -90 *;
#X obj 126 -65 t b f;
#X msg 91 -18 1;
#X floatatom 138 130 4 3 128 0 llen - -;
#X obj 205 4 /;
#X obj 155 -4 +;
#X obj 97 -246 +;
#X obj 229 -311 inlet;
#X text 273 -311 pos offset (1/16);
#X obj 332 -278 inlet;
#X text 383 -279 tp (semitones \, -36..36);
#X floatatom 204 130 4 -36 36 0 tp - -;
#X obj 489 -167 loadbang;
#X msg 327 20 set \$1;
#X msg 329 46 0;
#X msg 314 -62 set \$1;
#X msg 316 -36 16;
#X msg 389 39 set \$1;
#X msg 393 69 16;
#X floatatom 204 114 4 0 50 0 ofst - -;
#X msg 474 56 set \$1;
#X msg 466 84 0;
#X obj 135 461 soundfiler;
#X obj 372 536 loadbang;
#X msg 164 532 set \$1;
#X obj 478 1377 outlet~;
#X obj 329 572 t b b;
#X msg -36 942 0;
#X obj 140 840 pack;
#X obj 249 719 / 44.1;
#X msg 153 904 0 0;
#X msg 157 865 set \$1 \$2;
#X obj 188 775 *;
#X obj 211 698 t b f b;
#X msg 564 633 1.05946;
#X obj 570 662 pow;
#X obj 554 569 * -1;
#X obj 54 1211 *~;
#X msg -3 910 -1 2.14145;
#X obj 17 194 hsl 128 8 100 160 0 1 empty empty slice_decay 0 -5 0
8 -262144 -1 -1 1400 1;
#X obj -14 1174 *~;
#X obj 10 522 dbtorms;
#X obj -133 575 moses 0.001;
#X obj -125 915 pack;
#X obj 18 216 hsl 128 8 100 150 0 1 empty empty slice_attack 0 -5 0
8 -262144 -1 -1 1300 1;
#X obj -113 535 dbtorms;
#X msg -121 981 1 1.80263;
#X msg -121 949 set \$1 \$2;
#X obj -63 684 t b b f;
#X obj -14 797 * -1;
#X msg 3 865 set \$1 \$2;
#X obj 6 836 pack;
#X obj -8 1143 +~;
#X text -120 1118 attack;
#X text 59 1112 release;
#X obj 553 597 t b f;
#X msg 81 882 0;
#X obj 51 773 delay 1;
#X obj 51 796 t b b;
#X text 609 453 tp (semitones);
#X text -326 464 trigger/vel (0..1);
#X obj 133 766 *;
#X msg 46 827 set \$1;
#X obj 179 810 *;
#X obj 312 855 -;
#X msg 301 822 1;
#X text -145 461 duration (ms);
#X obj 286 776 t b b f;
#X obj 383 657 float;
#X msg -214 639 bang;
#X symbolatom 106 146 18 0 0 0 - - -;
#X text 437 432 sample start (percent);
#X obj 356 722 / 100;
#X obj 479 1342 +~;
#X obj -213 666 delay 1;
#X obj -268 480 pack;
#X obj -268 502 route 0 1;
#X obj -179 456 pack;
#X obj -182 490 route 0 1;
#X obj 408 451 pack;
#X obj 408 473 route 0 1;
#X obj 579 463 pack;
#X obj 579 485 route 0 1;
#X msg 838 943 0;
#X obj 1014 841 pack;
#X obj 1123 720 / 44.1;
#X msg 1027 905 0 0;
#X msg 1031 866 set \$1 \$2;
#X obj 1062 776 *;
#X obj 1085 699 t b f b;
#X msg 1305 604 1.05946;
#X obj 1302 638 pow;
#X obj 1295 540 * -1;
#X msg 871 911 -1 2.14145;
#X obj 774 632 moses 0.001;
#X obj 755 913 pack;
#X msg 753 982 1 1.80263;
#X msg 753 950 set \$1 \$2;
#X obj 811 685 t b b f;
#X obj 860 798 * -1;
#X msg 877 866 set \$1 \$2;
#X obj 872 835 pack;
#X obj 866 1144 +~;
#X text 754 1119 attack;
#X text 933 1113 release;
#X obj 1294 568 t b f;
#X msg 955 883 0;
#X obj 925 774 delay 1;
#X obj 925 797 t b b;
#X obj 1007 767 *;
#X msg 920 828 set \$1;
#X obj 1053 811 *;
#X obj 1186 856 -;
#X msg 1175 823 1;
#X obj 1160 777 t b b f;
#X obj 1242 673 float;
#X msg 780 663 bang;
#X obj 1230 723 / 100;
#X obj 745 742 delay 1;
#X text 635 783 2nd voice ->;
#X obj 963 1189 *~;
#X obj 1028 1028 vline~;
#X obj 176 1016 vline~;
#X obj 58 1092 vline~;
#X obj -97 1092 vline~;
#X obj 774 1091 vline~;
#X obj 931 1093 vline~;
#X text -219 317 <-voice nr;
#X obj -260 320 mod 2;
#X obj 131 238 splitfilename;
#X obj 561 164 inlet;
#X text 603 165 <-filename;
#X obj 142 483 t b a;
#X msg 112 733 0;
#X msg 975 734 0;
#X obj 157 341 t b a;
#X obj 145 374 pack \$0 s;
#X text -125 -450 <-pos;
#X msg 296 305;
#X msg 396 270 set symbol \$1;
#X msg 131 417 read -resize \$2 \$1mnbbbloop6;
#X obj 153 1112 tabread4~ \$0mnbbbloop6;
#X obj 461 921 table \$0mnbbbloop6;
#X obj 1029 1104 tabread4~ \$0mnbbbloop6;
#X connect 0 0 13 0;
#X connect 0 0 29 0;
#X connect 2 0 18 0;
#X connect 2 0 14 0;
#X connect 3 0 8 0;
#X connect 4 0 20 0;
#X connect 4 0 142 0;
#X connect 6 0 7 0;
#X connect 7 0 9 0;
#X connect 8 0 6 0;
#X connect 8 1 7 1;
#X connect 9 0 91 1;
#X connect 11 0 14 1;
#X connect 12 0 11 0;
#X connect 13 0 12 0;
#X connect 13 1 11 1;
#X connect 14 0 15 0;
#X connect 15 0 16 0;
#X connect 15 1 19 0;
#X connect 16 0 89 1;
#X connect 17 0 31 0;
#X connect 17 0 2 1;
#X connect 17 0 18 1;
#X connect 18 0 1 0;
#X connect 19 0 93 1;
#X connect 20 0 2 0;
#X connect 21 0 20 1;
#X connect 23 0 25 0;
#X connect 25 0 27 0;
#X connect 25 0 95 1;
#X connect 26 0 28 0;
#X connect 26 0 30 0;
#X connect 26 0 32 0;
#X connect 26 0 35 0;
#X connect 26 0 152 0;
#X connect 27 0 28 0;
#X connect 28 0 25 0;
#X connect 29 0 30 0;
#X connect 30 0 0 0;
#X connect 31 0 32 0;
#X connect 32 0 17 0;
#X connect 33 0 34 0;
#X connect 33 0 19 1;
#X connect 34 0 35 0;
#X connect 35 0 33 0;
#X connect 36 0 146 0;
#X connect 37 0 40 0;
#X connect 38 0 147 0;
#X connect 38 0 148 0;
#X connect 40 0 147 0;
#X connect 40 0 148 0;
#X connect 41 0 137 0;
#X connect 41 0 138 0;
#X connect 42 0 45 0;
#X connect 43 0 46 1;
#X connect 44 0 136 0;
#X connect 45 0 44 0;
#X connect 46 0 77 0;
#X connect 47 0 42 0;
#X connect 47 1 46 0;
#X connect 47 2 147 0;
#X connect 48 0 49 0;
#X connect 49 0 82 0;
#X connect 50 0 69 0;
#X connect 51 0 87 0;
#X connect 52 0 137 0;
#X connect 53 0 55 0;
#X connect 54 0 51 0;
#X connect 55 0 65 1;
#X connect 55 0 115 1;
#X connect 56 1 62 0;
#X connect 56 1 71 0;
#X connect 56 1 83 0;
#X connect 57 0 61 0;
#X connect 58 0 59 0;
#X connect 59 0 57 1;
#X connect 59 0 109 1;
#X connect 60 0 138 0;
#X connect 61 0 60 0;
#X connect 62 0 60 0;
#X connect 62 1 41 0;
#X connect 62 2 57 0;
#X connect 62 2 63 0;
#X connect 63 0 65 0;
#X connect 64 0 52 0;
#X connect 65 0 64 0;
#X connect 66 0 54 0;
#X connect 66 0 54 1;
#X connect 69 0 48 0;
#X connect 69 1 49 1;
#X connect 70 0 136 0;
#X connect 71 0 72 0;
#X connect 72 0 44 0;
#X connect 72 1 70 0;
#X connect 75 0 76 0;
#X connect 76 0 70 0;
#X connect 77 0 42 1;
#X connect 78 0 77 1;
#X connect 79 0 78 0;
#X connect 81 0 82 0;
#X connect 81 1 79 0;
#X connect 81 2 78 1;
#X connect 82 0 47 0;
#X connect 83 0 88 0;
#X connect 86 0 81 0;
#X connect 86 0 75 0;
#X connect 87 0 39 0;
#X connect 88 0 52 0;
#X connect 89 0 90 0;
#X connect 90 0 56 0;
#X connect 90 1 108 0;
#X connect 91 0 92 0;
#X connect 92 0 88 1;
#X connect 92 1 132 1;
#X connect 93 0 94 0;
#X connect 94 0 86 0;
#X connect 94 1 131 0;
#X connect 95 0 96 0;
#X connect 96 0 50 0;
#X connect 96 1 106 0;
#X connect 97 0 139 0;
#X connect 97 0 140 0;
#X connect 98 0 101 0;
#X connect 99 0 102 1;
#X connect 100 0 135 0;
#X connect 101 0 100 0;
#X connect 102 0 125 0;
#X connect 103 0 98 0;
#X connect 103 1 102 0;
#X connect 103 2 148 0;
#X connect 104 0 105 0;
#X connect 105 0 129 0;
#X connect 106 0 119 0;
#X connect 107 0 140 0;
#X connect 108 1 112 0;
#X connect 108 1 121 0;
#X connect 108 1 130 0;
#X connect 109 0 111 0;
#X connect 110 0 139 0;
#X connect 111 0 110 0;
#X connect 112 0 110 0;
#X connect 112 1 97 0;
#X connect 112 2 109 0;
#X connect 112 2 113 0;
#X connect 113 0 115 0;
#X connect 114 0 107 0;
#X connect 115 0 114 0;
#X connect 116 0 134 0;
#X connect 119 0 104 0;
#X connect 119 1 105 1;
#X connect 120 0 135 0;
#X connect 121 0 122 0;
#X connect 122 0 100 0;
#X connect 122 1 120 0;
#X connect 123 0 124 0;
#X connect 124 0 120 0;
#X connect 125 0 98 1;
#X connect 126 0 125 1;
#X connect 127 0 126 0;
#X connect 128 0 129 0;
#X connect 128 1 127 0;
#X connect 128 2 126 1;
#X connect 129 0 103 0;
#X connect 130 0 132 0;
#X connect 131 0 128 0;
#X connect 131 0 123 0;
#X connect 132 0 107 0;
#X connect 134 0 87 1;
#X connect 135 0 157 0;
#X connect 136 0 155 0;
#X connect 137 0 66 1;
#X connect 138 0 66 0;
#X connect 139 0 116 0;
#X connect 140 0 116 1;
#X connect 142 0 89 0;
#X connect 142 0 91 0;
#X connect 142 0 93 0;
#X connect 142 0 95 0;
#X connect 143 1 84 0;
#X connect 144 0 153 0;
#X connect 144 0 143 0;
#X connect 144 0 149 0;
#X connect 146 0 147 0;
#X connect 146 0 148 0;
#X connect 146 1 38 0;
#X connect 147 0 43 0;
#X connect 147 0 42 0;
#X connect 147 0 75 1;
#X connect 148 0 99 0;
#X connect 148 0 98 0;
#X connect 148 0 123 1;
#X connect 149 0 150 0;
#X connect 149 1 150 1;
#X connect 150 0 154 0;
#X connect 152 0 149 0;
#X connect 152 0 143 0;
#X connect 153 0 152 0;
#X connect 154 0 36 0;
#X connect 155 0 51 1;
#X connect 157 0 134 1;
#X coords 0 -1 1 1 140 75 1 100 100;
#X restore 165 212 pd beatloop6;
#X msg 335 -129 location /Users/Berenger/Documents/Programmation_audio/PureData/Sets/pdLive!_Samples
;
#X obj 136 485 outlet~;
#X obj 285 -32 inlet;
#X connect 0 0 1 0;
#X connect 1 0 29 0;
#X connect 2 0 28 0;
#X connect 3 0 14 0;
#X connect 3 1 6 0;
#X connect 4 0 13 1;
#X connect 6 0 5 0;
#X connect 7 0 3 0;
#X connect 8 0 3 0;
#X connect 9 0 12 1;
#X connect 10 0 12 0;
#X connect 10 1 4 0;
#X connect 10 2 4 0;
#X connect 11 0 15 0;
#X connect 11 1 16 0;
#X connect 11 2 17 0;
#X connect 11 3 18 0;
#X connect 11 4 19 0;
#X connect 11 5 20 0;
#X connect 12 0 13 0;
#X connect 13 0 11 0;
#X connect 14 0 10 0;
#X connect 15 0 0 4;
#X connect 16 0 23 4;
#X connect 17 0 24 4;
#X connect 18 0 25 4;
#X connect 19 0 26 4;
#X connect 20 0 27 4;
#X connect 21 0 3 0;
#X connect 22 0 0 0;
#X connect 22 0 23 0;
#X connect 22 0 24 0;
#X connect 22 0 25 0;
#X connect 22 0 26 0;
#X connect 22 0 27 0;
#X connect 22 2 0 1;
#X connect 22 2 23 1;
#X connect 22 2 24 1;
#X connect 22 2 25 1;
#X connect 22 2 26 1;
#X connect 22 2 27 1;
#X connect 23 0 1 0;
#X connect 24 0 1 0;
#X connect 25 0 1 0;
#X connect 26 0 1 0;
#X connect 27 0 1 0;
#X connect 28 0 3 0;
#X connect 30 0 3 0;
#X coords 0 1 100 -1 760 300 1 0 0;
#X restore 40 -178 graph;
#X msg 95 -230 location /Users/Berenger/Documents/Programmation_audio/PureData/Sets/pdLive!_Samples
;
#X text 479 -216 <= set your path here ...;
#N canvas 0 22 450 300 (subpatch) 0;
#X obj 59 155 inlet;
#X obj 3 89 inlet~;
#X obj 58 182 change;
#X msg 60 246 set \$1;
#X obj 60 227 tosymbol;
#X obj 59 204 sprintf Bus%d;
#X obj 3 282 throw~ Bus0;
#X obj 2 3 popup 124 25 #ffffff popup Bus0 Bus1 Bus2 Bus3 Bus4 Bus5
Bus6 Bus7 Bus8 Bus9 Bus10 Bus11 Bus12 Bus13 Bus14 Bus15 Bus16;
#X obj 1 32 route bang;
#X obj 154 202 *~;
#X obj 141 7 tgl 15 0 empty empty Dac 19 7 0 10 -262144 -1 -1 0 1;
#X obj 155 238 dac~;
#X obj 1 -49 loadbang;
#X text 59 -51 Bus0 mutes;
#X msg 1 -31 options Bus0 Bus1 Bus2 Bus3 Bus4 Bus5 Bus6 Bus7 Bus8 Bus9
Bus10 Bus11 Bus12 Bus13 Bus14 Bus15 Bus16;
#X connect 0 0 2 0;
#X connect 1 0 6 0;
#X connect 1 0 9 0;
#X connect 2 0 5 0;
#X connect 3 0 6 0;
#X connect 4 0 3 0;
#X connect 5 0 4 0;
#X connect 7 0 8 0;
#X connect 8 1 2 0;
#X connect 9 0 11 0;
#X connect 9 0 11 1;
#X connect 10 0 9 1;
#X connect 12 0 14 0;
#X connect 14 0 7 0;
#X coords 0 1 100 -1 180 30 1 0 0;
#X restore 40 127 graph;
#X connect 0 0 3 0;
#X connect 1 0 0 0;
