#N canvas 0 25 319 246 10;
#N canvas 0 25 997 637 crash 0;
#X floatatom 11 29 5 0 0 0 - - -;
#X floatatom 101 27 5 0 0 0 - - -;
#X floatatom 201 27 5 0 0 0 - - -;
#X floatatom 309 27 5 0 0 0 - - -;
#X floatatom 416 27 5 0 0 0 - - -;
#X floatatom 528 28 5 0 0 0 - - -;
#X obj 318 334 vline~;
#X obj 318 361 *~;
#X obj 341 517 *~;
#X obj 264 280 hip~ 2000;
#X obj 438 334 vline~;
#X obj 438 361 *~;
#X obj 557 334 vline~;
#X obj 557 361 *~;
#X obj 375 518 *~;
#X obj 449 518 *~;
#X obj 618 -55 loadbang;
#X obj -27 136 *~;
#X obj 210 149 *~;
#X obj 483 150 *~;
#X obj 138 175 *~;
#X obj 363 146 *~;
#X obj 253 201 *~;
#X obj -28 177 *~;
#X obj 405 184 *~;
#X obj 187 176 *~;
#X obj 78 187 *~;
#X obj 294 159 *~;
#X obj 311 195 *~;
#X obj 380 587 *~ 0.5;
#X msg 312 5 821;
#X msg 414 6 1669;
#X msg 529 7 3049;
#X obj 523 169 inlet bang;
#X obj 556 389 *~;
#X msg 557 305 1 0 0 \, 0 3000 0;
#X msg 102 6 337;
#X msg 201 5 509;
#X floatatom 649 2 5 0 0 0 - - -;
#X floatatom 739 0 5 0 0 0 - - -;
#X floatatom 839 0 5 0 0 0 - - -;
#X floatatom 947 0 5 0 0 0 - - -;
#X floatatom 1054 0 5 0 0 0 - - -;
#X floatatom 1166 1 5 0 0 0 - - -;
#X obj 683 123 *~;
#X obj 894 122 *~;
#X obj 1121 109 *~;
#X obj 780 124 *~;
#X obj 1005 152 *~;
#X obj 951 137 *~;
#X obj 641 146 *~;
#X obj 1108 158 *~;
#X obj 864 195 *~;
#X obj 823 177 *~;
#X obj 917 187 *~;
#X obj 966 186 *~;
#X obj 248 238 *~ 0.05;
#X obj 743 252 *~ 0.05;
#X obj 292 493 bp~ 2000 3;
#X obj 377 493 bp~ 8000 3;
#X obj 461 492 bp~ 15000 3;
#X obj 439 389 *~;
#X obj 319 390 *~;
#X msg 26 8 431;
#X msg 664 -19 293;
#X msg 740 -21 1511;
#X msg 839 -22 1021;
#X msg 950 -22 631;
#X msg 1052 -21 1277;
#X msg 1167 -20 2293;
#X msg 439 306 1 0 0 \, 0 70 0;
#X msg 317 305 1 0 0 \, 0 30 0;
#X obj 865 389 tgl 15 0 empty empty empty 0 -6 0 10 -262144 -1 -1 1
1;
#X msg 852 364 1;
#X msg 883 364 0;
#X floatatom 883 322 5 0 0 0 - - -;
#X obj 883 340 sel 0;
#X obj 504 182 bng 15 250 50 0 empty empty empty 0 -6 0 10 -262144
-1 -1;
#X obj 380 568 lop~ 20000;
#X obj 865 414 switch~ 1024 1 8;
#X obj -3 55 phasor~;
#X obj 102 43 phasor~;
#X obj 193 46 phasor~;
#X obj 312 55 phasor~;
#X obj 418 54 phasor~;
#X obj 526 55 phasor~;
#X obj 635 28 phasor~;
#X obj 741 27 phasor~;
#X obj 845 26 phasor~;
#X obj 950 27 phasor~;
#X obj 1056 27 phasor~;
#X obj 1164 28 phasor~;
#X obj -122 75 expr~ 1.99*(($v1 > 0.5) -0.5);
#X obj 13 98 expr~ 1.99*(($v1 > 0.5) -0.5);
#X obj 177 75 expr~ 1.99*(($v1 > 0.5) -0.5);
#X obj 290 101 expr~ 1.99*(($v1 > 0.5) -0.5);
#X obj 423 79 expr~ 1.99*(($v1 > 0.5) -0.5);
#X obj 523 98 expr~ 1.99*(($v1 > 0.5) -0.5);
#X obj 635 51 expr~ 1.99*(($v1 > 0.5) -0.5);
#X obj 743 72 expr~ 1.99*(($v1 > 0.5) -0.5);
#X obj 843 50 expr~ 1.99*(($v1 > 0.5) -0.5);
#X obj 948 70 expr~ 1.99*(($v1 > 0.5) -0.5);
#X obj 1051 47 expr~ 1.99*(($v1 > 0.5) -0.5);
#X obj 1161 72 expr~ 1.99*(($v1 > 0.5) -0.5);
#X obj 379 619 outlet~;
#X obj 380 549 hip~ 3000;
#X msg 884 283 1 0 \, 0 3100;
#X obj 884 302 line 1 3100;
#X text 207 -49 phasors through expr~ stuff make square waves;
#X text 971 414 oversampled;
#X text 956 333 switch computation on/off;
#X obj 523 205 t b b b b b;
#X connect 0 0 80 0;
#X connect 1 0 81 0;
#X connect 2 0 82 0;
#X connect 3 0 83 0;
#X connect 4 0 84 0;
#X connect 5 0 85 0;
#X connect 6 0 7 0;
#X connect 6 0 7 1;
#X connect 7 0 62 0;
#X connect 7 0 62 1;
#X connect 8 0 105 0;
#X connect 9 0 58 0;
#X connect 9 0 59 0;
#X connect 9 0 60 0;
#X connect 10 0 11 0;
#X connect 10 0 11 1;
#X connect 11 0 61 0;
#X connect 11 0 61 1;
#X connect 12 0 13 0;
#X connect 12 0 13 1;
#X connect 13 0 34 0;
#X connect 13 0 34 1;
#X connect 14 0 105 0;
#X connect 15 0 105 0;
#X connect 16 0 63 0;
#X connect 16 0 36 0;
#X connect 16 0 37 0;
#X connect 16 0 30 0;
#X connect 16 0 31 0;
#X connect 16 0 32 0;
#X connect 16 0 64 0;
#X connect 16 0 65 0;
#X connect 16 0 66 0;
#X connect 16 0 67 0;
#X connect 16 0 68 0;
#X connect 16 0 69 0;
#X connect 17 0 56 0;
#X connect 18 0 56 0;
#X connect 19 0 56 0;
#X connect 20 0 56 0;
#X connect 21 0 56 0;
#X connect 22 0 56 0;
#X connect 23 0 56 0;
#X connect 24 0 56 0;
#X connect 25 0 56 0;
#X connect 26 0 56 0;
#X connect 27 0 56 0;
#X connect 28 0 56 0;
#X connect 29 0 104 0;
#X connect 30 0 3 0;
#X connect 31 0 4 0;
#X connect 32 0 5 0;
#X connect 33 0 111 0;
#X connect 34 0 15 1;
#X connect 35 0 12 0;
#X connect 36 0 1 0;
#X connect 37 0 2 0;
#X connect 38 0 86 0;
#X connect 39 0 87 0;
#X connect 40 0 88 0;
#X connect 41 0 89 0;
#X connect 42 0 90 0;
#X connect 43 0 91 0;
#X connect 44 0 57 0;
#X connect 45 0 57 0;
#X connect 46 0 57 0;
#X connect 47 0 57 0;
#X connect 48 0 57 0;
#X connect 49 0 57 0;
#X connect 50 0 57 0;
#X connect 51 0 57 0;
#X connect 52 0 57 0;
#X connect 53 0 57 0;
#X connect 54 0 57 0;
#X connect 55 0 57 0;
#X connect 56 0 9 0;
#X connect 57 0 9 0;
#X connect 58 0 8 0;
#X connect 59 0 14 0;
#X connect 60 0 15 0;
#X connect 61 0 14 1;
#X connect 62 0 8 1;
#X connect 63 0 0 0;
#X connect 64 0 38 0;
#X connect 65 0 39 0;
#X connect 66 0 40 0;
#X connect 67 0 41 0;
#X connect 68 0 42 0;
#X connect 69 0 43 0;
#X connect 70 0 10 0;
#X connect 71 0 6 0;
#X connect 72 0 79 0;
#X connect 73 0 72 0;
#X connect 74 0 72 0;
#X connect 75 0 76 0;
#X connect 76 0 74 0;
#X connect 77 0 111 0;
#X connect 78 0 29 0;
#X connect 80 0 92 0;
#X connect 81 0 93 0;
#X connect 82 0 94 0;
#X connect 83 0 95 0;
#X connect 84 0 96 0;
#X connect 85 0 97 0;
#X connect 86 0 98 0;
#X connect 87 0 99 0;
#X connect 88 0 100 0;
#X connect 89 0 101 0;
#X connect 90 0 102 0;
#X connect 91 0 103 0;
#X connect 92 0 17 0;
#X connect 92 0 22 0;
#X connect 92 0 23 0;
#X connect 92 0 26 0;
#X connect 93 0 17 1;
#X connect 93 0 20 0;
#X connect 93 0 25 0;
#X connect 93 0 28 0;
#X connect 94 0 18 0;
#X connect 94 0 20 1;
#X connect 94 0 23 1;
#X connect 94 0 27 0;
#X connect 95 0 18 1;
#X connect 95 0 21 0;
#X connect 95 0 24 0;
#X connect 95 0 26 1;
#X connect 96 0 19 0;
#X connect 96 0 21 1;
#X connect 96 0 25 1;
#X connect 96 0 27 1;
#X connect 97 0 19 1;
#X connect 97 0 22 1;
#X connect 97 0 24 1;
#X connect 97 0 28 1;
#X connect 98 0 44 0;
#X connect 98 0 49 0;
#X connect 98 0 50 0;
#X connect 98 0 53 0;
#X connect 99 0 44 1;
#X connect 99 0 47 0;
#X connect 99 0 52 0;
#X connect 99 0 55 0;
#X connect 100 0 45 0;
#X connect 100 0 47 1;
#X connect 100 0 50 1;
#X connect 100 0 54 0;
#X connect 101 0 45 1;
#X connect 101 0 48 0;
#X connect 101 0 51 0;
#X connect 101 0 53 1;
#X connect 102 0 46 0;
#X connect 102 0 48 1;
#X connect 102 0 52 1;
#X connect 102 0 54 1;
#X connect 103 0 46 1;
#X connect 103 0 49 1;
#X connect 103 0 51 1;
#X connect 103 0 55 1;
#X connect 105 0 78 0;
#X connect 106 0 107 0;
#X connect 107 0 75 0;
#X connect 111 0 106 0;
#X connect 111 1 35 0;
#X connect 111 2 70 0;
#X connect 111 3 71 0;
#X connect 111 4 73 0;
#X restore 115 46 pd crash;
#X obj 105 193 dac~;
#X obj 115 20 bng 15 250 50 0 empty empty empty 17 7 0 10 -262144 -1
-1;
#X obj 115 164 *~;
#X obj 175 24 vsl 15 128 0 1 0 0 empty empty empty 0 -9 0 10 -262144
-1 -1 12700 1;
#X obj 175 -21 loadbang;
#X msg 175 0 1;
#X text 74 -17 A CRASH CYMBAL;
#X text 270 201 sg 2008;
#X text 72 19 hit it;
#X connect 0 0 3 0;
#X connect 2 0 0 0;
#X connect 3 0 1 0;
#X connect 3 0 1 1;
#X connect 4 0 3 1;
#X connect 5 0 6 0;
#X connect 6 0 4 0;
