#N canvas 0 25 319 246 10;
#X obj 105 193 dac~;
#X obj 115 20 bng 15 250 50 0 empty empty empty 17 7 0 10 -262144 -1
-1;
#X obj 115 164 *~;
#X obj 175 24 vsl 15 128 0 1 0 0 empty empty empty 0 -9 0 10 -262144
-1 -1 12700 1;
#X obj 175 -21 loadbang;
#X msg 175 0 1;
#X text 270 201 sg 2008;
#X text 72 19 hit it;
#N canvas 0 25 1016 637 hat 0;
#X floatatom 11 29 5 0 0 0 - - -;
#X floatatom 101 27 5 0 0 0 - - -;
#X floatatom 201 27 5 0 0 0 - - -;
#X floatatom 309 27 5 0 0 0 - - -;
#X floatatom 416 27 5 0 0 0 - - -;
#X floatatom 528 28 5 0 0 0 - - -;
#X obj 411 304 vline~;
#X obj 411 331 *~;
#X obj 427 479 hip~ 3000;
#X obj 398 428 *~;
#X obj 264 280 hip~ 2000;
#X obj 531 304 vline~;
#X obj 531 331 *~;
#X obj 650 304 vline~;
#X obj 432 429 *~;
#X obj 506 429 *~;
#X obj 605 -64 loadbang;
#X obj 62 142 *~;
#X obj 239 144 *~;
#X obj 482 134 *~;
#X obj 162 146 *~;
#X obj 345 133 *~;
#X obj 277 152 *~;
#X obj 20 142 *~;
#X obj 415 130 *~;
#X obj 154 174 *~;
#X obj 65 178 *~;
#X obj 332 171 *~;
#X obj 217 183 *~;
#X obj 427 527 *~ 0.5;
#X msg 312 5 821;
#X msg 414 6 1669;
#X msg 529 7 3049;
#X obj 534 141 inlet bang;
#X msg 102 6 337;
#X msg 201 5 509;
#X floatatom 649 2 5 0 0 0 - - -;
#X floatatom 739 0 5 0 0 0 - - -;
#X floatatom 839 0 5 0 0 0 - - -;
#X floatatom 947 0 5 0 0 0 - - -;
#X floatatom 1054 0 5 0 0 0 - - -;
#X floatatom 1166 1 5 0 0 0 - - -;
#X obj 688 121 *~;
#X obj 855 122 *~;
#X obj 1126 107 *~;
#X obj 793 136 *~;
#X obj 938 135 *~;
#X obj 893 148 *~;
#X obj 739 109 *~;
#X obj 1027 109 *~;
#X obj 869 176 *~;
#X obj 792 196 *~;
#X obj 926 174 *~;
#X obj 980 184 *~;
#X obj 248 238 *~ 0.05;
#X obj 696 249 *~ 0.05;
#X obj 518 403 bp~ 15000 3;
#X obj 412 360 *~;
#X msg 26 8 431;
#X msg 664 -19 293;
#X msg 740 -21 1511;
#X msg 839 -22 1021;
#X msg 950 -22 631;
#X obj 434 404 bp~ 10000 3;
#X obj 349 404 bp~ 3000 3;
#X msg 409 275 1 0 0 \, 0 30 0;
#X msg 531 276 1 0 0 \, 0 50 0;
#X msg 650 275 1 0 0 \, 0 80 0;
#X msg 1052 -21 857;
#X msg 1167 -20 1187;
#X obj 176 467 *~;
#X obj 88 382 noise~;
#X obj 212 410 vline~;
#X obj 210 436 *~;
#X obj 124 431 hip~ 3000;
#X msg 217 382 1 0 0 \, 0 140 0;
#X obj 428 547 outlet~;
#X obj 798 389 tgl 15 0 empty empty empty 0 -6 0 10 -262144 -1 -1 0
1;
#X msg 793 344 1;
#X msg 824 344 0;
#X floatatom 824 304 5 0 0 0 - - -;
#X obj 824 322 sel 0;
#X obj 564 164 bng 15 250 50 0 empty empty empty 0 -6 0 10 -262144
-1 -1;
#X msg 825 265 1 0 \, 0 180;
#X obj 825 284 line 1 180;
#X obj 427 507 lop~ 20000;
#X obj 11 45 phasor~;
#X obj -12 75 expr~ 1.99*(($v1 > 0.5) -0.5);
#X obj 103 55 phasor~;
#X obj 207 53 phasor~;
#X obj 312 54 phasor~;
#X obj 418 54 phasor~;
#X obj 526 55 phasor~;
#X obj 98 101 expr~ 1.99*(($v1 > 0.5) -0.5);
#X obj 207 76 expr~ 1.99*(($v1 > 0.5) -0.5);
#X obj 313 100 expr~ 1.99*(($v1 > 0.5) -0.5);
#X obj 418 73 expr~ 1.99*(($v1 > 0.5) -0.5);
#X obj 526 98 expr~ 1.99*(($v1 > 0.5) -0.5);
#X obj 635 28 phasor~;
#X obj 741 27 phasor~;
#X obj 845 26 phasor~;
#X obj 950 27 phasor~;
#X obj 1056 27 phasor~;
#X obj 1164 28 phasor~;
#X obj 634 50 expr~ 1.99*(($v1 > 0.5) -0.5);
#X obj 742 72 expr~ 1.99*(($v1 > 0.5) -0.5);
#X obj 844 50 expr~ 1.99*(($v1 > 0.5) -0.5);
#X obj 949 70 expr~ 1.99*(($v1 > 0.5) -0.5);
#X obj 1163 71 expr~ 1.99*(($v1 > 0.5) -0.5);
#X obj 1057 49 expr~ 1.99*(($v1 > 0.5) -0.5);
#X text 864 321 switch computation on/off;
#X text 183 -49 phasors through expr~ stuff make square waves;
#X obj 534 188 t b b b b b b;
#X obj 798 409 switch~ 1024 1 16;
#X connect 0 0 86 0;
#X connect 1 0 88 0;
#X connect 2 0 89 0;
#X connect 3 0 90 0;
#X connect 4 0 91 0;
#X connect 5 0 92 0;
#X connect 6 0 7 0;
#X connect 6 0 7 1;
#X connect 7 0 57 0;
#X connect 7 0 57 1;
#X connect 8 0 85 0;
#X connect 9 0 8 0;
#X connect 10 0 56 0;
#X connect 10 0 63 0;
#X connect 10 0 64 0;
#X connect 11 0 12 0;
#X connect 11 0 12 1;
#X connect 12 0 14 1;
#X connect 13 0 15 1;
#X connect 14 0 8 0;
#X connect 15 0 8 0;
#X connect 16 0 58 0;
#X connect 16 0 34 0;
#X connect 16 0 35 0;
#X connect 16 0 30 0;
#X connect 16 0 31 0;
#X connect 16 0 32 0;
#X connect 16 0 59 0;
#X connect 16 0 60 0;
#X connect 16 0 61 0;
#X connect 16 0 62 0;
#X connect 16 0 68 0;
#X connect 16 0 69 0;
#X connect 17 0 54 0;
#X connect 18 0 54 0;
#X connect 19 0 54 0;
#X connect 20 0 54 0;
#X connect 21 0 54 0;
#X connect 22 0 54 0;
#X connect 23 0 54 0;
#X connect 24 0 54 0;
#X connect 25 0 54 0;
#X connect 26 0 54 0;
#X connect 27 0 54 0;
#X connect 28 0 54 0;
#X connect 29 0 76 0;
#X connect 30 0 3 0;
#X connect 31 0 4 0;
#X connect 32 0 5 0;
#X connect 33 0 112 0;
#X connect 34 0 1 0;
#X connect 35 0 2 0;
#X connect 36 0 98 0;
#X connect 37 0 99 0;
#X connect 38 0 100 0;
#X connect 39 0 101 0;
#X connect 40 0 102 0;
#X connect 41 0 103 0;
#X connect 42 0 55 0;
#X connect 43 0 55 0;
#X connect 44 0 55 0;
#X connect 45 0 55 0;
#X connect 46 0 55 0;
#X connect 47 0 55 0;
#X connect 48 0 55 0;
#X connect 49 0 55 0;
#X connect 50 0 55 0;
#X connect 51 0 55 0;
#X connect 52 0 55 0;
#X connect 53 0 55 0;
#X connect 54 0 10 0;
#X connect 55 0 10 0;
#X connect 56 0 15 0;
#X connect 57 0 9 1;
#X connect 58 0 0 0;
#X connect 59 0 36 0;
#X connect 60 0 37 0;
#X connect 61 0 38 0;
#X connect 62 0 39 0;
#X connect 63 0 14 0;
#X connect 64 0 9 0;
#X connect 65 0 6 0;
#X connect 66 0 11 0;
#X connect 67 0 13 0;
#X connect 68 0 40 0;
#X connect 69 0 41 0;
#X connect 70 0 85 0;
#X connect 71 0 74 0;
#X connect 72 0 73 0;
#X connect 72 0 73 1;
#X connect 73 0 70 1;
#X connect 74 0 70 0;
#X connect 75 0 72 0;
#X connect 77 0 113 0;
#X connect 78 0 77 0;
#X connect 79 0 77 0;
#X connect 80 0 81 0;
#X connect 81 0 79 0;
#X connect 82 0 112 0;
#X connect 83 0 84 0;
#X connect 84 0 80 0;
#X connect 85 0 29 0;
#X connect 86 0 87 0;
#X connect 87 0 17 0;
#X connect 87 0 22 0;
#X connect 87 0 23 0;
#X connect 87 0 26 0;
#X connect 88 0 93 0;
#X connect 89 0 94 0;
#X connect 90 0 95 0;
#X connect 91 0 96 0;
#X connect 92 0 97 0;
#X connect 93 0 17 1;
#X connect 93 0 20 0;
#X connect 93 0 25 0;
#X connect 93 0 28 0;
#X connect 94 0 18 0;
#X connect 94 0 20 1;
#X connect 94 0 23 1;
#X connect 94 0 27 0;
#X connect 95 0 18 1;
#X connect 95 0 21 0;
#X connect 95 0 24 0;
#X connect 95 0 26 1;
#X connect 96 0 19 0;
#X connect 96 0 21 1;
#X connect 96 0 25 1;
#X connect 96 0 27 1;
#X connect 97 0 19 1;
#X connect 97 0 22 1;
#X connect 97 0 24 1;
#X connect 97 0 28 1;
#X connect 98 0 104 0;
#X connect 99 0 105 0;
#X connect 100 0 106 0;
#X connect 101 0 107 0;
#X connect 102 0 109 0;
#X connect 103 0 108 0;
#X connect 104 0 42 0;
#X connect 104 0 47 0;
#X connect 104 0 48 0;
#X connect 104 0 51 0;
#X connect 105 0 42 1;
#X connect 105 0 45 0;
#X connect 105 0 50 0;
#X connect 105 0 53 0;
#X connect 106 0 43 0;
#X connect 106 0 45 1;
#X connect 106 0 48 1;
#X connect 106 0 52 0;
#X connect 107 0 43 1;
#X connect 107 0 46 0;
#X connect 107 0 49 0;
#X connect 107 0 51 1;
#X connect 108 0 44 1;
#X connect 108 0 47 1;
#X connect 108 0 49 1;
#X connect 108 0 53 1;
#X connect 109 0 44 0;
#X connect 109 0 46 1;
#X connect 109 0 50 1;
#X connect 109 0 52 1;
#X connect 112 0 83 0;
#X connect 112 1 75 0;
#X connect 112 2 67 0;
#X connect 112 3 66 0;
#X connect 112 4 65 0;
#X connect 112 5 78 0;
#X restore 115 52 pd hat;
#X text 90 -17 A HI-HAT;
#X connect 1 0 8 0;
#X connect 2 0 0 0;
#X connect 2 0 0 1;
#X connect 3 0 2 1;
#X connect 4 0 5 0;
#X connect 5 0 3 0;
#X connect 8 0 2 0;
