#N canvas 0 25 767 563 10;
#X obj 70 6 vline~;
#X obj 70 27 *~;
#X obj 6 68 +~ 140;
#X obj 49 68 +~ 275;
#X obj 91 68 +~ 455;
#X obj 264 -13 noise~;
#X obj 272 85 *~;
#X obj 250 -65 t b b;
#X obj 179 236 *~ 30;
#X obj 140 236 *~ 40;
#X obj 229 236 *~ 10;
#X obj 149 155 vcf~ 75;
#X obj 210 155 vcf~ 64;
#X obj 258 155 vcf~ 55;
#X obj 81 153 vcf~ 150;
#X obj 96 236 *~ 300;
#X obj 494 2 vline~;
#X obj 494 23 *~;
#X obj 507 48 *~;
#X msg 493 -20 1 0 0 \, 0 50 1;
#X obj 274 55 lop~ 1200;
#X obj 133 68 +~ 645;
#X obj 175 68 +~ 1155;
#X obj 277 236 *~ 7;
#X obj 306 155 vcf~ 45;
#X obj 187 275 *~ 0.7;
#X obj 605 97 switch~;
#X obj 605 77 tgl 15 0 empty empty empty 0 -6 0 10 -262144 -1 -1 0
1;
#X msg 600 32 1;
#X msg 631 32 0;
#X floatatom 690 10 5 0 0 0 - - -;
#X obj 690 28 sel 0;
#X obj 231 -102 t b b b;
#X msg 690 -28 1 0 \, 0 600;
#X obj 690 -9 line 1 600;
#X obj 231 -132 bng 15 250 50 0 empty empty empty 0 -6 0 10 -262144
-1 -1;
#X text 251 -131 hit it;
#X obj 227 390 dac~;
#X obj 236 357 *~;
#X obj 362 202 vsl 15 128 0 1 0 0 empty empty empty 0 -8 0 10 -262144
-1 -1 12700 1;
#X text 380 260 volume;
#X obj 362 160 loadbang;
#X msg 362 179 1;
#X msg 69 -16 6 1 0 \, 0 100 1;
#X text 604 116 audio computation on/off;
#X text 224 -31 noise impulse;
#X text 485 -37 impulse envelope;
#X text 44 -35 frequency descends a bit;
#X text 300 126 formants;
#X obj 217 17 expr~ if ($v1 == 0 \, 0 \, (if ($v1 < 0 \, -1 \, 1)))
;
#X obj 217 37 *~ 0.5;
#X text 289 2 TOTAL DISTORTION;
#X text 719 402 sg 2008;
#X connect 0 0 1 0;
#X connect 0 0 1 1;
#X connect 1 0 2 0;
#X connect 1 0 3 0;
#X connect 1 0 4 0;
#X connect 1 0 21 0;
#X connect 1 0 22 0;
#X connect 2 0 14 1;
#X connect 3 0 11 1;
#X connect 4 0 12 1;
#X connect 5 0 49 0;
#X connect 6 0 11 0;
#X connect 6 0 12 0;
#X connect 6 0 13 0;
#X connect 6 0 14 0;
#X connect 6 0 24 0;
#X connect 7 0 19 0;
#X connect 7 1 43 0;
#X connect 8 0 25 0;
#X connect 9 0 25 0;
#X connect 10 0 25 0;
#X connect 11 0 9 0;
#X connect 12 0 8 0;
#X connect 13 0 10 0;
#X connect 14 0 15 0;
#X connect 15 0 25 0;
#X connect 16 0 17 0;
#X connect 16 0 17 1;
#X connect 17 0 18 0;
#X connect 17 0 18 1;
#X connect 18 0 6 0;
#X connect 19 0 16 0;
#X connect 20 0 6 1;
#X connect 21 0 13 1;
#X connect 22 0 24 1;
#X connect 23 0 25 0;
#X connect 24 0 23 0;
#X connect 25 0 38 0;
#X connect 27 0 26 0;
#X connect 28 0 27 0;
#X connect 29 0 27 0;
#X connect 30 0 31 0;
#X connect 31 0 29 0;
#X connect 32 0 33 0;
#X connect 32 1 7 0;
#X connect 32 2 28 0;
#X connect 33 0 34 0;
#X connect 34 0 30 0;
#X connect 35 0 32 0;
#X connect 38 0 37 0;
#X connect 38 0 37 1;
#X connect 39 0 38 1;
#X connect 41 0 42 0;
#X connect 42 0 39 0;
#X connect 43 0 0 0;
#X connect 49 0 50 0;
#X connect 50 0 20 0;
