#N canvas 361 212 324 262 10;
#X obj 51 114 noise~;
#X obj 86 195 lop~;
#X obj 209 128 line;
#X obj 123 60 t b b;
#X obj 123 28 inlet;
#X obj 86 224 outlet~;
#X obj 82 36 bng 15 250 50 0 empty empty empty 17 7 0 10 -262144 -1
-1;
#X obj 86 166 *~;
#X obj 123 128 line~;
#X msg 209 106 10 \, 3000 30;
#X msg 123 105 1 \, 0 125;
#X connect 0 0 7 0;
#X connect 1 0 5 0;
#X connect 2 0 1 1;
#X connect 3 0 10 0;
#X connect 3 1 9 0;
#X connect 4 0 3 0;
#X connect 6 0 3 0;
#X connect 7 0 1 0;
#X connect 8 0 7 1;
#X connect 9 0 2 0;
#X connect 10 0 8 0;
