#N canvas 387 79 380 405 10;
#X obj 49 100 vline~;
#X obj 50 183 *~;
#X obj 67 160 vline~;
#X obj 194 112 noise~;
#X obj 214 182 vline~;
#X obj 195 214 *~;
#X obj 49 54 t b b b;
#X obj 51 279 +~;
#X msg 67 140 0 \, 1 1 \, 0 99 1;
#X msg 213 162 0 \, 1 5 \, 0 100 5;
#X obj 49 120 phasor~;
#X msg 49 78 450 \, 0 200;
#X obj 195 132 lop~ 1000;
#X obj 50 212 *~ 0.5;
#X obj 49 16 inlet;
#X obj 52 334 outlet~;
#X connect 0 0 10 0;
#X connect 1 0 13 0;
#X connect 2 0 1 1;
#X connect 3 0 12 0;
#X connect 4 0 5 1;
#X connect 5 0 7 1;
#X connect 6 0 11 0;
#X connect 6 1 8 0;
#X connect 6 2 9 0;
#X connect 7 0 15 0;
#X connect 8 0 2 0;
#X connect 9 0 4 0;
#X connect 10 0 1 0;
#X connect 11 0 0 0;
#X connect 12 0 5 0;
#X connect 13 0 7 0;
#X connect 14 0 6 0;
