#N canvas 171 47 225 335 10;
#X declare -path ./rj;
#N canvas 0 22 452 817 BASS 0;
#X obj 19 271 osc~;
#X obj 51 226 *~;
#X obj 69 206 lop~ 1;
#X obj 19 252 +~;
#X obj 19 43 mtof;
#X obj 19 124 / 2;
#X obj 19 672 vcf~ 2;
#X obj 160 406 r \$0-bpm;
#X obj 223 236 r \$0-Wobble;
#X obj 223 276 int;
#X obj 223 296 change -100;
#X obj 160 478 *;
#X obj 223 386 f;
#X msg 383 346 4;
#X obj 223 256 * 5.99;
#X obj 223 316 sel 0 1 2 3 4 5;
#X obj 160 448 / 60;
#X obj 160 427 f;
#X msg 303 346 2;
#X msg 343 346 3;
#X obj 19 104 t f f;
#X obj 19 83 line;
#X obj 19 63 pack f 100;
#X obj 86 22 r \$0-Glide;
#X obj 86 43 * 1000;
#X msg 223 346 1;
#X msg 263 346 1.5;
#X obj 56 468 f;
#X obj 27 406 spigot 1;
#X obj 160 498 change -100;
#X obj 160 519 t f b;
#X msg 128 406 1;
#X msg 96 406 0;
#X obj 27 301 r \$0-tick;
#X obj 27 322 mod 8;
#X obj 27 343 / 2;
#X obj 27 364 int;
#X obj 27 386 * 0.25;
#X obj 69 144 r \$0-Tone;
#N canvas 0 22 568 311 fm-osc 0;
#X obj 20 114 * 0.5;
#X obj 20 144 osc~;
#X obj 70 144 osc~;
#X obj 140 144 osc~;
#X obj 180 144 osc~;
#X obj 140 114 * 1;
#X obj 180 114 * 2;
#X obj 220 144 osc~;
#X obj 290 144 osc~;
#X obj 340 144 osc~;
#X obj 410 144 osc~;
#X obj 480 144 osc~;
#X obj 290 114 * 4;
#X obj 480 114 * 8;
#X obj 70 114 * 1.4983;
#X obj 410 114 * 5.9932;
#X obj 340 114 * 5.0397;
#X obj 220 114 * 2.9966;
#X obj 155 32 inlet;
#X obj 220 267 outlet~;
#X obj 340 174 *~ 1;
#X obj 290 174 *~ 1;
#X obj 140 174 *~ 1;
#X obj 180 174 *~ 1;
#X obj 70 174 *~ 2;
#X obj 20 174 *~ 2;
#X obj 220 174 *~ 1;
#X obj 155 53 t f f f f f f f f f;
#X obj 220 224 *~ 0.1;
#X obj 480 174 *~ 0.2;
#X obj 410 174 *~ 0.2;
#X connect 0 0 1 0;
#X connect 1 0 25 0;
#X connect 2 0 24 0;
#X connect 3 0 22 0;
#X connect 4 0 23 0;
#X connect 5 0 3 0;
#X connect 6 0 4 0;
#X connect 7 0 26 0;
#X connect 8 0 21 0;
#X connect 9 0 20 0;
#X connect 10 0 30 0;
#X connect 11 0 29 0;
#X connect 12 0 8 0;
#X connect 13 0 11 0;
#X connect 14 0 2 0;
#X connect 15 0 10 0;
#X connect 16 0 9 0;
#X connect 17 0 7 0;
#X connect 18 0 27 0;
#X connect 20 0 28 0;
#X connect 21 0 28 0;
#X connect 22 0 28 0;
#X connect 23 0 28 0;
#X connect 24 0 28 0;
#X connect 25 0 28 0;
#X connect 26 0 28 0;
#X connect 27 0 0 0;
#X connect 27 1 14 0;
#X connect 27 2 5 0;
#X connect 27 3 6 0;
#X connect 27 4 17 0;
#X connect 27 5 12 0;
#X connect 27 6 16 0;
#X connect 27 7 15 0;
#X connect 27 8 13 0;
#X connect 28 0 19 0;
#X connect 29 0 28 0;
#X connect 30 0 28 0;
#X restore 51 124 pd fm-osc;
#X obj 223 406 t b b b f;
#X obj 69 165 * 10000;
#X obj 69 186 + 100;
#X obj 19 23 inlet;
#X obj 19 793 throw~ LEFT;
#X obj 109 793 throw~ RIGHT;
#X obj 19 733 *~;
#X obj 37 692 r \$0-bass;
#X text 325 775 Joe White 2010;
#X obj 37 713 lop~ 10;
#X obj 56 489 phasor~;
#X obj 56 510 *~ 2;
#X obj 56 540 max~ 1;
#X obj 106 541 min~ 1;
#X obj 38 446 sig~ 1;
#X obj 38 567 -~;
#X obj 38 588 *~ 2;
#X obj 38 609 -~ 1;
#X obj 38 630 *~ 490;
#X obj 38 651 +~ 490;
#X obj 27 426 t b b;
#X connect 0 0 6 0;
#X connect 1 0 3 1;
#X connect 2 0 1 1;
#X connect 3 0 0 0;
#X connect 4 0 22 0;
#X connect 5 0 3 0;
#X connect 6 0 46 0;
#X connect 7 0 17 0;
#X connect 8 0 14 0;
#X connect 9 0 10 0;
#X connect 10 0 15 0;
#X connect 11 0 29 0;
#X connect 12 0 40 0;
#X connect 13 0 12 0;
#X connect 14 0 9 0;
#X connect 15 0 25 0;
#X connect 15 1 26 0;
#X connect 15 2 18 0;
#X connect 15 3 19 0;
#X connect 15 4 13 0;
#X connect 16 0 11 0;
#X connect 17 0 16 0;
#X connect 18 0 12 0;
#X connect 19 0 12 0;
#X connect 20 0 5 0;
#X connect 20 1 39 0;
#X connect 21 0 20 0;
#X connect 22 0 21 0;
#X connect 23 0 24 0;
#X connect 24 0 22 1;
#X connect 25 0 12 0;
#X connect 26 0 12 0;
#X connect 27 0 50 0;
#X connect 28 0 60 0;
#X connect 29 0 30 0;
#X connect 30 0 27 1;
#X connect 30 1 31 0;
#X connect 31 0 28 1;
#X connect 32 0 28 1;
#X connect 33 0 34 0;
#X connect 34 0 35 0;
#X connect 35 0 36 0;
#X connect 36 0 37 0;
#X connect 37 0 28 0;
#X connect 38 0 41 0;
#X connect 39 0 1 0;
#X connect 40 2 11 0;
#X connect 40 3 11 1;
#X connect 41 0 42 0;
#X connect 42 0 2 0;
#X connect 43 0 4 0;
#X connect 46 0 44 0;
#X connect 46 0 45 0;
#X connect 47 0 49 0;
#X connect 49 0 46 1;
#X connect 50 0 51 0;
#X connect 51 0 52 0;
#X connect 51 0 53 0;
#X connect 52 0 55 1;
#X connect 53 0 56 0;
#X connect 54 0 55 0;
#X connect 55 0 56 0;
#X connect 56 0 57 0;
#X connect 57 0 58 0;
#X connect 58 0 59 0;
#X connect 59 0 6 1;
#X connect 60 0 32 0;
#X connect 60 1 27 0;
#X restore 9 256 pd BASS;
#N canvas 0 22 450 300 TIMEBASE 0;
#X obj 92 67 loadbang;
#X obj 92 109 f;
#X obj 121 109 + 1;
#X obj 92 130 s \$0-tick;
#X obj 92 88 metro 53.57;
#X text 182 88 140 BPM;
#X obj 245 67 loadbang;
#X msg 245 88 140;
#X obj 245 109 s \$0-bpm;
#X obj 23 15 declare -path ./rj;
#X connect 0 0 4 0;
#X connect 1 0 2 0;
#X connect 1 0 3 0;
#X connect 2 0 1 1;
#X connect 4 0 1 0;
#X connect 6 0 7 0;
#X connect 7 0 8 0;
#X restore 9 216 pd TIMEBASE;
#N canvas 0 22 443 481 CONTROLS 0;
#X obj 101 101 cnv 15 198 198 empty empty empty 0 0 0 14 -261234 -66577
0;
#X obj 32 180 s \$0-Wobble;
#X obj 128 180 hsl 128 15 0 1 0 0 empty empty WOBBLE 40 7 1 10 -262144
-1 -1 6223 1;
#X obj 128 120 hsl 128 15 0 1 0 0 empty empty GLIDE 40 7 1 10 -262144
-1 -1 0 1;
#X obj 39 120 s \$0-Glide;
#X obj 128 150 hsl 128 15 0 1 0 0 empty empty TONE 40 7 1 10 -262144
-1 -1 6223 1;
#X obj 46 150 s \$0-Tone;
#X obj 125 240 tgl 20 0 empty empty DRUMS 30 10 1 10 -262144 -1 -1
1 1;
#X obj 32 240 s \$0-drums;
#X obj 195 210 tgl 20 0 empty empty AUTOPLAY 30 10 1 10 -262144 -1
-1 1 1;
#X obj 295 213 s \$0-autoplay;
#X obj 125 210 tgl 20 0 empty empty BASS 30 10 1 10 -262144 -1 -1 1
1;
#X obj 32 210 s \$0-bass;
#X obj 74 2 loadbang;
#X obj 74 43 t b b b b;
#X msg 74 64 1;
#X msg 107 65 0.49;
#X text 107 281 Hook up your midi keyboard!;
#X msg 150 65 0;
#X connect 2 0 1 0;
#X connect 3 0 4 0;
#X connect 5 0 6 0;
#X connect 7 0 8 0;
#X connect 9 0 10 0;
#X connect 11 0 12 0;
#X connect 13 0 14 0;
#X connect 14 0 15 0;
#X connect 14 1 16 0;
#X connect 14 2 18 0;
#X connect 15 0 9 0;
#X connect 15 0 7 0;
#X connect 15 0 11 0;
#X connect 16 0 5 0;
#X connect 16 0 2 0;
#X connect 18 0 3 0;
#X coords 0 -1 1 1 200 200 1 100 100;
#X restore 9 12 pd CONTROLS;
#N canvas 0 22 539 544 DRUMS 0;
#X obj 17 24 r \$0-tick;
#X obj 17 97 sel 0;
#X obj 49 168 timer;
#X obj 17 124 t b b;
#X obj 49 386 list trim;
#X obj 95 237 f;
#X obj 49 288 pack f f;
#X obj 49 361 list prepend \$1;
#X msg 49 311 \$1 \$2;
#X obj 102 262 -;
#X obj 49 210 t f b f;
#X obj 151 132 loadbang;
#X msg 151 153 info;
#X obj 151 195 unpack s f f f;
#X obj 17 70 mod 128;
#X obj 81 144 sel 1;
#X obj 104 104 switch~;
#X obj 49 505 throw~ LEFT;
#X obj 89 481 throw~ RIGHT;
#X obj 81 53 r \$0-drums;
#X obj 49 457 *~;
#X obj 89 457 *~;
#X obj 187 417 lop~ 5;
#X obj 81 74 t f f f;
#X obj 49 335 list prepend 2 1;
#X obj 49 416 s_playtable2;
#X obj 151 174 rj/u_samplebank2 \$0-tablename ../sounds/Drums.wav;
#X connect 0 0 14 0;
#X connect 1 0 3 0;
#X connect 2 0 10 0;
#X connect 3 0 2 1;
#X connect 3 1 2 0;
#X connect 4 0 25 0;
#X connect 5 0 9 0;
#X connect 6 0 8 0;
#X connect 7 0 4 0;
#X connect 8 0 24 0;
#X connect 9 0 6 1;
#X connect 10 0 6 0;
#X connect 10 1 5 0;
#X connect 10 2 9 1;
#X connect 11 0 12 0;
#X connect 12 0 26 0;
#X connect 13 0 7 1;
#X connect 13 1 5 1;
#X connect 14 0 1 0;
#X connect 15 0 2 1;
#X connect 19 0 23 0;
#X connect 20 0 17 0;
#X connect 21 0 18 0;
#X connect 22 0 21 1;
#X connect 22 0 20 1;
#X connect 23 0 15 0;
#X connect 23 1 16 0;
#X connect 23 2 22 0;
#X connect 24 0 7 0;
#X connect 25 0 20 0;
#X connect 25 1 21 0;
#X connect 26 0 13 0;
#X restore 9 276 pd DRUMS;
#N canvas 0 22 450 300 PATTERN 0;
#X obj 47 84 notein;
#X obj 47 132 spigot;
#X obj 86 108 != 0;
#X obj 47 203 outlet;
#X obj 127 44 r \$0-tick;
#X obj 127 105 mod 64;
#X obj 127 168 f;
#X obj 127 85 spigot;
#X obj 166 65 r \$0-autoplay;
#X msg 127 147 60;
#X msg 157 147 58;
#X msg 187 147 55;
#X msg 217 147 48;
#X obj 127 126 sel 0 16 32 48;
#X connect 0 0 1 0;
#X connect 0 1 2 0;
#X connect 1 0 3 0;
#X connect 2 0 1 1;
#X connect 4 0 7 0;
#X connect 5 0 13 0;
#X connect 6 0 3 0;
#X connect 7 0 5 0;
#X connect 8 0 7 1;
#X connect 9 0 6 0;
#X connect 10 0 6 0;
#X connect 11 0 6 0;
#X connect 12 0 6 0;
#X connect 13 0 9 0;
#X connect 13 1 10 0;
#X connect 13 2 11 0;
#X connect 13 3 12 0;
#X restore 9 236 pd PATTERN;
#N canvas 0 22 154 125 IO 0;
#X obj 44 46 catch~ RIGHT;
#X obj 19 25 catch~ LEFT;
#X obj 19 86 dac~;
#X connect 0 0 2 1;
#X connect 1 0 2 0;
#X restore 9 296 pd IO;
#X connect 4 0 0 0;
