#N canvas 0 22 270 223 10;
#N canvas 2 22 1022 604 (subpatch) 0;
#X obj -36 170 random 8;
#X text 744 225 what note to play;
#X text 710 241 only numbers 7 \, 1 \, 2 \, 3 \, 4 \, 5 will trigger
notes;
#X text 729 256 any other value will trigger nothing;
#X text 721 210 if this beat is a trigger use a random number to work
out;
#X obj 9 16 vsl 15 50 0 30 0 0 empty empty prob 0 -8 0 8 -128992 -1
-1 1307 1;
#X msg 220 0 8;
#X obj 220 -29 loadbang;
#X text 219 -58 set initial;
#X text 219 -47 probability;
#X floatatom -102 171 0 0 0 0 - - -;
#X obj -117 240 +;
#X msg -117 219 0;
#X msg -86 220 0;
#X msg -57 220 0;
#X msg -27 220 0;
#X obj -85 240 +;
#X obj -57 240 +;
#X obj -27 240 +;
#X obj 3 240 +;
#X obj 34 241 +;
#X obj 64 241 +;
#X msg 64 220 0;
#X msg 34 221 0;
#X msg 3 221 0;
#X obj -36 197 select 0 7 1 2 3 4 5 6;
#X obj 92 241 +;
#X msg 92 220 0;
#X floatatom -117 264 0 0 0 0 - - -;
#X obj -36 150 bng 15 250 50 0 empty empty empty 17 7 0 10 -262144
-1 -1;
#X text -106 -48 Will I play ?;
#X obj -105 92 inlet;
#X obj -71 440 outlet;
#X obj 9 -69 r ProbBang;
#X obj 11 -41 random 30;
#X obj 12 -21 + 1;
#X obj -70 -16 bng 15 250 50 0 empty empty empty 17 7 0 10 -262144
-1 -1;
#X text 26 5 <- low;
#X text 27 54 <- high;
#X floatatom 138 174 0 0 0 0 - - -;
#X obj 123 243 +;
#X msg 123 222 0;
#X msg 154 223 0;
#X msg 183 223 0;
#X msg 213 223 0;
#X obj 155 243 +;
#X obj 183 243 +;
#X obj 213 243 +;
#X obj 243 243 +;
#X obj 274 244 +;
#X obj 304 244 +;
#X msg 304 223 0;
#X msg 274 224 0;
#X msg 243 224 0;
#X obj 204 200 select 0 7 1 2 3 4 5 6;
#X obj 332 244 +;
#X msg 332 223 0;
#X floatatom 123 267 0 0 0 0 - - -;
#X floatatom 390 171 0 0 0 0 - - -;
#X obj 375 240 +;
#X msg 375 219 0;
#X msg 406 220 0;
#X msg 435 220 0;
#X msg 465 220 0;
#X obj 407 240 +;
#X obj 435 240 +;
#X obj 465 240 +;
#X obj 495 240 +;
#X obj 526 241 +;
#X obj 556 241 +;
#X msg 556 220 0;
#X msg 526 221 0;
#X msg 495 221 0;
#X obj 456 197 select 0 7 1 2 3 4 5 6;
#X obj 584 241 +;
#X msg 584 220 0;
#X floatatom 375 264 0 0 0 0 - - -;
#X obj -104 126 unpack f f f;
#X obj -83 351 pack f f f;
#X connect 0 0 25 0;
#X connect 0 0 54 0;
#X connect 0 0 73 0;
#X connect 5 0 0 1;
#X connect 6 0 5 0;
#X connect 7 0 6 0;
#X connect 10 0 11 1;
#X connect 10 0 16 1;
#X connect 10 0 17 1;
#X connect 10 0 18 1;
#X connect 10 0 19 1;
#X connect 10 0 20 1;
#X connect 10 0 21 1;
#X connect 10 0 26 1;
#X connect 11 0 28 0;
#X connect 12 0 11 0;
#X connect 13 0 16 0;
#X connect 14 0 17 0;
#X connect 15 0 18 0;
#X connect 16 0 28 0;
#X connect 17 0 28 0;
#X connect 18 0 28 0;
#X connect 19 0 28 0;
#X connect 20 0 28 0;
#X connect 21 0 28 0;
#X connect 22 0 21 0;
#X connect 23 0 20 0;
#X connect 24 0 19 0;
#X connect 25 0 12 0;
#X connect 25 1 13 0;
#X connect 25 2 14 0;
#X connect 25 3 15 0;
#X connect 25 4 24 0;
#X connect 25 5 23 0;
#X connect 25 6 22 0;
#X connect 25 7 27 0;
#X connect 26 0 28 0;
#X connect 27 0 26 0;
#X connect 28 0 78 0;
#X connect 29 0 0 0;
#X connect 31 0 29 0;
#X connect 31 0 77 0;
#X connect 33 0 34 0;
#X connect 34 0 35 0;
#X connect 35 0 5 0;
#X connect 36 0 34 0;
#X connect 39 0 40 1;
#X connect 39 0 45 1;
#X connect 39 0 46 1;
#X connect 39 0 47 1;
#X connect 39 0 48 1;
#X connect 39 0 49 1;
#X connect 39 0 50 1;
#X connect 39 0 55 1;
#X connect 40 0 57 0;
#X connect 41 0 40 0;
#X connect 42 0 45 0;
#X connect 43 0 46 0;
#X connect 44 0 47 0;
#X connect 45 0 57 0;
#X connect 46 0 57 0;
#X connect 47 0 57 0;
#X connect 48 0 57 0;
#X connect 49 0 57 0;
#X connect 50 0 57 0;
#X connect 51 0 50 0;
#X connect 52 0 49 0;
#X connect 53 0 48 0;
#X connect 54 0 41 0;
#X connect 54 1 42 0;
#X connect 54 2 43 0;
#X connect 54 3 44 0;
#X connect 54 4 53 0;
#X connect 54 5 52 0;
#X connect 54 6 51 0;
#X connect 54 7 56 0;
#X connect 55 0 57 0;
#X connect 56 0 55 0;
#X connect 57 0 78 1;
#X connect 58 0 59 1;
#X connect 58 0 64 1;
#X connect 58 0 65 1;
#X connect 58 0 66 1;
#X connect 58 0 67 1;
#X connect 58 0 68 1;
#X connect 58 0 69 1;
#X connect 58 0 74 1;
#X connect 59 0 76 0;
#X connect 60 0 59 0;
#X connect 61 0 64 0;
#X connect 62 0 65 0;
#X connect 63 0 66 0;
#X connect 64 0 76 0;
#X connect 65 0 76 0;
#X connect 66 0 76 0;
#X connect 67 0 76 0;
#X connect 68 0 76 0;
#X connect 69 0 76 0;
#X connect 70 0 69 0;
#X connect 71 0 68 0;
#X connect 72 0 67 0;
#X connect 73 0 60 0;
#X connect 73 1 61 0;
#X connect 73 2 62 0;
#X connect 73 3 63 0;
#X connect 73 4 72 0;
#X connect 73 5 71 0;
#X connect 73 6 70 0;
#X connect 73 7 75 0;
#X connect 74 0 76 0;
#X connect 75 0 74 0;
#X connect 76 0 78 2;
#X connect 77 0 10 0;
#X connect 77 1 39 0;
#X connect 77 2 58 0;
#X connect 78 0 32 0;
#X coords 0 1 100 -1 80 80 1 0 0;
#X restore -24 12 graph;
#N canvas 2 22 450 300 (subpatch) 0;
#X obj -36 170 random 8;
#X text 154 182 what note to play;
#X text 120 198 only numbers 7 \, 1 \, 2 \, 3 \, 4 \, 5 will trigger
notes;
#X text 139 213 any other value will trigger nothing;
#X text 31 169 if this beat is a trigger use a random number to work
out;
#X obj 9 16 vsl 15 50 0 30 0 0 empty empty prob 0 -8 0 8 -262144 -1
-1 1307 1;
#X msg 220 0 8;
#X obj 220 -29 loadbang;
#X text 219 -58 set initial;
#X text 219 -47 probability;
#X floatatom -102 171 0 0 0 0 - - -;
#X obj -117 240 +;
#X msg -117 219 0;
#X msg -86 220 0;
#X msg -57 220 0;
#X msg -27 220 0;
#X obj -85 240 +;
#X obj -57 240 +;
#X obj -27 240 +;
#X obj 3 240 +;
#X obj 34 241 +;
#X obj 64 241 +;
#X msg 64 220 0;
#X msg 34 221 0;
#X msg 3 221 0;
#X obj -36 197 select 0 7 1 2 3 4 5 6;
#X obj 92 241 +;
#X msg 92 220 0;
#X floatatom -117 264 0 0 0 0 - - -;
#X obj -36 150 bng 15 250 50 0 empty empty empty 17 7 0 10 -262144
-1 -1;
#X text -106 -48 Will I play ?;
#X obj -102 126 inlet;
#X obj -117 299 outlet;
#X obj 9 -69 r ProbBang;
#X obj 11 -41 random 30;
#X obj 12 -21 + 1;
#X obj -70 -16 bng 15 250 50 0 empty empty empty 17 7 0 10 -262144
-1 -1;
#X text 26 5 <- low;
#X text 27 54 <- high;
#X connect 0 0 25 0;
#X connect 5 0 0 1;
#X connect 6 0 5 0;
#X connect 7 0 6 0;
#X connect 10 0 11 1;
#X connect 10 0 16 1;
#X connect 10 0 17 1;
#X connect 10 0 18 1;
#X connect 10 0 19 1;
#X connect 10 0 20 1;
#X connect 10 0 21 1;
#X connect 10 0 26 1;
#X connect 11 0 28 0;
#X connect 12 0 11 0;
#X connect 13 0 16 0;
#X connect 14 0 17 0;
#X connect 15 0 18 0;
#X connect 16 0 28 0;
#X connect 17 0 28 0;
#X connect 18 0 28 0;
#X connect 19 0 28 0;
#X connect 20 0 28 0;
#X connect 21 0 28 0;
#X connect 22 0 21 0;
#X connect 23 0 20 0;
#X connect 24 0 19 0;
#X connect 25 0 12 0;
#X connect 25 1 13 0;
#X connect 25 2 14 0;
#X connect 25 3 15 0;
#X connect 25 4 24 0;
#X connect 25 5 23 0;
#X connect 25 6 22 0;
#X connect 25 7 27 0;
#X connect 26 0 28 0;
#X connect 27 0 26 0;
#X connect 28 0 32 0;
#X connect 29 0 0 0;
#X connect 31 0 10 0;
#X connect 31 0 29 0;
#X connect 33 0 34 0;
#X connect 34 0 35 0;
#X connect 35 0 5 0;
#X connect 36 0 34 0;
#X coords 0 1 100 -1 80 80 1 0 0;
#X restore -24 105 graph;
#X text 67 109 1 note;
#X text 66 12 3 notes packed;
