#N canvas 0 22 804 602 10;
#X obj 167 312 bonk~;
#X obj 167 385 * 12;
#X obj 167 410 div 7;
#X obj 167 360 + 1;
#X obj 167 335 unpack f f f;
#X obj 238 435 + 100;
#X obj 167 435 + 36;
#X obj 167 263 *~;
#X obj 182 243 tgl 15 0 empty empty empty 17 7 0 10 -262144 -1 -1 0
1;
#X obj 391 264 *~;
#X obj 407 245 tgl 15 0 empty empty empty 17 7 0 10 -262144 -1 -1 0
1;
#X obj 581 389 unpack;
#X floatatom 581 439 0 0 0 0 - - -;
#X floatatom 595 416 0 0 0 0 - - -;
#X obj 581 349 route 1 2 3 4;
#X obj 631 389 unpack;
#X floatatom 631 439 0 0 0 0 - - -;
#X floatatom 645 416 0 0 0 0 - - -;
#X obj 678 389 unpack;
#X floatatom 678 439 0 0 0 0 - - -;
#X floatatom 692 416 0 0 0 0 - - -;
#X obj 446 389 unpack;
#X floatatom 446 439 0 0 0 0 - - -;
#X floatatom 460 416 0 0 0 0 - - -;
#X floatatom 520 439 0 0 0 0 - - -;
#X obj 391 318 fiddle~ 1024 1 20 3;
#X text 582 463 individual sinusoidal components;
#X obj 418 441 bng 15 250 50 0 empty empty empty 17 7 0 10 -262144
-1 -1;
#X floatatom 391 440 0 0 0 0 - - -;
#X obj 167 535 s bnote;
#X obj 238 535 s bvel;
#X obj 419 557 s fbang;
#X text 510 460 amplitude;
#X text 520 475 (dB);
#X text 433 460 raw pitch;
#X obj 167 43 catch~ one;
#X obj 461 576 s fvel;
#X obj 391 535 s fnote1;
#X obj 581 537 s fnote1;
#X obj 581 484 ftom;
#X obj 631 557 s fnote1;
#X obj 631 485 ftom;
#X obj 679 575 s fnote1;
#X obj 678 486 ftom;
#X text 189 223 Enable bonk analysis;
#X text 406 224 Enable fiddle analysis;
#X text 164 512 This is what you get;
#X text 50 438 Change offset -->;
#X connect 0 1 4 0;
#X connect 1 0 2 0;
#X connect 2 0 6 0;
#X connect 3 0 1 0;
#X connect 4 1 3 0;
#X connect 4 2 5 0;
#X connect 5 0 30 0;
#X connect 6 0 29 0;
#X connect 7 0 0 0;
#X connect 8 0 7 1;
#X connect 9 0 25 0;
#X connect 10 0 9 1;
#X connect 11 0 12 0;
#X connect 11 1 13 0;
#X connect 12 0 39 0;
#X connect 14 0 11 0;
#X connect 14 1 15 0;
#X connect 14 2 18 0;
#X connect 15 0 16 0;
#X connect 15 1 17 0;
#X connect 16 0 41 0;
#X connect 18 0 19 0;
#X connect 18 1 20 0;
#X connect 19 0 43 0;
#X connect 21 0 22 0;
#X connect 21 1 23 0;
#X connect 23 0 36 0;
#X connect 25 0 28 0;
#X connect 25 1 27 0;
#X connect 25 2 21 0;
#X connect 25 3 24 0;
#X connect 25 4 14 0;
#X connect 27 0 31 0;
#X connect 28 0 37 0;
#X connect 35 0 7 0;
#X connect 35 0 9 0;
#X connect 39 0 38 0;
#X connect 41 0 40 0;
#X connect 43 0 42 0;
