#N canvas 252 22 772 614 10;
#X obj 23 17 dumpOSC 8000;
#X obj 176 34 print osc;
#X obj 23 50 OSCroute /fingerplay;
#X obj 23 81 OSCroute /control;
#N canvas 0 22 657 583 getVelFromPads 0;
#X obj -191 104 inlet;
#X floatatom 64 145 5 0 0 0 - - -;
#X floatatom 146 146 5 0 0 0 - - -;
#X floatatom 227 146 5 0 0 0 - - -;
#X floatatom 309 147 5 0 0 0 - - -;
#X floatatom 61 244 5 0 0 0 - - -;
#X floatatom 144 244 5 0 0 0 - - -;
#X floatatom 225 244 5 0 0 0 - - -;
#X floatatom 306 245 5 0 0 0 - - -;
#X floatatom 57 343 5 0 0 0 - - -;
#X floatatom 140 343 5 0 0 0 - - -;
#X floatatom 221 343 5 0 0 0 - - -;
#X floatatom 302 344 5 0 0 0 - - -;
#X floatatom 37 429 5 0 0 0 - - -;
#X obj 16 407 OSCroute /14;
#X floatatom 121 428 5 0 0 0 - - -;
#X floatatom 207 427 5 0 0 0 - - -;
#X floatatom 301 430 5 0 0 0 - - -;
#X obj 99 407 OSCroute /15;
#X obj 180 407 OSCroute /16;
#X obj 261 408 OSCroute /17;
#X obj 17 321 OSCroute /18;
#X obj 100 321 OSCroute /19;
#X obj 181 321 OSCroute /20;
#X obj 262 322 OSCroute /21;
#X obj 21 222 OSCroute /22;
#X obj 104 222 OSCroute /23;
#X obj 185 222 OSCroute /24;
#X obj 266 223 OSCroute /25;
#X obj 24 123 OSCroute /26;
#X obj 106 124 OSCroute /27;
#X obj 188 124 OSCroute /28;
#X obj 269 125 OSCroute /29;
#X obj 16 448 f 36;
#X obj 16 468 +;
#X obj -135 78 inlet;
#X obj 16 429 bng 15 250 50 0 empty empty empty 17 7 0 10 -262144 -1
-1;
#X floatatom 4 535 5 0 0 0 - - -;
#X floatatom 53 532 5 0 0 0 - - -;
#X obj 4 557 outlet;
#X obj 53 556 outlet;
#X text -40 544 Note;
#X text 101 537 Vel;
#X obj 99 469 +;
#X obj 99 430 bng 15 250 50 0 empty empty empty 17 7 0 10 -262144 -1
-1;
#X obj 179 466 +;
#X obj 179 427 bng 15 250 50 0 empty empty empty 17 7 0 10 -262144
-1 -1;
#X obj 263 468 +;
#X obj 263 429 bng 15 250 50 0 empty empty empty 17 7 0 10 -262144
-1 -1;
#X obj 21 382 +;
#X obj 21 343 bng 15 250 50 0 empty empty empty 17 7 0 10 -262144 -1
-1;
#X obj 107 381 +;
#X obj 107 342 bng 15 250 50 0 empty empty empty 17 7 0 10 -262144
-1 -1;
#X obj 189 382 +;
#X obj 188 343 bng 15 250 50 0 empty empty empty 17 7 0 10 -262144
-1 -1;
#X obj 269 382 +;
#X obj 269 343 bng 15 250 50 0 empty empty empty 17 7 0 10 -262144
-1 -1;
#X obj 29 286 +;
#X obj 30 244 bng 15 250 50 0 empty empty empty 17 7 0 10 -262144 -1
-1;
#X obj 115 282 +;
#X obj 115 243 bng 15 250 50 0 empty empty empty 17 7 0 10 -262144
-1 -1;
#X obj 197 283 +;
#X obj 197 244 bng 15 250 50 0 empty empty empty 17 7 0 10 -262144
-1 -1;
#X obj 272 285 +;
#X obj 274 245 bng 15 250 50 0 empty empty empty 17 7 0 10 -262144
-1 -1;
#X obj 32 185 +;
#X obj 31 145 bng 15 250 50 0 empty empty empty 17 7 0 10 -262144 -1
-1;
#X obj 119 185 +;
#X obj 119 146 bng 15 250 50 0 empty empty empty 17 7 0 10 -262144
-1 -1;
#X obj 196 185 +;
#X obj 196 146 bng 15 250 50 0 empty empty empty 17 7 0 10 -262144
-1 -1;
#X obj 273 191 +;
#X obj 273 152 bng 15 250 50 0 empty empty empty 17 7 0 10 -262144
-1 -1;
#X obj 99 449 f 37;
#X obj 179 445 f 38;
#X obj 263 448 f 39;
#X obj 21 362 f 40;
#X obj 107 361 f 41;
#X obj 188 362 f 42;
#X obj 269 362 f 43;
#X obj 29 262 f 44;
#X obj 115 262 f 45;
#X obj 196 263 f 46;
#X obj 274 264 f 47;
#X obj 31 164 f 48;
#X obj 119 165 f 49;
#X obj 196 165 f 50;
#X obj 273 171 f 51;
#X connect 0 0 14 0;
#X connect 0 0 18 0;
#X connect 0 0 19 0;
#X connect 0 0 20 0;
#X connect 0 0 21 0;
#X connect 0 0 22 0;
#X connect 0 0 23 0;
#X connect 0 0 24 0;
#X connect 0 0 25 0;
#X connect 0 0 26 0;
#X connect 0 0 27 0;
#X connect 0 0 28 0;
#X connect 0 0 29 0;
#X connect 0 0 30 0;
#X connect 0 0 31 0;
#X connect 0 0 32 0;
#X connect 1 0 38 0;
#X connect 2 0 38 0;
#X connect 3 0 38 0;
#X connect 4 0 38 0;
#X connect 5 0 38 0;
#X connect 6 0 38 0;
#X connect 7 0 38 0;
#X connect 8 0 38 0;
#X connect 9 0 38 0;
#X connect 10 0 38 0;
#X connect 11 0 38 0;
#X connect 12 0 38 0;
#X connect 13 0 38 0;
#X connect 14 0 13 0;
#X connect 14 0 36 0;
#X connect 15 0 38 0;
#X connect 16 0 38 0;
#X connect 17 0 38 0;
#X connect 18 0 15 0;
#X connect 18 0 44 0;
#X connect 19 0 16 0;
#X connect 19 0 46 0;
#X connect 20 0 17 0;
#X connect 20 0 48 0;
#X connect 21 0 9 0;
#X connect 21 0 50 0;
#X connect 22 0 10 0;
#X connect 22 0 52 0;
#X connect 23 0 11 0;
#X connect 23 0 54 0;
#X connect 24 0 12 0;
#X connect 24 0 56 0;
#X connect 25 0 5 0;
#X connect 25 0 58 0;
#X connect 26 0 6 0;
#X connect 26 0 60 0;
#X connect 27 0 7 0;
#X connect 27 0 62 0;
#X connect 28 0 8 0;
#X connect 28 0 64 0;
#X connect 29 0 1 0;
#X connect 29 0 66 0;
#X connect 30 0 2 0;
#X connect 30 0 68 0;
#X connect 31 0 3 0;
#X connect 31 0 70 0;
#X connect 32 0 4 0;
#X connect 32 0 72 0;
#X connect 33 0 34 0;
#X connect 34 0 37 0;
#X connect 35 0 34 1;
#X connect 35 0 43 1;
#X connect 35 0 45 1;
#X connect 35 0 47 1;
#X connect 35 0 49 1;
#X connect 35 0 51 1;
#X connect 35 0 53 1;
#X connect 35 0 55 1;
#X connect 35 0 57 1;
#X connect 35 0 59 1;
#X connect 35 0 61 1;
#X connect 35 0 63 1;
#X connect 35 0 65 1;
#X connect 35 0 67 1;
#X connect 35 0 69 1;
#X connect 35 0 71 1;
#X connect 36 0 33 0;
#X connect 37 0 39 0;
#X connect 38 0 40 0;
#X connect 43 0 37 0;
#X connect 44 0 73 0;
#X connect 45 0 37 0;
#X connect 46 0 74 0;
#X connect 47 0 37 0;
#X connect 48 0 75 0;
#X connect 49 0 37 0;
#X connect 50 0 76 0;
#X connect 51 0 37 0;
#X connect 52 0 77 0;
#X connect 53 0 37 0;
#X connect 54 0 78 0;
#X connect 55 0 37 0;
#X connect 56 0 79 0;
#X connect 57 0 37 0;
#X connect 58 0 80 0;
#X connect 59 0 37 0;
#X connect 60 0 81 0;
#X connect 61 0 37 0;
#X connect 62 0 82 0;
#X connect 63 0 37 0;
#X connect 64 0 83 0;
#X connect 65 0 37 0;
#X connect 66 0 84 0;
#X connect 67 0 37 0;
#X connect 68 0 85 0;
#X connect 69 0 37 0;
#X connect 70 0 86 0;
#X connect 71 0 37 0;
#X connect 72 0 87 0;
#X connect 73 0 43 0;
#X connect 74 0 45 0;
#X connect 75 0 47 0;
#X connect 76 0 49 0;
#X connect 77 0 51 0;
#X connect 78 0 53 0;
#X connect 79 0 55 0;
#X connect 80 0 57 0;
#X connect 81 0 59 0;
#X connect 82 0 61 0;
#X connect 83 0 63 0;
#X connect 84 0 65 0;
#X connect 85 0 67 0;
#X connect 86 0 69 0;
#X connect 87 0 71 0;
#X restore 361 144 pd getVelFromPads;
#X floatatom 460 121 5 0 0 0 - - -;
#X text 448 102 Transpose pads from 36 midi note on the left bottom
;
#X floatatom 361 168 5 0 0 0 - - -;
#X floatatom 460 167 5 0 0 0 - - -;
#X text 498 168 Vel;
#X text 397 169 Note;
#N canvas 0 22 450 300 getfromXYcontoller 0;
#X obj 24 123 OSCroute /0 /1 /2;
#X obj 140 123 OSCroute /3 /4 /5;
#X obj 24 68 inlet;
#X floatatom 57 146 5 0 0 0 - - -;
#X floatatom 90 146 5 0 0 0 - - -;
#X floatatom 173 145 5 0 0 0 - - -;
#X floatatom 206 145 5 0 0 0 - - -;
#X obj 42 220 outlet;
#X obj 87 221 outlet;
#X obj 148 220 outlet;
#X obj 193 221 outlet;
#X connect 0 1 3 0;
#X connect 0 2 4 0;
#X connect 1 1 5 0;
#X connect 1 2 6 0;
#X connect 2 0 0 0;
#X connect 2 0 1 0;
#X connect 3 0 7 0;
#X connect 4 0 8 0;
#X connect 5 0 9 0;
#X connect 6 0 10 0;
#X restore 23 144 pd getfromXYcontoller;
#N canvas 0 22 450 300 getfromSliders 0;
#X obj 24 68 inlet;
#X floatatom 64 145 5 0 0 0 - - -;
#X obj 24 123 OSCroute /6 /7;
#X floatatom 158 144 5 0 0 0 - - -;
#X obj 118 123 OSCroute /8 /9;
#X floatatom 257 144 5 0 0 0 - - -;
#X floatatom 360 143 5 0 0 0 - - -;
#X obj 211 123 OSCroute /10 /11;
#X obj 314 123 OSCroute /12 /13;
#X obj 38 225 outlet;
#X obj 100 223 outlet;
#X obj 212 220 outlet;
#X obj 274 218 outlet;
#X connect 0 0 2 0;
#X connect 0 0 4 0;
#X connect 0 0 7 0;
#X connect 0 0 8 0;
#X connect 1 0 9 0;
#X connect 2 1 1 0;
#X connect 3 0 10 0;
#X connect 4 1 3 0;
#X connect 5 0 11 0;
#X connect 6 0 12 0;
#X connect 7 1 5 0;
#X connect 8 1 6 0;
#X restore 195 144 pd getfromSliders;
#X floatatom 23 167 5 0 0 0 - - -;
#X floatatom 64 167 5 0 0 0 - - -;
#X floatatom 105 167 5 0 0 0 - - -;
#X floatatom 146 167 5 0 0 0 - - -;
#X floatatom 195 168 5 0 0 0 - - -;
#X floatatom 230 168 5 0 0 0 - - -;
#X floatatom 266 168 5 0 0 0 - - -;
#X floatatom 302 168 5 0 0 0 - - -;
#X obj 366 200 s note;
#X obj 464 198 s vel;
#X connect 0 0 2 0;
#X connect 2 0 3 0;
#X connect 3 0 4 0;
#X connect 3 0 12 0;
#X connect 3 0 11 0;
#X connect 4 0 7 0;
#X connect 4 1 8 0;
#X connect 5 0 4 1;
#X connect 7 0 21 0;
#X connect 8 0 22 0;
#X connect 11 0 13 0;
#X connect 11 1 14 0;
#X connect 11 2 15 0;
#X connect 11 3 16 0;
#X connect 12 0 17 0;
#X connect 12 1 18 0;
#X connect 12 2 19 0;
#X connect 12 3 20 0;
#X coords 0 0 1 1 85 60 0;
