#N canvas 0 22 542 282 10;
#X declare -path z_chords_abs;
#X obj 77 -17 r note;
#X obj 22 21 notein;
#X floatatom 77 62 5 0 0 0 - - -;
#N canvas 0 22 450 300 (subpatch) 0;
#X obj -30 22 spigot;
#X obj 2 3 tgl 15 0 empty empty empty 17 7 0 10 -262144 -1 -1 0 1;
#X obj -58 0 inlet;
#X obj -54 54 outlet;
#X connect 0 0 3 0;
#X connect 1 0 0 1;
#X connect 2 0 0 0;
#X coords 0 1 100 -1 20 20 1 0 0;
#X restore 77 20 graph;
#N canvas 0 22 450 300 (subpatch) 0;
#X obj -30 22 spigot;
#X obj 2 3 tgl 15 0 empty empty empty 17 7 0 10 -262144 -1 -1 0 1;
#X obj -58 0 inlet;
#X obj -54 54 outlet;
#X connect 0 0 3 0;
#X connect 1 0 0 1;
#X connect 2 0 0 0;
#X coords 0 1 100 -1 20 20 1 0 0;
#X restore 22 42 graph;
#X floatatom 122 61 5 0 0 0 - - -;
#X obj 77 78 pack f f;
#X floatatom 77 166 5 0 0 0 - - -;
#X floatatom 109 166 5 0 0 0 - - -;
#X floatatom 146 165 5 0 0 0 - - -;
#X floatatom 179 165 5 0 0 0 - - -;
#X obj 77 95 chords;
#X obj 77 149 unpack f f;
#X obj 146 148 unpack f f;
#N canvas 0 22 450 300 (subpatch) 0;
#X obj -30 22 spigot;
#X obj 2 3 tgl 15 0 empty empty empty 17 7 0 10 -262144 -1 -1 0 1;
#X obj -58 0 inlet;
#X obj -54 54 outlet;
#X connect 0 0 3 0;
#X connect 1 0 0 1;
#X connect 2 0 0 0;
#X coords 0 1 100 -1 20 20 1 0 0;
#X restore 122 20 graph;
#X obj 122 1 r vel;
#X floatatom 216 164 5 0 0 0 - - -;
#X floatatom 249 164 5 0 0 0 - - -;
#X obj 216 147 unpack f f;
#X floatatom 288 164 5 0 0 0 - - -;
#X floatatom 321 164 5 0 0 0 - - -;
#X obj 288 147 unpack f f;
#X floatatom 358 164 5 0 0 0 - - -;
#X floatatom 391 164 5 0 0 0 - - -;
#X obj 358 147 unpack f f;
#X obj 328 84 declare -path z_chords_abs;
#X connect 0 0 3 0;
#X connect 1 0 4 0;
#X connect 2 0 6 0;
#X connect 3 0 2 0;
#X connect 4 0 2 0;
#X connect 5 0 6 1;
#X connect 6 0 11 0;
#X connect 11 0 12 0;
#X connect 11 1 13 0;
#X connect 11 2 18 0;
#X connect 11 3 21 0;
#X connect 11 4 24 0;
#X connect 12 0 7 0;
#X connect 12 1 8 0;
#X connect 13 0 9 0;
#X connect 13 1 10 0;
#X connect 14 0 5 0;
#X connect 15 0 14 0;
#X connect 18 0 16 0;
#X connect 18 1 17 0;
#X connect 21 0 19 0;
#X connect 21 1 20 0;
#X connect 24 0 22 0;
#X connect 24 1 23 0;
