#N canvas 108 22 756 671 10;
#X declare -path z_qtrack_abs;
#X declare -path z_armfloat_abs;
#X obj 90 205 cnv 15 100 100 empty empty empty 20 12 0 14 -258699 -66577
0;
#X obj 179 325 bng 15 250 50 0 empty empty empty 0 -6 0 8 -262144 -1
-1;
#X msg 130 65 record;
#X msg 225 66 stop;
#X msg 179 64 play;
#X msg 267 224 print;
#X msg 267 244 write chart.txt;
#X msg 268 264 read chart.txt;
#X msg 45 139 tempo \$1;
#X floatatom 45 122 5 0 0 0 - - -;
#X text -362 432 This one is an interface to qlist.;
#X msg 44 103 loop \$1;
#X obj 44 85 tgl 15 0 empty empty empty 0 -6 0 8 -262144 -1 -1 0 1
;
#X floatatom -165 207 5 0 0 0 - - -;
#X msg -165 224 a \$1;
#X floatatom -111 207 5 0 0 0 - - -;
#X floatatom 150 379 5 0 0 0 - - -;
#X floatatom 93 379 5 0 0 0 - - -;
#X msg -111 224 b \$1;
#X text -365 500 If you want to save your chart \, you will need the
unique id to be the same when you open your patch again and read the
file. Therefore \, I recommend using a symbol or a number as a unique
id \, instead of a dollar-0.;
#X text 83 123 1 is the original speed;
#X text 201 325 Banged when done;
#X text -204 408 GNU public license v2.0;
#X obj -367 307 cnv 15 15 15 empty empty seq.qtrack 20 12 0 24 -262144
-66577 0;
#X obj -367 390 cnv 15 400 1 empty empty empty 20 12 0 14 -66577 -66577
0;
#X text -364 453 You can record a sequence of any list. It will be
played back with the same timing. You can use arbitrary selectors and
lists of any length.;
#X msg -316 224 foo \$1;
#X obj 93 324 route a b foo;
#X text -369 338 seq.qtrack <unique id>;
#X text -368 352 Description: Can record any stream of messages and
play it back at different speeds in loop or not.;
#X text -362 567 Comments: This patch is quite powerful and you should
really think about using it if you want to play back complex rhythms
and such. It wraps qlist.;
#X text -361 615 Todo: create a multitrack version;
#X text -205 393 Author: Alexandre Quessy 2006;
#X obj 92 241 z-seq.qtrack id;
#X obj -316 160 r ctl;
#X obj -165 154 r note;
#X obj -111 154 r vel;
#X obj 93 396 s qnote;
#X obj 150 396 s qvel;
#X obj 198 397 s qctl;
#X obj 44 66 z-armfloat;
#X obj 44 47 r Mbang;
#X obj 72 30 tgl 15 0 empty empty empty 0 -6 0 8 -262144 -1 -1 0 1
;
#X floatatom -316 206 5 0 0 0 - - -;
#X obj -307 178 knob 25 25 0 127 0 0 empty empty empty 0 -8 32 8 -1
-260097 -260097 0 1;
#X floatatom 198 380 5 0 0 0 - - -;
#X obj 207 352 knob 25 25 0 127 0 0 empty empty empty 0 -8 32 8 -1
-260097 -260097 0 1;
#X obj 225 29 bng 30 250 50 0 empty empty STOP 0 -8 0 10 -1 -4160 -4160
;
#X obj 130 30 bng 30 250 50 0 empty empty REC 0 -8 0 10 -1 -258113
-258113;
#X obj 179 29 bng 30 250 50 0 empty empty PLAY 0 -8 0 10 -1 -4034 -4034
;
#X text 66 12 LOOP;
#X obj 47 452 declare -path z_qtrack_abs;
#X obj 49 474 declare -path z_armfloat_abs;
#X connect 2 0 33 1;
#X connect 3 0 33 1;
#X connect 4 0 33 1;
#X connect 5 0 33 1;
#X connect 6 0 33 1;
#X connect 7 0 33 1;
#X connect 8 0 33 1;
#X connect 9 0 8 0;
#X connect 11 0 33 1;
#X connect 12 0 11 0;
#X connect 13 0 14 0;
#X connect 14 0 33 0;
#X connect 15 0 18 0;
#X connect 16 0 38 0;
#X connect 17 0 37 0;
#X connect 18 0 33 0;
#X connect 26 0 33 0;
#X connect 27 0 17 0;
#X connect 27 1 16 0;
#X connect 27 2 46 0;
#X connect 33 0 27 0;
#X connect 33 1 1 0;
#X connect 34 0 44 0;
#X connect 35 0 13 0;
#X connect 36 0 15 0;
#X connect 40 0 12 0;
#X connect 41 0 40 0;
#X connect 42 0 40 1;
#X connect 43 0 26 0;
#X connect 44 0 43 0;
#X connect 45 0 39 0;
#X connect 46 0 45 0;
#X connect 47 0 3 0;
#X connect 48 0 2 0;
#X connect 49 0 4 0;
