#N canvas 126 22 576 292 10;
#X obj 23 17 dumpOSC 8000;
#X obj 176 34 print osc;
#X obj 23 108 OSCroute /touch;
#X obj 162 108 OSCroute /acc;
#X obj 302 107 OSCroute /ori;
#X obj 23 131 unpack f f;
#X obj 162 132 unpack f f f;
#X obj 302 131 unpack f f f;
#X floatatom 23 153 5 0 0 0 - - -;
#X floatatom 80 153 5 0 0 0 - - -;
#X floatatom 162 156 5 0 0 0 - - -;
#X floatatom 196 156 5 0 0 0 - - -;
#X floatatom 231 156 5 0 0 0 - - -;
#X floatatom 302 156 5 0 0 0 - - -;
#X floatatom 336 156 5 0 0 0 - - -;
#X floatatom 371 156 5 0 0 0 - - -;
#X connect 0 0 1 0;
#X connect 0 0 2 0;
#X connect 0 0 3 0;
#X connect 0 0 4 0;
#X connect 2 0 5 0;
#X connect 3 0 6 0;
#X connect 4 0 7 0;
#X connect 5 0 8 0;
#X connect 5 1 9 0;
#X connect 6 0 10 0;
#X connect 6 1 11 0;
#X connect 6 2 12 0;
#X connect 7 0 13 0;
#X connect 7 1 14 0;
#X connect 7 2 15 0;
#X coords 0 0 1 1 85 60 0;
