#N canvas -116 22 1024 508 10;
#N canvas 484 54 459 363 ReadMe 0;
#X text 11 9 make sure you have MusicalCell_abs.pd in your path create
an object MusicalCell_abs 16 500 48 52 60 60 64 0 65 67 0 72 76 where
: - 16 is the length of the sequence that will be played (number of
steps) - 500 is the metro \, one step each 500ms - 48 is the base notes
- 60 64 0 65 67 0 72 76 is the scale. On each step a bang is produce
to select randomly a note of this scale \, 0 means that it will not
play continuously. First an second output ar midi notes to enter synths
(bass and lead) Following 6 output are used to activate a new cell
after this one is done. You just have to patch up a number of cell
together and to two synth to create a never ending melody. largely
based on a patch by Elmer.;
#X restore 413 -10 pd ReadMe;
#X text 257 289 Musical Box wrapper;
#X text 257 304 Nitendo like wrapper;
#X text 257 319 Brass sound toy;
#X text 257 335 Backwards ?;
#X obj 237 243 vradio 15 1 0 8 empty empty empty 0 -8 0 10 -262144
-1 -1 0;
#X text 257 241 Hollow Strings;
#X text 257 258 Bass sound wrapper;
#X text 257 274 Pluckstring wrapper;
#N canvas 0 22 614 447 MultiPurpose3cosSynth 0;
#N canvas 0 22 450 300 3cossynth 0;
#X obj 146 195 osc~;
#X obj 145 220 *~ 0.09;
#X obj 202 195 osc~;
#X obj 265 195 osc~;
#X obj 202 220 *~ 0.05;
#X obj 266 222 *~ 0.02;
#X obj 202 170 *;
#X obj 265 171 *;
#X obj 218 141 * 4;
#X obj 281 141 * 8;
#X obj 201 259 clip~ -0.1 0.1;
#X obj 93 348 *~;
#X obj 46 121 mtof;
#X obj 93 317 line;
#X obj 93 396 outlet~;
#X obj 46 228 pack 1 1;
#X obj 93 289 pack 0 1;
#X obj 93 262 del 1;
#X obj 93 370 *~;
#X obj 46 84 unpack 1 2 3 4 5 6 7 8 9;
#X obj 97 196 t f f;
#X obj 46 176 t b b;
#X obj 46 51 inlet parameters;
#X text 40 20 3 oscillator and clip synth;
#X connect 0 0 1 0;
#X connect 1 0 10 0;
#X connect 2 0 4 0;
#X connect 3 0 5 0;
#X connect 4 0 10 0;
#X connect 5 0 10 0;
#X connect 6 0 2 0;
#X connect 7 0 3 0;
#X connect 8 0 6 1;
#X connect 9 0 7 1;
#X connect 10 0 11 1;
#X connect 11 0 18 0;
#X connect 12 0 0 0;
#X connect 12 0 6 0;
#X connect 12 0 7 0;
#X connect 12 0 21 0;
#X connect 13 0 11 0;
#X connect 15 0 13 0;
#X connect 16 0 13 0;
#X connect 17 0 16 0;
#X connect 18 0 14 0;
#X connect 19 0 12 0;
#X connect 19 1 1 1;
#X connect 19 2 4 1;
#X connect 19 3 5 1;
#X connect 19 4 8 0;
#X connect 19 5 9 0;
#X connect 19 6 20 0;
#X connect 19 7 16 1;
#X connect 19 8 18 1;
#X connect 20 0 15 1;
#X connect 20 1 17 1;
#X connect 21 0 15 0;
#X connect 21 1 17 0;
#X connect 22 0 19 0;
#X restore 224 378 pd 3cossynth;
#X text 306 379 (note \, l0 \, l1 \, l2 \, f1 \, f2 \, A \, D \, Amp)
;
#X msg 242 175 \$1 0.298 0.353 0.172 0.122 0.251 20 1000 0.9;
#X msg 261 211 \$1 0.298 0.353 0.172 0.122 0.502 10 100 0.4;
#N canvas 0 22 753 576 HollowString 0;
#X obj 191 374 random 2;
#X obj 154 395 spigot;
#X obj 370 217 * 0.02;
#X obj 370 240 + 0.69;
#X obj 293 177 random 100;
#X obj 293 196 / 100;
#X obj 293 241 + 0.369;
#X obj 293 218 * 0.001;
#X obj 370 177 random 100;
#X obj 370 196 / 100;
#X obj 454 177 random 100;
#X obj 454 196 / 100;
#X obj 454 217 * 100;
#X obj 454 240 + 50;
#X obj 531 176 random 100;
#X obj 531 195 / 100;
#X obj 154 315 pack f f f f f;
#X obj 531 216 * 800;
#X obj 531 239 + 120;
#X msg 154 340 \$1 0.298 0.2 0.2 \$2 \$3 \$4 \$5 0.6;
#X text 186 25 stringy resonances;
#X text 399 150 randomised synth parameters;
#X text 287 322 fixed synth parameters;
#X obj 155 431 outlet;
#X obj 39 54 inlet;
#X obj 77 91 bng 15 250 50 0 empty empty empty 17 7 0 10 -262144 -1
-1;
#X connect 0 0 1 1;
#X connect 2 0 3 0;
#X connect 3 0 16 2;
#X connect 4 0 5 0;
#X connect 5 0 7 0;
#X connect 6 0 16 1;
#X connect 7 0 6 0;
#X connect 8 0 9 0;
#X connect 9 0 2 0;
#X connect 10 0 11 0;
#X connect 11 0 12 0;
#X connect 12 0 13 0;
#X connect 13 0 16 3;
#X connect 14 0 15 0;
#X connect 15 0 17 0;
#X connect 16 0 19 0;
#X connect 17 0 18 0;
#X connect 18 0 16 4;
#X connect 19 0 23 0;
#X connect 24 0 25 0;
#X connect 24 0 16 0;
#X connect 25 0 4 0;
#X connect 25 0 8 0;
#X connect 25 0 10 0;
#X connect 25 0 14 0;
#X connect 25 0 0 0;
#X restore 224 134 pd HollowString;
#X obj 224 64 prepend;
#X floatatom 311 58 5 0 0 0 - - -;
#X msg 280 244 \$1 0 0 0.25 1 1 0 500;
#X msg 298 279 \$1 1 0 0 0 0.354 7.99 450;
#X msg 319 311 \$1 1 0 1 1 0 52.91 720;
#X msg 333 344 \$1 1 0 1 1 1 150 0;
#X obj 224 83 route 0 1 2 3 4 5 6;
#X obj 315 18 inlet;
#X obj 212 20 inlet;
#X obj 224 400 outlet~;
#X connect 0 0 14 0;
#X connect 2 0 0 0;
#X connect 3 0 0 0;
#X connect 4 0 0 0;
#X connect 5 0 11 0;
#X connect 6 0 5 1;
#X connect 7 0 0 0;
#X connect 8 0 0 0;
#X connect 9 0 0 0;
#X connect 10 0 0 0;
#X connect 11 0 4 0;
#X connect 11 1 2 0;
#X connect 11 2 3 0;
#X connect 11 3 7 0;
#X connect 11 4 8 0;
#X connect 11 5 9 0;
#X connect 11 6 10 0;
#X connect 12 0 6 0;
#X connect 13 0 5 0;
#X restore 96 364 pd MultiPurpose3cosSynth;
#X text 549 297 Musical Box wrapper;
#X text 549 312 Nitendo like wrapper;
#X text 549 327 Brass sound toy;
#X text 549 343 Backwards ?;
#X obj 529 251 vradio 15 1 0 8 empty empty empty 0 -8 0 10 -262144
-1 -1 0;
#X text 549 266 Bass sound wrapper;
#X text 549 282 Pluckstring wrapper;
#N canvas 0 22 614 447 MultiPurpose3cosSynth 0;
#N canvas 0 22 450 300 3cossynth 0;
#X obj 146 195 osc~;
#X obj 145 220 *~ 0.09;
#X obj 202 195 osc~;
#X obj 265 195 osc~;
#X obj 202 220 *~ 0.05;
#X obj 266 222 *~ 0.02;
#X obj 202 170 *;
#X obj 265 171 *;
#X obj 218 141 * 4;
#X obj 281 141 * 8;
#X obj 201 259 clip~ -0.1 0.1;
#X obj 93 348 *~;
#X obj 46 121 mtof;
#X obj 93 317 line;
#X obj 93 396 outlet~;
#X obj 46 228 pack 1 1;
#X obj 93 289 pack 0 1;
#X obj 93 262 del 1;
#X obj 93 370 *~;
#X obj 46 84 unpack 1 2 3 4 5 6 7 8 9;
#X obj 97 196 t f f;
#X obj 46 176 t b b;
#X obj 46 51 inlet parameters;
#X text 40 20 3 oscillator and clip synth;
#X connect 0 0 1 0;
#X connect 1 0 10 0;
#X connect 2 0 4 0;
#X connect 3 0 5 0;
#X connect 4 0 10 0;
#X connect 5 0 10 0;
#X connect 6 0 2 0;
#X connect 7 0 3 0;
#X connect 8 0 6 1;
#X connect 9 0 7 1;
#X connect 10 0 11 1;
#X connect 11 0 18 0;
#X connect 12 0 0 0;
#X connect 12 0 6 0;
#X connect 12 0 7 0;
#X connect 12 0 21 0;
#X connect 13 0 11 0;
#X connect 15 0 13 0;
#X connect 16 0 13 0;
#X connect 17 0 16 0;
#X connect 18 0 14 0;
#X connect 19 0 12 0;
#X connect 19 1 1 1;
#X connect 19 2 4 1;
#X connect 19 3 5 1;
#X connect 19 4 8 0;
#X connect 19 5 9 0;
#X connect 19 6 20 0;
#X connect 19 7 16 1;
#X connect 19 8 18 1;
#X connect 20 0 15 1;
#X connect 20 1 17 1;
#X connect 21 0 15 0;
#X connect 21 1 17 0;
#X connect 22 0 19 0;
#X restore 224 378 pd 3cossynth;
#X text 306 379 (note \, l0 \, l1 \, l2 \, f1 \, f2 \, A \, D \, Amp)
;
#X msg 242 175 \$1 0.298 0.353 0.172 0.122 0.251 20 1000 0.9;
#X msg 261 211 \$1 0.298 0.353 0.172 0.122 0.502 10 100 0.4;
#N canvas 0 22 753 576 HollowString 0;
#X obj 191 374 random 2;
#X obj 154 395 spigot;
#X obj 370 217 * 0.02;
#X obj 370 240 + 0.69;
#X obj 293 177 random 100;
#X obj 293 196 / 100;
#X obj 293 241 + 0.369;
#X obj 293 218 * 0.001;
#X obj 370 177 random 100;
#X obj 370 196 / 100;
#X obj 454 177 random 100;
#X obj 454 196 / 100;
#X obj 454 217 * 100;
#X obj 454 240 + 50;
#X obj 531 176 random 100;
#X obj 531 195 / 100;
#X obj 154 315 pack f f f f f;
#X obj 531 216 * 800;
#X obj 531 239 + 120;
#X msg 154 340 \$1 0.298 0.2 0.2 \$2 \$3 \$4 \$5 0.6;
#X text 186 25 stringy resonances;
#X text 399 150 randomised synth parameters;
#X text 287 322 fixed synth parameters;
#X obj 155 431 outlet;
#X obj 39 54 inlet;
#X obj 77 91 bng 15 250 50 0 empty empty empty 17 7 0 10 -262144 -1
-1;
#X connect 0 0 1 1;
#X connect 2 0 3 0;
#X connect 3 0 16 2;
#X connect 4 0 5 0;
#X connect 5 0 7 0;
#X connect 6 0 16 1;
#X connect 7 0 6 0;
#X connect 8 0 9 0;
#X connect 9 0 2 0;
#X connect 10 0 11 0;
#X connect 11 0 12 0;
#X connect 12 0 13 0;
#X connect 13 0 16 3;
#X connect 14 0 15 0;
#X connect 15 0 17 0;
#X connect 16 0 19 0;
#X connect 17 0 18 0;
#X connect 18 0 16 4;
#X connect 19 0 23 0;
#X connect 24 0 25 0;
#X connect 24 0 16 0;
#X connect 25 0 4 0;
#X connect 25 0 8 0;
#X connect 25 0 10 0;
#X connect 25 0 14 0;
#X connect 25 0 0 0;
#X restore 224 134 pd HollowString;
#X obj 224 64 prepend;
#X floatatom 311 58 5 0 0 0 - - -;
#X msg 280 244 \$1 0 0 0.25 1 1 0 500;
#X msg 298 279 \$1 1 0 0 0 0.354 7.99 450;
#X msg 319 311 \$1 1 0 1 1 0 52.91 720;
#X msg 333 344 \$1 1 0 1 1 1 150 0;
#X obj 224 83 route 0 1 2 3 4 5 6;
#X obj 315 18 inlet;
#X obj 212 20 inlet;
#X obj 224 400 outlet~;
#X connect 0 0 14 0;
#X connect 2 0 0 0;
#X connect 3 0 0 0;
#X connect 4 0 0 0;
#X connect 5 0 11 0;
#X connect 6 0 5 1;
#X connect 7 0 0 0;
#X connect 8 0 0 0;
#X connect 9 0 0 0;
#X connect 10 0 0 0;
#X connect 11 0 4 0;
#X connect 11 1 2 0;
#X connect 11 2 3 0;
#X connect 11 3 7 0;
#X connect 11 4 8 0;
#X connect 11 5 9 0;
#X connect 11 6 10 0;
#X connect 12 0 6 0;
#X connect 13 0 5 0;
#X restore 388 372 pd MultiPurpose3cosSynth;
#X obj 19 -13 bng 15 250 50 0 empty empty empty 17 7 0 10 -262144 -1
-1;
#X obj 288 425 dac~;
#X text 549 249 Hollow Strings;
#X text 41 -14 click to start - don't forget to select your sounds
down there;
#X obj 66 -32 s trigg;
#X obj 387 -27 bng 15 250 50 0 empty empty empty 17 7 0 10 -262144
-1 -1;
#X obj 5 21 MusicalCell_abs 16 500 48 52 60 62 64 0 65 67 0 72 76;
#X obj 14 133 MusicalCell_abs 16 500 52 64 68 69 0 0 62 67 0 69 76
;
#X obj 342 21 MusicalCell_abs 16 250 46 52 58 60 56 0 0 70 0 68 69
;
#X obj 337 133 MusicalCell_abs 16 250 50 62 56 60 68 0 65 67 0 64 76
;
#X obj 725 19 MusicalCell2_abs 16 250 24 4 20 40 60 0 100;
#X text 727 -65 Also exists with scale incorporated \, then you enter
probabilities that will choose which outlet is banged to start another
sequencer (last one should be 100 it will loop the cell) \, it sends
local values synth-note \, bass-note \, apregio.;
#X connect 5 0 9 1;
#X connect 9 0 19 0;
#X connect 9 0 19 1;
#X connect 14 0 17 1;
#X connect 17 0 19 1;
#X connect 17 0 19 0;
#X connect 18 0 22 0;
#X connect 18 0 24 0;
#X connect 23 0 24 1;
#X connect 23 0 25 1;
#X connect 23 0 26 1;
#X connect 24 0 9 0;
#X connect 24 1 17 0;
#X connect 24 2 25 0;
#X connect 24 3 25 0;
#X connect 24 4 25 0;
#X connect 24 5 26 0;
#X connect 24 6 26 0;
#X connect 24 7 27 0;
#X connect 25 0 9 0;
#X connect 25 1 17 0;
#X connect 25 2 24 0;
#X connect 25 3 24 0;
#X connect 25 4 24 0;
#X connect 25 5 27 0;
#X connect 25 6 27 0;
#X connect 25 7 26 0;
#X connect 26 0 9 0;
#X connect 26 1 17 0;
#X connect 26 2 27 0;
#X connect 26 3 27 0;
#X connect 26 4 27 0;
#X connect 26 5 24 0;
#X connect 26 6 24 0;
#X connect 26 7 25 0;
#X connect 27 0 9 0;
#X connect 27 1 17 0;
#X connect 27 2 26 0;
#X connect 27 3 26 0;
#X connect 27 4 26 0;
#X connect 27 5 25 0;
#X connect 27 6 25 0;
#X connect 27 7 24 0;
