#N canvas 152 79 789 477 10;
#X declare -path z_pdLiveNoteSeq_abs;
#N canvas 0 22 1024 720 (subpatch) 0;
#X obj 0 0 cnv 10 660 350 empty empty empty 20 12 0 14 -1 -66577 0
;
#X obj 888 273 outlet;
#X obj -966 690 max 0;
#X obj -966 714 min 127;
#X obj -965 799 outlet;
#X floatatom 787 295 5 0 0 0 - - -;
#X obj -966 761 line;
#X floatatom -910 716 5 0 0 0 - - -;
#X obj 42 6 cnv 15 609 20 empty empty empty 20 12 0 14 -66577 -66577
0;
#X obj 746 188 i;
#X obj 794 189 + 1;
#X msg 776 158 0;
#X obj 764 90 sel 0;
#X obj 207 8 nbx 2 14 1 16 0 0 empty empty Modulo 45 8 0 11 -1 -260097
-260097 16 256;
#X obj 134 -61 loadbang;
#X text 68 -92 NOte sequencer;
#X obj 741 45 metro 500;
#X obj 46 9 tgl 15 0 empty empty On/Off 17 7 0 11 -1 -260097 -260097
0 1;
#X obj 46 -48 inlet;
#X obj 112 8 nbx 4 14 0 10000 0 0 empty empty Metro 53 8 0 11 -1 -260097
-260097 500 256;
#X msg 134 -39 500;
#X obj 594 9 bng 15 250 50 0 empty empty Reset 18 7 0 11 -1 -260097
-260097;
#N canvas 324 99 700 545 counter 0;
#X obj 270 22 inlet;
#X obj 82 285 loadbang;
#X msg 90 206 \$1 color \$2 \$2 \$2;
#X obj 195 179 pack;
#X obj 309 143 - 1;
#X obj 270 116 t f b f;
#X obj 309 172 sel -1;
#X obj 336 275 pack;
#X obj 330 231 t f b;
#X msg 336 302 \$1 color \$2 \$2 \$2;
#X msg 82 342 color \$1 \$1 \$1;
#X obj 216 154 f -1.67434e+07;
#X obj 82 309 f 10;
#X obj 357 253 f 10;
#X obj 264 685 s \$0-1color.r;
#X obj 279 666 s \$0-2color.r;
#X obj 295 646 s \$0-3color.r;
#X obj 311 627 s \$0-4color.r;
#X obj 327 608 s \$0-5color.r;
#X obj 343 589 s \$0-6color.r;
#X obj 359 570 s \$0-7color.r;
#X obj 375 551 s \$0-8color.r;
#X obj 309 199 15;
#X obj 264 372 route 0 1 2 3 4 5 6 7 8 9 10 11 12 13 14 15;
#X obj 391 532 s \$0-9color.r;
#X obj 407 513 s \$0-10color.r;
#X obj 423 493 s \$0-11color.r;
#X obj 439 474 s \$0-12color.r;
#X obj 455 455 s \$0-13color.r;
#X obj 471 436 s \$0-14color.r;
#X obj 487 417 s \$0-15color.r;
#X obj 503 398 s \$0-16color.r;
#X obj 390 30 inlet;
#X obj 395 111 inlet;
#X connect 0 0 5 0;
#X connect 1 0 12 0;
#X connect 2 0 23 0;
#X connect 3 0 2 0;
#X connect 4 0 6 0;
#X connect 5 0 3 0;
#X connect 5 1 11 0;
#X connect 5 2 4 0;
#X connect 6 0 22 0;
#X connect 6 1 8 0;
#X connect 7 0 9 0;
#X connect 8 0 7 0;
#X connect 8 1 13 0;
#X connect 9 0 23 0;
#X connect 10 0 14 0;
#X connect 10 0 15 0;
#X connect 10 0 16 0;
#X connect 10 0 17 0;
#X connect 10 0 18 0;
#X connect 10 0 19 0;
#X connect 10 0 20 0;
#X connect 10 0 21 0;
#X connect 10 0 24 0;
#X connect 10 0 25 0;
#X connect 10 0 26 0;
#X connect 10 0 27 0;
#X connect 10 0 28 0;
#X connect 10 0 29 0;
#X connect 10 0 30 0;
#X connect 10 0 31 0;
#X connect 11 0 3 1;
#X connect 12 0 10 0;
#X connect 13 0 7 1;
#X connect 22 0 8 0;
#X connect 23 0 14 0;
#X connect 23 1 15 0;
#X connect 23 2 16 0;
#X connect 23 3 17 0;
#X connect 23 4 18 0;
#X connect 23 5 19 0;
#X connect 23 6 20 0;
#X connect 23 7 21 0;
#X connect 23 8 24 0;
#X connect 23 9 25 0;
#X connect 23 10 26 0;
#X connect 23 11 27 0;
#X connect 23 12 28 0;
#X connect 23 13 29 0;
#X connect 23 14 30 0;
#X connect 23 15 31 0;
#X connect 32 0 10 0;
#X connect 33 0 4 0;
#X connect 33 0 22 1;
#X restore 712 -25 pd counter;
#X obj -196 552 min 500;
#X obj 3 64 cnv 15 32 104 empty empty Notes 2 12 0 10 -4160 -262144
0;
#X obj 3 175 cnv 15 32 25 empty empty delay 2 12 0 10 -4034 -262144
0;
#X obj 3 208 cnv 15 32 25 empty empty glide 2 12 0 10 -159808 -262144
0;
#X obj 3 241 cnv 15 32 104 empty empty Vel 2 12 0 10 -258113 -262144
0;
#X obj -967 381 sel 0 1 2 3 4 5 6 7 8 9 10 11 12 13 14 15;
#X obj -966 739 pack f 500;
#X obj 723 224 mod 16;
#X obj 35 64 cnv 15 620 104 empty empty empty 2 12 1 11 -16662 -262144
0;
#X obj 36 175 cnv 15 620 25 empty empty empty 2 12 1 11 -13381 -262144
0;
#X obj 36 208 cnv 15 620 25 empty empty empty 2 12 1 11 -45076 -262144
0;
#X obj 36 241 cnv 15 620 104 empty empty empty 2 12 1 11 -86277 -262144
0;
#X obj 41 31 cnv 15 609 29 empty \$0-modulo empty 2 12 1 11 -260097
-262144 0;
#X obj 48 33 tgl 25 0 \$0-blah \$0-1color.r empty 17 7 0 10 -233017
-233017 -233017 0 1;
#X obj 85 33 tgl 25 0 \$0-blah \$0-2color.r empty 17 7 0 10 -233017
-233017 -233017 0 1;
#X obj 124 33 tgl 25 0 \$0-blah \$0-3color.r empty 17 7 0 10 -233017
-233017 -233017 0 1;
#X obj 162 33 tgl 25 0 \$0-blah \$0-4color.r empty 17 7 0 10 -233017
-233017 -233017 0 1;
#X obj 199 33 tgl 25 0 \$0-blah \$0-5color.r empty 17 7 0 10 -233017
-233017 -233017 0 1;
#X obj 237 33 tgl 25 0 \$0-blah \$0-6color.r empty 17 7 0 10 -233017
-233017 -233017 0 1;
#X obj 275 33 tgl 25 0 \$0-blah \$0-7color.r empty 17 7 0 10 -233017
-233017 -233017 0 1;
#X obj 313 33 tgl 25 0 \$0-blah \$0-8color.r empty 17 7 0 10 -233017
-233017 -233017 0 1;
#X obj 351 33 tgl 25 0 \$0-blah \$0-9color.r empty 17 7 0 10 -233017
-233017 -233017 0 1;
#X obj 388 33 tgl 25 0 \$0-blah \$0-10color.r empty 17 7 0 10 -233017
-233017 -233017 0 1;
#X obj 426 33 tgl 25 0 \$0-blah \$0-11color.r empty 17 7 0 10 -233017
-233017 -233017 0 1;
#X obj 465 33 tgl 25 0 \$0-blah \$0-12color.r empty 17 7 0 10 -233017
-233017 -233017 0 1;
#X obj 503 33 tgl 25 0 \$0-blah \$0-13color.r empty 17 7 0 10 -233017
-233017 -233017 0 1;
#X obj 541 33 tgl 25 0 \$0-blah \$0-14color.r empty 17 7 0 10 -233017
-233017 -233017 0 1;
#X obj 579 33 tgl 25 0 \$0-blah \$0-15color.r empty 17 7 0 10 -233017
-233017 -233017 0 1;
#X obj 616 33 tgl 25 0 \$0-blah \$0-16color.r empty 17 7 0 10 -233017
-233017 -233017 0 1;
#X obj 44 212 hsliderpurple;
#X obj 43 66 Step-Blue;
#X obj 43 243 Step-Red;
#X obj 81 212 hsliderpurple;
#X obj 81 66 Step-Blue;
#X obj 81 243 Step-Red;
#X obj 119 212 hsliderpurple;
#X obj 119 66 Step-Blue;
#X obj 119 243 Step-Red;
#X obj 157 212 hsliderpurple;
#X obj 157 66 Step-Blue;
#X obj 157 243 Step-Red;
#X obj 195 212 hsliderpurple;
#X obj 195 66 Step-Blue;
#X obj 195 243 Step-Red;
#X obj 233 212 hsliderpurple;
#X obj 233 66 Step-Blue;
#X obj 233 243 Step-Red;
#X obj 271 212 hsliderpurple;
#X obj 271 66 Step-Blue;
#X obj 271 243 Step-Red;
#X obj 310 212 hsliderpurple;
#X obj 309 66 Step-Blue;
#X obj 309 243 Step-Red;
#X obj 349 213 hsliderpurple;
#X obj 347 66 Step-Blue;
#X obj 347 243 Step-Red;
#X obj 386 213 hsliderpurple;
#X obj 385 66 Step-Blue;
#X obj 385 243 Step-Red;
#X obj 424 213 hsliderpurple;
#X obj 423 66 Step-Blue;
#X obj 423 243 Step-Red;
#X obj 462 213 hsliderpurple;
#X obj 461 66 Step-Blue;
#X obj 461 243 Step-Red;
#X obj 500 213 hsliderpurple;
#X obj 499 66 Step-Blue;
#X obj 499 243 Step-Red;
#X obj 538 213 hsliderpurple;
#X obj 537 66 Step-Blue;
#X obj 537 243 Step-Red;
#X obj 575 213 hsliderpurple;
#X obj 575 66 Step-Blue;
#X obj 575 243 Step-Red;
#X obj 614 213 hsliderpurple;
#X obj 613 66 Step-Blue;
#X obj 613 243 Step-Red;
#X obj 43 178 hslidergreen;
#X obj 80 178 hslidergreen;
#X obj 118 178 hslidergreen;
#X obj 156 178 hslidergreen;
#X obj 194 179 hslidergreen;
#X obj 233 179 hslidergreen;
#X obj 271 179 hslidergreen;
#X obj 309 179 hslidergreen;
#X obj 347 179 hslidergreen;
#X obj 385 179 hslidergreen;
#X obj 423 179 hslidergreen;
#X obj 461 179 hslidergreen;
#X obj 499 179 hslidergreen;
#X obj 537 179 hslidergreen;
#X obj 575 179 hslidergreen;
#X obj 614 179 hslidergreen;
#N canvas 531 71 450 300 canvasmodulo 0;
#X obj 238 283 line;
#X obj 223 230 expr ($f1 + 1);
#X floatatom 222 190 5 0 0 0 - - -;
#X obj 221 166 i;
#X obj 224 143 inlet;
#X obj 218 335 s \$0-modulo;
#X obj 222 209 * 38;
#X msg 217 312 vis_size \$1 29;
#X msg 324 310 vis_size \$1 2;
#X obj 331 332 s \$0-modulo2;
#X msg 236 260 \$1 250;
#X connect 0 0 7 0;
#X connect 0 0 8 0;
#X connect 1 0 10 0;
#X connect 2 0 6 0;
#X connect 3 0 2 0;
#X connect 4 0 3 0;
#X connect 6 0 1 0;
#X connect 7 0 5 0;
#X connect 8 0 9 0;
#X connect 10 0 0 0;
#X restore 663 -60 pd canvasmodulo;
#X obj -229 451 i;
#X obj -203 450 i;
#X obj -178 450 i;
#X obj -152 449 i;
#X obj -126 450 i;
#X obj -100 449 i;
#X obj -77 448 i;
#X obj -49 448 i;
#X obj -25 447 i;
#X obj 1 447 i;
#X obj 26 447 i;
#X obj 52 446 i;
#X obj 81 450 i;
#X obj 104 446 i;
#X obj 129 446 i;
#X obj 155 445 i;
#X obj -198 528 max 0;
#X obj -967 414 delay 0;
#X obj -941 460 delay 0;
#X obj -915 502 delay 0;
#X obj -888 546 delay 0;
#X obj -866 418 delay 0;
#X obj -840 463 delay 0;
#X obj -812 512 delay 0;
#X obj -785 563 delay 0;
#X obj -763 418 delay 0;
#X obj -738 464 delay 0;
#X obj -711 515 delay 0;
#X obj -664 556 delay 0;
#X obj -605 413 delay 0;
#X obj -559 459 delay 0;
#X obj -500 498 delay 0;
#X obj -435 526 delay 0;
#X obj -966 630 i;
#X obj -940 629 i;
#X obj -915 629 i;
#X obj -889 629 i;
#X obj -863 629 i;
#X obj -837 629 i;
#X obj -812 629 i;
#X obj -787 629 i;
#X obj -762 629 i;
#X obj -736 629 i;
#X obj -711 629 i;
#X obj -685 629 i;
#X obj -659 629 i;
#X obj -633 628 i;
#X obj -608 628 i;
#X obj -582 628 i;
#X obj -453 683 max 0;
#X obj -453 707 min 127;
#X obj -452 792 outlet;
#X obj -453 754 line;
#X floatatom -397 709 5 0 0 0 - - -;
#X obj -453 732 pack f 500;
#X obj 706 264 t f f f f;
#X obj 38 236 cnv 1 609 2 empty \$0-modulo2 empty 2 12 1 11 -260097
-262144 0;
#X obj 39 203 cnv 1 609 2 empty \$0-modulo2 empty 2 12 1 11 -260097
-262144 0;
#X obj 40 170 cnv 1 609 2 empty \$0-modulo2 empty 2 12 1 11 -260097
-262144 0;
#X obj -495 631 f;
#X obj -469 630 f;
#X obj -444 630 f;
#X obj -418 630 f;
#X obj -392 630 f;
#X obj -366 630 f;
#X obj -341 630 f;
#X obj -316 630 f;
#X obj -291 630 f;
#X obj -265 630 f;
#X obj -240 630 f;
#X obj -214 630 f;
#X obj -188 630 f;
#X obj -162 629 f;
#X obj -137 629 f;
#X obj -111 629 f;
#X obj -432 547 t b b b;
#X obj -497 523 t b b b;
#X obj -558 481 t b b b;
#X obj -604 434 t b b b;
#X obj -761 439 t b b b;
#X obj -736 486 t b b b;
#X obj -711 536 t b b b;
#X obj -662 577 t b b b;
#X obj -785 584 t b b b;
#X obj -812 534 t b b b;
#X obj -839 485 t b b b;
#X obj -865 438 t b b b;
#X obj -967 437 t b b b;
#X obj -940 481 t b b b;
#X obj -915 522 t b b b;
#X obj -888 567 t b b b;
#X obj -833 708 pack f f f f f f f f f f f f f f f f;
#X obj -337 715 pack f f f f f f f f f f f f f f f f;
#X obj 316 593 pack f f f f f f f f f f f f f f f f;
#X msg -842 781 set \$1 \$2 \$3 \$4 \$5 \$6 \$7 \$8 \$9 \$10 \$11 \$12
\$13 \$14 \$15 \$16;
#X msg -355 762 set \$1 \$2 \$3 \$4 \$5 \$6 \$7 \$8 \$9 \$10 \$11 \$12
\$13 \$14 \$15 \$16;
#X msg -12 807 set \$1 \$2 \$3 \$4 \$5 \$6 \$7 \$8 \$9 \$10 \$11 \$12
\$13 \$14 \$15 \$16;
#X msg 320 661 set \$1 \$2 \$3 \$4 \$5 \$6 \$7 \$8 \$9 \$10 \$11 \$12
\$13 \$14 \$15 \$16;
#X obj -833 751 spigot;
#X obj -337 737 spigot;
#X obj 57 772 spigot;
#X obj 317 625 spigot;
#X obj -810 811 s \$0-notes-save;
#X obj -344 814 s \$0-vel-save;
#X obj 319 702 s \$0-del-save;
#X obj -369 48 unpack f f f f f f f f f f f f f f f f;
#X obj -368 22 r \$0-note-load;
#X obj -229 227 unpack f f f f f f f f f f f f f f f f;
#X obj -228 201 r \$0-vel-load;
#X obj -301 161 unpack f f f f f f f f f f f f f f f f;
#X obj -300 135 r \$0-del-load;
#X obj -461 194 unpack f f f f f f f f f f f f f f f f;
#X obj 896 16 r \$0-save;
#X obj 862 115 metro 2;
#X obj 903 46 t b b;
#X msg 940 117 0;
#X obj 927 162 f 0;
#X obj 956 162 + 1;
#X obj 916 235 tgl 15 0 empty empty empty 17 7 0 10 -262144 -1 -1 0
1;
#X obj 932 196 sel 15;
#X obj -405 396 r \$0-arm-save;
#X obj -505 -62 r \$0-patterns;
#N canvas 473 183 450 300 \$0-patterns 0;
#N canvas 353 95 651 580 pattern-template 0;
#X msg 56 143 33 0 0 0 83 0 0 76 0 0 69 0 0 0 0 0;
#X msg 57 220 89 0 0 0 58 0 0 98 0 0 83 0 0 0 0 0;
#X msg 63 302 1310 0 0 0 1310 0 0 1145 0 0 1310 0 0 0 0 0;
#N canvas 0 22 450 300 reveive-saved-values 0;
#X obj 47 52 r \$0-notes-save;
#X obj 165 52 r \$0-vel-save;
#X obj 370 50 r \$0-del-save;
#X obj 54 88 outlet;
#X obj 165 84 outlet;
#X obj 278 97 outlet;
#X obj 389 93 outlet;
#X obj 273 49 r \$0-glide-save;
#X connect 0 0 3 0;
#X connect 1 0 4 0;
#X connect 2 0 6 0;
#X connect 7 0 5 0;
#X restore 52 62 pd reveive-saved-values;
#X msg 59 358 0 0 0 0 140 0 0 0 0 0 0 0 0 0 0 0;
#X obj -84 89 inlet;
#X obj 56 165 s \$0-note-load;
#X obj 58 244 s \$0-vel-load;
#X obj 58 381 s \$0-del-load;
#X text 195 62 <-- suppress me to create a preset;
#X obj 64 324 s \$0-glide-load;
#X connect 0 0 6 0;
#X connect 1 0 7 0;
#X connect 2 0 10 0;
#X connect 3 0 0 0;
#X connect 3 1 1 0;
#X connect 3 2 2 0;
#X connect 3 3 4 0;
#X connect 4 0 8 0;
#X connect 5 0 0 0;
#X connect 5 0 1 0;
#X connect 5 0 2 0;
#X connect 5 0 4 0;
#X restore 53 74 pd pattern-template;
#X obj 25 112 bng 20 250 50 0 empty empty Clear 25 10 0 10 -262144
-1 -1;
#N canvas 353 95 651 580 pattern-clear 0;
#X msg 56 143 0 0 0 0 0 0 0 0 0 0 0 0 0 0 0 0;
#X msg 57 220 0 0 0 0 0 0 0 0 0 0 0 0 0 0 0 0;
#X msg 63 302 0 0 0 0 0 0 0 0 0 0 0 0 0 0 0 0;
#X msg 59 358 0 0 0 0 0 0 0 0 0 0 0 0 0 0 0 0;
#X obj -84 89 inlet;
#X obj 56 165 s \$0-note-load;
#X obj 58 244 s \$0-vel-load;
#X obj 58 381 s \$0-del-load;
#X obj 64 324 s \$0-glide-load;
#X connect 0 0 5 0;
#X connect 1 0 6 0;
#X connect 2 0 8 0;
#X connect 3 0 7 0;
#X connect 4 0 0 0;
#X connect 4 0 1 0;
#X connect 4 0 2 0;
#X connect 4 0 3 0;
#X restore 25 134 pd pattern-clear;
#N canvas 353 95 651 580 pattern-1 0;
#X msg 56 143 56 0 0 0 83 0 0 77 0 0 70 0 0 0 0 0;
#X msg 57 220 89 0 0 0 58 0 0 99 0 0 83 0 0 0 0 0;
#X msg 59 358 0 0 0 0 140 0 0 0 0 0 0 0 0 0 0 0;
#X obj -84 89 inlet;
#X obj 56 165 s \$0-note-load;
#X obj 58 244 s \$0-vel-load;
#X obj 58 381 s \$0-del-load;
#X obj 64 324 s \$0-glide-load;
#X msg 63 302 0 0 0 0 500 0 0 0 0 0 250 0 0 0 0 0;
#X connect 0 0 4 0;
#X connect 1 0 5 0;
#X connect 2 0 6 0;
#X connect 3 0 0 0;
#X connect 3 0 1 0;
#X connect 3 0 8 0;
#X connect 3 0 2 0;
#X connect 8 0 7 0;
#X restore 26 227 pd pattern-1;
#X obj 26 205 bng 20 250 50 0 empty empty Load 25 10 0 10 -262144 -1
-1;
#X text 55 2 1- stop sequencer \, toggle arm and press save;
#X text 55 15 2- duplicate "pd pattern-template" \, rename it to whatever
;
#X text 55 28 3- suppress the subpatch marked as such in the duplicated
patch \, insert a bang to load.;
#X connect 1 0 2 0;
#X connect 4 0 3 0;
#X restore -319 -33 pd \$0-patterns;
#X msg -504 -32 vis 1;
#X obj -497 2 s pd-\$0-patterns;
#X obj 322 9 tgl 15 0 \$0-arm-save \$0cjincijnze Arm 17 7 0 10 -1 -260097
-260097 0 1;
#X obj 365 9 bng 15 250 50 0 \$0-save \$0avczeinvedz Save 17 7 0 10
-1 -260097 -260097;
#X obj 413 9 bng 15 250 50 0 \$0-patterns \$0avczeinvedz Patt_Pannel
17 7 0 10 -1 -260097 -260097;
#X obj 318 512 f;
#X obj 344 511 f;
#X obj 369 511 f;
#X obj 395 511 f;
#X obj 421 511 f;
#X obj 447 511 f;
#X obj 472 511 f;
#X obj 497 511 f;
#X obj 522 511 f;
#X obj 548 511 f;
#X obj 573 511 f;
#X obj 599 511 f;
#X obj 625 511 f;
#X obj 651 510 f;
#X obj 676 510 f;
#X obj 702 510 f;
#X obj 0 845 s \$0-glide-save;
#X obj -460 168 r \$0-glide-load;
#X msg 160 -38 16;
#X obj 802 -42 inlet;
#X obj -48 552 pack f f f f f f f f f f f f f f f f;
#X connect 2 0 3 0;
#X connect 3 0 29 0;
#X connect 6 0 4 0;
#X connect 7 0 29 1;
#X connect 9 0 10 0;
#X connect 9 0 30 0;
#X connect 10 0 9 1;
#X connect 11 0 9 0;
#X connect 12 0 11 0;
#X connect 13 0 30 1;
#X connect 13 0 116 0;
#X connect 13 0 22 2;
#X connect 14 0 20 0;
#X connect 14 0 263 0;
#X connect 16 0 9 0;
#X connect 17 0 16 0;
#X connect 18 0 17 0;
#X connect 19 0 16 1;
#X connect 19 0 23 1;
#X connect 20 0 19 0;
#X connect 21 0 11 0;
#X connect 21 0 22 1;
#X connect 23 0 7 0;
#X connect 23 0 170 0;
#X connect 28 0 134 0;
#X connect 28 1 135 0;
#X connect 28 2 136 0;
#X connect 28 3 137 0;
#X connect 28 4 138 0;
#X connect 28 5 139 0;
#X connect 28 6 140 0;
#X connect 28 7 141 0;
#X connect 28 8 142 0;
#X connect 28 9 143 0;
#X connect 28 10 144 0;
#X connect 28 11 145 0;
#X connect 28 12 146 0;
#X connect 28 13 147 0;
#X connect 28 14 148 0;
#X connect 28 15 149 0;
#X connect 29 0 6 0;
#X connect 30 0 1 0;
#X connect 30 0 5 0;
#X connect 30 0 172 0;
#X connect 52 0 117 1;
#X connect 53 0 150 1;
#X connect 54 0 176 1;
#X connect 55 0 118 1;
#X connect 56 0 151 1;
#X connect 57 0 177 1;
#X connect 58 0 119 1;
#X connect 59 0 152 1;
#X connect 60 0 178 1;
#X connect 61 0 120 1;
#X connect 62 0 153 1;
#X connect 63 0 179 1;
#X connect 64 0 121 1;
#X connect 65 0 154 1;
#X connect 66 0 180 1;
#X connect 67 0 122 1;
#X connect 68 0 155 1;
#X connect 69 0 181 1;
#X connect 70 0 123 1;
#X connect 71 0 156 1;
#X connect 72 0 182 1;
#X connect 73 0 124 1;
#X connect 74 0 157 1;
#X connect 75 0 183 1;
#X connect 76 0 125 1;
#X connect 77 0 158 1;
#X connect 78 0 184 1;
#X connect 79 0 126 1;
#X connect 80 0 159 1;
#X connect 81 0 185 1;
#X connect 82 0 127 1;
#X connect 83 0 160 1;
#X connect 84 0 186 1;
#X connect 85 0 128 1;
#X connect 86 0 161 1;
#X connect 87 0 187 1;
#X connect 88 0 129 1;
#X connect 89 0 162 1;
#X connect 90 0 188 1;
#X connect 91 0 130 1;
#X connect 92 0 163 1;
#X connect 93 0 189 1;
#X connect 94 0 131 1;
#X connect 95 0 164 1;
#X connect 96 0 190 1;
#X connect 97 0 132 1;
#X connect 98 0 165 1;
#X connect 99 0 191 1;
#X connect 100 0 134 1;
#X connect 100 0 245 1;
#X connect 101 0 135 1;
#X connect 101 0 246 1;
#X connect 102 0 136 1;
#X connect 102 0 247 1;
#X connect 103 0 137 1;
#X connect 103 0 248 1;
#X connect 104 0 138 1;
#X connect 104 0 249 1;
#X connect 105 0 139 1;
#X connect 105 0 250 1;
#X connect 106 0 140 1;
#X connect 106 0 251 1;
#X connect 107 0 141 1;
#X connect 107 0 252 1;
#X connect 108 0 142 1;
#X connect 108 0 253 1;
#X connect 109 0 143 1;
#X connect 109 0 254 1;
#X connect 110 0 144 1;
#X connect 110 0 255 1;
#X connect 111 0 145 1;
#X connect 111 0 256 1;
#X connect 112 0 146 1;
#X connect 112 0 257 1;
#X connect 113 0 147 1;
#X connect 113 0 258 1;
#X connect 114 0 148 1;
#X connect 114 0 259 1;
#X connect 115 0 149 1;
#X connect 115 0 260 1;
#X connect 117 0 133 0;
#X connect 117 0 265 0;
#X connect 118 0 133 0;
#X connect 118 0 265 1;
#X connect 119 0 133 0;
#X connect 119 0 265 2;
#X connect 120 0 133 0;
#X connect 120 0 265 3;
#X connect 121 0 133 0;
#X connect 121 0 265 4;
#X connect 122 0 133 0;
#X connect 122 0 265 5;
#X connect 123 0 133 0;
#X connect 123 0 265 6;
#X connect 124 0 133 0;
#X connect 124 0 265 7;
#X connect 125 0 133 0;
#X connect 125 0 265 8;
#X connect 126 0 133 0;
#X connect 126 0 265 9;
#X connect 127 0 133 0;
#X connect 127 0 265 10;
#X connect 128 0 133 0;
#X connect 128 0 265 11;
#X connect 129 0 133 0;
#X connect 129 0 265 12;
#X connect 130 0 133 0;
#X connect 130 0 265 13;
#X connect 131 0 133 0;
#X connect 131 0 265 14;
#X connect 132 0 133 0;
#X connect 132 0 265 15;
#X connect 133 0 23 0;
#X connect 134 0 204 0;
#X connect 135 0 205 0;
#X connect 136 0 206 0;
#X connect 137 0 207 0;
#X connect 138 0 203 0;
#X connect 139 0 202 0;
#X connect 140 0 201 0;
#X connect 141 0 200 0;
#X connect 142 0 196 0;
#X connect 143 0 197 0;
#X connect 144 0 198 0;
#X connect 145 0 199 0;
#X connect 146 0 195 0;
#X connect 147 0 194 0;
#X connect 148 0 193 0;
#X connect 149 0 192 0;
#X connect 150 0 2 0;
#X connect 150 0 208 0;
#X connect 151 0 2 0;
#X connect 151 0 208 1;
#X connect 152 0 2 0;
#X connect 152 0 208 2;
#X connect 153 0 2 0;
#X connect 153 0 208 3;
#X connect 154 0 2 0;
#X connect 154 0 208 4;
#X connect 155 0 2 0;
#X connect 155 0 208 5;
#X connect 156 0 2 0;
#X connect 156 0 208 6;
#X connect 157 0 2 0;
#X connect 157 0 208 7;
#X connect 158 0 2 0;
#X connect 158 0 208 8;
#X connect 159 0 2 0;
#X connect 159 0 208 9;
#X connect 160 0 2 0;
#X connect 160 0 208 10;
#X connect 161 0 2 0;
#X connect 161 0 208 11;
#X connect 162 0 2 0;
#X connect 162 0 208 12;
#X connect 163 0 2 0;
#X connect 163 0 208 13;
#X connect 164 0 2 0;
#X connect 164 0 208 14;
#X connect 165 0 2 0;
#X connect 165 0 208 15;
#X connect 166 0 167 0;
#X connect 167 0 171 0;
#X connect 169 0 168 0;
#X connect 170 0 171 1;
#X connect 171 0 169 0;
#X connect 172 0 22 0;
#X connect 172 1 28 0;
#X connect 176 0 166 0;
#X connect 176 0 209 0;
#X connect 177 0 166 0;
#X connect 177 0 209 1;
#X connect 178 0 166 0;
#X connect 178 0 209 2;
#X connect 179 0 166 0;
#X connect 179 0 209 3;
#X connect 180 0 166 0;
#X connect 180 0 209 4;
#X connect 181 0 166 0;
#X connect 181 0 209 5;
#X connect 182 0 166 0;
#X connect 182 0 209 6;
#X connect 183 0 166 0;
#X connect 183 0 209 7;
#X connect 184 0 166 0;
#X connect 184 0 209 8;
#X connect 185 0 166 0;
#X connect 185 0 209 9;
#X connect 186 0 166 0;
#X connect 186 0 209 10;
#X connect 187 0 166 0;
#X connect 187 0 209 11;
#X connect 188 0 166 0;
#X connect 188 0 209 12;
#X connect 189 0 166 0;
#X connect 189 0 209 13;
#X connect 190 0 166 0;
#X connect 190 0 209 14;
#X connect 191 0 166 0;
#X connect 191 0 209 15;
#X connect 192 0 165 0;
#X connect 192 1 191 0;
#X connect 192 2 132 0;
#X connect 193 0 164 0;
#X connect 193 1 190 0;
#X connect 193 2 131 0;
#X connect 194 0 163 0;
#X connect 194 1 189 0;
#X connect 194 2 130 0;
#X connect 195 0 162 0;
#X connect 195 1 188 0;
#X connect 195 2 129 0;
#X connect 196 0 158 0;
#X connect 196 1 184 0;
#X connect 196 2 125 0;
#X connect 197 0 159 0;
#X connect 197 1 185 0;
#X connect 197 2 126 0;
#X connect 198 0 160 0;
#X connect 198 1 186 0;
#X connect 198 2 127 0;
#X connect 199 0 161 0;
#X connect 199 1 187 0;
#X connect 199 2 128 0;
#X connect 200 0 157 0;
#X connect 200 1 183 0;
#X connect 200 2 124 0;
#X connect 201 0 156 0;
#X connect 201 1 182 0;
#X connect 201 2 123 0;
#X connect 202 0 155 0;
#X connect 202 1 181 0;
#X connect 202 2 122 0;
#X connect 203 0 154 0;
#X connect 203 1 180 0;
#X connect 203 2 121 0;
#X connect 204 0 150 0;
#X connect 204 1 176 0;
#X connect 204 2 117 0;
#X connect 205 0 151 0;
#X connect 205 1 177 0;
#X connect 205 2 118 0;
#X connect 206 0 152 0;
#X connect 206 1 178 0;
#X connect 206 2 119 0;
#X connect 207 0 153 0;
#X connect 207 1 179 0;
#X connect 207 2 120 0;
#X connect 208 0 215 0;
#X connect 209 0 216 0;
#X connect 210 0 218 0;
#X connect 211 0 219 0;
#X connect 212 0 220 0;
#X connect 213 0 261 0;
#X connect 214 0 221 0;
#X connect 215 0 211 0;
#X connect 216 0 212 0;
#X connect 217 0 213 0;
#X connect 218 0 214 0;
#X connect 222 0 53 0;
#X connect 222 1 56 0;
#X connect 222 2 59 0;
#X connect 222 3 62 0;
#X connect 222 4 65 0;
#X connect 222 5 68 0;
#X connect 222 6 71 0;
#X connect 222 7 74 0;
#X connect 222 8 77 0;
#X connect 222 9 80 0;
#X connect 222 10 83 0;
#X connect 222 11 86 0;
#X connect 222 12 89 0;
#X connect 222 13 92 0;
#X connect 222 14 95 0;
#X connect 222 15 98 0;
#X connect 223 0 222 0;
#X connect 224 0 54 0;
#X connect 224 1 57 0;
#X connect 224 2 60 0;
#X connect 224 3 63 0;
#X connect 224 4 66 0;
#X connect 224 5 69 0;
#X connect 224 6 72 0;
#X connect 224 7 75 0;
#X connect 224 8 78 0;
#X connect 224 9 81 0;
#X connect 224 10 84 0;
#X connect 224 11 87 0;
#X connect 224 12 90 0;
#X connect 224 13 93 0;
#X connect 224 14 96 0;
#X connect 224 15 99 0;
#X connect 225 0 224 0;
#X connect 226 0 100 0;
#X connect 226 1 101 0;
#X connect 226 2 102 0;
#X connect 226 3 103 0;
#X connect 226 4 104 0;
#X connect 226 5 105 0;
#X connect 226 6 106 0;
#X connect 226 7 107 0;
#X connect 226 8 108 0;
#X connect 226 9 109 0;
#X connect 226 10 110 0;
#X connect 226 11 111 0;
#X connect 226 12 112 0;
#X connect 226 13 113 0;
#X connect 226 14 114 0;
#X connect 226 15 115 0;
#X connect 227 0 226 0;
#X connect 228 0 52 0;
#X connect 228 1 55 0;
#X connect 228 2 58 0;
#X connect 228 3 61 0;
#X connect 228 4 64 0;
#X connect 228 5 67 0;
#X connect 228 6 70 0;
#X connect 228 7 73 0;
#X connect 228 8 76 0;
#X connect 228 9 79 0;
#X connect 228 10 82 0;
#X connect 228 11 85 0;
#X connect 228 12 88 0;
#X connect 228 13 91 0;
#X connect 228 14 94 0;
#X connect 228 15 97 0;
#X connect 229 0 231 0;
#X connect 230 0 233 0;
#X connect 231 0 235 0;
#X connect 231 1 232 0;
#X connect 231 1 260 0;
#X connect 231 1 259 0;
#X connect 231 1 258 0;
#X connect 231 1 257 0;
#X connect 231 1 256 0;
#X connect 231 1 255 0;
#X connect 231 1 254 0;
#X connect 231 1 253 0;
#X connect 231 1 252 0;
#X connect 231 1 251 0;
#X connect 231 1 250 0;
#X connect 231 1 249 0;
#X connect 231 1 248 0;
#X connect 231 1 247 0;
#X connect 231 1 246 0;
#X connect 231 1 245 0;
#X connect 232 0 233 0;
#X connect 233 0 234 0;
#X connect 233 0 236 0;
#X connect 233 0 30 0;
#X connect 234 0 233 1;
#X connect 235 0 230 0;
#X connect 236 0 235 0;
#X connect 237 0 216 1;
#X connect 237 0 215 1;
#X connect 237 0 217 1;
#X connect 237 0 218 1;
#X connect 238 0 240 0;
#X connect 240 0 241 0;
#X connect 245 0 210 0;
#X connect 246 0 210 1;
#X connect 247 0 210 2;
#X connect 248 0 210 3;
#X connect 249 0 210 4;
#X connect 250 0 210 5;
#X connect 251 0 210 6;
#X connect 252 0 210 7;
#X connect 253 0 210 8;
#X connect 254 0 210 9;
#X connect 255 0 210 10;
#X connect 256 0 210 11;
#X connect 257 0 210 12;
#X connect 258 0 210 13;
#X connect 259 0 210 14;
#X connect 260 0 210 15;
#X connect 262 0 228 0;
#X connect 263 0 13 0;
#X connect 264 0 9 0;
#X connect 265 0 217 0;
#X coords 0 1 100 -1 660 350 1 0 0;
#X restore -393 -122 graph;
#X obj -393 250 s note1;
#X obj -67 250 s vel1;
#X obj 10 -146 declare -path z_pdLiveNoteSeq_abs;
#X floatatom -393 234 5 0 0 0 - - -;
#X floatatom -67 234 5 0 0 0 - - -;
#X floatatom 261 229 5 0 0 0 - - -;
#X text 5 255 edit abstraction hslidergreen.pd and hsliderpurple.pd
to change the range value of delay and glide object. you'll need to
change the *5 object to whatever you like range of the slider is 0-262.
;
#X obj -172 -160 r Mbang;
#X obj -94 -160 r MbangDiv;
#N canvas 0 22 450 300 (subpatch) 0;
#X obj -30 22 spigot;
#X obj 2 3 tgl 15 0 empty empty empty 17 7 0 10 -262144 -1 -1 0 1;
#X obj -58 0 inlet;
#X obj -54 54 outlet;
#X obj -3 -26 inlet;
#X connect 0 0 3 0;
#X connect 1 0 0 1;
#X connect 2 0 0 0;
#X connect 4 0 1 0;
#X coords 0 1 100 -1 20 20 1 0 0;
#X restore -172 -143 graph;
#N canvas 0 22 450 300 (subpatch) 0;
#X obj -30 22 spigot;
#X obj 2 3 tgl 15 0 empty empty empty 17 7 0 10 -262144 -1 -1 0 1;
#X obj -58 0 inlet;
#X obj -54 54 outlet;
#X obj -3 -26 inlet;
#X connect 0 0 3 0;
#X connect 1 0 0 1;
#X connect 2 0 0 0;
#X connect 4 0 1 0;
#X coords 0 1 100 -1 20 20 1 0 0;
#X restore -94 -143 graph;
#X connect 0 0 4 0;
#X connect 0 1 5 0;
#X connect 0 2 6 0;
#X connect 4 0 1 0;
#X connect 5 0 2 0;
#X connect 8 0 10 0;
#X connect 9 0 11 0;
#X connect 10 0 0 1;
#X connect 11 0 0 1;
