#N canvas 0 22 645 382 10;
#X declare -path z_musicalScales_abs;
#X obj 342 148 declare -path z_musicalScales_abs;
#X obj 90 31 tgl 15 0 empty empty empty 17 7 0 10 -262144 -1 -1 1 1
;
#N canvas 0 22 1024 720 scales---------------- 0;
#X floatatom 26 644 5 0 0 0 - - -;
#X msg 191 134 0 2 4 5 7 9 11;
#X text 286 134 major;
#X msg 200 156 0 1 4 5 7 8 11;
#X msg 212 179 0 2 4 6 7 9 10;
#X msg 223 201 0 2 3 5 7 8 11;
#X msg 246 246 0 2 4 6 8 10;
#X msg 256 268 0 2 3 5 6 8 9 11;
#X msg 656 305 0 0.5 1 1.5 2 2.5 3 3.5 4;
#X text 298 156 middle-east-like minor;
#X text 309 180 lydian-dominant (jazzy);
#X text 321 203 harmonic minor;
#X msg 234 224 0 2 3 4 5 6 7 9 10 11;
#X text 372 225 chromatic blues;
#X text 332 248 whole-tones scale;
#X text 364 270 diminished scale;
#X msg 264 290 0 2 4 7 9;
#X text 332 291 pentatonic;
#X text 364 312 pentatonic blues;
#X msg 272 312 0 2 3 4 7 8 9;
#X msg 661 327 0 0.33 0.66 1 1.33 1.66 2;
#X floatatom 26 595 5 0 0 0 - - -;
#X msg 667 350 0 1.5 3 4.5 6 7.5 9 10.5;
#X floatatom 302 577 5 0 0 0 - - -;
#X msg 737 254 22 20 25 22 18 17 22 18 10 13 17 15;
#X obj 191 114 bng 15 250 50 0 empty empty empty 17 7 0 10 -262144
-1 -1;
#X obj 211 114 bng 15 250 50 0 empty empty empty 17 7 0 10 -262144
-1 -1;
#X obj 231 114 bng 15 250 50 0 empty empty empty 17 7 0 10 -262144
-1 -1;
#X obj 251 114 bng 15 250 50 0 empty empty empty 17 7 0 10 -262144
-1 -1;
#X text 622 62 Just bang the scale you want for each form then receive
random notes this patch will just send the closest note in the form/scale
selected.;
#X obj 203 596 z-musical.transpose;
#X obj 26 618 z-musical.closest.note 0 2 4 7 9;
#X obj 30 198 random 12;
#X floatatom 30 221 5 0 0 0 - - -;
#X obj 24 154 bng 15 250 50 0 empty empty empty 17 7 0 10 -262144 -1
-1;
#X obj 42 123 metro 500;
#X obj 41 99 tgl 15 0 empty empty empty 17 7 0 10 -262144 -1 -1 1 1
;
#X floatatom 93 83 5 0 0 0 - - -;
#X floatatom 94 219 5 0 0 0 - - -;
#X obj 94 196 random 20;
#X obj 86 162 bng 15 250 50 0 empty empty empty 17 7 0 10 -262144 -1
-1;
#X obj 26 677 + 50;
#X obj 93 240 + 90;
#X obj 270 114 bng 15 250 50 0 empty empty empty 17 7 0 10 -262144
-1 -1;
#X obj 290 114 bng 15 250 50 0 empty empty empty 17 7 0 10 -262144
-1 -1;
#X obj 310 114 bng 15 250 50 0 empty empty empty 17 7 0 10 -262144
-1 -1;
#X obj 330 114 bng 15 250 50 0 empty empty empty 17 7 0 10 -262144
-1 -1;
#X obj 352 114 bng 15 250 50 0 empty empty empty 17 7 0 10 -262144
-1 -1;
#X obj 185 19 inlet;
#X obj 36 739 outlet;
#X obj 23 37 inlet;
#X obj 71 29 inlet;
#X obj 124 26 inlet;
#X obj 111 738 outlet;
#X msg 283 334 0 2 4 7 7 9 12;
#X text 381 334 Gaku_joshi;
#X text 386 356 in_sen;
#X msg 290 356 0 0 1 5 5 7 10;
#X msg 298 377 0 2 3 7 7 9 10;
#X text 394 376 hira-joshi;
#X msg 307 398 0 2 4 7 7 9 11;
#X text 404 400 yo;
#X msg 314 419 0 2 4 6 6 9 11;
#X text 414 419 ryo;
#X msg 321 441 0 0 1 5 5 6 10;
#X msg 332 463 0 2 3 7 7 9 12;
#X text 421 440 Iwato;
#X text 427 465 Tamuke;
#X obj 376 114 bng 15 250 50 0 empty empty empty 17 7 0 10 -262144
-1 -1;
#X obj 396 114 bng 15 250 50 0 empty empty empty 17 7 0 10 -262144
-1 -1;
#X obj 416 114 bng 15 250 50 0 empty empty empty 17 7 0 10 -262144
-1 -1;
#X obj 436 114 bng 15 250 50 0 empty empty empty 17 7 0 10 -262144
-1 -1;
#X obj 455 114 bng 15 250 50 0 empty empty empty 17 7 0 10 -262144
-1 -1;
#X obj 475 114 bng 15 250 50 0 empty empty empty 17 7 0 10 -262144
-1 -1;
#X obj 495 114 bng 15 250 50 0 empty empty empty 17 7 0 10 -262144
-1 -1;
#X obj 515 114 bng 15 250 50 0 empty empty empty 17 7 0 10 -262144
-1 -1;
#X obj 537 114 bng 15 250 50 0 empty empty empty 17 7 0 10 -262144
-1 -1;
#X obj 185 52 route major midle-east-minor lydian-dominant harmonic-minor
chromatic-blues whole-tones diminished pentatonic pentatonic-blues
Gaku-Joshi In-Sen Hira-Joshi Yo Ryo Iwato Tamuke;
#X connect 0 0 41 0;
#X connect 1 0 30 0;
#X connect 3 0 30 0;
#X connect 4 0 30 0;
#X connect 5 0 30 0;
#X connect 6 0 30 0;
#X connect 7 0 30 0;
#X connect 8 0 30 0;
#X connect 12 0 30 0;
#X connect 16 0 30 0;
#X connect 19 0 30 0;
#X connect 20 0 30 0;
#X connect 21 0 31 0;
#X connect 22 0 30 0;
#X connect 23 0 30 1;
#X connect 24 0 30 0;
#X connect 25 0 1 0;
#X connect 26 0 3 0;
#X connect 27 0 4 0;
#X connect 28 0 5 0;
#X connect 30 0 31 1;
#X connect 31 0 0 0;
#X connect 32 0 33 0;
#X connect 33 0 21 0;
#X connect 34 0 32 0;
#X connect 35 0 34 0;
#X connect 35 0 40 0;
#X connect 36 0 35 0;
#X connect 37 0 35 1;
#X connect 38 0 42 0;
#X connect 39 0 38 0;
#X connect 40 0 39 0;
#X connect 41 0 49 0;
#X connect 42 0 53 0;
#X connect 43 0 12 0;
#X connect 44 0 6 0;
#X connect 45 0 7 0;
#X connect 46 0 16 0;
#X connect 47 0 19 0;
#X connect 48 0 77 0;
#X connect 50 0 36 0;
#X connect 51 0 37 0;
#X connect 52 0 41 1;
#X connect 57 0 30 0;
#X connect 58 0 30 0;
#X connect 60 0 30 0;
#X connect 62 0 30 0;
#X connect 64 0 30 0;
#X connect 65 0 30 0;
#X connect 68 0 54 0;
#X connect 69 0 57 0;
#X connect 70 0 58 0;
#X connect 71 0 60 0;
#X connect 72 0 62 0;
#X connect 73 0 64 0;
#X connect 74 0 65 0;
#X connect 77 0 25 0;
#X connect 77 1 26 0;
#X connect 77 2 27 0;
#X connect 77 3 28 0;
#X connect 77 4 43 0;
#X connect 77 5 44 0;
#X connect 77 6 45 0;
#X connect 77 7 46 0;
#X connect 77 8 47 0;
#X connect 77 9 68 0;
#X connect 77 10 69 0;
#X connect 77 11 70 0;
#X connect 77 12 71 0;
#X connect 77 13 72 0;
#X connect 77 14 73 0;
#X connect 77 15 74 0;
#X restore 90 50 pd scales----------------;
#X floatatom 139 31 5 0 0 0 - - -;
#X floatatom 188 30 5 0 0 0 - - -;
#X floatatom 90 70 5 0 0 0 - - -;
#X floatatom 238 70 5 0 0 0 - - -;
#X text 138 13 metro;
#X text 187 14 transpose;
#N canvas 2 22 450 300 (subpatch) 0;
#X obj -36 170 random 8;
#X text 154 182 what note to play;
#X text 120 198 only numbers 7 \, 1 \, 2 \, 3 \, 4 \, 5 will trigger
notes;
#X text 139 213 any other value will trigger nothing;
#X text 31 169 if this beat is a trigger use a random number to work
out;
#X obj 9 16 vsl 15 50 0 30 0 0 empty empty prob 0 -8 0 8 -262144 -1
-1 1607 1;
#X msg 220 0 8;
#X obj 220 -29 loadbang;
#X text 219 -58 set initial;
#X text 219 -47 probability;
#X floatatom -102 171 0 0 0 0 - - -;
#X obj -117 240 +;
#X msg -117 219 0;
#X msg -86 220 0;
#X msg -57 220 0;
#X msg -27 220 0;
#X obj -85 240 +;
#X obj -57 240 +;
#X obj -27 240 +;
#X obj 3 240 +;
#X obj 34 241 +;
#X obj 64 241 +;
#X msg 64 220 0;
#X msg 34 221 0;
#X msg 3 221 0;
#X obj -36 197 select 0 7 1 2 3 4 5 6;
#X obj 92 241 +;
#X msg 92 220 0;
#X floatatom -117 264 0 0 0 0 - - -;
#X obj -36 150 bng 15 250 50 0 empty empty empty 17 7 0 10 -262144
-1 -1;
#X text -106 -48 Will I play ?;
#X obj -102 126 inlet;
#X obj -117 299 outlet;
#X obj 9 -69 r ProbBang;
#X obj 11 -41 random 30;
#X obj 12 -21 + 1;
#X obj -70 -16 bng 15 250 50 0 empty empty empty 17 7 0 10 -262144
-1 -1;
#X text 26 5 <- low;
#X text 27 54 <- high;
#X connect 0 0 25 0;
#X connect 5 0 0 1;
#X connect 6 0 5 0;
#X connect 7 0 6 0;
#X connect 10 0 11 1;
#X connect 10 0 16 1;
#X connect 10 0 17 1;
#X connect 10 0 18 1;
#X connect 10 0 19 1;
#X connect 10 0 20 1;
#X connect 10 0 21 1;
#X connect 10 0 26 1;
#X connect 11 0 28 0;
#X connect 12 0 11 0;
#X connect 13 0 16 0;
#X connect 14 0 17 0;
#X connect 15 0 18 0;
#X connect 16 0 28 0;
#X connect 17 0 28 0;
#X connect 18 0 28 0;
#X connect 19 0 28 0;
#X connect 20 0 28 0;
#X connect 21 0 28 0;
#X connect 22 0 21 0;
#X connect 23 0 20 0;
#X connect 24 0 19 0;
#X connect 25 0 12 0;
#X connect 25 1 13 0;
#X connect 25 2 14 0;
#X connect 25 3 15 0;
#X connect 25 4 24 0;
#X connect 25 5 23 0;
#X connect 25 6 22 0;
#X connect 25 7 27 0;
#X connect 26 0 28 0;
#X connect 27 0 26 0;
#X connect 28 0 32 0;
#X connect 29 0 0 0;
#X connect 31 0 10 0;
#X connect 31 0 29 0;
#X connect 33 0 34 0;
#X connect 34 0 35 0;
#X connect 35 0 5 0;
#X connect 36 0 34 0;
#X coords 0 1 100 -1 80 80 1 0 0;
#X restore 90 88 graph;
#N canvas 2 22 450 300 (subpatch) 0;
#X obj -36 170 random 8;
#X text 154 182 what note to play;
#X text 120 198 only numbers 7 \, 1 \, 2 \, 3 \, 4 \, 5 will trigger
notes;
#X text 139 213 any other value will trigger nothing;
#X text 31 169 if this beat is a trigger use a random number to work
out;
#X obj 9 16 vsl 15 50 0 30 0 0 empty empty prob 0 -8 0 8 -262144 -1
-1 1307 1;
#X msg 220 0 8;
#X obj 220 -29 loadbang;
#X text 219 -58 set initial;
#X text 219 -47 probability;
#X floatatom -102 171 0 0 0 0 - - -;
#X obj -117 240 +;
#X msg -117 219 0;
#X msg -86 220 0;
#X msg -57 220 0;
#X msg -27 220 0;
#X obj -85 240 +;
#X obj -57 240 +;
#X obj -27 240 +;
#X obj 3 240 +;
#X obj 34 241 +;
#X obj 64 241 +;
#X msg 64 220 0;
#X msg 34 221 0;
#X msg 3 221 0;
#X obj -36 197 select 0 7 1 2 3 4 5 6;
#X obj 92 241 +;
#X msg 92 220 0;
#X floatatom -117 264 0 0 0 0 - - -;
#X obj -36 150 bng 15 250 50 0 empty empty empty 17 7 0 10 -262144
-1 -1;
#X text -106 -48 Will I play ?;
#X obj -102 126 inlet;
#X obj -117 299 outlet;
#X obj 9 -69 r ProbBang;
#X obj 11 -41 random 30;
#X obj 12 -21 + 1;
#X obj -70 -16 bng 15 250 50 0 empty empty empty 17 7 0 10 -262144
-1 -1;
#X text 26 5 <- low;
#X text 27 54 <- high;
#X connect 0 0 25 0;
#X connect 5 0 0 1;
#X connect 6 0 5 0;
#X connect 7 0 6 0;
#X connect 10 0 11 1;
#X connect 10 0 16 1;
#X connect 10 0 17 1;
#X connect 10 0 18 1;
#X connect 10 0 19 1;
#X connect 10 0 20 1;
#X connect 10 0 21 1;
#X connect 10 0 26 1;
#X connect 11 0 28 0;
#X connect 12 0 11 0;
#X connect 13 0 16 0;
#X connect 14 0 17 0;
#X connect 15 0 18 0;
#X connect 16 0 28 0;
#X connect 17 0 28 0;
#X connect 18 0 28 0;
#X connect 19 0 28 0;
#X connect 20 0 28 0;
#X connect 21 0 28 0;
#X connect 22 0 21 0;
#X connect 23 0 20 0;
#X connect 24 0 19 0;
#X connect 25 0 12 0;
#X connect 25 1 13 0;
#X connect 25 2 14 0;
#X connect 25 3 15 0;
#X connect 25 4 24 0;
#X connect 25 5 23 0;
#X connect 25 6 22 0;
#X connect 25 7 27 0;
#X connect 26 0 28 0;
#X connect 27 0 26 0;
#X connect 28 0 32 0;
#X connect 29 0 0 0;
#X connect 31 0 10 0;
#X connect 31 0 29 0;
#X connect 33 0 34 0;
#X connect 34 0 35 0;
#X connect 35 0 5 0;
#X connect 36 0 34 0;
#X coords 0 1 100 -1 80 80 1 0 0;
#X restore 238 88 graph;
#X floatatom 90 171 5 0 0 0 - - -;
#X floatatom 238 171 5 0 0 0 - - -;
#X obj 238 191 s vel;
#X msg 265 -120 major;
#X msg 271 -101 midle-east-minor;
#X msg 277 -82 lydian-dominant;
#X msg 283 -62 harmonic-minor;
#X msg 288 -43 chromatic-blues;
#X msg 293 -24 whole-tones;
#X msg 300 -5 diminished;
#X msg 306 14 pentatonic;
#X msg 312 33 pentatonic-blues;
#X msg 411 -78 Gaku-Joshi;
#X msg 419 -60 In-Sen;
#X msg 428 -41 Hira-Joshi;
#X msg 437 -23 Yo;
#X msg 445 -4 Ryo;
#X msg 453 14 Iwato;
#X msg 460 33 Tamuke;
#X obj 90 191 s note1;
#X connect 1 0 2 0;
#X connect 2 0 5 0;
#X connect 2 1 6 0;
#X connect 3 0 2 1;
#X connect 4 0 2 2;
#X connect 5 0 9 0;
#X connect 6 0 10 0;
#X connect 9 0 11 0;
#X connect 10 0 12 0;
#X connect 11 0 30 0;
#X connect 12 0 13 0;
#X connect 14 0 2 3;
#X connect 15 0 2 3;
#X connect 16 0 2 3;
#X connect 17 0 2 3;
#X connect 18 0 2 3;
#X connect 19 0 2 3;
#X connect 20 0 2 3;
#X connect 21 0 2 3;
#X connect 22 0 2 3;
#X connect 23 0 2 3;
#X connect 24 0 2 3;
#X connect 25 0 2 3;
#X connect 26 0 2 3;
#X connect 27 0 2 3;
#X connect 28 0 2 3;
#X connect 29 0 2 3;
