#N canvas 140 22 496 592 10;
#X declare -path z_pdLMatrix_abs;
#N canvas 0 22 833 596 (subpatch) 0;
#X obj 0 0 cnv 15 370 470 empty empty empty 20 12 0 14 -1 -66577 0
;
#X obj 82 -57 loadbang;
#X text 43 -69 NOte sequencer;
#X obj 574 228 mod 8;
#X msg 103 -23 8;
#X msg 77 -24 500;
#X floatatom 475 348 5 0 0 0 - - -;
#X obj 3 420 nbx 3 14 0 10000 0 0 empty empty Note 0 -6 1 11 -4160
-260097 -260097 89 256;
#X obj 3 348 nbx 3 14 0 10000 0 0 empty empty Note 0 -6 1 11 -4160
-260097 -260097 84 256;
#X obj 4 280 nbx 3 14 0 10000 0 0 empty empty Note 0 -6 1 11 -4160
-260097 -260097 77 256;
#X obj 4 216 nbx 3 14 0 10000 0 0 empty empty Note 0 -6 1 11 -4160
-260097 -260097 72 256;
#X obj 4 148 nbx 3 14 0 10000 0 0 empty empty Note 0 -6 1 11 -4160
-260097 -260097 65 256;
#X obj 4 80 nbx 3 14 0 10000 0 0 empty empty Note 0 -6 1 11 -4160 -260097
-260097 60 256;
#X msg 137 -22 60;
#X obj 46 61 line-toggle;
#X obj 46 129 line-toggle;
#X obj 46 197 line-toggle;
#X obj 46 265 line-toggle;
#X obj 46 333 line-toggle;
#X obj 46 401 line-toggle;
#X obj 61 519 outlet;
#X obj 110 518 outlet;
#X obj 171 518 outlet;
#X obj 272 516 outlet;
#X obj 321 515 outlet;
#X obj 382 515 outlet;
#X obj 88 545 outlet;
#X obj 137 544 outlet;
#X obj 198 544 outlet;
#X obj 299 542 outlet;
#X obj 348 541 outlet;
#X obj 409 541 outlet;
#X obj 3 4 cnv 15 360 20 empty empty empty 20 12 0 14 -66577 -66577
0;
#X obj 994 139 i;
#X obj 1042 140 + 1;
#X msg 1024 109 0;
#X obj 1012 41 sel 0;
#X obj 214 7 nbx 2 14 2 8 0 0 empty empty Modulo 30 8 1 11 -1 -260097
-260097 8 256;
#X obj 989 -4 metro 500;
#X obj 6 7 tgl 15 0 empty empty On/Off 17 7 1 11 -1 -260097 -260097
0 1;
#X obj 3 -50 inlet;
#X obj 98 7 nbx 4 14 0 10000 0 0 empty empty Metro 45 8 1 11 -1 -260097
-260097 500 256;
#X obj 312 7 bng 15 250 50 0 empty empty Reset 17 7 0 10 -1 -260097
-260097;
#N canvas 408 99 700 545 counter 0;
#X obj 270 22 inlet;
#X obj 82 285 loadbang;
#X msg 90 206 \$1 color \$2 \$2 \$2;
#X obj 195 179 pack;
#X obj 309 143 - 1;
#X obj 270 116 t f b f;
#X obj 309 172 sel -1;
#X obj 336 275 pack;
#X obj 330 231 t f b;
#X msg 336 302 \$1 color \$2 \$2 \$2;
#X msg 82 342 color \$1 \$1 \$1;
#X obj 216 154 f -1.67434e+07;
#X obj 82 309 f 10;
#X obj 357 253 f 10;
#X obj 264 372 route 0 1 2 3 4 5 6 7;
#X obj 264 685 s \$0-1color.r;
#X obj 279 666 s \$0-2color.r;
#X obj 295 646 s \$0-3color.r;
#X obj 311 627 s \$0-4color.r;
#X obj 327 608 s \$0-5color.r;
#X obj 343 589 s \$0-6color.r;
#X obj 359 570 s \$0-7color.r;
#X obj 375 551 s \$0-8color.r;
#X obj 309 199 7;
#X connect 0 0 5 0;
#X connect 1 0 12 0;
#X connect 2 0 14 0;
#X connect 3 0 2 0;
#X connect 4 0 6 0;
#X connect 5 0 3 0;
#X connect 5 1 11 0;
#X connect 5 2 4 0;
#X connect 6 0 23 0;
#X connect 6 1 8 0;
#X connect 7 0 9 0;
#X connect 8 0 7 0;
#X connect 8 1 13 0;
#X connect 9 0 14 0;
#X connect 10 0 15 0;
#X connect 10 0 16 0;
#X connect 10 0 17 0;
#X connect 10 0 18 0;
#X connect 10 0 19 0;
#X connect 10 0 20 0;
#X connect 10 0 21 0;
#X connect 10 0 22 0;
#X connect 11 0 3 1;
#X connect 12 0 10 0;
#X connect 13 0 7 1;
#X connect 14 0 15 0;
#X connect 14 1 16 0;
#X connect 14 2 17 0;
#X connect 14 3 18 0;
#X connect 14 4 19 0;
#X connect 14 5 20 0;
#X connect 14 6 21 0;
#X connect 14 7 22 0;
#X connect 23 0 8 0;
#X restore 1100 -37 pd counter;
#X obj 5 99 cnv 15 30 15 empty empty delay 2 9 1 11 -159808 -262144
0;
#X obj 5 168 cnv 15 30 15 empty empty delay 2 9 1 11 -159808 -262144
0;
#X obj 5 236 cnv 15 30 15 empty empty delay 2 9 1 11 -159808 -262144
0;
#X obj 5 304 cnv 15 30 15 empty empty delay 2 9 1 11 -159808 -262144
0;
#X obj 4 372 cnv 15 30 15 empty empty delay 2 9 1 11 -159808 -262144
0;
#X obj 4 442 cnv 15 30 15 empty empty delay 2 9 1 11 -159808 -262144
0;
#X msg 173 -22 65;
#X msg 206 -20 72;
#X msg 235 -25 77;
#X msg 272 -24 84;
#X msg 305 -22 89;
#X obj 52 28 cnv 15 305 29 empty \$0-modulo empty 2 12 1 11 -260097
-262144 0;
#N canvas 572 187 450 300 canvasmodulo 0;
#X obj 238 283 line;
#X obj 223 230 expr ($f1 + 1);
#X floatatom 222 190 5 0 0 0 - - -;
#X obj 221 166 i;
#X obj 224 143 inlet;
#X obj 218 335 s \$0-modulo;
#X msg 217 312 vis_size \$1 29;
#X msg 236 260 \$1 500;
#X obj 222 209 * 38;
#X msg 328 311 vis_size \$1 1;
#X obj 329 334 s \$0-modulo2;
#X connect 0 0 6 0;
#X connect 0 0 9 0;
#X connect 1 0 7 0;
#X connect 2 0 8 0;
#X connect 3 0 2 0;
#X connect 4 0 3 0;
#X connect 6 0 5 0;
#X connect 7 0 0 0;
#X connect 8 0 1 0;
#X connect 9 0 10 0;
#X restore 673 -47 pd canvasmodulo;
#X obj 59 30 tgl 25 0 \$0-blah \$0-1color.r empty 17 7 0 10 -233017
-233017 -233017 0 1;
#X obj 98 30 tgl 25 0 \$0-blah \$0-2color.r empty 17 7 0 10 -233017
-233017 -233017 0 1;
#X obj 139 30 tgl 25 0 \$0-blah \$0-3color.r empty 17 7 0 10 -233017
-233017 -233017 0 1;
#X obj 174 30 tgl 25 0 \$0-blah \$0-4color.r empty 17 7 0 10 -233017
-233017 -233017 0 1;
#X obj 213 30 tgl 25 0 \$0-blah \$0-5color.r empty 17 7 0 10 -233017
-233017 -233017 0 1;
#X obj 251 30 tgl 25 0 \$0-blah \$0-6color.r empty 17 7 0 10 -233017
-233017 -233017 0 1;
#X obj 290 30 tgl 25 0 \$0-blah \$0-7color.r empty 17 7 0 10 -233017
-233017 -233017 0 1;
#X obj 327 30 tgl 25 0 \$0-blah \$0-8color.r empty 17 7 0 10 -233017
-233017 -233017 0 1;
#X obj 52 189 cnv 1 305 1 empty \$0-modulo2 empty 2 12 1 11 -260097
-262144 0;
#X obj 53 120 cnv 1 305 1 empty \$0-modulo2 empty 2 12 1 11 -260097
-262144 0;
#X obj 52 257 cnv 1 305 1 empty \$0-modulo2 empty 2 12 1 11 -260097
-262144 0;
#X obj 52 325 cnv 1 305 1 empty \$0-modulo2 empty 2 12 1 11 -260097
-262144 0;
#X obj 53 393 cnv 1 305 1 empty \$0-modulo2 empty 2 12 1 11 -260097
-262144 0;
#X obj 53 461 cnv 1 305 1 empty \$0-modulo2 empty 2 12 1 11 -260097
-262144 0;
#X connect 1 0 5 0;
#X connect 1 0 4 0;
#X connect 1 0 13 0;
#X connect 1 0 50 0;
#X connect 1 0 51 0;
#X connect 1 0 52 0;
#X connect 1 0 53 0;
#X connect 1 0 54 0;
#X connect 3 0 6 0;
#X connect 3 0 14 1;
#X connect 3 0 15 1;
#X connect 3 0 16 1;
#X connect 3 0 17 1;
#X connect 3 0 18 1;
#X connect 3 0 19 1;
#X connect 3 0 43 0;
#X connect 4 0 37 0;
#X connect 5 0 41 0;
#X connect 7 0 19 0;
#X connect 8 0 18 0;
#X connect 9 0 17 0;
#X connect 10 0 16 0;
#X connect 11 0 15 0;
#X connect 12 0 14 0;
#X connect 13 0 12 0;
#X connect 14 0 20 0;
#X connect 14 1 26 0;
#X connect 15 0 21 0;
#X connect 15 1 27 0;
#X connect 16 0 22 0;
#X connect 16 1 28 0;
#X connect 17 0 23 0;
#X connect 17 1 29 0;
#X connect 18 0 24 0;
#X connect 18 1 30 0;
#X connect 19 0 25 0;
#X connect 19 1 31 0;
#X connect 33 0 34 0;
#X connect 33 0 3 0;
#X connect 34 0 33 1;
#X connect 35 0 33 0;
#X connect 36 0 35 0;
#X connect 37 0 3 1;
#X connect 37 0 56 0;
#X connect 38 0 33 0;
#X connect 39 0 38 0;
#X connect 40 0 39 0;
#X connect 41 0 38 1;
#X connect 42 0 35 0;
#X connect 50 0 11 0;
#X connect 51 0 10 0;
#X connect 52 0 9 0;
#X connect 53 0 8 0;
#X connect 54 0 7 0;
#X coords 0 1 100 -1 370 470 1 0 0;
#X restore 34 -149 graph;
#X floatatom 29 329 5 0 0 0 - - -;
#X floatatom 62 329 5 0 0 0 - - -;
#X floatatom 97 330 5 0 0 0 - - -;
#X floatatom 130 330 5 0 0 0 - - -;
#X floatatom 166 330 5 0 0 0 - - -;
#X floatatom 199 330 5 0 0 0 - - -;
#X floatatom 235 330 5 0 0 0 - - -;
#X floatatom 268 330 5 0 0 0 - - -;
#X floatatom 303 330 5 0 0 0 - - -;
#X floatatom 336 330 5 0 0 0 - - -;
#X floatatom 371 330 5 0 0 0 - - -;
#X floatatom 404 330 5 0 0 0 - - -;
#X obj 156 -168 declare -path z_pdLMatrix_abs;
#X obj 29 351 s note1;
#X obj 39 371 s vel1;
#X obj 97 351 s note2;
#X obj 107 371 s vel2;
#X obj 166 352 s note3;
#X obj 176 372 s vel3;
#X obj 235 352 s note4;
#X obj 245 372 s vel4;
#X obj 303 352 s note5;
#X obj 313 372 s vel5;
#X obj 371 353 s note6;
#X obj 381 373 s vel6;
#X connect 0 0 1 0;
#X connect 0 1 2 0;
#X connect 0 2 3 0;
#X connect 0 3 4 0;
#X connect 0 4 5 0;
#X connect 0 5 6 0;
#X connect 0 6 7 0;
#X connect 0 7 8 0;
#X connect 0 8 9 0;
#X connect 0 9 10 0;
#X connect 0 10 11 0;
#X connect 0 11 12 0;
#X connect 1 0 14 0;
#X connect 2 0 15 0;
#X connect 3 0 16 0;
#X connect 4 0 17 0;
#X connect 5 0 18 0;
#X connect 6 0 19 0;
#X connect 7 0 20 0;
#X connect 8 0 21 0;
#X connect 9 0 22 0;
#X connect 10 0 23 0;
#X connect 11 0 24 0;
#X connect 12 0 25 0;
