#N canvas 0 22 398 177 10;
#N canvas 0 22 1024 720 (subpatch) 0;
#X obj 122 16 popup 124 25 #ffffff popup Major Middle-East-Minor Lydian-Dominant
Harmonic-Minor Chromatic-Blues Whole-Tones Diminished Pentantonic Pentatonic-blues
Gaku-Joshi In-Sen Hira-Jochi Yo Ryo Iwato Tamuke;
#X obj 312 -68 loadbang;
#X msg 355 -18 options Major Middle-East-Minor Lydian-Dominant Harmonic-Minor
Chromatic-Blues Whole-Tones Diminished Pentantonic Pentatonic-blues
Gaku-Joshi In-Sen Hira-Jochi Yo Ryo Iwato Tamuke;
#N canvas 0 22 1024 720 scales---------------- 0;
#X text 350 -387 major;
#X msg 285 -253 0 2 3 5 6 8 9 11;
#X msg 685 -216 0 0.5 1 1.5 2 2.5 3 3.5 4;
#X text 362 -365 middle-east-like minor;
#X text 373 -341 lydian-dominant (jazzy);
#X text 385 -318 harmonic minor;
#X msg 263 -297 0 2 3 4 5 6 7 9 10 11;
#X text 436 -296 chromatic blues;
#X text 396 -273 whole-tones scale;
#X text 428 -251 diminished scale;
#X text 432 -230 pentatonic;
#X text 428 -209 pentatonic blues;
#X msg 690 -194 0 0.33 0.66 1 1.33 1.66 2;
#X msg 696 -171 0 1.5 3 4.5 6 7.5 9 10.5;
#X floatatom 111 118 5 0 0 2 Base - -;
#X msg 766 -267 22 20 25 22 18 17 22 18 10 13 17 15;
#X obj 220 -407 bng 15 250 50 0 empty empty empty 17 7 0 10 -262144
-1 -1;
#X obj 240 -407 bng 15 250 50 0 empty empty empty 17 7 0 10 -262144
-1 -1;
#X obj 260 -407 bng 15 250 50 0 empty empty empty 17 7 0 10 -262144
-1 -1;
#X obj 280 -407 bng 15 250 50 0 empty empty empty 17 7 0 10 -262144
-1 -1;
#X text 651 -459 Just bang the scale you want for each form then receive
random notes this patch will just send the closest note in the form/scale
selected.;
#X obj 299 -407 bng 15 250 50 0 empty empty empty 17 7 0 10 -262144
-1 -1;
#X obj 319 -407 bng 15 250 50 0 empty empty empty 17 7 0 10 -262144
-1 -1;
#X obj 339 -407 bng 15 250 50 0 empty empty empty 17 7 0 10 -262144
-1 -1;
#X obj 359 -407 bng 15 250 50 0 empty empty empty 17 7 0 10 -262144
-1 -1;
#X obj 381 -407 bng 15 250 50 0 empty empty empty 17 7 0 10 -262144
-1 -1;
#X obj 214 -502 inlet;
#X text 445 -187 Gaku_joshi;
#X text 450 -165 in_sen;
#X text 458 -145 hira-joshi;
#X text 468 -121 yo;
#X text 478 -102 ryo;
#X text 485 -81 Iwato;
#X text 491 -56 Tamuke;
#X obj 405 -407 bng 15 250 50 0 empty empty empty 17 7 0 10 -262144
-1 -1;
#X obj 425 -407 bng 15 250 50 0 empty empty empty 17 7 0 10 -262144
-1 -1;
#X obj 445 -407 bng 15 250 50 0 empty empty empty 17 7 0 10 -262144
-1 -1;
#X obj 465 -407 bng 15 250 50 0 empty empty empty 17 7 0 10 -262144
-1 -1;
#X obj 484 -407 bng 15 250 50 0 empty empty empty 17 7 0 10 -262144
-1 -1;
#X obj 504 -407 bng 15 250 50 0 empty empty empty 17 7 0 10 -262144
-1 -1;
#X obj 524 -407 bng 15 250 50 0 empty empty empty 17 7 0 10 -262144
-1 -1;
#X obj 544 -407 bng 15 250 50 0 empty empty empty 17 7 0 10 -262144
-1 -1;
#X obj 566 -407 bng 15 250 50 0 empty empty empty 17 7 0 10 -262144
-1 -1;
#X obj 214 -469 route major midle-east-minor lydian-dominant harmonic-minor
chromatic-blues whole-tones diminished pentatonic pentatonic-blues
Gaku-Joshi In-Sen Hira-Joshi Yo Ryo Iwato Tamuke;
#X obj 230 -24 unpack 0 0 0 0 0 0 0 0 0 0;
#X obj 227 2 +;
#X obj 241 20 +;
#X obj 261 38 +;
#X obj 275 56 +;
#X obj 296 3 +;
#X obj 310 21 +;
#X obj 330 39 +;
#X obj 344 57 +;
#X obj 369 11 +;
#X obj 383 29 +;
#X floatatom 183 153 5 0 0 0 - - -;
#X floatatom 219 153 5 0 0 0 - - -;
#X floatatom 254 153 5 0 0 0 - - -;
#X floatatom 289 153 5 0 0 0 - - -;
#X floatatom 324 153 5 0 0 0 - - -;
#X floatatom 358 153 5 0 0 0 - - -;
#X floatatom 392 153 5 0 0 0 - - -;
#X floatatom 426 153 5 0 0 0 - - -;
#X floatatom 596 71 5 0 0 0 - - -;
#X floatatom 630 71 5 0 0 0 - - -;
#X msg 220 -387 0 2 4 5 7 9 11 12;
#X msg 229 -365 0 1 4 5 7 8 11 12;
#X msg 241 -342 0 2 4 6 7 9 10 12;
#X msg 252 -320 0 2 3 5 7 8 11 12;
#X text 185 138 1st;
#X text 222 138 2nd;
#X text 260 138 3rd;
#X text 293 138 4th;
#X text 330 139 5th;
#X text 361 139 6th;
#X text 393 139 7th;
#X text 427 139 8th;
#X msg 273 -275 0 2 4 6 8 10 12 14;
#X msg 293 -231 0 2 4 7 9 12 14 18;
#X msg 301 -209 0 2 3 4 7 8 9 12;
#X msg 312 -187 0 2 4 7 7 9 12 14;
#X msg 319 -165 0 0 1 5 5 7 10 12;
#X msg 327 -144 0 2 3 7 7 9 10 12;
#X msg 336 -123 0 2 4 7 7 9 11 12;
#X msg 343 -102 0 2 4 6 6 9 11 12;
#X msg 350 -80 0 0 1 5 5 6 10 12;
#X msg 361 -58 0 2 3 7 7 9 12 14;
#X obj 39 -323 r Base-Note;
#X obj 202 210 s Note1;
#X obj 273 213 s Note2;
#X obj 334 212 s Note3;
#X obj 392 210 s Note4;
#X obj 450 210 s Note5;
#X obj 506 209 s Note6;
#X obj 566 208 s Note7;
#X obj 625 206 s Note8;
#X obj 127 -102 list2symbol;
#X symbolatom 182 120 40 0 0 2 Scale - -;
#X obj 131 -74 s scale;
#X text 56 226 Tp;
#X obj 672 -351 loadbang;
#X obj 35 85 t b;
#X msg 715 -296 48;
#X msg 676 -297 36;
#X msg 639 -314 24;
#X connect 1 0 44 0;
#X connect 2 0 44 0;
#X connect 6 0 44 0;
#X connect 12 0 44 0;
#X connect 13 0 44 0;
#X connect 14 0 45 1;
#X connect 14 0 46 1;
#X connect 14 0 47 1;
#X connect 14 0 48 1;
#X connect 14 0 49 1;
#X connect 14 0 50 1;
#X connect 14 0 51 1;
#X connect 14 0 52 1;
#X connect 14 0 53 1;
#X connect 14 0 54 1;
#X connect 14 0 101 0;
#X connect 15 0 44 0;
#X connect 16 0 65 0;
#X connect 17 0 66 0;
#X connect 18 0 67 0;
#X connect 19 0 68 0;
#X connect 21 0 6 0;
#X connect 22 0 77 0;
#X connect 23 0 1 0;
#X connect 24 0 78 0;
#X connect 25 0 79 0;
#X connect 26 0 43 0;
#X connect 26 0 96 0;
#X connect 34 0 80 0;
#X connect 35 0 81 0;
#X connect 36 0 82 0;
#X connect 37 0 83 0;
#X connect 38 0 84 0;
#X connect 39 0 85 0;
#X connect 40 0 86 0;
#X connect 43 0 16 0;
#X connect 43 1 17 0;
#X connect 43 2 18 0;
#X connect 43 3 19 0;
#X connect 43 4 21 0;
#X connect 43 5 22 0;
#X connect 43 6 23 0;
#X connect 43 7 24 0;
#X connect 43 8 25 0;
#X connect 43 9 34 0;
#X connect 43 10 35 0;
#X connect 43 11 36 0;
#X connect 43 12 37 0;
#X connect 43 13 38 0;
#X connect 43 14 39 0;
#X connect 43 15 40 0;
#X connect 44 0 45 0;
#X connect 44 1 46 0;
#X connect 44 2 47 0;
#X connect 44 3 48 0;
#X connect 44 4 49 0;
#X connect 44 5 50 0;
#X connect 44 6 51 0;
#X connect 44 7 52 0;
#X connect 44 8 53 0;
#X connect 44 9 54 0;
#X connect 45 0 55 0;
#X connect 46 0 56 0;
#X connect 47 0 57 0;
#X connect 48 0 58 0;
#X connect 49 0 59 0;
#X connect 50 0 60 0;
#X connect 51 0 61 0;
#X connect 52 0 62 0;
#X connect 53 0 63 0;
#X connect 54 0 64 0;
#X connect 55 0 88 0;
#X connect 56 0 89 0;
#X connect 57 0 90 0;
#X connect 58 0 91 0;
#X connect 59 0 92 0;
#X connect 60 0 93 0;
#X connect 61 0 94 0;
#X connect 62 0 95 0;
#X connect 65 0 44 0;
#X connect 66 0 44 0;
#X connect 67 0 44 0;
#X connect 68 0 44 0;
#X connect 77 0 44 0;
#X connect 78 0 44 0;
#X connect 79 0 44 0;
#X connect 80 0 44 0;
#X connect 81 0 44 0;
#X connect 82 0 44 0;
#X connect 83 0 44 0;
#X connect 84 0 44 0;
#X connect 85 0 44 0;
#X connect 86 0 44 0;
#X connect 87 0 14 0;
#X connect 96 0 97 0;
#X connect 96 0 98 0;
#X connect 100 0 104 0;
#X connect 100 0 103 0;
#X connect 100 0 102 0;
#X connect 101 0 45 0;
#X connect 101 0 46 0;
#X connect 101 0 47 0;
#X connect 101 0 48 0;
#X connect 101 0 49 0;
#X connect 101 0 50 0;
#X connect 101 0 51 0;
#X connect 101 0 52 0;
#X connect 101 0 53 0;
#X connect 101 0 54 0;
#X connect 104 0 14 0;
#X coords 0 -1 1 1 360 100 2 100 100;
#X restore 10 48 pd scales----------------;
#X msg 434 239 major;
#X msg 448 258 midle-east-minor;
#X msg 463 278 lydian-dominant;
#X msg 477 298 harmonic-minor;
#X msg 492 317 chromatic-blues;
#X msg 507 336 whole-tones;
#X msg 521 355 diminished;
#X msg 536 375 pentatonic;
#X msg 550 395 pentatonic-blues;
#X msg 565 415 Gaku-Joshi;
#X msg 580 434 In-Sen;
#X msg 594 454 Hira-Joshi;
#X msg 609 474 Yo;
#X msg 626 494 Ryo;
#X msg 640 514 Iwato;
#X msg 653 535 Tamuke;
#X floatatom 434 196 5 0 0 0 - - -;
#X obj 434 134 loadbang;
#X obj 434 177 random 13;
#X obj 116 10 cnv 15 135 35 empty empty empty 20 12 0 14 -1 -66577
0;
#X obj 434 215 sel 0 1 2 3 4 5 6 7 8 9 10 11 12 13;
#X floatatom 548 148 5 0 0 0 - - -;
#X obj 556 125 r Scale-Id;
#X connect 0 0 20 0;
#X connect 1 0 2 0;
#X connect 2 0 0 0;
#X connect 4 0 3 0;
#X connect 5 0 3 0;
#X connect 6 0 3 0;
#X connect 7 0 3 0;
#X connect 8 0 3 0;
#X connect 9 0 3 0;
#X connect 10 0 3 0;
#X connect 11 0 3 0;
#X connect 12 0 3 0;
#X connect 13 0 3 0;
#X connect 14 0 3 0;
#X connect 15 0 3 0;
#X connect 16 0 3 0;
#X connect 17 0 3 0;
#X connect 18 0 3 0;
#X connect 19 0 3 0;
#X connect 20 0 24 0;
#X connect 21 0 22 0;
#X connect 22 0 20 0;
#X connect 24 0 4 0;
#X connect 24 1 5 0;
#X connect 24 2 6 0;
#X connect 24 3 7 0;
#X connect 24 4 8 0;
#X connect 24 5 9 0;
#X connect 24 6 10 0;
#X connect 24 7 11 0;
#X connect 24 8 12 0;
#X connect 24 9 13 0;
#X connect 24 10 14 0;
#X connect 24 11 15 0;
#X connect 24 12 16 0;
#X connect 24 13 17 0;
#X connect 24 14 18 0;
#X connect 25 0 0 0;
#X connect 26 0 25 0;
#X coords 0 1 100 -1 383 165 1 0 0;
#X restore 3 6 graph;
