#N canvas 17 31 830 262 10;
#N canvas 0 22 871 533 (subpatch) 0;
#N canvas 515 60 1065 838 qlistrecorder1 0;
#X obj 265 666 qlist;
#X obj 240 452 pack f f f f;
#N canvas 558 366 693 510 midipoly6voicenotes 0;
#X obj 57 69 pack 0 0;
#X obj 52 122 pack 0 0 0;
#X obj -26 383 outlet;
#N canvas 4 25 506 503 makenotvals 0;
#X obj 25 54 inlet;
#X obj 176 364 outlet;
#X obj 88 113 moses 0.01;
#X obj 27 83 unpack f f;
#X obj 157 237 timer;
#X msg 154 208 bang;
#X msg 222 204 bang;
#X obj 26 364 outlet;
#X obj 96 361 outlet;
#X connect 0 0 3 0;
#X connect 2 0 6 0;
#X connect 2 1 5 0;
#X connect 2 1 8 0;
#X connect 3 0 7 0;
#X connect 3 1 2 0;
#X connect 4 0 1 0;
#X connect 5 0 4 0;
#X connect 6 0 4 1;
#X restore -220 250 pd makenotvals;
#X obj 26 383 outlet;
#X obj 79 381 outlet;
#X text -15 357 pitch vel duration;
#X obj 50 149 route 1 2 3 4 5 6;
#N canvas 4 25 506 503 makenotvals 0;
#X obj 25 54 inlet;
#X obj 176 364 outlet;
#X obj 88 113 moses 0.01;
#X obj 27 83 unpack f f;
#X obj 157 237 timer;
#X msg 154 208 bang;
#X msg 222 204 bang;
#X obj 26 364 outlet;
#X obj 96 361 outlet;
#X connect 0 0 3 0;
#X connect 2 0 6 0;
#X connect 2 1 5 0;
#X connect 2 1 8 0;
#X connect 3 0 7 0;
#X connect 3 1 2 0;
#X connect 4 0 1 0;
#X connect 5 0 4 0;
#X connect 6 0 4 1;
#X restore -93 242 pd makenotvals;
#N canvas 4 25 506 503 makenotvals 0;
#X obj 25 54 inlet;
#X obj 176 364 outlet;
#X obj 88 113 moses 0.01;
#X obj 27 83 unpack f f;
#X obj 157 237 timer;
#X msg 154 208 bang;
#X msg 222 204 bang;
#X obj 26 364 outlet;
#X obj 96 361 outlet;
#X connect 0 0 3 0;
#X connect 2 0 6 0;
#X connect 2 1 5 0;
#X connect 2 1 8 0;
#X connect 3 0 7 0;
#X connect 3 1 2 0;
#X connect 4 0 1 0;
#X connect 5 0 4 0;
#X connect 6 0 4 1;
#X restore 38 233 pd makenotvals;
#N canvas 4 25 506 503 makenotvals 0;
#X obj 25 54 inlet;
#X obj 176 364 outlet;
#X obj 88 113 moses 0.01;
#X obj 27 83 unpack f f;
#X obj 157 237 timer;
#X msg 154 208 bang;
#X msg 222 204 bang;
#X obj 26 364 outlet;
#X obj 96 361 outlet;
#X connect 0 0 3 0;
#X connect 2 0 6 0;
#X connect 2 1 5 0;
#X connect 2 1 8 0;
#X connect 3 0 7 0;
#X connect 3 1 2 0;
#X connect 4 0 1 0;
#X connect 5 0 4 0;
#X connect 6 0 4 1;
#X restore 162 220 pd makenotvals;
#N canvas 4 25 506 503 makenotvals 0;
#X obj 25 54 inlet;
#X obj 176 364 outlet;
#X obj 88 113 moses 0.01;
#X obj 27 83 unpack f f;
#X obj 157 237 timer;
#X msg 154 208 bang;
#X msg 222 204 bang;
#X obj 26 364 outlet;
#X obj 96 361 outlet;
#X connect 0 0 3 0;
#X connect 2 0 6 0;
#X connect 2 1 5 0;
#X connect 2 1 8 0;
#X connect 3 0 7 0;
#X connect 3 1 2 0;
#X connect 4 0 1 0;
#X connect 5 0 4 0;
#X connect 6 0 4 1;
#X restore 294 217 pd makenotvals;
#N canvas 4 25 506 503 makenotvals 0;
#X obj 25 54 inlet;
#X obj 176 364 outlet;
#X obj 88 113 moses 0.01;
#X obj 27 83 unpack f f;
#X obj 157 237 timer;
#X msg 154 208 bang;
#X msg 222 204 bang;
#X obj 26 364 outlet;
#X obj 96 361 outlet;
#X connect 0 0 3 0;
#X connect 2 0 6 0;
#X connect 2 1 5 0;
#X connect 2 1 8 0;
#X connect 3 0 7 0;
#X connect 3 1 2 0;
#X connect 4 0 1 0;
#X connect 5 0 4 0;
#X connect 6 0 4 1;
#X restore 415 219 pd makenotvals;
#X obj 54 95 poly 6 1;
#X obj 50 27 inlet;
#X obj 112 28 inlet;
#X text 134 90 6 voices max;
#X connect 0 0 13 0;
#X connect 1 0 7 0;
#X connect 3 0 2 0;
#X connect 3 1 4 0;
#X connect 3 2 5 0;
#X connect 7 0 3 0;
#X connect 7 1 8 0;
#X connect 7 2 9 0;
#X connect 7 3 10 0;
#X connect 7 4 11 0;
#X connect 7 5 12 0;
#X connect 8 0 2 0;
#X connect 8 1 4 0;
#X connect 8 2 5 0;
#X connect 9 0 2 0;
#X connect 9 1 4 0;
#X connect 9 2 5 0;
#X connect 10 0 2 0;
#X connect 10 1 4 0;
#X connect 10 2 5 0;
#X connect 11 0 2 0;
#X connect 11 1 4 0;
#X connect 11 2 5 0;
#X connect 12 0 2 0;
#X connect 12 1 4 0;
#X connect 12 2 5 0;
#X connect 13 0 1 0;
#X connect 13 1 1 1;
#X connect 13 2 1 2;
#X connect 14 0 0 0;
#X connect 15 0 0 1;
#X restore 210 305 pd midipoly6voicenotes;
#X obj 75 233 realtime;
#X obj 318 359 t b b f;
#X obj 261 478 t b a;
#X msg 632 363 bang;
#X msg -83 202 clear;
#X msg 440 628 print;
#X obj 254 699 r qlistrec1;
#X text 222 326 pitch vel duration;
#X obj 250 781 makenote;
#X obj 250 728 unpack f f f;
#X text 57 517 unique name for the receiver!;
#X msg 639 250 tempo 1;
#X obj 104 336 -;
#X obj 75 256 t f f b;
#X msg 2 244 0;
#X obj 216 839 outlet;
#X obj 316 837 outlet;
#X text 363 824 velocity (0..127);
#X text 195 809 note(0..127);
#X obj 136 179 inlet;
#X obj 385 178 inlet;
#X text 391 155 velocity (0..127);
#X text 192 190 note(0..127);
#X obj 406 213 spigot;
#X obj 222 273 spigot;
#X obj 157 114 tgl 15 0 empty empty rec 17 7 0 10 -258113 -1 -1 0 1
;
#X msg 643 212 set tempo \$1;
#X obj 610 184 t b f;
#X obj 10 154 t b b b;
#X obj 102 114 bng 15 250 50 0 empty empty st/clr 17 7 0 10 -258113
-1 -1;
#X obj 371 403 int;
#X obj 40 299 float;
#X obj 123 143 bng 15 250 50 0 empty empty empty 17 7 0 10 -4034 -1
-1;
#X msg 676 424 set;
#X obj 616 -29 inlet;
#X obj 672 -27 inlet;
#X text 679 -55 bpm;
#X msg 785 108 set \$1;
#X msg 785 134 101;
#X obj 779 80 float;
#X msg 608 560 add2 add \$1 qlistrec1 \$2 \$3 \$4;
#X msg 676 505 addcomma;
#X obj 562 510 t b a;
#X msg 607 599;
#X obj 768 24 loadbang;
#X msg 270 515 set add \$1 qlistrec1 \$2 \$3 \$4;
#X msg 258 544 add 5 qlistrec1 55 114 54;
#X obj 204 397 int;
#X obj 206 424 max 1;
#X obj 388 428 - 1;
#X obj 378 451 max 1;
#X obj 763 156 /;
#X obj 727 102 t f b;
#X obj 143 143 tgl 15 0 empty empty loop 17 7 0 10 -262144 -1 -1 0
1;
#X obj 184 144 nbx 4 14 2 4096 0 1 empty empty empty 0 -8 0 10 -262144
-1 -1 32 256;
#X obj 104 132 hsl 123 8 0 1 0 0 empty empty empty -2 -6 0 8 -262144
-258699 -1 5719 1;
#X obj 277 78 mod;
#X obj 277 57 +;
#X obj 516 -75 inlet;
#X text 560 -75 pos offset (1/16);
#X text 588 -52 pos(1/16);
#X obj 328 74 == 0;
#X obj 369 72 moses 0.1;
#X obj 287 225 /;
#X obj 322 113 spigot;
#X obj -20 -22 inlet;
#X obj 194 114 tgl 15 0 empty empty arm 17 7 0 10 -258113 -1 -1 0 1
;
#X text 19 -23 start bang;
#X obj 198 249 t f b;
#X obj 148 4 spigot;
#X obj 108 33 t b b;
#X msg 106 62 0;
#X text 11 -66 record midi notes to qlist (and loop);
#X text 12 -51 4/2010 martin brinkmann;
#X connect 1 0 5 0;
#X connect 2 0 1 1;
#X connect 2 1 1 2;
#X connect 2 2 4 0;
#X connect 3 0 16 0;
#X connect 4 0 50 0;
#X connect 4 1 3 1;
#X connect 4 2 33 0;
#X connect 5 0 49 0;
#X connect 5 1 48 0;
#X connect 5 1 45 0;
#X connect 6 0 0 0;
#X connect 7 0 0 0;
#X connect 8 0 0 0;
#X connect 9 0 12 0;
#X connect 11 0 18 0;
#X connect 11 1 19 0;
#X connect 12 0 11 0;
#X connect 12 1 11 1;
#X connect 12 2 11 2;
#X connect 14 0 0 0;
#X connect 15 0 50 1;
#X connect 16 0 34 1;
#X connect 16 1 15 0;
#X connect 16 2 34 0;
#X connect 17 0 34 1;
#X connect 22 0 18 0;
#X connect 22 0 71 0;
#X connect 23 0 19 0;
#X connect 23 0 26 0;
#X connect 26 0 2 1;
#X connect 27 0 2 0;
#X connect 28 0 26 1;
#X connect 28 0 27 1;
#X connect 29 0 14 0;
#X connect 30 0 14 0;
#X connect 30 1 29 0;
#X connect 31 0 3 0;
#X connect 31 1 17 0;
#X connect 31 2 7 0;
#X connect 31 2 36 0;
#X connect 31 2 42 0;
#X connect 32 0 31 0;
#X connect 33 0 52 0;
#X connect 34 0 15 1;
#X connect 35 0 6 0;
#X connect 36 0 46 0;
#X connect 37 0 60 0;
#X connect 38 0 42 1;
#X connect 38 0 55 0;
#X connect 40 0 41 0;
#X connect 41 0 54 1;
#X connect 42 0 40 0;
#X connect 43 0 46 0;
#X connect 44 0 46 0;
#X connect 45 0 44 0;
#X connect 45 1 43 0;
#X connect 46 0 0 0;
#X connect 47 0 46 0;
#X connect 47 0 14 0;
#X connect 48 0 49 0;
#X connect 49 0 0 0;
#X connect 50 0 51 0;
#X connect 51 0 1 0;
#X connect 52 0 53 0;
#X connect 53 0 1 3;
#X connect 54 0 30 0;
#X connect 55 0 54 0;
#X connect 55 1 41 0;
#X connect 56 0 67 1;
#X connect 57 0 59 1;
#X connect 57 0 66 1;
#X connect 59 0 64 0;
#X connect 59 0 66 0;
#X connect 60 0 59 0;
#X connect 61 0 60 1;
#X connect 64 0 65 0;
#X connect 65 1 67 0;
#X connect 66 0 58 0;
#X connect 67 0 35 0;
#X connect 68 0 35 0;
#X connect 69 0 72 1;
#X connect 71 0 27 0;
#X connect 71 1 72 0;
#X connect 72 0 73 0;
#X connect 73 0 74 0;
#X connect 73 1 32 0;
#X connect 74 0 69 0;
#X coords 0 -1 1 1 130 60 1 100 100;
#X restore 4 53 pd qlistrecorder1;
#N canvas 224 46 961 852 16counter 0;
#X obj 318 440 + 1;
#X obj 267 436 float;
#X obj 272 622 mod 2;
#X obj 210 672 delay 0;
#X obj 260 651 *;
#X msg 206 296 1;
#X obj 218 321 /;
#X obj 209 273 t f f;
#X obj 228 344 * 15000;
#X obj 339 355 t b f;
#X obj 263 405 metro 125;
#X obj 182 578 *;
#X obj 268 596 t b f f;
#X obj 136 130 hsl 80 8 0 0.4 0 1 empty empty swing -33 4 0 10 -262144
-1 -1 0 1;
#X msg 340 329 -2;
#X obj 251 700 int;
#X obj 172 17 loadbang;
#X floatatom 126 113 5 30 300 0 bpm - -;
#X msg -2 85 set \$1;
#X msg 5 139 101;
#X obj 174 112 bng 15 250 50 0 empty empty empty 6 7 0 10 -261234 -1
-1;
#X obj 253 737 outlet;
#X obj 570 496 outlet;
#X text 618 497 bpm->;
#X obj 200 112 bng 15 50 20 0 empty empty empty 6 7 0 10 -204786 -1
-1;
#X obj 208 225 float;
#X obj 435 539 outlet;
#X text 144 343 1/16 in ms;
#X text 485 540 pos96->;
#X text 178 628 swing;
#X obj 259 373 / 6;
#X text 219 371 1/96;
#X obj 343 481 / 6;
#X obj 343 505 int;
#X obj 342 530 change;
#X text 304 738 pos16swing->;
#X obj 600 64 + 1;
#X obj 602 29 float;
#X obj 600 96 moses 2;
#X obj 600 155 timer;
#X obj 600 123 t b;
#X obj 648 122 t b b;
#X obj 653 243 /;
#X msg 623 221 60000;
#X obj 618 183 t b f;
#X obj 656 268 moses 10;
#X text 500 72 beatcounter;
#X obj 772 358 float;
#X obj 769 401 + 1;
#X obj 688 426 +;
#X obj 729 396 *;
#X obj 705 328 t f b;
#X obj 698 464 /;
#X msg 884 211 0;
#X text 499 302 mean (as seen on idafx blog);
#X obj 906 259 bng 15 250 50 0 empty empty empty 17 7 0 10 -262144
-1 -1;
#X obj 864 324 t f f;
#X obj 921 503 moses 0.1;
#X text 880 303 reset;
#X obj 870 366 /;
#X obj 849 431 < 0.75;
#X obj 903 435 > 1.25;
#X obj 869 391 t f f;
#X obj 877 471 ||;
#X obj 174 54 t b b b;
#X obj 43 -7 inlet;
#X obj 107 -11 inlet;
#X connect 0 0 1 1;
#X connect 0 0 32 0;
#X connect 0 0 26 0;
#X connect 1 0 0 0;
#X connect 2 0 4 0;
#X connect 3 0 15 0;
#X connect 4 0 3 1;
#X connect 5 0 6 0;
#X connect 6 0 8 0;
#X connect 7 0 5 0;
#X connect 7 1 6 1;
#X connect 8 0 11 1;
#X connect 8 0 30 0;
#X connect 9 0 10 0;
#X connect 9 1 1 0;
#X connect 10 0 1 0;
#X connect 11 0 4 1;
#X connect 12 0 3 0;
#X connect 12 1 2 0;
#X connect 12 2 15 1;
#X connect 13 0 11 0;
#X connect 14 0 9 0;
#X connect 15 0 21 0;
#X connect 16 0 64 0;
#X connect 17 0 18 0;
#X connect 17 0 25 1;
#X connect 18 0 19 0;
#X connect 19 0 17 0;
#X connect 20 0 14 0;
#X connect 20 0 25 0;
#X connect 24 0 37 0;
#X connect 25 0 7 0;
#X connect 25 0 22 0;
#X connect 30 0 10 1;
#X connect 32 0 33 0;
#X connect 33 0 34 0;
#X connect 34 0 12 0;
#X connect 36 0 37 1;
#X connect 36 0 38 0;
#X connect 37 0 36 0;
#X connect 38 0 40 0;
#X connect 38 1 41 0;
#X connect 39 0 44 0;
#X connect 39 0 56 0;
#X connect 40 0 39 0;
#X connect 41 0 39 0;
#X connect 41 1 39 1;
#X connect 42 0 45 0;
#X connect 43 0 42 0;
#X connect 44 0 43 0;
#X connect 44 1 42 1;
#X connect 45 1 51 0;
#X connect 47 0 48 0;
#X connect 47 0 50 0;
#X connect 48 0 47 1;
#X connect 48 0 52 1;
#X connect 49 0 52 0;
#X connect 50 0 49 1;
#X connect 51 0 49 0;
#X connect 51 1 47 0;
#X connect 52 0 50 1;
#X connect 52 0 17 0;
#X connect 53 0 47 1;
#X connect 53 0 37 1;
#X connect 53 0 55 0;
#X connect 56 0 59 1;
#X connect 56 1 59 0;
#X connect 57 1 53 0;
#X connect 59 0 62 0;
#X connect 60 0 63 0;
#X connect 61 0 63 1;
#X connect 62 0 60 0;
#X connect 62 1 61 0;
#X connect 63 0 57 0;
#X connect 64 0 20 0;
#X connect 64 1 20 0;
#X connect 64 2 19 0;
#X connect 65 0 20 0;
#X connect 66 0 24 0;
#X coords 0 -1 1 1 120 40 1 100 100;
#X restore 220 3 pd 16counter;
#N canvas 515 60 1065 838 qlistrecorder2 0;
#X obj 265 666 qlist;
#X obj 240 452 pack f f f f;
#N canvas 558 366 693 510 midipoly6voicenotes 0;
#X obj 57 69 pack 0 0;
#X obj 52 122 pack 0 0 0;
#X obj -26 383 outlet;
#N canvas 4 25 506 503 makenotvals 0;
#X obj 25 54 inlet;
#X obj 176 364 outlet;
#X obj 88 113 moses 0.01;
#X obj 27 83 unpack f f;
#X obj 157 237 timer;
#X msg 154 208 bang;
#X msg 222 204 bang;
#X obj 26 364 outlet;
#X obj 96 361 outlet;
#X connect 0 0 3 0;
#X connect 2 0 6 0;
#X connect 2 1 5 0;
#X connect 2 1 8 0;
#X connect 3 0 7 0;
#X connect 3 1 2 0;
#X connect 4 0 1 0;
#X connect 5 0 4 0;
#X connect 6 0 4 1;
#X restore -220 250 pd makenotvals;
#X obj 26 383 outlet;
#X obj 79 381 outlet;
#X text -15 357 pitch vel duration;
#X obj 50 149 route 1 2 3 4 5 6;
#N canvas 4 25 506 503 makenotvals 0;
#X obj 25 54 inlet;
#X obj 176 364 outlet;
#X obj 88 113 moses 0.01;
#X obj 27 83 unpack f f;
#X obj 157 237 timer;
#X msg 154 208 bang;
#X msg 222 204 bang;
#X obj 26 364 outlet;
#X obj 96 361 outlet;
#X connect 0 0 3 0;
#X connect 2 0 6 0;
#X connect 2 1 5 0;
#X connect 2 1 8 0;
#X connect 3 0 7 0;
#X connect 3 1 2 0;
#X connect 4 0 1 0;
#X connect 5 0 4 0;
#X connect 6 0 4 1;
#X restore -93 242 pd makenotvals;
#N canvas 4 25 506 503 makenotvals 0;
#X obj 25 54 inlet;
#X obj 176 364 outlet;
#X obj 88 113 moses 0.01;
#X obj 27 83 unpack f f;
#X obj 157 237 timer;
#X msg 154 208 bang;
#X msg 222 204 bang;
#X obj 26 364 outlet;
#X obj 96 361 outlet;
#X connect 0 0 3 0;
#X connect 2 0 6 0;
#X connect 2 1 5 0;
#X connect 2 1 8 0;
#X connect 3 0 7 0;
#X connect 3 1 2 0;
#X connect 4 0 1 0;
#X connect 5 0 4 0;
#X connect 6 0 4 1;
#X restore 38 233 pd makenotvals;
#N canvas 4 25 506 503 makenotvals 0;
#X obj 25 54 inlet;
#X obj 176 364 outlet;
#X obj 88 113 moses 0.01;
#X obj 27 83 unpack f f;
#X obj 157 237 timer;
#X msg 154 208 bang;
#X msg 222 204 bang;
#X obj 26 364 outlet;
#X obj 96 361 outlet;
#X connect 0 0 3 0;
#X connect 2 0 6 0;
#X connect 2 1 5 0;
#X connect 2 1 8 0;
#X connect 3 0 7 0;
#X connect 3 1 2 0;
#X connect 4 0 1 0;
#X connect 5 0 4 0;
#X connect 6 0 4 1;
#X restore 162 220 pd makenotvals;
#N canvas 4 25 506 503 makenotvals 0;
#X obj 25 54 inlet;
#X obj 176 364 outlet;
#X obj 88 113 moses 0.01;
#X obj 27 83 unpack f f;
#X obj 157 237 timer;
#X msg 154 208 bang;
#X msg 222 204 bang;
#X obj 26 364 outlet;
#X obj 96 361 outlet;
#X connect 0 0 3 0;
#X connect 2 0 6 0;
#X connect 2 1 5 0;
#X connect 2 1 8 0;
#X connect 3 0 7 0;
#X connect 3 1 2 0;
#X connect 4 0 1 0;
#X connect 5 0 4 0;
#X connect 6 0 4 1;
#X restore 294 217 pd makenotvals;
#N canvas 4 25 506 503 makenotvals 0;
#X obj 25 54 inlet;
#X obj 176 364 outlet;
#X obj 88 113 moses 0.01;
#X obj 27 83 unpack f f;
#X obj 157 237 timer;
#X msg 154 208 bang;
#X msg 222 204 bang;
#X obj 26 364 outlet;
#X obj 96 361 outlet;
#X connect 0 0 3 0;
#X connect 2 0 6 0;
#X connect 2 1 5 0;
#X connect 2 1 8 0;
#X connect 3 0 7 0;
#X connect 3 1 2 0;
#X connect 4 0 1 0;
#X connect 5 0 4 0;
#X connect 6 0 4 1;
#X restore 415 219 pd makenotvals;
#X obj 54 95 poly 6 1;
#X obj 50 27 inlet;
#X obj 112 28 inlet;
#X text 134 90 6 voices max;
#X connect 0 0 13 0;
#X connect 1 0 7 0;
#X connect 3 0 2 0;
#X connect 3 1 4 0;
#X connect 3 2 5 0;
#X connect 7 0 3 0;
#X connect 7 1 8 0;
#X connect 7 2 9 0;
#X connect 7 3 10 0;
#X connect 7 4 11 0;
#X connect 7 5 12 0;
#X connect 8 0 2 0;
#X connect 8 1 4 0;
#X connect 8 2 5 0;
#X connect 9 0 2 0;
#X connect 9 1 4 0;
#X connect 9 2 5 0;
#X connect 10 0 2 0;
#X connect 10 1 4 0;
#X connect 10 2 5 0;
#X connect 11 0 2 0;
#X connect 11 1 4 0;
#X connect 11 2 5 0;
#X connect 12 0 2 0;
#X connect 12 1 4 0;
#X connect 12 2 5 0;
#X connect 13 0 1 0;
#X connect 13 1 1 1;
#X connect 13 2 1 2;
#X connect 14 0 0 0;
#X connect 15 0 0 1;
#X restore 210 305 pd midipoly6voicenotes;
#X obj 75 233 realtime;
#X obj 318 359 t b b f;
#X obj 261 478 t b a;
#X msg 632 363 bang;
#X msg -83 202 clear;
#X msg 440 628 print;
#X text 222 326 pitch vel duration;
#X obj 250 781 makenote;
#X obj 250 728 unpack f f f;
#X text 57 517 unique name for the receiver!;
#X msg 639 250 tempo 1;
#X obj 104 336 -;
#X obj 75 256 t f f b;
#X msg 2 244 0;
#X obj 216 839 outlet;
#X obj 316 837 outlet;
#X text 363 824 velocity (0..127);
#X text 195 809 note(0..127);
#X obj 136 179 inlet;
#X obj 385 178 inlet;
#X text 391 155 velocity (0..127);
#X text 192 190 note(0..127);
#X obj 406 213 spigot;
#X obj 222 273 spigot;
#X obj 157 114 tgl 15 0 empty empty rec 17 7 0 10 -258113 -1 -1 0 1
;
#X msg 643 212 set tempo \$1;
#X obj 610 184 t b f;
#X obj 10 154 t b b b;
#X obj 102 114 bng 15 250 50 0 empty empty st/clr 17 7 0 10 -258113
-1 -1;
#X obj 371 403 int;
#X obj 40 299 float;
#X obj 123 143 bng 15 250 50 0 empty empty empty 17 7 0 10 -4034 -1
-1;
#X msg 676 424 set;
#X obj 616 -29 inlet;
#X obj 672 -27 inlet;
#X text 679 -55 bpm;
#X msg 785 108 set \$1;
#X msg 785 134 101;
#X obj 779 80 float;
#X msg 676 505 addcomma;
#X obj 562 510 t b a;
#X msg 607 599;
#X obj 768 24 loadbang;
#X obj 204 397 int;
#X obj 206 424 max 1;
#X obj 388 428 - 1;
#X obj 378 451 max 1;
#X obj 763 156 /;
#X obj 727 102 t f b;
#X obj 143 143 tgl 15 0 empty empty loop 17 7 0 10 -262144 -1 -1 0
1;
#X obj 184 144 nbx 4 14 2 4096 0 1 empty empty empty 0 -8 0 10 -262144
-1 -1 32 256;
#X obj 104 132 hsl 123 8 0 1 0 0 empty empty empty -2 -6 0 8 -262144
-258699 -1 5719 1;
#X obj 277 78 mod;
#X obj 277 57 +;
#X obj 516 -75 inlet;
#X text 560 -75 pos offset (1/16);
#X text 588 -52 pos(1/16);
#X obj 328 74 == 0;
#X obj 369 72 moses 0.1;
#X obj 287 225 /;
#X obj 322 113 spigot;
#X obj -20 -22 inlet;
#X obj 194 114 tgl 15 0 empty empty arm 17 7 0 10 -258113 -1 -1 0 1
;
#X text 19 -23 start bang;
#X obj 198 249 t f b;
#X obj 148 4 spigot;
#X obj 108 33 t b b;
#X msg 106 62 0;
#X text 11 -66 record midi notes to qlist (and loop);
#X text 12 -51 4/2010 martin brinkmann;
#X msg 270 515 set add \$1 qlistrec2 \$2 \$3 \$4;
#X msg 258 544 add 5 qlistrec2 55 114 54;
#X msg 608 560 add2 add \$1 qlistrec2 \$2 \$3 \$4;
#X obj 254 699 r qlistrec2;
#X connect 1 0 5 0;
#X connect 2 0 1 1;
#X connect 2 1 1 2;
#X connect 2 2 4 0;
#X connect 3 0 15 0;
#X connect 4 0 46 0;
#X connect 4 1 3 1;
#X connect 4 2 32 0;
#X connect 5 0 74 0;
#X connect 5 1 73 0;
#X connect 5 1 43 0;
#X connect 6 0 0 0;
#X connect 7 0 0 0;
#X connect 8 0 0 0;
#X connect 10 0 17 0;
#X connect 10 1 18 0;
#X connect 11 0 10 0;
#X connect 11 1 10 1;
#X connect 11 2 10 2;
#X connect 13 0 0 0;
#X connect 14 0 46 1;
#X connect 15 0 33 1;
#X connect 15 1 14 0;
#X connect 15 2 33 0;
#X connect 16 0 33 1;
#X connect 21 0 17 0;
#X connect 21 0 67 0;
#X connect 22 0 18 0;
#X connect 22 0 25 0;
#X connect 25 0 2 1;
#X connect 26 0 2 0;
#X connect 27 0 25 1;
#X connect 27 0 26 1;
#X connect 28 0 13 0;
#X connect 29 0 13 0;
#X connect 29 1 28 0;
#X connect 30 0 3 0;
#X connect 30 1 16 0;
#X connect 30 2 7 0;
#X connect 30 2 35 0;
#X connect 30 2 41 0;
#X connect 31 0 30 0;
#X connect 32 0 48 0;
#X connect 33 0 14 1;
#X connect 34 0 6 0;
#X connect 35 0 44 0;
#X connect 36 0 56 0;
#X connect 37 0 41 1;
#X connect 37 0 51 0;
#X connect 39 0 40 0;
#X connect 40 0 50 1;
#X connect 41 0 39 0;
#X connect 42 0 44 0;
#X connect 43 0 42 0;
#X connect 43 1 75 0;
#X connect 44 0 0 0;
#X connect 45 0 44 0;
#X connect 45 0 13 0;
#X connect 46 0 47 0;
#X connect 47 0 1 0;
#X connect 48 0 49 0;
#X connect 49 0 1 3;
#X connect 50 0 29 0;
#X connect 51 0 50 0;
#X connect 51 1 40 0;
#X connect 52 0 63 1;
#X connect 53 0 55 1;
#X connect 53 0 62 1;
#X connect 55 0 60 0;
#X connect 55 0 62 0;
#X connect 56 0 55 0;
#X connect 57 0 56 1;
#X connect 60 0 61 0;
#X connect 61 1 63 0;
#X connect 62 0 54 0;
#X connect 63 0 34 0;
#X connect 64 0 34 0;
#X connect 65 0 68 1;
#X connect 67 0 26 0;
#X connect 67 1 68 0;
#X connect 68 0 69 0;
#X connect 69 0 70 0;
#X connect 69 1 31 0;
#X connect 70 0 65 0;
#X connect 73 0 74 0;
#X connect 74 0 0 0;
#X connect 75 0 44 0;
#X connect 76 0 11 0;
#X coords 0 -1 1 1 130 60 1 100 100;
#X restore 138 53 pd qlistrecorder2;
#N canvas 515 60 1065 838 qlistrecorder3 0;
#X obj 265 666 qlist;
#X obj 240 452 pack f f f f;
#N canvas 558 366 693 510 midipoly6voicenotes 0;
#X obj 57 69 pack 0 0;
#X obj 52 122 pack 0 0 0;
#X obj -26 383 outlet;
#N canvas 4 25 506 503 makenotvals 0;
#X obj 25 54 inlet;
#X obj 176 364 outlet;
#X obj 88 113 moses 0.01;
#X obj 27 83 unpack f f;
#X obj 157 237 timer;
#X msg 154 208 bang;
#X msg 222 204 bang;
#X obj 26 364 outlet;
#X obj 96 361 outlet;
#X connect 0 0 3 0;
#X connect 2 0 6 0;
#X connect 2 1 5 0;
#X connect 2 1 8 0;
#X connect 3 0 7 0;
#X connect 3 1 2 0;
#X connect 4 0 1 0;
#X connect 5 0 4 0;
#X connect 6 0 4 1;
#X restore -220 250 pd makenotvals;
#X obj 26 383 outlet;
#X obj 79 381 outlet;
#X text -15 357 pitch vel duration;
#X obj 50 149 route 1 2 3 4 5 6;
#N canvas 4 25 506 503 makenotvals 0;
#X obj 25 54 inlet;
#X obj 176 364 outlet;
#X obj 88 113 moses 0.01;
#X obj 27 83 unpack f f;
#X obj 157 237 timer;
#X msg 154 208 bang;
#X msg 222 204 bang;
#X obj 26 364 outlet;
#X obj 96 361 outlet;
#X connect 0 0 3 0;
#X connect 2 0 6 0;
#X connect 2 1 5 0;
#X connect 2 1 8 0;
#X connect 3 0 7 0;
#X connect 3 1 2 0;
#X connect 4 0 1 0;
#X connect 5 0 4 0;
#X connect 6 0 4 1;
#X restore -93 242 pd makenotvals;
#N canvas 4 25 506 503 makenotvals 0;
#X obj 25 54 inlet;
#X obj 176 364 outlet;
#X obj 88 113 moses 0.01;
#X obj 27 83 unpack f f;
#X obj 157 237 timer;
#X msg 154 208 bang;
#X msg 222 204 bang;
#X obj 26 364 outlet;
#X obj 96 361 outlet;
#X connect 0 0 3 0;
#X connect 2 0 6 0;
#X connect 2 1 5 0;
#X connect 2 1 8 0;
#X connect 3 0 7 0;
#X connect 3 1 2 0;
#X connect 4 0 1 0;
#X connect 5 0 4 0;
#X connect 6 0 4 1;
#X restore 38 233 pd makenotvals;
#N canvas 4 25 506 503 makenotvals 0;
#X obj 25 54 inlet;
#X obj 176 364 outlet;
#X obj 88 113 moses 0.01;
#X obj 27 83 unpack f f;
#X obj 157 237 timer;
#X msg 154 208 bang;
#X msg 222 204 bang;
#X obj 26 364 outlet;
#X obj 96 361 outlet;
#X connect 0 0 3 0;
#X connect 2 0 6 0;
#X connect 2 1 5 0;
#X connect 2 1 8 0;
#X connect 3 0 7 0;
#X connect 3 1 2 0;
#X connect 4 0 1 0;
#X connect 5 0 4 0;
#X connect 6 0 4 1;
#X restore 162 220 pd makenotvals;
#N canvas 4 25 506 503 makenotvals 0;
#X obj 25 54 inlet;
#X obj 176 364 outlet;
#X obj 88 113 moses 0.01;
#X obj 27 83 unpack f f;
#X obj 157 237 timer;
#X msg 154 208 bang;
#X msg 222 204 bang;
#X obj 26 364 outlet;
#X obj 96 361 outlet;
#X connect 0 0 3 0;
#X connect 2 0 6 0;
#X connect 2 1 5 0;
#X connect 2 1 8 0;
#X connect 3 0 7 0;
#X connect 3 1 2 0;
#X connect 4 0 1 0;
#X connect 5 0 4 0;
#X connect 6 0 4 1;
#X restore 294 217 pd makenotvals;
#N canvas 4 25 506 503 makenotvals 0;
#X obj 25 54 inlet;
#X obj 176 364 outlet;
#X obj 88 113 moses 0.01;
#X obj 27 83 unpack f f;
#X obj 157 237 timer;
#X msg 154 208 bang;
#X msg 222 204 bang;
#X obj 26 364 outlet;
#X obj 96 361 outlet;
#X connect 0 0 3 0;
#X connect 2 0 6 0;
#X connect 2 1 5 0;
#X connect 2 1 8 0;
#X connect 3 0 7 0;
#X connect 3 1 2 0;
#X connect 4 0 1 0;
#X connect 5 0 4 0;
#X connect 6 0 4 1;
#X restore 415 219 pd makenotvals;
#X obj 54 95 poly 6 1;
#X obj 50 27 inlet;
#X obj 112 28 inlet;
#X text 134 90 6 voices max;
#X connect 0 0 13 0;
#X connect 1 0 7 0;
#X connect 3 0 2 0;
#X connect 3 1 4 0;
#X connect 3 2 5 0;
#X connect 7 0 3 0;
#X connect 7 1 8 0;
#X connect 7 2 9 0;
#X connect 7 3 10 0;
#X connect 7 4 11 0;
#X connect 7 5 12 0;
#X connect 8 0 2 0;
#X connect 8 1 4 0;
#X connect 8 2 5 0;
#X connect 9 0 2 0;
#X connect 9 1 4 0;
#X connect 9 2 5 0;
#X connect 10 0 2 0;
#X connect 10 1 4 0;
#X connect 10 2 5 0;
#X connect 11 0 2 0;
#X connect 11 1 4 0;
#X connect 11 2 5 0;
#X connect 12 0 2 0;
#X connect 12 1 4 0;
#X connect 12 2 5 0;
#X connect 13 0 1 0;
#X connect 13 1 1 1;
#X connect 13 2 1 2;
#X connect 14 0 0 0;
#X connect 15 0 0 1;
#X restore 210 305 pd midipoly6voicenotes;
#X obj 75 233 realtime;
#X obj 318 359 t b b f;
#X obj 261 478 t b a;
#X msg 632 363 bang;
#X msg -83 202 clear;
#X msg 440 628 print;
#X text 222 326 pitch vel duration;
#X obj 250 781 makenote;
#X obj 250 728 unpack f f f;
#X text 57 517 unique name for the receiver!;
#X msg 639 250 tempo 1;
#X obj 104 336 -;
#X obj 75 256 t f f b;
#X msg 2 244 0;
#X obj 216 839 outlet;
#X obj 316 837 outlet;
#X text 363 824 velocity (0..127);
#X text 195 809 note(0..127);
#X obj 136 179 inlet;
#X obj 385 178 inlet;
#X text 391 155 velocity (0..127);
#X text 192 190 note(0..127);
#X obj 406 213 spigot;
#X obj 222 273 spigot;
#X obj 157 114 tgl 15 0 empty empty rec 17 7 0 10 -258113 -1 -1 0 1
;
#X msg 643 212 set tempo \$1;
#X obj 610 184 t b f;
#X obj 10 154 t b b b;
#X obj 102 114 bng 15 250 50 0 empty empty st/clr 17 7 0 10 -258113
-1 -1;
#X obj 371 403 int;
#X obj 40 299 float;
#X obj 123 143 bng 15 250 50 0 empty empty empty 17 7 0 10 -4034 -1
-1;
#X msg 676 424 set;
#X obj 616 -29 inlet;
#X obj 672 -27 inlet;
#X text 679 -55 bpm;
#X msg 785 108 set \$1;
#X msg 785 134 101;
#X obj 779 80 float;
#X msg 676 505 addcomma;
#X obj 562 510 t b a;
#X msg 607 599;
#X obj 768 24 loadbang;
#X obj 204 397 int;
#X obj 206 424 max 1;
#X obj 388 428 - 1;
#X obj 378 451 max 1;
#X obj 763 156 /;
#X obj 727 102 t f b;
#X obj 143 143 tgl 15 0 empty empty loop 17 7 0 10 -262144 -1 -1 0
1;
#X obj 184 144 nbx 4 14 2 4096 0 1 empty empty empty 0 -8 0 10 -262144
-1 -1 32 256;
#X obj 104 132 hsl 123 8 0 1 0 0 empty empty empty -2 -6 0 8 -262144
-258699 -1 5719 1;
#X obj 277 78 mod;
#X obj 277 57 +;
#X obj 516 -75 inlet;
#X text 560 -75 pos offset (1/16);
#X text 588 -52 pos(1/16);
#X obj 328 74 == 0;
#X obj 369 72 moses 0.1;
#X obj 287 225 /;
#X obj 322 113 spigot;
#X obj -20 -22 inlet;
#X obj 194 114 tgl 15 0 empty empty arm 17 7 0 10 -258113 -1 -1 0 1
;
#X text 19 -23 start bang;
#X obj 198 249 t f b;
#X obj 148 4 spigot;
#X obj 108 33 t b b;
#X msg 106 62 0;
#X text 11 -66 record midi notes to qlist (and loop);
#X text 12 -51 4/2010 martin brinkmann;
#X msg 270 515 set add \$1 qlistrec3 \$2 \$3 \$4;
#X msg 258 544 add 5 qlistrec3 55 114 54;
#X msg 608 560 add2 add \$1 qlistrec3 \$2 \$3 \$4;
#X obj 254 699 r qlistrec3;
#X connect 1 0 5 0;
#X connect 2 0 1 1;
#X connect 2 1 1 2;
#X connect 2 2 4 0;
#X connect 3 0 15 0;
#X connect 4 0 46 0;
#X connect 4 1 3 1;
#X connect 4 2 32 0;
#X connect 5 0 74 0;
#X connect 5 1 73 0;
#X connect 5 1 43 0;
#X connect 6 0 0 0;
#X connect 7 0 0 0;
#X connect 8 0 0 0;
#X connect 10 0 17 0;
#X connect 10 1 18 0;
#X connect 11 0 10 0;
#X connect 11 1 10 1;
#X connect 11 2 10 2;
#X connect 13 0 0 0;
#X connect 14 0 46 1;
#X connect 15 0 33 1;
#X connect 15 1 14 0;
#X connect 15 2 33 0;
#X connect 16 0 33 1;
#X connect 21 0 17 0;
#X connect 21 0 67 0;
#X connect 22 0 18 0;
#X connect 22 0 25 0;
#X connect 25 0 2 1;
#X connect 26 0 2 0;
#X connect 27 0 25 1;
#X connect 27 0 26 1;
#X connect 28 0 13 0;
#X connect 29 0 13 0;
#X connect 29 1 28 0;
#X connect 30 0 3 0;
#X connect 30 1 16 0;
#X connect 30 2 7 0;
#X connect 30 2 35 0;
#X connect 30 2 41 0;
#X connect 31 0 30 0;
#X connect 32 0 48 0;
#X connect 33 0 14 1;
#X connect 34 0 6 0;
#X connect 35 0 44 0;
#X connect 36 0 56 0;
#X connect 37 0 41 1;
#X connect 37 0 51 0;
#X connect 39 0 40 0;
#X connect 40 0 50 1;
#X connect 41 0 39 0;
#X connect 42 0 44 0;
#X connect 43 0 42 0;
#X connect 43 1 75 0;
#X connect 44 0 0 0;
#X connect 45 0 44 0;
#X connect 45 0 13 0;
#X connect 46 0 47 0;
#X connect 47 0 1 0;
#X connect 48 0 49 0;
#X connect 49 0 1 3;
#X connect 50 0 29 0;
#X connect 51 0 50 0;
#X connect 51 1 40 0;
#X connect 52 0 63 1;
#X connect 53 0 55 1;
#X connect 53 0 62 1;
#X connect 55 0 60 0;
#X connect 55 0 62 0;
#X connect 56 0 55 0;
#X connect 57 0 56 1;
#X connect 60 0 61 0;
#X connect 61 1 63 0;
#X connect 62 0 54 0;
#X connect 63 0 34 0;
#X connect 64 0 34 0;
#X connect 65 0 68 1;
#X connect 67 0 26 0;
#X connect 67 1 68 0;
#X connect 68 0 69 0;
#X connect 69 0 70 0;
#X connect 69 1 31 0;
#X connect 70 0 65 0;
#X connect 73 0 74 0;
#X connect 74 0 0 0;
#X connect 75 0 44 0;
#X connect 76 0 11 0;
#X coords 0 -1 1 1 130 60 1 100 100;
#X restore 272 53 pd qlistrecorder3;
#N canvas 515 60 1065 838 qlistrecorder4 0;
#X obj 265 666 qlist;
#X obj 240 452 pack f f f f;
#N canvas 558 366 693 510 midipoly6voicenotes 0;
#X obj 57 69 pack 0 0;
#X obj 52 122 pack 0 0 0;
#X obj -26 383 outlet;
#N canvas 4 25 506 503 makenotvals 0;
#X obj 25 54 inlet;
#X obj 176 364 outlet;
#X obj 88 113 moses 0.01;
#X obj 27 83 unpack f f;
#X obj 157 237 timer;
#X msg 154 208 bang;
#X msg 222 204 bang;
#X obj 26 364 outlet;
#X obj 96 361 outlet;
#X connect 0 0 3 0;
#X connect 2 0 6 0;
#X connect 2 1 5 0;
#X connect 2 1 8 0;
#X connect 3 0 7 0;
#X connect 3 1 2 0;
#X connect 4 0 1 0;
#X connect 5 0 4 0;
#X connect 6 0 4 1;
#X restore -220 250 pd makenotvals;
#X obj 26 383 outlet;
#X obj 79 381 outlet;
#X text -15 357 pitch vel duration;
#X obj 50 149 route 1 2 3 4 5 6;
#N canvas 4 25 506 503 makenotvals 0;
#X obj 25 54 inlet;
#X obj 176 364 outlet;
#X obj 88 113 moses 0.01;
#X obj 27 83 unpack f f;
#X obj 157 237 timer;
#X msg 154 208 bang;
#X msg 222 204 bang;
#X obj 26 364 outlet;
#X obj 96 361 outlet;
#X connect 0 0 3 0;
#X connect 2 0 6 0;
#X connect 2 1 5 0;
#X connect 2 1 8 0;
#X connect 3 0 7 0;
#X connect 3 1 2 0;
#X connect 4 0 1 0;
#X connect 5 0 4 0;
#X connect 6 0 4 1;
#X restore -93 242 pd makenotvals;
#N canvas 4 25 506 503 makenotvals 0;
#X obj 25 54 inlet;
#X obj 176 364 outlet;
#X obj 88 113 moses 0.01;
#X obj 27 83 unpack f f;
#X obj 157 237 timer;
#X msg 154 208 bang;
#X msg 222 204 bang;
#X obj 26 364 outlet;
#X obj 96 361 outlet;
#X connect 0 0 3 0;
#X connect 2 0 6 0;
#X connect 2 1 5 0;
#X connect 2 1 8 0;
#X connect 3 0 7 0;
#X connect 3 1 2 0;
#X connect 4 0 1 0;
#X connect 5 0 4 0;
#X connect 6 0 4 1;
#X restore 38 233 pd makenotvals;
#N canvas 4 25 506 503 makenotvals 0;
#X obj 25 54 inlet;
#X obj 176 364 outlet;
#X obj 88 113 moses 0.01;
#X obj 27 83 unpack f f;
#X obj 157 237 timer;
#X msg 154 208 bang;
#X msg 222 204 bang;
#X obj 26 364 outlet;
#X obj 96 361 outlet;
#X connect 0 0 3 0;
#X connect 2 0 6 0;
#X connect 2 1 5 0;
#X connect 2 1 8 0;
#X connect 3 0 7 0;
#X connect 3 1 2 0;
#X connect 4 0 1 0;
#X connect 5 0 4 0;
#X connect 6 0 4 1;
#X restore 162 220 pd makenotvals;
#N canvas 4 25 506 503 makenotvals 0;
#X obj 25 54 inlet;
#X obj 176 364 outlet;
#X obj 88 113 moses 0.01;
#X obj 27 83 unpack f f;
#X obj 157 237 timer;
#X msg 154 208 bang;
#X msg 222 204 bang;
#X obj 26 364 outlet;
#X obj 96 361 outlet;
#X connect 0 0 3 0;
#X connect 2 0 6 0;
#X connect 2 1 5 0;
#X connect 2 1 8 0;
#X connect 3 0 7 0;
#X connect 3 1 2 0;
#X connect 4 0 1 0;
#X connect 5 0 4 0;
#X connect 6 0 4 1;
#X restore 294 217 pd makenotvals;
#N canvas 4 25 506 503 makenotvals 0;
#X obj 25 54 inlet;
#X obj 176 364 outlet;
#X obj 88 113 moses 0.01;
#X obj 27 83 unpack f f;
#X obj 157 237 timer;
#X msg 154 208 bang;
#X msg 222 204 bang;
#X obj 26 364 outlet;
#X obj 96 361 outlet;
#X connect 0 0 3 0;
#X connect 2 0 6 0;
#X connect 2 1 5 0;
#X connect 2 1 8 0;
#X connect 3 0 7 0;
#X connect 3 1 2 0;
#X connect 4 0 1 0;
#X connect 5 0 4 0;
#X connect 6 0 4 1;
#X restore 415 219 pd makenotvals;
#X obj 54 95 poly 6 1;
#X obj 50 27 inlet;
#X obj 112 28 inlet;
#X text 134 90 6 voices max;
#X connect 0 0 13 0;
#X connect 1 0 7 0;
#X connect 3 0 2 0;
#X connect 3 1 4 0;
#X connect 3 2 5 0;
#X connect 7 0 3 0;
#X connect 7 1 8 0;
#X connect 7 2 9 0;
#X connect 7 3 10 0;
#X connect 7 4 11 0;
#X connect 7 5 12 0;
#X connect 8 0 2 0;
#X connect 8 1 4 0;
#X connect 8 2 5 0;
#X connect 9 0 2 0;
#X connect 9 1 4 0;
#X connect 9 2 5 0;
#X connect 10 0 2 0;
#X connect 10 1 4 0;
#X connect 10 2 5 0;
#X connect 11 0 2 0;
#X connect 11 1 4 0;
#X connect 11 2 5 0;
#X connect 12 0 2 0;
#X connect 12 1 4 0;
#X connect 12 2 5 0;
#X connect 13 0 1 0;
#X connect 13 1 1 1;
#X connect 13 2 1 2;
#X connect 14 0 0 0;
#X connect 15 0 0 1;
#X restore 210 305 pd midipoly6voicenotes;
#X obj 75 233 realtime;
#X obj 318 359 t b b f;
#X obj 261 478 t b a;
#X msg 632 363 bang;
#X msg -83 202 clear;
#X msg 440 628 print;
#X text 222 326 pitch vel duration;
#X obj 250 781 makenote;
#X obj 250 728 unpack f f f;
#X text 57 517 unique name for the receiver!;
#X msg 639 250 tempo 1;
#X obj 104 336 -;
#X obj 75 256 t f f b;
#X msg 2 244 0;
#X obj 216 839 outlet;
#X obj 316 837 outlet;
#X text 363 824 velocity (0..127);
#X text 195 809 note(0..127);
#X obj 136 179 inlet;
#X obj 385 178 inlet;
#X text 391 155 velocity (0..127);
#X text 192 190 note(0..127);
#X obj 406 213 spigot;
#X obj 222 273 spigot;
#X obj 157 114 tgl 15 0 empty empty rec 17 7 0 10 -258113 -1 -1 0 1
;
#X msg 643 212 set tempo \$1;
#X obj 610 184 t b f;
#X obj 10 154 t b b b;
#X obj 102 114 bng 15 250 50 0 empty empty st/clr 17 7 0 10 -258113
-1 -1;
#X obj 371 403 int;
#X obj 40 299 float;
#X obj 123 143 bng 15 250 50 0 empty empty empty 17 7 0 10 -4034 -1
-1;
#X msg 676 424 set;
#X obj 616 -29 inlet;
#X obj 672 -27 inlet;
#X text 679 -55 bpm;
#X msg 785 108 set \$1;
#X msg 785 134 101;
#X obj 779 80 float;
#X msg 676 505 addcomma;
#X obj 562 510 t b a;
#X msg 607 599;
#X obj 768 24 loadbang;
#X obj 204 397 int;
#X obj 206 424 max 1;
#X obj 388 428 - 1;
#X obj 378 451 max 1;
#X obj 763 156 /;
#X obj 727 102 t f b;
#X obj 143 143 tgl 15 0 empty empty loop 17 7 0 10 -262144 -1 -1 0
1;
#X obj 184 144 nbx 4 14 2 4096 0 1 empty empty empty 0 -8 0 10 -262144
-1 -1 32 256;
#X obj 104 132 hsl 123 8 0 1 0 0 empty empty empty -2 -6 0 8 -262144
-258699 -1 5719 1;
#X obj 277 78 mod;
#X obj 277 57 +;
#X obj 516 -75 inlet;
#X text 560 -75 pos offset (1/16);
#X text 588 -52 pos(1/16);
#X obj 328 74 == 0;
#X obj 369 72 moses 0.1;
#X obj 287 225 /;
#X obj 322 113 spigot;
#X obj -20 -22 inlet;
#X obj 194 114 tgl 15 0 empty empty arm 17 7 0 10 -258113 -1 -1 0 1
;
#X text 19 -23 start bang;
#X obj 198 249 t f b;
#X obj 148 4 spigot;
#X obj 108 33 t b b;
#X msg 106 62 0;
#X text 11 -66 record midi notes to qlist (and loop);
#X text 12 -51 4/2010 martin brinkmann;
#X msg 270 515 set add \$1 qlistrec4 \$2 \$3 \$4;
#X msg 258 544 add 5 qlistrec4 55 114 54;
#X msg 608 560 add2 add \$1 qlistrec4 \$2 \$3 \$4;
#X obj 254 699 r qlistrec4;
#X connect 1 0 5 0;
#X connect 2 0 1 1;
#X connect 2 1 1 2;
#X connect 2 2 4 0;
#X connect 3 0 15 0;
#X connect 4 0 46 0;
#X connect 4 1 3 1;
#X connect 4 2 32 0;
#X connect 5 0 74 0;
#X connect 5 1 73 0;
#X connect 5 1 43 0;
#X connect 6 0 0 0;
#X connect 7 0 0 0;
#X connect 8 0 0 0;
#X connect 10 0 17 0;
#X connect 10 1 18 0;
#X connect 11 0 10 0;
#X connect 11 1 10 1;
#X connect 11 2 10 2;
#X connect 13 0 0 0;
#X connect 14 0 46 1;
#X connect 15 0 33 1;
#X connect 15 1 14 0;
#X connect 15 2 33 0;
#X connect 16 0 33 1;
#X connect 21 0 17 0;
#X connect 21 0 67 0;
#X connect 22 0 18 0;
#X connect 22 0 25 0;
#X connect 25 0 2 1;
#X connect 26 0 2 0;
#X connect 27 0 25 1;
#X connect 27 0 26 1;
#X connect 28 0 13 0;
#X connect 29 0 13 0;
#X connect 29 1 28 0;
#X connect 30 0 3 0;
#X connect 30 1 16 0;
#X connect 30 2 7 0;
#X connect 30 2 35 0;
#X connect 30 2 41 0;
#X connect 31 0 30 0;
#X connect 32 0 48 0;
#X connect 33 0 14 1;
#X connect 34 0 6 0;
#X connect 35 0 44 0;
#X connect 36 0 56 0;
#X connect 37 0 41 1;
#X connect 37 0 51 0;
#X connect 39 0 40 0;
#X connect 40 0 50 1;
#X connect 41 0 39 0;
#X connect 42 0 44 0;
#X connect 43 0 42 0;
#X connect 43 1 75 0;
#X connect 44 0 0 0;
#X connect 45 0 44 0;
#X connect 45 0 13 0;
#X connect 46 0 47 0;
#X connect 47 0 1 0;
#X connect 48 0 49 0;
#X connect 49 0 1 3;
#X connect 50 0 29 0;
#X connect 51 0 50 0;
#X connect 51 1 40 0;
#X connect 52 0 63 1;
#X connect 53 0 55 1;
#X connect 53 0 62 1;
#X connect 55 0 60 0;
#X connect 55 0 62 0;
#X connect 56 0 55 0;
#X connect 57 0 56 1;
#X connect 60 0 61 0;
#X connect 61 1 63 0;
#X connect 62 0 54 0;
#X connect 63 0 34 0;
#X connect 64 0 34 0;
#X connect 65 0 68 1;
#X connect 67 0 26 0;
#X connect 67 1 68 0;
#X connect 68 0 69 0;
#X connect 69 0 70 0;
#X connect 69 1 31 0;
#X connect 70 0 65 0;
#X connect 73 0 74 0;
#X connect 74 0 0 0;
#X connect 75 0 44 0;
#X connect 76 0 11 0;
#X coords 0 -1 1 1 130 60 1 100 100;
#X restore 407 53 pd qlistrecorder4;
#X obj 3 -363 inlet bang;
#X obj 88 -368 inlet NoteVel;
#X obj 28 -260 route 0 1 2 3;
#X obj 42 20 hradio 15 1 0 4 empty empty empty 0 -8 0 10 -262144 -1
-1 0;
#X obj 30 -286 prepend;
#X obj 180 -376 inlet CtlValue;
#X obj 87 -346 prepend Note;
#X obj 180 -347 prepend Ctl;
#X obj 5 -337 prepend Bang;
#X obj 20 -199 route Bang Note Ctl;
#X obj 148 -198 route Bang Note Ctl;
#X obj 279 -198 route Bang Note Ctl;
#X obj 415 -200 route Bang Note Ctl;
#X obj 59 -175 unpack f f;
#X obj 189 -173 unpack f f;
#X obj 324 -171 unpack f f;
#X obj 459 -172 unpack f f;
#X text 110 19 Select recorder;
#X obj 23 137 outlet;
#X obj 33 147 outlet;
#X obj 150 133 outlet;
#X obj 160 143 outlet;
#X obj 287 137 outlet;
#X obj 297 147 outlet;
#X obj 427 134 outlet;
#X obj 437 144 outlet;
#X connect 0 0 23 0;
#X connect 0 1 24 0;
#X connect 1 0 0 4;
#X connect 1 0 2 4;
#X connect 1 0 3 4;
#X connect 1 0 4 4;
#X connect 1 2 0 5;
#X connect 1 2 2 5;
#X connect 1 2 3 5;
#X connect 1 2 4 5;
#X connect 2 0 25 0;
#X connect 2 1 26 0;
#X connect 3 0 27 0;
#X connect 3 1 28 0;
#X connect 4 0 29 0;
#X connect 4 1 29 0;
#X connect 5 0 13 0;
#X connect 6 0 11 0;
#X connect 7 0 14 0;
#X connect 7 1 15 0;
#X connect 7 2 16 0;
#X connect 7 3 17 0;
#X connect 8 0 9 1;
#X connect 9 0 7 0;
#X connect 10 0 12 0;
#X connect 11 0 9 0;
#X connect 12 0 9 0;
#X connect 13 0 9 0;
#X connect 14 0 0 0;
#X connect 14 1 18 0;
#X connect 14 2 0 3;
#X connect 15 0 2 0;
#X connect 15 1 19 0;
#X connect 15 2 2 3;
#X connect 16 0 3 0;
#X connect 16 1 20 0;
#X connect 16 2 3 3;
#X connect 17 0 4 0;
#X connect 17 1 21 0;
#X connect 17 2 4 3;
#X connect 18 0 0 1;
#X connect 18 1 0 2;
#X connect 19 0 2 1;
#X connect 19 1 2 2;
#X connect 20 0 3 1;
#X connect 20 1 3 2;
#X connect 21 0 4 1;
#X connect 21 1 4 2;
#X coords 0 1 100 -1 540 120 1 0 0;
#X restore 100 20 graph;
#X obj 100 1 bng 15 250 50 0 empty empty empty 17 7 0 10 -262144 -1
-1;
#X obj 366 -20 notein;
#X obj 366 0 pack f f;
#X obj 633 -8 ctlin 1;
#X connect 1 0 0 0;
#X connect 2 0 3 0;
#X connect 2 1 3 1;
#X connect 3 0 0 1;
#X connect 4 0 0 2;
