#N canvas 663 363 636 618 10;
#X obj 19 -50 cnv 15 600 600 empty empty http://algorithmiccomposer.blogspot.com
20 12 0 14 -261234 -66577 0;
#X text 372 -45 Klangfarbenmelodie;
#X obj 286 185 pddp/pddplink http://algorithmiccomposer.blogspot.com
-text http://algorithmiccomposer.blogspot.com;
#X obj 364 41 tgl 15 0 empty empty empty 0 -6 0 10 -262144 -1 -1 0
1;
#X obj 364 71 s on;
#X obj 436 71 s speed;
#X obj 508 70 s scale;
#N canvas 1282 272 611 610 kfb 0;
#X obj -44 -15 cnv 15 600 600 empty empty http://algorithmiccomposer.blogspot.com
20 12 0 14 -261234 -66577 0;
#X obj 238 170 random 10000;
#X obj 49 463 pddp/pddplink http://algorithmiccomposer.blogspot.com
-text http://algorithmiccomposer.blogspot.com;
#X obj 238 118 r speed;
#X obj 139 130 r on;
#X obj 139 162 tgl 15 0 empty empty empty 17 7 0 10 -262144 -1 -1 0
1;
#X obj 139 363 makenote 100 1000;
#X obj 139 186 metro 1000;
#X obj 139 399 noteout;
#X obj 68 398 pgmout;
#X obj 68 362 random 100;
#X obj 290 410 line;
#X obj 281 339 / 2;
#X obj 310 365 pipe;
#X msg 310 386 127 \, 0 \$1;
#X msg 243 386 0 \, 127 \$1;
#X obj 290 465 ctlout 7;
#X obj 281 315 f;
#X floatatom 238 210 5 0 0 0 - - -;
#X obj 139 213 random 6;
#X obj 139 338 + 60;
#X obj 139 312 coll scales;
#C restore;
#X obj 139 264 pack;
#X msg 139 288 nth \$2 \$1;
#X obj 139 237 + 1;
#X obj 61 234 r scale;
#X obj 238 144 t b f;
#X obj 209 410 loadbang;
#X msg 209 432 1;
#X connect 1 0 18 0;
#X connect 3 0 26 0;
#X connect 4 0 5 0;
#X connect 5 0 7 0;
#X connect 6 0 8 0;
#X connect 6 1 8 1;
#X connect 7 0 10 0;
#X connect 7 0 17 0;
#X connect 7 0 19 0;
#X connect 10 0 9 0;
#X connect 11 0 16 0;
#X connect 12 0 15 0;
#X connect 12 0 13 1;
#X connect 12 0 13 0;
#X connect 13 0 14 0;
#X connect 14 0 11 0;
#X connect 15 0 11 0;
#X connect 17 0 12 0;
#X connect 18 0 17 1;
#X connect 18 0 7 1;
#X connect 18 0 6 2;
#X connect 19 0 24 0;
#X connect 20 0 6 0;
#X connect 21 0 20 0;
#X connect 22 0 23 0;
#X connect 23 0 21 0;
#X connect 24 0 22 0;
#X connect 25 0 22 1;
#X connect 26 0 1 0;
#X connect 26 1 1 1;
#X connect 27 0 28 0;
#X connect 28 0 16 2;
#X connect 28 0 8 2;
#X connect 28 0 9 1;
#X restore 157 5 pd kfb;
#X floatatom 436 43 5 0 0 0 - - -;
#X floatatom 508 41 5 0 0 0 - - -;
#X obj 166 180 coll scales;
#C restore;
#X obj 166 102 loadbang;
#X msg 166 127 nstore 0 majorScale 0 2 4 5 7 9 11 \, nstore 1 harmonicMinor
0 2 3 5 7 8 11 \, nstore 2 lydianDominant 0 2 4 6 7 9 10 \, nstore
3 augmented 0 1 3 4 7 8 11;
#N canvas 1282 272 611 610 kfb 0;
#X obj -44 -15 cnv 15 600 600 empty empty http://algorithmiccomposer.blogspot.com
20 12 0 14 -261234 -66577 0;
#X obj 238 170 random 10000;
#X obj 49 463 pddp/pddplink http://algorithmiccomposer.blogspot.com
-text http://algorithmiccomposer.blogspot.com;
#X obj 238 118 r speed;
#X obj 139 130 r on;
#X obj 139 162 tgl 15 0 empty empty empty 17 7 0 10 -262144 -1 -1 0
1;
#X obj 139 363 makenote 100 1000;
#X obj 139 186 metro 1000;
#X obj 139 399 noteout;
#X obj 68 398 pgmout;
#X obj 68 362 random 100;
#X obj 290 410 line;
#X obj 281 339 / 2;
#X obj 310 365 pipe;
#X msg 310 386 127 \, 0 \$1;
#X msg 243 386 0 \, 127 \$1;
#X obj 290 465 ctlout 7;
#X obj 281 315 f;
#X floatatom 238 210 5 0 0 0 - - -;
#X obj 139 213 random 6;
#X obj 139 338 + 60;
#X obj 139 312 coll scales;
#C restore;
#X obj 139 264 pack;
#X msg 139 288 nth \$2 \$1;
#X obj 139 237 + 1;
#X obj 61 234 r scale;
#X obj 238 144 t b f;
#X obj 209 410 loadbang;
#X msg 209 432 5;
#X connect 1 0 18 0;
#X connect 3 0 26 0;
#X connect 4 0 5 0;
#X connect 5 0 7 0;
#X connect 6 0 8 0;
#X connect 6 1 8 1;
#X connect 7 0 10 0;
#X connect 7 0 17 0;
#X connect 7 0 19 0;
#X connect 10 0 9 0;
#X connect 11 0 16 0;
#X connect 12 0 15 0;
#X connect 12 0 13 1;
#X connect 12 0 13 0;
#X connect 13 0 14 0;
#X connect 14 0 11 0;
#X connect 15 0 11 0;
#X connect 17 0 12 0;
#X connect 18 0 17 1;
#X connect 18 0 7 1;
#X connect 18 0 6 2;
#X connect 19 0 24 0;
#X connect 20 0 6 0;
#X connect 21 0 20 0;
#X connect 22 0 23 0;
#X connect 23 0 21 0;
#X connect 24 0 22 0;
#X connect 25 0 22 1;
#X connect 26 0 1 0;
#X connect 26 1 1 1;
#X connect 27 0 28 0;
#X connect 28 0 16 2;
#X connect 28 0 8 2;
#X connect 28 0 9 1;
#X restore 159 28 pd kfb;
#N canvas 1282 272 611 610 kfb 0;
#X obj -44 -15 cnv 15 600 600 empty empty http://algorithmiccomposer.blogspot.com
20 12 0 14 -261234 -66577 0;
#X obj 238 170 random 10000;
#X obj 49 463 pddp/pddplink http://algorithmiccomposer.blogspot.com
-text http://algorithmiccomposer.blogspot.com;
#X obj 238 118 r speed;
#X obj 139 130 r on;
#X obj 139 162 tgl 15 0 empty empty empty 17 7 0 10 -262144 -1 -1 0
1;
#X obj 139 363 makenote 100 1000;
#X obj 139 186 metro 1000;
#X obj 139 399 noteout;
#X obj 68 398 pgmout;
#X obj 68 362 random 100;
#X obj 290 410 line;
#X obj 281 339 / 2;
#X obj 310 365 pipe;
#X msg 310 386 127 \, 0 \$1;
#X msg 243 386 0 \, 127 \$1;
#X obj 290 465 ctlout 7;
#X obj 281 315 f;
#X floatatom 238 210 5 0 0 0 - - -;
#X obj 139 213 random 6;
#X obj 139 338 + 60;
#X obj 139 312 coll scales;
#C restore;
#X obj 139 264 pack;
#X msg 139 288 nth \$2 \$1;
#X obj 139 237 + 1;
#X obj 61 234 r scale;
#X obj 238 144 t b f;
#X obj 209 410 loadbang;
#X msg 209 432 9;
#X connect 1 0 18 0;
#X connect 3 0 26 0;
#X connect 4 0 5 0;
#X connect 5 0 7 0;
#X connect 6 0 8 0;
#X connect 6 1 8 1;
#X connect 7 0 10 0;
#X connect 7 0 17 0;
#X connect 7 0 19 0;
#X connect 10 0 9 0;
#X connect 11 0 16 0;
#X connect 12 0 15 0;
#X connect 12 0 13 1;
#X connect 12 0 13 0;
#X connect 13 0 14 0;
#X connect 14 0 11 0;
#X connect 15 0 11 0;
#X connect 17 0 12 0;
#X connect 18 0 17 1;
#X connect 18 0 7 1;
#X connect 18 0 6 2;
#X connect 19 0 24 0;
#X connect 20 0 6 0;
#X connect 21 0 20 0;
#X connect 22 0 23 0;
#X connect 23 0 21 0;
#X connect 24 0 22 0;
#X connect 25 0 22 1;
#X connect 26 0 1 0;
#X connect 26 1 1 1;
#X connect 27 0 28 0;
#X connect 28 0 16 2;
#X connect 28 0 8 2;
#X connect 28 0 9 1;
#X restore 161 51 pd kfb;
#N canvas 1282 272 611 610 kfb 0;
#X obj -44 -15 cnv 15 600 600 empty empty http://algorithmiccomposer.blogspot.com
20 12 0 14 -261234 -66577 0;
#X obj 238 170 random 10000;
#X obj 49 463 pddp/pddplink http://algorithmiccomposer.blogspot.com
-text http://algorithmiccomposer.blogspot.com;
#X obj 238 118 r speed;
#X obj 139 130 r on;
#X obj 139 162 tgl 15 0 empty empty empty 17 7 0 10 -262144 -1 -1 0
1;
#X obj 139 363 makenote 100 1000;
#X obj 139 186 metro 1000;
#X obj 139 399 noteout;
#X obj 68 398 pgmout;
#X obj 68 362 random 100;
#X obj 290 410 line;
#X obj 281 339 / 2;
#X obj 310 365 pipe;
#X msg 310 386 127 \, 0 \$1;
#X msg 243 386 0 \, 127 \$1;
#X obj 290 465 ctlout 7;
#X obj 281 315 f;
#X floatatom 238 210 5 0 0 0 - - -;
#X obj 139 213 random 6;
#X obj 139 338 + 60;
#X obj 139 312 coll scales;
#C restore;
#X obj 139 264 pack;
#X msg 139 288 nth \$2 \$1;
#X obj 139 237 + 1;
#X obj 61 234 r scale;
#X obj 238 144 t b f;
#X obj 209 410 loadbang;
#X msg 209 432 13;
#X connect 1 0 18 0;
#X connect 3 0 26 0;
#X connect 4 0 5 0;
#X connect 5 0 7 0;
#X connect 6 0 8 0;
#X connect 6 1 8 1;
#X connect 7 0 10 0;
#X connect 7 0 17 0;
#X connect 7 0 19 0;
#X connect 10 0 9 0;
#X connect 11 0 16 0;
#X connect 12 0 15 0;
#X connect 12 0 13 1;
#X connect 12 0 13 0;
#X connect 13 0 14 0;
#X connect 14 0 11 0;
#X connect 15 0 11 0;
#X connect 17 0 12 0;
#X connect 18 0 17 1;
#X connect 18 0 7 1;
#X connect 18 0 6 2;
#X connect 19 0 24 0;
#X connect 20 0 6 0;
#X connect 21 0 20 0;
#X connect 22 0 23 0;
#X connect 23 0 21 0;
#X connect 24 0 22 0;
#X connect 25 0 22 1;
#X connect 26 0 1 0;
#X connect 26 1 1 1;
#X connect 27 0 28 0;
#X connect 28 0 16 2;
#X connect 28 0 8 2;
#X connect 28 0 9 1;
#X restore 162 73 pd kfb;
#N canvas 1282 272 611 610 kfb 0;
#X obj -44 -15 cnv 15 600 600 empty empty http://algorithmiccomposer.blogspot.com
20 12 0 14 -261234 -66577 0;
#X obj 238 170 random 10000;
#X obj 49 463 pddp/pddplink http://algorithmiccomposer.blogspot.com
-text http://algorithmiccomposer.blogspot.com;
#X obj 238 118 r speed;
#X obj 139 130 r on;
#X obj 139 162 tgl 15 0 empty empty empty 17 7 0 10 -262144 -1 -1 0
1;
#X obj 139 363 makenote 100 1000;
#X obj 139 186 metro 1000;
#X obj 139 399 noteout;
#X obj 68 398 pgmout;
#X obj 68 362 random 100;
#X obj 290 410 line;
#X obj 281 339 / 2;
#X obj 310 365 pipe;
#X msg 310 386 127 \, 0 \$1;
#X msg 243 386 0 \, 127 \$1;
#X obj 290 465 ctlout 7;
#X obj 281 315 f;
#X floatatom 238 210 5 0 0 0 - - -;
#X obj 139 213 random 6;
#X obj 139 338 + 60;
#X obj 139 312 coll scales;
#C restore;
#X obj 139 264 pack;
#X msg 139 288 nth \$2 \$1;
#X obj 139 237 + 1;
#X obj 61 234 r scale;
#X obj 238 144 t b f;
#X obj 209 410 loadbang;
#X msg 209 432 2;
#X connect 1 0 18 0;
#X connect 3 0 26 0;
#X connect 4 0 5 0;
#X connect 5 0 7 0;
#X connect 6 0 8 0;
#X connect 6 1 8 1;
#X connect 7 0 10 0;
#X connect 7 0 17 0;
#X connect 7 0 19 0;
#X connect 10 0 9 0;
#X connect 11 0 16 0;
#X connect 12 0 15 0;
#X connect 12 0 13 1;
#X connect 12 0 13 0;
#X connect 13 0 14 0;
#X connect 14 0 11 0;
#X connect 15 0 11 0;
#X connect 17 0 12 0;
#X connect 18 0 17 1;
#X connect 18 0 7 1;
#X connect 18 0 6 2;
#X connect 19 0 24 0;
#X connect 20 0 6 0;
#X connect 21 0 20 0;
#X connect 22 0 23 0;
#X connect 23 0 21 0;
#X connect 24 0 22 0;
#X connect 25 0 22 1;
#X connect 26 0 1 0;
#X connect 26 1 1 1;
#X connect 27 0 28 0;
#X connect 28 0 16 2;
#X connect 28 0 8 2;
#X connect 28 0 9 1;
#X restore 204 5 pd kfb;
#N canvas 1282 272 611 610 kfb 0;
#X obj -44 -15 cnv 15 600 600 empty empty http://algorithmiccomposer.blogspot.com
20 12 0 14 -261234 -66577 0;
#X obj 238 170 random 10000;
#X obj 49 463 pddp/pddplink http://algorithmiccomposer.blogspot.com
-text http://algorithmiccomposer.blogspot.com;
#X obj 238 118 r speed;
#X obj 139 130 r on;
#X obj 139 162 tgl 15 0 empty empty empty 17 7 0 10 -262144 -1 -1 0
1;
#X obj 139 363 makenote 100 1000;
#X obj 139 186 metro 1000;
#X obj 139 399 noteout;
#X obj 68 398 pgmout;
#X obj 68 362 random 100;
#X obj 290 410 line;
#X obj 281 339 / 2;
#X obj 310 365 pipe;
#X msg 310 386 127 \, 0 \$1;
#X msg 243 386 0 \, 127 \$1;
#X obj 290 465 ctlout 7;
#X obj 281 315 f;
#X floatatom 238 210 5 0 0 0 - - -;
#X obj 139 213 random 6;
#X obj 139 338 + 60;
#X obj 139 312 coll scales;
#C restore;
#X obj 139 264 pack;
#X msg 139 288 nth \$2 \$1;
#X obj 139 237 + 1;
#X obj 61 234 r scale;
#X obj 238 144 t b f;
#X obj 209 410 loadbang;
#X msg 209 432 6;
#X connect 1 0 18 0;
#X connect 3 0 26 0;
#X connect 4 0 5 0;
#X connect 5 0 7 0;
#X connect 6 0 8 0;
#X connect 6 1 8 1;
#X connect 7 0 10 0;
#X connect 7 0 17 0;
#X connect 7 0 19 0;
#X connect 10 0 9 0;
#X connect 11 0 16 0;
#X connect 12 0 15 0;
#X connect 12 0 13 1;
#X connect 12 0 13 0;
#X connect 13 0 14 0;
#X connect 14 0 11 0;
#X connect 15 0 11 0;
#X connect 17 0 12 0;
#X connect 18 0 17 1;
#X connect 18 0 7 1;
#X connect 18 0 6 2;
#X connect 19 0 24 0;
#X connect 20 0 6 0;
#X connect 21 0 20 0;
#X connect 22 0 23 0;
#X connect 23 0 21 0;
#X connect 24 0 22 0;
#X connect 25 0 22 1;
#X connect 26 0 1 0;
#X connect 26 1 1 1;
#X connect 27 0 28 0;
#X connect 28 0 16 2;
#X connect 28 0 8 2;
#X connect 28 0 9 1;
#X restore 206 28 pd kfb;
#N canvas 1282 272 611 610 kfb 0;
#X obj -44 -15 cnv 15 600 600 empty empty http://algorithmiccomposer.blogspot.com
20 12 0 14 -261234 -66577 0;
#X obj 238 170 random 10000;
#X obj 49 463 pddp/pddplink http://algorithmiccomposer.blogspot.com
-text http://algorithmiccomposer.blogspot.com;
#X obj 238 118 r speed;
#X obj 139 130 r on;
#X obj 139 162 tgl 15 0 empty empty empty 17 7 0 10 -262144 -1 -1 0
1;
#X obj 139 363 makenote 100 1000;
#X obj 139 186 metro 1000;
#X obj 139 399 noteout;
#X obj 68 398 pgmout;
#X obj 68 362 random 100;
#X obj 290 410 line;
#X obj 281 339 / 2;
#X obj 310 365 pipe;
#X msg 310 386 127 \, 0 \$1;
#X msg 243 386 0 \, 127 \$1;
#X obj 290 465 ctlout 7;
#X obj 281 315 f;
#X floatatom 238 210 5 0 0 0 - - -;
#X obj 139 213 random 6;
#X obj 139 338 + 60;
#X obj 139 312 coll scales;
#C restore;
#X obj 139 264 pack;
#X msg 139 288 nth \$2 \$1;
#X obj 139 237 + 1;
#X obj 61 234 r scale;
#X obj 238 144 t b f;
#X obj 209 410 loadbang;
#X msg 209 432 10;
#X connect 1 0 18 0;
#X connect 3 0 26 0;
#X connect 4 0 5 0;
#X connect 5 0 7 0;
#X connect 6 0 8 0;
#X connect 6 1 8 1;
#X connect 7 0 10 0;
#X connect 7 0 17 0;
#X connect 7 0 19 0;
#X connect 10 0 9 0;
#X connect 11 0 16 0;
#X connect 12 0 15 0;
#X connect 12 0 13 1;
#X connect 12 0 13 0;
#X connect 13 0 14 0;
#X connect 14 0 11 0;
#X connect 15 0 11 0;
#X connect 17 0 12 0;
#X connect 18 0 17 1;
#X connect 18 0 7 1;
#X connect 18 0 6 2;
#X connect 19 0 24 0;
#X connect 20 0 6 0;
#X connect 21 0 20 0;
#X connect 22 0 23 0;
#X connect 23 0 21 0;
#X connect 24 0 22 0;
#X connect 25 0 22 1;
#X connect 26 0 1 0;
#X connect 26 1 1 1;
#X connect 27 0 28 0;
#X connect 28 0 16 2;
#X connect 28 0 8 2;
#X connect 28 0 9 1;
#X restore 208 51 pd kfb;
#N canvas 1282 272 611 610 kfb 0;
#X obj -44 -15 cnv 15 600 600 empty empty http://algorithmiccomposer.blogspot.com
20 12 0 14 -261234 -66577 0;
#X obj 238 170 random 10000;
#X obj 49 463 pddp/pddplink http://algorithmiccomposer.blogspot.com
-text http://algorithmiccomposer.blogspot.com;
#X obj 238 118 r speed;
#X obj 139 130 r on;
#X obj 139 162 tgl 15 0 empty empty empty 17 7 0 10 -262144 -1 -1 0
1;
#X obj 139 363 makenote 100 1000;
#X obj 139 186 metro 1000;
#X obj 139 399 noteout;
#X obj 68 398 pgmout;
#X obj 68 362 random 100;
#X obj 290 410 line;
#X obj 281 339 / 2;
#X obj 310 365 pipe;
#X msg 310 386 127 \, 0 \$1;
#X msg 243 386 0 \, 127 \$1;
#X obj 290 465 ctlout 7;
#X obj 281 315 f;
#X floatatom 238 210 5 0 0 0 - - -;
#X obj 139 213 random 6;
#X obj 139 338 + 60;
#X obj 139 312 coll scales;
#C restore;
#X obj 139 264 pack;
#X msg 139 288 nth \$2 \$1;
#X obj 139 237 + 1;
#X obj 61 234 r scale;
#X obj 238 144 t b f;
#X obj 209 410 loadbang;
#X msg 209 432 14;
#X connect 1 0 18 0;
#X connect 3 0 26 0;
#X connect 4 0 5 0;
#X connect 5 0 7 0;
#X connect 6 0 8 0;
#X connect 6 1 8 1;
#X connect 7 0 10 0;
#X connect 7 0 17 0;
#X connect 7 0 19 0;
#X connect 10 0 9 0;
#X connect 11 0 16 0;
#X connect 12 0 15 0;
#X connect 12 0 13 1;
#X connect 12 0 13 0;
#X connect 13 0 14 0;
#X connect 14 0 11 0;
#X connect 15 0 11 0;
#X connect 17 0 12 0;
#X connect 18 0 17 1;
#X connect 18 0 7 1;
#X connect 18 0 6 2;
#X connect 19 0 24 0;
#X connect 20 0 6 0;
#X connect 21 0 20 0;
#X connect 22 0 23 0;
#X connect 23 0 21 0;
#X connect 24 0 22 0;
#X connect 25 0 22 1;
#X connect 26 0 1 0;
#X connect 26 1 1 1;
#X connect 27 0 28 0;
#X connect 28 0 16 2;
#X connect 28 0 8 2;
#X connect 28 0 9 1;
#X restore 209 73 pd kfb;
#N canvas 1282 272 611 610 kfb 0;
#X obj -44 -15 cnv 15 600 600 empty empty http://algorithmiccomposer.blogspot.com
20 12 0 14 -261234 -66577 0;
#X obj 238 170 random 10000;
#X obj 49 463 pddp/pddplink http://algorithmiccomposer.blogspot.com
-text http://algorithmiccomposer.blogspot.com;
#X obj 238 118 r speed;
#X obj 139 130 r on;
#X obj 139 162 tgl 15 0 empty empty empty 17 7 0 10 -262144 -1 -1 0
1;
#X obj 139 363 makenote 100 1000;
#X obj 139 186 metro 1000;
#X obj 139 399 noteout;
#X obj 68 398 pgmout;
#X obj 68 362 random 100;
#X obj 290 410 line;
#X obj 281 339 / 2;
#X obj 310 365 pipe;
#X msg 310 386 127 \, 0 \$1;
#X msg 243 386 0 \, 127 \$1;
#X obj 290 465 ctlout 7;
#X obj 281 315 f;
#X floatatom 238 210 5 0 0 0 - - -;
#X obj 139 213 random 6;
#X obj 139 338 + 60;
#X obj 139 312 coll scales;
#C restore;
#X obj 139 264 pack;
#X msg 139 288 nth \$2 \$1;
#X obj 139 237 + 1;
#X obj 61 234 r scale;
#X obj 238 144 t b f;
#X obj 209 410 loadbang;
#X msg 209 432 3;
#X connect 1 0 18 0;
#X connect 3 0 26 0;
#X connect 4 0 5 0;
#X connect 5 0 7 0;
#X connect 6 0 8 0;
#X connect 6 1 8 1;
#X connect 7 0 10 0;
#X connect 7 0 17 0;
#X connect 7 0 19 0;
#X connect 10 0 9 0;
#X connect 11 0 16 0;
#X connect 12 0 15 0;
#X connect 12 0 13 1;
#X connect 12 0 13 0;
#X connect 13 0 14 0;
#X connect 14 0 11 0;
#X connect 15 0 11 0;
#X connect 17 0 12 0;
#X connect 18 0 17 1;
#X connect 18 0 7 1;
#X connect 18 0 6 2;
#X connect 19 0 24 0;
#X connect 20 0 6 0;
#X connect 21 0 20 0;
#X connect 22 0 23 0;
#X connect 23 0 21 0;
#X connect 24 0 22 0;
#X connect 25 0 22 1;
#X connect 26 0 1 0;
#X connect 26 1 1 1;
#X connect 27 0 28 0;
#X connect 28 0 16 2;
#X connect 28 0 8 2;
#X connect 28 0 9 1;
#X restore 252 6 pd kfb;
#N canvas 1282 272 611 610 kfb 0;
#X obj -44 -15 cnv 15 600 600 empty empty http://algorithmiccomposer.blogspot.com
20 12 0 14 -261234 -66577 0;
#X obj 238 170 random 10000;
#X obj 49 463 pddp/pddplink http://algorithmiccomposer.blogspot.com
-text http://algorithmiccomposer.blogspot.com;
#X obj 238 118 r speed;
#X obj 139 130 r on;
#X obj 139 162 tgl 15 0 empty empty empty 17 7 0 10 -262144 -1 -1 0
1;
#X obj 139 363 makenote 100 1000;
#X obj 139 186 metro 1000;
#X obj 139 399 noteout;
#X obj 68 398 pgmout;
#X obj 68 362 random 100;
#X obj 290 410 line;
#X obj 281 339 / 2;
#X obj 310 365 pipe;
#X msg 310 386 127 \, 0 \$1;
#X msg 243 386 0 \, 127 \$1;
#X obj 290 465 ctlout 7;
#X obj 281 315 f;
#X floatatom 238 210 5 0 0 0 - - -;
#X obj 139 213 random 6;
#X obj 139 338 + 60;
#X obj 139 312 coll scales;
#C restore;
#X obj 139 264 pack;
#X msg 139 288 nth \$2 \$1;
#X obj 139 237 + 1;
#X obj 61 234 r scale;
#X obj 238 144 t b f;
#X obj 209 410 loadbang;
#X msg 209 432 7;
#X connect 1 0 18 0;
#X connect 3 0 26 0;
#X connect 4 0 5 0;
#X connect 5 0 7 0;
#X connect 6 0 8 0;
#X connect 6 1 8 1;
#X connect 7 0 10 0;
#X connect 7 0 17 0;
#X connect 7 0 19 0;
#X connect 10 0 9 0;
#X connect 11 0 16 0;
#X connect 12 0 15 0;
#X connect 12 0 13 1;
#X connect 12 0 13 0;
#X connect 13 0 14 0;
#X connect 14 0 11 0;
#X connect 15 0 11 0;
#X connect 17 0 12 0;
#X connect 18 0 17 1;
#X connect 18 0 7 1;
#X connect 18 0 6 2;
#X connect 19 0 24 0;
#X connect 20 0 6 0;
#X connect 21 0 20 0;
#X connect 22 0 23 0;
#X connect 23 0 21 0;
#X connect 24 0 22 0;
#X connect 25 0 22 1;
#X connect 26 0 1 0;
#X connect 26 1 1 1;
#X connect 27 0 28 0;
#X connect 28 0 16 2;
#X connect 28 0 8 2;
#X connect 28 0 9 1;
#X restore 254 29 pd kfb;
#N canvas 1282 272 611 610 kfb 0;
#X obj -44 -15 cnv 15 600 600 empty empty http://algorithmiccomposer.blogspot.com
20 12 0 14 -261234 -66577 0;
#X obj 238 170 random 10000;
#X obj 49 463 pddp/pddplink http://algorithmiccomposer.blogspot.com
-text http://algorithmiccomposer.blogspot.com;
#X obj 238 118 r speed;
#X obj 139 130 r on;
#X obj 139 162 tgl 15 0 empty empty empty 17 7 0 10 -262144 -1 -1 0
1;
#X obj 139 363 makenote 100 1000;
#X obj 139 186 metro 1000;
#X obj 139 399 noteout;
#X obj 68 398 pgmout;
#X obj 68 362 random 100;
#X obj 290 410 line;
#X obj 281 339 / 2;
#X obj 310 365 pipe;
#X msg 310 386 127 \, 0 \$1;
#X msg 243 386 0 \, 127 \$1;
#X obj 290 465 ctlout 7;
#X obj 281 315 f;
#X floatatom 238 210 5 0 0 0 - - -;
#X obj 139 213 random 6;
#X obj 139 338 + 60;
#X obj 139 312 coll scales;
#C restore;
#X obj 139 264 pack;
#X msg 139 288 nth \$2 \$1;
#X obj 139 237 + 1;
#X obj 61 234 r scale;
#X obj 238 144 t b f;
#X obj 209 410 loadbang;
#X msg 209 432 11;
#X connect 1 0 18 0;
#X connect 3 0 26 0;
#X connect 4 0 5 0;
#X connect 5 0 7 0;
#X connect 6 0 8 0;
#X connect 6 1 8 1;
#X connect 7 0 10 0;
#X connect 7 0 17 0;
#X connect 7 0 19 0;
#X connect 10 0 9 0;
#X connect 11 0 16 0;
#X connect 12 0 15 0;
#X connect 12 0 13 1;
#X connect 12 0 13 0;
#X connect 13 0 14 0;
#X connect 14 0 11 0;
#X connect 15 0 11 0;
#X connect 17 0 12 0;
#X connect 18 0 17 1;
#X connect 18 0 7 1;
#X connect 18 0 6 2;
#X connect 19 0 24 0;
#X connect 20 0 6 0;
#X connect 21 0 20 0;
#X connect 22 0 23 0;
#X connect 23 0 21 0;
#X connect 24 0 22 0;
#X connect 25 0 22 1;
#X connect 26 0 1 0;
#X connect 26 1 1 1;
#X connect 27 0 28 0;
#X connect 28 0 16 2;
#X connect 28 0 8 2;
#X connect 28 0 9 1;
#X restore 256 52 pd kfb;
#N canvas 1282 272 611 610 kfb 0;
#X obj -44 -15 cnv 15 600 600 empty empty http://algorithmiccomposer.blogspot.com
20 12 0 14 -261234 -66577 0;
#X obj 238 170 random 10000;
#X obj 49 463 pddp/pddplink http://algorithmiccomposer.blogspot.com
-text http://algorithmiccomposer.blogspot.com;
#X obj 238 118 r speed;
#X obj 139 130 r on;
#X obj 139 162 tgl 15 0 empty empty empty 17 7 0 10 -262144 -1 -1 0
1;
#X obj 139 363 makenote 100 1000;
#X obj 139 186 metro 1000;
#X obj 139 399 noteout;
#X obj 68 398 pgmout;
#X obj 68 362 random 100;
#X obj 290 410 line;
#X obj 281 339 / 2;
#X obj 310 365 pipe;
#X msg 310 386 127 \, 0 \$1;
#X msg 243 386 0 \, 127 \$1;
#X obj 290 465 ctlout 7;
#X obj 281 315 f;
#X floatatom 238 210 5 0 0 0 - - -;
#X obj 139 213 random 6;
#X obj 139 338 + 60;
#X obj 139 312 coll scales;
#C restore;
#X obj 139 264 pack;
#X msg 139 288 nth \$2 \$1;
#X obj 139 237 + 1;
#X obj 61 234 r scale;
#X obj 238 144 t b f;
#X obj 209 410 loadbang;
#X msg 209 432 15;
#X connect 1 0 18 0;
#X connect 3 0 26 0;
#X connect 4 0 5 0;
#X connect 5 0 7 0;
#X connect 6 0 8 0;
#X connect 6 1 8 1;
#X connect 7 0 10 0;
#X connect 7 0 17 0;
#X connect 7 0 19 0;
#X connect 10 0 9 0;
#X connect 11 0 16 0;
#X connect 12 0 15 0;
#X connect 12 0 13 1;
#X connect 12 0 13 0;
#X connect 13 0 14 0;
#X connect 14 0 11 0;
#X connect 15 0 11 0;
#X connect 17 0 12 0;
#X connect 18 0 17 1;
#X connect 18 0 7 1;
#X connect 18 0 6 2;
#X connect 19 0 24 0;
#X connect 20 0 6 0;
#X connect 21 0 20 0;
#X connect 22 0 23 0;
#X connect 23 0 21 0;
#X connect 24 0 22 0;
#X connect 25 0 22 1;
#X connect 26 0 1 0;
#X connect 26 1 1 1;
#X connect 27 0 28 0;
#X connect 28 0 16 2;
#X connect 28 0 8 2;
#X connect 28 0 9 1;
#X restore 257 74 pd kfb;
#N canvas 1282 272 611 610 kfb 0;
#X obj -44 -15 cnv 15 600 600 empty empty http://algorithmiccomposer.blogspot.com
20 12 0 14 -261234 -66577 0;
#X obj 238 170 random 10000;
#X obj 49 463 pddp/pddplink http://algorithmiccomposer.blogspot.com
-text http://algorithmiccomposer.blogspot.com;
#X obj 238 118 r speed;
#X obj 139 130 r on;
#X obj 139 162 tgl 15 0 empty empty empty 17 7 0 10 -262144 -1 -1 0
1;
#X obj 139 363 makenote 100 1000;
#X obj 139 186 metro 1000;
#X obj 139 399 noteout;
#X obj 68 398 pgmout;
#X obj 68 362 random 100;
#X obj 290 410 line;
#X obj 281 339 / 2;
#X obj 310 365 pipe;
#X msg 310 386 127 \, 0 \$1;
#X msg 243 386 0 \, 127 \$1;
#X obj 290 465 ctlout 7;
#X obj 281 315 f;
#X floatatom 238 210 5 0 0 0 - - -;
#X obj 139 213 random 6;
#X obj 139 338 + 60;
#X obj 139 312 coll scales;
#C restore;
#X obj 139 264 pack;
#X msg 139 288 nth \$2 \$1;
#X obj 139 237 + 1;
#X obj 61 234 r scale;
#X obj 238 144 t b f;
#X obj 209 410 loadbang;
#X msg 209 432 4;
#X connect 1 0 18 0;
#X connect 3 0 26 0;
#X connect 4 0 5 0;
#X connect 5 0 7 0;
#X connect 6 0 8 0;
#X connect 6 1 8 1;
#X connect 7 0 10 0;
#X connect 7 0 17 0;
#X connect 7 0 19 0;
#X connect 10 0 9 0;
#X connect 11 0 16 0;
#X connect 12 0 15 0;
#X connect 12 0 13 1;
#X connect 12 0 13 0;
#X connect 13 0 14 0;
#X connect 14 0 11 0;
#X connect 15 0 11 0;
#X connect 17 0 12 0;
#X connect 18 0 17 1;
#X connect 18 0 7 1;
#X connect 18 0 6 2;
#X connect 19 0 24 0;
#X connect 20 0 6 0;
#X connect 21 0 20 0;
#X connect 22 0 23 0;
#X connect 23 0 21 0;
#X connect 24 0 22 0;
#X connect 25 0 22 1;
#X connect 26 0 1 0;
#X connect 26 1 1 1;
#X connect 27 0 28 0;
#X connect 28 0 16 2;
#X connect 28 0 8 2;
#X connect 28 0 9 1;
#X restore 300 6 pd kfb;
#N canvas 1282 272 611 610 kfb 0;
#X obj -44 -15 cnv 15 600 600 empty empty http://algorithmiccomposer.blogspot.com
20 12 0 14 -261234 -66577 0;
#X obj 238 170 random 10000;
#X obj 49 463 pddp/pddplink http://algorithmiccomposer.blogspot.com
-text http://algorithmiccomposer.blogspot.com;
#X obj 238 118 r speed;
#X obj 139 130 r on;
#X obj 139 162 tgl 15 0 empty empty empty 17 7 0 10 -262144 -1 -1 0
1;
#X obj 139 363 makenote 100 1000;
#X obj 139 186 metro 1000;
#X obj 139 399 noteout;
#X obj 68 398 pgmout;
#X obj 68 362 random 100;
#X obj 290 410 line;
#X obj 281 339 / 2;
#X obj 310 365 pipe;
#X msg 310 386 127 \, 0 \$1;
#X msg 243 386 0 \, 127 \$1;
#X obj 290 465 ctlout 7;
#X obj 281 315 f;
#X floatatom 238 210 5 0 0 0 - - -;
#X obj 139 213 random 6;
#X obj 139 338 + 60;
#X obj 139 312 coll scales;
#C restore;
#X obj 139 264 pack;
#X msg 139 288 nth \$2 \$1;
#X obj 139 237 + 1;
#X obj 61 234 r scale;
#X obj 238 144 t b f;
#X obj 209 410 loadbang;
#X msg 209 432 8;
#X connect 1 0 18 0;
#X connect 3 0 26 0;
#X connect 4 0 5 0;
#X connect 5 0 7 0;
#X connect 6 0 8 0;
#X connect 6 1 8 1;
#X connect 7 0 10 0;
#X connect 7 0 17 0;
#X connect 7 0 19 0;
#X connect 10 0 9 0;
#X connect 11 0 16 0;
#X connect 12 0 15 0;
#X connect 12 0 13 1;
#X connect 12 0 13 0;
#X connect 13 0 14 0;
#X connect 14 0 11 0;
#X connect 15 0 11 0;
#X connect 17 0 12 0;
#X connect 18 0 17 1;
#X connect 18 0 7 1;
#X connect 18 0 6 2;
#X connect 19 0 24 0;
#X connect 20 0 6 0;
#X connect 21 0 20 0;
#X connect 22 0 23 0;
#X connect 23 0 21 0;
#X connect 24 0 22 0;
#X connect 25 0 22 1;
#X connect 26 0 1 0;
#X connect 26 1 1 1;
#X connect 27 0 28 0;
#X connect 28 0 16 2;
#X connect 28 0 8 2;
#X connect 28 0 9 1;
#X restore 302 29 pd kfb;
#N canvas 1282 272 611 610 kfb 0;
#X obj -44 -15 cnv 15 600 600 empty empty http://algorithmiccomposer.blogspot.com
20 12 0 14 -261234 -66577 0;
#X obj 238 170 random 10000;
#X obj 49 463 pddp/pddplink http://algorithmiccomposer.blogspot.com
-text http://algorithmiccomposer.blogspot.com;
#X obj 238 118 r speed;
#X obj 139 130 r on;
#X obj 139 162 tgl 15 0 empty empty empty 17 7 0 10 -262144 -1 -1 0
1;
#X obj 139 363 makenote 100 1000;
#X obj 139 186 metro 1000;
#X obj 139 399 noteout;
#X obj 68 398 pgmout;
#X obj 68 362 random 100;
#X obj 290 410 line;
#X obj 281 339 / 2;
#X obj 310 365 pipe;
#X msg 310 386 127 \, 0 \$1;
#X msg 243 386 0 \, 127 \$1;
#X obj 290 465 ctlout 7;
#X obj 281 315 f;
#X floatatom 238 210 5 0 0 0 - - -;
#X obj 139 213 random 6;
#X obj 139 338 + 60;
#X obj 139 312 coll scales;
#C restore;
#X obj 139 264 pack;
#X msg 139 288 nth \$2 \$1;
#X obj 139 237 + 1;
#X obj 61 234 r scale;
#X obj 238 144 t b f;
#X obj 209 410 loadbang;
#X msg 209 432 12;
#X connect 1 0 18 0;
#X connect 3 0 26 0;
#X connect 4 0 5 0;
#X connect 5 0 7 0;
#X connect 6 0 8 0;
#X connect 6 1 8 1;
#X connect 7 0 10 0;
#X connect 7 0 17 0;
#X connect 7 0 19 0;
#X connect 10 0 9 0;
#X connect 11 0 16 0;
#X connect 12 0 15 0;
#X connect 12 0 13 1;
#X connect 12 0 13 0;
#X connect 13 0 14 0;
#X connect 14 0 11 0;
#X connect 15 0 11 0;
#X connect 17 0 12 0;
#X connect 18 0 17 1;
#X connect 18 0 7 1;
#X connect 18 0 6 2;
#X connect 19 0 24 0;
#X connect 20 0 6 0;
#X connect 21 0 20 0;
#X connect 22 0 23 0;
#X connect 23 0 21 0;
#X connect 24 0 22 0;
#X connect 25 0 22 1;
#X connect 26 0 1 0;
#X connect 26 1 1 1;
#X connect 27 0 28 0;
#X connect 28 0 16 2;
#X connect 28 0 8 2;
#X connect 28 0 9 1;
#X restore 304 52 pd kfb;
#N canvas 1282 272 611 610 kfb 0;
#X obj -44 -15 cnv 15 600 600 empty empty http://algorithmiccomposer.blogspot.com
20 12 0 14 -261234 -66577 0;
#X obj 238 170 random 10000;
#X obj 49 463 pddp/pddplink http://algorithmiccomposer.blogspot.com
-text http://algorithmiccomposer.blogspot.com;
#X obj 238 118 r speed;
#X obj 139 130 r on;
#X obj 139 162 tgl 15 0 empty empty empty 17 7 0 10 -262144 -1 -1 0
1;
#X obj 139 363 makenote 100 1000;
#X obj 139 186 metro 1000;
#X obj 139 399 noteout;
#X obj 68 398 pgmout;
#X obj 68 362 random 100;
#X obj 290 410 line;
#X obj 281 339 / 2;
#X obj 310 365 pipe;
#X msg 310 386 127 \, 0 \$1;
#X msg 243 386 0 \, 127 \$1;
#X obj 290 465 ctlout 7;
#X obj 281 315 f;
#X floatatom 238 210 5 0 0 0 - - -;
#X obj 139 213 random 6;
#X obj 139 338 + 60;
#X obj 139 312 coll scales;
#C restore;
#X obj 139 264 pack;
#X msg 139 288 nth \$2 \$1;
#X obj 139 237 + 1;
#X obj 61 234 r scale;
#X obj 238 144 t b f;
#X obj 209 410 loadbang;
#X msg 209 432 16;
#X connect 1 0 18 0;
#X connect 3 0 26 0;
#X connect 4 0 5 0;
#X connect 5 0 7 0;
#X connect 6 0 8 0;
#X connect 6 1 8 1;
#X connect 7 0 10 0;
#X connect 7 0 17 0;
#X connect 7 0 19 0;
#X connect 10 0 9 0;
#X connect 11 0 16 0;
#X connect 12 0 15 0;
#X connect 12 0 13 1;
#X connect 12 0 13 0;
#X connect 13 0 14 0;
#X connect 14 0 11 0;
#X connect 15 0 11 0;
#X connect 17 0 12 0;
#X connect 18 0 17 1;
#X connect 18 0 7 1;
#X connect 18 0 6 2;
#X connect 19 0 24 0;
#X connect 20 0 6 0;
#X connect 21 0 20 0;
#X connect 22 0 23 0;
#X connect 23 0 21 0;
#X connect 24 0 22 0;
#X connect 25 0 22 1;
#X connect 26 0 1 0;
#X connect 26 1 1 1;
#X connect 27 0 28 0;
#X connect 28 0 16 2;
#X connect 28 0 8 2;
#X connect 28 0 9 1;
#X restore 305 74 pd kfb;
#X connect 3 0 4 0;
#X connect 8 0 5 0;
#X connect 9 0 6 0;
#X connect 11 0 12 0;
#X connect 12 0 10 0;
