#N canvas 141 144 733 469 10;
#X obj 40 65 tgl 15 0 empty empty empty 17 7 0 10 -262144 -1 -1 1 1
;
#X obj 306 40 loadbang;
#X obj 40 152 counter 0 11;
#X obj 162 153 counter 0 11;
#X floatatom 40 177 5 0 0 0 - - -;
#X floatatom 162 176 5 0 0 0 - - -;
#X obj 40 212 tabread pianoPhrase;
#X obj 162 212 tabread pianoPhrase;
#X floatatom 40 239 5 0 0 0 - - -;
#X floatatom 162 238 5 0 0 0 - - -;
#X obj 40 322 noteout 1;
#X obj 162 322 noteout 2;
#X obj 305 101 table pianoPhrase;
#X msg 306 64 \; pianoPhrase 0 64 66 71 73 74 66 64 73 71 66 74 73
;
#X obj 40 296 makenote 100 250;
#X obj 162 296 makenote 100 250;
#X obj 42 349 s note1;
#X obj 95 353 s vel1;
#X obj 162 353 s note2;
#X obj 215 354 s vel2;
#X obj 40 270 +;
#X obj 163 271 +;
#X floatatom 317 218 5 0 0 0 - - -;
#X msg 433 241 0 2 4 5 7 9 11;
#X text 528 241 major;
#X msg 442 263 0 1 4 5 7 8 11;
#X msg 465 308 0 2 3 5 7 8 11;
#X msg 488 353 0 2 4 6 8 10;
#X msg 498 375 0 2 3 5 6 8 9 11;
#X text 540 263 middle-east-like minor;
#X text 650 109 lydian-dominant (jazzy);
#X text 563 310 harmonic minor;
#X msg 476 331 0 2 3 4 5 6 7 9 10 11;
#X text 614 332 chromatic blues;
#X text 574 355 whole-tones scale;
#X text 606 377 diminished scale;
#X msg 506 397 0 2 4 7 9;
#X text 574 398 pentatonic;
#X text 606 419 pentatonic blues;
#X msg 514 419 0 2 3 4 7 8 9;
#X msg 479 110 \; pianoPhrase 0 2 4 6 7 9 10;
#X obj 40 123 metro 114;
#X obj 162 124 metro 115;
#X msg 305 161 \; pianoPhrase 0 36 38 41 48 50 54 38 40 50 48 54 53
36 39 42;
#X connect 0 0 41 0;
#X connect 0 0 42 0;
#X connect 1 0 13 0;
#X connect 2 0 4 0;
#X connect 3 0 5 0;
#X connect 4 0 6 0;
#X connect 5 0 7 0;
#X connect 6 0 8 0;
#X connect 7 0 9 0;
#X connect 8 0 20 0;
#X connect 9 0 21 0;
#X connect 14 0 10 0;
#X connect 14 0 16 0;
#X connect 14 1 10 1;
#X connect 14 1 17 0;
#X connect 15 0 11 0;
#X connect 15 0 18 0;
#X connect 15 1 11 1;
#X connect 15 1 19 0;
#X connect 20 0 14 0;
#X connect 21 0 15 0;
#X connect 22 0 20 1;
#X connect 22 0 21 1;
#X connect 41 0 2 0;
#X connect 42 0 3 0;
