#N canvas 561 22 463 667 10;
#X obj 272 27 loadbang;
#X msg 271 52 \; toneRow 0 11 10 7 1 3 0 2 9 6 4 8 5 \; rhythm 0 0
0 0 62 62 125 125 250 350 500 1000 \; tempoMultiplier 1;
#X obj 19 27 tgl 15 0 empty empty empty 17 7 0 10 -262144 -1 -1 1 1
;
#X obj 19 81 metro 250;
#X obj 77 9 random 11;
#X obj 77 33 tabread rhythm;
#X obj 77 55 *;
#X obj 154 7 hsl 128 15 0 5 0 0 empty tempoMultiplier empty -2 -8 0
10 -262144 -1 -1 2540 1;
#X obj 19 102 counter 0 11;
#X obj 88 128 bng 15 250 50 0 empty empty empty 17 7 0 10 -262144 -1
-1;
#X obj 88 149 random 12;
#X floatatom 88 172 5 0 0 0 - - -;
#X floatatom 19 171 5 0 0 0 - - -;
#X obj 19 200 tabread toneRow;
#X obj 272 117 table toneRow;
#X obj 273 139 table rhythm;
#X obj -61 170 alternate;
#X msg -61 192 1;
#X msg -26 192 2;
#X obj -61 225 gate 2;
#X floatatom -28 272 5 0 0 0 - - -;
#X floatatom -61 250 5 0 0 0 - - -;
#X obj 73 288 t b f;
#X msg 73 311 11;
#X obj 73 338 -;
#X floatatom 73 361 5 0 0 0 - - -;
#X obj -61 376 +;
#X floatatom -61 398 5 0 0 0 - - -;
#X obj -61 420 t f b;
#X obj -61 525 +;
#X obj -34 444 random 5;
#X obj -34 466 sel 0 1 2 3 4;
#X msg -34 492 24;
#X msg 0 492 36;
#X msg 34 492 48;
#X msg 69 492 60;
#X msg 101 493 72;
#X obj -61 547 makenote 100 250;
#X obj -61 570 noteout;
#X connect 0 0 1 0;
#X connect 2 0 3 0;
#X connect 3 0 4 0;
#X connect 3 0 8 0;
#X connect 4 0 5 0;
#X connect 5 0 6 0;
#X connect 6 0 3 1;
#X connect 7 0 6 1;
#X connect 8 0 12 0;
#X connect 8 3 9 0;
#X connect 9 0 10 0;
#X connect 9 0 16 0;
#X connect 10 0 11 0;
#X connect 12 0 13 0;
#X connect 13 0 19 1;
#X connect 16 0 17 0;
#X connect 16 1 18 0;
#X connect 17 0 19 0;
#X connect 18 0 19 0;
#X connect 19 0 21 0;
#X connect 19 1 20 0;
#X connect 20 0 22 0;
#X connect 21 0 26 0;
#X connect 22 0 23 0;
#X connect 22 1 24 1;
#X connect 23 0 24 0;
#X connect 24 0 25 0;
#X connect 25 0 26 1;
#X connect 26 0 27 0;
#X connect 27 0 28 0;
#X connect 28 0 29 0;
#X connect 28 1 30 0;
#X connect 29 0 37 0;
#X connect 30 0 31 0;
#X connect 31 0 32 0;
#X connect 31 1 33 0;
#X connect 31 2 34 0;
#X connect 31 3 35 0;
#X connect 31 4 36 0;
#X connect 32 0 29 1;
#X connect 33 0 29 1;
#X connect 34 0 29 1;
#X connect 35 0 29 1;
#X connect 36 0 29 1;
#X connect 37 0 38 0;
#X connect 37 1 38 1;
