#N canvas 565 53 318 627 10;
#X obj 93 77 r stop;
#X msg 93 99 0;
#X obj 93 122 tgl 15 0 empty empty empty 17 7 0 10 -262144 -1 -1 0
1;
#X obj 93 151 metro 1000;
#X floatatom 150 122 5 0 0 0 - - -;
#X obj 93 182 counter;
#X floatatom 224 122 5 0 0 0 - - -;
#X text 150 101 Speed;
#X text 226 99 Steps;
#X obj 224 147 t b f;
#X msg 224 169 1;
#X obj 224 193 /;
#X floatatom 224 218 5 0 0 0 - - -;
#X obj 93 234 *;
#X floatatom 93 205 5 0 0 0 - - -;
#X floatatom 93 258 5 0 0 0 - - -;
#X obj 93 352 list-inter;
#X obj 121 284 loadbang;
#X obj 93 376 iter;
#X obj 142 411 random 60;
#X obj 142 393 bng 15 250 50 0 empty empty empty 17 7 0 10 -262144
-1 -1;
#X obj 142 432 + 50;
#X obj 93 489 noteout;
#X floatatom 261 434 5 0 0 0 - - -;
#X obj 261 453 pgmout;
#X obj 10 274 >= 1;
#X obj 10 300 sel 1;
#X obj 10 325 s stop;
#X obj 93 463 makenote 100 850;
#X msg 121 306 36 43 49 79 100;
#X msg 150 327 61 64 67 42 24;
#X connect 0 0 1 0;
#X connect 1 0 2 0;
#X connect 2 0 3 0;
#X connect 3 0 5 0;
#X connect 4 0 3 1;
#X connect 5 0 14 0;
#X connect 6 0 5 4;
#X connect 6 0 9 0;
#X connect 9 0 10 0;
#X connect 9 1 11 1;
#X connect 10 0 11 0;
#X connect 11 0 12 0;
#X connect 12 0 13 1;
#X connect 13 0 15 0;
#X connect 14 0 13 0;
#X connect 15 0 16 0;
#X connect 15 0 25 0;
#X connect 16 0 18 0;
#X connect 17 0 30 0;
#X connect 17 0 29 0;
#X connect 18 0 20 0;
#X connect 18 0 28 0;
#X connect 19 0 21 0;
#X connect 20 0 19 0;
#X connect 21 0 28 1;
#X connect 23 0 24 0;
#X connect 25 0 26 0;
#X connect 26 0 27 0;
#X connect 28 0 22 0;
#X connect 28 1 22 1;
#X connect 29 0 16 1;
#X connect 30 0 16 2;
