#N canvas 556 98 468 412 10;
#N canvas 564 184 450 300 LoadMidiFile 0;
#X obj 112 40 inlet;
#X obj 222 48 inlet;
#X obj 112 111 seq;
#X msg 112 70 read;
#X msg 222 75 start 65536;
#X obj 112 175 midiparse -----------;
#X obj 274 150 bng 15 250 50 0 empty empty empty 17 7 0 10 -262144
-1 -1;
#X obj 274 175 outlet;
#X obj 323 174 s finished;
#X obj 112 208 unpack;
#X obj 112 230 stripnote;
#X floatatom 112 253 5 0 0 0 - - -;
#X floatatom 163 252 5 0 0 0 - - -;
#X obj 112 278 outlet;
#X obj 163 278 outlet;
#X connect 0 0 3 0;
#X connect 1 0 4 0;
#X connect 2 0 5 0;
#X connect 2 1 6 0;
#X connect 3 0 2 0;
#X connect 4 0 2 0;
#X connect 5 0 9 0;
#X connect 6 0 7 0;
#X connect 6 0 8 0;
#X connect 9 0 10 0;
#X connect 9 1 10 1;
#X connect 10 0 11 0;
#X connect 10 1 12 0;
#X connect 11 0 13 0;
#X connect 12 0 14 0;
#X restore 43 48 pd LoadMidiFile;
#X obj 43 29 bng 15 250 50 0 empty empty Load 17 7 0 10 -262144 -1
-1;
#X obj 130 29 bng 15 250 50 0 empty empty Play 17 7 0 10 -262144 -1
-1;
#X obj 130 72 bng 15 250 50 0 empty empty empty 17 7 0 10 -262144 -1
-1;
#N canvas 533 22 544 474 MarkovPitchGenerate 0;
#X obj 177 134 inlet;
#X obj 230 115 inlet;
#X obj 290 119 r finished;
#X obj 230 166 coll pitchMatrix;
#C restore;
#X msg 230 144 next;
#X floatatom 230 188 5 0 0 0 - - -;
#X obj 177 169 bng 15 250 50 0 empty empty empty 17 7 0 10 -262144
-1 -1;
#X obj 177 204 f;
#X obj 177 230 t f f;
#X obj 177 257 coll pitchMatrix;
#C restore;
#X obj 177 280 length;
#X obj 177 303 t b f;
#X obj 177 328 random;
#X obj 177 351 + 1;
#X obj 185 389 pack;
#X msg 185 413 nth \$2 \$1;
#X obj 185 439 coll pitchMatrix;
#C restore;
#X floatatom 356 473 5 0 0 0 - - -;
#X obj 356 493 outlet;
#X connect 0 0 6 0;
#X connect 1 0 4 0;
#X connect 2 0 4 0;
#X connect 3 0 5 0;
#X connect 4 0 3 0;
#X connect 5 0 7 1;
#X connect 6 0 7 0;
#X connect 7 0 8 0;
#X connect 8 0 9 0;
#X connect 8 1 14 1;
#X connect 9 0 10 0;
#X connect 10 0 11 0;
#X connect 11 0 12 0;
#X connect 11 1 12 1;
#X connect 13 0 14 0;
#X connect 14 0 15 0;
#X connect 15 0 16 0;
#X connect 16 0 17 0;
#X connect 17 0 18 0;
#X connect 17 0 7 1;
#X restore 60 259 pd MarkovPitchGenerate;
#X obj 60 196 tgl 15 0 empty empty empty 17 7 0 10 -262144 -1 -1 0
1;
#X obj 60 215 metro 150;
#X obj 60 239 bng 15 250 50 0 empty empty empty 17 7 0 10 -262144 -1
-1;
#X floatatom 60 281 5 0 0 0 - - -;
#X obj 60 305 makenote 100 500;
#X obj 60 334 noteout;
#X obj 189 239 bng 15 250 50 0 empty empty empty 17 7 0 10 -262144
-1 -1;
#X obj 271 38 bng 15 250 50 0 empty empty empty 17 7 0 10 -262144 -1
-1;
#N canvas 630 150 450 300 MarkovAnalysePitch 0;
#X obj 78 35 inlet;
#N canvas 0 22 450 300 pair 0;
#X floatatom 164 80 5 0 0 0 - - -;
#X obj 156 129 t f b f;
#X obj 158 160 f;
#X obj 156 189 pack;
#X obj 159 49 inlet;
#X obj 154 217 outlet;
#X connect 0 0 1 0;
#X connect 1 0 2 1;
#X connect 1 1 2 0;
#X connect 1 2 3 1;
#X connect 2 0 3 0;
#X connect 3 0 5 0;
#X connect 4 0 0 0;
#X restore 81 69 pd pair;
#X obj 85 158 coll pitchMatrix;
#C restore;
#X msg 84 129 merge \$1 \$2;
#X obj 199 89 r resetMatrix;
#X msg 198 117 clear;
#X connect 0 0 1 0;
#X connect 1 0 3 0;
#X connect 3 0 2 0;
#X connect 4 0 5 0;
#X connect 5 0 2 0;
#X restore 43 146 pd MarkovAnalysePitch;
#X obj 271 58 s resetMatrix;
#N canvas 574 150 450 300 MarkovAnalyseVel 0;
#X obj 78 35 inlet;
#N canvas 0 22 450 300 pair 0;
#X floatatom 164 80 5 0 0 0 - - -;
#X obj 156 129 t f b f;
#X obj 158 160 f;
#X obj 156 189 pack;
#X obj 159 49 inlet;
#X obj 154 217 outlet;
#X connect 0 0 1 0;
#X connect 1 0 2 1;
#X connect 1 1 2 0;
#X connect 1 2 3 1;
#X connect 2 0 3 0;
#X connect 3 0 5 0;
#X connect 4 0 0 0;
#X restore 81 69 pd pair;
#X msg 84 129 merge \$1 \$2;
#X obj 199 89 r resetMatrix;
#X msg 198 117 clear;
#X obj 85 158 coll velMatrix;
#C restore;
#X connect 0 0 1 0;
#X connect 1 0 2 0;
#X connect 2 0 5 0;
#X connect 3 0 4 0;
#X connect 4 0 5 0;
#X restore 86 123 pd MarkovAnalyseVel;
#X obj 225 239 bng 15 250 50 0 empty empty empty 17 7 0 10 -262144
-1 -1;
#X floatatom 225 281 5 0 0 0 - - -;
#X obj 342 241 bng 15 250 50 0 empty empty empty 17 7 0 10 -262144
-1 -1;
#N canvas 480 22 544 474 MarkovVelGenerate 0;
#X obj 177 134 inlet;
#X obj 230 115 inlet;
#X obj 290 119 r finished;
#X msg 230 144 next;
#X floatatom 230 188 5 0 0 0 - - -;
#X obj 177 169 bng 15 250 50 0 empty empty empty 17 7 0 10 -262144
-1 -1;
#X obj 177 204 f;
#X obj 177 230 t f f;
#X obj 177 280 length;
#X obj 177 303 t b f;
#X obj 177 328 random;
#X obj 177 351 + 1;
#X obj 185 389 pack;
#X msg 185 413 nth \$2 \$1;
#X floatatom 356 473 5 0 0 0 - - -;
#X obj 356 493 outlet;
#X obj 230 166 coll velMatrix;
#C restore;
#X obj 177 257 coll velMatrix;
#C restore;
#X obj 185 439 coll velMatrix;
#C restore;
#X connect 0 0 5 0;
#X connect 1 0 3 0;
#X connect 2 0 3 0;
#X connect 3 0 16 0;
#X connect 4 0 6 1;
#X connect 5 0 6 0;
#X connect 6 0 7 0;
#X connect 7 0 17 0;
#X connect 7 1 12 1;
#X connect 8 0 9 0;
#X connect 9 0 10 0;
#X connect 9 1 10 1;
#X connect 11 0 12 0;
#X connect 12 0 13 0;
#X connect 13 0 18 0;
#X connect 14 0 15 0;
#X connect 14 0 6 1;
#X connect 16 0 4 0;
#X connect 17 0 8 0;
#X connect 18 0 14 0;
#X restore 225 259 pd MarkovVelGenerate;
#X connect 0 0 13 0;
#X connect 0 1 15 0;
#X connect 0 2 3 0;
#X connect 1 0 0 0;
#X connect 2 0 0 1;
#X connect 4 0 8 0;
#X connect 5 0 6 0;
#X connect 6 0 7 0;
#X connect 6 0 16 0;
#X connect 7 0 4 0;
#X connect 8 0 9 0;
#X connect 9 0 10 0;
#X connect 9 1 10 1;
#X connect 11 0 4 1;
#X connect 12 0 14 0;
#X connect 16 0 19 0;
#X connect 17 0 9 1;
#X connect 18 0 19 1;
#X connect 19 0 17 0;
