#N canvas 230 303 182 132 10;
#X obj 10 -13 r chord;
#N canvas 0 22 450 300 (subpatch) 0;
#X obj -157 -4 unpack f f f;
#X obj 8 7 knob 25 25 0 127 0 0 empty empty empty 0 -8 32 8 -1 -260097
-260097 100 1;
#X floatatom 8 36 5 0 0 0 - - -;
#X obj -102 75 * 2;
#X obj -67 105 * 3;
#X obj -157 55 pipe;
#X obj -123 93 pipe;
#X obj -88 122 pipe;
#X obj -158 -35 inlet;
#X obj -163 170 outlet;
#X text 41 11 Delay;
#X connect 0 0 5 0;
#X connect 0 1 6 0;
#X connect 0 2 7 0;
#X connect 1 0 2 0;
#X connect 2 0 5 1;
#X connect 2 0 3 0;
#X connect 2 0 4 0;
#X connect 3 0 6 1;
#X connect 4 0 7 1;
#X connect 5 0 9 0;
#X connect 6 0 9 0;
#X connect 7 0 9 0;
#X connect 8 0 0 0;
#X coords 0 1 100 -1 80 60 1 0 0;
#X restore 10 6 graph;
#X obj 15 73 s note;
#X connect 0 0 1 0;
#X connect 1 0 2 0;
