#N canvas 0 22 1024 720 10;
#X declare -path z_markov_abs;
#X msg 352 99 1;
#X msg 320 99 0;
#X msg 387 100 2;
#X obj 320 132 t a;
#X msg 414 194 0 \, 0 \, 1 \, 3 \, 3 \, 2 \, 1 \, 2 \,;
#X msg 488 126 reset;
#X obj 413 257 t b b;
#X msg 427 100 3;
#X msg 365 368 3 0 0 2 2 \, 2 1 2 0 0 \, 1 0 0 2 2 \, 0 2 2 0 0 \,
;
#X msg 413 291 dump;
#X obj 181 435 pack 0 0;
#X obj 181 410 makenote 80 100;
#X msg 455 291 reset;
#X obj 424 172 bng 15 250 50 0 empty empty press_1st 17 7 1 10 -4034
-1 -1;
#X obj 413 237 bng 15 250 50 0 empty empty dump_to_markov_chain 17
7 1 10 -4034 -1 -1;
#X text 462 344 Histograms;
#X text 290 72 numbers from 0 to <max - 1>;
#X text 504 58 This example shows how [m_markovanal] can be used in
conjunction with c_markov] to generate melodies similar to an existing
melody.;
#X obj 414 149 z-u_cocollect;
#X obj 320 308 z-m_markovanal 4;
#X obj 365 346 z-u_cocollect;
#X obj 181 340 z-c_markov 4;
#X obj 181 372 z-m_majorscale 60;
#X floatatom 132 429 5 0 0 0 - - -;
#X msg 181 452 set \$1 \$2;
#X msg 181 479 64 0;
#N canvas 0 22 569 479 amrfloat 0;
#X obj 99 64 inlet bang;
#X obj 202 63 inlet trig;
#X obj 99 367 f;
#X obj 99 390 change;
#X obj 99 415 outlet trig;
#X obj 335 63 inlet wait;
#X obj 264 242 f;
#X msg 279 200 0;
#X obj 264 267 + 1;
#X obj 99 175 spigot;
#X msg 132 140 0;
#X msg 164 139 1;
#X obj 202 93 t b b;
#X obj 335 175 moses 1;
#X obj 264 290 sel 1;
#X connect 0 0 9 0;
#X connect 1 0 2 1;
#X connect 1 0 12 0;
#X connect 2 0 3 0;
#X connect 3 0 4 0;
#X connect 5 0 13 0;
#X connect 6 0 8 0;
#X connect 7 0 6 1;
#X connect 8 0 6 1;
#X connect 8 0 14 0;
#X connect 9 0 6 0;
#X connect 10 0 9 1;
#X connect 11 0 9 1;
#X connect 12 0 11 0;
#X connect 12 1 7 0;
#X connect 13 1 14 1;
#X connect 14 0 2 0;
#X connect 14 0 10 0;
#X restore 181 256 pd amrfloat;
#X obj 181 239 r bang;
#X obj 213 223 tgl 15 0 empty empty empty 0 -6 0 8 -262144 -1 -1 0
1;
#X msg 244 239 0;
#X obj 138 313 r MBang;
#X obj 181 291 metro 500;
#X obj 232 274 r Mmetro;
#X obj 665 155 declare -path z_markov_abs;
#X obj 106 256 tgl 15 0 empty empty empty 0 -6 0 8 -262144 -1 -1 0
1;
#X connect 0 0 3 0;
#X connect 1 0 3 0;
#X connect 2 0 3 0;
#X connect 3 0 18 0;
#X connect 3 0 19 0;
#X connect 4 0 19 0;
#X connect 5 0 18 1;
#X connect 6 0 9 0;
#X connect 6 1 20 1;
#X connect 7 0 3 0;
#X connect 9 0 19 1;
#X connect 10 0 24 0;
#X connect 11 0 10 0;
#X connect 11 0 23 0;
#X connect 11 1 10 1;
#X connect 12 0 19 1;
#X connect 13 0 4 0;
#X connect 14 0 6 0;
#X connect 18 0 4 0;
#X connect 19 0 20 0;
#X connect 19 0 21 1;
#X connect 20 0 8 0;
#X connect 21 0 22 0;
#X connect 22 0 11 0;
#X connect 24 0 25 0;
#X connect 26 0 31 0;
#X connect 27 0 26 0;
#X connect 28 0 26 1;
#X connect 29 0 26 2;
#X connect 30 0 21 0;
#X connect 31 0 21 0;
#X connect 32 0 31 1;
#X connect 34 0 31 0;
