#N canvas 0 22 864 393 10;
#X declare -path z_armfloat_abs;
#X obj -23 104 notein;
#X floatatom -23 131 5 0 0 0 - - -;
#X floatatom 19 130 5 0 0 0 - - -;
#X floatatom 62 130 5 0 0 0 - - -;
#X obj 110 234 r note1;
#X obj 159 234 r note2;
#X obj 207 234 r note3;
#X obj 256 234 r note4;
#X obj 305 234 r note5;
#X obj 354 234 r note6;
#X obj 403 234 r note7;
#X obj 452 234 r note8;
#X obj 110 283 pack f f f f f f f f;
#X obj 110 306 s chord;
#X obj 104 130 tgl 15 0 empty empty empty 17 7 0 10 -262144 -1 -1 0
1;
#N canvas 0 22 1009 705 (subpatch) 0;
#X obj 514 6 bng 25 250 50 0 empty empty Xm7 3 12 0 10 -262130 -1 -1
;
#X floatatom 237 400 5 0 0 0 - - -;
#X floatatom 272 417 5 0 0 0 - - -;
#X floatatom 291 399 5 0 0 0 - - -;
#X floatatom 318 417 5 0 0 0 - - -;
#X obj 230 302 unpack 0 0 0 0;
#X msg 237 281 48 51 55 58;
#X obj 322 6 bng 25 250 50 0 empty empty X7 3 12 0 10 -203904 -1 -1
;
#X msg 235 260 48 52 55 58;
#X obj 268 6 bng 25 250 50 0 empty empty Xj 3 12 0 10 -257985 -1 -1
;
#X msg 238 240 48 52 55 59;
#X obj 118 336 +;
#X obj 143 336 +;
#X obj 168 336 +;
#X obj 193 336 +;
#X floatatom 30 279 5 0 0 0 - - -;
#X obj 460 6 bng 25 250 50 0 empty empty Xmj 3 12 0 10 -261234 -1 -1
;
#X msg 239 217 48 51 55 59;
#X msg -36 234 0;
#X msg -20 214 1;
#X msg -5 235 2;
#X msg 9 214 3;
#X msg 25 236 4;
#X msg 56 236 5;
#X msg 67 215 6;
#X msg 87 236 7;
#X msg 102 215 8;
#X msg 116 236 9;
#X msg 131 216 10;
#X msg 145 236 11;
#X obj 568 6 bng 25 250 50 0 empty empty X_d 3 12 0 10 -204786 -1 -1
;
#X msg 239 199 48 51 54 57;
#X obj 541 6 bng 25 250 50 0 empty empty X/d 3 12 0 10 -262130 -1 -1
;
#X msg 242 182 48 51 54 58;
#X obj 376 6 bng 25 250 50 0 empty empty X+j 3 12 0 10 -228856 -1 -1
;
#X msg 242 163 48 52 56 59;
#X obj 403 6 bng 25 250 50 0 empty empty X+7 3 12 0 10 -4032 -1 -1
;
#X msg 242 145 48 52 56 58;
#X obj 295 6 bng 25 250 50 0 empty empty X6 3 12 0 10 -260097 -1 -1
;
#X msg 241 126 48 52 55 57;
#X obj 487 6 bng 25 250 50 0 empty empty Xm6 3 12 0 10 -162280 -1 -1
;
#X msg 240 107 48 51 55 57;
#X obj 23 7 bng 20 250 50 0 empty empty C 3 10 0 10 -262130 -1 -1;
#X obj 44 7 bng 20 250 50 0 empty empty D 3 10 0 10 -262130 -1 -1;
#X obj 66 7 bng 20 250 50 0 empty empty E 3 10 0 10 -262130 -1 -1;
#X obj 89 7 bng 20 250 50 0 empty empty F 3 10 0 10 -262130 -1 -1;
#X obj 112 7 bng 20 250 50 0 empty empty G 3 10 0 10 -262130 -1 -1
;
#X obj 135 6 bng 20 250 50 0 empty empty A 3 10 0 10 -262130 -1 -1
;
#X obj 157 6 bng 20 250 50 0 empty empty B 3 10 0 10 -262130 -1 -1
;
#X obj 32 29 bng 20 250 50 0 empty empty C$ 3 10 0 10 -203904 -1 -1
;
#X obj 55 29 bng 20 250 50 0 empty empty Eb 3 10 0 10 -203904 -1 -1
;
#X obj 103 28 bng 20 250 50 0 empty empty F$ 3 10 0 10 -203904 -1 -1
;
#X obj 126 28 bng 20 250 50 0 empty empty Ab 3 10 0 10 -203904 -1 -1
;
#X obj 149 28 bng 20 250 50 0 empty empty Bb 3 10 0 10 -203904 -1 -1
;
#X msg 240 88 48 52 54 58;
#X obj 349 6 bng 25 250 50 0 empty empty X7b5 3 12 0 9 -261234 -1 -1
;
#X obj 241 6 bng 25 250 50 0 empty empty XM 3 12 0 10 -262144 -1 -1
;
#X msg 241 69 48 52 55;
#X obj 434 6 bng 25 250 50 0 empty empty Xm 3 12 0 10 -262130 -1 -1
;
#X msg 242 51 48 51 55;
#X obj 281 464 poly 4;
#X obj 272 505 route 1 2 3 4;
#X obj 273 485 pack f f f;
#X obj 24 -103 stripnote;
#X obj 226 372 + 12;
#X obj 261 371 + 12;
#X obj 296 371 + 12;
#X obj 329 371 + 12;
#X text 14 -17 1)choose the root by Midi input;
#X obj 277 443 makenote 100 80;
#X text 239 -15 2) choose arrangement by clicking;
#X obj 623 -11 select 1 2 3 4 5 6 7 8 9 10 11 12 13;
#X obj 651 -49 random 13;
#X floatatom 651 -30 5 0 0 0 - - -;
#X obj 33 -84 bng 15 250 50 0 empty empty empty 17 7 0 10 -262144 -1
-1;
#X text 646 -82 2) or random by connecting the bang under stripnote
to the random inlet;
#X floatatom -201 -75 5 0 0 0 - - -;
#X obj -202 -56 select 1 2 3 4 5 6 7 8 9 10 11 12;
#X obj -202 -95 random 12;
#X obj -202 -117 metro;
#X obj -202 -139 tgl 15 0 empty empty empty 17 7 0 10 -262144 -1 -1
0 1;
#X obj 301 607 pipe;
#X obj 301 530 r metro;
#X obj 302 551 / 4;
#X floatatom 302 587 5 0 0 0 - - -;
#X obj 356 608 pipe;
#X obj 356 531 r metro;
#X obj 357 552 / 4;
#X floatatom 357 588 5 0 0 0 - - -;
#X obj 357 571 * 2;
#X obj 413 608 pipe;
#X obj 413 531 r metro;
#X obj 414 552 / 4;
#X floatatom 414 588 5 0 0 0 - - -;
#X obj 414 571 * 3;
#X text 457 589 0 if not arpegiated;
#X floatatom 238 -84 5 0 0 0 - - -;
#X obj 24 -56 select 60 61 62 62 64 65 66 67 68 69 70 71;
#X obj 215 644 s note1;
#X obj 423 646 s note4;
#X obj 359 644 s note3;
#X obj 295 643 s note2;
#X obj -64 400 s note5;
#X obj 16 399 s note6;
#X obj 80 400 s note7;
#X obj 144 402 s note8;
#X obj -202 -161 z-armfloat;
#X obj -174 -139 r Mmetro;
#X obj -127 -212 inlet;
#X obj 19 -165 inlet;
#X obj 67 -168 inlet;
#X obj 505 257 inlet;
#X obj 553 254 inlet;
#X obj 602 260 inlet;
#X obj -142 -186 tgl 15 0 empty empty empty 17 7 0 10 -262144 -1 -1
0 1;
#X obj -202 -183 r Mbang;
#X connect 0 0 6 0;
#X connect 1 0 69 0;
#X connect 2 0 69 0;
#X connect 3 0 69 0;
#X connect 4 0 69 0;
#X connect 5 0 11 1;
#X connect 5 1 12 1;
#X connect 5 2 13 1;
#X connect 5 3 14 1;
#X connect 6 0 5 0;
#X connect 7 0 8 0;
#X connect 8 0 5 0;
#X connect 9 0 10 0;
#X connect 10 0 5 0;
#X connect 11 0 64 0;
#X connect 11 0 102 0;
#X connect 12 0 65 0;
#X connect 12 0 103 0;
#X connect 13 0 66 0;
#X connect 13 0 104 0;
#X connect 14 0 67 0;
#X connect 14 0 105 0;
#X connect 15 0 11 0;
#X connect 15 0 12 0;
#X connect 15 0 13 0;
#X connect 15 0 14 0;
#X connect 16 0 17 0;
#X connect 17 0 5 0;
#X connect 18 0 15 0;
#X connect 19 0 15 0;
#X connect 20 0 15 0;
#X connect 21 0 15 0;
#X connect 22 0 15 0;
#X connect 23 0 15 0;
#X connect 24 0 15 0;
#X connect 25 0 15 0;
#X connect 26 0 15 0;
#X connect 27 0 15 0;
#X connect 28 0 15 0;
#X connect 29 0 15 0;
#X connect 30 0 31 0;
#X connect 31 0 5 0;
#X connect 32 0 33 0;
#X connect 33 0 5 0;
#X connect 34 0 35 0;
#X connect 35 0 5 0;
#X connect 36 0 37 0;
#X connect 37 0 5 0;
#X connect 38 0 39 0;
#X connect 39 0 5 0;
#X connect 40 0 41 0;
#X connect 41 0 5 0;
#X connect 42 0 18 0;
#X connect 43 0 20 0;
#X connect 44 0 22 0;
#X connect 45 0 23 0;
#X connect 46 0 25 0;
#X connect 47 0 27 0;
#X connect 48 0 29 0;
#X connect 49 0 19 0;
#X connect 50 0 21 0;
#X connect 51 0 24 0;
#X connect 52 0 26 0;
#X connect 53 0 28 0;
#X connect 54 0 5 0;
#X connect 55 0 54 0;
#X connect 56 0 57 0;
#X connect 57 0 5 0;
#X connect 58 0 59 0;
#X connect 59 0 5 0;
#X connect 60 0 62 0;
#X connect 60 1 62 1;
#X connect 60 2 62 2;
#X connect 61 0 98 0;
#X connect 61 1 81 0;
#X connect 61 2 85 0;
#X connect 61 3 90 0;
#X connect 62 0 61 0;
#X connect 63 0 74 0;
#X connect 63 0 97 0;
#X connect 63 1 69 1;
#X connect 64 0 1 0;
#X connect 65 0 2 0;
#X connect 66 0 3 0;
#X connect 67 0 4 0;
#X connect 69 0 60 0;
#X connect 69 1 60 1;
#X connect 71 0 56 0;
#X connect 71 1 9 0;
#X connect 71 2 38 0;
#X connect 71 3 7 0;
#X connect 71 4 55 0;
#X connect 71 5 34 0;
#X connect 71 6 36 0;
#X connect 71 7 58 0;
#X connect 71 8 16 0;
#X connect 71 9 40 0;
#X connect 71 10 0 0;
#X connect 71 11 32 0;
#X connect 71 12 30 0;
#X connect 72 0 73 0;
#X connect 73 0 71 0;
#X connect 74 0 72 0;
#X connect 76 0 77 0;
#X connect 77 0 42 0;
#X connect 77 1 43 0;
#X connect 77 2 44 0;
#X connect 77 3 45 0;
#X connect 77 4 46 0;
#X connect 77 5 47 0;
#X connect 77 6 48 0;
#X connect 77 7 49 0;
#X connect 77 8 50 0;
#X connect 77 9 51 0;
#X connect 77 10 52 0;
#X connect 77 11 53 0;
#X connect 78 0 76 0;
#X connect 79 0 78 0;
#X connect 79 0 72 0;
#X connect 80 0 79 0;
#X connect 81 0 101 0;
#X connect 82 0 83 0;
#X connect 83 0 84 0;
#X connect 84 0 81 1;
#X connect 85 0 100 0;
#X connect 86 0 87 0;
#X connect 87 0 89 0;
#X connect 88 0 85 1;
#X connect 89 0 88 0;
#X connect 90 0 99 0;
#X connect 91 0 92 0;
#X connect 92 0 94 0;
#X connect 93 0 90 1;
#X connect 94 0 93 0;
#X connect 97 0 42 0;
#X connect 97 1 43 0;
#X connect 97 2 44 0;
#X connect 97 3 45 0;
#X connect 97 4 46 0;
#X connect 97 5 47 0;
#X connect 97 6 48 0;
#X connect 97 7 49 0;
#X connect 97 8 50 0;
#X connect 97 9 51 0;
#X connect 97 10 52 0;
#X connect 97 11 53 0;
#X connect 106 0 80 0;
#X connect 107 0 79 1;
#X connect 108 0 114 0;
#X connect 109 0 63 0;
#X connect 110 0 63 1;
#X connect 111 0 83 1;
#X connect 112 0 87 1;
#X connect 113 0 92 1;
#X connect 114 0 106 1;
#X connect 115 0 106 0;
#X coords 0 1 100 -1 620 70 1 0 0;
#X restore 104 146 graph;
#X obj 349 129 r vel;
#X obj 226 128 r note;
#X floatatom 471 112 5 0 0 0 - - -;
#X obj 478 84 knob 25 25 0 127 0 0 empty empty empty 0 -8 32 8 -1 -4034
-260097 0 1;
#X floatatom 594 111 5 0 0 0 - - -;
#X obj 603 83 knob 25 25 0 127 0 0 empty empty empty 0 -8 32 8 -1 -4034
-260097 0 1;
#X floatatom 717 112 5 0 0 0 - - -;
#X obj 726 84 knob 25 25 0 127 0 0 empty empty empty 0 -8 32 8 -1 -4034
-260097 0 1;
#X obj 471 129 / 40;
#X obj 594 128 / 40;
#X obj 717 129 / 40;
#X text 463 61 2nd note delay;
#X text 590 60 3rd note delay;
#X text 707 59 4th note delay;
#X text 95 112 Random;
#X obj 106 63 declare -path z_armfloat_abs;
#X connect 0 0 1 0;
#X connect 0 1 2 0;
#X connect 0 2 3 0;
#X connect 1 0 15 1;
#X connect 2 0 15 2;
#X connect 4 0 12 0;
#X connect 5 0 12 1;
#X connect 6 0 12 2;
#X connect 7 0 12 3;
#X connect 12 0 13 0;
#X connect 14 0 15 0;
#X connect 16 0 15 2;
#X connect 17 0 15 1;
#X connect 18 0 24 0;
#X connect 19 0 18 0;
#X connect 20 0 25 0;
#X connect 21 0 20 0;
#X connect 22 0 26 0;
#X connect 23 0 22 0;
#X connect 24 0 15 3;
#X connect 25 0 15 4;
#X connect 26 0 15 5;
