#N canvas 459 208 307 157 10;
#N canvas 0 22 450 300 (subpatch) 0;
#X floatatom -80 59 5 0 0 0 - - -;
#X obj -80 134 line;
#X obj -80 81 pack f f;
#X obj -80 104 unpack f f;
#X floatatom -79 164 5 0 0 0 - - -;
#X floatatom 2 32 5 0 0 0 - - -;
#X obj 2 3 knob 25 25 0 127 0 0 empty empty Gliss_Length 30 5 32 8
-1 -260097 -260097 0 1;
#X floatatom 2 51 5 0 0 0 - - -;
#X obj 71 -22 * 10;
#X obj -80 35 inlet;
#X obj -80 186 outlet;
#X obj 71 -43 inlet;
#X connect 0 0 2 0;
#X connect 1 0 4 0;
#X connect 2 0 3 0;
#X connect 3 0 1 0;
#X connect 3 1 1 1;
#X connect 4 0 10 0;
#X connect 5 0 8 0;
#X connect 6 0 5 0;
#X connect 7 0 2 1;
#X connect 8 0 7 0;
#X connect 9 0 0 0;
#X connect 11 0 8 1;
#X coords 0 1 100 -1 100 68 1 0 0;
#X restore 100 20 graph;
