#N canvas 0 22 553 386 10;
#N canvas 0 22 450 300 transloss 0;
#N canvas 0 22 1009 720 --------------------htree 0;
#X obj 22 772 outlet;
#X obj 37 39 inlet;
#X obj 94 466 *;
#X obj 143 498 *;
#X obj 196 528 *;
#X obj 245 557 *;
#X obj 295 595 *;
#X obj 344 634 *;
#X obj 395 670 *;
#N canvas 0 22 450 384 rir 0;
#X obj 122 132 random 7;
#X obj 186 131 random 6;
#X obj 122 159 + 1;
#X obj 186 159 + 1;
#X obj 122 292 outlet;
#X obj 122 267 /;
#X obj 122 24 inlet;
#X obj 122 186 pack f f;
#X obj 237 105 - 1;
#X obj 122 76 t b b f f;
#X obj 122 50 max 3;
#X obj 122 209 sort;
#X obj 122 234 unpack f f;
#X connect 0 0 2 0;
#X connect 1 0 3 0;
#X connect 2 0 7 0;
#X connect 3 0 7 1;
#X connect 5 0 4 0;
#X connect 6 0 10 0;
#X connect 7 0 11 0;
#X connect 8 0 1 1;
#X connect 9 0 0 0;
#X connect 9 1 1 0;
#X connect 9 2 0 1;
#X connect 9 3 8 0;
#X connect 10 0 9 0;
#X connect 11 0 12 0;
#X connect 12 0 5 0;
#X connect 12 1 5 1;
#X restore 93 219 pd rir;
#X obj 230 37 inlet;
#X obj 21 220 f;
#X obj 184 320 pack f f f f f f f;
#X obj 184 367 unpack f f f f f f f;
#X obj 260 165 t f f f f f f f;
#X obj 230 126 t b f;
#X obj 37 84 t f b;
#X obj 184 343 sort -1;
#X obj 110 442 pow -1;
#X obj 161 475 pow -1;
#X obj 213 504 pow -1;
#X obj 265 535 pow -1;
#X obj 310 572 pow -1;
#X obj 360 611 pow -1;
#X obj 411 646 pow -1;
#X obj 22 743 pack f f f f f f f f;
#X text 168 823 http://www.csounds.com/ezine/trees/;
#X text 167 806 Based on the musings of Jacob T. Joaquin;
#X text 167 842 ajf2006;
#X text 167 788 Sorted harmonic tree;
#N canvas 0 22 450 384 rir 0;
#X obj 122 132 random 7;
#X obj 186 131 random 6;
#X obj 122 159 + 1;
#X obj 186 159 + 1;
#X obj 122 292 outlet;
#X obj 122 267 /;
#X obj 122 24 inlet;
#X obj 122 186 pack f f;
#X obj 237 105 - 1;
#X obj 122 76 t b b f f;
#X obj 122 50 max 3;
#X obj 122 209 sort;
#X obj 122 234 unpack f f;
#X connect 0 0 2 0;
#X connect 1 0 3 0;
#X connect 2 0 7 0;
#X connect 3 0 7 1;
#X connect 5 0 4 0;
#X connect 6 0 10 0;
#X connect 7 0 11 0;
#X connect 8 0 1 1;
#X connect 9 0 0 0;
#X connect 9 1 1 0;
#X connect 9 2 0 1;
#X connect 9 3 8 0;
#X connect 10 0 9 0;
#X connect 11 0 12 0;
#X connect 12 0 5 0;
#X connect 12 1 5 1;
#X restore 147 219 pd rir;
#N canvas 0 22 450 384 rir 0;
#X obj 122 132 random 7;
#X obj 186 131 random 6;
#X obj 122 159 + 1;
#X obj 186 159 + 1;
#X obj 122 292 outlet;
#X obj 122 267 /;
#X obj 122 24 inlet;
#X obj 122 186 pack f f;
#X obj 237 105 - 1;
#X obj 122 76 t b b f f;
#X obj 122 50 max 3;
#X obj 122 209 sort;
#X obj 122 234 unpack f f;
#X connect 0 0 2 0;
#X connect 1 0 3 0;
#X connect 2 0 7 0;
#X connect 3 0 7 1;
#X connect 5 0 4 0;
#X connect 6 0 10 0;
#X connect 7 0 11 0;
#X connect 8 0 1 1;
#X connect 9 0 0 0;
#X connect 9 1 1 0;
#X connect 9 2 0 1;
#X connect 9 3 8 0;
#X connect 10 0 9 0;
#X connect 11 0 12 0;
#X connect 12 0 5 0;
#X connect 12 1 5 1;
#X restore 201 219 pd rir;
#N canvas 0 22 450 384 rir 0;
#X obj 122 132 random 7;
#X obj 186 131 random 6;
#X obj 122 159 + 1;
#X obj 186 159 + 1;
#X obj 122 292 outlet;
#X obj 122 267 /;
#X obj 122 24 inlet;
#X obj 122 186 pack f f;
#X obj 237 105 - 1;
#X obj 122 76 t b b f f;
#X obj 122 50 max 3;
#X obj 122 209 sort;
#X obj 122 234 unpack f f;
#X connect 0 0 2 0;
#X connect 1 0 3 0;
#X connect 2 0 7 0;
#X connect 3 0 7 1;
#X connect 5 0 4 0;
#X connect 6 0 10 0;
#X connect 7 0 11 0;
#X connect 8 0 1 1;
#X connect 9 0 0 0;
#X connect 9 1 1 0;
#X connect 9 2 0 1;
#X connect 9 3 8 0;
#X connect 10 0 9 0;
#X connect 11 0 12 0;
#X connect 12 0 5 0;
#X connect 12 1 5 1;
#X restore 255 219 pd rir;
#N canvas 0 22 450 384 rir 0;
#X obj 122 132 random 7;
#X obj 186 131 random 6;
#X obj 122 159 + 1;
#X obj 186 159 + 1;
#X obj 122 292 outlet;
#X obj 122 267 /;
#X obj 122 24 inlet;
#X obj 122 186 pack f f;
#X obj 237 105 - 1;
#X obj 122 76 t b b f f;
#X obj 122 50 max 3;
#X obj 122 209 sort;
#X obj 122 234 unpack f f;
#X connect 0 0 2 0;
#X connect 1 0 3 0;
#X connect 2 0 7 0;
#X connect 3 0 7 1;
#X connect 5 0 4 0;
#X connect 6 0 10 0;
#X connect 7 0 11 0;
#X connect 8 0 1 1;
#X connect 9 0 0 0;
#X connect 9 1 1 0;
#X connect 9 2 0 1;
#X connect 9 3 8 0;
#X connect 10 0 9 0;
#X connect 11 0 12 0;
#X connect 12 0 5 0;
#X connect 12 1 5 1;
#X restore 306 219 pd rir;
#N canvas 0 22 450 384 rir 0;
#X obj 122 132 random 7;
#X obj 186 131 random 6;
#X obj 122 159 + 1;
#X obj 186 159 + 1;
#X obj 122 292 outlet;
#X obj 122 267 /;
#X obj 122 24 inlet;
#X obj 122 186 pack f f;
#X obj 237 105 - 1;
#X obj 122 76 t b b f f;
#X obj 122 50 max 3;
#X obj 122 209 sort;
#X obj 122 234 unpack f f;
#X connect 0 0 2 0;
#X connect 1 0 3 0;
#X connect 2 0 7 0;
#X connect 3 0 7 1;
#X connect 5 0 4 0;
#X connect 6 0 10 0;
#X connect 7 0 11 0;
#X connect 8 0 1 1;
#X connect 9 0 0 0;
#X connect 9 1 1 0;
#X connect 9 2 0 1;
#X connect 9 3 8 0;
#X connect 10 0 9 0;
#X connect 11 0 12 0;
#X connect 12 0 5 0;
#X connect 12 1 5 1;
#X restore 360 219 pd rir;
#N canvas 0 22 450 384 rir 0;
#X obj 122 132 random 7;
#X obj 186 131 random 6;
#X obj 122 159 + 1;
#X obj 186 159 + 1;
#X obj 122 292 outlet;
#X obj 122 267 /;
#X obj 122 24 inlet;
#X obj 122 186 pack f f;
#X obj 237 105 - 1;
#X obj 122 76 t b b f f;
#X obj 122 50 max 3;
#X obj 122 209 sort;
#X obj 122 234 unpack f f;
#X connect 0 0 2 0;
#X connect 1 0 3 0;
#X connect 2 0 7 0;
#X connect 3 0 7 1;
#X connect 5 0 4 0;
#X connect 6 0 10 0;
#X connect 7 0 11 0;
#X connect 8 0 1 1;
#X connect 9 0 0 0;
#X connect 9 1 1 0;
#X connect 9 2 0 1;
#X connect 9 3 8 0;
#X connect 10 0 9 0;
#X connect 11 0 12 0;
#X connect 12 0 5 0;
#X connect 12 1 5 1;
#X restore 414 219 pd rir;
#X connect 1 0 16 0;
#X connect 2 0 3 0;
#X connect 2 0 25 1;
#X connect 3 0 4 0;
#X connect 3 0 25 2;
#X connect 4 0 5 0;
#X connect 4 0 25 3;
#X connect 5 0 6 0;
#X connect 5 0 25 4;
#X connect 6 0 7 0;
#X connect 6 0 25 5;
#X connect 7 0 8 0;
#X connect 7 0 25 6;
#X connect 8 0 25 7;
#X connect 9 0 12 0;
#X connect 10 0 15 0;
#X connect 11 0 2 0;
#X connect 11 0 25 0;
#X connect 12 0 17 0;
#X connect 13 0 18 0;
#X connect 13 1 19 0;
#X connect 13 2 20 0;
#X connect 13 3 21 0;
#X connect 13 4 22 0;
#X connect 13 5 23 0;
#X connect 13 6 24 0;
#X connect 14 0 9 0;
#X connect 14 1 30 0;
#X connect 14 2 31 0;
#X connect 14 3 32 0;
#X connect 14 4 33 0;
#X connect 14 5 34 0;
#X connect 14 6 35 0;
#X connect 15 0 11 0;
#X connect 15 1 14 0;
#X connect 16 0 11 1;
#X connect 16 1 15 0;
#X connect 17 0 13 0;
#X connect 18 0 2 1;
#X connect 19 0 3 1;
#X connect 20 0 4 1;
#X connect 21 0 5 1;
#X connect 22 0 6 1;
#X connect 23 0 7 1;
#X connect 24 0 8 1;
#X connect 25 0 0 0;
#X connect 30 0 12 1;
#X connect 31 0 12 2;
#X connect 32 0 12 3;
#X connect 33 0 12 4;
#X connect 34 0 12 5;
#X connect 35 0 12 6;
#X restore 29 123 pd --------------------htree;
#N canvas 0 22 450 300 1-x 0;
#X obj 158 141 -;
#X msg 147 116 1;
#X obj 153 92 t b f;
#X obj 153 69 inlet;
#X obj 158 164 outlet;
#X connect 0 0 4 0;
#X connect 1 0 0 0;
#X connect 2 0 1 0;
#X connect 2 1 0 1;
#X connect 3 0 2 0;
#X restore 242 122 pd 1-x;
#N canvas 0 22 450 300 nextrandomkey 0;
#X obj 141 217 mtof;
#X obj 141 194 + 20;
#X obj 141 82 f 0;
#X obj 141 105 + 1;
#X obj 141 127 mod 12;
#X obj 141 149 sel 0;
#X obj 141 172 random 12;
#X obj 141 34 inlet;
#X obj 141 58 b;
#X obj 141 240 outlet;
#X obj 205 33 inlet base;
#X connect 0 0 9 0;
#X connect 1 0 0 0;
#X connect 2 0 3 0;
#X connect 3 0 2 1;
#X connect 3 0 4 0;
#X connect 4 0 5 0;
#X connect 5 0 6 0;
#X connect 6 0 1 0;
#X connect 7 0 8 0;
#X connect 8 0 2 0;
#X connect 10 0 1 1;
#X restore 29 91 pd nextrandomkey;
#N canvas 0 22 411 147 init 0;
#X obj 109 25 loadbang;
#X msg 24 56 42;
#X msg 109 58 2.9;
#X msg 187 57 65;
#X obj 24 82 s \$0-pitch;
#X obj 109 81 s \$0-decay;
#X obj 187 81 s \$0-verb;
#X msg 257 56 4;
#X obj 257 80 s \$0-ratiomax;
#X connect 0 0 1 0;
#X connect 0 0 2 0;
#X connect 0 0 3 0;
#X connect 0 0 7 0;
#X connect 1 0 4 0;
#X connect 2 0 5 0;
#X connect 3 0 6 0;
#X connect 7 0 8 0;
#X restore 296 122 pd init;
#X obj 412 33 inlet hratio;
#X obj 220 98 f 4;
#X obj 412 57 int;
#X text 48 237 Sorted harmonic tree of simple integer ratios in 12
tones;
#X text 50 330 Andy Farnell 2006;
#X text 49 253 Based on an impression \, collectively of the music
of Air \, Brian Reitzell \, Kevin Shields \, Roger J. Manning \, William
Storkson. Since it turned out nothing like any piece I can find in
the film the piece deserves the title. :);
#X obj 148 212 outlet tree;
#X obj 29 34 inlet advance;
#X obj 136 34 inlet base;
#X connect 0 0 10 0;
#X connect 2 0 0 0;
#X connect 4 0 6 0;
#X connect 5 0 0 1;
#X connect 6 0 5 1;
#X connect 11 0 2 0;
#X connect 11 0 5 0;
#X connect 12 0 2 1;
#X restore 240 172 pd transloss;
#X obj 240 127 tgl 15 0 empty empty go 0 -6 0 8 -258699 -1 -1 1 1;
#X obj 347 105 vsl 12 64 30 50 0 0 empty \$0-pitch pitch 0 -8 0 8 -24198
-1 -1 6000 1;
#X obj 380 105 vsl 12 64 2 12 1 0 empty \$0-ratiomax ratio 0 -8 0 8
-258699 -1 -1 2800 1;
#X obj 240 149 metro 200;
#X obj 291 129 r Mmetro;
#X obj 244 205 s note1;
#X floatatom 331 205 5 0 0 0 - - -;
#X connect 0 0 6 0;
#X connect 0 0 7 0;
#X connect 1 0 4 0;
#X connect 2 0 0 1;
#X connect 3 0 0 2;
#X connect 4 0 0 0;
#X connect 5 0 4 1;
