#N canvas 0 22 624 408 10;
#X obj -16 78 r noteArp;
#X floatatom 246 111 5 0 0 0 - - -;
#X floatatom 247 161 5 0 0 0 - - -;
#X obj 247 134 * 10;
#X obj 246 62 ctlin 1;
#X floatatom 411 111 5 0 0 0 - - -;
#X floatatom 412 161 5 0 0 0 - - -;
#X obj 412 134 * 10;
#X obj 411 64 ctlin 2;
#X floatatom -16 103 5 0 0 0 - - -;
#X obj 156 257 + 12;
#X obj 319 255 - 12;
#X text 246 41 Delay1;
#X text 414 45 Delay2;
#X floatatom 176 112 5 0 0 0 - - -;
#X floatatom 177 162 5 0 0 0 - - -;
#X obj 176 64 ctlin 3;
#X obj 177 135 / 10;
#X text 176 43 Transpose1;
#X floatatom 339 111 5 0 0 0 - - -;
#X floatatom 340 161 5 0 0 0 - - -;
#X obj 340 134 / 10;
#X text 339 45 Transpose2;
#X obj 204 293 pipe 250;
#X obj 368 290 pipe 500;
#X obj 60 78 r velArp;
#X floatatom 60 102 5 0 0 0 - - -;
#X obj 469 287 pipe 250;
#X obj 543 284 pipe 500;
#X floatatom 560 109 5 0 0 0 - - -;
#X floatatom 561 159 5 0 0 0 - - -;
#X obj 561 132 / 10;
#X obj 450 247 - 10;
#X obj 339 64 ctlin 4;
#X obj 560 62 ctlin 5;
#X text 560 41 Attenuate;
#X obj 523 245 - 10;
#X obj -7 369 s ArpNote;
#X obj 55 369 s ArpVel;
#X obj 188 83 knob 25 25 0 127 0 0 empty empty empty 0 -8 32 8 -1 -260097
-260097 0 1;
#X obj 260 82 knob 25 25 0 127 0 0 empty empty empty 0 -8 32 8 -1 -260097
-260097 0 1;
#X obj 352 83 knob 25 25 0 127 0 0 empty empty empty 0 -8 32 8 -1 -260097
-260097 0 1;
#X obj 421 83 knob 25 25 0 127 0 0 empty empty empty 0 -8 32 8 -1 -260097
-260097 0 1;
#X obj 571 81 knob 25 25 0 127 0 0 empty empty empty 0 -8 32 8 -1 -260097
-260097 0 1;
#X connect 0 0 9 0;
#X connect 1 0 3 0;
#X connect 2 0 23 1;
#X connect 2 0 27 1;
#X connect 3 0 2 0;
#X connect 4 0 1 0;
#X connect 4 0 40 0;
#X connect 5 0 7 0;
#X connect 6 0 24 1;
#X connect 6 0 28 1;
#X connect 7 0 6 0;
#X connect 8 0 5 0;
#X connect 8 0 42 0;
#X connect 9 0 10 0;
#X connect 9 0 11 0;
#X connect 9 0 37 0;
#X connect 10 0 23 0;
#X connect 11 0 24 0;
#X connect 14 0 17 0;
#X connect 15 0 10 1;
#X connect 16 0 14 0;
#X connect 16 0 39 0;
#X connect 17 0 15 0;
#X connect 19 0 21 0;
#X connect 20 0 11 1;
#X connect 21 0 20 0;
#X connect 23 0 37 0;
#X connect 24 0 37 0;
#X connect 25 0 26 0;
#X connect 26 0 32 0;
#X connect 26 0 38 0;
#X connect 27 0 38 0;
#X connect 28 0 38 0;
#X connect 29 0 31 0;
#X connect 30 0 32 1;
#X connect 30 0 36 1;
#X connect 31 0 30 0;
#X connect 32 0 27 0;
#X connect 32 0 36 0;
#X connect 33 0 19 0;
#X connect 33 0 41 0;
#X connect 34 0 29 0;
#X connect 34 0 43 0;
#X connect 36 0 28 0;
#X connect 39 0 14 0;
#X connect 40 0 1 0;
#X connect 41 0 19 0;
#X connect 42 0 5 0;
#X connect 43 0 29 0;
