#N canvas 0 22 983 678 10;
#X obj 468 106 metro 150;
#X obj 468 145 i;
#X obj 496 144 + 1;
#X obj 632 235 t b b;
#X msg 488 83 0;
#X msg 528 126 0;
#X obj 352 121 bng 15 250 50 0 empty empty empty 17 7 0 10 -262144
-4160 -1;
#X text 210 229 Link ud;
#X obj 332 121 bng 15 250 50 0 empty empty empty 17 7 0 10 -262144
-4034 -1;
#X obj 352 139 bng 15 250 50 0 empty empty empty 17 7 0 10 -262144
-258113 -1;
#X obj 659 475 outlet;
#X obj 709 475 outlet;
#X obj 759 475 outlet;
#X obj 809 475 outlet;
#X text 657 495 send bang to others to activate them;
#X text 681 234 when 17 is reached stop the metro \, output a bang
to one of the Link ud outlets \, and reset metro counter.;
#X text 153 10 takes a bang sends it to toggle a metro \, and to light
a bang in the GOP;
#X text 734 279 randomly choose the output;
#X text 677 -49 * outputs a bang if no arguments are given;
#X obj 508 -49 unpack f f f f f f f f f f;
#X obj 306 427 s synth-note;
#X text 621 -96 make as creation arguments duration (sel 17) \, speed
(metro) \, base note and scale-id (1-13) \, probability for outputs
;
#N canvas 0 22 1024 720 (subpatch) 0;
#X obj 78 7 popup 124 25 #ffffff popup Major Middle-East-Minor Lydian-Dominant
Harmonic-Minor Chromatic-Blues Whole-Tones Diminished Pentantonic Pentatonic-blues
Gaku-Joshi In-Sen Hira-Jochi Yo Ryo Iwato Tamuke;
#X obj 313 -67 loadbang;
#X msg 356 -17 options Major Middle-East-Minor Lydian-Dominant Harmonic-Minor
Chromatic-Blues Whole-Tones Diminished Pentantonic Pentatonic-blues
Gaku-Joshi In-Sen Hira-Jochi Yo Ryo Iwato Tamuke;
#N canvas 0 22 1024 720 scales---------------- 0;
#X text 350 -387 major;
#X msg 285 -253 0 2 3 5 6 8 9 11;
#X msg 685 -216 0 0.5 1 1.5 2 2.5 3 3.5 4;
#X text 362 -365 middle-east-like minor;
#X text 373 -341 lydian-dominant (jazzy);
#X text 385 -318 harmonic minor;
#X msg 263 -297 0 2 3 4 5 6 7 9 10 11;
#X text 436 -296 chromatic blues;
#X text 396 -273 whole-tones scale;
#X text 428 -251 diminished scale;
#X text 432 -230 pentatonic;
#X text 428 -209 pentatonic blues;
#X msg 690 -194 0 0.33 0.66 1 1.33 1.66 2;
#X msg 696 -171 0 1.5 3 4.5 6 7.5 9 10.5;
#X floatatom 65 25 5 0 0 2 Base - -;
#X msg 766 -267 22 20 25 22 18 17 22 18 10 13 17 15;
#X obj 220 -407 bng 15 250 50 0 empty empty empty 17 7 0 10 -262144
-1 -1;
#X obj 240 -407 bng 15 250 50 0 empty empty empty 17 7 0 10 -262144
-1 -1;
#X obj 260 -407 bng 15 250 50 0 empty empty empty 17 7 0 10 -262144
-1 -1;
#X obj 280 -407 bng 15 250 50 0 empty empty empty 17 7 0 10 -262144
-1 -1;
#X text 651 -459 Just bang the scale you want for each form then receive
random notes this patch will just send the closest note in the form/scale
selected.;
#X obj 299 -407 bng 15 250 50 0 empty empty empty 17 7 0 10 -262144
-1 -1;
#X obj 319 -407 bng 15 250 50 0 empty empty empty 17 7 0 10 -262144
-1 -1;
#X obj 339 -407 bng 15 250 50 0 empty empty empty 17 7 0 10 -262144
-1 -1;
#X obj 359 -407 bng 15 250 50 0 empty empty empty 17 7 0 10 -262144
-1 -1;
#X obj 381 -407 bng 15 250 50 0 empty empty empty 17 7 0 10 -262144
-1 -1;
#X obj 214 -502 inlet;
#X text 445 -187 Gaku_joshi;
#X text 450 -165 in_sen;
#X text 458 -145 hira-joshi;
#X text 468 -121 yo;
#X text 478 -102 ryo;
#X text 485 -81 Iwato;
#X text 491 -56 Tamuke;
#X obj 405 -407 bng 15 250 50 0 empty empty empty 17 7 0 10 -262144
-1 -1;
#X obj 425 -407 bng 15 250 50 0 empty empty empty 17 7 0 10 -262144
-1 -1;
#X obj 445 -407 bng 15 250 50 0 empty empty empty 17 7 0 10 -262144
-1 -1;
#X obj 465 -407 bng 15 250 50 0 empty empty empty 17 7 0 10 -262144
-1 -1;
#X obj 484 -407 bng 15 250 50 0 empty empty empty 17 7 0 10 -262144
-1 -1;
#X obj 504 -407 bng 15 250 50 0 empty empty empty 17 7 0 10 -262144
-1 -1;
#X obj 524 -407 bng 15 250 50 0 empty empty empty 17 7 0 10 -262144
-1 -1;
#X obj 544 -407 bng 15 250 50 0 empty empty empty 17 7 0 10 -262144
-1 -1;
#X obj 566 -407 bng 15 250 50 0 empty empty empty 17 7 0 10 -262144
-1 -1;
#X obj 214 -469 route major midle-east-minor lydian-dominant harmonic-minor
chromatic-blues whole-tones diminished pentatonic pentatonic-blues
Gaku-Joshi In-Sen Hira-Joshi Yo Ryo Iwato Tamuke;
#X obj 230 -24 unpack 0 0 0 0 0 0 0 0 0 0;
#X obj 227 2 +;
#X obj 241 20 +;
#X obj 261 38 +;
#X obj 275 56 +;
#X obj 296 3 +;
#X obj 310 21 +;
#X obj 330 39 +;
#X obj 344 57 +;
#X obj 369 11 +;
#X obj 383 29 +;
#X floatatom 105 149 5 0 0 0 - - -;
#X floatatom 141 149 5 0 0 0 - - -;
#X floatatom 176 149 5 0 0 0 - - -;
#X floatatom 211 149 5 0 0 0 - - -;
#X floatatom 246 149 5 0 0 0 - - -;
#X floatatom 280 149 5 0 0 0 - - -;
#X floatatom 314 149 5 0 0 0 - - -;
#X floatatom 348 149 5 0 0 0 - - -;
#X floatatom 596 71 5 0 0 0 - - -;
#X floatatom 630 71 5 0 0 0 - - -;
#X msg 220 -387 0 2 4 5 7 9 11 12;
#X msg 229 -365 0 1 4 5 7 8 11 12;
#X msg 241 -342 0 2 4 6 7 9 10 12;
#X msg 252 -320 0 2 3 5 7 8 11 12;
#X text 107 134 1st;
#X text 144 134 2nd;
#X text 182 134 3rd;
#X text 215 134 4th;
#X text 252 135 5th;
#X text 283 135 6th;
#X text 315 135 7th;
#X text 349 135 8th;
#X msg 273 -275 0 2 4 6 8 10 12 14;
#X msg 293 -231 0 2 4 7 9 12 14 18;
#X msg 301 -209 0 2 3 4 7 8 9 12;
#X msg 312 -187 0 2 4 7 7 9 12 14;
#X msg 319 -165 0 0 1 5 5 7 10 12;
#X msg 327 -144 0 2 3 7 7 9 10 12;
#X msg 336 -123 0 2 4 7 7 9 11 12;
#X msg 343 -102 0 2 4 6 6 9 11 12;
#X msg 350 -80 0 0 1 5 5 6 10 12;
#X msg 361 -58 0 2 3 7 7 9 12 14;
#X obj 127 -102 list2symbol;
#X symbolatom 104 116 40 0 0 2 Scale - -;
#X obj 131 -74 s scale;
#X text 56 226 Tp;
#X obj 35 85 t b;
#X obj 39 -323 inlet;
#X obj 202 210 s \$0-Note1;
#X obj 273 213 s \$0-Note2;
#X obj 334 212 s \$0-Note3;
#X obj 392 210 s \$0-Note4;
#X obj 450 210 s \$0-Note5;
#X obj 506 209 s \$0-Note6;
#X obj 566 208 s \$0-Note7;
#X obj 625 206 s \$0-Note8;
#X connect 1 0 44 0;
#X connect 2 0 44 0;
#X connect 6 0 44 0;
#X connect 12 0 44 0;
#X connect 13 0 44 0;
#X connect 14 0 45 1;
#X connect 14 0 46 1;
#X connect 14 0 47 1;
#X connect 14 0 48 1;
#X connect 14 0 49 1;
#X connect 14 0 50 1;
#X connect 14 0 51 1;
#X connect 14 0 52 1;
#X connect 14 0 53 1;
#X connect 14 0 54 1;
#X connect 14 0 91 0;
#X connect 15 0 44 0;
#X connect 16 0 65 0;
#X connect 17 0 66 0;
#X connect 18 0 67 0;
#X connect 19 0 68 0;
#X connect 21 0 6 0;
#X connect 22 0 77 0;
#X connect 23 0 1 0;
#X connect 24 0 78 0;
#X connect 25 0 79 0;
#X connect 26 0 43 0;
#X connect 26 0 87 0;
#X connect 34 0 80 0;
#X connect 35 0 81 0;
#X connect 36 0 82 0;
#X connect 37 0 83 0;
#X connect 38 0 84 0;
#X connect 39 0 85 0;
#X connect 40 0 86 0;
#X connect 43 0 16 0;
#X connect 43 1 17 0;
#X connect 43 2 18 0;
#X connect 43 3 19 0;
#X connect 43 4 21 0;
#X connect 43 5 22 0;
#X connect 43 6 23 0;
#X connect 43 7 24 0;
#X connect 43 8 25 0;
#X connect 43 9 34 0;
#X connect 43 10 35 0;
#X connect 43 11 36 0;
#X connect 43 12 37 0;
#X connect 43 13 38 0;
#X connect 43 14 39 0;
#X connect 43 15 40 0;
#X connect 44 0 45 0;
#X connect 44 1 46 0;
#X connect 44 2 47 0;
#X connect 44 3 48 0;
#X connect 44 4 49 0;
#X connect 44 5 50 0;
#X connect 44 6 51 0;
#X connect 44 7 52 0;
#X connect 44 8 53 0;
#X connect 44 9 54 0;
#X connect 45 0 55 0;
#X connect 46 0 56 0;
#X connect 47 0 57 0;
#X connect 48 0 58 0;
#X connect 49 0 59 0;
#X connect 50 0 60 0;
#X connect 51 0 61 0;
#X connect 52 0 62 0;
#X connect 53 0 63 0;
#X connect 54 0 64 0;
#X connect 55 0 93 0;
#X connect 56 0 94 0;
#X connect 57 0 95 0;
#X connect 58 0 96 0;
#X connect 59 0 97 0;
#X connect 60 0 98 0;
#X connect 61 0 99 0;
#X connect 62 0 100 0;
#X connect 65 0 44 0;
#X connect 66 0 44 0;
#X connect 67 0 44 0;
#X connect 68 0 44 0;
#X connect 77 0 44 0;
#X connect 78 0 44 0;
#X connect 79 0 44 0;
#X connect 80 0 44 0;
#X connect 81 0 44 0;
#X connect 82 0 44 0;
#X connect 83 0 44 0;
#X connect 84 0 44 0;
#X connect 85 0 44 0;
#X connect 86 0 44 0;
#X connect 87 0 88 0;
#X connect 87 0 89 0;
#X connect 91 0 45 0;
#X connect 91 0 46 0;
#X connect 91 0 47 0;
#X connect 91 0 48 0;
#X connect 91 0 49 0;
#X connect 91 0 50 0;
#X connect 91 0 51 0;
#X connect 91 0 52 0;
#X connect 91 0 53 0;
#X connect 91 0 54 0;
#X connect 92 0 14 0;
#X coords 0 -1 1 1 282 70 2 100 100;
#X restore 2 37 pd scales----------------;
#X msg 435 240 major;
#X msg 449 259 midle-east-minor;
#X msg 464 279 lydian-dominant;
#X msg 478 299 harmonic-minor;
#X msg 493 318 chromatic-blues;
#X msg 508 337 whole-tones;
#X msg 522 356 diminished;
#X msg 537 376 pentatonic;
#X msg 551 396 pentatonic-blues;
#X msg 566 416 Gaku-Joshi;
#X msg 581 435 In-Sen;
#X msg 595 455 Hira-Joshi;
#X msg 610 475 Yo;
#X msg 627 495 Ryo;
#X msg 641 515 Iwato;
#X msg 654 536 Tamuke;
#X floatatom 435 197 5 0 0 0 - - -;
#X obj 435 135 loadbang;
#X obj 435 178 random 13;
#X obj 72 1 cnv 15 135 35 empty empty empty 20 12 0 14 -1 -66577 0
;
#X obj 435 216 sel 0 1 2 3 4 5 6 7 8 9 10 11 12 13;
#X floatatom 549 149 5 0 0 0 - - -;
#X obj -87 -50 inlet base;
#X obj 557 126 inlet scale-id;
#X connect 0 0 20 0;
#X connect 1 0 2 0;
#X connect 2 0 0 0;
#X connect 4 0 3 1;
#X connect 5 0 3 1;
#X connect 6 0 3 1;
#X connect 7 0 3 1;
#X connect 8 0 3 1;
#X connect 9 0 3 1;
#X connect 10 0 3 1;
#X connect 11 0 3 1;
#X connect 12 0 3 1;
#X connect 13 0 3 1;
#X connect 14 0 3 1;
#X connect 15 0 3 1;
#X connect 16 0 3 1;
#X connect 17 0 3 1;
#X connect 18 0 3 1;
#X connect 19 0 3 1;
#X connect 20 0 24 0;
#X connect 21 0 22 0;
#X connect 22 0 20 0;
#X connect 24 0 4 0;
#X connect 24 1 5 0;
#X connect 24 2 6 0;
#X connect 24 3 7 0;
#X connect 24 4 8 0;
#X connect 24 5 9 0;
#X connect 24 6 10 0;
#X connect 24 7 11 0;
#X connect 24 8 12 0;
#X connect 24 9 13 0;
#X connect 24 10 14 0;
#X connect 24 11 15 0;
#X connect 24 12 16 0;
#X connect 24 13 17 0;
#X connect 24 14 18 0;
#X connect 25 0 0 0;
#X connect 26 0 3 0;
#X connect 27 0 25 0;
#X coords 0 1 100 -1 286 110 1 0 0;
#X restore 102 119 graph;
#X obj 660 298 random 100;
#X obj 660 341 bang;
#X obj 705 364 bang;
#X obj 750 385 bang;
#X obj 795 406 bang;
#X obj 660 322 moses 20;
#X obj 705 344 moses 40;
#X obj 750 366 moses 60;
#X obj 795 387 moses 80;
#X obj 842 408 moses 100;
#X obj 842 430 bang;
#X obj 119 17 bang;
#X obj 119 -29 inlet;
#X obj 544 31 r stop;
#X obj 301 285 mod 16;
#X obj 169 -29 r \$0-loop;
#X obj 869 475 s \$0-loop;
#N canvas 0 22 701 498 synth-seq 0;
#X obj 612 439 moses 1;
#X obj 579 212 random 8;
#X text 639 210 play radom notes from the scale entered as messages
;
#X text 966 257 alternate;
#X obj 415 339 f;
#X obj 415 301 bang;
#X obj 478 340 f;
#X obj 478 302 bang;
#X obj 540 340 f;
#X obj 540 302 bang;
#X obj 601 340 f;
#X obj 601 302 bang;
#X obj 663 341 f;
#X obj 663 303 bang;
#X obj 579 235 select 0 1 2 3 4 5 6 7;
#X obj 724 341 f;
#X obj 724 303 bang;
#X obj 788 340 f;
#X obj 788 302 bang;
#X obj 851 339 f;
#X obj 851 301 bang;
#X obj 612 413 + 12;
#N canvas 0 25 1022 640 proba-lead 0;
#X obj 313 -236 sel 0 1 2 3 4 5 6 7 8 9 10 11 12 13 14 15;
#N canvas 0 25 1016 640 pct 0;
#X obj 34 -581 random 100;
#X obj 34 -558 moses 50;
#X obj 33 -602 inlet bang;
#X obj 101 -601 inlet percenthits;
#X obj 34 -537 outlet bang;
#X connect 0 0 1 0;
#X connect 1 0 4 0;
#X connect 2 0 0 0;
#X connect 3 0 1 1;
#X restore 131 -193 pd pct;
#X floatatom 139 -209 5 0 100 0 - - -;
#N canvas 0 25 1022 640 pct 0;
#X obj 34 -581 random 100;
#X obj 34 -558 moses 50;
#X obj 33 -602 inlet bang;
#X obj 101 -601 inlet percenthits;
#X obj 34 -537 outlet bang;
#X connect 0 0 1 0;
#X connect 1 0 4 0;
#X connect 2 0 0 0;
#X connect 3 0 1 1;
#X restore 173 -192 pd pct;
#X floatatom 194 -209 5 0 100 0 - - -;
#N canvas 0 25 1022 640 pct 0;
#X obj 34 -581 random 100;
#X obj 34 -558 moses 50;
#X obj 33 -602 inlet bang;
#X obj 101 -601 inlet percenthits;
#X obj 34 -537 outlet bang;
#X connect 0 0 1 0;
#X connect 1 0 4 0;
#X connect 2 0 0 0;
#X connect 3 0 1 1;
#X restore 215 -191 pd pct;
#X floatatom 241 -209 5 0 100 0 - - -;
#N canvas 0 25 1022 640 pct 0;
#X obj 34 -581 random 100;
#X obj 34 -558 moses 50;
#X obj 33 -602 inlet bang;
#X obj 101 -601 inlet percenthits;
#X obj 34 -537 outlet bang;
#X connect 0 0 1 0;
#X connect 1 0 4 0;
#X connect 2 0 0 0;
#X connect 3 0 1 1;
#X restore 257 -190 pd pct;
#X floatatom 283 -207 5 0 100 0 - - -;
#N canvas 0 25 1022 640 pct 0;
#X obj 34 -581 random 100;
#X obj 34 -558 moses 50;
#X obj 33 -602 inlet bang;
#X obj 101 -601 inlet percenthits;
#X obj 34 -537 outlet bang;
#X connect 0 0 1 0;
#X connect 1 0 4 0;
#X connect 2 0 0 0;
#X connect 3 0 1 1;
#X restore 300 -190 pd pct;
#X floatatom 329 -206 5 0 100 0 - - -;
#N canvas 0 25 1022 640 pct 0;
#X obj 34 -581 random 100;
#X obj 34 -558 moses 50;
#X obj 33 -602 inlet bang;
#X obj 101 -601 inlet percenthits;
#X obj 34 -537 outlet bang;
#X connect 0 0 1 0;
#X connect 1 0 4 0;
#X connect 2 0 0 0;
#X connect 3 0 1 1;
#X restore 342 -188 pd pct;
#X floatatom 370 -206 5 0 100 0 - - -;
#N canvas 0 25 1022 640 pct 0;
#X obj 34 -581 random 100;
#X obj 34 -558 moses 50;
#X obj 33 -602 inlet bang;
#X obj 101 -601 inlet percenthits;
#X obj 34 -537 outlet bang;
#X connect 0 0 1 0;
#X connect 1 0 4 0;
#X connect 2 0 0 0;
#X connect 3 0 1 1;
#X restore 389 -187 pd pct;
#X floatatom 408 -204 5 0 100 0 - - -;
#N canvas 0 25 1022 640 pct 0;
#X obj 34 -581 random 100;
#X obj 34 -558 moses 50;
#X obj 33 -602 inlet bang;
#X obj 101 -601 inlet percenthits;
#X obj 34 -537 outlet bang;
#X connect 0 0 1 0;
#X connect 1 0 4 0;
#X connect 2 0 0 0;
#X connect 3 0 1 1;
#X restore 431 -186 pd pct;
#X floatatom 449 -203 5 0 100 0 - - -;
#N canvas 0 25 1016 640 pct 0;
#X obj 34 -581 random 100;
#X obj 34 -558 moses 50;
#X obj 33 -602 inlet bang;
#X obj 101 -601 inlet percenthits;
#X obj 34 -537 outlet bang;
#X connect 0 0 1 0;
#X connect 1 0 4 0;
#X connect 2 0 0 0;
#X connect 3 0 1 1;
#X restore 475 -186 pd pct;
#X floatatom 491 -203 5 0 100 0 - - -;
#N canvas 0 25 1022 640 pct 0;
#X obj 34 -581 random 100;
#X obj 34 -558 moses 50;
#X obj 33 -602 inlet bang;
#X obj 101 -601 inlet percenthits;
#X obj 34 -537 outlet bang;
#X connect 0 0 1 0;
#X connect 1 0 4 0;
#X connect 2 0 0 0;
#X connect 3 0 1 1;
#X restore 517 -186 pd pct;
#X floatatom 531 -202 5 0 100 0 - - -;
#N canvas 0 25 1022 640 pct 0;
#X obj 34 -581 random 100;
#X obj 34 -558 moses 50;
#X obj 33 -602 inlet bang;
#X obj 101 -601 inlet percenthits;
#X obj 34 -537 outlet bang;
#X connect 0 0 1 0;
#X connect 1 0 4 0;
#X connect 2 0 0 0;
#X connect 3 0 1 1;
#X restore 565 -185 pd pct;
#X floatatom 574 -203 5 0 100 0 - - -;
#N canvas 0 25 1022 640 pct 0;
#X obj 34 -581 random 100;
#X obj 34 -558 moses 50;
#X obj 33 -602 inlet bang;
#X obj 101 -601 inlet percenthits;
#X obj 34 -537 outlet bang;
#X connect 0 0 1 0;
#X connect 1 0 4 0;
#X connect 2 0 0 0;
#X connect 3 0 1 1;
#X restore 607 -184 pd pct;
#X floatatom 624 -201 5 0 100 0 - - -;
#N canvas 0 25 1022 640 pct 0;
#X obj 34 -581 random 100;
#X obj 34 -558 moses 50;
#X obj 33 -602 inlet bang;
#X obj 101 -601 inlet percenthits;
#X obj 34 -537 outlet bang;
#X connect 0 0 1 0;
#X connect 1 0 4 0;
#X connect 2 0 0 0;
#X connect 3 0 1 1;
#X restore 649 -183 pd pct;
#X floatatom 672 -202 5 0 100 0 - - -;
#N canvas 0 25 1022 640 pct 0;
#X obj 34 -581 random 100;
#X obj 34 -558 moses 50;
#X obj 33 -602 inlet bang;
#X obj 101 -601 inlet percenthits;
#X obj 34 -537 outlet bang;
#X connect 0 0 1 0;
#X connect 1 0 4 0;
#X connect 2 0 0 0;
#X connect 3 0 1 1;
#X restore 691 -183 pd pct;
#X floatatom 716 -200 5 0 100 0 - - -;
#N canvas 0 25 1022 640 pct 0;
#X obj 34 -581 random 100;
#X obj 34 -558 moses 50;
#X obj 33 -602 inlet bang;
#X obj 101 -601 inlet percenthits;
#X obj 34 -537 outlet bang;
#X connect 0 0 1 0;
#X connect 1 0 4 0;
#X connect 2 0 0 0;
#X connect 3 0 1 1;
#X restore 733 -183 pd pct;
#X floatatom 760 -200 5 0 100 0 - - -;
#N canvas 0 25 1022 640 pct 0;
#X obj 34 -581 random 100;
#X obj 34 -558 moses 50;
#X obj 33 -602 inlet bang;
#X obj 101 -601 inlet percenthits;
#X obj 34 -537 outlet bang;
#X connect 0 0 1 0;
#X connect 1 0 4 0;
#X connect 2 0 0 0;
#X connect 3 0 1 1;
#X restore 775 -183 pd pct;
#X floatatom 801 -200 5 0 100 0 - - -;
#X obj 194 -374 inlet number;
#X obj 594 -409 loadbang;
#X floatatom 177 -263 5 0 0 0 - - -;
#X obj 487 -133 bng 20 250 50 0 empty empty empty 20 8 0 8 -262144
-1 -1;
#X text 470 -154 STEP;
#X obj 487 -107 outlet bang;
#X msg 524 -376 95;
#X msg 557 -375 15;
#X msg 675 -373 50;
#X msg 586 -374 35;
#X msg 629 -373 25;
#X obj 116 -499 r Proba-Lead-1;
#X obj 132 -478 r Proba-Lead-2;
#X obj 166 -455 r Proba-Lead-3;
#X obj 182 -434 r Proba-Lead-4;
#X obj 263 -501 r Proba-Lead-5;
#X obj 279 -480 r Proba-Lead-6;
#X obj 313 -457 r Proba-Lead-7;
#X obj 329 -436 r Proba-Lead-8;
#X obj 407 -510 r Proba-Lead-9;
#X obj 423 -489 r Proba-Lead-10;
#X obj 457 -466 r Proba-Lead-11;
#X obj 473 -445 r Proba-Lead-12;
#X obj 558 -515 r Proba-Lead-13;
#X obj 574 -494 r Proba-Lead-14;
#X obj 608 -471 r Proba-Lead-15;
#X obj 624 -450 r Proba-Lead-16;
#X connect 0 0 1 0;
#X connect 0 1 3 0;
#X connect 0 2 5 0;
#X connect 0 3 7 0;
#X connect 0 4 9 0;
#X connect 0 5 11 0;
#X connect 0 6 13 0;
#X connect 0 7 15 0;
#X connect 0 8 17 0;
#X connect 0 9 19 0;
#X connect 0 10 21 0;
#X connect 0 11 23 0;
#X connect 0 12 25 0;
#X connect 0 13 27 0;
#X connect 0 14 29 0;
#X connect 0 15 31 0;
#X connect 1 0 36 0;
#X connect 2 0 1 1;
#X connect 3 0 36 0;
#X connect 4 0 3 1;
#X connect 5 0 36 0;
#X connect 6 0 5 1;
#X connect 7 0 36 0;
#X connect 8 0 7 1;
#X connect 9 0 36 0;
#X connect 10 0 9 1;
#X connect 11 0 36 0;
#X connect 12 0 11 1;
#X connect 13 0 36 0;
#X connect 14 0 13 1;
#X connect 15 0 36 0;
#X connect 16 0 15 1;
#X connect 17 0 36 0;
#X connect 18 0 17 1;
#X connect 19 0 36 0;
#X connect 20 0 19 1;
#X connect 21 0 36 0;
#X connect 22 0 21 1;
#X connect 23 0 36 0;
#X connect 24 0 23 1;
#X connect 25 0 36 0;
#X connect 26 0 25 1;
#X connect 27 0 36 0;
#X connect 28 0 27 1;
#X connect 29 0 36 0;
#X connect 30 0 29 1;
#X connect 31 0 36 0;
#X connect 32 0 31 1;
#X connect 33 0 35 0;
#X connect 33 0 0 0;
#X connect 34 0 39 0;
#X connect 34 0 40 0;
#X connect 34 0 42 0;
#X connect 34 0 41 0;
#X connect 34 0 43 0;
#X connect 36 0 38 0;
#X connect 39 0 2 0;
#X connect 39 0 18 0;
#X connect 40 0 4 0;
#X connect 40 0 32 0;
#X connect 41 0 10 0;
#X connect 41 0 26 0;
#X connect 42 0 6 0;
#X connect 42 0 14 0;
#X connect 42 0 22 0;
#X connect 42 0 30 0;
#X connect 43 0 8 0;
#X connect 43 0 12 0;
#X connect 43 0 16 0;
#X connect 43 0 20 0;
#X connect 43 0 24 0;
#X connect 43 0 28 0;
#X connect 44 0 2 0;
#X connect 45 0 4 0;
#X connect 46 0 6 0;
#X connect 47 0 8 0;
#X connect 48 0 10 0;
#X connect 49 0 12 0;
#X connect 50 0 14 0;
#X connect 51 0 16 0;
#X connect 52 0 18 0;
#X connect 53 0 20 0;
#X connect 54 0 22 0;
#X connect 55 0 24 0;
#X connect 56 0 26 0;
#X connect 57 0 28 0;
#X connect 58 0 30 0;
#X connect 59 0 32 0;
#X restore 579 189 pd proba-lead;
#X obj 430 320 r \$0-Note1;
#X obj 493 321 r \$0-Note2;
#X obj 555 321 r \$0-Note3;
#X obj 616 321 r \$0-Note4;
#X obj 678 322 r \$0-Note5;
#X obj 739 322 r \$0-Note6;
#X obj 803 321 r \$0-Note7;
#X obj 866 320 r \$0-Note8;
#X obj 953 286 random 3;
#X obj 927 322 sel 0 1 2;
#X obj 619 149 inlet;
#X obj 612 466 outlet;
#X obj 791 251 bang;
#X msg 914 353 24;
#X msg 947 354 36;
#X msg 977 353 48;
#X connect 0 1 34 0;
#X connect 1 0 14 0;
#X connect 4 0 21 0;
#X connect 5 0 4 0;
#X connect 6 0 21 0;
#X connect 7 0 6 0;
#X connect 8 0 21 0;
#X connect 9 0 8 0;
#X connect 10 0 21 0;
#X connect 11 0 10 0;
#X connect 12 0 21 0;
#X connect 13 0 12 0;
#X connect 14 0 5 0;
#X connect 14 1 7 0;
#X connect 14 2 9 0;
#X connect 14 3 11 0;
#X connect 14 4 13 0;
#X connect 14 5 16 0;
#X connect 14 6 18 0;
#X connect 14 7 20 0;
#X connect 15 0 21 0;
#X connect 16 0 15 0;
#X connect 17 0 21 0;
#X connect 18 0 17 0;
#X connect 19 0 21 0;
#X connect 20 0 19 0;
#X connect 21 0 0 0;
#X connect 22 0 1 0;
#X connect 23 0 4 1;
#X connect 24 0 6 1;
#X connect 25 0 8 1;
#X connect 26 0 10 1;
#X connect 27 0 12 1;
#X connect 28 0 15 1;
#X connect 29 0 17 1;
#X connect 30 0 19 1;
#X connect 31 0 32 0;
#X connect 32 0 36 0;
#X connect 32 1 37 0;
#X connect 32 2 38 0;
#X connect 33 0 22 0;
#X connect 33 0 35 0;
#X connect 35 0 31 0;
#X connect 36 0 21 1;
#X connect 37 0 21 1;
#X connect 38 0 21 1;
#X restore 306 403 pd synth-seq;
#X obj 472 362 s time;
#X obj 302 320 t f f f f;
#X floatatom 346 285 5 0 0 0 - - -;
#X obj 468 166 select 32;
#N canvas 0 22 691 511 chord-seq 0;
#X obj 312 369 + 12;
#X obj 351 287 f;
#X obj 351 249 bang;
#X obj 366 268 r \$0-Note5;
#X obj 429 286 f;
#X obj 429 248 bang;
#X obj 444 267 r \$0-Note7;
#X obj 266 286 f;
#X obj 266 248 bang;
#X obj 281 267 r \$0-Note1;
#X obj 297 161 select 2 4 6 12;
#X obj 299 119 inlet;
#X obj 309 412 outlet;
#X connect 0 0 12 0;
#X connect 1 0 0 0;
#X connect 2 0 1 0;
#X connect 3 0 1 1;
#X connect 4 0 0 0;
#X connect 5 0 4 0;
#X connect 6 0 4 1;
#X connect 7 0 0 0;
#X connect 8 0 7 0;
#X connect 9 0 7 1;
#X connect 10 0 8 0;
#X connect 10 1 2 0;
#X connect 10 2 5 0;
#X connect 10 3 8 0;
#X connect 10 3 2 0;
#X connect 10 3 5 0;
#X connect 11 0 10 0;
#X restore 470 404 pd chord-seq;
#X obj 470 428 s arpegio;
#N canvas 0 22 584 611 bass-seq 0;
#N canvas 0 22 635 494 bass-seq 0;
#N canvas 0 25 1016 656 markovselect 0;
#X obj 220 -648 bng 15 250 50 0 empty empty empty 20 8 0 8 -262144
-1 -1;
#X obj 219 -578 bng 15 250 50 0 empty empty empty 20 8 0 8 -262144
-1 -1;
#X msg 221 -559 1;
#X msg 259 -557 2;
#X obj 208 -731 bng 20 250 50 0 empty empty empty 20 8 0 8 -262144
-1 -1;
#X obj 401 -661 bng 15 250 50 0 empty empty empty 20 8 0 8 -262144
-1 -1;
#X obj 414 -571 bng 15 250 50 0 empty empty empty 20 8 0 8 -262144
-1 -1;
#X obj 458 -572 bng 15 250 50 0 empty empty empty 20 8 0 8 -262144
-1 -1;
#X obj 208 -705 f 1;
#X obj 220 -620 random 100;
#X obj 398 -641 random 100;
#X obj 262 -576 bng 15 250 50 0 empty empty empty 0 -6 0 10 -262144
-1 -1;
#X text 336 -752 choose next state from...;
#X obj 208 -683 sel 1 2;
#X msg 414 -553 2;
#X msg 458 -554 1;
#X floatatom 291 -687 5 0 0 0 - - -;
#X floatatom 440 -686 5 0 0 0 - - -;
#X obj 150 -778 r rootorfancy;
#X text 272 -648 root;
#X text 472 -636 fancy;
#X obj 239 -533 s rootorfancy;
#X obj 442 -533 s rootorfancy;
#X obj -94 -588 t b f;
#X floatatom -121 -493 8 0 0 0 - - -;
#X floatatom -49 -494 8 0 0 0 - - -;
#X text -101 -611 this is a switch;
#X obj -109 -560 pack 0 f f;
#X obj -109 -541 route 0;
#X msg -151 -644 1;
#X msg -151 -625 2;
#X text -56 -540 eliminates the 0;
#X obj -153 -678 loadbang;
#X obj -70 -633 t f b;
#X obj 129 -738 sel 1 2;
#X obj -75 -521 route 1 2;
#X text -33 -591 first 0 prevents switching from outputting bang immediately
;
#X floatatom -39 -716 5 0 0 0 - - -;
#X obj -173 -464 outlet roottrigger;
#X obj -59 -464 outlet fancytrigger;
#X obj 266 -778 r bassrootcluster;
#X obj 420 -777 r bassfancycluster;
#X obj 219 -599 moses 50;
#X obj 398 -622 moses 50;
#X obj -64 -749 inlet;
#X connect 0 0 9 0;
#X connect 1 0 2 0;
#X connect 2 0 21 0;
#X connect 3 0 21 0;
#X connect 4 0 8 0;
#X connect 5 0 10 0;
#X connect 6 0 14 0;
#X connect 7 0 15 0;
#X connect 8 0 13 0;
#X connect 9 0 42 0;
#X connect 10 0 43 0;
#X connect 11 0 3 0;
#X connect 13 0 0 0;
#X connect 13 1 5 0;
#X connect 14 0 22 0;
#X connect 15 0 22 0;
#X connect 16 0 42 1;
#X connect 17 0 43 1;
#X connect 18 0 8 1;
#X connect 18 0 34 0;
#X connect 23 0 27 0;
#X connect 23 1 27 2;
#X connect 24 0 38 0;
#X connect 25 0 39 0;
#X connect 27 0 28 0;
#X connect 28 0 35 0;
#X connect 29 0 27 1;
#X connect 30 0 27 1;
#X connect 32 0 29 0;
#X connect 33 0 23 0;
#X connect 33 1 4 0;
#X connect 34 0 29 0;
#X connect 34 1 30 0;
#X connect 35 0 24 0;
#X connect 35 1 25 0;
#X connect 40 0 16 0;
#X connect 41 0 17 0;
#X connect 42 0 1 0;
#X connect 42 1 11 0;
#X connect 43 0 6 0;
#X connect 43 1 7 0;
#X connect 44 0 37 0;
#X connect 44 0 33 0;
#X restore -111 -163 pd markovselect;
#X obj -110 -184 inlet;
#N canvas 0 25 1022 640 markovbassRoot 0;
#N canvas 0 25 1022 640 pct 0;
#X obj 34 -581 random 100;
#X obj 34 -558 moses 50;
#X obj 33 -602 inlet bang;
#X obj 101 -601 inlet percenthits;
#X obj 34 -537 outlet bang;
#X connect 0 0 1 0;
#X connect 1 0 4 0;
#X connect 2 0 0 0;
#X connect 3 0 1 1;
#X restore 188 -712 pd pct;
#X floatatom 210 -730 5 0 100 0 - - -;
#N canvas 0 25 1022 640 pct 0;
#X obj 34 -581 random 100;
#X obj 34 -558 moses 50;
#X obj 33 -602 inlet bang;
#X obj 101 -601 inlet percenthits;
#X obj 34 -537 outlet bang;
#X connect 0 0 1 0;
#X connect 1 0 4 0;
#X connect 2 0 0 0;
#X connect 3 0 1 1;
#X restore 230 -711 pd pct;
#X floatatom 256 -729 5 0 100 0 - - -;
#N canvas 0 25 1022 640 pct 0;
#X obj 34 -581 random 100;
#X obj 34 -558 moses 50;
#X obj 33 -602 inlet bang;
#X obj 101 -601 inlet percenthits;
#X obj 34 -537 outlet bang;
#X connect 0 0 1 0;
#X connect 1 0 4 0;
#X connect 2 0 0 0;
#X connect 3 0 1 1;
#X restore 272 -710 pd pct;
#X floatatom 298 -727 5 0 100 0 - - -;
#N canvas 0 25 1022 640 pct 0;
#X obj 34 -581 random 100;
#X obj 34 -558 moses 50;
#X obj 33 -602 inlet bang;
#X obj 101 -601 inlet percenthits;
#X obj 34 -537 outlet bang;
#X connect 0 0 1 0;
#X connect 1 0 4 0;
#X connect 2 0 0 0;
#X connect 3 0 1 1;
#X restore 315 -710 pd pct;
#X floatatom 344 -726 5 0 100 0 - - -;
#N canvas 0 25 1022 640 pct 0;
#X obj 34 -581 random 100;
#X obj 34 -558 moses 50;
#X obj 33 -602 inlet bang;
#X obj 101 -601 inlet percenthits;
#X obj 34 -537 outlet bang;
#X connect 0 0 1 0;
#X connect 1 0 4 0;
#X connect 2 0 0 0;
#X connect 3 0 1 1;
#X restore 357 -708 pd pct;
#X floatatom 385 -726 5 0 100 0 - - -;
#N canvas 0 25 1022 640 pct 0;
#X obj 34 -581 random 100;
#X obj 34 -558 moses 50;
#X obj 33 -602 inlet bang;
#X obj 101 -601 inlet percenthits;
#X obj 34 -537 outlet bang;
#X connect 0 0 1 0;
#X connect 1 0 4 0;
#X connect 2 0 0 0;
#X connect 3 0 1 1;
#X restore 404 -707 pd pct;
#X floatatom 423 -724 5 0 100 0 - - -;
#N canvas 0 25 1022 640 pct 0;
#X obj 34 -581 random 100;
#X obj 34 -558 moses 50;
#X obj 33 -602 inlet bang;
#X obj 101 -601 inlet percenthits;
#X obj 34 -537 outlet bang;
#X connect 0 0 1 0;
#X connect 1 0 4 0;
#X connect 2 0 0 0;
#X connect 3 0 1 1;
#X restore 446 -706 pd pct;
#X floatatom 464 -723 5 0 100 0 - - -;
#N canvas 0 25 1016 640 pct 0;
#X obj 34 -581 random 100;
#X obj 34 -558 moses 50;
#X obj 33 -602 inlet bang;
#X obj 101 -601 inlet percenthits;
#X obj 34 -537 outlet bang;
#X connect 0 0 1 0;
#X connect 1 0 4 0;
#X connect 2 0 0 0;
#X connect 3 0 1 1;
#X restore 490 -706 pd pct;
#X floatatom 506 -723 5 0 100 0 - - -;
#N canvas 0 25 1022 640 pct 0;
#X obj 34 -581 random 100;
#X obj 34 -558 moses 50;
#X obj 33 -602 inlet bang;
#X obj 101 -601 inlet percenthits;
#X obj 34 -537 outlet bang;
#X connect 0 0 1 0;
#X connect 1 0 4 0;
#X connect 2 0 0 0;
#X connect 3 0 1 1;
#X restore 532 -706 pd pct;
#X floatatom 546 -722 5 0 100 0 - - -;
#N canvas 0 25 1022 640 pct 0;
#X obj 34 -581 random 100;
#X obj 34 -558 moses 50;
#X obj 33 -602 inlet bang;
#X obj 101 -601 inlet percenthits;
#X obj 34 -537 outlet bang;
#X connect 0 0 1 0;
#X connect 1 0 4 0;
#X connect 2 0 0 0;
#X connect 3 0 1 1;
#X restore 580 -705 pd pct;
#X floatatom 589 -723 5 0 100 0 - - -;
#N canvas 0 25 1022 640 pct 0;
#X obj 34 -581 random 100;
#X obj 34 -558 moses 50;
#X obj 33 -602 inlet bang;
#X obj 101 -601 inlet percenthits;
#X obj 34 -537 outlet bang;
#X connect 0 0 1 0;
#X connect 1 0 4 0;
#X connect 2 0 0 0;
#X connect 3 0 1 1;
#X restore 622 -704 pd pct;
#X floatatom 639 -721 5 0 100 0 - - -;
#N canvas 0 25 1022 640 pct 0;
#X obj 34 -581 random 100;
#X obj 34 -558 moses 50;
#X obj 33 -602 inlet bang;
#X obj 101 -601 inlet percenthits;
#X obj 34 -537 outlet bang;
#X connect 0 0 1 0;
#X connect 1 0 4 0;
#X connect 2 0 0 0;
#X connect 3 0 1 1;
#X restore 664 -703 pd pct;
#X floatatom 687 -722 5 0 100 0 - - -;
#N canvas 0 25 1022 640 pct 0;
#X obj 34 -581 random 100;
#X obj 34 -558 moses 50;
#X obj 33 -602 inlet bang;
#X obj 101 -601 inlet percenthits;
#X obj 34 -537 outlet bang;
#X connect 0 0 1 0;
#X connect 1 0 4 0;
#X connect 2 0 0 0;
#X connect 3 0 1 1;
#X restore 706 -703 pd pct;
#X floatatom 731 -720 5 0 100 0 - - -;
#N canvas 0 25 1022 640 pct 0;
#X obj 34 -581 random 100;
#X obj 34 -558 moses 50;
#X obj 33 -602 inlet bang;
#X obj 101 -601 inlet percenthits;
#X obj 34 -537 outlet bang;
#X connect 0 0 1 0;
#X connect 1 0 4 0;
#X connect 2 0 0 0;
#X connect 3 0 1 1;
#X restore 748 -703 pd pct;
#X floatatom 775 -720 5 0 100 0 - - -;
#N canvas 0 25 1022 640 pct 0;
#X obj 34 -581 random 100;
#X obj 34 -558 moses 50;
#X obj 33 -602 inlet bang;
#X obj 101 -601 inlet percenthits;
#X obj 34 -537 outlet bang;
#X connect 0 0 1 0;
#X connect 1 0 4 0;
#X connect 2 0 0 0;
#X connect 3 0 1 1;
#X restore 790 -703 pd pct;
#X floatatom 816 -720 5 0 100 0 - - -;
#X obj 238 -802 inlet number;
#X obj 663 -894 loadbang;
#X floatatom 221 -769 5 0 0 0 - - -;
#X obj 664 -611 bng 15 250 50 0 empty empty empty 20 8 0 8 -262144
-1 -1;
#X obj 661 -526 bng 15 250 50 0 empty empty empty 20 8 0 8 -262144
-1 -1;
#X msg 661 -504 1;
#X msg 704 -500 2;
#X obj 502 -653 bng 20 250 50 0 empty empty empty 20 8 0 8 -262144
-1 -1;
#X obj 845 -624 bng 15 250 50 0 empty empty empty 20 8 0 8 -262144
-1 -1;
#X obj 856 -500 bng 15 250 50 0 empty empty empty 20 8 0 8 -262144
-1 -1;
#X obj 900 -501 bng 15 250 50 0 empty empty empty 20 8 0 8 -262144
-1 -1;
#X obj 519 -627 f 1;
#X obj 664 -583 random 100;
#X obj 842 -604 random 100;
#X text 485 -674 STEP;
#X obj 709 -526 bng 15 250 50 0 empty empty empty 0 -6 0 10 -262144
-1 -1;
#X text 716 -610 rest;
#X text 911 -620 choose next state from...;
#X obj 517 -606 sel 1 2;
#X msg 856 -482 2;
#X msg 900 -483 1;
#X obj 463 -564 sel 1 2;
#X obj 687 -441 s \$0-bassrestornot;
#X obj 891 -447 s \$0-bassrestornot;
#X obj 534 -655 r \$0-bassrestornot;
#X obj 489 -466 outlet bang;
#X floatatom 836 -760 5 0 0 0 - - -;
#X floatatom 909 -757 5 0 0 0 - - -;
#X msg 593 -861 95;
#X obj 793 -788 r bassrestclust;
#X obj 890 -788 r bassnoteclust;
#X obj 664 -562 moses 50;
#X obj 842 -585 moses 50;
#X obj 328 -756 sel 1 2 3 4 5 6 7 8 9 10 11 12 13 14;
#X msg 744 -858 35;
#X msg 655 -859 20;
#X msg 698 -858 15;
#X msg 626 -860 5;
#X connect 0 0 37 0;
#X connect 1 0 0 1;
#X connect 2 0 37 0;
#X connect 3 0 2 1;
#X connect 4 0 37 0;
#X connect 5 0 4 1;
#X connect 6 0 37 0;
#X connect 7 0 6 1;
#X connect 8 0 37 0;
#X connect 9 0 8 1;
#X connect 10 0 37 0;
#X connect 11 0 10 1;
#X connect 12 0 37 0;
#X connect 13 0 12 1;
#X connect 14 0 37 0;
#X connect 15 0 14 1;
#X connect 16 0 37 0;
#X connect 17 0 16 1;
#X connect 18 0 37 0;
#X connect 19 0 18 1;
#X connect 20 0 37 0;
#X connect 21 0 20 1;
#X connect 22 0 37 0;
#X connect 23 0 22 1;
#X connect 24 0 37 0;
#X connect 25 0 24 1;
#X connect 26 0 37 0;
#X connect 27 0 26 1;
#X connect 28 0 37 0;
#X connect 29 0 28 1;
#X connect 30 0 32 0;
#X connect 30 0 63 0;
#X connect 31 0 58 0;
#X connect 31 0 67 0;
#X connect 31 0 65 0;
#X connect 31 0 64 0;
#X connect 31 0 66 0;
#X connect 33 0 42 0;
#X connect 34 0 35 0;
#X connect 35 0 52 0;
#X connect 36 0 52 0;
#X connect 37 0 41 0;
#X connect 38 0 43 0;
#X connect 39 0 49 0;
#X connect 40 0 50 0;
#X connect 41 0 48 0;
#X connect 42 0 61 0;
#X connect 43 0 62 0;
#X connect 45 0 36 0;
#X connect 48 0 33 0;
#X connect 48 1 38 0;
#X connect 49 0 53 0;
#X connect 50 0 53 0;
#X connect 51 1 55 0;
#X connect 54 0 41 1;
#X connect 54 0 51 0;
#X connect 56 0 61 1;
#X connect 57 0 62 1;
#X connect 58 0 15 0;
#X connect 59 0 56 0;
#X connect 60 0 57 0;
#X connect 61 0 34 0;
#X connect 61 1 45 0;
#X connect 62 0 39 0;
#X connect 62 1 40 0;
#X connect 63 1 0 0;
#X connect 63 2 2 0;
#X connect 63 3 4 0;
#X connect 63 4 6 0;
#X connect 63 5 8 0;
#X connect 63 6 10 0;
#X connect 63 7 12 0;
#X connect 63 8 14 0;
#X connect 63 9 16 0;
#X connect 63 10 18 0;
#X connect 63 11 20 0;
#X connect 63 12 22 0;
#X connect 63 13 24 0;
#X connect 63 14 26 0;
#X connect 64 0 7 0;
#X connect 64 0 23 0;
#X connect 65 0 3 0;
#X connect 65 0 11 0;
#X connect 65 0 19 0;
#X connect 65 0 27 0;
#X connect 66 0 5 0;
#X connect 66 0 9 0;
#X connect 66 0 13 0;
#X connect 66 0 17 0;
#X connect 66 0 21 0;
#X connect 66 0 25 0;
#X connect 67 0 1 0;
#X connect 67 0 29 0;
#X restore -172 -102 pd markovbassRoot;
#N canvas 0 25 1022 640 markovbassFancy 0;
#X obj 328 -756 sel 0 1 2 3 4 5 6 7 8 9 10 11 12 13 14 15;
#N canvas 0 25 1016 640 pct 0;
#X obj 34 -581 random 100;
#X obj 34 -558 moses 50;
#X obj 33 -602 inlet bang;
#X obj 101 -601 inlet percenthits;
#X obj 34 -537 outlet bang;
#X connect 0 0 1 0;
#X connect 1 0 4 0;
#X connect 2 0 0 0;
#X connect 3 0 1 1;
#X restore 146 -713 pd pct;
#X floatatom 169 -733 5 0 100 0 - - -;
#N canvas 0 25 1022 640 pct 0;
#X obj 34 -581 random 100;
#X obj 34 -558 moses 50;
#X obj 33 -602 inlet bang;
#X obj 101 -601 inlet percenthits;
#X obj 34 -537 outlet bang;
#X connect 0 0 1 0;
#X connect 1 0 4 0;
#X connect 2 0 0 0;
#X connect 3 0 1 1;
#X restore 188 -712 pd pct;
#X floatatom 210 -730 5 0 100 0 - - -;
#N canvas 0 25 1022 640 pct 0;
#X obj 34 -581 random 100;
#X obj 34 -558 moses 50;
#X obj 33 -602 inlet bang;
#X obj 101 -601 inlet percenthits;
#X obj 34 -537 outlet bang;
#X connect 0 0 1 0;
#X connect 1 0 4 0;
#X connect 2 0 0 0;
#X connect 3 0 1 1;
#X restore 230 -711 pd pct;
#X floatatom 256 -729 5 0 100 0 - - -;
#N canvas 0 25 1022 640 pct 0;
#X obj 34 -581 random 100;
#X obj 34 -558 moses 50;
#X obj 33 -602 inlet bang;
#X obj 101 -601 inlet percenthits;
#X obj 34 -537 outlet bang;
#X connect 0 0 1 0;
#X connect 1 0 4 0;
#X connect 2 0 0 0;
#X connect 3 0 1 1;
#X restore 272 -710 pd pct;
#X floatatom 298 -727 5 0 100 0 - - -;
#N canvas 0 25 1022 640 pct 0;
#X obj 34 -581 random 100;
#X obj 34 -558 moses 50;
#X obj 33 -602 inlet bang;
#X obj 101 -601 inlet percenthits;
#X obj 34 -537 outlet bang;
#X connect 0 0 1 0;
#X connect 1 0 4 0;
#X connect 2 0 0 0;
#X connect 3 0 1 1;
#X restore 315 -710 pd pct;
#X floatatom 344 -726 5 0 100 0 - - -;
#N canvas 0 25 1022 640 pct 0;
#X obj 34 -581 random 100;
#X obj 34 -558 moses 50;
#X obj 33 -602 inlet bang;
#X obj 101 -601 inlet percenthits;
#X obj 34 -537 outlet bang;
#X connect 0 0 1 0;
#X connect 1 0 4 0;
#X connect 2 0 0 0;
#X connect 3 0 1 1;
#X restore 357 -708 pd pct;
#X floatatom 385 -726 5 0 100 0 - - -;
#N canvas 0 25 1022 640 pct 0;
#X obj 34 -581 random 100;
#X obj 34 -558 moses 50;
#X obj 33 -602 inlet bang;
#X obj 101 -601 inlet percenthits;
#X obj 34 -537 outlet bang;
#X connect 0 0 1 0;
#X connect 1 0 4 0;
#X connect 2 0 0 0;
#X connect 3 0 1 1;
#X restore 404 -707 pd pct;
#X floatatom 423 -724 5 0 100 0 - - -;
#N canvas 0 25 1022 640 pct 0;
#X obj 34 -581 random 100;
#X obj 34 -558 moses 50;
#X obj 33 -602 inlet bang;
#X obj 101 -601 inlet percenthits;
#X obj 34 -537 outlet bang;
#X connect 0 0 1 0;
#X connect 1 0 4 0;
#X connect 2 0 0 0;
#X connect 3 0 1 1;
#X restore 446 -706 pd pct;
#X floatatom 464 -723 5 0 100 0 - - -;
#N canvas 0 25 1016 640 pct 0;
#X obj 34 -581 random 100;
#X obj 34 -558 moses 50;
#X obj 33 -602 inlet bang;
#X obj 101 -601 inlet percenthits;
#X obj 34 -537 outlet bang;
#X connect 0 0 1 0;
#X connect 1 0 4 0;
#X connect 2 0 0 0;
#X connect 3 0 1 1;
#X restore 490 -706 pd pct;
#X floatatom 506 -723 5 0 100 0 - - -;
#N canvas 0 25 1022 640 pct 0;
#X obj 34 -581 random 100;
#X obj 34 -558 moses 50;
#X obj 33 -602 inlet bang;
#X obj 101 -601 inlet percenthits;
#X obj 34 -537 outlet bang;
#X connect 0 0 1 0;
#X connect 1 0 4 0;
#X connect 2 0 0 0;
#X connect 3 0 1 1;
#X restore 532 -706 pd pct;
#X floatatom 546 -722 5 0 100 0 - - -;
#N canvas 0 25 1022 640 pct 0;
#X obj 34 -581 random 100;
#X obj 34 -558 moses 50;
#X obj 33 -602 inlet bang;
#X obj 101 -601 inlet percenthits;
#X obj 34 -537 outlet bang;
#X connect 0 0 1 0;
#X connect 1 0 4 0;
#X connect 2 0 0 0;
#X connect 3 0 1 1;
#X restore 580 -705 pd pct;
#X floatatom 589 -723 5 0 100 0 - - -;
#N canvas 0 25 1022 640 pct 0;
#X obj 34 -581 random 100;
#X obj 34 -558 moses 50;
#X obj 33 -602 inlet bang;
#X obj 101 -601 inlet percenthits;
#X obj 34 -537 outlet bang;
#X connect 0 0 1 0;
#X connect 1 0 4 0;
#X connect 2 0 0 0;
#X connect 3 0 1 1;
#X restore 622 -704 pd pct;
#X floatatom 639 -721 5 0 100 0 - - -;
#N canvas 0 25 1022 640 pct 0;
#X obj 34 -581 random 100;
#X obj 34 -558 moses 50;
#X obj 33 -602 inlet bang;
#X obj 101 -601 inlet percenthits;
#X obj 34 -537 outlet bang;
#X connect 0 0 1 0;
#X connect 1 0 4 0;
#X connect 2 0 0 0;
#X connect 3 0 1 1;
#X restore 664 -703 pd pct;
#X floatatom 687 -722 5 0 100 0 - - -;
#N canvas 0 25 1022 640 pct 0;
#X obj 34 -581 random 100;
#X obj 34 -558 moses 50;
#X obj 33 -602 inlet bang;
#X obj 101 -601 inlet percenthits;
#X obj 34 -537 outlet bang;
#X connect 0 0 1 0;
#X connect 1 0 4 0;
#X connect 2 0 0 0;
#X connect 3 0 1 1;
#X restore 706 -703 pd pct;
#X floatatom 731 -720 5 0 100 0 - - -;
#N canvas 0 25 1022 640 pct 0;
#X obj 34 -581 random 100;
#X obj 34 -558 moses 50;
#X obj 33 -602 inlet bang;
#X obj 101 -601 inlet percenthits;
#X obj 34 -537 outlet bang;
#X connect 0 0 1 0;
#X connect 1 0 4 0;
#X connect 2 0 0 0;
#X connect 3 0 1 1;
#X restore 748 -703 pd pct;
#X floatatom 775 -720 5 0 100 0 - - -;
#N canvas 0 25 1022 640 pct 0;
#X obj 34 -581 random 100;
#X obj 34 -558 moses 50;
#X obj 33 -602 inlet bang;
#X obj 101 -601 inlet percenthits;
#X obj 34 -537 outlet bang;
#X connect 0 0 1 0;
#X connect 1 0 4 0;
#X connect 2 0 0 0;
#X connect 3 0 1 1;
#X restore 790 -703 pd pct;
#X floatatom 816 -720 5 0 100 0 - - -;
#X obj 238 -802 inlet number;
#X obj 663 -894 loadbang;
#X floatatom 221 -769 5 0 0 0 - - -;
#X obj 664 -611 bng 15 250 50 0 empty empty empty 20 8 0 8 -262144
-1 -1;
#X obj 661 -526 bng 15 250 50 0 empty empty empty 20 8 0 8 -262144
-1 -1;
#X msg 661 -504 1;
#X msg 704 -500 2;
#X obj 502 -653 bng 20 250 50 0 empty empty empty 20 8 0 8 -262144
-1 -1;
#X obj 845 -624 bng 15 250 50 0 empty empty empty 20 8 0 8 -262144
-1 -1;
#X obj 856 -500 bng 15 250 50 0 empty empty empty 20 8 0 8 -262144
-1 -1;
#X obj 900 -501 bng 15 250 50 0 empty empty empty 20 8 0 8 -262144
-1 -1;
#X obj 519 -627 f 1;
#X obj 664 -583 random 100;
#X obj 842 -604 random 100;
#X text 485 -674 STEP;
#X obj 709 -526 bng 15 250 50 0 empty empty empty 0 -6 0 10 -262144
-1 -1;
#X text 716 -610 rest;
#X text 911 -620 choose next state from...;
#X obj 517 -606 sel 1 2;
#X msg 856 -482 2;
#X msg 900 -483 1;
#X obj 463 -564 sel 1 2;
#X obj 687 -441 s \$0-bassrestornot;
#X obj 891 -447 s \$0-bassrestornot;
#X obj 534 -655 r \$0-bassrestornot;
#X obj 489 -466 outlet bang;
#X floatatom 836 -760 5 0 0 0 - - -;
#X floatatom 909 -757 5 0 0 0 - - -;
#X msg 593 -861 95;
#X obj 793 -788 r bassrestclust;
#X obj 890 -788 r bassnoteclust;
#X obj 664 -562 moses;
#X obj 842 -585 moses;
#X msg 744 -858 40;
#X msg 655 -859 25;
#X msg 626 -860 10;
#X msg 698 -858 18;
#X connect 0 0 1 0;
#X connect 0 1 3 0;
#X connect 0 2 5 0;
#X connect 0 3 7 0;
#X connect 0 4 9 0;
#X connect 0 5 11 0;
#X connect 0 6 13 0;
#X connect 0 7 15 0;
#X connect 0 8 17 0;
#X connect 0 9 19 0;
#X connect 0 10 21 0;
#X connect 0 11 23 0;
#X connect 0 12 25 0;
#X connect 0 13 27 0;
#X connect 0 14 29 0;
#X connect 0 15 31 0;
#X connect 1 0 40 0;
#X connect 2 0 1 1;
#X connect 3 0 40 0;
#X connect 4 0 3 1;
#X connect 5 0 40 0;
#X connect 6 0 5 1;
#X connect 7 0 40 0;
#X connect 8 0 7 1;
#X connect 9 0 40 0;
#X connect 10 0 9 1;
#X connect 11 0 40 0;
#X connect 12 0 11 1;
#X connect 13 0 40 0;
#X connect 14 0 13 1;
#X connect 15 0 40 0;
#X connect 16 0 15 1;
#X connect 17 0 40 0;
#X connect 18 0 17 1;
#X connect 19 0 40 0;
#X connect 20 0 19 1;
#X connect 21 0 40 0;
#X connect 22 0 21 1;
#X connect 23 0 40 0;
#X connect 24 0 23 1;
#X connect 25 0 40 0;
#X connect 26 0 25 1;
#X connect 27 0 40 0;
#X connect 28 0 27 1;
#X connect 29 0 40 0;
#X connect 30 0 29 1;
#X connect 31 0 40 0;
#X connect 32 0 31 1;
#X connect 33 0 35 0;
#X connect 33 0 0 0;
#X connect 34 0 61 0;
#X connect 34 0 68 0;
#X connect 34 0 67 0;
#X connect 34 0 66 0;
#X connect 34 0 69 0;
#X connect 36 0 45 0;
#X connect 37 0 38 0;
#X connect 38 0 55 0;
#X connect 39 0 55 0;
#X connect 40 0 44 0;
#X connect 41 0 46 0;
#X connect 42 0 52 0;
#X connect 43 0 53 0;
#X connect 44 0 51 0;
#X connect 45 0 64 0;
#X connect 46 0 65 0;
#X connect 48 0 39 0;
#X connect 51 0 36 0;
#X connect 51 1 41 0;
#X connect 52 0 56 0;
#X connect 53 0 56 0;
#X connect 54 1 58 0;
#X connect 57 0 44 1;
#X connect 57 0 54 0;
#X connect 59 0 64 1;
#X connect 60 0 65 1;
#X connect 61 0 2 0;
#X connect 61 0 18 0;
#X connect 62 0 59 0;
#X connect 63 0 60 0;
#X connect 64 0 37 0;
#X connect 64 1 48 0;
#X connect 65 0 42 0;
#X connect 65 1 43 0;
#X connect 66 0 10 0;
#X connect 66 0 26 0;
#X connect 67 0 6 0;
#X connect 67 0 14 0;
#X connect 67 0 22 0;
#X connect 67 0 30 0;
#X connect 68 0 4 0;
#X connect 68 0 32 0;
#X connect 69 0 8 0;
#X connect 69 0 12 0;
#X connect 69 0 16 0;
#X connect 69 0 20 0;
#X connect 69 0 24 0;
#X connect 69 0 28 0;
#X restore 38 -102 pd markovbassFancy;
#X obj -172 18 f;
#X obj -172 -20 bang;
#X obj 118 15 f;
#X obj 118 -23 bang;
#X obj -157 -1 r \$0-Note1;
#X obj 133 -5 r \$0-Note5;
#X obj -92 17 f;
#X obj -92 -21 bang;
#X obj -77 -2 r \$0-Note8;
#X obj -17 175 outlet;
#X obj 38 16 f;
#X obj 38 -22 bang;
#X obj 200 16 f;
#X obj 200 -22 bang;
#X obj 53 -3 r \$0-Note2;
#X obj 215 -3 r \$0-Note7;
#X obj 38 -82 random 5;
#X obj 38 -63 sel 0 1 2 3 4;
#X obj -172 -61 sel 0 1 2;
#X obj -172 -81 random 3;
#X obj -21 147 + 0;
#X connect 0 0 2 0;
#X connect 0 1 3 0;
#X connect 1 0 0 0;
#X connect 2 0 23 0;
#X connect 3 0 20 0;
#X connect 4 0 24 0;
#X connect 5 0 4 0;
#X connect 6 0 24 0;
#X connect 7 0 6 0;
#X connect 8 0 4 1;
#X connect 9 0 6 1;
#X connect 10 0 24 0;
#X connect 11 0 10 0;
#X connect 12 0 10 1;
#X connect 14 0 24 0;
#X connect 15 0 14 0;
#X connect 16 0 24 0;
#X connect 17 0 16 0;
#X connect 18 0 14 1;
#X connect 19 0 16 1;
#X connect 20 0 21 0;
#X connect 21 0 15 0;
#X connect 21 1 7 0;
#X connect 21 2 15 0;
#X connect 21 3 17 0;
#X connect 21 4 17 0;
#X connect 22 0 5 0;
#X connect 22 1 11 0;
#X connect 22 2 5 0;
#X connect 23 0 22 0;
#X connect 24 0 13 0;
#X restore 221 321 pd bass-seq;
#X obj 172 396 outlet;
#X obj 148 249 inlet;
#N canvas 0 22 471 400 bass-seq-noproba 0;
#X obj 54 234 f;
#X obj 54 196 bang;
#X obj 159 240 f;
#X obj 159 202 bang;
#X obj 241 239 f;
#X obj 241 201 bang;
#X obj 159 153 random 2;
#X obj 159 172 sel 0 1;
#X obj 69 215 r \$0-Note1;
#X obj 174 221 r \$0-Note2;
#X obj 256 220 r \$0-Note7;
#X obj 56 103 select 0 7 14;
#X obj 56 73 inlet;
#X obj 159 300 outlet;
#X connect 0 0 13 0;
#X connect 1 0 0 0;
#X connect 2 0 13 0;
#X connect 3 0 2 0;
#X connect 4 0 13 0;
#X connect 5 0 4 0;
#X connect 6 0 7 0;
#X connect 7 0 3 0;
#X connect 7 1 5 0;
#X connect 8 0 0 1;
#X connect 9 0 2 1;
#X connect 10 0 4 1;
#X connect 11 0 1 0;
#X connect 11 1 6 0;
#X connect 11 2 6 0;
#X connect 12 0 11 0;
#X restore 82 322 pd bass-seq-noproba;
#X connect 0 0 1 0;
#X connect 2 0 0 0;
#X connect 2 0 3 0;
#X connect 3 0 1 0;
#X restore 392 404 pd bass-seq;
#X obj 392 426 s bass-note;
#N canvas 0 22 450 300 arguments-abs 0;
#X obj 764 -184 bng 15 250 50 0 empty empty empty 17 7 0 10 -262144
-1 -1;
#N canvas 0 22 562 568 arguments 0;
#X obj 39 112 f;
#X obj 39 137 + 1;
#X obj 39 162 t b a;
#X obj 39 462 t a;
#X obj 39 57 until;
#X obj 39 438 list prepend;
#X obj 10 527 outlet;
#X obj 39 7 inlet;
#X obj 39 32 t b b;
#X obj 39 363 list split 1;
#N canvas 368 169 216 100 \$0-test 0;
#X obj 5 5 r 1016-argv-b;
#X obj 5 35 list append \$1 \$1-t;
#X obj 5 65 s 1016-arg;
#X connect 0 0 1 0;
#X connect 1 0 2 0;
#X restore 39 308 pd \$0-test;
#X obj 76 253 s pd-\$0-test;
#X obj 39 338 r \$0-arg;
#X obj 76 187 list append \$0 $;
#X msg 122 338 symbol \$3\$1-t;
#X obj 85 388 sel s;
#X obj 85 413 s \$0-argv-end;
#X obj 88 32 s \$0-argv-reset;
#X obj 144 438 r \$0-argv-reset;
#X obj 89 57 r \$0-argv-end;
#X obj 39 278 s \$0-argv-b;
#X msg 76 212 clear \, obj 5 5 r \$2-argv-b \, obj 5 35 list append
\$3\$1 \$3\$1-t \, obj 5 65 s \$2-arg \, connect 0 0 1 0 \, connect
1 0 2 0;
#X obj 89 82 0;
#X obj 10 502 list;
#X connect 0 0 1 0;
#X connect 1 0 0 1;
#X connect 1 0 2 0;
#X connect 2 0 20 0;
#X connect 2 1 13 0;
#X connect 3 0 5 1;
#X connect 3 0 23 1;
#X connect 4 0 0 0;
#X connect 5 0 3 0;
#X connect 7 0 8 0;
#X connect 8 0 4 0;
#X connect 8 1 17 0;
#X connect 9 0 5 0;
#X connect 9 1 15 0;
#X connect 12 0 9 0;
#X connect 13 0 21 0;
#X connect 13 0 14 0;
#X connect 14 0 15 1;
#X connect 15 0 16 0;
#X connect 15 0 23 0;
#X connect 18 0 5 1;
#X connect 18 0 23 1;
#X connect 19 0 4 1;
#X connect 19 0 22 0;
#X connect 21 0 11 0;
#X connect 22 0 0 1;
#X connect 23 0 6 0;
#X restore 764 -159 pd arguments;
#X obj 798 -130 list length;
#X floatatom 798 -105 5 0 0 0 - - -;
#X text 869 -160 <-- paste this subpatch into;
#X text 782 -187 bang for list of arguments;
#X text 901 -145 your abstraction;
#X obj 775 -208 loadbang;
#X obj 806 -47 outlet;
#X connect 0 0 1 0;
#X connect 1 0 2 0;
#X connect 1 0 8 0;
#X connect 2 0 3 0;
#X connect 7 0 0 0;
#X restore 508 -74 pd arguments-abs;
#X connect 0 0 1 0;
#X connect 1 0 2 0;
#X connect 1 0 37 0;
#X connect 1 0 44 0;
#X connect 2 0 1 1;
#X connect 3 0 5 0;
#X connect 3 1 4 0;
#X connect 3 1 9 0;
#X connect 3 1 23 0;
#X connect 4 0 0 0;
#X connect 5 0 1 0;
#X connect 19 0 37 1;
#X connect 19 0 44 1;
#X connect 19 1 0 1;
#X connect 19 2 22 0;
#X connect 19 3 22 1;
#X connect 19 4 28 1;
#X connect 19 5 29 1;
#X connect 19 6 30 1;
#X connect 19 7 31 1;
#X connect 19 8 32 1;
#X connect 23 0 28 0;
#X connect 24 0 10 0;
#X connect 25 0 11 0;
#X connect 26 0 12 0;
#X connect 27 0 13 0;
#X connect 28 0 24 0;
#X connect 28 1 29 0;
#X connect 29 0 25 0;
#X connect 29 1 30 0;
#X connect 30 0 26 0;
#X connect 30 1 31 0;
#X connect 31 0 27 0;
#X connect 31 1 32 0;
#X connect 32 0 33 0;
#X connect 33 0 39 0;
#X connect 34 0 0 0;
#X connect 34 0 8 0;
#X connect 35 0 34 0;
#X connect 36 0 4 0;
#X connect 37 0 42 0;
#X connect 37 0 43 0;
#X connect 38 0 34 0;
#X connect 40 0 20 0;
#X connect 42 0 40 0;
#X connect 42 1 47 0;
#X connect 42 2 45 0;
#X connect 42 3 41 0;
#X connect 44 0 3 0;
#X connect 45 0 46 0;
#X connect 47 0 48 0;
#X connect 49 0 19 0;
#X coords 0 -1 1 1 290 145 1 100 100;
