#N canvas 0 22 937 703 10;
#X obj 423 56 metro 150;
#X obj 453 101 i;
#X obj 481 100 + 1;
#X obj 564 85 t b b;
#X msg 443 31 0;
#X msg 492 73 0;
#X obj 255 -52 inlet;
#X obj 184 119 bng 15 250 50 0 empty empty empty 17 7 0 10 -262144
-4160 -1;
#X obj 318 318 *;
#X obj 333 89 random 2;
#X obj 318 344 moses 1;
#X obj 320 372 outlet;
#X obj 352 247 select 1 2 3 4 5 6 7;
#X msg 293 36 bang;
#X obj 352 224 random 8;
#X text 107 169 Toner;
#X text 167 169 Link ud;
#X text 106 115 Link ind;
#X obj 164 119 bng 15 250 50 0 empty empty empty 17 7 0 10 -262144
-4034 -1;
#X obj 184 138 bng 15 250 50 0 empty empty empty 17 7 0 10 -262144
-258113 -1;
#X obj 588 342 select 0 1 2 3 4 5;
#X obj 588 317 random 6;
#X obj 586 372 outlet;
#X obj 636 372 outlet;
#X obj 686 372 outlet;
#X obj 736 372 outlet;
#X obj 796 372 outlet;
#X obj 846 372 outlet;
#X msg 271 289 39;
#X msg 311 289 41;
#X msg 351 289 43;
#X msg 431 289 46;
#X msg 471 289 48;
#X msg 391 288 0;
#X msg 511 289 0;
#X obj 453 121 select 17;
#X text 10 428 for bass;
#X text 366 373 for synth;
#X text 584 392 send bang to others to activate them;
#X text 613 84 when 17 is reached stop the metro \, output a bang to
one of the Link ud outlets \, and reset metro counter.;
#X text -2 406 note to be played;
#X text 412 222 play radom notes from the scale entered as messages
;
#X text 272 88 alternate;
#X text 296 -53 takes a bang sends it to toggle a metro \, and to light
a bang in the GOP;
#X text 543 288 scale to be played;
#X text 646 318 randomly choose the output;
#X text 126 407 first and second outlet are used for synths \, every
other are link to other cellules.;
#X text 596 522 6 - sent to A# dur;
#X text 568 429 base note is D# dur = 27 \, 39 41 43 46 48;
#X text 584 449 1 - sent to G# dur = 32 \, 44 46 48 51 53;
#X text 585 464 2 - sent to F mol = 29 \, 41 44 46 48 51;
#X text 588 479 3 - sent to C mol = 24 \, 36 39 41 43 46;
#X text 591 493 4 - sent to G mol = 31 \, 43 46 48 50 53;
#X text 593 508 5 - sent to A# dur = 34 \, 46 48 50 53 55;
#X text 678 -17 make as creation arguments duration (sel 17) \, speed
(metro) \, base note and scale \, eventually number of outputs.;
#X obj -62 -52 bng 15 250 50 0 empty empty empty 17 7 0 10 -262144
-1 -1;
#N canvas 0 22 562 568 arguments 0;
#X obj 39 112 f;
#X obj 39 137 + 1;
#X obj 39 162 t b a;
#X obj 39 462 t a;
#X obj 39 57 until;
#X obj 39 438 list prepend;
#X obj 10 527 outlet;
#X obj 39 7 inlet;
#X obj 39 32 t b b;
#X obj 39 363 list split 1;
#N canvas 368 169 216 100 \$0-test 0;
#X obj 5 5 r 1015-argv-b;
#X obj 5 35 list append \$1 \$1-t;
#X obj 5 65 s 1015-arg;
#X connect 0 0 1 0;
#X connect 1 0 2 0;
#X restore 39 308 pd \$0-test;
#X obj 76 253 s pd-\$0-test;
#X obj 39 338 r \$0-arg;
#X obj 76 187 list append \$0 $;
#X msg 122 338 symbol \$3\$1-t;
#X obj 85 388 sel s;
#X obj 85 413 s \$0-argv-end;
#X obj 88 32 s \$0-argv-reset;
#X obj 144 438 r \$0-argv-reset;
#X obj 89 57 r \$0-argv-end;
#X obj 39 278 s \$0-argv-b;
#X msg 76 212 clear \, obj 5 5 r \$2-argv-b \, obj 5 35 list append
\$3\$1 \$3\$1-t \, obj 5 65 s \$2-arg \, connect 0 0 1 0 \, connect
1 0 2 0;
#X obj 89 82 0;
#X obj 10 502 list;
#X connect 0 0 1 0;
#X connect 1 0 0 1;
#X connect 1 0 2 0;
#X connect 2 0 20 0;
#X connect 2 1 13 0;
#X connect 3 0 5 1;
#X connect 3 0 23 1;
#X connect 4 0 0 0;
#X connect 5 0 3 0;
#X connect 7 0 8 0;
#X connect 8 0 4 0;
#X connect 8 1 17 0;
#X connect 9 0 5 0;
#X connect 9 1 15 0;
#X connect 12 0 9 0;
#X connect 13 0 21 0;
#X connect 13 0 14 0;
#X connect 14 0 15 1;
#X connect 15 0 16 0;
#X connect 15 0 23 0;
#X connect 18 0 5 1;
#X connect 18 0 23 1;
#X connect 19 0 4 1;
#X connect 19 0 22 0;
#X connect 21 0 11 0;
#X connect 22 0 0 1;
#X connect 23 0 6 0;
#X restore -62 -27 pd arguments;
#X obj -28 2 list length;
#X floatatom -28 27 5 0 0 0 - - -;
#X text 43 -28 <-- paste this subpatch into;
#X text -44 -55 bang for list of arguments;
#X text 75 -13 your abstraction;
#X text -62 79 * outputs a bang if no arguments are given;
#X obj -16 -70 loadbang;
#X msg -73 311 set \$1;
#X msg 22 190 set \$1;
#X msg 73 189 set \$1;
#X msg 129 188 set \$1;
#X msg 180 187 set \$1;
#X msg 237 187 set \$1;
#X msg 293 186 set \$1;
#X msg 344 185 set \$1;
#X obj -68 45 unpack f f f f f f f f f f;
#X floatatom 145 137 5 0 0 0 - - -;
#X obj 501 18 inlet;
#N canvas 542 251 482 356 vu 0;
#X obj 11 7 inlet;
#X obj 92 226 select 0 1;
#X obj 206 138 loadbang;
#X msg 206 278 set \$1;
#X obj 92 115 change;
#X msg 11 220 VU \$1;
#X obj 92 57 route VU;
#X msg 125 248 16;
#X obj 206 174 value \$0-GLOBAL_Vu;
#X msg 91 248 0;
#X obj 179 308 send \$0-1-toggle;
#X msg 111 278 color \$1 16 12;
#X connect 0 0 5 0;
#X connect 0 0 4 0;
#X connect 1 0 9 0;
#X connect 1 1 7 0;
#X connect 2 0 8 0;
#X connect 3 0 10 0;
#X connect 4 0 3 0;
#X connect 4 0 1 0;
#X connect 4 0 8 0;
#X connect 5 0 6 0;
#X connect 6 0 4 0;
#X connect 7 0 11 0;
#X connect 8 0 3 0;
#X connect 8 0 1 0;
#X connect 9 0 11 0;
#X connect 11 0 10 0;
#X restore 294 504 pd vu;
#N canvas 542 251 482 356 vu 0;
#X obj 11 7 inlet;
#X obj 92 226 select 0 1;
#X obj 206 138 loadbang;
#X msg 206 278 set \$1;
#X obj 92 115 change;
#X msg 11 220 VU \$1;
#X obj 92 57 route VU;
#X msg 125 248 16;
#X obj 206 174 value \$0-GLOBAL_Vu;
#X msg 91 248 0;
#X obj 179 308 send \$0-2-toggle;
#X msg 111 278 color \$1 16 12;
#X connect 0 0 5 0;
#X connect 0 0 4 0;
#X connect 1 0 9 0;
#X connect 1 1 7 0;
#X connect 2 0 8 0;
#X connect 3 0 10 0;
#X connect 4 0 3 0;
#X connect 4 0 1 0;
#X connect 4 0 8 0;
#X connect 5 0 6 0;
#X connect 6 0 4 0;
#X connect 7 0 11 0;
#X connect 8 0 3 0;
#X connect 8 0 1 0;
#X connect 9 0 11 0;
#X connect 11 0 10 0;
#X restore 336 502 pd vu;
#N canvas 542 251 482 356 vu 0;
#X obj 11 7 inlet;
#X obj 92 226 select 0 1;
#X obj 206 138 loadbang;
#X msg 206 278 set \$1;
#X obj 92 115 change;
#X msg 11 220 VU \$1;
#X obj 92 57 route VU;
#X msg 125 248 16;
#X obj 206 174 value \$0-GLOBAL_Vu;
#X msg 91 248 0;
#X obj 179 308 send \$0-3-toggle;
#X msg 111 278 color \$1 16 12;
#X connect 0 0 5 0;
#X connect 0 0 4 0;
#X connect 1 0 9 0;
#X connect 1 1 7 0;
#X connect 2 0 8 0;
#X connect 3 0 10 0;
#X connect 4 0 3 0;
#X connect 4 0 1 0;
#X connect 4 0 8 0;
#X connect 5 0 6 0;
#X connect 6 0 4 0;
#X connect 7 0 11 0;
#X connect 8 0 3 0;
#X connect 8 0 1 0;
#X connect 9 0 11 0;
#X connect 11 0 10 0;
#X restore 380 499 pd vu;
#N canvas 542 251 482 356 vu 0;
#X obj 11 7 inlet;
#X obj 92 226 select 0 1;
#X obj 206 138 loadbang;
#X msg 206 278 set \$1;
#X obj 92 115 change;
#X msg 11 220 VU \$1;
#X obj 92 57 route VU;
#X msg 125 248 16;
#X obj 206 174 value \$0-GLOBAL_Vu;
#X msg 91 248 0;
#X obj 179 308 send \$0-4-toggle;
#X msg 111 278 color \$1 16 12;
#X connect 0 0 5 0;
#X connect 0 0 4 0;
#X connect 1 0 9 0;
#X connect 1 1 7 0;
#X connect 2 0 8 0;
#X connect 3 0 10 0;
#X connect 4 0 3 0;
#X connect 4 0 1 0;
#X connect 4 0 8 0;
#X connect 5 0 6 0;
#X connect 6 0 4 0;
#X connect 7 0 11 0;
#X connect 8 0 3 0;
#X connect 8 0 1 0;
#X connect 9 0 11 0;
#X connect 11 0 10 0;
#X restore 419 497 pd vu;
#N canvas 542 251 482 356 vu 0;
#X obj 11 7 inlet;
#X obj 92 226 select 0 1;
#X obj 206 138 loadbang;
#X msg 206 278 set \$1;
#X obj 92 115 change;
#X msg 11 220 VU \$1;
#X obj 92 57 route VU;
#X obj 206 174 value \$0-GLOBAL_Vu;
#X msg 91 248 0;
#X obj 179 308 send \$0-5-toggle;
#X msg 125 248 89;
#X msg 111 278 color \$1 89 12;
#X connect 0 0 5 0;
#X connect 0 0 4 0;
#X connect 1 0 8 0;
#X connect 1 1 10 0;
#X connect 2 0 7 0;
#X connect 3 0 9 0;
#X connect 4 0 3 0;
#X connect 4 0 1 0;
#X connect 4 0 7 0;
#X connect 5 0 6 0;
#X connect 6 0 4 0;
#X connect 7 0 3 0;
#X connect 7 0 1 0;
#X connect 8 0 11 0;
#X connect 10 0 11 0;
#X connect 11 0 9 0;
#X restore 312 530 pd vu;
#N canvas 542 251 482 356 vu 0;
#X obj 11 7 inlet;
#X obj 92 226 select 0 1;
#X obj 206 138 loadbang;
#X msg 206 278 set \$1;
#X obj 92 115 change;
#X msg 11 220 VU \$1;
#X obj 92 57 route VU;
#X obj 206 174 value \$0-GLOBAL_Vu;
#X msg 91 248 0;
#X obj 179 308 send \$0-6-toggle;
#X msg 125 248 89;
#X msg 111 278 color \$1 89 12;
#X connect 0 0 5 0;
#X connect 0 0 4 0;
#X connect 1 0 8 0;
#X connect 1 1 10 0;
#X connect 2 0 7 0;
#X connect 3 0 9 0;
#X connect 4 0 3 0;
#X connect 4 0 1 0;
#X connect 4 0 7 0;
#X connect 5 0 6 0;
#X connect 6 0 4 0;
#X connect 7 0 3 0;
#X connect 7 0 1 0;
#X connect 8 0 11 0;
#X connect 10 0 11 0;
#X connect 11 0 9 0;
#X restore 354 528 pd vu;
#N canvas 542 251 482 356 vu 0;
#X obj 11 7 inlet;
#X obj 92 226 select 0 1;
#X obj 206 138 loadbang;
#X msg 206 278 set \$1;
#X obj 92 115 change;
#X msg 11 220 VU \$1;
#X obj 92 57 route VU;
#X obj 206 174 value \$0-GLOBAL_Vu;
#X msg 91 248 0;
#X obj 179 308 send \$0-7-toggle;
#X msg 125 248 89;
#X msg 111 278 color \$1 89 12;
#X connect 0 0 5 0;
#X connect 0 0 4 0;
#X connect 1 0 8 0;
#X connect 1 1 10 0;
#X connect 2 0 7 0;
#X connect 3 0 9 0;
#X connect 4 0 3 0;
#X connect 4 0 1 0;
#X connect 4 0 7 0;
#X connect 5 0 6 0;
#X connect 6 0 4 0;
#X connect 7 0 3 0;
#X connect 7 0 1 0;
#X connect 8 0 11 0;
#X connect 10 0 11 0;
#X connect 11 0 9 0;
#X restore 398 525 pd vu;
#N canvas 542 251 482 356 vu 0;
#X obj 11 7 inlet;
#X obj 92 226 select 0 1;
#X obj 206 138 loadbang;
#X msg 206 278 set \$1;
#X obj 92 115 change;
#X msg 11 220 VU \$1;
#X obj 92 57 route VU;
#X obj 206 174 value \$0-GLOBAL_Vu;
#X msg 91 248 0;
#X obj 179 308 send \$0-8-toggle;
#X msg 125 248 89;
#X msg 111 278 color \$1 89 12;
#X connect 0 0 5 0;
#X connect 0 0 4 0;
#X connect 1 0 8 0;
#X connect 1 1 10 0;
#X connect 2 0 7 0;
#X connect 3 0 9 0;
#X connect 4 0 3 0;
#X connect 4 0 1 0;
#X connect 4 0 7 0;
#X connect 5 0 6 0;
#X connect 6 0 4 0;
#X connect 7 0 3 0;
#X connect 7 0 1 0;
#X connect 8 0 11 0;
#X connect 10 0 11 0;
#X connect 11 0 9 0;
#X restore 437 523 pd vu;
#X obj 49 369 outlet;
#X msg 49 346 27;
#X obj 49 299 select 0 4 8 9 11;
#X obj 49 326 +;
#X text 92 369 for bass;
#X text 80 347 note to be played;
#X text 42 282 sel based sequencer;
#X connect 0 0 1 0;
#X connect 0 0 9 0;
#X connect 0 0 14 0;
#X connect 1 0 2 0;
#X connect 1 0 35 0;
#X connect 1 0 85 0;
#X connect 2 0 1 1;
#X connect 3 0 5 0;
#X connect 3 1 4 0;
#X connect 3 1 19 0;
#X connect 3 1 21 0;
#X connect 4 0 0 0;
#X connect 5 0 1 0;
#X connect 6 0 0 0;
#X connect 6 0 18 0;
#X connect 8 0 10 0;
#X connect 9 0 8 1;
#X connect 10 1 11 0;
#X connect 10 1 7 0;
#X connect 12 0 28 0;
#X connect 12 1 29 0;
#X connect 12 2 30 0;
#X connect 12 3 33 0;
#X connect 12 4 31 0;
#X connect 12 5 32 0;
#X connect 12 6 34 0;
#X connect 13 0 0 0;
#X connect 14 0 12 0;
#X connect 20 0 22 0;
#X connect 20 1 23 0;
#X connect 20 2 24 0;
#X connect 20 3 25 0;
#X connect 20 4 26 0;
#X connect 20 5 27 0;
#X connect 21 0 20 0;
#X connect 28 0 8 0;
#X connect 29 0 8 0;
#X connect 30 0 8 0;
#X connect 31 0 8 0;
#X connect 32 0 8 0;
#X connect 33 0 8 0;
#X connect 34 0 8 0;
#X connect 35 0 3 0;
#X connect 55 0 56 0;
#X connect 56 0 57 0;
#X connect 56 0 72 0;
#X connect 57 0 58 0;
#X connect 63 0 55 0;
#X connect 64 0 73 0;
#X connect 64 0 84 0;
#X connect 65 0 28 0;
#X connect 66 0 29 0;
#X connect 67 0 30 0;
#X connect 68 0 33 0;
#X connect 69 0 31 0;
#X connect 70 0 32 0;
#X connect 71 0 34 0;
#X connect 72 0 35 1;
#X connect 72 1 0 1;
#X connect 72 2 64 0;
#X connect 72 3 65 0;
#X connect 72 4 66 0;
#X connect 72 5 67 0;
#X connect 72 6 68 0;
#X connect 72 7 69 0;
#X connect 72 8 70 0;
#X connect 72 9 71 0;
#X connect 74 0 4 0;
#X connect 84 0 83 0;
#X connect 85 0 86 0;
#X connect 85 1 86 0;
#X connect 85 2 86 0;
#X connect 85 3 86 0;
#X connect 85 4 86 0;
#X connect 86 0 84 0;
#X coords 0 -1 1 1 120 85 1 100 100;
