#N canvas 140 22 563 456 10;
#X declare -path z_Matrixseq_abs;
#N canvas 0 22 833 596 (subpatch) 0;
#X obj 0 0 cnv 15 300 330 empty empty empty 20 12 0 14 -1 -66577 0
;
#X obj 82 -57 loadbang;
#X text 43 -69 NOte sequencer;
#X obj 367 207 mod 8;
#X msg 103 -23 8;
#X msg 77 -24 500;
#X floatatom 475 348 5 0 0 0 - - -;
#X obj 9 299 nbx 3 14 0 10000 0 0 empty empty Note 0 -6 1 11 -1 -260097
-260097 72 256;
#X obj 10 258 nbx 3 14 0 10000 0 0 empty empty Note 0 -6 1 11 -1 -260097
-260097 69 256;
#X obj 9 213 nbx 3 14 0 10000 0 0 empty empty Note 0 -6 1 11 -1 -260097
-260097 67 256;
#X obj 9 167 nbx 3 14 0 10000 0 0 empty empty Note 0 -6 1 11 -1 -260097
-260097 65 256;
#X obj 9 120 nbx 3 14 0 10000 0 0 empty empty Note 0 -6 1 11 -1 -260097
-260097 63 256;
#X obj 10 76 nbx 3 14 0 10000 0 0 empty empty Note 0 -6 1 11 -1 -260097
-260097 60 256;
#X msg 137 -22 60;
#X msg 173 -22 63;
#X msg 206 -20 65;
#X msg 235 -25 67;
#X msg 272 -24 69;
#X msg 305 -22 72;
#X obj 48 59 line-toggle;
#X obj 48 104 line-toggle;
#X obj 48 149 line-toggle;
#X obj 48 195 line-toggle;
#X obj 48 240 line-toggle;
#X obj 48 284 line-toggle;
#X obj 61 519 outlet;
#X obj 110 518 outlet;
#X obj 171 518 outlet;
#X obj 272 516 outlet;
#X obj 321 515 outlet;
#X obj 382 515 outlet;
#X obj 88 545 outlet;
#X obj 137 544 outlet;
#X obj 198 544 outlet;
#X obj 299 542 outlet;
#X obj 348 541 outlet;
#X obj 409 541 outlet;
#X obj 56 29 tgl 25 0 \$0-blah \$0-1color.r empty 17 7 0 10 -233017
-233017 -233017 0 1;
#X obj 3 4 cnv 15 290 20 empty empty empty 20 12 0 14 -66577 -66577
0;
#X obj 994 139 i;
#X obj 1042 140 + 1;
#X msg 1024 109 0;
#X obj 1012 41 sel 0;
#X obj 141 6 nbx 2 14 2 8 0 0 empty empty Modulo 30 8 1 11 -1 -260097
-260097 8 256;
#X obj 989 -4 metro 500;
#X obj 6 7 tgl 15 0 empty empty On/Off 17 7 1 11 -1 -260097 -260097
0 1;
#X obj 3 -50 inlet;
#X obj 62 6 nbx 4 14 0 10000 0 0 empty empty Metro 45 8 1 11 -1 -260097
-260097 500 256;
#X obj 243 7 bng 15 250 50 0 empty empty Reset 17 7 0 10 -1 -260097
-260097;
#X obj 85 29 tgl 25 0 \$0-blah \$0-2color.r empty 17 7 0 10 -233017
-233017 -233017 0 1;
#X obj 114 29 tgl 25 0 \$0-blah \$0-3color.r empty 17 7 0 10 -233017
-233017 -233017 0 1;
#X obj 143 29 tgl 25 0 \$0-blah \$0-4color.r empty 17 7 0 10 -233017
-233017 -233017 0 1;
#X obj 172 29 tgl 25 0 \$0-blah \$0-5color.r empty 17 7 0 10 -233017
-233017 -233017 0 1;
#X obj 201 29 tgl 25 0 \$0-blah \$0-6color.r empty 17 7 0 10 -233017
-233017 -233017 0 1;
#X obj 230 29 tgl 25 0 \$0-blah \$0-7color.r empty 17 7 0 10 -233017
-233017 -233017 0 1;
#X obj 259 29 tgl 25 0 \$0-blah \$0-8color.r empty 17 7 0 10 -233017
-233017 -233017 0 1;
#N canvas 408 99 700 545 counter 0;
#X obj 270 22 inlet;
#X obj 82 285 loadbang;
#X msg 90 206 \$1 color \$2 \$2 \$2;
#X obj 195 179 pack;
#X obj 309 143 - 1;
#X obj 270 116 t f b f;
#X obj 309 172 sel -1;
#X obj 336 275 pack;
#X obj 330 231 t f b;
#X msg 336 302 \$1 color \$2 \$2 \$2;
#X msg 82 342 color \$1 \$1 \$1;
#X obj 216 154 f -1.67434e+07;
#X obj 82 309 f 10;
#X obj 357 253 f 10;
#X obj 264 372 route 0 1 2 3 4 5 6 7;
#X obj 264 685 s \$0-1color.r;
#X obj 279 666 s \$0-2color.r;
#X obj 295 646 s \$0-3color.r;
#X obj 311 627 s \$0-4color.r;
#X obj 327 608 s \$0-5color.r;
#X obj 343 589 s \$0-6color.r;
#X obj 359 570 s \$0-7color.r;
#X obj 375 551 s \$0-8color.r;
#X obj 309 199 7;
#X connect 0 0 5 0;
#X connect 1 0 12 0;
#X connect 2 0 14 0;
#X connect 3 0 2 0;
#X connect 4 0 6 0;
#X connect 5 0 3 0;
#X connect 5 1 11 0;
#X connect 5 2 4 0;
#X connect 6 0 23 0;
#X connect 6 1 8 0;
#X connect 7 0 9 0;
#X connect 8 0 7 0;
#X connect 8 1 13 0;
#X connect 9 0 14 0;
#X connect 10 0 15 0;
#X connect 10 0 16 0;
#X connect 10 0 17 0;
#X connect 10 0 18 0;
#X connect 10 0 19 0;
#X connect 10 0 20 0;
#X connect 10 0 21 0;
#X connect 10 0 22 0;
#X connect 11 0 3 1;
#X connect 12 0 10 0;
#X connect 13 0 7 1;
#X connect 14 0 15 0;
#X connect 14 1 16 0;
#X connect 14 2 17 0;
#X connect 14 3 18 0;
#X connect 14 4 19 0;
#X connect 14 5 20 0;
#X connect 14 6 21 0;
#X connect 14 7 22 0;
#X connect 23 0 8 0;
#X restore 1100 -37 pd counter;
#X connect 1 0 5 0;
#X connect 1 0 4 0;
#X connect 1 0 13 0;
#X connect 1 0 14 0;
#X connect 1 0 15 0;
#X connect 1 0 16 0;
#X connect 1 0 17 0;
#X connect 1 0 18 0;
#X connect 3 0 6 0;
#X connect 3 0 19 1;
#X connect 3 0 20 1;
#X connect 3 0 21 1;
#X connect 3 0 22 1;
#X connect 3 0 23 1;
#X connect 3 0 24 1;
#X connect 3 0 56 0;
#X connect 4 0 43 0;
#X connect 5 0 47 0;
#X connect 7 0 24 0;
#X connect 8 0 23 0;
#X connect 9 0 22 0;
#X connect 10 0 21 0;
#X connect 11 0 20 0;
#X connect 12 0 19 0;
#X connect 13 0 12 0;
#X connect 14 0 11 0;
#X connect 15 0 10 0;
#X connect 16 0 9 0;
#X connect 17 0 8 0;
#X connect 18 0 7 0;
#X connect 19 0 25 0;
#X connect 19 1 31 0;
#X connect 20 0 26 0;
#X connect 20 1 32 0;
#X connect 21 0 27 0;
#X connect 21 1 33 0;
#X connect 22 0 28 0;
#X connect 22 1 34 0;
#X connect 23 0 29 0;
#X connect 23 1 35 0;
#X connect 24 0 30 0;
#X connect 24 1 36 0;
#X connect 39 0 40 0;
#X connect 39 0 3 0;
#X connect 40 0 39 1;
#X connect 41 0 39 0;
#X connect 42 0 41 0;
#X connect 43 0 3 1;
#X connect 44 0 39 0;
#X connect 45 0 44 0;
#X connect 46 0 45 0;
#X connect 47 0 44 1;
#X connect 48 0 41 0;
#X coords 0 1 100 -1 300 330 1 0 0;
#X restore 86 0 graph;
#X obj 208 -19 declare -path z_Matrixseq_abs;
#X floatatom 8 359 5 0 0 0 - - -;
#X floatatom 45 360 5 0 0 0 - - -;
#X floatatom 101 359 5 0 0 0 - - -;
#X floatatom 138 360 5 0 0 0 - - -;
#X floatatom 194 358 5 0 0 0 - - -;
#X floatatom 231 359 5 0 0 0 - - -;
#X floatatom 280 359 5 0 0 0 - - -;
#X floatatom 317 360 5 0 0 0 - - -;
#X floatatom 369 359 5 0 0 0 - - -;
#X floatatom 406 360 5 0 0 0 - - -;
#X floatatom 456 360 5 0 0 0 - - -;
#X floatatom 493 360 5 0 0 0 - - -;
#X obj 8 381 s note1;
#X obj 101 381 s note2;
#X obj 194 380 s note3;
#X obj 280 381 s note4;
#X obj 369 379 s note5;
#X obj 45 405 s vel1;
#X obj 138 405 s vel2;
#X obj 231 404 s vel3;
#X obj 317 405 s vel4;
#X obj 406 403 s vel5;
#X obj 456 382 s note6;
#X obj 493 406 s vel6;
#X connect 0 0 2 0;
#X connect 0 1 3 0;
#X connect 0 2 4 0;
#X connect 0 3 5 0;
#X connect 0 4 6 0;
#X connect 0 5 7 0;
#X connect 0 6 8 0;
#X connect 0 7 9 0;
#X connect 0 8 10 0;
#X connect 0 9 11 0;
#X connect 0 10 12 0;
#X connect 0 11 13 0;
#X connect 2 0 14 0;
#X connect 3 0 19 0;
#X connect 4 0 15 0;
#X connect 5 0 20 0;
#X connect 6 0 16 0;
#X connect 7 0 21 0;
#X connect 8 0 17 0;
#X connect 9 0 22 0;
#X connect 10 0 18 0;
#X connect 11 0 23 0;
#X connect 12 0 24 0;
#X connect 13 0 25 0;
