#N canvas 126 108 612 365 10;
#X declare -path z_pdLiveNoteSeq_abs;
#N canvas 0 22 1024 720 (subpatch) 0;
#X obj 0 0 cnv 10 340 300 empty empty empty 20 12 0 14 -1 -66577 0
;
#X obj 5 66 cnv 15 330 230 empty empty empty 20 12 0 14 -66577 -66577
0;
#X obj 14 69 Step-Blue;
#X obj 52 69 Step-Blue;
#X obj 91 69 Step-Blue;
#X obj 129 69 Step-Blue;
#X obj 168 69 Step-Blue;
#X obj 206 69 Step-Blue;
#X obj 245 69 Step-Blue;
#X obj 283 69 Step-Blue;
#X obj 14 193 Step-Red;
#X obj 52 193 Step-Red;
#X obj 91 193 Step-Red;
#X obj 129 193 Step-Red;
#X obj 168 193 Step-Red;
#X obj 206 193 Step-Red;
#X obj 245 193 Step-Red;
#X obj 283 193 Step-Red;
#X obj 353 468 min 127;
#X obj 358 346 sel 0 1 2 3 4 5 6 7;
#X obj 346 602 outlet;
#X obj 588 236 outlet;
#X obj 441 174 mod 8;
#X obj 80 432 max 0;
#X obj 80 456 min 127;
#X obj 80 353 sel 0 1 2 3 4 5 6 7;
#X obj 76 584 outlet;
#X floatatom 620 159 5 0 0 0 - - -;
#X obj 80 393 i;
#X obj 106 392 i;
#X obj 131 392 i;
#X obj 157 391 i;
#X obj 183 392 i;
#X obj 209 391 i;
#X obj 234 391 i;
#X obj 260 390 i;
#X obj 353 405 i;
#X obj 379 404 i;
#X obj 404 404 i;
#X obj 430 403 i;
#X obj 456 404 i;
#X obj 482 403 i;
#X obj 507 403 i;
#X obj 533 402 i;
#X obj 75 546 line;
#X obj 75 524 pack i 500;
#X floatatom 131 501 5 0 0 0 - - -;
#X obj 344 555 pack i 500;
#X floatatom 400 532 5 0 0 0 - - -;
#X obj 344 575 line;
#X obj 353 444 max 1;
#X obj 23 171 ColoredToggleGreen;
#X obj 616 334 sel 0 1 2 3 4 5 6 7;
#X obj 611 393 i;
#X obj 637 392 i;
#X obj 662 392 i;
#X obj 688 391 i;
#X obj 714 392 i;
#X obj 740 391 i;
#X obj 765 391 i;
#X obj 791 390 i;
#X obj 611 432 max 1;
#X obj 62 171 ColoredToggleGreen;
#X obj 101 171 ColoredToggleGreen;
#X obj 139 171 ColoredToggleGreen;
#X obj 178 171 ColoredToggleGreen;
#X obj 217 171 ColoredToggleGreen;
#X obj 253 171 ColoredToggleGreen;
#X obj 292 171 ColoredToggleGreen;
#X obj 21 33 tgl 25 0 \$0-blah \$0-1color.r empty 17 7 0 10 -233017
-233017 -233017 0 1;
#X obj 9 6 cnv 15 320 20 empty empty empty 20 12 0 14 -66577 -66577
0;
#X obj 446 151 i;
#X obj 494 152 + 1;
#X msg 476 121 0;
#X obj 464 53 sel 0;
#X obj 175 9 nbx 2 14 2 8 0 0 empty empty Modulo 45 8 1 11 -1 -260097
-260097 8 256;
#X obj 97 -61 loadbang;
#X text 68 -92 NOte sequencer;
#X msg 123 -38 8;
#X obj 441 8 metro 500;
#X obj 12 9 tgl 15 0 empty empty On/Off 17 7 1 11 -1 -260097 -260097
0 1;
#X obj 9 -48 inlet;
#X obj 73 8 nbx 4 14 0 10000 0 0 empty empty Metro 45 8 1 11 -1 -260097
-260097 500 256;
#X msg 97 -39 500;
#X obj 280 8 bng 15 250 50 0 empty empty Reset 17 7 0 10 -1 -260097
-260097;
#X obj 59 33 tgl 25 0 \$0-blah \$0-2color.r empty 17 7 0 10 -233017
-233017 -233017 0 1;
#X obj 98 33 tgl 25 0 \$0-blah \$0-3color.r empty 17 7 0 10 -233017
-233017 -233017 0 1;
#X obj 136 33 tgl 25 0 \$0-blah \$0-4color.r empty 17 7 0 10 -233017
-233017 -233017 0 1;
#X obj 175 33 tgl 25 0 \$0-blah \$0-5color.r empty 17 7 0 10 -233017
-233017 -233017 0 1;
#X obj 213 33 tgl 25 0 \$0-blah \$0-6color.r empty 17 7 0 10 -233017
-233017 -233017 0 1;
#X obj 252 33 tgl 25 0 \$0-blah \$0-7color.r empty 17 7 0 10 -233017
-233017 -233017 0 1;
#X obj 290 33 tgl 25 0 \$0-blah \$0-8color.r empty 17 7 0 10 -233017
-233017 -233017 0 1;
#N canvas 408 99 700 545 counter 0;
#X obj 270 22 inlet;
#X obj 82 285 loadbang;
#X msg 90 206 \$1 color \$2 \$2 \$2;
#X obj 195 179 pack;
#X obj 309 143 - 1;
#X obj 270 116 t f b f;
#X obj 309 172 sel -1;
#X obj 336 275 pack;
#X obj 330 231 t f b;
#X msg 336 302 \$1 color \$2 \$2 \$2;
#X msg 82 342 color \$1 \$1 \$1;
#X obj 216 154 f -1.67434e+07;
#X obj 82 309 f 10;
#X obj 357 253 f 10;
#X obj 264 372 route 0 1 2 3 4 5 6 7;
#X obj 264 685 s \$0-1color.r;
#X obj 279 666 s \$0-2color.r;
#X obj 295 646 s \$0-3color.r;
#X obj 311 627 s \$0-4color.r;
#X obj 327 608 s \$0-5color.r;
#X obj 343 589 s \$0-6color.r;
#X obj 359 570 s \$0-7color.r;
#X obj 375 551 s \$0-8color.r;
#X obj 309 199 7;
#X connect 0 0 5 0;
#X connect 1 0 12 0;
#X connect 2 0 14 0;
#X connect 3 0 2 0;
#X connect 4 0 6 0;
#X connect 5 0 3 0;
#X connect 5 1 11 0;
#X connect 5 2 4 0;
#X connect 6 0 23 0;
#X connect 6 1 8 0;
#X connect 7 0 9 0;
#X connect 8 0 7 0;
#X connect 8 1 13 0;
#X connect 9 0 14 0;
#X connect 10 0 15 0;
#X connect 10 0 16 0;
#X connect 10 0 17 0;
#X connect 10 0 18 0;
#X connect 10 0 19 0;
#X connect 10 0 20 0;
#X connect 10 0 21 0;
#X connect 10 0 22 0;
#X connect 11 0 3 1;
#X connect 12 0 10 0;
#X connect 13 0 7 1;
#X connect 14 0 15 0;
#X connect 14 1 16 0;
#X connect 14 2 17 0;
#X connect 14 3 18 0;
#X connect 14 4 19 0;
#X connect 14 5 20 0;
#X connect 14 6 21 0;
#X connect 14 7 22 0;
#X connect 23 0 8 0;
#X restore 671 -9 pd counter;
#X connect 2 0 36 1;
#X connect 3 0 37 1;
#X connect 4 0 38 1;
#X connect 5 0 39 1;
#X connect 6 0 40 1;
#X connect 7 0 41 1;
#X connect 8 0 42 1;
#X connect 9 0 43 1;
#X connect 10 0 28 1;
#X connect 11 0 29 1;
#X connect 12 0 30 1;
#X connect 13 0 31 1;
#X connect 14 0 32 1;
#X connect 15 0 33 1;
#X connect 16 0 34 1;
#X connect 17 0 35 1;
#X connect 18 0 47 0;
#X connect 19 0 36 0;
#X connect 19 1 37 0;
#X connect 19 2 38 0;
#X connect 19 3 39 0;
#X connect 19 4 40 0;
#X connect 19 5 41 0;
#X connect 19 6 42 0;
#X connect 19 7 43 0;
#X connect 22 0 19 0;
#X connect 22 0 21 0;
#X connect 22 0 25 0;
#X connect 22 0 27 0;
#X connect 22 0 52 0;
#X connect 22 0 92 0;
#X connect 23 0 24 0;
#X connect 24 0 45 0;
#X connect 25 0 28 0;
#X connect 25 1 29 0;
#X connect 25 2 30 0;
#X connect 25 3 31 0;
#X connect 25 4 32 0;
#X connect 25 5 33 0;
#X connect 25 6 34 0;
#X connect 25 7 35 0;
#X connect 28 0 23 0;
#X connect 29 0 23 0;
#X connect 30 0 23 0;
#X connect 31 0 23 0;
#X connect 32 0 23 0;
#X connect 33 0 23 0;
#X connect 34 0 23 0;
#X connect 35 0 23 0;
#X connect 36 0 50 0;
#X connect 37 0 50 0;
#X connect 38 0 50 0;
#X connect 39 0 50 0;
#X connect 40 0 50 0;
#X connect 41 0 50 0;
#X connect 42 0 50 0;
#X connect 43 0 50 0;
#X connect 44 0 26 0;
#X connect 45 0 44 0;
#X connect 46 0 45 1;
#X connect 47 0 49 0;
#X connect 48 0 47 1;
#X connect 49 0 20 0;
#X connect 50 0 18 0;
#X connect 51 1 53 1;
#X connect 52 0 53 0;
#X connect 52 1 54 0;
#X connect 52 2 55 0;
#X connect 52 3 56 0;
#X connect 52 4 57 0;
#X connect 52 5 58 0;
#X connect 52 6 59 0;
#X connect 52 7 60 0;
#X connect 53 0 61 0;
#X connect 54 0 61 0;
#X connect 55 0 61 0;
#X connect 56 0 61 0;
#X connect 57 0 61 0;
#X connect 58 0 61 0;
#X connect 59 0 61 0;
#X connect 60 0 61 0;
#X connect 61 0 45 1;
#X connect 61 0 48 0;
#X connect 62 1 54 1;
#X connect 63 1 55 1;
#X connect 64 1 56 1;
#X connect 65 1 57 1;
#X connect 66 1 58 1;
#X connect 67 1 59 1;
#X connect 68 1 60 1;
#X connect 71 0 72 0;
#X connect 71 0 22 0;
#X connect 72 0 71 1;
#X connect 73 0 71 0;
#X connect 74 0 73 0;
#X connect 75 0 22 1;
#X connect 76 0 83 0;
#X connect 76 0 78 0;
#X connect 78 0 75 0;
#X connect 79 0 71 0;
#X connect 80 0 79 0;
#X connect 81 0 80 0;
#X connect 82 0 79 1;
#X connect 83 0 82 0;
#X connect 84 0 73 0;
#X coords 0 1 100 -1 340 300 1 0 0;
#X restore 88 20 graph;
#X obj 100 337 s note1;
#X obj 227 336 s vel1;
#X obj 195 1 declare -path z_pdLiveNoteSeq_abs;
#X floatatom 100 321 5 0 0 0 - - -;
#X floatatom 227 320 5 0 0 0 - - -;
#X text 451 26 Blue = notes;
#X text 451 42 Green = sliding time;
#X text 453 58 Red = velocity;
#X connect 0 0 4 0;
#X connect 0 1 5 0;
#X connect 4 0 1 0;
#X connect 5 0 2 0;
