#N canvas 0 22 917 646 10;
#N canvas 410 78 508 546 NoteSequencer 0;
#X obj -65 231 i;
#X obj -17 232 + 1;
#X msg -40 195 0;
#X obj -65 405 max 0;
#X obj -65 429 min 127;
#X obj -52 127 sel 0;
#X obj 202 14 nbx 2 14 2 8 0 0 empty empty modulo 0 -6 0 10 -262144
-1 -1 8 256;
#X obj -65 366 f;
#X obj -39 365 f;
#X obj -14 365 f;
#X obj 12 364 f;
#X obj 38 365 f;
#X obj 64 364 f;
#X obj 89 364 f;
#X obj 115 363 f;
#X obj 2 57 hradio 40 1 0 8 empty empty empty 0 -6 0 8 -191407 -260097
-1 0;
#X obj 282 36 nbx 3 20 0 127 0 0 empty empty empty 0 -6 0 10 -262144
-1 -1 0 256;
#X obj -65 326 sel 0 1 2 3 4 5 6 7;
#X obj 33 -54 loadbang;
#X text 4 -85 NOte sequencer;
#X obj -65 451 outlet;
#X obj -109 290 outlet;
#X obj -65 258 mod 8;
#X msg 59 -31 8;
#X obj 242 36 nbx 3 20 0 127 0 0 empty empty empty 0 -6 0 10 -262144
-1 -1 0 256;
#X obj 202 36 nbx 3 20 0 127 0 0 empty empty empty 0 -6 0 10 -262144
-1 -1 0 256;
#X obj 162 36 nbx 3 20 0 127 0 0 empty empty empty 0 -6 0 10 -262144
-1 -1 0 256;
#X obj 122 36 nbx 3 20 0 127 0 0 empty empty empty 0 -6 0 10 -262144
-1 -1 0 256;
#X obj 82 36 nbx 3 20 0 127 0 0 empty empty empty 0 -6 0 10 -262144
-1 -1 0 256;
#X obj 42 36 nbx 3 20 0 127 0 0 empty empty empty 0 -6 0 10 -262144
-1 -1 0 256;
#X obj 2 36 nbx 3 20 0 127 0 0 empty empty empty 0 -6 0 10 -262144
-1 -1 0 256;
#X obj 282 98 nbx 3 20 0 127 0 0 empty empty empty 0 -6 0 10 -1 -262144
-262144 0 256;
#X obj 242 98 nbx 3 20 0 127 0 0 empty empty empty 0 -6 0 10 -1 -262144
-262144 0 256;
#X obj 202 98 nbx 3 20 0 127 0 0 empty empty empty 0 -6 0 10 -1 -262144
-262144 0 256;
#X obj 162 98 nbx 3 20 0 127 0 0 empty empty empty 0 -6 0 10 -1 -262144
-262144 0 256;
#X obj 122 98 nbx 3 20 0 127 0 0 empty empty empty 0 -6 0 10 -1 -262144
-262144 0 256;
#X obj 82 98 nbx 3 20 0 127 0 0 empty empty empty 0 -6 0 10 -1 -262144
-262144 0 256;
#X obj 42 98 nbx 3 20 0 127 0 0 empty empty empty 0 -6 0 10 -1 -262144
-262144 0 256;
#X obj 2 98 nbx 3 20 0 127 0 0 empty empty empty 0 -6 0 10 -1 -262144
-262144 0 256;
#X obj 190 409 max 0;
#X obj 190 433 min 127;
#X obj 190 370 f;
#X obj 216 369 f;
#X obj 241 369 f;
#X obj 267 368 f;
#X obj 293 369 f;
#X obj 319 368 f;
#X obj 344 368 f;
#X obj 370 367 f;
#X obj 190 330 sel 0 1 2 3 4 5 6 7;
#X obj 190 455 outlet;
#X text 0 21 Notes;
#X text 2 118 Velocity;
#X obj -89 89 metro 500;
#X obj 2 6 tgl 15 0 empty empty empty 17 7 0 10 -262144 -1 -1 0 1;
#X obj -55 -41 inlet;
#X obj 110 14 nbx 5 14 0 10000 0 0 empty empty metro 0 -6 0 10 -262144
-1 -1 500 256;
#X msg 33 -32 500;
#X connect 0 0 22 0;
#X connect 1 0 0 1;
#X connect 2 0 0 0;
#X connect 3 0 4 0;
#X connect 4 0 20 0;
#X connect 5 0 2 0;
#X connect 6 0 22 1;
#X connect 7 0 3 0;
#X connect 8 0 3 0;
#X connect 9 0 3 0;
#X connect 10 0 3 0;
#X connect 11 0 3 0;
#X connect 12 0 3 0;
#X connect 13 0 3 0;
#X connect 14 0 3 0;
#X connect 16 0 14 1;
#X connect 17 0 7 0;
#X connect 17 1 8 0;
#X connect 17 2 9 0;
#X connect 17 3 10 0;
#X connect 17 4 11 0;
#X connect 17 5 12 0;
#X connect 17 6 13 0;
#X connect 17 7 14 0;
#X connect 18 0 57 0;
#X connect 18 0 23 0;
#X connect 22 0 1 0;
#X connect 22 0 17 0;
#X connect 22 0 15 0;
#X connect 22 0 21 0;
#X connect 22 0 49 0;
#X connect 23 0 6 0;
#X connect 24 0 13 1;
#X connect 25 0 12 1;
#X connect 26 0 11 1;
#X connect 27 0 10 1;
#X connect 28 0 9 1;
#X connect 29 0 8 1;
#X connect 30 0 7 1;
#X connect 31 0 48 1;
#X connect 32 0 47 1;
#X connect 33 0 46 1;
#X connect 34 0 45 1;
#X connect 35 0 44 1;
#X connect 36 0 43 1;
#X connect 37 0 42 1;
#X connect 38 0 41 1;
#X connect 39 0 40 0;
#X connect 40 0 50 0;
#X connect 41 0 39 0;
#X connect 42 0 39 0;
#X connect 43 0 39 0;
#X connect 44 0 39 0;
#X connect 45 0 39 0;
#X connect 46 0 39 0;
#X connect 47 0 39 0;
#X connect 48 0 39 0;
#X connect 49 0 41 0;
#X connect 49 1 42 0;
#X connect 49 2 43 0;
#X connect 49 3 44 0;
#X connect 49 4 45 0;
#X connect 49 5 46 0;
#X connect 49 6 47 0;
#X connect 49 7 48 0;
#X connect 53 0 0 0;
#X connect 54 0 53 0;
#X connect 55 0 54 0;
#X connect 56 0 53 1;
#X connect 57 0 56 0;
#X coords 0 -1 1 1 325 135 1 0 0;
#X restore 48 21 pd NoteSequencer;
#X text 310 74 midi notes;
#X text 310 96 position;
#X text 419 30 You just have to change the name of the send vel and
send note to those correpsonding to the receive signal in the Midi_Synth
patch you'll open.;
#X text 387 140 step \, note \, velocity;
#X obj 207 162 s note;
#X obj 366 160 s vel;
#X floatatom 49 161 5 0 0 0 - - -;
#N canvas 0 22 1024 720 NoteSequencer 0;
#X obj -65 231 i;
#X obj -17 232 + 1;
#X msg -40 195 0;
#X obj -65 405 max 0;
#X obj -65 429 min 127;
#X obj -53 127 sel 0;
#X obj 244 12 nbx 2 14 2 16 0 0 empty empty modulo 0 -6 0 10 -262144
-1 -1 16 256;
#X obj -65 366 f;
#X obj -39 365 f;
#X obj -14 365 f;
#X obj 12 364 f;
#X obj 38 365 f;
#X obj 64 364 f;
#X obj 89 364 f;
#X obj 115 363 f;
#X obj 2 57 hradio 40 1 0 16 empty empty empty 0 -6 0 8 -191407 -260097
-1 5;
#X obj 282 36 nbx 3 20 0 127 0 0 empty empty empty 0 -6 0 10 -262144
-1 -1 0 256;
#X obj 33 -54 loadbang;
#X text 4 -85 NOte sequencer;
#X obj -65 451 outlet;
#X obj -109 290 outlet;
#X obj 242 36 nbx 3 20 0 127 0 0 empty empty empty 0 -6 0 10 -262144
-1 -1 0 256;
#X obj 202 36 nbx 3 20 0 127 0 0 empty empty empty 0 -6 0 10 -262144
-1 -1 0 256;
#X obj 162 36 nbx 3 20 0 127 0 0 empty empty empty 0 -6 0 10 -262144
-1 -1 0 256;
#X obj 122 36 nbx 3 20 0 127 0 0 empty empty empty 0 -6 0 10 -262144
-1 -1 0 256;
#X obj 82 36 nbx 3 20 0 127 0 0 empty empty empty 0 -6 0 10 -262144
-1 -1 0 256;
#X obj 42 36 nbx 3 20 0 127 0 0 empty empty empty 0 -6 0 10 -262144
-1 -1 0 256;
#X obj 2 36 nbx 3 20 0 127 0 0 empty empty empty 0 -6 0 10 -262144
-1 -1 0 256;
#X obj 282 98 nbx 3 20 0 127 0 0 empty empty empty 0 -6 0 10 -1 -262144
-262144 0 256;
#X obj 242 98 nbx 3 20 0 127 0 0 empty empty empty 0 -6 0 10 -1 -262144
-262144 0 256;
#X obj 202 98 nbx 3 20 0 127 0 0 empty empty empty 0 -6 0 10 -1 -262144
-262144 0 256;
#X obj 162 98 nbx 3 20 0 127 0 0 empty empty empty 0 -6 0 10 -1 -262144
-262144 0 256;
#X obj 122 98 nbx 3 20 0 127 0 0 empty empty empty 0 -6 0 10 -1 -262144
-262144 0 256;
#X obj 82 98 nbx 3 20 0 127 0 0 empty empty empty 0 -6 0 10 -1 -262144
-262144 0 256;
#X obj 42 98 nbx 3 20 0 127 0 0 empty empty empty 0 -6 0 10 -1 -262144
-262144 0 256;
#X obj 2 98 nbx 3 20 0 127 0 0 empty empty empty 0 -6 0 10 -1 -262144
-262144 0 256;
#X obj 451 413 max 0;
#X obj 451 437 min 127;
#X obj 451 374 f;
#X obj 477 373 f;
#X obj 502 373 f;
#X obj 528 372 f;
#X obj 554 373 f;
#X obj 580 372 f;
#X obj 605 372 f;
#X obj 631 371 f;
#X obj 451 459 outlet;
#X text 0 21 Notes;
#X text 2 118 Velocity;
#X obj 603 37 nbx 3 20 0 127 0 0 empty empty empty 0 -6 0 10 -262144
-1 -1 0 256;
#X obj 563 37 nbx 3 20 0 127 0 0 empty empty empty 0 -6 0 10 -262144
-1 -1 0 256;
#X obj 523 37 nbx 3 20 0 127 0 0 empty empty empty 0 -6 0 10 -262144
-1 -1 0 256;
#X obj 483 37 nbx 3 20 0 127 0 0 empty empty empty 0 -6 0 10 -262144
-1 -1 0 256;
#X obj 443 37 nbx 3 20 0 127 0 0 empty empty empty 0 -6 0 10 -262144
-1 -1 0 256;
#X obj 403 37 nbx 3 20 0 127 0 0 empty empty empty 0 -6 0 10 -262144
-1 -1 0 256;
#X obj 363 37 nbx 3 20 0 127 0 0 empty empty empty 0 -6 0 10 -262144
-1 -1 0 256;
#X obj 323 37 nbx 3 20 0 127 0 0 empty empty empty 0 -6 0 10 -262144
-1 -1 0 256;
#X obj 603 98 nbx 3 20 0 127 0 0 empty empty empty 0 -6 0 10 -1 -262144
-262144 0 256;
#X obj 563 98 nbx 3 20 0 127 0 0 empty empty empty 0 -6 0 10 -1 -262144
-262144 0 256;
#X obj 523 98 nbx 3 20 0 127 0 0 empty empty empty 0 -6 0 10 -1 -262144
-262144 0 256;
#X obj 483 98 nbx 3 20 0 127 0 0 empty empty empty 0 -6 0 10 -1 -262144
-262144 0 256;
#X obj 443 98 nbx 3 20 0 127 0 0 empty empty empty 0 -6 0 10 -1 -262144
-262144 0 256;
#X obj 403 98 nbx 3 20 0 127 0 0 empty empty empty 0 -6 0 10 -1 -262144
-262144 0 256;
#X obj 363 98 nbx 3 20 0 127 0 0 empty empty empty 0 -6 0 10 -1 -262144
-262144 0 256;
#X obj 323 98 nbx 3 20 0 127 0 0 empty empty empty 0 -6 0 10 -1 -262144
-262144 0 256;
#X obj -65 258 mod 16;
#X obj 143 363 f;
#X obj 169 362 f;
#X obj 194 362 f;
#X obj 220 361 f;
#X obj 246 362 f;
#X obj 272 361 f;
#X obj 297 361 f;
#X obj 323 360 f;
#X obj 663 371 f;
#X obj 689 370 f;
#X obj 714 370 f;
#X obj 740 369 f;
#X obj 766 370 f;
#X obj 792 369 f;
#X obj 817 369 f;
#X obj 843 368 f;
#X obj 10 309 sel 0 1 2 3 4 5 6 7 8 9 10 11 12 13 14 15;
#X obj 510 301 sel 0 1 2 3 4 5 6 7 8 9 10 11 12 13 14 15;
#X obj -152 69 metro 500;
#X obj 4 4 tgl 15 0 empty empty empty 17 7 0 10 -262144 -1 -1 0 1;
#X obj -118 -61 inlet;
#X obj 151 12 nbx 5 14 0 10000 0 0 empty empty metro 0 -6 0 10 -262144
-1 -1 0 256;
#X msg 33 -32 500;
#X msg 59 -31 16;
#X connect 0 0 65 0;
#X connect 1 0 0 1;
#X connect 2 0 0 0;
#X connect 3 0 4 0;
#X connect 4 0 19 0;
#X connect 5 0 2 0;
#X connect 6 0 65 1;
#X connect 7 0 3 0;
#X connect 8 0 3 0;
#X connect 9 0 3 0;
#X connect 10 0 3 0;
#X connect 11 0 3 0;
#X connect 12 0 3 0;
#X connect 13 0 3 0;
#X connect 14 0 3 0;
#X connect 16 0 14 1;
#X connect 17 0 88 0;
#X connect 17 0 89 0;
#X connect 21 0 13 1;
#X connect 22 0 12 1;
#X connect 23 0 11 1;
#X connect 24 0 10 1;
#X connect 25 0 9 1;
#X connect 26 0 8 1;
#X connect 27 0 7 1;
#X connect 28 0 45 1;
#X connect 29 0 44 1;
#X connect 30 0 43 1;
#X connect 31 0 42 1;
#X connect 32 0 41 1;
#X connect 33 0 40 1;
#X connect 34 0 39 1;
#X connect 35 0 38 1;
#X connect 36 0 37 0;
#X connect 37 0 46 0;
#X connect 38 0 36 0;
#X connect 39 0 36 0;
#X connect 40 0 36 0;
#X connect 41 0 36 0;
#X connect 42 0 36 0;
#X connect 43 0 36 0;
#X connect 44 0 36 0;
#X connect 45 0 36 0;
#X connect 49 0 73 1;
#X connect 50 0 72 1;
#X connect 51 0 71 1;
#X connect 52 0 70 1;
#X connect 53 0 69 1;
#X connect 54 0 68 1;
#X connect 55 0 67 1;
#X connect 56 0 66 1;
#X connect 57 0 81 1;
#X connect 58 0 80 1;
#X connect 59 0 79 1;
#X connect 60 0 78 1;
#X connect 61 0 77 1;
#X connect 62 0 76 1;
#X connect 63 0 75 1;
#X connect 64 0 74 1;
#X connect 65 0 1 0;
#X connect 65 0 15 0;
#X connect 65 0 20 0;
#X connect 65 0 82 0;
#X connect 65 0 83 0;
#X connect 82 0 7 0;
#X connect 82 1 8 0;
#X connect 82 2 9 0;
#X connect 82 3 10 0;
#X connect 82 4 11 0;
#X connect 82 5 12 0;
#X connect 82 6 13 0;
#X connect 82 7 14 0;
#X connect 82 8 66 0;
#X connect 82 9 67 0;
#X connect 82 10 68 0;
#X connect 82 11 69 0;
#X connect 82 12 70 0;
#X connect 82 13 71 0;
#X connect 82 14 72 0;
#X connect 82 15 73 0;
#X connect 83 0 38 0;
#X connect 83 1 39 0;
#X connect 83 2 40 0;
#X connect 83 3 41 0;
#X connect 83 4 42 0;
#X connect 83 5 43 0;
#X connect 83 6 44 0;
#X connect 83 7 45 0;
#X connect 83 8 74 0;
#X connect 83 9 75 0;
#X connect 83 10 76 0;
#X connect 83 11 77 0;
#X connect 83 12 78 0;
#X connect 83 13 79 0;
#X connect 83 14 80 0;
#X connect 83 15 81 0;
#X connect 84 0 0 0;
#X connect 85 0 84 0;
#X connect 86 0 85 0;
#X connect 87 0 84 1;
#X connect 88 0 87 0;
#X connect 89 0 6 0;
#X coords 0 -1 1 1 643 135 1 0 0;
#X restore 47 278 pd NoteSequencer;
#X text 309 331 midi notes;
#X text 309 353 position;
#X text 386 397 step \, note \, velocity;
#X obj 366 561 s note;
#X obj 683 481 s vel;
#X floatatom 48 418 5 0 0 0 - - -;
#N canvas 2 22 450 300 (subpatch) 0;
#X obj -36 170 random 8;
#X text 154 182 what note to play;
#X text 120 198 only numbers 7 \, 1 \, 2 \, 3 \, 4 \, 5 will trigger
notes;
#X text 139 213 any other value will trigger nothing;
#X text 31 169 if this beat is a trigger use a random number to work
out;
#X obj 9 16 vsl 15 50 0 30 0 0 empty empty prob 0 -8 0 8 -262144 -1
-1 1307 1;
#X msg 220 0 8;
#X obj 220 -29 loadbang;
#X text 219 -58 set initial;
#X text 219 -47 probability;
#X floatatom -102 171 0 0 0 0 - - -;
#X obj -117 240 +;
#X msg -117 219 0;
#X msg -86 220 0;
#X msg -57 220 0;
#X msg -27 220 0;
#X obj -85 240 +;
#X obj -57 240 +;
#X obj -27 240 +;
#X obj 3 240 +;
#X obj 34 241 +;
#X obj 64 241 +;
#X msg 64 220 0;
#X msg 34 221 0;
#X msg 3 221 0;
#X obj -36 197 select 0 7 1 2 3 4 5 6;
#X obj 92 241 +;
#X msg 92 220 0;
#X floatatom -117 264 0 0 0 0 - - -;
#X obj -36 150 bng 15 250 50 0 empty empty empty 17 7 0 10 -262144
-1 -1;
#X text -106 -48 Will I play ?;
#X obj -102 126 inlet;
#X obj -117 299 outlet;
#X obj 9 -69 r ProbBang;
#X obj 11 -41 random 30;
#X obj 12 -21 + 1;
#X obj -70 -16 bng 15 250 50 0 empty empty empty 17 7 0 10 -262144
-1 -1;
#X text 26 5 <- low;
#X text 27 54 <- high;
#X connect 0 0 25 0;
#X connect 5 0 0 1;
#X connect 6 0 5 0;
#X connect 7 0 6 0;
#X connect 10 0 11 1;
#X connect 10 0 16 1;
#X connect 10 0 17 1;
#X connect 10 0 18 1;
#X connect 10 0 19 1;
#X connect 10 0 20 1;
#X connect 10 0 21 1;
#X connect 10 0 26 1;
#X connect 11 0 28 0;
#X connect 12 0 11 0;
#X connect 13 0 16 0;
#X connect 14 0 17 0;
#X connect 15 0 18 0;
#X connect 16 0 28 0;
#X connect 17 0 28 0;
#X connect 18 0 28 0;
#X connect 19 0 28 0;
#X connect 20 0 28 0;
#X connect 21 0 28 0;
#X connect 22 0 21 0;
#X connect 23 0 20 0;
#X connect 24 0 19 0;
#X connect 25 0 12 0;
#X connect 25 1 13 0;
#X connect 25 2 14 0;
#X connect 25 3 15 0;
#X connect 25 4 24 0;
#X connect 25 5 23 0;
#X connect 25 6 22 0;
#X connect 25 7 27 0;
#X connect 26 0 28 0;
#X connect 27 0 26 0;
#X connect 28 0 32 0;
#X connect 29 0 0 0;
#X connect 31 0 10 0;
#X connect 31 0 29 0;
#X connect 33 0 34 0;
#X connect 34 0 35 0;
#X connect 35 0 5 0;
#X connect 36 0 34 0;
#X coords 0 1 100 -1 80 80 1 0 0;
#X restore 365 413 graph;
#N canvas 0 22 450 300 (subpatch) 0;
#X floatatom -80 59 5 0 0 0 - - -;
#X obj -80 134 line;
#X obj -80 81 pack f f;
#X obj -80 104 unpack f f;
#X floatatom -79 164 5 0 0 0 - - -;
#X floatatom 2 32 5 0 0 0 - - -;
#X obj 2 3 knob 25 25 0 127 0 0 empty empty Gliss_Length 30 5 32 8
-1 -260097 -260097 0 1;
#X floatatom 2 51 5 0 0 0 - - -;
#X obj 71 -22 * 10;
#X obj -80 35 inlet;
#X obj -80 186 outlet;
#X obj 71 -43 inlet;
#X connect 0 0 2 0;
#X connect 1 0 4 0;
#X connect 2 0 3 0;
#X connect 3 0 1 0;
#X connect 3 1 1 1;
#X connect 4 0 10 0;
#X connect 5 0 8 0;
#X connect 6 0 5 0;
#X connect 7 0 2 1;
#X connect 8 0 7 0;
#X connect 9 0 0 0;
#X connect 11 0 8 1;
#X coords 0 1 100 -1 100 68 1 0 0;
#X restore 365 493 graph;
#N canvas 0 22 450 300 armfloat 0;
#X obj 119 84 inlet bang;
#X obj 222 83 inlet trig;
#X obj 119 387 f;
#X obj 119 410 change;
#X obj 119 435 outlet trig;
#X obj 355 83 inlet wait;
#X obj 284 262 f;
#X msg 299 220 0;
#X obj 284 287 + 1;
#X obj 119 195 spigot;
#X msg 152 160 0;
#X msg 184 159 1;
#X obj 222 113 t b b;
#X obj 355 195 moses 1;
#X obj 284 310 sel 1;
#X connect 0 0 9 0;
#X connect 1 0 2 1;
#X connect 1 0 12 0;
#X connect 2 0 3 0;
#X connect 3 0 4 0;
#X connect 5 0 13 0;
#X connect 6 0 8 0;
#X connect 7 0 6 1;
#X connect 8 0 6 1;
#X connect 8 0 14 0;
#X connect 9 0 6 0;
#X connect 10 0 9 1;
#X connect 11 0 9 1;
#X connect 12 0 11 0;
#X connect 12 1 7 0;
#X connect 13 1 14 1;
#X connect 14 0 2 0;
#X connect 14 0 10 0;
#X restore 48 -3 pd armfloat;
#X obj 48 -21 r Mbang;
#X obj 79 -38 tgl 15 0 empty empty empty 0 -6 0 8 -262144 -1 -1 0 1
;
#N canvas 0 22 450 300 armfloat 0;
#X obj 119 84 inlet bang;
#X obj 222 83 inlet trig;
#X obj 119 387 f;
#X obj 119 410 change;
#X obj 119 435 outlet trig;
#X obj 355 83 inlet wait;
#X obj 284 262 f;
#X msg 299 220 0;
#X obj 284 287 + 1;
#X obj 119 195 spigot;
#X msg 152 160 0;
#X msg 184 159 1;
#X obj 222 113 t b b;
#X obj 355 195 moses 1;
#X obj 284 310 sel 1;
#X connect 0 0 9 0;
#X connect 1 0 2 1;
#X connect 1 0 12 0;
#X connect 2 0 3 0;
#X connect 3 0 4 0;
#X connect 5 0 13 0;
#X connect 6 0 8 0;
#X connect 7 0 6 1;
#X connect 8 0 6 1;
#X connect 8 0 14 0;
#X connect 9 0 6 0;
#X connect 10 0 9 1;
#X connect 11 0 9 1;
#X connect 12 0 11 0;
#X connect 12 1 7 0;
#X connect 13 1 14 1;
#X connect 14 0 2 0;
#X connect 14 0 10 0;
#X restore 47 257 pd armfloat;
#X obj 47 239 r Mbang;
#X obj 78 222 tgl 15 0 empty empty empty 0 -6 0 8 -262144 -1 -1 0 1
;
#X connect 0 0 7 0;
#X connect 0 1 5 0;
#X connect 0 2 6 0;
#X connect 8 0 14 0;
#X connect 8 1 15 0;
#X connect 8 2 13 0;
#X connect 15 0 16 0;
#X connect 16 0 12 0;
#X connect 17 0 0 0;
#X connect 18 0 17 0;
#X connect 19 0 17 1;
#X connect 20 0 8 0;
#X connect 21 0 20 0;
#X connect 22 0 20 1;
