#N canvas 0 22 922 488 10;
#N canvas 304 114 508 546 NoteSequencer 0;
#X obj -65 231 i;
#X obj -17 232 + 1;
#X msg -40 195 0;
#X obj -65 405 max 0;
#X obj -65 429 min 127;
#X obj -65 455 s NOTE-in;
#X obj -40 133 sel 0;
#X obj 8 28 tgl 15 0 empty empty on 0 -6 0 8 -262144 -1 -1 0 1;
#X obj -65 160 metro 100;
#X obj 27 29 nbx 5 14 -1e+37 1e+37 0 0 empty empty msec 0 -6 0 10 -262144
-1 -1 200 256;
#X obj -65 258 mod 16;
#X obj 93 30 nbx 2 14 2 8 0 0 empty empty modulo 0 -6 0 10 -262144
-1 -1 4 256;
#X obj -65 366 f;
#X obj -39 365 f;
#X obj -14 365 f;
#X obj 12 364 f;
#X obj 38 365 f;
#X obj 64 364 f;
#X obj 89 364 f;
#X obj 115 363 f;
#X obj 7 57 nbx 3 10 0 127 0 0 empty empty empty 0 -6 0 7 -262144 -1
-1 0 256;
#X obj 7 67 hradio 30 1 0 8 empty empty empty 0 -6 0 8 -262144 -1 -1
0;
#X obj 37 57 nbx 3 10 0 127 0 0 empty empty empty 0 -6 0 7 -262144
-1 -1 0 256;
#X obj 67 57 nbx 3 10 0 127 0 0 empty empty empty 0 -6 0 7 -262144
-1 -1 0 256;
#X obj 97 57 nbx 3 10 0 127 0 0 empty empty empty 0 -6 0 7 -262144
-1 -1 0 256;
#X obj 127 57 nbx 3 10 0 127 0 0 empty empty empty 0 -6 0 7 -262144
-1 -1 0 256;
#X obj 157 57 nbx 3 10 0 127 0 0 empty empty empty 0 -6 0 7 -262144
-1 -1 0 256;
#X obj 187 57 nbx 3 10 0 127 0 0 empty empty empty 0 -6 0 7 -262144
-1 -1 0 256;
#X obj 217 57 nbx 3 10 0 127 0 0 empty empty empty 0 -6 0 7 -262144
-1 -1 0 256;
#X obj -65 326 sel 0 1 2 3 4 5 6 7;
#X obj 26 -36 loadbang;
#X msg 26 -14 200;
#X msg 52 -13 4;
#X text 4 -85 NOte sequencer;
#X text 263 51 <- notes midi;
#X text 261 77 <- visualisateur;
#X obj 3 453 outlet;
#X obj -134 291 outlet;
#X floatatom -134 259 5 0 0 0 - - -;
#X obj -26 -39 bang;
#X obj -27 -66 inlet;
#X obj 281 158 s modulo;
#X connect 0 0 10 0;
#X connect 1 0 0 1;
#X connect 2 0 0 0;
#X connect 3 0 4 0;
#X connect 4 0 5 0;
#X connect 4 0 36 0;
#X connect 6 0 2 0;
#X connect 7 0 6 0;
#X connect 7 0 8 0;
#X connect 8 0 0 0;
#X connect 9 0 8 1;
#X connect 10 0 1 0;
#X connect 10 0 29 0;
#X connect 10 0 21 0;
#X connect 10 0 38 0;
#X connect 11 0 10 1;
#X connect 11 0 41 0;
#X connect 12 0 3 0;
#X connect 13 0 3 0;
#X connect 14 0 3 0;
#X connect 15 0 3 0;
#X connect 16 0 3 0;
#X connect 17 0 3 0;
#X connect 18 0 3 0;
#X connect 19 0 3 0;
#X connect 20 0 12 1;
#X connect 22 0 13 1;
#X connect 23 0 14 1;
#X connect 24 0 15 1;
#X connect 25 0 16 1;
#X connect 26 0 17 1;
#X connect 27 0 18 1;
#X connect 28 0 19 1;
#X connect 29 0 12 0;
#X connect 29 1 13 0;
#X connect 29 2 14 0;
#X connect 29 3 15 0;
#X connect 29 4 16 0;
#X connect 29 5 17 0;
#X connect 29 6 18 0;
#X connect 29 7 19 0;
#X connect 30 0 31 0;
#X connect 30 0 32 0;
#X connect 31 0 9 0;
#X connect 32 0 11 0;
#X connect 38 0 37 0;
#X connect 39 0 7 0;
#X connect 40 0 39 0;
#X coords 0 -1 1 1 250 100 1 0 0;
#X restore 87 41 pd NoteSequencer;
#X floatatom 51 124 5 0 0 0 - - -;
#N canvas 304 114 508 546 NoteSequencer 0;
#X obj -65 231 i;
#X obj -17 232 + 1;
#X msg -40 195 0;
#X obj -65 405 max 0;
#X obj -65 429 min 127;
#X obj -65 455 s NOTE-in;
#X obj -40 133 sel 0;
#X obj 8 28 tgl 15 0 empty empty on 0 -6 0 8 -262144 -1 -1 0 1;
#X obj -65 160 metro 100;
#X obj 27 29 nbx 5 14 -1e+37 1e+37 0 0 empty empty msec 0 -6 0 10 -262144
-1 -1 200 256;
#X obj -65 258 mod 16;
#X obj 93 30 nbx 2 14 2 8 0 0 empty empty modulo 0 -6 0 10 -262144
-1 -1 4 256;
#X obj -65 366 f;
#X obj -39 365 f;
#X obj -14 365 f;
#X obj 12 364 f;
#X obj 38 365 f;
#X obj 64 364 f;
#X obj 89 364 f;
#X obj 115 363 f;
#X obj 7 57 nbx 3 10 0 127 0 0 empty empty empty 0 -6 0 7 -262144 -1
-1 0 256;
#X obj 7 67 hradio 30 1 0 8 empty empty empty 0 -6 0 8 -262144 -1 -1
0;
#X obj 37 57 nbx 3 10 0 127 0 0 empty empty empty 0 -6 0 7 -262144
-1 -1 0 256;
#X obj 67 57 nbx 3 10 0 127 0 0 empty empty empty 0 -6 0 7 -262144
-1 -1 0 256;
#X obj 97 57 nbx 3 10 0 127 0 0 empty empty empty 0 -6 0 7 -262144
-1 -1 0 256;
#X obj 127 57 nbx 3 10 0 127 0 0 empty empty empty 0 -6 0 7 -262144
-1 -1 0 256;
#X obj 157 57 nbx 3 10 0 127 0 0 empty empty empty 0 -6 0 7 -262144
-1 -1 0 256;
#X obj 187 57 nbx 3 10 0 127 0 0 empty empty empty 0 -6 0 7 -262144
-1 -1 0 256;
#X obj 217 57 nbx 3 10 0 127 0 0 empty empty empty 0 -6 0 7 -262144
-1 -1 0 256;
#X obj -65 326 sel 0 1 2 3 4 5 6 7;
#X obj 26 -36 loadbang;
#X msg 26 -14 200;
#X msg 52 -13 4;
#X text 4 -85 NOte sequencer;
#X text 263 51 <- notes midi;
#X text 261 77 <- visualisateur;
#X obj 3 453 outlet;
#X obj -134 291 outlet;
#X floatatom -134 259 5 0 0 0 - - -;
#X obj -27 -66 inlet;
#X connect 0 0 10 0;
#X connect 1 0 0 1;
#X connect 2 0 0 0;
#X connect 3 0 4 0;
#X connect 4 0 5 0;
#X connect 4 0 36 0;
#X connect 6 0 2 0;
#X connect 7 0 6 0;
#X connect 7 0 8 0;
#X connect 8 0 0 0;
#X connect 9 0 8 1;
#X connect 10 0 1 0;
#X connect 10 0 29 0;
#X connect 10 0 21 0;
#X connect 10 0 38 0;
#X connect 11 0 10 1;
#X connect 12 0 3 0;
#X connect 13 0 3 0;
#X connect 14 0 3 0;
#X connect 15 0 3 0;
#X connect 16 0 3 0;
#X connect 17 0 3 0;
#X connect 18 0 3 0;
#X connect 19 0 3 0;
#X connect 20 0 12 1;
#X connect 22 0 13 1;
#X connect 23 0 14 1;
#X connect 24 0 15 1;
#X connect 25 0 16 1;
#X connect 26 0 17 1;
#X connect 27 0 18 1;
#X connect 28 0 19 1;
#X connect 29 0 12 0;
#X connect 29 1 13 0;
#X connect 29 2 14 0;
#X connect 29 3 15 0;
#X connect 29 4 16 0;
#X connect 29 5 17 0;
#X connect 29 6 18 0;
#X connect 29 7 19 0;
#X connect 30 0 31 0;
#X connect 30 0 32 0;
#X connect 31 0 9 0;
#X connect 32 0 11 0;
#X connect 38 0 37 0;
#X connect 39 0 7 0;
#X coords 0 -1 1 1 250 100 1 0 0;
#X restore 425 39 pd NoteSequencer;
#X obj 425 23 tgl 15 0 empty empty empty 17 7 0 10 -262144 -1 -1 0
1;
#N canvas 0 22 569 479 amrfloat 0;
#X obj 99 64 inlet bang;
#X obj 202 63 inlet trig;
#X obj 99 367 f;
#X obj 99 390 change;
#X obj 99 415 outlet trig;
#X obj 335 63 inlet wait;
#X obj 264 242 f;
#X msg 279 200 0;
#X obj 264 267 + 1;
#X obj 99 175 spigot;
#X msg 132 140 0;
#X msg 164 139 1;
#X obj 202 93 t b b;
#X obj 335 175 moses 1;
#X obj 264 290 sel 1;
#X connect 0 0 9 0;
#X connect 1 0 2 1;
#X connect 1 0 12 0;
#X connect 2 0 3 0;
#X connect 3 0 4 0;
#X connect 5 0 13 0;
#X connect 6 0 8 0;
#X connect 7 0 6 1;
#X connect 8 0 6 1;
#X connect 8 0 14 0;
#X connect 9 0 6 0;
#X connect 10 0 9 1;
#X connect 11 0 9 1;
#X connect 12 0 11 0;
#X connect 12 1 7 0;
#X connect 13 1 14 1;
#X connect 14 0 2 0;
#X connect 14 0 10 0;
#X restore 353 41 pd amrfloat;
#N canvas 0 22 569 479 amrfloat 0;
#X obj 99 64 inlet bang;
#X obj 202 63 inlet trig;
#X obj 99 367 f;
#X obj 99 390 change;
#X obj 99 415 outlet trig;
#X obj 335 63 inlet wait;
#X obj 264 242 f;
#X msg 279 200 0;
#X obj 264 267 + 1;
#X obj 99 175 spigot;
#X msg 132 140 0;
#X msg 164 139 1;
#X obj 202 93 t b b;
#X obj 335 175 moses 1;
#X obj 264 290 sel 1;
#X connect 0 0 9 0;
#X connect 1 0 2 1;
#X connect 1 0 12 0;
#X connect 2 0 3 0;
#X connect 3 0 4 0;
#X connect 5 0 13 0;
#X connect 6 0 8 0;
#X connect 7 0 6 1;
#X connect 8 0 6 1;
#X connect 8 0 14 0;
#X connect 9 0 6 0;
#X connect 10 0 9 1;
#X connect 11 0 9 1;
#X connect 12 0 11 0;
#X connect 12 1 7 0;
#X connect 13 1 14 1;
#X connect 14 0 2 0;
#X connect 14 0 10 0;
#X restore 86 18 pd amrfloat;
#X obj 116 -3 r bang;
#X obj 87 -3 tgl 15 0 empty empty empty 17 7 0 10 -262144 -1 -1 0 1
;
#X obj 136 147 vradio 10 1 0 12 vel1 vel1 empty 0 -8 0 10 -99865 -262144
-262144 0;
#X obj 166 147 vradio 10 1 0 12 vel2 vel2 empty 0 -8 0 10 -99865 -262144
-262144 0;
#X obj 196 148 vradio 10 1 0 12 vel3 vel3 empty 0 -8 0 10 -99865 -262144
-262144 0;
#X obj 227 148 vradio 10 1 0 12 vel4 vel4 empty 0 -8 0 10 -99865 -262144
-262144 0;
#X obj 256 148 vradio 10 1 0 12 vel5 vel5 empty 0 -8 0 10 -99865 -262144
-262144 0;
#X obj 285 148 vradio 10 1 0 12 vel6 vel6 empty 0 -8 0 10 -99865 -262144
-262144 0;
#X obj 316 148 vradio 10 1 0 12 vel7 vel7 empty 0 -8 0 10 -99865 -262144
-262144 0;
#X obj 106 146 vradio 10 1 0 12 vel0 vel0 empty 0 -8 0 10 -99865 -262144
-262144 0;
#N canvas 0 22 800 532 vel 0;
#X obj 365 321 f;
#X obj 327 321 f;
#X obj 285 321 f;
#X obj 247 321 f;
#X obj 205 321 f;
#X obj 167 321 f;
#X obj 125 321 f;
#X obj 87 321 f;
#X obj 264 37 i;
#X obj 293 37 + 1;
#X obj 264 67 % 16;
#X obj 380 425 outlet;
#X floatatom 380 29 5 0 0 0 - - -;
#X obj 264 8 r bang;
#X obj 333 50 r modulo;
#X obj 79 266 * 10;
#X obj 125 267 * 10;
#X obj 165 268 * 10;
#X obj 207 266 * 10;
#X obj 245 265 * 10;
#X obj 285 263 * 10;
#X obj 317 262 * 10;
#X obj 355 265 * 10;
#X obj 264 100 sel 0 1 2 3 4 5 6 7;
#X obj 83 192 r vel0;
#X obj 127 196 r vel1;
#X obj 171 190 r vel2;
#X obj 218 191 r vel3;
#X obj 255 191 r vel4;
#X obj 292 191 r vel5;
#X obj 328 191 r vel6;
#X obj 364 190 r vel7;
#X connect 0 0 11 0;
#X connect 1 0 11 0;
#X connect 2 0 11 0;
#X connect 3 0 11 0;
#X connect 4 0 11 0;
#X connect 5 0 11 0;
#X connect 6 0 11 0;
#X connect 7 0 11 0;
#X connect 8 0 9 0;
#X connect 8 0 10 0;
#X connect 9 0 8 1;
#X connect 10 0 23 0;
#X connect 13 0 12 0;
#X connect 13 0 8 0;
#X connect 14 0 10 1;
#X connect 15 0 7 1;
#X connect 16 0 6 1;
#X connect 17 0 5 1;
#X connect 18 0 4 1;
#X connect 19 0 3 1;
#X connect 20 0 2 1;
#X connect 21 0 1 1;
#X connect 22 0 0 1;
#X connect 23 0 7 0;
#X connect 23 1 6 0;
#X connect 23 2 5 0;
#X connect 23 3 4 0;
#X connect 23 4 3 0;
#X connect 23 5 2 0;
#X connect 23 6 1 0;
#X connect 23 7 0 0;
#X connect 24 0 15 0;
#X connect 25 0 16 0;
#X connect 26 0 17 0;
#X connect 27 0 18 0;
#X connect 28 0 19 0;
#X connect 29 0 20 0;
#X connect 30 0 21 0;
#X connect 31 0 22 0;
#X restore 29 177 pd vel;
#X obj 29 199 s vel;
#X obj 339 124 s note1;
#X obj 679 121 s note2;
#X obj 470 144 vradio 10 1 0 12 velb1 velb1 empty 0 -8 0 10 -99865
-262144 -262144 0;
#X obj 500 144 vradio 10 1 0 12 velb2 velb2 empty 0 -8 0 10 -99865
-262144 -262144 0;
#X obj 530 145 vradio 10 1 0 12 velb3 velb3 empty 0 -8 0 10 -99865
-262144 -262144 0;
#X obj 561 145 vradio 10 1 0 12 velb4 velb4 empty 0 -8 0 10 -99865
-262144 -262144 0;
#X obj 590 145 vradio 10 1 0 12 velb5 velb5 empty 0 -8 0 10 -99865
-262144 -262144 0;
#X obj 619 145 vradio 10 1 0 12 velb6 velb6 empty 0 -8 0 10 -99865
-262144 -262144 0;
#X obj 650 145 vradio 10 1 0 12 velb7 velb7 empty 0 -8 0 10 -99865
-262144 -262144 0;
#X obj 440 143 vradio 10 1 0 12 velb0 velb0 empty 0 -8 0 10 -99865
-262144 -262144 0;
#N canvas 0 22 800 532 vel2 0;
#X obj 365 321 f;
#X obj 327 321 f;
#X obj 285 321 f;
#X obj 247 321 f;
#X obj 205 321 f;
#X obj 167 321 f;
#X obj 125 321 f;
#X obj 87 321 f;
#X obj 264 37 i;
#X obj 293 37 + 1;
#X obj 264 67 % 16;
#X obj 380 425 outlet;
#X floatatom 380 29 5 0 0 0 - - -;
#X obj 264 8 r bang;
#X obj 333 50 r modulo;
#X obj 79 266 * 10;
#X obj 125 267 * 10;
#X obj 165 268 * 10;
#X obj 207 266 * 10;
#X obj 245 265 * 10;
#X obj 285 263 * 10;
#X obj 317 262 * 10;
#X obj 355 265 * 10;
#X obj 264 100 sel 0 1 2 3 4 5 6 7;
#X obj 67 191 r velb0;
#X obj 127 196 r velb1;
#X obj 171 190 r velb2;
#X obj 218 191 r velb3;
#X obj 255 191 r velb4;
#X obj 292 191 r velb5;
#X obj 328 191 r velb6;
#X obj 364 190 r velb7;
#X connect 0 0 11 0;
#X connect 1 0 11 0;
#X connect 2 0 11 0;
#X connect 3 0 11 0;
#X connect 4 0 11 0;
#X connect 5 0 11 0;
#X connect 6 0 11 0;
#X connect 7 0 11 0;
#X connect 8 0 9 0;
#X connect 8 0 10 0;
#X connect 9 0 8 1;
#X connect 10 0 23 0;
#X connect 13 0 12 0;
#X connect 13 0 8 0;
#X connect 14 0 10 1;
#X connect 15 0 7 1;
#X connect 16 0 6 1;
#X connect 17 0 5 1;
#X connect 18 0 4 1;
#X connect 19 0 3 1;
#X connect 20 0 2 1;
#X connect 21 0 1 1;
#X connect 22 0 0 1;
#X connect 23 0 7 0;
#X connect 23 1 6 0;
#X connect 23 2 5 0;
#X connect 23 3 4 0;
#X connect 23 4 3 0;
#X connect 23 5 2 0;
#X connect 23 6 1 0;
#X connect 23 7 0 0;
#X connect 24 0 15 0;
#X connect 25 0 16 0;
#X connect 26 0 17 0;
#X connect 27 0 18 0;
#X connect 28 0 19 0;
#X connect 29 0 20 0;
#X connect 30 0 21 0;
#X connect 31 0 22 0;
#X restore 363 174 pd vel2;
#X obj 363 196 s vel2;
#X connect 0 0 1 0;
#X connect 0 1 18 0;
#X connect 1 0 4 0;
#X connect 2 1 19 0;
#X connect 3 0 4 1;
#X connect 4 0 2 0;
#X connect 5 0 0 0;
#X connect 6 0 5 1;
#X connect 7 0 5 0;
#X connect 16 0 17 0;
#X connect 28 0 29 0;
