#N canvas 0 22 656 605 10;
#N canvas 0 22 1024 705 (subpatch) 0;
#N canvas 0 22 450 300 (subpatch) 0;
#X array Note 16 float 3;
#A 0 31.9608 57.3604 71.8747 91.8318 63.7104 94.5533 116.325 70.061
107.253 99.089 111.789 51.9176 94.5533 88.2033 83.6677 53.7322;
#X coords 0 127 16 0 400 70 1;
#X restore 4 45 graph;
#X floatatom 846 284 5 0 0 0 - - -;
#X obj 411 48 knob 25 25 0 127 0 0 empty empty empty 0 -8 32 8 -1 -260097
-260097 0 1;
#N canvas 0 22 450 300 (subpatch) 0;
#X array Vel 16 float 3;
#A 0 75.7547 109.319 104.783 99.3406 119.298 105.691 88.4548 75.7547
70.3118 94.8048 99.3406 116.576 117.484 95.712 97.5263 104.783;
#X coords 0 127 16 0 400 70 1;
#X restore 4 136 graph;
#X floatatom 938 289 5 0 0 0 - - -;
#X obj 3 6 tgl 15 0 empty empty empty 17 7 0 10 -262144 -1 -1 0 1;
#X obj 408 139 knob 25 25 0 127 0 0 empty empty empty 0 -8 32 8 -1
-260097 -260097 0 1;
#X obj 849 262 tabread Note;
#X obj 941 267 tabread Vel;
#X obj 847 136 bng 15 250 50 0 empty empty empty 17 7 0 10 -262144
-1 -1;
#X obj 873 218 + 1;
#X obj 847 218 f 0;
#X obj 973 222 + 1;
#X obj 938 220 f 0;
#X msg 999 148 0;
#X obj 868 350 noteout;
#X msg 1045 283 1;
#X obj 832 176 metro 500;
#X obj 921 177 metro 500;
#X obj 858 414 outlet;
#X obj 973 344 outlet;
#X obj 2 -19 inlet;
#X obj 848 241 mod 16;
#X obj 941 243 mod 16;
#X obj 914 84 r MBang;
#X obj 938 400 s noteTable;
#X obj 1014 402 s velTable;
#X floatatom 249 5 5 0 0 0 - - -;
#X msg 1043 247 set \$1;
#X floatatom 31 6 5 0 0 0 - - -;
#N canvas 0 22 450 300 (subpatch) 0;
#X obj -30 22 spigot;
#X obj 2 3 tgl 15 0 empty empty empty 17 7 0 10 -262144 -1 -1 0 1;
#X obj -58 0 inlet;
#X obj -54 54 outlet;
#X connect 0 0 3 0;
#X connect 1 0 0 1;
#X connect 2 0 0 0;
#X coords 0 1 100 -1 20 20 1 0 0;
#X restore 144 4 graph;
#X text 285 5 Midi Channel;
#X text 67 5 Metro ms;
#X msg 702 95 500;
#X msg 700 59 set \$1;
#X text 168 5 mMetro sync;
#X connect 1 0 15 0;
#X connect 1 0 19 0;
#X connect 1 0 25 0;
#X connect 2 0 1 0;
#X connect 4 0 15 1;
#X connect 4 0 20 0;
#X connect 4 0 26 0;
#X connect 5 0 9 0;
#X connect 5 0 17 0;
#X connect 5 0 18 0;
#X connect 6 0 4 0;
#X connect 7 0 1 0;
#X connect 7 0 2 0;
#X connect 8 0 4 0;
#X connect 8 0 6 0;
#X connect 9 0 14 0;
#X connect 9 0 33 0;
#X connect 10 0 11 1;
#X connect 11 0 10 0;
#X connect 11 0 22 0;
#X connect 12 0 13 1;
#X connect 13 0 12 0;
#X connect 13 0 23 0;
#X connect 14 0 11 1;
#X connect 14 0 13 0;
#X connect 16 0 15 2;
#X connect 17 0 11 0;
#X connect 18 0 13 0;
#X connect 21 0 5 0;
#X connect 22 0 7 0;
#X connect 23 0 8 0;
#X connect 24 0 30 0;
#X connect 27 0 28 0;
#X connect 28 0 16 0;
#X connect 29 0 34 0;
#X connect 30 0 11 0;
#X connect 30 0 13 0;
#X connect 33 0 17 1;
#X connect 33 0 18 1;
#X connect 34 0 33 0;
#X coords 0 1 100 -1 450 210 1 0 0;
#X restore 100 20 graph;
