#N canvas 0 22 1024 720 10;
#X declare -path z_pattern_abs;
#X obj 28 -29 vradio 15 1 0 6 vel1_0 pvel1_0 empty 0 -8 0 10 -99865
-262144 -262144 0;
#X obj 26 -291 vradio 20 1 0 12 note1_0 pnote1_0 empty 0 -8 0 10 -191407
-1 -262144 4;
#X obj -216 -200 loadbang;
#X floatatom -217 -86 5 0 0 0 - - -;
#X obj -217 -66 s note1_BF;
#X msg -216 -180 60;
#X floatatom -148 -87 5 0 0 0 - - -;
#X obj -148 -67 s modulo;
#X msg -186 -180 16;
#X obj -60 -126 tgl 15 0 empty empty empty 17 7 0 10 -262144 -1 -1
0 1;
#X obj 26 -50 hradio 20 1 0 16 empty empty empty 0 -6 0 8 -33289 -258113
-1 0;
#N canvas 0 22 519 438 metro1 0;
#X obj -55 241 i;
#X obj -24 242 + 1;
#X msg -30 205 0;
#X obj -55 151 tgl 15 0 empty empty on 0 -6 0 8 -262144 -1 -1 0 1;
#X obj -55 170 metro 100;
#X obj -3 153 nbx 5 14 -1e+37 1e+37 0 0 empty empty msec 0 -6 0 10
-262144 -1 -1 0 256;
#X obj -55 268 mod 16;
#X obj 88 116 r modulo;
#X obj -3 115 r Mmetro;
#X obj -52 114 inlet;
#X obj -49 292 bang;
#X obj -40 323 s bang1;
#X obj -13 293 outlet;
#X connect 0 0 6 0;
#X connect 1 0 0 1;
#X connect 2 0 0 0;
#X connect 3 0 4 0;
#X connect 4 0 0 0;
#X connect 5 0 4 1;
#X connect 6 0 1 0;
#X connect 6 0 10 0;
#X connect 6 0 12 0;
#X connect 7 0 6 1;
#X connect 8 0 5 0;
#X connect 9 0 3 0;
#X connect 10 0 11 0;
#X restore -91 -67 pd metro1;
#X obj 46 -291 vradio 20 1 0 12 note1_1 note1_1 empty 0 -8 0 10 -191407
-1 -262144 0;
#X obj 66 -291 vradio 20 1 0 12 note1_2 pnote1_2 empty 0 -8 0 10 -191407
-1 -262144 11;
#X obj 86 -291 vradio 20 1 0 12 note1_3 pnote1_3 empty 0 -8 0 10 -191407
-1 -262144 0;
#X obj 106 -291 vradio 20 1 0 12 note1_4 pnote1_4 empty 0 -8 0 10 -191407
-1 -262144 10;
#X obj 126 -291 vradio 20 1 0 12 note1_5 pnote1_5 empty 0 -8 0 10 -191407
-1 -262144 0;
#X obj 146 -291 vradio 20 1 0 12 note1_6 pnote1_6 empty 0 -8 0 10 -191407
-1 -262144 9;
#X obj 166 -291 vradio 20 1 0 12 note1_7 pnote1_7 empty 0 -8 0 10 -191407
-1 -262144 0;
#X obj 186 -291 vradio 20 1 0 12 note1_8 pnote1_8 empty 0 -8 0 10 -191407
-1 -262144 8;
#X obj 206 -291 vradio 20 1 0 12 note1_9 pnote1_9 empty 0 -8 0 10 -191407
-1 -262144 0;
#X obj 226 -291 vradio 20 1 0 12 note1_10 pnote1_10 empty 0 -8 0 10
-191407 -1 -262144 7;
#X obj 246 -291 vradio 20 1 0 12 note1_11 pnote1_11 empty 0 -8 0 10
-191407 -1 -262144 0;
#X obj 266 -291 vradio 20 1 0 12 note1_12 pnote1_12 empty 0 -8 0 10
-191407 -1 -262144 6;
#X obj 286 -291 vradio 20 1 0 12 note1_13 pnote1_13 empty 0 -8 0 10
-191407 -1 -262144 0;
#X obj 306 -291 vradio 20 1 0 12 note1_14 pnote1_14 empty 0 -8 0 10
-191407 -1 -262144 5;
#X obj 326 -291 vradio 20 1 0 12 note1_15 pnote_15 empty 0 -8 0 10
-191407 -1 -262144 0;
#X obj 49 -29 vradio 15 1 0 6 vel1_1 pvel1_1 empty 0 -8 0 10 -99865
-262144 -262144 0;
#X obj 69 -29 vradio 15 1 0 6 vel1_2 pvel1_2 empty 0 -8 0 10 -99865
-262144 -262144 0;
#X obj 89 -29 vradio 15 1 0 6 vel1_3 pvel1_3 empty 0 -8 0 10 -99865
-262144 -262144 0;
#X obj 108 -29 vradio 15 1 0 6 vel1_4 pvel1_4 empty 0 -8 0 10 -99865
-262144 -262144 0;
#X obj 129 -29 vradio 15 1 0 6 vel1_5 pvel1_5 empty 0 -8 0 10 -99865
-262144 -262144 0;
#X obj 149 -29 vradio 15 1 0 6 vel1_6 pvel1_6 empty 0 -8 0 10 -99865
-262144 -262144 0;
#X obj 169 -29 vradio 15 1 0 6 vel1_7 pvel1_7 empty 0 -8 0 10 -99865
-262144 -262144 0;
#X obj 189 -29 vradio 15 1 0 6 vel1_8 pvel1_8 empty 0 -8 0 10 -99865
-262144 -262144 0;
#X obj 209 -29 vradio 15 1 0 6 vel1_9 pvel1_9 empty 0 -8 0 10 -99865
-262144 -262144 0;
#X obj 229 -29 vradio 15 1 0 6 vel1_10 pvel1_10 empty 0 -8 0 10 -99865
-262144 -262144 0;
#X obj 249 -29 vradio 15 1 0 6 vel1_11 pvel1_11 empty 0 -8 0 10 -99865
-262144 -262144 0;
#X obj 269 -29 vradio 15 1 0 6 vel1_12 pvel1_12 empty 0 -8 0 10 -99865
-262144 -262144 0;
#X obj 289 -29 vradio 15 1 0 6 vel1_13 pvel1_13 empty 0 -8 0 10 -99865
-262144 -262144 0;
#X obj 309 -29 vradio 15 1 0 6 vel1_14 pvel1_14 empty 0 -8 0 10 -99865
-262144 -262144 0;
#X obj 329 -29 vradio 15 1 0 6 vel1_15 pvel1_15 empty 0 -8 0 10 -99865
-262144 -262144 0;
#X text 91 -305 4;
#X text 169 -305 8;
#X text 248 -307 12;
#X text 328 -307 16;
#X text -8 -189 +6 ->;
#X text -15 -70 +11 ->;
#X text -56 -289 Base Pitch ->;
#X text -25 -30 Vel 0 ->;
#X text -36 46 Vel 100 ->;
#N canvas 0 22 569 479 amrfloat 0;
#X obj 99 64 inlet bang;
#X obj 202 63 inlet trig;
#X obj 99 367 f;
#X obj 99 390 change;
#X obj 99 415 outlet trig;
#X obj 335 63 inlet wait;
#X obj 264 242 f;
#X msg 279 200 0;
#X obj 264 267 + 1;
#X obj 99 175 spigot;
#X msg 132 140 0;
#X msg 164 139 1;
#X obj 202 93 t b b;
#X obj 335 175 moses 1;
#X obj 264 290 sel 1;
#X connect 0 0 9 0;
#X connect 1 0 2 1;
#X connect 1 0 12 0;
#X connect 2 0 3 0;
#X connect 3 0 4 0;
#X connect 5 0 13 0;
#X connect 6 0 8 0;
#X connect 7 0 6 1;
#X connect 8 0 6 1;
#X connect 8 0 14 0;
#X connect 9 0 6 0;
#X connect 10 0 9 1;
#X connect 11 0 9 1;
#X connect 12 0 11 0;
#X connect 12 1 7 0;
#X connect 13 1 14 1;
#X connect 14 0 2 0;
#X connect 14 0 10 0;
#X restore -91 -86 pd amrfloat;
#X obj -91 -106 r bang;
#N canvas 0 22 524 718 Recall_note1 0;
#N canvas 224 52 800 532 ouch 0;
#X obj 179 -109 until;
#X obj 179 -78 f;
#X obj 212 -78 + 1;
#X obj 179 -138 t f b;
#X msg 179 -160 16;
#X obj 179 33 sel 0 1 2 3 4 5 6 7 8 9 10 11 12 13 14 15;
#X obj 549 153 f;
#X obj 524 153 f;
#X obj 499 153 f;
#X obj 474 153 f;
#X obj 449 153 f;
#X obj 424 153 f;
#X obj 399 153 f;
#X obj 374 153 f;
#X obj 347 153 f;
#X obj 322 153 f;
#X obj 297 153 f;
#X obj 272 153 f;
#X obj 247 153 f;
#X obj 222 153 f;
#X obj 197 153 f;
#X obj 172 153 f;
#X obj 179 -190 inlet;
#X obj 218 -190 inlet;
#X obj 134 283 s pnote1_0;
#X obj 162 264 s pnote1_1;
#X obj 197 242 s pnote1_2;
#X obj 241 223 s pnote1_3;
#X obj 276 242 s pnote1_4;
#X obj 325 263 s pnote1_5;
#X obj 369 281 s pnote1_6;
#X obj 404 262 s pnote1_7;
#X obj 454 284 s pnote1_8;
#X obj 485 265 s pnote1_9;
#X obj 510 246 s pnote1_10;
#X obj 571 265 s pnote1_11;
#X obj 636 284 s pnote1_12;
#X obj 696 303 s pnote1_13;
#X obj 729 285 s pnote1_14;
#X obj 753 265 s pnote1_15;
#X msg 218 -110 0;
#X obj 576 -46 tabread matrixnote1;
#X connect 0 0 1 0;
#X connect 1 0 2 0;
#X connect 1 0 5 0;
#X connect 1 0 41 0;
#X connect 2 0 1 1;
#X connect 3 0 0 0;
#X connect 3 1 40 0;
#X connect 4 0 3 0;
#X connect 5 0 21 0;
#X connect 5 1 20 0;
#X connect 5 2 19 0;
#X connect 5 3 18 0;
#X connect 5 4 17 0;
#X connect 5 5 16 0;
#X connect 5 6 15 0;
#X connect 5 7 14 0;
#X connect 5 8 13 0;
#X connect 5 9 12 0;
#X connect 5 10 11 0;
#X connect 5 11 10 0;
#X connect 5 12 9 0;
#X connect 5 13 8 0;
#X connect 5 14 7 0;
#X connect 5 15 6 0;
#X connect 6 0 39 0;
#X connect 7 0 38 0;
#X connect 8 0 37 0;
#X connect 9 0 36 0;
#X connect 10 0 35 0;
#X connect 11 0 34 0;
#X connect 12 0 33 0;
#X connect 13 0 32 0;
#X connect 14 0 31 0;
#X connect 15 0 30 0;
#X connect 16 0 29 0;
#X connect 17 0 28 0;
#X connect 18 0 27 0;
#X connect 19 0 26 0;
#X connect 20 0 25 0;
#X connect 21 0 24 0;
#X connect 22 0 4 0;
#X connect 23 0 4 0;
#X connect 40 0 1 1;
#X connect 41 0 21 1;
#X connect 41 0 20 1;
#X connect 41 0 19 1;
#X connect 41 0 18 1;
#X connect 41 0 17 1;
#X connect 41 0 16 1;
#X connect 41 0 15 1;
#X connect 41 0 14 1;
#X connect 41 0 13 1;
#X connect 41 0 12 1;
#X connect 41 0 11 1;
#X connect 41 0 10 1;
#X connect 41 0 9 1;
#X connect 41 0 8 1;
#X connect 41 0 7 1;
#X connect 41 0 6 1;
#X restore -11 22 pd ouch;
#N canvas 0 22 450 300 (subpatch) 0;
#X array matrixnote1 16 float 2;
#X coords 0 11 16 0 200 140 1;
#X restore -161 84 graph;
#X obj 68 -151 r note1_0;
#X obj 85 -133 r note1_1;
#X obj 98 -115 r note1_2;
#X obj 111 -96 r note1_3;
#X obj 122 -78 r note1_4;
#X obj 134 -60 r note1_5;
#X obj 144 -41 r note1_6;
#X obj 154 -22 r note1_7;
#X obj 185 -147 r note1_8;
#X obj 202 -129 r note1_9;
#X obj 215 -111 r note1_10;
#X obj 228 -92 r note1_11;
#X obj 239 -74 r note1_12;
#X obj 251 -56 r note1_13;
#X obj 261 -37 r note1_14;
#X obj 271 -18 r note1_15;
#X msg -160 8 \; matrixnote1 read \$1;
#X obj -9 -43 bng 15 250 50 0 empty empty empty 17 7 0 10 -262144 -1
-1;
#X obj -11 -22 del 50;
#X obj -11 -1 t b b;
#X floatatom 68 62 5 0 0 0 - - -;
#X floatatom 78 80 5 0 0 0 - - -;
#X floatatom 88 98 5 0 0 0 - - -;
#X floatatom 98 116 5 0 0 0 - - -;
#X floatatom 108 134 5 0 0 0 - - -;
#X floatatom 118 152 5 0 0 0 - - -;
#X floatatom 128 171 5 0 0 0 - - -;
#X floatatom 138 190 5 0 0 0 - - -;
#X floatatom 174 215 5 0 0 0 - - -;
#X floatatom 184 233 5 0 0 0 - - -;
#X floatatom 194 251 5 0 0 0 - - -;
#X floatatom 204 269 5 0 0 0 - - -;
#X floatatom 214 287 5 0 0 0 - - -;
#X floatatom 224 305 5 0 0 0 - - -;
#X floatatom 234 324 5 0 0 0 - - -;
#X floatatom 244 343 5 0 0 0 - - -;
#X text -161 -292 only implemented for 8 recall but you can add other
easily. To create new pattern I suggest a .txt approach \, see the
example files in the folder. For each step copy each value printed
below on a different line. then save the txt in the same folder as
the patch and add a message "read mytxt.txt" and connect it to matrixread
message and to the bang object.;
#X msg -160 -196 read zpatern1.txt;
#X msg -160 -173 read zpatern2.txt;
#X msg -160 -149 read zpatern3.txt;
#X msg -160 -124 read zpatern4.txt;
#X msg -160 -99 read zpatern5.txt;
#X msg -159 -75 read zpatern6.txt;
#X msg -160 -50 read zpatern7.txt;
#X msg -160 -27 read zpatern8.txt;
#X connect 2 0 22 0;
#X connect 3 0 23 0;
#X connect 4 0 24 0;
#X connect 5 0 25 0;
#X connect 6 0 26 0;
#X connect 7 0 27 0;
#X connect 8 0 28 0;
#X connect 9 0 29 0;
#X connect 10 0 30 0;
#X connect 11 0 31 0;
#X connect 12 0 32 0;
#X connect 13 0 33 0;
#X connect 14 0 34 0;
#X connect 15 0 35 0;
#X connect 16 0 36 0;
#X connect 17 0 37 0;
#X connect 19 0 20 0;
#X connect 20 0 21 0;
#X connect 21 0 0 0;
#X connect 21 1 0 1;
#X connect 39 0 18 0;
#X connect 39 0 19 0;
#X connect 40 0 18 0;
#X connect 40 0 19 0;
#X connect 41 0 18 0;
#X connect 41 0 19 0;
#X connect 42 0 18 0;
#X connect 42 0 19 0;
#X connect 43 0 18 0;
#X connect 43 0 19 0;
#X connect 44 0 18 0;
#X connect 44 0 19 0;
#X connect 45 0 18 0;
#X connect 45 0 19 0;
#X connect 46 0 18 0;
#X connect 46 0 19 0;
#X restore -227 71 pd Recall_note1;
#N canvas 3 22 535 708 Recall_vel1 0;
#N canvas 224 52 800 532 ouch 0;
#X obj 179 -109 until;
#X obj 179 -78 f;
#X obj 212 -78 + 1;
#X obj 179 -138 t f b;
#X msg 179 -160 16;
#X obj 179 33 sel 0 1 2 3 4 5 6 7 8 9 10 11 12 13 14 15;
#X obj 549 153 f;
#X obj 524 153 f;
#X obj 499 153 f;
#X obj 474 153 f;
#X obj 449 153 f;
#X obj 424 153 f;
#X obj 399 153 f;
#X obj 374 153 f;
#X obj 347 153 f;
#X obj 322 153 f;
#X obj 297 153 f;
#X obj 272 153 f;
#X obj 247 153 f;
#X obj 222 153 f;
#X obj 197 153 f;
#X obj 172 153 f;
#X obj 179 -190 inlet;
#X obj 218 -190 inlet;
#X msg 218 -110 0;
#X obj 576 -46 tabread matrixnote1;
#X obj 134 283 s pvel1_0;
#X obj 162 264 s pvel1_1;
#X obj 197 242 s pvel1_2;
#X obj 241 223 s pvel1_3;
#X obj 276 242 s pvel1_4;
#X obj 325 263 s pvel1_5;
#X obj 369 281 s pvel1_6;
#X obj 404 262 s pvel1_7;
#X obj 454 284 s pvel1_8;
#X obj 485 265 s pvel1_9;
#X obj 510 246 s pvel1_10;
#X obj 571 265 s pvel1_11;
#X obj 636 284 s pvel1_12;
#X obj 696 303 s pvel1_13;
#X obj 729 285 s pvel1_14;
#X obj 753 265 s pvel1_15;
#X connect 0 0 1 0;
#X connect 1 0 2 0;
#X connect 1 0 5 0;
#X connect 1 0 25 0;
#X connect 2 0 1 1;
#X connect 3 0 0 0;
#X connect 3 1 24 0;
#X connect 4 0 3 0;
#X connect 5 0 21 0;
#X connect 5 1 20 0;
#X connect 5 2 19 0;
#X connect 5 3 18 0;
#X connect 5 4 17 0;
#X connect 5 5 16 0;
#X connect 5 6 15 0;
#X connect 5 7 14 0;
#X connect 5 8 13 0;
#X connect 5 9 12 0;
#X connect 5 10 11 0;
#X connect 5 11 10 0;
#X connect 5 12 9 0;
#X connect 5 13 8 0;
#X connect 5 14 7 0;
#X connect 5 15 6 0;
#X connect 6 0 41 0;
#X connect 7 0 40 0;
#X connect 8 0 39 0;
#X connect 9 0 38 0;
#X connect 10 0 37 0;
#X connect 11 0 36 0;
#X connect 12 0 35 0;
#X connect 13 0 34 0;
#X connect 14 0 33 0;
#X connect 15 0 32 0;
#X connect 16 0 31 0;
#X connect 17 0 30 0;
#X connect 18 0 29 0;
#X connect 19 0 28 0;
#X connect 20 0 27 0;
#X connect 21 0 26 0;
#X connect 22 0 4 0;
#X connect 23 0 4 0;
#X connect 24 0 1 1;
#X connect 25 0 21 1;
#X connect 25 0 20 1;
#X connect 25 0 19 1;
#X connect 25 0 18 1;
#X connect 25 0 17 1;
#X connect 25 0 16 1;
#X connect 25 0 15 1;
#X connect 25 0 14 1;
#X connect 25 0 13 1;
#X connect 25 0 12 1;
#X connect 25 0 11 1;
#X connect 25 0 10 1;
#X connect 25 0 9 1;
#X connect 25 0 8 1;
#X connect 25 0 7 1;
#X connect 25 0 6 1;
#X restore -11 22 pd ouch;
#N canvas 0 22 450 300 (subpatch) 0;
#X array matrixnote1 16 float 2;
#X coords 0 11 16 0 200 140 1;
#X restore -161 84 graph;
#X msg -160 8 \; matrixnote1 read \$1;
#X obj -9 -43 bng 15 250 50 0 empty empty empty 17 7 0 10 -262144 -1
-1;
#X obj -11 -22 del 50;
#X obj -11 -1 t b b;
#X floatatom 68 -45 5 0 0 0 - - -;
#X floatatom 85 -27 5 0 0 0 - - -;
#X floatatom 98 -9 5 0 0 0 - - -;
#X floatatom 111 9 5 0 0 0 - - -;
#X floatatom 122 27 5 0 0 0 - - -;
#X floatatom 134 45 5 0 0 0 - - -;
#X floatatom 144 64 5 0 0 0 - - -;
#X floatatom 154 83 5 0 0 0 - - -;
#X floatatom 172 101 5 0 0 0 - - -;
#X floatatom 189 119 5 0 0 0 - - -;
#X floatatom 202 137 5 0 0 0 - - -;
#X floatatom 215 155 5 0 0 0 - - -;
#X floatatom 226 173 5 0 0 0 - - -;
#X floatatom 238 191 5 0 0 0 - - -;
#X floatatom 248 210 5 0 0 0 - - -;
#X floatatom 259 229 5 0 0 0 - - -;
#X text -161 -292 only implemented for 8 recall but you can add other
easily. To create new pattern I suggest a .txt approach \, see the
example files in the folder. For each step copy each value printed
below on a different line. then save the txt in the same folder as
the patch and add a message "read mytxt.txt" and connect it to matrixread
message and to the bang object.;
#X msg -160 -196 read zpatern1.txt;
#X msg -160 -173 read zpatern2.txt;
#X msg -160 -149 read zpatern3.txt;
#X msg -160 -124 read zpatern4.txt;
#X msg -160 -99 read zpatern5.txt;
#X msg -159 -75 read zpatern6.txt;
#X msg -160 -50 read zpatern7.txt;
#X msg -160 -27 read zpatern8.txt;
#X obj 68 -154 r vel1_0;
#X obj 85 -133 r vel1_1;
#X obj 98 -115 r vel1_2;
#X obj 111 -96 r vel1_3;
#X obj 122 -78 r vel1_4;
#X obj 134 -60 r vel1_5;
#X obj 144 -41 r vel1_6;
#X obj 154 -22 r vel1_7;
#X obj 172 -3 r vel1_8;
#X obj 189 15 r vel1_9;
#X obj 202 33 r vel1_10;
#X obj 215 52 r vel1_11;
#X obj 226 70 r vel1_12;
#X obj 238 88 r vel1_13;
#X obj 248 107 r vel1_14;
#X obj 259 126 r vel1_15;
#X connect 3 0 4 0;
#X connect 4 0 5 0;
#X connect 5 0 0 0;
#X connect 5 1 0 1;
#X connect 23 0 2 0;
#X connect 23 0 3 0;
#X connect 24 0 2 0;
#X connect 24 0 3 0;
#X connect 25 0 2 0;
#X connect 25 0 3 0;
#X connect 26 0 2 0;
#X connect 26 0 3 0;
#X connect 27 0 2 0;
#X connect 27 0 3 0;
#X connect 28 0 2 0;
#X connect 28 0 3 0;
#X connect 29 0 2 0;
#X connect 29 0 3 0;
#X connect 30 0 2 0;
#X connect 30 0 3 0;
#X connect 31 0 6 0;
#X connect 32 0 7 0;
#X connect 33 0 8 0;
#X connect 34 0 9 0;
#X connect 35 0 10 0;
#X connect 36 0 11 0;
#X connect 37 0 12 0;
#X connect 38 0 13 0;
#X connect 39 0 14 0;
#X connect 40 0 15 0;
#X connect 41 0 16 0;
#X connect 42 0 17 0;
#X connect 43 0 18 0;
#X connect 44 0 19 0;
#X connect 45 0 20 0;
#X connect 46 0 21 0;
#X restore -227 95 pd Recall_vel1;
#X msg -204 -143 36;
#X floatatom -101 6 5 0 0 0 - - -;
#X floatatom -124 28 5 0 0 0 - - -;
#N canvas 0 22 930 545 vel1 0;
#X obj 365 321 f;
#X obj 327 321 f;
#X obj 285 321 f;
#X obj 247 321 f;
#X obj 205 321 f;
#X obj 167 321 f;
#X obj 125 321 f;
#X obj 87 321 f;
#X obj 264 37 i;
#X obj 293 37 + 1;
#X obj 264 67 % 16;
#X obj 380 425 outlet;
#X floatatom 380 29 5 0 0 0 - - -;
#X obj 333 50 r modulo;
#X obj 261 103 sel 0 1 2 3 4 5 6 7 8 9 10 11 12 13 14 15;
#X obj 79 266 * 20;
#X obj 125 267 * 20;
#X obj 165 268 * 20;
#X obj 207 266 * 20;
#X obj 245 265 * 20;
#X obj 285 263 * 20;
#X obj 317 262 * 20;
#X obj 355 265 * 20;
#X obj 691 320 f;
#X obj 653 320 f;
#X obj 611 320 f;
#X obj 573 320 f;
#X obj 531 320 f;
#X obj 493 320 f;
#X obj 451 320 f;
#X obj 413 320 f;
#X obj 405 265 * 20;
#X obj 451 266 * 20;
#X obj 491 267 * 20;
#X obj 533 265 * 20;
#X obj 571 264 * 20;
#X obj 611 262 * 20;
#X obj 643 261 * 20;
#X obj 681 264 * 20;
#X obj 17 200 r vel1_0;
#X obj 71 200 r vel1_1;
#X obj 125 200 r vel1_2;
#X obj 180 201 r vel1_3;
#X obj 233 202 r vel1_4;
#X obj 287 203 r vel1_5;
#X obj 342 203 r vel1_6;
#X obj 396 203 r vel1_7;
#X obj 385 166 r vel1_8;
#X obj 439 166 r vel1_9;
#X obj 497 165 r vel1_10;
#X obj 558 165 r vel1_11;
#X obj 619 166 r vel1_12;
#X obj 811 165 r vel1_15;
#X obj 748 167 r vel1_14;
#X obj 681 166 r vel1_13;
#X obj 264 8 r bang1;
#X connect 0 0 11 0;
#X connect 1 0 11 0;
#X connect 2 0 11 0;
#X connect 3 0 11 0;
#X connect 4 0 11 0;
#X connect 5 0 11 0;
#X connect 6 0 11 0;
#X connect 7 0 11 0;
#X connect 8 0 9 0;
#X connect 8 0 10 0;
#X connect 9 0 8 1;
#X connect 10 0 14 0;
#X connect 13 0 10 1;
#X connect 14 0 7 0;
#X connect 14 1 6 0;
#X connect 14 2 5 0;
#X connect 14 3 4 0;
#X connect 14 4 3 0;
#X connect 14 5 2 0;
#X connect 14 6 1 0;
#X connect 14 7 0 0;
#X connect 14 8 30 0;
#X connect 14 9 29 0;
#X connect 14 10 28 0;
#X connect 14 11 27 0;
#X connect 14 12 26 0;
#X connect 14 13 25 0;
#X connect 14 14 24 0;
#X connect 14 15 23 0;
#X connect 15 0 7 1;
#X connect 16 0 6 1;
#X connect 17 0 5 1;
#X connect 18 0 4 1;
#X connect 19 0 3 1;
#X connect 20 0 2 1;
#X connect 21 0 1 1;
#X connect 22 0 0 1;
#X connect 23 0 11 0;
#X connect 24 0 11 0;
#X connect 25 0 11 0;
#X connect 26 0 11 0;
#X connect 27 0 11 0;
#X connect 28 0 11 0;
#X connect 29 0 11 0;
#X connect 30 0 11 0;
#X connect 31 0 30 1;
#X connect 32 0 29 1;
#X connect 33 0 28 1;
#X connect 34 0 27 1;
#X connect 35 0 26 1;
#X connect 36 0 25 1;
#X connect 37 0 24 1;
#X connect 38 0 23 1;
#X connect 39 0 15 0;
#X connect 40 0 16 0;
#X connect 41 0 17 0;
#X connect 42 0 18 0;
#X connect 43 0 19 0;
#X connect 44 0 20 0;
#X connect 45 0 21 0;
#X connect 46 0 22 0;
#X connect 47 0 31 0;
#X connect 48 0 32 0;
#X connect 49 0 33 0;
#X connect 50 0 34 0;
#X connect 51 0 35 0;
#X connect 52 0 38 0;
#X connect 53 0 37 0;
#X connect 54 0 36 0;
#X connect 55 0 12 0;
#X connect 55 0 8 0;
#X restore -218 -44 pd vel1;
#X obj -211 303 bng 15 250 50 0 empty empty Randomize_Notes 17 7 0
10 -262144 -1 -1;
#X obj -211 261 spigot;
#X obj -178 225 tgl 15 0 empty empty random_play 17 7 0 10 -262144
-1 -1 0 1;
#X obj -211 242 r bang;
#N canvas 0 22 800 532 randomnotes 0;
#X obj 339 23 inlet;
#X obj 129 154 random 11;
#X obj 198 154 random 11;
#X obj 268 154 random 11;
#X obj 337 153 random 11;
#X obj 407 154 random 11;
#X obj 476 154 random 11;
#X obj 546 154 random 11;
#X obj 615 154 random 11;
#X obj 138 179 random 11;
#X obj 207 179 random 11;
#X obj 277 179 random 11;
#X obj 346 179 random 11;
#X obj 416 179 random 11;
#X obj 485 179 random 11;
#X obj 555 179 random 11;
#X obj 624 179 random 11;
#X obj 79 341 s pnote1_1;
#X obj 43 323 s pnote1_0;
#X obj 137 321 s pnote1_2;
#X obj 192 339 s pnote1_3;
#X obj 254 315 s pnote1_4;
#X obj 293 352 s pnote1_5;
#X obj 347 309 s pnote1_6;
#X obj 372 335 s pnote1_7;
#X obj 422 359 s pnote1_8;
#X obj 447 336 s pnote1_9;
#X obj 493 317 s pnote1_10;
#X obj 580 360 s pnote1_12;
#X obj 535 335 s pnote1_11;
#X obj 617 316 s pnote1_13;
#X obj 717 366 s pnote1_15;
#X obj 668 336 s pnote1_14;
#X connect 0 0 1 0;
#X connect 0 0 2 0;
#X connect 0 0 3 0;
#X connect 0 0 4 0;
#X connect 0 0 5 0;
#X connect 0 0 6 0;
#X connect 0 0 7 0;
#X connect 0 0 8 0;
#X connect 0 0 9 0;
#X connect 0 0 10 0;
#X connect 0 0 11 0;
#X connect 0 0 12 0;
#X connect 0 0 13 0;
#X connect 0 0 14 0;
#X connect 0 0 15 0;
#X connect 0 0 16 0;
#X connect 1 0 18 0;
#X connect 2 0 19 0;
#X connect 3 0 21 0;
#X connect 4 0 24 0;
#X connect 5 0 25 0;
#X connect 6 0 27 0;
#X connect 7 0 28 0;
#X connect 8 0 32 0;
#X connect 9 0 17 0;
#X connect 10 0 20 0;
#X connect 11 0 22 0;
#X connect 12 0 23 0;
#X connect 13 0 26 0;
#X connect 14 0 29 0;
#X connect 15 0 30 0;
#X connect 16 0 31 0;
#X restore -211 320 pd randomnotes;
#X obj 90 305 bng 15 250 50 0 empty empty Randomize_Vel 17 7 0 10 -262144
-1 -1;
#X obj 91 261 spigot;
#X obj 124 225 tgl 15 0 empty empty random_play 17 7 0 10 -262144 -1
-1 0 1;
#X obj 91 242 r bang;
#N canvas 0 22 800 532 randomvel 0;
#X obj 339 23 inlet;
#X obj 43 323 s pvel1_0;
#X obj 79 341 s pvel1_1;
#X obj 137 321 s pvel1_2;
#X obj 192 339 s pvel_3;
#X obj 254 315 s pvel1_4;
#X obj 293 352 s pvel1_5;
#X obj 347 309 s pvel1_6;
#X obj 372 335 s pvel1_7;
#X obj 422 359 s vel1_8;
#X obj 447 336 s pvel1_9;
#X obj 493 317 s pvel1_10;
#X obj 535 335 s pvel_11;
#X obj 580 360 s pvel1_12;
#X obj 617 316 s pvel1_13;
#X obj 668 336 s pvel1_14;
#X obj 717 366 s pvel1_15;
#X obj 128 153 random 6;
#X obj 138 179 random 6;
#X obj 198 154 random 6;
#X obj 207 179 random 6;
#X obj 268 154 random 6;
#X obj 277 179 random 6;
#X obj 337 153 random 6;
#X obj 346 179 random 6;
#X obj 407 154 random 6;
#X obj 416 179 random 6;
#X obj 476 154 random 6;
#X obj 485 179 random 6;
#X obj 546 154 random 6;
#X obj 555 179 random 6;
#X obj 615 154 random 6;
#X obj 624 179 random 6;
#X connect 0 0 17 0;
#X connect 0 0 18 0;
#X connect 0 0 19 0;
#X connect 0 0 20 0;
#X connect 0 0 21 0;
#X connect 0 0 22 0;
#X connect 0 0 23 0;
#X connect 0 0 24 0;
#X connect 0 0 25 0;
#X connect 0 0 26 0;
#X connect 0 0 27 0;
#X connect 0 0 28 0;
#X connect 0 0 29 0;
#X connect 0 0 30 0;
#X connect 0 0 31 0;
#X connect 0 0 32 0;
#X connect 17 0 1 0;
#X connect 18 0 2 0;
#X connect 19 0 3 0;
#X connect 20 0 4 0;
#X connect 21 0 5 0;
#X connect 22 0 6 0;
#X connect 23 0 8 0;
#X connect 24 0 7 0;
#X connect 25 0 9 0;
#X connect 26 0 10 0;
#X connect 27 0 11 0;
#X connect 28 0 12 0;
#X connect 29 0 13 0;
#X connect 30 0 14 0;
#X connect 31 0 15 0;
#X connect 32 0 16 0;
#X restore 90 322 pd randomvel;
#X text -70 271 0 will never play;
#X obj -89 229 vsl 15 50 0 30 0 0 empty empty prob 0 -8 0 8 -262144
-1 -1 0 1;
#X text -70 244 < high probability;
#X text -71 227 < low probability;
#X text -69 260 8 will ever play;
#X floatatom -88 199 5 0 0 0 - - -;
#X msg -88 179 8;
#X text -65 -144 Play;
#X text -123 81 Load patterns from .txt;
#X text -69 302 Randomise one time;
#X text -47 179 Will I randomise at each step;
#X text 231 274 0 will never play;
#X obj 212 232 vsl 15 50 0 30 0 0 empty empty prob 0 -8 0 8 -262144
-1 -1 0 1;
#X text 231 247 < high probability;
#X text 230 230 < low probability;
#X text 232 263 8 will ever play;
#X floatatom 213 202 5 0 0 0 - - -;
#X msg 213 182 8;
#X text 254 182 Will I randomise at each step;
#X text -212 150 RANDOMISE SEQUENCER;
#X text 472 250 0 will never play;
#X obj 453 217 vsl 15 50 0 30 0 0 empty empty prob 0 -8 0 8 -262144
-1 -1 0 1;
#X text 472 238 < high probability;
#X text 471 215 < low probability;
#X msg 453 166 8;
#N canvas 0 22 800 532 probanote 0;
#X obj 220 303 random 8;
#X text 410 315 what note to play;
#X text 376 331 only numbers 7 \, 1 \, 2 \, 3 \, 4 \, 5 will trigger
notes;
#X text 395 346 any other value will trigger nothing;
#X text 287 302 if this beat is a trigger use a random number to work
out;
#X msg 447 225 8;
#X obj 447 196 loadbang;
#X text 446 167 set initial;
#X text 446 178 probability;
#X floatatom 154 304 0 0 0 0 - - -;
#X obj 139 373 +;
#X msg 139 352 0;
#X msg 170 353 0;
#X msg 199 353 0;
#X msg 229 353 0;
#X obj 171 373 +;
#X obj 199 373 +;
#X obj 229 373 +;
#X obj 259 373 +;
#X obj 290 374 +;
#X obj 320 374 +;
#X msg 320 353 0;
#X msg 290 354 0;
#X msg 259 354 0;
#X obj 220 330 select 0 7 1 2 3 4 5 6;
#X obj 348 374 +;
#X msg 348 353 0;
#X floatatom 139 397 0 0 0 0 - - -;
#X obj 220 283 bng 15 250 50 0 empty empty empty 17 7 0 10 -262144
-1 -1;
#X text 150 180 Will I play ?;
#X obj 154 259 inlet;
#X obj 278 260 inlet;
#X obj 139 432 outlet;
#X connect 0 0 24 0;
#X connect 5 0 0 1;
#X connect 6 0 5 0;
#X connect 9 0 10 1;
#X connect 9 0 15 1;
#X connect 9 0 16 1;
#X connect 9 0 17 1;
#X connect 9 0 18 1;
#X connect 9 0 19 1;
#X connect 9 0 20 1;
#X connect 9 0 25 1;
#X connect 10 0 27 0;
#X connect 11 0 10 0;
#X connect 12 0 15 0;
#X connect 13 0 16 0;
#X connect 14 0 17 0;
#X connect 15 0 27 0;
#X connect 16 0 27 0;
#X connect 17 0 27 0;
#X connect 18 0 27 0;
#X connect 19 0 27 0;
#X connect 20 0 27 0;
#X connect 21 0 20 0;
#X connect 22 0 19 0;
#X connect 23 0 18 0;
#X connect 24 0 11 0;
#X connect 24 1 12 0;
#X connect 24 2 13 0;
#X connect 24 3 14 0;
#X connect 24 4 23 0;
#X connect 24 5 22 0;
#X connect 24 6 21 0;
#X connect 24 7 26 0;
#X connect 25 0 27 0;
#X connect 26 0 25 0;
#X connect 27 0 32 0;
#X connect 28 0 0 0;
#X connect 30 0 9 0;
#X connect 30 0 28 0;
#X connect 31 0 0 1;
#X restore 382 294 pd probanote;
#N canvas 0 22 450 300 probabang 0;
#X obj 220 303 random 8;
#X text 410 315 what note to play;
#X text 376 331 only numbers 7 \, 1 \, 2 \, 3 \, 4 \, 5 will trigger
notes;
#X text 395 346 any other value will trigger nothing;
#X text 287 302 if this beat is a trigger use a random number to work
out;
#X msg 447 225 8;
#X obj 447 196 loadbang;
#X text 446 167 set initial;
#X text 446 178 probability;
#X obj 220 330 select 0 7 1 2 3 4 5 6;
#X obj 220 283 bng 15 250 50 0 empty empty empty 17 7 0 10 -262144
-1 -1;
#X text 150 180 Will I play ?;
#X obj 220 262 inlet;
#X obj 220 375 outlet;
#X obj 266 258 inlet;
#X obj 220 355 bng 15 250 50 0 empty empty empty 17 7 0 10 -262144
-1 -1;
#X connect 0 0 9 0;
#X connect 5 0 0 1;
#X connect 6 0 5 0;
#X connect 9 0 15 0;
#X connect 9 1 15 0;
#X connect 9 2 15 0;
#X connect 9 3 15 0;
#X connect 9 4 15 0;
#X connect 9 5 15 0;
#X connect 9 6 15 0;
#X connect 9 7 15 0;
#X connect 10 0 0 0;
#X connect 12 0 10 0;
#X connect 14 0 0 1;
#X connect 15 0 13 0;
#X restore 90 285 pd probabang;
#N canvas 0 22 450 300 probabang 0;
#X obj 220 303 random 8;
#X text 410 315 what note to play;
#X text 376 331 only numbers 7 \, 1 \, 2 \, 3 \, 4 \, 5 will trigger
notes;
#X text 395 346 any other value will trigger nothing;
#X text 287 302 if this beat is a trigger use a random number to work
out;
#X msg 447 225 8;
#X obj 447 196 loadbang;
#X text 446 167 set initial;
#X text 446 178 probability;
#X obj 220 330 select 0 7 1 2 3 4 5 6;
#X obj 220 283 bng 15 250 50 0 empty empty empty 17 7 0 10 -262144
-1 -1;
#X text 150 180 Will I play ?;
#X obj 220 262 inlet;
#X obj 220 375 outlet;
#X obj 266 258 inlet;
#X obj 220 355 bng 15 250 50 0 empty empty empty 17 7 0 10 -262144
-1 -1;
#X connect 0 0 9 0;
#X connect 5 0 0 1;
#X connect 6 0 5 0;
#X connect 9 0 15 0;
#X connect 9 1 15 0;
#X connect 9 2 15 0;
#X connect 9 3 15 0;
#X connect 9 4 15 0;
#X connect 9 5 15 0;
#X connect 9 6 15 0;
#X connect 9 7 15 0;
#X connect 10 0 0 0;
#X connect 12 0 10 0;
#X connect 14 0 0 1;
#X connect 15 0 13 0;
#X restore -211 282 pd probabang;
#X obj 382 273 r note1;
#X obj 382 314 s noteP;
#X floatatom 453 187 5 0 0 0 - - -;
#N canvas 0 22 930 545 note1 0;
#X obj 365 321 f;
#X obj 327 321 f;
#X obj 285 321 f;
#X obj 247 321 f;
#X obj 205 321 f;
#X obj 167 321 f;
#X obj 125 321 f;
#X obj 87 321 f;
#X obj 264 37 i;
#X obj 293 37 + 1;
#X obj 264 67 % 16;
#X obj 380 425 outlet;
#X floatatom 380 29 5 0 0 0 - - -;
#X obj 333 50 r modulo;
#X obj 261 103 sel 0 1 2 3 4 5 6 7 8 9 10 11 12 13 14 15;
#X obj 691 320 f;
#X obj 653 320 f;
#X obj 611 320 f;
#X obj 573 320 f;
#X obj 531 320 f;
#X obj 493 320 f;
#X obj 451 320 f;
#X obj 413 320 f;
#X obj -9 200 r note1_0;
#X obj 53 200 r note1_1;
#X obj 113 200 r note1_2;
#X obj 173 200 r note1_3;
#X obj 233 199 r note1_4;
#X obj 294 200 r note1_5;
#X obj 358 200 r note1_6;
#X obj 420 202 r note1_7;
#X obj 822 164 r note1_15;
#X obj 756 164 r note1_14;
#X obj 688 164 r note1_13;
#X obj 621 165 r note1_12;
#X obj 553 166 r note1_11;
#X obj 487 166 r note1_10;
#X obj 426 166 r note1_9;
#X obj 368 166 r note1_8;
#X obj 303 223 r note1_BF;
#X obj 264 8 r bang1;
#X obj 79 266 +;
#X obj 125 267 +;
#X obj 165 268 +;
#X obj 207 266 +;
#X obj 245 265 +;
#X obj 285 263 +;
#X obj 317 262 +;
#X obj 355 265 +;
#X obj 405 265 +;
#X obj 451 266 +;
#X obj 491 267 +;
#X obj 533 265 +;
#X obj 571 264 +;
#X obj 611 262 +;
#X obj 643 261 +;
#X obj 681 264 +;
#X connect 0 0 11 0;
#X connect 1 0 11 0;
#X connect 2 0 11 0;
#X connect 3 0 11 0;
#X connect 4 0 11 0;
#X connect 5 0 11 0;
#X connect 6 0 11 0;
#X connect 7 0 11 0;
#X connect 8 0 9 0;
#X connect 8 0 10 0;
#X connect 9 0 8 1;
#X connect 10 0 14 0;
#X connect 13 0 10 1;
#X connect 14 0 7 0;
#X connect 14 1 6 0;
#X connect 14 2 5 0;
#X connect 14 3 4 0;
#X connect 14 4 3 0;
#X connect 14 5 2 0;
#X connect 14 6 1 0;
#X connect 14 7 0 0;
#X connect 14 8 22 0;
#X connect 14 9 21 0;
#X connect 14 10 20 0;
#X connect 14 11 19 0;
#X connect 14 12 18 0;
#X connect 14 13 17 0;
#X connect 14 14 16 0;
#X connect 14 15 15 0;
#X connect 15 0 11 0;
#X connect 16 0 11 0;
#X connect 17 0 11 0;
#X connect 18 0 11 0;
#X connect 19 0 11 0;
#X connect 20 0 11 0;
#X connect 21 0 11 0;
#X connect 22 0 11 0;
#X connect 23 0 41 0;
#X connect 24 0 42 0;
#X connect 25 0 43 0;
#X connect 26 0 44 0;
#X connect 27 0 45 0;
#X connect 28 0 46 0;
#X connect 29 0 47 0;
#X connect 30 0 48 0;
#X connect 31 0 56 0;
#X connect 32 0 55 0;
#X connect 33 0 54 0;
#X connect 34 0 53 0;
#X connect 35 0 52 0;
#X connect 36 0 51 0;
#X connect 37 0 50 0;
#X connect 38 0 49 0;
#X connect 39 0 41 1;
#X connect 39 0 42 1;
#X connect 39 0 43 1;
#X connect 39 0 44 1;
#X connect 39 0 45 1;
#X connect 39 0 46 1;
#X connect 39 0 47 1;
#X connect 39 0 48 1;
#X connect 39 0 49 1;
#X connect 39 0 50 1;
#X connect 39 0 51 1;
#X connect 39 0 52 1;
#X connect 39 0 53 1;
#X connect 39 0 54 1;
#X connect 39 0 55 1;
#X connect 39 0 56 1;
#X connect 40 0 12 0;
#X connect 40 0 8 0;
#X connect 41 0 7 1;
#X connect 42 0 6 1;
#X connect 43 0 5 1;
#X connect 44 0 4 1;
#X connect 45 0 3 1;
#X connect 46 0 2 1;
#X connect 47 0 1 1;
#X connect 48 0 0 1;
#X connect 49 0 22 1;
#X connect 50 0 21 1;
#X connect 51 0 20 1;
#X connect 52 0 19 1;
#X connect 53 0 18 1;
#X connect 54 0 17 1;
#X connect 55 0 16 1;
#X connect 56 0 15 1;
#X restore -168 -43 pd note1;
#X obj -218 -22 s vel1;
#X obj -168 -21 s note1;
#X obj -126 98 declare -path z_pattern_abs;
#X connect 2 0 5 0;
#X connect 2 0 8 0;
#X connect 3 0 4 0;
#X connect 5 0 3 0;
#X connect 6 0 7 0;
#X connect 8 0 6 0;
#X connect 9 0 51 1;
#X connect 11 0 10 0;
#X connect 51 0 11 0;
#X connect 52 0 51 0;
#X connect 55 0 3 0;
#X connect 58 0 57 0;
#X connect 58 0 101 0;
#X connect 59 0 63 0;
#X connect 60 0 96 0;
#X connect 61 0 60 1;
#X connect 62 0 60 0;
#X connect 64 0 68 0;
#X connect 65 0 95 0;
#X connect 66 0 65 1;
#X connect 67 0 65 0;
#X connect 70 0 96 1;
#X connect 74 0 70 0;
#X connect 75 0 74 0;
#X connect 81 0 95 1;
#X connect 85 0 81 0;
#X connect 86 0 85 0;
#X connect 90 0 94 1;
#X connect 93 0 99 0;
#X connect 94 0 98 0;
#X connect 95 0 64 0;
#X connect 96 0 59 0;
#X connect 97 0 94 0;
#X connect 99 0 90 0;
#X connect 100 0 56 0;
#X connect 100 0 102 0;
