#N canvas 0 22 1024 720 10;
#X declare -path z_pattern_abs;
#X obj 28 -29 vradio 15 1 0 6 vel1_0 pvel1_0 empty 0 -8 0 10 -99865
-262144 -262144 0;
#X obj 26 -291 vradio 20 1 0 12 note1_0 pnote1_0 empty 0 -8 0 10 -191407
-1 -262144 0;
#N canvas 0 22 930 545 vel1 0;
#X obj 365 321 f;
#X obj 327 321 f;
#X obj 285 321 f;
#X obj 247 321 f;
#X obj 205 321 f;
#X obj 167 321 f;
#X obj 125 321 f;
#X obj 87 321 f;
#X obj 264 37 i;
#X obj 293 37 + 1;
#X obj 264 67 % 16;
#X obj 911 485 outlet;
#X floatatom 380 29 5 0 0 0 - - -;
#X obj 333 50 r modulo;
#X obj 79 266 * 20;
#X obj 125 267 * 20;
#X obj 165 268 * 20;
#X obj 207 266 * 20;
#X obj 245 265 * 20;
#X obj 285 263 * 20;
#X obj 317 262 * 20;
#X obj 355 265 * 20;
#X obj 691 320 f;
#X obj 653 320 f;
#X obj 611 320 f;
#X obj 573 320 f;
#X obj 531 320 f;
#X obj 493 320 f;
#X obj 451 320 f;
#X obj 413 320 f;
#X obj 405 265 * 20;
#X obj 451 266 * 20;
#X obj 491 267 * 20;
#X obj 533 265 * 20;
#X obj 571 264 * 20;
#X obj 611 262 * 20;
#X obj 643 261 * 20;
#X obj 681 264 * 20;
#X obj 17 200 r vel1_0;
#X obj 71 200 r vel1_1;
#X obj 125 200 r vel1_2;
#X obj 180 201 r vel1_3;
#X obj 233 202 r vel1_4;
#X obj 287 203 r vel1_5;
#X obj 342 203 r vel1_6;
#X obj 396 203 r vel1_7;
#X obj 385 166 r vel1_8;
#X obj 439 166 r vel1_9;
#X obj 497 165 r vel1_10;
#X obj 558 165 r vel1_11;
#X obj 619 166 r vel1_12;
#X obj 811 165 r vel1_15;
#X obj 748 167 r vel1_14;
#X obj 681 166 r vel1_13;
#X obj 264 8 r bang1;
#X obj 1005 319 f;
#X obj 967 319 f;
#X obj 925 319 f;
#X obj 887 319 f;
#X obj 845 319 f;
#X obj 807 319 f;
#X obj 765 319 f;
#X obj 727 319 f;
#X obj 719 264 * 20;
#X obj 765 265 * 20;
#X obj 805 266 * 20;
#X obj 847 264 * 20;
#X obj 885 263 * 20;
#X obj 925 261 * 20;
#X obj 957 260 * 20;
#X obj 995 263 * 20;
#X obj 1331 318 f;
#X obj 1293 318 f;
#X obj 1251 318 f;
#X obj 1213 318 f;
#X obj 1171 318 f;
#X obj 1133 318 f;
#X obj 1091 318 f;
#X obj 1053 318 f;
#X obj 1045 263 * 20;
#X obj 1091 264 * 20;
#X obj 1131 265 * 20;
#X obj 1173 263 * 20;
#X obj 1211 262 * 20;
#X obj 1251 260 * 20;
#X obj 1283 259 * 20;
#X obj 1321 262 * 20;
#X obj 264 89 sel 0 1 2 3 4 5 6 7 8 9 10 11 12 13 14 15 16 17 18 19
20 21 22 23 24 25 26 27 28 29 30 31;
#X obj 657 198 r vel1_16;
#X obj 719 198 r vel1_17;
#X obj 781 197 r vel1_18;
#X obj 843 197 r vel1_19;
#X obj 906 195 r vel1_20;
#X obj 969 195 r vel1_21;
#X obj 1031 195 r vel1_22;
#X obj 1092 196 r vel1_23;
#X obj 1010 164 r vel1_24;
#X obj 1070 165 r vel1_25;
#X obj 1130 165 r vel1_26;
#X obj 1190 165 r vel1_27;
#X obj 1250 165 r vel1_28;
#X obj 1311 166 r vel1_29;
#X obj 1371 167 r vel1_30;
#X obj 1398 195 r vel1_31;
#X connect 0 0 11 0;
#X connect 1 0 11 0;
#X connect 2 0 11 0;
#X connect 3 0 11 0;
#X connect 4 0 11 0;
#X connect 5 0 11 0;
#X connect 6 0 11 0;
#X connect 7 0 11 0;
#X connect 8 0 9 0;
#X connect 8 0 10 0;
#X connect 9 0 8 1;
#X connect 10 0 87 0;
#X connect 13 0 10 1;
#X connect 14 0 7 1;
#X connect 15 0 6 1;
#X connect 16 0 5 1;
#X connect 17 0 4 1;
#X connect 18 0 3 1;
#X connect 19 0 2 1;
#X connect 20 0 1 1;
#X connect 21 0 0 1;
#X connect 22 0 11 0;
#X connect 23 0 11 0;
#X connect 24 0 11 0;
#X connect 25 0 11 0;
#X connect 26 0 11 0;
#X connect 27 0 11 0;
#X connect 28 0 11 0;
#X connect 29 0 11 0;
#X connect 30 0 29 1;
#X connect 31 0 28 1;
#X connect 32 0 27 1;
#X connect 33 0 26 1;
#X connect 34 0 25 1;
#X connect 35 0 24 1;
#X connect 36 0 23 1;
#X connect 37 0 22 1;
#X connect 38 0 14 0;
#X connect 39 0 15 0;
#X connect 40 0 16 0;
#X connect 41 0 17 0;
#X connect 42 0 18 0;
#X connect 43 0 19 0;
#X connect 44 0 20 0;
#X connect 45 0 21 0;
#X connect 46 0 30 0;
#X connect 47 0 31 0;
#X connect 48 0 32 0;
#X connect 49 0 33 0;
#X connect 50 0 34 0;
#X connect 51 0 37 0;
#X connect 52 0 36 0;
#X connect 53 0 35 0;
#X connect 54 0 12 0;
#X connect 54 0 8 0;
#X connect 55 0 11 0;
#X connect 56 0 11 0;
#X connect 57 0 11 0;
#X connect 58 0 11 0;
#X connect 59 0 11 0;
#X connect 60 0 11 0;
#X connect 61 0 11 0;
#X connect 62 0 11 0;
#X connect 63 0 62 1;
#X connect 64 0 61 1;
#X connect 65 0 60 1;
#X connect 66 0 59 1;
#X connect 67 0 58 1;
#X connect 68 0 57 1;
#X connect 69 0 56 1;
#X connect 70 0 55 1;
#X connect 71 0 11 0;
#X connect 72 0 11 0;
#X connect 73 0 11 0;
#X connect 74 0 11 0;
#X connect 75 0 11 0;
#X connect 76 0 11 0;
#X connect 77 0 11 0;
#X connect 78 0 11 0;
#X connect 79 0 78 1;
#X connect 80 0 77 1;
#X connect 81 0 76 1;
#X connect 82 0 75 1;
#X connect 83 0 74 1;
#X connect 84 0 73 1;
#X connect 85 0 72 1;
#X connect 86 0 71 1;
#X connect 87 0 7 0;
#X connect 87 1 6 0;
#X connect 87 2 5 0;
#X connect 87 3 4 0;
#X connect 87 4 3 0;
#X connect 87 5 2 0;
#X connect 87 6 1 0;
#X connect 87 7 0 0;
#X connect 87 8 29 0;
#X connect 87 9 28 0;
#X connect 87 10 27 0;
#X connect 87 11 26 0;
#X connect 87 12 25 0;
#X connect 87 13 24 0;
#X connect 87 14 23 0;
#X connect 87 15 22 0;
#X connect 87 16 62 0;
#X connect 87 17 61 0;
#X connect 87 18 60 0;
#X connect 87 19 59 0;
#X connect 87 20 58 0;
#X connect 87 21 57 0;
#X connect 87 22 56 0;
#X connect 87 23 55 0;
#X connect 87 24 78 0;
#X connect 87 25 77 0;
#X connect 87 26 76 0;
#X connect 87 27 75 0;
#X connect 87 28 74 0;
#X connect 87 29 73 0;
#X connect 87 30 72 0;
#X connect 87 31 71 0;
#X connect 88 0 63 0;
#X connect 89 0 64 0;
#X connect 90 0 65 0;
#X connect 91 0 66 0;
#X connect 92 0 67 0;
#X connect 93 0 68 0;
#X connect 94 0 69 0;
#X connect 95 0 70 0;
#X connect 96 0 79 0;
#X connect 97 0 80 0;
#X connect 98 0 81 0;
#X connect 99 0 82 0;
#X connect 100 0 83 0;
#X connect 101 0 84 0;
#X connect 102 0 85 0;
#X connect 103 0 86 0;
#X restore -218 -44 pd vel1;
#X obj -216 -200 loadbang;
#X floatatom -217 -86 5 0 0 0 - - -;
#X obj -217 -66 s note1_BF;
#X msg -216 -180 60;
#X floatatom -147 -87 5 0 0 0 - - -;
#X obj -148 -67 s modulo;
#X obj -60 -126 tgl 15 0 empty empty empty 17 7 0 10 -262144 -1 -1
0 1;
#X obj 26 -50 hradio 20 1 0 32 empty empty empty 0 -6 0 8 -33289 -258113
-1 0;
#N canvas 0 22 519 438 metro1 0;
#X obj -55 241 i;
#X obj -24 242 + 1;
#X obj -55 151 tgl 15 0 empty empty on 0 -6 0 8 -262144 -1 -1 0 1;
#X obj -55 170 metro 100;
#X obj -3 153 nbx 5 14 -1e+37 1e+37 0 0 empty empty msec 0 -6 0 10
-262144 -1 -1 0 256;
#X obj -55 268 mod 16;
#X obj 88 116 r modulo;
#X obj -3 115 r Mmetro;
#X obj -52 114 inlet;
#X obj -49 292 bang;
#X obj -40 323 s bang1;
#X obj -13 293 outlet;
#X obj 81 159 r modulostart;
#X connect 0 0 5 0;
#X connect 1 0 0 1;
#X connect 2 0 3 0;
#X connect 3 0 0 0;
#X connect 4 0 3 1;
#X connect 5 0 1 0;
#X connect 5 0 9 0;
#X connect 5 0 11 0;
#X connect 6 0 5 1;
#X connect 7 0 4 0;
#X connect 8 0 2 0;
#X connect 9 0 10 0;
#X connect 12 0 0 1;
#X restore -91 -67 pd metro1;
#X obj 46 -291 vradio 20 1 0 12 note1_1 note1_1 empty 0 -8 0 10 -191407
-1 -262144 0;
#X obj 66 -291 vradio 20 1 0 12 note1_2 pnote1_2 empty 0 -8 0 10 -191407
-1 -262144 0;
#X obj 86 -291 vradio 20 1 0 12 note1_3 pnote1_3 empty 0 -8 0 10 -191407
-1 -262144 0;
#X obj 106 -291 vradio 20 1 0 12 note1_4 pnote1_4 empty 0 -8 0 10 -191407
-1 -262144 0;
#X obj 126 -291 vradio 20 1 0 12 note1_5 pnote1_5 empty 0 -8 0 10 -191407
-1 -262144 0;
#X obj 146 -291 vradio 20 1 0 12 note1_6 pnote1_6 empty 0 -8 0 10 -191407
-1 -262144 0;
#X obj 166 -291 vradio 20 1 0 12 note1_7 pnote1_7 empty 0 -8 0 10 -191407
-1 -262144 0;
#X obj 186 -291 vradio 20 1 0 12 note1_8 pnote1_8 empty 0 -8 0 10 -191407
-1 -262144 0;
#X obj 206 -291 vradio 20 1 0 12 note1_9 pnote1_9 empty 0 -8 0 10 -191407
-1 -262144 0;
#X obj 226 -291 vradio 20 1 0 12 note1_10 pnote1_10 empty 0 -8 0 10
-191407 -1 -262144 0;
#X obj 246 -291 vradio 20 1 0 12 note1_11 pnote1_11 empty 0 -8 0 10
-191407 -1 -262144 0;
#X obj 266 -291 vradio 20 1 0 12 note1_12 pnote1_12 empty 0 -8 0 10
-191407 -1 -262144 0;
#X obj 286 -291 vradio 20 1 0 12 note1_13 pnote1_13 empty 0 -8 0 10
-191407 -1 -262144 0;
#X obj 306 -291 vradio 20 1 0 12 note1_14 pnote1_14 empty 0 -8 0 10
-191407 -1 -262144 0;
#X obj 326 -291 vradio 20 1 0 12 note1_15 pnote1_15 empty 0 -8 0 10
-191407 -1 -262144 0;
#X obj 49 -29 vradio 15 1 0 6 vel1_1 pvel1_1 empty 0 -8 0 10 -99865
-262144 -262144 0;
#X obj 69 -29 vradio 15 1 0 6 vel1_2 pvel1_2 empty 0 -8 0 10 -99865
-262144 -262144 0;
#X obj 89 -29 vradio 15 1 0 6 vel1_3 pvel1_3 empty 0 -8 0 10 -99865
-262144 -262144 0;
#X obj 108 -29 vradio 15 1 0 6 vel1_4 pvel1_4 empty 0 -8 0 10 -99865
-262144 -262144 0;
#X obj 129 -29 vradio 15 1 0 6 vel1_5 pvel1_5 empty 0 -8 0 10 -99865
-262144 -262144 0;
#X obj 149 -29 vradio 15 1 0 6 vel1_6 pvel1_6 empty 0 -8 0 10 -99865
-262144 -262144 0;
#X obj 169 -29 vradio 15 1 0 6 vel1_7 pvel1_7 empty 0 -8 0 10 -99865
-262144 -262144 0;
#X obj 189 -29 vradio 15 1 0 6 vel1_8 pvel1_8 empty 0 -8 0 10 -99865
-262144 -262144 0;
#X obj 209 -29 vradio 15 1 0 6 vel1_9 pvel1_9 empty 0 -8 0 10 -99865
-262144 -262144 0;
#X obj 229 -29 vradio 15 1 0 6 vel1_10 pvel1_10 empty 0 -8 0 10 -99865
-262144 -262144 0;
#X obj 249 -29 vradio 15 1 0 6 vel1_11 pvel1_11 empty 0 -8 0 10 -99865
-262144 -262144 0;
#X obj 269 -29 vradio 15 1 0 6 vel1_12 pvel1_12 empty 0 -8 0 10 -99865
-262144 -262144 0;
#X obj 289 -29 vradio 15 1 0 6 vel1_13 pvel1_13 empty 0 -8 0 10 -99865
-262144 -262144 0;
#X obj 309 -29 vradio 15 1 0 6 vel1_14 pvel1_14 empty 0 -8 0 10 -99865
-262144 -262144 0;
#X obj 329 -29 vradio 15 1 0 6 vel1_15 pvel1_15 empty 0 -8 0 10 -99865
-262144 -262144 0;
#X text 91 -305 4;
#X text 169 -305 8;
#X text 248 -307 12;
#X text 328 -307 16;
#X text -8 -189 +6 ->;
#X text -15 -70 +11 ->;
#X text -56 -289 Base Pitch ->;
#X text -25 -30 Vel 0 ->;
#X text -36 46 Vel 100 ->;
#X obj -62 262 tgl 15 0 empty empty empty 17 7 0 10 -262144 -1 -1 0
1;
#N canvas 0 22 569 479 amrfloat 0;
#X obj 99 64 inlet bang;
#X obj 202 63 inlet trig;
#X obj 99 367 f;
#X obj 99 390 change;
#X obj 99 415 outlet trig;
#X obj 335 63 inlet wait;
#X obj 264 242 f;
#X msg 279 200 0;
#X obj 264 267 + 1;
#X obj 99 175 spigot;
#X msg 132 140 0;
#X msg 164 139 1;
#X obj 202 93 t b b;
#X obj 335 175 moses 1;
#X obj 264 290 sel 1;
#X connect 0 0 9 0;
#X connect 1 0 2 1;
#X connect 1 0 12 0;
#X connect 2 0 3 0;
#X connect 3 0 4 0;
#X connect 5 0 13 0;
#X connect 6 0 8 0;
#X connect 7 0 6 1;
#X connect 8 0 6 1;
#X connect 8 0 14 0;
#X connect 9 0 6 0;
#X connect 10 0 9 1;
#X connect 11 0 9 1;
#X connect 12 0 11 0;
#X connect 12 1 7 0;
#X connect 13 1 14 1;
#X connect 14 0 2 0;
#X connect 14 0 10 0;
#X restore -93 279 pd amrfloat;
#N canvas 0 22 569 479 amrfloat 0;
#X obj 99 64 inlet bang;
#X obj 202 63 inlet trig;
#X obj 99 367 f;
#X obj 99 390 change;
#X obj 99 415 outlet trig;
#X obj 335 63 inlet wait;
#X obj 264 242 f;
#X msg 279 200 0;
#X obj 264 267 + 1;
#X obj 99 175 spigot;
#X msg 132 140 0;
#X msg 164 139 1;
#X obj 202 93 t b b;
#X obj 335 175 moses 1;
#X obj 264 290 sel 1;
#X connect 0 0 9 0;
#X connect 1 0 2 1;
#X connect 1 0 12 0;
#X connect 2 0 3 0;
#X connect 3 0 4 0;
#X connect 5 0 13 0;
#X connect 6 0 8 0;
#X connect 7 0 6 1;
#X connect 8 0 6 1;
#X connect 8 0 14 0;
#X connect 9 0 6 0;
#X connect 10 0 9 1;
#X connect 11 0 9 1;
#X connect 12 0 11 0;
#X connect 12 1 7 0;
#X connect 13 1 14 1;
#X connect 14 0 2 0;
#X connect 14 0 10 0;
#X restore -91 -86 pd amrfloat;
#X obj -91 -106 r bang;
#N canvas 0 22 524 718 Recall_note1 1;
#N canvas 0 22 1024 705 ouch 0;
#X obj 179 -109 until;
#X obj 179 -78 f;
#X obj 212 -78 + 1;
#X obj 179 -138 t f b;
#X msg 179 -160 16;
#X obj 549 153 f;
#X obj 524 153 f;
#X obj 499 153 f;
#X obj 474 153 f;
#X obj 449 153 f;
#X obj 424 153 f;
#X obj 399 153 f;
#X obj 374 153 f;
#X obj 347 153 f;
#X obj 322 153 f;
#X obj 297 153 f;
#X obj 272 153 f;
#X obj 247 153 f;
#X obj 222 153 f;
#X obj 197 153 f;
#X obj 172 153 f;
#X obj 179 -190 inlet;
#X obj 218 -190 inlet;
#X obj 134 283 s pnote1_0;
#X obj 162 264 s pnote1_1;
#X obj 197 242 s pnote1_2;
#X obj 241 223 s pnote1_3;
#X obj 276 242 s pnote1_4;
#X obj 325 263 s pnote1_5;
#X obj 369 281 s pnote1_6;
#X obj 404 262 s pnote1_7;
#X obj 454 284 s pnote1_8;
#X obj 485 265 s pnote1_9;
#X obj 510 246 s pnote1_10;
#X obj 571 265 s pnote1_11;
#X obj 636 284 s pnote1_12;
#X obj 696 303 s pnote1_13;
#X obj 729 285 s pnote1_14;
#X obj 753 265 s pnote1_15;
#X msg 218 -110 0;
#X obj 576 -46 tabread matrixnote1;
#X obj 973 95 f;
#X obj 948 102 f;
#X obj 919 105 f;
#X obj 885 109 f;
#X obj 860 109 f;
#X obj 835 109 f;
#X obj 811 110 f;
#X obj 785 109 f;
#X obj 758 109 f;
#X obj 733 109 f;
#X obj 708 109 f;
#X obj 683 109 f;
#X obj 658 109 f;
#X obj 633 109 f;
#X obj 608 109 f;
#X obj 583 109 f;
#X obj 583 210 s pnote1_16;
#X obj 611 191 s pnote1_17;
#X obj 646 169 s pnote1_18;
#X obj 690 150 s pnote1_19;
#X obj 725 169 s pnote1_20;
#X obj 774 190 s pnote1_21;
#X obj 818 208 s pnote1_22;
#X obj 853 189 s pnote1_23;
#X obj 903 211 s pnote1_24;
#X obj 934 192 s pnote1_25;
#X obj 959 173 s pnote1_26;
#X obj 1020 192 s pnote1_27;
#X obj 1085 211 s pnote1_28;
#X obj 1145 230 s pnote1_29;
#X obj 1178 212 s pnote1_30;
#X obj 1202 192 s pnote1_31;
#X obj 181 -40 sel 0 1 2 3 4 5 6 7 8 9 10 11 12 13 14 15 16 17 18 19
20 21 22 23 24 25 26 27 28 29 30 31;
#X connect 0 0 1 0;
#X connect 1 0 2 0;
#X connect 1 0 40 0;
#X connect 1 0 73 0;
#X connect 2 0 1 1;
#X connect 3 0 0 0;
#X connect 3 1 39 0;
#X connect 4 0 3 0;
#X connect 5 0 38 0;
#X connect 6 0 37 0;
#X connect 7 0 36 0;
#X connect 8 0 35 0;
#X connect 9 0 34 0;
#X connect 10 0 33 0;
#X connect 11 0 32 0;
#X connect 12 0 31 0;
#X connect 13 0 30 0;
#X connect 14 0 29 0;
#X connect 15 0 28 0;
#X connect 16 0 27 0;
#X connect 17 0 26 0;
#X connect 18 0 25 0;
#X connect 19 0 24 0;
#X connect 20 0 23 0;
#X connect 21 0 4 0;
#X connect 22 0 4 0;
#X connect 39 0 1 1;
#X connect 40 0 20 1;
#X connect 40 0 19 1;
#X connect 40 0 18 1;
#X connect 40 0 17 1;
#X connect 40 0 16 1;
#X connect 40 0 15 1;
#X connect 40 0 14 1;
#X connect 40 0 13 1;
#X connect 40 0 12 1;
#X connect 40 0 11 1;
#X connect 40 0 10 1;
#X connect 40 0 9 1;
#X connect 40 0 8 1;
#X connect 40 0 7 1;
#X connect 40 0 6 1;
#X connect 40 0 5 1;
#X connect 40 0 56 1;
#X connect 40 0 55 1;
#X connect 40 0 54 1;
#X connect 40 0 53 1;
#X connect 40 0 52 1;
#X connect 40 0 51 1;
#X connect 40 0 50 1;
#X connect 40 0 49 1;
#X connect 40 0 48 1;
#X connect 40 0 47 1;
#X connect 40 0 46 1;
#X connect 40 0 45 1;
#X connect 40 0 44 1;
#X connect 40 0 43 1;
#X connect 40 0 42 1;
#X connect 40 0 41 1;
#X connect 41 0 72 0;
#X connect 42 0 71 0;
#X connect 43 0 70 0;
#X connect 44 0 69 0;
#X connect 45 0 68 0;
#X connect 46 0 67 0;
#X connect 47 0 66 0;
#X connect 48 0 65 0;
#X connect 49 0 64 0;
#X connect 50 0 63 0;
#X connect 51 0 62 0;
#X connect 52 0 61 0;
#X connect 53 0 60 0;
#X connect 54 0 59 0;
#X connect 55 0 58 0;
#X connect 56 0 57 0;
#X connect 73 0 20 0;
#X connect 73 1 19 0;
#X connect 73 2 18 0;
#X connect 73 3 17 0;
#X connect 73 4 16 0;
#X connect 73 5 15 0;
#X connect 73 6 14 0;
#X connect 73 7 13 0;
#X connect 73 8 12 0;
#X connect 73 9 11 0;
#X connect 73 10 10 0;
#X connect 73 11 9 0;
#X connect 73 12 8 0;
#X connect 73 13 7 0;
#X connect 73 14 6 0;
#X connect 73 15 5 0;
#X connect 73 16 56 0;
#X connect 73 17 55 0;
#X connect 73 18 54 0;
#X connect 73 19 53 0;
#X connect 73 20 52 0;
#X connect 73 21 51 0;
#X connect 73 22 50 0;
#X connect 73 23 49 0;
#X connect 73 24 48 0;
#X connect 73 25 47 0;
#X connect 73 26 46 0;
#X connect 73 27 45 0;
#X connect 73 28 44 0;
#X connect 73 29 43 0;
#X connect 73 30 42 0;
#X connect 73 31 41 0;
#X restore -11 22 pd ouch;
#N canvas 0 22 450 300 (subpatch) 0;
#X array matrixnote1 16 float 2;
#X coords 0 11 32 0 200 140 1;
#X restore -161 84 graph;
#X obj 68 -151 r note1_0;
#X obj 85 -133 r note1_1;
#X obj 98 -115 r note1_2;
#X obj 111 -96 r note1_3;
#X obj 122 -78 r note1_4;
#X obj 134 -60 r note1_5;
#X obj 144 -41 r note1_6;
#X obj 154 -22 r note1_7;
#X obj 185 -147 r note1_8;
#X obj 202 -129 r note1_9;
#X obj 215 -111 r note1_10;
#X obj 228 -92 r note1_11;
#X obj 239 -74 r note1_12;
#X obj 251 -56 r note1_13;
#X obj 261 -37 r note1_14;
#X obj 271 -18 r note1_15;
#X msg -160 8 \; matrixnote1 read \$1;
#X obj -9 -43 bng 15 250 50 0 empty empty empty 17 7 0 10 -262144 -1
-1;
#X obj -11 -22 del 50;
#X obj -11 -1 t b b;
#X floatatom 68 62 5 0 0 0 - - -;
#X floatatom 78 80 5 0 0 0 - - -;
#X floatatom 88 98 5 0 0 0 - - -;
#X floatatom 98 116 5 0 0 0 - - -;
#X floatatom 108 134 5 0 0 0 - - -;
#X floatatom 118 152 5 0 0 0 - - -;
#X floatatom 128 171 5 0 0 0 - - -;
#X floatatom 138 190 5 0 0 0 - - -;
#X floatatom 174 215 5 0 0 0 - - -;
#X floatatom 184 233 5 0 0 0 - - -;
#X floatatom 194 251 5 0 0 0 - - -;
#X floatatom 204 269 5 0 0 0 - - -;
#X floatatom 214 287 5 0 0 0 - - -;
#X floatatom 224 305 5 0 0 0 - - -;
#X floatatom 234 324 5 0 0 0 - - -;
#X floatatom 244 343 5 0 0 0 - - -;
#X text -161 -292 only implemented for 8 recall but you can add other
easily. To create new pattern I suggest a .txt approach \, see the
example files in the folder. For each step copy each value printed
below on a different line. then save the txt in the same folder as
the patch and add a message "read mytxt.txt" and connect it to matrixread
message and to the bang object.;
#X floatatom 282 365 5 0 0 0 - - -;
#X floatatom 292 383 5 0 0 0 - - -;
#X floatatom 302 401 5 0 0 0 - - -;
#X floatatom 312 419 5 0 0 0 - - -;
#X floatatom 322 437 5 0 0 0 - - -;
#X floatatom 332 455 5 0 0 0 - - -;
#X floatatom 342 474 5 0 0 0 - - -;
#X floatatom 352 493 5 0 0 0 - - -;
#X floatatom 388 518 5 0 0 0 - - -;
#X floatatom 398 536 5 0 0 0 - - -;
#X floatatom 408 554 5 0 0 0 - - -;
#X floatatom 418 572 5 0 0 0 - - -;
#X floatatom 428 590 5 0 0 0 - - -;
#X floatatom 438 608 5 0 0 0 - - -;
#X floatatom 448 627 5 0 0 0 - - -;
#X floatatom 458 646 5 0 0 0 - - -;
#X obj 282 152 r note1_16;
#X obj 299 170 r note1_17;
#X obj 312 188 r note1_18;
#X obj 325 207 r note1_19;
#X obj 336 225 r note1_20;
#X obj 348 243 r note1_21;
#X obj 358 262 r note1_22;
#X obj 368 281 r note1_23;
#X obj 399 156 r note1_24;
#X obj 416 174 r note1_25;
#X obj 429 192 r note1_26;
#X obj 442 211 r note1_27;
#X obj 453 229 r note1_28;
#X obj 465 247 r note1_29;
#X obj 475 266 r note1_30;
#X obj 485 285 r note1_31;
#X msg -160 -173 read z32patern2.txt;
#X msg -160 -149 read z32patern3.txt;
#X msg -160 -124 read z32patern4.txt;
#X msg -160 -99 read z32patern5.txt;
#X msg -159 -75 read z32patern6.txt;
#X msg -160 -50 read z32patern7.txt;
#X msg -160 -27 read z32patern8.txt;
#X msg -160 -196 read z32patern1.txt;
#X connect 2 0 22 0;
#X connect 3 0 23 0;
#X connect 4 0 24 0;
#X connect 5 0 25 0;
#X connect 6 0 26 0;
#X connect 7 0 27 0;
#X connect 8 0 28 0;
#X connect 9 0 29 0;
#X connect 10 0 30 0;
#X connect 11 0 31 0;
#X connect 12 0 32 0;
#X connect 13 0 33 0;
#X connect 14 0 34 0;
#X connect 15 0 35 0;
#X connect 16 0 36 0;
#X connect 17 0 37 0;
#X connect 19 0 20 0;
#X connect 20 0 21 0;
#X connect 21 0 0 0;
#X connect 21 1 0 1;
#X connect 55 0 39 0;
#X connect 56 0 40 0;
#X connect 57 0 41 0;
#X connect 58 0 42 0;
#X connect 59 0 43 0;
#X connect 60 0 44 0;
#X connect 61 0 45 0;
#X connect 62 0 46 0;
#X connect 63 0 47 0;
#X connect 64 0 48 0;
#X connect 65 0 49 0;
#X connect 66 0 50 0;
#X connect 67 0 51 0;
#X connect 68 0 52 0;
#X connect 69 0 53 0;
#X connect 70 0 54 0;
#X connect 71 0 18 0;
#X connect 71 0 19 0;
#X connect 72 0 18 0;
#X connect 72 0 19 0;
#X connect 73 0 18 0;
#X connect 73 0 19 0;
#X connect 74 0 18 0;
#X connect 74 0 19 0;
#X connect 75 0 18 0;
#X connect 75 0 19 0;
#X connect 76 0 18 0;
#X connect 76 0 19 0;
#X connect 77 0 18 0;
#X connect 77 0 19 0;
#X connect 78 0 18 0;
#X connect 78 0 19 0;
#X restore -219 -1 pd Recall_note1;
#X msg -186 -180 32;
#X obj 349 -29 vradio 15 1 0 6 vel1_16 pvel1_16 empty 0 -8 0 10 -99865
-262144 -262144 0;
#X obj 370 -29 vradio 15 1 0 6 vel1_17 pvel1_17 empty 0 -8 0 10 -99865
-262144 -262144 0;
#X obj 390 -29 vradio 15 1 0 6 vel1_18 pvel1_18 empty 0 -8 0 10 -99865
-262144 -262144 0;
#X obj 410 -29 vradio 15 1 0 6 vel1_19 pvel1_19 empty 0 -8 0 10 -99865
-262144 -262144 0;
#X obj 429 -29 vradio 15 1 0 6 vel1_20 pvel1_20 empty 0 -8 0 10 -99865
-262144 -262144 0;
#X obj 450 -29 vradio 15 1 0 6 vel1_21 pvel1_21 empty 0 -8 0 10 -99865
-262144 -262144 0;
#X obj 470 -29 vradio 15 1 0 6 vel1_22 pvel1_22 empty 0 -8 0 10 -99865
-262144 -262144 0;
#X obj 490 -29 vradio 15 1 0 6 vel1_23 pvel1_23 empty 0 -8 0 10 -99865
-262144 -262144 0;
#X obj 510 -29 vradio 15 1 0 6 vel1_24 pvel1_24 empty 0 -8 0 10 -99865
-262144 -262144 0;
#X obj 530 -29 vradio 15 1 0 6 vel1_25 pvel1_25 empty 0 -8 0 10 -99865
-262144 -262144 0;
#X obj 550 -29 vradio 15 1 0 6 vel1_26 pvel1_26 empty 0 -8 0 10 -99865
-262144 -262144 0;
#X obj 570 -29 vradio 15 1 0 6 vel1_27 pvel1_27 empty 0 -8 0 10 -99865
-262144 -262144 0;
#X obj 590 -29 vradio 15 1 0 6 vel1_28 pvel1_28 empty 0 -8 0 10 -99865
-262144 -262144 0;
#X obj 610 -29 vradio 15 1 0 6 vel1_29 pvel1_29 empty 0 -8 0 10 -99865
-262144 -262144 0;
#X obj 630 -29 vradio 15 1 0 6 vel1_30 pvel1_30 empty 0 -8 0 10 -99865
-262144 -262144 0;
#X obj 650 -29 vradio 15 1 0 6 vel1_31 pvel1_31 empty 0 -8 0 10 -99865
-262144 -262144 0;
#X obj 346 -291 vradio 20 1 0 12 note1_16 pnote1_16 empty 0 -8 0 10
-191407 -1 -262144 0;
#X obj 366 -291 vradio 20 1 0 12 note1_17 note1_17 empty 0 -8 0 10
-191407 -1 -262144 0;
#X obj 386 -291 vradio 20 1 0 12 note1_18 pnote1_18 empty 0 -8 0 10
-191407 -1 -262144 0;
#X obj 406 -291 vradio 20 1 0 12 note1_19 pnote1_19 empty 0 -8 0 10
-191407 -1 -262144 0;
#X obj 426 -291 vradio 20 1 0 12 note1_20 pnote1_20 empty 0 -8 0 10
-191407 -1 -262144 0;
#X obj 446 -291 vradio 20 1 0 12 note1_21 pnote1_21 empty 0 -8 0 10
-191407 -1 -262144 0;
#X obj 466 -291 vradio 20 1 0 12 note1_22 pnote1_22 empty 0 -8 0 10
-191407 -1 -262144 0;
#X obj 486 -291 vradio 20 1 0 12 note1_23 pnote1_23 empty 0 -8 0 10
-191407 -1 -262144 0;
#X obj 506 -291 vradio 20 1 0 12 note1_24 pnote1_24 empty 0 -8 0 10
-191407 -1 -262144 0;
#X obj 526 -291 vradio 20 1 0 12 note1_25 pnote1_9 empty 0 -8 0 10
-191407 -1 -262144 0;
#X obj 546 -291 vradio 20 1 0 12 note1_26 pnote1_26 empty 0 -8 0 10
-191407 -1 -262144 0;
#X obj 566 -291 vradio 20 1 0 12 note1_27 pnote1_27 empty 0 -8 0 10
-191407 -1 -262144 0;
#X obj 586 -291 vradio 20 1 0 12 note1_28 pnote1_28 empty 0 -8 0 10
-191407 -1 -262144 0;
#X obj 606 -291 vradio 20 1 0 12 note1_29 pnote1_29 empty 0 -8 0 10
-191407 -1 -262144 0;
#X obj 626 -291 vradio 20 1 0 12 note1_30 pnote1_30 empty 0 -8 0 10
-191407 -1 -262144 0;
#X obj 646 -291 vradio 20 1 0 12 note1_31 pnote1_31 empty 0 -8 0 10
-191407 -1 -262144 0;
#X text 408 -307 20;
#X text 489 -307 24;
#X text 568 -307 28;
#X text 648 -306 32;
#X floatatom -155 -156 5 0 0 0 - - -;
#X obj -155 -136 s modulostart;
#X msg -157 -181 0;
#N canvas 0 22 519 438 metro2 0;
#X obj -55 241 i;
#X obj -24 242 + 1;
#X obj -55 151 tgl 15 0 empty empty on 0 -6 0 8 -262144 -1 -1 0 1;
#X obj -55 170 metro 100;
#X obj -3 153 nbx 5 14 -1e+37 1e+37 0 0 empty empty msec 0 -6 0 10
-262144 -1 -1 0 256;
#X obj -55 268 mod 16;
#X obj -3 115 r Mmetro;
#X obj -52 114 inlet;
#X obj -49 292 bang;
#X obj -13 293 outlet;
#X obj -40 323 s bang2;
#X obj 88 116 r modulo2;
#X obj 81 159 r modulostart2;
#X connect 0 0 5 0;
#X connect 1 0 0 1;
#X connect 2 0 3 0;
#X connect 3 0 0 0;
#X connect 4 0 3 1;
#X connect 5 0 1 0;
#X connect 5 0 8 0;
#X connect 5 0 9 0;
#X connect 6 0 4 0;
#X connect 7 0 2 0;
#X connect 8 0 10 0;
#X connect 11 0 5 1;
#X connect 12 0 0 1;
#X restore -93 298 pd metro2;
#X floatatom -224 278 5 0 0 0 - - -;
#X floatatom -155 277 5 0 0 0 - - -;
#X floatatom -162 209 5 0 0 0 - - -;
#X obj -162 228 s modulostart2;
#X obj -155 297 s modulo2;
#X obj -224 298 s note2_BF;
#N canvas 0 22 930 545 note1 0;
#X obj 365 321 f;
#X obj 327 321 f;
#X obj 285 321 f;
#X obj 247 321 f;
#X obj 205 321 f;
#X obj 167 321 f;
#X obj 125 321 f;
#X obj 87 321 f;
#X obj 264 37 i;
#X obj 293 37 + 1;
#X obj 264 67 % 16;
#X obj 911 485 outlet;
#X obj 333 50 r modulo;
#X obj 691 320 f;
#X obj 653 320 f;
#X obj 611 320 f;
#X obj 573 320 f;
#X obj 531 320 f;
#X obj 493 320 f;
#X obj 451 320 f;
#X obj 413 320 f;
#X obj 264 8 r bang1;
#X obj 1005 319 f;
#X obj 967 319 f;
#X obj 925 319 f;
#X obj 887 319 f;
#X obj 845 319 f;
#X obj 807 319 f;
#X obj 765 319 f;
#X obj 727 319 f;
#X obj 1331 318 f;
#X obj 1293 318 f;
#X obj 1251 318 f;
#X obj 1213 318 f;
#X obj 1171 318 f;
#X obj 1133 318 f;
#X obj 1091 318 f;
#X obj 1053 318 f;
#X obj 264 89 sel 0 1 2 3 4 5 6 7 8 9 10 11 12 13 14 15 16 17 18 19
20 21 22 23 24 25 26 27 28 29 30 31;
#X obj 79 266 + 60;
#X obj 125 267 + 60;
#X obj 165 268 + 60;
#X obj 207 266 + 60;
#X obj 245 265 + 60;
#X obj 285 263 + 60;
#X obj 317 262 + 60;
#X obj 355 265 + 60;
#X obj 405 265 + 60;
#X obj 451 266 + 60;
#X obj 491 267 + 60;
#X obj 533 265 + 60;
#X obj 571 264 + 60;
#X obj 611 262 + 60;
#X obj 643 261 + 60;
#X obj 681 264 + 60;
#X obj 719 264 + 60;
#X obj 765 265 + 60;
#X obj 805 266 + 60;
#X obj 847 264 + 60;
#X obj 885 263 + 60;
#X obj 925 261 + 60;
#X obj 957 260 + 60;
#X obj 995 263 + 60;
#X obj 1045 263 + 60;
#X obj 1091 264 + 60;
#X obj 1131 265 + 60;
#X obj 1173 263 + 60;
#X obj 1211 262 + 60;
#X obj 1251 260 + 60;
#X obj 1283 259 + 60;
#X obj 1321 262 + 60;
#X obj -14 201 r note1_0;
#X obj 46 202 r note1_1;
#X obj 105 203 r note1_2;
#X obj 165 204 r note1_3;
#X obj 226 204 r note1_4;
#X obj 291 205 r note1_5;
#X obj 351 205 r note1_6;
#X obj 411 203 r note1_7;
#X obj 372 167 r note1_8;
#X obj 432 168 r note1_9;
#X obj 492 168 r note1_10;
#X obj 558 165 r note1_11;
#X obj 625 165 r note1_12;
#X obj 690 166 r note1_13;
#X obj 762 166 r note1_14;
#X obj 829 168 r note1_15;
#X obj 639 200 r note1_16;
#X obj 707 201 r note1_17;
#X obj 773 201 r note1_18;
#X obj 841 200 r note1_19;
#X obj 906 201 r note1_20;
#X obj 973 201 r note1_21;
#X obj 1042 200 r note1_22;
#X obj 1114 198 r note1_23;
#X obj 984 166 r note1_24;
#X obj 1051 167 r note1_25;
#X obj 1117 167 r note1_26;
#X obj 1184 167 r note1_27;
#X obj 1250 165 r note1_28;
#X obj 1316 166 r note1_29;
#X obj 1385 165 r note1_30;
#X obj 1398 195 r note1_31;
#X msg 333 20 0;
#X connect 0 0 11 0;
#X connect 1 0 11 0;
#X connect 2 0 11 0;
#X connect 3 0 11 0;
#X connect 4 0 11 0;
#X connect 5 0 11 0;
#X connect 6 0 11 0;
#X connect 7 0 11 0;
#X connect 8 0 9 0;
#X connect 8 0 10 0;
#X connect 9 0 8 1;
#X connect 10 0 38 0;
#X connect 12 0 10 1;
#X connect 13 0 11 0;
#X connect 14 0 11 0;
#X connect 15 0 11 0;
#X connect 16 0 11 0;
#X connect 17 0 11 0;
#X connect 18 0 11 0;
#X connect 19 0 11 0;
#X connect 20 0 11 0;
#X connect 21 0 8 0;
#X connect 22 0 11 0;
#X connect 23 0 11 0;
#X connect 24 0 11 0;
#X connect 25 0 11 0;
#X connect 26 0 11 0;
#X connect 27 0 11 0;
#X connect 28 0 11 0;
#X connect 29 0 11 0;
#X connect 30 0 11 0;
#X connect 31 0 11 0;
#X connect 32 0 11 0;
#X connect 33 0 11 0;
#X connect 34 0 11 0;
#X connect 35 0 11 0;
#X connect 36 0 11 0;
#X connect 37 0 11 0;
#X connect 38 0 7 0;
#X connect 38 1 6 0;
#X connect 38 2 5 0;
#X connect 38 3 4 0;
#X connect 38 4 3 0;
#X connect 38 5 2 0;
#X connect 38 6 1 0;
#X connect 38 7 0 0;
#X connect 38 8 20 0;
#X connect 38 9 19 0;
#X connect 38 10 18 0;
#X connect 38 11 17 0;
#X connect 38 12 16 0;
#X connect 38 13 15 0;
#X connect 38 14 14 0;
#X connect 38 15 13 0;
#X connect 38 16 29 0;
#X connect 38 17 28 0;
#X connect 38 18 27 0;
#X connect 38 19 26 0;
#X connect 38 20 25 0;
#X connect 38 21 24 0;
#X connect 38 22 23 0;
#X connect 38 23 22 0;
#X connect 38 24 37 0;
#X connect 38 25 36 0;
#X connect 38 26 35 0;
#X connect 38 27 34 0;
#X connect 38 28 33 0;
#X connect 38 29 32 0;
#X connect 38 30 31 0;
#X connect 38 31 30 0;
#X connect 39 0 7 1;
#X connect 40 0 6 1;
#X connect 41 0 5 1;
#X connect 42 0 4 1;
#X connect 43 0 3 1;
#X connect 44 0 2 1;
#X connect 45 0 1 1;
#X connect 46 0 0 1;
#X connect 47 0 20 1;
#X connect 48 0 19 1;
#X connect 49 0 18 1;
#X connect 50 0 17 1;
#X connect 51 0 16 1;
#X connect 52 0 15 1;
#X connect 53 0 14 1;
#X connect 54 0 13 1;
#X connect 55 0 29 1;
#X connect 56 0 28 1;
#X connect 57 0 27 1;
#X connect 58 0 26 1;
#X connect 59 0 25 1;
#X connect 60 0 24 1;
#X connect 61 0 23 1;
#X connect 62 0 22 1;
#X connect 63 0 37 1;
#X connect 64 0 36 1;
#X connect 65 0 35 1;
#X connect 66 0 34 1;
#X connect 67 0 33 1;
#X connect 68 0 32 1;
#X connect 69 0 31 1;
#X connect 70 0 30 1;
#X connect 71 0 39 0;
#X connect 72 0 40 0;
#X connect 73 0 41 0;
#X connect 74 0 42 0;
#X connect 75 0 43 0;
#X connect 76 0 44 0;
#X connect 77 0 45 0;
#X connect 78 0 46 0;
#X connect 79 0 47 0;
#X connect 80 0 48 0;
#X connect 81 0 49 0;
#X connect 82 0 50 0;
#X connect 83 0 51 0;
#X connect 84 0 52 0;
#X connect 85 0 53 0;
#X connect 86 0 54 0;
#X connect 87 0 55 0;
#X connect 88 0 56 0;
#X connect 89 0 57 0;
#X connect 90 0 58 0;
#X connect 91 0 59 0;
#X connect 92 0 60 0;
#X connect 93 0 61 0;
#X connect 94 0 62 0;
#X connect 95 0 63 0;
#X connect 96 0 64 0;
#X connect 97 0 65 0;
#X connect 98 0 66 0;
#X connect 99 0 67 0;
#X connect 100 0 68 0;
#X connect 101 0 69 0;
#X connect 102 0 70 0;
#X connect 103 0 8 1;
#X restore -145 -43 pd note1;
#N canvas 0 22 524 718 Recall_vel1 0;
#N canvas 0 22 1024 705 ouch 0;
#X obj 179 -109 until;
#X obj 179 -78 f;
#X obj 212 -78 + 1;
#X obj 179 -138 t f b;
#X msg 179 -160 16;
#X obj 549 153 f;
#X obj 524 153 f;
#X obj 499 153 f;
#X obj 474 153 f;
#X obj 449 153 f;
#X obj 424 153 f;
#X obj 399 153 f;
#X obj 374 153 f;
#X obj 347 153 f;
#X obj 322 153 f;
#X obj 297 153 f;
#X obj 272 153 f;
#X obj 247 153 f;
#X obj 222 153 f;
#X obj 197 153 f;
#X obj 172 153 f;
#X obj 179 -190 inlet;
#X obj 218 -190 inlet;
#X msg 218 -110 0;
#X obj 576 -46 tabread matrixnote1;
#X obj 973 95 f;
#X obj 948 102 f;
#X obj 919 105 f;
#X obj 885 109 f;
#X obj 860 109 f;
#X obj 835 109 f;
#X obj 811 110 f;
#X obj 785 109 f;
#X obj 758 109 f;
#X obj 733 109 f;
#X obj 708 109 f;
#X obj 683 109 f;
#X obj 658 109 f;
#X obj 633 109 f;
#X obj 608 109 f;
#X obj 583 109 f;
#X obj 181 -40 sel 0 1 2 3 4 5 6 7 8 9 10 11 12 13 14 15 16 17 18 19
20 21 22 23 24 25 26 27 28 29 30 31;
#X obj 134 283 s pvel1_0;
#X obj 162 264 s pvel1_1;
#X obj 197 242 s pvel1_2;
#X obj 241 223 s pvel1_3;
#X obj 276 242 s pvel1_4;
#X obj 325 263 s pvel1_5;
#X obj 369 281 s pvel1_6;
#X obj 404 262 s pvel1_7;
#X obj 454 284 s pvel1_8;
#X obj 485 265 s pvel1_9;
#X obj 510 246 s pvel1_10;
#X obj 636 284 s pvel1_12;
#X obj 571 265 s pvel1_11;
#X obj 696 303 s pvel1_13;
#X obj 729 285 s pvel1_14;
#X obj 753 265 s pvel1_15;
#X obj 583 210 s pvel1_16;
#X obj 611 191 s pvel1_17;
#X obj 646 169 s pvel1_18;
#X obj 690 150 s pvel1_19;
#X obj 725 169 s pvel1_20;
#X obj 774 190 s pvel1_21;
#X obj 818 208 s pvel1_22;
#X obj 853 189 s pvel1_23;
#X obj 903 211 s pvel1_24;
#X obj 934 192 s pvel1_25;
#X obj 959 173 s pvel1_26;
#X obj 1178 212 s pvel1_30;
#X obj 1145 230 s pvel1_29;
#X obj 1085 211 s pvel1_28;
#X obj 1020 191 s pvel1_27;
#X obj 1202 192 s pvel1_31;
#X connect 0 0 1 0;
#X connect 1 0 2 0;
#X connect 1 0 24 0;
#X connect 1 0 41 0;
#X connect 2 0 1 1;
#X connect 3 0 0 0;
#X connect 3 1 23 0;
#X connect 4 0 3 0;
#X connect 5 0 57 0;
#X connect 6 0 56 0;
#X connect 7 0 55 0;
#X connect 8 0 53 0;
#X connect 9 0 54 0;
#X connect 10 0 52 0;
#X connect 11 0 51 0;
#X connect 12 0 50 0;
#X connect 13 0 49 0;
#X connect 14 0 48 0;
#X connect 15 0 47 0;
#X connect 16 0 46 0;
#X connect 17 0 45 0;
#X connect 18 0 44 0;
#X connect 19 0 43 0;
#X connect 20 0 42 0;
#X connect 21 0 4 0;
#X connect 22 0 4 0;
#X connect 23 0 1 1;
#X connect 24 0 20 1;
#X connect 24 0 19 1;
#X connect 24 0 18 1;
#X connect 24 0 17 1;
#X connect 24 0 16 1;
#X connect 24 0 15 1;
#X connect 24 0 14 1;
#X connect 24 0 13 1;
#X connect 24 0 12 1;
#X connect 24 0 11 1;
#X connect 24 0 10 1;
#X connect 24 0 9 1;
#X connect 24 0 8 1;
#X connect 24 0 7 1;
#X connect 24 0 6 1;
#X connect 24 0 5 1;
#X connect 24 0 40 1;
#X connect 24 0 39 1;
#X connect 24 0 38 1;
#X connect 24 0 37 1;
#X connect 24 0 36 1;
#X connect 24 0 35 1;
#X connect 24 0 34 1;
#X connect 24 0 33 1;
#X connect 24 0 32 1;
#X connect 24 0 31 1;
#X connect 24 0 30 1;
#X connect 24 0 29 1;
#X connect 24 0 28 1;
#X connect 24 0 27 1;
#X connect 24 0 26 1;
#X connect 24 0 25 1;
#X connect 25 0 73 0;
#X connect 26 0 69 0;
#X connect 27 0 70 0;
#X connect 28 0 71 0;
#X connect 29 0 72 0;
#X connect 30 0 68 0;
#X connect 31 0 67 0;
#X connect 32 0 66 0;
#X connect 33 0 65 0;
#X connect 34 0 64 0;
#X connect 35 0 63 0;
#X connect 36 0 62 0;
#X connect 37 0 61 0;
#X connect 38 0 60 0;
#X connect 39 0 59 0;
#X connect 40 0 58 0;
#X connect 41 0 20 0;
#X connect 41 1 19 0;
#X connect 41 2 18 0;
#X connect 41 3 17 0;
#X connect 41 4 16 0;
#X connect 41 5 15 0;
#X connect 41 6 14 0;
#X connect 41 7 13 0;
#X connect 41 8 12 0;
#X connect 41 9 11 0;
#X connect 41 10 10 0;
#X connect 41 11 9 0;
#X connect 41 12 8 0;
#X connect 41 13 7 0;
#X connect 41 14 6 0;
#X connect 41 15 5 0;
#X connect 41 16 40 0;
#X connect 41 17 39 0;
#X connect 41 18 38 0;
#X connect 41 19 37 0;
#X connect 41 20 36 0;
#X connect 41 21 35 0;
#X connect 41 22 34 0;
#X connect 41 23 33 0;
#X connect 41 24 32 0;
#X connect 41 25 31 0;
#X connect 41 26 30 0;
#X connect 41 27 29 0;
#X connect 41 28 28 0;
#X connect 41 29 27 0;
#X connect 41 30 26 0;
#X connect 41 31 25 0;
#X restore -11 22 pd ouch;
#N canvas 0 22 450 300 (subpatch) 0;
#X array matrixvel1 16 float 2;
#X coords 0 11 32 0 200 140 1;
#X restore -161 84 graph;
#X obj -9 -43 bng 15 250 50 0 empty empty empty 17 7 0 10 -262144 -1
-1;
#X obj -11 -22 del 50;
#X obj -11 -1 t b b;
#X floatatom 68 62 5 0 0 0 - - -;
#X floatatom 78 80 5 0 0 0 - - -;
#X floatatom 88 98 5 0 0 0 - - -;
#X floatatom 98 116 5 0 0 0 - - -;
#X floatatom 108 134 5 0 0 0 - - -;
#X floatatom 118 152 5 0 0 0 - - -;
#X floatatom 128 171 5 0 0 0 - - -;
#X floatatom 138 190 5 0 0 0 - - -;
#X floatatom 174 215 5 0 0 0 - - -;
#X floatatom 184 233 5 0 0 0 - - -;
#X floatatom 194 251 5 0 0 0 - - -;
#X floatatom 204 269 5 0 0 0 - - -;
#X floatatom 214 287 5 0 0 0 - - -;
#X floatatom 224 305 5 0 0 0 - - -;
#X floatatom 234 324 5 0 0 0 - - -;
#X floatatom 244 343 5 0 0 0 - - -;
#X text -161 -292 only implemented for 8 recall but you can add other
easily. To create new pattern I suggest a .txt approach \, see the
example files in the folder. For each step copy each value printed
below on a different line. then save the txt in the same folder as
the patch and add a message "read mytxt.txt" and connect it to matrixread
message and to the bang object.;
#X floatatom 282 365 5 0 0 0 - - -;
#X floatatom 292 383 5 0 0 0 - - -;
#X floatatom 302 401 5 0 0 0 - - -;
#X floatatom 312 419 5 0 0 0 - - -;
#X floatatom 322 437 5 0 0 0 - - -;
#X floatatom 332 455 5 0 0 0 - - -;
#X floatatom 342 474 5 0 0 0 - - -;
#X floatatom 352 493 5 0 0 0 - - -;
#X floatatom 388 518 5 0 0 0 - - -;
#X floatatom 398 536 5 0 0 0 - - -;
#X floatatom 408 554 5 0 0 0 - - -;
#X floatatom 418 572 5 0 0 0 - - -;
#X floatatom 428 590 5 0 0 0 - - -;
#X floatatom 438 608 5 0 0 0 - - -;
#X floatatom 448 627 5 0 0 0 - - -;
#X floatatom 458 646 5 0 0 0 - - -;
#X msg -160 -173 read z32patern2.txt;
#X msg -160 -149 read z32patern3.txt;
#X msg -160 -124 read z32patern4.txt;
#X msg -160 -99 read z32patern5.txt;
#X msg -159 -75 read z32patern6.txt;
#X msg -160 -50 read z32patern7.txt;
#X msg -160 -27 read z32patern8.txt;
#X obj 68 -151 r vel1_0;
#X obj 85 -133 r vel1_1;
#X obj 98 -115 r vel1_2;
#X obj 111 -96 r vel1_3;
#X obj 122 -78 r vel1_4;
#X obj 134 -60 r vel1_5;
#X obj 144 -41 r vel1_6;
#X obj 154 -22 r vel1_7;
#X obj 185 -147 r vel1_8;
#X obj 202 -129 r vel1_9;
#X obj 215 -111 r vel1_10;
#X obj 228 -92 r vel1_11;
#X obj 239 -74 r vel1_12;
#X obj 251 -56 r vel1_13;
#X obj 261 -37 r vel1_14;
#X obj 271 -18 r vel1_15;
#X obj 282 152 r vel1_16;
#X obj 299 170 r vel1_17;
#X obj 312 188 r vel1_18;
#X obj 325 207 r vel1_19;
#X obj 336 225 r vel1_20;
#X obj 348 243 r vel1_21;
#X obj 358 262 r vel1_22;
#X obj 368 281 r vel1_23;
#X obj 399 156 r vel1_24;
#X obj 416 174 r vel1_25;
#X obj 429 192 r vel1_26;
#X obj 465 247 r vel1_29;
#X obj 475 266 r vel1_30;
#X obj 485 285 r vel1_31;
#X msg -160 8 \; matrixvel1 read \$1;
#X obj 442 211 r vel1_27;
#X obj 453 229 r vel1_28;
#X msg -160 -196 read zpatern1.txt;
#X connect 2 0 3 0;
#X connect 3 0 4 0;
#X connect 4 0 0 0;
#X connect 4 1 0 1;
#X connect 38 0 75 0;
#X connect 38 0 2 0;
#X connect 39 0 75 0;
#X connect 39 0 2 0;
#X connect 40 0 75 0;
#X connect 40 0 2 0;
#X connect 41 0 75 0;
#X connect 41 0 2 0;
#X connect 42 0 75 0;
#X connect 42 0 2 0;
#X connect 43 0 75 0;
#X connect 43 0 2 0;
#X connect 44 0 75 0;
#X connect 44 0 2 0;
#X connect 45 0 5 0;
#X connect 46 0 6 0;
#X connect 47 0 7 0;
#X connect 48 0 8 0;
#X connect 49 0 9 0;
#X connect 50 0 10 0;
#X connect 51 0 11 0;
#X connect 52 0 12 0;
#X connect 53 0 13 0;
#X connect 54 0 14 0;
#X connect 55 0 15 0;
#X connect 56 0 16 0;
#X connect 57 0 17 0;
#X connect 58 0 18 0;
#X connect 59 0 19 0;
#X connect 60 0 20 0;
#X connect 61 0 22 0;
#X connect 62 0 23 0;
#X connect 63 0 24 0;
#X connect 64 0 25 0;
#X connect 65 0 26 0;
#X connect 66 0 27 0;
#X connect 67 0 28 0;
#X connect 68 0 29 0;
#X connect 69 0 30 0;
#X connect 70 0 31 0;
#X connect 71 0 32 0;
#X connect 72 0 35 0;
#X connect 73 0 36 0;
#X connect 74 0 37 0;
#X connect 76 0 33 0;
#X connect 77 0 34 0;
#X connect 78 0 75 0;
#X connect 78 0 2 0;
#X restore -219 18 pd Recall_vel1;
#X obj 29 336 vradio 15 1 0 6 vel2_0 pvel2_0 empty 0 -8 0 10 -99865
-262144 -262144 0;
#X obj 27 74 vradio 20 1 0 12 note2_0 pnote2_0 empty 0 -8 0 10 -191407
-1 -262144 0;
#X obj 27 315 hradio 20 1 0 32 empty empty empty 0 -6 0 8 -33289 -258113
-1 0;
#X obj 47 74 vradio 20 1 0 12 note2_1 note2_1 empty 0 -8 0 10 -191407
-1 -262144 0;
#X obj 67 74 vradio 20 1 0 12 note2_2 pnote2_2 empty 0 -8 0 10 -191407
-1 -262144 0;
#X obj 87 74 vradio 20 1 0 12 note2_3 pnote2_3 empty 0 -8 0 10 -191407
-1 -262144 0;
#X obj 107 74 vradio 20 1 0 12 note2_4 pnote2_4 empty 0 -8 0 10 -191407
-1 -262144 0;
#X obj 127 74 vradio 20 1 0 12 note2_5 pnote2_5 empty 0 -8 0 10 -191407
-1 -262144 0;
#X obj 147 74 vradio 20 1 0 12 note2_6 pnote2_6 empty 0 -8 0 10 -191407
-1 -262144 0;
#X obj 167 74 vradio 20 1 0 12 note2_7 pnote2_7 empty 0 -8 0 10 -191407
-1 -262144 0;
#X obj 187 74 vradio 20 1 0 12 note2_8 pnote2_8 empty 0 -8 0 10 -191407
-1 -262144 0;
#X obj 207 74 vradio 20 1 0 12 note2_9 pnote2_9 empty 0 -8 0 10 -191407
-1 -262144 0;
#X obj 227 74 vradio 20 1 0 12 note2_10 pnote2_10 empty 0 -8 0 10 -191407
-1 -262144 0;
#X obj 247 74 vradio 20 1 0 12 note2_11 pnote2_11 empty 0 -8 0 10 -191407
-1 -262144 0;
#X obj 267 74 vradio 20 1 0 12 note2_12 pnote2_12 empty 0 -8 0 10 -191407
-1 -262144 0;
#X obj 287 74 vradio 20 1 0 12 note2_13 pnote2_13 empty 0 -8 0 10 -191407
-1 -262144 0;
#X obj 307 74 vradio 20 1 0 12 note2_14 pnote2_14 empty 0 -8 0 10 -191407
-1 -262144 0;
#X obj 327 74 vradio 20 1 0 12 note2_15 pnote2_15 empty 0 -8 0 10 -191407
-1 -262144 0;
#X obj 50 336 vradio 15 1 0 6 vel2_1 pvel2_1 empty 0 -8 0 10 -99865
-262144 -262144 0;
#X obj 70 336 vradio 15 1 0 6 vel2_2 pvel2_2 empty 0 -8 0 10 -99865
-262144 -262144 0;
#X obj 90 336 vradio 15 1 0 6 vel2_3 pvel2_3 empty 0 -8 0 10 -99865
-262144 -262144 0;
#X obj 109 336 vradio 15 1 0 6 vel2_4 pvel2_4 empty 0 -8 0 10 -99865
-262144 -262144 0;
#X obj 130 336 vradio 15 1 0 6 vel2_5 pvel2_5 empty 0 -8 0 10 -99865
-262144 -262144 0;
#X obj 150 336 vradio 15 1 0 6 vel2_6 pvel2_6 empty 0 -8 0 10 -99865
-262144 -262144 0;
#X obj 170 336 vradio 15 1 0 6 vel2_7 pvel2_7 empty 0 -8 0 10 -99865
-262144 -262144 0;
#X obj 190 336 vradio 15 1 0 6 vel2_8 pvel2_8 empty 0 -8 0 10 -99865
-262144 -262144 0;
#X obj 210 336 vradio 15 1 0 6 vel2_9 pvel2_9 empty 0 -8 0 10 -99865
-262144 -262144 0;
#X obj 230 336 vradio 15 1 0 6 vel2_10 pvel2_10 empty 0 -8 0 10 -99865
-262144 -262144 0;
#X obj 250 336 vradio 15 1 0 6 vel2_11 pvel2_11 empty 0 -8 0 10 -99865
-262144 -262144 0;
#X obj 270 336 vradio 15 1 0 6 vel2_12 pvel2_12 empty 0 -8 0 10 -99865
-262144 -262144 0;
#X obj 290 336 vradio 15 1 0 6 vel2_13 pvel2_13 empty 0 -8 0 10 -99865
-262144 -262144 0;
#X obj 310 336 vradio 15 1 0 6 vel2_14 pvel2_14 empty 0 -8 0 10 -99865
-262144 -262144 0;
#X obj 330 336 vradio 15 1 0 6 vel2_15 pvel2_15 empty 0 -8 0 10 -99865
-262144 -262144 0;
#X text 92 60 4;
#X text 170 60 8;
#X text 249 58 12;
#X text 329 58 16;
#X text -7 176 +6 ->;
#X text -14 295 +11 ->;
#X text -55 76 Base Pitch ->;
#X text -24 335 Vel 0 ->;
#X text -35 411 Vel 100 ->;
#X obj 350 336 vradio 15 1 0 6 vel2_16 pvel2_16 empty 0 -8 0 10 -99865
-262144 -262144 0;
#X obj 371 336 vradio 15 1 0 6 vel2_17 pvel2_17 empty 0 -8 0 10 -99865
-262144 -262144 0;
#X obj 391 336 vradio 15 1 0 6 vel2_18 pvel2_18 empty 0 -8 0 10 -99865
-262144 -262144 0;
#X obj 411 336 vradio 15 1 0 6 vel2_19 pvel2_19 empty 0 -8 0 10 -99865
-262144 -262144 0;
#X obj 430 336 vradio 15 1 0 6 vel2_20 pvel2_20 empty 0 -8 0 10 -99865
-262144 -262144 0;
#X obj 449 336 vradio 15 1 0 6 vel2_21 pvel2_21 empty 0 -8 0 10 -99865
-262144 -262144 0;
#X obj 471 336 vradio 15 1 0 6 vel2_22 pvel2_22 empty 0 -8 0 10 -99865
-262144 -262144 0;
#X obj 491 336 vradio 15 1 0 6 vel2_23 pvel2_23 empty 0 -8 0 10 -99865
-262144 -262144 0;
#X obj 511 336 vradio 15 1 0 6 vel2_24 pvel2_24 empty 0 -8 0 10 -99865
-262144 -262144 0;
#X obj 531 336 vradio 15 1 0 6 vel2_25 pvel2_25 empty 0 -8 0 10 -99865
-262144 -262144 0;
#X obj 551 336 vradio 15 1 0 6 vel2_26 pvel2_26 empty 0 -8 0 10 -99865
-262144 -262144 0;
#X obj 571 336 vradio 15 1 0 6 vel2_27 pvel2_27 empty 0 -8 0 10 -99865
-262144 -262144 0;
#X obj 591 336 vradio 15 1 0 6 vel2_28 pvel2_28 empty 0 -8 0 10 -99865
-262144 -262144 0;
#X obj 611 336 vradio 15 1 0 6 vel2_29 pvel2_29 empty 0 -8 0 10 -99865
-262144 -262144 0;
#X obj 631 336 vradio 15 1 0 6 vel2_30 pvel2_30 empty 0 -8 0 10 -99865
-262144 -262144 0;
#X obj 651 336 vradio 15 1 0 6 vel2_31 pvel2_31 empty 0 -8 0 10 -99865
-262144 -262144 0;
#X obj 347 74 vradio 20 1 0 12 note2_16 pnote2_16 empty 0 -8 0 10 -191407
-1 -262144 0;
#X obj 367 74 vradio 20 1 0 12 note2_17 note2_17 empty 0 -8 0 10 -191407
-1 -262144 0;
#X obj 387 74 vradio 20 1 0 12 note2_18 pnote2_18 empty 0 -8 0 10 -191407
-1 -262144 0;
#X obj 407 74 vradio 20 1 0 12 note2_19 pnote2_19 empty 0 -8 0 10 -191407
-1 -262144 0;
#X obj 427 74 vradio 20 1 0 12 note2_20 pnote2_20 empty 0 -8 0 10 -191407
-1 -262144 0;
#X obj 447 74 vradio 20 1 0 12 note2_21 pnote2_21 empty 0 -8 0 10 -191407
-1 -262144 0;
#X obj 467 74 vradio 20 1 0 12 note2_22 pnote2_22 empty 0 -8 0 10 -191407
-1 -262144 0;
#X obj 487 74 vradio 20 1 0 12 note2_23 pnote2_23 empty 0 -8 0 10 -191407
-1 -262144 0;
#X obj 507 74 vradio 20 1 0 12 note2_24 pnote2_24 empty 0 -8 0 10 -191407
-1 -262144 0;
#X obj 527 74 vradio 20 1 0 12 note2_25 pnote2_9 empty 0 -8 0 10 -191407
-1 -262144 0;
#X obj 547 74 vradio 20 1 0 12 note2_26 pnote2_26 empty 0 -8 0 10 -191407
-1 -262144 0;
#X obj 567 74 vradio 20 1 0 12 note2_27 pnote2_27 empty 0 -8 0 10 -191407
-1 -262144 0;
#X obj 587 74 vradio 20 1 0 12 note2_28 pnote2_28 empty 0 -8 0 10 -191407
-1 -262144 0;
#X obj 607 74 vradio 20 1 0 12 note2_29 pnote2_29 empty 0 -8 0 10 -191407
-1 -262144 0;
#X obj 627 74 vradio 20 1 0 12 note2_30 pnote2_30 empty 0 -8 0 10 -191407
-1 -262144 0;
#X obj 647 74 vradio 20 1 0 12 note2_31 pnote2_31 empty 0 -8 0 10 -191407
-1 -262144 0;
#X text 409 58 20;
#X text 490 58 24;
#X text 569 58 28;
#X text 649 59 32;
#N canvas 0 22 930 545 vel2 0;
#X obj 365 321 f;
#X obj 327 321 f;
#X obj 285 321 f;
#X obj 247 321 f;
#X obj 205 321 f;
#X obj 167 321 f;
#X obj 125 321 f;
#X obj 87 321 f;
#X obj 264 37 i;
#X obj 293 37 + 1;
#X obj 264 67 % 16;
#X obj 911 485 outlet;
#X floatatom 380 29 5 0 0 0 - - -;
#X obj 333 50 r modulo;
#X obj 79 266 * 20;
#X obj 125 267 * 20;
#X obj 165 268 * 20;
#X obj 207 266 * 20;
#X obj 245 265 * 20;
#X obj 285 263 * 20;
#X obj 317 262 * 20;
#X obj 355 265 * 20;
#X obj 691 320 f;
#X obj 653 320 f;
#X obj 611 320 f;
#X obj 573 320 f;
#X obj 531 320 f;
#X obj 493 320 f;
#X obj 451 320 f;
#X obj 413 320 f;
#X obj 405 265 * 20;
#X obj 451 266 * 20;
#X obj 491 267 * 20;
#X obj 533 265 * 20;
#X obj 571 264 * 20;
#X obj 611 262 * 20;
#X obj 643 261 * 20;
#X obj 681 264 * 20;
#X obj 1005 319 f;
#X obj 967 319 f;
#X obj 925 319 f;
#X obj 887 319 f;
#X obj 845 319 f;
#X obj 807 319 f;
#X obj 765 319 f;
#X obj 727 319 f;
#X obj 719 264 * 20;
#X obj 765 265 * 20;
#X obj 805 266 * 20;
#X obj 847 264 * 20;
#X obj 885 263 * 20;
#X obj 925 261 * 20;
#X obj 957 260 * 20;
#X obj 995 263 * 20;
#X obj 1331 318 f;
#X obj 1293 318 f;
#X obj 1251 318 f;
#X obj 1213 318 f;
#X obj 1171 318 f;
#X obj 1133 318 f;
#X obj 1091 318 f;
#X obj 1053 318 f;
#X obj 1045 263 * 20;
#X obj 1091 264 * 20;
#X obj 1131 265 * 20;
#X obj 1173 263 * 20;
#X obj 1211 262 * 20;
#X obj 1251 260 * 20;
#X obj 1283 259 * 20;
#X obj 1321 262 * 20;
#X obj 264 89 sel 0 1 2 3 4 5 6 7 8 9 10 11 12 13 14 15 16 17 18 19
20 21 22 23 24 25 26 27 28 29 30 31;
#X obj 264 8 r bang2;
#X obj 17 200 r vel2_0;
#X obj 71 200 r vel2_1;
#X obj 125 200 r vel2_2;
#X obj 180 201 r vel2_3;
#X obj 233 202 r vel2_4;
#X obj 287 203 r vel2_5;
#X obj 342 203 r vel2_6;
#X obj 396 203 r vel2_7;
#X obj 385 166 r vel2_8;
#X obj 439 166 r vel2_9;
#X obj 497 165 r vel2_10;
#X obj 558 165 r vel2_11;
#X obj 619 166 r vel2_12;
#X obj 681 166 r vel2_13;
#X obj 748 167 r vel2_14;
#X obj 811 165 r vel2_15;
#X obj 657 198 r vel2_16;
#X obj 719 198 r vel2_17;
#X obj 781 196 r vel2_18;
#X obj 843 197 r vel2_19;
#X obj 906 195 r vel2_20;
#X obj 969 195 r vel2_21;
#X obj 1031 195 r vel2_22;
#X obj 1010 164 r vel2_24;
#X obj 1070 165 r vel2_25;
#X obj 1092 196 r vel2_23;
#X obj 1130 165 r vel2_26;
#X obj 1190 165 r vel2_27;
#X obj 1250 165 r vel2_28;
#X obj 1311 165 r vel2_29;
#X obj 1371 167 r vel2_30;
#X obj 1398 195 r vel2_31;
#X connect 0 0 11 0;
#X connect 1 0 11 0;
#X connect 2 0 11 0;
#X connect 3 0 11 0;
#X connect 4 0 11 0;
#X connect 5 0 11 0;
#X connect 6 0 11 0;
#X connect 7 0 11 0;
#X connect 8 0 9 0;
#X connect 8 0 10 0;
#X connect 9 0 8 1;
#X connect 10 0 70 0;
#X connect 13 0 10 1;
#X connect 14 0 7 1;
#X connect 15 0 6 1;
#X connect 16 0 5 1;
#X connect 17 0 4 1;
#X connect 18 0 3 1;
#X connect 19 0 2 1;
#X connect 20 0 1 1;
#X connect 21 0 0 1;
#X connect 22 0 11 0;
#X connect 23 0 11 0;
#X connect 24 0 11 0;
#X connect 25 0 11 0;
#X connect 26 0 11 0;
#X connect 27 0 11 0;
#X connect 28 0 11 0;
#X connect 29 0 11 0;
#X connect 30 0 29 1;
#X connect 31 0 28 1;
#X connect 32 0 27 1;
#X connect 33 0 26 1;
#X connect 34 0 25 1;
#X connect 35 0 24 1;
#X connect 36 0 23 1;
#X connect 37 0 22 1;
#X connect 38 0 11 0;
#X connect 39 0 11 0;
#X connect 40 0 11 0;
#X connect 41 0 11 0;
#X connect 42 0 11 0;
#X connect 43 0 11 0;
#X connect 44 0 11 0;
#X connect 45 0 11 0;
#X connect 46 0 45 1;
#X connect 47 0 44 1;
#X connect 48 0 43 1;
#X connect 49 0 42 1;
#X connect 50 0 41 1;
#X connect 51 0 40 1;
#X connect 52 0 39 1;
#X connect 53 0 38 1;
#X connect 54 0 11 0;
#X connect 55 0 11 0;
#X connect 56 0 11 0;
#X connect 57 0 11 0;
#X connect 58 0 11 0;
#X connect 59 0 11 0;
#X connect 60 0 11 0;
#X connect 61 0 11 0;
#X connect 62 0 61 1;
#X connect 63 0 60 1;
#X connect 64 0 59 1;
#X connect 65 0 58 1;
#X connect 66 0 57 1;
#X connect 67 0 56 1;
#X connect 68 0 55 1;
#X connect 69 0 54 1;
#X connect 70 0 7 0;
#X connect 70 1 6 0;
#X connect 70 2 5 0;
#X connect 70 3 4 0;
#X connect 70 4 3 0;
#X connect 70 5 2 0;
#X connect 70 6 1 0;
#X connect 70 7 0 0;
#X connect 70 8 29 0;
#X connect 70 9 28 0;
#X connect 70 10 27 0;
#X connect 70 11 26 0;
#X connect 70 12 25 0;
#X connect 70 13 24 0;
#X connect 70 14 23 0;
#X connect 70 15 22 0;
#X connect 70 16 45 0;
#X connect 70 17 44 0;
#X connect 70 18 43 0;
#X connect 70 19 42 0;
#X connect 70 20 41 0;
#X connect 70 21 40 0;
#X connect 70 22 39 0;
#X connect 70 23 38 0;
#X connect 70 24 61 0;
#X connect 70 25 60 0;
#X connect 70 26 59 0;
#X connect 70 27 58 0;
#X connect 70 28 57 0;
#X connect 70 29 56 0;
#X connect 70 30 55 0;
#X connect 70 31 54 0;
#X connect 71 0 12 0;
#X connect 71 0 8 0;
#X connect 72 0 14 0;
#X connect 73 0 15 0;
#X connect 74 0 16 0;
#X connect 75 0 17 0;
#X connect 76 0 18 0;
#X connect 77 0 19 0;
#X connect 78 0 20 0;
#X connect 79 0 21 0;
#X connect 80 0 30 0;
#X connect 81 0 31 0;
#X connect 82 0 32 0;
#X connect 83 0 33 0;
#X connect 84 0 34 0;
#X connect 85 0 35 0;
#X connect 86 0 36 0;
#X connect 87 0 37 0;
#X connect 88 0 46 0;
#X connect 89 0 47 0;
#X connect 90 0 48 0;
#X connect 91 0 49 0;
#X connect 92 0 50 0;
#X connect 93 0 51 0;
#X connect 94 0 52 0;
#X connect 95 0 62 0;
#X connect 96 0 63 0;
#X connect 97 0 53 0;
#X connect 98 0 64 0;
#X connect 99 0 65 0;
#X connect 100 0 66 0;
#X connect 101 0 67 0;
#X connect 102 0 68 0;
#X connect 103 0 69 0;
#X restore -224 323 pd vel2;
#N canvas 0 22 930 545 note2 0;
#X obj 365 321 f;
#X obj 327 321 f;
#X obj 285 321 f;
#X obj 247 321 f;
#X obj 205 321 f;
#X obj 167 321 f;
#X obj 125 321 f;
#X obj 87 321 f;
#X obj 264 37 i;
#X obj 293 37 + 1;
#X obj 264 67 % 16;
#X obj 911 485 outlet;
#X floatatom 380 29 5 0 0 0 - - -;
#X obj 333 50 r modulo;
#X obj 691 320 f;
#X obj 653 320 f;
#X obj 611 320 f;
#X obj 573 320 f;
#X obj 531 320 f;
#X obj 493 320 f;
#X obj 451 320 f;
#X obj 413 320 f;
#X obj 264 8 r bang1;
#X obj 1005 319 f;
#X obj 967 319 f;
#X obj 925 319 f;
#X obj 887 319 f;
#X obj 845 319 f;
#X obj 807 319 f;
#X obj 765 319 f;
#X obj 727 319 f;
#X obj 1331 318 f;
#X obj 1293 318 f;
#X obj 1251 318 f;
#X obj 1213 318 f;
#X obj 1171 318 f;
#X obj 1133 318 f;
#X obj 1091 318 f;
#X obj 1053 318 f;
#X obj 264 89 sel 0 1 2 3 4 5 6 7 8 9 10 11 12 13 14 15 16 17 18 19
20 21 22 23 24 25 26 27 28 29 30 31;
#X obj 79 266 + 60;
#X obj 125 267 + 60;
#X obj 165 268 + 60;
#X obj 207 266 + 60;
#X obj 245 265 + 60;
#X obj 285 263 + 60;
#X obj 317 262 + 60;
#X obj 355 265 + 60;
#X obj 405 265 + 60;
#X obj 451 266 + 60;
#X obj 491 267 + 60;
#X obj 533 265 + 60;
#X obj 571 264 + 60;
#X obj 611 262 + 60;
#X obj 643 261 + 60;
#X obj 681 264 + 60;
#X obj 719 264 + 60;
#X obj 765 265 + 60;
#X obj 805 266 + 60;
#X obj 847 264 + 60;
#X obj 885 263 + 60;
#X obj 925 261 + 60;
#X obj 957 260 + 60;
#X obj 995 263 + 60;
#X obj 1045 263 + 60;
#X obj 1091 264 + 60;
#X obj 1131 265 + 60;
#X obj 1173 263 + 60;
#X obj 1211 262 + 60;
#X obj 1251 260 + 60;
#X obj 1283 259 + 60;
#X obj 1321 262 + 60;
#X obj -14 201 r note2_0;
#X obj 46 202 r note2_1;
#X obj 104 203 r note2_2;
#X obj 165 204 r note2_3;
#X obj 226 204 r note2_4;
#X obj 291 205 r note2_5;
#X obj 351 205 r note2_6;
#X obj 411 203 r note2_7;
#X obj 372 167 r note2_8;
#X obj 432 168 r note2_9;
#X obj 492 168 r note2_10;
#X obj 558 165 r note2_11;
#X obj 625 165 r note2_12;
#X obj 690 166 r note2_13;
#X obj 762 166 r note2_14;
#X obj 829 168 r note2_15;
#X obj 639 200 r note2_16;
#X obj 707 201 r note2_17;
#X obj 773 201 r note2_18;
#X obj 841 200 r note2_19;
#X obj 906 201 r note2_20;
#X obj 973 201 r note2_21;
#X obj 1042 200 r note2_22;
#X obj 1114 198 r note2_23;
#X obj 984 166 r note2_24;
#X obj 1051 167 r note2_25;
#X obj 1117 167 r note2_26;
#X obj 1184 167 r note2_27;
#X obj 1250 165 r note2_28;
#X obj 1316 166 r note2_29;
#X obj 1385 165 r note2_30;
#X obj 1398 195 r note2_31;
#X connect 0 0 11 0;
#X connect 1 0 11 0;
#X connect 2 0 11 0;
#X connect 3 0 11 0;
#X connect 4 0 11 0;
#X connect 5 0 11 0;
#X connect 6 0 11 0;
#X connect 7 0 11 0;
#X connect 8 0 9 0;
#X connect 8 0 10 0;
#X connect 9 0 8 1;
#X connect 10 0 39 0;
#X connect 13 0 10 1;
#X connect 14 0 11 0;
#X connect 15 0 11 0;
#X connect 16 0 11 0;
#X connect 17 0 11 0;
#X connect 18 0 11 0;
#X connect 19 0 11 0;
#X connect 20 0 11 0;
#X connect 21 0 11 0;
#X connect 22 0 12 0;
#X connect 22 0 8 0;
#X connect 23 0 11 0;
#X connect 24 0 11 0;
#X connect 25 0 11 0;
#X connect 26 0 11 0;
#X connect 27 0 11 0;
#X connect 28 0 11 0;
#X connect 29 0 11 0;
#X connect 30 0 11 0;
#X connect 31 0 11 0;
#X connect 32 0 11 0;
#X connect 33 0 11 0;
#X connect 34 0 11 0;
#X connect 35 0 11 0;
#X connect 36 0 11 0;
#X connect 37 0 11 0;
#X connect 38 0 11 0;
#X connect 39 0 7 0;
#X connect 39 1 6 0;
#X connect 39 2 5 0;
#X connect 39 3 4 0;
#X connect 39 4 3 0;
#X connect 39 5 2 0;
#X connect 39 6 1 0;
#X connect 39 7 0 0;
#X connect 39 8 21 0;
#X connect 39 9 20 0;
#X connect 39 10 19 0;
#X connect 39 11 18 0;
#X connect 39 12 17 0;
#X connect 39 13 16 0;
#X connect 39 14 15 0;
#X connect 39 15 14 0;
#X connect 39 16 30 0;
#X connect 39 17 29 0;
#X connect 39 18 28 0;
#X connect 39 19 27 0;
#X connect 39 20 26 0;
#X connect 39 21 25 0;
#X connect 39 22 24 0;
#X connect 39 23 23 0;
#X connect 39 24 38 0;
#X connect 39 25 37 0;
#X connect 39 26 36 0;
#X connect 39 27 35 0;
#X connect 39 28 34 0;
#X connect 39 29 33 0;
#X connect 39 30 32 0;
#X connect 39 31 31 0;
#X connect 40 0 7 1;
#X connect 41 0 6 1;
#X connect 42 0 5 1;
#X connect 43 0 4 1;
#X connect 44 0 3 1;
#X connect 45 0 2 1;
#X connect 46 0 1 1;
#X connect 47 0 0 1;
#X connect 48 0 21 1;
#X connect 49 0 20 1;
#X connect 50 0 19 1;
#X connect 51 0 18 1;
#X connect 52 0 17 1;
#X connect 53 0 16 1;
#X connect 54 0 15 1;
#X connect 55 0 14 1;
#X connect 56 0 30 1;
#X connect 57 0 29 1;
#X connect 58 0 28 1;
#X connect 59 0 27 1;
#X connect 60 0 26 1;
#X connect 61 0 25 1;
#X connect 62 0 24 1;
#X connect 63 0 23 1;
#X connect 64 0 38 1;
#X connect 65 0 37 1;
#X connect 66 0 36 1;
#X connect 67 0 35 1;
#X connect 68 0 34 1;
#X connect 69 0 33 1;
#X connect 70 0 32 1;
#X connect 71 0 31 1;
#X connect 72 0 40 0;
#X connect 73 0 41 0;
#X connect 74 0 42 0;
#X connect 75 0 43 0;
#X connect 76 0 44 0;
#X connect 77 0 45 0;
#X connect 78 0 46 0;
#X connect 79 0 47 0;
#X connect 80 0 48 0;
#X connect 81 0 49 0;
#X connect 82 0 50 0;
#X connect 83 0 51 0;
#X connect 84 0 52 0;
#X connect 85 0 53 0;
#X connect 86 0 54 0;
#X connect 87 0 55 0;
#X connect 88 0 56 0;
#X connect 89 0 57 0;
#X connect 90 0 58 0;
#X connect 91 0 59 0;
#X connect 92 0 60 0;
#X connect 93 0 61 0;
#X connect 94 0 62 0;
#X connect 95 0 63 0;
#X connect 96 0 64 0;
#X connect 97 0 65 0;
#X connect 98 0 66 0;
#X connect 99 0 67 0;
#X connect 100 0 68 0;
#X connect 101 0 69 0;
#X connect 102 0 70 0;
#X connect 103 0 71 0;
#X restore -174 322 pd note2;
#N canvas 0 22 524 718 Recall_note2 0;
#N canvas 0 22 1024 705 ouch 0;
#X obj 179 -109 until;
#X obj 179 -78 f;
#X obj 212 -78 + 1;
#X obj 179 -138 t f b;
#X msg 179 -160 16;
#X obj 549 153 f;
#X obj 524 153 f;
#X obj 499 153 f;
#X obj 474 153 f;
#X obj 449 153 f;
#X obj 424 153 f;
#X obj 399 153 f;
#X obj 374 153 f;
#X obj 347 153 f;
#X obj 322 153 f;
#X obj 297 153 f;
#X obj 272 153 f;
#X obj 247 153 f;
#X obj 222 153 f;
#X obj 197 153 f;
#X obj 172 153 f;
#X obj 179 -190 inlet;
#X obj 218 -190 inlet;
#X msg 218 -110 0;
#X obj 576 -46 tabread matrixnote1;
#X obj 973 95 f;
#X obj 948 102 f;
#X obj 919 105 f;
#X obj 885 109 f;
#X obj 860 109 f;
#X obj 835 109 f;
#X obj 811 110 f;
#X obj 785 109 f;
#X obj 758 109 f;
#X obj 733 109 f;
#X obj 708 109 f;
#X obj 683 109 f;
#X obj 658 109 f;
#X obj 633 109 f;
#X obj 608 109 f;
#X obj 583 109 f;
#X obj 181 -40 sel 0 1 2 3 4 5 6 7 8 9 10 11 12 13 14 15 16 17 18 19
20 21 22 23 24 25 26 27 28 29 30 31;
#X obj 134 283 s pnote2_0;
#X obj 162 264 s pnote2_1;
#X obj 197 242 s pnote2_2;
#X obj 241 223 s pnote2_3;
#X obj 276 242 s pnote2_4;
#X obj 325 263 s pnote2_5;
#X obj 369 281 s pnote2_6;
#X obj 404 262 s pnote2_7;
#X obj 454 284 s pnote2_8;
#X obj 485 265 s pnote2_9;
#X obj 510 246 s pnote2_10;
#X obj 571 265 s pnote2_11;
#X obj 636 284 s pnote2_12;
#X obj 696 303 s pnote2_13;
#X obj 729 285 s pnote2_14;
#X obj 753 265 s pnote2_15;
#X obj 583 210 s pnote2_16;
#X obj 611 191 s pnote2_17;
#X obj 646 169 s pnote2_18;
#X obj 690 150 s pnote2_19;
#X obj 725 169 s pnote2_20;
#X obj 774 190 s pnote2_21;
#X obj 818 208 s pnote2_22;
#X obj 853 189 s pnote2_23;
#X obj 903 211 s pnote2_24;
#X obj 934 192 s pnote2_25;
#X obj 959 173 s pnote2_26;
#X obj 1020 192 s pnote2_27;
#X obj 1085 211 s pnote2_28;
#X obj 1145 230 s pnote2_29;
#X obj 1178 212 s pnote2_30;
#X obj 1202 192 s pnote2_31;
#X connect 0 0 1 0;
#X connect 1 0 2 0;
#X connect 1 0 24 0;
#X connect 1 0 41 0;
#X connect 2 0 1 1;
#X connect 3 0 0 0;
#X connect 3 1 23 0;
#X connect 4 0 3 0;
#X connect 5 0 57 0;
#X connect 6 0 56 0;
#X connect 7 0 55 0;
#X connect 8 0 54 0;
#X connect 9 0 53 0;
#X connect 10 0 52 0;
#X connect 11 0 51 0;
#X connect 12 0 50 0;
#X connect 13 0 49 0;
#X connect 14 0 48 0;
#X connect 15 0 47 0;
#X connect 16 0 46 0;
#X connect 17 0 45 0;
#X connect 18 0 44 0;
#X connect 19 0 43 0;
#X connect 20 0 42 0;
#X connect 21 0 4 0;
#X connect 22 0 4 0;
#X connect 23 0 1 1;
#X connect 24 0 20 1;
#X connect 24 0 19 1;
#X connect 24 0 18 1;
#X connect 24 0 17 1;
#X connect 24 0 16 1;
#X connect 24 0 15 1;
#X connect 24 0 14 1;
#X connect 24 0 13 1;
#X connect 24 0 12 1;
#X connect 24 0 11 1;
#X connect 24 0 10 1;
#X connect 24 0 9 1;
#X connect 24 0 8 1;
#X connect 24 0 7 1;
#X connect 24 0 6 1;
#X connect 24 0 5 1;
#X connect 24 0 40 1;
#X connect 24 0 39 1;
#X connect 24 0 38 1;
#X connect 24 0 37 1;
#X connect 24 0 36 1;
#X connect 24 0 35 1;
#X connect 24 0 34 1;
#X connect 24 0 33 1;
#X connect 24 0 32 1;
#X connect 24 0 31 1;
#X connect 24 0 30 1;
#X connect 24 0 29 1;
#X connect 24 0 28 1;
#X connect 24 0 27 1;
#X connect 24 0 26 1;
#X connect 24 0 25 1;
#X connect 25 0 73 0;
#X connect 26 0 72 0;
#X connect 27 0 71 0;
#X connect 28 0 70 0;
#X connect 29 0 69 0;
#X connect 30 0 68 0;
#X connect 31 0 67 0;
#X connect 32 0 66 0;
#X connect 33 0 65 0;
#X connect 34 0 64 0;
#X connect 35 0 63 0;
#X connect 36 0 62 0;
#X connect 37 0 61 0;
#X connect 38 0 60 0;
#X connect 39 0 59 0;
#X connect 40 0 58 0;
#X connect 41 0 20 0;
#X connect 41 1 19 0;
#X connect 41 2 18 0;
#X connect 41 3 17 0;
#X connect 41 4 16 0;
#X connect 41 5 15 0;
#X connect 41 6 14 0;
#X connect 41 7 13 0;
#X connect 41 8 12 0;
#X connect 41 9 11 0;
#X connect 41 10 10 0;
#X connect 41 11 9 0;
#X connect 41 12 8 0;
#X connect 41 13 7 0;
#X connect 41 14 6 0;
#X connect 41 15 5 0;
#X connect 41 16 40 0;
#X connect 41 17 39 0;
#X connect 41 18 38 0;
#X connect 41 19 37 0;
#X connect 41 20 36 0;
#X connect 41 21 35 0;
#X connect 41 22 34 0;
#X connect 41 23 33 0;
#X connect 41 24 32 0;
#X connect 41 25 31 0;
#X connect 41 26 30 0;
#X connect 41 27 29 0;
#X connect 41 28 28 0;
#X connect 41 29 27 0;
#X connect 41 30 26 0;
#X connect 41 31 25 0;
#X restore -11 22 pd ouch;
#N canvas 0 22 450 300 (subpatch) 0;
#X array matrixnote2 16 float 2;
#X coords 0 11 32 0 200 140 1;
#X restore -161 84 graph;
#X obj -9 -43 bng 15 250 50 0 empty empty empty 17 7 0 10 -262144 -1
-1;
#X obj -11 -22 del 50;
#X obj -11 -1 t b b;
#X floatatom 68 62 5 0 0 0 - - -;
#X floatatom 78 80 5 0 0 0 - - -;
#X floatatom 88 98 5 0 0 0 - - -;
#X floatatom 98 116 5 0 0 0 - - -;
#X floatatom 108 134 5 0 0 0 - - -;
#X floatatom 118 152 5 0 0 0 - - -;
#X floatatom 128 171 5 0 0 0 - - -;
#X floatatom 138 190 5 0 0 0 - - -;
#X floatatom 174 215 5 0 0 0 - - -;
#X floatatom 184 233 5 0 0 0 - - -;
#X floatatom 194 251 5 0 0 0 - - -;
#X floatatom 204 269 5 0 0 0 - - -;
#X floatatom 214 287 5 0 0 0 - - -;
#X floatatom 224 305 5 0 0 0 - - -;
#X floatatom 234 324 5 0 0 0 - - -;
#X floatatom 244 343 5 0 0 0 - - -;
#X text -161 -292 only implemented for 8 recall but you can add other
easily. To create new pattern I suggest a .txt approach \, see the
example files in the folder. For each step copy each value printed
below on a different line. then save the txt in the same folder as
the patch and add a message "read mytxt.txt" and connect it to matrixread
message and to the bang object.;
#X floatatom 282 365 5 0 0 0 - - -;
#X floatatom 292 383 5 0 0 0 - - -;
#X floatatom 302 401 5 0 0 0 - - -;
#X floatatom 312 419 5 0 0 0 - - -;
#X floatatom 322 437 5 0 0 0 - - -;
#X floatatom 332 455 5 0 0 0 - - -;
#X floatatom 342 474 5 0 0 0 - - -;
#X floatatom 352 493 5 0 0 0 - - -;
#X floatatom 388 518 5 0 0 0 - - -;
#X floatatom 398 536 5 0 0 0 - - -;
#X floatatom 408 554 5 0 0 0 - - -;
#X floatatom 418 572 5 0 0 0 - - -;
#X floatatom 428 590 5 0 0 0 - - -;
#X floatatom 438 608 5 0 0 0 - - -;
#X floatatom 448 627 5 0 0 0 - - -;
#X floatatom 458 646 5 0 0 0 - - -;
#X msg -160 -196 read z32patern1.txt;
#X msg -160 -173 read z32patern2.txt;
#X msg -160 -149 read z32patern3.txt;
#X msg -160 -124 read z32patern4.txt;
#X msg -160 -99 read z32patern5.txt;
#X msg -159 -75 read z32patern6.txt;
#X msg -160 -50 read z32patern7.txt;
#X msg -160 -27 read z32patern8.txt;
#X obj 68 -151 r note2_0;
#X obj 85 -133 r note2_1;
#X obj 98 -115 r note2_2;
#X obj 111 -96 r note2_3;
#X obj 122 -78 r note2_4;
#X obj 134 -60 r note2_5;
#X obj 144 -41 r note2_6;
#X obj 154 -22 r note2_7;
#X obj 185 -147 r note2_8;
#X obj 202 -129 r note2_9;
#X obj 215 -111 r note2_10;
#X obj 228 -92 r note2_11;
#X obj 239 -74 r note2_12;
#X obj 251 -56 r note2_13;
#X obj 261 -37 r note2_14;
#X obj 271 -18 r note2_15;
#X obj 282 152 r note2_16;
#X obj 299 170 r note2_17;
#X obj 312 188 r note2_18;
#X obj 323 207 r note2_19;
#X obj 336 225 r note2_20;
#X obj 348 243 r note2_21;
#X obj 358 262 r note2_22;
#X obj 368 281 r note2_23;
#X obj 399 156 r note2_24;
#X obj 416 174 r note2_25;
#X obj 429 192 r note2_26;
#X obj 442 211 r note2_27;
#X obj 453 229 r note2_28;
#X obj 465 247 r note2_29;
#X obj 475 266 r note2_30;
#X obj 485 285 r note2_31;
#X msg -160 8 \; matrixnote2 read \$1;
#X connect 2 0 3 0;
#X connect 3 0 4 0;
#X connect 4 0 0 0;
#X connect 4 1 0 1;
#X connect 38 0 78 0;
#X connect 38 0 2 0;
#X connect 39 0 78 0;
#X connect 39 0 2 0;
#X connect 40 0 78 0;
#X connect 40 0 2 0;
#X connect 41 0 78 0;
#X connect 41 0 2 0;
#X connect 42 0 78 0;
#X connect 42 0 2 0;
#X connect 43 0 78 0;
#X connect 43 0 2 0;
#X connect 44 0 78 0;
#X connect 44 0 2 0;
#X connect 45 0 78 0;
#X connect 45 0 2 0;
#X connect 46 0 5 0;
#X connect 47 0 6 0;
#X connect 48 0 7 0;
#X connect 49 0 8 0;
#X connect 50 0 9 0;
#X connect 51 0 10 0;
#X connect 52 0 11 0;
#X connect 53 0 12 0;
#X connect 54 0 13 0;
#X connect 55 0 14 0;
#X connect 56 0 15 0;
#X connect 57 0 16 0;
#X connect 58 0 17 0;
#X connect 59 0 18 0;
#X connect 60 0 19 0;
#X connect 61 0 20 0;
#X connect 62 0 22 0;
#X connect 63 0 23 0;
#X connect 64 0 24 0;
#X connect 65 0 25 0;
#X connect 66 0 26 0;
#X connect 67 0 27 0;
#X connect 68 0 28 0;
#X connect 69 0 29 0;
#X connect 70 0 30 0;
#X connect 71 0 31 0;
#X connect 72 0 32 0;
#X connect 73 0 33 0;
#X connect 74 0 34 0;
#X connect 75 0 35 0;
#X connect 76 0 36 0;
#X connect 77 0 37 0;
#X restore -225 364 pd Recall_note2;
#N canvas 0 22 524 718 Recall_vel2 0;
#N canvas 0 22 1024 705 ouch 0;
#X obj 179 -109 until;
#X obj 179 -78 f;
#X obj 212 -78 + 1;
#X obj 179 -138 t f b;
#X msg 179 -160 16;
#X obj 549 153 f;
#X obj 524 153 f;
#X obj 499 153 f;
#X obj 474 153 f;
#X obj 449 153 f;
#X obj 424 153 f;
#X obj 399 153 f;
#X obj 374 153 f;
#X obj 347 153 f;
#X obj 322 153 f;
#X obj 297 153 f;
#X obj 272 153 f;
#X obj 247 153 f;
#X obj 222 153 f;
#X obj 197 153 f;
#X obj 172 153 f;
#X obj 179 -190 inlet;
#X obj 218 -190 inlet;
#X msg 218 -110 0;
#X obj 576 -46 tabread matrixnote1;
#X obj 973 95 f;
#X obj 948 102 f;
#X obj 919 105 f;
#X obj 885 109 f;
#X obj 860 109 f;
#X obj 835 109 f;
#X obj 811 110 f;
#X obj 785 109 f;
#X obj 758 109 f;
#X obj 733 109 f;
#X obj 708 109 f;
#X obj 683 109 f;
#X obj 658 109 f;
#X obj 633 109 f;
#X obj 608 109 f;
#X obj 583 109 f;
#X obj 181 -40 sel 0 1 2 3 4 5 6 7 8 9 10 11 12 13 14 15 16 17 18 19
20 21 22 23 24 25 26 27 28 29 30 31;
#X obj 134 283 s pvel2_0;
#X obj 162 264 s pvel2_1;
#X obj 197 242 s pvel2_2;
#X obj 241 223 s pvel2_3;
#X obj 276 242 s pvel2_4;
#X obj 325 263 s pvel2_5;
#X obj 369 281 s pvel2_6;
#X obj 404 262 s pvel2_7;
#X obj 454 284 s pvel2_8;
#X obj 485 265 s pvel2_9;
#X obj 510 246 s pvel2_10;
#X obj 571 265 s pvel2_11;
#X obj 636 284 s pvel2_12;
#X obj 696 303 s pvel2_13;
#X obj 729 285 s pvel2_14;
#X obj 753 265 s pvel2_15;
#X obj 583 210 s pvel2_16;
#X obj 611 191 s pvel2_17;
#X obj 646 169 s pvel2_18;
#X obj 690 150 s pvel2_19;
#X obj 725 169 s pvel2_20;
#X obj 774 190 s pvel2_21;
#X obj 818 208 s pvel2_22;
#X obj 853 189 s pvel2_23;
#X obj 903 211 s pvel2_24;
#X obj 934 192 s pvel2_25;
#X obj 959 173 s pvel2_26;
#X obj 1020 191 s pvel2_27;
#X obj 1085 211 s pvel2_28;
#X obj 1145 230 s pvel2_29;
#X obj 1178 212 s pvel2_30;
#X obj 1202 192 s pvel2_31;
#X connect 0 0 1 0;
#X connect 1 0 2 0;
#X connect 1 0 24 0;
#X connect 1 0 41 0;
#X connect 2 0 1 1;
#X connect 3 0 0 0;
#X connect 3 1 23 0;
#X connect 4 0 3 0;
#X connect 5 0 57 0;
#X connect 6 0 56 0;
#X connect 7 0 55 0;
#X connect 8 0 54 0;
#X connect 9 0 53 0;
#X connect 10 0 52 0;
#X connect 11 0 51 0;
#X connect 12 0 50 0;
#X connect 13 0 49 0;
#X connect 14 0 48 0;
#X connect 15 0 47 0;
#X connect 16 0 46 0;
#X connect 17 0 45 0;
#X connect 18 0 44 0;
#X connect 19 0 43 0;
#X connect 20 0 42 0;
#X connect 21 0 4 0;
#X connect 22 0 4 0;
#X connect 23 0 1 1;
#X connect 24 0 20 1;
#X connect 24 0 19 1;
#X connect 24 0 18 1;
#X connect 24 0 17 1;
#X connect 24 0 16 1;
#X connect 24 0 15 1;
#X connect 24 0 14 1;
#X connect 24 0 13 1;
#X connect 24 0 12 1;
#X connect 24 0 11 1;
#X connect 24 0 10 1;
#X connect 24 0 9 1;
#X connect 24 0 8 1;
#X connect 24 0 7 1;
#X connect 24 0 6 1;
#X connect 24 0 5 1;
#X connect 24 0 40 1;
#X connect 24 0 39 1;
#X connect 24 0 38 1;
#X connect 24 0 37 1;
#X connect 24 0 36 1;
#X connect 24 0 35 1;
#X connect 24 0 34 1;
#X connect 24 0 33 1;
#X connect 24 0 32 1;
#X connect 24 0 31 1;
#X connect 24 0 30 1;
#X connect 24 0 29 1;
#X connect 24 0 28 1;
#X connect 24 0 27 1;
#X connect 24 0 26 1;
#X connect 24 0 25 1;
#X connect 25 0 73 0;
#X connect 26 0 72 0;
#X connect 27 0 71 0;
#X connect 28 0 70 0;
#X connect 29 0 69 0;
#X connect 30 0 68 0;
#X connect 31 0 67 0;
#X connect 32 0 66 0;
#X connect 33 0 65 0;
#X connect 34 0 64 0;
#X connect 35 0 63 0;
#X connect 36 0 62 0;
#X connect 37 0 61 0;
#X connect 38 0 60 0;
#X connect 39 0 59 0;
#X connect 40 0 58 0;
#X connect 41 0 20 0;
#X connect 41 1 19 0;
#X connect 41 2 18 0;
#X connect 41 3 17 0;
#X connect 41 4 16 0;
#X connect 41 5 15 0;
#X connect 41 6 14 0;
#X connect 41 7 13 0;
#X connect 41 8 12 0;
#X connect 41 9 11 0;
#X connect 41 10 10 0;
#X connect 41 11 9 0;
#X connect 41 12 8 0;
#X connect 41 13 7 0;
#X connect 41 14 6 0;
#X connect 41 15 5 0;
#X connect 41 16 40 0;
#X connect 41 17 39 0;
#X connect 41 18 38 0;
#X connect 41 19 37 0;
#X connect 41 20 36 0;
#X connect 41 21 35 0;
#X connect 41 22 34 0;
#X connect 41 23 33 0;
#X connect 41 24 32 0;
#X connect 41 25 31 0;
#X connect 41 26 30 0;
#X connect 41 27 29 0;
#X connect 41 28 28 0;
#X connect 41 29 27 0;
#X connect 41 30 26 0;
#X connect 41 31 25 0;
#X restore -11 22 pd ouch;
#N canvas 0 22 450 300 (subpatch) 0;
#X array matrixvel2 16 float 2;
#X coords 0 11 32 0 200 140 1;
#X restore -161 84 graph;
#X obj -9 -43 bng 15 250 50 0 empty empty empty 17 7 0 10 -262144 -1
-1;
#X obj -11 -22 del 50;
#X obj -11 -1 t b b;
#X floatatom 68 62 5 0 0 0 - - -;
#X floatatom 78 80 5 0 0 0 - - -;
#X floatatom 88 98 5 0 0 0 - - -;
#X floatatom 98 116 5 0 0 0 - - -;
#X floatatom 108 134 5 0 0 0 - - -;
#X floatatom 118 152 5 0 0 0 - - -;
#X floatatom 128 171 5 0 0 0 - - -;
#X floatatom 138 190 5 0 0 0 - - -;
#X floatatom 174 215 5 0 0 0 - - -;
#X floatatom 184 233 5 0 0 0 - - -;
#X floatatom 194 251 5 0 0 0 - - -;
#X floatatom 204 269 5 0 0 0 - - -;
#X floatatom 214 287 5 0 0 0 - - -;
#X floatatom 224 305 5 0 0 0 - - -;
#X floatatom 234 324 5 0 0 0 - - -;
#X floatatom 244 343 5 0 0 0 - - -;
#X text -161 -292 only implemented for 8 recall but you can add other
easily. To create new pattern I suggest a .txt approach \, see the
example files in the folder. For each step copy each value printed
below on a different line. then save the txt in the same folder as
the patch and add a message "read mytxt.txt" and connect it to matrixread
message and to the bang object.;
#X floatatom 282 365 5 0 0 0 - - -;
#X floatatom 292 383 5 0 0 0 - - -;
#X floatatom 302 401 5 0 0 0 - - -;
#X floatatom 312 419 5 0 0 0 - - -;
#X floatatom 322 437 5 0 0 0 - - -;
#X floatatom 332 455 5 0 0 0 - - -;
#X floatatom 342 474 5 0 0 0 - - -;
#X floatatom 352 493 5 0 0 0 - - -;
#X floatatom 388 518 5 0 0 0 - - -;
#X floatatom 398 536 5 0 0 0 - - -;
#X floatatom 408 554 5 0 0 0 - - -;
#X floatatom 418 572 5 0 0 0 - - -;
#X floatatom 428 590 5 0 0 0 - - -;
#X floatatom 438 608 5 0 0 0 - - -;
#X floatatom 448 627 5 0 0 0 - - -;
#X floatatom 458 646 5 0 0 0 - - -;
#X msg -160 -196 read z32patern1.txt;
#X msg -160 -173 read z32patern2.txt;
#X msg -160 -149 read z32patern3.txt;
#X msg -160 -124 read z32patern4.txt;
#X msg -160 -99 read z32patern5.txt;
#X msg -159 -75 read z32patern6.txt;
#X msg -160 -50 read z32patern7.txt;
#X msg -160 -27 read z32patern8.txt;
#X obj 68 -151 r vel2_0;
#X obj 85 -133 r vel2_1;
#X obj 98 -115 r vel2_2;
#X obj 111 -96 r vel2_3;
#X obj 122 -78 r vel2_4;
#X obj 134 -60 r vel2_5;
#X obj 144 -41 r vel2_6;
#X obj 154 -22 r vel2_7;
#X obj 185 -147 r vel2_8;
#X obj 202 -129 r vel2_9;
#X obj 215 -111 r vel2_10;
#X obj 228 -92 r vel2_11;
#X obj 239 -74 r vel2_12;
#X obj 251 -56 r vel2_13;
#X obj 261 -37 r vel2_14;
#X obj 271 -18 r vel2_15;
#X obj 282 152 r vel2_16;
#X obj 299 170 r vel2_17;
#X obj 312 188 r vel2_18;
#X obj 325 207 r vel2_19;
#X obj 336 225 r vel2_20;
#X obj 348 243 r vel2_21;
#X obj 358 262 r vel2_22;
#X obj 368 281 r vel2_23;
#X obj 399 156 r vel2_24;
#X obj 416 174 r vel2_25;
#X obj 429 192 r vel2_26;
#X obj 442 211 r vel2_27;
#X obj 453 229 r vel2_28;
#X obj 465 247 r vel2_29;
#X obj 475 266 r vel2_30;
#X obj 485 285 r vel2_31;
#X msg -160 8 \; matrixvel2 read \$1;
#X connect 2 0 3 0;
#X connect 3 0 4 0;
#X connect 4 0 0 0;
#X connect 4 1 0 1;
#X connect 38 0 78 0;
#X connect 38 0 2 0;
#X connect 39 0 78 0;
#X connect 39 0 2 0;
#X connect 40 0 78 0;
#X connect 40 0 2 0;
#X connect 41 0 78 0;
#X connect 41 0 2 0;
#X connect 42 0 78 0;
#X connect 42 0 2 0;
#X connect 43 0 78 0;
#X connect 43 0 2 0;
#X connect 44 0 78 0;
#X connect 44 0 2 0;
#X connect 45 0 78 0;
#X connect 45 0 2 0;
#X connect 46 0 5 0;
#X connect 47 0 6 0;
#X connect 48 0 7 0;
#X connect 49 0 8 0;
#X connect 50 0 9 0;
#X connect 51 0 10 0;
#X connect 52 0 11 0;
#X connect 53 0 12 0;
#X connect 54 0 13 0;
#X connect 55 0 14 0;
#X connect 56 0 15 0;
#X connect 57 0 16 0;
#X connect 58 0 17 0;
#X connect 59 0 18 0;
#X connect 60 0 19 0;
#X connect 61 0 20 0;
#X connect 62 0 22 0;
#X connect 63 0 23 0;
#X connect 64 0 24 0;
#X connect 65 0 25 0;
#X connect 66 0 26 0;
#X connect 67 0 27 0;
#X connect 68 0 28 0;
#X connect 69 0 29 0;
#X connect 70 0 30 0;
#X connect 71 0 31 0;
#X connect 72 0 32 0;
#X connect 73 0 33 0;
#X connect 74 0 34 0;
#X connect 75 0 35 0;
#X connect 76 0 36 0;
#X connect 77 0 37 0;
#X restore -225 383 pd Recall_vel2;
#X obj -224 343 s vel2;
#X obj -174 344 s note2;
#X obj -143 -21 s notePluto;
#X obj -218 -22 s velPluto;
#X obj -190 -250 declare -path z_pattern_abs;
#X connect 2 0 190 0;
#X connect 3 0 6 0;
#X connect 3 0 56 0;
#X connect 3 0 95 0;
#X connect 4 0 5 0;
#X connect 6 0 4 0;
#X connect 6 0 97 0;
#X connect 7 0 8 0;
#X connect 9 0 53 1;
#X connect 11 0 10 0;
#X connect 11 0 52 0;
#X connect 51 0 52 1;
#X connect 52 0 96 0;
#X connect 53 0 11 0;
#X connect 54 0 53 0;
#X connect 56 0 7 0;
#X connect 56 0 98 0;
#X connect 93 0 94 0;
#X connect 95 0 93 0;
#X connect 95 0 99 0;
#X connect 96 0 107 0;
#X connect 97 0 102 0;
#X connect 98 0 101 0;
#X connect 99 0 100 0;
#X connect 103 0 189 0;
#X connect 183 0 187 0;
#X connect 184 0 188 0;
