#N canvas 0 22 1056 878 10;
#X obj 91 5 cnv 15 178 156 empty empty empty 20 12 0 14 -1 -66577 0
;
#X obj 3 101 cnv 4 8 4 empty empty empty 20 12 0 14 -228856 -66577
0;
#X obj 3 253 cnv 4 8 4 empty empty empty 20 12 0 14 -228856 -66577
0;
#X obj 169 253 cnv 4 8 4 empty empty empty 20 12 0 14 -228856 -66577
0;
#X obj 218 -98 cnv 15 174 152 empty empty empty 20 12 0 14 -162280
-66577 0;
#X obj 599 345 msgfile;
#X obj 574 208 folder_list;
#X msg 593 258 add \$1;
#X msg 706 252 print;
#X obj 558 346 until;
#X obj 813 -32 f \$0;
#X obj 813 -53 bng 15 250 50 0 empty empty empty 17 7 0 10 -262144
-1 -1;
#X obj 764 365 counter;
#X obj 764 341 b;
#X obj 764 392 - 8;
#X obj 165 344 i;
#X msg 562 530 \; \$1-filename-\$2 label \$3 \;;
#X obj 611 429 counter 0 7;
#X obj 562 506 pack f f s;
#X obj 562 481 f \$0;
#X msg 599 371 symbol \$1;
#X msg 684 166 clear;
#X obj 764 418 max 0;
#X obj 165 370 change 0;
#X msg 190 465 goto \$1;
#X obj 558 322 i 0;
#X obj 573 300 min 8;
#X msg 777 635 \; \$1-filename-\$2 label \$3 \;;
#X obj 789 515 spigot;
#X obj 808 587 i;
#X obj 789 538 t b b s;
#X obj 777 611 pack \$0 f s;
#X msg 562 430 set 0;
#X obj 574 231 t s s b;
#X obj -78 558 r \$0-filesel-0;
#X obj -69 609 i 0;
#X obj -74 583 b;
#X msg -38 657 goto \$1;
#X obj 68 344 msgfile;
#X obj -67 633 t b f;
#X obj 29 611 i 0;
#X obj 24 585 b;
#X msg 60 689 goto \$1;
#X obj 31 665 t b f;
#X obj 23 558 r \$0-filesel-1;
#X obj 29 638 + 1;
#X obj 121 612 i 0;
#X obj 116 586 b;
#X msg 152 690 goto \$1;
#X obj 123 666 t b f;
#X obj 224 613 i 0;
#X obj 219 587 b;
#X msg 255 691 goto \$1;
#X obj 226 667 t b f;
#X obj -69 772 i 0;
#X obj -74 746 b;
#X msg -38 850 goto \$1;
#X obj -67 826 t b f;
#X obj 47 783 i 0;
#X obj 42 757 b;
#X msg 78 861 goto \$1;
#X obj 49 837 t b f;
#X obj 152 783 i 0;
#X obj 147 757 b;
#X msg 183 861 goto \$1;
#X obj 154 837 t b f;
#X obj 267 780 i 0;
#X obj 262 754 b;
#X msg 298 858 goto \$1;
#X obj 269 834 t b f;
#X obj 115 559 r \$0-filesel-2;
#X obj 121 639 + 2;
#X obj 218 560 r \$0-filesel-3;
#X obj 224 640 + 3;
#X obj 261 727 r \$0-filesel-7;
#X obj 267 807 + 7;
#X obj 152 810 + 6;
#X obj 146 730 r \$0-filesel-6;
#X obj 41 730 r \$0-filesel-5;
#X obj 47 810 + 5;
#X obj -75 719 r \$0-filesel-4;
#X obj -69 799 + 4;
#X msg 320 138 \; \$1-dirlabel label \$2 \;;
#X obj 320 115 pack \$0 s;
#X obj 165 397 t f b;
#X obj 182 429 t b f;
#X msg 792 341 set 0;
#X obj -76 -26 inlet;
#X msg -80 179 goto \$1;
#X obj 6 141 hradio 15 1 0 10 \$0-filesel-1 \$0-filename-1 ADC 3 8
0 8 -1 -1 -262144 0;
#X obj 6 157 hradio 15 1 0 10 \$0-filesel-2 \$0-filename-2 Control-patchs
3 8 0 8 -1 -1 -262144 0;
#X obj 6 173 hradio 15 1 0 10 \$0-filesel-3 \$0-filename-3 DSS 3 8
0 8 -1 -1 -262144 0;
#X obj 6 125 hradio 15 1 0 10 \$0-filesel-0 \$0-filename-0 00_pdLive_Mix&FX_Board_16bus-NoVU.pd
3 8 0 8 -1 -1 -262144 0;
#X obj 6 237 hradio 15 1 0 10 \$0-filesel-7 \$0-filename-7 Samplers
3 8 0 8 -1 -1 -262144 0;
#X obj 6 189 hradio 15 1 0 10 \$0-filesel-4 \$0-filename-4 Drums 3
8 0 8 -1 -1 -262144 0;
#X obj 580 -97 bng 15 250 50 0 empty empty empty 17 7 0 10 -262144
-1 -1;
#X obj 6 107 cnv 15 150 15 empty \$0-dirlabel pdLive 4 8 0 8 -233017
-66577 0;
#X obj 270 91 bng 15 250 50 0 empty \$0-dirload empty 17 7 0 10 -262144
-1 -1;
#X obj 828 563 splitfilename /;
#X obj 822 492 < 8;
#X obj 6 205 hradio 15 1 0 10 \$0-filesel-5 \$0-filename-5 FX 3 8 0
8 -1 -1 -262144 0;
#X obj 6 221 hradio 15 1 0 10 \$0-filesel-6 \$0-filename-6 Factory
3 8 0 8 -1 -1 -262144 0;
#X floatatom 129 378 5 0 0 0 - - -;
#X obj 620 463 splitfilename /;
#X obj 599 397 t b b s;
#X obj 286 152 vsl 15 122 200 0 0 0 \$0-scrollbar-out \$0-scrollbar-in
empty 0 -9 0 10 -1 -228856 -1 5500 1;
#X obj 347 93 splitfilename /;
#X obj 320 71 t b s;
#X obj -81 100 t b f;
#X obj -76 41 min 0;
#X obj 813 -76 initbang;
#X obj -27 45 - 1;
#X obj -77 72 max 0;
#X obj 165 317 expr ($f1/200)*$f2;
#X obj 585 -49 t a b b b;
#X msg 813 -9 \; \$1-scrollbar-in 0 \; \$1-dirlabel label \; \$1-filename-0
label \; \$1-filename-1 label \; \$1-filename-2 label \; \$1-filename-3
label \; \$1-filename-4 label \; \$1-filename-5 label \; \$1-filename-6
label \; \$1-filename-7 label \;;
#X obj 450 702 outlet filename;
#X obj 649 721 outlet total_files;
#X obj 574 124 pack s s;
#X obj 619 99 symbol;
#X obj 576 99 symbol;
#X obj 575 -26 t b b a b;
#X obj 498 100 symbol;
#X msg 498 151 symbol \$1/*;
#X msg 624 50 0;
#X msg 644 1 1;
#X obj 498 74 spigot;
#X obj 592 50 drip;
#X obj 592 25 t a b;
#X obj 592 74 t a b;
#X msg 574 151 symbol \$2/*.\$1;
#X obj 862 609 l2s -;
#X obj 644 501 l2s -;
#X obj 686 500 s2l;
#X obj 904 609 s2l;
#X obj 592 1 dollarg;
#X obj 649 692 + 1;
#X obj 580 -75 tof/folderpanel;
#X text -74 -96 Ben Baker-Smith - 2010;
#X obj -77 7 route load;
#X obj 139 7 symbol;
#X obj 399 14 s path;
#X connect 5 0 20 0;
#X connect 6 0 33 0;
#X connect 7 0 5 0;
#X connect 7 0 38 0;
#X connect 8 0 5 0;
#X connect 9 0 5 0;
#X connect 10 0 115 0;
#X connect 11 0 10 0;
#X connect 12 0 14 0;
#X connect 12 0 26 0;
#X connect 12 0 29 1;
#X connect 12 0 99 0;
#X connect 12 0 111 0;
#X connect 12 0 136 0;
#X connect 13 0 12 0;
#X connect 14 0 22 0;
#X connect 15 0 23 0;
#X connect 15 0 102 0;
#X connect 17 0 18 1;
#X connect 18 0 16 0;
#X connect 19 0 18 0;
#X connect 20 0 104 0;
#X connect 21 0 5 0;
#X connect 21 0 38 0;
#X connect 22 0 113 1;
#X connect 23 0 84 0;
#X connect 24 0 5 0;
#X connect 25 0 9 0;
#X connect 26 0 25 1;
#X connect 28 0 30 0;
#X connect 29 0 31 1;
#X connect 30 0 31 0;
#X connect 30 1 29 0;
#X connect 30 2 98 0;
#X connect 31 0 27 0;
#X connect 32 0 17 0;
#X connect 33 0 28 0;
#X connect 33 1 7 0;
#X connect 33 2 13 0;
#X connect 34 0 36 0;
#X connect 35 0 39 0;
#X connect 36 0 35 0;
#X connect 37 0 38 0;
#X connect 38 0 116 0;
#X connect 39 0 38 0;
#X connect 39 1 37 0;
#X connect 40 0 45 0;
#X connect 41 0 40 0;
#X connect 42 0 38 0;
#X connect 43 0 38 0;
#X connect 43 1 42 0;
#X connect 44 0 41 0;
#X connect 45 0 43 0;
#X connect 46 0 71 0;
#X connect 47 0 46 0;
#X connect 48 0 38 0;
#X connect 49 0 38 0;
#X connect 49 1 48 0;
#X connect 50 0 73 0;
#X connect 51 0 50 0;
#X connect 52 0 38 0;
#X connect 53 0 38 0;
#X connect 53 1 52 0;
#X connect 54 0 81 0;
#X connect 55 0 54 0;
#X connect 56 0 38 0;
#X connect 57 0 38 0;
#X connect 57 1 56 0;
#X connect 58 0 79 0;
#X connect 59 0 58 0;
#X connect 60 0 38 0;
#X connect 61 0 38 0;
#X connect 61 1 60 0;
#X connect 62 0 76 0;
#X connect 63 0 62 0;
#X connect 64 0 38 0;
#X connect 65 0 38 0;
#X connect 65 1 64 0;
#X connect 66 0 75 0;
#X connect 67 0 66 0;
#X connect 68 0 38 0;
#X connect 69 0 38 0;
#X connect 69 1 68 0;
#X connect 70 0 47 0;
#X connect 71 0 49 0;
#X connect 72 0 51 0;
#X connect 73 0 53 0;
#X connect 74 0 67 0;
#X connect 75 0 69 0;
#X connect 76 0 65 0;
#X connect 77 0 63 0;
#X connect 78 0 59 0;
#X connect 79 0 61 0;
#X connect 80 0 55 0;
#X connect 81 0 57 0;
#X connect 83 0 82 0;
#X connect 84 0 85 0;
#X connect 84 0 35 1;
#X connect 84 0 40 1;
#X connect 84 0 46 1;
#X connect 84 0 50 1;
#X connect 84 0 66 1;
#X connect 84 0 62 1;
#X connect 84 0 58 1;
#X connect 84 0 54 1;
#X connect 84 1 32 0;
#X connect 85 0 25 0;
#X connect 85 1 24 0;
#X connect 86 0 12 0;
#X connect 87 0 139 0;
#X connect 88 0 38 0;
#X connect 95 0 137 0;
#X connect 97 0 95 0;
#X connect 98 1 134 0;
#X connect 99 0 28 1;
#X connect 103 1 133 0;
#X connect 104 0 19 0;
#X connect 104 1 17 0;
#X connect 104 2 103 0;
#X connect 105 0 113 0;
#X connect 106 1 83 1;
#X connect 107 0 83 0;
#X connect 107 1 106 0;
#X connect 108 0 38 0;
#X connect 108 1 88 0;
#X connect 109 0 112 0;
#X connect 110 0 11 0;
#X connect 111 0 109 1;
#X connect 112 0 108 0;
#X connect 113 0 15 0;
#X connect 114 0 107 0;
#X connect 114 0 121 0;
#X connect 114 1 10 0;
#X connect 114 2 21 0;
#X connect 114 3 86 0;
#X connect 118 0 130 0;
#X connect 119 0 118 1;
#X connect 120 0 118 0;
#X connect 121 0 126 0;
#X connect 121 1 135 0;
#X connect 121 2 122 1;
#X connect 121 2 119 1;
#X connect 121 3 125 0;
#X connect 122 0 123 0;
#X connect 123 0 6 0;
#X connect 124 0 126 1;
#X connect 125 0 126 1;
#X connect 126 0 122 0;
#X connect 127 0 129 0;
#X connect 128 0 127 0;
#X connect 128 1 124 0;
#X connect 129 0 120 0;
#X connect 129 1 119 0;
#X connect 130 0 6 0;
#X connect 131 0 31 2;
#X connect 132 0 18 2;
#X connect 133 0 132 0;
#X connect 134 0 131 0;
#X connect 135 0 128 0;
#X connect 136 0 117 0;
#X connect 137 0 114 0;
#X connect 137 0 141 0;
#X connect 139 0 140 0;
#X connect 139 1 109 0;
#X connect 140 0 114 0;
#X coords 0 -1 1 1 270 190 2 0 100;
