#N canvas 0 22 1009 596 10;
#X declare -path z_usefull_abs;
#X obj 311 40 declare -path z_usefull_abs;
#N canvas 0 27 1024 626 (subpatch) 0;
#X obj 0 1 cnv 15 890 215 empty empty empty 20 14 0 14 -162280 -66577
0;
#X obj 62 38 TrancheConsole-NoVu_abs;
#X obj 113 38 TrancheConsole-NoVu_abs;
#X obj 164 38 TrancheConsole-NoVu_abs;
#X obj 215 38 TrancheConsole-NoVU_abs;
#X obj 266 38 TrancheConsole-NoVu_abs;
#X obj 317 38 TrancheConsole-NoVu_abs;
#X obj 368 37 TrancheConsole-NoVu_abs;
#X obj 419 37 TrancheConsole-NoVu_abs;
#X obj 470 37 TrancheConsole-NoVu_abs;
#X obj 521 37 TrancheConsole-NoVu_abs;
#X obj 572 37 TrancheConsole-NoVu_abs;
#X obj 623 37 TrancheConsole-NoVu_abs;
#X obj 674 37 TrancheConsole-NoVu_abs;
#X obj 725 37 TrancheConsole-NoVu_abs;
#X obj 776 37 TrancheConsole-NoVu_abs;
#X obj 827 37 TrancheConsole-NoVu_abs;
#X obj 11 38 TrancheConsole-Novu_abs;
#X obj 58 -113 spigot;
#X obj 58 -132 ctlin 1;
#X obj 62 22 tgl 15 0 empty empty Ctlin1 17 8 1 10 -33289 -260097 -1
0 1;
#X obj 58 -94 / 100;
#X obj 113 -113 spigot;
#X obj 113 22 tgl 15 0 empty empty Ctlin2 17 8 1 10 -33289 -260097
-1 0 1;
#X obj 113 -94 / 100;
#X obj 113 -132 ctlin 2;
#X obj 166 -112 spigot;
#X obj 164 22 tgl 15 0 empty empty Ctlin3 17 8 1 10 -33289 -260097
-1 0 1;
#X obj 166 -93 / 100;
#X obj 222 -112 spigot;
#X obj 215 22 tgl 15 0 empty empty Ctlin4 17 8 1 10 -33289 -260097
-1 0 1;
#X obj 222 -93 / 100;
#X obj 166 -131 ctlin 3;
#X obj 222 -131 ctlin 4;
#X obj 277 -114 spigot;
#X obj 266 22 tgl 15 0 empty empty Ctlin5 17 8 1 10 -33289 -260097
-1 0 1;
#X obj 277 -95 / 100;
#X obj 332 -114 spigot;
#X obj 317 22 tgl 15 0 empty empty Ctlin6 17 8 1 10 -33289 -260097
-1 0 1;
#X obj 332 -95 / 100;
#X obj 385 -113 spigot;
#X obj 368 22 tgl 15 0 empty empty Ctlin7 17 8 1 10 -33289 -260097
-1 0 1;
#X obj 385 -94 / 100;
#X obj 441 -113 spigot;
#X obj 419 22 tgl 15 0 empty empty Ctlin8 17 8 1 10 -33289 -260097
-1 0 1;
#X obj 441 -94 / 100;
#X obj 277 -133 ctlin 5;
#X obj 332 -133 ctlin 6;
#X obj 385 -132 ctlin 7;
#X obj 441 -132 ctlin 8;
#X obj 495 -113 spigot;
#X obj 495 -132 ctlin 1;
#X obj 470 22 tgl 15 0 empty empty Ctlin1 17 8 1 10 -33289 -260097
-1 0 1;
#X obj 495 -94 / 100;
#X obj 551 -113 spigot;
#X obj 521 22 tgl 15 0 empty empty Ctlin2 17 8 1 10 -33289 -260097
-1 0 1;
#X obj 551 -94 / 100;
#X obj 551 -132 ctlin 2;
#X obj 605 -112 spigot;
#X obj 572 22 tgl 15 0 empty empty Ctlin3 17 8 1 10 -33289 -260097
-1 0 1;
#X obj 605 -93 / 100;
#X obj 661 -112 spigot;
#X obj 623 22 tgl 15 0 empty empty Ctlin4 17 8 1 10 -33289 -260097
-1 0 1;
#X obj 661 -93 / 100;
#X obj 605 -131 ctlin 3;
#X obj 661 -131 ctlin 4;
#X obj 716 -114 spigot;
#X obj 674 22 tgl 15 0 empty empty Ctlin5 17 8 1 10 -33289 -260097
-1 0 1;
#X obj 716 -95 / 100;
#X obj 771 -114 spigot;
#X obj 725 22 tgl 15 0 empty empty Ctlin6 17 8 1 10 -33289 -260097
-1 0 1;
#X obj 771 -95 / 100;
#X obj 825 -113 spigot;
#X obj 776 22 tgl 15 0 empty empty Ctlin7 17 8 1 10 -33289 -260097
-1 0 1;
#X obj 825 -94 / 100;
#X obj 881 -113 spigot;
#X obj 827 22 tgl 15 0 empty empty Ctlin8 17 8 1 10 -33289 -260097
-1 0 1;
#X obj 881 -94 / 100;
#X obj 716 -133 ctlin 5;
#X obj 771 -133 ctlin 6;
#X obj 825 -132 ctlin 7;
#X obj 881 -132 ctlin 8;
#X obj 62 1 cnv 15 51 20 empty empty Bus1 8 12 1 14 -1 -260097 0;
#X obj 114 1 cnv 15 51 20 empty empty Bus2 8 12 1 14 -1 -260097 0;
#X obj 165 1 cnv 15 51 20 empty empty Bus3 8 12 1 14 -1 -260097 0;
#X obj 216 1 cnv 15 51 20 empty empty Bus4 8 12 1 14 -1 -260097 0;
#X obj 266 1 cnv 15 51 20 empty empty Bus5 8 12 1 14 -1 -260097 0;
#X obj 317 1 cnv 15 51 20 empty empty Bus6 8 12 1 14 -1 -260097 0;
#X obj 368 1 cnv 15 51 20 empty empty Bus7 8 12 1 14 -1 -260097 0;
#X obj 419 1 cnv 15 51 20 empty empty Bus8 8 12 1 14 -1 -260097 0;
#X obj 470 1 cnv 15 51 20 empty empty Bus9 8 12 1 14 -1 -260097 0;
#X obj 522 1 cnv 15 51 20 empty empty Bus10 6 12 1 14 -1 -260097 0
;
#X obj 572 1 cnv 15 51 20 empty empty Bus11 6 12 1 14 -1 -260097 0
;
#X obj 622 1 cnv 15 51 20 empty empty Bus12 6 12 1 14 -1 -260097 0
;
#X obj 673 1 cnv 15 51 20 empty empty Bus13 6 12 1 14 -1 -260097 0
;
#X obj 724 1 cnv 15 51 20 empty empty Bus14 6 12 1 14 -1 -260097 0
;
#X obj 775 1 cnv 15 51 20 empty empty Bus15 6 12 1 14 -1 -260097 0
;
#X obj 827 1 cnv 15 51 20 empty empty Bus16 6 12 1 14 -1 -260097 0
;
#X obj 8 1 cnv 15 53 20 empty empty Click 8 12 1 14 -1 -4034 0;
#X obj 0 1 cnv 15 10 225 empty empty empty 8 12 1 14 -1 -4034 0;
#X obj 879 1 cnv 15 15 225 empty empty empty 8 12 1 14 -1 -4034 0;
#X obj 0 207 cnv 12 894 70 empty empty empty 8 12 1 14 -1 -4034 0;
#X obj 40 -238 catch~ Bus1;
#X obj 100 -220 catch~ Bus2;
#X obj 163 -201 catch~ Bus3;
#X obj 221 -179 catch~ Bus4;
#X obj 231 -232 catch~ Bus5;
#X obj 291 -214 catch~ Bus6;
#X obj 354 -195 catch~ Bus7;
#X obj 412 -173 catch~ Bus8;
#X obj 423 -229 catch~ Bus9;
#X obj 483 -211 catch~ Bus10;
#X obj 546 -192 catch~ Bus11;
#X obj 604 -170 catch~ Bus12;
#X obj 614 -223 catch~ Bus13;
#X obj 674 -205 catch~ Bus14;
#X obj 737 -186 catch~ Bus15;
#X obj 795 -164 catch~ Bus16;
#X obj 73 469 outlet~;
#X obj 116 488 outlet~;
#X obj 163 511 outlet~;
#X obj 203 533 outlet~;
#X obj 299 474 outlet~;
#X obj 342 493 outlet~;
#X obj 389 516 outlet~;
#X obj 425 537 outlet~;
#X obj 509 477 outlet~;
#X obj 552 496 outlet~;
#X obj 599 519 outlet~;
#X obj 635 540 outlet~;
#X obj 702 474 outlet~;
#X obj 745 493 outlet~;
#X obj 792 516 outlet~;
#X obj 828 537 outlet~;
#X obj 918 506 outlet~;
#X obj 3 36 cnv 10 880 10 empty empty empty 8 12 1 14 -1 -4034 0;
#X obj -5 -176 catch~ click;
#N canvas 0 22 544 311 (subpatch) 0;
#X obj 160 178 tanh~;
#X obj 106 195 throw~ left;
#X obj 176 195 throw~ right;
#X obj -10 63 *~;
#X obj -8 -78 inlet~;
#X obj 1 0 cnv 15 400 47 empty empty click_to_route_to_direct_output_(no_effects)
5 42 1 11 -99865 -262144 0;
#X obj 5 16 tgl 15 0 empty empty C 4 -6 1 12 -1 -4034 -4034 0 1;
#X obj 13 88 *~;
#X obj 12 -51 inlet~;
#X obj 28 16 tgl 15 0 empty empty B1 2 -6 1 11 -1 -260097 -260097 0
1;
#X obj 37 107 *~;
#X obj 36 -32 inlet~;
#X obj 51 16 tgl 15 0 empty empty B2 2 -6 1 11 -1 -260097 -260097 0
1;
#X obj 60 88 *~;
#X obj 59 -51 inlet~;
#X obj 74 16 tgl 15 0 empty empty B3 2 -6 1 11 -1 -260097 -260097 0
1;
#X obj 83 107 *~;
#X obj 82 -32 inlet~;
#X obj 97 16 tgl 15 0 empty empty B4 2 -6 1 11 -1 -260097 -260097 0
1;
#X obj 106 88 *~;
#X obj 105 -51 inlet~;
#X obj 120 16 tgl 15 0 empty empty B5 2 -6 1 11 -1 -260097 -260097
0 1;
#X obj 128 107 *~;
#X obj 127 -32 inlet~;
#X obj 142 16 tgl 15 0 empty empty B6 2 -6 1 11 -1 -260097 -260097
0 1;
#X obj 151 88 *~;
#X obj 150 -51 inlet~;
#X obj 165 16 tgl 15 0 empty empty B7 2 -6 1 11 -1 -260097 -260097
0 1;
#X obj 174 107 *~;
#X obj 173 -32 inlet~;
#X obj 188 16 tgl 15 0 empty empty B8 2 -6 1 11 -1 -260097 -260097
0 1;
#X obj 198 88 *~;
#X obj 197 -51 inlet~;
#X obj 212 16 tgl 15 0 empty empty B9 2 -6 1 11 -1 -260097 -260097
0 1;
#X obj 220 107 *~;
#X obj 219 -32 inlet~;
#X obj 234 16 tgl 15 0 empty empty B10 -1 -6 1 11 -1 -260097 -260097
0 1;
#X obj 243 88 *~;
#X obj 242 -51 inlet~;
#X obj 258 16 tgl 15 0 empty empty B11 -1 -6 1 11 -1 -260097 -260097
0 1;
#X obj 267 107 *~;
#X obj 266 -32 inlet~;
#X obj 281 16 tgl 15 0 empty empty B12 -1 -6 1 11 -1 -260097 -260097
0 1;
#X obj 290 88 *~;
#X obj 289 -51 inlet~;
#X obj 305 16 tgl 15 0 empty empty B13 -1 -6 1 11 -1 -260097 -260097
0 1;
#X obj 315 107 *~;
#X obj 314 -32 inlet~;
#X obj 329 16 tgl 15 0 empty empty B14 -1 -6 1 11 -1 -260097 -260097
0 1;
#X obj 338 88 *~;
#X obj 337 -51 inlet~;
#X obj 353 16 tgl 15 0 empty empty B15 -1 -6 1 11 -1 -260097 -260097
0 1;
#X obj 361 109 *~;
#X obj 360 -30 inlet~;
#X obj 376 16 tgl 15 0 empty empty B16 -1 -6 1 11 -1 -260097 -260097
0 1;
#X connect 0 0 1 0;
#X connect 0 0 2 0;
#X connect 3 0 0 0;
#X connect 4 0 3 0;
#X connect 6 0 3 1;
#X connect 7 0 0 0;
#X connect 8 0 7 0;
#X connect 9 0 7 1;
#X connect 10 0 0 0;
#X connect 11 0 10 0;
#X connect 12 0 10 1;
#X connect 13 0 0 0;
#X connect 14 0 13 0;
#X connect 15 0 13 1;
#X connect 16 0 0 0;
#X connect 17 0 16 0;
#X connect 18 0 16 1;
#X connect 19 0 0 0;
#X connect 20 0 19 0;
#X connect 21 0 19 1;
#X connect 22 0 0 0;
#X connect 23 0 22 0;
#X connect 24 0 22 1;
#X connect 25 0 0 0;
#X connect 26 0 25 0;
#X connect 27 0 25 1;
#X connect 28 0 0 0;
#X connect 29 0 28 0;
#X connect 30 0 28 1;
#X connect 31 0 0 0;
#X connect 32 0 31 0;
#X connect 33 0 31 1;
#X connect 34 0 0 0;
#X connect 35 0 34 0;
#X connect 36 0 34 1;
#X connect 37 0 0 0;
#X connect 38 0 37 0;
#X connect 39 0 37 1;
#X connect 40 0 0 0;
#X connect 41 0 40 0;
#X connect 42 0 40 1;
#X connect 43 0 0 0;
#X connect 44 0 43 0;
#X connect 45 0 43 1;
#X connect 46 0 0 0;
#X connect 47 0 46 0;
#X connect 48 0 46 1;
#X connect 49 0 0 0;
#X connect 50 0 49 0;
#X connect 51 0 49 1;
#X connect 53 0 52 0;
#X connect 54 0 52 1;
#X coords 0 1 100 -1 400 47 1 0 0;
#X restore 242 210 graph;
#N canvas 0 22 450 300 (subpatch) 0;
#X obj 2 3 cnv 15 15 15 empty empty 1 3 8 0 14 -1 -260097 0;
#X obj 94 -46 inlet~;
#X obj 94 6 outlet~;
#X connect 1 0 2 0;
#X coords 0 1 100 -1 20 20 1 0 0;
#X restore 85 359 graph;
#N canvas 0 22 450 300 (subpatch) 0;
#X obj 2 3 cnv 15 15 15 empty empty 2 3 8 0 14 -1 -260097 0;
#X obj 94 -46 inlet~;
#X obj 94 6 outlet~;
#X connect 1 0 2 0;
#X coords 0 1 100 -1 20 20 1 0 0;
#X restore 133 360 graph;
#N canvas 0 22 450 300 (subpatch) 0;
#X obj 2 3 cnv 15 15 15 empty empty 3 3 8 0 14 -1 -260097 0;
#X obj 94 -46 inlet~;
#X obj 94 6 outlet~;
#X connect 1 0 2 0;
#X coords 0 1 100 -1 20 20 1 0 0;
#X restore 186 360 graph;
#N canvas 0 22 450 300 (subpatch) 0;
#X obj 2 3 cnv 15 15 15 empty empty 4 3 8 0 14 -1 -260097 0;
#X obj 94 -46 inlet~;
#X obj 94 6 outlet~;
#X connect 1 0 2 0;
#X coords 0 1 100 -1 20 20 1 0 0;
#X restore 238 360 graph;
#N canvas 0 22 450 300 (subpatch) 0;
#X obj 2 3 cnv 15 15 15 empty empty 5 3 8 0 14 -1 -260097 0;
#X obj 94 -46 inlet~;
#X obj 94 6 outlet~;
#X connect 1 0 2 0;
#X coords 0 1 100 -1 20 20 1 0 0;
#X restore 291 360 graph;
#N canvas 0 22 450 300 (subpatch) 0;
#X obj 2 3 cnv 15 15 15 empty empty 6 3 8 0 14 -1 -260097 0;
#X obj 94 -46 inlet~;
#X obj 94 6 outlet~;
#X connect 1 0 2 0;
#X coords 0 1 100 -1 20 20 1 0 0;
#X restore 343 360 graph;
#N canvas 0 22 450 300 (subpatch) 0;
#X obj 2 3 cnv 15 15 15 empty empty 7 3 8 0 14 -1 -260097 0;
#X obj 94 -46 inlet~;
#X obj 94 6 outlet~;
#X connect 1 0 2 0;
#X coords 0 1 100 -1 20 20 1 0 0;
#X restore 396 360 graph;
#N canvas 0 22 450 300 (subpatch) 0;
#X obj 2 3 cnv 15 15 15 empty empty 8 3 8 0 14 -1 -260097 0;
#X obj 94 -46 inlet~;
#X obj 94 6 outlet~;
#X connect 1 0 2 0;
#X coords 0 1 100 -1 20 20 1 0 0;
#X restore 447 360 graph;
#N canvas 0 22 450 300 (subpatch) 0;
#X obj 2 3 cnv 15 15 15 empty empty 9 3 8 0 14 -1 -260097 0;
#X obj 94 -46 inlet~;
#X obj 94 6 outlet~;
#X connect 1 0 2 0;
#X coords 0 1 100 -1 20 20 1 0 0;
#X restore 498 360 graph;
#N canvas 0 22 450 300 (subpatch) 0;
#X obj 1 3 cnv 15 20 15 empty empty 10 2 8 0 14 -1 -260097 0;
#X obj 94 -46 inlet~;
#X obj 94 6 outlet~;
#X connect 1 0 2 0;
#X coords 0 1 100 -1 22 20 1 0 0;
#X restore 548 360 graph;
#N canvas 0 22 450 300 (subpatch) 0;
#X obj 2 3 cnv 15 15 15 empty empty C 3 8 0 14 -1 -4034 0;
#X obj 94 -46 inlet~;
#X obj 94 6 outlet~;
#X connect 1 0 2 0;
#X coords 0 1 100 -1 20 20 1 0 0;
#X restore 30 360 graph;
#N canvas 0 22 450 300 (subpatch) 0;
#X obj 1 3 cnv 15 20 15 empty empty 11 2 8 0 14 -1 -260097 0;
#X obj 94 -46 inlet~;
#X obj 94 6 outlet~;
#X connect 1 0 2 0;
#X coords 0 1 100 -1 22 20 1 0 0;
#X restore 599 360 graph;
#N canvas 0 22 450 300 (subpatch) 0;
#X obj 1 3 cnv 15 20 15 empty empty 12 2 8 0 14 -1 -260097 0;
#X obj 94 -46 inlet~;
#X obj 94 6 outlet~;
#X connect 1 0 2 0;
#X coords 0 1 100 -1 22 20 1 0 0;
#X restore 652 360 graph;
#N canvas 0 22 450 300 (subpatch) 0;
#X obj 1 3 cnv 15 20 15 empty empty 13 2 8 0 14 -1 -260097 0;
#X obj 94 -46 inlet~;
#X obj 94 6 outlet~;
#X connect 1 0 2 0;
#X coords 0 1 100 -1 22 20 1 0 0;
#X restore 703 360 graph;
#N canvas 0 22 450 300 (subpatch) 0;
#X obj 1 3 cnv 15 20 15 empty empty 14 2 8 0 14 -1 -260097 0;
#X obj 94 -46 inlet~;
#X obj 94 6 outlet~;
#X connect 1 0 2 0;
#X coords 0 1 100 -1 22 20 1 0 0;
#X restore 755 360 graph;
#N canvas 0 22 450 300 (subpatch) 0;
#X obj 1 3 cnv 15 20 15 empty empty 15 2 8 0 14 -1 -260097 0;
#X obj 94 -46 inlet~;
#X obj 94 6 outlet~;
#X connect 1 0 2 0;
#X coords 0 1 100 -1 22 20 1 0 0;
#X restore 808 360 graph;
#N canvas 0 22 450 300 (subpatch) 0;
#X obj 1 3 cnv 15 20 15 empty empty 16 2 8 0 14 -1 -260097 0;
#X obj 94 -46 inlet~;
#X obj 94 6 outlet~;
#X connect 1 0 2 0;
#X coords 0 1 100 -1 22 20 1 0 0;
#X restore 857 360 graph;
#X obj 0 261 cnv 15 15 15 empty empty C 3 8 0 14 -1 -4034 0;
#X obj 53 260 cnv 15 15 15 empty empty 1 3 8 0 14 -1 -260097 0;
#X obj 108 260 cnv 15 15 15 empty empty 2 3 8 0 14 -1 -260097 0;
#X obj 163 260 cnv 15 15 15 empty empty 3 3 8 0 14 -1 -260097 0;
#X obj 217 260 cnv 15 15 15 empty empty 4 3 8 0 14 -1 -260097 0;
#X obj 273 260 cnv 15 15 15 empty empty 5 3 8 0 14 -1 -260097 0;
#X obj 327 260 cnv 15 15 15 empty empty 6 3 8 0 14 -1 -260097 0;
#X obj 386 260 cnv 15 15 15 empty empty 7 3 8 0 14 -1 -260097 0;
#X obj 441 260 cnv 15 15 15 empty empty 8 3 8 0 14 -1 -260097 0;
#X obj 497 259 cnv 15 15 15 empty empty 9 3 8 0 14 -1 -260097 0;
#X obj 545 259 cnv 15 15 15 empty empty 10 3 8 0 14 -1 -260097 0;
#X obj 604 259 cnv 15 15 15 empty empty 11 3 8 0 14 -1 -260097 0;
#X obj 658 260 cnv 15 15 15 empty empty 12 3 8 0 14 -1 -260097 0;
#X obj 712 260 cnv 15 15 15 empty empty 13 3 8 0 14 -1 -260097 0;
#X obj 768 260 cnv 15 15 15 empty empty 14 3 8 0 14 -1 -260097 0;
#X obj 822 261 cnv 15 15 15 empty empty 15 3 8 0 14 -1 -260097 0;
#X obj 874 261 cnv 15 15 15 empty empty 16 3 8 0 14 -1 -260097 0;
#X connect 1 0 119 0;
#X connect 1 0 137 1;
#X connect 1 1 2 2;
#X connect 1 1 3 2;
#X connect 1 1 4 2;
#X connect 1 1 5 2;
#X connect 1 1 6 2;
#X connect 1 1 7 2;
#X connect 1 1 8 2;
#X connect 1 1 9 2;
#X connect 1 1 10 2;
#X connect 1 1 11 2;
#X connect 1 1 12 2;
#X connect 1 1 13 2;
#X connect 1 1 14 2;
#X connect 1 1 15 2;
#X connect 1 1 16 2;
#X connect 1 1 17 2;
#X connect 2 0 120 0;
#X connect 2 0 137 2;
#X connect 2 1 1 2;
#X connect 2 1 3 2;
#X connect 2 1 4 2;
#X connect 2 1 5 2;
#X connect 2 1 6 2;
#X connect 2 1 7 2;
#X connect 2 1 8 2;
#X connect 2 1 9 2;
#X connect 2 1 10 2;
#X connect 2 1 11 2;
#X connect 2 1 12 2;
#X connect 2 1 13 2;
#X connect 2 1 14 2;
#X connect 2 1 15 2;
#X connect 2 1 16 2;
#X connect 2 1 17 2;
#X connect 3 0 121 0;
#X connect 3 0 137 3;
#X connect 3 1 1 2;
#X connect 3 1 2 2;
#X connect 3 1 4 2;
#X connect 3 1 5 2;
#X connect 3 1 6 2;
#X connect 3 1 7 2;
#X connect 3 1 8 2;
#X connect 3 1 9 2;
#X connect 3 1 10 2;
#X connect 3 1 11 2;
#X connect 3 1 12 2;
#X connect 3 1 13 2;
#X connect 3 1 14 2;
#X connect 3 1 15 2;
#X connect 3 1 16 2;
#X connect 3 1 17 2;
#X connect 4 0 122 0;
#X connect 4 0 137 4;
#X connect 4 1 1 2;
#X connect 4 1 2 2;
#X connect 4 1 3 2;
#X connect 4 1 5 2;
#X connect 4 1 6 2;
#X connect 4 1 7 2;
#X connect 4 1 8 2;
#X connect 4 1 9 2;
#X connect 4 1 10 2;
#X connect 4 1 11 2;
#X connect 4 1 14 2;
#X connect 4 1 15 2;
#X connect 4 1 16 2;
#X connect 4 1 13 2;
#X connect 4 1 12 2;
#X connect 4 1 17 2;
#X connect 5 0 123 0;
#X connect 5 0 137 5;
#X connect 5 1 6 2;
#X connect 5 1 7 2;
#X connect 5 1 8 2;
#X connect 5 1 1 2;
#X connect 5 1 2 2;
#X connect 5 1 3 2;
#X connect 5 1 4 2;
#X connect 5 1 9 2;
#X connect 5 1 10 2;
#X connect 5 1 11 2;
#X connect 5 1 12 2;
#X connect 5 1 13 2;
#X connect 5 1 14 2;
#X connect 5 1 15 2;
#X connect 5 1 16 2;
#X connect 5 1 17 2;
#X connect 6 0 124 0;
#X connect 6 0 137 6;
#X connect 6 1 1 2;
#X connect 6 1 3 2;
#X connect 6 1 4 2;
#X connect 6 1 5 2;
#X connect 6 1 7 2;
#X connect 6 1 8 2;
#X connect 6 1 11 2;
#X connect 6 1 12 2;
#X connect 6 1 9 2;
#X connect 6 1 10 2;
#X connect 6 1 13 2;
#X connect 6 1 14 2;
#X connect 6 1 15 2;
#X connect 6 1 16 2;
#X connect 6 1 17 2;
#X connect 6 1 2 2;
#X connect 7 0 125 0;
#X connect 7 0 137 7;
#X connect 7 1 1 2;
#X connect 7 1 2 2;
#X connect 7 1 3 2;
#X connect 7 1 4 2;
#X connect 7 1 5 2;
#X connect 7 1 6 2;
#X connect 7 1 8 2;
#X connect 7 1 9 2;
#X connect 7 1 10 2;
#X connect 7 1 11 2;
#X connect 7 1 12 2;
#X connect 7 1 13 2;
#X connect 7 1 14 2;
#X connect 7 1 15 2;
#X connect 7 1 16 2;
#X connect 7 1 17 2;
#X connect 8 0 126 0;
#X connect 8 0 137 8;
#X connect 8 1 1 2;
#X connect 8 1 2 2;
#X connect 8 1 3 2;
#X connect 8 1 4 2;
#X connect 8 1 5 2;
#X connect 8 1 6 2;
#X connect 8 1 7 2;
#X connect 8 1 9 2;
#X connect 8 1 10 2;
#X connect 8 1 11 2;
#X connect 8 1 13 2;
#X connect 8 1 12 2;
#X connect 8 1 14 2;
#X connect 8 1 15 2;
#X connect 8 1 16 2;
#X connect 8 1 17 2;
#X connect 9 0 127 0;
#X connect 9 0 137 9;
#X connect 9 1 10 2;
#X connect 9 1 11 2;
#X connect 9 1 12 2;
#X connect 9 1 13 2;
#X connect 9 1 14 2;
#X connect 9 1 15 2;
#X connect 9 1 16 2;
#X connect 9 1 8 2;
#X connect 9 1 7 2;
#X connect 9 1 6 2;
#X connect 9 1 5 2;
#X connect 9 1 4 2;
#X connect 9 1 2 2;
#X connect 9 1 1 2;
#X connect 9 1 3 2;
#X connect 9 1 17 2;
#X connect 10 0 128 0;
#X connect 10 0 137 10;
#X connect 10 1 9 2;
#X connect 10 1 11 2;
#X connect 10 1 12 2;
#X connect 10 1 13 2;
#X connect 10 1 14 2;
#X connect 10 1 15 2;
#X connect 10 1 16 2;
#X connect 10 1 8 2;
#X connect 10 1 7 2;
#X connect 10 1 6 2;
#X connect 10 1 5 2;
#X connect 10 1 2 2;
#X connect 10 1 1 2;
#X connect 10 1 3 2;
#X connect 10 1 4 2;
#X connect 10 1 17 2;
#X connect 11 0 129 0;
#X connect 11 0 137 11;
#X connect 11 1 9 2;
#X connect 11 1 10 2;
#X connect 11 1 12 2;
#X connect 11 1 13 2;
#X connect 11 1 14 2;
#X connect 11 1 15 2;
#X connect 11 1 16 2;
#X connect 11 1 8 2;
#X connect 11 1 7 2;
#X connect 11 1 6 2;
#X connect 11 1 5 2;
#X connect 11 1 4 2;
#X connect 11 1 3 2;
#X connect 11 1 2 2;
#X connect 11 1 1 2;
#X connect 11 1 17 2;
#X connect 12 0 130 0;
#X connect 12 0 137 12;
#X connect 12 1 9 2;
#X connect 12 1 10 2;
#X connect 12 1 11 2;
#X connect 12 1 13 2;
#X connect 12 1 14 2;
#X connect 12 1 15 2;
#X connect 12 1 16 2;
#X connect 12 1 8 2;
#X connect 12 1 7 2;
#X connect 12 1 6 2;
#X connect 12 1 5 2;
#X connect 12 1 4 2;
#X connect 12 1 3 2;
#X connect 12 1 2 2;
#X connect 12 1 1 2;
#X connect 12 1 17 2;
#X connect 13 0 131 0;
#X connect 13 0 137 13;
#X connect 13 1 14 2;
#X connect 13 1 15 2;
#X connect 13 1 16 2;
#X connect 13 1 9 2;
#X connect 13 1 10 2;
#X connect 13 1 11 2;
#X connect 13 1 12 2;
#X connect 13 1 8 2;
#X connect 13 1 6 2;
#X connect 13 1 5 2;
#X connect 13 1 7 2;
#X connect 13 1 1 2;
#X connect 13 1 3 2;
#X connect 13 1 4 2;
#X connect 13 1 2 2;
#X connect 13 1 17 2;
#X connect 14 0 132 0;
#X connect 14 0 137 14;
#X connect 14 1 9 2;
#X connect 14 1 11 2;
#X connect 14 1 12 2;
#X connect 14 1 13 2;
#X connect 14 1 15 2;
#X connect 14 1 16 2;
#X connect 14 1 8 2;
#X connect 14 1 7 2;
#X connect 14 1 6 2;
#X connect 14 1 5 2;
#X connect 14 1 4 2;
#X connect 14 1 3 2;
#X connect 14 1 2 2;
#X connect 14 1 1 2;
#X connect 14 1 10 2;
#X connect 14 1 17 2;
#X connect 15 0 133 0;
#X connect 15 0 137 15;
#X connect 15 1 9 2;
#X connect 15 1 10 2;
#X connect 15 1 11 2;
#X connect 15 1 12 2;
#X connect 15 1 13 2;
#X connect 15 1 14 2;
#X connect 15 1 16 2;
#X connect 15 1 1 2;
#X connect 15 1 2 2;
#X connect 15 1 3 2;
#X connect 15 1 4 2;
#X connect 15 1 5 2;
#X connect 15 1 6 2;
#X connect 15 1 7 2;
#X connect 15 1 8 2;
#X connect 15 1 17 2;
#X connect 16 0 134 0;
#X connect 16 0 137 16;
#X connect 16 1 9 2;
#X connect 16 1 10 2;
#X connect 16 1 11 2;
#X connect 16 1 12 2;
#X connect 16 1 13 2;
#X connect 16 1 14 2;
#X connect 16 1 15 2;
#X connect 16 1 1 2;
#X connect 16 1 2 2;
#X connect 16 1 3 2;
#X connect 16 1 4 2;
#X connect 16 1 5 2;
#X connect 16 1 6 2;
#X connect 16 1 7 2;
#X connect 16 1 8 2;
#X connect 16 1 17 2;
#X connect 17 0 118 0;
#X connect 17 0 137 0;
#X connect 17 1 1 2;
#X connect 17 1 2 2;
#X connect 17 1 3 2;
#X connect 17 1 4 2;
#X connect 17 1 5 2;
#X connect 17 1 6 2;
#X connect 17 1 7 2;
#X connect 17 1 8 2;
#X connect 17 1 9 2;
#X connect 17 1 10 2;
#X connect 17 1 11 2;
#X connect 17 1 12 2;
#X connect 17 1 13 2;
#X connect 17 1 14 2;
#X connect 17 1 15 2;
#X connect 17 1 16 2;
#X connect 18 0 21 0;
#X connect 19 0 18 0;
#X connect 20 0 18 1;
#X connect 21 0 1 0;
#X connect 22 0 24 0;
#X connect 23 0 22 1;
#X connect 24 0 2 0;
#X connect 25 0 22 0;
#X connect 26 0 28 0;
#X connect 27 0 26 1;
#X connect 28 0 3 0;
#X connect 29 0 31 0;
#X connect 30 0 29 1;
#X connect 31 0 4 0;
#X connect 32 0 26 0;
#X connect 33 0 29 0;
#X connect 34 0 36 0;
#X connect 35 0 34 1;
#X connect 36 0 5 0;
#X connect 37 0 39 0;
#X connect 38 0 37 1;
#X connect 39 0 6 0;
#X connect 40 0 42 0;
#X connect 41 0 40 1;
#X connect 42 0 7 0;
#X connect 43 0 45 0;
#X connect 44 0 43 1;
#X connect 45 0 8 0;
#X connect 46 0 34 0;
#X connect 47 0 37 0;
#X connect 48 0 40 0;
#X connect 49 0 43 0;
#X connect 50 0 53 0;
#X connect 51 0 50 0;
#X connect 52 0 50 1;
#X connect 53 0 9 0;
#X connect 54 0 56 0;
#X connect 55 0 54 1;
#X connect 56 0 10 0;
#X connect 57 0 54 0;
#X connect 58 0 60 0;
#X connect 59 0 58 1;
#X connect 60 0 11 0;
#X connect 61 0 63 0;
#X connect 62 0 61 1;
#X connect 63 0 12 0;
#X connect 64 0 58 0;
#X connect 65 0 61 0;
#X connect 66 0 68 0;
#X connect 67 0 66 1;
#X connect 68 0 13 0;
#X connect 69 0 71 0;
#X connect 70 0 69 1;
#X connect 71 0 14 0;
#X connect 72 0 74 0;
#X connect 73 0 72 1;
#X connect 74 0 15 0;
#X connect 75 0 77 0;
#X connect 76 0 75 1;
#X connect 77 0 16 0;
#X connect 78 0 66 0;
#X connect 79 0 69 0;
#X connect 80 0 72 0;
#X connect 81 0 75 0;
#X connect 102 0 1 1;
#X connect 103 0 2 1;
#X connect 104 0 3 1;
#X connect 105 0 4 1;
#X connect 106 0 5 1;
#X connect 107 0 6 1;
#X connect 108 0 7 1;
#X connect 109 0 8 1;
#X connect 110 0 9 1;
#X connect 111 0 10 1;
#X connect 112 0 11 1;
#X connect 113 0 12 1;
#X connect 114 0 13 1;
#X connect 115 0 14 1;
#X connect 116 0 15 1;
#X connect 117 0 16 1;
#X connect 136 0 17 1;
#X coords 0 1 100 -1 894 279 1 0 0;
#X restore -149 158 graph;
