#N canvas 0 22 574 513 10;
#X obj 104 112 cnv 15 42 154 empty empty empty 20 12 0 14 -233017 -66577
0;
#X obj 93 288 *~;
#X obj 106 115 vsl 20 128 0 1.2 0 1 \$0-v \$0-v empty 0 -9 0 10 -62784
-260818 -33289 10583 0;
#X obj 97 386 outlet~;
#X floatatom 106 248 5 0 0 0 - - -;
#X obj 40 49 inlet;
#X obj 110 47 inlet~;
#X obj 129 114 bng 15 1000 50 0 THIS_IS_HERE_TO_GET_RID_OF_THE_OUTLET
\$0-MUTE_TOGGLE M 4 8 1 9 -262144 -258699 -195568;
#X obj 185 394 line~;
#N canvas 155 140 555 350 mute 0;
#X obj 23 20 inlet;
#X obj 173 20 inlet;
#X obj 222 162 spigot;
#X obj 172 41 trigger bang bang;
#X obj 254 263 outlet;
#X msg 274 208 0;
#X obj 274 163 select 0;
#X obj 127 64 bang;
#X msg 127 85 set 1;
#X msg 65 283 color \$1 13 20;
#X obj 65 235 bang;
#X msg 98 255 15;
#X floatatom 50 101 5 0 0 0 - - -;
#X floatatom 195 253 5 0 0 0 - - -;
#X obj 222 208 float;
#X obj 247 102 tgl 15 0 empty empty empty 17 7 0 10 -262144 -1 -1 1
1;
#X obj 65 304 send \$0-MUTE_TOGGLE;
#X msg 435 256 set \$1;
#X obj 409 287 send \$0-v;
#X obj 356 91 inlet;
#X msg 320 226 0;
#X msg 65 255 0;
#X msg 354 226 18;
#X msg 340 256 color \$1 14 12;
#X connect 0 0 7 0;
#X connect 0 0 12 0;
#X connect 1 0 3 0;
#X connect 2 0 14 0;
#X connect 3 0 2 0;
#X connect 3 1 15 0;
#X connect 5 0 4 0;
#X connect 6 0 5 0;
#X connect 6 0 11 0;
#X connect 6 0 20 0;
#X connect 6 1 22 0;
#X connect 7 0 8 0;
#X connect 7 0 10 0;
#X connect 8 0 15 0;
#X connect 9 0 16 0;
#X connect 10 0 21 0;
#X connect 11 0 9 0;
#X connect 12 0 14 1;
#X connect 14 0 4 0;
#X connect 14 0 10 0;
#X connect 14 0 13 0;
#X connect 15 0 2 1;
#X connect 15 0 6 0;
#X connect 17 0 18 0;
#X connect 19 0 22 0;
#X connect 20 0 23 0;
#X connect 21 0 9 0;
#X connect 22 0 23 0;
#X connect 23 0 18 0;
#X restore 273 285 pd mute;
#X obj 188 374 pack 0 50;
#X msg 186 355 0;
#N canvas 542 251 482 356 slider 0;
#X obj 11 7 inlet;
#X obj 206 138 loadbang;
#X msg 206 278 set \$1;
#X obj 92 115 change;
#X msg 111 278 color \$1 20 12;
#X msg 7 86 slider \$1;
#X obj 93 57 route slider;
#X obj 92 226 select 0;
#X obj 180 309 send \$0-v;
#X obj 206 173 value \$0-GLOBAL_Slider;
#X msg 91 248 0;
#X msg 44 312 color \$1 14 12;
#X msg 125 248 18;
#X connect 0 0 5 0;
#X connect 0 0 3 0;
#X connect 1 0 9 0;
#X connect 2 0 8 0;
#X connect 3 0 2 0;
#X connect 3 0 7 0;
#X connect 3 0 9 0;
#X connect 4 0 8 0;
#X connect 5 0 6 0;
#X connect 6 0 3 0;
#X connect 7 0 10 0;
#X connect 7 1 12 0;
#X connect 9 0 2 0;
#X connect 9 0 7 0;
#X connect 10 0 4 0;
#X connect 11 0 8 0;
#X connect 12 0 4 0;
#X connect 12 0 11 0;
#X restore 133 280 pd slider;
#X obj 221 69 loadbang;
#X obj 258 113 f \$0;
#X floatatom 260 142 5 0 0 0 - - -;
#X obj 185 335 moses 0.011;
#X obj 129 131 bng 15 1000 50 0 THIS_IS_HERE_TO_GET_RID_OF_THE_OUTLET
\$0-solo-toggle S 4 8 1 9 -262144 -195568 -33289;
#X obj 168 6 inlet;
#X obj 335 226 outlet;
#N canvas 469 139 555 350 solo 0;
#X obj 173 20 inlet;
#X msg 274 208 0;
#X obj 274 163 select 0;
#X obj 247 102 tgl 15 0 empty empty empty 17 7 0 10 -262144 -1 -1 0
1;
#X msg 308 258 44;
#X obj 275 307 send \$0-solo-toggle;
#X msg 275 286 color \$1 20 12;
#X connect 0 0 3 0;
#X connect 1 0 6 0;
#X connect 2 0 1 0;
#X connect 2 1 4 0;
#X connect 3 0 2 0;
#X connect 4 0 6 0;
#X connect 6 0 5 0;
#X restore 374 184 pd solo;
#X msg 332 85 1;
#X connect 1 0 3 0;
#X connect 2 0 4 0;
#X connect 2 0 12 0;
#X connect 2 0 9 0;
#X connect 4 0 16 0;
#X connect 5 0 2 0;
#X connect 6 0 1 0;
#X connect 7 0 9 1;
#X connect 8 0 1 1;
#X connect 9 0 16 0;
#X connect 9 0 2 0;
#X connect 10 0 8 0;
#X connect 11 0 10 0;
#X connect 13 0 14 0;
#X connect 13 0 21 0;
#X connect 13 0 9 2;
#X connect 14 0 15 0;
#X connect 16 0 11 0;
#X connect 16 1 10 0;
#X connect 17 0 19 0;
#X connect 17 0 20 0;
#X connect 18 0 7 0;
#X connect 21 0 2 0;
#X coords 0 -1 1 1 51 170 2 100 100;
