#N canvas 178 22 657 719 12;
#X obj 16 584 unpack;
#X obj 16 536 pack;
#X obj 247 219 numset amp x;
#X obj 247 248 numset aa x;
#X obj 247 335 numset ar x;
#X obj 247 277 numset ad x;
#X obj 247 306 numset as x;
#N canvas 248 85 884 761 synth 0;
#X obj 114 588 synthvoice;
#X obj 114 561 synthvoice;
#X obj 114 534 synthvoice;
#X obj 114 507 synthvoice;
#X obj 114 480 synthvoice;
#X obj 114 453 synthvoice;
#X obj 114 426 synthvoice;
#X obj 114 399 synthvoice;
#X obj 40 91 t b f;
#X obj 22 185 f;
#X obj 44 130 + 1;
#X obj 44 158 mod 1e+06;
#X obj 317 670 outlet~;
#X obj 45 24 r syn-note;
#X obj 454 25 r syn-noteon;
#X text 445 652 todo: field to stamp note for later messages;
#X obj 22 212 + 1e+06;
#X obj 55 239 makenote;
#X obj 109 309 moses 1e+06;
#X obj 26 352 r all-off;
#X msg 26 377 stop;
#X obj 196 368 route 1 2 3 4 5 6 7 8 9 10 11 12 13 14 15 16;
#X obj 317 644 synthvoice;
#X obj 317 617 synthvoice;
#X obj 317 590 synthvoice;
#X obj 317 563 synthvoice;
#X obj 317 536 synthvoice;
#X obj 317 509 synthvoice;
#X obj 317 482 synthvoice;
#X obj 317 455 synthvoice;
#X obj 55 279 poly 16 1;
#X obj 45 54 unpack 0 0 0 0 0 0 0 0 0 0 0 0 0 0 0 0 0;
#X obj 455 51 unpack 0 0 0 0 0 0 0 0 0 0 0 0 0 0 0 0;
#X obj 196 339 pack 0 0 0 0 0 0 0 0 0 0 0 0 0 0 0 0 0;
#X connect 0 0 29 0;
#X connect 1 0 0 0;
#X connect 2 0 1 0;
#X connect 3 0 2 0;
#X connect 4 0 3 0;
#X connect 5 0 4 0;
#X connect 6 0 5 0;
#X connect 7 0 6 0;
#X connect 8 0 9 0;
#X connect 8 1 33 2;
#X connect 9 0 10 0;
#X connect 9 0 16 0;
#X connect 10 0 11 0;
#X connect 11 0 9 1;
#X connect 13 0 31 0;
#X connect 14 0 32 0;
#X connect 16 0 17 0;
#X connect 17 0 30 0;
#X connect 17 1 30 1;
#X connect 18 0 33 2;
#X connect 19 0 20 0;
#X connect 20 0 30 0;
#X connect 21 0 7 1;
#X connect 21 1 6 1;
#X connect 21 2 5 1;
#X connect 21 3 4 1;
#X connect 21 4 3 1;
#X connect 21 5 2 1;
#X connect 21 6 1 1;
#X connect 21 7 0 1;
#X connect 21 8 29 1;
#X connect 21 9 28 1;
#X connect 21 10 27 1;
#X connect 21 11 26 1;
#X connect 21 12 25 1;
#X connect 21 13 24 1;
#X connect 21 14 23 1;
#X connect 21 15 22 1;
#X connect 22 0 12 0;
#X connect 23 0 22 0;
#X connect 24 0 23 0;
#X connect 25 0 24 0;
#X connect 26 0 25 0;
#X connect 27 0 26 0;
#X connect 28 0 27 0;
#X connect 29 0 28 0;
#X connect 30 0 33 0;
#X connect 30 1 18 0;
#X connect 30 2 33 1;
#X connect 31 0 8 0;
#X connect 31 1 17 1;
#X connect 31 2 17 2;
#X connect 31 3 33 3;
#X connect 31 4 33 4;
#X connect 31 5 33 5;
#X connect 31 6 33 6;
#X connect 31 7 33 7;
#X connect 31 8 33 8;
#X connect 31 9 33 9;
#X connect 31 10 33 10;
#X connect 31 11 33 11;
#X connect 31 12 33 12;
#X connect 31 13 33 13;
#X connect 31 14 33 14;
#X connect 31 15 33 15;
#X connect 31 16 33 16;
#X connect 32 0 30 0;
#X connect 32 1 30 1;
#X connect 32 2 33 3;
#X connect 32 3 33 4;
#X connect 32 4 33 5;
#X connect 32 5 33 6;
#X connect 32 6 33 7;
#X connect 32 7 33 8;
#X connect 32 8 33 9;
#X connect 32 9 33 10;
#X connect 32 10 33 11;
#X connect 32 11 33 12;
#X connect 32 12 33 13;
#X connect 32 13 33 14;
#X connect 32 14 33 15;
#X connect 32 15 33 16;
#X connect 33 0 21 0;
#X restore 178 649 pd synth;
#X obj 24 560 r syn-midinoteon;
#X obj 16 649 s syn-noteon;
#N canvas 0 22 690 415 tables 0;
#X msg 107 49 bang;
#X obj 107 78 t b b;
#X obj 159 142 f;
#X obj 197 142 + 1;
#X msg 181 115 0;
#X obj 107 107 until;
#X obj 161 177 t f f;
#X obj 109 210 mtof;
#X obj 90 177 sel 129;
#X obj 109 237 tabwrite mtof;
#X text 48 15 patch to regenerate the mtof table;
#N canvas 0 22 450 300 (subpatch) 0;
#X array mtof 130 float 1;
#A 0 8.1758 8.66196 9.17702 9.72272 10.3009 10.9134 11.5623 12.2499
12.9783 13.75 14.5676 15.4339 16.3516 17.3239 18.354 19.4454 20.6017
21.8268 23.1247 24.4997 25.9565 27.5 29.1352 30.8677 32.7032 34.6478
36.7081 38.8909 41.2034 43.6535 46.2493 48.9994 51.9131 55 58.2705
61.7354 65.4064 69.2957 73.4162 77.7817 82.4069 87.3071 92.4986 97.9989
103.826 110 116.541 123.471 130.813 138.591 146.832 155.563 164.814
174.614 184.997 195.998 207.652 220 233.082 246.942 261.626 277.183
293.665 311.127 329.628 349.228 369.994 391.995 415.305 440 466.164
493.883 523.251 554.365 587.33 622.254 659.255 698.456 739.989 783.991
830.609 880 932.328 987.767 1046.5 1108.73 1174.66 1244.51 1318.51
1396.91 1479.98 1567.98 1661.22 1760 1864.66 1975.53 2093 2217.46 2349.32
2489.02 2637.02 2793.83 2959.96 3135.96 3322.44 3520 3729.31 3951.07
4186.01 4434.92 4698.64 4978.03 5274.04 5587.65 5919.91 6271.93 6644.88
7040 7458.62 7902.13 8372.02 8869.84 9397.27 9956.06 10548.1 11175.3
11839.8 12543.9 13289.8 14080;
#X coords 0 12000 130 0 200 100 1;
#X restore 381 116 graph;
#X text 391 224 ------ 130 samples ------;
#X text 590 209 0;
#X text 592 109 12000;
#X connect 0 0 1 0;
#X connect 1 0 5 0;
#X connect 1 1 4 0;
#X connect 2 0 3 0;
#X connect 2 0 6 0;
#X connect 2 0 8 0;
#X connect 3 0 2 1;
#X connect 4 0 2 1;
#X connect 5 0 2 0;
#X connect 6 0 7 0;
#X connect 6 1 9 1;
#X connect 7 0 9 0;
#X connect 8 0 5 1;
#X restore 108 649 pd tables;
#X obj 247 364 numset fil x;
#X obj 247 393 numset fb x;
#X obj 247 422 numset fa x;
#X obj 247 451 numset fd x;
#X obj 247 480 numset fs x;
#X obj 247 509 numset fr x;
#X obj 247 538 numset q x;
#X obj 246 31 preset preset1 x;
#X obj 246 78 preset preset2 x;
#X obj 246 124 preset preset3 x;
#X obj 246 171 preset preset4 x;
#X obj 248 567 numset 2nd x;
#X obj 16 626 pack 0 0 0 0 0 0 0 0 0 0 0 0 0 0 0 0;
#X text 349 225 amplitude;
#X text 338 252 amp attack time;
#X text 343 285 amp decay time;
#X text 346 311 amp sustain level (%);
#X text 346 337 amp release time;
#X text 352 368 filter sweep;
#X text 343 398 filter base pitch;
#X text 342 430 filter attack time;
#X text 342 456 filter decay time;
#X text 346 486 filter sustain;
#X text 346 513 filter release time;
#X text 351 541 q;
#X text 348 572 2nd osc detune;
#X text 342 602 2nd osc amp (%);
#X text 248 12 voice presets;
#X obj 248 596 numset 2pc x;
#N canvas 0 22 450 300 (subpatch) 0;
#X obj 59 155 inlet;
#X obj 3 89 inlet~;
#X obj 58 182 change;
#X msg 60 246 set \$1;
#X obj 60 227 tosymbol;
#X obj 59 204 sprintf Bus%d;
#X obj 3 282 throw~ Bus0;
#X obj 2 3 popup 124 25 #ffffff popup Bus0 Bus1 Bus2 Bus3 Bus4 Bus5
Bus6 Bus7 Bus8 Bus9 Bus10 Bus11 Bus12 Bus13 Bus14 Bus15 Bus16;
#X obj 1 32 route bang;
#X obj 154 202 *~;
#X obj 141 7 tgl 15 0 empty empty Dac 19 7 0 10 -262144 -1 -1 0 1;
#X obj 155 238 dac~;
#X obj 1 -49 loadbang;
#X text 59 -51 Bus0 mutes;
#X msg 1 -31 options Bus0 Bus1 Bus2 Bus3 Bus4 Bus5 Bus6 Bus7 Bus8 Bus9
Bus10 Bus11 Bus12 Bus13 Bus14 Bus15 Bus16;
#X connect 0 0 2 0;
#X connect 1 0 6 0;
#X connect 1 0 9 0;
#X connect 2 0 5 0;
#X connect 3 0 6 0;
#X connect 4 0 3 0;
#X connect 5 0 4 0;
#X connect 7 0 8 0;
#X connect 8 1 2 0;
#X connect 9 0 11 0;
#X connect 9 0 11 1;
#X connect 10 0 9 1;
#X connect 12 0 14 0;
#X connect 14 0 7 0;
#X coords 0 1 100 -1 180 30 1 0 0;
#X restore 178 672 graph;
#X obj 16 313 r note1;
#X obj 51 334 r vel1;
#X obj -36 472 notein;
#X floatatom 16 512 5 0 0 0 - - -;
#X floatatom 51 512 5 0 0 0 - - -;
#N canvas 0 22 450 300 (subpatch) 0;
#X obj -30 22 spigot;
#X obj 2 3 tgl 15 0 empty empty empty 17 7 0 10 -262144 -1 -1 0 1;
#X obj -58 0 inlet;
#X obj -54 54 outlet;
#X connect 0 0 3 0;
#X connect 1 0 0 1;
#X connect 2 0 0 0;
#X coords 0 1 100 -1 20 20 1 0 0;
#X restore 51 426 graph;
#N canvas 0 22 450 300 (subpatch) 0;
#X obj -30 22 spigot;
#X obj 2 3 tgl 15 0 empty empty empty 17 7 0 10 -262144 -1 -1 0 1;
#X obj -58 0 inlet;
#X obj -54 54 outlet;
#X connect 0 0 3 0;
#X connect 1 0 0 1;
#X connect 2 0 0 0;
#X coords 0 1 100 -1 20 20 1 0 0;
#X restore 16 426 graph;
#N canvas 0 22 450 300 (subpatch) 0;
#X obj -30 22 spigot;
#X obj 2 3 tgl 15 0 empty empty empty 17 7 0 10 -262144 -1 -1 0 1;
#X obj -58 0 inlet;
#X obj -54 54 outlet;
#X connect 0 0 3 0;
#X connect 1 0 0 1;
#X connect 2 0 0 0;
#X coords 0 1 100 -1 20 20 1 0 0;
#X restore -16 492 graph;
#N canvas 0 22 450 300 (subpatch) 0;
#X obj -30 22 spigot;
#X obj 2 3 tgl 15 0 empty empty empty 17 7 0 10 -262144 -1 -1 0 1;
#X obj -58 0 inlet;
#X obj -54 54 outlet;
#X connect 0 0 3 0;
#X connect 1 0 0 1;
#X connect 2 0 0 0;
#X coords 0 1 100 -1 20 20 1 0 0;
#X restore -36 492 graph;
#X connect 0 0 23 0;
#X connect 0 1 23 1;
#X connect 1 0 0 0;
#X connect 2 0 23 2;
#X connect 3 0 23 3;
#X connect 4 0 23 6;
#X connect 5 0 23 4;
#X connect 6 0 23 5;
#X connect 7 0 40 0;
#X connect 8 0 0 0;
#X connect 11 0 23 7;
#X connect 12 0 23 8;
#X connect 13 0 23 9;
#X connect 14 0 23 10;
#X connect 15 0 23 11;
#X connect 16 0 23 12;
#X connect 17 0 23 13;
#X connect 22 0 23 14;
#X connect 23 0 9 0;
#X connect 39 0 23 15;
#X connect 41 0 47 0;
#X connect 42 0 46 0;
#X connect 43 0 49 0;
#X connect 43 1 48 0;
#X connect 44 0 1 0;
#X connect 45 0 1 1;
#X connect 46 0 45 0;
#X connect 47 0 44 0;
#X connect 48 0 45 0;
#X connect 49 0 44 0;
