#N canvas 235 505 482 332 10;
#X obj 131 222 s pd;
#X msg 131 201 dsp \$1;
#X obj 131 121 r pd;
#X obj 131 141 route dsp;
#X obj 131 181 tgl 15 0 empty empty empty 0 -6 0 8 -262144 -1 -1 1
1;
#X text 140 41 schalter audio an / aus;
#X obj 101 101 hradio 15 1 0 4 empty empty empty 0 -6 0 8 -262144 -1
-1 1;
#X obj 101 101 cnv 15 60 15 empty \$0-dsp DSP_EIN 2 8 0 10 -1 -262144
0;
#X obj 101 161 bang;
#X msg 131 161 set \$1;
#X obj 193 236 s \$0-dsp;
#X obj 193 176 sel 0;
#X msg 193 196 label DSP_AUS \, color 10 22;
#X msg 218 216 label DSP_EIN \, color 22 0;
#X obj 101 80 inlet;
#X connect 1 0 0 0;
#X connect 2 0 3 0;
#X connect 3 0 9 0;
#X connect 3 0 11 0;
#X connect 4 0 1 0;
#X connect 4 0 11 0;
#X connect 6 0 8 0;
#X connect 8 0 4 0;
#X connect 9 0 4 0;
#X connect 11 0 12 0;
#X connect 11 1 13 0;
#X connect 12 0 10 0;
#X connect 13 0 10 0;
#X connect 14 0 6 0;
#X coords 0 -1 1 1 62 17 1 100 100;
