#N canvas 381 260 1013 598 10;
#X obj 28 48 inlet~;
#X floatatom 264 241 5 0 0 0 - - -;
#X msg 421 125 10;
#X floatatom 164 133 5 0 0 0 - - -;
#X obj 264 203 expr (($f1 - $f3) / $f2) - $f1 + $f3;
#X floatatom 421 159 5 0 0 0 - - -;
#X obj 421 100 loadbang;
#X floatatom 264 179 5 0 0 0 - - -;
#X obj 264 326 dbtorms;
#X floatatom 264 360 12 0 0 0 - - -;
#X floatatom 264 302 5 0 0 0 - - -;
#X obj 264 275 expr 100 + $f1;
#X obj 28 512 outlet~;
#X obj 28 485 *~;
#X obj 48 458 line~;
#X msg 48 434 \$1 20;
#X floatatom 229 130 5 0 0 0 - - -;
#X msg 229 327 1;
#X obj 229 180 bng 15 250 50 0 empty empty empty 0 -6 0 8 -262144 -1
-1;
#X msg 74 390 \$1 20;
#X floatatom 102 133 5 0 0 0 - - -;
#X obj 27 81 delwrite~ \$0-comp 100;
#X obj 229 97 env~ 64;
#X obj 28 181 delread~ \$0-comp 1.5;
#X obj 227 33 inlet;
#X obj 268 33 inlet;
#X text 165 118 reference;
#X text 101 117 threshold;
#X obj 302 68 \$1;
#X obj 311 42 loadbang;
#X obj 382 35 loadbang;
#X obj 373 61 \$2;
#X text 580 20 compress~: every amplitude that lies under a certain
threshold will be amplified to a reference amplitude.;
#X text 591 83 left inlet: signal to be compressed;
#X text 591 101 middle inlet / first argument: threshold in db;
#X text 588 117 right inlet / second argument: reference in db;
#X text 674 215 honk abstractions -- kreidler 2007;
#X text 717 235 www.kreidler-net.de;
#X text 590 136 outlet: compressed signal;
#X obj 229 155 moses 0;
#X connect 0 0 21 0;
#X connect 0 0 22 0;
#X connect 1 0 11 0;
#X connect 2 0 5 0;
#X connect 3 0 4 2;
#X connect 4 0 1 0;
#X connect 5 0 4 1;
#X connect 6 0 2 0;
#X connect 7 0 4 0;
#X connect 8 0 9 0;
#X connect 9 0 15 0;
#X connect 10 0 8 0;
#X connect 11 0 10 0;
#X connect 13 0 12 0;
#X connect 14 0 13 1;
#X connect 15 0 14 0;
#X connect 16 0 39 0;
#X connect 17 0 19 0;
#X connect 18 0 17 0;
#X connect 19 0 14 0;
#X connect 20 0 39 1;
#X connect 22 0 16 0;
#X connect 23 0 13 0;
#X connect 24 0 20 0;
#X connect 25 0 3 0;
#X connect 28 0 20 0;
#X connect 29 0 28 0;
#X connect 30 0 31 0;
#X connect 31 0 3 0;
#X connect 39 0 7 0;
#X connect 39 1 18 0;
#X coords 0 -1 1 1 122 50 1 100 100;
