#N canvas 401 527 548 355 8;
#X obj 13 12 cnv 15 1 1 empty \$0-cv >0 20 12 1 4 -262144 -1 0;
#X text 228 42 argument: font-size;
#X text 242 120 outlet: just puts out again the inlet;
#X text 263 283 www.kreidler-net.de;
#N canvas 0 0 458 308 display 0;
#X obj 135 134 makesymbol >%s;
#X obj 135 197 pack s s;
#X msg 135 176 label;
#X obj 135 219 route list;
#X obj 135 155 t b s;
#X obj 135 44 inlet;
#X msg 17 134 label_font 1 \$1;
#X obj 17 111 ii \$1;
#X obj 17 156 s \$0-cv;
#X obj 135 239 s \$0-cv;
#X obj 71 236 outlet;
#X obj 165 112 ii 0;
#X obj 135 72 route float;
#X obj 145 95 symbol;
#X obj 291 60 inlet;
#X connect 0 0 4 0;
#X connect 1 0 3 0;
#X connect 2 0 1 0;
#X connect 3 0 9 0;
#X connect 4 0 2 0;
#X connect 4 1 1 1;
#X connect 5 0 10 0;
#X connect 5 0 12 0;
#X connect 6 0 8 0;
#X connect 7 0 6 0;
#X connect 11 0 0 0;
#X connect 12 0 0 0;
#X connect 12 1 13 0;
#X connect 13 0 0 0;
#X connect 14 0 6 0;
#X restore 73 106 pd display;
#X obj 73 83 inlet;
#X obj 73 126 outlet;
#X obj 118 83 inlet;
#X text 241 81 left inlet: float or symbol;
#X text 241 96 right inlet: font-size;
#X text 226 264 honk abstractions -- kreidler 2007;
#N canvas 0 0 470 320 display 0;
#X obj 135 134 makesymbol >%s;
#X obj 135 197 pack s s;
#X msg 135 176 label;
#X obj 135 219 route list;
#X obj 135 155 t b s;
#X obj 135 44 inlet;
#X msg 17 134 label_font 1 \$1;
#X obj 71 236 outlet;
#X obj 165 112 ii 0;
#X obj 135 72 route float;
#X obj 145 95 symbol;
#X obj 291 60 inlet;
#X obj 135 239 s \$0-cvv;
#X obj 17 156 s \$0-cvv;
#X obj 13 12 cnv 15 1 1 empty \$0-cvv >hallo 20 12 1 39 -262144 -1
0;
#X obj 17 111 ii 55;
#X connect 0 0 4 0;
#X connect 1 0 3 0;
#X connect 2 0 1 0;
#X connect 3 0 12 0;
#X connect 4 0 2 0;
#X connect 4 1 1 1;
#X connect 5 0 7 0;
#X connect 5 0 9 0;
#X connect 6 0 13 0;
#X connect 8 0 0 0;
#X connect 9 0 0 0;
#X connect 9 1 10 0;
#X connect 10 0 0 0;
#X connect 11 0 6 0;
#X connect 15 0 6 0;
#X coords 0 -1 1 1 25 25 1 10 10;
#X restore 216 183 pd display;
#X obj 216 215 print;
#X floatatom 320 140 5 0 0 0 - - -;
#X floatatom 181 109 5 0 0 0 - - -;
#X msg 206 132 hello;
#X msg 222 153 symbol hallo;
#X text 154 8 display: displays a number or symbol in variable size
;
#X connect 4 0 6 0;
#X connect 5 0 4 0;
#X connect 7 0 4 1;
#X connect 11 0 12 0;
#X connect 13 0 11 1;
#X connect 14 0 11 0;
#X connect 15 0 11 0;
#X connect 16 0 11 0;
#X coords 0 -1 1 1 20 20 1 10 10;
