#N canvas 812 398 465 495 10;
#X msg 52 166 donecanvasdialog 1 -1 1 0 -1 1 1 \$1 \$2 \$3 \$4;
#X obj 52 141 pack f f f f;
#X floatatom 51 43 5 0 0 2 y-margin - -;
#X floatatom 15 34 5 0 0 2 x-margin - -;
#X floatatom 51 70 5 0 0 2 y-size - -;
#X floatatom 16 63 5 0 0 2 x-size - -;
#X obj 41 114 f;
#X obj 81 93 bang;
#X obj 49 338 makefilename pd-%s;
#X obj 97 435 remote;
#X obj 48 304 symbol \$1;
#X obj 51 206 t b a;
#X obj 100 381 glue;
#X obj 98 407 route list;
#X obj 97 255 list;
#X text 161 21 gop: comfortable graph-on-parent control;
#X text 229 246 Honk Abstractions -- Kreidler 2007;
#X text 277 279 www.kreidler-net.de;
#X text 131 52 argument: subpatch name or file name (if main patch)
;
#X connect 0 0 11 0;
#X connect 1 0 0 0;
#X connect 2 0 1 3;
#X connect 2 0 7 0;
#X connect 3 0 1 2;
#X connect 3 0 7 0;
#X connect 4 0 1 1;
#X connect 4 0 7 0;
#X connect 5 0 6 0;
#X connect 6 0 1 0;
#X connect 7 0 6 0;
#X connect 8 0 12 0;
#X connect 10 0 8 0;
#X connect 11 0 10 0;
#X connect 11 1 14 0;
#X connect 12 0 13 0;
#X connect 13 0 9 0;
#X connect 14 0 12 1;
#X coords 0 -1 1 1 90 90 1 10 0;
