#N canvas 366 297 937 522 12;
#X text 78 28 amp:;
#X text 77 83 argument: factor for amplitude (by default 1);
#X text 450 386 honk abstractions -- kreidler 2007;
#X text 529 422 www.kreidler-net.de;
#X text 77 111 left inlet: audio input;
#X text 78 54 comfortable potentiometer (exponential);
#X text 78 134 middle inlet: factor;
#X text 77 162 right inlet: multiplication;
#X text 74 212 outlet: audio output;
#X obj 470 266 unsig~ 10;
#X floatatom 470 295 5 0 0 0 - - -;
#X floatatom 610 183 5 0 0 0 - - -;
#X text 611 162 0-1;
#X obj 470 159 sig~ 1;
#X msg 535 176 5;
#X text 78 187 radio: multiplication factor 1 / 2 / 10;
#X obj 470 213 hamp;
#X obj 695 265 unsig~ 10;
#X floatatom 695 294 5 0 0 0 - - -;
#X obj 695 158 sig~ 1;
#X obj 695 210 hamp 4;
#X connect 9 0 10 0;
#X connect 11 0 16 2;
#X connect 13 0 16 0;
#X connect 14 0 16 1;
#X connect 16 0 9 0;
#X connect 17 0 18 0;
#X connect 19 0 20 0;
#X connect 20 0 17 0;
#X coords 0 0 1 1 137 36 0;
