#N canvas 410 475 937 522 12;
#X obj 33 226 *~;
#X obj 54 110 line~;
#X msg 54 85 \$1 20;
#X obj 57 38 hsl 128 12 0 1 0 0 empty empty empty -2 -6 0 8 -262144
-1 -1 7700 0;
#X obj 15 -9 inlet~;
#X obj 32 255 outlet~;
#X obj 54 144 *~;
#X obj 214 4 inlet;
#X obj 181 139 \$1;
#X obj 181 113 loadbang;
#X text 319 39 amp:;
#X text 318 94 argument: factor for amplitude (by default 1);
#X text 450 386 honk abstractions -- kreidler 2007;
#X text 529 422 www.kreidler-net.de;
#X obj 173 189 route 0;
#X msg 173 220 1;
#X obj 176 53 inlet;
#X text 318 122 left inlet: audio input;
#X text 319 65 comfortable potentiometer (exponential);
#X text 319 145 middle inlet: factor;
#X text 318 173 right inlet: multiplication;
#X text 315 223 outlet: audio output;
#X obj 683 280 unsig~ 10;
#X floatatom 683 318 5 0 0 0 - - -;
#X floatatom 823 206 5 0 0 0 - - -;
#X text 824 185 0-1;
#X obj 685 182 sig~ 1;
#X obj 140 12 mute;
#X obj 243 404 f;
#X msg 278 261 0;
#X obj 243 232 sel 0;
#X obj 280 417 bng 15 250 50 0 empty empty empty 0 -6 0 8 -262144 -1
-1;
#X obj 279 374 spigot;
#X obj 279 306 t f f;
#X obj 314 345 > 0;
#X obj 53 190 *~ 1;
#X obj 123 87 route 0 1 2;
#X msg 105 282 1;
#X msg 140 283 2;
#X msg 180 281 10;
#X msg 748 199 5;
#X text 319 198 radio: multiplication factor 1 / 2 / 10;
#N canvas 0 0 462 457 hamp 0;
#X obj 33 226 *~;
#X obj 54 110 line~;
#X msg 54 85 \$1 20;
#X obj 57 32 hsl 128 12 0 1 0 0 empty empty empty -2 -6 0 8 -262144
-1 -1 0 0;
#X obj 15 -9 inlet~;
#X obj 32 255 outlet~;
#X obj 54 144 *~;
#X obj 214 4 inlet;
#X obj 181 139 \$1;
#X obj 181 113 loadbang;
#X obj 173 189 route 0;
#X msg 173 220 1;
#X obj 176 53 inlet;
#X obj 140 13 mute;
#X obj 243 404 f;
#X msg 278 261 0;
#X obj 243 232 sel 0;
#X obj 280 417 bng 15 250 50 0 empty empty empty 0 -6 0 8 -262144 -1
-1;
#X obj 279 374 spigot;
#X obj 279 306 t f f;
#X obj 314 345 > 0;
#X obj 93 13 hradio 15 1 0 3 empty empty empty 0 -6 0 8 -262144 -1
-1 0;
#X obj 53 190 *~ 1;
#X obj 123 87 route 0 1 2;
#X msg 105 282 1;
#X msg 140 283 2;
#X msg 180 281 10;
#X connect 0 0 5 0;
#X connect 1 0 6 0;
#X connect 1 0 6 1;
#X connect 2 0 1 0;
#X connect 3 0 19 0;
#X connect 3 0 2 0;
#X connect 4 0 0 0;
#X connect 6 0 22 0;
#X connect 7 0 3 0;
#X connect 8 0 10 0;
#X connect 9 0 8 0;
#X connect 10 0 11 0;
#X connect 10 1 22 1;
#X connect 11 0 22 1;
#X connect 12 0 22 1;
#X connect 13 0 16 0;
#X connect 14 0 3 0;
#X connect 15 0 3 0;
#X connect 16 0 14 0;
#X connect 16 1 15 0;
#X connect 17 0 13 0;
#X connect 18 0 17 0;
#X connect 18 0 14 1;
#X connect 19 0 18 0;
#X connect 19 1 20 0;
#X connect 20 0 18 1;
#X connect 21 0 23 0;
#X connect 22 0 0 1;
#X connect 23 0 24 0;
#X connect 23 1 25 0;
#X connect 23 2 26 0;
#X connect 24 0 22 1;
#X connect 25 0 22 1;
#X connect 26 0 22 1;
#X coords 0 -1 1 1 136 36 1 53 11;
#X restore 684 234 pd hamp;
#X obj 130 12 vradio 8 1 0 3 empty empty empty 0 -6 0 8 -262144 -1
-1 0;
#X connect 0 0 5 0;
#X connect 1 0 6 0;
#X connect 1 0 6 1;
#X connect 2 0 1 0;
#X connect 3 0 33 0;
#X connect 3 0 2 0;
#X connect 4 0 0 0;
#X connect 6 0 35 0;
#X connect 7 0 3 0;
#X connect 8 0 14 0;
#X connect 9 0 8 0;
#X connect 14 0 15 0;
#X connect 14 1 35 1;
#X connect 15 0 35 1;
#X connect 16 0 35 1;
#X connect 22 0 23 0;
#X connect 24 0 42 2;
#X connect 26 0 42 0;
#X connect 27 0 30 0;
#X connect 28 0 3 0;
#X connect 29 0 3 0;
#X connect 30 0 28 0;
#X connect 30 1 29 0;
#X connect 31 0 27 0;
#X connect 32 0 31 0;
#X connect 32 0 28 1;
#X connect 33 0 32 0;
#X connect 33 1 34 0;
#X connect 34 0 32 1;
#X connect 35 0 0 1;
#X connect 36 0 37 0;
#X connect 36 1 38 0;
#X connect 36 2 39 0;
#X connect 37 0 35 1;
#X connect 38 0 35 1;
#X connect 39 0 35 1;
#X connect 40 0 42 1;
#X connect 42 0 22 0;
#X connect 43 0 36 0;
#X coords 0 -1 1 1 137 42 1 52 10;
