#N canvas 363 430 1101 511 12;
#X obj 60 250 outlet;
#X obj 60 89 inlet;
#X floatatom 311 257 5 0 0 0 - - -;
#X obj 454 239 s \$0-cv;
#X obj 259 83 namecanvas \$0-cv;
#X floatatom 566 117 5 0 0 0 - - -;
#X obj 310 148 \$1;
#X obj 308 120 loadbang;
#X obj 308 175 route 0;
#X text 600 402 honk abstractions -- kreidler 2007;
#X text 666 445 www.kreidler-net.de;
#X obj 60 123 hradio 15 1 0 3 \$0-r1 \$0-r empty 0 -6 0 8 -262144 -1
-1 0;
#X msg 311 291 number \$1;
#X obj 311 321 s \$0-r;
#X msg 454 210 donecanvasdialog 1 -1 1 0 -1 1 1 \$1 16 59 120;
#X obj 564 153 expr (15 * $f1)+3;
#X text 560 288 hr - easy horizontal radio;
#X msg 315 212 8;
#X text 554 322 like horizontal radio \, but number of buttons can
be given by argument (by default 8);
#X connect 1 0 11 0;
#X connect 2 0 12 0;
#X connect 2 0 5 0;
#X connect 5 0 15 0;
#X connect 6 0 8 0;
#X connect 7 0 6 0;
#X connect 8 0 17 0;
#X connect 8 1 2 0;
#X connect 11 0 0 0;
#X connect 12 0 13 0;
#X connect 14 0 3 0;
#X connect 15 0 14 0;
#X connect 17 0 2 0;
#X coords 0 -1 1 1 49 18 1 59 120;
