#N canvas 476 364 615 243 10;
#X obj 19 37 hsl 128 15 0 0 0 0 empty \$0-hs empty -2 -6 0 8 -262144
-1 -1 0 0;
#X obj 16 59 outlet;
#X obj 165 171 s \$0-hs;
#X msg 165 145 range \$1 \$2;
#X obj 165 119 pack f f;
#X obj 178 29 ii \$1;
#X obj 183 50 ii \$2;
#X obj 183 73 t b f;
#X obj 165 98 f;
#X text 269 17 hs: horizontal slider with range as arguments;
#X text 277 42 2 arguments: left border / right border;
#X text 349 119 Honk Abstractions -- Kreidler 2007;
#X text 390 144 www.kreidler-net.de;
#X obj 16 0 inlet;
#X connect 0 0 1 0;
#X connect 3 0 2 0;
#X connect 4 0 3 0;
#X connect 5 0 8 1;
#X connect 6 0 7 0;
#X connect 7 0 8 0;
#X connect 7 1 4 1;
#X connect 8 0 4 0;
#X connect 13 0 0 0;
#X coords 0 -1 1 1 140 35 1 10 20;
