#N canvas 754 428 760 599 12;
#N canvas 1171 109 546 858 klist 0;
#X obj 111 246 textfile;
#X msg 44 184 bang;
#X msg 146 201 rewind;
#X obj 111 272 niagara 1;
#X obj 175 487 f;
#X obj 156 519 -;
#X msg 214 457 0;
#X obj 124 443 t f f b;
#X obj 156 590 del 0;
#X obj 156 564 t b f;
#X obj 159 699 remote;
#X obj 159 643 l;
#X obj 124 616 t b b;
#X obj 159 667 route list;
#X obj 111 134 t b b b;
#X obj 111 103 inlet;
#X obj 211 148 pack s s;
#X obj 211 175 prepend set;
#X obj 211 103 bng 15 250 50 0 empty empty empty 0 -6 0 8 -262144 -1
-1;
#X obj 211 71 a2l;
#X obj 211 14 inlet;
#X msg 211 123 symbol read;
#X msg 211 202 read commands1.txt;
#X obj 211 43 openpanel;
#X obj 279 452 outlet;
#X obj 292 359 sel 0;
#X msg 292 389 0;
#X obj 292 333 f;
#X obj 111 313 moses;
#X obj 96 360 bang;
#X obj 94 386 del 0;
#X obj 300 282 \$1;
#X obj 300 240 loadbang;
#X obj 376 246 inlet;
#X msg 223 564 stop;
#X obj 423 490 inlet;
#X connect 0 0 3 0;
#X connect 0 1 24 0;
#X connect 1 0 0 0;
#X connect 2 0 0 0;
#X connect 3 0 28 0;
#X connect 3 1 11 1;
#X connect 4 0 5 1;
#X connect 5 0 9 0;
#X connect 6 0 4 1;
#X connect 7 0 4 1;
#X connect 7 1 5 0;
#X connect 7 2 4 0;
#X connect 8 0 12 0;
#X connect 9 0 8 0;
#X connect 9 1 8 1;
#X connect 11 0 13 0;
#X connect 12 0 1 0;
#X connect 12 1 11 0;
#X connect 13 0 10 0;
#X connect 14 0 1 0;
#X connect 14 1 2 0;
#X connect 14 2 22 0;
#X connect 14 2 6 0;
#X connect 14 2 27 0;
#X connect 15 0 14 0;
#X connect 16 0 17 0;
#X connect 17 0 22 0;
#X connect 18 0 21 0;
#X connect 19 0 16 1;
#X connect 19 0 18 0;
#X connect 20 0 23 0;
#X connect 21 0 16 0;
#X connect 22 0 0 0;
#X connect 23 0 19 0;
#X connect 25 0 26 0;
#X connect 26 0 6 0;
#X connect 27 0 25 0;
#X connect 28 0 29 0;
#X connect 28 1 7 0;
#X connect 29 0 30 0;
#X connect 30 0 1 0;
#X connect 31 0 27 1;
#X connect 31 0 28 1;
#X connect 32 0 31 0;
#X connect 33 0 31 0;
#X connect 34 0 8 0;
#X connect 35 0 34 0;
#X restore 23 64 pd klist;
#X obj 67 32 inlet;
#X obj 23 32 inlet;
#X text 233 3 klist: text-based sequencer with absolute time destinations
;
#X obj 406 243 bng 15 250 50 0 empty empty empty 0 -6 0 8 -262144 -1
-1;
#X obj 350 344 r mic;
#X floatatom 350 372 5 0 0 0 - - -;
#X floatatom 426 382 5 0 0 0 - - -;
#X obj 426 354 r tic;
#X floatatom 513 361 5 0 0 0 - - -;
#X obj 513 333 r lic;
#X text 356 219 then start!;
#X text 569 206 it contains:;
#X text 569 226 0 mic 2222 \; 1000 tic 3333 \; 3000 lic 5555 \; 3500
mic 1111;
#X obj 152 403 qlist;
#X text 121 373 see also:;
#X text 352 448 honk abstractions -- kreidler 2007;
#X text 422 476 www.kreidler-net.de;
#X obj 465 190 bng 15 250 50 0 empty empty empty 0 -6 0 8 -262144 -1
-1;
#X text 451 159 first load the textfile "klist.txt";
#X obj 406 300 bng 15 250 50 0 empty empty empty 0 -6 0 8 -262144 -1
-1;
#X text 433 299 bang when finished;
#X obj 23 90 outlet;
#X text 226 136 output: bang when finished;
#X obj 111 32 inlet;
#X floatatom 465 241 5 0 0 0 - - -;
#X text 457 222 offset (ms);
#X obj 156 32 inlet;
#X text 230 40 first input: bang to start;
#X text 230 66 second input: bang to select textfile;
#X text 229 88 third input: offset (ms);
#X text 228 109 fourth input: bang to stop;
#N canvas 1171 109 546 858 klist 0;
#X obj 111 246 textfile;
#X msg 44 184 bang;
#X msg 146 201 rewind;
#X obj 111 272 niagara 1;
#X obj 175 487 f;
#X obj 156 519 -;
#X msg 214 457 0;
#X obj 124 443 t f f b;
#X obj 156 590 del 0;
#X obj 156 564 t b f;
#X obj 159 699 remote;
#X obj 159 643 l;
#X obj 124 616 t b b;
#X obj 159 667 route list;
#X obj 111 134 t b b b;
#X obj 111 103 inlet;
#X obj 211 148 pack s s;
#X obj 211 175 prepend set;
#X obj 211 103 bng 15 250 50 0 empty empty empty 0 -6 0 8 -262144 -1
-1;
#X obj 211 71 a2l;
#X obj 211 14 inlet;
#X msg 211 123 symbol read;
#X msg 211 202 read commands1.txt;
#X obj 211 43 openpanel;
#X obj 279 452 outlet;
#X obj 292 359 sel 0;
#X msg 292 389 0;
#X obj 292 333 f;
#X obj 111 313 moses;
#X obj 96 360 bang;
#X obj 94 386 del 0;
#X obj 300 282 \$1;
#X obj 300 240 loadbang;
#X obj 376 246 inlet;
#X msg 223 564 stop;
#X obj 423 490 inlet;
#X connect 0 0 3 0;
#X connect 0 1 24 0;
#X connect 1 0 0 0;
#X connect 2 0 0 0;
#X connect 3 0 28 0;
#X connect 3 1 11 1;
#X connect 4 0 5 1;
#X connect 5 0 9 0;
#X connect 6 0 4 1;
#X connect 7 0 4 1;
#X connect 7 1 5 0;
#X connect 7 2 4 0;
#X connect 8 0 12 0;
#X connect 9 0 8 0;
#X connect 9 1 8 1;
#X connect 11 0 13 0;
#X connect 12 0 1 0;
#X connect 12 1 11 0;
#X connect 13 0 10 0;
#X connect 14 0 1 0;
#X connect 14 1 2 0;
#X connect 14 2 22 0;
#X connect 14 2 6 0;
#X connect 14 2 27 0;
#X connect 15 0 14 0;
#X connect 16 0 17 0;
#X connect 17 0 22 0;
#X connect 18 0 21 0;
#X connect 19 0 16 1;
#X connect 19 0 18 0;
#X connect 20 0 23 0;
#X connect 21 0 16 0;
#X connect 22 0 0 0;
#X connect 23 0 19 0;
#X connect 25 0 26 0;
#X connect 26 0 6 0;
#X connect 27 0 25 0;
#X connect 28 0 29 0;
#X connect 28 1 7 0;
#X connect 29 0 30 0;
#X connect 30 0 1 0;
#X connect 31 0 27 1;
#X connect 31 0 28 1;
#X connect 32 0 31 0;
#X connect 33 0 31 0;
#X connect 34 0 8 0;
#X connect 35 0 34 0;
#X restore 406 263 pd klist;
#X obj 480 265 bng 15 250 50 0 empty empty empty 0 -6 0 8 -262144 -1
-1;
#X text 503 263 stop;
#X connect 0 0 22 0;
#X connect 1 0 0 1;
#X connect 2 0 0 0;
#X connect 4 0 32 0;
#X connect 5 0 6 0;
#X connect 8 0 7 0;
#X connect 10 0 9 0;
#X connect 18 0 32 1;
#X connect 24 0 0 2;
#X connect 25 0 32 2;
#X connect 27 0 0 3;
#X connect 32 0 20 0;
#X connect 33 0 32 3;
