#N canvas 773 158 492 609 12;
#N canvas 0 0 485 593 linvert 0;
#X obj 157 102 length;
#X obj 57 389 packel;
#X obj 62 197 f;
#X obj 117 315 f;
#X obj 110 259 t b f f;
#X obj 223 383 spigot;
#X msg 274 359 1;
#X msg 310 359 0;
#X obj 60 327 l;
#X obj 86 355 t b f;
#X obj 64 228 - 1;
#X obj 133 219 + 1;
#X obj 111 62 t b a b;
#X obj 261 133 list;
#X msg 194 440 clear;
#X msg 290 443 flush;
#X obj 57 113 t b b;
#X obj 210 298 sel 0;
#X obj 67 510 outlet;
#X obj 126 26 inlet;
#X obj 64 471 listerize-fifo;
#X connect 0 0 11 0;
#X connect 1 0 20 0;
#X connect 2 0 10 0;
#X connect 3 0 9 0;
#X connect 3 0 2 0;
#X connect 4 0 5 0;
#X connect 4 1 17 0;
#X connect 4 2 3 1;
#X connect 5 0 3 0;
#X connect 6 0 5 1;
#X connect 7 0 5 1;
#X connect 8 0 1 0;
#X connect 9 0 8 0;
#X connect 9 1 1 1;
#X connect 10 0 4 0;
#X connect 11 0 2 1;
#X connect 12 0 16 0;
#X connect 12 1 0 0;
#X connect 12 1 13 0;
#X connect 12 2 6 0;
#X connect 12 2 14 0;
#X connect 13 0 8 1;
#X connect 14 0 20 1;
#X connect 15 0 20 1;
#X connect 16 0 15 0;
#X connect 16 1 2 0;
#X connect 17 0 7 0;
#X connect 19 0 12 0;
#X connect 20 0 18 0;
#X restore 64 234 pd linvert;
#X obj 64 199 inlet;
#X obj 64 265 outlet;
#N canvas 0 0 485 593 linvert 0;
#X obj 157 102 length;
#X obj 57 389 packel;
#X obj 62 197 f;
#X obj 117 315 f;
#X obj 110 259 t b f f;
#X obj 223 383 spigot;
#X msg 274 359 1;
#X msg 310 359 0;
#X obj 60 327 l;
#X obj 86 355 t b f;
#X obj 64 228 - 1;
#X obj 133 219 + 1;
#X obj 111 62 t b a b;
#X obj 261 133 list;
#X msg 194 440 clear;
#X msg 290 443 flush;
#X obj 57 113 t b b;
#X obj 210 298 sel 0;
#X obj 67 510 outlet;
#X obj 126 26 inlet;
#X obj 64 471 listerize-fifo;
#X connect 0 0 11 0;
#X connect 1 0 20 0;
#X connect 2 0 10 0;
#X connect 3 0 9 0;
#X connect 3 0 2 0;
#X connect 4 0 5 0;
#X connect 4 1 17 0;
#X connect 4 2 3 1;
#X connect 5 0 3 0;
#X connect 6 0 5 1;
#X connect 7 0 5 1;
#X connect 8 0 1 0;
#X connect 9 0 8 0;
#X connect 9 1 1 1;
#X connect 10 0 4 0;
#X connect 11 0 2 1;
#X connect 12 0 16 0;
#X connect 12 1 0 0;
#X connect 12 1 13 0;
#X connect 12 2 6 0;
#X connect 12 2 14 0;
#X connect 13 0 8 1;
#X connect 14 0 20 1;
#X connect 15 0 20 1;
#X connect 16 0 15 0;
#X connect 16 1 2 0;
#X connect 17 0 7 0;
#X connect 19 0 12 0;
#X connect 20 0 18 0;
#X restore 281 260 pd linvert;
#X msg 281 234 now order new my;
#X obj 281 291 print;
#X text 24 31 linvert: inverts order of atoms of a list;
#X text 247 159 inlet: list;
#X text 242 331 outlet: new list;
#X text 168 434 Honk Abstractions -- Kreidler 2007;
#X text 250 483 www.kreidler-net.de;
#X connect 0 0 2 0;
#X connect 1 0 0 0;
#X connect 3 0 5 0;
#X connect 4 0 3 0;
