#N canvas 714 58 724 920 12;
#N canvas 0 0 633 777 listerize-fifo 0;
#X obj 168 556 demux 0 1;
#X obj 210 457 f;
#X obj 216 486 + 1;
#X obj 216 518 moses 2;
#X msg 247 428 -1;
#X obj 134 303 symbol;
#X obj 164 434 bng 15 250 50 0 empty empty empty 0 -6 0 8 -262144 -1
-1;
#X obj 450 250 bng 15 250 50 0 empty empty empty 0 -6 0 8 -262144 -1
-1;
#X floatatom 286 557 5 0 0 0 - - -;
#X obj 196 636 glue;
#X obj 226 601 list;
#X obj 259 668 list;
#X obj 208 692 l;
#X obj 92 656 bng 15 250 50 0 empty empty empty 0 -6 0 8 -262144 -1
-1;
#X obj 199 666 list;
#X obj 348 429 lifop;
#X obj 477 322 f;
#X obj 461 357 + 1;
#X msg 547 345 0;
#X obj 473 299 bng 15 250 50 0 empty empty empty 0 -6 0 8 -262144 -1
-1;
#X obj 381 402 kalashnikov;
#X obj 45 418 t b b;
#X obj 351 462 t s b;
#X text 452 220 clear;
#X obj 42 376 bng 15 250 50 0 empty empty empty 0 -6 0 8 -262144 -1
-1;
#X text 38 346 flush;
#X obj 154 240 inlet;
#X obj 391 148 inlet;
#X obj 392 178 symbol;
#X obj 384 203 sel clear;
#X obj 306 207 sel flush;
#X obj 223 734 outlet;
#X connect 0 0 10 0;
#X connect 0 1 9 0;
#X connect 1 0 2 0;
#X connect 2 0 3 0;
#X connect 2 0 1 1;
#X connect 3 0 0 1;
#X connect 3 0 8 0;
#X connect 4 0 1 1;
#X connect 5 0 15 0;
#X connect 5 0 19 0;
#X connect 6 0 1 0;
#X connect 7 0 4 0;
#X connect 7 0 18 0;
#X connect 9 0 11 0;
#X connect 9 0 14 0;
#X connect 10 0 9 1;
#X connect 11 0 9 1;
#X connect 12 0 31 0;
#X connect 13 0 12 0;
#X connect 14 0 12 1;
#X connect 15 0 22 0;
#X connect 16 0 17 0;
#X connect 17 0 16 1;
#X connect 17 0 20 1;
#X connect 18 0 16 1;
#X connect 19 0 16 0;
#X connect 20 0 15 0;
#X connect 21 0 13 0;
#X connect 21 1 20 0;
#X connect 22 0 0 0;
#X connect 22 1 6 0;
#X connect 24 0 21 0;
#X connect 26 0 5 0;
#X connect 27 0 28 0;
#X connect 28 0 29 0;
#X connect 28 0 30 0;
#X connect 29 0 7 0;
#X connect 30 0 24 0;
#X restore 352 528 pd listerize-fifo;
#X msg 451 432 clear;
#X msg 479 477 flush;
#X obj 352 573 print;
#X msg 238 369 this;
#X msg 287 408 is;
#X msg 319 446 my;
#X msg 344 476 new;
#X msg 364 503 honk;
#N canvas 0 0 633 777 listerize-fifo 0;
#X obj 168 556 demux 0 1;
#X obj 210 457 f;
#X obj 216 486 + 1;
#X obj 216 518 moses 2;
#X msg 247 428 -1;
#X obj 134 303 symbol;
#X obj 164 434 bng 15 250 50 0 empty empty empty 0 -6 0 8 -262144 -1
-1;
#X obj 450 250 bng 15 250 50 0 empty empty empty 0 -6 0 8 -262144 -1
-1;
#X floatatom 286 557 5 0 0 0 - - -;
#X obj 196 636 glue;
#X obj 226 601 list;
#X obj 259 668 list;
#X obj 208 692 l;
#X obj 92 656 bng 15 250 50 0 empty empty empty 0 -6 0 8 -262144 -1
-1;
#X obj 199 666 list;
#X obj 348 429 lifop;
#X obj 477 322 f;
#X obj 461 357 + 1;
#X msg 547 345 0;
#X obj 473 299 bng 15 250 50 0 empty empty empty 0 -6 0 8 -262144 -1
-1;
#X obj 381 402 kalashnikov;
#X obj 45 418 t b b;
#X obj 351 462 t s b;
#X text 452 220 clear;
#X obj 42 376 bng 15 250 50 0 empty empty empty 0 -6 0 8 -262144 -1
-1;
#X text 38 346 flush;
#X obj 154 240 inlet;
#X obj 391 148 inlet;
#X obj 392 178 symbol;
#X obj 384 203 sel clear;
#X obj 306 207 sel flush;
#X obj 223 734 outlet;
#X connect 0 0 10 0;
#X connect 0 1 9 0;
#X connect 1 0 2 0;
#X connect 2 0 3 0;
#X connect 2 0 1 1;
#X connect 3 0 0 1;
#X connect 3 0 8 0;
#X connect 4 0 1 1;
#X connect 5 0 15 0;
#X connect 5 0 19 0;
#X connect 6 0 1 0;
#X connect 7 0 4 0;
#X connect 7 0 18 0;
#X connect 9 0 11 0;
#X connect 9 0 14 0;
#X connect 10 0 9 1;
#X connect 11 0 9 1;
#X connect 12 0 31 0;
#X connect 13 0 12 0;
#X connect 14 0 12 1;
#X connect 15 0 22 0;
#X connect 16 0 17 0;
#X connect 17 0 16 1;
#X connect 17 0 20 1;
#X connect 18 0 16 1;
#X connect 19 0 16 0;
#X connect 20 0 15 0;
#X connect 21 0 13 0;
#X connect 21 1 20 0;
#X connect 22 0 0 0;
#X connect 22 1 6 0;
#X connect 24 0 21 0;
#X connect 26 0 5 0;
#X connect 27 0 28 0;
#X connect 28 0 29 0;
#X connect 28 0 30 0;
#X connect 29 0 7 0;
#X connect 30 0 24 0;
#X restore 50 229 pd listerize-fifo;
#X obj 50 201 inlet;
#X obj 50 271 outlet;
#X obj 181 203 inlet;
#X text 49 22 listerize-fifo: like "serialize" but for symbols \, turns
a stream of symbols into a list \, in order: first in first out.;
#X text 347 800 Honk Abstractions -- Kreidler 2007;
#X text 427 851 www.kreidler-net.de;
#X text 209 318 left inlet: various symbols;
#X text 425 352 right inlet: clear: empty list;
#X text 529 372 flush: output list;
#X connect 0 0 3 0;
#X connect 1 0 0 1;
#X connect 2 0 0 1;
#X connect 4 0 0 0;
#X connect 5 0 0 0;
#X connect 6 0 0 0;
#X connect 7 0 0 0;
#X connect 8 0 0 0;
#X connect 9 0 11 0;
#X connect 10 0 9 0;
#X connect 12 0 9 1;
