#N canvas 458 186 1048 804 12;
#X text 558 53 counts in certain speed;
#X text 563 85 input:;
#X text 550 211 output:;
#X text 553 237 number / bang when finished;
#X text 547 153 start point / end point / duration of delay also as
arguments;
#X obj 73 286 inlet;
#X obj 119 286 inlet;
#X obj 163 286 inlet;
#X obj 209 286 inlet;
#X obj 86 379 outlet;
#X obj 153 379 outlet;
#N canvas 0 0 671 851 malibu 0;
#X obj 189 544 f;
#X msg 255 505 0;
#X obj 188 571 + 1;
#X obj 188 752 pipe 100;
#X obj 193 690 spigot;
#X msg 271 671 1;
#X msg 317 672 0;
#X obj 194 600 t f f;
#X obj 288 640 sel 12;
#X obj 254 476 prepend set;
#X floatatom 255 218 5 0 0 0 - - -;
#X floatatom 324 218 5 0 0 0 - - -;
#X text 250 198 start;
#X text 320 200 ziel;
#X floatatom 388 217 5 0 0 0 - - -;
#X text 374 197 verzoegerung;
#X obj 180 453 bng 15 250 50 0 empty empty empty 0 -6 0 8 -262144 -1
-1;
#X obj 182 476 t b b;
#X text 154 426 start;
#X obj 252 451 - 1;
#X obj 36 651 outlet;
#X obj 257 24 inlet;
#X obj 330 20 inlet;
#X obj 412 30 inlet;
#X obj 239 172 \$1;
#X obj 324 176 \$2;
#X obj 433 178 \$3;
#X obj 184 57 loadbang;
#X obj 119 51 inlet;
#X obj 350 770 outlet;
#X obj 297 294 f;
#X obj 291 324 <;
#X obj 282 267 t f b;
#X obj 287 349 sel 0;
#X msg 321 546 -1;
#X msg 356 549 1;
#X obj 341 384 bng 15 250 50 0 empty empty empty 0 -6 0 8 -262144 -1
-1;
#X obj 457 292 f;
#X obj 442 265 t f b;
#X obj 447 347 sel 0;
#X obj 501 382 bng 15 250 50 0 empty empty empty 0 -6 0 8 -262144 -1
-1;
#X obj 451 322 >;
#X obj 285 722 sel 12;
#X connect 0 0 2 0;
#X connect 1 0 0 1;
#X connect 2 0 7 0;
#X connect 3 0 0 0;
#X connect 4 0 3 0;
#X connect 5 0 4 1;
#X connect 6 0 4 1;
#X connect 7 0 4 0;
#X connect 7 0 42 0;
#X connect 7 1 8 0;
#X connect 7 1 20 0;
#X connect 8 0 1 0;
#X connect 8 0 6 0;
#X connect 9 0 1 0;
#X connect 10 0 19 0;
#X connect 10 0 32 0;
#X connect 10 0 37 1;
#X connect 11 0 8 1;
#X connect 11 0 38 0;
#X connect 11 0 30 1;
#X connect 11 0 42 1;
#X connect 14 0 3 1;
#X connect 16 0 17 0;
#X connect 17 0 0 0;
#X connect 17 1 1 0;
#X connect 17 1 5 0;
#X connect 19 0 9 0;
#X connect 21 0 10 0;
#X connect 22 0 11 0;
#X connect 23 0 14 0;
#X connect 24 0 10 0;
#X connect 25 0 11 0;
#X connect 26 0 14 0;
#X connect 27 0 24 0;
#X connect 27 0 25 0;
#X connect 27 0 26 0;
#X connect 28 0 16 0;
#X connect 30 0 31 1;
#X connect 31 0 33 0;
#X connect 32 0 31 0;
#X connect 32 1 30 0;
#X connect 33 0 34 0;
#X connect 33 1 36 0;
#X connect 34 0 2 1;
#X connect 35 0 2 1;
#X connect 36 0 35 0;
#X connect 37 0 41 1;
#X connect 38 0 41 0;
#X connect 38 1 37 0;
#X connect 39 0 34 0;
#X connect 39 1 40 0;
#X connect 40 0 35 0;
#X connect 41 0 39 0;
#X connect 42 0 29 0;
#X restore 571 416 pd malibu;
#X obj 553 372 bng 15 250 50 0 empty empty empty 0 -6 0 8 -262144 -1
-1;
#X obj 571 455 print a;
#X obj 638 455 print b;
#X text 558 112 start (bang) / start point / end point / duration of
delay (ms);
#X msg 695 363 333;
#X msg 652 361 4;
#X msg 593 356 1;
#N canvas 0 0 671 851 malibu 0;
#X obj 189 544 f;
#X msg 255 505 -1;
#X obj 188 571 + 1;
#X obj 188 752 pipe 100;
#X obj 193 690 spigot;
#X msg 271 671 1;
#X msg 317 672 0;
#X obj 194 600 t f f;
#X obj 288 640 sel 12;
#X obj 254 476 prepend set;
#X floatatom 255 218 5 0 0 0 - - -;
#X floatatom 324 218 5 0 0 0 - - -;
#X text 250 198 start;
#X text 320 200 ziel;
#X floatatom 388 217 5 0 0 0 - - -;
#X text 374 197 verzoegerung;
#X obj 180 453 bng 15 250 50 0 empty empty empty 0 -6 0 8 -262144 -1
-1;
#X obj 182 476 t b b;
#X text 154 426 start;
#X obj 252 451 - 1;
#X obj 36 651 outlet;
#X obj 257 24 inlet;
#X obj 330 20 inlet;
#X obj 412 30 inlet;
#X obj 239 172 \$1;
#X obj 324 176 \$2;
#X obj 433 178 \$3;
#X obj 184 57 loadbang;
#X obj 119 51 inlet;
#X obj 350 770 outlet;
#X obj 297 294 f;
#X obj 291 324 <;
#X obj 282 267 t f b;
#X obj 287 349 sel 0;
#X msg 321 546 -1;
#X msg 356 549 1;
#X obj 341 384 bng 15 250 50 0 empty empty empty 0 -6 0 8 -262144 -1
-1;
#X obj 457 292 f;
#X obj 442 265 t f b;
#X obj 447 347 sel 0;
#X obj 501 382 bng 15 250 50 0 empty empty empty 0 -6 0 8 -262144 -1
-1;
#X obj 451 322 >;
#X obj 285 722 sel 12;
#X connect 0 0 2 0;
#X connect 1 0 0 1;
#X connect 2 0 7 0;
#X connect 3 0 0 0;
#X connect 4 0 3 0;
#X connect 5 0 4 1;
#X connect 6 0 4 1;
#X connect 7 0 4 0;
#X connect 7 0 42 0;
#X connect 7 1 8 0;
#X connect 7 1 20 0;
#X connect 8 0 1 0;
#X connect 8 0 6 0;
#X connect 9 0 1 0;
#X connect 10 0 19 0;
#X connect 10 0 32 0;
#X connect 10 0 37 1;
#X connect 11 0 8 1;
#X connect 11 0 38 0;
#X connect 11 0 30 1;
#X connect 11 0 42 1;
#X connect 14 0 3 1;
#X connect 16 0 17 0;
#X connect 17 0 0 0;
#X connect 17 1 1 0;
#X connect 17 1 5 0;
#X connect 19 0 9 0;
#X connect 21 0 10 0;
#X connect 22 0 11 0;
#X connect 23 0 14 0;
#X connect 24 0 10 0;
#X connect 25 0 11 0;
#X connect 26 0 14 0;
#X connect 27 0 24 0;
#X connect 27 0 25 0;
#X connect 27 0 26 0;
#X connect 28 0 16 0;
#X connect 30 0 31 1;
#X connect 31 0 33 0;
#X connect 32 0 31 0;
#X connect 32 1 30 0;
#X connect 33 0 34 0;
#X connect 33 1 36 0;
#X connect 34 0 2 1;
#X connect 35 0 2 1;
#X connect 36 0 35 0;
#X connect 37 0 41 1;
#X connect 38 0 41 0;
#X connect 38 1 37 0;
#X connect 39 0 34 0;
#X connect 39 1 40 0;
#X connect 40 0 35 0;
#X connect 41 0 39 0;
#X connect 42 0 29 0;
#X restore 86 344 pd malibu;
#X text 556 29 Malibu:;
#X text 578 681 Honk Abstractions -- Kreidler 2007;
#X text 644 717 www.kreidler-net.de;
#X connect 5 0 19 0;
#X connect 6 0 19 1;
#X connect 7 0 19 2;
#X connect 8 0 19 3;
#X connect 11 0 13 0;
#X connect 11 1 14 0;
#X connect 12 0 11 0;
#X connect 16 0 11 3;
#X connect 17 0 11 2;
#X connect 18 0 11 1;
#X connect 19 0 9 0;
#X connect 19 1 10 0;
