#N canvas 633 447 663 431 12;
#N canvas 0 0 520 398 m2t 0;
#X obj 162 189 textfile;
#X msg 247 149 bang;
#X msg 374 141 rewind;
#X obj 262 121 kalashnikov;
#X obj 172 245 l;
#X obj 381 103 + 1;
#X obj 172 272 unpack f s;
#X obj 348 25 inlet;
#X obj 240 308 outlet;
#X obj 353 70 t b b f b b;
#X msg 97 120 read m2t.txt;
#X connect 0 0 4 1;
#X connect 1 0 0 0;
#X connect 2 0 0 0;
#X connect 3 0 0 0;
#X connect 4 0 6 0;
#X connect 5 0 3 1;
#X connect 6 1 8 0;
#X connect 7 0 9 0;
#X connect 9 0 4 0;
#X connect 9 1 3 0;
#X connect 9 2 5 0;
#X connect 9 3 2 0;
#X connect 9 4 10 0;
#X connect 10 0 0 0;
#X restore 36 85 pd m2t;
#X obj 36 60 inlet;
#X obj 36 113 outlet;
#X symbolatom 301 223 10 0 0 0 - - -;
#X floatatom 301 167 5 0 0 0 - - -;
#X text 388 223 german tone names (symbol);
#X text 348 168 MIDI-number (integer);
#X text 257 58 input: MIDI-number (integer);
#X text 255 84 output: german tone name;
#X text 240 268 honk abstractions -- kreidler 2007;
#X text 294 304 www.kreidler-net.de;
#X text 210 11 midi2symbol - MIDI to german tone name conversion;
#N canvas 0 0 520 398 midi2symbol 0;
#X obj 162 189 textfile;
#X msg 247 149 bang;
#X msg 374 141 rewind;
#X obj 262 121 kalashnikov;
#X obj 172 245 l;
#X obj 381 103 + 1;
#X obj 172 272 unpack f s;
#X obj 348 25 inlet;
#X obj 240 308 outlet;
#X obj 353 70 t b b f b b;
#X msg 97 120 read m2t.txt;
#X connect 0 0 4 1;
#X connect 1 0 0 0;
#X connect 2 0 0 0;
#X connect 3 0 0 0;
#X connect 4 0 6 0;
#X connect 5 0 3 1;
#X connect 6 1 8 0;
#X connect 7 0 9 0;
#X connect 9 0 4 0;
#X connect 9 1 3 0;
#X connect 9 2 5 0;
#X connect 9 3 2 0;
#X connect 9 4 10 0;
#X connect 10 0 0 0;
#X restore 301 195 pd midi2symbol;
#X connect 0 0 2 0;
#X connect 1 0 0 0;
#X connect 4 0 12 0;
#X connect 12 0 3 0;
