#N canvas 960 388 498 591 10;
#X obj 13 67 namecanvas \$0-this;
#N canvas 207 588 623 503 1005-work 0;
#X obj 91 360 s \$0-this;
#N canvas 360 375 474 324 count 0;
#X obj 106 121 f;
#X obj 140 122 + 1;
#X msg 175 58 0;
#X obj 106 30 inlet;
#X obj 106 151 outlet;
#X obj 175 32 initbang;
#X connect 0 0 1 0;
#X connect 0 0 4 0;
#X connect 1 0 0 1;
#X connect 2 0 0 1;
#X connect 3 0 0 0;
#X connect 5 0 2 0;
#X restore 91 91 pd count;
#X obj 170 224 + 1;
#X obj 91 224 + 100;
#X obj 91 71 until;
#X obj 89 21 f \$1;
#X obj 91 115 t a a a;
#X obj 91 279 pack 0 0 0 0 s;
#X msg 91 315 obj \$1 100 r \$5 \, obj \$1 150 bng \, obj \$1 200 outlet
\, connect \$2 0 \$3 0 \, connect \$3 0 \$4 0;
#X obj 179 253 + 2;
#X obj 137 204 t a a a;
#X obj 137 163 * 3;
#X obj 132 142 + 1;
#X obj 237 219 + 1;
#X msg 265 279 donecanvasdialog 1 -1 1 0 -1 1 1 \$1 43 95 125;
#X obj 436 233 expr 25 + $f1;
#X obj 436 182 - 1;
#X obj 89 43 t f f;
#X obj 240 103 pipe 1;
#X text 289 102 for some reason \, this is necessary;
#X obj 91 139 * 20;
#X obj 436 204 * 20;
#X obj 249 242 makefilename \$0-r-%d;
#X obj 137 184 + 17;
#X obj 89 -2 initbang;
#X connect 1 0 6 0;
#X connect 2 0 7 2;
#X connect 3 0 7 0;
#X connect 4 0 1 0;
#X connect 5 0 17 0;
#X connect 6 0 20 0;
#X connect 6 1 12 0;
#X connect 6 2 13 0;
#X connect 7 0 8 0;
#X connect 8 0 0 0;
#X connect 9 0 7 3;
#X connect 10 0 7 1;
#X connect 10 1 2 0;
#X connect 10 2 9 0;
#X connect 11 0 23 0;
#X connect 12 0 11 0;
#X connect 13 0 22 0;
#X connect 14 0 0 0;
#X connect 15 0 14 0;
#X connect 16 0 21 0;
#X connect 17 0 18 0;
#X connect 17 1 4 0;
#X connect 18 0 16 0;
#X connect 20 0 3 0;
#X connect 21 0 15 0;
#X connect 22 0 7 4;
#X connect 23 0 10 0;
#X connect 24 0 5 0;
#X restore 13 45 pd \$0-work;
#X obj 30 148 inlet;
#X obj 30 223 f;
#X msg 66 191 0;
#X obj 30 246 + 1;
#X obj 88 216 sel \$1;
#X msg 160 325 symbol bang;
#X obj 30 387 route list;
#X obj 30 274 t f b;
#X obj 30 362 pack s s;
#X obj 30 411 remote;
#X obj 30 325 makefilename \$0-r-%d;
#X text 190 65 nbangs [number of bangs];
#X text 179 24 nbangs - sequence incoming bangs;
#X text 224 112 input: bangs;
#X text 218 131 output: n bangs in order;
#X text 259 182 honk abstractions -- kreidler 2007;
#X text 320 213 www.kreidler-net.de;
#X obj 66 171 initbang;
#X connect 2 0 3 0;
#X connect 3 0 5 0;
#X connect 4 0 3 1;
#X connect 5 0 3 1;
#X connect 5 0 6 0;
#X connect 5 0 9 0;
#X connect 6 0 4 0;
#X connect 7 0 10 1;
#X connect 8 0 11 0;
#X connect 9 0 12 0;
#X connect 9 1 7 0;
#X connect 10 0 8 0;
#X connect 12 0 10 0;
#X connect 19 0 4 0;
#X coords 0 -1 1 1 5 43 1 95 125;
