#N canvas 491 379 700 407 12;
#N canvas 0 0 439 387 noreprand 0;
#X obj 140 158 ==;
#X obj 118 121 f;
#X floatatom 117 7 5 0 0 0 - - -;
#X obj 74 7 bng 15 250 50 0 empty empty empty 0 -6 0 8 -262144 -1 -1
;
#X obj 54 243 f;
#X obj 90 218 sel 0;
#X obj 144 219 sel 1;
#X obj 74 74 t b f b f;
#X obj 107 189 f;
#X obj 117 -17 inlet;
#X obj 74 43 random \$1;
#X obj 74 -18 inlet;
#X obj 112 311 outlet;
#X obj 103 277 + \$2;
#X obj 161 -17 inlet;
#X connect 0 0 8 1;
#X connect 1 0 0 0;
#X connect 2 0 1 1;
#X connect 2 0 10 1;
#X connect 3 0 10 0;
#X connect 4 0 13 0;
#X connect 5 0 4 0;
#X connect 6 0 10 0;
#X connect 7 0 8 0;
#X connect 7 1 1 1;
#X connect 7 2 1 0;
#X connect 7 3 0 1;
#X connect 7 3 4 1;
#X connect 8 0 5 0;
#X connect 8 0 6 0;
#X connect 9 0 2 0;
#X connect 10 0 7 0;
#X connect 11 0 3 0;
#X connect 13 0 12 0;
#X connect 14 0 13 1;
#X restore 42 71 pd noreprand;
#X obj 42 44 inlet;
#X obj 87 44 inlet;
#X obj 42 96 outlet;
#X obj 301 190 bng 15 250 50 0 empty empty empty 0 -6 0 8 -262144 -1
-1;
#X floatatom 301 266 5 0 0 0 - - -;
#X text 354 309 Honk Abstractions -- Kreidler 2007;
#X text 438 333 www.kreidler-net.de;
#X text 71 -2 noreprand: (almost) exactly like "random" \, but without
repetitions;
#X obj 133 44 inlet;
#X text 249 51 inlets: bang / upper limit / offset;
#X text 323 69 upper limit and offset also as arguments;
#X text 219 99 output: random number between 0 an upper limit + offset
;
#N canvas 0 0 439 387 noreprand 0;
#X obj 140 158 ==;
#X obj 118 121 f;
#X floatatom 117 7 5 0 0 0 - - -;
#X obj 74 7 bng 15 250 50 0 empty empty empty 0 -6 0 8 -262144 -1 -1
;
#X obj 54 243 f;
#X obj 90 218 sel 0;
#X obj 144 219 sel 1;
#X obj 74 74 t b f b f;
#X obj 107 189 f;
#X obj 117 -17 inlet;
#X obj 74 43 random \$1;
#X obj 74 -18 inlet;
#X obj 112 311 outlet;
#X obj 103 277 + \$2;
#X obj 161 -17 inlet;
#X connect 0 0 8 1;
#X connect 1 0 0 0;
#X connect 2 0 1 1;
#X connect 2 0 10 1;
#X connect 3 0 10 0;
#X connect 4 0 13 0;
#X connect 5 0 4 0;
#X connect 6 0 10 0;
#X connect 7 0 8 0;
#X connect 7 1 1 1;
#X connect 7 2 1 0;
#X connect 7 3 0 1;
#X connect 7 3 4 1;
#X connect 8 0 5 0;
#X connect 8 0 6 0;
#X connect 9 0 2 0;
#X connect 10 0 7 0;
#X connect 11 0 3 0;
#X connect 13 0 12 0;
#X connect 14 0 13 1;
#X restore 301 215 pd noreprand;
#X msg 346 161 3;
#X msg 392 187 1;
#X text 430 187 offset;
#X text 388 158 range;
#X connect 0 0 3 0;
#X connect 1 0 0 0;
#X connect 2 0 0 1;
#X connect 4 0 13 0;
#X connect 9 0 0 2;
#X connect 13 0 5 0;
#X connect 14 0 13 1;
#X connect 15 0 13 2;
