#N canvas 491 379 704 411 12;
#X obj 172 190 bng 15 250 50 0 empty empty empty 0 -6 0 8 -262144 -1
-1;
#X floatatom 172 266 5 0 0 0 - - -;
#X text 354 309 Honk Abstractions -- Kreidler 2007;
#X text 438 333 www.kreidler-net.de;
#X text 71 -2 noreprand: (almost) exactly like "random" \, but without
repetitions;
#X text 249 51 inlets: bang / upper limit / offset;
#X text 323 69 upper limit and offset also as arguments;
#X text 219 99 output: random number between 0 an upper limit + offset
;
#X msg 217 161 3;
#X msg 263 187 1;
#X text 301 187 offset;
#X text 259 158 range;
#X obj 172 216 noreprand;
#X obj 389 181 bng 15 250 50 0 empty empty empty 0 -6 0 8 -262144 -1
-1;
#X floatatom 389 257 5 0 0 0 - - -;
#X obj 389 207 noreprand 4 2;
#X connect 0 0 12 0;
#X connect 8 0 12 1;
#X connect 9 0 12 2;
#X connect 12 0 1 0;
#X connect 13 0 15 0;
#X connect 15 0 14 0;
