#N canvas 839 567 483 392 12;
#N canvas 0 0 454 304 rondom 0;
#X obj 113 49 inlet;
#X obj 180 49 inlet;
#X obj 227 88 inlet;
#X obj 113 88 random \$1;
#X obj 113 133 + \$2;
#X obj 113 162 outlet;
#X connect 0 0 3 0;
#X connect 1 0 3 1;
#X connect 2 0 4 1;
#X connect 3 0 4 0;
#X connect 4 0 5 0;
#X restore 23 99 pd rondom;
#X obj 23 57 inlet;
#N canvas 0 0 454 304 rondom 0;
#X obj 113 49 inlet;
#X obj 180 49 inlet;
#X obj 227 88 inlet;
#X obj 113 88 random \$1;
#X obj 113 133 + \$2;
#X obj 113 162 outlet;
#X connect 0 0 3 0;
#X connect 1 0 3 1;
#X connect 2 0 4 1;
#X connect 3 0 4 0;
#X connect 4 0 5 0;
#X restore 243 215 pd rondom;
#X obj 243 184 bng 15 250 50 0 empty empty empty 0 -6 0 8 -262144 -1
-1;
#X msg 276 159 3;
#X msg 310 184 1;
#X floatatom 243 244 5 0 0 0 - - -;
#X text 352 184 offset;
#X text 312 159 range;
#X obj 67 57 inlet;
#X obj 111 57 inlet;
#X obj 23 131 outlet;
#X text 133 12 rondom - like random but with offset;
#X text 182 48 inlets: bang / range / offset;
#X text 176 73 arguments: range / offset;
#X text 177 116 output: random number;
#X text 196 308 honk abstractions -- kreidler 2007;
#X text 230 343 www.kreidler-net.de;
#X connect 0 0 11 0;
#X connect 1 0 0 0;
#X connect 2 0 6 0;
#X connect 3 0 2 0;
#X connect 4 0 2 1;
#X connect 5 0 2 2;
#X connect 9 0 0 1;
#X connect 10 0 0 2;
