#N canvas 705 322 543 506 12;
#N canvas 0 0 459 500 schange 0;
#X obj 133 189 symbol;
#X obj 100 132 t s b;
#X obj 62 330 spigot;
#X msg 101 279 1;
#X msg 144 277 0;
#X obj 122 252 bng 15 250 50 0 empty empty empty 0 -6 0 8 -262144 -1
-1;
#X obj 65 63 t s s;
#X obj 72 26 inlet;
#X obj 65 375 outlet;
#X obj 201 81 symbol;
#X obj 221 131 sel clear;
#X obj 148 415 outlet;
#X obj 148 352 bng 15 250 50 0 empty empty empty 0 -6 0 8 -262144 -1
-1;
#X obj 99 220 sel \$0-honk;
#X connect 0 0 13 1;
#X connect 1 0 0 1;
#X connect 1 0 13 0;
#X connect 1 1 0 0;
#X connect 2 0 8 0;
#X connect 3 0 2 1;
#X connect 4 0 2 1;
#X connect 4 0 12 0;
#X connect 5 0 3 0;
#X connect 6 0 2 0;
#X connect 6 1 1 0;
#X connect 7 0 6 0;
#X connect 7 0 9 0;
#X connect 9 0 10 0;
#X connect 10 0 3 0;
#X connect 12 0 11 0;
#X connect 13 0 4 0;
#X connect 13 1 5 0;
#X restore 32 138 pd schange;
#X text 52 14 schange - like "change" but for symbols.;
#X text 52 37 outputs its input only when it changes;
#X obj 32 108 inlet;
#X obj 32 166 outlet;
#X obj 107 166 outlet;
#N canvas 0 0 459 500 schange 0;
#X obj 133 189 symbol;
#X obj 100 132 t s b;
#X obj 62 330 spigot;
#X msg 101 279 1;
#X msg 144 277 0;
#X obj 122 252 bng 15 250 50 0 empty empty empty 0 -6 0 8 -262144 -1
-1;
#X obj 65 63 t s s;
#X obj 72 26 inlet;
#X obj 65 375 outlet;
#X obj 201 81 symbol;
#X obj 221 131 sel clear;
#X obj 148 415 outlet;
#X obj 148 352 bng 15 250 50 0 empty empty empty 0 -6 0 8 -262144 -1
-1;
#X obj 99 220 sel \$0-honk;
#X connect 0 0 13 1;
#X connect 1 0 0 1;
#X connect 1 0 13 0;
#X connect 1 1 0 0;
#X connect 2 0 8 0;
#X connect 3 0 2 1;
#X connect 4 0 2 1;
#X connect 4 0 12 0;
#X connect 5 0 3 0;
#X connect 6 0 2 0;
#X connect 6 1 1 0;
#X connect 7 0 6 0;
#X connect 7 0 9 0;
#X connect 9 0 10 0;
#X connect 10 0 3 0;
#X connect 12 0 11 0;
#X connect 13 0 4 0;
#X connect 13 1 5 0;
#X restore 220 211 pd schange;
#X obj 220 239 print a;
#X obj 295 239 print b;
#X msg 210 94 symbol hi;
#X msg 241 130 symbol hi;
#X msg 262 162 symbol there;
#X text 314 88 left inlet: any symbol;
#X text 191 279 left outlet: symbol if new;
#X text 147 310 right outlet: bang if symbol hasen't changed;
#X text 252 421 Honk Abstractions -- Kreidler 2007;
#X text 346 448 www.kreidler-net.de;
#X connect 0 0 4 0;
#X connect 0 1 5 0;
#X connect 3 0 0 0;
#X connect 6 0 7 0;
#X connect 6 1 8 0;
#X connect 9 0 6 0;
#X connect 10 0 6 0;
#X connect 11 0 6 0;
