#N canvas 714 58 546 573 12;
#X msg 292 225 clear;
#X msg 320 270 flush;
#X obj 193 366 print;
#X text 193 448 Honk Abstractions -- Kreidler 2007;
#X text 273 499 www.kreidler-net.de;
#X text 266 145 right inlet: clear: empty list;
#X text 370 165 flush: output list;
#X msg 79 162 3;
#X msg 128 201 2;
#X msg 160 239 1;
#X msg 185 269 5;
#X msg 205 296 6;
#X text 50 111 left inlet: various floats;
#X text 49 22 serialize-fifo: like "serialize" but for any number of
floats. turns a stream of floats into a list \, in order: first in
first out.;
#X obj 193 321 serialize-fifo;
#X connect 0 0 14 1;
#X connect 1 0 14 1;
#X connect 7 0 14 0;
#X connect 8 0 14 0;
#X connect 9 0 14 0;
#X connect 10 0 14 0;
#X connect 11 0 14 0;
#X connect 14 0 2 0;
