#N canvas 714 58 732 928 12;
#X msg 451 432 clear;
#X msg 479 477 flush;
#X obj 352 573 print;
#X obj 50 201 inlet;
#X obj 50 271 outlet;
#X obj 181 203 inlet;
#X text 347 800 Honk Abstractions -- Kreidler 2007;
#X text 427 851 www.kreidler-net.de;
#X text 425 352 right inlet: clear: empty list;
#X text 529 372 flush: output list;
#X msg 238 369 3;
#X msg 287 408 2;
#X msg 319 446 1;
#X msg 344 476 5;
#X msg 364 503 6;
#X text 209 318 left inlet: various floats;
#N canvas 0 0 641 785 serialize-fifo 0;
#X obj 168 556 demux 0 1;
#X obj 210 457 f;
#X obj 216 486 + 1;
#X obj 216 518 moses 2;
#X msg 247 428 -1;
#X obj 164 434 bng 15 250 50 0 empty empty empty 0 -6 0 8 -262144 -1
-1;
#X obj 450 250 bng 15 250 50 0 empty empty empty 0 -6 0 8 -262144 -1
-1;
#X floatatom 286 557 5 0 0 0 - - -;
#X obj 196 636 glue;
#X obj 226 601 list;
#X obj 259 668 list;
#X obj 208 692 l;
#X obj 92 656 bng 15 250 50 0 empty empty empty 0 -6 0 8 -262144 -1
-1;
#X obj 199 666 list;
#X obj 348 429 lifop;
#X obj 477 322 f;
#X obj 461 357 + 1;
#X msg 547 345 0;
#X obj 473 299 bng 15 250 50 0 empty empty empty 0 -6 0 8 -262144 -1
-1;
#X obj 381 402 kalashnikov;
#X obj 45 418 t b b;
#X text 452 220 clear;
#X obj 42 376 bng 15 250 50 0 empty empty empty 0 -6 0 8 -262144 -1
-1;
#X text 38 346 flush;
#X obj 154 240 inlet;
#X obj 391 148 inlet;
#X obj 392 178 symbol;
#X obj 384 203 sel clear;
#X obj 306 207 sel flush;
#X obj 223 734 outlet;
#X obj 134 303 f;
#X obj 351 463 t f b;
#X connect 0 0 9 0;
#X connect 0 1 8 0;
#X connect 1 0 2 0;
#X connect 2 0 3 0;
#X connect 2 0 1 1;
#X connect 3 0 0 1;
#X connect 3 0 7 0;
#X connect 4 0 1 1;
#X connect 5 0 1 0;
#X connect 6 0 4 0;
#X connect 6 0 17 0;
#X connect 8 0 10 0;
#X connect 8 0 13 0;
#X connect 9 0 8 1;
#X connect 10 0 8 1;
#X connect 11 0 29 0;
#X connect 12 0 11 0;
#X connect 13 0 11 1;
#X connect 14 0 31 0;
#X connect 15 0 16 0;
#X connect 16 0 15 1;
#X connect 16 0 19 1;
#X connect 17 0 15 1;
#X connect 18 0 15 0;
#X connect 19 0 14 0;
#X connect 20 0 12 0;
#X connect 20 1 19 0;
#X connect 22 0 20 0;
#X connect 24 0 30 0;
#X connect 25 0 26 0;
#X connect 26 0 27 0;
#X connect 26 0 28 0;
#X connect 27 0 6 0;
#X connect 28 0 22 0;
#X connect 30 0 14 0;
#X connect 30 0 18 0;
#X connect 31 0 0 0;
#X connect 31 1 5 0;
#X restore 50 229 pd serialize-fifo;
#N canvas 0 0 637 781 serialize-fifo 0;
#X obj 168 556 demux 0 1;
#X obj 210 457 f;
#X obj 216 486 + 1;
#X obj 216 518 moses 2;
#X msg 247 428 -1;
#X obj 164 434 bng 15 250 50 0 empty empty empty 0 -6 0 8 -262144 -1
-1;
#X obj 450 250 bng 15 250 50 0 empty empty empty 0 -6 0 8 -262144 -1
-1;
#X floatatom 286 557 5 0 0 0 - - -;
#X obj 196 636 glue;
#X obj 226 601 list;
#X obj 259 668 list;
#X obj 208 692 l;
#X obj 92 656 bng 15 250 50 0 empty empty empty 0 -6 0 8 -262144 -1
-1;
#X obj 199 666 list;
#X obj 348 429 lifop;
#X obj 477 322 f;
#X obj 461 357 + 1;
#X msg 547 345 0;
#X obj 473 299 bng 15 250 50 0 empty empty empty 0 -6 0 8 -262144 -1
-1;
#X obj 381 402 kalashnikov;
#X obj 45 418 t b b;
#X text 452 220 clear;
#X obj 42 376 bng 15 250 50 0 empty empty empty 0 -6 0 8 -262144 -1
-1;
#X text 38 346 flush;
#X obj 154 240 inlet;
#X obj 391 148 inlet;
#X obj 392 178 symbol;
#X obj 384 203 sel clear;
#X obj 306 207 sel flush;
#X obj 223 734 outlet;
#X obj 351 462 t f b;
#X obj 134 303 f;
#X connect 0 0 9 0;
#X connect 0 1 8 0;
#X connect 1 0 2 0;
#X connect 2 0 3 0;
#X connect 2 0 1 1;
#X connect 3 0 0 1;
#X connect 3 0 7 0;
#X connect 4 0 1 1;
#X connect 5 0 1 0;
#X connect 6 0 4 0;
#X connect 6 0 17 0;
#X connect 8 0 10 0;
#X connect 8 0 13 0;
#X connect 9 0 8 1;
#X connect 10 0 8 1;
#X connect 11 0 29 0;
#X connect 12 0 11 0;
#X connect 13 0 11 1;
#X connect 14 0 30 0;
#X connect 15 0 16 0;
#X connect 16 0 15 1;
#X connect 16 0 19 1;
#X connect 17 0 15 1;
#X connect 18 0 15 0;
#X connect 19 0 14 0;
#X connect 20 0 12 0;
#X connect 20 1 19 0;
#X connect 22 0 20 0;
#X connect 24 0 31 0;
#X connect 25 0 26 0;
#X connect 26 0 27 0;
#X connect 26 0 28 0;
#X connect 27 0 6 0;
#X connect 28 0 22 0;
#X connect 30 0 0 0;
#X connect 30 1 5 0;
#X connect 31 0 14 0;
#X connect 31 0 18 0;
#X restore 352 528 pd serialize-fifo;
#X text 49 22 serialize-fifo: like "serialize" but for any number of
floats. turns a stream of floats into a list \, in order: first in
first out.;
#X connect 0 0 17 1;
#X connect 1 0 17 1;
#X connect 3 0 16 0;
#X connect 5 0 16 1;
#X connect 10 0 17 0;
#X connect 11 0 17 0;
#X connect 12 0 17 0;
#X connect 13 0 17 0;
#X connect 14 0 17 0;
#X connect 16 0 4 0;
#X connect 17 0 2 0;
