#N canvas 774 204 662 696 12;
#X msg 456 344 clear;
#X msg 490 380 flush;
#X obj 314 455 print;
#X text 386 233 right inlet: clear: empty list;
#X text 490 253 flush: output list;
#X obj 26 175 outlet;
#X obj 26 119 inlet;
#X obj 157 118 inlet;
#X text 273 601 Honk Abstractions -- Kreidler 2007;
#X text 353 652 www.kreidler-net.de;
#X text 50 22 serialize-fifo: like "serialize" but for any number of
floats. turns a stream of floats into a list \, in order: last in first
out.;
#N canvas 596 291 553 595 serialize-lifo 0;
#X obj 112 369 demux 0 1;
#X obj 157 272 f;
#X obj 163 301 + 1;
#X obj 163 333 moses 2;
#X msg 194 243 -1;
#X obj 111 249 bng 15 250 50 0 empty empty empty 0 -6 0 8 -262144 -1
-1;
#X obj 354 210 bng 15 250 50 0 empty empty empty 0 -6 0 8 -262144 -1
-1;
#X floatatom 233 372 5 0 0 0 - - -;
#X obj 143 451 glue;
#X obj 173 416 list;
#X obj 206 483 list;
#X obj 155 507 l;
#X obj 39 471 bng 15 250 50 0 empty empty empty 0 -6 0 8 -262144 -1
-1;
#X obj 146 481 list;
#X text 363 184 clear;
#X text 25 422 flush;
#X obj 85 173 inlet;
#X obj 158 550 outlet;
#X obj 342 54 inlet;
#X obj 348 94 symbol;
#X obj 351 130 sel clear;
#X obj 446 115 sel flush;
#X obj 78 213 f;
#X connect 0 0 9 0;
#X connect 0 1 8 0;
#X connect 1 0 2 0;
#X connect 2 0 3 0;
#X connect 2 0 1 1;
#X connect 3 0 0 1;
#X connect 3 0 7 0;
#X connect 4 0 1 1;
#X connect 5 0 1 0;
#X connect 6 0 4 0;
#X connect 8 0 10 0;
#X connect 8 0 13 0;
#X connect 9 0 8 1;
#X connect 10 0 8 1;
#X connect 11 0 17 0;
#X connect 12 0 11 0;
#X connect 13 0 11 1;
#X connect 16 0 22 0;
#X connect 18 0 19 0;
#X connect 19 0 20 0;
#X connect 19 0 21 0;
#X connect 20 0 6 0;
#X connect 21 0 12 0;
#X connect 22 0 5 0;
#X connect 22 0 0 0;
#X restore 26 149 pd serialize-lifo;
#N canvas 596 291 553 595 serialize-lifo 0;
#X obj 112 369 demux 0 1;
#X obj 157 272 f;
#X obj 163 301 + 1;
#X obj 163 333 moses 2;
#X msg 194 243 -1;
#X obj 111 249 bng 15 250 50 0 empty empty empty 0 -6 0 8 -262144 -1
-1;
#X obj 354 210 bng 15 250 50 0 empty empty empty 0 -6 0 8 -262144 -1
-1;
#X floatatom 233 372 5 0 0 0 - - -;
#X obj 143 451 glue;
#X obj 173 416 list;
#X obj 206 483 list;
#X obj 155 507 l;
#X obj 39 471 bng 15 250 50 0 empty empty empty 0 -6 0 8 -262144 -1
-1;
#X obj 146 481 list;
#X text 363 184 clear;
#X text 25 422 flush;
#X obj 85 173 inlet;
#X obj 158 550 outlet;
#X obj 342 54 inlet;
#X obj 348 94 symbol;
#X obj 351 130 sel clear;
#X obj 446 115 sel flush;
#X obj 78 213 f;
#X connect 0 0 9 0;
#X connect 0 1 8 0;
#X connect 1 0 2 0;
#X connect 2 0 3 0;
#X connect 2 0 1 1;
#X connect 3 0 0 1;
#X connect 3 0 7 0;
#X connect 4 0 1 1;
#X connect 5 0 1 0;
#X connect 6 0 4 0;
#X connect 8 0 10 0;
#X connect 8 0 13 0;
#X connect 9 0 8 1;
#X connect 10 0 8 1;
#X connect 11 0 17 0;
#X connect 12 0 11 0;
#X connect 13 0 11 1;
#X connect 16 0 22 0;
#X connect 18 0 19 0;
#X connect 19 0 20 0;
#X connect 19 0 21 0;
#X connect 20 0 6 0;
#X connect 21 0 12 0;
#X connect 22 0 5 0;
#X connect 22 0 0 0;
#X restore 314 430 pd serialize-lifo;
#X msg 287 255 5;
#X msg 307 291 3;
#X msg 326 321 2;
#X msg 341 356 1;
#X msg 361 392 44;
#X text 170 199 left inlet: various floats;
#X connect 0 0 12 1;
#X connect 1 0 12 1;
#X connect 6 0 11 0;
#X connect 7 0 11 1;
#X connect 11 0 5 0;
#X connect 12 0 2 0;
#X connect 13 0 12 0;
#X connect 14 0 12 0;
#X connect 15 0 12 0;
#X connect 16 0 12 0;
#X connect 17 0 12 0;
