#N canvas 219 205 1170 808 12;
#X msg 20 354 symbol open;
#X obj 20 376 pack s s;
#X obj 56 425 route list;
#X obj 21 296 a2l;
#X obj 22 720 outlet~;
#X obj 226 752 outlet;
#X obj 20 322 t b l;
#X obj 21 400 t b l;
#X msg 21 424 1;
#X obj 21 208 openpanel;
#X obj 21 45 bng 15 250 50 0 empty empty open_wav 0 -6 0 8 -262144
-1 -1;
#X obj 21 234 prepend set;
#X obj 20 124 bng 15 250 50 0 empty empty start 0 -6 0 8 -262131 -1
-1;
#X obj 21 460 readsf~ 2;
#X obj 330 14 inlet;
#X obj 21 72 bng 15 250 50 0 empty empty open_mp3 0 -6 0 8 -262144
-1 -1;
#X obj 21 98 bng 15 250 50 0 empty empty open_ogg 0 -6 0 8 -262144
-1 -1;
#X msg 225 451 symbol open;
#X obj 225 473 pack s s;
#X obj 276 521 route list;
#X obj 225 394 a2l;
#X obj 225 419 t b l;
#X obj 225 497 t b l;
#X obj 225 306 openpanel;
#X obj 225 332 prepend set;
#X obj 225 549 mp3play~;
#X msg 225 522 start;
#X msg 385 541 symbol open;
#X obj 385 563 pack s s;
#X obj 436 611 route list;
#X obj 385 484 a2l;
#X obj 385 509 t b l;
#X obj 385 587 t b l;
#X obj 385 396 openpanel;
#X obj 385 422 prepend set;
#X msg 385 612 start;
#X obj 385 639 oggread~;
#X obj 218 152 demultiplex 0 1 2;
#X msg 349 114 0;
#X msg 383 114 1;
#X msg 416 114 2;
#X obj 57 124 bng 15 250 50 0 empty empty stop 0 -6 0 8 -258699 -1
-1;
#X msg 151 394 0;
#X msg 308 489 stop;
#X msg 495 563 stop;
#X text 540 24 sf~: soundfile-player;
#X text 535 113 outlet1+2: soundfile output (stereo);
#X text 537 140 outlet3: bang when soundfile has finished;
#X obj 84 721 outlet~;
#X text 721 619 Honk Abstractions -- Kreidler 2007;
#X text 788 658 www.kreidler-net.de;
#X msg 225 368 voice2.wav;
#X msg 385 458 voice2.wav;
#X msg 21 270 voice2.wav;
#X text 535 82 inlet: start & restart (bang);
#X connect 0 0 1 0;
#X connect 1 0 7 0;
#X connect 2 0 13 0;
#X connect 3 0 6 0;
#X connect 6 0 0 0;
#X connect 6 1 1 1;
#X connect 7 0 8 0;
#X connect 7 1 2 0;
#X connect 8 0 13 0;
#X connect 9 0 11 0;
#X connect 10 0 9 0;
#X connect 10 0 38 0;
#X connect 11 0 53 0;
#X connect 12 0 37 0;
#X connect 13 0 4 0;
#X connect 13 1 48 0;
#X connect 13 2 5 0;
#X connect 14 0 12 0;
#X connect 15 0 23 0;
#X connect 15 0 39 0;
#X connect 16 0 33 0;
#X connect 16 0 40 0;
#X connect 17 0 18 0;
#X connect 18 0 22 0;
#X connect 19 0 25 0;
#X connect 20 0 21 0;
#X connect 21 0 17 0;
#X connect 21 1 18 1;
#X connect 22 0 26 0;
#X connect 22 1 19 0;
#X connect 23 0 24 0;
#X connect 24 0 51 0;
#X connect 25 0 4 0;
#X connect 25 1 4 0;
#X connect 25 3 5 0;
#X connect 26 0 25 0;
#X connect 27 0 28 0;
#X connect 28 0 32 0;
#X connect 29 0 36 0;
#X connect 30 0 31 0;
#X connect 31 0 27 0;
#X connect 31 1 28 1;
#X connect 32 0 35 0;
#X connect 32 1 29 0;
#X connect 33 0 34 0;
#X connect 34 0 52 0;
#X connect 35 0 36 0;
#X connect 36 0 4 0;
#X connect 36 1 4 0;
#X connect 36 3 5 0;
#X connect 37 0 53 0;
#X connect 37 1 51 0;
#X connect 37 2 52 0;
#X connect 38 0 37 1;
#X connect 39 0 37 1;
#X connect 40 0 37 1;
#X connect 41 0 42 0;
#X connect 41 0 43 0;
#X connect 41 0 44 0;
#X connect 42 0 13 0;
#X connect 43 0 25 0;
#X connect 44 0 36 0;
#X connect 51 0 20 0;
#X connect 52 0 30 0;
#X connect 53 0 3 0;
#X coords 0 -1 1 1 60 120 1 20 20;
