#N canvas 665 561 721 423 12;
#N canvas 0 0 760 410 sinesum 0;
#X obj 335 301 s \$0-array;
#X obj 568 31 table \$0-array;
#X obj 321 226 glue;
#X msg 89 165 symbol sinesum;
#X obj 330 268 route list;
#X obj 272 86 f \$1;
#X obj 309 86 f \$2;
#X msg 240 86 64;
#X obj 346 85 f \$3;
#X obj 383 85 f \$4;
#X obj 419 84 f \$5;
#X obj 456 84 f \$6;
#X obj 493 83 f \$7;
#X obj 530 81 f \$8;
#X obj 567 84 f \$9;
#X obj 604 83 f \$10;
#X obj 253 132 pack f f f f f f f f f f f;
#X obj 230 24 t b b b b b b b b b b b;
#X obj 234 -17 loadbang;
#X obj 181 62 t b b;
#X obj 35 156 inlet;
#X obj 99 205 inlet;
#X obj 51 339 outlet~;
#X obj 46 233 tabosc4~ \$0-array;
#X connect 2 0 4 0;
#X connect 3 0 2 0;
#X connect 4 0 0 0;
#X connect 5 0 16 1;
#X connect 6 0 16 2;
#X connect 7 0 16 0;
#X connect 8 0 16 3;
#X connect 9 0 16 4;
#X connect 10 0 16 5;
#X connect 11 0 16 6;
#X connect 12 0 16 7;
#X connect 13 0 16 8;
#X connect 14 0 16 9;
#X connect 15 0 16 10;
#X connect 16 0 2 1;
#X connect 17 0 19 0;
#X connect 17 1 5 0;
#X connect 17 2 6 0;
#X connect 17 3 8 0;
#X connect 17 4 9 0;
#X connect 17 5 10 0;
#X connect 17 6 11 0;
#X connect 17 7 12 0;
#X connect 17 8 13 0;
#X connect 17 9 14 0;
#X connect 17 10 15 0;
#X connect 18 0 17 0;
#X connect 19 0 3 0;
#X connect 19 1 7 0;
#X connect 20 0 23 0;
#X connect 21 0 23 1;
#X connect 23 0 22 0;
#X restore 41 55 pd sinesum;
#X obj 41 30 inlet;
#X obj 116 31 inlet;
#X obj 40 92 outlet~;
#X text 152 -9 sinesum~ oscillator with varous partials;
#X text 187 27 arguments: amplitude values for up to 10 partials;
#X text 193 59 left inlet: frequency;
#X text 406 60 right inlet: phase;
#X text 192 86 outlet~: wave;
#X text 300 259 Honk Abstractions -- Kreidler 2007;
#X text 372 294 www.kreidler-net.de;
#X connect 0 0 3 0;
#X connect 1 0 0 0;
#X connect 2 0 0 1;
