#N canvas 427 364 949 534 12;
#X text 525 75 argument: factor for amplitude (by default 1);
#X text 450 386 honk abstractions -- kreidler 2007;
#X text 529 422 www.kreidler-net.de;
#X text 525 103 left inlet: audio input;
#X text 526 126 middle inlet: factor;
#X text 525 154 right inlet: multiplication;
#X text 523 204 outlet: audio output;
#X obj 89 328 unsig~ 10;
#X floatatom 89 366 5 0 0 0 - - -;
#X floatatom 155 128 5 0 0 0 - - -;
#X text 156 107 0-1;
#X obj 89 78 sig~ 1;
#X text 526 20 vamp:;
#X text 526 46 comfortable vertical potentiometer (exponential);
#X msg 120 131 5;
#X text 526 179 radio: multiplication factors 1 / 2 / 10;
#X obj 89 165 vamp;
#X obj 271 327 unsig~ 10;
#X floatatom 271 365 5 0 0 0 - - -;
#X obj 271 77 sig~ 1;
#X obj 271 164 vamp 3;
#X connect 7 0 8 0;
#X connect 9 0 16 2;
#X connect 11 0 16 0;
#X connect 14 0 16 1;
#X connect 16 0 7 0;
#X connect 17 0 18 0;
#X connect 19 0 20 0;
#X connect 20 0 17 0;
#X coords 0 0 1 1 69 152 0;
