#N canvas 427 364 945 530 12;
#X obj 34 444 *~;
#X obj 54 353 line~;
#X msg 54 328 \$1 20;
#X obj 15 -9 inlet~;
#X obj 33 473 outlet~;
#X obj 54 387 *~;
#X obj 214 4 inlet;
#X obj 181 139 \$1;
#X obj 181 113 loadbang;
#X text 318 94 argument: factor for amplitude (by default 1);
#X text 450 386 honk abstractions -- kreidler 2007;
#X text 529 422 www.kreidler-net.de;
#X obj 173 189 route 0;
#X msg 173 220 1;
#X obj 171 75 inlet;
#X text 318 122 left inlet: audio input;
#X text 319 145 middle inlet: factor;
#X text 318 173 right inlet: multiplication;
#X text 316 223 outlet: audio output;
#X obj 757 406 unsig~ 10;
#X floatatom 757 444 5 0 0 0 - - -;
#X floatatom 823 206 5 0 0 0 - - -;
#X text 824 185 0-1;
#X obj 757 156 sig~ 1;
#X obj 71 53 mute;
#X obj 243 404 f;
#X msg 278 261 0;
#X obj 243 232 sel 0;
#X obj 280 417 bng 15 250 50 0 empty empty empty 0 -6 0 8 -262144 -1
-1;
#X obj 279 374 spigot;
#X obj 279 306 t f f;
#X obj 314 345 > 0;
#X text 319 39 vamp:;
#X text 319 65 comfortable vertical potentiometer (exponential);
#X obj 54 30 vsl 15 128 0 1 0 0 empty empty empty 0 -8 0 8 -262144
-1 -1 0 0;
#X text 54 10 amp 10;
#N canvas 0 0 620 563 vamp 0;
#X obj 34 444 *~;
#X obj 54 353 line~;
#X msg 54 328 \$1 20;
#X obj 15 -9 inlet~;
#X obj 33 473 outlet~;
#X obj 54 387 *~;
#X obj 214 4 inlet;
#X obj 181 139 \$1;
#X obj 181 113 loadbang;
#X obj 173 189 route 0;
#X msg 173 220 1;
#X obj 171 75 inlet;
#X obj 71 53 mute;
#X obj 243 404 f;
#X msg 278 261 0;
#X obj 243 232 sel 0;
#X obj 280 417 bng 15 250 50 0 empty empty empty 0 -6 0 8 -262144 -1
-1;
#X obj 279 374 spigot;
#X obj 279 306 t f f;
#X obj 314 345 > 0;
#X obj 54 30 vsl 15 128 0 1 0 0 empty empty empty 0 -8 0 8 -262144
-1 -1 0 0;
#X text 54 10 amp 10;
#X obj 71 36 hradio 15 1 0 3 empty empty empty 0 -6 0 8 -262144 -1
-1 0;
#X obj 66 244 route 0 1 2;
#X obj 54 415 *~ 1;
#X msg 64 280 1;
#X msg 99 278 2;
#X msg 135 279 10;
#X connect 0 0 4 0;
#X connect 1 0 5 0;
#X connect 1 0 5 1;
#X connect 2 0 1 0;
#X connect 3 0 0 0;
#X connect 5 0 24 0;
#X connect 6 0 20 0;
#X connect 7 0 9 0;
#X connect 8 0 7 0;
#X connect 9 0 10 0;
#X connect 9 1 24 1;
#X connect 10 0 24 1;
#X connect 11 0 24 1;
#X connect 12 0 15 0;
#X connect 13 0 20 0;
#X connect 14 0 20 0;
#X connect 15 0 13 0;
#X connect 15 1 14 0;
#X connect 16 0 12 0;
#X connect 17 0 16 0;
#X connect 17 0 13 1;
#X connect 18 0 17 0;
#X connect 18 1 19 0;
#X connect 19 0 17 1;
#X connect 20 0 18 0;
#X connect 20 0 2 0;
#X connect 22 0 23 0;
#X connect 23 0 25 0;
#X connect 23 1 26 0;
#X connect 23 2 27 0;
#X connect 24 0 0 1;
#X connect 25 0 24 1;
#X connect 26 0 24 1;
#X connect 27 0 24 1;
#X coords 0 -1 1 1 69 152 1 52 13;
#X restore 757 245 pd vamp;
#X obj 71 36 hradio 15 1 0 3 empty empty empty 0 -6 0 8 -262144 -1
-1 0;
#X obj 66 244 route 0 1 2;
#X obj 54 415 *~ 1;
#X msg 64 280 1;
#X msg 99 278 2;
#X msg 135 279 10;
#X msg 788 209 5;
#X text 319 198 radio: multiplication factors 1 / 2 / 10;
#X connect 0 0 4 0;
#X connect 1 0 5 0;
#X connect 1 0 5 1;
#X connect 2 0 1 0;
#X connect 3 0 0 0;
#X connect 5 0 39 0;
#X connect 6 0 34 0;
#X connect 7 0 12 0;
#X connect 8 0 7 0;
#X connect 12 0 13 0;
#X connect 12 1 39 1;
#X connect 13 0 39 1;
#X connect 14 0 39 1;
#X connect 19 0 20 0;
#X connect 21 0 36 2;
#X connect 23 0 36 0;
#X connect 24 0 27 0;
#X connect 25 0 34 0;
#X connect 26 0 34 0;
#X connect 27 0 25 0;
#X connect 27 1 26 0;
#X connect 28 0 24 0;
#X connect 29 0 28 0;
#X connect 29 0 25 1;
#X connect 30 0 29 0;
#X connect 30 1 31 0;
#X connect 31 0 29 1;
#X connect 34 0 30 0;
#X connect 34 0 2 0;
#X connect 36 0 19 0;
#X connect 37 0 38 0;
#X connect 38 0 40 0;
#X connect 38 1 41 0;
#X connect 38 2 42 0;
#X connect 39 0 0 1;
#X connect 40 0 39 1;
#X connect 41 0 39 1;
#X connect 42 0 39 1;
#X connect 43 0 36 1;
#X coords 0 -1 1 1 69 152 1 52 13;
