#N canvas 0 0 726 463 12;
#X text 54 20 vum - quick-to-build VU-Meter;
#X text 51 55 input~: audio;
#X text 224 361 honk abstractions -- kreidler 2007;
#X text 280 399 www.kreidler-net.de;
#X obj 55 196 sig~ 1;
#X obj 55 255 vum;
#X obj 55 228 *~ 0.5;
#X obj 128 90 vsl 15 128 0 1 0 0 empty empty empty 0 -8 0 8 -262144
-1 -1 0 1;
#X connect 4 0 6 0;
#X connect 6 0 5 0;
#X connect 7 0 6 1;
#X coords 0 0 1 1 26 145 0;
