#N canvas 349 178 985 654 10;
#X obj 27 374 osc~;
#X floatatom 107 127 5 0 0 0 - - -;
#X obj 56 374 phasor~;
#X obj 109 373 phasor~;
#X obj 110 396 *~ 2;
#X obj 111 416 -~ 1;
#X obj 110 436 clip~ 0 1;
#X obj 133 467 +~;
#X obj 170 374 phasor~;
#X obj 171 397 *~ 2;
#X obj 172 417 -~ 1;
#X obj 171 437 clip~ 0 1;
#X msg 205 351 0;
#X obj 205 330 loadbang;
#X obj 156 332 * -1;
#X obj 295 380 phasor~;
#X obj 356 381 phasor~;
#X msg 358 355 0;
#X obj 392 324 loadbang;
#X obj 335 328 * -1;
#X msg 397 356 0.5;
#X obj 329 409 +~;
#X obj 330 431 -~ 1;
#X obj 439 371 phasor~;
#X obj 439 395 -~ 0.99;
#X obj 439 416 clip~ 0 1;
#X obj 439 437 *~ 100;
#X obj 7 550 outlet~;
#X text 103 109 freq;
#X obj 146 126 hradio 15 1 0 6 empty empty empty 0 -6 0 8 -262144 -1
-1 0;
#X obj 8 523 multiplex~ 0 1 2 3 4 5;
#X obj 360 197 sel 5;
#X obj 511 289 phasor~;
#X obj 511 310 *~ 100;
#X obj 431 234 noise~;
#X text 543 26 waveform~: waveform oscillator;
#X text 652 172 honk abstractions -- kreidler 2007;
#X text 691 197 www.kreidler-net.de;
#X text 144 109 sine/saw/triangle/square/pulse/random;
#X obj 171 35 loadbang;
#X obj 236 37 loadbang;
#X obj 307 45 inlet;
#X obj 106 45 inlet;
#X obj 179 73 \$2;
#X obj 240 70 \$1;
#X text 550 50 left inlet / first argument: frequency (Hz);
#X obj 459 169 inlet;
#X obj 472 205 + 0.5;
#X text 549 66 middle inlet / second argument: waveform 0-5;
#X text 551 85 right inlet: phase;
#X obj 512 236 table \$0-ra 100;
#X obj 510 331 tabread4~ \$0-ra;
#X obj 360 279 tabwrite~ \$0-ra;
#X msg 714 465 \; pd dsp 1;
#X obj 714 441 loadbang;
#X connect 0 0 30 0;
#X connect 1 0 0 0;
#X connect 1 0 2 0;
#X connect 1 0 14 0;
#X connect 1 0 3 0;
#X connect 1 0 19 0;
#X connect 1 0 15 0;
#X connect 1 0 23 0;
#X connect 1 0 32 0;
#X connect 2 0 30 1;
#X connect 3 0 4 0;
#X connect 4 0 5 0;
#X connect 5 0 6 0;
#X connect 6 0 7 0;
#X connect 7 0 30 2;
#X connect 8 0 9 0;
#X connect 9 0 10 0;
#X connect 10 0 11 0;
#X connect 11 0 7 1;
#X connect 12 0 8 1;
#X connect 12 0 3 1;
#X connect 13 0 12 0;
#X connect 14 0 8 0;
#X connect 15 0 21 0;
#X connect 16 0 21 1;
#X connect 17 0 15 1;
#X connect 18 0 17 0;
#X connect 18 0 20 0;
#X connect 19 0 16 0;
#X connect 20 0 16 1;
#X connect 21 0 22 0;
#X connect 22 0 30 3;
#X connect 23 0 24 0;
#X connect 24 0 25 0;
#X connect 25 0 26 0;
#X connect 26 0 30 4;
#X connect 29 0 30 0;
#X connect 29 0 31 0;
#X connect 30 0 27 0;
#X connect 31 0 52 0;
#X connect 32 0 33 0;
#X connect 33 0 51 0;
#X connect 34 0 52 0;
#X connect 39 0 43 0;
#X connect 40 0 44 0;
#X connect 41 0 29 0;
#X connect 42 0 1 0;
#X connect 43 0 29 0;
#X connect 44 0 1 0;
#X connect 46 0 0 1;
#X connect 46 0 2 1;
#X connect 46 0 3 1;
#X connect 46 0 8 1;
#X connect 46 0 47 0;
#X connect 46 0 15 1;
#X connect 46 0 23 1;
#X connect 46 0 32 1;
#X connect 47 0 16 1;
#X connect 51 0 30 5;
#X connect 54 0 53 0;
#X coords 0 -1 1 1 280 45 1 100 100;
