#N canvas 636 466 955 503 12;
#X text 411 134 zetro: random metronome;
#X text 414 161 arguments: random range (ms) \, offset (ms);
#X text 412 190 left inlet: toggle to start zetro;
#X text 413 220 middle inlet: random range (ms);
#X text 411 243 right inlet: offset (ms);
#X obj 243 426 bng 15 250 50 0 empty empty empty 0 -6 0 8 -262144 -1
-1;
#X obj 243 363 tgl 15 0 empty empty empty 0 -6 0 8 -262144 -1 -1 0
1;
#N canvas 0 0 458 308 zetro 0;
#X obj 34 187 metro;
#X obj 69 137 random;
#X obj 69 162 +;
#X obj 112 63 inlet;
#X obj 176 131 inlet;
#X obj 34 231 outlet;
#X obj 34 103 inlet;
#X obj 175 96 \$1;
#X obj 175 72 loadbang;
#X obj 272 70 loadbang;
#X obj 272 94 \$2;
#X obj 120 228 outlet;
#X connect 0 0 1 0;
#X connect 0 0 5 0;
#X connect 1 0 2 0;
#X connect 2 0 0 1;
#X connect 2 0 11 0;
#X connect 3 0 1 1;
#X connect 4 0 2 1;
#X connect 6 0 0 0;
#X connect 7 0 1 1;
#X connect 8 0 7 0;
#X connect 9 0 10 0;
#X connect 10 0 2 1;
#X restore 243 392 pd zetro;
#X obj 281 300 loadbang;
#X text 658 340 honk abstractions -- kreidler 2007;
#X text 702 372 www.kreidler-net.de;
#N canvas 0 0 458 308 zetro 0;
#X obj 34 187 metro;
#X obj 69 137 random;
#X obj 69 162 +;
#X obj 112 63 inlet;
#X obj 176 131 inlet;
#X obj 34 231 outlet;
#X obj 34 103 inlet;
#X obj 175 96 \$1;
#X obj 175 72 loadbang;
#X obj 272 70 loadbang;
#X obj 272 94 \$2;
#X obj 125 235 outlet;
#X connect 0 0 1 0;
#X connect 0 0 5 0;
#X connect 1 0 2 0;
#X connect 2 0 0 1;
#X connect 2 0 11 0;
#X connect 3 0 1 1;
#X connect 4 0 2 1;
#X connect 6 0 0 0;
#X connect 7 0 1 1;
#X connect 8 0 7 0;
#X connect 9 0 10 0;
#X connect 10 0 2 1;
#X restore 17 110 pd zetro;
#X obj 17 78 inlet;
#X obj 62 78 inlet;
#X obj 106 78 inlet;
#X obj 17 140 outlet;
#X text 241 449 bangs with duration between 1000 and 2000 milliseconds
;
#X obj 76 139 outlet;
#X floatatom 302 420 5 0 0 0 - - -;
#X msg 314 354 1;
#X msg 272 342 5555;
#X text 411 269 left outlet: random bangs;
#X text 411 291 right outlet: random duration (ms);
#X connect 6 0 7 0;
#X connect 7 0 5 0;
#X connect 7 1 18 0;
#X connect 8 0 20 0;
#X connect 8 0 19 0;
#X connect 11 0 15 0;
#X connect 11 1 17 0;
#X connect 12 0 11 0;
#X connect 13 0 11 1;
#X connect 14 0 11 2;
#X connect 19 0 7 2;
#X connect 20 0 7 1;
