#N canvas 322 27 494 344 10;
#X obj 29 85 bng 15 250 50 0 empty empty empty 0 -6 0 8 -262144 -1
-1;
#X obj 151 136 delay;
#X floatatom 104 103 5 0 250 0 attack - -;
#X floatatom 190 103 5 0 250 0 decay - -;
#X floatatom 285 103 5 0 100 0 sustain - -;
#X floatatom 382 103 5 0 250 0 release - -;
#X obj 175 157 bng 15 250 50 0 empty empty empty 0 -6 0 8 -262144 -1
-1;
#X obj 88 180 pack 100 0;
#X obj 172 192 pack 0 0;
#X obj 346 157 pack 0 0;
#X obj 345 80 bng 15 250 50 0 empty empty empty 0 -6 0 8 -262144 -1
-1;
#X obj 31 18 inlet;
#X obj 110 19 inlet;
#X obj 187 20 inlet;
#X obj 278 21 inlet;
#X obj 377 22 inlet;
#X obj 174 263 outlet~;
#X obj 33 42 select 0;
#X msg 145 81 stop;
#X msg 54 211 0 1;
#X obj 98 80 max 1;
#X obj 386 63 max 1;
#X obj 47 131 t b b;
#X obj 168 228 vline~;
#X obj 195 166 float;
#X connect 0 0 22 0;
#X connect 1 0 6 0;
#X connect 2 0 7 1;
#X connect 2 0 1 1;
#X connect 3 0 8 1;
#X connect 4 0 24 1;
#X connect 5 0 9 1;
#X connect 6 0 24 0;
#X connect 7 0 23 0;
#X connect 8 0 23 0;
#X connect 9 0 23 0;
#X connect 10 0 9 0;
#X connect 11 0 17 0;
#X connect 12 0 20 0;
#X connect 13 0 3 0;
#X connect 14 0 4 0;
#X connect 15 0 21 0;
#X connect 17 0 10 0;
#X connect 17 0 18 0;
#X connect 17 1 0 0;
#X connect 18 0 1 0;
#X connect 19 0 23 0;
#X connect 20 0 2 0;
#X connect 21 0 5 0;
#X connect 22 0 7 0;
#X connect 22 1 1 0;
#X connect 22 1 19 0;
#X connect 23 0 16 0;
#X connect 24 0 8 0;
