#N canvas -20 10 780 512 12;
#X obj 102 102 cnv 15 94 94 empty empty empty 20 12 0 14 -1 -66577
0;
#X obj 104 104 cnv 15 90 90 empty empty empty 20 12 0 14 -233017 -66577
0;
#X obj 109 109 vsl 22 77 0 1 0 0 \$0-snlvl \$0-snlvl_r empty 0 -9 0
10 -262144 -1 -1 6780 1;
#X obj 136 109 vsl 22 77 0 0.5 0 0 \$0-bslvl \$0-bslvl_r empty 0 -9
0 10 -262144 -1 -1 3800 1;
#X obj 164 167 tgl 22 0 \$0-on wwwwww empty 17 7 0 10 -262144 -1 -1
1 1;
#X text 166 146 ON;
#N canvas 0 0 780 512 guts 1;
#X obj 125 128 mtof;
#X obj 124 259 +~;
#X obj 125 157 sig~;
#X obj 173 157 *~ 2;
#X obj 246 485 *~ 0.1;
#X floatatom 125 79 5 0 0 0 - - -;
#X obj 231 68 noise~;
#X obj 231 126 max~ 0;
#X obj 231 96 samphold~;
#X obj 248 228 *~ 0.8;
#X obj 171 228 *~;
#X obj 232 156 *~ 800;
#X obj 323 125 threshold~ 0;
#X obj 323 162 bng 15 250 50 0 empty empty empty 17 7 0 10 -262144
-1 -1;
#X obj 409 194 random 10;
#X obj 409 219 max 2;
#X floatatom 409 249 5 0 0 0 - - -;
#X obj 126 354 *~;
#X obj 173 335 line~;
#X msg 232 357 0 \, 1 10;
#X obj 301 333 del 10;
#X obj 173 360 *~;
#X msg 301 357 1 \, 0 3000;
#X obj 489 194 random 5;
#X obj 489 230 sel 0 1 2 3 4;
#X msg 489 281 60;
#X msg 649 281 72;
#X msg 529 281 63;
#X msg 569 281 67;
#X msg 609 281 70;
#X obj 159 421 *~ 0.8;
#X obj 359 422 *~ 0.5;
#X obj 303 485 *~ 0.1;
#X obj 125 290 osc~;
#X obj 172 187 osc~;
#X obj 27 128 mtof;
#X obj 26 259 +~;
#X obj 27 157 sig~;
#X obj 75 157 *~ 2;
#X floatatom 27 79 5 0 0 0 - - -;
#X obj 73 228 *~;
#X obj 27 290 phasor~;
#X obj 74 187 phasor~;
#X obj 27 52 + 12;
#X obj 125 38 +;
#X obj 563 193 random 3;
#X obj 449 49 sel 0 1 2;
#X obj 301 12 phasor~ 3;
#X msg 443 83 -12;
#X msg 483 83 0;
#X msg 523 83 12;
#X obj 160 394 delread~ \$0-left 375;
#X obj 159 449 delwrite~ \$0-left 1000;
#X obj 359 450 delwrite~ \$0-right 1000;
#X obj 360 395 delread~ \$0-right 600;
#X obj 247 194 delread~ \$0-dl1 500;
#X obj 232 282 delwrite~ \$0-dl1 1000;
#X obj 618 94 del 200;
#X obj 247 510 *~ 0;
#X obj 303 509 *~ 0;
#X obj 141 473 r \$0-snlvl;
#X obj 168 44 r \$0-oct;
#X obj 443 145 s \$0-oct;
#X obj 489 334 s \$0-pitch;
#X obj 125 6 r \$0-pitch;
#X obj 343 53 r \$0-on;
#X obj 301 54 *~ 0;
#X obj 711 406 osc~;
#X obj 709 549 s~ \$0-bass;
#X obj 378 484 r~ \$0-bass;
#X obj 378 509 *~ 0;
#X obj 557 395 r \$0-bslvl;
#X obj 557 455 line;
#X msg 557 427 \$1 100;
#X obj 731 313 osc~;
#X obj 710 377 +~;
#X obj 710 241 sig~;
#X obj 709 207 mtof;
#X obj 731 285 *~ 2;
#X msg 688 112 36;
#X msg 727 112 39;
#X msg 766 113 34;
#X msg 802 115 43;
#X obj 778 307 line~;
#X obj 732 347 *~;
#X msg 778 283 0 \, 200 1000;
#X obj 693 34 random 4;
#X obj 694 60 sel 0 1 2 3;
#X obj 711 435 hip~ 100;
#X obj 852 123 loadbang;
#X obj 852 155 pack \$0;
#X obj 710 465 *~ 0;
#X obj 790 392 r \$0-on;
#X msg 790 421 \$1 50;
#X obj 790 448 line;
#X obj 756 499 samphold~;
#X obj 756 522 *~;
#X obj 825 472 phasor~ 2000;
#X obj 895 352 *~ 0.5;
#X obj 895 377 +~ 0.5;
#X obj 895 402 *~ 2000;
#X obj 895 427 +~ 1000;
#X obj 895 327 osc~ 0.01;
#X obj 779 340 *~ 0.001;
#X obj 340 548 outlet~;
#X obj 270 547 outlet~;
#X msg 852 182 \; \$1-bslvl_r 0.25 \; \$1-snlvl_r 0.8;
#X obj 29 101 pipe 100;
#X obj 26 319 *~ 0.5;
#X floatatom 561 56 5 0 0 0 - - -;
#X msg 557 127 1;
#X msg 594 128 0;
#X obj 561 100 sel 2;
#X obj 386 334 samphold~;
#X obj 386 365 threshold~ 0;
#X obj 617 356 bng 15 250 50 0 empty empty empty 17 7 0 10 -262144
-1 -1;
#X obj 386 309 noise~;
#X obj 559 154 metro 100;
#X obj 561 24 random 5;
#X connect 0 0 2 0;
#X connect 0 0 3 0;
#X connect 1 0 33 0;
#X connect 2 0 1 0;
#X connect 3 0 34 0;
#X connect 4 0 58 0;
#X connect 5 0 0 0;
#X connect 6 0 8 0;
#X connect 7 0 11 0;
#X connect 8 0 7 0;
#X connect 8 0 12 0;
#X connect 9 0 56 0;
#X connect 10 0 1 1;
#X connect 11 0 56 0;
#X connect 12 0 13 0;
#X connect 13 0 14 0;
#X connect 13 0 19 0;
#X connect 13 0 20 0;
#X connect 13 0 23 0;
#X connect 13 0 45 0;
#X connect 13 0 57 0;
#X connect 14 0 15 0;
#X connect 15 0 16 0;
#X connect 16 0 3 1;
#X connect 16 0 38 1;
#X connect 17 0 52 0;
#X connect 17 0 53 0;
#X connect 18 0 21 0;
#X connect 18 0 21 1;
#X connect 19 0 18 0;
#X connect 20 0 22 0;
#X connect 21 0 17 1;
#X connect 22 0 18 0;
#X connect 23 0 24 0;
#X connect 24 0 25 0;
#X connect 24 1 27 0;
#X connect 24 2 28 0;
#X connect 24 3 29 0;
#X connect 24 4 26 0;
#X connect 25 0 63 0;
#X connect 26 0 63 0;
#X connect 27 0 63 0;
#X connect 28 0 63 0;
#X connect 29 0 63 0;
#X connect 30 0 52 0;
#X connect 31 0 53 0;
#X connect 32 0 59 0;
#X connect 33 0 17 0;
#X connect 34 0 10 0;
#X connect 35 0 37 0;
#X connect 35 0 38 0;
#X connect 36 0 41 0;
#X connect 37 0 36 0;
#X connect 38 0 42 0;
#X connect 39 0 107 0;
#X connect 40 0 36 1;
#X connect 41 0 108 0;
#X connect 42 0 40 0;
#X connect 43 0 39 0;
#X connect 44 0 5 0;
#X connect 44 0 43 0;
#X connect 45 0 46 0;
#X connect 46 0 48 0;
#X connect 46 1 49 0;
#X connect 46 2 50 0;
#X connect 47 0 66 0;
#X connect 48 0 62 0;
#X connect 49 0 62 0;
#X connect 50 0 62 0;
#X connect 51 0 30 0;
#X connect 51 0 4 0;
#X connect 54 0 31 0;
#X connect 54 0 32 0;
#X connect 55 0 9 0;
#X connect 55 0 10 1;
#X connect 55 0 40 1;
#X connect 57 0 85 0;
#X connect 57 0 86 0;
#X connect 58 0 105 0;
#X connect 59 0 104 0;
#X connect 60 0 58 1;
#X connect 60 0 59 1;
#X connect 61 0 44 1;
#X connect 64 0 44 0;
#X connect 65 0 66 1;
#X connect 65 0 13 0;
#X connect 66 0 8 1;
#X connect 66 0 113 1;
#X connect 67 0 88 0;
#X connect 69 0 70 0;
#X connect 70 0 104 0;
#X connect 70 0 105 0;
#X connect 71 0 73 0;
#X connect 72 0 70 1;
#X connect 73 0 72 0;
#X connect 74 0 84 0;
#X connect 75 0 67 0;
#X connect 76 0 75 0;
#X connect 76 0 78 0;
#X connect 77 0 76 0;
#X connect 78 0 74 0;
#X connect 79 0 77 0;
#X connect 80 0 77 0;
#X connect 81 0 77 0;
#X connect 82 0 77 0;
#X connect 83 0 84 1;
#X connect 83 0 103 0;
#X connect 84 0 75 1;
#X connect 85 0 83 0;
#X connect 86 0 87 0;
#X connect 87 0 79 0;
#X connect 87 1 80 0;
#X connect 87 2 81 0;
#X connect 87 3 82 0;
#X connect 88 0 91 0;
#X connect 89 0 90 0;
#X connect 90 0 106 0;
#X connect 91 0 95 0;
#X connect 91 0 68 0;
#X connect 92 0 93 0;
#X connect 93 0 94 0;
#X connect 94 0 91 1;
#X connect 95 0 96 0;
#X connect 96 0 68 0;
#X connect 97 0 95 1;
#X connect 98 0 99 0;
#X connect 99 0 100 0;
#X connect 100 0 101 0;
#X connect 101 0 97 0;
#X connect 102 0 98 0;
#X connect 103 0 96 1;
#X connect 107 0 35 0;
#X connect 108 0 17 0;
#X connect 109 0 112 0;
#X connect 110 0 117 0;
#X connect 111 0 117 0;
#X connect 112 0 110 0;
#X connect 112 1 111 0;
#X connect 113 0 114 0;
#X connect 114 0 115 0;
#X connect 115 0 118 0;
#X connect 116 0 113 0;
#X connect 117 0 13 0;
#X connect 118 0 109 0;
#X restore 8 159 pd guts;
#X obj 8 213 outlet~;
#X obj 75 214 outlet~;
#X obj 164 212 outlet;
#X connect 4 0 9 0;
#X connect 6 0 7 0;
#X connect 6 1 8 0;
#X coords 0 -1 1 1 98 98 2 100 100;
