#N canvas 0 22 450 300 10;
#N canvas 0 22 450 300 (subpatch) 0;
#X obj 0 0 cnv 15 150 70 empty empty empty 20 12 0 14 -1 -66577 0;
#X obj 9 10 cnv 15 130 50 empty empty empty 20 12 0 14 -203904 -66577
0;
#X obj 14 310 random 100;
#X msg 14 379 bang;
#X obj 14 246 f 0;
#X obj 60 248 + 1;
#X obj 14 267 mod 200;
#X obj 14 287 sel 29 37 47 67 89 113 157 197;
#X obj 54 13 tgl 18 0 empty empty Start/Stop 25 10 1 11 -1 -260097
-1 0 1;
#X obj 14 44 hsl 120 15 0 100 0 0 empty empty Amount -2 -6 1 10 -258699
-1 -1 0 1;
#X obj 14 356 moses;
#X obj 14 225 metro 15;
#X obj 28 454 outlet;
#X connect 2 0 10 0;
#X connect 3 0 12 0;
#X connect 4 0 5 0;
#X connect 4 0 6 0;
#X connect 5 0 4 1;
#X connect 6 0 7 0;
#X connect 7 0 2 0;
#X connect 7 1 2 0;
#X connect 7 2 2 0;
#X connect 7 3 2 0;
#X connect 7 4 2 0;
#X connect 7 5 2 0;
#X connect 7 6 2 0;
#X connect 7 7 2 0;
#X connect 8 0 11 0;
#X connect 9 0 10 1;
#X connect 10 0 3 0;
#X connect 11 0 4 0;
#X coords 0 1 100 -1 150 70 1 0 0;
#X restore 100 20 graph;
#X obj 100 92 bng 15 250 50 0 empty empty empty 17 7 0 10 -262144 -1
-1;
#X connect 0 0 1 0;
