#N canvas 0 22 375 107 10;
#N canvas 0 22 450 300 armfloat 0;
#X obj 119 84 inlet bang;
#X obj 222 83 inlet trig;
#X obj 119 387 f;
#X obj 119 410 change;
#X obj 119 435 outlet trig;
#X obj 355 83 inlet wait;
#X obj 284 262 f;
#X msg 299 220 0;
#X obj 284 287 + 1;
#X obj 119 195 spigot;
#X msg 152 160 0;
#X msg 184 159 1;
#X obj 222 113 t b b;
#X obj 355 195 moses 1;
#X obj 284 310 sel 1;
#X connect 0 0 9 0;
#X connect 1 0 2 1;
#X connect 1 0 12 0;
#X connect 2 0 3 0;
#X connect 3 0 4 0;
#X connect 5 0 13 0;
#X connect 6 0 8 0;
#X connect 7 0 6 1;
#X connect 8 0 6 1;
#X connect 8 0 14 0;
#X connect 9 0 6 0;
#X connect 10 0 9 1;
#X connect 11 0 9 1;
#X connect 12 0 11 0;
#X connect 12 1 7 0;
#X connect 13 1 14 1;
#X connect 14 0 2 0;
#X connect 14 0 10 0;
#X restore 16 52 pd armfloat;
#X obj 16 34 r Mbang;
#X obj 47 17 tgl 15 0 empty empty empty 0 -6 0 8 -262144 -1 -1 0 1
;
#X text 140 21 synches a trigger to a bang;
#X text 141 37 usefull to synch two sequencers.;
#X connect 1 0 0 0;
#X connect 2 0 0 1;
