#N canvas 0 22 759 466 10;
#N canvas 0 22 450 300 (subpatch) 0;
#X obj 59 155 inlet;
#X obj 3 89 inlet~;
#X obj 58 182 change;
#X msg 60 246 set \$1;
#X obj 60 227 tosymbol;
#X obj 59 204 sprintf Bus%d;
#X obj 3 282 throw~ Bus0;
#X obj 2 3 popup 124 25 #ffffff popup Bus0 Bus1 Bus2 Bus3 Bus4 Bus5
Bus6 Bus7 Bus8 Bus9 Bus10 Bus11 Bus12 Bus13 Bus14 Bus15 Bus16;
#X obj 1 32 route bang;
#X obj 154 202 *~;
#X obj 141 7 tgl 15 0 empty empty Dac 19 7 0 10 -262144 -1 -1 0 1;
#X obj 155 238 dac~;
#X obj 1 -49 loadbang;
#X text 59 -51 Bus0 mutes;
#X msg 1 -31 options Bus0 Bus1 Bus2 Bus3 Bus4 Bus5 Bus6 Bus7 Bus8 Bus9
Bus10 Bus11 Bus12 Bus13 Bus14 Bus15 Bus16;
#X connect 0 0 2 0;
#X connect 1 0 6 0;
#X connect 1 0 9 0;
#X connect 2 0 5 0;
#X connect 3 0 6 0;
#X connect 4 0 3 0;
#X connect 5 0 4 0;
#X connect 7 0 8 0;
#X connect 8 1 2 0;
#X connect 9 0 11 0;
#X connect 9 0 11 1;
#X connect 10 0 9 1;
#X connect 12 0 14 0;
#X connect 14 0 7 0;
#X coords 0 1 100 -1 180 30 1 0 0;
#X restore 119 16 graph;
#N canvas 0 22 450 300 (subpatch) 0;
#X obj 59 155 inlet;
#X obj 3 89 inlet~;
#X obj 58 182 change;
#X msg 60 246 set \$1;
#X obj 60 227 tosymbol;
#X obj 59 204 sprintf Bus%d;
#X obj 3 282 throw~ Bus0;
#X obj 2 3 popup 124 25 #ffffff popup Bus0 Bus1 Bus2 Bus3 Bus4 Bus5
Bus6 Bus7 Bus8 Bus9 Bus10 Bus11 Bus12 Bus13 Bus14 Bus15 Bus16;
#X obj 1 32 route bang;
#X obj 154 202 *~;
#X obj 141 7 tgl 15 0 empty empty Dac 19 7 0 10 -262144 -1 -1 0 1;
#X obj 155 238 dac~;
#X obj 1 -41 loadbang;
#X text 59 -43 Bus0 mutes;
#X msg 1 -23 options Bus0 Bus1 Bus2 Bus3 Bus4 Bus5 Bus6 Bus7 Bus8 Bus9
Bus10 Bus11 Bus12 Bus13 Bus14 Bus15 Bus16;
#X connect 0 0 2 0;
#X connect 1 0 6 0;
#X connect 1 0 9 0;
#X connect 2 0 5 0;
#X connect 3 0 6 0;
#X connect 4 0 3 0;
#X connect 5 0 4 0;
#X connect 7 0 8 0;
#X connect 8 1 2 0;
#X connect 9 0 11 0;
#X connect 10 0 9 1;
#X connect 12 0 14 0;
#X connect 14 0 7 0;
#X coords 0 1 100 -1 180 30 1 0 0;
#X restore 122 97 graph;
#N canvas 0 22 450 300 (subpatch) 0;
#X obj 59 155 inlet;
#X obj 3 89 inlet~;
#X obj 58 182 change;
#X msg 60 246 set \$1;
#X obj 60 227 tosymbol;
#X obj 59 204 sprintf Bus%d;
#X obj 3 282 throw~ Bus0;
#X obj 2 3 popup 124 25 #ffffff popup Bus0 Bus1 Bus2 Bus3 Bus4 Bus5
Bus6 Bus7 Bus8 Bus9 Bus10 Bus11 Bus12 Bus13 Bus14 Bus15 Bus16;
#X obj 1 32 route bang;
#X obj 154 202 *~;
#X obj 141 7 tgl 15 0 empty empty Dac 19 7 0 10 -262144 -1 -1 0 1;
#X obj 155 238 dac~;
#X obj 1 -41 loadbang;
#X text 59 -43 Bus0 mutes;
#X msg 1 -23 options Bus0 Bus1 Bus2 Bus3 Bus4 Bus5 Bus6 Bus7 Bus8 Bus9
Bus10 Bus11 Bus12 Bus13 Bus14 Bus15 Bus16;
#X connect 0 0 2 0;
#X connect 1 0 6 0;
#X connect 1 0 9 0;
#X connect 2 0 5 0;
#X connect 3 0 6 0;
#X connect 4 0 3 0;
#X connect 5 0 4 0;
#X connect 7 0 8 0;
#X connect 8 1 2 0;
#X connect 9 0 11 1;
#X connect 10 0 9 1;
#X connect 12 0 14 0;
#X connect 14 0 7 0;
#X coords 0 1 100 -1 180 30 1 0 0;
#X restore 122 130 graph;
#X text 108 102 L;
#X text 107 135 R;
#N canvas 0 22 839 439 (subpatch) 0;
#X obj 88 90 change;
#X msg 90 154 set \$1;
#X obj 90 135 tosymbol;
#X obj 89 112 sprintf Bus%d;
#X msg 135 203 Bus5;
#X obj 91 6 tgl 20 0 empty empty DAC 23 10 1 11 -262144 -1 -1 0 1;
#X obj 250 174 *~;
#X obj 251 210 dac~;
#X obj 37 3 nbx 3 25 0 16 0 0 empty empty BUS -35 13 1 14 -1 -260097
-260097 0 256;
#X obj 1 49 inlet~;
#X obj -1 232 throw~ Bus0;
#X connect 0 0 3 0;
#X connect 1 0 4 0;
#X connect 1 0 10 0;
#X connect 2 0 1 0;
#X connect 3 0 2 0;
#X connect 5 0 6 1;
#X connect 6 0 7 0;
#X connect 6 0 7 1;
#X connect 8 0 0 0;
#X connect 9 0 6 0;
#X connect 9 0 10 0;
#X coords 0 1 100 -1 140 30 1 0 0;
#X restore 379 15 graph;
#N canvas 0 22 839 439 (subpatch) 0;
#X obj 88 90 change;
#X msg 90 154 set \$1;
#X obj 90 135 tosymbol;
#X obj 89 112 sprintf Bus%d;
#X msg 135 203 Bus5;
#X obj 91 6 tgl 20 0 empty empty DAC 23 10 1 11 -262144 -1 -1 0 1;
#X obj 250 174 *~;
#X obj 251 210 dac~;
#X obj 37 3 nbx 3 25 0 16 0 0 empty empty BUS -35 13 1 14 -1 -260097
-260097 0 256;
#X obj 1 49 inlet~;
#X obj -1 232 throw~ Bus0;
#X connect 0 0 3 0;
#X connect 1 0 4 0;
#X connect 1 0 10 0;
#X connect 2 0 1 0;
#X connect 3 0 2 0;
#X connect 5 0 6 1;
#X connect 6 0 7 0;
#X connect 8 0 0 0;
#X connect 9 0 6 0;
#X connect 9 0 10 0;
#X coords 0 1 100 -1 140 30 1 0 0;
#X restore 377 95 graph;
#N canvas 0 22 839 439 (subpatch) 0;
#X obj 88 90 change;
#X msg 90 154 set \$1;
#X obj 90 135 tosymbol;
#X obj 89 112 sprintf Bus%d;
#X msg 135 203 Bus5;
#X obj 91 6 tgl 20 0 empty empty DAC 23 10 1 11 -262144 -1 -1 0 1;
#X obj 250 174 *~;
#X obj 251 210 dac~;
#X obj 37 3 nbx 3 25 0 16 0 0 empty empty BUS -35 13 1 14 -1 -260097
-260097 0 256;
#X obj 1 49 inlet~;
#X obj -1 232 throw~ Bus0;
#X connect 0 0 3 0;
#X connect 1 0 4 0;
#X connect 1 0 10 0;
#X connect 2 0 1 0;
#X connect 3 0 2 0;
#X connect 5 0 6 1;
#X connect 6 0 7 1;
#X connect 8 0 0 0;
#X connect 9 0 6 0;
#X connect 9 0 10 0;
#X coords 0 1 100 -1 140 30 1 0 0;
#X restore 377 130 graph;
#X text 362 101 L;
#X text 361 134 R;
#X text 161 -10 Linux / Mac;
#X text 387 -10 Windows / Linux / Mac;
#N canvas 0 22 839 439 (subpatch) 0;
#X obj 0 0 cnv 15 260 70 empty empty empty 20 12 0 14 -228856 -66577
0;
#X obj 9 133 change;
#X msg 11 197 set \$1;
#X obj 11 178 tosymbol;
#X obj 10 155 sprintf Bus%d;
#X msg 56 246 Bus16;
#X obj 86 6 nbx 2 20 0 16 0 0 empty empty Inlet1_to_Bus -77 12 1 12
-1 -260097 -260097 16 256;
#X obj 0 94 inlet~;
#X obj -2 277 throw~ Bus0;
#X obj 103 135 change;
#X msg 105 199 set \$1;
#X obj 105 180 tosymbol;
#X obj 104 157 sprintf Bus%d;
#X msg 115 250 Bus16;
#X obj 94 96 inlet~;
#X obj 92 279 throw~ Bus0;
#X obj 202 137 change;
#X msg 204 201 set \$1;
#X obj 204 182 tosymbol;
#X obj 202 159 sprintf Bus%d;
#X msg 249 250 Bus16;
#X obj 193 98 inlet~;
#X obj 191 281 throw~ Bus0;
#X obj 297 137 change;
#X msg 299 201 set \$1;
#X obj 299 182 tosymbol;
#X obj 298 159 sprintf Bus%d;
#X msg 344 250 Bus4;
#X obj 288 98 inlet~;
#X obj 286 281 throw~ Bus0;
#X obj 167 -116 loadbang;
#X obj 212 7 nbx 2 20 0 16 0 0 empty empty Inlet2_to_Bus -77 12 1 12
-1 -260097 -260097 16 256;
#X obj 87 37 nbx 2 20 0 16 0 0 empty empty Inlet3_to_Bus -77 12 1 12
-1 -260097 -260097 16 256;
#X obj 213 38 nbx 2 20 0 16 0 0 empty empty Inlet4_to_Bus -77 12 1
12 -1 -260097 -260097 16 256;
#X msg 77 -92 16;
#X connect 1 0 4 0;
#X connect 2 0 5 0;
#X connect 2 0 8 0;
#X connect 3 0 2 0;
#X connect 4 0 3 0;
#X connect 6 0 1 0;
#X connect 7 0 8 0;
#X connect 9 0 12 0;
#X connect 10 0 13 0;
#X connect 10 0 15 0;
#X connect 11 0 10 0;
#X connect 12 0 11 0;
#X connect 14 0 15 0;
#X connect 16 0 19 0;
#X connect 17 0 20 0;
#X connect 17 0 22 0;
#X connect 18 0 17 0;
#X connect 19 0 18 0;
#X connect 21 0 22 0;
#X connect 23 0 26 0;
#X connect 24 0 27 0;
#X connect 24 0 29 0;
#X connect 25 0 24 0;
#X connect 26 0 25 0;
#X connect 28 0 29 0;
#X connect 30 0 34 0;
#X connect 31 0 9 0;
#X connect 32 0 16 0;
#X connect 34 0 6 0;
#X connect 34 0 31 0;
#X connect 34 0 32 0;
#X connect 34 0 33 0;
#X coords 0 1 100 -1 260 70 1 0 0;
#X restore 178 268 graph;
#X text 178 250 Windows / Linux / Mac to route 4 signals;
#N canvas 0 22 839 439 (subpatch) 0;
#X obj 0 0 cnv 15 260 70 empty empty empty 20 12 0 14 -228856 -66577
0;
#X obj 9 133 change;
#X msg 11 197 set \$1;
#X obj 11 178 tosymbol;
#X obj 10 155 sprintf Bus%d;
#X msg 56 246 Bus1;
#X obj 33 8 nbx 2 15 0 16 0 0 empty empty I1-Bus -30 7 1 10 -1 -260097
-260097 1 256;
#X obj 0 94 inlet~;
#X obj -2 277 throw~ Bus0;
#X obj 103 135 change;
#X msg 105 199 set \$1;
#X obj 105 180 tosymbol;
#X obj 104 157 sprintf Bus%d;
#X msg 115 250 Bus2;
#X obj 94 96 inlet~;
#X obj 92 279 throw~ Bus0;
#X obj 96 8 nbx 2 15 0 16 0 0 empty empty I2-Bus -30 7 1 10 -1 -260097
-260097 2 256;
#X obj 202 137 change;
#X msg 204 201 set \$1;
#X obj 204 182 tosymbol;
#X obj 202 159 sprintf Bus%d;
#X msg 249 250 Bus3;
#X obj 193 98 inlet~;
#X obj 191 281 throw~ Bus0;
#X obj 161 9 nbx 2 15 0 16 0 0 empty empty I3-Bus -30 7 1 10 -1 -260097
-260097 3 256;
#X obj 297 137 change;
#X msg 299 201 set \$1;
#X obj 299 182 tosymbol;
#X obj 298 159 sprintf Bus%d;
#X msg 344 250 Bus4;
#X obj 288 98 inlet~;
#X obj 286 281 throw~ Bus0;
#X obj 228 10 nbx 2 15 0 16 0 0 empty empty I4-Bus -30 7 1 10 -1 -260097
-260097 4 256;
#X obj 399 141 change;
#X msg 401 205 set \$1;
#X obj 401 186 tosymbol;
#X obj 400 163 sprintf Bus%d;
#X msg 446 254 Bus5;
#X obj 390 102 inlet~;
#X obj 388 285 throw~ Bus0;
#X obj 33 26 nbx 2 15 0 16 0 0 empty empty I5-Bus -30 7 1 10 -1 -260097
-260097 5 256;
#X obj 499 139 change;
#X msg 501 203 set \$1;
#X obj 501 184 tosymbol;
#X obj 500 161 sprintf Bus%d;
#X msg 546 252 Bus6;
#X obj 490 100 inlet~;
#X obj 488 283 throw~ Bus0;
#X obj 96 26 nbx 2 15 0 16 0 0 empty empty I6-Bus -30 7 1 10 -1 -260097
-260097 6 256;
#X obj 598 144 change;
#X msg 600 208 set \$1;
#X obj 600 189 tosymbol;
#X obj 599 166 sprintf Bus%d;
#X msg 645 257 Bus7;
#X obj 161 27 nbx 2 15 0 16 0 0 empty empty I7-Bus -30 7 1 10 -1 -260097
-260097 7 256;
#X obj 589 105 inlet~;
#X obj 587 288 throw~ Bus0;
#X obj 692 146 change;
#X msg 694 210 set \$1;
#X obj 694 191 tosymbol;
#X obj 693 168 sprintf Bus%d;
#X msg 704 261 Bus8;
#X obj 683 107 inlet~;
#X obj 681 290 throw~ Bus0;
#X obj 228 28 nbx 2 15 0 16 0 0 empty empty I8-Bus -30 7 1 10 -1 -260097
-260097 8 256;
#X obj 791 148 change;
#X msg 793 212 set \$1;
#X obj 793 193 tosymbol;
#X obj 791 170 sprintf Bus%d;
#X msg 838 261 Bus9;
#X obj 782 109 inlet~;
#X obj 780 292 throw~ Bus0;
#X obj 33 44 nbx 2 15 0 16 0 0 empty empty I9-Bus -30 7 1 10 -1 -260097
-260097 9 256;
#X obj 886 148 change;
#X msg 888 212 set \$1;
#X obj 888 193 tosymbol;
#X obj 887 170 sprintf Bus%d;
#X msg 933 261 Bus10;
#X obj 877 109 inlet~;
#X obj 875 292 throw~ Bus0;
#X obj 97 45 nbx 2 15 0 16 0 0 empty empty I10-Bus -34 7 1 10 -1 -260097
-260097 10 256;
#X obj 988 152 change;
#X msg 990 216 set \$1;
#X obj 990 197 tosymbol;
#X obj 989 174 sprintf Bus%d;
#X msg 1035 265 Bus11;
#X obj 979 113 inlet~;
#X obj 977 296 throw~ Bus0;
#X obj 162 45 nbx 2 15 0 16 0 0 empty empty I11-Bus -34 7 1 10 -1 -260097
-260097 11 256;
#X obj 1088 150 change;
#X msg 1090 214 set \$1;
#X obj 1090 195 tosymbol;
#X obj 1089 172 sprintf Bus%d;
#X msg 1135 263 Bus12;
#X obj 1079 111 inlet~;
#X obj 1077 294 throw~ Bus0;
#X obj 228 46 nbx 2 15 0 16 0 0 empty empty I12-Bus -34 7 1 10 -1 -260097
-260097 12 256;
#X obj 167 -116 loadbang;
#X msg 77 -92 1;
#X msg 107 -92 2;
#X msg 138 -93 3;
#X msg 170 -92 4;
#X msg 204 -91 5;
#X msg 234 -93 6;
#X msg 88 -60 7;
#X msg 118 -60 8;
#X msg 149 -61 9;
#X msg 181 -60 10;
#X msg 215 -59 11;
#X msg 245 -61 12;
#X connect 1 0 4 0;
#X connect 2 0 5 0;
#X connect 2 0 8 0;
#X connect 3 0 2 0;
#X connect 4 0 3 0;
#X connect 6 0 1 0;
#X connect 7 0 8 0;
#X connect 9 0 12 0;
#X connect 10 0 13 0;
#X connect 10 0 15 0;
#X connect 11 0 10 0;
#X connect 12 0 11 0;
#X connect 14 0 15 0;
#X connect 16 0 9 0;
#X connect 17 0 20 0;
#X connect 18 0 21 0;
#X connect 18 0 23 0;
#X connect 19 0 18 0;
#X connect 20 0 19 0;
#X connect 22 0 23 0;
#X connect 24 0 17 0;
#X connect 25 0 28 0;
#X connect 26 0 29 0;
#X connect 26 0 31 0;
#X connect 27 0 26 0;
#X connect 28 0 27 0;
#X connect 30 0 31 0;
#X connect 32 0 25 0;
#X connect 33 0 36 0;
#X connect 34 0 37 0;
#X connect 34 0 39 0;
#X connect 35 0 34 0;
#X connect 36 0 35 0;
#X connect 38 0 39 0;
#X connect 40 0 33 0;
#X connect 41 0 44 0;
#X connect 42 0 45 0;
#X connect 42 0 47 0;
#X connect 43 0 42 0;
#X connect 44 0 43 0;
#X connect 46 0 47 0;
#X connect 48 0 41 0;
#X connect 49 0 52 0;
#X connect 50 0 53 0;
#X connect 50 0 56 0;
#X connect 51 0 50 0;
#X connect 52 0 51 0;
#X connect 54 0 49 0;
#X connect 55 0 56 0;
#X connect 57 0 60 0;
#X connect 58 0 61 0;
#X connect 58 0 63 0;
#X connect 59 0 58 0;
#X connect 60 0 59 0;
#X connect 62 0 63 0;
#X connect 64 0 57 0;
#X connect 65 0 68 0;
#X connect 66 0 69 0;
#X connect 66 0 71 0;
#X connect 67 0 66 0;
#X connect 68 0 67 0;
#X connect 70 0 71 0;
#X connect 72 0 65 0;
#X connect 73 0 76 0;
#X connect 74 0 77 0;
#X connect 74 0 79 0;
#X connect 75 0 74 0;
#X connect 76 0 75 0;
#X connect 78 0 79 0;
#X connect 80 0 73 0;
#X connect 81 0 84 0;
#X connect 82 0 85 0;
#X connect 82 0 87 0;
#X connect 83 0 82 0;
#X connect 84 0 83 0;
#X connect 86 0 87 0;
#X connect 88 0 81 0;
#X connect 89 0 92 0;
#X connect 90 0 93 0;
#X connect 90 0 95 0;
#X connect 91 0 90 0;
#X connect 92 0 91 0;
#X connect 94 0 95 0;
#X connect 96 0 89 0;
#X connect 97 0 98 0;
#X connect 97 0 99 0;
#X connect 97 0 100 0;
#X connect 97 0 101 0;
#X connect 97 0 102 0;
#X connect 97 0 103 0;
#X connect 97 0 104 0;
#X connect 97 0 105 0;
#X connect 97 0 106 0;
#X connect 97 0 107 0;
#X connect 97 0 108 0;
#X connect 97 0 109 0;
#X connect 98 0 6 0;
#X connect 99 0 16 0;
#X connect 100 0 24 0;
#X connect 101 0 32 0;
#X connect 102 0 40 0;
#X connect 103 0 48 0;
#X connect 104 0 54 0;
#X connect 105 0 64 0;
#X connect 106 0 72 0;
#X connect 107 0 80 0;
#X connect 108 0 88 0;
#X connect 109 0 96 0;
#X coords 0 1 100 -1 260 70 1 0 0;
#X restore 180 378 graph;
#X text 178 359 Windows / Linux / Mac to route 12 signals;
