#N canvas 0 22 450 300 10;
#X obj 105 29 grid XY 170 0 127 170 1 127 0 1 1 30 20 162 97;
#X floatatom 105 225 5 0 0 0 - - -;
#X obj 105 204 / 1;
#X floatatom 237 224 5 0 0 0 - - -;
#X obj 249 204 / 1;
#X obj 144 224 s x;
#X obj 210 225 s y;
#X connect 0 0 2 0;
#X connect 0 1 4 0;
#X connect 1 0 5 0;
#X connect 2 0 1 0;
#X connect 3 0 6 0;
#X connect 4 0 3 0;
