#N canvas 1082 319 272 507 10;
#X obj 2 2 inlet;
#X obj 29 62 f 0;
#X obj 54 62 + 1;
#X obj 54 82 % 2;
#X obj 29 102 t f f;
#X obj 56 122 sel 0 1;
#X obj 56 142 timer;
#X obj 97 2 inlet;
#X obj 2 487 outlet;
#X obj 61 2 inlet;
#X obj 83 262 / \$1;
#X obj 139 487 outlet;
#X obj 117 358 del 250;
#X obj 83 282 moses 1;
#X obj 122 302 t b f f b;
#X msg 178 322 stop;
#X obj 163 407 f 0;
#X obj 189 407 + 1;
#X obj 217 407 f \$1;
#X obj 217 427 - 1;
#X obj 163 427 t f f;
#X obj 217 2 loadbang;
#X obj 97 42 t b f f;
#X obj 117 378 t b b b;
#X msg 217 487 0;
#X msg 19 381 1;
#X obj 166 358 spigot;
#X msg 122 322 0;
#X obj 190 447 moses;
#X obj 217 467 t b;
#X obj 2 341 t b b b b;
#X msg 36 361 0;
#X obj 61 42 t f f;
#X obj 183 302 sel 0;
#X obj 2 321 spigot;
#X obj 2 42 t b b;
#N canvas 311 504 108 108 door-9ms 0;
#X obj 5 5 inlet;
#X obj 5 45 spigot;
#X obj 5 65 t b b a;
#X obj 42 5 loadbang;
#X msg 42 25 1;
#X msg 49 45 0;
#X obj 44 85 outlet;
#X obj 5 85 del 9;
#X connect 0 0 1 0;
#X connect 1 0 2 0;
#X connect 2 0 7 0;
#X connect 2 1 5 0;
#X connect 2 2 6 0;
#X connect 3 0 4 0;
#X connect 4 0 1 1;
#X connect 5 0 1 1;
#X connect 7 0 4 0;
#X restore 2 22 pd door-9ms;
#X obj 56 162 t f f;
#X obj 56 182 != 0;
#X obj 56 242 t f f;
#X obj 56 202 sel 1;
#X obj 56 222 i;
#X connect 0 0 36 0;
#X connect 1 0 4 0;
#X connect 2 0 3 0;
#X connect 3 0 1 1;
#X connect 4 0 2 0;
#X connect 4 1 5 0;
#X connect 5 0 6 0;
#X connect 5 1 6 1;
#X connect 6 0 37 0;
#X connect 7 0 22 0;
#X connect 9 0 32 0;
#X connect 10 0 13 0;
#X connect 12 0 23 0;
#X connect 13 1 14 0;
#X connect 14 0 27 0;
#X connect 14 1 11 0;
#X connect 14 2 12 1;
#X connect 14 3 15 0;
#X connect 15 0 12 0;
#X connect 16 0 20 0;
#X connect 17 0 16 1;
#X connect 18 0 19 0;
#X connect 19 0 28 1;
#X connect 20 0 17 0;
#X connect 20 1 28 0;
#X connect 21 0 18 0;
#X connect 22 0 10 0;
#X connect 22 1 10 1;
#X connect 22 2 18 0;
#X connect 23 0 26 0;
#X connect 23 1 16 0;
#X connect 23 2 8 0;
#X connect 24 0 26 1;
#X connect 25 0 26 1;
#X connect 26 0 12 0;
#X connect 27 0 16 1;
#X connect 28 1 29 0;
#X connect 29 0 24 0;
#X connect 30 0 8 0;
#X connect 30 1 25 0;
#X connect 30 2 31 0;
#X connect 30 3 12 0;
#X connect 31 0 16 1;
#X connect 32 0 33 0;
#X connect 32 1 34 1;
#X connect 33 0 15 0;
#X connect 34 0 30 0;
#X connect 35 0 34 0;
#X connect 35 1 1 0;
#X connect 36 0 35 0;
#X connect 37 0 38 0;
#X connect 37 1 41 1;
#X connect 38 0 40 0;
#X connect 39 0 38 1;
#X connect 39 1 10 0;
#X connect 40 0 41 0;
#X connect 41 0 39 0;
