#N canvas 0 22 934 471 10;
#X msg 384 123 bang;
#X obj 369 359 *~;
#X obj 369 388 *~;
#X floatatom 494 64 5 0 0 0 - - -;
#X floatatom 545 63 5 0 0 0 - - -;
#X floatatom 595 63 5 0 0 0 - - -;
#X text 461 15 "ALD" enveloppe;
#X obj 494 39 inlet;
#X obj 545 38 inlet;
#X obj 595 38 inlet;
#X obj 398 42 inlet;
#X obj 369 422 outlet~;
#X text 623 123 ENVELOPE SECTION;
#X obj 369 336 vline~;
#X msg 342 235 1;
#X obj 342 255 pack f f;
#X obj 342 276 unpack f f;
#X msg 446 236 0;
#X obj 446 257 pack f f f;
#X obj 446 278 unpack f f f;
#X obj 446 215 delay 5;
#X text 92 273 Attack : sends a 1 to get to in A msec;
#X text 519 214 wait the end of the attack;
#X text 528 244 Length+Decay : 0 to get to in D msec \, after L msec
;
#X text 483 64 A;
#X text 534 64 L;
#X text 584 64 D;
#X connect 0 0 14 0;
#X connect 0 0 20 0;
#X connect 1 0 2 0;
#X connect 1 0 2 1;
#X connect 2 0 11 0;
#X connect 3 0 15 1;
#X connect 3 0 20 1;
#X connect 4 0 18 2;
#X connect 5 0 18 1;
#X connect 7 0 3 0;
#X connect 8 0 4 0;
#X connect 9 0 5 0;
#X connect 10 0 0 0;
#X connect 13 0 1 0;
#X connect 14 0 15 0;
#X connect 15 0 16 0;
#X connect 16 0 13 0;
#X connect 16 1 13 1;
#X connect 17 0 18 0;
#X connect 18 0 19 0;
#X connect 19 0 13 0;
#X connect 19 1 13 1;
#X connect 19 2 13 2;
#X connect 20 0 17 0;
