#N canvas 0 22 788 684 10;
#X obj 419 80 *;
#X obj 419 100 *;
#X obj 419 120 *;
#X obj 419 140 *;
#X obj 419 160 *;
#X obj 419 180 *;
#X obj 419 200 *;
#X obj 419 220 *;
#X obj 377 610 dac~;
#X obj 419 240 *;
#X obj 419 260 *;
#X obj 419 279 *;
#X obj 364 387 bp~ 1 620;
#X obj 365 409 bp~ 1 640;
#X obj 364 429 bp~ 1 680;
#X obj 365 449 bp~ 1 720;
#X obj 365 470 bp~ 1 760;
#X obj 364 491 bp~ 1 800;
#X obj 132 481 bp~ 1 840;
#X obj 131 458 bp~ 1 880;
#X obj 131 433 bp~ 1 910;
#X obj 131 410 bp~ 1 930;
#X obj 130 387 bp~ 1 1100;
#X obj 130 362 bp~ 1 1200;
#X obj 282 544 rev3~ 100 95 5000 1;
#X obj 450 -11 loadbang;
#X obj 207 232 adc~;
#X msg 480 38 1.12247;
#X obj 282 518 *~ 8;
#X obj 521 96 *;
#X obj 521 116 *;
#X obj 521 136 *;
#X obj 521 156 *;
#X obj 521 176 *;
#X obj 521 196 *;
#X obj 521 216 *;
#X obj 521 236 *;
#X obj 521 256 *;
#X obj 521 276 *;
#X obj 521 295 *;
#X obj 450 9 t b b b b;
#X msg 552 39 12000;
#X msg 613 38 0.5;
#X obj 274 309 lop~ 19000;
#X msg 419 39 566.164;
#X connect 0 0 1 0;
#X connect 0 0 22 1;
#X connect 1 0 2 0;
#X connect 1 0 21 1;
#X connect 2 0 3 0;
#X connect 2 0 20 1;
#X connect 3 0 4 0;
#X connect 3 0 19 1;
#X connect 4 0 5 0;
#X connect 4 0 18 1;
#X connect 5 0 6 0;
#X connect 5 0 17 1;
#X connect 6 0 7 0;
#X connect 6 0 16 1;
#X connect 7 0 9 0;
#X connect 7 0 15 1;
#X connect 9 0 10 0;
#X connect 9 0 14 1;
#X connect 10 0 11 0;
#X connect 10 0 13 1;
#X connect 11 0 12 1;
#X connect 12 0 28 0;
#X connect 13 0 28 0;
#X connect 14 0 28 0;
#X connect 15 0 28 0;
#X connect 16 0 28 0;
#X connect 17 0 28 0;
#X connect 18 0 28 0;
#X connect 19 0 28 0;
#X connect 20 0 28 0;
#X connect 21 0 28 0;
#X connect 22 0 28 0;
#X connect 23 0 28 0;
#X connect 24 0 8 0;
#X connect 24 1 8 1;
#X connect 25 0 40 0;
#X connect 26 0 24 1;
#X connect 26 0 43 0;
#X connect 26 1 24 1;
#X connect 26 1 43 0;
#X connect 27 0 0 1;
#X connect 27 0 1 1;
#X connect 27 0 2 1;
#X connect 27 0 3 1;
#X connect 27 0 4 1;
#X connect 27 0 5 1;
#X connect 27 0 6 1;
#X connect 27 0 7 1;
#X connect 27 0 9 1;
#X connect 27 0 10 1;
#X connect 27 0 11 1;
#X connect 28 0 24 0;
#X connect 29 0 30 0;
#X connect 29 0 22 2;
#X connect 30 0 31 0;
#X connect 30 0 21 2;
#X connect 31 0 32 0;
#X connect 31 0 20 2;
#X connect 32 0 33 0;
#X connect 32 0 19 2;
#X connect 33 0 34 0;
#X connect 33 0 18 2;
#X connect 34 0 35 0;
#X connect 34 0 12 2;
#X connect 35 0 36 0;
#X connect 35 0 13 2;
#X connect 36 0 37 0;
#X connect 36 0 14 2;
#X connect 37 0 38 0;
#X connect 37 0 16 2;
#X connect 38 0 39 0;
#X connect 38 0 17 2;
#X connect 40 0 44 0;
#X connect 40 1 27 0;
#X connect 40 2 41 0;
#X connect 40 3 42 0;
#X connect 41 0 29 0;
#X connect 41 0 23 2;
#X connect 42 0 29 1;
#X connect 42 0 30 1;
#X connect 42 0 31 1;
#X connect 42 0 32 1;
#X connect 42 0 33 1;
#X connect 42 0 34 1;
#X connect 42 0 35 1;
#X connect 42 0 36 1;
#X connect 42 0 37 1;
#X connect 42 0 38 1;
#X connect 42 0 39 1;
#X connect 43 0 12 0;
#X connect 43 0 13 0;
#X connect 43 0 14 0;
#X connect 43 0 15 0;
#X connect 43 0 16 0;
#X connect 43 0 17 0;
#X connect 43 0 18 0;
#X connect 43 0 19 0;
#X connect 43 0 20 0;
#X connect 43 0 21 0;
#X connect 43 0 22 0;
#X connect 43 0 23 0;
#X connect 44 0 0 0;
#X connect 44 0 23 1;
