#N canvas 0 22 715 349 10;
#N canvas 0 22 468 300 (subpatch) 0;
#X floatatom 316 40 5 0 0 0 - - -;
#X obj 323 13 knob 25 25 0 127 0 0 empty empty empty 0 -8 32 8 -1 -4034
-260097 0 1;
#X floatatom 273 39 5 0 0 0 - - -;
#X obj 281 12 knob 25 25 0 127 0 0 empty empty empty 0 -8 32 8 -1 -4034
-260097 0 1;
#X floatatom 231 39 5 0 0 0 - - -;
#X obj 239 12 knob 25 25 0 127 0 0 empty empty empty 0 -8 32 8 -1 -4034
-260097 0 1;
#X floatatom 186 39 5 0 0 0 - - -;
#X obj 194 12 knob 25 25 0 127 0 0 empty empty empty 0 -8 32 8 -1 -4034
-260097 0 1;
#X floatatom 141 39 5 0 0 0 - - -;
#X obj 149 12 knob 25 25 0 127 0 0 empty empty empty 0 -8 32 8 -1 -4034
-260097 0 1;
#X floatatom 95 39 5 0 0 0 - - -;
#X obj 103 12 knob 25 25 0 127 0 0 empty empty empty 0 -8 32 8 -1 -4034
-260097 0 1;
#X floatatom 50 38 5 0 0 0 - - -;
#X obj 58 11 knob 25 25 0 127 0 0 empty empty empty 0 -8 32 8 -1 -4034
-260097 0 1;
#X floatatom 3 38 5 0 0 0 - - -;
#X obj 11 11 knob 25 25 0 127 0 0 empty empty empty 0 -8 32 8 -1 -4034
-260097 0 1;
#X floatatom 273 58 5 0 0 0 - - -;
#X floatatom 316 59 5 0 0 0 - - -;
#X floatatom 231 58 5 0 0 0 - - -;
#X floatatom 3 57 5 0 0 0 - - -;
#X floatatom 50 57 5 0 0 0 - - -;
#X floatatom 95 58 5 0 0 0 - - -;
#X floatatom 141 58 5 0 0 0 - - -;
#X floatatom 186 58 5 0 0 0 - - -;
#X obj 3 54 / 127;
#X obj 50 54 / 127;
#X obj 95 55 / 127;
#X obj 141 55 / 127;
#X obj 186 55 / 127;
#X obj 1 -90 inlet;
#X obj 11 -80 inlet;
#X obj 21 -70 inlet;
#X obj 31 -60 inlet;
#X obj 117 -92 inlet;
#X obj 127 -82 inlet;
#X obj 137 -72 inlet;
#X obj 147 -62 inlet;
#X obj 5 116 outlet;
#X obj 15 126 outlet;
#X obj 25 136 outlet;
#X obj 35 146 outlet;
#X obj 182 115 outlet;
#X obj 192 125 outlet;
#X obj 202 135 outlet;
#X obj 212 145 outlet;
#X obj 273 55 / 127;
#X obj 316 56 / 127;
#X obj 231 55 / 127;
#X connect 0 0 46 0;
#X connect 1 0 0 0;
#X connect 2 0 45 0;
#X connect 3 0 2 0;
#X connect 4 0 47 0;
#X connect 5 0 4 0;
#X connect 6 0 28 0;
#X connect 7 0 6 0;
#X connect 8 0 27 0;
#X connect 9 0 8 0;
#X connect 10 0 26 0;
#X connect 11 0 10 0;
#X connect 12 0 25 0;
#X connect 13 0 12 0;
#X connect 14 0 24 0;
#X connect 15 0 14 0;
#X connect 16 0 43 0;
#X connect 17 0 44 0;
#X connect 18 0 42 0;
#X connect 19 0 37 0;
#X connect 20 0 38 0;
#X connect 21 0 39 0;
#X connect 22 0 40 0;
#X connect 23 0 41 0;
#X connect 24 0 19 0;
#X connect 25 0 20 0;
#X connect 26 0 21 0;
#X connect 27 0 22 0;
#X connect 28 0 23 0;
#X connect 29 0 15 0;
#X connect 30 0 13 0;
#X connect 31 0 11 0;
#X connect 32 0 9 0;
#X connect 33 0 7 0;
#X connect 34 0 5 0;
#X connect 35 0 3 0;
#X connect 36 0 1 0;
#X connect 45 0 16 0;
#X connect 46 0 17 0;
#X connect 47 0 18 0;
#X coords 0 1 100 -1 355 80 1 0 0;
#X restore 13 69 graph;
#N canvas 0 22 468 300 (subpatch) 0;
#X floatatom 316 40 5 0 0 0 - - -;
#X obj 323 13 knob 25 25 0 127 0 0 empty empty empty 0 -8 32 8 -1 -4034
-260097 0 1;
#X floatatom 273 39 5 0 0 0 - - -;
#X obj 281 12 knob 25 25 0 127 0 0 empty empty empty 0 -8 32 8 -1 -4034
-260097 0 1;
#X floatatom 231 39 5 0 0 0 - - -;
#X obj 239 12 knob 25 25 0 127 0 0 empty empty empty 0 -8 32 8 -1 -4034
-260097 0 1;
#X floatatom 186 39 5 0 0 0 - - -;
#X obj 194 12 knob 25 25 0 127 0 0 empty empty empty 0 -8 32 8 -1 -4034
-260097 0 1;
#X floatatom 141 39 5 0 0 0 - - -;
#X obj 149 12 knob 25 25 0 127 0 0 empty empty empty 0 -8 32 8 -1 -4034
-260097 0 1;
#X floatatom 95 39 5 0 0 0 - - -;
#X obj 103 12 knob 25 25 0 127 0 0 empty empty empty 0 -8 32 8 -1 -4034
-260097 0 1;
#X floatatom 50 38 5 0 0 0 - - -;
#X obj 58 11 knob 25 25 0 127 0 0 empty empty empty 0 -8 32 8 -1 -4034
-260097 0 1;
#X floatatom 3 38 5 0 0 0 - - -;
#X obj 11 11 knob 25 25 0 127 0 0 empty empty empty 0 -8 32 8 -1 -4034
-260097 0 1;
#X floatatom 273 58 5 0 0 0 - - -;
#X floatatom 316 59 5 0 0 0 - - -;
#X floatatom 231 58 5 0 0 0 - - -;
#X floatatom 3 57 5 0 0 0 - - -;
#X floatatom 50 57 5 0 0 0 - - -;
#X floatatom 95 58 5 0 0 0 - - -;
#X floatatom 141 58 5 0 0 0 - - -;
#X floatatom 186 58 5 0 0 0 - - -;
#X obj 3 54 / 127;
#X obj 50 54 / 127;
#X obj 95 55 / 127;
#X obj 141 55 / 127;
#X obj 186 55 / 127;
#X obj 1 -90 inlet;
#X obj 11 -80 inlet;
#X obj 21 -70 inlet;
#X obj 31 -60 inlet;
#X obj 117 -92 inlet;
#X obj 127 -82 inlet;
#X obj 137 -72 inlet;
#X obj 147 -62 inlet;
#X obj 5 116 outlet;
#X obj 15 126 outlet;
#X obj 25 136 outlet;
#X obj 35 146 outlet;
#X obj 182 115 outlet;
#X obj 192 125 outlet;
#X obj 202 135 outlet;
#X obj 212 145 outlet;
#X obj 273 55 / 127;
#X obj 316 56 / 127;
#X obj 231 55 / 127;
#X connect 0 0 46 0;
#X connect 1 0 0 0;
#X connect 2 0 45 0;
#X connect 3 0 2 0;
#X connect 4 0 47 0;
#X connect 5 0 4 0;
#X connect 6 0 28 0;
#X connect 7 0 6 0;
#X connect 8 0 27 0;
#X connect 9 0 8 0;
#X connect 10 0 26 0;
#X connect 11 0 10 0;
#X connect 12 0 25 0;
#X connect 13 0 12 0;
#X connect 14 0 24 0;
#X connect 15 0 14 0;
#X connect 16 0 43 0;
#X connect 17 0 44 0;
#X connect 18 0 42 0;
#X connect 19 0 37 0;
#X connect 20 0 38 0;
#X connect 21 0 39 0;
#X connect 22 0 40 0;
#X connect 23 0 41 0;
#X connect 24 0 19 0;
#X connect 25 0 20 0;
#X connect 26 0 21 0;
#X connect 27 0 22 0;
#X connect 28 0 23 0;
#X connect 29 0 15 0;
#X connect 30 0 13 0;
#X connect 31 0 11 0;
#X connect 32 0 9 0;
#X connect 33 0 7 0;
#X connect 34 0 5 0;
#X connect 35 0 3 0;
#X connect 36 0 1 0;
#X connect 45 0 16 0;
#X connect 46 0 17 0;
#X connect 47 0 18 0;
#X coords 0 1 100 -1 355 80 1 0 0;
#X restore -10 185 graph;
