#N canvas 0 22 606 305 10;
#N canvas 0 22 908 484 Octo_Random_Panner 0;
#X obj 185 115 inlet~;
#X obj 102 335 *~;
#X obj 117 296 tgl 15 0 empty empty empty 17 7 0 10 -262144 -1 -1 0
1;
#X obj 117 314 line 100;
#X obj 185 337 *~;
#X obj 200 298 tgl 15 0 empty empty empty 17 7 0 10 -262144 -1 -1 0
1;
#X obj 200 316 line 100;
#X obj 267 337 *~;
#X obj 282 298 tgl 15 0 empty empty empty 17 7 0 10 -262144 -1 -1 0
1;
#X obj 282 316 line 100;
#X obj 317 116 bng 15 250 50 0 empty empty empty 17 7 0 10 -262144
-1 -1;
#X floatatom 744 168 5 0 0 0 - - -;
#X obj 105 391 outlet~;
#X obj 184 388 outlet~;
#X obj 267 388 outlet~;
#X obj 305 52 inlet;
#X obj 745 129 inlet;
#X text 532 37 1- inlet audio 2- bang to generate changer 3- time to
avoid clicks;
#X obj 347 335 *~;
#X obj 362 296 tgl 15 0 empty empty empty 17 7 0 10 -262144 -1 -1 0
1;
#X obj 362 314 line 100;
#X obj 430 337 *~;
#X obj 445 298 tgl 15 0 empty empty empty 17 7 0 10 -262144 -1 -1 0
1;
#X obj 445 316 line 100;
#X obj 512 337 *~;
#X obj 527 298 tgl 15 0 empty empty empty 17 7 0 10 -262144 -1 -1 0
1;
#X obj 527 316 line 100;
#X obj 350 391 outlet~;
#X obj 429 388 outlet~;
#X obj 512 388 outlet~;
#X obj 588 332 *~;
#X obj 603 293 tgl 15 0 empty empty empty 17 7 0 10 -262144 -1 -1 0
1;
#X obj 603 311 line 100;
#X obj 670 332 *~;
#X obj 685 293 tgl 15 0 empty empty empty 17 7 0 10 -262144 -1 -1 0
1;
#X obj 685 311 line 100;
#X obj 587 383 outlet~;
#X obj 670 383 outlet~;
#X obj 316 147 random 8;
#X obj 316 172 route 0 1 2 3 4 5 6 7;
#X connect 0 0 1 0;
#X connect 0 0 4 0;
#X connect 0 0 7 0;
#X connect 0 0 18 0;
#X connect 0 0 21 0;
#X connect 0 0 24 0;
#X connect 0 0 30 0;
#X connect 0 0 33 0;
#X connect 1 0 12 0;
#X connect 2 0 3 0;
#X connect 3 0 1 1;
#X connect 4 0 13 0;
#X connect 5 0 6 0;
#X connect 6 0 4 1;
#X connect 7 0 14 0;
#X connect 8 0 9 0;
#X connect 9 0 7 1;
#X connect 10 0 38 0;
#X connect 11 0 3 1;
#X connect 11 0 6 1;
#X connect 11 0 9 1;
#X connect 11 0 20 1;
#X connect 11 0 23 1;
#X connect 11 0 26 1;
#X connect 11 0 32 1;
#X connect 11 0 35 1;
#X connect 15 0 10 0;
#X connect 16 0 11 0;
#X connect 18 0 27 0;
#X connect 19 0 20 0;
#X connect 20 0 18 1;
#X connect 21 0 28 0;
#X connect 22 0 23 0;
#X connect 23 0 21 1;
#X connect 24 0 29 0;
#X connect 25 0 26 0;
#X connect 26 0 24 1;
#X connect 30 0 36 0;
#X connect 31 0 32 0;
#X connect 32 0 30 1;
#X connect 33 0 37 0;
#X connect 34 0 35 0;
#X connect 35 0 33 1;
#X connect 38 0 39 0;
#X connect 39 0 2 0;
#X connect 39 1 5 0;
#X connect 39 2 8 0;
#X connect 39 3 19 0;
#X connect 39 4 22 0;
#X connect 39 5 25 0;
#X connect 39 6 31 0;
#X connect 39 7 34 0;
#X restore 281 114 pd Octo_Random_Panner;
#X text 324 61 inlet 1 = audio;
#X text 327 75 inlet 2 = bang to generate new state;
#N canvas 0 22 739 489 (subpatch) 0;
#X obj 257 21 inlet~;
#X obj 174 241 *~;
#X obj 5 5 tgl 15 0 empty empty empty 17 7 0 10 -262144 -1 -1 0 1;
#X obj 189 220 line 100;
#X obj 257 243 *~;
#X obj 27 5 tgl 15 0 empty empty empty 17 7 0 10 -262144 -1 -1 0 1
;
#X obj 272 222 line 100;
#X obj 339 243 *~;
#X obj 50 5 tgl 15 0 empty empty empty 17 7 0 10 -262144 -1 -1 0 1
;
#X obj 354 222 line 100;
#X obj 389 22 bng 15 250 50 0 empty empty empty 17 7 0 10 -262144 -1
-1;
#X floatatom 816 74 5 0 0 0 - - -;
#X obj 177 297 outlet~;
#X obj 256 294 outlet~;
#X obj 339 294 outlet~;
#X obj 377 -42 inlet;
#X obj 817 35 inlet;
#X text 604 -57 1- inlet audio 2- bang to generate changer 3- time
to avoid clicks;
#X obj 419 241 *~;
#X obj 74 5 tgl 15 0 empty empty empty 17 7 0 10 -262144 -1 -1 0 1
;
#X obj 434 220 line 100;
#X obj 502 243 *~;
#X obj 100 5 tgl 15 0 empty empty empty 17 7 0 10 -262144 -1 -1 0 1
;
#X obj 517 222 line 100;
#X obj 584 243 *~;
#X obj 127 5 tgl 15 0 empty empty empty 17 7 0 10 -262144 -1 -1 0 1
;
#X obj 599 222 line 100;
#X obj 422 297 outlet~;
#X obj 501 294 outlet~;
#X obj 584 294 outlet~;
#X obj 660 238 *~;
#X obj 150 5 tgl 15 0 empty empty empty 17 7 0 10 -262144 -1 -1 0 1
;
#X obj 675 217 line 100;
#X obj 742 238 *~;
#X obj 174 5 tgl 15 0 empty empty empty 17 7 0 10 -262144 -1 -1 0 1
;
#X obj 757 217 line 100;
#X obj 659 289 outlet~;
#X obj 742 289 outlet~;
#X obj 388 53 random 8;
#X obj 388 78 route 0 1 2 3 4 5 6 7;
#X connect 0 0 1 0;
#X connect 0 0 4 0;
#X connect 0 0 7 0;
#X connect 0 0 18 0;
#X connect 0 0 21 0;
#X connect 0 0 24 0;
#X connect 0 0 30 0;
#X connect 0 0 33 0;
#X connect 1 0 12 0;
#X connect 2 0 3 0;
#X connect 3 0 1 1;
#X connect 4 0 13 0;
#X connect 5 0 6 0;
#X connect 6 0 4 1;
#X connect 7 0 14 0;
#X connect 8 0 9 0;
#X connect 9 0 7 1;
#X connect 10 0 38 0;
#X connect 11 0 3 1;
#X connect 11 0 6 1;
#X connect 11 0 9 1;
#X connect 11 0 20 1;
#X connect 11 0 23 1;
#X connect 11 0 26 1;
#X connect 11 0 32 1;
#X connect 11 0 35 1;
#X connect 15 0 10 0;
#X connect 16 0 11 0;
#X connect 18 0 27 0;
#X connect 19 0 20 0;
#X connect 20 0 18 1;
#X connect 21 0 28 0;
#X connect 22 0 23 0;
#X connect 23 0 21 1;
#X connect 24 0 29 0;
#X connect 25 0 26 0;
#X connect 26 0 24 1;
#X connect 30 0 36 0;
#X connect 31 0 32 0;
#X connect 32 0 30 1;
#X connect 33 0 37 0;
#X connect 34 0 35 0;
#X connect 35 0 33 1;
#X connect 38 0 39 0;
#X connect 39 0 2 0;
#X connect 39 1 5 0;
#X connect 39 2 8 0;
#X connect 39 3 19 0;
#X connect 39 4 22 0;
#X connect 39 5 25 0;
#X connect 39 6 31 0;
#X connect 39 7 34 0;
#X coords 0 1 100 -1 200 25 1 0 0;
#X restore 16 109 graph;
#X obj 112 78 bng 15 250 50 0 empty empty empty 17 7 0 10 -262144 -1
-1;
#X floatatom 209 77 5 0 0 0 - - -;
#X text 332 89 inlet 3 = time for ramp;
#X connect 4 0 3 1;
#X connect 5 0 3 2;
