#N canvas 0 22 699 497 10;
#X obj 145 29 inlet;
#X obj 398 167 list prepend set;
#X obj 398 194 list trim;
#X obj 398 394 outlet;
#X text 536 358 .mmb;
#X obj 145 51 t b b a;
#X obj 145 299 metro \$1;
#X obj 177 224 delay \$1;
#X msg 145 244 1;
#X msg 177 246 0;
#X obj 145 276 change;
#X obj 253 131 loadbang;
#X obj 253 152 f \$1;
#X obj 253 172 sel 0;
#X msg 253 194 30;
#X msg 398 354;
#X connect 0 0 5 0;
#X connect 1 0 2 0;
#X connect 2 0 15 0;
#X connect 5 0 8 0;
#X connect 5 1 7 0;
#X connect 5 2 1 0;
#X connect 6 0 15 0;
#X connect 7 0 9 0;
#X connect 8 0 10 0;
#X connect 9 0 10 0;
#X connect 10 0 6 0;
#X connect 11 0 12 0;
#X connect 12 0 13 0;
#X connect 13 0 14 0;
#X connect 14 0 7 1;
#X connect 14 0 6 1;
#X connect 15 0 3 0;
