#N canvas 233 82 748 534 10;
#N canvas 86 89 1152 594 canvas_appearance 0;
#X obj 1042 379 symbol;
#X text 15 443 create canvas;
#X text 1040 444 delete canvas;
#X obj 864 353 * 8;
#X obj 819 380 pack f f;
#X text 889 352 bar width in pixels;
#X obj 915 159 t b f;
#X obj 900 58 inlet bars;
#X obj 979 58 inlet multiply;
#X obj 900 191 *;
#X obj 17 56 inlet create name;
#X obj 219 246 t b s;
#X obj 219 298 pack f s;
#X obj 754 278 spigot;
#X obj 861 277 spigot;
#X obj 807 207 t b f;
#X obj 861 254 f;
#X obj 754 255 f;
#X obj 787 254 expr 1-$f1;
#X obj 657 193 /;
#X obj 688 141 t b f;
#X obj 688 119 r bartime;
#X text 814 444 resize canvas;
#X obj 807 57 inlet switch;
#X obj 819 314 t b f;
#X obj 219 58 inlet rename canvas;
#X obj 437 56 inlet reset pos;
#X msg 437 270 \; \$1-to_cnv pos 0 -90;
#X obj 140 57 inlet color;
#X obj 17 376 pack f s f;
#X obj 545 56 inlet reset size;
#X obj 657 56 inlet original duration;
#X obj 715 164 f;
#X obj 344 57 inlet moduleID;
#X obj 219 125 t b s;
#X text 215 356 rename canvas;
#X obj 17 326 t b s;
#X obj 219 173 pack s s;
#X obj 219 150 symbol;
#X obj 344 81 makefilename (%d);
#X msg 219 196 \$2 \$1;
#X msg 219 327 \; \$1-to_cnv label \$2 26;
#X msg 819 413 \; \$1-to_cnv vis_size \$2 26;
#X obj 219 220 mergefilename;
#X obj 819 353 f \$1;
#X obj 17 351 f \$1;
#X obj 219 273 f \$1;
#X obj 437 246 f \$1;
#X obj 545 354 f \$1;
#X msg 545 416 \; \$1-to_cnv vis_size 0 26;
#X obj 449 175 r vt_reset_sample_position;
#X msg 17 402 \; pd-timeline obj 0 -90 cnv 8 0 26 \$1-from_cnv \$1-to_cnv
\$2 3 13 0 10 \$3 -667 0;
#X msg 1042 401 \; pd-timeline find \$1 \; pd-timeline cut;
#X obj 17 207 t b s;
#X obj 17 255 pack s s;
#X obj 17 232 symbol;
#X msg 17 278 \$2 \$1;
#X obj 17 301 mergefilename;
#X connect 0 0 52 0;
#X connect 3 0 4 1;
#X connect 4 0 42 0;
#X connect 6 0 9 0;
#X connect 6 1 9 1;
#X connect 7 0 9 0;
#X connect 8 0 6 0;
#X connect 9 0 16 0;
#X connect 10 0 53 0;
#X connect 11 0 46 0;
#X connect 11 1 12 1;
#X connect 12 0 41 0;
#X connect 13 0 24 0;
#X connect 14 0 24 0;
#X connect 15 0 16 0;
#X connect 15 0 17 0;
#X connect 15 1 14 1;
#X connect 15 1 18 0;
#X connect 16 0 14 0;
#X connect 17 0 13 0;
#X connect 18 0 13 1;
#X connect 19 0 17 0;
#X connect 20 0 19 0;
#X connect 20 1 32 0;
#X connect 21 0 20 0;
#X connect 23 0 15 0;
#X connect 24 0 44 0;
#X connect 24 1 3 0;
#X connect 25 0 34 0;
#X connect 26 0 47 0;
#X connect 28 0 29 2;
#X connect 29 0 51 0;
#X connect 30 0 48 0;
#X connect 31 0 19 0;
#X connect 32 0 19 1;
#X connect 33 0 39 0;
#X connect 34 0 38 0;
#X connect 34 1 37 1;
#X connect 36 0 45 0;
#X connect 36 1 29 1;
#X connect 37 0 40 0;
#X connect 38 0 37 0;
#X connect 39 0 38 1;
#X connect 39 0 55 1;
#X connect 40 0 43 0;
#X connect 43 0 11 0;
#X connect 44 0 4 0;
#X connect 45 0 29 0;
#X connect 46 0 12 0;
#X connect 47 0 27 0;
#X connect 48 0 49 0;
#X connect 50 0 47 0;
#X connect 53 0 55 0;
#X connect 53 1 54 1;
#X connect 54 0 56 0;
#X connect 55 0 54 0;
#X connect 56 0 57 0;
#X connect 57 0 36 0;
#X restore 11 94 pd canvas_appearance;
#N canvas 190 168 584 465 color 0;
#X obj 113 198 outlet color;
#X obj 184 111 tabread colortable;
#X obj 270 217 pack f f;
#X obj 278 159 t b f;
#X obj 328 45 inlet color;
#X obj 328 112 tabread colortable;
#X msg 303 297 \; \$1-fithide color \$2 22;
#X msg 278 333 \; \$1-background color \$2 22;
#X msg 366 243 \; \$1-to_cnv color \$2 22;
#X obj 184 44 inlet creationbang;
#X obj 271 191 f \$1;
#X msg 246 369 \; \$1-vis_moduleID color \$2 22;
#X msg 211 405 \; \$1-perc color \$2 22;
#X obj 366 217 pack f f;
#X obj 374 159 t b f;
#X obj 367 191 f \$1;
#X msg 184 82 0;
#X text 116 82 init color;
#X connect 1 0 0 0;
#X connect 1 0 3 0;
#X connect 2 0 6 0;
#X connect 2 0 7 0;
#X connect 2 0 11 0;
#X connect 2 0 12 0;
#X connect 3 0 10 0;
#X connect 3 1 2 1;
#X connect 4 0 5 0;
#X connect 5 0 3 0;
#X connect 5 0 14 0;
#X connect 9 0 16 0;
#X connect 10 0 2 0;
#X connect 13 0 8 0;
#X connect 14 0 15 0;
#X connect 14 1 13 1;
#X connect 15 0 13 0;
#X connect 16 0 1 0;
#X restore 11 -23 pd color;
#N canvas 519 235 709 506 generate_bangs 0;
#X obj 67 241 zl sect;
#X obj 67 80 t f b;
#X msg 106 171 1;
#X msg 140 130 add2 \$1;
#X msg 106 109 set;
#X obj 337 63 float;
#X msg 356 -9 stop;
#X obj 400 115 select;
#X obj 257 -84 *;
#X obj 337 -58 t b b f;
#X obj 245 -125 t b f;
#X obj 337 -84 f;
#X obj 325 -124 t b f;
#X obj 177 -84 +;
#X obj 165 -125 t b f;
#X msg 422 26 0;
#X obj 165 -150 inlet offset;
#X obj 245 -150 inlet bars;
#X obj 325 -150 inlet multiply;
#X obj 400 90 + 1;
#X obj 337 24 metro 1;
#X text 337 133 counter generates bang points by multiplication of
number of bars per sample;
#X obj 67 327 outlet bang;
#X text 447 24 reset counter;
#X text 128 151 generated bang points;
#X msg 67 264 bang;
#X obj 67 -150 r vt_sequence;
#N canvas 490 280 333 185 timeline_pass 0;
#X obj 73 26 inlet;
#X obj 73 130 outlet;
#X obj 73 96 spigot;
#X obj 129 26 inlet on;
#X obj 194 25 inlet off;
#X msg 129 52 1;
#X msg 194 52 0;
#X connect 0 0 2 0;
#X connect 2 0 1 0;
#X connect 3 0 5 0;
#X connect 4 0 6 0;
#X connect 5 0 2 1;
#X connect 6 0 2 1;
#X restore 67 297 pd timeline_pass;
#X obj 425 -149 inlet on;
#X obj 491 -148 inlet off;
#X obj 140 104 + 1;
#X obj 26 294 bng 15 250 50 0 empty empty empty 17 7 0 10 -262144 -1
-1;
#X floatatom 26 -24 5 0 0 0 - - -;
#X connect 0 0 25 0;
#X connect 1 0 0 0;
#X connect 1 1 2 0;
#X connect 2 0 0 1;
#X connect 3 0 2 0;
#X connect 4 0 2 0;
#X connect 5 0 8 0;
#X connect 5 0 19 0;
#X connect 6 0 20 0;
#X connect 7 0 15 0;
#X connect 7 0 6 0;
#X connect 8 0 13 0;
#X connect 9 0 20 0;
#X connect 9 1 4 0;
#X connect 9 1 15 0;
#X connect 9 2 7 1;
#X connect 10 0 11 0;
#X connect 10 1 8 1;
#X connect 11 0 9 0;
#X connect 12 0 11 0;
#X connect 12 1 11 1;
#X connect 13 0 30 0;
#X connect 14 0 11 0;
#X connect 14 1 13 1;
#X connect 15 0 5 1;
#X connect 16 0 14 0;
#X connect 17 0 10 0;
#X connect 18 0 12 0;
#X connect 19 0 5 1;
#X connect 19 0 7 0;
#X connect 20 0 5 0;
#X connect 25 0 27 0;
#X connect 25 0 31 0;
#X connect 26 0 1 0;
#X connect 26 0 32 0;
#X connect 27 0 22 0;
#X connect 28 0 27 1;
#X connect 29 0 27 2;
#X connect 30 0 3 0;
#X restore 605 -131 pd generate_bangs;
#N canvas 141 142 596 317 object_duration 0;
#X obj 323 17 spigot;
#X obj 260 -91 t b f;
#X obj 366 -113 r bartime;
#X obj 323 -4 f;
#X obj 433 -142 inlet bars;
#X obj 379 -73 *;
#X obj 433 -103 t b f;
#X obj 349 -44 t b f;
#X obj 260 -140 inlet switch;
#X obj 175 19 spigot;
#X obj 175 -4 f;
#X obj 208 -5 expr 1-$f1;
#X obj 251 117 outlet object duration;
#X obj 109 -140 inlet original duration;
#X connect 0 0 12 0;
#X connect 1 0 3 0;
#X connect 1 0 10 0;
#X connect 1 1 0 1;
#X connect 1 1 11 0;
#X connect 2 0 5 0;
#X connect 3 0 0 0;
#X connect 4 0 6 0;
#X connect 5 0 7 0;
#X connect 6 0 5 0;
#X connect 6 1 5 1;
#X connect 7 0 3 0;
#X connect 7 1 3 1;
#X connect 8 0 1 0;
#X connect 9 0 12 0;
#X connect 10 0 9 0;
#X connect 11 0 9 1;
#X connect 13 0 10 0;
#X restore 202 94 pd object_duration;
#N canvas 411 317 256 184 creationbang 0;
#X obj 72 17 loadbang;
#X obj 72 100 spigot 1;
#X msg 117 76 0;
#X obj 72 138 outlet creationbang;
#X obj 72 43 t b b;
#X text 22 -4 accepts loadbang only 1st time;
#X connect 0 0 4 0;
#X connect 1 0 3 0;
#X connect 2 0 1 1;
#X connect 4 0 2 0;
#X connect 4 1 1 0;
#X restore 11 -79 pd creationbang;
#N canvas 0 0 267 161 creationname 0;
#X obj 64 108 mergefilename;
#X obj 64 131 outlet create name;
#X msg 64 85 message;
#X msg 91 61 set \$1;
#X obj 64 11 inlet create name;
#X obj 64 39 t b s;
#X connect 0 0 1 0;
#X connect 2 0 0 0;
#X connect 3 0 2 0;
#X connect 4 0 5 0;
#X connect 5 0 2 0;
#X connect 5 1 3 0;
#X restore 11 39 pd creationname;
#X obj 623 -19 s creationbang;
#X obj 620 95 s init_bartime;
#X obj 339 -136 t b b b;
#N canvas 217 263 374 229 moduleID 0;
#X obj 91 34 inlet bang;
#X obj 91 160 outlet moduleID;
#X obj 91 97 f \$1;
#X obj 91 126 - 1148;
#X connect 0 0 2 0;
#X connect 2 0 3 0;
#X connect 3 0 1 0;
#X restore 641 -82 pd moduleID;
#N canvas 478 441 427 314 audio_track_output 0;
#X obj 32 25 inlet~;
#X obj 218 23 inlet track;
#X obj 49 270 throw~ audio1;
#X obj 67 247 throw~ audio2;
#X obj 83 224 throw~ audio3;
#X obj 101 201 throw~ audio4;
#X obj 119 179 throw~ audio5;
#X obj 136 157 throw~ audio6;
#X obj 152 270 throw~ audio7;
#X obj 171 246 throw~ audio8;
#X obj 188 222 throw~ audio9;
#X obj 205 200 throw~ audio10;
#X obj 222 179 throw~ audio11;
#X obj 238 158 throw~ audio12;
#X obj 218 103 tabread track_output_table;
#X obj 218 76 f;
#X obj 94 23 r vt_track_trigger;
#X text 142 44 bang;
#X obj 32 129 demux~ 0 1 2 3 4 5 6 7 8 9 10 11 12;
#X obj 218 49 + 1;
#X floatatom 321 50 5 0 0 0 - - -;
#X obj 340 289 outlet track;
#X connect 0 0 18 0;
#X connect 1 0 19 0;
#X connect 1 0 20 0;
#X connect 14 0 18 0;
#X connect 14 0 21 0;
#X connect 15 0 14 0;
#X connect 16 0 15 0;
#X connect 18 1 2 0;
#X connect 18 2 3 0;
#X connect 18 3 4 0;
#X connect 18 4 5 0;
#X connect 18 5 6 0;
#X connect 18 6 7 0;
#X connect 18 7 8 0;
#X connect 18 8 9 0;
#X connect 18 9 10 0;
#X connect 18 10 11 0;
#X connect 18 11 12 0;
#X connect 18 12 13 0;
#X connect 19 0 15 0;
#X restore 11 -133 pd audio_track_output;
#N canvas 205 385 442 340 data_track_output 0;
#X obj 37 59 inlet data track;
#X obj 53 210 s data1;
#X obj 70 188 s data2;
#X obj 87 164 s data3;
#X obj 104 210 s data4;
#X obj 137 165 s data6;
#X obj 153 210 s data7;
#X obj 170 188 s data8;
#X obj 187 165 s data9;
#X obj 204 210 s data10;
#X obj 221 187 s data11;
#X obj 238 164 s data12;
#X obj 238 5 inlet track;
#X obj 238 63 f;
#X obj 171 -17 r vt_track_trigger;
#X text 285 -15 bang;
#X obj 238 88 tabread track_output_table;
#X obj 37 140 demux 0 1 2 3 4 5 6 7 8 9 10 11 12;
#X obj 120 188 s data5;
#X obj 238 33 + 1;
#X obj 326 251 outlet track;
#X connect 0 0 17 0;
#X connect 12 0 19 0;
#X connect 13 0 16 0;
#X connect 14 0 13 0;
#X connect 16 0 17 1;
#X connect 16 0 20 0;
#X connect 17 1 1 0;
#X connect 17 2 2 0;
#X connect 17 3 3 0;
#X connect 17 4 4 0;
#X connect 17 5 18 0;
#X connect 17 6 5 0;
#X connect 17 7 6 0;
#X connect 17 8 7 0;
#X connect 17 9 8 0;
#X connect 17 10 9 0;
#X connect 17 11 10 0;
#X connect 17 12 11 0;
#X connect 19 0 13 0;
#X restore 590 24 pd data_track_output;
#X obj 10 -215 r \$1-01_color;
#X obj 95 -215 r \$1-02_fit;
#X obj 168 -215 r \$1-03_bars;
#X obj 247 -215 r \$1-04_multi;
#X obj 332 -215 r \$1-05_symbol;
#X obj 423 -215 r \$1-06_original_duration;
#X obj 581 -215 r \$1-07_create_symbol;
#X obj 10 -192 r~ \$1-08_audio_track_output;
#X obj 204 -192 r \$1-09_data_track_output;
#X obj 10 162 s \$1-01_creationbang;
#X obj 175 163 s \$1-02_bangs;
#X obj 286 164 s \$1-03_duration;
#X obj 444 166 s \$1-04_position;
#X obj 625 165 s \$1-05_track;
#X obj 9 193 s \$1-06_moduleID;
#X text 457 241 More info code.google.com/p/visualtracker;
#X text 12 222 This abstraction connects module abstraction with main
VisualTracker patch. To preserve compatibility of module with future
updates of VisualTracker DO NOT edit this abstraction.;
#X obj 386 -193 r \$1-10_reset_cnv_position;
#X obj 574 -189 r \$1-11_reset_cnv_size;
#X text 9 -256 Connector version: 1;
#N canvas 162 131 713 464 get_cnv_position 0;
#X obj -175 58 unpack;
#X obj -175 122 / 8;
#X obj 70 114 / 30;
#X obj -136 391 outlet x pos;
#X obj 109 390 outlet y pos;
#X text 46 91 row distance;
#X text -192 100 bar distance;
#X obj -136 251 expr ceil($f1 \, 0);
#X obj -136 225 - 0.5;
#X obj 109 199 expr ceil($f1 \, 0);
#X obj 109 174 - 0.5;
#X obj -175 34 r \$1-from_cnv;
#X obj 70 146 moses 0;
#X obj -175 157 moses 0;
#X msg 127 254 0;
#X obj 70 224 moses -2.5;
#X obj 207 391 outlet on;
#X obj 281 390 outlet off;
#X obj -228 322 bang;
#X obj -243 299 sel;
#X obj 22 317 bang;
#X obj 7 294 sel;
#X obj 22 340 delay 100;
#X text 190 242 set active timeline range;
#X obj -228 345 delay 100;
#X obj -175 84 change;
#X obj 70 75 change;
#X msg -175 178 0;
#X msg 275 150 \; \$1-to_cnv get_pos;
#X obj 275 33 inlet creation bang;
#X obj 275 108 f \$1;
#X obj 275 59 metro 500;
#X obj -228 390 outlet x bang;
#X obj 22 390 outlet y bang;
#X floatatom -91 437 5 0 0 0 - - -;
#X floatatom 15 435 5 0 0 0 - - -;
#X connect 0 0 25 0;
#X connect 0 1 26 0;
#X connect 1 0 13 0;
#X connect 1 0 19 1;
#X connect 2 0 12 0;
#X connect 2 0 21 1;
#X connect 7 0 3 0;
#X connect 7 0 19 0;
#X connect 7 0 34 0;
#X connect 8 0 7 0;
#X connect 9 0 21 0;
#X connect 9 0 4 0;
#X connect 9 0 35 0;
#X connect 10 0 9 0;
#X connect 11 0 0 0;
#X connect 12 0 15 0;
#X connect 12 1 10 0;
#X connect 12 1 16 0;
#X connect 13 0 27 0;
#X connect 13 1 8 0;
#X connect 14 0 4 0;
#X connect 14 0 35 0;
#X connect 15 0 17 0;
#X connect 15 0 35 0;
#X connect 15 0 4 0;
#X connect 15 1 14 0;
#X connect 15 1 16 0;
#X connect 18 0 24 0;
#X connect 19 1 18 0;
#X connect 20 0 22 0;
#X connect 21 1 20 0;
#X connect 22 0 33 0;
#X connect 24 0 32 0;
#X connect 25 0 1 0;
#X connect 26 0 2 0;
#X connect 27 0 3 0;
#X connect 27 0 34 0;
#X connect 29 0 31 0;
#X connect 29 0 16 0;
#X connect 30 0 28 0;
#X connect 31 0 30 0;
#X restore 375 6 pd get_cnv_position;
#N canvas 84 0 545 427 set_cnv_position 0;
#X obj 14 217 f;
#X obj 14 250 pack f f f;
#X obj -5 67 * 8;
#X obj 174 91 f;
#X msg 14 346 \; \$3-to_cnv pos \$1 \$2;
#X obj 194 66 * 30;
#X obj -32 14 inlet position;
#X obj -32 42 t b f;
#X obj 71 74 loadbang;
#X obj 155 15 inlet track;
#X obj 155 42 t b b f;
#X obj 174 117 + 2;
#X text 201 115 visual correction;
#X obj 71 99 f \$1;
#N canvas 506 360 333 185 timeline_pass 0;
#X obj 73 26 inlet;
#X obj 73 130 outlet;
#X obj 73 96 spigot;
#X obj 129 26 inlet on;
#X obj 194 25 inlet off;
#X msg 129 52 1;
#X msg 194 52 0;
#X connect 0 0 2 0;
#X connect 2 0 1 0;
#X connect 3 0 5 0;
#X connect 4 0 6 0;
#X connect 5 0 2 1;
#X connect 6 0 2 1;
#X restore 14 300 pd timeline_pass;
#X obj 174 144 t b f;
#X obj 252 15 inlet on;
#X obj 317 14 inlet off;
#X obj -122 13 inlet x bang;
#X obj 64 14 inlet y bang;
#X floatatom -53 328 5 0 0 0 - - -;
#X msg 179 349 set \$3-to_cnv pos \$1 \$2;
#X msg 193 381 1184-to_cnv pos 80 2;
#X floatatom 279 224 5 0 0 0 - - -;
#X connect 0 0 1 0;
#X connect 0 0 20 0;
#X connect 1 0 14 0;
#X connect 2 0 0 1;
#X connect 3 0 11 0;
#X connect 5 0 3 1;
#X connect 6 0 7 0;
#X connect 7 0 0 0;
#X connect 7 1 2 0;
#X connect 8 0 13 0;
#X connect 9 0 10 0;
#X connect 10 0 0 0;
#X connect 10 1 3 0;
#X connect 10 2 5 0;
#X connect 11 0 15 0;
#X connect 13 0 1 2;
#X connect 14 0 4 0;
#X connect 15 0 0 0;
#X connect 15 1 1 1;
#X connect 15 1 23 0;
#X connect 16 0 14 1;
#X connect 17 0 14 2;
#X connect 18 0 0 0;
#X connect 19 0 3 0;
#X connect 21 0 22 0;
#X restore 375 95 pd set_cnv_position;
#X obj 625 138 + 1;
#X floatatom 397 31 5 0 0 0 - - -;
#X floatatom 441 71 5 0 0 0 - - -;
#X obj 435 31 mstorage \$1 1 \$2 number;
#X obj 481 70 mstorage \$1 2 \$3 number;
#X floatatom 152 196 5 0 0 0 - - -;
#X obj 585 194 s \$1-07_output_track;
#X text 9 -242 Optimised for VisualTracker version: 1 ALPHA 2;
#X text 532 227 built in Pd 0.42.5-extended;
#X connect 1 0 0 1;
#X connect 2 0 22 0;
#X connect 3 0 23 0;
#X connect 4 0 8 0;
#X connect 5 0 0 0;
#X connect 8 0 32 0;
#X connect 8 1 21 0;
#X connect 8 2 7 0;
#X connect 8 2 6 0;
#X connect 8 2 1 0;
#X connect 8 2 9 0;
#X connect 9 0 0 3;
#X connect 9 0 26 0;
#X connect 10 0 40 0;
#X connect 11 0 40 0;
#X connect 12 0 1 1;
#X connect 13 0 0 7;
#X connect 13 0 3 1;
#X connect 14 0 2 1;
#X connect 14 0 3 2;
#X connect 14 0 0 8;
#X connect 15 0 2 2;
#X connect 15 0 0 9;
#X connect 16 0 0 2;
#X connect 17 0 0 6;
#X connect 17 0 3 0;
#X connect 18 0 5 0;
#X connect 19 0 10 0;
#X connect 20 0 11 0;
#X connect 29 0 0 4;
#X connect 30 0 0 5;
#X connect 32 0 33 0;
#X connect 32 1 35 0;
#X connect 32 2 33 2;
#X connect 32 3 36 0;
#X connect 32 4 2 3;
#X connect 32 4 33 4;
#X connect 32 5 2 4;
#X connect 32 5 33 5;
#X connect 34 0 25 0;
#X connect 35 0 33 1;
#X connect 35 0 24 0;
#X connect 35 0 2 0;
#X connect 35 0 37 0;
#X connect 36 0 34 0;
#X connect 36 0 11 1;
#X connect 36 0 10 1;
#X connect 36 0 33 3;
#X connect 36 0 38 0;
#X connect 37 0 35 0;
#X connect 38 0 36 0;
