#N canvas 140 22 800 532 10;
#X obj 102 102 tgl 15 0 \$0-c1 \$0-cr1 empty 17 7 0 10 -262144 -1 -1
0 1;
#X obj 119 102 tgl 15 0 \$0-c2 \$0-cr2 empty 17 7 0 10 -262144 -1 -1
0 1;
#X obj 136 102 tgl 15 0 \$0-c3 \$0-cr3 empty 17 7 0 10 -262144 -1 -1
0 1;
#X obj 153 102 tgl 15 0 \$0-c4 \$0-cr4 empty 17 7 0 10 -262144 -1 -1
0 1;
#X obj 170 102 tgl 15 0 \$0-c5 \$0-cr5 empty 17 7 0 10 -262144 -1 -1
0 1;
#X obj 187 102 tgl 15 0 \$0-c6 \$0-cr6 empty 17 7 0 10 -262144 -1 -1
0 1;
#X obj 204 102 tgl 15 0 \$0-c7 \$0-cr7 empty 17 7 0 10 -262144 -1 -1
0 1;
#X obj 221 102 tgl 15 0 \$0-c8 \$0-cr8 empty 17 7 0 10 -262144 -1 -1
0 1;
#X obj 102 119 tgl 15 0 \$0-c9 \$0-cr9 empty 17 7 0 10 -262144 -1 -1
0 1;
#X obj 119 119 tgl 15 0 \$0-c10 \$0-cr10 empty 17 7 0 10 -262144 -1
-1 0 1;
#X obj 136 119 tgl 15 0 \$0-c11 \$0-cr11 empty 17 7 0 10 -262144 -1
-1 0 1;
#X obj 153 119 tgl 15 0 \$0-c12 \$0-cr12 empty 17 7 0 10 -262144 -1
-1 0 1;
#X obj 170 119 tgl 15 0 \$0-c13 \$0-cr13 empty 17 7 0 10 -262144 -1
-1 0 1;
#X obj 187 119 tgl 15 0 \$0-c14 \$0-cr14 empty 17 7 0 10 -262144 -1
-1 0 1;
#X obj 204 119 tgl 15 0 \$0-c15 \$0-cr15 empty 17 7 0 10 -262144 -1
-1 0 1;
#X obj 221 119 tgl 15 0 \$0-c16 \$0-cr16 empty 17 7 0 10 -262144 -1
-1 0 1;
#X obj 102 136 tgl 15 0 \$0-c17 \$0-cr17 empty 17 7 0 10 -262144 -1
-1 0 1;
#X obj 119 136 tgl 15 0 \$0-c18 \$0-cr18 empty 17 7 0 10 -262144 -1
-1 0 1;
#X obj 136 136 tgl 15 0 \$0-c19 \$0-cr19 empty 17 7 0 10 -262144 -1
-1 0 1;
#X obj 153 136 tgl 15 0 \$0-c20 \$0-cr20 empty 17 7 0 10 -262144 -1
-1 0 1;
#X obj 170 136 tgl 15 0 \$0-c21 \$0-cr21 empty 17 7 0 10 -262144 -1
-1 0 1;
#X obj 187 136 tgl 15 0 \$0-c22 \$0-cr22 empty 17 7 0 10 -262144 -1
-1 0 1;
#X obj 204 136 tgl 15 0 \$0-c23 \$0-cr23 empty 17 7 0 10 -262144 -1
-1 0 1;
#X obj 221 136 tgl 15 0 \$0-c24 \$0-cr24 empty 17 7 0 10 -262144 -1
-1 0 1;
#X obj 102 153 tgl 15 0 \$0-c25 \$0-cr25 empty 17 7 0 10 -262144 -1
-1 0 1;
#X obj 119 153 tgl 15 0 \$0-c26 \$0-cr26 empty 17 7 0 10 -262144 -1
-1 0 1;
#X obj 136 153 tgl 15 0 \$0-c27 \$0-cr27 empty 17 7 0 10 -262144 -1
-1 0 1;
#X obj 153 153 tgl 15 0 \$0-c28 \$0-cr28 empty 17 7 0 10 -262144 -1
-1 0 1;
#X obj 170 153 tgl 15 0 \$0-c29 \$0-cr29 empty 17 7 0 10 -262144 -1
-1 0 1;
#X obj 187 153 tgl 15 0 \$0-c30 \$0-cr30 empty 17 7 0 10 -262144 -1
-1 0 1;
#X obj 204 153 tgl 15 0 \$0-c31 \$0-cr31 empty 17 7 0 10 -262144 -1
-1 0 1;
#X obj 221 153 tgl 15 0 \$0-c32 \$0-cr32 empty 17 7 0 10 -262144 -1
-1 0 1;
#X obj 102 170 tgl 15 0 \$0-c33 \$0-cr33 empty 17 7 0 10 -262144 -1
-1 0 1;
#X obj 119 170 tgl 15 0 \$0-c34 \$0-cr34 empty 17 7 0 10 -262144 -1
-1 0 1;
#X obj 136 170 tgl 15 0 \$0-c35 \$0-cr35 empty 17 7 0 10 -262144 -1
-1 0 1;
#X obj 153 170 tgl 15 0 \$0-c36 \$0-cr36 empty 17 7 0 10 -262144 -1
-1 0 1;
#X obj 170 170 tgl 15 0 \$0-c37 \$0-cr37 empty 17 7 0 10 -262144 -1
-1 0 1;
#X obj 187 170 tgl 15 0 \$0-c38 \$0-cr38 empty 17 7 0 10 -262144 -1
-1 0 1;
#X obj 204 170 tgl 15 0 \$0-c39 \$0-cr39 empty 17 7 0 10 -262144 -1
-1 0 1;
#X obj 221 170 tgl 15 0 \$0-c40 \$0-cr40 empty 17 7 0 10 -262144 -1
-1 0 1;
#X obj 102 187 tgl 15 0 \$0-c41 \$0-cr41 empty 17 7 0 10 -262144 -1
-1 0 1;
#X obj 119 187 tgl 15 0 \$0-c42 \$0-cr42 empty 17 7 0 10 -262144 -1
-1 0 1;
#X obj 136 187 tgl 15 0 \$0-c43 \$0-cr43 empty 17 7 0 10 -262144 -1
-1 0 1;
#X obj 153 187 tgl 15 0 \$0-c44 \$0-cr44 empty 17 7 0 10 -262144 -1
-1 0 1;
#X obj 170 187 tgl 15 0 \$0-c45 \$0-cr45 empty 17 7 0 10 -262144 -1
-1 0 1;
#X obj 187 187 tgl 15 0 \$0-c46 \$0-cr46 empty 17 7 0 10 -262144 -1
-1 0 1;
#X obj 204 187 tgl 15 0 \$0-c47 \$0-cr47 empty 17 7 0 10 -262144 -1
-1 0 1;
#X obj 221 187 tgl 15 0 \$0-c48 \$0-cr48 empty 17 7 0 10 -262144 -1
-1 0 1;
#X obj 102 204 tgl 15 0 \$0-c49 \$0-cr49 empty 17 7 0 10 -262144 -1
-1 0 1;
#X obj 119 204 tgl 15 0 \$0-c50 \$0-cr50 empty 17 7 0 10 -262144 -1
-1 0 1;
#X obj 136 204 tgl 15 0 \$0-c51 \$0-cr51 empty 17 7 0 10 -262144 -1
-1 0 1;
#X obj 153 204 tgl 15 0 \$0-c52 \$0-cr52 empty 17 7 0 10 -262144 -1
-1 0 1;
#X obj 170 204 tgl 15 0 \$0-c53 \$0-cr53 empty 17 7 0 10 -262144 -1
-1 0 1;
#X obj 187 204 tgl 15 0 \$0-c54 \$0-cr54 empty 17 7 0 10 -262144 -1
-1 0 1;
#X obj 204 204 tgl 15 0 \$0-c55 \$0-cr55 empty 17 7 0 10 -262144 -1
-1 0 1;
#X obj 221 204 tgl 15 0 \$0-c56 \$0-cr56 empty 17 7 0 10 -262144 -1
-1 0 1;
#X obj 102 221 tgl 15 0 \$0-c57 \$0-cr57 empty 17 7 0 10 -262144 -1
-1 0 1;
#X obj 119 221 tgl 15 0 \$0-c58 \$0-cr58 empty 17 7 0 10 -262144 -1
-1 0 1;
#X obj 136 221 tgl 15 0 \$0-c59 \$0-cr59 empty 17 7 0 10 -262144 -1
-1 0 1;
#X obj 153 221 tgl 15 0 \$0-c60 \$0-cr60 empty 17 7 0 10 -262144 -1
-1 0 1;
#X obj 170 221 tgl 15 0 \$0-c61 \$0-cr61 empty 17 7 0 10 -262144 -1
-1 0 1;
#X obj 187 221 tgl 15 0 \$0-c62 \$0-cr62 empty 17 7 0 10 -262144 -1
-1 0 1;
#X obj 204 221 tgl 15 0 \$0-c63 \$0-cr63 empty 17 7 0 10 -262144 -1
-1 0 1;
#X obj 221 221 tgl 15 0 \$0-c64 \$0-cr64 empty 17 7 0 10 -262144 -1
-1 0 1;
#N canvas 0 22 800 532 guts 0;
#N canvas 284 68 450 411 cell1 0;
#X obj 179 225 accum;
#X obj 98 145 tabread \$0-line1;
#X obj 204 144 tabread \$0-line2;
#X msg 98 114 1;
#X msg 204 108 0;
#X msg 239 108 1;
#X msg 327 153 0;
#X msg 46 164 bang;
#X obj 127 25 t b b b b b;
#X obj 164 354 s \$0-cr1;
#X obj 164 326 f;
#X msg 179 287 1;
#X obj 88 278 r \$0-next;
#X obj 127 2 r \$0-gathering;
#X obj 179 256 sel 3 2;
#X obj 224 283 f;
#X obj 239 257 r \$0-c1;
#X msg 259 282 0;
#X connect 0 0 14 0;
#X connect 1 0 0 1;
#X connect 2 0 0 1;
#X connect 3 0 1 0;
#X connect 4 0 2 0;
#X connect 5 0 2 0;
#X connect 6 0 0 0;
#X connect 7 0 0 0;
#X connect 8 0 7 0;
#X connect 8 1 3 0;
#X connect 8 2 4 0;
#X connect 8 3 5 0;
#X connect 8 4 6 0;
#X connect 10 0 9 0;
#X connect 11 0 10 1;
#X connect 12 0 10 0;
#X connect 13 0 8 0;
#X connect 14 0 11 0;
#X connect 14 1 15 0;
#X connect 14 2 17 0;
#X connect 15 0 10 1;
#X connect 16 0 15 1;
#X connect 17 0 10 1;
#X restore 74 -218 pd cell1;
#N canvas 284 68 450 411 cell2 0;
#X obj 179 225 accum;
#X obj 98 145 tabread \$0-line1;
#X obj 204 144 tabread \$0-line2;
#X msg 204 108 0;
#X msg 239 108 1;
#X msg 327 153 0;
#X msg 46 164 bang;
#X obj 164 326 f;
#X msg 179 287 1;
#X obj 88 278 r \$0-next;
#X obj 127 2 r \$0-gathering;
#X obj 179 256 sel 3 2;
#X obj 224 283 f;
#X msg 259 282 0;
#X msg 98 114 0;
#X msg 130 114 2;
#X msg 269 110 2;
#X obj 127 25 t b b b b b b b;
#X obj 239 257 r \$0-c2;
#X obj 164 354 s \$0-cr2;
#X connect 0 0 11 0;
#X connect 1 0 0 1;
#X connect 2 0 0 1;
#X connect 3 0 2 0;
#X connect 4 0 2 0;
#X connect 5 0 0 0;
#X connect 6 0 0 0;
#X connect 7 0 19 0;
#X connect 8 0 7 1;
#X connect 9 0 7 0;
#X connect 10 0 17 0;
#X connect 11 0 8 0;
#X connect 11 1 12 0;
#X connect 11 2 13 0;
#X connect 12 0 7 1;
#X connect 13 0 7 1;
#X connect 14 0 1 0;
#X connect 15 0 1 0;
#X connect 16 0 2 0;
#X connect 17 0 6 0;
#X connect 17 1 14 0;
#X connect 17 2 15 0;
#X connect 17 3 3 0;
#X connect 17 4 4 0;
#X connect 17 5 16 0;
#X connect 17 6 5 0;
#X connect 18 0 12 1;
#X restore 74 -199 pd cell2;
#N canvas 284 68 450 411 cell3 0;
#X obj 179 225 accum;
#X obj 98 145 tabread \$0-line1;
#X obj 204 144 tabread \$0-line2;
#X msg 327 153 0;
#X msg 46 164 bang;
#X obj 164 326 f;
#X msg 179 287 1;
#X obj 88 278 r \$0-next;
#X obj 127 2 r \$0-gathering;
#X obj 179 256 sel 3 2;
#X obj 224 283 f;
#X msg 259 282 0;
#X obj 127 25 t b b b b b b b;
#X obj 239 257 r \$0-c3;
#X obj 164 354 s \$0-cr3;
#X msg 98 114 1;
#X msg 130 114 3;
#X msg 204 108 1;
#X msg 239 108 2;
#X msg 269 110 3;
#X connect 0 0 9 0;
#X connect 1 0 0 1;
#X connect 2 0 0 1;
#X connect 3 0 0 0;
#X connect 4 0 0 0;
#X connect 5 0 14 0;
#X connect 6 0 5 1;
#X connect 7 0 5 0;
#X connect 8 0 12 0;
#X connect 9 0 6 0;
#X connect 9 1 10 0;
#X connect 9 2 11 0;
#X connect 10 0 5 1;
#X connect 11 0 5 1;
#X connect 12 0 4 0;
#X connect 12 1 15 0;
#X connect 12 2 16 0;
#X connect 12 3 17 0;
#X connect 12 4 18 0;
#X connect 12 5 19 0;
#X connect 12 6 3 0;
#X connect 13 0 10 1;
#X connect 15 0 1 0;
#X connect 16 0 1 0;
#X connect 17 0 2 0;
#X connect 18 0 2 0;
#X connect 19 0 2 0;
#X restore 74 -178 pd cell3;
#N canvas 284 68 450 411 cell4 0;
#X obj 179 225 accum;
#X obj 98 145 tabread \$0-line1;
#X obj 204 144 tabread \$0-line2;
#X msg 327 153 0;
#X msg 46 164 bang;
#X obj 164 326 f;
#X msg 179 287 1;
#X obj 88 278 r \$0-next;
#X obj 127 2 r \$0-gathering;
#X obj 179 256 sel 3 2;
#X obj 224 283 f;
#X msg 259 282 0;
#X obj 127 25 t b b b b b b b;
#X msg 204 108 2;
#X msg 239 108 3;
#X msg 269 110 4;
#X msg 98 114 2;
#X msg 130 114 4;
#X obj 239 257 r \$0-c4;
#X obj 164 354 s \$0-cr4;
#X connect 0 0 9 0;
#X connect 1 0 0 1;
#X connect 2 0 0 1;
#X connect 3 0 0 0;
#X connect 4 0 0 0;
#X connect 5 0 19 0;
#X connect 6 0 5 1;
#X connect 7 0 5 0;
#X connect 8 0 12 0;
#X connect 9 0 6 0;
#X connect 9 1 10 0;
#X connect 9 2 11 0;
#X connect 10 0 5 1;
#X connect 11 0 5 1;
#X connect 12 0 4 0;
#X connect 12 1 16 0;
#X connect 12 2 17 0;
#X connect 12 3 13 0;
#X connect 12 4 14 0;
#X connect 12 5 15 0;
#X connect 12 6 3 0;
#X connect 13 0 2 0;
#X connect 14 0 2 0;
#X connect 15 0 2 0;
#X connect 16 0 1 0;
#X connect 17 0 1 0;
#X connect 18 0 10 1;
#X restore 74 -156 pd cell4;
#N canvas 284 68 450 411 cell5 0;
#X obj 179 225 accum;
#X obj 98 145 tabread \$0-line1;
#X obj 204 144 tabread \$0-line2;
#X msg 327 153 0;
#X msg 46 164 bang;
#X obj 164 326 f;
#X msg 179 287 1;
#X obj 88 278 r \$0-next;
#X obj 127 2 r \$0-gathering;
#X obj 179 256 sel 3 2;
#X obj 224 283 f;
#X msg 259 282 0;
#X obj 127 25 t b b b b b b b;
#X msg 204 108 3;
#X msg 239 108 4;
#X msg 269 110 5;
#X msg 98 114 3;
#X msg 130 114 5;
#X obj 239 257 r \$0-c5;
#X obj 164 354 s \$0-cr5;
#X connect 0 0 9 0;
#X connect 1 0 0 1;
#X connect 2 0 0 1;
#X connect 3 0 0 0;
#X connect 4 0 0 0;
#X connect 5 0 19 0;
#X connect 6 0 5 1;
#X connect 7 0 5 0;
#X connect 8 0 12 0;
#X connect 9 0 6 0;
#X connect 9 1 10 0;
#X connect 9 2 11 0;
#X connect 10 0 5 1;
#X connect 11 0 5 1;
#X connect 12 0 4 0;
#X connect 12 1 16 0;
#X connect 12 2 17 0;
#X connect 12 3 13 0;
#X connect 12 4 14 0;
#X connect 12 5 15 0;
#X connect 12 6 3 0;
#X connect 13 0 2 0;
#X connect 14 0 2 0;
#X connect 15 0 2 0;
#X connect 16 0 1 0;
#X connect 17 0 1 0;
#X connect 18 0 10 1;
#X restore 74 -136 pd cell5;
#N canvas 339 58 450 411 cell6 0;
#X obj 179 225 accum;
#X obj 98 145 tabread \$0-line1;
#X obj 204 144 tabread \$0-line2;
#X msg 327 153 0;
#X msg 46 164 bang;
#X obj 164 326 f;
#X msg 179 287 1;
#X obj 88 278 r \$0-next;
#X obj 127 2 r \$0-gathering;
#X obj 179 256 sel 3 2;
#X obj 224 283 f;
#X msg 259 282 0;
#X obj 127 25 t b b b b b b b;
#X msg 204 108 4;
#X msg 239 108 5;
#X msg 269 110 6;
#X msg 98 114 4;
#X msg 130 114 6;
#X obj 239 257 r \$0-c6;
#X obj 164 354 s \$0-cr6;
#X connect 0 0 9 0;
#X connect 1 0 0 1;
#X connect 2 0 0 1;
#X connect 3 0 0 0;
#X connect 4 0 0 0;
#X connect 5 0 19 0;
#X connect 6 0 5 1;
#X connect 7 0 5 0;
#X connect 8 0 12 0;
#X connect 9 0 6 0;
#X connect 9 1 10 0;
#X connect 9 2 11 0;
#X connect 10 0 5 1;
#X connect 11 0 5 1;
#X connect 12 0 4 0;
#X connect 12 1 16 0;
#X connect 12 2 17 0;
#X connect 12 3 13 0;
#X connect 12 4 14 0;
#X connect 12 5 15 0;
#X connect 12 6 3 0;
#X connect 13 0 2 0;
#X connect 14 0 2 0;
#X connect 15 0 2 0;
#X connect 16 0 1 0;
#X connect 17 0 1 0;
#X connect 18 0 10 1;
#X restore 73 -116 pd cell6;
#N canvas 339 58 450 411 cell7 0;
#X obj 179 225 accum;
#X obj 98 145 tabread \$0-line1;
#X obj 204 144 tabread \$0-line2;
#X msg 327 153 0;
#X msg 46 164 bang;
#X obj 164 326 f;
#X msg 179 287 1;
#X obj 88 278 r \$0-next;
#X obj 127 2 r \$0-gathering;
#X obj 179 256 sel 3 2;
#X obj 224 283 f;
#X msg 259 282 0;
#X obj 127 25 t b b b b b b b;
#X obj 164 354 s \$0-cr7;
#X obj 239 257 r \$0-c7;
#X msg 204 108 5;
#X msg 239 108 6;
#X msg 269 110 7;
#X msg 98 114 5;
#X msg 130 114 7;
#X connect 0 0 9 0;
#X connect 1 0 0 1;
#X connect 2 0 0 1;
#X connect 3 0 0 0;
#X connect 4 0 0 0;
#X connect 5 0 13 0;
#X connect 6 0 5 1;
#X connect 7 0 5 0;
#X connect 8 0 12 0;
#X connect 9 0 6 0;
#X connect 9 1 10 0;
#X connect 9 2 11 0;
#X connect 10 0 5 1;
#X connect 11 0 5 1;
#X connect 12 0 4 0;
#X connect 12 1 18 0;
#X connect 12 2 19 0;
#X connect 12 3 15 0;
#X connect 12 4 16 0;
#X connect 12 5 17 0;
#X connect 12 6 3 0;
#X connect 14 0 10 1;
#X connect 15 0 2 0;
#X connect 16 0 2 0;
#X connect 17 0 2 0;
#X connect 18 0 1 0;
#X connect 19 0 1 0;
#X restore 73 -97 pd cell7;
#N canvas 284 68 450 411 cell8 0;
#X obj 179 225 accum;
#X obj 98 145 tabread \$0-line1;
#X obj 204 144 tabread \$0-line2;
#X msg 327 153 0;
#X msg 46 164 bang;
#X obj 127 25 t b b b b b;
#X obj 164 326 f;
#X msg 179 287 1;
#X obj 88 278 r \$0-next;
#X obj 127 2 r \$0-gathering;
#X obj 179 256 sel 3 2;
#X obj 224 283 f;
#X msg 259 282 0;
#X msg 204 108 6;
#X msg 239 108 7;
#X msg 98 114 6;
#X obj 239 257 r \$0-c8;
#X obj 164 354 s \$0-cr8;
#X connect 0 0 10 0;
#X connect 1 0 0 1;
#X connect 2 0 0 1;
#X connect 3 0 0 0;
#X connect 4 0 0 0;
#X connect 5 0 4 0;
#X connect 5 1 15 0;
#X connect 5 2 13 0;
#X connect 5 3 14 0;
#X connect 5 4 3 0;
#X connect 6 0 17 0;
#X connect 7 0 6 1;
#X connect 8 0 6 0;
#X connect 9 0 5 0;
#X connect 10 0 7 0;
#X connect 10 1 11 0;
#X connect 10 2 12 0;
#X connect 11 0 6 1;
#X connect 12 0 6 1;
#X connect 13 0 2 0;
#X connect 14 0 2 0;
#X connect 15 0 1 0;
#X connect 16 0 11 1;
#X restore 73 -76 pd cell8;
#N canvas 284 68 450 411 cell9 0;
#X obj 179 225 accum;
#X obj 98 145 tabread \$0-line1;
#X obj 204 144 tabread \$0-line2;
#X msg 98 114 1;
#X msg 204 113 1;
#X msg 367 185 0;
#X msg 46 164 bang;
#X obj 164 326 f;
#X msg 179 287 1;
#X obj 88 278 r \$0-next;
#X obj 127 2 r \$0-gathering;
#X obj 179 256 sel 3 2;
#X obj 224 283 f;
#X msg 259 282 0;
#X msg 128 113 0;
#X obj 309 144 tabread \$0-line3;
#X msg 301 109 1;
#X msg 331 108 0;
#X obj 126 26 t b b b b b b b;
#X obj 164 354 s \$0-cr9;
#X obj 239 257 r \$0-c9;
#X connect 0 0 11 0;
#X connect 1 0 0 1;
#X connect 2 0 0 1;
#X connect 3 0 1 0;
#X connect 4 0 2 0;
#X connect 5 0 0 0;
#X connect 6 0 0 0;
#X connect 7 0 19 0;
#X connect 8 0 7 1;
#X connect 9 0 7 0;
#X connect 10 0 18 0;
#X connect 11 0 8 0;
#X connect 11 1 12 0;
#X connect 11 2 13 0;
#X connect 12 0 7 1;
#X connect 13 0 7 1;
#X connect 14 0 1 0;
#X connect 15 0 0 1;
#X connect 16 0 15 0;
#X connect 17 0 15 0;
#X connect 18 0 6 0;
#X connect 18 1 3 0;
#X connect 18 2 14 0;
#X connect 18 3 4 0;
#X connect 18 4 16 0;
#X connect 18 5 17 0;
#X connect 18 6 5 0;
#X connect 20 0 12 1;
#X restore 131 -220 pd cell9;
#N canvas 284 68 450 411 cell10 0;
#X obj 179 225 accum;
#X obj 98 145 tabread \$0-line1;
#X obj 204 144 tabread \$0-line2;
#X msg 416 179 0;
#X msg 40 164 bang;
#X obj 164 326 f;
#X msg 179 287 1;
#X obj 88 278 r \$0-next;
#X obj 127 2 r \$0-gathering;
#X obj 179 256 sel 3 2;
#X obj 224 283 f;
#X msg 259 282 0;
#X obj 309 144 tabread \$0-line3;
#X msg 98 114 0;
#X msg 128 113 1;
#X msg 159 114 2;
#X msg 309 98 0;
#X msg 339 97 1;
#X msg 370 98 2;
#X msg 204 113 0;
#X msg 238 111 2;
#X obj 127 29 t b b b b b b b b b b;
#X obj 239 257 r \$0-c10;
#X obj 164 354 s \$0-cr10;
#X connect 0 0 9 0;
#X connect 1 0 0 1;
#X connect 2 0 0 1;
#X connect 3 0 0 0;
#X connect 4 0 0 0;
#X connect 5 0 23 0;
#X connect 6 0 5 1;
#X connect 7 0 5 0;
#X connect 8 0 21 0;
#X connect 9 0 6 0;
#X connect 9 1 10 0;
#X connect 9 2 11 0;
#X connect 10 0 5 1;
#X connect 11 0 5 1;
#X connect 12 0 0 1;
#X connect 13 0 1 0;
#X connect 14 0 1 0;
#X connect 15 0 1 0;
#X connect 16 0 12 0;
#X connect 17 0 12 0;
#X connect 18 0 12 0;
#X connect 19 0 2 0;
#X connect 20 0 2 0;
#X connect 21 0 4 0;
#X connect 21 1 13 0;
#X connect 21 2 14 0;
#X connect 21 3 15 0;
#X connect 21 4 19 0;
#X connect 21 5 20 0;
#X connect 21 6 16 0;
#X connect 21 7 17 0;
#X connect 21 8 18 0;
#X connect 21 9 3 0;
#X connect 22 0 10 1;
#X restore 131 -197 pd cell10;
#N canvas 284 68 450 411 cell11 0;
#X obj 179 225 accum;
#X obj 98 145 tabread \$0-line1;
#X obj 204 144 tabread \$0-line2;
#X msg 416 179 0;
#X msg 40 164 bang;
#X obj 164 326 f;
#X msg 179 287 1;
#X obj 88 278 r \$0-next;
#X obj 127 2 r \$0-gathering;
#X obj 179 256 sel 3 2;
#X obj 224 283 f;
#X msg 259 282 0;
#X obj 309 144 tabread \$0-line3;
#X obj 127 29 t b b b b b b b b b b;
#X msg 98 114 1;
#X msg 128 113 2;
#X msg 159 114 3;
#X msg 309 98 1;
#X msg 339 97 2;
#X msg 370 98 3;
#X msg 204 113 1;
#X msg 238 111 3;
#X obj 239 257 r \$0-c11;
#X obj 164 354 s \$0-cr11;
#X connect 0 0 9 0;
#X connect 1 0 0 1;
#X connect 2 0 0 1;
#X connect 3 0 0 0;
#X connect 4 0 0 0;
#X connect 5 0 23 0;
#X connect 6 0 5 1;
#X connect 7 0 5 0;
#X connect 8 0 13 0;
#X connect 9 0 6 0;
#X connect 9 1 10 0;
#X connect 9 2 11 0;
#X connect 10 0 5 1;
#X connect 11 0 5 1;
#X connect 12 0 0 1;
#X connect 13 0 4 0;
#X connect 13 1 14 0;
#X connect 13 2 15 0;
#X connect 13 3 16 0;
#X connect 13 4 20 0;
#X connect 13 5 21 0;
#X connect 13 6 17 0;
#X connect 13 7 18 0;
#X connect 13 8 19 0;
#X connect 13 9 3 0;
#X connect 14 0 1 0;
#X connect 15 0 1 0;
#X connect 16 0 1 0;
#X connect 17 0 12 0;
#X connect 18 0 12 0;
#X connect 19 0 12 0;
#X connect 20 0 2 0;
#X connect 21 0 2 0;
#X connect 22 0 10 1;
#X restore 132 -175 pd cell11;
#N canvas 284 68 450 411 cell12 0;
#X obj 179 225 accum;
#X obj 98 145 tabread \$0-line1;
#X obj 204 144 tabread \$0-line2;
#X msg 416 179 0;
#X msg 40 164 bang;
#X obj 164 326 f;
#X msg 179 287 1;
#X obj 88 278 r \$0-next;
#X obj 127 2 r \$0-gathering;
#X obj 179 256 sel 3 2;
#X obj 224 283 f;
#X msg 259 282 0;
#X obj 309 144 tabread \$0-line3;
#X obj 127 29 t b b b b b b b b b b;
#X obj 239 257 r \$0-c12;
#X obj 164 354 s \$0-cr12;
#X msg 98 114 2;
#X msg 128 113 3;
#X msg 159 114 4;
#X msg 309 98 2;
#X msg 339 97 3;
#X msg 370 98 4;
#X msg 204 113 2;
#X msg 238 111 4;
#X connect 0 0 9 0;
#X connect 1 0 0 1;
#X connect 2 0 0 1;
#X connect 3 0 0 0;
#X connect 4 0 0 0;
#X connect 5 0 15 0;
#X connect 6 0 5 1;
#X connect 7 0 5 0;
#X connect 8 0 13 0;
#X connect 9 0 6 0;
#X connect 9 1 10 0;
#X connect 9 2 11 0;
#X connect 10 0 5 1;
#X connect 11 0 5 1;
#X connect 12 0 0 1;
#X connect 13 0 4 0;
#X connect 13 1 16 0;
#X connect 13 2 17 0;
#X connect 13 3 18 0;
#X connect 13 4 22 0;
#X connect 13 5 23 0;
#X connect 13 6 19 0;
#X connect 13 7 20 0;
#X connect 13 8 21 0;
#X connect 13 9 3 0;
#X connect 14 0 10 1;
#X connect 16 0 1 0;
#X connect 17 0 1 0;
#X connect 18 0 1 0;
#X connect 19 0 12 0;
#X connect 20 0 12 0;
#X connect 21 0 12 0;
#X connect 22 0 2 0;
#X connect 23 0 2 0;
#X restore 132 -155 pd cell12;
#N canvas 284 68 450 411 cell13 0;
#X obj 179 225 accum;
#X obj 98 145 tabread \$0-line1;
#X obj 204 144 tabread \$0-line2;
#X msg 416 179 0;
#X msg 40 164 bang;
#X obj 164 326 f;
#X msg 179 287 1;
#X obj 88 278 r \$0-next;
#X obj 127 2 r \$0-gathering;
#X obj 179 256 sel 3 2;
#X obj 224 283 f;
#X msg 259 282 0;
#X obj 309 144 tabread \$0-line3;
#X obj 127 29 t b b b b b b b b b b;
#X obj 239 257 r \$0-c13;
#X obj 164 354 s \$0-cr13;
#X msg 98 114 3;
#X msg 128 113 4;
#X msg 159 114 5;
#X msg 203 113 3;
#X msg 238 111 5;
#X msg 309 98 3;
#X msg 339 97 4;
#X msg 370 98 5;
#X connect 0 0 9 0;
#X connect 1 0 0 1;
#X connect 2 0 0 1;
#X connect 3 0 0 0;
#X connect 4 0 0 0;
#X connect 5 0 15 0;
#X connect 6 0 5 1;
#X connect 7 0 5 0;
#X connect 8 0 13 0;
#X connect 9 0 6 0;
#X connect 9 1 10 0;
#X connect 9 2 11 0;
#X connect 10 0 5 1;
#X connect 11 0 5 1;
#X connect 12 0 0 1;
#X connect 13 0 4 0;
#X connect 13 1 16 0;
#X connect 13 2 17 0;
#X connect 13 3 18 0;
#X connect 13 4 19 0;
#X connect 13 5 20 0;
#X connect 13 6 21 0;
#X connect 13 7 22 0;
#X connect 13 8 23 0;
#X connect 13 9 3 0;
#X connect 14 0 10 1;
#X connect 16 0 1 0;
#X connect 17 0 1 0;
#X connect 18 0 1 0;
#X connect 19 0 2 0;
#X connect 20 0 2 0;
#X connect 21 0 12 0;
#X connect 22 0 12 0;
#X connect 23 0 12 0;
#X restore 132 -135 pd cell13;
#N canvas 284 68 450 411 cell14 0;
#X obj 179 225 accum;
#X obj 98 145 tabread \$0-line1;
#X obj 204 144 tabread \$0-line2;
#X msg 416 179 0;
#X msg 40 164 bang;
#X obj 164 326 f;
#X msg 179 287 1;
#X obj 88 278 r \$0-next;
#X obj 127 2 r \$0-gathering;
#X obj 179 256 sel 3 2;
#X obj 224 283 f;
#X msg 259 282 0;
#X obj 309 144 tabread \$0-line3;
#X obj 127 29 t b b b b b b b b b b;
#X obj 164 354 s \$0-cr14;
#X obj 239 257 r \$0-c14;
#X msg 98 114 4;
#X msg 128 113 5;
#X msg 159 114 6;
#X msg 203 113 4;
#X msg 238 111 6;
#X msg 309 98 4;
#X msg 339 97 5;
#X msg 370 98 6;
#X connect 0 0 9 0;
#X connect 1 0 0 1;
#X connect 2 0 0 1;
#X connect 3 0 0 0;
#X connect 4 0 0 0;
#X connect 5 0 14 0;
#X connect 6 0 5 1;
#X connect 7 0 5 0;
#X connect 8 0 13 0;
#X connect 9 0 6 0;
#X connect 9 1 10 0;
#X connect 9 2 11 0;
#X connect 10 0 5 1;
#X connect 11 0 5 1;
#X connect 12 0 0 1;
#X connect 13 0 4 0;
#X connect 13 1 16 0;
#X connect 13 2 17 0;
#X connect 13 3 18 0;
#X connect 13 4 19 0;
#X connect 13 5 20 0;
#X connect 13 6 21 0;
#X connect 13 7 22 0;
#X connect 13 8 23 0;
#X connect 13 9 3 0;
#X connect 15 0 10 1;
#X connect 16 0 1 0;
#X connect 17 0 1 0;
#X connect 18 0 1 0;
#X connect 19 0 2 0;
#X connect 20 0 2 0;
#X connect 21 0 12 0;
#X connect 22 0 12 0;
#X connect 23 0 12 0;
#X restore 132 -115 pd cell14;
#N canvas 284 68 450 411 cell15 0;
#X obj 179 225 accum;
#X obj 98 145 tabread \$0-line1;
#X obj 204 144 tabread \$0-line2;
#X msg 416 179 0;
#X msg 40 164 bang;
#X obj 164 326 f;
#X msg 179 287 1;
#X obj 88 278 r \$0-next;
#X obj 127 2 r \$0-gathering;
#X obj 179 256 sel 3 2;
#X obj 224 283 f;
#X msg 259 282 0;
#X obj 309 144 tabread \$0-line3;
#X obj 127 29 t b b b b b b b b b b;
#X obj 239 257 r \$0-c15;
#X obj 164 354 s \$0-cr15;
#X msg 98 114 5;
#X msg 128 113 6;
#X msg 159 114 7;
#X msg 203 113 5;
#X msg 238 111 7;
#X msg 309 98 5;
#X msg 339 97 6;
#X msg 370 98 7;
#X connect 0 0 9 0;
#X connect 1 0 0 1;
#X connect 2 0 0 1;
#X connect 3 0 0 0;
#X connect 4 0 0 0;
#X connect 5 0 15 0;
#X connect 6 0 5 1;
#X connect 7 0 5 0;
#X connect 8 0 13 0;
#X connect 9 0 6 0;
#X connect 9 1 10 0;
#X connect 9 2 11 0;
#X connect 10 0 5 1;
#X connect 11 0 5 1;
#X connect 12 0 0 1;
#X connect 13 0 4 0;
#X connect 13 1 16 0;
#X connect 13 2 17 0;
#X connect 13 3 18 0;
#X connect 13 4 19 0;
#X connect 13 5 20 0;
#X connect 13 6 21 0;
#X connect 13 7 22 0;
#X connect 13 8 23 0;
#X connect 13 9 3 0;
#X connect 14 0 10 1;
#X connect 16 0 1 0;
#X connect 17 0 1 0;
#X connect 18 0 1 0;
#X connect 19 0 2 0;
#X connect 20 0 2 0;
#X connect 21 0 12 0;
#X connect 22 0 12 0;
#X connect 23 0 12 0;
#X restore 132 -95 pd cell15;
#N canvas 284 68 450 411 cell16 0;
#X obj 179 225 accum;
#X obj 98 145 tabread \$0-line1;
#X obj 204 144 tabread \$0-line2;
#X msg 367 185 0;
#X msg 46 164 bang;
#X obj 164 326 f;
#X msg 179 287 1;
#X obj 88 278 r \$0-next;
#X obj 127 2 r \$0-gathering;
#X obj 179 256 sel 3 2;
#X obj 224 283 f;
#X msg 259 282 0;
#X obj 309 144 tabread \$0-line3;
#X obj 126 26 t b b b b b b b;
#X obj 164 354 s \$0-cr16;
#X obj 239 257 r \$0-c16;
#X msg 98 114 6;
#X msg 128 113 7;
#X msg 301 109 6;
#X msg 331 108 7;
#X msg 204 113 6;
#X connect 0 0 9 0;
#X connect 1 0 0 1;
#X connect 2 0 0 1;
#X connect 3 0 0 0;
#X connect 4 0 0 0;
#X connect 5 0 14 0;
#X connect 6 0 5 1;
#X connect 7 0 5 0;
#X connect 8 0 13 0;
#X connect 9 0 6 0;
#X connect 9 1 10 0;
#X connect 9 2 11 0;
#X connect 10 0 5 1;
#X connect 11 0 5 1;
#X connect 12 0 0 1;
#X connect 13 0 4 0;
#X connect 13 1 16 0;
#X connect 13 2 17 0;
#X connect 13 3 20 0;
#X connect 13 4 18 0;
#X connect 13 5 19 0;
#X connect 13 6 3 0;
#X connect 15 0 10 1;
#X connect 16 0 1 0;
#X connect 17 0 1 0;
#X connect 18 0 12 0;
#X connect 19 0 12 0;
#X connect 20 0 2 0;
#X restore 133 -74 pd cell16;
#N canvas 284 68 450 411 cell17 0;
#X obj 179 225 accum;
#X msg 98 114 1;
#X msg 204 113 1;
#X msg 367 185 0;
#X msg 46 164 bang;
#X obj 164 326 f;
#X msg 179 287 1;
#X obj 88 278 r \$0-next;
#X obj 127 2 r \$0-gathering;
#X obj 179 256 sel 3 2;
#X obj 224 283 f;
#X msg 259 282 0;
#X msg 128 113 0;
#X msg 301 109 1;
#X msg 331 108 0;
#X obj 126 26 t b b b b b b b;
#X obj 164 354 s \$0-cr17;
#X obj 239 257 r \$0-c17;
#X obj 98 145 tabread \$0-line2;
#X obj 204 144 tabread \$0-line3;
#X obj 309 144 tabread \$0-line4;
#X connect 0 0 9 0;
#X connect 1 0 18 0;
#X connect 2 0 19 0;
#X connect 3 0 0 0;
#X connect 4 0 0 0;
#X connect 5 0 16 0;
#X connect 6 0 5 1;
#X connect 7 0 5 0;
#X connect 8 0 15 0;
#X connect 9 0 6 0;
#X connect 9 1 10 0;
#X connect 9 2 11 0;
#X connect 10 0 5 1;
#X connect 11 0 5 1;
#X connect 12 0 18 0;
#X connect 13 0 20 0;
#X connect 14 0 20 0;
#X connect 15 0 4 0;
#X connect 15 1 1 0;
#X connect 15 2 12 0;
#X connect 15 3 2 0;
#X connect 15 4 13 0;
#X connect 15 5 14 0;
#X connect 15 6 3 0;
#X connect 17 0 10 1;
#X connect 18 0 0 1;
#X connect 19 0 0 1;
#X connect 20 0 0 1;
#X restore 192 -219 pd cell17;
#N canvas 284 68 450 411 cell18 0;
#X obj 179 225 accum;
#X msg 416 179 0;
#X msg 40 164 bang;
#X obj 164 326 f;
#X msg 179 287 1;
#X obj 88 278 r \$0-next;
#X obj 127 2 r \$0-gathering;
#X obj 179 256 sel 3 2;
#X obj 224 283 f;
#X msg 259 282 0;
#X msg 98 114 0;
#X msg 128 113 1;
#X msg 159 114 2;
#X msg 309 98 0;
#X msg 339 97 1;
#X msg 370 98 2;
#X msg 204 113 0;
#X msg 238 111 2;
#X obj 127 29 t b b b b b b b b b b;
#X obj 164 354 s \$0-cr18;
#X obj 239 257 r \$0-c18;
#X obj 98 145 tabread \$0-line2;
#X obj 204 144 tabread \$0-line3;
#X obj 309 144 tabread \$0-line4;
#X connect 0 0 7 0;
#X connect 1 0 0 0;
#X connect 2 0 0 0;
#X connect 3 0 19 0;
#X connect 4 0 3 1;
#X connect 5 0 3 0;
#X connect 6 0 18 0;
#X connect 7 0 4 0;
#X connect 7 1 8 0;
#X connect 7 2 9 0;
#X connect 8 0 3 1;
#X connect 9 0 3 1;
#X connect 10 0 21 0;
#X connect 11 0 21 0;
#X connect 12 0 21 0;
#X connect 13 0 23 0;
#X connect 14 0 23 0;
#X connect 15 0 23 0;
#X connect 16 0 22 0;
#X connect 17 0 22 0;
#X connect 18 0 2 0;
#X connect 18 1 10 0;
#X connect 18 2 11 0;
#X connect 18 3 12 0;
#X connect 18 4 16 0;
#X connect 18 5 17 0;
#X connect 18 6 13 0;
#X connect 18 7 14 0;
#X connect 18 8 15 0;
#X connect 18 9 1 0;
#X connect 20 0 8 1;
#X connect 21 0 0 1;
#X connect 22 0 0 1;
#X connect 23 0 0 1;
#X restore 192 -196 pd cell18;
#N canvas 284 68 450 411 cell19 0;
#X obj 179 225 accum;
#X msg 416 179 0;
#X msg 40 164 bang;
#X obj 164 326 f;
#X msg 179 287 1;
#X obj 88 278 r \$0-next;
#X obj 127 2 r \$0-gathering;
#X obj 179 256 sel 3 2;
#X obj 224 283 f;
#X msg 259 282 0;
#X obj 127 29 t b b b b b b b b b b;
#X msg 98 114 1;
#X msg 128 113 2;
#X msg 159 114 3;
#X msg 309 98 1;
#X msg 339 97 2;
#X msg 370 98 3;
#X msg 204 113 1;
#X msg 238 111 3;
#X obj 239 257 r \$0-c19;
#X obj 164 354 s \$0-cr19;
#X obj 98 145 tabread \$0-line2;
#X obj 204 144 tabread \$0-line3;
#X obj 309 144 tabread \$0-line4;
#X connect 0 0 7 0;
#X connect 1 0 0 0;
#X connect 2 0 0 0;
#X connect 3 0 20 0;
#X connect 4 0 3 1;
#X connect 5 0 3 0;
#X connect 6 0 10 0;
#X connect 7 0 4 0;
#X connect 7 1 8 0;
#X connect 7 2 9 0;
#X connect 8 0 3 1;
#X connect 9 0 3 1;
#X connect 10 0 2 0;
#X connect 10 1 11 0;
#X connect 10 2 12 0;
#X connect 10 3 13 0;
#X connect 10 4 17 0;
#X connect 10 5 18 0;
#X connect 10 6 14 0;
#X connect 10 7 15 0;
#X connect 10 8 16 0;
#X connect 10 9 1 0;
#X connect 11 0 21 0;
#X connect 12 0 21 0;
#X connect 13 0 21 0;
#X connect 14 0 23 0;
#X connect 15 0 23 0;
#X connect 16 0 23 0;
#X connect 17 0 22 0;
#X connect 18 0 22 0;
#X connect 19 0 8 1;
#X connect 21 0 0 1;
#X connect 22 0 0 1;
#X connect 23 0 0 1;
#X restore 193 -174 pd cell19;
#N canvas 284 68 450 411 cell20 0;
#X obj 179 225 accum;
#X msg 416 179 0;
#X msg 40 164 bang;
#X obj 164 326 f;
#X msg 179 287 1;
#X obj 88 278 r \$0-next;
#X obj 127 2 r \$0-gathering;
#X obj 179 256 sel 3 2;
#X obj 224 283 f;
#X msg 259 282 0;
#X obj 127 29 t b b b b b b b b b b;
#X msg 98 114 2;
#X msg 128 113 3;
#X msg 159 114 4;
#X msg 309 98 2;
#X msg 339 97 3;
#X msg 370 98 4;
#X msg 204 113 2;
#X msg 238 111 4;
#X obj 239 257 r \$0-c20;
#X obj 164 354 s \$0-cr20;
#X obj 98 145 tabread \$0-line2;
#X obj 204 144 tabread \$0-line3;
#X obj 309 144 tabread \$0-line4;
#X connect 0 0 7 0;
#X connect 1 0 0 0;
#X connect 2 0 0 0;
#X connect 3 0 20 0;
#X connect 4 0 3 1;
#X connect 5 0 3 0;
#X connect 6 0 10 0;
#X connect 7 0 4 0;
#X connect 7 1 8 0;
#X connect 7 2 9 0;
#X connect 8 0 3 1;
#X connect 9 0 3 1;
#X connect 10 0 2 0;
#X connect 10 1 11 0;
#X connect 10 2 12 0;
#X connect 10 3 13 0;
#X connect 10 4 17 0;
#X connect 10 5 18 0;
#X connect 10 6 14 0;
#X connect 10 7 15 0;
#X connect 10 8 16 0;
#X connect 10 9 1 0;
#X connect 11 0 21 0;
#X connect 12 0 21 0;
#X connect 13 0 21 0;
#X connect 14 0 23 0;
#X connect 15 0 23 0;
#X connect 16 0 23 0;
#X connect 17 0 22 0;
#X connect 18 0 22 0;
#X connect 19 0 8 1;
#X connect 21 0 0 1;
#X connect 22 0 0 1;
#X connect 23 0 0 1;
#X restore 193 -154 pd cell20;
#N canvas 284 68 450 411 cell21 0;
#X obj 179 225 accum;
#X msg 416 179 0;
#X msg 40 164 bang;
#X obj 164 326 f;
#X msg 179 287 1;
#X obj 88 278 r \$0-next;
#X obj 127 2 r \$0-gathering;
#X obj 179 256 sel 3 2;
#X obj 224 283 f;
#X msg 259 282 0;
#X obj 127 29 t b b b b b b b b b b;
#X msg 98 114 3;
#X msg 128 113 4;
#X msg 159 114 5;
#X msg 203 113 3;
#X msg 238 111 5;
#X msg 309 98 3;
#X msg 339 97 4;
#X msg 370 98 5;
#X obj 164 354 s \$0-cr21;
#X obj 239 257 r \$0-c21;
#X obj 98 145 tabread \$0-line2;
#X obj 204 144 tabread \$0-line3;
#X obj 309 144 tabread \$0-line4;
#X connect 0 0 7 0;
#X connect 1 0 0 0;
#X connect 2 0 0 0;
#X connect 3 0 19 0;
#X connect 4 0 3 1;
#X connect 5 0 3 0;
#X connect 6 0 10 0;
#X connect 7 0 4 0;
#X connect 7 1 8 0;
#X connect 7 2 9 0;
#X connect 8 0 3 1;
#X connect 9 0 3 1;
#X connect 10 0 2 0;
#X connect 10 1 11 0;
#X connect 10 2 12 0;
#X connect 10 3 13 0;
#X connect 10 4 14 0;
#X connect 10 5 15 0;
#X connect 10 6 16 0;
#X connect 10 7 17 0;
#X connect 10 8 18 0;
#X connect 10 9 1 0;
#X connect 11 0 21 0;
#X connect 12 0 21 0;
#X connect 13 0 21 0;
#X connect 14 0 22 0;
#X connect 15 0 22 0;
#X connect 16 0 23 0;
#X connect 17 0 23 0;
#X connect 18 0 23 0;
#X connect 20 0 8 1;
#X connect 21 0 0 1;
#X connect 22 0 0 1;
#X connect 23 0 0 1;
#X restore 193 -134 pd cell21;
#N canvas 284 68 450 411 cell22 0;
#X obj 179 225 accum;
#X msg 416 179 0;
#X msg 40 164 bang;
#X obj 164 326 f;
#X msg 179 287 1;
#X obj 88 278 r \$0-next;
#X obj 127 2 r \$0-gathering;
#X obj 179 256 sel 3 2;
#X obj 224 283 f;
#X msg 259 282 0;
#X obj 127 29 t b b b b b b b b b b;
#X msg 98 114 4;
#X msg 128 113 5;
#X msg 159 114 6;
#X msg 203 113 4;
#X msg 238 111 6;
#X msg 309 98 4;
#X msg 339 97 5;
#X msg 370 98 6;
#X obj 164 354 s \$0-cr22;
#X obj 239 257 r \$0-c22;
#X obj 98 145 tabread \$0-line2;
#X obj 204 144 tabread \$0-line3;
#X obj 309 144 tabread \$0-line4;
#X connect 0 0 7 0;
#X connect 1 0 0 0;
#X connect 2 0 0 0;
#X connect 3 0 19 0;
#X connect 4 0 3 1;
#X connect 5 0 3 0;
#X connect 6 0 10 0;
#X connect 7 0 4 0;
#X connect 7 1 8 0;
#X connect 7 2 9 0;
#X connect 8 0 3 1;
#X connect 9 0 3 1;
#X connect 10 0 2 0;
#X connect 10 1 11 0;
#X connect 10 2 12 0;
#X connect 10 3 13 0;
#X connect 10 4 14 0;
#X connect 10 5 15 0;
#X connect 10 6 16 0;
#X connect 10 7 17 0;
#X connect 10 8 18 0;
#X connect 10 9 1 0;
#X connect 11 0 21 0;
#X connect 12 0 21 0;
#X connect 13 0 21 0;
#X connect 14 0 22 0;
#X connect 15 0 22 0;
#X connect 16 0 23 0;
#X connect 17 0 23 0;
#X connect 18 0 23 0;
#X connect 20 0 8 1;
#X connect 21 0 0 1;
#X connect 22 0 0 1;
#X connect 23 0 0 1;
#X restore 193 -114 pd cell22;
#N canvas 284 68 450 411 cell23 0;
#X obj 179 225 accum;
#X msg 416 179 0;
#X msg 40 164 bang;
#X obj 164 326 f;
#X msg 179 287 1;
#X obj 88 278 r \$0-next;
#X obj 127 2 r \$0-gathering;
#X obj 179 256 sel 3 2;
#X obj 224 283 f;
#X msg 259 282 0;
#X obj 127 29 t b b b b b b b b b b;
#X msg 98 114 5;
#X msg 128 113 6;
#X msg 159 114 7;
#X msg 203 113 5;
#X msg 238 111 7;
#X msg 309 98 5;
#X msg 339 97 6;
#X msg 370 98 7;
#X obj 98 145 tabread \$0-line2;
#X obj 204 144 tabread \$0-line3;
#X obj 309 144 tabread \$0-line4;
#X obj 239 257 r \$0-c23;
#X obj 164 354 s \$0-cr23;
#X connect 0 0 7 0;
#X connect 1 0 0 0;
#X connect 2 0 0 0;
#X connect 3 0 23 0;
#X connect 4 0 3 1;
#X connect 5 0 3 0;
#X connect 6 0 10 0;
#X connect 7 0 4 0;
#X connect 7 1 8 0;
#X connect 7 2 9 0;
#X connect 8 0 3 1;
#X connect 9 0 3 1;
#X connect 10 0 2 0;
#X connect 10 1 11 0;
#X connect 10 2 12 0;
#X connect 10 3 13 0;
#X connect 10 4 14 0;
#X connect 10 5 15 0;
#X connect 10 6 16 0;
#X connect 10 7 17 0;
#X connect 10 8 18 0;
#X connect 10 9 1 0;
#X connect 11 0 19 0;
#X connect 12 0 19 0;
#X connect 13 0 19 0;
#X connect 14 0 20 0;
#X connect 15 0 20 0;
#X connect 16 0 21 0;
#X connect 17 0 21 0;
#X connect 18 0 21 0;
#X connect 19 0 0 1;
#X connect 20 0 0 1;
#X connect 21 0 0 1;
#X connect 22 0 8 1;
#X restore 193 -94 pd cell23;
#N canvas 284 68 450 411 cell24 0;
#X obj 179 225 accum;
#X msg 367 185 0;
#X msg 46 164 bang;
#X obj 164 326 f;
#X msg 179 287 1;
#X obj 88 278 r \$0-next;
#X obj 127 2 r \$0-gathering;
#X obj 179 256 sel 3 2;
#X obj 224 283 f;
#X msg 259 282 0;
#X obj 126 26 t b b b b b b b;
#X msg 98 114 6;
#X msg 128 113 7;
#X msg 301 109 6;
#X msg 331 108 7;
#X msg 204 113 6;
#X obj 239 257 r \$0-c24;
#X obj 164 354 s \$0-cr24;
#X obj 98 145 tabread \$0-line2;
#X obj 204 144 tabread \$0-line3;
#X obj 309 144 tabread \$0-line4;
#X connect 0 0 7 0;
#X connect 1 0 0 0;
#X connect 2 0 0 0;
#X connect 3 0 17 0;
#X connect 4 0 3 1;
#X connect 5 0 3 0;
#X connect 6 0 10 0;
#X connect 7 0 4 0;
#X connect 7 1 8 0;
#X connect 7 2 9 0;
#X connect 8 0 3 1;
#X connect 9 0 3 1;
#X connect 10 0 2 0;
#X connect 10 1 11 0;
#X connect 10 2 12 0;
#X connect 10 3 15 0;
#X connect 10 4 13 0;
#X connect 10 5 14 0;
#X connect 10 6 1 0;
#X connect 11 0 18 0;
#X connect 12 0 18 0;
#X connect 13 0 20 0;
#X connect 14 0 20 0;
#X connect 15 0 19 0;
#X connect 16 0 8 1;
#X connect 18 0 0 1;
#X connect 19 0 0 1;
#X connect 20 0 0 1;
#X restore 194 -73 pd cell24;
#N canvas 284 68 450 411 cell25 0;
#X obj 179 225 accum;
#X msg 98 114 1;
#X msg 204 113 1;
#X msg 367 185 0;
#X msg 46 164 bang;
#X obj 164 326 f;
#X msg 179 287 1;
#X obj 88 278 r \$0-next;
#X obj 127 2 r \$0-gathering;
#X obj 179 256 sel 3 2;
#X obj 224 283 f;
#X msg 259 282 0;
#X msg 128 113 0;
#X msg 301 109 1;
#X msg 331 108 0;
#X obj 126 26 t b b b b b b b;
#X obj 239 257 r \$0-c25;
#X obj 164 354 s \$0-cr25;
#X obj 98 145 tabread \$0-line3;
#X obj 204 144 tabread \$0-line4;
#X obj 309 144 tabread \$0-line5;
#X connect 0 0 9 0;
#X connect 1 0 18 0;
#X connect 2 0 19 0;
#X connect 3 0 0 0;
#X connect 4 0 0 0;
#X connect 5 0 17 0;
#X connect 6 0 5 1;
#X connect 7 0 5 0;
#X connect 8 0 15 0;
#X connect 9 0 6 0;
#X connect 9 1 10 0;
#X connect 9 2 11 0;
#X connect 10 0 5 1;
#X connect 11 0 5 1;
#X connect 12 0 18 0;
#X connect 13 0 20 0;
#X connect 14 0 20 0;
#X connect 15 0 4 0;
#X connect 15 1 1 0;
#X connect 15 2 12 0;
#X connect 15 3 2 0;
#X connect 15 4 13 0;
#X connect 15 5 14 0;
#X connect 15 6 3 0;
#X connect 16 0 10 1;
#X connect 18 0 0 1;
#X connect 19 0 0 1;
#X connect 20 0 0 1;
#X restore 253 -219 pd cell25;
#N canvas 284 68 450 411 cell26 0;
#X obj 179 225 accum;
#X msg 416 179 0;
#X msg 40 164 bang;
#X obj 164 326 f;
#X msg 179 287 1;
#X obj 88 278 r \$0-next;
#X obj 127 2 r \$0-gathering;
#X obj 179 256 sel 3 2;
#X obj 224 283 f;
#X msg 259 282 0;
#X msg 98 114 0;
#X msg 128 113 1;
#X msg 159 114 2;
#X msg 309 98 0;
#X msg 339 97 1;
#X msg 370 98 2;
#X msg 204 113 0;
#X msg 238 111 2;
#X obj 127 29 t b b b b b b b b b b;
#X obj 98 145 tabread \$0-line3;
#X obj 309 144 tabread \$0-line5;
#X obj 204 144 tabread \$0-line4;
#X obj 239 257 r \$0-c26;
#X obj 164 354 s \$0-cr26;
#X connect 0 0 7 0;
#X connect 1 0 0 0;
#X connect 2 0 0 0;
#X connect 3 0 23 0;
#X connect 4 0 3 1;
#X connect 5 0 3 0;
#X connect 6 0 18 0;
#X connect 7 0 4 0;
#X connect 7 1 8 0;
#X connect 7 2 9 0;
#X connect 8 0 3 1;
#X connect 9 0 3 1;
#X connect 10 0 19 0;
#X connect 11 0 19 0;
#X connect 12 0 19 0;
#X connect 13 0 20 0;
#X connect 14 0 20 0;
#X connect 15 0 20 0;
#X connect 16 0 21 0;
#X connect 17 0 21 0;
#X connect 18 0 2 0;
#X connect 18 1 10 0;
#X connect 18 2 11 0;
#X connect 18 3 12 0;
#X connect 18 4 16 0;
#X connect 18 5 17 0;
#X connect 18 6 13 0;
#X connect 18 7 14 0;
#X connect 18 8 15 0;
#X connect 18 9 1 0;
#X connect 19 0 0 1;
#X connect 20 0 0 1;
#X connect 21 0 0 1;
#X connect 22 0 8 1;
#X restore 253 -196 pd cell26;
#N canvas 284 68 450 411 cell27 0;
#X obj 179 225 accum;
#X msg 416 179 0;
#X msg 40 164 bang;
#X obj 164 326 f;
#X msg 179 287 1;
#X obj 88 278 r \$0-next;
#X obj 127 2 r \$0-gathering;
#X obj 179 256 sel 3 2;
#X obj 224 283 f;
#X msg 259 282 0;
#X obj 127 29 t b b b b b b b b b b;
#X msg 98 114 1;
#X msg 128 113 2;
#X msg 159 114 3;
#X msg 309 98 1;
#X msg 339 97 2;
#X msg 370 98 3;
#X msg 204 113 1;
#X msg 238 111 3;
#X obj 239 257 r \$0-c27;
#X obj 164 354 s \$0-cr27;
#X obj 98 145 tabread \$0-line3;
#X obj 204 144 tabread \$0-line4;
#X obj 309 144 tabread \$0-line5;
#X connect 0 0 7 0;
#X connect 1 0 0 0;
#X connect 2 0 0 0;
#X connect 3 0 20 0;
#X connect 4 0 3 1;
#X connect 5 0 3 0;
#X connect 6 0 10 0;
#X connect 7 0 4 0;
#X connect 7 1 8 0;
#X connect 7 2 9 0;
#X connect 8 0 3 1;
#X connect 9 0 3 1;
#X connect 10 0 2 0;
#X connect 10 1 11 0;
#X connect 10 2 12 0;
#X connect 10 3 13 0;
#X connect 10 4 17 0;
#X connect 10 5 18 0;
#X connect 10 6 14 0;
#X connect 10 7 15 0;
#X connect 10 8 16 0;
#X connect 10 9 1 0;
#X connect 11 0 21 0;
#X connect 12 0 21 0;
#X connect 13 0 21 0;
#X connect 14 0 23 0;
#X connect 15 0 23 0;
#X connect 16 0 23 0;
#X connect 17 0 22 0;
#X connect 18 0 22 0;
#X connect 19 0 8 1;
#X connect 21 0 0 1;
#X connect 22 0 0 1;
#X connect 23 0 0 1;
#X restore 254 -174 pd cell27;
#N canvas 284 68 450 411 cell28 0;
#X obj 179 225 accum;
#X msg 416 179 0;
#X msg 40 164 bang;
#X obj 164 326 f;
#X msg 179 287 1;
#X obj 88 278 r \$0-next;
#X obj 127 2 r \$0-gathering;
#X obj 179 256 sel 3 2;
#X obj 224 283 f;
#X msg 259 282 0;
#X obj 127 29 t b b b b b b b b b b;
#X msg 98 114 2;
#X msg 128 113 3;
#X msg 159 114 4;
#X msg 309 98 2;
#X msg 339 97 3;
#X msg 370 98 4;
#X msg 204 113 2;
#X msg 238 111 4;
#X obj 98 145 tabread \$0-line3;
#X obj 204 144 tabread \$0-line4;
#X obj 309 144 tabread \$0-line5;
#X obj 239 257 r \$0-c28;
#X obj 164 354 s \$0-cr28;
#X connect 0 0 7 0;
#X connect 1 0 0 0;
#X connect 2 0 0 0;
#X connect 3 0 23 0;
#X connect 4 0 3 1;
#X connect 5 0 3 0;
#X connect 6 0 10 0;
#X connect 7 0 4 0;
#X connect 7 1 8 0;
#X connect 7 2 9 0;
#X connect 8 0 3 1;
#X connect 9 0 3 1;
#X connect 10 0 2 0;
#X connect 10 1 11 0;
#X connect 10 2 12 0;
#X connect 10 3 13 0;
#X connect 10 4 17 0;
#X connect 10 5 18 0;
#X connect 10 6 14 0;
#X connect 10 7 15 0;
#X connect 10 8 16 0;
#X connect 10 9 1 0;
#X connect 11 0 19 0;
#X connect 12 0 19 0;
#X connect 13 0 19 0;
#X connect 14 0 21 0;
#X connect 15 0 21 0;
#X connect 16 0 21 0;
#X connect 17 0 20 0;
#X connect 18 0 20 0;
#X connect 19 0 0 1;
#X connect 20 0 0 1;
#X connect 21 0 0 1;
#X connect 22 0 8 1;
#X restore 254 -154 pd cell28;
#N canvas 284 68 450 411 cell29 0;
#X obj 179 225 accum;
#X msg 416 179 0;
#X msg 40 164 bang;
#X obj 164 326 f;
#X msg 179 287 1;
#X obj 88 278 r \$0-next;
#X obj 127 2 r \$0-gathering;
#X obj 179 256 sel 3 2;
#X obj 224 283 f;
#X msg 259 282 0;
#X obj 127 29 t b b b b b b b b b b;
#X msg 98 114 3;
#X msg 128 113 4;
#X msg 159 114 5;
#X msg 203 113 3;
#X msg 238 111 5;
#X msg 309 98 3;
#X msg 339 97 4;
#X msg 370 98 5;
#X obj 98 145 tabread \$0-line3;
#X obj 204 144 tabread \$0-line4;
#X obj 309 144 tabread \$0-line5;
#X obj 164 354 s \$0-cr29;
#X obj 239 257 r \$0-c29;
#X connect 0 0 7 0;
#X connect 1 0 0 0;
#X connect 2 0 0 0;
#X connect 3 0 22 0;
#X connect 4 0 3 1;
#X connect 5 0 3 0;
#X connect 6 0 10 0;
#X connect 7 0 4 0;
#X connect 7 1 8 0;
#X connect 7 2 9 0;
#X connect 8 0 3 1;
#X connect 9 0 3 1;
#X connect 10 0 2 0;
#X connect 10 1 11 0;
#X connect 10 2 12 0;
#X connect 10 3 13 0;
#X connect 10 4 14 0;
#X connect 10 5 15 0;
#X connect 10 6 16 0;
#X connect 10 7 17 0;
#X connect 10 8 18 0;
#X connect 10 9 1 0;
#X connect 11 0 19 0;
#X connect 12 0 19 0;
#X connect 13 0 19 0;
#X connect 14 0 20 0;
#X connect 15 0 20 0;
#X connect 16 0 21 0;
#X connect 17 0 21 0;
#X connect 18 0 21 0;
#X connect 19 0 0 1;
#X connect 20 0 0 1;
#X connect 21 0 0 1;
#X connect 23 0 8 1;
#X restore 254 -134 pd cell29;
#N canvas 284 68 450 411 cell30 0;
#X obj 179 225 accum;
#X msg 416 179 0;
#X msg 40 164 bang;
#X obj 164 326 f;
#X msg 179 287 1;
#X obj 88 278 r \$0-next;
#X obj 127 2 r \$0-gathering;
#X obj 179 256 sel 3 2;
#X obj 224 283 f;
#X msg 259 282 0;
#X obj 127 29 t b b b b b b b b b b;
#X msg 98 114 4;
#X msg 128 113 5;
#X msg 159 114 6;
#X msg 203 113 4;
#X msg 238 111 6;
#X msg 309 98 4;
#X msg 339 97 5;
#X msg 370 98 6;
#X obj 164 354 s \$0-cr30;
#X obj 239 257 r \$0-c30;
#X obj 98 145 tabread \$0-line3;
#X obj 204 144 tabread \$0-line4;
#X obj 309 144 tabread \$0-line5;
#X connect 0 0 7 0;
#X connect 1 0 0 0;
#X connect 2 0 0 0;
#X connect 3 0 19 0;
#X connect 4 0 3 1;
#X connect 5 0 3 0;
#X connect 6 0 10 0;
#X connect 7 0 4 0;
#X connect 7 1 8 0;
#X connect 7 2 9 0;
#X connect 8 0 3 1;
#X connect 9 0 3 1;
#X connect 10 0 2 0;
#X connect 10 1 11 0;
#X connect 10 2 12 0;
#X connect 10 3 13 0;
#X connect 10 4 14 0;
#X connect 10 5 15 0;
#X connect 10 6 16 0;
#X connect 10 7 17 0;
#X connect 10 8 18 0;
#X connect 10 9 1 0;
#X connect 11 0 21 0;
#X connect 12 0 21 0;
#X connect 13 0 21 0;
#X connect 14 0 22 0;
#X connect 15 0 22 0;
#X connect 16 0 23 0;
#X connect 17 0 23 0;
#X connect 18 0 23 0;
#X connect 20 0 8 1;
#X connect 21 0 0 1;
#X connect 22 0 0 1;
#X connect 23 0 0 1;
#X restore 254 -114 pd cell30;
#N canvas 284 68 450 411 cell31 0;
#X obj 179 225 accum;
#X msg 416 179 0;
#X msg 40 164 bang;
#X obj 164 326 f;
#X msg 179 287 1;
#X obj 88 278 r \$0-next;
#X obj 127 2 r \$0-gathering;
#X obj 179 256 sel 3 2;
#X obj 224 283 f;
#X msg 259 282 0;
#X obj 127 29 t b b b b b b b b b b;
#X msg 98 114 5;
#X msg 128 113 6;
#X msg 159 114 7;
#X msg 203 113 5;
#X msg 238 111 7;
#X msg 309 98 5;
#X msg 339 97 6;
#X msg 370 98 7;
#X obj 164 354 s \$0-cr31;
#X obj 239 257 r \$0-c31;
#X obj 98 145 tabread \$0-line3;
#X obj 204 144 tabread \$0-line4;
#X obj 309 144 tabread \$0-line5;
#X connect 0 0 7 0;
#X connect 1 0 0 0;
#X connect 2 0 0 0;
#X connect 3 0 19 0;
#X connect 4 0 3 1;
#X connect 5 0 3 0;
#X connect 6 0 10 0;
#X connect 7 0 4 0;
#X connect 7 1 8 0;
#X connect 7 2 9 0;
#X connect 8 0 3 1;
#X connect 9 0 3 1;
#X connect 10 0 2 0;
#X connect 10 1 11 0;
#X connect 10 2 12 0;
#X connect 10 3 13 0;
#X connect 10 4 14 0;
#X connect 10 5 15 0;
#X connect 10 6 16 0;
#X connect 10 7 17 0;
#X connect 10 8 18 0;
#X connect 10 9 1 0;
#X connect 11 0 21 0;
#X connect 12 0 21 0;
#X connect 13 0 21 0;
#X connect 14 0 22 0;
#X connect 15 0 22 0;
#X connect 16 0 23 0;
#X connect 17 0 23 0;
#X connect 18 0 23 0;
#X connect 20 0 8 1;
#X connect 21 0 0 1;
#X connect 22 0 0 1;
#X connect 23 0 0 1;
#X restore 254 -94 pd cell31;
#N canvas 284 68 450 411 cell32 0;
#X obj 179 225 accum;
#X msg 367 185 0;
#X msg 46 164 bang;
#X obj 164 326 f;
#X msg 179 287 1;
#X obj 88 278 r \$0-next;
#X obj 127 2 r \$0-gathering;
#X obj 179 256 sel 3 2;
#X obj 224 283 f;
#X msg 259 282 0;
#X obj 126 26 t b b b b b b b;
#X msg 98 114 6;
#X msg 128 113 7;
#X msg 301 109 6;
#X msg 331 108 7;
#X msg 204 113 6;
#X obj 164 354 s \$0-cr32;
#X obj 239 257 r \$0-c32;
#X obj 98 145 tabread \$0-line3;
#X obj 204 144 tabread \$0-line4;
#X obj 309 144 tabread \$0-line5;
#X connect 0 0 7 0;
#X connect 1 0 0 0;
#X connect 2 0 0 0;
#X connect 3 0 16 0;
#X connect 4 0 3 1;
#X connect 5 0 3 0;
#X connect 6 0 10 0;
#X connect 7 0 4 0;
#X connect 7 1 8 0;
#X connect 7 2 9 0;
#X connect 8 0 3 1;
#X connect 9 0 3 1;
#X connect 10 0 2 0;
#X connect 10 1 11 0;
#X connect 10 2 12 0;
#X connect 10 3 15 0;
#X connect 10 4 13 0;
#X connect 10 5 14 0;
#X connect 10 6 1 0;
#X connect 11 0 18 0;
#X connect 12 0 18 0;
#X connect 13 0 20 0;
#X connect 14 0 20 0;
#X connect 15 0 19 0;
#X connect 17 0 8 1;
#X connect 18 0 0 1;
#X connect 19 0 0 1;
#X connect 20 0 0 1;
#X restore 255 -73 pd cell32;
#N canvas 284 68 450 411 cell33 0;
#X obj 179 225 accum;
#X msg 98 114 1;
#X msg 204 113 1;
#X msg 367 185 0;
#X msg 46 164 bang;
#X obj 164 326 f;
#X msg 179 287 1;
#X obj 88 278 r \$0-next;
#X obj 127 2 r \$0-gathering;
#X obj 179 256 sel 3 2;
#X obj 224 283 f;
#X msg 259 282 0;
#X msg 128 113 0;
#X msg 301 109 1;
#X msg 331 108 0;
#X obj 126 26 t b b b b b b b;
#X obj 164 354 s \$0-cr33;
#X obj 239 257 r \$0-c33;
#X obj 98 145 tabread \$0-line4;
#X obj 204 144 tabread \$0-line5;
#X obj 309 144 tabread \$0-line6;
#X connect 0 0 9 0;
#X connect 1 0 18 0;
#X connect 2 0 19 0;
#X connect 3 0 0 0;
#X connect 4 0 0 0;
#X connect 5 0 16 0;
#X connect 6 0 5 1;
#X connect 7 0 5 0;
#X connect 8 0 15 0;
#X connect 9 0 6 0;
#X connect 9 1 10 0;
#X connect 9 2 11 0;
#X connect 10 0 5 1;
#X connect 11 0 5 1;
#X connect 12 0 18 0;
#X connect 13 0 20 0;
#X connect 14 0 20 0;
#X connect 15 0 4 0;
#X connect 15 1 1 0;
#X connect 15 2 12 0;
#X connect 15 3 2 0;
#X connect 15 4 13 0;
#X connect 15 5 14 0;
#X connect 15 6 3 0;
#X connect 17 0 10 1;
#X connect 18 0 0 1;
#X connect 19 0 0 1;
#X connect 20 0 0 1;
#X restore 315 -220 pd cell33;
#N canvas 284 68 450 411 cell34 0;
#X obj 179 225 accum;
#X msg 416 179 0;
#X msg 40 164 bang;
#X obj 164 326 f;
#X msg 179 287 1;
#X obj 88 278 r \$0-next;
#X obj 127 2 r \$0-gathering;
#X obj 179 256 sel 3 2;
#X obj 224 283 f;
#X msg 259 282 0;
#X msg 98 114 0;
#X msg 128 113 1;
#X msg 159 114 2;
#X msg 309 98 0;
#X msg 339 97 1;
#X msg 370 98 2;
#X msg 204 113 0;
#X msg 238 111 2;
#X obj 127 29 t b b b b b b b b b b;
#X obj 239 257 r \$0-c34;
#X obj 164 354 s \$0-cr34;
#X obj 98 145 tabread \$0-line4;
#X obj 204 144 tabread \$0-line5;
#X obj 309 144 tabread \$0-line6;
#X connect 0 0 7 0;
#X connect 1 0 0 0;
#X connect 2 0 0 0;
#X connect 3 0 20 0;
#X connect 4 0 3 1;
#X connect 5 0 3 0;
#X connect 6 0 18 0;
#X connect 7 0 4 0;
#X connect 7 1 8 0;
#X connect 7 2 9 0;
#X connect 8 0 3 1;
#X connect 9 0 3 1;
#X connect 10 0 21 0;
#X connect 11 0 21 0;
#X connect 12 0 21 0;
#X connect 13 0 23 0;
#X connect 14 0 23 0;
#X connect 15 0 23 0;
#X connect 16 0 22 0;
#X connect 17 0 22 0;
#X connect 18 0 2 0;
#X connect 18 1 10 0;
#X connect 18 2 11 0;
#X connect 18 3 12 0;
#X connect 18 4 16 0;
#X connect 18 5 17 0;
#X connect 18 6 13 0;
#X connect 18 7 14 0;
#X connect 18 8 15 0;
#X connect 18 9 1 0;
#X connect 19 0 8 1;
#X connect 21 0 0 1;
#X connect 22 0 0 1;
#X connect 23 0 0 1;
#X restore 315 -197 pd cell34;
#N canvas 284 68 450 411 cell35 0;
#X obj 179 225 accum;
#X msg 416 179 0;
#X msg 40 164 bang;
#X obj 164 326 f;
#X msg 179 287 1;
#X obj 88 278 r \$0-next;
#X obj 127 2 r \$0-gathering;
#X obj 179 256 sel 3 2;
#X obj 224 283 f;
#X msg 259 282 0;
#X obj 127 29 t b b b b b b b b b b;
#X msg 98 114 1;
#X msg 128 113 2;
#X msg 159 114 3;
#X msg 309 98 1;
#X msg 339 97 2;
#X msg 370 98 3;
#X msg 204 113 1;
#X msg 238 111 3;
#X obj 98 145 tabread \$0-line4;
#X obj 204 144 tabread \$0-line5;
#X obj 309 144 tabread \$0-line6;
#X obj 239 257 r \$0-c35;
#X obj 164 354 s \$0-cr35;
#X connect 0 0 7 0;
#X connect 1 0 0 0;
#X connect 2 0 0 0;
#X connect 3 0 23 0;
#X connect 4 0 3 1;
#X connect 5 0 3 0;
#X connect 6 0 10 0;
#X connect 7 0 4 0;
#X connect 7 1 8 0;
#X connect 7 2 9 0;
#X connect 8 0 3 1;
#X connect 9 0 3 1;
#X connect 10 0 2 0;
#X connect 10 1 11 0;
#X connect 10 2 12 0;
#X connect 10 3 13 0;
#X connect 10 4 17 0;
#X connect 10 5 18 0;
#X connect 10 6 14 0;
#X connect 10 7 15 0;
#X connect 10 8 16 0;
#X connect 10 9 1 0;
#X connect 11 0 19 0;
#X connect 12 0 19 0;
#X connect 13 0 19 0;
#X connect 14 0 21 0;
#X connect 15 0 21 0;
#X connect 16 0 21 0;
#X connect 17 0 20 0;
#X connect 18 0 20 0;
#X connect 19 0 0 1;
#X connect 20 0 0 1;
#X connect 21 0 0 1;
#X connect 22 0 8 1;
#X restore 316 -175 pd cell35;
#N canvas 284 68 450 411 cell36 0;
#X obj 179 225 accum;
#X msg 416 179 0;
#X msg 40 164 bang;
#X obj 164 326 f;
#X msg 179 287 1;
#X obj 88 278 r \$0-next;
#X obj 127 2 r \$0-gathering;
#X obj 179 256 sel 3 2;
#X obj 224 283 f;
#X msg 259 282 0;
#X obj 127 29 t b b b b b b b b b b;
#X msg 98 114 2;
#X msg 128 113 3;
#X msg 159 114 4;
#X msg 309 98 2;
#X msg 339 97 3;
#X msg 370 98 4;
#X msg 204 113 2;
#X msg 238 111 4;
#X obj 98 145 tabread \$0-line4;
#X obj 204 144 tabread \$0-line5;
#X obj 309 144 tabread \$0-line6;
#X obj 239 257 r \$0-c36;
#X obj 164 354 s \$0-cr36;
#X connect 0 0 7 0;
#X connect 1 0 0 0;
#X connect 2 0 0 0;
#X connect 3 0 23 0;
#X connect 4 0 3 1;
#X connect 5 0 3 0;
#X connect 6 0 10 0;
#X connect 7 0 4 0;
#X connect 7 1 8 0;
#X connect 7 2 9 0;
#X connect 8 0 3 1;
#X connect 9 0 3 1;
#X connect 10 0 2 0;
#X connect 10 1 11 0;
#X connect 10 2 12 0;
#X connect 10 3 13 0;
#X connect 10 4 17 0;
#X connect 10 5 18 0;
#X connect 10 6 14 0;
#X connect 10 7 15 0;
#X connect 10 8 16 0;
#X connect 10 9 1 0;
#X connect 11 0 19 0;
#X connect 12 0 19 0;
#X connect 13 0 19 0;
#X connect 14 0 21 0;
#X connect 15 0 21 0;
#X connect 16 0 21 0;
#X connect 17 0 20 0;
#X connect 18 0 20 0;
#X connect 19 0 0 1;
#X connect 20 0 0 1;
#X connect 21 0 0 1;
#X connect 22 0 8 1;
#X restore 316 -155 pd cell36;
#N canvas 284 68 450 411 cell37 0;
#X obj 179 225 accum;
#X msg 416 179 0;
#X msg 40 164 bang;
#X obj 164 326 f;
#X msg 179 287 1;
#X obj 88 278 r \$0-next;
#X obj 127 2 r \$0-gathering;
#X obj 179 256 sel 3 2;
#X obj 224 283 f;
#X msg 259 282 0;
#X obj 127 29 t b b b b b b b b b b;
#X msg 98 114 3;
#X msg 128 113 4;
#X msg 159 114 5;
#X msg 203 113 3;
#X msg 238 111 5;
#X msg 309 98 3;
#X msg 339 97 4;
#X msg 370 98 5;
#X obj 239 257 r \$0-c37;
#X obj 164 354 s \$0-cr37;
#X obj 98 145 tabread \$0-line4;
#X obj 204 144 tabread \$0-line5;
#X obj 309 144 tabread \$0-line6;
#X connect 0 0 7 0;
#X connect 1 0 0 0;
#X connect 2 0 0 0;
#X connect 3 0 20 0;
#X connect 4 0 3 1;
#X connect 5 0 3 0;
#X connect 6 0 10 0;
#X connect 7 0 4 0;
#X connect 7 1 8 0;
#X connect 7 2 9 0;
#X connect 8 0 3 1;
#X connect 9 0 3 1;
#X connect 10 0 2 0;
#X connect 10 1 11 0;
#X connect 10 2 12 0;
#X connect 10 3 13 0;
#X connect 10 4 14 0;
#X connect 10 5 15 0;
#X connect 10 6 16 0;
#X connect 10 7 17 0;
#X connect 10 8 18 0;
#X connect 10 9 1 0;
#X connect 11 0 21 0;
#X connect 12 0 21 0;
#X connect 13 0 21 0;
#X connect 14 0 22 0;
#X connect 15 0 22 0;
#X connect 16 0 23 0;
#X connect 17 0 23 0;
#X connect 18 0 23 0;
#X connect 19 0 8 1;
#X connect 21 0 0 1;
#X connect 22 0 0 1;
#X connect 23 0 0 1;
#X restore 316 -135 pd cell37;
#N canvas 284 68 450 411 cell38 0;
#X obj 179 225 accum;
#X msg 416 179 0;
#X msg 40 164 bang;
#X obj 164 326 f;
#X msg 179 287 1;
#X obj 88 278 r \$0-next;
#X obj 127 2 r \$0-gathering;
#X obj 179 256 sel 3 2;
#X obj 224 283 f;
#X msg 259 282 0;
#X obj 127 29 t b b b b b b b b b b;
#X msg 98 114 4;
#X msg 128 113 5;
#X msg 159 114 6;
#X msg 203 113 4;
#X msg 238 111 6;
#X msg 309 98 4;
#X msg 339 97 5;
#X msg 370 98 6;
#X obj 239 257 r \$0-c38;
#X obj 164 354 s \$0-cr38;
#X obj 98 145 tabread \$0-line4;
#X obj 204 144 tabread \$0-line5;
#X obj 309 144 tabread \$0-line6;
#X connect 0 0 7 0;
#X connect 1 0 0 0;
#X connect 2 0 0 0;
#X connect 3 0 20 0;
#X connect 4 0 3 1;
#X connect 5 0 3 0;
#X connect 6 0 10 0;
#X connect 7 0 4 0;
#X connect 7 1 8 0;
#X connect 7 2 9 0;
#X connect 8 0 3 1;
#X connect 9 0 3 1;
#X connect 10 0 2 0;
#X connect 10 1 11 0;
#X connect 10 2 12 0;
#X connect 10 3 13 0;
#X connect 10 4 14 0;
#X connect 10 5 15 0;
#X connect 10 6 16 0;
#X connect 10 7 17 0;
#X connect 10 8 18 0;
#X connect 10 9 1 0;
#X connect 11 0 21 0;
#X connect 12 0 21 0;
#X connect 13 0 21 0;
#X connect 14 0 22 0;
#X connect 15 0 22 0;
#X connect 16 0 23 0;
#X connect 17 0 23 0;
#X connect 18 0 23 0;
#X connect 19 0 8 1;
#X connect 21 0 0 1;
#X connect 22 0 0 1;
#X connect 23 0 0 1;
#X restore 316 -115 pd cell38;
#N canvas 284 68 450 411 cell39 0;
#X obj 179 225 accum;
#X msg 416 179 0;
#X msg 40 164 bang;
#X obj 164 326 f;
#X msg 179 287 1;
#X obj 88 278 r \$0-next;
#X obj 127 2 r \$0-gathering;
#X obj 179 256 sel 3 2;
#X obj 224 283 f;
#X msg 259 282 0;
#X obj 127 29 t b b b b b b b b b b;
#X msg 98 114 5;
#X msg 128 113 6;
#X msg 159 114 7;
#X msg 203 113 5;
#X msg 238 111 7;
#X msg 309 98 5;
#X msg 339 97 6;
#X msg 370 98 7;
#X obj 98 145 tabread \$0-line4;
#X obj 204 144 tabread \$0-line5;
#X obj 309 144 tabread \$0-line6;
#X obj 239 257 r \$0-c39;
#X obj 164 354 s \$0-cr39;
#X connect 0 0 7 0;
#X connect 1 0 0 0;
#X connect 2 0 0 0;
#X connect 3 0 23 0;
#X connect 4 0 3 1;
#X connect 5 0 3 0;
#X connect 6 0 10 0;
#X connect 7 0 4 0;
#X connect 7 1 8 0;
#X connect 7 2 9 0;
#X connect 8 0 3 1;
#X connect 9 0 3 1;
#X connect 10 0 2 0;
#X connect 10 1 11 0;
#X connect 10 2 12 0;
#X connect 10 3 13 0;
#X connect 10 4 14 0;
#X connect 10 5 15 0;
#X connect 10 6 16 0;
#X connect 10 7 17 0;
#X connect 10 8 18 0;
#X connect 10 9 1 0;
#X connect 11 0 19 0;
#X connect 12 0 19 0;
#X connect 13 0 19 0;
#X connect 14 0 20 0;
#X connect 15 0 20 0;
#X connect 16 0 21 0;
#X connect 17 0 21 0;
#X connect 18 0 21 0;
#X connect 19 0 0 1;
#X connect 20 0 0 1;
#X connect 21 0 0 1;
#X connect 22 0 8 1;
#X restore 316 -95 pd cell39;
#N canvas 284 68 450 411 cell40 0;
#X obj 179 225 accum;
#X msg 367 185 0;
#X msg 46 164 bang;
#X obj 164 326 f;
#X msg 179 287 1;
#X obj 88 278 r \$0-next;
#X obj 127 2 r \$0-gathering;
#X obj 179 256 sel 3 2;
#X obj 224 283 f;
#X msg 259 282 0;
#X obj 126 26 t b b b b b b b;
#X msg 98 114 6;
#X msg 128 113 7;
#X msg 301 109 6;
#X msg 331 108 7;
#X msg 204 113 6;
#X obj 239 257 r \$0-c40;
#X obj 164 354 s \$0-cr40;
#X obj 98 145 tabread \$0-line4;
#X obj 204 144 tabread \$0-line5;
#X obj 309 144 tabread \$0-line6;
#X connect 0 0 7 0;
#X connect 1 0 0 0;
#X connect 2 0 0 0;
#X connect 3 0 17 0;
#X connect 4 0 3 1;
#X connect 5 0 3 0;
#X connect 6 0 10 0;
#X connect 7 0 4 0;
#X connect 7 1 8 0;
#X connect 7 2 9 0;
#X connect 8 0 3 1;
#X connect 9 0 3 1;
#X connect 10 0 2 0;
#X connect 10 1 11 0;
#X connect 10 2 12 0;
#X connect 10 3 15 0;
#X connect 10 4 13 0;
#X connect 10 5 14 0;
#X connect 10 6 1 0;
#X connect 11 0 18 0;
#X connect 12 0 18 0;
#X connect 13 0 20 0;
#X connect 14 0 20 0;
#X connect 15 0 19 0;
#X connect 16 0 8 1;
#X connect 18 0 0 1;
#X connect 19 0 0 1;
#X connect 20 0 0 1;
#X restore 317 -74 pd cell40;
#N canvas 284 68 450 411 cell41 0;
#X obj 179 225 accum;
#X msg 98 114 1;
#X msg 204 113 1;
#X msg 367 185 0;
#X msg 46 164 bang;
#X obj 164 326 f;
#X msg 179 287 1;
#X obj 88 278 r \$0-next;
#X obj 127 2 r \$0-gathering;
#X obj 179 256 sel 3 2;
#X obj 224 283 f;
#X msg 259 282 0;
#X msg 128 113 0;
#X msg 301 109 1;
#X msg 331 108 0;
#X obj 126 26 t b b b b b b b;
#X obj 98 145 tabread \$0-line5;
#X obj 204 144 tabread \$0-line6;
#X obj 309 144 tabread \$0-line7;
#X obj 164 354 s \$0-cr41;
#X obj 239 257 r \$0-c41;
#X connect 0 0 9 0;
#X connect 1 0 16 0;
#X connect 2 0 17 0;
#X connect 3 0 0 0;
#X connect 4 0 0 0;
#X connect 5 0 19 0;
#X connect 6 0 5 1;
#X connect 7 0 5 0;
#X connect 8 0 15 0;
#X connect 9 0 6 0;
#X connect 9 1 10 0;
#X connect 9 2 11 0;
#X connect 10 0 5 1;
#X connect 11 0 5 1;
#X connect 12 0 16 0;
#X connect 13 0 18 0;
#X connect 14 0 18 0;
#X connect 15 0 4 0;
#X connect 15 1 1 0;
#X connect 15 2 12 0;
#X connect 15 3 2 0;
#X connect 15 4 13 0;
#X connect 15 5 14 0;
#X connect 15 6 3 0;
#X connect 16 0 0 1;
#X connect 17 0 0 1;
#X connect 18 0 0 1;
#X connect 20 0 10 1;
#X restore 377 -219 pd cell41;
#N canvas 284 68 450 411 cell42 0;
#X obj 179 225 accum;
#X msg 416 179 0;
#X msg 40 164 bang;
#X obj 164 326 f;
#X msg 179 287 1;
#X obj 88 278 r \$0-next;
#X obj 127 2 r \$0-gathering;
#X obj 179 256 sel 3 2;
#X obj 224 283 f;
#X msg 259 282 0;
#X msg 98 114 0;
#X msg 128 113 1;
#X msg 159 114 2;
#X msg 309 98 0;
#X msg 339 97 1;
#X msg 370 98 2;
#X msg 204 113 0;
#X msg 238 111 2;
#X obj 127 29 t b b b b b b b b b b;
#X obj 164 354 s \$0-cr42;
#X obj 239 257 r \$0-c42;
#X obj 98 145 tabread \$0-line5;
#X obj 204 144 tabread \$0-line6;
#X obj 309 144 tabread \$0-line7;
#X connect 0 0 7 0;
#X connect 1 0 0 0;
#X connect 2 0 0 0;
#X connect 3 0 19 0;
#X connect 4 0 3 1;
#X connect 5 0 3 0;
#X connect 6 0 18 0;
#X connect 7 0 4 0;
#X connect 7 1 8 0;
#X connect 7 2 9 0;
#X connect 8 0 3 1;
#X connect 9 0 3 1;
#X connect 10 0 21 0;
#X connect 11 0 21 0;
#X connect 12 0 21 0;
#X connect 13 0 23 0;
#X connect 14 0 23 0;
#X connect 15 0 23 0;
#X connect 16 0 22 0;
#X connect 17 0 22 0;
#X connect 18 0 2 0;
#X connect 18 1 10 0;
#X connect 18 2 11 0;
#X connect 18 3 12 0;
#X connect 18 4 16 0;
#X connect 18 5 17 0;
#X connect 18 6 13 0;
#X connect 18 7 14 0;
#X connect 18 8 15 0;
#X connect 18 9 1 0;
#X connect 20 0 8 1;
#X connect 21 0 0 1;
#X connect 22 0 0 1;
#X connect 23 0 0 1;
#X restore 377 -196 pd cell42;
#N canvas 284 68 450 411 cell43 0;
#X obj 179 225 accum;
#X msg 416 179 0;
#X msg 40 164 bang;
#X obj 164 326 f;
#X msg 179 287 1;
#X obj 88 278 r \$0-next;
#X obj 127 2 r \$0-gathering;
#X obj 179 256 sel 3 2;
#X obj 224 283 f;
#X msg 259 282 0;
#X obj 127 29 t b b b b b b b b b b;
#X msg 98 114 1;
#X msg 128 113 2;
#X msg 159 114 3;
#X msg 309 98 1;
#X msg 339 97 2;
#X msg 370 98 3;
#X msg 204 113 1;
#X msg 238 111 3;
#X obj 98 145 tabread \$0-line5;
#X obj 204 144 tabread \$0-line6;
#X obj 309 144 tabread \$0-line7;
#X obj 239 257 r \$0-c43;
#X obj 164 354 s \$0-cr43;
#X connect 0 0 7 0;
#X connect 1 0 0 0;
#X connect 2 0 0 0;
#X connect 3 0 23 0;
#X connect 4 0 3 1;
#X connect 5 0 3 0;
#X connect 6 0 10 0;
#X connect 7 0 4 0;
#X connect 7 1 8 0;
#X connect 7 2 9 0;
#X connect 8 0 3 1;
#X connect 9 0 3 1;
#X connect 10 0 2 0;
#X connect 10 1 11 0;
#X connect 10 2 12 0;
#X connect 10 3 13 0;
#X connect 10 4 17 0;
#X connect 10 5 18 0;
#X connect 10 6 14 0;
#X connect 10 7 15 0;
#X connect 10 8 16 0;
#X connect 10 9 1 0;
#X connect 11 0 19 0;
#X connect 12 0 19 0;
#X connect 13 0 19 0;
#X connect 14 0 21 0;
#X connect 15 0 21 0;
#X connect 16 0 21 0;
#X connect 17 0 20 0;
#X connect 18 0 20 0;
#X connect 19 0 0 1;
#X connect 20 0 0 1;
#X connect 21 0 0 1;
#X connect 22 0 8 1;
#X restore 378 -174 pd cell43;
#N canvas 284 68 450 411 cell44 0;
#X obj 179 225 accum;
#X msg 416 179 0;
#X msg 40 164 bang;
#X obj 164 326 f;
#X msg 179 287 1;
#X obj 88 278 r \$0-next;
#X obj 127 2 r \$0-gathering;
#X obj 179 256 sel 3 2;
#X obj 224 283 f;
#X msg 259 282 0;
#X obj 127 29 t b b b b b b b b b b;
#X msg 98 114 2;
#X msg 128 113 3;
#X msg 159 114 4;
#X msg 309 98 2;
#X msg 339 97 3;
#X msg 370 98 4;
#X msg 204 113 2;
#X msg 238 111 4;
#X obj 164 354 s \$0-cr44;
#X obj 239 257 r \$0-c44;
#X obj 98 145 tabread \$0-line5;
#X obj 204 144 tabread \$0-line6;
#X obj 309 144 tabread \$0-line7;
#X connect 0 0 7 0;
#X connect 1 0 0 0;
#X connect 2 0 0 0;
#X connect 3 0 19 0;
#X connect 4 0 3 1;
#X connect 5 0 3 0;
#X connect 6 0 10 0;
#X connect 7 0 4 0;
#X connect 7 1 8 0;
#X connect 7 2 9 0;
#X connect 8 0 3 1;
#X connect 9 0 3 1;
#X connect 10 0 2 0;
#X connect 10 1 11 0;
#X connect 10 2 12 0;
#X connect 10 3 13 0;
#X connect 10 4 17 0;
#X connect 10 5 18 0;
#X connect 10 6 14 0;
#X connect 10 7 15 0;
#X connect 10 8 16 0;
#X connect 10 9 1 0;
#X connect 11 0 21 0;
#X connect 12 0 21 0;
#X connect 13 0 21 0;
#X connect 14 0 23 0;
#X connect 15 0 23 0;
#X connect 16 0 23 0;
#X connect 17 0 22 0;
#X connect 18 0 22 0;
#X connect 20 0 8 1;
#X connect 21 0 0 1;
#X connect 22 0 0 1;
#X connect 23 0 0 1;
#X restore 378 -154 pd cell44;
#N canvas 284 68 450 411 cell45 0;
#X obj 179 225 accum;
#X msg 416 179 0;
#X msg 40 164 bang;
#X obj 164 326 f;
#X msg 179 287 1;
#X obj 88 278 r \$0-next;
#X obj 127 2 r \$0-gathering;
#X obj 179 256 sel 3 2;
#X obj 224 283 f;
#X msg 259 282 0;
#X obj 127 29 t b b b b b b b b b b;
#X msg 98 114 3;
#X msg 128 113 4;
#X msg 159 114 5;
#X msg 203 113 3;
#X msg 238 111 5;
#X msg 309 98 3;
#X msg 339 97 4;
#X msg 370 98 5;
#X obj 239 257 r \$0-c45;
#X obj 164 354 s \$0-cr45;
#X obj 98 145 tabread \$0-line5;
#X obj 204 144 tabread \$0-line6;
#X obj 309 144 tabread \$0-line7;
#X connect 0 0 7 0;
#X connect 1 0 0 0;
#X connect 2 0 0 0;
#X connect 3 0 20 0;
#X connect 4 0 3 1;
#X connect 5 0 3 0;
#X connect 6 0 10 0;
#X connect 7 0 4 0;
#X connect 7 1 8 0;
#X connect 7 2 9 0;
#X connect 8 0 3 1;
#X connect 9 0 3 1;
#X connect 10 0 2 0;
#X connect 10 1 11 0;
#X connect 10 2 12 0;
#X connect 10 3 13 0;
#X connect 10 4 14 0;
#X connect 10 5 15 0;
#X connect 10 6 16 0;
#X connect 10 7 17 0;
#X connect 10 8 18 0;
#X connect 10 9 1 0;
#X connect 11 0 21 0;
#X connect 12 0 21 0;
#X connect 13 0 21 0;
#X connect 14 0 22 0;
#X connect 15 0 22 0;
#X connect 16 0 23 0;
#X connect 17 0 23 0;
#X connect 18 0 23 0;
#X connect 19 0 8 1;
#X connect 21 0 0 1;
#X connect 22 0 0 1;
#X connect 23 0 0 1;
#X restore 378 -134 pd cell45;
#N canvas 284 68 450 411 cell46 0;
#X obj 179 225 accum;
#X msg 416 179 0;
#X msg 40 164 bang;
#X obj 164 326 f;
#X msg 179 287 1;
#X obj 88 278 r \$0-next;
#X obj 127 2 r \$0-gathering;
#X obj 179 256 sel 3 2;
#X obj 224 283 f;
#X msg 259 282 0;
#X obj 127 29 t b b b b b b b b b b;
#X msg 98 114 4;
#X msg 128 113 5;
#X msg 159 114 6;
#X msg 203 113 4;
#X msg 238 111 6;
#X msg 309 98 4;
#X msg 339 97 5;
#X msg 370 98 6;
#X obj 239 257 r \$0-c46;
#X obj 164 354 s \$0-cr46;
#X obj 98 145 tabread \$0-line5;
#X obj 204 144 tabread \$0-line6;
#X obj 309 144 tabread \$0-line7;
#X connect 0 0 7 0;
#X connect 1 0 0 0;
#X connect 2 0 0 0;
#X connect 3 0 20 0;
#X connect 4 0 3 1;
#X connect 5 0 3 0;
#X connect 6 0 10 0;
#X connect 7 0 4 0;
#X connect 7 1 8 0;
#X connect 7 2 9 0;
#X connect 8 0 3 1;
#X connect 9 0 3 1;
#X connect 10 0 2 0;
#X connect 10 1 11 0;
#X connect 10 2 12 0;
#X connect 10 3 13 0;
#X connect 10 4 14 0;
#X connect 10 5 15 0;
#X connect 10 6 16 0;
#X connect 10 7 17 0;
#X connect 10 8 18 0;
#X connect 10 9 1 0;
#X connect 11 0 21 0;
#X connect 12 0 21 0;
#X connect 13 0 21 0;
#X connect 14 0 22 0;
#X connect 15 0 22 0;
#X connect 16 0 23 0;
#X connect 17 0 23 0;
#X connect 18 0 23 0;
#X connect 19 0 8 1;
#X connect 21 0 0 1;
#X connect 22 0 0 1;
#X connect 23 0 0 1;
#X restore 378 -114 pd cell46;
#N canvas 284 68 450 411 cell47 0;
#X obj 179 225 accum;
#X msg 416 179 0;
#X msg 40 164 bang;
#X obj 164 326 f;
#X msg 179 287 1;
#X obj 88 278 r \$0-next;
#X obj 127 2 r \$0-gathering;
#X obj 179 256 sel 3 2;
#X obj 224 283 f;
#X msg 259 282 0;
#X obj 127 29 t b b b b b b b b b b;
#X msg 98 114 5;
#X msg 128 113 6;
#X msg 159 114 7;
#X msg 203 113 5;
#X msg 238 111 7;
#X msg 309 98 5;
#X msg 339 97 6;
#X msg 370 98 7;
#X obj 98 145 tabread \$0-line5;
#X obj 204 144 tabread \$0-line6;
#X obj 309 144 tabread \$0-line7;
#X obj 239 257 r \$0-c47;
#X obj 164 354 s \$0-cr47;
#X connect 0 0 7 0;
#X connect 1 0 0 0;
#X connect 2 0 0 0;
#X connect 3 0 23 0;
#X connect 4 0 3 1;
#X connect 5 0 3 0;
#X connect 6 0 10 0;
#X connect 7 0 4 0;
#X connect 7 1 8 0;
#X connect 7 2 9 0;
#X connect 8 0 3 1;
#X connect 9 0 3 1;
#X connect 10 0 2 0;
#X connect 10 1 11 0;
#X connect 10 2 12 0;
#X connect 10 3 13 0;
#X connect 10 4 14 0;
#X connect 10 5 15 0;
#X connect 10 6 16 0;
#X connect 10 7 17 0;
#X connect 10 8 18 0;
#X connect 10 9 1 0;
#X connect 11 0 19 0;
#X connect 12 0 19 0;
#X connect 13 0 19 0;
#X connect 14 0 20 0;
#X connect 15 0 20 0;
#X connect 16 0 21 0;
#X connect 17 0 21 0;
#X connect 18 0 21 0;
#X connect 19 0 0 1;
#X connect 20 0 0 1;
#X connect 21 0 0 1;
#X connect 22 0 8 1;
#X restore 378 -94 pd cell47;
#N canvas 284 68 450 411 cell48 0;
#X obj 179 225 accum;
#X msg 367 185 0;
#X msg 46 164 bang;
#X obj 164 326 f;
#X msg 179 287 1;
#X obj 88 278 r \$0-next;
#X obj 127 2 r \$0-gathering;
#X obj 179 256 sel 3 2;
#X obj 224 283 f;
#X msg 259 282 0;
#X obj 126 26 t b b b b b b b;
#X msg 98 114 6;
#X msg 128 113 7;
#X msg 301 109 6;
#X msg 331 108 7;
#X msg 204 113 6;
#X obj 239 257 r \$0-c48;
#X obj 164 354 s \$0-cr48;
#X obj 98 145 tabread \$0-line5;
#X obj 204 144 tabread \$0-line6;
#X obj 309 144 tabread \$0-line7;
#X connect 0 0 7 0;
#X connect 1 0 0 0;
#X connect 2 0 0 0;
#X connect 3 0 17 0;
#X connect 4 0 3 1;
#X connect 5 0 3 0;
#X connect 6 0 10 0;
#X connect 7 0 4 0;
#X connect 7 1 8 0;
#X connect 7 2 9 0;
#X connect 8 0 3 1;
#X connect 9 0 3 1;
#X connect 10 0 2 0;
#X connect 10 1 11 0;
#X connect 10 2 12 0;
#X connect 10 3 15 0;
#X connect 10 4 13 0;
#X connect 10 5 14 0;
#X connect 10 6 1 0;
#X connect 11 0 18 0;
#X connect 12 0 18 0;
#X connect 13 0 20 0;
#X connect 14 0 20 0;
#X connect 15 0 19 0;
#X connect 16 0 8 1;
#X connect 18 0 0 1;
#X connect 19 0 0 1;
#X connect 20 0 0 1;
#X restore 379 -73 pd cell48;
#N canvas 284 68 450 411 cell49 0;
#X obj 179 225 accum;
#X msg 98 114 1;
#X msg 204 113 1;
#X msg 367 185 0;
#X msg 46 164 bang;
#X obj 164 326 f;
#X msg 179 287 1;
#X obj 88 278 r \$0-next;
#X obj 127 2 r \$0-gathering;
#X obj 179 256 sel 3 2;
#X obj 224 283 f;
#X msg 259 282 0;
#X msg 128 113 0;
#X msg 301 109 1;
#X msg 331 108 0;
#X obj 126 26 t b b b b b b b;
#X obj 164 354 s \$0-cr49;
#X obj 239 257 r \$0-c49;
#X obj 98 145 tabread \$0-line6;
#X obj 204 144 tabread \$0-line7;
#X obj 309 144 tabread \$0-line8;
#X connect 0 0 9 0;
#X connect 1 0 18 0;
#X connect 2 0 19 0;
#X connect 3 0 0 0;
#X connect 4 0 0 0;
#X connect 5 0 16 0;
#X connect 6 0 5 1;
#X connect 7 0 5 0;
#X connect 8 0 15 0;
#X connect 9 0 6 0;
#X connect 9 1 10 0;
#X connect 9 2 11 0;
#X connect 10 0 5 1;
#X connect 11 0 5 1;
#X connect 12 0 18 0;
#X connect 13 0 20 0;
#X connect 14 0 20 0;
#X connect 15 0 4 0;
#X connect 15 1 1 0;
#X connect 15 2 12 0;
#X connect 15 3 2 0;
#X connect 15 4 13 0;
#X connect 15 5 14 0;
#X connect 15 6 3 0;
#X connect 17 0 10 1;
#X connect 18 0 0 1;
#X connect 19 0 0 1;
#X connect 20 0 0 1;
#X restore 440 -218 pd cell49;
#N canvas 284 68 450 411 cell50 0;
#X obj 179 225 accum;
#X msg 416 179 0;
#X msg 40 164 bang;
#X obj 164 326 f;
#X msg 179 287 1;
#X obj 88 278 r \$0-next;
#X obj 127 2 r \$0-gathering;
#X obj 179 256 sel 3 2;
#X obj 224 283 f;
#X msg 259 282 0;
#X msg 98 114 0;
#X msg 128 113 1;
#X msg 159 114 2;
#X msg 309 98 0;
#X msg 339 97 1;
#X msg 370 98 2;
#X msg 204 113 0;
#X msg 238 111 2;
#X obj 127 29 t b b b b b b b b b b;
#X obj 239 257 r \$0-c50;
#X obj 164 354 s \$0-cr50;
#X obj 98 145 tabread \$0-line6;
#X obj 204 144 tabread \$0-line7;
#X obj 309 144 tabread \$0-line8;
#X connect 0 0 7 0;
#X connect 1 0 0 0;
#X connect 2 0 0 0;
#X connect 3 0 20 0;
#X connect 4 0 3 1;
#X connect 5 0 3 0;
#X connect 6 0 18 0;
#X connect 7 0 4 0;
#X connect 7 1 8 0;
#X connect 7 2 9 0;
#X connect 8 0 3 1;
#X connect 9 0 3 1;
#X connect 10 0 21 0;
#X connect 11 0 21 0;
#X connect 12 0 21 0;
#X connect 13 0 23 0;
#X connect 14 0 23 0;
#X connect 15 0 23 0;
#X connect 16 0 22 0;
#X connect 17 0 22 0;
#X connect 18 0 2 0;
#X connect 18 1 10 0;
#X connect 18 2 11 0;
#X connect 18 3 12 0;
#X connect 18 4 16 0;
#X connect 18 5 17 0;
#X connect 18 6 13 0;
#X connect 18 7 14 0;
#X connect 18 8 15 0;
#X connect 18 9 1 0;
#X connect 19 0 8 1;
#X connect 21 0 0 1;
#X connect 22 0 0 1;
#X connect 23 0 0 1;
#X restore 440 -195 pd cell50;
#N canvas 284 68 450 411 cell51 0;
#X obj 179 225 accum;
#X msg 416 179 0;
#X msg 40 164 bang;
#X obj 164 326 f;
#X msg 179 287 1;
#X obj 88 278 r \$0-next;
#X obj 127 2 r \$0-gathering;
#X obj 179 256 sel 3 2;
#X obj 224 283 f;
#X msg 259 282 0;
#X obj 127 29 t b b b b b b b b b b;
#X msg 98 114 1;
#X msg 128 113 2;
#X msg 159 114 3;
#X msg 309 98 1;
#X msg 339 97 2;
#X msg 370 98 3;
#X msg 204 113 1;
#X msg 238 111 3;
#X obj 239 257 r \$0-c51;
#X obj 164 354 s \$0-cr51;
#X obj 98 145 tabread \$0-line6;
#X obj 204 144 tabread \$0-line7;
#X obj 309 144 tabread \$0-line8;
#X connect 0 0 7 0;
#X connect 1 0 0 0;
#X connect 2 0 0 0;
#X connect 3 0 20 0;
#X connect 4 0 3 1;
#X connect 5 0 3 0;
#X connect 6 0 10 0;
#X connect 7 0 4 0;
#X connect 7 1 8 0;
#X connect 7 2 9 0;
#X connect 8 0 3 1;
#X connect 9 0 3 1;
#X connect 10 0 2 0;
#X connect 10 1 11 0;
#X connect 10 2 12 0;
#X connect 10 3 13 0;
#X connect 10 4 17 0;
#X connect 10 5 18 0;
#X connect 10 6 14 0;
#X connect 10 7 15 0;
#X connect 10 8 16 0;
#X connect 10 9 1 0;
#X connect 11 0 21 0;
#X connect 12 0 21 0;
#X connect 13 0 21 0;
#X connect 14 0 23 0;
#X connect 15 0 23 0;
#X connect 16 0 23 0;
#X connect 17 0 22 0;
#X connect 18 0 22 0;
#X connect 19 0 8 1;
#X connect 21 0 0 1;
#X connect 22 0 0 1;
#X connect 23 0 0 1;
#X restore 441 -173 pd cell51;
#N canvas 284 68 450 411 cell52 0;
#X obj 179 225 accum;
#X msg 416 179 0;
#X msg 40 164 bang;
#X obj 164 326 f;
#X msg 179 287 1;
#X obj 88 278 r \$0-next;
#X obj 127 2 r \$0-gathering;
#X obj 179 256 sel 3 2;
#X obj 224 283 f;
#X msg 259 282 0;
#X obj 127 29 t b b b b b b b b b b;
#X msg 98 114 2;
#X msg 128 113 3;
#X msg 159 114 4;
#X msg 309 98 2;
#X msg 339 97 3;
#X msg 370 98 4;
#X msg 204 113 2;
#X msg 238 111 4;
#X obj 164 354 s \$0-cr52;
#X obj 239 257 r \$0-c52;
#X obj 98 145 tabread \$0-line6;
#X obj 204 144 tabread \$0-line7;
#X obj 309 144 tabread \$0-line8;
#X connect 0 0 7 0;
#X connect 1 0 0 0;
#X connect 2 0 0 0;
#X connect 3 0 19 0;
#X connect 4 0 3 1;
#X connect 5 0 3 0;
#X connect 6 0 10 0;
#X connect 7 0 4 0;
#X connect 7 1 8 0;
#X connect 7 2 9 0;
#X connect 8 0 3 1;
#X connect 9 0 3 1;
#X connect 10 0 2 0;
#X connect 10 1 11 0;
#X connect 10 2 12 0;
#X connect 10 3 13 0;
#X connect 10 4 17 0;
#X connect 10 5 18 0;
#X connect 10 6 14 0;
#X connect 10 7 15 0;
#X connect 10 8 16 0;
#X connect 10 9 1 0;
#X connect 11 0 21 0;
#X connect 12 0 21 0;
#X connect 13 0 21 0;
#X connect 14 0 23 0;
#X connect 15 0 23 0;
#X connect 16 0 23 0;
#X connect 17 0 22 0;
#X connect 18 0 22 0;
#X connect 20 0 8 1;
#X connect 21 0 0 1;
#X connect 22 0 0 1;
#X connect 23 0 0 1;
#X restore 441 -153 pd cell52;
#N canvas 284 68 450 411 cell53 0;
#X obj 179 225 accum;
#X msg 416 179 0;
#X msg 40 164 bang;
#X obj 164 326 f;
#X msg 179 287 1;
#X obj 88 278 r \$0-next;
#X obj 127 2 r \$0-gathering;
#X obj 179 256 sel 3 2;
#X obj 224 283 f;
#X msg 259 282 0;
#X obj 127 29 t b b b b b b b b b b;
#X msg 98 114 3;
#X msg 128 113 4;
#X msg 159 114 5;
#X msg 203 113 3;
#X msg 238 111 5;
#X msg 309 98 3;
#X msg 339 97 4;
#X msg 370 98 5;
#X obj 239 257 r \$0-c53;
#X obj 164 354 s \$0-cr53;
#X obj 98 145 tabread \$0-line6;
#X obj 204 144 tabread \$0-line7;
#X obj 309 144 tabread \$0-line8;
#X connect 0 0 7 0;
#X connect 1 0 0 0;
#X connect 2 0 0 0;
#X connect 3 0 20 0;
#X connect 4 0 3 1;
#X connect 5 0 3 0;
#X connect 6 0 10 0;
#X connect 7 0 4 0;
#X connect 7 1 8 0;
#X connect 7 2 9 0;
#X connect 8 0 3 1;
#X connect 9 0 3 1;
#X connect 10 0 2 0;
#X connect 10 1 11 0;
#X connect 10 2 12 0;
#X connect 10 3 13 0;
#X connect 10 4 14 0;
#X connect 10 5 15 0;
#X connect 10 6 16 0;
#X connect 10 7 17 0;
#X connect 10 8 18 0;
#X connect 10 9 1 0;
#X connect 11 0 21 0;
#X connect 12 0 21 0;
#X connect 13 0 21 0;
#X connect 14 0 22 0;
#X connect 15 0 22 0;
#X connect 16 0 23 0;
#X connect 17 0 23 0;
#X connect 18 0 23 0;
#X connect 19 0 8 1;
#X connect 21 0 0 1;
#X connect 22 0 0 1;
#X connect 23 0 0 1;
#X restore 441 -133 pd cell53;
#N canvas 284 68 450 411 cell54 0;
#X obj 179 225 accum;
#X msg 416 179 0;
#X msg 40 164 bang;
#X obj 164 326 f;
#X msg 179 287 1;
#X obj 88 278 r \$0-next;
#X obj 127 2 r \$0-gathering;
#X obj 179 256 sel 3 2;
#X obj 224 283 f;
#X msg 259 282 0;
#X obj 127 29 t b b b b b b b b b b;
#X msg 98 114 4;
#X msg 128 113 5;
#X msg 159 114 6;
#X msg 203 113 4;
#X msg 238 111 6;
#X msg 309 98 4;
#X msg 339 97 5;
#X msg 370 98 6;
#X obj 239 257 r \$0-c54;
#X obj 164 354 s \$0-cr54;
#X obj 98 145 tabread \$0-line6;
#X obj 204 144 tabread \$0-line7;
#X obj 309 144 tabread \$0-line8;
#X connect 0 0 7 0;
#X connect 1 0 0 0;
#X connect 2 0 0 0;
#X connect 3 0 20 0;
#X connect 4 0 3 1;
#X connect 5 0 3 0;
#X connect 6 0 10 0;
#X connect 7 0 4 0;
#X connect 7 1 8 0;
#X connect 7 2 9 0;
#X connect 8 0 3 1;
#X connect 9 0 3 1;
#X connect 10 0 2 0;
#X connect 10 1 11 0;
#X connect 10 2 12 0;
#X connect 10 3 13 0;
#X connect 10 4 14 0;
#X connect 10 5 15 0;
#X connect 10 6 16 0;
#X connect 10 7 17 0;
#X connect 10 8 18 0;
#X connect 10 9 1 0;
#X connect 11 0 21 0;
#X connect 12 0 21 0;
#X connect 13 0 21 0;
#X connect 14 0 22 0;
#X connect 15 0 22 0;
#X connect 16 0 23 0;
#X connect 17 0 23 0;
#X connect 18 0 23 0;
#X connect 19 0 8 1;
#X connect 21 0 0 1;
#X connect 22 0 0 1;
#X connect 23 0 0 1;
#X restore 441 -113 pd cell54;
#N canvas 284 68 450 411 cell55 0;
#X obj 179 225 accum;
#X msg 416 179 0;
#X msg 40 164 bang;
#X obj 164 326 f;
#X msg 179 287 1;
#X obj 88 278 r \$0-next;
#X obj 127 2 r \$0-gathering;
#X obj 179 256 sel 3 2;
#X obj 224 283 f;
#X msg 259 282 0;
#X obj 127 29 t b b b b b b b b b b;
#X msg 98 114 5;
#X msg 128 113 6;
#X msg 159 114 7;
#X msg 203 113 5;
#X msg 238 111 7;
#X msg 309 98 5;
#X msg 339 97 6;
#X msg 370 98 7;
#X obj 164 354 s \$0-cr55;
#X obj 239 257 r \$0-c55;
#X obj 98 145 tabread \$0-line6;
#X obj 204 144 tabread \$0-line7;
#X obj 309 144 tabread \$0-line8;
#X connect 0 0 7 0;
#X connect 1 0 0 0;
#X connect 2 0 0 0;
#X connect 3 0 19 0;
#X connect 4 0 3 1;
#X connect 5 0 3 0;
#X connect 6 0 10 0;
#X connect 7 0 4 0;
#X connect 7 1 8 0;
#X connect 7 2 9 0;
#X connect 8 0 3 1;
#X connect 9 0 3 1;
#X connect 10 0 2 0;
#X connect 10 1 11 0;
#X connect 10 2 12 0;
#X connect 10 3 13 0;
#X connect 10 4 14 0;
#X connect 10 5 15 0;
#X connect 10 6 16 0;
#X connect 10 7 17 0;
#X connect 10 8 18 0;
#X connect 10 9 1 0;
#X connect 11 0 21 0;
#X connect 12 0 21 0;
#X connect 13 0 21 0;
#X connect 14 0 22 0;
#X connect 15 0 22 0;
#X connect 16 0 23 0;
#X connect 17 0 23 0;
#X connect 18 0 23 0;
#X connect 20 0 8 1;
#X connect 21 0 0 1;
#X connect 22 0 0 1;
#X connect 23 0 0 1;
#X restore 441 -93 pd cell55;
#N canvas 284 68 450 411 cell56 0;
#X obj 179 225 accum;
#X msg 367 185 0;
#X msg 46 164 bang;
#X obj 164 326 f;
#X msg 179 287 1;
#X obj 88 278 r \$0-next;
#X obj 127 2 r \$0-gathering;
#X obj 179 256 sel 3 2;
#X obj 224 283 f;
#X msg 259 282 0;
#X obj 126 26 t b b b b b b b;
#X msg 98 114 6;
#X msg 128 113 7;
#X msg 301 109 6;
#X msg 331 108 7;
#X msg 204 113 6;
#X obj 239 257 r \$0-c56;
#X obj 164 354 s \$0-cr56;
#X obj 98 145 tabread \$0-line6;
#X obj 204 144 tabread \$0-line7;
#X obj 309 144 tabread \$0-line8;
#X connect 0 0 7 0;
#X connect 1 0 0 0;
#X connect 2 0 0 0;
#X connect 3 0 17 0;
#X connect 4 0 3 1;
#X connect 5 0 3 0;
#X connect 6 0 10 0;
#X connect 7 0 4 0;
#X connect 7 1 8 0;
#X connect 7 2 9 0;
#X connect 8 0 3 1;
#X connect 9 0 3 1;
#X connect 10 0 2 0;
#X connect 10 1 11 0;
#X connect 10 2 12 0;
#X connect 10 3 15 0;
#X connect 10 4 13 0;
#X connect 10 5 14 0;
#X connect 10 6 1 0;
#X connect 11 0 18 0;
#X connect 12 0 18 0;
#X connect 13 0 20 0;
#X connect 14 0 20 0;
#X connect 15 0 19 0;
#X connect 16 0 8 1;
#X connect 18 0 0 1;
#X connect 19 0 0 1;
#X connect 20 0 0 1;
#X restore 442 -72 pd cell56;
#N canvas 284 68 450 411 cell57 0;
#X obj 179 225 accum;
#X msg 98 114 1;
#X msg 204 108 0;
#X msg 239 108 1;
#X msg 327 153 0;
#X msg 46 164 bang;
#X obj 127 25 t b b b b b;
#X obj 164 326 f;
#X msg 179 287 1;
#X obj 88 278 r \$0-next;
#X obj 127 2 r \$0-gathering;
#X obj 179 256 sel 3 2;
#X obj 224 283 f;
#X msg 259 282 0;
#X obj 239 257 r \$0-c57;
#X obj 98 145 tabread \$0-line8;
#X obj 204 144 tabread \$0-line7;
#X obj 164 354 s \$0-cr57;
#X connect 0 0 11 0;
#X connect 1 0 15 0;
#X connect 2 0 16 0;
#X connect 3 0 16 0;
#X connect 4 0 0 0;
#X connect 5 0 0 0;
#X connect 6 0 5 0;
#X connect 6 1 1 0;
#X connect 6 2 2 0;
#X connect 6 3 3 0;
#X connect 6 4 4 0;
#X connect 7 0 17 0;
#X connect 8 0 7 1;
#X connect 9 0 7 0;
#X connect 10 0 6 0;
#X connect 11 0 8 0;
#X connect 11 1 12 0;
#X connect 11 2 13 0;
#X connect 12 0 7 1;
#X connect 13 0 7 1;
#X connect 14 0 12 1;
#X connect 15 0 0 1;
#X connect 16 0 0 1;
#X restore 505 -217 pd cell57;
#N canvas 284 68 450 411 cell58 0;
#X obj 179 225 accum;
#X msg 204 108 0;
#X msg 239 108 1;
#X msg 327 153 0;
#X msg 46 164 bang;
#X obj 164 326 f;
#X msg 179 287 1;
#X obj 88 278 r \$0-next;
#X obj 127 2 r \$0-gathering;
#X obj 179 256 sel 3 2;
#X obj 224 283 f;
#X msg 259 282 0;
#X msg 98 114 0;
#X msg 130 114 2;
#X msg 269 110 2;
#X obj 127 25 t b b b b b b b;
#X obj 98 145 tabread \$0-line8;
#X obj 204 144 tabread \$0-line7;
#X obj 164 354 s \$0-cr58;
#X obj 239 258 r \$0-c58;
#X connect 0 0 9 0;
#X connect 1 0 17 0;
#X connect 2 0 17 0;
#X connect 3 0 0 0;
#X connect 4 0 0 0;
#X connect 5 0 18 0;
#X connect 6 0 5 1;
#X connect 7 0 5 0;
#X connect 8 0 15 0;
#X connect 9 0 6 0;
#X connect 9 1 10 0;
#X connect 9 2 11 0;
#X connect 10 0 5 1;
#X connect 11 0 5 1;
#X connect 12 0 16 0;
#X connect 13 0 16 0;
#X connect 14 0 17 0;
#X connect 15 0 4 0;
#X connect 15 1 12 0;
#X connect 15 2 13 0;
#X connect 15 3 1 0;
#X connect 15 4 2 0;
#X connect 15 5 14 0;
#X connect 15 6 3 0;
#X connect 16 0 0 1;
#X connect 17 0 0 1;
#X connect 19 0 10 1;
#X restore 505 -198 pd cell58;
#N canvas 284 68 450 411 cell59 0;
#X obj 179 225 accum;
#X msg 327 153 0;
#X msg 46 164 bang;
#X obj 164 326 f;
#X msg 179 287 1;
#X obj 88 278 r \$0-next;
#X obj 127 2 r \$0-gathering;
#X obj 179 256 sel 3 2;
#X obj 224 283 f;
#X msg 259 282 0;
#X obj 127 25 t b b b b b b b;
#X msg 98 114 1;
#X msg 130 114 3;
#X msg 204 108 1;
#X msg 239 108 2;
#X msg 269 110 3;
#X obj 98 145 tabread \$0-line8;
#X obj 204 144 tabread \$0-line7;
#X obj 164 354 s \$0-cr59;
#X obj 239 257 r \$0-c59;
#X connect 0 0 7 0;
#X connect 1 0 0 0;
#X connect 2 0 0 0;
#X connect 3 0 18 0;
#X connect 4 0 3 1;
#X connect 5 0 3 0;
#X connect 6 0 10 0;
#X connect 7 0 4 0;
#X connect 7 1 8 0;
#X connect 7 2 9 0;
#X connect 8 0 3 1;
#X connect 9 0 3 1;
#X connect 10 0 2 0;
#X connect 10 1 11 0;
#X connect 10 2 12 0;
#X connect 10 3 13 0;
#X connect 10 4 14 0;
#X connect 10 5 15 0;
#X connect 10 6 1 0;
#X connect 11 0 16 0;
#X connect 12 0 16 0;
#X connect 13 0 17 0;
#X connect 14 0 17 0;
#X connect 15 0 17 0;
#X connect 16 0 0 1;
#X connect 17 0 0 1;
#X connect 19 0 8 1;
#X restore 505 -177 pd cell59;
#N canvas 284 68 450 411 cell60 0;
#X obj 179 225 accum;
#X msg 327 153 0;
#X msg 46 164 bang;
#X obj 164 326 f;
#X msg 179 287 1;
#X obj 88 278 r \$0-next;
#X obj 127 2 r \$0-gathering;
#X obj 179 256 sel 3 2;
#X obj 224 283 f;
#X msg 259 282 0;
#X obj 127 25 t b b b b b b b;
#X msg 204 108 2;
#X msg 239 108 3;
#X msg 269 110 4;
#X msg 98 114 2;
#X msg 130 114 4;
#X obj 98 145 tabread \$0-line8;
#X obj 204 144 tabread \$0-line7;
#X obj 164 354 s \$0-cr60;
#X obj 239 257 r \$0-c60;
#X connect 0 0 7 0;
#X connect 1 0 0 0;
#X connect 2 0 0 0;
#X connect 3 0 18 0;
#X connect 4 0 3 1;
#X connect 5 0 3 0;
#X connect 6 0 10 0;
#X connect 7 0 4 0;
#X connect 7 1 8 0;
#X connect 7 2 9 0;
#X connect 8 0 3 1;
#X connect 9 0 3 1;
#X connect 10 0 2 0;
#X connect 10 1 14 0;
#X connect 10 2 15 0;
#X connect 10 3 11 0;
#X connect 10 4 12 0;
#X connect 10 5 13 0;
#X connect 10 6 1 0;
#X connect 11 0 17 0;
#X connect 12 0 17 0;
#X connect 13 0 17 0;
#X connect 14 0 16 0;
#X connect 15 0 16 0;
#X connect 16 0 0 1;
#X connect 17 0 0 1;
#X connect 19 0 8 1;
#X restore 505 -155 pd cell60;
#N canvas 284 68 450 411 cell61 0;
#X obj 179 225 accum;
#X msg 327 153 0;
#X msg 46 164 bang;
#X obj 164 326 f;
#X msg 179 287 1;
#X obj 88 278 r \$0-next;
#X obj 127 2 r \$0-gathering;
#X obj 179 256 sel 3 2;
#X obj 224 283 f;
#X msg 259 282 0;
#X obj 127 25 t b b b b b b b;
#X msg 204 108 3;
#X msg 239 108 4;
#X msg 269 110 5;
#X msg 98 114 3;
#X msg 130 114 5;
#X obj 204 144 tabread \$0-line7;
#X obj 98 145 tabread \$0-line8;
#X obj 164 354 s \$0-cr61;
#X obj 239 257 r \$0-c61;
#X connect 0 0 7 0;
#X connect 1 0 0 0;
#X connect 2 0 0 0;
#X connect 3 0 18 0;
#X connect 4 0 3 1;
#X connect 5 0 3 0;
#X connect 6 0 10 0;
#X connect 7 0 4 0;
#X connect 7 1 8 0;
#X connect 7 2 9 0;
#X connect 8 0 3 1;
#X connect 9 0 3 1;
#X connect 10 0 2 0;
#X connect 10 1 14 0;
#X connect 10 2 15 0;
#X connect 10 3 11 0;
#X connect 10 4 12 0;
#X connect 10 5 13 0;
#X connect 10 6 1 0;
#X connect 11 0 16 0;
#X connect 12 0 16 0;
#X connect 13 0 16 0;
#X connect 14 0 17 0;
#X connect 15 0 17 0;
#X connect 16 0 0 1;
#X connect 17 0 0 1;
#X connect 19 0 8 1;
#X restore 505 -135 pd cell61;
#N canvas 339 58 450 411 cell62 0;
#X obj 179 225 accum;
#X msg 327 153 0;
#X msg 46 164 bang;
#X obj 164 326 f;
#X msg 179 287 1;
#X obj 88 278 r \$0-next;
#X obj 127 2 r \$0-gathering;
#X obj 179 256 sel 3 2;
#X obj 224 283 f;
#X msg 259 282 0;
#X obj 127 25 t b b b b b b b;
#X msg 204 108 4;
#X msg 239 108 5;
#X msg 269 110 6;
#X msg 98 114 4;
#X msg 130 114 6;
#X obj 239 257 r \$0-c62;
#X obj 164 354 s \$0-cr62;
#X obj 98 145 tabread \$0-line8;
#X obj 204 144 tabread \$0-line7;
#X connect 0 0 7 0;
#X connect 1 0 0 0;
#X connect 2 0 0 0;
#X connect 3 0 17 0;
#X connect 4 0 3 1;
#X connect 5 0 3 0;
#X connect 6 0 10 0;
#X connect 7 0 4 0;
#X connect 7 1 8 0;
#X connect 7 2 9 0;
#X connect 8 0 3 1;
#X connect 9 0 3 1;
#X connect 10 0 2 0;
#X connect 10 1 14 0;
#X connect 10 2 15 0;
#X connect 10 3 11 0;
#X connect 10 4 12 0;
#X connect 10 5 13 0;
#X connect 10 6 1 0;
#X connect 11 0 19 0;
#X connect 12 0 19 0;
#X connect 13 0 19 0;
#X connect 14 0 18 0;
#X connect 15 0 18 0;
#X connect 16 0 8 1;
#X connect 18 0 0 1;
#X connect 19 0 0 1;
#X restore 504 -115 pd cell62;
#N canvas 339 58 450 411 cell63 0;
#X obj 179 225 accum;
#X msg 327 153 0;
#X msg 46 164 bang;
#X obj 164 326 f;
#X msg 179 287 1;
#X obj 88 278 r \$0-next;
#X obj 127 2 r \$0-gathering;
#X obj 179 256 sel 3 2;
#X obj 224 283 f;
#X msg 259 282 0;
#X obj 127 25 t b b b b b b b;
#X msg 204 108 5;
#X msg 239 108 6;
#X msg 269 110 7;
#X msg 98 114 5;
#X msg 130 114 7;
#X obj 98 145 tabread \$0-line8;
#X obj 204 144 tabread \$0-line7;
#X obj 164 354 s \$0-cr63;
#X obj 239 257 r \$0-c63;
#X connect 0 0 7 0;
#X connect 1 0 0 0;
#X connect 2 0 0 0;
#X connect 3 0 18 0;
#X connect 4 0 3 1;
#X connect 5 0 3 0;
#X connect 6 0 10 0;
#X connect 7 0 4 0;
#X connect 7 1 8 0;
#X connect 7 2 9 0;
#X connect 8 0 3 1;
#X connect 9 0 3 1;
#X connect 10 0 2 0;
#X connect 10 1 14 0;
#X connect 10 2 15 0;
#X connect 10 3 11 0;
#X connect 10 4 12 0;
#X connect 10 5 13 0;
#X connect 10 6 1 0;
#X connect 11 0 17 0;
#X connect 12 0 17 0;
#X connect 13 0 17 0;
#X connect 14 0 16 0;
#X connect 15 0 16 0;
#X connect 16 0 0 1;
#X connect 17 0 0 1;
#X connect 19 0 8 1;
#X restore 504 -96 pd cell63;
#N canvas 284 68 450 411 cell64 0;
#X obj 179 225 accum;
#X msg 327 153 0;
#X msg 46 164 bang;
#X obj 127 25 t b b b b b;
#X obj 164 326 f;
#X msg 179 287 1;
#X obj 88 278 r \$0-next;
#X obj 127 2 r \$0-gathering;
#X obj 179 256 sel 3 2;
#X obj 224 283 f;
#X msg 259 282 0;
#X msg 204 108 6;
#X msg 239 108 7;
#X msg 98 114 6;
#X obj 98 145 tabread \$0-line8;
#X obj 204 144 tabread \$0-line7;
#X obj 164 354 s \$0-cr64;
#X obj 239 257 r \$0-c64;
#X connect 0 0 8 0;
#X connect 1 0 0 0;
#X connect 2 0 0 0;
#X connect 3 0 2 0;
#X connect 3 1 13 0;
#X connect 3 2 11 0;
#X connect 3 3 12 0;
#X connect 3 4 1 0;
#X connect 4 0 16 0;
#X connect 5 0 4 1;
#X connect 6 0 4 0;
#X connect 7 0 3 0;
#X connect 8 0 5 0;
#X connect 8 1 9 0;
#X connect 8 2 10 0;
#X connect 9 0 4 1;
#X connect 10 0 4 1;
#X connect 11 0 15 0;
#X connect 12 0 15 0;
#X connect 13 0 14 0;
#X connect 14 0 0 1;
#X connect 15 0 0 1;
#X connect 17 0 9 1;
#X restore 504 -75 pd cell64;
#N canvas 135 37 450 300 tabwrites 0;
#N canvas 124 52 533 324 line1 0;
#X obj 63 43 r \$0-c1;
#X obj 130 204 tabwrite \$0-line1;
#X obj 130 223 table \$0-line1 8;
#X obj 63 70 t f b;
#X obj 123 70 t f b;
#X obj 183 70 t f b;
#X obj 243 70 t f b;
#X obj 303 70 t f b;
#X obj 363 70 t f b;
#X obj 423 70 t f b;
#X obj 483 70 t f b;
#X obj 123 43 r \$0-c2;
#X obj 183 43 r \$0-c3;
#X obj 243 43 r \$0-c4;
#X obj 303 43 r \$0-c5;
#X obj 363 43 r \$0-c6;
#X obj 423 43 r \$0-c7;
#X obj 483 43 r \$0-c8;
#X msg 90 95 0;
#X msg 150 95 1;
#X msg 210 95 2;
#X msg 270 95 3;
#X msg 330 95 4;
#X msg 390 95 5;
#X msg 450 95 6;
#X msg 510 95 7;
#X connect 0 0 3 0;
#X connect 3 0 1 0;
#X connect 3 1 18 0;
#X connect 4 0 1 0;
#X connect 4 1 19 0;
#X connect 5 0 1 0;
#X connect 5 1 20 0;
#X connect 6 0 1 0;
#X connect 6 1 21 0;
#X connect 7 0 1 0;
#X connect 7 1 22 0;
#X connect 8 0 1 0;
#X connect 8 1 23 0;
#X connect 9 0 1 0;
#X connect 9 1 24 0;
#X connect 10 0 1 0;
#X connect 10 1 25 0;
#X connect 11 0 4 0;
#X connect 12 0 5 0;
#X connect 13 0 6 0;
#X connect 14 0 7 0;
#X connect 15 0 8 0;
#X connect 16 0 9 0;
#X connect 17 0 10 0;
#X connect 18 0 1 1;
#X connect 19 0 1 1;
#X connect 20 0 1 1;
#X connect 21 0 1 1;
#X connect 22 0 1 1;
#X connect 23 0 1 1;
#X connect 24 0 1 1;
#X connect 25 0 1 1;
#X restore 48 27 pd line1;
#N canvas 124 52 533 324 line2 0;
#X obj 63 70 t f b;
#X obj 123 70 t f b;
#X obj 183 70 t f b;
#X obj 243 70 t f b;
#X obj 303 70 t f b;
#X obj 363 70 t f b;
#X obj 423 70 t f b;
#X obj 483 70 t f b;
#X msg 90 95 0;
#X msg 150 95 1;
#X msg 210 95 2;
#X msg 270 95 3;
#X msg 330 95 4;
#X msg 390 95 5;
#X msg 450 95 6;
#X msg 510 95 7;
#X obj 63 43 r \$0-c9;
#X obj 123 43 r \$0-c10;
#X obj 183 43 r \$0-c11;
#X obj 243 43 r \$0-c12;
#X obj 303 43 r \$0-c13;
#X obj 363 43 r \$0-c14;
#X obj 423 43 r \$0-c15;
#X obj 483 43 r \$0-c16;
#X obj 130 223 table \$0-line2 8;
#X obj 130 204 tabwrite \$0-line2;
#X connect 0 0 25 0;
#X connect 0 1 8 0;
#X connect 1 0 25 0;
#X connect 1 1 9 0;
#X connect 2 0 25 0;
#X connect 2 1 10 0;
#X connect 3 0 25 0;
#X connect 3 1 11 0;
#X connect 4 0 25 0;
#X connect 4 1 12 0;
#X connect 5 0 25 0;
#X connect 5 1 13 0;
#X connect 6 0 25 0;
#X connect 6 1 14 0;
#X connect 7 0 25 0;
#X connect 7 1 15 0;
#X connect 8 0 25 1;
#X connect 9 0 25 1;
#X connect 10 0 25 1;
#X connect 11 0 25 1;
#X connect 12 0 25 1;
#X connect 13 0 25 1;
#X connect 14 0 25 1;
#X connect 15 0 25 1;
#X connect 16 0 0 0;
#X connect 17 0 1 0;
#X connect 18 0 2 0;
#X connect 19 0 3 0;
#X connect 20 0 4 0;
#X connect 21 0 5 0;
#X connect 22 0 6 0;
#X connect 23 0 7 0;
#X restore 48 47 pd line2;
#N canvas 124 52 533 324 line3 0;
#X obj 63 70 t f b;
#X obj 123 70 t f b;
#X obj 183 70 t f b;
#X obj 243 70 t f b;
#X obj 303 70 t f b;
#X obj 363 70 t f b;
#X obj 423 70 t f b;
#X obj 483 70 t f b;
#X msg 90 95 0;
#X msg 150 95 1;
#X msg 210 95 2;
#X msg 270 95 3;
#X msg 330 95 4;
#X msg 390 95 5;
#X msg 450 95 6;
#X msg 510 95 7;
#X obj 63 43 r \$0-c17;
#X obj 123 43 r \$0-c18;
#X obj 183 43 r \$0-c19;
#X obj 243 43 r \$0-c20;
#X obj 303 43 r \$0-c21;
#X obj 363 43 r \$0-c22;
#X obj 423 43 r \$0-c23;
#X obj 483 43 r \$0-c24;
#X obj 130 204 tabwrite \$0-line3;
#X obj 130 223 table \$0-line3 8;
#X connect 0 0 24 0;
#X connect 0 1 8 0;
#X connect 1 0 24 0;
#X connect 1 1 9 0;
#X connect 2 0 24 0;
#X connect 2 1 10 0;
#X connect 3 0 24 0;
#X connect 3 1 11 0;
#X connect 4 0 24 0;
#X connect 4 1 12 0;
#X connect 5 0 24 0;
#X connect 5 1 13 0;
#X connect 6 0 24 0;
#X connect 6 1 14 0;
#X connect 7 0 24 0;
#X connect 7 1 15 0;
#X connect 8 0 24 1;
#X connect 9 0 24 1;
#X connect 10 0 24 1;
#X connect 11 0 24 1;
#X connect 12 0 24 1;
#X connect 13 0 24 1;
#X connect 14 0 24 1;
#X connect 15 0 24 1;
#X connect 16 0 0 0;
#X connect 17 0 1 0;
#X connect 18 0 2 0;
#X connect 19 0 3 0;
#X connect 20 0 4 0;
#X connect 21 0 5 0;
#X connect 22 0 6 0;
#X connect 23 0 7 0;
#X restore 48 67 pd line3;
#N canvas 124 52 533 324 line4 0;
#X obj 63 70 t f b;
#X obj 123 70 t f b;
#X obj 183 70 t f b;
#X obj 243 70 t f b;
#X obj 303 70 t f b;
#X obj 363 70 t f b;
#X obj 423 70 t f b;
#X obj 483 70 t f b;
#X msg 90 95 0;
#X msg 150 95 1;
#X msg 210 95 2;
#X msg 270 95 3;
#X msg 330 95 4;
#X msg 390 95 5;
#X msg 450 95 6;
#X msg 510 95 7;
#X obj 63 43 r \$0-c25;
#X obj 123 43 r \$0-c26;
#X obj 183 43 r \$0-c27;
#X obj 243 43 r \$0-c28;
#X obj 303 43 r \$0-c29;
#X obj 363 43 r \$0-c30;
#X obj 423 43 r \$0-c31;
#X obj 483 43 r \$0-c32;
#X obj 130 204 tabwrite \$0-line4;
#X obj 130 223 table \$0-line4 8;
#X connect 0 0 24 0;
#X connect 0 1 8 0;
#X connect 1 0 24 0;
#X connect 1 1 9 0;
#X connect 2 0 24 0;
#X connect 2 1 10 0;
#X connect 3 0 24 0;
#X connect 3 1 11 0;
#X connect 4 0 24 0;
#X connect 4 1 12 0;
#X connect 5 0 24 0;
#X connect 5 1 13 0;
#X connect 6 0 24 0;
#X connect 6 1 14 0;
#X connect 7 0 24 0;
#X connect 7 1 15 0;
#X connect 8 0 24 1;
#X connect 9 0 24 1;
#X connect 10 0 24 1;
#X connect 11 0 24 1;
#X connect 12 0 24 1;
#X connect 13 0 24 1;
#X connect 14 0 24 1;
#X connect 15 0 24 1;
#X connect 16 0 0 0;
#X connect 17 0 1 0;
#X connect 18 0 2 0;
#X connect 19 0 3 0;
#X connect 20 0 4 0;
#X connect 21 0 5 0;
#X connect 22 0 6 0;
#X connect 23 0 7 0;
#X restore 48 87 pd line4;
#N canvas 124 52 533 324 line5 0;
#X obj 63 70 t f b;
#X obj 123 70 t f b;
#X obj 183 70 t f b;
#X obj 243 70 t f b;
#X obj 303 70 t f b;
#X obj 363 70 t f b;
#X obj 423 70 t f b;
#X obj 483 70 t f b;
#X msg 90 95 0;
#X msg 150 95 1;
#X msg 210 95 2;
#X msg 270 95 3;
#X msg 330 95 4;
#X msg 390 95 5;
#X msg 450 95 6;
#X msg 510 95 7;
#X obj 63 43 r \$0-c33;
#X obj 123 43 r \$0-c34;
#X obj 183 43 r \$0-c35;
#X obj 243 43 r \$0-c36;
#X obj 303 43 r \$0-c37;
#X obj 363 43 r \$0-c38;
#X obj 423 43 r \$0-c39;
#X obj 483 43 r \$0-c40;
#X obj 130 204 tabwrite \$0-line5;
#X obj 130 223 table \$0-line5 8;
#X connect 0 0 24 0;
#X connect 0 1 8 0;
#X connect 1 0 24 0;
#X connect 1 1 9 0;
#X connect 2 0 24 0;
#X connect 2 1 10 0;
#X connect 3 0 24 0;
#X connect 3 1 11 0;
#X connect 4 0 24 0;
#X connect 4 1 12 0;
#X connect 5 0 24 0;
#X connect 5 1 13 0;
#X connect 6 0 24 0;
#X connect 6 1 14 0;
#X connect 7 0 24 0;
#X connect 7 1 15 0;
#X connect 8 0 24 1;
#X connect 9 0 24 1;
#X connect 10 0 24 1;
#X connect 11 0 24 1;
#X connect 12 0 24 1;
#X connect 13 0 24 1;
#X connect 14 0 24 1;
#X connect 15 0 24 1;
#X connect 16 0 0 0;
#X connect 17 0 1 0;
#X connect 18 0 2 0;
#X connect 19 0 3 0;
#X connect 20 0 4 0;
#X connect 21 0 5 0;
#X connect 22 0 6 0;
#X connect 23 0 7 0;
#X restore 48 107 pd line5;
#N canvas 124 52 533 324 line6 0;
#X obj 63 70 t f b;
#X obj 123 70 t f b;
#X obj 183 70 t f b;
#X obj 243 70 t f b;
#X obj 303 70 t f b;
#X obj 363 70 t f b;
#X obj 423 70 t f b;
#X obj 483 70 t f b;
#X msg 90 95 0;
#X msg 150 95 1;
#X msg 210 95 2;
#X msg 270 95 3;
#X msg 330 95 4;
#X msg 390 95 5;
#X msg 450 95 6;
#X msg 510 95 7;
#X obj 63 43 r \$0-c41;
#X obj 123 43 r \$0-c42;
#X obj 183 43 r \$0-c43;
#X obj 243 43 r \$0-c44;
#X obj 303 43 r \$0-c45;
#X obj 363 43 r \$0-c46;
#X obj 423 43 r \$0-c47;
#X obj 483 43 r \$0-c48;
#X obj 130 204 tabwrite \$0-line6;
#X obj 130 223 table \$0-line6 8;
#X connect 0 0 24 0;
#X connect 0 1 8 0;
#X connect 1 0 24 0;
#X connect 1 1 9 0;
#X connect 2 0 24 0;
#X connect 2 1 10 0;
#X connect 3 0 24 0;
#X connect 3 1 11 0;
#X connect 4 0 24 0;
#X connect 4 1 12 0;
#X connect 5 0 24 0;
#X connect 5 1 13 0;
#X connect 6 0 24 0;
#X connect 6 1 14 0;
#X connect 7 0 24 0;
#X connect 7 1 15 0;
#X connect 8 0 24 1;
#X connect 9 0 24 1;
#X connect 10 0 24 1;
#X connect 11 0 24 1;
#X connect 12 0 24 1;
#X connect 13 0 24 1;
#X connect 14 0 24 1;
#X connect 15 0 24 1;
#X connect 16 0 0 0;
#X connect 17 0 1 0;
#X connect 18 0 2 0;
#X connect 19 0 3 0;
#X connect 20 0 4 0;
#X connect 21 0 5 0;
#X connect 22 0 6 0;
#X connect 23 0 7 0;
#X restore 48 127 pd line6;
#N canvas 124 52 533 324 line7 0;
#X obj 63 70 t f b;
#X obj 123 70 t f b;
#X obj 183 70 t f b;
#X obj 243 70 t f b;
#X obj 303 70 t f b;
#X obj 363 70 t f b;
#X obj 423 70 t f b;
#X obj 483 70 t f b;
#X msg 90 95 0;
#X msg 150 95 1;
#X msg 210 95 2;
#X msg 270 95 3;
#X msg 330 95 4;
#X msg 390 95 5;
#X msg 450 95 6;
#X msg 510 95 7;
#X obj 63 43 r \$0-c49;
#X obj 123 43 r \$0-c50;
#X obj 183 43 r \$0-c51;
#X obj 243 43 r \$0-c52;
#X obj 303 43 r \$0-c53;
#X obj 363 43 r \$0-c54;
#X obj 423 43 r \$0-c55;
#X obj 483 43 r \$0-c56;
#X obj 130 204 tabwrite \$0-line7;
#X obj 130 223 table \$0-line7 8;
#X connect 0 0 24 0;
#X connect 0 1 8 0;
#X connect 1 0 24 0;
#X connect 1 1 9 0;
#X connect 2 0 24 0;
#X connect 2 1 10 0;
#X connect 3 0 24 0;
#X connect 3 1 11 0;
#X connect 4 0 24 0;
#X connect 4 1 12 0;
#X connect 5 0 24 0;
#X connect 5 1 13 0;
#X connect 6 0 24 0;
#X connect 6 1 14 0;
#X connect 7 0 24 0;
#X connect 7 1 15 0;
#X connect 8 0 24 1;
#X connect 9 0 24 1;
#X connect 10 0 24 1;
#X connect 11 0 24 1;
#X connect 12 0 24 1;
#X connect 13 0 24 1;
#X connect 14 0 24 1;
#X connect 15 0 24 1;
#X connect 16 0 0 0;
#X connect 17 0 1 0;
#X connect 18 0 2 0;
#X connect 19 0 3 0;
#X connect 20 0 4 0;
#X connect 21 0 5 0;
#X connect 22 0 6 0;
#X connect 23 0 7 0;
#X restore 48 147 pd line7;
#N canvas 124 52 533 324 line8 0;
#X obj 63 70 t f b;
#X obj 123 70 t f b;
#X obj 183 70 t f b;
#X obj 243 70 t f b;
#X obj 303 70 t f b;
#X obj 363 70 t f b;
#X obj 423 70 t f b;
#X obj 483 70 t f b;
#X msg 90 95 0;
#X msg 150 95 1;
#X msg 210 95 2;
#X msg 270 95 3;
#X msg 330 95 4;
#X msg 390 95 5;
#X msg 450 95 6;
#X msg 510 95 7;
#X obj 63 43 r \$0-c57;
#X obj 123 43 r \$0-c58;
#X obj 183 43 r \$0-c59;
#X obj 243 43 r \$0-c60;
#X obj 303 43 r \$0-c61;
#X obj 363 43 r \$0-c62;
#X obj 423 43 r \$0-c63;
#X obj 483 43 r \$0-c64;
#X obj 130 204 tabwrite \$0-line8;
#X obj 130 223 table \$0-line8 8;
#X connect 0 0 24 0;
#X connect 0 1 8 0;
#X connect 1 0 24 0;
#X connect 1 1 9 0;
#X connect 2 0 24 0;
#X connect 2 1 10 0;
#X connect 3 0 24 0;
#X connect 3 1 11 0;
#X connect 4 0 24 0;
#X connect 4 1 12 0;
#X connect 5 0 24 0;
#X connect 5 1 13 0;
#X connect 6 0 24 0;
#X connect 6 1 14 0;
#X connect 7 0 24 0;
#X connect 7 1 15 0;
#X connect 8 0 24 1;
#X connect 9 0 24 1;
#X connect 10 0 24 1;
#X connect 11 0 24 1;
#X connect 12 0 24 1;
#X connect 13 0 24 1;
#X connect 14 0 24 1;
#X connect 15 0 24 1;
#X connect 16 0 0 0;
#X connect 17 0 1 0;
#X connect 18 0 2 0;
#X connect 19 0 3 0;
#X connect 20 0 4 0;
#X connect 21 0 5 0;
#X connect 22 0 6 0;
#X connect 23 0 7 0;
#X restore 48 167 pd line8;
#X restore 73 -247 pd tabwrites;
#X restore 648 182 pd guts;
#X obj 581 104 t b b;
#X obj 608 140 s \$0-gathering;
#X obj 581 182 s \$0-next;
#X obj 581 69 bng 15 250 50 0 empty empty empty 17 7 0 10 -262144 -1
-1;
#X obj 384 72 metro 500;
#N canvas 0 22 800 532 out_________out 0;
#X obj -132 199 tabread \$0-line1;
#X obj -28 199 tabread \$0-line2;
#X obj 76 199 tabread \$0-line3;
#X obj 180 199 tabread \$0-line4;
#X obj 282 199 tabread \$0-line5;
#X obj 386 199 tabread \$0-line6;
#X obj 209 335 tabread \$0-line7;
#X obj 313 335 tabread \$0-line8;
#X obj 88 76 inlet;
#X obj -118 436 outlet;
#X obj -51 436 outlet;
#X obj 22 439 outlet;
#X obj 89 439 outlet;
#X obj 165 436 outlet;
#X obj 232 436 outlet;
#X obj 305 439 outlet;
#X obj 372 439 outlet;
#X connect 0 0 9 0;
#X connect 1 0 10 0;
#X connect 2 0 11 0;
#X connect 3 0 12 0;
#X connect 4 0 13 0;
#X connect 5 0 14 0;
#X connect 6 0 15 0;
#X connect 7 0 16 0;
#X connect 8 0 0 0;
#X connect 8 0 1 0;
#X connect 8 0 2 0;
#X connect 8 0 3 0;
#X connect 8 0 4 0;
#X connect 8 0 5 0;
#X connect 8 0 6 0;
#X connect 8 0 7 0;
#X restore 384 242 pd out_________out;
#X obj 135 334 outlet;
#X obj 178 334 outlet;
#X obj 223 333 outlet;
#X obj 268 333 outlet;
#X obj 313 332 outlet;
#X obj 356 333 outlet;
#X obj 400 334 outlet;
#X obj 443 334 outlet;
#X obj 384 103 i;
#X obj 420 103 + 1;
#X obj 384 132 % 8;
#X obj 239 102 tgl 22 0 \$0-start empty empty 17 7 0 10 -262144 -1
-1 0 1;
#X obj 411 183 sel 7;
#X obj 384 157 t f f;
#X obj 384 48 r \$0-start;
#X floatatom 239 153 5 0 0 2 temp #0-temp_r #0-temp;
#X obj 458 47 r \$0-temp;
#X obj 671 276 t f b;
#X obj 671 304 until;
#X obj 671 332 i;
#X obj 698 332 + 1;
#X msg 671 251 65;
#X msg 715 302 1;
#X obj 671 359 max 1;
#X obj 671 385 min 64;
#X obj 671 231 r \$0-clear;
#X obj 240 177 bng 15 250 50 0 \$0-clear empty c 5 7 0 10 -262144 -1
-1;
#X obj 671 412 makefilename \$0-cr%d;
#X msg 671 437 \; \$1 0;
#X obj 530 258 t f b;
#X obj 530 286 until;
#X obj 530 314 i;
#X obj 557 314 + 1;
#X msg 530 233 65;
#X msg 574 284 1;
#X obj 530 341 max 1;
#X obj 530 367 min 64;
#X obj 530 414 makefilename \$0-cr%d;
#X obj 557 434 random 2;
#X msg 530 486 \; \$1 \$2;
#X obj 530 213 r \$0-random;
#X obj 530 463 pack s f;
#X obj 530 389 t f b;
#X obj 240 207 bng 15 250 50 0 \$0-random empty r 5 7 0 10 -262144
-1 -1;
#X msg 287 422 \; \$1-temp_r 125;
#X obj 287 398 pack \$0;
#X obj 287 373 initbang;
#X obj 467 168 s \$0-step;
#X obj 101 238 hradio 17 1 0 8 rrrrrrrrrr \$0-step empty 0 -8 0 10
-262144 -1 -1 0;
#X obj 247 45 inlet;
#X connect 65 0 67 0;
#X connect 65 1 66 0;
#X connect 68 0 65 0;
#X connect 69 0 79 0;
#X connect 70 0 71 0;
#X connect 70 1 72 0;
#X connect 70 2 73 0;
#X connect 70 3 74 0;
#X connect 70 4 75 0;
#X connect 70 5 76 0;
#X connect 70 6 77 0;
#X connect 70 7 78 0;
#X connect 79 0 80 0;
#X connect 79 0 81 0;
#X connect 80 0 79 1;
#X connect 81 0 84 0;
#X connect 81 0 118 0;
#X connect 83 0 68 0;
#X connect 84 0 70 0;
#X connect 84 1 83 0;
#X connect 85 0 69 0;
#X connect 87 0 69 1;
#X connect 88 0 89 0;
#X connect 88 1 93 0;
#X connect 89 0 90 0;
#X connect 90 0 91 0;
#X connect 90 0 94 0;
#X connect 91 0 90 1;
#X connect 92 0 88 0;
#X connect 93 0 90 1;
#X connect 94 0 95 0;
#X connect 95 0 98 0;
#X connect 96 0 92 0;
#X connect 98 0 99 0;
#X connect 100 0 101 0;
#X connect 100 1 105 0;
#X connect 101 0 102 0;
#X connect 102 0 103 0;
#X connect 102 0 106 0;
#X connect 103 0 102 1;
#X connect 104 0 100 0;
#X connect 105 0 102 1;
#X connect 106 0 107 0;
#X connect 107 0 113 0;
#X connect 108 0 112 0;
#X connect 109 0 112 1;
#X connect 111 0 104 0;
#X connect 112 0 110 0;
#X connect 113 0 108 0;
#X connect 113 1 109 0;
#X connect 116 0 115 0;
#X connect 117 0 116 0;
#X connect 120 0 82 0;
#X coords 0 -1 1 1 175 160 2 100 100;
