#N canvas 507 358 308 284 10;
#X obj 120 213 sel 1;
#X obj 148 130 + 1;
#X obj 120 130 int;
#X obj 120 162 mod 8;
#X obj 120 108 metro;
#X obj 152 86 /;
#X obj 152 40 t b f;
#X msg 152 63 60000;
#X obj 120 250 outlet;
#X obj 62 8 inlet;
#X obj 120 192 tabread;
#X obj 152 8 inlet;
#X obj 21 149 inlet;
#X obj 217 8 inlet;
#X connect 0 0 8 0;
#X connect 1 0 2 1;
#X connect 2 0 1 0;
#X connect 2 0 3 0;
#X connect 3 0 10 0;
#X connect 4 0 2 0;
#X connect 5 0 4 1;
#X connect 6 0 7 0;
#X connect 6 1 5 1;
#X connect 7 0 5 0;
#X connect 9 0 4 0;
#X connect 10 0 0 0;
#X connect 11 0 6 0;
#X connect 12 0 10 0;
#X connect 13 0 3 1;
