#N canvas 1 22 793 541 10;
#X obj 14 -336 cnv 15 470 400 empty empty TEXTURER_v1.2 20 12 0 14
-257472 -66577 0;
#X obj 76 -270 cnv 15 300 48 empty empty empty 20 12 0 14 -228992 -66577
0;
#X obj 74 -182 cnv 15 300 48 empty empty empty 20 12 0 14 -228992 -66577
0;
#X obj 71 -91 cnv 15 300 48 empty empty empty 20 12 0 14 -228992 -66577
0;
#X obj 121 -83 vsl 12 32 0 1 0 0 empty empty Kick 0 -8 0 8 -24198 -1
-1 0 1;
#X obj 76 -83 vsl 12 32 0 1 0 0 empty empty HH 0 -8 0 8 -258699 -1
-1 0 1;
#X obj 163 -83 vsl 12 32 0 1 0 0 empty empty Snare 0 -8 0 8 -260818
-1 -1 0 1;
#X obj 261 -265 vsl 12 32 4 0.25 0 0 empty empty busy 0 -8 0 8 -241291
-1 -1 3100 1;
#X obj 351 -266 vsl 12 32 0.1 1.8 0 0 empty empty swing 0 -8 0 8 -260818
-1 -1 0 1;
#X obj 187 -265 vsl 12 32 100 10000 0 0 empty empty speed 0 -8 0 8
-44926 -1 -1 0 1;
#X obj 87 -174 vsl 12 32 0 5 0 0 empty empty hihat_steps 0 -8 0 8 -261689
-1 -1 2480 1;
#X obj 336 -177 vsl 12 32 1 12 0 0 empty empty snare_runs 0 -8 0 8
-261681 -1 -1 2536 1;
#X obj 218 -175 vsl 12 32 1 12 0 0 empty empty kick_runs 0 -8 0 8 -225271
-1 -1 2536 1;
#X obj 350 -86 vsl 12 32 1 4 1 0 empty empty distort 0 -8 0 8 -250685
-1 -1 0 1;
#X obj 291 -85 vsl 12 32 70 4000 0 0 empty empty F 0 -8 0 8 -44926
-1 -1 0 1;
#X obj 323 -85 vsl 12 32 0.1 6 1 0 empty empty Q 0 -8 0 8 -62784 -1
-1 0 1;
#X obj 82 -261 vsl 12 32 0 1 0 0 empty empty vol 0 -8 0 8 -262131 -1
-1 0 1;
#X obj 261 -219 s \$0-busy;
#X obj 351 -219 s \$0-swing;
#X obj 187 -218 s \$0-speed;
#X obj 87 -131 s \$0-hhsteps;
#X obj 218 -131 s \$0-kicksteps;
#X obj 337 -131 s \$0-snaresteps;
#X obj 163 -37 s \$0-snarel;
#X obj 322 -20 s \$0-filq;
#X obj 121 -14 s \$0-kickl;
#X obj 291 2 s \$0-filf;
#X obj 77 10 s \$0-hhl;
#X obj 82 -217 s \$0-mainvol;
#N canvas 15 48 1009 720 gubbins 0;
#X floatatom 280 324 0 0 144 0 - - -;
#N canvas 0 22 433 389 playeri1 0;
#X obj 161 155 hip~ 5;
#X obj 161 113 vline~;
#X obj 161 136 tabread4~;
#X obj 161 174 *~ 0.5;
#X obj 118 90 r i1snum;
#X obj 161 90 r i1phase;
#X obj 211 23 inlet;
#X text 204 6 vol;
#X obj 28 127 makefilename #0-drum%d;
#X msg 28 144 \; i1snum set \$1 \; i1phase 1 \, 4.41e+08 1e+07 \;;
#X obj 27 36 inlet;
#X text 23 17 note/sound;
#X text 66 -7 i1;
#X obj 160 200 outlet~;
#X obj 28 94 max 10;
#X obj 28 109 min 16;
#X connect 0 0 3 0;
#X connect 1 0 2 0;
#X connect 2 0 0 0;
#X connect 3 0 13 0;
#X connect 4 0 2 0;
#X connect 5 0 1 0;
#X connect 6 0 3 1;
#X connect 8 0 9 0;
#X connect 10 0 14 0;
#X connect 14 0 15 0;
#X connect 15 0 8 0;
#X restore 570 467 pd playeri1;
#X obj 269 227 f;
#X obj 299 228 + 1;
#X floatatom 445 435 5 0 0 0 - - -;
#X floatatom 587 435 5 0 0 0 - - -;
#X obj 268 303 mod 16;
#X obj 269 246 / 2;
#X obj 269 264 int;
#X obj 269 281 change;
#N canvas 0 22 437 393 playeri3 0;
#X obj 161 155 hip~ 5;
#X obj 161 113 vline~;
#X obj 161 136 tabread4~;
#X obj 161 174 *~ 0.5;
#X obj 211 23 inlet;
#X text 204 6 vol;
#X obj 28 127 makefilename #0-drum%d;
#X obj 28 94 max 0;
#X obj 27 36 inlet;
#X text 23 17 note/sound;
#X text 66 -7 i1;
#X obj 160 200 outlet~;
#X msg 28 144 \; i3snum set \$1 \; i3phase 1 \, 4.41e+08 1e+07 \;;
#X obj 161 90 r i3phase;
#X obj 118 90 r i3snum;
#X obj 28 109 min 6;
#X connect 0 0 3 0;
#X connect 1 0 2 0;
#X connect 2 0 0 0;
#X connect 3 0 11 0;
#X connect 4 0 3 1;
#X connect 6 0 12 0;
#X connect 7 0 15 0;
#X connect 8 0 7 0;
#X connect 13 0 1 0;
#X connect 14 0 2 0;
#X connect 15 0 6 0;
#X restore 420 468 pd playeri3;
#N canvas 0 22 429 385 playeri2 0;
#X obj 161 155 hip~ 5;
#X obj 161 113 vline~;
#X obj 161 136 tabread4~;
#X obj 161 174 *~ 0.5;
#X obj 211 23 inlet;
#X text 204 6 vol;
#X obj 28 127 makefilename #0-drum%d;
#X obj 28 94 max 0;
#X obj 27 36 inlet;
#X text 23 17 note/sound;
#X text 66 -7 i1;
#X obj 160 200 outlet~;
#X msg 28 144 \; i2snum set \$1 \; i2phase 1 \, 4.41e+08 1e+07 \;;
#X obj 161 90 r i2phase;
#X obj 118 90 r i2snum;
#X obj 28 109 min 16;
#X connect 0 0 3 0;
#X connect 1 0 2 0;
#X connect 2 0 0 0;
#X connect 3 0 11 0;
#X connect 4 0 3 1;
#X connect 6 0 12 0;
#X connect 7 0 15 0;
#X connect 8 0 7 0;
#X connect 13 0 1 0;
#X connect 14 0 2 0;
#X connect 15 0 6 0;
#X restore 285 466 pd playeri2;
#N canvas 0 22 753 290 rupto 0;
#X obj 69 97 f;
#X obj 88 97 + 1;
#X obj 95 139 sel 1;
#X msg 97 156 0;
#X obj 108 19 inlet;
#X floatatom 134 121 5 0 0 0 - - -;
#X floatatom 58 127 5 0 0 0 - - -;
#X msg 125 39 bang;
#X obj 95 120 >=;
#X obj 63 76 spigot;
#X msg 105 57 1;
#X obj 36 127 t b;
#X obj 64 18 inlet;
#X obj 39 162 outlet;
#X text 55 6 metro;
#X text 106 6 trigbang;
#X text 186 101 send out random bangs at metro freq when triggered
;
#X obj 189 15 inlet;
#X obj 127 79 random 6;
#X connect 0 0 1 0;
#X connect 0 0 6 0;
#X connect 0 0 8 0;
#X connect 0 0 11 0;
#X connect 1 0 0 1;
#X connect 2 0 3 0;
#X connect 3 0 0 1;
#X connect 3 0 9 1;
#X connect 4 0 7 0;
#X connect 4 0 10 0;
#X connect 7 0 18 0;
#X connect 8 0 2 0;
#X connect 9 0 0 0;
#X connect 10 0 9 1;
#X connect 11 0 13 0;
#X connect 12 0 9 0;
#X connect 17 0 18 1;
#X connect 18 0 5 0;
#X connect 18 0 8 1;
#X restore 571 357 pd rupto;
#N canvas 0 22 749 286 rupto 0;
#X obj 69 97 f;
#X obj 88 97 + 1;
#X obj 95 139 sel 1;
#X msg 97 156 0;
#X obj 108 19 inlet;
#X floatatom 134 121 5 0 0 0 - - -;
#X floatatom 58 127 5 0 0 0 - - -;
#X msg 125 39 bang;
#X obj 95 120 >=;
#X obj 63 76 spigot;
#X msg 105 57 1;
#X obj 36 127 t b;
#X obj 64 18 inlet;
#X obj 39 162 outlet;
#X text 55 6 metro;
#X text 106 6 trigbang;
#X text 186 101 send out random bangs at metro freq when triggered
;
#X obj 189 15 inlet;
#X obj 127 79 random 6;
#X connect 0 0 1 0;
#X connect 0 0 6 0;
#X connect 0 0 8 0;
#X connect 0 0 11 0;
#X connect 1 0 0 1;
#X connect 2 0 3 0;
#X connect 3 0 0 1;
#X connect 3 0 9 1;
#X connect 4 0 7 0;
#X connect 4 0 10 0;
#X connect 7 0 18 0;
#X connect 8 0 2 0;
#X connect 9 0 0 0;
#X connect 10 0 9 1;
#X connect 11 0 13 0;
#X connect 12 0 9 0;
#X connect 17 0 18 1;
#X connect 18 0 5 0;
#X connect 18 0 8 1;
#X restore 420 355 pd rupto;
#X obj 325 322 int;
#X floatatom 325 343 5 0 0 0 - - -;
#X obj 287 54 t;
#X obj 389 152 f;
#X floatatom 149 9 5 0 0 0 - - -;
#X floatatom 402 232 5 0 0 0 - - -;
#X obj 332 179 metro 300;
#X obj 423 192 * 0.6;
#X msg 396 132 300;
#X obj 396 115 loadbang;
#X obj 655 332 int;
#X floatatom 654 352 5 0 0 0 - - -;
#X obj 481 320 int;
#X floatatom 481 339 5 0 0 0 - - -;
#X obj 453 1563 dist~;
#X obj 410 518 vcf~;
#X obj 456 1818 *~;
#X obj 346 8 r \$0-busy;
#X floatatom 304 8 5 0 0 0 - - -;
#X obj 196 8 r \$0-swing;
#X obj 388 93 r \$0-speed;
#X obj 641 449 r \$0-snarel;
#X obj 468 1799 r \$0-mainvol;
#X obj 491 449 r \$0-kickl;
#X obj 396 486 r \$0-filf;
#X obj 357 446 r \$0-hhl;
#X obj 326 302 r \$0-hhsteps;
#X obj 482 300 r \$0-kicksteps;
#X obj 655 312 r \$0-snaresteps;
#X obj 647 539 max 0.5;
#X obj 646 523 min 5;
#X obj 647 505 r \$0-distort;
#X obj 76 7 inlet;
#X text 118 4 go;
#X obj 422 169 / 3;
#X floatatom 302 433 5 0 0 0 - - -;
#X obj 445 450 bng 15 250 50 0 empty empty empty 0 -6 0 8 -262144 -1
-1;
#X obj 587 450 bng 15 250 50 0 empty empty empty 0 -6 0 8 -262144 -1
-1;
#X obj 302 448 bng 15 250 50 0 empty empty empty 0 -6 0 8 -262144 -1
-1;
#X obj 340 202 del 100;
#X obj 571 396 change;
#X obj 571 377 random 8;
#X obj 284 361 mod 4;
#X obj 420 393 change;
#X obj 284 394 + 5;
#X obj 420 374 random 5;
#X obj 571 416 + 7;
#X floatatom 629 104 5 0 0 0 - - -;
#X floatatom 629 138 5 0 0 0 - - -;
#X obj 629 85 f;
#X msg 661 66 300;
#X obj 661 48 loadbang;
#X obj 630 29 r \$0-speed;
#X obj 572 174 metro 300;
#X obj 312 179 bng 15 250 50 0 empty empty empty 0 -6 0 8 -262144 -1
-1;
#X obj 629 154 f;
#X obj 687 176 * 0.6;
#X obj 688 156 / 3;
#X obj 631 196 del 100;
#X obj 585 215 f;
#X obj 613 215 + 1;
#X obj 585 234 / 2;
#X obj 585 252 int;
#X obj 585 268 change;
#X obj 548 173 bng 15 250 50 0 empty empty empty 0 -6 0 8 -262144 -1
-1;
#X floatatom 605 310 0 0 144 0 - - -;
#X obj 410 518 vcf~;
#X obj 466 486 r \$0-filq;
#X obj 296 517 vcf~;
#X obj 324 486 r \$0-filq;
#X obj 255 486 r \$0-filf;
#X obj 580 519 vcf~;
#X obj 608 485 r \$0-filq;
#X obj 538 486 r \$0-filf;
#X obj 410 586 *~;
#X obj 580 588 *~;
#X obj 296 546 dist~;
#X obj 410 548 dist~;
#X obj 580 550 dist~;
#X obj 596 568 r \$0-mainvol;
#X obj 426 567 r \$0-mainvol;
#X obj 585 290 mod 8;
#X obj 295 629 outlet~;
#X obj 296 585 *~;
#X obj 312 565 r \$0-mainvol;
#X obj 424 329 sel 0 8;
#X obj 582 330 sel 0 8;
#X obj 629 120 / 25;
#X obj 410 629 outlet~;
#X obj 580 626 outlet~;
#X connect 1 0 85 0;
#X connect 2 0 3 0;
#X connect 2 0 7 0;
#X connect 3 0 2 1;
#X connect 4 0 50 0;
#X connect 5 0 51 0;
#X connect 6 0 0 0;
#X connect 6 0 56 0;
#X connect 7 0 8 0;
#X connect 8 0 9 0;
#X connect 9 0 6 0;
#X connect 10 0 29 0;
#X connect 11 0 82 0;
#X connect 12 0 55 0;
#X connect 13 0 59 0;
#X connect 14 0 15 0;
#X connect 14 0 56 1;
#X connect 16 0 17 0;
#X connect 16 0 69 0;
#X connect 17 0 20 1;
#X connect 17 0 48 0;
#X connect 20 0 2 0;
#X connect 20 0 53 0;
#X connect 20 0 68 0;
#X connect 21 0 19 0;
#X connect 21 0 53 1;
#X connect 22 0 17 0;
#X connect 23 0 22 0;
#X connect 24 0 25 0;
#X connect 24 0 12 2;
#X connect 26 0 27 0;
#X connect 26 0 13 2;
#X connect 28 0 30 0;
#X connect 31 0 7 1;
#X connect 31 0 16 0;
#X connect 31 0 32 0;
#X connect 31 0 75 1;
#X connect 33 0 16 0;
#X connect 33 0 18 0;
#X connect 33 0 21 1;
#X connect 33 0 70 1;
#X connect 34 0 17 0;
#X connect 35 0 1 1;
#X connect 36 0 30 1;
#X connect 37 0 10 1;
#X connect 38 0 29 1;
#X connect 39 0 11 1;
#X connect 40 0 14 0;
#X connect 41 0 26 0;
#X connect 42 0 24 0;
#X connect 43 0 92 1;
#X connect 43 0 91 1;
#X connect 43 0 90 1;
#X connect 44 0 43 0;
#X connect 45 0 44 0;
#X connect 46 0 20 0;
#X connect 46 0 67 0;
#X connect 48 0 21 0;
#X connect 49 0 52 0;
#X connect 53 0 2 0;
#X connect 54 0 60 0;
#X connect 55 0 54 0;
#X connect 56 0 58 0;
#X connect 57 0 10 0;
#X connect 57 0 4 0;
#X connect 58 0 11 0;
#X connect 58 0 49 0;
#X connect 59 0 57 0;
#X connect 60 0 1 0;
#X connect 60 0 5 0;
#X connect 61 0 101 0;
#X connect 62 0 69 0;
#X connect 63 0 61 0;
#X connect 64 0 63 0;
#X connect 65 0 64 0;
#X connect 66 0 63 0;
#X connect 67 0 72 0;
#X connect 67 0 73 0;
#X connect 67 0 78 0;
#X connect 67 0 13 0;
#X connect 67 0 12 0;
#X connect 69 0 71 0;
#X connect 69 0 67 1;
#X connect 70 0 72 1;
#X connect 71 0 70 0;
#X connect 72 0 13 0;
#X connect 72 0 12 0;
#X connect 73 0 74 0;
#X connect 73 0 75 0;
#X connect 74 0 73 1;
#X connect 75 0 76 0;
#X connect 76 0 77 0;
#X connect 77 0 95 0;
#X connect 80 0 91 0;
#X connect 81 0 80 2;
#X connect 82 0 90 0;
#X connect 83 0 82 2;
#X connect 84 0 82 1;
#X connect 85 0 92 0;
#X connect 86 0 85 2;
#X connect 87 0 85 1;
#X connect 88 0 102 0;
#X connect 89 0 103 0;
#X connect 90 0 97 0;
#X connect 91 0 88 0;
#X connect 92 0 89 0;
#X connect 93 0 89 1;
#X connect 94 0 88 1;
#X connect 95 0 79 0;
#X connect 95 0 99 0;
#X connect 95 0 100 0;
#X connect 97 0 96 0;
#X connect 98 0 97 1;
#X connect 99 0 13 1;
#X connect 99 1 13 1;
#X connect 100 0 12 1;
#X connect 100 1 12 1;
#X connect 101 0 62 0;
#X restore 15 -388 pd gubbins;
#X obj 15 -405 tgl 15 0 empty empty start 0 -6 0 8 -262144 -1 -1 0
1;
#X obj 350 -42 s \$0-distort;
#X text 165 -315 Swing augmente le delay entre Hh et (Kr \, Sr);
#X text 166 -303 Busy augmente la densité de la texture;
#X floatatom 491 -124 5 0 0 0 - - -;
#X floatatom 544 -125 5 0 0 0 - - -;
#X floatatom 595 -126 5 0 0 0 - - -;
#X floatatom 493 -307 5 0 0 0 - - -;
#X floatatom 546 -308 5 0 0 0 - - -;
#X floatatom 597 -308 5 0 0 0 - - -;
#X obj 493 -287 * 100;
#X obj 546 -288 / 30;
#X obj 597 -289 / 75;
#X obj 491 -105 * 35;
#X obj 544 -106 / 20;
#X obj 595 -107 / 30;
#N canvas 0 22 544 306 loadsamples 0;
#X obj -9 211 soundfiler;
#X obj 24 159 makefilename #0-drum%d;
#X obj -9 176 pack s s;
#X msg -9 195 read -resize \$1 \$2;
#X msg 29 3 bang;
#X obj 29 37 until;
#X obj 30 69 f 0;
#X obj 57 69 + 1;
#X msg 67 28 0;
#X obj 63 3 loadbang;
#X obj 96 71 sel 14;
#X text 206 91 change path to change sound \, be cautious with naming!
;
#X obj -11 93 makefilename ./kit/2/sound%d.wav;
#X connect 1 0 2 1;
#X connect 2 0 3 0;
#X connect 3 0 0 0;
#X connect 4 0 5 0;
#X connect 5 0 6 0;
#X connect 6 0 7 0;
#X connect 6 0 1 0;
#X connect 6 0 10 0;
#X connect 6 0 12 0;
#X connect 7 0 6 1;
#X connect 8 0 6 1;
#X connect 9 0 5 0;
#X connect 10 0 5 1;
#X connect 10 0 8 0;
#X connect 12 0 2 0;
#X restore 216 -379 pd loadsamples;
#N canvas 0 22 716 241 tables 0;
#X obj 5 10 table #0-drum0 2048;
#X obj 5 27 table #0-drum1 2048;
#X obj 5 43 table #0-drum2 2048;
#X obj 5 55 table #0-drum3 2048;
#X obj 5 71 table #0-drum4 2048;
#X obj 5 88 table #0-drum5 2048;
#X obj 5 102 table #0-drum6 2048;
#X obj 5 118 table #0-drum7 2048;
#X obj 119 11 table #0-drum8 2048;
#X obj 119 27 table #0-drum9 2048;
#X obj 119 43 table #0-drum10 2048;
#X obj 119 57 table #0-drum11 2048;
#X obj 119 72 table #0-drum12 2048;
#X obj 119 88 table #0-drum13 2048;
#X obj 119 102 table #0-drum14 2048;
#X restore 216 -354 pd tables;
#X obj 666 -308 loadbang;
#X floatatom 532 -232 5 0 0 0 - - -;
#X msg 702 -291 0.975;
#X msg 666 -291 419.3;
#X msg 742 -291 0.371;
#X msg 670 -200 4;
#X msg 706 -200 10;
#X msg 746 -200 10;
#X text 215 -397 change sounds here;
#X obj 492 -354 r ctl1;
#X obj 545 -355 r ctl2;
#X obj 596 -356 r ctl3;
#X obj 491 -171 r ctl5;
#X obj 544 -172 r ctl6;
#X obj 595 -173 r ctl7;
#N canvas 0 22 450 300 (subpatch) 0;
#X obj 59 155 inlet;
#X obj 3 89 inlet~;
#X obj 58 182 change;
#X msg 60 246 set \$1;
#X obj 60 227 tosymbol;
#X obj 59 204 sprintf Bus%d;
#X obj 3 282 throw~ Bus0;
#X obj 2 3 popup 124 25 #ffffff popup Bus0 Bus1 Bus2 Bus3 Bus4 Bus5
Bus6 Bus7 Bus8 Bus9 Bus10 Bus11 Bus12 Bus13 Bus14 Bus15 Bus16;
#X obj 1 32 route bang;
#X obj 154 202 *~;
#X obj 141 7 tgl 15 0 empty empty Dac 19 7 0 10 -262144 -1 -1 0 1;
#X obj 155 238 dac~;
#X obj 6 -66 loadbang;
#X text 60 -77 Bus0 mutes everything;
#X text 61 -64 Bus6 goes to dac;
#X msg 6 -48 options Bus0 Bus1 Bus2 Bus3 Bus4 Bus5 Bus6 Bus7 Bus8 Bus9
Bus10 Bus11 Bus12 Bus13 Bus14 Bus15 Bus16;
#X connect 0 0 2 0;
#X connect 1 0 6 0;
#X connect 1 0 9 0;
#X connect 2 0 5 0;
#X connect 3 0 6 0;
#X connect 4 0 3 0;
#X connect 5 0 4 0;
#X connect 7 0 8 0;
#X connect 8 1 2 0;
#X connect 9 0 11 0;
#X connect 9 0 11 1;
#X connect 10 0 9 1;
#X connect 12 0 15 0;
#X connect 15 0 7 0;
#X coords 0 1 100 -1 180 30 1 0 0;
#X restore 14 -367 graph;
#X obj 605 -335 knob 25 25 0 127 0 0 empty empty empty 0 -8 32 8 -1
-260097 -260097 0 1;
#X obj 554 -335 knob 25 25 0 127 0 0 empty empty empty 0 -8 32 8 -1
-260097 -260097 0 1;
#X obj 501 -334 knob 25 25 0 127 0 0 empty empty empty 0 -8 32 8 -1
-260097 -260097 0 1;
#X obj 603 -153 knob 25 25 0 127 0 0 empty empty empty 0 -8 32 8 -1
-260097 -260097 0 1;
#X obj 552 -152 knob 25 25 0 127 0 0 empty empty empty 0 -8 32 8 -1
-260097 -260097 0 1;
#X obj 499 -151 knob 25 25 0 127 0 0 empty empty empty 0 -8 32 8 -1
-260097 -260097 0 1;
#X obj 532 -213 / 25;
#X floatatom 532 -195 5 0 0 0 - - -;
#X connect 4 0 25 0;
#X connect 5 0 27 0;
#X connect 6 0 23 0;
#X connect 7 0 17 0;
#X connect 8 0 18 0;
#X connect 9 0 19 0;
#X connect 9 0 49 0;
#X connect 10 0 20 0;
#X connect 11 0 22 0;
#X connect 12 0 21 0;
#X connect 13 0 31 0;
#X connect 14 0 26 0;
#X connect 15 0 24 0;
#X connect 16 0 28 0;
#X connect 29 0 63 0;
#X connect 29 1 63 0;
#X connect 30 0 29 0;
#X connect 34 0 43 0;
#X connect 35 0 44 0;
#X connect 36 0 45 0;
#X connect 37 0 40 0;
#X connect 38 0 41 0;
#X connect 39 0 42 0;
#X connect 40 0 9 0;
#X connect 41 0 7 0;
#X connect 42 0 8 0;
#X connect 43 0 14 0;
#X connect 44 0 15 0;
#X connect 45 0 13 0;
#X connect 48 0 51 0;
#X connect 48 0 50 0;
#X connect 48 0 52 0;
#X connect 48 0 53 0;
#X connect 48 0 54 0;
#X connect 48 0 55 0;
#X connect 49 0 70 0;
#X connect 50 0 7 0;
#X connect 51 0 9 0;
#X connect 52 0 8 0;
#X connect 53 0 10 0;
#X connect 54 0 12 0;
#X connect 55 0 11 0;
#X connect 57 0 37 0;
#X connect 57 0 66 0;
#X connect 58 0 38 0;
#X connect 58 0 65 0;
#X connect 59 0 39 0;
#X connect 59 0 64 0;
#X connect 60 0 34 0;
#X connect 60 0 69 0;
#X connect 61 0 35 0;
#X connect 61 0 68 0;
#X connect 62 0 36 0;
#X connect 62 0 67 0;
#X connect 64 0 39 0;
#X connect 65 0 38 0;
#X connect 66 0 37 0;
#X connect 67 0 36 0;
#X connect 68 0 35 0;
#X connect 69 0 34 0;
#X connect 70 0 71 0;
