#N canvas 0 40 1024 728 10;
#X obj 17 178 outlet~;
#X obj 98 -223 inlet bpm;
#X obj 160 -223 inlet notelen;
#X obj 133 -356 loadbang;
#X obj 15 -272 inlet~;
#X obj 98 -201 \$1;
#X obj 160 -202 \$2;
#X obj 133 -327 t b b;
#X obj 16 -10 expr~ if($f3!=0 \, $v2 \, $v1) \;;
#X obj 190 -204 inlet transpose;
#X obj 15 -249 s~ \$0-audio;
#N canvas 0 22 1024 728 gater 0;
#X obj 301 143 phasor~;
#X msg 212 228 1;
#X obj 212 103 sel 1 0;
#X msg 231 228 0;
#X obj 301 118 expr (1000/$f1);
#X obj 301 166 expr~ $v1>$f2;
#X obj 456 58 inlet pw;
#X obj 286 249 *~;
#X obj 518 59 inlet sm;
#X obj 301 210 *~ 0.5;
#X obj 301 230 clip~ 0 1;
#X obj 301 187 bp~ 10 0;
#X msg 405 120 0;
#X obj 287 294 outlet~ audio;
#X obj 387 294 outlet on/off;
#X obj 143 91 loadbang;
#X obj 410 28 t b f;
#X obj 302 51 expr (240/$f1*1000)/$f2;
#X obj 302 1 inlet bpm;
#X obj 410 1 inlet notelen;
#X obj 212 56 inlet key;
#X obj 95 233 inlet~;
#X connect 0 0 5 0;
#X connect 1 0 14 0;
#X connect 2 0 1 0;
#X connect 2 0 12 0;
#X connect 2 1 3 0;
#X connect 3 0 14 0;
#X connect 4 0 0 0;
#X connect 5 0 11 0;
#X connect 6 0 5 1;
#X connect 7 0 13 0;
#X connect 8 0 11 2;
#X connect 9 0 10 0;
#X connect 10 0 7 1;
#X connect 11 0 9 0;
#X connect 12 0 0 1;
#X connect 15 0 3 0;
#X connect 16 0 17 0;
#X connect 16 1 17 1;
#X connect 17 0 4 0;
#X connect 18 0 17 0;
#X connect 19 0 16 0;
#X connect 20 0 2 0;
#X connect 21 0 7 0;
#X restore 342 6 pd gater;
#X obj 375 -254 inlet pw;
#X obj 387 -203 inlet sm;
#X obj 16 23 expr~ if($f3!=0 \, $v2 \, $v1) \;;
#N canvas 0 40 1024 728 reverser 0;
#X obj 81 -218 loadbang;
#X obj 282 -107 phasor~;
#X msg 62 -124 1;
#X obj 62 -151 sel 1 0;
#X obj 183 -91 *~;
#X obj 104 -19 *~;
#X msg 376 -134 0;
#X msg 81 -124 0;
#N canvas 0 22 450 300 crown 0;
#X obj 112 -68 cos~;
#X obj 115 -131 inlet~ phasor;
#X obj 113 53 outlet~;
#X obj 112 3 clip~ -0.5 0.5;
#X obj 113 -89 *~ 0.5;
#X obj 114 -110 -~ 0.5;
#X obj 112 27 *~ 2;
#X obj 113 -28 *~ 4.5;
#X connect 0 0 7 0;
#X connect 1 0 5 0;
#X connect 3 0 6 0;
#X connect 4 0 0 0;
#X connect 5 0 4 0;
#X connect 6 0 2 0;
#X connect 7 0 3 0;
#X restore 281 -37 pd crown;
#X obj 282 -136 expr (2000/$f1);
#X obj 105 -49 expr~ if($f3!=0 \, $v2 \, $v1) \;;
#X obj 104 42 outlet~ audio;
#X obj 207 46 outlet on/off;
#X obj 183 -177 expr (240/$f1*1000)/$f2;
#X obj 183 -213 inlet bpm;
#X obj 283 -233 inlet notelen;
#X obj 283 -209 t b f;
#X obj 151 7 delwrite~ \$0-del-rev 4000;
#X obj 183 -71 vd~ \$0-del-rev;
#X obj 62 -182 inlet key;
#X obj 44 -65 inlet~;
#X connect 0 0 7 0;
#X connect 1 0 4 1;
#X connect 1 0 8 0;
#X connect 2 0 12 0;
#X connect 2 0 10 2;
#X connect 3 0 2 0;
#X connect 3 0 6 0;
#X connect 3 1 7 0;
#X connect 4 0 18 0;
#X connect 5 0 11 0;
#X connect 6 0 1 1;
#X connect 7 0 12 0;
#X connect 7 0 10 2;
#X connect 8 0 5 1;
#X connect 9 0 1 0;
#X connect 10 0 5 0;
#X connect 10 0 17 0;
#X connect 13 0 9 0;
#X connect 13 0 4 0;
#X connect 14 0 13 0;
#X connect 15 0 16 0;
#X connect 16 0 13 0;
#X connect 16 1 13 1;
#X connect 18 0 10 1;
#X connect 19 0 3 0;
#X connect 20 0 10 0;
#X restore 401 39 pd reverser;
#X obj 16 56 expr~ if($f3!=0 \, $v2 \, $v1) \;;
#X obj 464 -223 inlet rev_notelen;
#N canvas 0 22 784 645 tape_stop 0;
#X obj 82 -349 loadbang;
#X msg 61 -48 1;
#X obj 62 -187 sel 1 0;
#X msg 62 -115 start;
#X msg 81 -48 0;
#X msg 101 -115 stop;
#X obj 62 -92 tabwrite~ \$0-tape;
#X obj 101 -141 del 1000;
#X obj 200 46 outlet on/off;
#X obj 114 48 outlet~ audio;
#X obj 185 -72 tabread4~ \$0-tape;
#X msg 224 -149 0;
#X obj 186 -123 sig~;
#X obj 184 -189 del 20;
#X obj 184 -98 lop~;
#X msg 254 -150 1.4;
#X msg 286 -150 120;
#X msg 254 -206 set \$1;
#X obj 183 -349 inlet speed;
#X msg 182 -150 5000;
#X obj 311 4 table \$0-tape 5000;
#X obj 185 20 *~ 2;
#X obj 186 -6 lop~ 4000;
#X obj 186 -46 hip~ 1000;
#X obj 62 -231 inlet key;
#X obj 18 -269 inlet~;
#X connect 0 0 4 0;
#X connect 1 0 8 0;
#X connect 2 0 1 0;
#X connect 2 0 3 0;
#X connect 2 0 7 0;
#X connect 2 0 15 0;
#X connect 2 0 13 0;
#X connect 2 1 4 0;
#X connect 2 1 11 0;
#X connect 2 1 16 0;
#X connect 3 0 6 0;
#X connect 4 0 8 0;
#X connect 5 0 6 0;
#X connect 7 0 5 0;
#X connect 10 0 23 0;
#X connect 11 0 12 0;
#X connect 12 0 14 0;
#X connect 13 0 19 0;
#X connect 14 0 10 0;
#X connect 15 0 14 1;
#X connect 16 0 14 1;
#X connect 17 0 15 0;
#X connect 18 0 17 0;
#X connect 19 0 12 0;
#X connect 21 0 9 0;
#X connect 22 0 21 0;
#X connect 23 0 22 0;
#X connect 24 0 2 0;
#X connect 25 0 6 0;
#X restore 767 72 pd tape_stop;
#X obj 16 88 expr~ if($f3!=0 \, $v2 \, $v1) \;;
#N canvas 0 22 1024 728 phaser 0;
#X obj 346 -123 t b f;
#X obj 238 -125 inlet bpm;
#X obj 238 -209 loadbang;
#X msg 158 -192 1;
#X obj 158 -227 sel 1 0;
#X msg 177 -192 0;
#X msg 387 -63 0;
#X obj 283 -40 phasor~;
#X obj 96 160 +~;
#X obj 238 -100 expr (240/$f1*1000)*$f2;
#X obj 346 -145 inlet bars;
#X obj 354 -214 inlet range;
#X obj 96 186 /~ 2;
#X obj 283 -18 expr~ (abs($v1-0.5)*4)-1;
#X obj 426 -214 inlet center;
#X obj 464 55 s \$0-q;
#N canvas 0 22 450 300 allp 0;
#X obj 152 78 inlet~;
#X obj 161 194 outlet~;
#X obj 202 81 r \$0-f;
#X obj 248 80 r \$0-q;
#X obj 169 135 ap2~;
#X connect 0 0 4 0;
#X connect 2 0 4 1;
#X connect 3 0 4 2;
#X connect 4 0 1 0;
#X restore 182 -77 pd allp;
#X obj 283 5 unsig~ 11;
#X obj 303 96 s \$0-f;
#N canvas 0 22 450 300 allp 0;
#X obj 152 78 inlet~;
#X obj 161 194 outlet~;
#X obj 169 135 ap2~;
#X obj 202 81 r \$0-f;
#X obj 248 80 r \$0-q;
#X connect 0 0 2 0;
#X connect 2 0 1 0;
#X connect 3 0 2 1;
#X connect 4 0 2 2;
#X restore 182 -57 pd allp;
#N canvas 0 22 450 300 allp 0;
#X obj 152 78 inlet~;
#X obj 161 194 outlet~;
#X obj 169 135 ap2~;
#X obj 202 81 r \$0-f;
#X obj 248 80 r \$0-q;
#X connect 0 0 2 0;
#X connect 2 0 1 0;
#X connect 3 0 2 1;
#X connect 4 0 2 2;
#X restore 182 -37 pd allp;
#N canvas 0 22 450 300 allp 0;
#X obj 152 78 inlet~;
#X obj 161 194 outlet~;
#X obj 169 135 ap2~;
#X obj 202 81 r \$0-f;
#X obj 248 80 r \$0-q;
#X connect 0 0 2 0;
#X connect 2 0 1 0;
#X connect 3 0 2 1;
#X connect 4 0 2 2;
#X restore 182 -17 pd allp;
#N canvas 0 22 450 300 allp 0;
#X obj 152 78 inlet~;
#X obj 161 194 outlet~;
#X obj 169 135 ap2~;
#X obj 202 81 r \$0-f;
#X obj 248 80 r \$0-q;
#X connect 0 0 2 0;
#X connect 2 0 1 0;
#X connect 3 0 2 1;
#X connect 4 0 2 2;
#X restore 182 3 pd allp;
#N canvas 0 22 450 300 allp 0;
#X obj 152 78 inlet~;
#X obj 161 194 outlet~;
#X obj 169 135 ap2~;
#X obj 202 81 r \$0-f;
#X obj 248 80 r \$0-q;
#X connect 0 0 2 0;
#X connect 2 0 1 0;
#X connect 3 0 2 1;
#X connect 4 0 2 2;
#X restore 182 23 pd allp;
#N canvas 0 22 450 300 allp 0;
#X obj 152 78 inlet~;
#X obj 161 194 outlet~;
#X obj 169 135 ap2~;
#X obj 202 81 r \$0-f;
#X obj 248 80 r \$0-q;
#X connect 0 0 2 0;
#X connect 2 0 1 0;
#X connect 3 0 2 1;
#X connect 4 0 2 2;
#X restore 182 43 pd allp;
#N canvas 0 22 450 300 allp 0;
#X obj 152 78 inlet~;
#X obj 161 194 outlet~;
#X obj 169 135 ap2~;
#X obj 202 81 r \$0-f;
#X obj 248 80 r \$0-q;
#X connect 0 0 2 0;
#X connect 2 0 1 0;
#X connect 3 0 2 1;
#X connect 4 0 2 2;
#X restore 182 63 pd allp;
#X obj 326 30 bang;
#N canvas 0 22 450 300 allp 0;
#X obj 152 78 inlet~;
#X obj 161 194 outlet~;
#X obj 169 135 ap2~;
#X obj 202 81 r \$0-f;
#X obj 248 80 r \$0-q;
#X connect 0 0 2 0;
#X connect 2 0 1 0;
#X connect 3 0 2 1;
#X connect 4 0 2 2;
#X restore 182 83 pd allp;
#N canvas 0 22 450 300 allp 0;
#X obj 152 78 inlet~;
#X obj 161 194 outlet~;
#X obj 169 135 ap2~;
#X obj 202 81 r \$0-f;
#X obj 248 80 r \$0-q;
#X connect 0 0 2 0;
#X connect 2 0 1 0;
#X connect 3 0 2 1;
#X connect 4 0 2 2;
#X restore 182 103 pd allp;
#N canvas 0 22 450 300 allp 0;
#X obj 152 78 inlet~;
#X obj 161 194 outlet~;
#X obj 169 135 ap2~;
#X obj 202 81 r \$0-f;
#X obj 248 80 r \$0-q;
#X connect 0 0 2 0;
#X connect 2 0 1 0;
#X connect 3 0 2 1;
#X connect 4 0 2 2;
#X restore 182 123 pd allp;
#N canvas 0 22 450 300 allp 0;
#X obj 152 78 inlet~;
#X obj 161 194 outlet~;
#X obj 169 135 ap2~;
#X obj 202 81 r \$0-f;
#X obj 248 80 r \$0-q;
#X connect 0 0 2 0;
#X connect 2 0 1 0;
#X connect 3 0 2 1;
#X connect 4 0 2 2;
#X restore 182 143 pd allp;
#X obj 303 56 expr $f1*($f2)+$f3;
#X obj 303 75 mtof;
#X obj 283 -65 expr (1000/$f1);
#X obj 614 -215 inlet phase;
#X msg 614 -167 set \$1;
#X obj 464 31 0.5;
#X text 580 31 further inlets: 1st for trigger \, 6th for stronger
effect (0-1) and 7th for lfo phase.;
#X obj 177 214 outlet on/off;
#X obj 97 264 outlet~ audio;
#X obj 97 233 *~;
#X obj 112 -118 line;
#X msg 112 -143 1 30;
#X msg 145 -142 0;
#X obj 112 -167 t b b;
#X obj 158 -251 inlet key;
#X obj 95 -95 inlet~;
#X connect 0 0 9 0;
#X connect 0 1 9 1;
#X connect 1 0 9 0;
#X connect 2 0 5 0;
#X connect 2 0 36 0;
#X connect 3 0 38 0;
#X connect 4 0 3 0;
#X connect 4 0 6 0;
#X connect 4 0 44 0;
#X connect 4 1 5 0;
#X connect 5 0 38 0;
#X connect 6 0 7 1;
#X connect 7 0 13 0;
#X connect 8 0 12 0;
#X connect 9 0 33 0;
#X connect 10 0 0 0;
#X connect 11 0 26 0;
#X connect 11 0 31 1;
#X connect 12 0 40 0;
#X connect 13 0 17 0;
#X connect 14 0 26 0;
#X connect 14 0 31 2;
#X connect 16 0 19 0;
#X connect 17 0 31 0;
#X connect 19 0 20 0;
#X connect 20 0 21 0;
#X connect 21 0 22 0;
#X connect 21 0 8 1;
#X connect 22 0 23 0;
#X connect 23 0 24 0;
#X connect 24 0 25 0;
#X connect 25 0 27 0;
#X connect 25 0 8 1;
#X connect 26 0 31 0;
#X connect 27 0 28 0;
#X connect 28 0 29 0;
#X connect 29 0 30 0;
#X connect 30 0 8 1;
#X connect 31 0 32 0;
#X connect 32 0 18 0;
#X connect 33 0 7 0;
#X connect 34 0 35 0;
#X connect 35 0 6 0;
#X connect 36 0 15 0;
#X connect 40 0 39 0;
#X connect 41 0 40 1;
#X connect 42 0 41 0;
#X connect 43 0 41 0;
#X connect 44 0 42 0;
#X connect 44 1 43 0;
#X connect 45 0 4 0;
#X connect 46 0 16 0;
#X connect 46 0 8 0;
#X restore 577 106 pd phaser;
#X obj 589 -223 inlet phaser_notelen;
#X obj 16 122 expr~ if($f3!=0 \, $v2 \, $v1) \;;
#X obj 615 -158 inlet center_p;
#X obj 602 -203 inlet range_p;
#X obj 628 -119 inlet phase;
#X obj 836 -202 inlet sl_down;
#X obj 16 155 expr~ if($f3!=0 \, $v2 \, $v1) \;;
#N canvas 0 22 685 501 crusher 0;
#X obj 165 199 expr~ int($v1);
#X obj 166 178 /~;
#X obj 166 219 *~;
#X obj 166 334 outlet~;
#X obj 181 158 sig~;
#X obj 182 105 inlet bit;
#X obj 277 116 inlet sr;
#X obj 167 247 samphold~;
#X obj 277 199 phasor~;
#X obj 277 178 sig~;
#X obj 277 158 expr (1-$f1)*44100;
#X msg 12 288 1;
#X obj 12 163 sel 1 0;
#X msg 31 288 0;
#X obj 217 334 outlet on/off;
#X obj -57 151 loadbang;
#X floatatom 352 244 5 0 0 0 - - -;
#X floatatom 269 244 5 0 0 0 - - -;
#X obj 12 117 inlet key;
#X obj -110 159 inlet~;
#X connect 0 0 2 0;
#X connect 1 0 0 0;
#X connect 2 0 7 0;
#X connect 4 0 2 1;
#X connect 4 0 1 1;
#X connect 5 0 4 0;
#X connect 5 0 17 0;
#X connect 6 0 10 0;
#X connect 6 0 16 0;
#X connect 7 0 3 0;
#X connect 8 0 7 1;
#X connect 9 0 8 0;
#X connect 10 0 9 0;
#X connect 11 0 14 0;
#X connect 12 0 11 0;
#X connect 12 1 13 0;
#X connect 13 0 14 0;
#X connect 15 0 13 0;
#X connect 18 0 12 0;
#X connect 19 0 1 0;
#X restore 445 159 pd crusher;
#X obj 719 -223 inlet bit;
#X obj 776 -205 inlet SR;
#X obj 280 -223 inlet notelen;
#X obj 280 -186 \$3;
#X obj 375 -229 \$4;
#X obj 387 -181 \$5;
#X obj 464 -201 \$6;
#X obj 589 -198 \$7;
#X obj 602 -178 \$8;
#X obj 615 -134 \$9;
#X obj 628 -95 \$10;
#X obj 719 -182 \$11;
#X obj 776 -174 \$12;
#X obj 836 -179 \$13;
#X obj 704 -494 key;
#X msg 704 -470 1;
#X msg 743 -470 0;
#X obj 743 -495 keyup;
#X obj 659 -442 pack f f;
#X obj 659 -418 route 113 119 101 114 116 122;
#X obj 659 -396 change;
#X obj 687 -380 change;
#X obj 716 -397 change;
#X obj 744 -381 change;
#X obj 773 -397 change;
#X obj 801 -381 change;
#N canvas 0 40 1024 728 stutter 0;
#X obj 301 -107 phasor~;
#X msg 62 42 1;
#X obj 62 -205 sel 1 0;
#X obj 63 -2 tabwrite~ \$0-buffer;
#X msg 63 -95 start;
#X obj 183 -91 *~;
#X obj 184 -70 tabread~ \$0-buffer;
#X obj 184 -49 *~;
#X msg 82 42 0;
#X obj 101 -141 del 2000;
#X msg 101 -115 stop;
#X obj 183 -144 * 44.1;
#X obj 301 -162 expr (1000/$f1);
#N canvas 0 22 450 300 crown 0;
#X obj 112 -68 cos~;
#X obj 115 -131 inlet~ phasor;
#X obj 113 53 outlet~;
#X obj 112 3 clip~ -0.5 0.5;
#X obj 113 -89 *~ 0.5;
#X obj 114 -110 -~ 0.5;
#X obj 112 27 *~ 2;
#X obj 113 -28 *~ 4.5;
#X connect 0 0 7 0;
#X connect 1 0 5 0;
#X connect 3 0 6 0;
#X connect 4 0 0 0;
#X connect 5 0 4 0;
#X connect 6 0 2 0;
#X connect 7 0 3 0;
#X restore 300 -67 pd crown;
#N canvas 0 40 1024 728 granulizer 0;
#X obj 567 230 inlet~;
#X obj 150 617 outlet~;
#X obj 142 417 phasor~;
#X obj 142 552 *~;
#X obj 142 390 sig~;
#X obj 280 339 t b f;
#X obj 222 454 wrap~;
#X obj 223 553 *~;
#X obj 156 532 samphold~;
#X obj 237 533 samphold~;
#X obj 285 296 int;
#X obj 142 237 inlet transpose;
#X obj 280 231 inlet grain_size;
#N canvas 0 22 450 300 (subpatch) 0;
#X obj 114 -110 -~ 0.5;
#X obj 113 -89 *~ 0.5;
#X obj 112 -68 cos~;
#X obj 112 -48 *~;
#X obj 113 -27 outlet~;
#X obj 128 -130 inlet~ audio;
#X obj 115 -153 inlet~ phasor;
#X connect 0 0 1 0;
#X connect 1 0 2 0;
#X connect 2 0 3 0;
#X connect 3 0 4 0;
#X connect 5 0 3 1;
#X connect 6 0 0 0;
#X restore 208 601 pd;
#X obj 438 224 inlet phasor_rst;
#N canvas 0 22 450 300 (subpatch) 0;
#X obj 114 -110 -~ 0.5;
#X obj 113 -89 *~ 0.5;
#X obj 112 -68 cos~;
#X obj 112 -48 *~;
#X obj 113 -27 outlet~;
#X obj 128 -130 inlet~ audio;
#X obj 115 -153 inlet~ phasor;
#X connect 0 0 1 0;
#X connect 1 0 2 0;
#X connect 2 0 3 0;
#X connect 3 0 4 0;
#X connect 5 0 3 1;
#X connect 6 0 0 0;
#X restore 125 599 pd;
#X obj 221 435 +~ 0.5;
#X obj 143 573 vd~ \$0-del;
#X obj 224 573 vd~ \$0-del;
#X obj 140 368 expr (pow(2 \, $f1/120)-1)*(1000/$f2);
#X obj 567 260 delwrite~ \$0-del 2000;
#X obj 143 487 *~ -1;
#X obj 143 509 +~ 1;
#X obj 223 486 *~ -1;
#X obj 223 508 +~ 1;
#X connect 0 0 20 0;
#X connect 2 0 8 1;
#X connect 2 0 16 0;
#X connect 2 0 15 0;
#X connect 2 0 21 0;
#X connect 3 0 17 0;
#X connect 4 0 2 0;
#X connect 5 0 19 0;
#X connect 5 1 19 1;
#X connect 6 0 9 1;
#X connect 6 0 13 0;
#X connect 6 0 23 0;
#X connect 7 0 18 0;
#X connect 8 0 3 1;
#X connect 9 0 7 1;
#X connect 10 0 5 0;
#X connect 10 0 8 0;
#X connect 10 0 9 0;
#X connect 11 0 19 0;
#X connect 12 0 10 0;
#X connect 13 0 1 0;
#X connect 14 0 2 1;
#X connect 15 0 1 0;
#X connect 16 0 6 0;
#X connect 17 0 15 1;
#X connect 18 0 13 1;
#X connect 19 0 4 0;
#X connect 21 0 22 0;
#X connect 22 0 3 0;
#X connect 23 0 24 0;
#X connect 24 0 7 0;
#X restore 95 181 pd granulizer;
#X obj 426 -231 inlet transpose;
#X obj 96 223 outlet~ audio;
#X obj 195 224 outlet on/off;
#X obj 155 -295 inlet bpm;
#X obj 263 -291 inlet notelen;
#X obj 3 -229 loadbang;
#X obj 4 -142 r~ \$0-audio;
#X obj 247 -167 t b f;
#X obj 263 -257 t b f;
#X obj 155 -209 expr (240/$f1*1000)/$f2;
#X obj 62 -229 inlet key;
#X obj 155 -123 expr $f1/((1440/$f2)/sqrt($f3));
#X obj 221 182 table \$0-buffer 88200;
#X msg 396 -170 1;
#X connect 0 0 5 1;
#X connect 0 0 13 0;
#X connect 1 0 17 0;
#X connect 2 0 9 0;
#X connect 2 0 4 0;
#X connect 2 0 28 0;
#X connect 2 0 1 0;
#X connect 2 1 8 0;
#X connect 4 0 3 0;
#X connect 5 0 6 0;
#X connect 6 0 7 0;
#X connect 7 0 14 3;
#X connect 8 0 17 0;
#X connect 9 0 10 0;
#X connect 10 0 3 0;
#X connect 11 0 5 0;
#X connect 12 0 0 0;
#X connect 13 0 7 1;
#X connect 14 0 16 0;
#X connect 15 0 14 0;
#X connect 18 0 22 0;
#X connect 18 0 24 0;
#X connect 19 0 23 0;
#X connect 20 0 8 0;
#X connect 21 0 3 0;
#X connect 22 0 26 0;
#X connect 22 1 26 1;
#X connect 23 0 24 0;
#X connect 23 0 26 0;
#X connect 23 1 24 1;
#X connect 23 1 26 2;
#X connect 24 0 11 0;
#X connect 24 0 12 0;
#X connect 24 0 26 0;
#X connect 25 0 2 0;
#X connect 26 0 14 1;
#X connect 28 0 0 1;
#X connect 28 0 14 2;
#X restore 187 -27 pd stutter;
#X obj 978 -373 inlet;
#X obj 1006 -313 inlet;
#X obj 1022 -260 inlet;
#X obj 1028 -183 inlet;
#X obj 1008 -124 inlet;
#X obj 1006 -72 inlet;
#X connect 1 0 5 0;
#X connect 2 0 6 0;
#X connect 3 0 7 0;
#X connect 3 0 33 0;
#X connect 3 0 34 0;
#X connect 3 0 35 0;
#X connect 3 0 32 0;
#X connect 3 0 36 0;
#X connect 3 0 37 0;
#X connect 3 0 38 0;
#X connect 3 0 39 0;
#X connect 3 0 40 0;
#X connect 3 0 41 0;
#X connect 4 0 8 0;
#X connect 4 0 10 0;
#X connect 5 0 15 2;
#X connect 5 0 20 2;
#X connect 5 0 11 2;
#X connect 5 0 55 1;
#X connect 6 0 55 2;
#X connect 7 0 5 0;
#X connect 7 1 6 0;
#X connect 8 0 14 0;
#X connect 8 0 11 0;
#X connect 9 0 55 3;
#X connect 11 0 14 1;
#X connect 11 1 14 2;
#X connect 12 0 33 0;
#X connect 13 0 34 0;
#X connect 14 0 16 0;
#X connect 14 0 15 0;
#X connect 15 0 16 1;
#X connect 15 1 16 2;
#X connect 16 0 19 0;
#X connect 16 0 18 0;
#X connect 17 0 35 0;
#X connect 18 0 19 1;
#X connect 18 1 19 2;
#X connect 19 0 22 0;
#X connect 19 0 20 0;
#X connect 20 0 22 1;
#X connect 20 1 22 2;
#X connect 21 0 36 0;
#X connect 22 0 27 0;
#X connect 22 0 28 0;
#X connect 23 0 38 0;
#X connect 24 0 37 0;
#X connect 25 0 39 0;
#X connect 26 0 42 0;
#X connect 27 0 0 0;
#X connect 28 0 27 1;
#X connect 28 1 27 2;
#X connect 29 0 40 0;
#X connect 30 0 41 0;
#X connect 31 0 32 0;
#X connect 32 0 11 3;
#X connect 33 0 11 4;
#X connect 34 0 11 5;
#X connect 35 0 15 3;
#X connect 36 0 20 3;
#X connect 37 0 20 4;
#X connect 38 0 20 5;
#X connect 39 0 20 6;
#X connect 40 0 28 2;
#X connect 41 0 28 3;
#X connect 42 0 18 2;
#X connect 43 0 44 0;
#X connect 43 0 47 0;
#X connect 44 0 47 1;
#X connect 45 0 47 1;
#X connect 46 0 45 0;
#X connect 46 0 47 0;
#X connect 47 0 48 0;
#X connect 48 0 49 0;
#X connect 48 1 50 0;
#X connect 48 2 51 0;
#X connect 48 3 52 0;
#X connect 48 4 53 0;
#X connect 48 5 54 0;
#X connect 49 0 55 0;
#X connect 50 0 11 1;
#X connect 51 0 15 1;
#X connect 52 0 20 1;
#X connect 53 0 28 1;
#X connect 54 0 18 1;
#X connect 55 0 8 1;
#X connect 55 1 8 2;
#X connect 56 0 55 0;
#X connect 57 0 11 1;
#X connect 58 0 15 1;
#X connect 59 0 20 1;
#X connect 60 0 28 1;
#X connect 61 0 18 1;
