#N canvas 695 600 526 598 12;
#X declare -path z_objetsvolants_abs;
#X obj 78 449 vol2;
#X obj 14 20 tgl 25 0 empty empty start/stop 28 8 1 12 -258113 -1 -1
1 1;
#N canvas 0 22 337 144 bus 0;
#X obj 80 39 catch~ \$0-l;
#X obj 177 39 catch~ \$0-r;
#X obj 94 68 outlet~ l;
#X obj 177 68 outlet~ r;
#X connect 0 0 2 0;
#X connect 1 0 3 0;
#X restore 53 114 pd bus;
#X obj 14 49 s \$0-s;
#N canvas 0 22 315 473 unit 0;
#X obj 44 84 bng 15 250 50 0 empty empty empty 17 7 0 10 -262144 -1
-1;
#X obj 42 187 osc~ 500;
#X obj 41 346 *~;
#X obj 62 293 line~;
#X msg 62 216 1 3000;
#X msg 73 268 0 4000;
#X obj 73 243 delay 3000;
#X obj 58 41 metro 10000;
#X obj 65 66 random 5000;
#X obj 66 90 + 7000;
#X obj 43 163 mtof;
#X obj 62 320 *~;
#X obj 41 395 balance;
#N canvas 0 22 368 154 bus 0;
#X obj 92 80 throw~ \$0-l;
#X obj 92 105 throw~ \$0-r;
#X obj 70 43 inlet~ l;
#X obj 144 43 inlet~ r;
#X connect 2 0 0 0;
#X connect 3 0 1 0;
#X restore 44 430 pd bus;
#X obj 94 321 bing;
#X obj 58 15 r \$0-s;
#X obj 43 115 random 48;
#X obj 167 243 t b f;
#X msg 167 267 1;
#X floatatom 167 315 5 0 0 0 - - -;
#X obj 167 291 -;
#X floatatom 129 116 5 0 0 0 - - -;
#X obj 41 370 *~;
#X obj 43 139 + 35;
#X obj 167 217 / 70;
#X msg 94 346 \$1 7000;
#X obj 94 370 line;
#X connect 0 0 4 0;
#X connect 0 0 6 0;
#X connect 0 0 14 0;
#X connect 0 0 16 0;
#X connect 1 0 2 0;
#X connect 2 0 22 0;
#X connect 3 0 11 0;
#X connect 3 0 11 1;
#X connect 4 0 3 0;
#X connect 5 0 3 0;
#X connect 6 0 5 0;
#X connect 7 0 8 0;
#X connect 7 0 0 0;
#X connect 8 0 9 0;
#X connect 9 0 7 1;
#X connect 10 0 1 0;
#X connect 11 0 2 1;
#X connect 12 0 13 0;
#X connect 12 1 13 1;
#X connect 14 0 25 0;
#X connect 15 0 7 0;
#X connect 16 0 21 0;
#X connect 16 0 23 0;
#X connect 16 0 24 0;
#X connect 17 0 18 0;
#X connect 17 1 20 1;
#X connect 18 0 20 0;
#X connect 19 0 22 1;
#X connect 20 0 19 0;
#X connect 22 0 12 0;
#X connect 23 0 10 0;
#X connect 24 0 17 0;
#X connect 25 0 26 0;
#X connect 26 0 12 1;
#X restore 114 21 pd unit;
#X obj 46 142 *~ 0.1;
#X obj 104 142 *~ 0.1;
#X obj 136 258 *~;
#X obj 160 208 line~;
#X obj 178 139 bng 15 250 50 0 empty empty empty 17 7 0 10 -262144
-1 -1;
#X obj 92 288 *~;
#X obj 233 223 varia 300;
#X obj 233 198 r \$0-s;
#X obj 212 227 vsl 15 40 0 1 0 0 empty empty empty 0 -9 0 10 -258113
-1 -1 3531 1;
#X obj 192 110 metro 1000;
#X obj 192 85 r \$0-s;
#X obj 233 248 * 3000;
#X obj 202 135 random 3000;
#X msg 161 184 1 30;
#X msg 204 184 0 3;
#X obj 203 159 delay 30;
#X obj 316 157 r \$0-s;
#X obj 316 208 vsl 15 40 0 1 0 0 empty empty empty 0 -9 0 10 -258113
-1 -1 1444 1;
#X obj 316 182 varia 200;
#X obj 214 372 loadbang;
#X msg 214 397 \; pd dsp 1;
#N canvas 0 22 315 473 unit 0;
#X obj 44 84 bng 15 250 50 0 empty empty empty 17 7 0 10 -262144 -1
-1;
#X obj 42 187 osc~ 500;
#X obj 41 346 *~;
#X obj 62 293 line~;
#X msg 62 216 1 3000;
#X msg 73 268 0 4000;
#X obj 73 243 delay 3000;
#X obj 58 41 metro 10000;
#X obj 65 66 random 5000;
#X obj 66 90 + 7000;
#X obj 43 163 mtof;
#X obj 62 320 *~;
#X obj 41 395 balance;
#N canvas 0 22 368 154 bus 0;
#X obj 92 80 throw~ \$0-l;
#X obj 92 105 throw~ \$0-r;
#X obj 70 43 inlet~ l;
#X obj 144 43 inlet~ r;
#X connect 2 0 0 0;
#X connect 3 0 1 0;
#X restore 44 430 pd bus;
#X obj 94 321 bing;
#X obj 58 15 r \$0-s;
#X obj 43 115 random 48;
#X obj 167 243 t b f;
#X msg 167 267 1;
#X floatatom 167 315 5 0 0 0 - - -;
#X obj 167 291 -;
#X floatatom 129 116 5 0 0 0 - - -;
#X obj 41 370 *~;
#X obj 43 139 + 35;
#X obj 167 217 / 70;
#X msg 94 346 \$1 7000;
#X obj 94 370 line;
#X connect 0 0 4 0;
#X connect 0 0 6 0;
#X connect 0 0 14 0;
#X connect 0 0 16 0;
#X connect 1 0 2 0;
#X connect 2 0 22 0;
#X connect 3 0 11 0;
#X connect 3 0 11 1;
#X connect 4 0 3 0;
#X connect 5 0 3 0;
#X connect 6 0 5 0;
#X connect 7 0 8 0;
#X connect 7 0 0 0;
#X connect 8 0 9 0;
#X connect 9 0 7 1;
#X connect 10 0 1 0;
#X connect 11 0 2 1;
#X connect 12 0 13 0;
#X connect 12 1 13 1;
#X connect 14 0 25 0;
#X connect 15 0 7 0;
#X connect 16 0 21 0;
#X connect 16 0 23 0;
#X connect 16 0 24 0;
#X connect 17 0 18 0;
#X connect 17 1 20 1;
#X connect 18 0 20 0;
#X connect 19 0 22 1;
#X connect 20 0 19 0;
#X connect 22 0 12 0;
#X connect 23 0 10 0;
#X connect 24 0 17 0;
#X connect 25 0 26 0;
#X connect 26 0 12 1;
#X restore 113 47 pd unit;
#N canvas 0 22 315 473 unit 0;
#X obj 44 84 bng 15 250 50 0 empty empty empty 17 7 0 10 -262144 -1
-1;
#X obj 42 187 osc~ 500;
#X obj 41 346 *~;
#X obj 62 293 line~;
#X msg 62 216 1 3000;
#X msg 73 268 0 4000;
#X obj 73 243 delay 3000;
#X obj 58 41 metro 10000;
#X obj 65 66 random 5000;
#X obj 66 90 + 7000;
#X obj 43 163 mtof;
#X obj 62 320 *~;
#X obj 41 395 balance;
#N canvas 0 22 368 154 bus 0;
#X obj 92 80 throw~ \$0-l;
#X obj 92 105 throw~ \$0-r;
#X obj 70 43 inlet~ l;
#X obj 144 43 inlet~ r;
#X connect 2 0 0 0;
#X connect 3 0 1 0;
#X restore 44 430 pd bus;
#X obj 94 321 bing;
#X obj 58 15 r \$0-s;
#X obj 43 115 random 48;
#X obj 167 243 t b f;
#X msg 167 267 1;
#X floatatom 167 315 5 0 0 0 - - -;
#X obj 167 291 -;
#X floatatom 129 116 5 0 0 0 - - -;
#X obj 41 370 *~;
#X obj 43 139 + 35;
#X obj 167 217 / 70;
#X msg 94 346 \$1 7000;
#X obj 94 370 line;
#X connect 0 0 4 0;
#X connect 0 0 6 0;
#X connect 0 0 14 0;
#X connect 0 0 16 0;
#X connect 1 0 2 0;
#X connect 2 0 22 0;
#X connect 3 0 11 0;
#X connect 3 0 11 1;
#X connect 4 0 3 0;
#X connect 5 0 3 0;
#X connect 6 0 5 0;
#X connect 7 0 8 0;
#X connect 7 0 0 0;
#X connect 8 0 9 0;
#X connect 9 0 7 1;
#X connect 10 0 1 0;
#X connect 11 0 2 1;
#X connect 12 0 13 0;
#X connect 12 1 13 1;
#X connect 14 0 25 0;
#X connect 15 0 7 0;
#X connect 16 0 21 0;
#X connect 16 0 23 0;
#X connect 16 0 24 0;
#X connect 17 0 18 0;
#X connect 17 1 20 1;
#X connect 18 0 20 0;
#X connect 19 0 22 1;
#X connect 20 0 19 0;
#X connect 22 0 12 0;
#X connect 23 0 10 0;
#X connect 24 0 17 0;
#X connect 25 0 26 0;
#X connect 26 0 12 1;
#X restore 180 21 pd unit;
#N canvas 0 22 315 473 unit 0;
#X obj 44 84 bng 15 250 50 0 empty empty empty 17 7 0 10 -262144 -1
-1;
#X obj 42 187 osc~ 500;
#X obj 41 346 *~;
#X obj 62 293 line~;
#X msg 62 216 1 3000;
#X msg 73 268 0 4000;
#X obj 73 243 delay 3000;
#X obj 58 41 metro 10000;
#X obj 65 66 random 5000;
#X obj 66 90 + 7000;
#X obj 43 163 mtof;
#X obj 62 320 *~;
#X obj 41 395 balance;
#N canvas 0 22 368 154 bus 0;
#X obj 92 80 throw~ \$0-l;
#X obj 92 105 throw~ \$0-r;
#X obj 70 43 inlet~ l;
#X obj 144 43 inlet~ r;
#X connect 2 0 0 0;
#X connect 3 0 1 0;
#X restore 44 430 pd bus;
#X obj 94 321 bing;
#X obj 58 15 r \$0-s;
#X obj 43 115 random 48;
#X obj 167 243 t b f;
#X msg 167 267 1;
#X floatatom 167 315 5 0 0 0 - - -;
#X obj 167 291 -;
#X floatatom 129 116 5 0 0 0 - - -;
#X obj 41 370 *~;
#X obj 43 139 + 35;
#X obj 167 217 / 70;
#X msg 94 346 \$1 7000;
#X obj 94 370 line;
#X connect 0 0 4 0;
#X connect 0 0 6 0;
#X connect 0 0 14 0;
#X connect 0 0 16 0;
#X connect 1 0 2 0;
#X connect 2 0 22 0;
#X connect 3 0 11 0;
#X connect 3 0 11 1;
#X connect 4 0 3 0;
#X connect 5 0 3 0;
#X connect 6 0 5 0;
#X connect 7 0 8 0;
#X connect 7 0 0 0;
#X connect 8 0 9 0;
#X connect 9 0 7 1;
#X connect 10 0 1 0;
#X connect 11 0 2 1;
#X connect 12 0 13 0;
#X connect 12 1 13 1;
#X connect 14 0 25 0;
#X connect 15 0 7 0;
#X connect 16 0 21 0;
#X connect 16 0 23 0;
#X connect 16 0 24 0;
#X connect 17 0 18 0;
#X connect 17 1 20 1;
#X connect 18 0 20 0;
#X connect 19 0 22 1;
#X connect 20 0 19 0;
#X connect 22 0 12 0;
#X connect 23 0 10 0;
#X connect 24 0 17 0;
#X connect 25 0 26 0;
#X connect 26 0 12 1;
#X restore 179 47 pd unit;
#N canvas 0 22 315 473 unit 0;
#X obj 44 84 bng 15 250 50 0 empty empty empty 17 7 0 10 -262144 -1
-1;
#X obj 42 187 osc~ 500;
#X obj 41 346 *~;
#X obj 62 293 line~;
#X msg 62 216 1 3000;
#X msg 73 268 0 4000;
#X obj 73 243 delay 3000;
#X obj 58 41 metro 10000;
#X obj 65 66 random 5000;
#X obj 66 90 + 7000;
#X obj 43 163 mtof;
#X obj 62 320 *~;
#X obj 41 395 balance;
#N canvas 0 22 368 154 bus 0;
#X obj 92 80 throw~ \$0-l;
#X obj 92 105 throw~ \$0-r;
#X obj 70 43 inlet~ l;
#X obj 144 43 inlet~ r;
#X connect 2 0 0 0;
#X connect 3 0 1 0;
#X restore 44 430 pd bus;
#X obj 94 321 bing;
#X obj 58 15 r \$0-s;
#X obj 43 115 random 48;
#X obj 167 243 t b f;
#X msg 167 267 1;
#X floatatom 167 315 5 0 0 0 - - -;
#X obj 167 291 -;
#X floatatom 129 116 5 0 0 0 - - -;
#X obj 41 370 *~;
#X obj 43 139 + 35;
#X obj 167 217 / 70;
#X msg 94 346 \$1 7000;
#X obj 94 370 line;
#X connect 0 0 4 0;
#X connect 0 0 6 0;
#X connect 0 0 14 0;
#X connect 0 0 16 0;
#X connect 1 0 2 0;
#X connect 2 0 22 0;
#X connect 3 0 11 0;
#X connect 3 0 11 1;
#X connect 4 0 3 0;
#X connect 5 0 3 0;
#X connect 6 0 5 0;
#X connect 7 0 8 0;
#X connect 7 0 0 0;
#X connect 8 0 9 0;
#X connect 9 0 7 1;
#X connect 10 0 1 0;
#X connect 11 0 2 1;
#X connect 12 0 13 0;
#X connect 12 1 13 1;
#X connect 14 0 25 0;
#X connect 15 0 7 0;
#X connect 16 0 21 0;
#X connect 16 0 23 0;
#X connect 16 0 24 0;
#X connect 17 0 18 0;
#X connect 17 1 20 1;
#X connect 18 0 20 0;
#X connect 19 0 22 1;
#X connect 20 0 19 0;
#X connect 22 0 12 0;
#X connect 23 0 10 0;
#X connect 24 0 17 0;
#X connect 25 0 26 0;
#X connect 26 0 12 1;
#X restore 246 21 pd unit;
#N canvas 0 22 315 473 unit 0;
#X obj 44 84 bng 15 250 50 0 empty empty empty 17 7 0 10 -262144 -1
-1;
#X obj 42 187 osc~ 500;
#X obj 41 346 *~;
#X obj 62 293 line~;
#X msg 62 216 1 3000;
#X msg 73 268 0 4000;
#X obj 73 243 delay 3000;
#X obj 58 41 metro 10000;
#X obj 65 66 random 5000;
#X obj 66 90 + 7000;
#X obj 43 163 mtof;
#X obj 62 320 *~;
#X obj 41 395 balance;
#N canvas 0 22 368 154 bus 0;
#X obj 92 80 throw~ \$0-l;
#X obj 92 105 throw~ \$0-r;
#X obj 70 43 inlet~ l;
#X obj 144 43 inlet~ r;
#X connect 2 0 0 0;
#X connect 3 0 1 0;
#X restore 44 430 pd bus;
#X obj 94 321 bing;
#X obj 58 15 r \$0-s;
#X obj 43 115 random 48;
#X obj 167 243 t b f;
#X msg 167 267 1;
#X floatatom 167 315 5 0 0 0 - - -;
#X obj 167 291 -;
#X floatatom 129 116 5 0 0 0 - - -;
#X obj 41 370 *~;
#X obj 43 139 + 35;
#X obj 167 217 / 70;
#X msg 94 346 \$1 7000;
#X obj 94 370 line;
#X connect 0 0 4 0;
#X connect 0 0 6 0;
#X connect 0 0 14 0;
#X connect 0 0 16 0;
#X connect 1 0 2 0;
#X connect 2 0 22 0;
#X connect 3 0 11 0;
#X connect 3 0 11 1;
#X connect 4 0 3 0;
#X connect 5 0 3 0;
#X connect 6 0 5 0;
#X connect 7 0 8 0;
#X connect 7 0 0 0;
#X connect 8 0 9 0;
#X connect 9 0 7 1;
#X connect 10 0 1 0;
#X connect 11 0 2 1;
#X connect 12 0 13 0;
#X connect 12 1 13 1;
#X connect 14 0 25 0;
#X connect 15 0 7 0;
#X connect 16 0 21 0;
#X connect 16 0 23 0;
#X connect 16 0 24 0;
#X connect 17 0 18 0;
#X connect 17 1 20 1;
#X connect 18 0 20 0;
#X connect 19 0 22 1;
#X connect 20 0 19 0;
#X connect 22 0 12 0;
#X connect 23 0 10 0;
#X connect 24 0 17 0;
#X connect 25 0 26 0;
#X connect 26 0 12 1;
#X restore 245 47 pd unit;
#N canvas 0 22 315 473 unit 0;
#X obj 44 84 bng 15 250 50 0 empty empty empty 17 7 0 10 -262144 -1
-1;
#X obj 42 187 osc~ 500;
#X obj 41 346 *~;
#X obj 62 293 line~;
#X msg 62 216 1 3000;
#X msg 73 268 0 4000;
#X obj 73 243 delay 3000;
#X obj 58 41 metro 10000;
#X obj 65 66 random 5000;
#X obj 66 90 + 7000;
#X obj 43 163 mtof;
#X obj 62 320 *~;
#X obj 41 395 balance;
#N canvas 0 22 368 154 bus 0;
#X obj 92 80 throw~ \$0-l;
#X obj 92 105 throw~ \$0-r;
#X obj 70 43 inlet~ l;
#X obj 144 43 inlet~ r;
#X connect 2 0 0 0;
#X connect 3 0 1 0;
#X restore 44 430 pd bus;
#X obj 94 321 bing;
#X obj 58 15 r \$0-s;
#X obj 43 115 random 48;
#X obj 167 243 t b f;
#X msg 167 267 1;
#X floatatom 167 315 5 0 0 0 - - -;
#X obj 167 291 -;
#X floatatom 129 116 5 0 0 0 - - -;
#X obj 41 370 *~;
#X obj 43 139 + 35;
#X obj 167 217 / 70;
#X msg 94 346 \$1 7000;
#X obj 94 370 line;
#X connect 0 0 4 0;
#X connect 0 0 6 0;
#X connect 0 0 14 0;
#X connect 0 0 16 0;
#X connect 1 0 2 0;
#X connect 2 0 22 0;
#X connect 3 0 11 0;
#X connect 3 0 11 1;
#X connect 4 0 3 0;
#X connect 5 0 3 0;
#X connect 6 0 5 0;
#X connect 7 0 8 0;
#X connect 7 0 0 0;
#X connect 8 0 9 0;
#X connect 9 0 7 1;
#X connect 10 0 1 0;
#X connect 11 0 2 1;
#X connect 12 0 13 0;
#X connect 12 1 13 1;
#X connect 14 0 25 0;
#X connect 15 0 7 0;
#X connect 16 0 21 0;
#X connect 16 0 23 0;
#X connect 16 0 24 0;
#X connect 17 0 18 0;
#X connect 17 1 20 1;
#X connect 18 0 20 0;
#X connect 19 0 22 1;
#X connect 20 0 19 0;
#X connect 22 0 12 0;
#X connect 23 0 10 0;
#X connect 24 0 17 0;
#X connect 25 0 26 0;
#X connect 26 0 12 1;
#X restore 312 21 pd unit;
#N canvas 0 22 315 473 unit 0;
#X obj 44 84 bng 15 250 50 0 empty empty empty 17 7 0 10 -262144 -1
-1;
#X obj 42 187 osc~ 500;
#X obj 41 346 *~;
#X obj 62 293 line~;
#X msg 62 216 1 3000;
#X msg 73 268 0 4000;
#X obj 73 243 delay 3000;
#X obj 58 41 metro 10000;
#X obj 65 66 random 5000;
#X obj 66 90 + 7000;
#X obj 43 163 mtof;
#X obj 62 320 *~;
#X obj 41 395 balance;
#N canvas 0 22 368 154 bus 0;
#X obj 92 80 throw~ \$0-l;
#X obj 92 105 throw~ \$0-r;
#X obj 70 43 inlet~ l;
#X obj 144 43 inlet~ r;
#X connect 2 0 0 0;
#X connect 3 0 1 0;
#X restore 44 430 pd bus;
#X obj 94 321 bing;
#X obj 58 15 r \$0-s;
#X obj 43 115 random 48;
#X obj 167 243 t b f;
#X msg 167 267 1;
#X floatatom 167 315 5 0 0 0 - - -;
#X obj 167 291 -;
#X floatatom 129 116 5 0 0 0 - - -;
#X obj 41 370 *~;
#X obj 43 139 + 35;
#X obj 167 217 / 70;
#X msg 94 346 \$1 7000;
#X obj 94 370 line;
#X connect 0 0 4 0;
#X connect 0 0 6 0;
#X connect 0 0 14 0;
#X connect 0 0 16 0;
#X connect 1 0 2 0;
#X connect 2 0 22 0;
#X connect 3 0 11 0;
#X connect 3 0 11 1;
#X connect 4 0 3 0;
#X connect 5 0 3 0;
#X connect 6 0 5 0;
#X connect 7 0 8 0;
#X connect 7 0 0 0;
#X connect 8 0 9 0;
#X connect 9 0 7 1;
#X connect 10 0 1 0;
#X connect 11 0 2 1;
#X connect 12 0 13 0;
#X connect 12 1 13 1;
#X connect 14 0 25 0;
#X connect 15 0 7 0;
#X connect 16 0 21 0;
#X connect 16 0 23 0;
#X connect 16 0 24 0;
#X connect 17 0 18 0;
#X connect 17 1 20 1;
#X connect 18 0 20 0;
#X connect 19 0 22 1;
#X connect 20 0 19 0;
#X connect 22 0 12 0;
#X connect 23 0 10 0;
#X connect 24 0 17 0;
#X connect 25 0 26 0;
#X connect 26 0 12 1;
#X restore 311 47 pd unit;
#X obj -2 198 delwrite~ \$0-r 100;
#X obj 121 416 vd~ \$0-r;
#X obj 40 418 vd~ \$0-l;
#X obj -1 171 delwrite~ \$0-l 100;
#X obj 121 367 +~ 1;
#X obj 42 367 +~ 1;
#X obj 121 391 *~ 10;
#X obj 40 393 *~ 10;
#X obj 41 342 osc~ 0.09;
#X obj 121 342 osc~ 0.08;
#X obj 135 282 delay~ 1000 0.9 0.3 200;
#X obj 91 312 delay~ 1000 0.9 0.3 200;
#X obj 315 255 map 0 1 0.2 1;
#X floatatom 333 284 5 0 0 0 - - -;
#X obj 214 441 declare -path z_objetsvolants_abs;
#N canvas 0 22 450 300 (subpatch) 0;
#X obj 59 155 inlet;
#X obj 3 89 inlet~;
#X obj 58 182 change;
#X msg 60 246 set \$1;
#X obj 60 227 tosymbol;
#X obj 59 204 sprintf Bus%d;
#X obj 3 282 throw~ Bus0;
#X obj 2 3 popup 124 25 #ffffff popup Bus0 Bus1 Bus2 Bus3 Bus4 Bus5
Bus6 Bus7 Bus8 Bus9 Bus10 Bus11 Bus12 Bus13 Bus14 Bus15 Bus16;
#X obj 1 32 route bang;
#X obj 154 202 *~;
#X obj 141 7 tgl 15 0 empty empty Dac 19 7 0 10 -262144 -1 -1 0 1;
#X obj 155 238 dac~;
#X obj 1 -41 loadbang;
#X text 59 -43 Bus0 mutes;
#X msg 1 -23 options Bus0 Bus1 Bus2 Bus3 Bus4 Bus5 Bus6 Bus7 Bus8 Bus9
Bus10 Bus11 Bus12 Bus13 Bus14 Bus15 Bus16;
#X connect 0 0 2 0;
#X connect 1 0 6 0;
#X connect 1 0 9 0;
#X connect 2 0 5 0;
#X connect 3 0 6 0;
#X connect 4 0 3 0;
#X connect 5 0 4 0;
#X connect 7 0 8 0;
#X connect 8 1 2 0;
#X connect 9 0 11 0;
#X connect 10 0 9 1;
#X connect 12 0 14 0;
#X connect 14 0 7 0;
#X coords 0 1 100 -1 180 30 1 0 0;
#X restore 51 521 graph;
#N canvas 0 22 450 300 (subpatch) 0;
#X obj 59 155 inlet;
#X obj 3 89 inlet~;
#X obj 58 182 change;
#X msg 60 246 set \$1;
#X obj 60 227 tosymbol;
#X obj 59 204 sprintf Bus%d;
#X obj 3 282 throw~ Bus0;
#X obj 2 3 popup 124 25 #ffffff popup Bus0 Bus1 Bus2 Bus3 Bus4 Bus5
Bus6 Bus7 Bus8 Bus9 Bus10 Bus11 Bus12 Bus13 Bus14 Bus15 Bus16;
#X obj 1 32 route bang;
#X obj 154 202 *~;
#X obj 141 7 tgl 15 0 empty empty Dac 19 7 0 10 -262144 -1 -1 0 1;
#X obj 155 238 dac~;
#X obj 1 -41 loadbang;
#X text 59 -43 Bus0 mutes;
#X msg 1 -23 options Bus0 Bus1 Bus2 Bus3 Bus4 Bus5 Bus6 Bus7 Bus8 Bus9
Bus10 Bus11 Bus12 Bus13 Bus14 Bus15 Bus16;
#X connect 0 0 2 0;
#X connect 1 0 6 0;
#X connect 1 0 9 0;
#X connect 2 0 5 0;
#X connect 3 0 6 0;
#X connect 4 0 3 0;
#X connect 5 0 4 0;
#X connect 7 0 8 0;
#X connect 8 1 2 0;
#X connect 9 0 11 1;
#X connect 10 0 9 1;
#X connect 12 0 14 0;
#X connect 14 0 7 0;
#X coords 0 1 100 -1 180 30 1 0 0;
#X restore 51 554 graph;
#X obj 47 -4 r T2;
#X connect 0 0 48 0;
#X connect 0 1 49 0;
#X connect 1 0 3 0;
#X connect 2 0 5 0;
#X connect 2 1 6 0;
#X connect 5 0 10 0;
#X connect 5 0 36 0;
#X connect 6 0 7 0;
#X connect 6 0 33 0;
#X connect 7 0 43 0;
#X connect 8 0 7 1;
#X connect 8 0 10 1;
#X connect 9 0 18 0;
#X connect 9 0 20 0;
#X connect 10 0 44 0;
#X connect 11 0 13 0;
#X connect 11 0 16 0;
#X connect 12 0 11 0;
#X connect 14 0 9 0;
#X connect 14 0 17 0;
#X connect 15 0 14 0;
#X connect 16 0 43 1;
#X connect 16 0 44 1;
#X connect 17 0 14 1;
#X connect 18 0 8 0;
#X connect 19 0 8 0;
#X connect 20 0 19 0;
#X connect 21 0 23 0;
#X connect 22 0 45 0;
#X connect 23 0 22 0;
#X connect 24 0 25 0;
#X connect 34 0 0 1;
#X connect 35 0 0 0;
#X connect 37 0 39 0;
#X connect 38 0 40 0;
#X connect 39 0 34 0;
#X connect 40 0 35 0;
#X connect 41 0 38 0;
#X connect 42 0 37 0;
#X connect 43 0 0 1;
#X connect 44 0 0 0;
#X connect 45 0 46 0;
#X connect 50 0 1 0;
