#N canvas 269 45 634 537 12;
#X declare -path z_objetsvolants_abs;
#X obj 353 121 mtof;
#X obj 51 275 int;
#X obj 85 276 +;
#X obj 182 278 max 0;
#X floatatom 50 302 5 0 0 0 - - -;
#X obj 58 141 metro;
#X obj 58 121 tgl 15 0 empty empty empty 17 7 0 10 -262144 -1 -1 0
1;
#X obj 58 168 t b b;
#X obj 122 277 min 24;
#X obj 105 199 random 4;
#X obj 105 223 select 0 1 2 3;
#X msg 81 248 -2;
#X msg 121 248 -1;
#X msg 159 248 1;
#X msg 199 248 2;
#X msg 159 64 4;
#X msg 197 64 6;
#X msg 233 64 8;
#X msg 270 64 12;
#X msg 309 64 16;
#X obj 193 90 t b f;
#X obj 108 116 expr 60000/$f1/$f2;
#X msg 108 90 80;
#X obj 382 172 bng 15 250 50 0 empty empty empty 17 7 0 10 -262144
-1 -1;
#X obj 354 278 *~;
#X obj 375 249 line~;
#X msg 364 223 1 5;
#X msg 401 222 0 20;
#X obj 401 197 delay 70;
#X floatatom 194 149 5 0 0 0 - - -;
#X obj 195 169 / 2;
#X msg 120 64 3;
#X obj 89 14 key;
#X floatatom 123 16 5 0 0 0 - - -;
#X msg 351 65 0;
#X obj 353 96 +;
#X obj 49 325 + 50;
#X msg 389 65 12;
#X obj 123 38 select 119 120 99 118 98 110 108 109 32;
#X obj 355 303 balance;
#X obj 41 64 loadbang;
#X obj 408 278 varia 150;
#X obj 368 336 vol2;
#N canvas 0 22 450 300 wave 0;
#X obj 183 268 outlet~;
#X obj 134 78 phasor~;
#X obj 177 171 cos~;
#X obj 194 141 cos~;
#X obj 195 116 +~ 0.1;
#X obj 118 145 cos~;
#X obj 117 120 +~ 0.2;
#X obj 119 172 *~;
#X obj 59 147 cos~;
#X obj 183 215 *~ 0.7;
#X obj 58 123 *~ 2;
#X obj 60 171 *~ 0.5;
#X floatatom 270 103 5 0 0 0 - - -;
#X floatatom 270 172 5 0 0 0 - - -;
#X obj 183 242 *~;
#X obj 136 29 inlet;
#X obj 270 148 max 0.1;
#X obj 270 124 expr (1000-$f1)/1000;
#X connect 1 0 2 0;
#X connect 1 0 4 0;
#X connect 1 0 6 0;
#X connect 1 0 10 0;
#X connect 2 0 9 0;
#X connect 3 0 9 0;
#X connect 4 0 3 0;
#X connect 5 0 7 0;
#X connect 5 0 7 1;
#X connect 6 0 5 0;
#X connect 7 0 9 0;
#X connect 8 0 11 0;
#X connect 9 0 14 0;
#X connect 10 0 8 0;
#X connect 11 0 9 0;
#X connect 12 0 17 0;
#X connect 13 0 14 1;
#X connect 14 0 0 0;
#X connect 15 0 1 0;
#X connect 15 0 12 0;
#X connect 16 0 13 0;
#X connect 17 0 16 0;
#X restore 353 147 pd wave;
#X text 53 423 space bar: start / stop;
#X text 50 357 command keys:;
#X text 52 378 w to n : speed \; octave: l and m;
#X text 51 406 l & m : octave;
#X obj 25 442 declare -path z_objetsvolants_abs;
#N canvas 0 22 450 300 (subpatch) 0;
#X obj 59 155 inlet;
#X obj 3 89 inlet~;
#X obj 58 182 change;
#X msg 60 246 set \$1;
#X obj 60 227 tosymbol;
#X obj 59 204 sprintf Bus%d;
#X obj 3 282 throw~ Bus0;
#X obj 2 3 popup 124 25 #ffffff popup Bus0 Bus1 Bus2 Bus3 Bus4 Bus5
;
#X obj 1 32 route bang;
#X obj 154 202 *~;
#X obj 141 7 tgl 15 0 empty empty Dac 19 7 0 10 -262144 -1 -1 1 1;
#X obj 155 238 dac~;
#X obj 1 -41 loadbang;
#X text 59 -43 Bus0 mutes;
#X msg 1 -23 options Bus0 Bus1 Bus2 Bus3 Bus4 Bus5 Bus6 Bus7 Bus8 Bus9
Bus10 Bus11 Bus12 Bus13 Bus14 Bus15 Bus16;
#X connect 0 0 2 0;
#X connect 1 0 6 0;
#X connect 1 0 9 0;
#X connect 2 0 5 0;
#X connect 3 0 6 0;
#X connect 4 0 3 0;
#X connect 5 0 4 0;
#X connect 7 0 8 0;
#X connect 8 1 2 0;
#X connect 9 0 11 0;
#X connect 10 0 9 1;
#X connect 12 0 14 0;
#X connect 14 0 7 0;
#X coords 0 1 100 -1 180 30 1 0 0;
#X restore 358 396 graph;
#N canvas 0 22 450 300 (subpatch) 0;
#X obj 59 155 inlet;
#X obj 3 89 inlet~;
#X obj 58 182 change;
#X msg 60 246 set \$1;
#X obj 60 227 tosymbol;
#X obj 59 204 sprintf Bus%d;
#X obj 3 282 throw~ Bus0;
#X obj 2 3 popup 124 25 #ffffff popup Bus0 Bus1 Bus2 Bus3 Bus4 Bus5
;
#X obj 1 32 route bang;
#X obj 154 202 *~;
#X obj 141 7 tgl 15 0 empty empty Dac 19 7 0 10 -262144 -1 -1 1 1;
#X obj 155 238 dac~;
#X obj 1 -41 loadbang;
#X text 59 -43 Bus0 mutes;
#X msg 1 -23 options Bus0 Bus1 Bus2 Bus3 Bus4 Bus5 Bus6 Bus7 Bus8 Bus9
Bus10 Bus11 Bus12 Bus13 Bus14 Bus15 Bus16;
#X connect 0 0 2 0;
#X connect 1 0 6 0;
#X connect 1 0 9 0;
#X connect 2 0 5 0;
#X connect 3 0 6 0;
#X connect 4 0 3 0;
#X connect 5 0 4 0;
#X connect 7 0 8 0;
#X connect 8 1 2 0;
#X connect 9 0 11 1;
#X connect 10 0 9 1;
#X connect 12 0 14 0;
#X connect 14 0 7 0;
#X coords 0 1 100 -1 180 30 1 0 0;
#X restore 358 429 graph;
#X connect 0 0 23 0;
#X connect 0 0 43 0;
#X connect 1 0 2 0;
#X connect 1 0 4 0;
#X connect 2 0 8 0;
#X connect 3 0 1 1;
#X connect 4 0 36 0;
#X connect 5 0 7 0;
#X connect 6 0 5 0;
#X connect 6 0 41 0;
#X connect 7 0 1 0;
#X connect 7 1 9 0;
#X connect 8 0 3 0;
#X connect 9 0 10 0;
#X connect 10 0 11 0;
#X connect 10 1 12 0;
#X connect 10 2 13 0;
#X connect 10 3 14 0;
#X connect 11 0 2 1;
#X connect 12 0 2 1;
#X connect 13 0 2 1;
#X connect 14 0 2 1;
#X connect 15 0 20 0;
#X connect 16 0 20 0;
#X connect 17 0 20 0;
#X connect 18 0 20 0;
#X connect 19 0 20 0;
#X connect 20 0 21 0;
#X connect 20 1 21 1;
#X connect 21 0 5 1;
#X connect 21 0 29 0;
#X connect 22 0 21 0;
#X connect 23 0 26 0;
#X connect 23 0 28 0;
#X connect 24 0 39 0;
#X connect 25 0 24 1;
#X connect 26 0 25 0;
#X connect 27 0 25 0;
#X connect 28 0 27 0;
#X connect 29 0 30 0;
#X connect 30 0 28 1;
#X connect 31 0 20 0;
#X connect 32 0 33 0;
#X connect 33 0 38 0;
#X connect 34 0 35 1;
#X connect 35 0 0 0;
#X connect 36 0 35 0;
#X connect 37 0 35 1;
#X connect 38 0 31 0;
#X connect 38 1 15 0;
#X connect 38 2 16 0;
#X connect 38 3 17 0;
#X connect 38 4 18 0;
#X connect 38 5 19 0;
#X connect 38 6 34 0;
#X connect 38 7 37 0;
#X connect 38 8 6 0;
#X connect 39 0 42 0;
#X connect 39 1 42 1;
#X connect 40 0 22 0;
#X connect 41 0 39 1;
#X connect 42 0 49 0;
#X connect 42 1 50 0;
#X connect 43 0 24 0;
