#N canvas 212 137 716 525 12;
#X declare -path z_objetsvolants_abs;
#X obj 59 340 loadbang;
#X msg 59 393 \; pd dsp 1;
#X obj 204 116 tgl 20 0 empty empty start -4 -7 1 14 -258699 -1 -1
0 1;
#X obj 204 141 metro 130;
#X obj 51 283 balance;
#X obj 68 366 s b;
#X obj 104 234 r b;
#X msg 104 259 0;
#X obj 500 241 vsl 15 60 0.01 1 0 0 empty empty empty 0 -9 0 10 -262144
-1 -1 2770 1;
#X obj 471 92 vsl 15 60 0 1 0 0 empty empty empty 0 -9 0 10 -262144
-1 -1 1961 1;
#X obj 149 283 balance;
#X obj 198 233 r b;
#X obj 245 280 balance;
#X obj 297 229 r b;
#X obj 183 145 bng 15 100 50 0 empty empty empty 17 7 0 10 -262144
-1 -1;
#X msg 198 258 0.5;
#X msg 297 254 1;
#X obj 505 374 s control;
#X obj 60 210 r control;
#X obj 157 208 r control;
#X obj 250 205 r control;
#X obj 591 241 vsl 15 60 0 1 0 0 empty empty empty 0 -9 0 10 -262144
-1 -1 2375 1;
#X msg 591 308 fm \$1;
#X obj 162 334 vol2;
#X obj 273 69 metro;
#X obj 322 69 random 6000;
#N canvas 0 22 517 384 scales 0;
#X obj 218 179 int;
#X obj 262 179 + 1;
#X obj 303 300 select 40;
#X obj 172 125 loadbang;
#X msg 173 153 60;
#X floatatom 255 217 5 0 0 0 - - -;
#X obj 110 267 select 110;
#X obj 290 105 random 2;
#X obj 376 203 random 30;
#X obj 376 227 + 20;
#X msg 290 153 1;
#X msg 323 153 -1;
#X obj 22 155 random 30;
#X obj 22 180 + 90;
#X obj 290 129 route 0 1;
#X obj 223 26 inlet bang;
#X obj 201 347 outlet note;
#X connect 0 0 1 0;
#X connect 0 0 6 0;
#X connect 0 0 5 0;
#X connect 0 0 2 0;
#X connect 0 0 16 0;
#X connect 1 0 0 1;
#X connect 2 0 4 0;
#X connect 2 0 8 0;
#X connect 2 0 12 0;
#X connect 2 0 7 0;
#X connect 3 0 4 0;
#X connect 4 0 0 0;
#X connect 6 0 4 0;
#X connect 6 0 7 0;
#X connect 6 0 8 0;
#X connect 6 0 12 0;
#X connect 7 0 14 0;
#X connect 8 0 9 0;
#X connect 9 0 2 1;
#X connect 10 0 1 1;
#X connect 11 0 1 1;
#X connect 12 0 13 0;
#X connect 13 0 6 1;
#X connect 14 0 10 0;
#X connect 14 1 11 0;
#X connect 15 0 0 0;
#X restore 244 181 pd scales;
#N canvas 0 22 517 384 scales 0;
#X obj 218 179 int;
#X obj 262 179 + 1;
#X obj 303 300 select 40;
#X obj 172 125 loadbang;
#X msg 173 153 60;
#X floatatom 255 217 5 0 0 0 - - -;
#X obj 110 267 select 110;
#X obj 290 105 random 2;
#X obj 376 203 random 30;
#X obj 376 227 + 20;
#X msg 290 153 1;
#X msg 323 153 -1;
#X obj 22 155 random 30;
#X obj 22 180 + 90;
#X obj 290 129 route 0 1;
#X obj 223 26 inlet bang;
#X obj 201 347 outlet note;
#X connect 0 0 1 0;
#X connect 0 0 6 0;
#X connect 0 0 5 0;
#X connect 0 0 2 0;
#X connect 0 0 16 0;
#X connect 1 0 0 1;
#X connect 2 0 4 0;
#X connect 2 0 8 0;
#X connect 2 0 12 0;
#X connect 2 0 7 0;
#X connect 3 0 4 0;
#X connect 4 0 0 0;
#X connect 6 0 4 0;
#X connect 6 0 7 0;
#X connect 6 0 8 0;
#X connect 6 0 12 0;
#X connect 7 0 14 0;
#X connect 8 0 9 0;
#X connect 9 0 2 1;
#X connect 10 0 1 1;
#X connect 11 0 1 1;
#X connect 12 0 13 0;
#X connect 13 0 6 1;
#X connect 14 0 10 0;
#X connect 14 1 11 0;
#X connect 15 0 0 0;
#X restore 148 183 pd scales;
#N canvas 0 22 517 384 scales 0;
#X obj 218 179 int;
#X obj 262 179 + 1;
#X obj 303 300 select 40;
#X obj 172 125 loadbang;
#X msg 173 153 60;
#X floatatom 255 217 5 0 0 0 - - -;
#X obj 110 267 select 110;
#X obj 290 105 random 2;
#X obj 376 203 random 30;
#X obj 376 227 + 20;
#X msg 290 153 1;
#X msg 323 153 -1;
#X obj 22 155 random 30;
#X obj 22 180 + 90;
#X obj 290 129 route 0 1;
#X obj 223 26 inlet bang;
#X obj 201 347 outlet note;
#X connect 0 0 1 0;
#X connect 0 0 6 0;
#X connect 0 0 5 0;
#X connect 0 0 2 0;
#X connect 0 0 16 0;
#X connect 1 0 0 1;
#X connect 2 0 4 0;
#X connect 2 0 8 0;
#X connect 2 0 12 0;
#X connect 2 0 7 0;
#X connect 3 0 4 0;
#X connect 4 0 0 0;
#X connect 6 0 4 0;
#X connect 6 0 7 0;
#X connect 6 0 8 0;
#X connect 6 0 12 0;
#X connect 7 0 14 0;
#X connect 8 0 9 0;
#X connect 9 0 2 1;
#X connect 10 0 1 1;
#X connect 11 0 1 1;
#X connect 12 0 13 0;
#X connect 13 0 6 1;
#X connect 14 0 10 0;
#X connect 14 1 11 0;
#X connect 15 0 0 0;
#X restore 50 185 pd scales;
#X obj 273 93 random 150;
#X obj 273 117 + 60;
#X obj 433 65 + 1;
#X obj 471 65 / 2;
#X obj 433 41 osc 0.03;
#X obj 462 215 + 1;
#X obj 500 215 / 2;
#X obj 553 215 + 1;
#X obj 591 215 / 2;
#X obj 462 191 osc 0.032;
#X obj 553 191 osc 0.031;
#X obj 244 231 synth;
#X msg 471 160 attack \$1;
#X msg 478 310 decay \$1;
#X obj 579 90 vsl 15 60 0 1 0 0 empty empty empty 0 -9 0 10 -262144
-1 -1 1568 1;
#X obj 541 63 + 1;
#X obj 579 63 / 2;
#X obj 541 39 osc 0.029;
#X msg 579 159 glide \$1;
#X obj 273 45 loadbang;
#X obj 118 92 key;
#X obj 118 115 select 32;
#X obj 352 45 bng 15 250 50 0 empty empty empty 17 7 0 10 -262144 -1
-1;
#X obj 148 233 synth;
#X obj 50 232 synth;
#X obj 458 401 declare -path z_objetsvolants_abs;
#N canvas 0 22 450 300 (subpatch) 0;
#X obj 59 155 inlet;
#X obj 3 89 inlet~;
#X obj 58 182 change;
#X msg 60 246 set \$1;
#X obj 60 227 tosymbol;
#X obj 59 204 sprintf Bus%d;
#X obj 3 282 throw~ Bus0;
#X obj 2 3 popup 124 25 #ffffff popup Bus0 Bus1 Bus2 Bus3 Bus4 Bus5
;
#X obj 1 32 route bang;
#X obj 154 202 *~;
#X obj 141 7 tgl 15 0 empty empty Dac 19 7 0 10 -262144 -1 -1 0 1;
#X obj 155 238 dac~;
#X obj 1 -41 loadbang;
#X text 59 -43 Bus0 mutes;
#X msg 1 -23 options Bus0 Bus1 Bus2 Bus3 Bus4 Bus5 Bus6 Bus7 Bus8 Bus9
Bus10 Bus11 Bus12 Bus13 Bus14 Bus15 Bus16;
#X connect 0 0 2 0;
#X connect 1 0 6 0;
#X connect 1 0 9 0;
#X connect 2 0 5 0;
#X connect 3 0 6 0;
#X connect 4 0 3 0;
#X connect 5 0 4 0;
#X connect 7 0 8 0;
#X connect 8 1 2 0;
#X connect 9 0 11 0;
#X connect 10 0 9 1;
#X connect 12 0 14 0;
#X connect 14 0 7 0;
#X coords 0 1 100 -1 180 30 1 0 0;
#X restore 180 397 graph;
#N canvas 0 22 450 300 (subpatch) 0;
#X obj 59 155 inlet;
#X obj 3 89 inlet~;
#X obj 58 182 change;
#X msg 60 246 set \$1;
#X obj 60 227 tosymbol;
#X obj 59 204 sprintf Bus%d;
#X obj 3 282 throw~ Bus0;
#X obj 2 3 popup 124 25 #ffffff popup Bus0 Bus1 Bus2 Bus3 Bus4 Bus5
;
#X obj 1 32 route bang;
#X obj 154 202 *~;
#X obj 141 7 tgl 15 0 empty empty Dac 19 7 0 10 -262144 -1 -1 0 1;
#X obj 155 238 dac~;
#X obj 1 -41 loadbang;
#X text 59 -43 Bus0 mutes;
#X msg 1 -23 options Bus0 Bus1 Bus2 Bus3 Bus4 Bus5 Bus6 Bus7 Bus8 Bus9
Bus10 Bus11 Bus12 Bus13 Bus14 Bus15 Bus16;
#X connect 0 0 2 0;
#X connect 1 0 6 0;
#X connect 1 0 9 0;
#X connect 2 0 5 0;
#X connect 3 0 6 0;
#X connect 4 0 3 0;
#X connect 5 0 4 0;
#X connect 7 0 8 0;
#X connect 8 1 2 0;
#X connect 9 0 11 1;
#X connect 10 0 9 1;
#X connect 12 0 14 0;
#X connect 14 0 7 0;
#X coords 0 1 100 -1 180 30 1 0 0;
#X restore 180 430 graph;
#X connect 0 0 1 0;
#X connect 0 0 5 0;
#X connect 2 0 3 0;
#X connect 3 0 14 0;
#X connect 3 0 26 0;
#X connect 3 0 27 0;
#X connect 3 0 28 0;
#X connect 4 0 23 0;
#X connect 4 1 23 1;
#X connect 6 0 7 0;
#X connect 7 0 4 1;
#X connect 8 0 42 0;
#X connect 9 0 41 0;
#X connect 10 0 23 0;
#X connect 10 1 23 1;
#X connect 11 0 15 0;
#X connect 12 0 23 0;
#X connect 12 1 23 1;
#X connect 13 0 16 0;
#X connect 15 0 10 1;
#X connect 16 0 12 1;
#X connect 18 0 53 0;
#X connect 19 0 52 0;
#X connect 20 0 40 0;
#X connect 21 0 22 0;
#X connect 22 0 17 0;
#X connect 23 0 55 0;
#X connect 23 1 56 0;
#X connect 24 0 25 0;
#X connect 24 0 29 0;
#X connect 25 0 24 1;
#X connect 26 0 40 0;
#X connect 27 0 52 0;
#X connect 28 0 53 0;
#X connect 29 0 30 0;
#X connect 30 0 3 1;
#X connect 31 0 32 0;
#X connect 32 0 9 0;
#X connect 33 0 31 0;
#X connect 34 0 35 0;
#X connect 35 0 8 0;
#X connect 36 0 37 0;
#X connect 37 0 21 0;
#X connect 38 0 34 0;
#X connect 39 0 36 0;
#X connect 40 0 12 0;
#X connect 41 0 17 0;
#X connect 42 0 17 0;
#X connect 43 0 47 0;
#X connect 44 0 45 0;
#X connect 45 0 43 0;
#X connect 46 0 44 0;
#X connect 47 0 17 0;
#X connect 48 0 24 0;
#X connect 49 0 50 0;
#X connect 50 0 2 0;
#X connect 51 0 24 0;
#X connect 52 0 10 0;
#X connect 53 0 4 0;
