#N canvas 180 32 585 596 12;
#X declare -path z_objetsvolants_abs;
#X obj 173 315 vol;
#X obj 22 187 cos~;
#X obj 78 188 cos~;
#X obj 135 188 cos~;
#X obj 189 187 cos~;
#X floatatom 22 64 5 0 0 0 - - -;
#X obj 22 136 osc~;
#X obj 23 162 *~ 3;
#X obj 22 39 random 10;
#X obj 155 67 metro;
#X obj 155 47 tgl 15 0 empty empty empty 0 -6 0 8 -262144 -1 -1 0 1
;
#X obj 253 163 random 5000;
#X obj 253 188 + 50;
#X obj 206 67 random 1500;
#X obj 173 376 balance;
#X msg 269 438 \; pd dsp 1;
#X obj 312 42 vsl 20 60 100 2000 0 0 empty empty speed 0 -8 1 8 -258113
-1 -1 0 1;
#X obj 269 413 loadbang;
#X obj 172 289 vcf~ 10;
#X obj 253 212 pack f 10;
#X obj 253 236 line~;
#X obj 22 215 vol;
#X obj 79 215 vol;
#X obj 134 215 vol;
#X obj 190 215 vol;
#X obj 22 111 line~;
#X obj 273 353 == 0;
#X msg 273 377 mute \$1;
#X obj 187 409 vol2;
#X obj 226 352 bing;
#X obj 163 158 bing;
#X obj 204 158 bing;
#X obj 82 158 bing;
#X obj 123 158 bing;
#X obj 122 23 key;
#X obj 155 23 select 32;
#X obj 345 41 vsl 20 60 10 500 0 0 empty empty glide 0 -8 1 8 -258113
-1 -1 0 1;
#X obj 22 86 pack f 200;
#X obj 284 277 declare -path z_objetsvolants_abs;
#N canvas 0 22 450 300 (subpatch) 0;
#X obj 59 155 inlet;
#X obj 3 89 inlet~;
#X obj 58 182 change;
#X msg 60 246 set \$1;
#X obj 60 227 tosymbol;
#X obj 59 204 sprintf Bus%d;
#X obj 3 282 throw~ Bus0;
#X obj 2 3 popup 124 25 #ffffff popup Bus0 Bus1 Bus2 Bus3 Bus4 Bus5
;
#X obj 1 32 route bang;
#X obj 154 202 *~;
#X obj 141 7 tgl 15 0 empty empty Dac 19 7 0 10 -262144 -1 -1 0 1;
#X obj 155 238 dac~;
#X obj 1 -41 loadbang;
#X text 59 -43 Bus0 mutes;
#X msg 1 -23 options Bus0 Bus1 Bus2 Bus3 Bus4 Bus5 Bus6 Bus7 Bus8 Bus9
Bus10 Bus11 Bus12 Bus13 Bus14 Bus15 Bus16;
#X connect 0 0 2 0;
#X connect 1 0 6 0;
#X connect 1 0 9 0;
#X connect 2 0 5 0;
#X connect 3 0 6 0;
#X connect 4 0 3 0;
#X connect 5 0 4 0;
#X connect 7 0 8 0;
#X connect 8 1 2 0;
#X connect 9 0 11 0;
#X connect 10 0 9 1;
#X connect 12 0 14 0;
#X connect 14 0 7 0;
#X coords 0 1 100 -1 180 30 1 0 0;
#X restore 187 490 graph;
#N canvas 0 22 450 300 (subpatch) 0;
#X obj 59 155 inlet;
#X obj 3 89 inlet~;
#X obj 58 182 change;
#X msg 60 246 set \$1;
#X obj 60 227 tosymbol;
#X obj 59 204 sprintf Bus%d;
#X obj 3 282 throw~ Bus0;
#X obj 2 3 popup 124 25 #ffffff popup Bus0 Bus1 Bus2 Bus3 Bus4 Bus5
;
#X obj 1 32 route bang;
#X obj 154 202 *~;
#X obj 141 7 tgl 15 0 empty empty Dac 19 7 0 10 -262144 -1 -1 0 1;
#X obj 155 238 dac~;
#X obj 1 -41 loadbang;
#X text 59 -43 Bus0 mutes;
#X msg 1 -23 options Bus0 Bus1 Bus2 Bus3 Bus4 Bus5 Bus6 Bus7 Bus8 Bus9
Bus10 Bus11 Bus12 Bus13 Bus14 Bus15 Bus16;
#X connect 0 0 2 0;
#X connect 1 0 6 0;
#X connect 1 0 9 0;
#X connect 2 0 5 0;
#X connect 3 0 6 0;
#X connect 4 0 3 0;
#X connect 5 0 4 0;
#X connect 7 0 8 0;
#X connect 8 1 2 0;
#X connect 9 0 11 1;
#X connect 10 0 9 1;
#X connect 12 0 14 0;
#X connect 14 0 7 0;
#X coords 0 1 100 -1 180 30 1 0 0;
#X restore 187 523 graph;
#X connect 0 0 14 0;
#X connect 1 0 2 0;
#X connect 1 0 21 0;
#X connect 2 0 3 0;
#X connect 2 0 22 0;
#X connect 3 0 23 0;
#X connect 3 0 4 0;
#X connect 4 0 24 0;
#X connect 5 0 37 0;
#X connect 6 0 7 0;
#X connect 7 0 1 0;
#X connect 8 0 5 0;
#X connect 9 0 8 0;
#X connect 9 0 13 0;
#X connect 9 0 29 0;
#X connect 9 0 31 0;
#X connect 9 0 30 0;
#X connect 9 0 33 0;
#X connect 9 0 32 0;
#X connect 9 0 11 0;
#X connect 10 0 9 0;
#X connect 10 0 26 0;
#X connect 11 0 12 0;
#X connect 12 0 19 0;
#X connect 13 0 9 1;
#X connect 14 0 28 0;
#X connect 14 1 28 1;
#X connect 16 0 13 1;
#X connect 17 0 15 0;
#X connect 18 0 0 0;
#X connect 19 0 20 0;
#X connect 20 0 18 1;
#X connect 21 0 18 0;
#X connect 22 0 18 0;
#X connect 23 0 18 0;
#X connect 24 0 18 0;
#X connect 25 0 6 0;
#X connect 26 0 27 0;
#X connect 27 0 28 2;
#X connect 28 0 39 0;
#X connect 28 1 40 0;
#X connect 29 0 14 1;
#X connect 30 0 23 1;
#X connect 31 0 24 1;
#X connect 32 0 21 1;
#X connect 33 0 22 1;
#X connect 34 0 35 0;
#X connect 35 0 10 0;
#X connect 36 0 37 1;
#X connect 37 0 25 0;
