#N canvas 60 66 745 417 12;
#X declare -path z_objetsvolants_abs;
#X floatatom 444 361 5 0 0 2 range - range;
#X floatatom 495 361 5 0 0 2 intervalle - interv;
#X floatatom 581 360 5 0 0 2 transpose - transp;
#X msg 496 322 8;
#X msg 444 322 43;
#X msg 660 321 80;
#X obj 542 293 loadbang;
#X obj 233 154 metro;
#X obj 270 130 expr 60/$f1*1000/8;
#X obj 270 106 r tempo;
#X floatatom 660 361 5 5 500 2 tempo - tempo;
#X obj 233 76 tgl 25 0 empty empty start/stop 28 8 1 12 -258699 -1
-1 1 1;
#X msg 643 140 \; pd dsp 1;
#X obj 507 123 bng 25 250 50 0 empty empty change 28 8 1 12 -258113
-1 -1;
#X obj 507 153 random 50;
#X obj 507 177 + 3;
#X obj 505 249 random;
#X obj 505 273 + 1;
#X obj 550 226 / 2;
#X obj 629 287 + 20;
#X obj 629 263 random 130;
#X obj 643 115 loadbang;
#X obj 378 34 keyname;
#X obj 376 60 select r;
#X obj 233 25 key;
#X obj 233 51 select 32;
#X symbolatom 444 35 10 0 0 0 - - -;
#X msg 582 322 50;
#X obj 507 69 metro 40000;
#X obj 513 202 t b f;
#X msg 126 63 mute \$1;
#X obj 126 37 == 0;
#X obj 552 36 tgl 25 0 empty empty autochange 28 8 1 12 -258113 -1
-1 1 1;
#X obj 507 94 spigot;
#X obj 41 32 vol2;
#X obj 19 5 /~ 2;
#X obj 75 4 /~ 2;
#N canvas 0 22 450 300 bus 0;
#X obj 129 103 outlet~ l;
#X obj 211 103 outlet~ r;
#X obj 105 47 catch~ \$0-l;
#X obj 202 47 catch~ \$0-r;
#X connect 2 0 0 0;
#X connect 3 0 1 0;
#X restore 24 -23 pd bus;
#X obj 16 198 r transp;
#X obj 17 325 balance;
#X obj 22 273 loadbang;
#X obj 16 299 synth;
#N canvas 0 22 450 300 bus 0;
#X obj 129 103 inlet~ l;
#X obj 201 103 inlet~ r;
#X obj 159 190 throw~ \$0-l;
#X obj 256 190 throw~ \$0-r;
#X connect 0 0 2 0;
#X connect 1 0 3 0;
#X restore 21 360 pd bus;
#N canvas 0 22 366 215 unit 0;
#X obj 114 73 int;
#X obj 149 73 + 1;
#X floatatom 103 120 5 0 0 0 - - -;
#X msg 114 48 0;
#X obj 170 48 r interv;
#X obj 114 -4 r range;
#X obj 77 20 moses;
#X obj 133 21 inlet bang;
#X obj 162 176 outlet note;
#X obj 151 122 bng 15 250 50 0 empty empty empty 17 7 0 10 -262144
-1 -1;
#X obj 66 176 outlet bang;
#X obj 183 125 inlet transpose;
#X obj 162 151 +;
#X connect 0 0 2 0;
#X connect 0 0 1 0;
#X connect 0 0 6 0;
#X connect 1 0 0 1;
#X connect 2 0 12 0;
#X connect 3 0 0 0;
#X connect 4 0 1 1;
#X connect 5 0 6 1;
#X connect 6 1 3 0;
#X connect 6 1 10 0;
#X connect 7 0 9 0;
#X connect 9 0 0 0;
#X connect 11 0 12 1;
#X connect 12 0 8 0;
#X coords 0 -1 1 1 70 40 1 100 100;
#X restore 16 228 pd unit;
#X obj 111 199 r transp;
#X obj 112 326 balance;
#X obj 117 274 loadbang;
#X obj 111 300 synth;
#N canvas 0 22 450 300 bus 0;
#X obj 129 103 inlet~ l;
#X obj 201 103 inlet~ r;
#X obj 159 190 throw~ \$0-l;
#X obj 256 190 throw~ \$0-r;
#X connect 0 0 2 0;
#X connect 1 0 3 0;
#X restore 116 361 pd bus;
#N canvas 0 22 366 215 unit 0;
#X obj 114 73 int;
#X obj 149 73 + 1;
#X floatatom 103 120 5 0 0 0 - - -;
#X msg 114 48 0;
#X obj 170 48 r interv;
#X obj 114 -4 r range;
#X obj 77 20 moses;
#X obj 133 21 inlet bang;
#X obj 162 176 outlet note;
#X obj 151 122 bng 15 250 50 0 empty empty empty 17 7 0 10 -262144
-1 -1;
#X obj 66 176 outlet bang;
#X obj 183 125 inlet transpose;
#X obj 162 151 +;
#X connect 0 0 2 0;
#X connect 0 0 1 0;
#X connect 0 0 6 0;
#X connect 1 0 0 1;
#X connect 2 0 12 0;
#X connect 3 0 0 0;
#X connect 4 0 1 1;
#X connect 5 0 6 1;
#X connect 6 1 3 0;
#X connect 6 1 10 0;
#X connect 7 0 9 0;
#X connect 9 0 0 0;
#X connect 11 0 12 1;
#X connect 12 0 8 0;
#X coords 0 -1 1 1 70 40 1 100 100;
#X restore 111 229 pd unit;
#X obj 219 199 r transp;
#X obj 220 326 balance;
#X obj 225 274 loadbang;
#X obj 219 300 synth;
#N canvas 0 22 450 300 bus 0;
#X obj 129 103 inlet~ l;
#X obj 201 103 inlet~ r;
#X obj 159 190 throw~ \$0-l;
#X obj 256 190 throw~ \$0-r;
#X connect 0 0 2 0;
#X connect 1 0 3 0;
#X restore 224 361 pd bus;
#N canvas 0 22 366 215 unit 0;
#X obj 114 73 int;
#X obj 149 73 + 1;
#X floatatom 103 120 5 0 0 0 - - -;
#X msg 114 48 0;
#X obj 170 48 r interv;
#X obj 114 -4 r range;
#X obj 77 20 moses;
#X obj 133 21 inlet bang;
#X obj 162 176 outlet note;
#X obj 151 122 bng 15 250 50 0 empty empty empty 17 7 0 10 -262144
-1 -1;
#X obj 66 176 outlet bang;
#X obj 183 125 inlet transpose;
#X obj 162 151 +;
#X connect 0 0 2 0;
#X connect 0 0 1 0;
#X connect 0 0 6 0;
#X connect 1 0 0 1;
#X connect 2 0 12 0;
#X connect 3 0 0 0;
#X connect 4 0 1 1;
#X connect 5 0 6 1;
#X connect 6 1 3 0;
#X connect 6 1 10 0;
#X connect 7 0 9 0;
#X connect 9 0 0 0;
#X connect 11 0 12 1;
#X connect 12 0 8 0;
#X coords 0 -1 1 1 70 40 1 100 100;
#X restore 219 229 pd unit;
#X obj 323 198 r transp;
#X obj 324 325 balance;
#X obj 329 273 loadbang;
#X obj 323 299 synth;
#N canvas 0 22 450 300 bus 0;
#X obj 129 103 inlet~ l;
#X obj 201 103 inlet~ r;
#X obj 159 190 throw~ \$0-l;
#X obj 256 190 throw~ \$0-r;
#X connect 0 0 2 0;
#X connect 1 0 3 0;
#X restore 328 360 pd bus;
#N canvas 0 22 366 215 unit 0;
#X obj 114 73 int;
#X obj 149 73 + 1;
#X floatatom 103 120 5 0 0 0 - - -;
#X msg 114 48 0;
#X obj 170 48 r interv;
#X obj 114 -4 r range;
#X obj 77 20 moses;
#X obj 133 21 inlet bang;
#X obj 162 176 outlet note;
#X obj 151 122 bng 15 250 50 0 empty empty empty 17 7 0 10 -262144
-1 -1;
#X obj 66 176 outlet bang;
#X obj 183 125 inlet transpose;
#X obj 162 151 +;
#X connect 0 0 2 0;
#X connect 0 0 1 0;
#X connect 0 0 6 0;
#X connect 1 0 0 1;
#X connect 2 0 12 0;
#X connect 3 0 0 0;
#X connect 4 0 1 1;
#X connect 5 0 6 1;
#X connect 6 1 3 0;
#X connect 6 1 10 0;
#X connect 7 0 9 0;
#X connect 9 0 0 0;
#X connect 11 0 12 1;
#X connect 12 0 8 0;
#X coords 0 -1 1 1 70 40 1 100 100;
#X restore 323 228 pd unit;
#X msg 70 299 0;
#X msg 165 300 0.33;
#X msg 273 299 0.66;
#X msg 377 299 1;
#X obj 70 394 declare -path z_objetsvolants_abs;
#N canvas 0 22 450 300 (subpatch) 0;
#X obj 59 155 inlet;
#X obj 3 89 inlet~;
#X obj 58 182 change;
#X msg 60 246 set \$1;
#X obj 60 227 tosymbol;
#X obj 59 204 sprintf Bus%d;
#X obj 3 282 throw~ Bus0;
#X obj 2 3 popup 124 25 #ffffff popup Bus0 Bus1 Bus2 Bus3 Bus4 Bus5
;
#X obj 1 32 route bang;
#X obj 154 202 *~;
#X obj 141 7 tgl 15 0 empty empty Dac 19 7 0 10 -262144 -1 -1 1 1;
#X obj 155 238 dac~;
#X obj 1 -41 loadbang;
#X text 59 -43 Bus0 mutes;
#X msg 1 -23 options Bus0 Bus1 Bus2 Bus3 Bus4 Bus5 Bus6 Bus7 Bus8 Bus9
Bus10 Bus11 Bus12 Bus13 Bus14 Bus15 Bus16;
#X connect 0 0 2 0;
#X connect 1 0 6 0;
#X connect 1 0 9 0;
#X connect 2 0 5 0;
#X connect 3 0 6 0;
#X connect 4 0 3 0;
#X connect 5 0 4 0;
#X connect 7 0 8 0;
#X connect 8 1 2 0;
#X connect 9 0 11 0;
#X connect 10 0 9 1;
#X connect 12 0 14 0;
#X connect 14 0 7 0;
#X coords 0 1 100 -1 180 30 1 0 0;
#X restore 15 108 graph;
#N canvas 0 22 450 300 (subpatch) 0;
#X obj 59 155 inlet;
#X obj 3 89 inlet~;
#X obj 58 182 change;
#X msg 60 246 set \$1;
#X obj 60 227 tosymbol;
#X obj 59 204 sprintf Bus%d;
#X obj 3 282 throw~ Bus0;
#X obj 2 3 popup 124 25 #ffffff popup Bus0 Bus1 Bus2 Bus3 Bus4 Bus5
;
#X obj 1 32 route bang;
#X obj 154 202 *~;
#X obj 141 7 tgl 15 0 empty empty Dac 19 7 0 10 -262144 -1 -1 1 1;
#X obj 155 238 dac~;
#X obj 1 -41 loadbang;
#X text 59 -43 Bus0 mutes;
#X msg 1 -23 options Bus0 Bus1 Bus2 Bus3 Bus4 Bus5 Bus6 Bus7 Bus8 Bus9
Bus10 Bus11 Bus12 Bus13 Bus14 Bus15 Bus16;
#X connect 0 0 2 0;
#X connect 1 0 6 0;
#X connect 1 0 9 0;
#X connect 2 0 5 0;
#X connect 3 0 6 0;
#X connect 4 0 3 0;
#X connect 5 0 4 0;
#X connect 7 0 8 0;
#X connect 8 1 2 0;
#X connect 9 0 11 1;
#X connect 10 0 9 1;
#X connect 12 0 14 0;
#X connect 14 0 7 0;
#X coords 0 1 100 -1 180 30 1 0 0;
#X restore 15 141 graph;
#X connect 3 0 1 0;
#X connect 4 0 0 0;
#X connect 5 0 10 0;
#X connect 6 0 5 0;
#X connect 6 0 4 0;
#X connect 6 0 3 0;
#X connect 6 0 27 0;
#X connect 7 0 43 0;
#X connect 8 0 7 1;
#X connect 9 0 8 0;
#X connect 11 0 7 0;
#X connect 11 0 28 0;
#X connect 11 0 31 0;
#X connect 13 0 14 0;
#X connect 13 0 20 0;
#X connect 14 0 15 0;
#X connect 15 0 0 0;
#X connect 15 0 29 0;
#X connect 16 0 17 0;
#X connect 17 0 1 0;
#X connect 18 0 16 1;
#X connect 19 0 10 0;
#X connect 20 0 19 0;
#X connect 21 0 12 0;
#X connect 22 1 23 0;
#X connect 22 1 26 0;
#X connect 23 0 13 0;
#X connect 24 0 25 0;
#X connect 25 0 11 0;
#X connect 27 0 2 0;
#X connect 28 0 33 0;
#X connect 29 0 16 0;
#X connect 29 1 18 0;
#X connect 30 0 34 2;
#X connect 31 0 30 0;
#X connect 32 0 33 1;
#X connect 33 0 13 0;
#X connect 34 0 67 0;
#X connect 34 1 68 0;
#X connect 35 0 34 0;
#X connect 36 0 34 1;
#X connect 37 0 35 0;
#X connect 37 1 36 0;
#X connect 38 0 43 1;
#X connect 39 0 42 0;
#X connect 39 1 42 1;
#X connect 40 0 62 0;
#X connect 41 0 39 0;
#X connect 43 0 49 0;
#X connect 43 1 41 0;
#X connect 44 0 49 1;
#X connect 45 0 48 0;
#X connect 45 1 48 1;
#X connect 46 0 63 0;
#X connect 47 0 45 0;
#X connect 49 0 55 0;
#X connect 49 1 47 0;
#X connect 50 0 55 1;
#X connect 51 0 54 0;
#X connect 51 1 54 1;
#X connect 52 0 64 0;
#X connect 53 0 51 0;
#X connect 55 0 61 0;
#X connect 55 1 53 0;
#X connect 56 0 61 1;
#X connect 57 0 60 0;
#X connect 57 1 60 1;
#X connect 58 0 65 0;
#X connect 59 0 57 0;
#X connect 61 1 59 0;
#X connect 62 0 39 1;
#X connect 63 0 45 1;
#X connect 64 0 51 1;
#X connect 65 0 57 1;
