#N canvas 323 120 362 443 12;
#X declare -path z_objetsvolants_abs;
#X obj 26 121 simplesynth;
#X obj 38 66 bng 15 250 50 0 empty empty empty 17 7 0 10 -262144 -1
-1;
#X obj 38 16 key;
#X obj 38 41 select 32;
#X msg 297 316 \; pd dsp 1;
#X obj 297 292 loadbang;
#X obj 26 246 balance;
#X obj 26 292 delay~ 10000 1 1;
#X obj 26 319 vol2;
#X obj 217 146 vsl 20 80 0 1 0 0 empty empty feedback 0 -9 1 10 -258113
-1 -1 7821 0;
#X obj 163 142 vsl 20 80 1 10000 0 0 empty empty time 0 -9 1 10 -258113
-1 -1 789 0;
#X floatatom 163 230 5 0 0 0 - - -;
#X msg 232 99 0.99;
#X msg 163 100 200;
#X msg 164 74 1000;
#X msg 164 47 10000;
#X obj 162 292 delay~ 10000 1 1;
#X obj 259 225 loadbang;
#X msg 259 250 400;
#N canvas 724 213 472 300 synthrand 0;
#X obj 10 152 + 40;
#X obj 125 228 outlet;
#X obj 10 128 random 24;
#X obj 101 95 random 100;
#X obj 101 120 / 100;
#X msg 101 144 attack \$1;
#X obj 194 96 random 100;
#X obj 194 121 / 100;
#X msg 194 145 decay \$1;
#X obj 284 96 random 100;
#X obj 284 121 / 100;
#X msg 284 145 glide \$1;
#X obj 59 34 t b b;
#X obj 372 95 random 100;
#X obj 372 120 / 100;
#X msg 372 144 shape \$1;
#X obj 59 8 inlet;
#X connect 0 0 1 0;
#X connect 2 0 0 0;
#X connect 3 0 4 0;
#X connect 4 0 5 0;
#X connect 5 0 1 0;
#X connect 6 0 7 0;
#X connect 7 0 8 0;
#X connect 8 0 1 0;
#X connect 9 0 10 0;
#X connect 10 0 11 0;
#X connect 11 0 1 0;
#X connect 12 0 2 0;
#X connect 12 1 3 0;
#X connect 12 1 6 0;
#X connect 12 1 9 0;
#X connect 12 1 13 0;
#X connect 13 0 14 0;
#X connect 14 0 15 0;
#X connect 15 0 1 0;
#X connect 16 0 12 0;
#X restore 26 94 pd synthrand;
#X obj 51 196 random 100;
#X obj 51 220 / 100;
#X obj 296 359 declare -path z_objetsvolants_abs;
#N canvas 0 22 450 300 (subpatch) 0;
#X obj 59 155 inlet;
#X obj 3 89 inlet~;
#X obj 58 182 change;
#X msg 60 246 set \$1;
#X obj 60 227 tosymbol;
#X obj 59 204 sprintf Bus%d;
#X obj 3 282 throw~ Bus0;
#X obj 2 3 popup 124 25 #ffffff popup Bus0 Bus1 Bus2 Bus3 Bus4 Bus5
Bus6 Bus7 Bus8 Bus9 Bus10 Bus11 Bus12 Bus13 Bus14 Bus15 Bus16;
#X obj 1 32 route bang;
#X obj 154 202 *~;
#X obj 141 7 tgl 15 0 empty empty Dac 19 7 0 10 -262144 -1 -1 0 1;
#X obj 155 238 dac~;
#X obj 1 -41 loadbang;
#X text 59 -43 Bus0 mutes;
#X msg 1 -23 options Bus0 Bus1 Bus2 Bus3 Bus4 Bus5 Bus6 Bus7 Bus8 Bus9
Bus10 Bus11 Bus12 Bus13 Bus14 Bus15 Bus16;
#X connect 0 0 2 0;
#X connect 1 0 6 0;
#X connect 1 0 9 0;
#X connect 2 0 5 0;
#X connect 3 0 6 0;
#X connect 4 0 3 0;
#X connect 5 0 4 0;
#X connect 7 0 8 0;
#X connect 8 1 2 0;
#X connect 9 0 11 0;
#X connect 10 0 9 1;
#X connect 12 0 14 0;
#X connect 14 0 7 0;
#X coords 0 1 100 -1 180 30 1 0 0;
#X restore 29 382 graph;
#N canvas 0 22 450 300 (subpatch) 0;
#X obj 59 155 inlet;
#X obj 3 89 inlet~;
#X obj 58 182 change;
#X msg 60 246 set \$1;
#X obj 60 227 tosymbol;
#X obj 59 204 sprintf Bus%d;
#X obj 3 282 throw~ Bus0;
#X obj 2 3 popup 124 25 #ffffff popup Bus0 Bus1 Bus2 Bus3 Bus4 Bus5
Bus6 Bus7 Bus8 Bus9 Bus10 Bus11 Bus12 Bus13 Bus14 Bus15 Bus16;
#X obj 1 32 route bang;
#X obj 154 202 *~;
#X obj 141 7 tgl 15 0 empty empty Dac 19 7 0 10 -262144 -1 -1 0 1;
#X obj 155 238 dac~;
#X obj 1 -41 loadbang;
#X text 59 -43 Bus0 mutes;
#X msg 1 -23 options Bus0 Bus1 Bus2 Bus3 Bus4 Bus5 Bus6 Bus7 Bus8 Bus9
Bus10 Bus11 Bus12 Bus13 Bus14 Bus15 Bus16;
#X connect 0 0 2 0;
#X connect 1 0 6 0;
#X connect 1 0 9 0;
#X connect 2 0 5 0;
#X connect 3 0 6 0;
#X connect 4 0 3 0;
#X connect 5 0 4 0;
#X connect 7 0 8 0;
#X connect 8 1 2 0;
#X connect 9 0 11 1;
#X connect 10 0 9 1;
#X connect 12 0 14 0;
#X connect 14 0 7 0;
#X coords 0 1 100 -1 180 30 1 0 0;
#X restore 29 415 graph;
#X obj 95 14 r Bang2;
#X connect 0 0 6 0;
#X connect 1 0 19 0;
#X connect 1 0 20 0;
#X connect 2 0 3 0;
#X connect 3 0 1 0;
#X connect 5 0 4 0;
#X connect 6 0 7 0;
#X connect 6 1 16 0;
#X connect 7 0 8 0;
#X connect 8 0 23 0;
#X connect 8 1 24 0;
#X connect 10 0 11 0;
#X connect 11 0 7 1;
#X connect 11 0 16 1;
#X connect 12 0 9 0;
#X connect 13 0 10 0;
#X connect 14 0 10 0;
#X connect 15 0 10 0;
#X connect 16 0 8 1;
#X connect 17 0 18 0;
#X connect 19 0 0 0;
#X connect 20 0 21 0;
#X connect 21 0 6 1;
#X connect 25 0 1 0;
