#N canvas 401 49 623 587 12;
#X declare -path z_objetsvolants_abs;
#X obj 21 212 * 24;
#X obj 21 236 int;
#X obj 234 211 * 24;
#X obj 234 235 int;
#X obj 158 4 tgl 25 0 \$0-start empty start/stop 28 8 1 12 -258113
-1 -1 0 1;
#X obj 158 32 metro 200;
#X obj 234 259 + 49;
#X obj 114 69 random 7;
#X obj 114 94 select 0;
#X obj 114 119 delay 100;
#X obj 290 70 random 7;
#X obj 290 95 select 0;
#X obj 290 121 delay 100;
#X obj 400 46 loadbang;
#X msg 400 70 \; pd dsp 1;
#X obj 45 9 key;
#X obj 77 9 select 32;
#X obj 21 260 + 37;
#X obj 21 286 simplesynth;
#X obj 234 284 simplesynth;
#X msg 405 317 shape \$1;
#X msg 490 317 shape \$1;
#X msg 409 518 decay \$1;
#X msg 491 518 decay \$1;
#X msg 490 418 attack \$1;
#X msg 404 418 attack \$1;
#X obj 22 360 vol;
#X obj 233 358 vol;
#X msg 236 518 glide \$1;
#X msg 318 518 glide \$1;
#X obj 36 59 vsl 15 60 0 24 0 0 empty empty transpose 0 -9 1 10 -258699
-1 -1 0 1;
#X obj 23 419 vol2;
#X obj 405 268 + 1;
#X obj 405 292 / 2;
#X obj 405 244 osc 0.02;
#X obj 490 268 + 1;
#X obj 490 292 / 2;
#X obj 490 244 osc 0.024;
#X obj 404 369 + 1;
#X obj 404 393 / 2;
#X obj 404 345 osc 0.026;
#X obj 490 369 + 1;
#X obj 490 393 / 2;
#X obj 490 345 osc 0.028;
#X obj 491 469 + 1;
#X obj 491 493 / 2;
#X obj 409 469 + 1;
#X obj 409 493 / 2;
#X obj 409 445 osc 0.03;
#X obj 491 445 osc 0.032;
#X obj 318 469 + 1;
#X obj 236 469 + 1;
#X obj 318 445 osc 0.036;
#X obj 236 445 osc 0.032;
#X obj 236 493 / 8;
#X obj 318 493 / 8;
#X msg 508 102 change;
#X obj 21 150 sequence;
#X obj 234 150 sequence;
#X obj 26 565 declare -path z_objetsvolants_abs;
#N canvas 0 22 450 300 (subpatch) 0;
#X obj 59 155 inlet;
#X obj 3 89 inlet~;
#X obj 58 182 change;
#X msg 60 246 set \$1;
#X obj 60 227 tosymbol;
#X obj 59 204 sprintf Bus%d;
#X obj 3 282 throw~ Bus0;
#X obj 2 3 popup 124 25 #ffffff popup Bus0 Bus1 Bus2 Bus3 Bus4 Bus5
;
#X obj 1 32 route bang;
#X obj 154 202 *~;
#X obj 141 7 tgl 15 0 empty empty Dac 19 7 0 10 -262144 -1 -1 0 1;
#X obj 155 238 dac~;
#X obj 1 -41 loadbang;
#X text 59 -43 Bus0 mutes;
#X msg 1 -23 options Bus0 Bus1 Bus2 Bus3 Bus4 Bus5 Bus6 Bus7 Bus8 Bus9
Bus10 Bus11 Bus12 Bus13 Bus14 Bus15 Bus16;
#X connect 0 0 2 0;
#X connect 1 0 6 0;
#X connect 1 0 9 0;
#X connect 2 0 5 0;
#X connect 3 0 6 0;
#X connect 4 0 3 0;
#X connect 5 0 4 0;
#X connect 7 0 8 0;
#X connect 8 1 2 0;
#X connect 9 0 11 0;
#X connect 10 0 9 1;
#X connect 12 0 14 0;
#X connect 14 0 7 0;
#X coords 0 1 100 -1 180 30 1 0 0;
#X restore 11 481 graph;
#N canvas 0 22 450 300 (subpatch) 0;
#X obj 59 155 inlet;
#X obj 3 89 inlet~;
#X obj 58 182 change;
#X msg 60 246 set \$1;
#X obj 60 227 tosymbol;
#X obj 59 204 sprintf Bus%d;
#X obj 3 282 throw~ Bus0;
#X obj 2 3 popup 124 25 #ffffff popup Bus0 Bus1 Bus2 Bus3 Bus4 Bus5
;
#X obj 1 32 route bang;
#X obj 154 202 *~;
#X obj 141 7 tgl 15 0 empty empty Dac 19 7 0 10 -262144 -1 -1 0 1;
#X obj 155 238 dac~;
#X obj 1 -41 loadbang;
#X text 59 -43 Bus0 mutes;
#X msg 1 -23 options Bus0 Bus1 Bus2 Bus3 Bus4 Bus5 Bus6 Bus7 Bus8 Bus9
Bus10 Bus11 Bus12 Bus13 Bus14 Bus15 Bus16;
#X connect 0 0 2 0;
#X connect 1 0 6 0;
#X connect 1 0 9 0;
#X connect 2 0 5 0;
#X connect 3 0 6 0;
#X connect 4 0 3 0;
#X connect 5 0 4 0;
#X connect 7 0 8 0;
#X connect 8 1 2 0;
#X connect 9 0 11 1;
#X connect 10 0 9 1;
#X connect 12 0 14 0;
#X connect 14 0 7 0;
#X coords 0 1 100 -1 180 30 1 0 0;
#X restore 11 514 graph;
#X connect 0 0 1 0;
#X connect 1 0 17 0;
#X connect 2 0 3 0;
#X connect 3 0 6 0;
#X connect 4 0 5 0;
#X connect 5 0 7 0;
#X connect 5 0 10 0;
#X connect 5 0 57 0;
#X connect 5 0 58 0;
#X connect 6 0 19 0;
#X connect 7 0 8 0;
#X connect 8 0 9 0;
#X connect 9 0 57 0;
#X connect 10 0 11 0;
#X connect 11 0 12 0;
#X connect 12 0 58 0;
#X connect 13 0 14 0;
#X connect 15 0 16 0;
#X connect 16 0 4 0;
#X connect 17 0 18 0;
#X connect 18 0 26 0;
#X connect 19 0 27 0;
#X connect 20 0 18 0;
#X connect 21 0 19 0;
#X connect 22 0 18 0;
#X connect 23 0 19 0;
#X connect 24 0 19 0;
#X connect 25 0 18 0;
#X connect 26 0 31 0;
#X connect 27 0 31 1;
#X connect 28 0 18 0;
#X connect 29 0 19 0;
#X connect 30 0 0 1;
#X connect 30 0 2 1;
#X connect 31 0 60 0;
#X connect 31 1 61 0;
#X connect 32 0 33 0;
#X connect 33 0 20 0;
#X connect 34 0 32 0;
#X connect 35 0 36 0;
#X connect 36 0 21 0;
#X connect 37 0 35 0;
#X connect 38 0 39 0;
#X connect 39 0 25 0;
#X connect 40 0 38 0;
#X connect 41 0 42 0;
#X connect 42 0 24 0;
#X connect 43 0 41 0;
#X connect 44 0 45 0;
#X connect 45 0 23 0;
#X connect 46 0 47 0;
#X connect 47 0 22 0;
#X connect 48 0 46 0;
#X connect 49 0 44 0;
#X connect 50 0 55 0;
#X connect 51 0 54 0;
#X connect 52 0 50 0;
#X connect 53 0 51 0;
#X connect 54 0 28 0;
#X connect 55 0 29 0;
#X connect 56 0 57 1;
#X connect 56 0 58 1;
#X connect 57 0 0 0;
#X connect 57 1 58 1;
#X connect 58 0 2 0;
