#N canvas 0 22 598 417 12;
#X declare -path z_objetsvolants_abs;
#X obj 194 316 vol;
#X obj 194 241 simplesynth;
#X msg 121 189 attack \$1;
#X msg 213 189 decay \$1;
#X obj 121 141 random 100;
#X obj 121 165 / 100;
#X obj 31 96 metro;
#X obj 79 96 random 500;
#X obj 31 71 tgl 20 0 empty empty start/stop 25 7 1 12 -258113 -1 -1
1 1;
#X obj 31 156 random 50;
#X obj 31 181 + 30;
#X obj 213 139 random 100;
#X obj 213 163 / 100;
#X obj 31 23 key;
#X obj 31 47 select 32;
#X obj 302 139 random 100;
#X obj 302 163 / 100;
#X msg 302 189 shape \$1;
#X msg 389 189 glide \$1;
#X obj 439 166 *;
#X obj 480 139 random 2;
#X obj 391 139 random 200;
#X obj 170 33 vsl 20 80 0 1000 0 0 empty empty empty 0 -9 0 10 -262144
-1 -1 648 1;
#X obj 378 102 spigot;
#X obj 421 82 tgl 15 0 empty empty empty 17 7 0 10 -262144 -1 -1 1
1;
#X obj 196 32 metro;
#X obj 196 58 random 1000;
#X obj 244 32 random 5000;
#X obj 421 58 metro;
#X obj 469 58 random 5000;
#X obj 469 83 + 100;
#X obj 439 34 tgl 15 0 empty empty empty 17 7 0 10 -262144 -1 -1 0
1;
#X obj 350 261 loadbang;
#X msg 350 288 \; pd dsp 1;
#X text 608 395 Les Objets Volants 2008;
#X obj 441 370 record randomnotes2;
#X obj 217 492 declare -path z_objetsvolants_abs;
#N canvas 0 22 450 300 (subpatch) 0;
#X obj 59 155 inlet;
#X obj 3 89 inlet~;
#X obj 58 182 change;
#X msg 60 246 set \$1;
#X obj 60 227 tosymbol;
#X obj 59 204 sprintf Bus%d;
#X obj 3 282 throw~ Bus0;
#X obj 2 3 popup 124 25 #ffffff popup Bus0 Bus1 Bus2 Bus3 Bus4 Bus5
;
#X obj 1 32 route bang;
#X obj 154 202 *~;
#X obj 141 7 tgl 15 0 empty empty Dac 19 7 0 10 -262144 -1 -1 0 1;
#X obj 155 238 dac~;
#X obj 1 -41 loadbang;
#X text 59 -43 Bus0 mutes;
#X msg 1 -23 options Bus0 Bus1 Bus2 Bus3 Bus4 Bus5 Bus6 Bus7 Bus8 Bus9
Bus10 Bus11 Bus12 Bus13 Bus14 Bus15 Bus16;
#X connect 0 0 2 0;
#X connect 1 0 6 0;
#X connect 1 0 9 0;
#X connect 2 0 5 0;
#X connect 3 0 6 0;
#X connect 4 0 3 0;
#X connect 5 0 4 0;
#X connect 7 0 8 0;
#X connect 8 1 2 0;
#X connect 9 0 11 0;
#X connect 9 0 11 1;
#X connect 10 0 9 1;
#X connect 12 0 14 0;
#X connect 14 0 7 0;
#X coords 0 1 100 -1 180 30 1 0 0;
#X restore 147 383 graph;
#X connect 0 0 35 0;
#X connect 0 0 35 1;
#X connect 0 0 37 0;
#X connect 1 0 0 0;
#X connect 2 0 1 0;
#X connect 3 0 1 0;
#X connect 4 0 5 0;
#X connect 5 0 2 0;
#X connect 6 0 7 0;
#X connect 6 0 9 0;
#X connect 6 0 23 0;
#X connect 7 0 6 1;
#X connect 8 0 6 0;
#X connect 8 0 25 0;
#X connect 8 0 28 0;
#X connect 9 0 10 0;
#X connect 10 0 1 0;
#X connect 11 0 12 0;
#X connect 12 0 3 0;
#X connect 13 0 14 0;
#X connect 14 0 8 0;
#X connect 15 0 16 0;
#X connect 16 0 17 0;
#X connect 17 0 1 0;
#X connect 18 0 1 0;
#X connect 19 0 18 0;
#X connect 20 0 19 1;
#X connect 21 0 19 0;
#X connect 22 0 7 1;
#X connect 23 0 20 0;
#X connect 23 0 21 0;
#X connect 23 0 15 0;
#X connect 23 0 11 0;
#X connect 23 0 4 0;
#X connect 24 0 23 1;
#X connect 25 0 26 0;
#X connect 25 0 27 0;
#X connect 26 0 22 0;
#X connect 27 0 25 1;
#X connect 28 0 29 0;
#X connect 28 0 24 0;
#X connect 29 0 30 0;
#X connect 30 0 28 1;
#X connect 31 0 28 0;
#X connect 32 0 33 0;
