#N canvas 0 22 450 300 10;
#X obj 180 122 pack;
#X obj 203 149 line~;
#X obj 180 96 sqrt;
#X obj 203 173 *~;
#X obj 203 197 *~;
#X obj 223 97 r reset;
#X msg 223 121 0 20;
#X obj 180 69 / 2;
#X obj 172 33 inlet;
#X obj 265 49 inlet;
#X obj 205 228 outlet~;
#X text 69 120 Amplitude;
#X text 70 136 envelope;
#X connect 0 0 1 0;
#X connect 1 0 3 0;
#X connect 1 0 3 1;
#X connect 2 0 0 0;
#X connect 3 0 4 0;
#X connect 3 0 4 1;
#X connect 4 0 10 0;
#X connect 5 0 6 0;
#X connect 6 0 1 0;
#X connect 7 0 2 0;
#X connect 8 0 7 0;
#X connect 9 0 0 1;
