#N canvas 0 22 1009 720 10;
#X msg 36 216 next;
#X obj 21 326 pack 0 p;
#X obj 21 9 inlet;
#X obj 21 38 route start stop;
#X msg 74 59 \; reset bang;
#X obj 240 115 s reset;
#X obj 36 196 r next-evt;
#X obj 545 406 print UNMAPPED_COLOR;
#X obj 21 280 t p p;
#X text 118 202 first pointer is "moving-cursor" \, then the rest are
"template-sample";
#X obj 119 124 move-cursor;
#X obj 99 273 bang;
#X text 133 274 if its not a template-sample \, get another pointer
;
#X obj 21 250 pointer template-toplevel;
#X obj 21 302 get template-toplevel voiceno;
#X obj 21 349 route 777 9 90 900 99 909 990 944 240 647 582 365 958
993 750 202 960;
#X obj 578 82 r reset;
#X msg 655 153 \; reset-stop stop \; time-of-last-evt 0 \; pd-data
sort \;;
#X obj 21 95 trigger bang bang bang bang;
#X msg 28 136 \; pd-data sort \;;
#X obj 659 373 s delay-multiplier;
#X obj 662 298 t b f;
#X msg 658 325 1000;
#X obj 676 349 /;
#X obj 662 272 r tempo;
#X text 382 354 grey = 777;
#X msg 20 169 traverse pd-dataSynth \, next;
#X text -137 503 blue;
#X text 106 510 yellow;
#X text -40 506 red;
#X text 45 508 magenta;
#X text 4 508 cyan;
#X text -186 503 grey;
#X text -87 500 green;
#X text 165 511 pink;
#X obj -193 487 outlet;
#X obj -146 486 outlet;
#X obj -97 487 outlet;
#X obj -49 489 outlet;
#X obj -2 488 outlet;
#X obj 47 489 outlet;
#X obj 109 488 outlet;
#X obj 156 487 outlet;
#X obj 206 492 outlet;
#X obj 253 491 outlet;
#X obj 302 492 outlet;
#X obj 350 494 outlet;
#X obj 397 493 outlet;
#X obj 446 494 outlet;
#X obj 508 493 outlet;
#X obj 555 492 outlet;
#X obj 608 492 outlet;
#X obj 655 491 outlet;
#X text 206 510 olive green;
#X text 250 472 lavender;
#X text 302 509 apple green;
#X text 342 472 emerald green;
#X text 408 512 parm;
#X text 458 508 egg;
#X text 510 509 mustard;
#X text 563 506 prun;
#X text 614 510 orange;
#X connect 0 0 13 0;
#X connect 1 0 15 0;
#X connect 2 0 3 0;
#X connect 3 0 18 0;
#X connect 3 1 4 0;
#X connect 6 0 0 0;
#X connect 8 0 14 0;
#X connect 8 1 1 1;
#X connect 11 0 0 0;
#X connect 13 0 8 0;
#X connect 13 1 11 0;
#X connect 14 0 1 0;
#X connect 15 0 35 0;
#X connect 15 1 36 0;
#X connect 15 2 38 0;
#X connect 15 3 39 0;
#X connect 15 4 40 0;
#X connect 15 5 41 0;
#X connect 15 6 42 0;
#X connect 15 7 43 0;
#X connect 15 8 44 0;
#X connect 15 9 45 0;
#X connect 15 10 46 0;
#X connect 15 11 47 0;
#X connect 15 12 48 0;
#X connect 15 13 49 0;
#X connect 15 14 50 0;
#X connect 15 15 51 0;
#X connect 15 16 52 0;
#X connect 15 17 7 0;
#X connect 16 0 17 0;
#X connect 18 0 26 0;
#X connect 18 1 19 0;
#X connect 18 2 10 0;
#X connect 18 3 5 0;
#X connect 21 0 22 0;
#X connect 21 1 23 1;
#X connect 22 0 23 0;
#X connect 23 0 20 0;
#X connect 24 0 21 0;
#X connect 26 0 13 0;
