#N canvas 554 169 716 554 10;
#X obj 103 17 keyup;
#X obj 406 112 moses 49;
#X obj 457 134 moses 58;
#X obj 457 163 - 48;
#X obj 486 265 moses;
#X msg 457 207 1;
#X obj 457 242 +;
#X obj 486 242 f;
#X obj 387 231 bang;
#X msg 535 207 0;
#X obj 457 188 trigger bang bang float;
#X obj 613 235 + 1;
#X obj 387 334 outlet;
#X text 494 166 ASCII "1" = 49;
#X obj 198 20 inlet;
#X obj 103 61 spigot;
#X obj 91 333 outlet;
#X obj 86 206 sel 32;
#X text 141 204 space bar;
#X connect 0 0 15 0;
#X connect 1 1 2 0;
#X connect 2 0 3 0;
#X connect 3 0 10 0;
#X connect 4 0 6 1;
#X connect 4 0 8 0;
#X connect 5 0 6 0;
#X connect 6 0 7 0;
#X connect 7 0 4 0;
#X connect 8 0 5 0;
#X connect 8 0 12 0;
#X connect 9 0 7 1;
#X connect 9 0 6 1;
#X connect 10 0 5 0;
#X connect 10 1 9 0;
#X connect 10 2 11 0;
#X connect 11 0 4 1;
#X connect 14 0 15 1;
#X connect 15 0 1 0;
#X connect 15 0 17 0;
#X connect 17 0 16 0;
