#N canvas 258 32 600 614 10;
#X msg 41 131 next;
#X obj 25 165 pointer moving-cursor;
#X msg 274 507 0;
#X obj 274 554 set moving-cursor x;
#X obj 55 466 *;
#X obj 71 448 r delay-multiplier;
#X obj 25 438 t f f;
#X obj 25 492 pack f f;
#X obj 274 533 line;
#X obj 25 6 inlet;
#X obj 274 15 r reset-stop;
#X obj 96 186 bang;
#X obj 274 34 t b b;
#X obj 25 220 t bang pointer;
#X obj 167 328 t b b;
#X obj 167 307 spigot;
#X msg 167 366 0;
#X obj 167 391 append moving-cursor x;
#X obj 316 363 pointer;
#X msg 217 249 1;
#X msg 185 249 0;
#X text 216 312 <-- if the cursor exists \, don't create a new one
;
#X text 168 412 create a cursor scalar if one does not already exist.
;
#X text 83 579 Whenever this patch creates a new cursor \, an error
will be output: "error: set: empty pointer";
#X msg 25 104 traverse pd-data \, next;
#X msg 316 344 traverse pd-data \, bang;
#X msg 25 416 1000;
#X connect 0 0 1 0;
#X connect 1 0 13 0;
#X connect 1 1 11 0;
#X connect 1 2 15 0;
#X connect 2 0 8 0;
#X connect 4 0 7 1;
#X connect 5 0 4 1;
#X connect 6 0 7 0;
#X connect 6 1 4 0;
#X connect 7 0 8 0;
#X connect 8 0 3 0;
#X connect 9 0 24 0;
#X connect 10 0 12 0;
#X connect 11 0 0 0;
#X connect 12 0 2 0;
#X connect 12 1 24 0;
#X connect 12 1 19 0;
#X connect 13 0 26 0;
#X connect 13 0 20 0;
#X connect 13 1 3 1;
#X connect 14 0 16 0;
#X connect 14 1 25 0;
#X connect 15 0 14 0;
#X connect 16 0 17 0;
#X connect 18 0 17 1;
#X connect 19 0 15 1;
#X connect 20 0 15 1;
#X connect 24 0 1 0;
#X connect 25 0 18 0;
#X connect 26 0 6 0;
