#N canvas 140 22 802 537 10;
#X obj 244 286 line~;
#X obj 244 310 *~;
#X obj 244 334 *~;
#X obj 246 134 mtof;
#X obj 244 182 sqrt;
#X obj 244 206 sqrt;
#X obj 244 262 pack;
#X obj 295 134 +;
#X obj 295 157 mtof;
#X obj 295 181 sqrt;
#X obj 295 205 sqrt;
#X obj 295 286 line~;
#X obj 295 310 *~;
#X obj 295 334 *~;
#X obj 295 262 pack;
#X obj 194 286 line~;
#X obj 194 310 *~;
#X obj 194 334 *~;
#X obj 194 262 pack;
#X obj 194 159 mtof;
#X obj 194 183 sqrt;
#X obj 194 207 sqrt;
#X obj 194 137 -;
#X text 331 315 calculate time-varying center frequencies;
#X obj 182 391 outlet~;
#X obj 239 391 outlet~;
#X obj 309 390 outlet~;
#X obj 199 54 inlet;
#X obj 281 -3 inlet;
#X obj 476 168 inlet;
#X connect 0 0 1 0;
#X connect 0 0 1 1;
#X connect 1 0 2 0;
#X connect 1 0 2 1;
#X connect 2 0 25 0;
#X connect 3 0 4 0;
#X connect 4 0 5 0;
#X connect 5 0 6 0;
#X connect 6 0 0 0;
#X connect 7 0 8 0;
#X connect 8 0 9 0;
#X connect 9 0 10 0;
#X connect 10 0 14 0;
#X connect 11 0 12 0;
#X connect 11 0 12 1;
#X connect 12 0 13 0;
#X connect 12 0 13 1;
#X connect 13 0 26 0;
#X connect 14 0 11 0;
#X connect 15 0 16 0;
#X connect 15 0 16 1;
#X connect 16 0 17 0;
#X connect 16 0 17 1;
#X connect 17 0 24 0;
#X connect 18 0 15 0;
#X connect 19 0 20 0;
#X connect 20 0 21 0;
#X connect 21 0 18 0;
#X connect 22 0 19 0;
#X connect 27 0 22 0;
#X connect 27 0 3 0;
#X connect 27 0 7 0;
#X connect 28 0 22 1;
#X connect 28 0 7 1;
#X connect 29 0 18 1;
#X connect 29 0 6 1;
#X connect 29 0 14 1;
