#N canvas 158 42 454 401 10;
#X floatatom 100 -30 5 0 0 0 - - -;
#X floatatom 154 -29 5 0 0 0 - - -;
#X floatatom 208 -30 5 0 0 0 - - -;
#X obj 100 -14 * 10;
#X obj 154 -13 / 1;
#X obj 208 -14 / 1;
#X floatatom 262 -30 5 0 0 0 - - -;
#X obj 262 -14 / 1;
#X obj 100 -178 ctlin 4;
#X obj 154 -156 ctlin 5;
#X obj 208 -137 ctlin 6;
#X obj 262 -118 ctlin 7;
#X floatatom 316 -30 5 0 0 0 - - -;
#X obj 316 -14 / 1;
#X obj 316 -99 ctlin 8;
#X floatatom 100 3 5 0 0 0 - - -;
#X floatatom 154 4 5 0 0 0 - - -;
#X floatatom 208 3 5 0 0 0 - - -;
#X floatatom 262 3 5 0 0 0 - - -;
#X floatatom 316 3 5 0 0 0 - - -;
#N canvas 0 22 450 300 (subpatch) 0;
#N canvas 0 22 450 300 (subpatch) 0;
#X array signal 882 float 0;
#X coords 0 1.02 882 -1.02 100 100 1;
#X restore 5 25 graph;
#N canvas 0 22 450 300 (subpatch) 0;
#X array spectrum 259 float 0;
#X coords 0 1.01 258 -0.008 100 100 1;
#X restore 118 24 graph;
#X obj -168 -255 phasor~;
#X obj -168 -192 -~ 0.25;
#X obj -169 -168 cos~;
#X obj -168 -79 -~;
#X obj -108 -193 -~ 0.25;
#X obj -108 -168 cos~;
#X obj -108 -215 -~;
#X floatatom 74 -111 5 0 300 2 distance - -;
#X obj 74 -91 / 100;
#X obj -167 5 /~;
#X obj -94 -99 sig~ 1;
#X obj -94 -72 +~;
#X obj -108 -124 *~;
#X floatatom 150 -111 5 0 100 2 index - -;
#X obj 150 -92 / 100;
#X obj -46 -101 *~;
#X obj -46 -158 sig~;
#X obj -94 -36 -~;
#X obj 2 -127 *~ 2;
#X obj 18 -167 cos~;
#X obj 2 -78 *~;
#X obj -43 -245 phasor~;
#X obj -168 -303 sig~;
#X obj -44 -266 *~;
#X obj -28 -304 sig~;
#X obj -167 81 *~ 0.25;
#X obj -166 60 hip~ 1;
#X obj -96 80 r~ graphme;
#X obj -156 30 s~ graphme;
#X obj 74 -70 s dist;
#X obj -28 -325 r dist;
#X obj 150 -70 s index;
#X obj -46 -179 r index;
#X floatatom -168 -321 5 0 0 2 freq - -;
#X obj -119 -340 inlet;
#X obj 81 -182 inlet;
#X obj 147 -180 inlet;
#X obj 275 -132 inlet;
#X obj 341 -130 inlet;
#N canvas 466 145 558 609 fft---- 0;
#X obj 19 61 inlet~;
#X obj 224 210 inlet;
#X obj 29 92 rfft~;
#X obj 29 125 *~;
#X obj 60 125 *~;
#X obj 29 155 sqrt~;
#X obj 332 109 block~ 4096 1;
#X obj 29 181 biquad~ 0 0 0 0 1;
#X text 93 93 Fourier series;
#X text 98 146 magnitude;
#X text 96 131 calculate;
#X text 21 3 This subpatch computes the spectrum of the incoming signal
with a (rectangular windowed) FFT. FFTs aren't properly introduced
until much later.;
#X text 83 61 signal to analyze;
#X text 193 164 delay two samples;
#X text 191 182 for better graphing;
#X obj 264 434 samplerate~;
#X obj 251 255 metro 500;
#X obj 251 232 inlet;
#X text 301 232 toggle to graph repeatedly;
#X text 278 210 bang to graph once;
#X obj 29 205 /~ 4096;
#X obj 264 409 bang~;
#X obj 264 457 / 512;
#X obj 264 483 s freq/2;
#X msg 224 321 \; pd dsp 1;
#X obj 424 173 tgl 18 1 empty empty empty 0 -6 0 8 -262144 -1 -1 1
1;
#X obj 250 291 tabwrite~ spectrum;
#X obj 19 295 tabwrite~ signal;
#X obj 19 256 *~;
#X obj 69 382 hsl 128 15 0 1 0 0 empty empty empty -2 -6 0 8 -262144
-1 -1 0 1;
#X obj 80 426 *~;
#X obj 130 552 hsl 128 15 0 12 0 0 empty empty empty -2 -6 0 8 -262144
-1 -1 0 1;
#X obj 372 348 inlet;
#X obj 435 370 inlet;
#X connect 0 0 2 0;
#X connect 0 0 28 0;
#X connect 1 0 24 0;
#X connect 1 0 26 0;
#X connect 1 0 27 0;
#X connect 2 0 3 0;
#X connect 2 0 3 1;
#X connect 2 1 4 0;
#X connect 2 1 4 1;
#X connect 3 0 5 0;
#X connect 4 0 5 0;
#X connect 5 0 7 0;
#X connect 7 0 20 0;
#X connect 15 0 22 0;
#X connect 16 0 26 0;
#X connect 16 0 27 0;
#X connect 17 0 16 0;
#X connect 17 0 24 0;
#X connect 20 0 30 0;
#X connect 21 0 15 0;
#X connect 22 0 23 0;
#X connect 25 0 16 0;
#X connect 28 0 27 0;
#X connect 29 0 28 1;
#X connect 30 0 26 0;
#X connect 31 0 30 1;
#X connect 32 0 29 0;
#X connect 33 0 31 0;
#X restore -96 101 pd fft----;
#X obj -166 110 outlet~;
#X connect 2 0 3 0;
#X connect 2 0 8 0;
#X connect 3 0 4 0;
#X connect 4 0 5 0;
#X connect 5 0 11 0;
#X connect 6 0 7 0;
#X connect 7 0 14 0;
#X connect 8 0 6 0;
#X connect 9 0 10 0;
#X connect 10 0 31 0;
#X connect 11 0 28 0;
#X connect 11 0 30 0;
#X connect 12 0 13 0;
#X connect 13 0 19 0;
#X connect 14 0 5 1;
#X connect 15 0 16 0;
#X connect 16 0 33 0;
#X connect 17 0 13 1;
#X connect 18 0 17 0;
#X connect 18 0 17 1;
#X connect 18 0 20 0;
#X connect 18 0 14 1;
#X connect 19 0 11 1;
#X connect 20 0 22 0;
#X connect 21 0 22 1;
#X connect 22 0 19 1;
#X connect 23 0 8 1;
#X connect 23 0 21 0;
#X connect 24 0 2 0;
#X connect 24 0 25 0;
#X connect 25 0 23 0;
#X connect 26 0 25 1;
#X connect 27 0 42 0;
#X connect 28 0 27 0;
#X connect 29 0 41 0;
#X connect 32 0 26 0;
#X connect 34 0 18 0;
#X connect 35 0 24 0;
#X connect 36 0 35 0;
#X connect 37 0 9 0;
#X connect 38 0 15 0;
#X connect 39 0 41 3;
#X connect 40 0 41 4;
#X coords 0 1 100 -1 223 140 1 0 0;
#X restore 100 20 graph;
#X obj 262 -59 knob 25 25 0 127 0 0 empty empty empty 0 -8 32 8 -1
-260097 -260097 0 1;
#X obj 208 -59 knob 25 25 0 127 0 0 empty empty empty 0 -8 32 8 -1
-260097 -260097 0 1;
#X obj 154 -58 knob 25 25 0 127 0 0 empty empty empty 0 -8 32 8 -1
-260097 -260097 0 1;
#X obj 100 -59 knob 25 25 0 127 0 0 empty empty empty 0 -8 32 8 -1
-260097 -260097 0 1;
#X obj 316 -59 knob 25 25 0 127 0 0 empty empty empty 0 -8 32 8 -1
-260097 -260097 0 1;
#X text 151 -179 F;
#X text 206 -159 Dist;
#X text 261 -137 Index;
#X text 313 -119 Graph ctl 1;
#X text 366 -99 Graph ctl 2;
#N canvas 0 22 450 300 (subpatch) 0;
#X obj 59 155 inlet;
#X obj 3 89 inlet~;
#X obj 58 182 change;
#X msg 60 246 set \$1;
#X obj 60 227 tosymbol;
#X obj 59 204 sprintf Bus%d;
#X obj 3 282 throw~ Bus0;
#X obj 2 3 popup 124 25 #ffffff popup Bus0 Bus1 Bus2 Bus3 Bus4 Bus5
;
#X obj 1 32 route bang;
#X obj 154 202 *~;
#X obj 141 7 tgl 15 0 empty empty Dac 19 7 0 10 -262144 -1 -1 0 1;
#X obj 155 238 dac~;
#X obj 8 -63 loadbang;
#X text 66 -65 Bus0 mutes;
#X msg 8 -45 options Bus0 Bus1 Bus2 Bus3 Bus4 Bus5 Bus6 Bus7 Bus8 Bus9
Bus10 Bus11 Bus12 Bus13 Bus14 Bus15 Bus16;
#X connect 0 0 2 0;
#X connect 1 0 6 0;
#X connect 1 0 9 0;
#X connect 2 0 5 0;
#X connect 3 0 6 0;
#X connect 4 0 3 0;
#X connect 5 0 4 0;
#X connect 7 0 8 0;
#X connect 8 1 2 0;
#X connect 9 0 11 0;
#X connect 9 0 11 1;
#X connect 10 0 9 1;
#X connect 12 0 14 0;
#X connect 14 0 7 0;
#X coords 0 1 100 -1 180 30 1 0 0;
#X restore 100 160 graph;
#N canvas 0 22 450 300 (subpatch) 0;
#X obj -30 22 spigot;
#X obj 2 3 tgl 15 0 empty empty empty 17 7 0 10 -262144 -1 -1 0 1;
#X obj -58 0 inlet;
#X obj -54 54 outlet;
#X connect 0 0 3 0;
#X connect 1 0 0 1;
#X connect 2 0 0 0;
#X coords 0 1 100 -1 20 20 1 0 0;
#X restore 208 -82 graph;
#N canvas 0 22 450 300 (subpatch) 0;
#X obj -30 22 spigot;
#X obj 2 3 tgl 15 0 empty empty empty 17 7 0 10 -262144 -1 -1 0 1;
#X obj -58 0 inlet;
#X obj -54 54 outlet;
#X connect 0 0 3 0;
#X connect 1 0 0 1;
#X connect 2 0 0 0;
#X coords 0 1 100 -1 20 20 1 0 0;
#X restore 262 -82 graph;
#N canvas 0 22 450 300 (subpatch) 0;
#X obj -30 22 spigot;
#X obj 2 3 tgl 15 0 empty empty empty 17 7 0 10 -262144 -1 -1 0 1;
#X obj -58 0 inlet;
#X obj -54 54 outlet;
#X connect 0 0 3 0;
#X connect 1 0 0 1;
#X connect 2 0 0 0;
#X coords 0 1 100 -1 20 20 1 0 0;
#X restore 316 -82 graph;
#N canvas 0 22 450 300 (subpatch) 0;
#X obj -30 22 spigot;
#X obj 2 3 tgl 15 0 empty empty empty 17 7 0 10 -262144 -1 -1 0 1;
#X obj -58 0 inlet;
#X obj -54 54 outlet;
#X connect 0 0 3 0;
#X connect 1 0 0 1;
#X connect 2 0 0 0;
#X coords 0 1 100 -1 20 20 1 0 0;
#X restore 154 -81 graph;
#N canvas 0 22 450 300 (subpatch) 0;
#X obj -30 22 spigot;
#X obj 2 3 tgl 15 0 empty empty empty 17 7 0 10 -262144 -1 -1 0 1;
#X obj -58 0 inlet;
#X obj -54 54 outlet;
#X connect 0 0 3 0;
#X connect 1 0 0 1;
#X connect 2 0 0 0;
#X coords 0 1 100 -1 20 20 1 0 0;
#X restore 100 -82 graph;
#X connect 0 0 3 0;
#X connect 1 0 4 0;
#X connect 2 0 5 0;
#X connect 3 0 15 0;
#X connect 4 0 16 0;
#X connect 5 0 17 0;
#X connect 6 0 7 0;
#X connect 7 0 18 0;
#X connect 8 0 36 0;
#X connect 9 0 35 0;
#X connect 10 0 32 0;
#X connect 11 0 33 0;
#X connect 12 0 13 0;
#X connect 13 0 19 0;
#X connect 14 0 34 0;
#X connect 15 0 20 0;
#X connect 16 0 20 1;
#X connect 17 0 20 2;
#X connect 18 0 20 3;
#X connect 19 0 20 4;
#X connect 20 0 31 0;
#X connect 21 0 6 0;
#X connect 22 0 2 0;
#X connect 23 0 1 0;
#X connect 24 0 0 0;
#X connect 25 0 12 0;
#X connect 32 0 22 0;
#X connect 33 0 21 0;
#X connect 34 0 25 0;
#X connect 35 0 23 0;
#X connect 36 0 24 0;
