#N canvas 0 22 710 730 10;
#N canvas 0 22 800 671 cheby_expr 0;
#X obj 179 11 expr $f2*$f1;
#X text 269 12 T1(x);
#X obj 177 59 expr $f2*(2*(pow($f1 \, (2))) - 1);
#X text 398 61 T2(x);
#X obj 174 106 expr $f2*(4*(pow($f1 \, (3))) - 3*$f1);
#X text 409 107 T3(x);
#X text 508 162 T4(x);
#X obj 176 157 expr $f2*(8*(pow($f1 \, (4))) - 8*(pow($f1 \, (2)))
+ 1);
#X obj 176 209 expr $f2*(16*(pow($f1 \, (5))) - 20*(pow($f1 \, (3)))
+ 5*$f1);
#X text 541 213 T5(x);
#X obj 177 248 expr $f2*(32*(pow($f1 \, (6))) - 48*(pow($f1 \, (4)))
+ 18*(pow($f1 \, (2))) - 1);
#X text 533 254 T6(x);
#X obj 176 313 expr $f2*(64*(pow($f1 \, (7))) - 112*(pow($f1 \, (5)))
+ 56*(pow($f1 \, (3))) - 7*$f1);
#X text 524 320 T7(x);
#X obj 181 375 expr $f2*(128*(pow($f1 \, (8))) - 256*(pow($f1 \, (6)))
+ 160*(pow($f1 \, (4))) - 32*(pow($f1 \, (2))) + 1);
#X text 527 380 T8(x);
#X obj 183 445 expr $f2*(256*(pow($f1 \, (9))) - 576*(pow($f1 \, (7)))
+ 432*(pow($f1 \, (5))) - 120*(pow($f1 \, (3))) + 9*$f1);
#X text 522 449 T9(x);
#X obj 183 504 expr $f2*(512*(pow($f1 \, (10))) - 1280*(pow($f1 \,
(8))) + 1120*(pow($f1 \, (6))) - 400*(pow($f1 \, (4))) + 50*(pow($f1
\, (2))) - 1);
#X text 546 513 T10(x);
#X obj 183 568 expr $f2*(1024*(pow($f1 \, (11))) - 2816*(pow($f1 \,
(9))) + 2816*(pow($f1 \, (7))) - 1232*(pow($f1 \, (5))) + 220*(pow($f1
\, (3))) - 11*$f1);
#X text 556 573 T11(x);
#X restore 382 89 pd cheby_expr;
#N canvas 0 22 1024 705 builder 0;
#N canvas 0 22 450 300 T0(x) 0;
#X obj 124 90 inlet x;
#X obj 209 90 inlet amplitude;
#X obj 155 178 outlet;
#X obj 183 134 * 1;
#X text 135 218 just produces dc offset???;
#X connect 1 0 3 0;
#X connect 3 0 2 0;
#X restore 226 381 pd T0(x);
#N canvas 0 22 450 300 T1(x) 0;
#X obj 119 116 expr $f2*$f1;
#X obj 107 88 inlet x;
#X obj 188 87 inlet amp;
#X obj 118 146 outlet;
#X connect 0 0 3 0;
#X connect 1 0 0 0;
#X connect 2 0 0 1;
#X restore 292 380 pd T1(x);
#N canvas 0 22 450 300 T2(x) 0;
#X obj 101 123 expr $f2*(2*(pow($f1 \, (2))) - 1);
#X obj 101 82 inlet x;
#X obj 291 82 inlet amp;
#X obj 99 166 outlet;
#X connect 0 0 3 0;
#X connect 1 0 0 0;
#X connect 2 0 0 1;
#X restore 357 380 pd T2(x);
#N canvas 0 22 450 300 T3(x) 0;
#X obj 104 134 expr $f2*(4*(pow($f1 \, (3))) - 3*$f1);
#X obj 104 100 inlet x;
#X obj 265 99 inlet amp;
#X obj 104 175 outlet;
#X connect 0 0 3 0;
#X connect 1 0 0 0;
#X connect 2 0 0 1;
#X restore 422 380 pd T3(x);
#N canvas 0 22 450 300 T4(x) 0;
#X obj 64 150 expr $f2*(8*(pow($f1 \, (4))) - 8*(pow($f1 \, (2))) +
1);
#X obj 62 112 inlet x;
#X obj 320 106 inlet amp;
#X obj 64 190 outlet;
#X connect 0 0 3 0;
#X connect 1 0 0 0;
#X connect 2 0 0 1;
#X restore 488 382 pd T4(x);
#N canvas 0 22 450 300 T5(x) 0;
#X obj 44 148 expr $f2*(16*(pow($f1 \, (5))) - 20*(pow($f1 \, (3)))
+ 5*$f1);
#X obj 46 99 inlet x;
#X obj 338 106 inlet amp;
#X obj 44 196 outlet;
#X connect 0 0 3 0;
#X connect 1 0 0 0;
#X connect 2 0 0 1;
#X restore 562 384 pd T5(x);
#N canvas 0 22 450 300 T6(x) 0;
#X obj 54 146 expr $f2*(32*(pow($f1 \, (6))) - 48*(pow($f1 \, (4)))
+ 18*(pow($f1 \, (2))) - 1);
#X obj 57 100 inlet x;
#X obj 305 104 inlet amp;
#X obj 57 209 outlet;
#X connect 0 0 3 0;
#X connect 1 0 0 0;
#X connect 2 0 0 1;
#X restore 214 488 pd T6(x);
#N canvas 0 22 522 277 T7(x) 0;
#X obj 54 103 expr $f2*(64*(pow($f1 \, (7))) - 112*(pow($f1 \, (5)))
+ 56*(pow($f1 \, (3))) - 7*$f1);
#X obj 56 53 inlet x;
#X obj 312 57 inlet amp;
#X obj 55 167 outlet;
#X connect 0 0 3 0;
#X connect 1 0 0 0;
#X connect 2 0 0 1;
#X restore 285 485 pd T7(x);
#N canvas 0 22 491 214 T8(x) 0;
#X obj 36 92 expr $f2*(128*(pow($f1 \, (8))) - 256*(pow($f1 \, (6)))
+ 160*(pow($f1 \, (4))) - 32*(pow($f1 \, (2))) + 1);
#X obj 41 42 inlet x;
#X obj 265 45 inlet amp;
#X obj 40 151 outlet;
#X connect 0 0 3 0;
#X connect 1 0 0 0;
#X connect 2 0 0 1;
#X restore 348 483 pd T8(x);
#N canvas 0 22 514 206 T9(x) 0;
#X obj 49 86 expr $f2*(256*(pow($f1 \, (9))) - 576*(pow($f1 \, (7)))
+ 432*(pow($f1 \, (5))) - 120*(pow($f1 \, (3))) + 9*$f1);
#X obj 49 43 inlet x;
#X obj 279 42 inlet amp;
#X obj 55 143 outlet;
#X connect 0 0 3 0;
#X connect 1 0 0 0;
#X connect 2 0 0 1;
#X restore 417 484 pd T9(x);
#N canvas 0 22 530 226 T10(x) 0;
#X obj 40 81 expr $f2*(512*(pow($f1 \, (10))) - 1280*(pow($f1 \, (8)))
+ 1120*(pow($f1 \, (6))) - 400*(pow($f1 \, (4))) + 50*(pow($f1 \, (2)))
- 1);
#X obj 40 38 inlet x;
#X obj 324 42 inlet amp;
#X obj 39 150 outlet;
#X connect 0 0 3 0;
#X connect 1 0 0 0;
#X connect 2 0 0 1;
#X restore 479 483 pd T10(x);
#N canvas 0 22 534 242 T11(x) 0;
#X obj 45 72 expr $f2*(1024*(pow($f1 \, (11))) - 2816*(pow($f1 \, (9)))
+ 2816*(pow($f1 \, (7))) - 1232*(pow($f1 \, (5))) + 220*(pow($f1 \,
(3))) - 11*$f1);
#X obj 46 23 inlet x;
#X obj 334 28 inlet amp;
#X obj 47 136 outlet;
#X connect 0 0 3 0;
#X connect 1 0 0 0;
#X connect 2 0 0 1;
#X restore 553 483 pd T11(x);
#X obj 241 334 t f f;
#N canvas 0 22 1159 571 adder 0;
#X obj 51 85 > 0;
#X obj 40 61 t f f;
#X obj 42 113 +;
#X obj 43 177 +;
#X obj 42 22 r T0;
#X obj 127 23 r T1;
#X obj 200 25 r T2;
#X obj 271 26 r T3;
#X obj 338 25 r T4;
#X obj 409 26 r T5;
#X obj 474 27 r T6;
#X obj 554 33 r T7;
#X obj 643 39 r T8;
#X obj 759 37 r T9;
#X obj 911 34 r T10;
#X obj 1057 33 r T11;
#X obj 138 78 > 0;
#X obj 127 54 t f f;
#X obj 129 106 +;
#X obj 129 138 t b f;
#X obj 209 133 > 0;
#X obj 198 109 t f f;
#X obj 200 161 +;
#X obj 193 193 t b f;
#X obj 115 233 +;
#X obj 270 160 > 0;
#X obj 259 136 t f f;
#X obj 261 188 +;
#X obj 261 220 t b f;
#X obj 202 263 +;
#X obj 323 176 > 0;
#X obj 312 152 t f f;
#X obj 314 204 +;
#X obj 314 236 t b f;
#X obj 269 285 +;
#X obj 398 202 > 0;
#X obj 387 178 t f f;
#X obj 389 230 +;
#X obj 389 262 t b f;
#X obj 344 311 +;
#X obj 474 222 > 0;
#X obj 463 198 t f f;
#X obj 465 250 +;
#X obj 465 282 t b f;
#X obj 420 331 +;
#X obj 560 246 > 0;
#X obj 549 222 t f f;
#X obj 551 274 +;
#X obj 551 306 t b f;
#X obj 506 355 +;
#X obj 644 269 > 0;
#X obj 633 245 t f f;
#X obj 635 297 +;
#X obj 635 329 t b f;
#X obj 590 378 +;
#X obj 723 286 > 0;
#X obj 712 262 t f f;
#X obj 714 314 +;
#X obj 714 346 t b f;
#X obj 669 395 +;
#X obj 795 313 > 0;
#X obj 784 289 t f f;
#X obj 786 341 +;
#X obj 786 373 t b f;
#X obj 741 422 +;
#X obj 879 339 > 0;
#X obj 868 315 t f f;
#X obj 870 367 +;
#X obj 870 399 t b f;
#X obj 825 448 +;
#X obj 830 487 s div;
#X connect 0 0 2 1;
#X connect 1 0 2 0;
#X connect 1 1 0 0;
#X connect 2 0 3 0;
#X connect 3 0 24 0;
#X connect 4 0 1 0;
#X connect 5 0 17 0;
#X connect 6 0 21 0;
#X connect 7 0 26 0;
#X connect 8 0 31 0;
#X connect 9 0 36 0;
#X connect 10 0 41 0;
#X connect 11 0 46 0;
#X connect 12 0 51 0;
#X connect 13 0 56 0;
#X connect 14 0 61 0;
#X connect 15 0 66 0;
#X connect 16 0 18 1;
#X connect 17 0 18 0;
#X connect 17 1 16 0;
#X connect 18 0 19 0;
#X connect 19 0 3 0;
#X connect 19 1 3 1;
#X connect 20 0 22 1;
#X connect 21 0 22 0;
#X connect 21 1 20 0;
#X connect 22 0 23 0;
#X connect 23 0 24 0;
#X connect 23 1 24 1;
#X connect 24 0 29 0;
#X connect 25 0 27 1;
#X connect 26 0 27 0;
#X connect 26 1 25 0;
#X connect 27 0 28 0;
#X connect 28 0 29 0;
#X connect 28 1 29 1;
#X connect 29 0 34 0;
#X connect 30 0 32 1;
#X connect 31 0 32 0;
#X connect 31 1 30 0;
#X connect 32 0 33 0;
#X connect 33 0 34 0;
#X connect 33 1 34 1;
#X connect 34 0 39 0;
#X connect 35 0 37 1;
#X connect 36 0 37 0;
#X connect 36 1 35 0;
#X connect 37 0 38 0;
#X connect 38 0 39 0;
#X connect 38 1 39 1;
#X connect 39 0 44 0;
#X connect 40 0 42 1;
#X connect 41 0 42 0;
#X connect 41 1 40 0;
#X connect 42 0 43 0;
#X connect 43 0 44 0;
#X connect 43 1 44 1;
#X connect 44 0 49 0;
#X connect 45 0 47 1;
#X connect 46 0 47 0;
#X connect 46 1 45 0;
#X connect 47 0 48 0;
#X connect 48 0 49 0;
#X connect 48 1 49 1;
#X connect 49 0 54 0;
#X connect 50 0 52 1;
#X connect 51 0 52 0;
#X connect 51 1 50 0;
#X connect 52 0 53 0;
#X connect 53 0 54 0;
#X connect 53 1 54 1;
#X connect 54 0 59 0;
#X connect 55 0 57 1;
#X connect 56 0 57 0;
#X connect 56 1 55 0;
#X connect 57 0 58 0;
#X connect 58 0 59 0;
#X connect 58 1 59 1;
#X connect 59 0 64 0;
#X connect 60 0 62 1;
#X connect 61 0 62 0;
#X connect 61 1 60 0;
#X connect 62 0 63 0;
#X connect 63 0 64 0;
#X connect 63 1 64 1;
#X connect 64 0 69 0;
#X connect 65 0 67 1;
#X connect 66 0 67 0;
#X connect 66 1 65 0;
#X connect 67 0 68 0;
#X connect 68 0 69 0;
#X connect 68 1 69 1;
#X connect 69 0 70 0;
#X restore 822 25 pd adder;
#X obj 389 605 r div;
#X floatatom 388 631 5 0 0 0 - - -;
#X obj 247 357 s T0;
#X obj 312 329 t f f;
#X obj 318 352 s T1;
#X obj 376 329 t f f;
#X obj 382 352 s T2;
#X obj 442 327 t f f;
#X obj 448 350 s T3;
#X obj 507 326 t f f;
#X obj 513 349 s T4;
#X obj 578 329 t f f;
#X obj 584 352 s T5;
#X obj 230 433 t f f;
#X obj 236 456 s T6;
#X obj 302 436 t f f;
#X obj 308 459 s T7;
#X obj 366 432 t f f;
#X obj 372 455 s T8;
#X obj 437 429 t f f;
#X obj 443 452 s T9;
#X obj 502 428 t f f;
#X obj 508 451 s T10;
#X obj 577 429 t f f;
#X obj 583 452 s T11;
#N canvas 0 22 994 582 wave_adder 0;
#X obj 43 177 +;
#X obj 129 138 t b f;
#X obj 193 193 t b f;
#X obj 115 233 +;
#X obj 261 220 t b f;
#X obj 202 263 +;
#X obj 314 236 t b f;
#X obj 269 285 +;
#X obj 389 262 t b f;
#X obj 344 311 +;
#X obj 465 282 t b f;
#X obj 420 331 +;
#X obj 551 306 t b f;
#X obj 506 355 +;
#X obj 635 329 t b f;
#X obj 590 378 +;
#X obj 714 346 t b f;
#X obj 669 395 +;
#X obj 786 373 t b f;
#X obj 741 422 +;
#X obj 870 399 t b f;
#X obj 825 448 +;
#X obj 38 69 inlet T0;
#X obj 130 103 inlet T1;
#X obj 193 156 inlet T2;
#X obj 262 183 inlet T3;
#X obj 314 206 inlet T4;
#X obj 388 226 inlet T5;
#X obj 462 241 inlet T6;
#X obj 553 265 inlet T7;
#X obj 630 294 inlet T8;
#X obj 712 314 inlet T9;
#X obj 782 338 inlet T10;
#X obj 866 364 inlet T11;
#X obj 826 484 outlet;
#X connect 0 0 3 0;
#X connect 1 0 0 0;
#X connect 1 1 0 1;
#X connect 2 0 3 0;
#X connect 2 1 3 1;
#X connect 3 0 5 0;
#X connect 4 0 5 0;
#X connect 4 1 5 1;
#X connect 5 0 7 0;
#X connect 6 0 7 0;
#X connect 6 1 7 1;
#X connect 7 0 9 0;
#X connect 8 0 9 0;
#X connect 8 1 9 1;
#X connect 9 0 11 0;
#X connect 10 0 11 0;
#X connect 10 1 11 1;
#X connect 11 0 13 0;
#X connect 12 0 13 0;
#X connect 12 1 13 1;
#X connect 13 0 15 0;
#X connect 14 0 15 0;
#X connect 14 1 15 1;
#X connect 15 0 17 0;
#X connect 16 0 17 0;
#X connect 16 1 17 1;
#X connect 17 0 19 0;
#X connect 18 0 19 0;
#X connect 18 1 19 1;
#X connect 19 0 21 0;
#X connect 20 0 21 0;
#X connect 20 1 21 1;
#X connect 21 0 34 0;
#X connect 22 0 0 0;
#X connect 23 0 1 0;
#X connect 24 0 2 0;
#X connect 25 0 4 0;
#X connect 26 0 6 0;
#X connect 27 0 8 0;
#X connect 28 0 10 0;
#X connect 29 0 12 0;
#X connect 30 0 14 0;
#X connect 31 0 16 0;
#X connect 32 0 18 0;
#X connect 33 0 20 0;
#X restore 353 578 pd wave_adder;
#X obj 336 247 t f f f f f f f f f f f f;
#N canvas 0 22 450 300 (subpatch) 0;
#X array cheby_builder 259 float 2;
#X coords 0 1 259 -1 200 140 1;
#X restore 859 118 graph;
#X obj 353 626 /;
#X obj 351 661 tabwrite cheby_builder;
#X obj 343 111 until;
#X msg 344 80 258;
#X obj 343 145 f;
#X obj 389 146 + 1;
#X msg 397 111 0;
#X obj 344 179 t f f;
#X obj 393 177 s place;
#X obj 505 661 r place;
#X obj 343 53 t b b;
#X obj 340 210 expr ($f1 - 129) / 128;
#X obj 814 278 hsl 128 15 0 10 0 0 amp0 empty T0(x) -2 -8 0 10 -262144
-1 -1 0 1;
#X obj 239 306 r amp0;
#X obj 814 330 hsl 128 15 0 10 0 0 amp1 empty T1(x) -2 -8 0 10 -262144
-1 -1 0 1;
#X floatatom 811 295 5 0 0 0 - - -;
#X floatatom 811 347 5 0 0 0 - - -;
#X obj 814 381 hsl 128 15 0 10 0 0 amp2 empty T2(x) -2 -8 0 10 -262144
-1 -1 0 1;
#X floatatom 811 398 5 0 0 0 - - -;
#X obj 309 304 r amp1;
#X obj 374 303 r amp2;
#X obj 814 430 hsl 128 15 0 10 0 0 amp3 empty T3(x) -2 -8 0 10 -262144
-1 -1 0 1;
#X floatatom 811 447 5 0 0 0 - - -;
#X obj 437 304 r amp3;
#X obj 503 301 r amp4;
#X obj 569 301 r amp5;
#X obj 221 406 r amp6;
#X obj 287 407 r amp7;
#X obj 362 407 r amp8;
#X obj 434 403 r amp9;
#X obj 501 405 r amp10;
#X obj 574 405 r amp11;
#X obj 813 481 hsl 128 15 0 10 0 0 amp4 empty T4(x) -2 -8 0 10 -262144
-1 -1 0 1;
#X floatatom 810 498 5 0 0 0 - - -;
#X obj 812 531 hsl 128 15 0 10 0 0 amp5 empty T5(x) -2 -8 0 10 -262144
-1 -1 0 1;
#X floatatom 809 548 5 0 0 0 - - -;
#X obj 811 581 hsl 128 15 0 10 0 0 amp6 empty T6(x) -2 -8 0 10 -262144
-1 -1 0 1;
#X floatatom 808 598 5 0 0 0 - - -;
#X obj 959 381 hsl 128 15 0 10 0 0 amp7 empty T7(x) -2 -8 0 10 -262144
-1 -1 0 1;
#X floatatom 956 398 5 0 0 0 - - -;
#X obj 959 432 hsl 128 15 0 10 0 0 amp8 empty T8(x) -2 -8 0 10 -262144
-1 -1 0 1;
#X floatatom 956 449 5 0 0 0 - - -;
#X obj 959 481 hsl 128 15 0 10 0 0 amp9 empty T9(x) -2 -8 0 10 -262144
-1 -1 0 1;
#X floatatom 956 498 5 0 0 0 - - -;
#X obj 959 532 hsl 128 15 0 10 0 0 amp10 empty T10(x) -2 -8 0 10 -262144
-1 -1 0 1;
#X floatatom 956 549 5 0 0 0 - - -;
#X obj 959 581 hsl 128 15 0 10 0 0 amp11 empty T11(x) -2 -8 0 10 -262144
-1 -1 0 1;
#X floatatom 956 599 5 0 0 0 - - -;
#X obj 968 304 bng 30 250 50 0 build empty BUILD 0 -10 0 20 -204750
-1 -1;
#X obj 341 16 r build;
#X connect 0 0 39 0;
#X connect 1 0 39 1;
#X connect 2 0 39 2;
#X connect 3 0 39 3;
#X connect 4 0 39 4;
#X connect 5 0 39 5;
#X connect 6 0 39 6;
#X connect 7 0 39 7;
#X connect 8 0 39 8;
#X connect 9 0 39 9;
#X connect 10 0 39 10;
#X connect 11 0 39 11;
#X connect 12 0 0 1;
#X connect 12 1 16 0;
#X connect 14 0 15 0;
#X connect 15 0 42 1;
#X connect 17 0 1 1;
#X connect 17 1 18 0;
#X connect 19 0 2 1;
#X connect 19 1 20 0;
#X connect 21 0 3 1;
#X connect 21 1 22 0;
#X connect 23 0 4 1;
#X connect 23 1 24 0;
#X connect 25 0 5 1;
#X connect 25 1 26 0;
#X connect 27 0 6 1;
#X connect 27 1 28 0;
#X connect 29 0 7 1;
#X connect 29 1 30 0;
#X connect 31 0 8 1;
#X connect 31 1 32 0;
#X connect 33 0 9 1;
#X connect 33 1 34 0;
#X connect 35 0 10 1;
#X connect 35 1 36 0;
#X connect 37 0 11 1;
#X connect 37 1 38 0;
#X connect 39 0 42 0;
#X connect 40 0 0 0;
#X connect 40 1 1 0;
#X connect 40 2 2 0;
#X connect 40 3 3 0;
#X connect 40 4 4 0;
#X connect 40 5 5 0;
#X connect 40 6 6 0;
#X connect 40 7 7 0;
#X connect 40 8 8 0;
#X connect 40 9 9 0;
#X connect 40 10 10 0;
#X connect 40 11 11 0;
#X connect 42 0 43 0;
#X connect 44 0 46 0;
#X connect 45 0 44 0;
#X connect 46 0 47 0;
#X connect 46 0 49 0;
#X connect 47 0 46 1;
#X connect 48 0 46 1;
#X connect 49 0 53 0;
#X connect 49 1 50 0;
#X connect 51 0 43 1;
#X connect 52 0 45 0;
#X connect 52 1 48 0;
#X connect 53 0 40 0;
#X connect 54 0 57 0;
#X connect 55 0 12 0;
#X connect 56 0 58 0;
#X connect 59 0 60 0;
#X connect 61 0 17 0;
#X connect 62 0 19 0;
#X connect 63 0 64 0;
#X connect 65 0 21 0;
#X connect 66 0 23 0;
#X connect 67 0 25 0;
#X connect 68 0 27 0;
#X connect 69 0 29 0;
#X connect 70 0 31 0;
#X connect 71 0 33 0;
#X connect 72 0 35 0;
#X connect 73 0 37 0;
#X connect 74 0 75 0;
#X connect 76 0 77 0;
#X connect 78 0 79 0;
#X connect 80 0 81 0;
#X connect 82 0 83 0;
#X connect 84 0 85 0;
#X connect 86 0 87 0;
#X connect 88 0 89 0;
#X connect 91 0 52 0;
#X coords 0 -1 1 1 300 520 2 800 100;
#X restore 79 36 pd builder;
#N canvas 0 22 341 567 test_synth 0;
#X obj 109 318 *~;
#X obj 114 151 hsl 128 15 0 0.913 0 0 empty empty amplitude -2 -8 0
10 -262144 -1 -1 0 1;
#X obj 173 303 lop~ 1;
#X obj 110 347 *~ 128;
#X obj 112 378 +~ 129;
#X obj 116 443 *~ 0.25;
#X obj 114 118 hsl 128 15 0 1000 0 0 empty empty pitch -2 -8 0 10 -262144
-1 -1 0 1;
#X obj 114 409 tabread4~ cheby_builder;
#X obj 107 284 osc~ 220;
#X obj 112 484 outlet~;
#X connect 0 0 3 0;
#X connect 1 0 2 0;
#X connect 2 0 0 1;
#X connect 3 0 4 0;
#X connect 4 0 7 0;
#X connect 5 0 9 0;
#X connect 6 0 8 0;
#X connect 7 0 5 0;
#X connect 8 0 0 0;
#X coords 0 -1 1 1 160 80 2 100 100;
#X restore 382 159 pd test_synth;
#X msg 382 52 \; pd dsp \$1;
#X obj 382 36 tgl 15 1 empty empty empty 17 7 0 10 -262144 -1 -1 0
1;
#X text 417 379 T0(x) doesn't really need to be here;
#X text 418 415 T1(x) is a linear function;
#X text 417 362 set amplitudes and then hit build;
#X text 414 452 there is no calculation for the;
#X text 417 473 combined amplitudes of all the;
#X text 417 492 components;
#X text 421 516 if you hear it clipping it's too;
#X text 425 539 loud!;
#X text 390 452 ***;
#X text 464 542 ***;
#X text 416 394 (it seems to produce dc offset);
#N canvas 0 22 450 300 (subpatch) 0;
#X obj 59 155 inlet;
#X obj 3 89 inlet~;
#X obj 58 182 change;
#X msg 60 246 set \$1;
#X obj 60 227 tosymbol;
#X obj 59 204 sprintf Bus%d;
#X obj 3 282 throw~ Bus0;
#X obj 2 3 popup 124 25 #ffffff popup Bus0 Bus1 Bus2 Bus3 Bus4 Bus5
Bus6 Bus7 Bus8 Bus9 Bus10 Bus11 Bus12 Bus13 Bus14 Bus15 Bus16;
#X obj 1 32 route bang;
#X obj 154 202 *~;
#X obj 141 7 tgl 15 0 empty empty Dac 19 7 0 10 -262144 -1 -1 0 1;
#X obj 155 238 dac~;
#X obj 1 -49 loadbang;
#X text 59 -51 Bus0 mutes;
#X msg 1 -31 options Bus0 Bus1 Bus2 Bus3 Bus4 Bus5 Bus6 Bus7 Bus8 Bus9
Bus10 Bus11 Bus12 Bus13 Bus14 Bus15 Bus16;
#X connect 0 0 2 0;
#X connect 1 0 6 0;
#X connect 1 0 9 0;
#X connect 2 0 5 0;
#X connect 3 0 6 0;
#X connect 4 0 3 0;
#X connect 5 0 4 0;
#X connect 7 0 8 0;
#X connect 8 1 2 0;
#X connect 9 0 11 0;
#X connect 9 0 11 1;
#X connect 10 0 9 1;
#X connect 12 0 14 0;
#X connect 14 0 7 0;
#X coords 0 1 100 -1 180 30 1 0 0;
#X restore 382 239 graph;
#X connect 2 0 16 0;
#X connect 4 0 3 0;
