#N canvas 0 22 231 102 10;
#N canvas 0 22 450 300 vdirac 0;
#X obj 30 161 vline~;
#X obj 74 50 samplerate~;
#X msg 74 73 1000 \$1;
#X obj 74 95 /;
#X msg 30 139 1 \, 0 0 \$1;
#X obj 30 117 f;
#X text 114 96 1000 / sr = sampleperiod (ms);
#X obj 30 88 b;
#X obj 74 26 loadbang;
#X obj 30 27 inlet;
#X obj 31 225 outlet~;
#X text 140 190 Author: Roman Haefeli;
#X text 140 207 Version: 2007-11-18;
#X connect 0 0 10 0;
#X connect 1 0 2 0;
#X connect 2 0 3 0;
#X connect 3 0 5 1;
#X connect 4 0 0 0;
#X connect 5 0 4 0;
#X connect 7 0 5 0;
#X connect 8 0 1 0;
#X connect 9 0 7 0;
#X restore 12 32 pd vdirac;
#X obj 12 12 bng 20 250 50 0 empty empty empty 17 7 0 10 -262144 -1
-1;
#N canvas 0 22 450 300 (subpatch) 0;
#X obj 59 155 inlet;
#X obj 3 89 inlet~;
#X obj 58 182 change;
#X msg 60 246 set \$1;
#X obj 60 227 tosymbol;
#X obj 59 204 sprintf Bus%d;
#X obj 3 282 throw~ Bus0;
#X obj 2 3 popup 124 25 #ffffff popup Bus0 Bus1 Bus2 Bus3 Bus4 Bus5
;
#X obj 1 32 route bang;
#X obj 154 202 *~;
#X obj 141 7 tgl 15 0 empty empty Dac 19 7 0 10 -262144 -1 -1 0 1;
#X obj 155 238 dac~;
#X obj -24 -59 loadbang;
#X text 34 -61 Bus0 mutes;
#X msg -24 -41 options Bus0 Bus1 Bus2 Bus3 Bus4 Bus5 Bus6 Bus7 Bus8
Bus9 Bus10 Bus11 Bus12 Bus13 Bus14 Bus15 Bus16;
#X connect 0 0 2 0;
#X connect 1 0 6 0;
#X connect 1 0 9 0;
#X connect 2 0 5 0;
#X connect 3 0 6 0;
#X connect 4 0 3 0;
#X connect 5 0 4 0;
#X connect 7 0 8 0;
#X connect 8 1 2 0;
#X connect 9 0 11 0;
#X connect 9 0 11 1;
#X connect 10 0 9 1;
#X connect 12 0 14 0;
#X connect 14 0 7 0;
#X coords 0 1 100 -1 180 30 1 0 0;
#X restore 12 49 graph;
#X connect 0 0 2 0;
#X connect 1 0 0 0;
