#N canvas 331 156 497 334 10;
#N canvas 608 166 249 182 ARGOnOff 0;
#X obj 100 100 tgl 18 1 \$0-SendOnOff \$0-ReceiveOnOff On/Off 20 9
0 12 -4033 -1 -1 0 1;
#X obj 99 39 loadbang;
#X msg 99 62 \; pd dsp 1;
#X obj 100 129 outlet;
#X connect 0 0 3 0;
#X connect 1 0 2 0;
#X coords 0 -1 1 1 65 18 2 100 100;
#X restore -72 109 pd ARGOnOff;
#X obj -72 134 switch~;
#X obj -27 18 cnv 15 15 15 empty empty ExMM48e-FilterCombGenerator.pd
0 8 1 14 -262144 -1 0;
#X obj -59 165 active;
#N canvas 424 161 167 191 clic 0;
#X obj 23 17 MouseState;
#X obj 23 82 &;
#X obj 23 100 == 0;
#X obj 23 136 s \$0-SendClic;
#X obj 48 51 t b f;
#X obj 23 118 metro 200;
#X obj 94 17 inlet;
#X connect 0 0 1 0;
#X connect 1 0 2 0;
#X connect 2 0 5 0;
#X connect 4 0 1 0;
#X connect 4 1 1 1;
#X connect 5 0 3 0;
#X connect 6 0 4 0;
#X restore -59 186 pd clic;
#N canvas 290 162 362 206 ARGO 0;
#X obj 101 113 cnv 4 10 4 empty empty empty 0 0 0 9 -1 -66577 0;
#X obj 100 100 nbx 5 12 0 99999 0 1 \$0-A \$0-B Hz 47 7 1 9 -262144
-1 -1 6 256;
#X obj 158 103 cnv 10 20 10 empty empty Alea1 1 5 1 14 -262144 -1 1.04858e+06
;
#X obj 101 113 cnv 4 10 4 empty empty empty 20 12 0 14 -1 -66577 0
;
#X obj 52 172 outlet~;
#X obj 52 141 noish~;
#X text 6 23 Pb noish~ ecrit sr=44100.000000 sn=0.000000 dans la fen
Pd quand Audio Off -> On;
#X text 6 53 (library zexy);
#X connect 1 0 5 0;
#X connect 5 0 4 0;
#X coords 0 -1 1 1 95 18 2 100 100;
#X restore 3 109 pd ARGO;
#N canvas 350 62 312 366 ARGO 0;
#X obj 101 101 cnv 20 104 34 empty ColorAmpli empty 20 12 0 14 -261299
-1 1.04858e+06;
#X obj 85 257 outlet~;
#X obj 134 104 cnv 10 20 10 empty ColorAmpli Ampli 1 5 1 14 -261299
-1 1.04858e+06;
#X obj 89 -82 inlet~;
#X obj 85 228 *~;
#X obj 103 118 hsl 101 12 0 1.25 0 1 \$0-A ColorAmpli -21dB 0 7 1 9
-261299 -1 -1 5900 0;
#X obj 100 195 /~ 10000;
#X msg 213 61 label \$1;
#X obj 212 38 tosymbol;
#X obj 213 -61 * 80;
#X obj 213 -39 - 80;
#X obj 212 3 sprintf %ddB;
#X obj 101 101 cnv 4 10 4 empty empty empty 20 12 0 14 -1 -66577 0
;
#X obj 101 131 cnv 4 10 4 empty empty empty 20 12 0 14 -1 -66577 0
;
#X text 221 20 -> -80dB..20dB;
#X text 218 -16 -> -80 .. 20;
#X text 104 139 -> 0..1.2;
#X text 109 177 -> 1..100000;
#X text 109 211 -> 0.0001..10 = -80dB..20dB;
#X obj 100 161 cyclone/pow~ 10000;
#X connect 3 0 4 0;
#X connect 4 0 1 0;
#X connect 5 0 9 0;
#X connect 5 0 19 0;
#X connect 6 0 4 1;
#X connect 7 0 5 0;
#X connect 8 0 7 0;
#X connect 9 0 10 0;
#X connect 10 0 11 0;
#X connect 11 0 8 0;
#X connect 19 0 6 0;
#X coords 0 -1 1 1 106 36 1 100 100;
#X restore 106 127 pd ARGO;
#N canvas 290 162 362 206 ARGO 0;
#X obj 101 113 cnv 4 10 4 empty empty empty 0 0 0 9 -1 -66577 0;
#X obj 100 100 nbx 5 12 0 99999 0 1 \$0-A \$0-B Hz 47 7 1 9 -262144
-1 -1 2 256;
#X obj 158 103 cnv 10 20 10 empty empty Alea1 1 5 1 14 -262144 -1 1.04858e+06
;
#X obj 101 113 cnv 4 10 4 empty empty empty 20 12 0 14 -1 -66577 0
;
#X obj 52 172 outlet~;
#X obj 52 141 noish~;
#X text 6 23 Pb noish~ ecrit sr=44100.000000 sn=0.000000 dans la fen
Pd quand Audio Off -> On;
#X text 6 53 (library zexy);
#X connect 1 0 5 0;
#X connect 5 0 4 0;
#X coords 0 -1 1 1 95 18 2 100 100;
#X restore 213 109 pd ARGO;
#N canvas 350 62 312 366 ARGO 0;
#X obj 101 101 cnv 20 104 34 empty ColorAmpli empty 20 12 0 14 -261299
-1 1.04858e+06;
#X obj 85 257 outlet~;
#X obj 134 104 cnv 10 20 10 empty ColorAmpli Ampli 1 5 1 14 -261299
-1 1.04858e+06;
#X obj 89 -82 inlet~;
#X obj 85 228 *~;
#X obj 103 118 hsl 101 12 0 1.25 0 1 \$0-A ColorAmpli -21dB 0 7 1 9
-261299 -1 -1 5900 0;
#X obj 100 195 /~ 10000;
#X msg 213 61 label \$1;
#X obj 212 38 tosymbol;
#X obj 213 -61 * 80;
#X obj 213 -39 - 80;
#X obj 212 3 sprintf %ddB;
#X obj 101 101 cnv 4 10 4 empty empty empty 20 12 0 14 -1 -66577 0
;
#X obj 101 131 cnv 4 10 4 empty empty empty 20 12 0 14 -1 -66577 0
;
#X text 221 20 -> -80dB..20dB;
#X text 218 -16 -> -80 .. 20;
#X text 104 139 -> 0..1.2;
#X text 109 177 -> 1..100000;
#X text 109 211 -> 0.0001..10 = -80dB..20dB;
#X obj 100 161 cyclone/pow~ 10000;
#X connect 3 0 4 0;
#X connect 4 0 1 0;
#X connect 5 0 9 0;
#X connect 5 0 19 0;
#X connect 6 0 4 1;
#X connect 7 0 5 0;
#X connect 8 0 7 0;
#X connect 9 0 10 0;
#X connect 10 0 11 0;
#X connect 11 0 8 0;
#X connect 19 0 6 0;
#X coords 0 -1 1 1 106 36 1 100 100;
#X restore 213 127 pd ARGO;
#N canvas 87 121 403 313 ARGO 0;
#X obj 101 101 cnv 20 215 41 empty ColorForm empty 20 12 0 14 -188398
-1 1.04858e+06;
#X obj 248 105 cnv 10 65 10 empty ColorForm Flt-Comb 1 5 1 14 -188398
-1 1.04858e+06;
#X obj 101 138 cnv 4 10 4 empty empty empty 20 12 0 14 -1 -66577 0
;
#X obj 203 101 cnv 4 10 4 empty empty empty 20 12 0 14 -1728 -66577
0;
#X obj 87 56 inlet~;
#X obj 234 125 hsl 81 12 0 1 0 1 \$0-A ColorForm 97.8 0 7 1 9 -188398
-1 -1 7824 0;
#X obj 103 125 hsl 127 12 0 1 0 0 \$0-A ColorTime C\$3 0 7 1 9 -208064
-1 -1 5567 0;
#X obj 100 113 nbx 7 12 0 20000 0 1 \$0-A ColorTime Hz 60 7 1 9 -208064
-1 -1 288.047 256;
#X obj 188 56 inlet~;
#X obj 295 56 inlet~;
#X obj 101 101 cnv 4 10 4 empty empty empty 20 12 0 14 -1 -66577 0
;
#X obj 306 101 cnv 4 10 4 empty empty empty 20 12 0 14 -3522 -66577
0;
#X obj 86 287 outlet~;
#X text 322 72 24 5 2009;
#N canvas 45 224 376 364 Freqv5 0;
#X obj 58 175 ftom;
#X obj 164 204 mtof;
#X obj 182 59 +~;
#X obj 67 107 snapshot~;
#X obj 67 129 change;
#X msg 9 221 set \$1;
#X msg 165 226 set \$1;
#X obj 163 157 * 126;
#X obj 164 180 + 6;
#X obj 60 220 / 126;
#X obj 59 198 - 6;
#X obj 141 17 *~ 1.90476;
#X obj 268 155 mtof~;
#X obj 233 250 outlet~;
#X obj 267 95 *~ 126;
#X obj 268 117 +~ 6;
#X obj 53 -8 r \$0-SendClic;
#X obj 224 -12 inlet;
#X obj 289 15 inlet;
#X obj 61 252 outlet;
#X obj 165 250 outlet;
#N canvas 60 186 488 293 pitch 0;
#X obj 73 85 mod 12;
#X obj 73 109 sel 0 1 2 3 4 5 6 7 8 9 10 11;
#X msg 249 144 A;
#X msg 276 144 A#;
#X msg 303 144 B;
#X msg 222 144 G#;
#X msg 195 144 G;
#X msg 168 144 F#;
#X msg 6 144 C;
#X msg 33 144 C#;
#X msg 60 144 D;
#X msg 87 144 D#;
#X msg 114 144 E;
#X msg 141 144 F;
#X obj 207 4 inlet;
#X obj 332 89 div 12;
#X obj 332 118 - 2;
#X obj 263 212 tosymbol;
#X obj 207 43 t f f;
#X obj 263 187 sprintf %s%d;
#X text 337 164 -> Numero de l'octave;
#X text 213 25 -> Numero MIDI de la note (69 = A3 = 440Hz);
#X msg 263 234 label \$1;
#X obj 263 257 outlet;
#X connect 0 0 1 0;
#X connect 1 0 8 0;
#X connect 1 1 9 0;
#X connect 1 2 10 0;
#X connect 1 3 11 0;
#X connect 1 4 12 0;
#X connect 1 5 13 0;
#X connect 1 6 7 0;
#X connect 1 7 6 0;
#X connect 1 8 5 0;
#X connect 1 9 2 0;
#X connect 1 10 3 0;
#X connect 1 11 4 0;
#X connect 2 0 19 0;
#X connect 3 0 19 0;
#X connect 4 0 19 0;
#X connect 5 0 19 0;
#X connect 6 0 19 0;
#X connect 7 0 19 0;
#X connect 8 0 19 0;
#X connect 9 0 19 0;
#X connect 10 0 19 0;
#X connect 11 0 19 0;
#X connect 12 0 19 0;
#X connect 13 0 19 0;
#X connect 14 0 18 0;
#X connect 15 0 16 0;
#X connect 16 0 19 1;
#X connect 17 0 22 0;
#X connect 18 0 0 0;
#X connect 18 1 15 0;
#X connect 19 0 17 0;
#X connect 22 0 23 0;
#X restore 101 219 pd pitch;
#X text 58 270 Hslider;
#X text 271 -2 number Freq;
#X text 220 -31 Hslider;
#X text 151 269 number Freq;
#X obj 223 17 * 126;
#X obj 224 40 + 6;
#X obj 141 -8 inlet~;
#X obj 268 182 clip~ 2 20000;
#X obj 232 223 /~;
#X text 236 268 Out ms;
#X obj 204 156 sig~ 1000;
#X connect 0 0 10 0;
#X connect 1 0 6 0;
#X connect 2 0 3 0;
#X connect 2 0 14 0;
#X connect 3 0 4 0;
#X connect 4 0 5 0;
#X connect 4 0 7 0;
#X connect 5 0 19 0;
#X connect 6 0 20 0;
#X connect 7 0 8 0;
#X connect 8 0 1 0;
#X connect 9 0 19 0;
#X connect 10 0 9 0;
#X connect 11 0 2 0;
#X connect 12 0 29 0;
#X connect 14 0 15 0;
#X connect 15 0 12 0;
#X connect 16 0 3 0;
#X connect 17 0 2 1;
#X connect 17 0 26 0;
#X connect 18 0 0 0;
#X connect 21 0 19 0;
#X connect 26 0 27 0;
#X connect 27 0 21 0;
#X connect 28 0 11 0;
#X connect 29 0 30 1;
#X connect 30 0 13 0;
#X connect 32 0 30 0;
#X restore 3 126 pd Freqv5;
#N canvas 620 139 241 330 Q~ 0;
#X msg 101 128 set \$1;
#X obj 31 56 +~;
#X obj 106 299 outlet;
#X obj 116 9 r \$0-SendClic;
#X obj 102 88 snapshot~;
#X obj 102 108 change;
#X obj 77 9 inlet;
#X obj 30 9 inlet~;
#X obj 34 298 outlet~;
#X msg 171 130 label \$1;
#X obj 171 108 tosymbol;
#X obj 171 86 * 100;
#X connect 0 0 2 0;
#X connect 1 0 4 0;
#X connect 1 0 8 0;
#X connect 3 0 4 0;
#X connect 4 0 5 0;
#X connect 5 0 0 0;
#X connect 6 0 1 1;
#X connect 6 0 11 0;
#X connect 7 0 1 0;
#X connect 9 0 2 0;
#X connect 10 0 9 0;
#X connect 11 0 10 0;
#X restore 295 157 pd Q~;
#X obj 86 250 comb~ 100 0 1 0.9;
#X text 179 84 Frequency;
#X msg 177 149 clear;
#X obj 177 113 bng 12 250 50 0 \$0-A \$0-B Silence 15 7 1 9 -262144
-1 -1;
#X text 286 84 Resonance;
#X text 6 16 Controlled Comb filter;
#X text 6 31 Filtre en peigne controllable;
#X text 319 121 <- Resonance;
#X text 220 275 Library Cyclone;
#X obj 294 221 *~ -1;
#X obj 228 150 sel 0 1;
#X msg 260 181 1;
#X msg 227 180 -1;
#X obj 227 113 tgl 12 1 \$0-A \$0-B Invert 15 6 1 9 -262144 -1 -1 0
1;
#X connect 4 0 16 0;
#X connect 5 0 15 1;
#X connect 6 0 14 1;
#X connect 7 0 14 2;
#X connect 8 0 14 0;
#X connect 9 0 15 0;
#X connect 14 0 6 0;
#X connect 14 1 7 0;
#X connect 14 2 16 1;
#X connect 15 0 25 0;
#X connect 15 1 5 0;
#X connect 16 0 12 0;
#X connect 18 0 16 0;
#X connect 19 0 18 0;
#X connect 25 0 16 4;
#X connect 26 0 28 0;
#X connect 26 1 27 0;
#X connect 27 0 25 1;
#X connect 27 0 16 3;
#X connect 28 0 25 1;
#X connect 28 0 16 3;
#X connect 29 0 26 0;
#X coords 0 -1 1 1 217 43 1 100 100;
#X restore 3 163 pd ARGO;
#X obj 284 277 cnv 15 41 30 empty empty empty 20 12 0 14 -24198 -66577
0;
#N canvas 350 196 381 103 ? 0;
#X obj 5 49 cnv 15 370 38 empty empty empty 20 12 0 14 -224896 -66577
0;
#X text 6 65 Voir/Look at: http://puredata.info/downloads;
#X obj 4 12 cnv 18 370 30 empty empty ARGOPdMiniModules 1 10 1 14 -4033
-1 1.04858e+06;
#X obj 7 31 cnv 10 10 10 empty empty Gerard 0 5 1 9 -4033 -1 1.04858e+06
;
#X obj 38 31 cnv 10 10 10 empty empty Paresys 0 5 1 9 -4033 -1 1.04858e+06
;
#X obj 175 20 cnv 10 10 10 empty empty http://pagesperso-orange.fr/Paresys/ARGOPd/
0 5 1 9 -4033 -1 1.04858e+06;
#X text 6 51 Construit sous / Build under Pd 0.40.3-extended;
#X obj 175 31 cnv 10 10 10 empty empty http://gerard.paresys.free.fr/ARGOPd/
0 5 1 9 -4033 -1 1.04858e+06;
#X restore 290 284 pd ?;
#N canvas 350 62 312 366 ARGO 0;
#X obj 101 101 cnv 20 104 34 empty ColorAmpli empty 20 12 0 14 -261299
-1 1.04858e+06;
#X obj 85 257 outlet~;
#X obj 134 104 cnv 10 20 10 empty ColorAmpli Ampli 1 5 1 14 -261299
-1 1.04858e+06;
#X obj 89 -82 inlet~;
#X obj 85 228 *~;
#X obj 103 118 hsl 101 12 0 1.25 0 1 \$0-A ColorAmpli -21dB 0 7 1 9
-261299 -1 -1 5900 0;
#X obj 100 195 /~ 10000;
#X msg 213 61 label \$1;
#X obj 212 38 tosymbol;
#X obj 213 -61 * 80;
#X obj 213 -39 - 80;
#X obj 212 3 sprintf %ddB;
#X obj 101 101 cnv 4 10 4 empty empty empty 20 12 0 14 -1 -66577 0
;
#X obj 101 131 cnv 4 10 4 empty empty empty 20 12 0 14 -1 -66577 0
;
#X text 221 20 -> -80dB..20dB;
#X text 218 -16 -> -80 .. 20;
#X text 104 139 -> 0..1.2;
#X text 109 177 -> 1..100000;
#X text 109 211 -> 0.0001..10 = -80dB..20dB;
#X obj 100 161 cyclone/pow~ 10000;
#X connect 3 0 4 0;
#X connect 4 0 1 0;
#X connect 5 0 9 0;
#X connect 5 0 19 0;
#X connect 6 0 4 1;
#X connect 7 0 5 0;
#X connect 8 0 7 0;
#X connect 9 0 10 0;
#X connect 10 0 11 0;
#X connect 11 0 8 0;
#X connect 19 0 6 0;
#X coords 0 -1 1 1 106 36 1 100 100;
#X restore 3 206 pd ARGO;
#N canvas 0 22 450 300 (subpatch) 0;
#X obj 59 155 inlet;
#X obj 3 89 inlet~;
#X obj 58 182 change;
#X msg 60 246 set \$1;
#X obj 60 227 tosymbol;
#X obj 59 204 sprintf Bus%d;
#X obj 3 282 throw~ Bus0;
#X obj 2 3 popup 124 25 #ffffff popup Bus0 Bus1 Bus2 Bus3 Bus4 Bus5
;
#X obj 1 32 route bang;
#X obj 154 202 *~;
#X obj 141 7 tgl 15 0 empty empty Dac 19 7 0 10 -262144 -1 -1 0 1;
#X obj 155 238 dac~;
#X obj 2 -54 loadbang;
#X text 60 -56 Bus0 mutes;
#X msg 2 -36 options Bus0 Bus1 Bus2 Bus3 Bus4 Bus5 Bus6 Bus7 Bus8 Bus9
Bus10 Bus11 Bus12 Bus13 Bus14 Bus15 Bus16;
#X connect 0 0 2 0;
#X connect 1 0 6 0;
#X connect 1 0 9 0;
#X connect 2 0 5 0;
#X connect 3 0 6 0;
#X connect 4 0 3 0;
#X connect 5 0 4 0;
#X connect 7 0 8 0;
#X connect 8 1 2 0;
#X connect 9 0 11 0;
#X connect 9 0 11 1;
#X connect 10 0 9 1;
#X connect 12 0 14 0;
#X connect 14 0 7 0;
#X coords 0 1 100 -1 180 30 1 0 0;
#X restore 3 242 graph;
#X connect 0 0 1 0;
#X connect 3 0 4 0;
#X connect 5 0 6 0;
#X connect 5 0 9 0;
#X connect 6 0 9 1;
#X connect 7 0 8 0;
#X connect 8 0 9 2;
#X connect 9 0 12 0;
#X connect 12 0 13 0;
