#N canvas 0 22 325 296 10;
#N canvas 0 22 1009 720 (subpatch) 0;
#X obj 573 608 *~;
#X obj 449 651 bp~ 440 80;
#X obj 527 651 bp~ 440 80;
#X obj 604 651 bp~ 440 80;
#X obj 682 651 bp~ 440 80;
#X obj 521 486 unpack 1 2 3 4 5;
#X msg 523 261 3454 5645 6433 6999 600;
#X text 675 262 metal;
#X text 689 286 glass 2;
#X text 728 392 wood;
#X msg 593 419 109 230 352 413 10;
#X obj 572 544 t;
#X msg 561 339 1245 1503 2131 2575 100;
#X text 717 363 plastic;
#X text 714 338 china;
#X text 701 313 glass 1;
#X text 732 415 cardboard;
#X msg 579 365 627 781 972 1184 70;
#X text 529 227 Simple material formants;
#X msg 534 286 2312 2466 3200 5314 380;
#X msg 546 313 1679 1233 4251 4640 340;
#X msg 583 392 221 333 426 527 40;
#X obj 232 464 bng 15 250 50 0 empty empty empty 20 8 0 8 -262144 -1
-1;
#X obj 8 77 bng 15 250 50 0 empty empty Metal 20 8 1 10 -262144 -1
-1;
#X obj 8 96 bng 15 250 50 0 empty empty Glass2 20 8 1 10 -262144 -1
-1;
#X obj 8 115 bng 15 250 50 0 empty empty Glass1 20 8 1 10 -262144 -1
-1;
#X msg 229 571 1;
#X msg 258 571 2;
#X msg 287 571 3;
#X obj 229 599 s state;
#X obj 233 388 bng 20 250 50 0 empty empty empty 20 8 0 8 -262144 -1
-1;
#X obj 275 385 r state;
#X obj 347 466 bng 15 250 50 0 empty empty empty 20 8 0 8 -262144 -1
-1;
#X obj 65 77 bng 15 250 50 0 empty empty China 20 8 1 10 -262144 -1
-1;
#X obj 65 97 bng 15 250 50 0 empty empty Plastic 20 8 1 10 -262144
-1 -1;
#X obj 65 115 bng 15 250 50 0 empty empty Wood 20 8 1 10 -262144 -1
-1;
#X msg 344 571 1;
#X msg 377 571 2;
#X msg 407 572 3;
#X obj 343 601 s state;
#X obj 232 483 random 100;
#X obj 232 505 moses 30;
#X obj 289 505 moses 60;
#X obj 347 484 random 100;
#X floatatom 288 409 3 0 0 0 - - -;
#X obj 231 438 sel 1 2;
#X obj 231 412 f -1;
#X obj 72 295 random 100;
#X msg 72 364 bang;
#X obj 72 231 f 0;
#X obj 103 231 + 1;
#X obj 72 252 mod 200;
#X obj 72 272 sel 29 37 47 67 89 113 157 197;
#X obj 6 3 tgl 20 0 empty empty Start/Stop 25 10 1 12 -1 -260097 -1
0 1;
#X obj 10 58 hsl 128 15 0 100 0 0 empty empty Amount -2 -6 1 10 -258699
-1 -1 0 1;
#X text 71 162 Controle de l'articulation;
#X text 227 366 Chaine de Markov;
#X text 602 541 Enveloppe;
#X obj 632 590 noise~;
#X obj 572 565 ead~ 1000 12000;
#X obj 72 341 moses;
#X obj 563 704 *~ 1.5;
#X obj 72 210 metro 15;
#X obj 347 505 moses 50;
#X obj 403 505 moses 50;
#X text 33 121;
#X obj 561 746 outlet~;
#X floatatom 7 27 5 0 0 1 Attack - -;
#X floatatom 77 28 5 0 0 1 Decay - -;
#X connect 0 0 1 0;
#X connect 0 0 2 0;
#X connect 0 0 3 0;
#X connect 0 0 4 0;
#X connect 1 0 61 0;
#X connect 2 0 61 0;
#X connect 3 0 61 0;
#X connect 4 0 61 0;
#X connect 5 0 1 1;
#X connect 5 1 2 1;
#X connect 5 2 3 1;
#X connect 5 3 4 1;
#X connect 5 4 11 0;
#X connect 5 4 1 2;
#X connect 5 4 2 2;
#X connect 5 4 3 2;
#X connect 5 4 4 2;
#X connect 6 0 5 0;
#X connect 10 0 5 0;
#X connect 11 0 59 0;
#X connect 12 0 5 0;
#X connect 17 0 5 0;
#X connect 19 0 5 0;
#X connect 20 0 5 0;
#X connect 21 0 5 0;
#X connect 22 0 40 0;
#X connect 23 0 26 0;
#X connect 23 0 6 0;
#X connect 24 0 27 0;
#X connect 24 0 19 0;
#X connect 25 0 28 0;
#X connect 25 0 12 0;
#X connect 26 0 29 0;
#X connect 27 0 29 0;
#X connect 28 0 29 0;
#X connect 30 0 46 0;
#X connect 31 0 44 0;
#X connect 31 0 46 1;
#X connect 32 0 43 0;
#X connect 33 0 36 0;
#X connect 33 0 17 0;
#X connect 34 0 37 0;
#X connect 35 0 38 0;
#X connect 36 0 39 0;
#X connect 37 0 39 0;
#X connect 37 0 21 0;
#X connect 38 0 39 0;
#X connect 38 0 10 0;
#X connect 40 0 41 0;
#X connect 41 0 23 0;
#X connect 41 1 42 0;
#X connect 42 0 24 0;
#X connect 42 1 25 0;
#X connect 43 0 63 0;
#X connect 45 0 22 0;
#X connect 45 1 22 0;
#X connect 45 2 32 0;
#X connect 46 0 45 0;
#X connect 47 0 60 0;
#X connect 48 0 30 0;
#X connect 49 0 50 0;
#X connect 49 0 51 0;
#X connect 50 0 49 1;
#X connect 51 0 52 0;
#X connect 52 0 47 0;
#X connect 52 1 47 0;
#X connect 52 2 47 0;
#X connect 52 3 47 0;
#X connect 52 4 47 0;
#X connect 52 5 47 0;
#X connect 52 6 47 0;
#X connect 52 7 47 0;
#X connect 53 0 62 0;
#X connect 54 0 60 1;
#X connect 58 0 0 1;
#X connect 59 0 0 0;
#X connect 60 0 48 0;
#X connect 61 0 66 0;
#X connect 62 0 49 0;
#X connect 63 0 33 0;
#X connect 63 1 64 0;
#X connect 64 0 34 0;
#X connect 64 1 35 0;
#X connect 67 0 59 1;
#X connect 68 0 59 2;
#X coords 0 1 100 -1 150 135 1 0 0;
#X restore -146 -124 graph;
#N canvas 0 22 450 300 (subpatch) 0;
#X obj 59 155 inlet;
#X obj 3 89 inlet~;
#X obj 58 182 change;
#X msg 60 246 set \$1;
#X obj 60 227 tosymbol;
#X obj 59 204 sprintf Bus%d;
#X obj 3 282 throw~ Bus0;
#X obj 2 3 popup 124 25 #ffffff popup Bus0 Bus1 Bus2 Bus3 Bus4 Bus5
;
#X obj 1 32 route bang;
#X obj 154 202 *~;
#X obj 141 7 tgl 15 0 empty empty Dac 19 7 0 10 -262144 -1 -1 1 1;
#X obj 155 238 dac~;
#X obj 7 -55 loadbang;
#X text 61 -66 Bus0 mutes everything;
#X text 62 -53 Bus6 goes to dac;
#X msg 7 -37 options Bus0 Bus1 Bus2 Bus3 Bus4 Bus5 Bus6 Bus7 Bus8 Bus9
Bus10 Bus11 Bus12 Bus13 Bus14 Bus15 Bus16;
#X connect 0 0 2 0;
#X connect 1 0 6 0;
#X connect 1 0 9 0;
#X connect 2 0 5 0;
#X connect 3 0 6 0;
#X connect 4 0 3 0;
#X connect 5 0 4 0;
#X connect 7 0 8 0;
#X connect 8 1 2 0;
#X connect 9 0 11 0;
#X connect 9 0 11 1;
#X connect 10 0 9 1;
#X connect 12 0 15 0;
#X connect 15 0 7 0;
#X coords 0 1 100 -1 180 30 1 0 0;
#X restore -146 11 graph;
#X connect 0 0 1 0;
