#N canvas 394 140 303 265 10;
#X floatatom 116 -5 5 0 0 0 - - -;
#X obj 116 11 * 10;
#X obj 18 -113 r noteClick;
#X obj 54 -93 r velClick;
#X floatatom 116 28 5 0 0 0 - - -;
#X obj 116 -73 r ctl8;
#X obj -34 -15 notein;
#X floatatom 18 28 5 0 0 0 - - -;
#X floatatom 54 28 5 0 0 0 - - -;
#X obj 116 -33 knob 25 25 0 127 0 0 empty empty empty 0 -8 32 8 -1
-260097 -260097 0 1;
#N canvas 0 22 450 300 (subpatch) 0;
#X obj 59 155 inlet;
#X obj 3 89 inlet~;
#X obj 58 182 change;
#X msg 60 246 set \$1;
#X obj 60 227 tosymbol;
#X obj 59 204 sprintf Bus%d;
#X obj 3 282 throw~ Bus0;
#X obj 2 3 popup 124 25 #ffffff popup Bus0 Bus1 Bus2 Bus3 Bus4 Bus5
;
#X obj 1 32 route bang;
#X obj 154 202 *~;
#X obj 141 7 tgl 15 0 empty empty Dac 19 7 0 10 -262144 -1 -1 0 1;
#X obj 155 238 dac~;
#X obj 1 -52 loadbang;
#X text 59 -54 Bus0 mutes;
#X msg 1 -34 options Bus0 Bus1 Bus2 Bus3 Bus4 Bus5 Bus6 Bus7 Bus8 Bus9
Bus10 Bus11 Bus12 Bus13 Bus14 Bus15 Bus16;
#X connect 0 0 2 0;
#X connect 1 0 6 0;
#X connect 1 0 9 0;
#X connect 2 0 5 0;
#X connect 3 0 6 0;
#X connect 4 0 3 0;
#X connect 5 0 4 0;
#X connect 7 0 8 0;
#X connect 8 1 2 0;
#X connect 9 0 11 0;
#X connect 9 0 11 1;
#X connect 10 0 9 1;
#X connect 12 0 14 0;
#X connect 14 0 7 0;
#X coords 0 1 100 -1 180 30 1 0 0;
#X restore 18 61 graph;
#X text 161 -73 Selectivity;
#N canvas 0 22 450 300 clicks____________ 0;
#X obj 104 399 *~;
#X obj 191 396 *~;
#X obj 191 326 ead~ 1 10;
#X obj 15 328 ead~ 1 30;
#X obj 16 397 *~;
#X obj 31 375 bp~ 6666 40;
#X obj 119 374 bp~ 7012 40;
#X obj 206 373 bp~ 1500 35;
#X obj 104 284 bng 15 250 50 0 empty empty empty 0 -6 0 8 -262144 -1
-1;
#X text 62 283 cog1;
#X obj 104 460 *~ 1;
#X obj 104 329 ead~ 1 20;
#X obj 118 351 noise~;
#X floatatom -11 137 5 0 0 0 - - -;
#X floatatom 31 136 5 0 0 0 - - -;
#X floatatom 74 136 5 0 0 0 - - -;
#X obj -11 160 stripnote;
#X obj 104 480 *~;
#X obj -10 228 * 1000;
#X obj 35 227 * 1000;
#X obj 35 247 + 500;
#X obj 81 226 * 20;
#X obj 252 132 - 5;
#X obj 117 187 / 100;
#X obj 118 207 + 0.2;
#X obj 119 226 line;
#X floatatom 164 204 5 0 0 0 - - -;
#X text 202 203 time offset to adjust volume to velocity;
#X obj 207 166 loadbang;
#X msg 207 187 50;
#X obj 240 56 inlet;
#X obj -14 83 inlet;
#X obj 29 81 inlet;
#X obj 104 502 outlet~;
#X connect 0 0 10 0;
#X connect 1 0 10 0;
#X connect 2 0 1 0;
#X connect 3 0 4 0;
#X connect 4 0 10 0;
#X connect 5 0 4 1;
#X connect 6 0 0 1;
#X connect 7 0 1 1;
#X connect 8 0 2 0;
#X connect 8 0 3 0;
#X connect 8 0 11 0;
#X connect 8 0 29 0;
#X connect 10 0 17 0;
#X connect 11 0 0 0;
#X connect 12 0 5 0;
#X connect 12 0 6 0;
#X connect 12 0 7 0;
#X connect 13 0 16 0;
#X connect 14 0 16 1;
#X connect 16 0 8 0;
#X connect 16 0 18 0;
#X connect 16 0 21 0;
#X connect 16 1 23 0;
#X connect 17 0 33 0;
#X connect 18 0 5 1;
#X connect 19 0 20 0;
#X connect 20 0 6 1;
#X connect 21 0 7 1;
#X connect 22 0 7 2;
#X connect 23 0 24 0;
#X connect 24 0 25 0;
#X connect 25 0 17 1;
#X connect 26 0 25 1;
#X connect 28 0 29 0;
#X connect 29 0 26 0;
#X connect 30 0 22 0;
#X connect 30 0 6 2;
#X connect 30 0 5 2;
#X connect 31 0 13 0;
#X connect 32 0 14 0;
#X restore 18 44 pd clicks____________;
#N canvas 0 22 450 300 (subpatch) 0;
#X obj -30 22 spigot;
#X obj 2 3 tgl 15 0 empty empty empty 17 7 0 10 -262144 -1 -1 0 1;
#X obj -58 0 inlet;
#X obj -54 54 outlet;
#X connect 0 0 3 0;
#X connect 1 0 0 1;
#X connect 2 0 0 0;
#X coords 0 1 100 -1 20 20 1 0 0;
#X restore -34 8 graph;
#N canvas 0 22 450 300 (subpatch) 0;
#X obj -30 22 spigot;
#X obj 2 3 tgl 15 0 empty empty empty 17 7 0 10 -262144 -1 -1 0 1;
#X obj -58 0 inlet;
#X obj -54 54 outlet;
#X connect 0 0 3 0;
#X connect 1 0 0 1;
#X connect 2 0 0 0;
#X coords 0 1 100 -1 20 20 1 0 0;
#X restore 18 -35 graph;
#N canvas 0 22 450 300 (subpatch) 0;
#X obj -30 22 spigot;
#X obj 2 3 tgl 15 0 empty empty empty 17 7 0 10 -262144 -1 -1 0 1;
#X obj -58 0 inlet;
#X obj -54 54 outlet;
#X connect 0 0 3 0;
#X connect 1 0 0 1;
#X connect 2 0 0 0;
#X coords 0 1 100 -1 20 20 1 0 0;
#X restore 54 -35 graph;
#N canvas 0 22 450 300 (subpatch) 0;
#X obj -30 22 spigot;
#X obj 2 3 tgl 15 0 empty empty empty 17 7 0 10 -262144 -1 -1 0 1;
#X obj -58 0 inlet;
#X obj -54 54 outlet;
#X connect 0 0 3 0;
#X connect 1 0 0 1;
#X connect 2 0 0 0;
#X coords 0 1 100 -1 20 20 1 0 0;
#X restore 116 -56 graph;
#N canvas 0 22 450 300 (subpatch) 0;
#X obj -30 22 spigot;
#X obj 2 3 tgl 15 0 empty empty empty 17 7 0 10 -262144 -1 -1 0 1;
#X obj -58 0 inlet;
#X obj -54 54 outlet;
#X connect 0 0 3 0;
#X connect 1 0 0 1;
#X connect 2 0 0 0;
#X coords 0 1 100 -1 20 20 1 0 0;
#X restore -14 8 graph;
#X connect 0 0 1 0;
#X connect 1 0 4 0;
#X connect 2 0 14 0;
#X connect 3 0 15 0;
#X connect 4 0 12 2;
#X connect 5 0 16 0;
#X connect 6 0 13 0;
#X connect 6 1 17 0;
#X connect 7 0 12 0;
#X connect 8 0 12 1;
#X connect 9 0 0 0;
#X connect 12 0 10 0;
#X connect 13 0 7 0;
#X connect 14 0 7 0;
#X connect 15 0 8 0;
#X connect 16 0 9 0;
#X connect 17 0 8 0;
