#N canvas 0 22 1024 720 10;
#X obj 7 30 cnv 15 250 250 empty empty empty 20 12 0 14 -183800 -1
0;
#X obj 111 117 bng 15 250 50 0 birdbang1 bird1 empty 0 -6 0 8 -262144
-1 -1;
#X obj 99 53 vsl 15 50 0 1 0 0 birdvol1 empty empty 0 -8 0 8 -262144
-1 -1 0 1;
#X obj 33 137 vsl 15 128 0 1 0 0 fcrandom1 empty empty 0 -8 0 8 -262144
-1 -1 0 1;
#X obj 266 31 cnv 15 250 250 empty empty empty 20 12 0 14 -249004 -66577
0;
#X obj 376 116 bng 15 250 50 0 birdbang2 bird2 empty 0 -6 0 8 -262144
-1 -1;
#X obj 405 134 vsl 15 128 0 5000 0 0 a2 empty empty 0 -8 0 8 -262144
-1 -1 0 1;
#X obj 431 134 vsl 15 128 0 5000 0 0 d2 empty empty 0 -8 0 8 -262144
-1 -1 0 1;
#X obj 457 134 vsl 15 128 0 5000 0 0 r2 empty empty 0 -8 0 8 -262144
-1 -1 0 1;
#X obj 290 134 vsl 15 128 0 1 0 0 fcrandom2 empty empty 0 -8 0 8 -262144
-1 -1 0 1;
#X obj 317 134 vsl 15 128 0 1 0 0 fmrandom2 empty empty 0 -8 0 8 -262144
-1 -1 0 1;
#X obj 346 134 vsl 15 128 0 1 0 0 irandom2 empty empty 0 -8 0 8 -262144
-1 -1 0 1;
#X obj 6 289 cnv 15 250 250 empty empty empty 20 12 0 14 -249766 -66577
0;
#X obj 115 374 bng 15 250 50 0 birdbang3 bird3 empty 0 -6 0 8 -262144
-1 -1;
#X obj 146 397 vsl 15 128 0 5000 0 0 a3 empty empty 0 -8 0 8 -262144
-1 -1 0 1;
#X obj 172 397 vsl 15 128 0 5000 0 0 d3 empty empty 0 -8 0 8 -262144
-1 -1 0 1;
#X obj 199 396 vsl 15 128 0 5000 0 0 r3 empty empty 0 -8 0 8 -262144
-1 -1 0 1;
#X obj 28 395 vsl 15 128 0 1 0 0 fcrandom3 empty empty 0 -8 0 8 -262144
-1 -1 0 1;
#X obj 55 395 vsl 15 128 0 1 0 0 fmrandom3 empty empty 0 -8 0 8 -262144
-1 -1 0 1;
#X obj 84 395 vsl 15 128 0 1 0 0 irandom3 empty empty 0 -8 0 8 -262144
-1 -1 0 1;
#X obj 267 290 cnv 15 250 250 empty empty empty 20 12 0 14 -192431
-66577 0;
#X obj 378 377 bng 15 250 50 0 birdbang4 bird4 empty 0 -6 0 8 -262144
-1 -1;
#X obj 413 394 vsl 15 128 0 5000 0 0 a4 empty empty 0 -8 0 8 -262144
-1 -1 0 1;
#X obj 439 394 vsl 15 128 0 5000 0 0 d4 empty empty 0 -8 0 8 -262144
-1 -1 0 1;
#X obj 465 394 vsl 15 128 0 5000 0 0 r4 empty empty 0 -8 0 8 -262144
-1 -1 0 1;
#X obj 288 393 vsl 15 128 0 1 0 0 fcrandom4 empty empty 0 -8 0 8 -262144
-1 -1 0 1;
#X obj 315 393 vsl 15 128 0 1 0 0 fmrandom4 empty empty 0 -8 0 8 -262144
-1 -1 0 1;
#X obj 344 393 vsl 15 128 0 1 0 0 irandom4 empty empty 0 -8 0 8 -262144
-1 -1 0 1;
#X obj 55 137 vsl 15 128 0 1 0 0 fmrandom1 empty empty 0 -8 0 8 -262144
-1 -1 0 1;
#X obj 79 137 vsl 15 128 0 1 0 0 irandom1 empty empty 0 -8 0 8 -262144
-1 -1 0 1;
#X obj 142 138 vsl 15 128 0 5000 0 0 a1 empty empty 0 -8 0 8 -262144
-1 -1 0 1;
#X obj 164 138 vsl 15 128 0 5000 0 0 d1 empty empty 0 -8 0 8 -262144
-1 -1 0 1;
#X obj 188 138 vsl 15 128 0 5000 0 0 r1 empty empty 0 -8 0 8 -262144
-1 -1 0 1;
#X obj 123 53 vsl 15 50 1 30 0 0 birdtime1 empty empty 0 -8 0 8 -262144
-1 -1 0 1;
#X text 144 73 silence;
#X text 55 72 volume;
#X text 101 28 bird 1;
#X obj 365 55 vsl 15 50 0 1 0 0 birdvol2 empty empty 0 -8 0 8 -262144
-1 -1 0 1;
#X obj 389 55 vsl 15 50 1 30 0 0 birdtime2 empty empty 0 -8 0 8 -262144
-1 -1 0 1;
#X text 410 75 silence;
#X text 321 76 volume;
#X obj 103 313 vsl 15 50 0 1 0 0 birdvol3 empty empty 0 -8 0 8 -262144
-1 -1 0 1;
#X obj 127 313 vsl 15 50 1 30 0 0 birdtime3 empty empty 0 -8 0 8 -262144
-1 -1 0 1;
#X text 148 333 silence;
#X text 59 334 volume;
#X obj 368 314 vsl 15 50 0 1 0 0 birdvol4 empty empty 0 -8 0 8 -262144
-1 -1 0 1;
#X obj 392 314 vsl 15 50 1 30 0 0 birdtime4 empty empty 0 -8 0 8 -262144
-1 -1 0 1;
#X text 413 334 silence;
#X text 324 335 volume;
#X text 105 288 bird 3;
#X text 367 30 bird 2;
#X text 370 289 bird 4;
#X text 28 116 (Fc \, Fm \, I);
#X text 25 103 FM randomness;
#X text 25 374 (Fc \, Fm \, I);
#X text 22 361 FM randomness;
#X text 284 112 (Fc \, Fm \, I);
#X text 281 99 FM randomness;
#X text 289 373 (Fc \, Fm \, I);
#X text 286 360 FM randomness;
#X text 147 104 envelope;
#X text 143 119 A;
#X text 168 118 D;
#X text 192 118 R;
#X text 415 101 envelope;
#X text 411 116 A;
#X text 436 115 D;
#X text 461 115 R;
#X text 157 362 envelope;
#X text 153 377 A;
#X text 178 376 D;
#X text 201 376 R;
#X text 423 360 envelope;
#X text 419 375 A;
#X text 444 374 D;
#X text 467 374 R;
#X text 218 -1 birds use stars;
#X text 442 530 by: game;
#X text 101 134 start;
#X text 369 133 start;
#X text 107 392 start;
#X text 369 394 start;
#X text 22 40 left;
#X text 276 40 down;
#X text 18 301 right;
#X text 295 294 up;
#N canvas 308 22 473 585 openpatch 0;
#X obj 55 105 bng 15 250 50 0 empty empty empty 0 -6 0 8 -262144 -1
-1;
#X obj 313 97 bng 15 250 50 0 empty empty empty 0 -6 0 8 -262144 -1
-1;
#X obj 54 265 bng 15 250 50 0 empty empty empty 0 -6 0 8 -262144 -1
-1;
#X obj 312 264 bng 15 250 50 0 empty empty empty 0 -6 0 8 -262144 -1
-1;
#X obj 53 331 *~;
#X obj 313 159 *~;
#X obj 54 166 *~;
#X obj 312 331 *~;
#X obj 55 23 bng 15 250 50 0 empty birdbang1 empty 0 -6 0 8 -262144
-1 -1;
#X obj 55 73 metro;
#X obj 312 194 bng 15 250 50 0 empty birdbang4 empty 0 -6 0 8 -262144
-1 -1;
#X obj 312 233 metro;
#X obj 54 196 bng 15 250 50 0 empty birdbang3 empty 0 -6 0 8 -262144
-1 -1;
#X obj 54 233 metro;
#X floatatom 79 192 5 0 0 0 - birdtime3 -;
#X obj 313 17 bng 15 250 50 0 empty birdbang2 empty 0 -6 0 8 -262144
-1 -1;
#X obj 313 72 metro;
#X obj 415 266 * 0.5;
#X obj 416 96 * 0.5;
#X obj 158 100 * 0.5;
#X floatatom 80 27 5 0 0 0 - birdtime1 -;
#X floatatom 338 17 5 0 0 0 - birdtime2 -;
#X floatatom 337 188 5 0 0 0 - birdtime4 -;
#X obj 157 266 * 0.5;
#N canvas 0 22 458 308 delay_guy 0;
#X obj 63 85 +~;
#X obj 232 18 inlet;
#X obj 63 226 delwrite~ delayloop 5000;
#X obj 232 53 delread~ delayloop 300;
#X obj 89 189 outlet~;
#X obj 63 19 inlet~;
#X obj 90 154 hip~;
#X obj 128 69 *~;
#X obj 141 18 inlet;
#X floatatom 141 46 5 0 0 0 - - -;
#X connect 0 0 2 0;
#X connect 0 0 6 0;
#X connect 1 0 3 0;
#X connect 3 0 7 0;
#X connect 5 0 0 0;
#X connect 6 0 4 0;
#X connect 7 0 0 1;
#X connect 8 0 9 0;
#X connect 9 0 7 1;
#X restore 185 423 pd delay_guy;
#X obj 186 322 +~;
#X obj 185 356 /~ 4;
#N canvas 0 22 685 509 -bird_control3~ 0;
#X msg 32 57 1079;
#X msg 91 57 12;
#X obj 33 133 vsl 15 100 0 1 0 0 empty fcrandom3 empty 0 -8 0 8 -262144
-1 -1 0 1;
#X obj 243 128 vsl 15 100 0 5000 0 0 empty a3 empty 0 -8 0 8 -262144
-1 -1 0 1;
#X obj 291 128 vsl 15 100 0 5000 0 0 empty d3 empty 0 -8 0 8 -262144
-1 -1 0 1;
#X obj 340 128 vsl 15 100 0 5000 0 0 empty r3 empty 0 -8 0 8 -262144
-1 -1 0 1;
#X text 223 107 A time;
#X text 281 107 D time;
#X text 332 107 R time;
#X obj 92 137 vsl 15 100 0 1 0 0 empty fmrandom3 empty 0 -8 0 8 -262144
-1 -1 0 1;
#X obj 149 133 vsl 15 100 0 1 0 0 empty irandom3 empty 0 -8 0 8 -262144
-1 -1 0 1;
#X floatatom 32 101 5 0 0 0 - - -;
#X floatatom 91 101 5 0 0 0 - - -;
#X floatatom 148 100 5 0 0 0 - - -;
#X text 28 80 Fc;
#X text 87 80 Fm;
#X text 147 79 I;
#X text 71 119 Randomness;
#X obj 21 437 outlet~;
#X obj 254 381 inlet;
#X text 253 358 Init;
#X text 295 357 Duration;
#X obj 296 381 inlet;
#N canvas 106 22 800 346 bird~ 0;
#X obj 24 59 inlet;
#X obj 82 60 inlet;
#X obj 140 61 inlet;
#X text 22 38 A time;
#X text 80 39 D time;
#X text 138 39 R time;
#X obj 199 60 inlet;
#X obj 244 59 inlet;
#X obj 286 59 inlet;
#X obj 340 60 inlet;
#X obj 398 59 inlet;
#X obj 450 60 inlet;
#X text 197 39 Fc;
#X text 242 38 Fm;
#X text 284 37 I;
#X text 295 37 (0-1);
#X text 384 41 Randomness;
#X obj 187 254 outlet~;
#X obj 495 59 inlet;
#X text 494 36 Init;
#X text 558 36 Duration;
#X obj 559 60 inlet;
#X msg 495 95 1;
#X obj 529 86 delay;
#X msg 529 117 0;
#N canvas 0 22 766 456 random_fm~ 0;
#X floatatom 53 84 5 0 0 0 - - -;
#X floatatom 240 86 5 0 0 0 - - -;
#X obj 240 236 * 0.001;
#X floatatom 433 82 5 0 0 0 - - -;
#X obj 433 236 * 0.001;
#X obj 53 232 * 0.001;
#X obj 53 55 inlet;
#X obj 195 53 inlet;
#X obj 433 53 inlet;
#X obj 575 54 inlet;
#X text 129 69 How Random (0-1);
#X text 511 68 How Random (0-1);
#X text 317 69 How Random (0-1);
#X floatatom 195 86 5 0 0 0 - - -;
#X obj 240 54 inlet;
#X obj 382 53 inlet;
#X floatatom 382 83 5 0 0 0 - - -;
#X floatatom 575 84 5 0 0 0 - - -;
#X floatatom 53 197 5 0 0 0 - - -;
#X floatatom 240 198 5 0 0 0 - - -;
#X floatatom 433 201 5 0 0 0 - - -;
#X obj 211 311 outlet~;
#X obj 671 53 inlet;
#X text 672 34 Bang;
#N canvas 0 22 456 306 centered_random_birds 0;
#X floatatom 93 104 5 0 40000 0 - - -;
#X text 65 32 center freqency;
#X text 214 31 How Random;
#X obj 210 393 outlet;
#X obj 228 74 inlet;
#X obj 93 76 inlet;
#X obj 210 313 random;
#X floatatom 228 108 5 0 1 0 - - -;
#X obj 210 338 +;
#X obj 164 76 bng 15 250 50 0 empty empty empty 0 -6 0 8 -262144 -1
-1;
#X msg 180 98 1;
#X obj 180 122 -;
#X floatatom 180 147 5 0 0 0 - - -;
#X obj 93 230 * 2;
#X floatatom 93 259 5 0 0 0 - - -;
#X obj 164 172 *;
#X floatatom 164 200 5 0 0 0 - - -;
#X obj 148 272 -;
#X floatatom 148 299 5 0 0 0 - - -;
#X floatatom 210 366 5 0 0 0 - - -;
#X obj 164 225 * 2;
#X floatatom 164 251 5 0 0 0 - - -;
#X text 78 52 (anything);
#X text 227 52 (0-1);
#X text 194 416 Random Number;
#X obj 338 73 inlet;
#X text 309 29 New Value (bang);
#X connect 0 0 13 0;
#X connect 0 0 15 0;
#X connect 4 0 7 0;
#X connect 5 0 0 0;
#X connect 6 0 8 0;
#X connect 7 0 9 0;
#X connect 7 0 11 1;
#X connect 8 0 19 0;
#X connect 9 0 10 0;
#X connect 9 0 14 0;
#X connect 9 0 15 0;
#X connect 10 0 11 0;
#X connect 11 0 12 0;
#X connect 12 0 15 1;
#X connect 13 0 14 0;
#X connect 14 0 17 0;
#X connect 15 0 16 0;
#X connect 16 0 20 0;
#X connect 16 0 8 1;
#X connect 17 0 18 0;
#X connect 18 0 6 1;
#X connect 19 0 3 0;
#X connect 20 0 21 0;
#X connect 21 0 17 1;
#X connect 25 0 6 0;
#X restore 53 164 pd centered_random_birds;
#N canvas 0 22 452 302 centered_random_birds 0;
#X floatatom 93 104 5 0 40000 0 - - -;
#X text 65 32 center freqency;
#X text 214 31 How Random;
#X obj 210 393 outlet;
#X obj 228 74 inlet;
#X obj 93 76 inlet;
#X obj 210 313 random;
#X floatatom 228 108 5 0 1 0 - - -;
#X obj 210 338 +;
#X obj 164 76 bng 15 250 50 0 empty empty empty 0 -6 0 8 -262144 -1
-1;
#X msg 180 98 1;
#X obj 180 122 -;
#X floatatom 180 147 5 0 0 0 - - -;
#X obj 93 230 * 2;
#X floatatom 93 259 5 0 0 0 - - -;
#X obj 164 172 *;
#X floatatom 164 200 5 0 0 0 - - -;
#X obj 148 272 -;
#X floatatom 148 299 5 0 0 0 - - -;
#X floatatom 210 366 5 0 0 0 - - -;
#X obj 164 225 * 2;
#X floatatom 164 251 5 0 0 0 - - -;
#X text 78 52 (anything);
#X text 227 52 (0-1);
#X text 194 416 Random Number;
#X obj 338 73 inlet;
#X text 309 29 New Value (bang);
#X connect 0 0 13 0;
#X connect 0 0 15 0;
#X connect 4 0 7 0;
#X connect 5 0 0 0;
#X connect 6 0 8 0;
#X connect 7 0 9 0;
#X connect 7 0 11 1;
#X connect 8 0 19 0;
#X connect 9 0 10 0;
#X connect 9 0 14 0;
#X connect 9 0 15 0;
#X connect 10 0 11 0;
#X connect 11 0 12 0;
#X connect 12 0 15 1;
#X connect 13 0 14 0;
#X connect 14 0 17 0;
#X connect 15 0 16 0;
#X connect 16 0 20 0;
#X connect 16 0 8 1;
#X connect 17 0 18 0;
#X connect 18 0 6 1;
#X connect 19 0 3 0;
#X connect 20 0 21 0;
#X connect 21 0 17 1;
#X connect 25 0 6 0;
#X restore 240 163 pd centered_random_birds;
#N canvas 0 22 452 302 centered_random_birds 0;
#X floatatom 93 104 5 0 40000 0 - - -;
#X text 65 32 center freqency;
#X text 214 31 How Random;
#X obj 210 393 outlet;
#X obj 228 74 inlet;
#X obj 93 76 inlet;
#X obj 210 313 random;
#X floatatom 228 108 5 0 1 0 - - -;
#X obj 210 338 +;
#X obj 164 76 bng 15 250 50 0 empty empty empty 0 -6 0 8 -262144 -1
-1;
#X msg 180 98 1;
#X obj 180 122 -;
#X floatatom 180 147 5 0 0 0 - - -;
#X obj 93 230 * 2;
#X floatatom 93 259 5 0 0 0 - - -;
#X obj 164 172 *;
#X floatatom 164 200 5 0 0 0 - - -;
#X obj 148 272 -;
#X floatatom 148 299 5 0 0 0 - - -;
#X floatatom 210 366 5 0 0 0 - - -;
#X obj 164 225 * 2;
#X floatatom 164 251 5 0 0 0 - - -;
#X text 78 52 (anything);
#X text 227 52 (0-1);
#X text 194 416 Random Number;
#X obj 338 73 inlet;
#X text 309 29 New Value (bang);
#X connect 0 0 13 0;
#X connect 0 0 15 0;
#X connect 4 0 7 0;
#X connect 5 0 0 0;
#X connect 6 0 8 0;
#X connect 7 0 9 0;
#X connect 7 0 11 1;
#X connect 8 0 19 0;
#X connect 9 0 10 0;
#X connect 9 0 14 0;
#X connect 9 0 15 0;
#X connect 10 0 11 0;
#X connect 11 0 12 0;
#X connect 12 0 15 1;
#X connect 13 0 14 0;
#X connect 14 0 17 0;
#X connect 15 0 16 0;
#X connect 16 0 20 0;
#X connect 16 0 8 1;
#X connect 17 0 18 0;
#X connect 18 0 6 1;
#X connect 19 0 3 0;
#X connect 20 0 21 0;
#X connect 21 0 17 1;
#X connect 25 0 6 0;
#X restore 433 163 pd centered_random_birds;
#N canvas 0 22 456 306 fm_synth~ 0;
#X obj 59 122 osc~;
#X obj 11 122 sig~;
#X floatatom 11 54 5 0 0 0 - - -;
#X floatatom 59 54 5 0 0 0 - - -;
#X obj 12 187 osc~;
#X obj 12 163 +~;
#X obj 59 147 *~;
#X floatatom 107 54 5 0 0 0 - - -;
#X text 16 12 Fc;
#X text 62 12 Fm;
#X obj 11 76 * 1000;
#X obj 59 76 * 1000;
#X text 107 12 Imod;
#X text 159 12 All (0-1);
#X floatatom 11 101 5 0 0 0 - - -;
#X floatatom 59 101 5 0 0 0 - - -;
#X floatatom 107 101 5 0 0 0 - - -;
#X obj 12 211 outlet~;
#X obj 11 29 inlet;
#X obj 59 29 inlet;
#X obj 107 29 inlet;
#X obj 107 76 * 1000;
#X connect 0 0 6 0;
#X connect 1 0 5 0;
#X connect 2 0 10 0;
#X connect 3 0 11 0;
#X connect 4 0 17 0;
#X connect 5 0 4 0;
#X connect 6 0 5 1;
#X connect 7 0 21 0;
#X connect 10 0 14 0;
#X connect 11 0 15 0;
#X connect 14 0 1 0;
#X connect 15 0 0 0;
#X connect 16 0 6 1;
#X connect 18 0 2 0;
#X connect 19 0 3 0;
#X connect 20 0 7 0;
#X connect 21 0 16 0;
#X restore 207 274 pd fm_synth~;
#X text 240 34 Frequency (0-1);
#X text 50 35 Frequency (0-1);
#X text 426 33 Frequency (0-1);
#X connect 0 0 24 0;
#X connect 1 0 25 0;
#X connect 2 0 27 1;
#X connect 3 0 26 0;
#X connect 4 0 27 2;
#X connect 5 0 27 0;
#X connect 6 0 0 0;
#X connect 7 0 13 0;
#X connect 8 0 3 0;
#X connect 9 0 17 0;
#X connect 13 0 24 1;
#X connect 14 0 1 0;
#X connect 15 0 16 0;
#X connect 16 0 25 1;
#X connect 17 0 26 1;
#X connect 18 0 5 0;
#X connect 19 0 2 0;
#X connect 20 0 4 0;
#X connect 22 0 24 2;
#X connect 22 0 25 2;
#X connect 22 0 26 2;
#X connect 24 0 18 0;
#X connect 25 0 19 0;
#X connect 26 0 20 0;
#X connect 27 0 21 0;
#X restore 199 180 pd random_fm~;
#X obj 186 213 *~;
#N canvas 0 22 879 629 adsr______ 0;
#X obj 205 119 inlet;
#X obj 412 147 inlet;
#X text 201 94 trigger;
#X obj 205 147 sel 0;
#X obj 258 157 t b;
#X obj 134 335 f \$1;
#X obj 134 360 pack 0 \$2;
#X obj 476 148 inlet;
#X obj 403 281 del \$2;
#X obj 432 304 f \$4;
#X obj 466 379 pack 0 \$3;
#X obj 537 149 inlet;
#X obj 605 149 inlet;
#X obj 678 148 inlet;
#X msg 205 178 stop;
#X obj 576 301 pack 0 \$5;
#X text 410 124 level;
#X obj 466 355 * \$1;
#X text 31 306 ATTACK;
#X text 6 329 recall level;
#X text 6 349 and pack with;
#X text 7 369 attack time;
#X text 131 134 if zero;
#X text 132 151 release;
#X text 112 168 and cancel;
#X text 143 185 decay;
#X text 262 139 bang if attack;
#X text 245 272 on attack \, set a;
#X text 200 286 delay to go to sustain;
#X text 242 303 recall sustain value;
#X text 237 354 multiply by overall level;
#X text 281 375 pack with decay time;
#X text 569 327 on release ramp;
#X text 570 344 back to zero;
#X text 17 487 When you send this patch a nonzero trigger it schedules
a line~ to do an attack and decay \, and if zero \, it starts the release
ramp.;
#X obj 432 329 * 0.01;
#X text 16 539 Objects such as "f" and "pack" can be given dollar sign
arguments to initialize their contents from adsr's creation arguments.
Inlets are supplied to change them on the fly.;
#X text 505 613 Updated for Pd version 0.34;
#X text 86 4 ADSR ENVELOPE;
#X text 245 327 convert from percent;
#X text 76 24 Arguments: level \, attack time \, decay time \, sustain
level \, release time. A \, D \, and R are in msec and S is in percent.
This patch is used as an abstraction in 25.envelope.pd and others.
;
#X text 472 127 attack;
#X text 538 126 decay;
#X text 598 127 sustain;
#X text 675 127 release;
#X obj 458 429 line~;
#X obj 458 454 outlet~;
#X connect 0 0 3 0;
#X connect 1 0 5 1;
#X connect 1 0 17 1;
#X connect 3 0 14 0;
#X connect 3 0 15 0;
#X connect 3 1 4 0;
#X connect 4 0 5 0;
#X connect 4 0 8 0;
#X connect 5 0 6 0;
#X connect 6 0 45 0;
#X connect 7 0 6 1;
#X connect 7 0 8 1;
#X connect 8 0 9 0;
#X connect 9 0 35 0;
#X connect 10 0 45 0;
#X connect 11 0 10 1;
#X connect 12 0 9 1;
#X connect 13 0 15 1;
#X connect 14 0 8 0;
#X connect 15 0 45 0;
#X connect 17 0 10 0;
#X connect 35 0 17 0;
#X connect 45 0 46 0;
#X restore 43 164 pd adsr______;
#X msg 57 134 1;
#X msg 101 135 0.7;
#X obj 57 102 loadbang;
#X connect 0 0 27 2;
#X connect 1 0 27 3;
#X connect 2 0 27 5;
#X connect 6 0 25 0;
#X connect 7 0 25 2;
#X connect 8 0 25 4;
#X connect 9 0 25 1;
#X connect 10 0 25 3;
#X connect 11 0 25 5;
#X connect 18 0 22 0;
#X connect 18 0 25 6;
#X connect 21 0 23 1;
#X connect 22 0 27 0;
#X connect 23 0 24 0;
#X connect 24 0 27 0;
#X connect 25 0 26 1;
#X connect 26 0 17 0;
#X connect 27 0 26 0;
#X connect 28 0 27 1;
#X connect 29 0 27 4;
#X connect 30 0 28 0;
#X connect 30 0 29 0;
#X restore 21 407 pd bird~ 100 100 100 500 250 0.5 0.5 0.3 0.7;
#X obj 91 21 loadbang;
#X text 271 71 Bird Envelope;
#X msg 148 55 150;
#X connect 0 0 11 0;
#X connect 1 0 12 0;
#X connect 2 0 23 6;
#X connect 3 0 23 0;
#X connect 4 0 23 1;
#X connect 5 0 23 2;
#X connect 9 0 23 7;
#X connect 10 0 23 8;
#X connect 11 0 23 3;
#X connect 12 0 23 4;
#X connect 13 0 23 5;
#X connect 19 0 23 9;
#X connect 22 0 23 10;
#X connect 23 0 18 0;
#X connect 24 0 1 0;
#X connect 24 0 26 0;
#X connect 24 0 0 0;
#X connect 26 0 13 0;
#X restore 54 291 pd -bird_control3~;
#N canvas 0 22 725 508 -bird_control4~ 0;
#X msg 148 54 78;
#X msg 91 58 12;
#X msg 32 57 2000;
#X obj 33 133 vsl 15 100 0 1 0 0 empty fcrandom4 empty 0 -8 0 8 -262144
-1 -1 0 1;
#X obj 243 128 vsl 15 100 0 5000 0 0 empty a4 empty 0 -8 0 8 -262144
-1 -1 0 1;
#X obj 291 128 vsl 15 100 0 5000 0 0 empty d4 empty 0 -8 0 8 -262144
-1 -1 0 1;
#X obj 340 128 vsl 15 100 0 5000 0 0 empty r4 empty 0 -8 0 8 -262144
-1 -1 0 1;
#X text 223 107 A time;
#X text 281 107 D time;
#X text 332 107 R time;
#X obj 92 137 vsl 15 100 0 1 0 0 empty fmrandom4 empty 0 -8 0 8 -262144
-1 -1 0 1;
#X obj 149 133 vsl 15 100 0 1 0 0 empty irandom4 empty 0 -8 0 8 -262144
-1 -1 0 1;
#X floatatom 32 101 5 0 0 0 - - -;
#X floatatom 91 101 5 0 0 0 - - -;
#X floatatom 148 100 5 0 0 0 - - -;
#X text 28 80 Fc;
#X text 87 80 Fm;
#X text 147 79 I;
#X text 71 119 Randomness;
#X obj 21 437 outlet~;
#X obj 254 381 inlet;
#X text 253 358 Init;
#X text 295 357 Duration;
#X obj 296 381 inlet;
#N canvas 106 22 798 344 bird~ 0;
#X obj 24 59 inlet;
#X obj 82 60 inlet;
#X obj 140 61 inlet;
#X text 22 38 A time;
#X text 80 39 D time;
#X text 138 39 R time;
#X obj 199 60 inlet;
#X obj 244 59 inlet;
#X obj 286 59 inlet;
#X obj 340 60 inlet;
#X obj 398 59 inlet;
#X obj 450 60 inlet;
#X text 197 39 Fc;
#X text 242 38 Fm;
#X text 284 37 I;
#X text 295 37 (0-1);
#X text 384 41 Randomness;
#X obj 187 254 outlet~;
#X obj 495 59 inlet;
#X text 494 36 Init;
#X text 558 36 Duration;
#X obj 559 60 inlet;
#X msg 495 95 1;
#X obj 529 86 delay;
#X msg 529 117 0;
#N canvas 0 22 766 456 random_fm~ 0;
#X floatatom 53 84 5 0 0 0 - - -;
#X floatatom 240 86 5 0 0 0 - - -;
#X obj 240 236 * 0.001;
#X floatatom 433 82 5 0 0 0 - - -;
#X obj 433 236 * 0.001;
#X obj 53 232 * 0.001;
#X obj 53 55 inlet;
#X obj 195 53 inlet;
#X obj 433 53 inlet;
#X obj 575 54 inlet;
#X text 129 69 How Random (0-1);
#X text 511 68 How Random (0-1);
#X text 317 69 How Random (0-1);
#X floatatom 195 86 5 0 0 0 - - -;
#X obj 240 54 inlet;
#X obj 382 53 inlet;
#X floatatom 382 83 5 0 0 0 - - -;
#X floatatom 575 84 5 0 0 0 - - -;
#X floatatom 53 197 5 0 0 0 - - -;
#X floatatom 240 198 5 0 0 0 - - -;
#X floatatom 433 201 5 0 0 0 - - -;
#X obj 211 311 outlet~;
#X obj 671 53 inlet;
#X text 672 34 Bang;
#N canvas 0 22 456 306 centered_random_birds 0;
#X floatatom 93 104 5 0 40000 0 - - -;
#X text 65 32 center freqency;
#X text 214 31 How Random;
#X obj 210 393 outlet;
#X obj 228 74 inlet;
#X obj 93 76 inlet;
#X obj 210 313 random;
#X floatatom 228 108 5 0 1 0 - - -;
#X obj 210 338 +;
#X obj 164 76 bng 15 250 50 0 empty empty empty 0 -6 0 8 -262144 -1
-1;
#X msg 180 98 1;
#X obj 180 122 -;
#X floatatom 180 147 5 0 0 0 - - -;
#X obj 93 230 * 2;
#X floatatom 93 259 5 0 0 0 - - -;
#X obj 164 172 *;
#X floatatom 164 200 5 0 0 0 - - -;
#X obj 148 272 -;
#X floatatom 148 299 5 0 0 0 - - -;
#X floatatom 210 366 5 0 0 0 - - -;
#X obj 164 225 * 2;
#X floatatom 164 251 5 0 0 0 - - -;
#X text 78 52 (anything);
#X text 227 52 (0-1);
#X text 194 416 Random Number;
#X obj 338 73 inlet;
#X text 309 29 New Value (bang);
#X connect 0 0 13 0;
#X connect 0 0 15 0;
#X connect 4 0 7 0;
#X connect 5 0 0 0;
#X connect 6 0 8 0;
#X connect 7 0 9 0;
#X connect 7 0 11 1;
#X connect 8 0 19 0;
#X connect 9 0 10 0;
#X connect 9 0 14 0;
#X connect 9 0 15 0;
#X connect 10 0 11 0;
#X connect 11 0 12 0;
#X connect 12 0 15 1;
#X connect 13 0 14 0;
#X connect 14 0 17 0;
#X connect 15 0 16 0;
#X connect 16 0 20 0;
#X connect 16 0 8 1;
#X connect 17 0 18 0;
#X connect 18 0 6 1;
#X connect 19 0 3 0;
#X connect 20 0 21 0;
#X connect 21 0 17 1;
#X connect 25 0 6 0;
#X restore 53 164 pd centered_random_birds;
#N canvas 0 22 452 302 centered_random_birds 0;
#X floatatom 93 104 5 0 40000 0 - - -;
#X text 65 32 center freqency;
#X text 214 31 How Random;
#X obj 210 393 outlet;
#X obj 228 74 inlet;
#X obj 93 76 inlet;
#X obj 210 313 random;
#X floatatom 228 108 5 0 1 0 - - -;
#X obj 210 338 +;
#X obj 164 76 bng 15 250 50 0 empty empty empty 0 -6 0 8 -262144 -1
-1;
#X msg 180 98 1;
#X obj 180 122 -;
#X floatatom 180 147 5 0 0 0 - - -;
#X obj 93 230 * 2;
#X floatatom 93 259 5 0 0 0 - - -;
#X obj 164 172 *;
#X floatatom 164 200 5 0 0 0 - - -;
#X obj 148 272 -;
#X floatatom 148 299 5 0 0 0 - - -;
#X floatatom 210 366 5 0 0 0 - - -;
#X obj 164 225 * 2;
#X floatatom 164 251 5 0 0 0 - - -;
#X text 78 52 (anything);
#X text 227 52 (0-1);
#X text 194 416 Random Number;
#X obj 338 73 inlet;
#X text 309 29 New Value (bang);
#X connect 0 0 13 0;
#X connect 0 0 15 0;
#X connect 4 0 7 0;
#X connect 5 0 0 0;
#X connect 6 0 8 0;
#X connect 7 0 9 0;
#X connect 7 0 11 1;
#X connect 8 0 19 0;
#X connect 9 0 10 0;
#X connect 9 0 14 0;
#X connect 9 0 15 0;
#X connect 10 0 11 0;
#X connect 11 0 12 0;
#X connect 12 0 15 1;
#X connect 13 0 14 0;
#X connect 14 0 17 0;
#X connect 15 0 16 0;
#X connect 16 0 20 0;
#X connect 16 0 8 1;
#X connect 17 0 18 0;
#X connect 18 0 6 1;
#X connect 19 0 3 0;
#X connect 20 0 21 0;
#X connect 21 0 17 1;
#X connect 25 0 6 0;
#X restore 240 163 pd centered_random_birds;
#N canvas 0 22 452 302 centered_random_birds 0;
#X floatatom 93 104 5 0 40000 0 - - -;
#X text 65 32 center freqency;
#X text 214 31 How Random;
#X obj 210 393 outlet;
#X obj 228 74 inlet;
#X obj 93 76 inlet;
#X obj 210 313 random;
#X floatatom 228 108 5 0 1 0 - - -;
#X obj 210 338 +;
#X obj 164 76 bng 15 250 50 0 empty empty empty 0 -6 0 8 -262144 -1
-1;
#X msg 180 98 1;
#X obj 180 122 -;
#X floatatom 180 147 5 0 0 0 - - -;
#X obj 93 230 * 2;
#X floatatom 93 259 5 0 0 0 - - -;
#X obj 164 172 *;
#X floatatom 164 200 5 0 0 0 - - -;
#X obj 148 272 -;
#X floatatom 148 299 5 0 0 0 - - -;
#X floatatom 210 366 5 0 0 0 - - -;
#X obj 164 225 * 2;
#X floatatom 164 251 5 0 0 0 - - -;
#X text 78 52 (anything);
#X text 227 52 (0-1);
#X text 194 416 Random Number;
#X obj 338 73 inlet;
#X text 309 29 New Value (bang);
#X connect 0 0 13 0;
#X connect 0 0 15 0;
#X connect 4 0 7 0;
#X connect 5 0 0 0;
#X connect 6 0 8 0;
#X connect 7 0 9 0;
#X connect 7 0 11 1;
#X connect 8 0 19 0;
#X connect 9 0 10 0;
#X connect 9 0 14 0;
#X connect 9 0 15 0;
#X connect 10 0 11 0;
#X connect 11 0 12 0;
#X connect 12 0 15 1;
#X connect 13 0 14 0;
#X connect 14 0 17 0;
#X connect 15 0 16 0;
#X connect 16 0 20 0;
#X connect 16 0 8 1;
#X connect 17 0 18 0;
#X connect 18 0 6 1;
#X connect 19 0 3 0;
#X connect 20 0 21 0;
#X connect 21 0 17 1;
#X connect 25 0 6 0;
#X restore 433 163 pd centered_random_birds;
#N canvas 0 22 456 306 fm_synth~ 0;
#X obj 59 122 osc~;
#X obj 11 122 sig~;
#X floatatom 11 54 5 0 0 0 - - -;
#X floatatom 59 54 5 0 0 0 - - -;
#X obj 12 187 osc~;
#X obj 12 163 +~;
#X obj 59 147 *~;
#X floatatom 107 54 5 0 0 0 - - -;
#X text 16 12 Fc;
#X text 62 12 Fm;
#X obj 11 76 * 1000;
#X obj 59 76 * 1000;
#X text 107 12 Imod;
#X text 159 12 All (0-1);
#X floatatom 11 101 5 0 0 0 - - -;
#X floatatom 59 101 5 0 0 0 - - -;
#X floatatom 107 101 5 0 0 0 - - -;
#X obj 12 211 outlet~;
#X obj 11 29 inlet;
#X obj 59 29 inlet;
#X obj 107 29 inlet;
#X obj 107 76 * 1000;
#X connect 0 0 6 0;
#X connect 1 0 5 0;
#X connect 2 0 10 0;
#X connect 3 0 11 0;
#X connect 4 0 17 0;
#X connect 5 0 4 0;
#X connect 6 0 5 1;
#X connect 7 0 21 0;
#X connect 10 0 14 0;
#X connect 11 0 15 0;
#X connect 14 0 1 0;
#X connect 15 0 0 0;
#X connect 16 0 6 1;
#X connect 18 0 2 0;
#X connect 19 0 3 0;
#X connect 20 0 7 0;
#X connect 21 0 16 0;
#X restore 207 274 pd fm_synth~;
#X text 240 34 Frequency (0-1);
#X text 50 35 Frequency (0-1);
#X text 426 33 Frequency (0-1);
#X connect 0 0 24 0;
#X connect 1 0 25 0;
#X connect 2 0 27 1;
#X connect 3 0 26 0;
#X connect 4 0 27 2;
#X connect 5 0 27 0;
#X connect 6 0 0 0;
#X connect 7 0 13 0;
#X connect 8 0 3 0;
#X connect 9 0 17 0;
#X connect 13 0 24 1;
#X connect 14 0 1 0;
#X connect 15 0 16 0;
#X connect 16 0 25 1;
#X connect 17 0 26 1;
#X connect 18 0 5 0;
#X connect 19 0 2 0;
#X connect 20 0 4 0;
#X connect 22 0 24 2;
#X connect 22 0 25 2;
#X connect 22 0 26 2;
#X connect 24 0 18 0;
#X connect 25 0 19 0;
#X connect 26 0 20 0;
#X connect 27 0 21 0;
#X restore 199 180 pd random_fm~;
#X obj 186 213 *~;
#N canvas 0 22 879 629 adsr______ 0;
#X obj 205 119 inlet;
#X obj 412 147 inlet;
#X text 201 94 trigger;
#X obj 205 147 sel 0;
#X obj 258 157 t b;
#X obj 134 335 f \$1;
#X obj 134 360 pack 0 \$2;
#X obj 476 148 inlet;
#X obj 403 281 del \$2;
#X obj 432 304 f \$4;
#X obj 466 379 pack 0 \$3;
#X obj 537 149 inlet;
#X obj 605 149 inlet;
#X obj 678 148 inlet;
#X msg 205 178 stop;
#X obj 576 301 pack 0 \$5;
#X text 410 124 level;
#X obj 466 355 * \$1;
#X text 31 306 ATTACK;
#X text 6 329 recall level;
#X text 6 349 and pack with;
#X text 7 369 attack time;
#X text 131 134 if zero;
#X text 132 151 release;
#X text 112 168 and cancel;
#X text 143 185 decay;
#X text 262 139 bang if attack;
#X text 245 272 on attack \, set a;
#X text 200 286 delay to go to sustain;
#X text 242 303 recall sustain value;
#X text 237 354 multiply by overall level;
#X text 281 375 pack with decay time;
#X text 569 327 on release ramp;
#X text 570 344 back to zero;
#X text 17 487 When you send this patch a nonzero trigger it schedules
a line~ to do an attack and decay \, and if zero \, it starts the release
ramp.;
#X obj 432 329 * 0.01;
#X text 16 539 Objects such as "f" and "pack" can be given dollar sign
arguments to initialize their contents from adsr's creation arguments.
Inlets are supplied to change them on the fly.;
#X text 505 613 Updated for Pd version 0.34;
#X text 86 4 ADSR ENVELOPE;
#X text 245 327 convert from percent;
#X text 76 24 Arguments: level \, attack time \, decay time \, sustain
level \, release time. A \, D \, and R are in msec and S is in percent.
This patch is used as an abstraction in 25.envelope.pd and others.
;
#X text 472 127 attack;
#X text 538 126 decay;
#X text 598 127 sustain;
#X text 675 127 release;
#X obj 458 429 line~;
#X obj 458 454 outlet~;
#X connect 0 0 3 0;
#X connect 1 0 5 1;
#X connect 1 0 17 1;
#X connect 3 0 14 0;
#X connect 3 0 15 0;
#X connect 3 1 4 0;
#X connect 4 0 5 0;
#X connect 4 0 8 0;
#X connect 5 0 6 0;
#X connect 6 0 45 0;
#X connect 7 0 6 1;
#X connect 7 0 8 1;
#X connect 8 0 9 0;
#X connect 9 0 35 0;
#X connect 10 0 45 0;
#X connect 11 0 10 1;
#X connect 12 0 9 1;
#X connect 13 0 15 1;
#X connect 14 0 8 0;
#X connect 15 0 45 0;
#X connect 17 0 10 0;
#X connect 35 0 17 0;
#X connect 45 0 46 0;
#X restore 43 164 pd adsr______;
#X msg 57 134 1;
#X msg 101 135 0.7;
#X obj 57 102 loadbang;
#X connect 0 0 27 2;
#X connect 1 0 27 3;
#X connect 2 0 27 5;
#X connect 6 0 25 0;
#X connect 7 0 25 2;
#X connect 8 0 25 4;
#X connect 9 0 25 1;
#X connect 10 0 25 3;
#X connect 11 0 25 5;
#X connect 18 0 22 0;
#X connect 18 0 25 6;
#X connect 21 0 23 1;
#X connect 22 0 27 0;
#X connect 23 0 24 0;
#X connect 24 0 27 0;
#X connect 25 0 26 1;
#X connect 26 0 17 0;
#X connect 27 0 26 0;
#X connect 28 0 27 1;
#X connect 29 0 27 4;
#X connect 30 0 28 0;
#X connect 30 0 29 0;
#X restore 21 407 pd bird~ 100 100 100 500 250 0.5 0.5 0.3 0.7;
#X obj 91 21 loadbang;
#X text 271 71 Bird Envelope;
#X connect 0 0 14 0;
#X connect 1 0 13 0;
#X connect 2 0 12 0;
#X connect 3 0 24 6;
#X connect 4 0 24 0;
#X connect 5 0 24 1;
#X connect 6 0 24 2;
#X connect 10 0 24 7;
#X connect 11 0 24 8;
#X connect 12 0 24 3;
#X connect 13 0 24 4;
#X connect 14 0 24 5;
#X connect 20 0 24 9;
#X connect 23 0 24 10;
#X connect 24 0 19 0;
#X connect 25 0 1 0;
#X connect 25 0 0 0;
#X connect 25 0 2 0;
#X restore 312 291 pd -bird_control4~;
#N canvas 0 22 678 533 -bird_control2~ 0;
#X msg 32 60 1079;
#X msg 91 61 8;
#X msg 148 59 78;
#X obj 33 133 vsl 15 100 0 1 0 0 empty fcrandom2 empty 0 -8 0 8 -262144
-1 -1 0 1;
#X obj 243 128 vsl 15 100 0 5000 0 0 empty a2 empty 0 -8 0 8 -262144
-1 -1 0 1;
#X obj 291 128 vsl 15 100 0 5000 0 0 empty d2 empty 0 -8 0 8 -262144
-1 -1 0 1;
#X obj 340 128 vsl 15 100 0 5000 0 0 empty r2 empty 0 -8 0 8 -262144
-1 -1 0 1;
#X text 223 107 A time;
#X text 281 107 D time;
#X text 332 107 R time;
#X obj 92 137 vsl 15 100 0 1 0 0 empty fmrandom2 empty 0 -8 0 8 -262144
-1 -1 0 1;
#X obj 149 133 vsl 15 100 0 1 0 0 empty irandom2 empty 0 -8 0 8 -262144
-1 -1 0 1;
#X floatatom 32 101 5 0 0 0 - - -;
#X floatatom 91 101 5 0 0 0 - - -;
#X floatatom 148 100 5 0 0 0 - - -;
#X text 28 80 Fc;
#X text 87 80 Fm;
#X text 147 79 I;
#X text 71 119 Randomness;
#X obj 21 437 outlet~;
#X obj 254 381 inlet;
#X text 253 358 Init;
#X text 295 357 Duration;
#X obj 296 381 inlet;
#N canvas 106 22 798 344 bird~ 0;
#X obj 24 59 inlet;
#X obj 82 60 inlet;
#X obj 140 61 inlet;
#X text 22 38 A time;
#X text 80 39 D time;
#X text 138 39 R time;
#X obj 199 60 inlet;
#X obj 244 59 inlet;
#X obj 286 59 inlet;
#X obj 340 60 inlet;
#X obj 398 59 inlet;
#X obj 450 60 inlet;
#X text 197 39 Fc;
#X text 242 38 Fm;
#X text 284 37 I;
#X text 295 37 (0-1);
#X text 384 41 Randomness;
#X obj 187 254 outlet~;
#X obj 495 59 inlet;
#X text 494 36 Init;
#X text 558 36 Duration;
#X obj 559 60 inlet;
#X msg 495 95 1;
#X obj 529 86 delay;
#X msg 529 117 0;
#N canvas 0 22 766 456 random_fm~ 0;
#X floatatom 53 84 5 0 0 0 - - -;
#X floatatom 240 86 5 0 0 0 - - -;
#X obj 240 236 * 0.001;
#X floatatom 433 82 5 0 0 0 - - -;
#X obj 433 236 * 0.001;
#X obj 53 232 * 0.001;
#X obj 53 55 inlet;
#X obj 195 53 inlet;
#X obj 433 53 inlet;
#X obj 575 54 inlet;
#X text 129 69 How Random (0-1);
#X text 511 68 How Random (0-1);
#X text 317 69 How Random (0-1);
#X floatatom 195 86 5 0 0 0 - - -;
#X obj 240 54 inlet;
#X obj 382 53 inlet;
#X floatatom 382 83 5 0 0 0 - - -;
#X floatatom 575 84 5 0 0 0 - - -;
#X floatatom 53 197 5 0 0 0 - - -;
#X floatatom 240 198 5 0 0 0 - - -;
#X floatatom 433 201 5 0 0 0 - - -;
#X obj 211 311 outlet~;
#X obj 671 53 inlet;
#X text 672 34 Bang;
#N canvas 0 22 456 306 centered_random_birds 0;
#X floatatom 93 104 5 0 40000 0 - - -;
#X text 65 32 center freqency;
#X text 214 31 How Random;
#X obj 210 393 outlet;
#X obj 228 74 inlet;
#X obj 93 76 inlet;
#X obj 210 313 random;
#X floatatom 228 108 5 0 1 0 - - -;
#X obj 210 338 +;
#X obj 164 76 bng 15 250 50 0 empty empty empty 0 -6 0 8 -262144 -1
-1;
#X msg 180 98 1;
#X obj 180 122 -;
#X floatatom 180 147 5 0 0 0 - - -;
#X obj 93 230 * 2;
#X floatatom 93 259 5 0 0 0 - - -;
#X obj 164 172 *;
#X floatatom 164 200 5 0 0 0 - - -;
#X obj 148 272 -;
#X floatatom 148 299 5 0 0 0 - - -;
#X floatatom 210 366 5 0 0 0 - - -;
#X obj 164 225 * 2;
#X floatatom 164 251 5 0 0 0 - - -;
#X text 78 52 (anything);
#X text 227 52 (0-1);
#X text 194 416 Random Number;
#X obj 338 73 inlet;
#X text 309 29 New Value (bang);
#X connect 0 0 13 0;
#X connect 0 0 15 0;
#X connect 4 0 7 0;
#X connect 5 0 0 0;
#X connect 6 0 8 0;
#X connect 7 0 9 0;
#X connect 7 0 11 1;
#X connect 8 0 19 0;
#X connect 9 0 10 0;
#X connect 9 0 14 0;
#X connect 9 0 15 0;
#X connect 10 0 11 0;
#X connect 11 0 12 0;
#X connect 12 0 15 1;
#X connect 13 0 14 0;
#X connect 14 0 17 0;
#X connect 15 0 16 0;
#X connect 16 0 20 0;
#X connect 16 0 8 1;
#X connect 17 0 18 0;
#X connect 18 0 6 1;
#X connect 19 0 3 0;
#X connect 20 0 21 0;
#X connect 21 0 17 1;
#X connect 25 0 6 0;
#X restore 53 164 pd centered_random_birds;
#N canvas 0 22 452 302 centered_random_birds 0;
#X floatatom 93 104 5 0 40000 0 - - -;
#X text 65 32 center freqency;
#X text 214 31 How Random;
#X obj 210 393 outlet;
#X obj 228 74 inlet;
#X obj 93 76 inlet;
#X obj 210 313 random;
#X floatatom 228 108 5 0 1 0 - - -;
#X obj 210 338 +;
#X obj 164 76 bng 15 250 50 0 empty empty empty 0 -6 0 8 -262144 -1
-1;
#X msg 180 98 1;
#X obj 180 122 -;
#X floatatom 180 147 5 0 0 0 - - -;
#X obj 93 230 * 2;
#X floatatom 93 259 5 0 0 0 - - -;
#X obj 164 172 *;
#X floatatom 164 200 5 0 0 0 - - -;
#X obj 148 272 -;
#X floatatom 148 299 5 0 0 0 - - -;
#X floatatom 210 366 5 0 0 0 - - -;
#X obj 164 225 * 2;
#X floatatom 164 251 5 0 0 0 - - -;
#X text 78 52 (anything);
#X text 227 52 (0-1);
#X text 194 416 Random Number;
#X obj 338 73 inlet;
#X text 309 29 New Value (bang);
#X connect 0 0 13 0;
#X connect 0 0 15 0;
#X connect 4 0 7 0;
#X connect 5 0 0 0;
#X connect 6 0 8 0;
#X connect 7 0 9 0;
#X connect 7 0 11 1;
#X connect 8 0 19 0;
#X connect 9 0 10 0;
#X connect 9 0 14 0;
#X connect 9 0 15 0;
#X connect 10 0 11 0;
#X connect 11 0 12 0;
#X connect 12 0 15 1;
#X connect 13 0 14 0;
#X connect 14 0 17 0;
#X connect 15 0 16 0;
#X connect 16 0 20 0;
#X connect 16 0 8 1;
#X connect 17 0 18 0;
#X connect 18 0 6 1;
#X connect 19 0 3 0;
#X connect 20 0 21 0;
#X connect 21 0 17 1;
#X connect 25 0 6 0;
#X restore 240 163 pd centered_random_birds;
#N canvas 0 22 452 302 centered_random_birds 0;
#X floatatom 93 104 5 0 40000 0 - - -;
#X text 65 32 center freqency;
#X text 214 31 How Random;
#X obj 210 393 outlet;
#X obj 228 74 inlet;
#X obj 93 76 inlet;
#X obj 210 313 random;
#X floatatom 228 108 5 0 1 0 - - -;
#X obj 210 338 +;
#X obj 164 76 bng 15 250 50 0 empty empty empty 0 -6 0 8 -262144 -1
-1;
#X msg 180 98 1;
#X obj 180 122 -;
#X floatatom 180 147 5 0 0 0 - - -;
#X obj 93 230 * 2;
#X floatatom 93 259 5 0 0 0 - - -;
#X obj 164 172 *;
#X floatatom 164 200 5 0 0 0 - - -;
#X obj 148 272 -;
#X floatatom 148 299 5 0 0 0 - - -;
#X floatatom 210 366 5 0 0 0 - - -;
#X obj 164 225 * 2;
#X floatatom 164 251 5 0 0 0 - - -;
#X text 78 52 (anything);
#X text 227 52 (0-1);
#X text 194 416 Random Number;
#X obj 338 73 inlet;
#X text 309 29 New Value (bang);
#X connect 0 0 13 0;
#X connect 0 0 15 0;
#X connect 4 0 7 0;
#X connect 5 0 0 0;
#X connect 6 0 8 0;
#X connect 7 0 9 0;
#X connect 7 0 11 1;
#X connect 8 0 19 0;
#X connect 9 0 10 0;
#X connect 9 0 14 0;
#X connect 9 0 15 0;
#X connect 10 0 11 0;
#X connect 11 0 12 0;
#X connect 12 0 15 1;
#X connect 13 0 14 0;
#X connect 14 0 17 0;
#X connect 15 0 16 0;
#X connect 16 0 20 0;
#X connect 16 0 8 1;
#X connect 17 0 18 0;
#X connect 18 0 6 1;
#X connect 19 0 3 0;
#X connect 20 0 21 0;
#X connect 21 0 17 1;
#X connect 25 0 6 0;
#X restore 433 163 pd centered_random_birds;
#N canvas 0 22 456 306 fm_synth~ 0;
#X obj 59 122 osc~;
#X obj 11 122 sig~;
#X floatatom 11 54 5 0 0 0 - - -;
#X floatatom 59 54 5 0 0 0 - - -;
#X obj 12 187 osc~;
#X obj 12 163 +~;
#X obj 59 147 *~;
#X floatatom 107 54 5 0 0 0 - - -;
#X text 16 12 Fc;
#X text 62 12 Fm;
#X obj 11 76 * 1000;
#X obj 59 76 * 1000;
#X text 107 12 Imod;
#X text 159 12 All (0-1);
#X floatatom 11 101 5 0 0 0 - - -;
#X floatatom 59 101 5 0 0 0 - - -;
#X floatatom 107 101 5 0 0 0 - - -;
#X obj 12 211 outlet~;
#X obj 11 29 inlet;
#X obj 59 29 inlet;
#X obj 107 29 inlet;
#X obj 107 76 * 1000;
#X connect 0 0 6 0;
#X connect 1 0 5 0;
#X connect 2 0 10 0;
#X connect 3 0 11 0;
#X connect 4 0 17 0;
#X connect 5 0 4 0;
#X connect 6 0 5 1;
#X connect 7 0 21 0;
#X connect 10 0 14 0;
#X connect 11 0 15 0;
#X connect 14 0 1 0;
#X connect 15 0 0 0;
#X connect 16 0 6 1;
#X connect 18 0 2 0;
#X connect 19 0 3 0;
#X connect 20 0 7 0;
#X connect 21 0 16 0;
#X restore 207 274 pd fm_synth~;
#X text 240 34 Frequency (0-1);
#X text 50 35 Frequency (0-1);
#X text 426 33 Frequency (0-1);
#X connect 0 0 24 0;
#X connect 1 0 25 0;
#X connect 2 0 27 1;
#X connect 3 0 26 0;
#X connect 4 0 27 2;
#X connect 5 0 27 0;
#X connect 6 0 0 0;
#X connect 7 0 13 0;
#X connect 8 0 3 0;
#X connect 9 0 17 0;
#X connect 13 0 24 1;
#X connect 14 0 1 0;
#X connect 15 0 16 0;
#X connect 16 0 25 1;
#X connect 17 0 26 1;
#X connect 18 0 5 0;
#X connect 19 0 2 0;
#X connect 20 0 4 0;
#X connect 22 0 24 2;
#X connect 22 0 25 2;
#X connect 22 0 26 2;
#X connect 24 0 18 0;
#X connect 25 0 19 0;
#X connect 26 0 20 0;
#X connect 27 0 21 0;
#X restore 199 180 pd random_fm~;
#X obj 186 213 *~;
#N canvas 0 22 879 629 adsr______ 0;
#X obj 205 119 inlet;
#X obj 412 147 inlet;
#X text 201 94 trigger;
#X obj 205 147 sel 0;
#X obj 258 157 t b;
#X obj 134 335 f \$1;
#X obj 134 360 pack 0 \$2;
#X obj 476 148 inlet;
#X obj 403 281 del \$2;
#X obj 432 304 f \$4;
#X obj 466 379 pack 0 \$3;
#X obj 537 149 inlet;
#X obj 605 149 inlet;
#X obj 678 148 inlet;
#X msg 205 178 stop;
#X obj 576 301 pack 0 \$5;
#X text 410 124 level;
#X obj 466 355 * \$1;
#X text 31 306 ATTACK;
#X text 6 329 recall level;
#X text 6 349 and pack with;
#X text 7 369 attack time;
#X text 131 134 if zero;
#X text 132 151 release;
#X text 112 168 and cancel;
#X text 143 185 decay;
#X text 262 139 bang if attack;
#X text 245 272 on attack \, set a;
#X text 200 286 delay to go to sustain;
#X text 242 303 recall sustain value;
#X text 237 354 multiply by overall level;
#X text 281 375 pack with decay time;
#X text 569 327 on release ramp;
#X text 570 344 back to zero;
#X text 17 487 When you send this patch a nonzero trigger it schedules
a line~ to do an attack and decay \, and if zero \, it starts the release
ramp.;
#X obj 432 329 * 0.01;
#X text 16 539 Objects such as "f" and "pack" can be given dollar sign
arguments to initialize their contents from adsr's creation arguments.
Inlets are supplied to change them on the fly.;
#X text 505 613 Updated for Pd version 0.34;
#X text 86 4 ADSR ENVELOPE;
#X text 245 327 convert from percent;
#X text 76 24 Arguments: level \, attack time \, decay time \, sustain
level \, release time. A \, D \, and R are in msec and S is in percent.
This patch is used as an abstraction in 25.envelope.pd and others.
;
#X text 472 127 attack;
#X text 538 126 decay;
#X text 598 127 sustain;
#X text 675 127 release;
#X obj 458 429 line~;
#X obj 458 454 outlet~;
#X connect 0 0 3 0;
#X connect 1 0 5 1;
#X connect 1 0 17 1;
#X connect 3 0 14 0;
#X connect 3 0 15 0;
#X connect 3 1 4 0;
#X connect 4 0 5 0;
#X connect 4 0 8 0;
#X connect 5 0 6 0;
#X connect 6 0 45 0;
#X connect 7 0 6 1;
#X connect 7 0 8 1;
#X connect 8 0 9 0;
#X connect 9 0 35 0;
#X connect 10 0 45 0;
#X connect 11 0 10 1;
#X connect 12 0 9 1;
#X connect 13 0 15 1;
#X connect 14 0 8 0;
#X connect 15 0 45 0;
#X connect 17 0 10 0;
#X connect 35 0 17 0;
#X connect 45 0 46 0;
#X restore 43 164 pd adsr______;
#X msg 57 134 1;
#X msg 101 135 0.7;
#X obj 57 102 loadbang;
#X connect 0 0 27 2;
#X connect 1 0 27 3;
#X connect 2 0 27 5;
#X connect 6 0 25 0;
#X connect 7 0 25 2;
#X connect 8 0 25 4;
#X connect 9 0 25 1;
#X connect 10 0 25 3;
#X connect 11 0 25 5;
#X connect 18 0 22 0;
#X connect 18 0 25 6;
#X connect 21 0 23 1;
#X connect 22 0 27 0;
#X connect 23 0 24 0;
#X connect 24 0 27 0;
#X connect 25 0 26 1;
#X connect 26 0 17 0;
#X connect 27 0 26 0;
#X connect 28 0 27 1;
#X connect 29 0 27 4;
#X connect 30 0 28 0;
#X connect 30 0 29 0;
#X restore 21 407 pd bird~ 100 100 100 500 250 0.5 0.5 0.3 0.7;
#X obj 91 21 loadbang;
#X text 271 71 Bird Envelope;
#X connect 0 0 12 0;
#X connect 1 0 13 0;
#X connect 2 0 14 0;
#X connect 3 0 24 6;
#X connect 4 0 24 0;
#X connect 5 0 24 1;
#X connect 6 0 24 2;
#X connect 10 0 24 7;
#X connect 11 0 24 8;
#X connect 12 0 24 3;
#X connect 13 0 24 4;
#X connect 14 0 24 5;
#X connect 20 0 24 9;
#X connect 23 0 24 10;
#X connect 24 0 19 0;
#X connect 25 0 1 0;
#X connect 25 0 0 0;
#X connect 25 0 2 0;
#X restore 313 122 pd -bird_control2~;
#N canvas 66 36 774 614 -bird_control1~ 0;
#X obj 33 133 vsl 15 100 0 1 0 0 empty fcrandom1 empty 0 -8 0 8 -262144
-1 -1 0 1;
#X obj 243 128 vsl 15 100 0 5000 0 0 empty a1 empty 0 -8 0 8 -262144
-1 -1 0 1;
#X obj 291 128 vsl 15 100 0 5000 0 0 empty d1 empty 0 -8 0 8 -262144
-1 -1 0 1;
#X obj 340 128 vsl 15 100 0 5000 0 0 empty r1 empty 0 -8 0 8 -262144
-1 -1 0 1;
#X text 223 107 A time;
#X text 281 107 D time;
#X text 332 107 R time;
#X obj 92 137 vsl 15 100 0 1 0 0 empty fmrandom1 empty 0 -8 0 8 -262144
-1 -1 0 1;
#X obj 149 133 vsl 15 100 0 1 0 0 empty irandom1 empty 0 -8 0 8 -262144
-1 -1 0 1;
#X floatatom 32 101 5 0 0 0 - - -;
#X floatatom 91 101 5 0 0 0 - - -;
#X floatatom 148 100 5 0 0 0 - - -;
#X text 28 80 Fc;
#X text 87 80 Fm;
#X text 147 79 I;
#X text 71 119 Randomness;
#X obj 21 437 outlet~;
#X obj 254 381 inlet;
#X text 253 358 Init;
#X text 295 357 Duration;
#X obj 296 381 inlet;
#X msg 147 59 11;
#X msg 32 57 767;
#X msg 91 58 10;
#N canvas 106 22 794 340 bird~ 0;
#X obj 24 59 inlet;
#X obj 82 60 inlet;
#X obj 140 61 inlet;
#X text 22 38 A time;
#X text 80 39 D time;
#X text 138 39 R time;
#X obj 199 60 inlet;
#X obj 244 59 inlet;
#X obj 286 59 inlet;
#X obj 340 60 inlet;
#X obj 398 59 inlet;
#X obj 450 60 inlet;
#X text 197 39 Fc;
#X text 242 38 Fm;
#X text 284 37 I;
#X text 295 37 (0-1);
#X text 384 41 Randomness;
#X obj 187 254 outlet~;
#X obj 495 59 inlet;
#X text 494 36 Init;
#X text 558 36 Duration;
#X obj 559 60 inlet;
#X msg 495 95 1;
#X obj 529 86 delay;
#X msg 529 117 0;
#N canvas 0 22 766 456 random_fm~ 0;
#X floatatom 53 84 5 0 0 0 - - -;
#X floatatom 240 86 5 0 0 0 - - -;
#X obj 240 236 * 0.001;
#X floatatom 433 82 5 0 0 0 - - -;
#X obj 433 236 * 0.001;
#X obj 53 232 * 0.001;
#X obj 53 55 inlet;
#X obj 195 53 inlet;
#X obj 433 53 inlet;
#X obj 575 54 inlet;
#X text 129 69 How Random (0-1);
#X text 511 68 How Random (0-1);
#X text 317 69 How Random (0-1);
#X floatatom 195 86 5 0 0 0 - - -;
#X obj 240 54 inlet;
#X obj 382 53 inlet;
#X floatatom 382 83 5 0 0 0 - - -;
#X floatatom 575 84 5 0 0 0 - - -;
#X floatatom 53 197 5 0 0 0 - - -;
#X floatatom 240 198 5 0 0 0 - - -;
#X floatatom 433 201 5 0 0 0 - - -;
#X obj 211 311 outlet~;
#X obj 671 53 inlet;
#X text 672 34 Bang;
#N canvas 0 22 456 306 centered_random_birds 0;
#X floatatom 93 104 5 0 40000 0 - - -;
#X text 65 32 center freqency;
#X text 214 31 How Random;
#X obj 210 393 outlet;
#X obj 228 74 inlet;
#X obj 93 76 inlet;
#X obj 210 313 random;
#X floatatom 228 108 5 0 1 0 - - -;
#X obj 210 338 +;
#X obj 164 76 bng 15 250 50 0 empty empty empty 0 -6 0 8 -262144 -1
-1;
#X msg 180 98 1;
#X obj 180 122 -;
#X floatatom 180 147 5 0 0 0 - - -;
#X obj 93 230 * 2;
#X floatatom 93 259 5 0 0 0 - - -;
#X obj 164 172 *;
#X floatatom 164 200 5 0 0 0 - - -;
#X obj 148 272 -;
#X floatatom 148 299 5 0 0 0 - - -;
#X floatatom 210 366 5 0 0 0 - - -;
#X obj 164 225 * 2;
#X floatatom 164 251 5 0 0 0 - - -;
#X text 78 52 (anything);
#X text 227 52 (0-1);
#X text 194 416 Random Number;
#X obj 338 73 inlet;
#X text 309 29 New Value (bang);
#X connect 0 0 13 0;
#X connect 0 0 15 0;
#X connect 4 0 7 0;
#X connect 5 0 0 0;
#X connect 6 0 8 0;
#X connect 7 0 9 0;
#X connect 7 0 11 1;
#X connect 8 0 19 0;
#X connect 9 0 10 0;
#X connect 9 0 14 0;
#X connect 9 0 15 0;
#X connect 10 0 11 0;
#X connect 11 0 12 0;
#X connect 12 0 15 1;
#X connect 13 0 14 0;
#X connect 14 0 17 0;
#X connect 15 0 16 0;
#X connect 16 0 20 0;
#X connect 16 0 8 1;
#X connect 17 0 18 0;
#X connect 18 0 6 1;
#X connect 19 0 3 0;
#X connect 20 0 21 0;
#X connect 21 0 17 1;
#X connect 25 0 6 0;
#X restore 53 164 pd centered_random_birds;
#N canvas 0 22 452 302 centered_random_birds 0;
#X floatatom 93 104 5 0 40000 0 - - -;
#X text 65 32 center freqency;
#X text 214 31 How Random;
#X obj 210 393 outlet;
#X obj 228 74 inlet;
#X obj 93 76 inlet;
#X obj 210 313 random;
#X floatatom 228 108 5 0 1 0 - - -;
#X obj 210 338 +;
#X obj 164 76 bng 15 250 50 0 empty empty empty 0 -6 0 8 -262144 -1
-1;
#X msg 180 98 1;
#X obj 180 122 -;
#X floatatom 180 147 5 0 0 0 - - -;
#X obj 93 230 * 2;
#X floatatom 93 259 5 0 0 0 - - -;
#X obj 164 172 *;
#X floatatom 164 200 5 0 0 0 - - -;
#X obj 148 272 -;
#X floatatom 148 299 5 0 0 0 - - -;
#X floatatom 210 366 5 0 0 0 - - -;
#X obj 164 225 * 2;
#X floatatom 164 251 5 0 0 0 - - -;
#X text 78 52 (anything);
#X text 227 52 (0-1);
#X text 194 416 Random Number;
#X obj 338 73 inlet;
#X text 309 29 New Value (bang);
#X connect 0 0 13 0;
#X connect 0 0 15 0;
#X connect 4 0 7 0;
#X connect 5 0 0 0;
#X connect 6 0 8 0;
#X connect 7 0 9 0;
#X connect 7 0 11 1;
#X connect 8 0 19 0;
#X connect 9 0 10 0;
#X connect 9 0 14 0;
#X connect 9 0 15 0;
#X connect 10 0 11 0;
#X connect 11 0 12 0;
#X connect 12 0 15 1;
#X connect 13 0 14 0;
#X connect 14 0 17 0;
#X connect 15 0 16 0;
#X connect 16 0 20 0;
#X connect 16 0 8 1;
#X connect 17 0 18 0;
#X connect 18 0 6 1;
#X connect 19 0 3 0;
#X connect 20 0 21 0;
#X connect 21 0 17 1;
#X connect 25 0 6 0;
#X restore 240 163 pd centered_random_birds;
#N canvas 0 22 452 302 centered_random_birds 0;
#X floatatom 93 104 5 0 40000 0 - - -;
#X text 65 32 center freqency;
#X text 214 31 How Random;
#X obj 210 393 outlet;
#X obj 228 74 inlet;
#X obj 93 76 inlet;
#X obj 210 313 random;
#X floatatom 228 108 5 0 1 0 - - -;
#X obj 210 338 +;
#X obj 164 76 bng 15 250 50 0 empty empty empty 0 -6 0 8 -262144 -1
-1;
#X msg 180 98 1;
#X obj 180 122 -;
#X floatatom 180 147 5 0 0 0 - - -;
#X obj 93 230 * 2;
#X floatatom 93 259 5 0 0 0 - - -;
#X obj 164 172 *;
#X floatatom 164 200 5 0 0 0 - - -;
#X obj 148 272 -;
#X floatatom 148 299 5 0 0 0 - - -;
#X floatatom 210 366 5 0 0 0 - - -;
#X obj 164 225 * 2;
#X floatatom 164 251 5 0 0 0 - - -;
#X text 78 52 (anything);
#X text 227 52 (0-1);
#X text 194 416 Random Number;
#X obj 338 73 inlet;
#X text 309 29 New Value (bang);
#X connect 0 0 13 0;
#X connect 0 0 15 0;
#X connect 4 0 7 0;
#X connect 5 0 0 0;
#X connect 6 0 8 0;
#X connect 7 0 9 0;
#X connect 7 0 11 1;
#X connect 8 0 19 0;
#X connect 9 0 10 0;
#X connect 9 0 14 0;
#X connect 9 0 15 0;
#X connect 10 0 11 0;
#X connect 11 0 12 0;
#X connect 12 0 15 1;
#X connect 13 0 14 0;
#X connect 14 0 17 0;
#X connect 15 0 16 0;
#X connect 16 0 20 0;
#X connect 16 0 8 1;
#X connect 17 0 18 0;
#X connect 18 0 6 1;
#X connect 19 0 3 0;
#X connect 20 0 21 0;
#X connect 21 0 17 1;
#X connect 25 0 6 0;
#X restore 433 163 pd centered_random_birds;
#N canvas 0 22 456 306 fm_synth~ 0;
#X obj 59 122 osc~;
#X obj 11 122 sig~;
#X floatatom 11 54 5 0 0 0 - - -;
#X floatatom 59 54 5 0 0 0 - - -;
#X obj 12 187 osc~;
#X obj 12 163 +~;
#X obj 59 147 *~;
#X floatatom 107 54 5 0 0 0 - - -;
#X text 16 12 Fc;
#X text 62 12 Fm;
#X obj 11 76 * 1000;
#X obj 59 76 * 1000;
#X text 107 12 Imod;
#X text 159 12 All (0-1);
#X floatatom 11 101 5 0 0 0 - - -;
#X floatatom 59 101 5 0 0 0 - - -;
#X floatatom 107 101 5 0 0 0 - - -;
#X obj 12 211 outlet~;
#X obj 11 29 inlet;
#X obj 59 29 inlet;
#X obj 107 29 inlet;
#X obj 107 76 * 1000;
#X connect 0 0 6 0;
#X connect 1 0 5 0;
#X connect 2 0 10 0;
#X connect 3 0 11 0;
#X connect 4 0 17 0;
#X connect 5 0 4 0;
#X connect 6 0 5 1;
#X connect 7 0 21 0;
#X connect 10 0 14 0;
#X connect 11 0 15 0;
#X connect 14 0 1 0;
#X connect 15 0 0 0;
#X connect 16 0 6 1;
#X connect 18 0 2 0;
#X connect 19 0 3 0;
#X connect 20 0 7 0;
#X connect 21 0 16 0;
#X restore 207 274 pd fm_synth~;
#X text 240 34 Frequency (0-1);
#X text 50 35 Frequency (0-1);
#X text 426 33 Frequency (0-1);
#X connect 0 0 24 0;
#X connect 1 0 25 0;
#X connect 2 0 27 1;
#X connect 3 0 26 0;
#X connect 4 0 27 2;
#X connect 5 0 27 0;
#X connect 6 0 0 0;
#X connect 7 0 13 0;
#X connect 8 0 3 0;
#X connect 9 0 17 0;
#X connect 13 0 24 1;
#X connect 14 0 1 0;
#X connect 15 0 16 0;
#X connect 16 0 25 1;
#X connect 17 0 26 1;
#X connect 18 0 5 0;
#X connect 19 0 2 0;
#X connect 20 0 4 0;
#X connect 22 0 24 2;
#X connect 22 0 25 2;
#X connect 22 0 26 2;
#X connect 24 0 18 0;
#X connect 25 0 19 0;
#X connect 26 0 20 0;
#X connect 27 0 21 0;
#X restore 199 180 pd random_fm~;
#X obj 186 213 *~;
#N canvas 0 22 879 629 adsr______ 0;
#X obj 205 119 inlet;
#X obj 412 147 inlet;
#X text 201 94 trigger;
#X obj 205 147 sel 0;
#X obj 258 157 t b;
#X obj 134 335 f \$1;
#X obj 134 360 pack 0 \$2;
#X obj 476 148 inlet;
#X obj 403 281 del \$2;
#X obj 432 304 f \$4;
#X obj 466 379 pack 0 \$3;
#X obj 537 149 inlet;
#X obj 605 149 inlet;
#X obj 678 148 inlet;
#X msg 205 178 stop;
#X obj 576 301 pack 0 \$5;
#X text 410 124 level;
#X obj 466 355 * \$1;
#X text 31 306 ATTACK;
#X text 6 329 recall level;
#X text 6 349 and pack with;
#X text 7 369 attack time;
#X text 131 134 if zero;
#X text 132 151 release;
#X text 112 168 and cancel;
#X text 143 185 decay;
#X text 262 139 bang if attack;
#X text 245 272 on attack \, set a;
#X text 200 286 delay to go to sustain;
#X text 242 303 recall sustain value;
#X text 237 354 multiply by overall level;
#X text 281 375 pack with decay time;
#X text 569 327 on release ramp;
#X text 570 344 back to zero;
#X text 17 487 When you send this patch a nonzero trigger it schedules
a line~ to do an attack and decay \, and if zero \, it starts the release
ramp.;
#X obj 432 329 * 0.01;
#X text 16 539 Objects such as "f" and "pack" can be given dollar sign
arguments to initialize their contents from adsr's creation arguments.
Inlets are supplied to change them on the fly.;
#X text 505 613 Updated for Pd version 0.34;
#X text 86 4 ADSR ENVELOPE;
#X text 245 327 convert from percent;
#X text 76 24 Arguments: level \, attack time \, decay time \, sustain
level \, release time. A \, D \, and R are in msec and S is in percent.
This patch is used as an abstraction in 25.envelope.pd and others.
;
#X text 472 127 attack;
#X text 538 126 decay;
#X text 598 127 sustain;
#X text 675 127 release;
#X obj 458 429 line~;
#X obj 458 454 outlet~;
#X connect 0 0 3 0;
#X connect 1 0 5 1;
#X connect 1 0 17 1;
#X connect 3 0 14 0;
#X connect 3 0 15 0;
#X connect 3 1 4 0;
#X connect 4 0 5 0;
#X connect 4 0 8 0;
#X connect 5 0 6 0;
#X connect 6 0 45 0;
#X connect 7 0 6 1;
#X connect 7 0 8 1;
#X connect 8 0 9 0;
#X connect 9 0 35 0;
#X connect 10 0 45 0;
#X connect 11 0 10 1;
#X connect 12 0 9 1;
#X connect 13 0 15 1;
#X connect 14 0 8 0;
#X connect 15 0 45 0;
#X connect 17 0 10 0;
#X connect 35 0 17 0;
#X connect 45 0 46 0;
#X restore 43 164 pd adsr______;
#X msg 57 134 1;
#X msg 101 135 0.7;
#X obj 57 102 loadbang;
#X connect 0 0 27 2;
#X connect 1 0 27 3;
#X connect 2 0 27 5;
#X connect 6 0 25 0;
#X connect 7 0 25 2;
#X connect 8 0 25 4;
#X connect 9 0 25 1;
#X connect 10 0 25 3;
#X connect 11 0 25 5;
#X connect 18 0 22 0;
#X connect 18 0 25 6;
#X connect 21 0 23 1;
#X connect 22 0 27 0;
#X connect 23 0 24 0;
#X connect 24 0 27 0;
#X connect 25 0 26 1;
#X connect 26 0 17 0;
#X connect 27 0 26 0;
#X connect 28 0 27 1;
#X connect 29 0 27 4;
#X connect 30 0 28 0;
#X connect 30 0 29 0;
#X restore 21 407 pd bird~ 100 100 100 500 250 0.5 0.5 0.3 0.7;
#X obj 91 21 loadbang;
#X text 271 71 Bird Envelope;
#X connect 0 0 24 6;
#X connect 1 0 24 0;
#X connect 2 0 24 1;
#X connect 3 0 24 2;
#X connect 7 0 24 7;
#X connect 8 0 24 8;
#X connect 9 0 24 3;
#X connect 10 0 24 4;
#X connect 11 0 24 5;
#X connect 17 0 24 9;
#X connect 20 0 24 10;
#X connect 21 0 11 0;
#X connect 22 0 9 0;
#X connect 23 0 10 0;
#X connect 24 0 16 0;
#X connect 25 0 22 0;
#X connect 25 0 23 0;
#X connect 25 0 21 0;
#X restore 55 128 pd -bird_control1~;
#X msg 218 401 0.85;
#X msg 252 401 400;
#X obj 290 384 loadbang;
#X floatatom 67 148 5 0 0 0 - birdvol1 -;
#X floatatom 326 142 5 0 0 0 - birdvol2 -;
#X floatatom 66 312 5 0 0 0 - birdvol3 -;
#X floatatom 325 312 5 0 0 0 - birdvol4 -;
#X obj 80 49 * 1000;
#X obj 338 44 * 1000;
#X obj 79 213 * 1000;
#X obj 337 209 * 1000;
#X obj 181 467 outlet~;
#X obj 184 391 *~ 1;
#X connect 0 0 30 0;
#X connect 1 0 29 0;
#X connect 2 0 27 0;
#X connect 3 0 28 0;
#X connect 4 0 25 0;
#X connect 5 0 25 0;
#X connect 6 0 25 0;
#X connect 7 0 25 0;
#X connect 8 0 9 0;
#X connect 9 0 0 0;
#X connect 10 0 11 0;
#X connect 11 0 3 0;
#X connect 12 0 13 0;
#X connect 13 0 2 0;
#X connect 14 0 23 0;
#X connect 14 0 40 0;
#X connect 15 0 16 0;
#X connect 16 0 1 0;
#X connect 17 0 28 1;
#X connect 18 0 29 1;
#X connect 19 0 30 1;
#X connect 20 0 19 0;
#X connect 20 0 38 0;
#X connect 21 0 18 0;
#X connect 21 0 39 0;
#X connect 22 0 17 0;
#X connect 22 0 41 0;
#X connect 23 0 27 1;
#X connect 24 0 42 0;
#X connect 25 0 26 0;
#X connect 26 0 43 0;
#X connect 27 0 4 0;
#X connect 28 0 7 0;
#X connect 29 0 5 0;
#X connect 30 0 6 0;
#X connect 31 0 24 1;
#X connect 32 0 24 2;
#X connect 33 0 31 0;
#X connect 33 0 32 0;
#X connect 34 0 6 1;
#X connect 35 0 5 1;
#X connect 36 0 4 1;
#X connect 37 0 7 1;
#X connect 38 0 9 1;
#X connect 39 0 16 1;
#X connect 40 0 13 1;
#X connect 41 0 11 1;
#X connect 43 0 24 0;
#X restore 542 322 pd openpatch;
#N canvas 307 96 479 221 midicontrol 0;
#X obj 97 64 s bird1;
#X obj 176 71 s bird2;
#X obj 241 68 s bird3;
#X obj 313 68 s bird4;
#X obj 314 40 select 39;
#X obj 85 -52 stripnote;
#X obj 97 41 select 36;
#X obj 170 40 select 37;
#X obj 242 40 select 38;
#X obj 136 -114 inlet;
#X obj 177 -115 inlet;
#X obj 166 -34 outlet;
#X obj -212 -187 notein;
#X floatatom -212 -163 5 0 0 0 - - -;
#X floatatom -170 -164 5 0 0 0 - - -;
#X connect 4 0 3 0;
#X connect 5 0 6 0;
#X connect 5 0 7 0;
#X connect 5 0 8 0;
#X connect 5 0 4 0;
#X connect 5 1 11 0;
#X connect 6 0 0 0;
#X connect 7 0 1 0;
#X connect 8 0 2 0;
#X connect 9 0 5 0;
#X connect 10 0 5 1;
#X connect 12 0 13 0;
#X connect 12 1 14 0;
#X restore 571 298 pd midicontrol;
#X obj 543 415 *~;
#X obj 558 356 / 100;
#X obj 558 375 + 0.1;
#X obj 571 201 r noteBirds;
#X obj 627 220 r velBirds;
#X obj 558 396 line;
#X floatatom 595 380 5 0 0 0 - - -;
#X obj 595 342 loadbang;
#X msg 595 360 50;
#X obj 516 238 notein;
#X floatatom 571 281 5 0 0 0 - - -;
#X floatatom 627 281 5 0 0 0 - - -;
#X obj 651 343 r birdbang1;
#X obj 651 364 r birdbang2;
#X obj 652 384 r birdbang3;
#X obj 652 404 r birdbang4;
#N canvas 0 22 450 300 (subpatch) 0;
#X obj 59 155 inlet;
#X obj 3 89 inlet~;
#X obj 58 182 change;
#X msg 60 246 set \$1;
#X obj 60 227 tosymbol;
#X obj 59 204 sprintf Bus%d;
#X obj 3 282 throw~ Bus0;
#X obj 2 3 popup 124 25 #ffffff popup Bus0 Bus1 Bus2 Bus3 Bus4 Bus5
;
#X obj 1 32 route bang;
#X obj 154 202 *~;
#X obj 141 7 tgl 15 0 empty empty Dac 19 7 0 10 -262144 -1 -1 0 1;
#X obj 155 238 dac~;
#X obj 1 -41 loadbang;
#X text 59 -43 Bus0 mutes;
#X msg 1 -23 options Bus0 Bus1 Bus2 Bus3 Bus4 Bus5 Bus6 Bus7 Bus8 Bus9
Bus10 Bus11 Bus12 Bus13 Bus14 Bus15 Bus16;
#X connect 0 0 2 0;
#X connect 1 0 6 0;
#X connect 1 0 9 0;
#X connect 2 0 5 0;
#X connect 3 0 6 0;
#X connect 4 0 3 0;
#X connect 5 0 4 0;
#X connect 7 0 8 0;
#X connect 8 1 2 0;
#X connect 9 0 11 0;
#X connect 9 0 11 1;
#X connect 10 0 9 1;
#X connect 12 0 14 0;
#X connect 14 0 7 0;
#X coords 0 1 100 -1 180 30 1 0 0;
#X restore 543 432 graph;
#N canvas 0 22 450 300 (subpatch) 0;
#X obj -30 22 spigot;
#X obj 2 3 tgl 15 0 empty empty empty 17 7 0 10 -262144 -1 -1 0 1;
#X obj -58 0 inlet;
#X obj -54 54 outlet;
#X connect 0 0 3 0;
#X connect 1 0 0 1;
#X connect 2 0 0 0;
#X coords 0 1 100 -1 20 20 1 0 0;
#X restore 571 238 graph;
#N canvas 0 22 450 300 (subpatch) 0;
#X obj -30 22 spigot;
#X obj 2 3 tgl 15 0 empty empty empty 17 7 0 10 -262144 -1 -1 0 1;
#X obj -58 0 inlet;
#X obj -54 54 outlet;
#X connect 0 0 3 0;
#X connect 1 0 0 1;
#X connect 2 0 0 0;
#X coords 0 1 100 -1 20 20 1 0 0;
#X restore 516 261 graph;
#N canvas 0 22 450 300 (subpatch) 0;
#X obj -30 22 spigot;
#X obj 2 3 tgl 15 0 empty empty empty 17 7 0 10 -262144 -1 -1 0 1;
#X obj -58 0 inlet;
#X obj -54 54 outlet;
#X connect 0 0 3 0;
#X connect 1 0 0 1;
#X connect 2 0 0 0;
#X coords 0 1 100 -1 20 20 1 0 0;
#X restore 627 238 graph;
#N canvas 0 22 450 300 (subpatch) 0;
#X obj -30 22 spigot;
#X obj 2 3 tgl 15 0 empty empty empty 17 7 0 10 -262144 -1 -1 0 1;
#X obj -58 0 inlet;
#X obj -54 54 outlet;
#X connect 0 0 3 0;
#X connect 1 0 0 1;
#X connect 2 0 0 0;
#X coords 0 1 100 -1 20 20 1 0 0;
#X restore 536 261 graph;
#X connect 86 0 88 0;
#X connect 87 0 89 0;
#X connect 88 0 104 0;
#X connect 89 0 90 0;
#X connect 90 0 93 0;
#X connect 91 0 105 0;
#X connect 92 0 107 0;
#X connect 93 0 88 1;
#X connect 94 0 93 1;
#X connect 95 0 96 0;
#X connect 96 0 94 0;
#X connect 97 0 106 0;
#X connect 97 1 108 0;
#X connect 98 0 87 0;
#X connect 99 0 87 1;
#X connect 100 0 96 0;
#X connect 101 0 96 0;
#X connect 102 0 96 0;
#X connect 103 0 96 0;
#X connect 105 0 98 0;
#X connect 106 0 98 0;
#X connect 107 0 99 0;
#X connect 108 0 99 0;
