#N canvas 0 22 365 183 10;
#N canvas 0 22 450 300 ChinaBell 0;
#X obj 72 47 vsl 12 50 0 1 0 1 empty empty vol 0 -8 0 8 -260818 -1
-1 4900 1;
#X obj -75 96 inlet;
#X obj -61 196 outlet~;
#N canvas 0 22 766 308 chinabell 0;
#N canvas 0 22 1251 875 part 0;
#X obj 204 404 *~;
#X obj 227 349 *~;
#X obj 227 376 *~;
#X obj 142 263 osc~;
#X obj 202 26 inlet;
#X obj 205 460 outlet~;
#X obj 137 91 t;
#X obj 231 317 ead~ 5 300;
#X obj 216 79 unpack 1 2 3;
#X obj 204 430 *~;
#X connect 0 0 9 0;
#X connect 1 0 2 0;
#X connect 1 0 2 1;
#X connect 2 0 0 1;
#X connect 3 0 0 0;
#X connect 4 0 6 0;
#X connect 4 0 8 0;
#X connect 6 0 7 0;
#X connect 7 0 1 0;
#X connect 7 0 1 1;
#X connect 8 0 3 0;
#X connect 8 1 7 2;
#X connect 8 2 9 1;
#X connect 9 0 5 0;
#X restore -8 149 pd part;
#X obj 247 41 mtof;
#N canvas 0 22 1251 875 part 0;
#X obj 204 404 *~;
#X obj 227 349 *~;
#X obj 227 376 *~;
#X obj 142 263 osc~;
#X obj 202 26 inlet;
#X obj 205 460 outlet~;
#X obj 137 91 t;
#X obj 231 317 ead~ 5 300;
#X obj 216 79 unpack 1 2 3;
#X obj 204 430 *~;
#X connect 0 0 9 0;
#X connect 1 0 2 0;
#X connect 1 0 2 1;
#X connect 2 0 0 1;
#X connect 3 0 0 0;
#X connect 4 0 6 0;
#X connect 4 0 8 0;
#X connect 6 0 7 0;
#X connect 7 0 1 0;
#X connect 7 0 1 1;
#X connect 8 0 3 0;
#X connect 8 1 7 2;
#X connect 8 2 9 1;
#X connect 9 0 5 0;
#X restore 119 149 pd part;
#X obj 119 101 * 1.666;
#N canvas 0 22 1251 875 part 0;
#X obj 204 404 *~;
#X obj 227 349 *~;
#X obj 227 376 *~;
#X obj 142 263 osc~;
#X obj 202 26 inlet;
#X obj 205 460 outlet~;
#X obj 137 91 t;
#X obj 231 317 ead~ 5 300;
#X obj 216 79 unpack 1 2 3;
#X obj 204 430 *~;
#X connect 0 0 9 0;
#X connect 1 0 2 0;
#X connect 1 0 2 1;
#X connect 2 0 0 1;
#X connect 3 0 0 0;
#X connect 4 0 6 0;
#X connect 4 0 8 0;
#X connect 6 0 7 0;
#X connect 7 0 1 0;
#X connect 7 0 1 1;
#X connect 8 0 3 0;
#X connect 8 1 7 2;
#X connect 8 2 9 1;
#X connect 9 0 5 0;
#X restore 223 148 pd part;
#N canvas 0 22 1251 875 part 0;
#X obj 204 404 *~;
#X obj 227 349 *~;
#X obj 227 376 *~;
#X obj 142 263 osc~;
#X obj 202 26 inlet;
#X obj 205 460 outlet~;
#X obj 137 91 t;
#X obj 231 317 ead~ 5 300;
#X obj 216 79 unpack 1 2 3;
#X obj 204 430 *~;
#X connect 0 0 9 0;
#X connect 1 0 2 0;
#X connect 1 0 2 1;
#X connect 2 0 0 1;
#X connect 3 0 0 0;
#X connect 4 0 6 0;
#X connect 4 0 8 0;
#X connect 6 0 7 0;
#X connect 7 0 1 0;
#X connect 7 0 1 1;
#X connect 8 0 3 0;
#X connect 8 1 7 2;
#X connect 8 2 9 1;
#X connect 9 0 5 0;
#X restore 350 148 pd part;
#X msg 350 124 \$1 17000 0.09;
#N canvas 0 22 1251 875 part 0;
#X obj 204 404 *~;
#X obj 227 349 *~;
#X obj 227 376 *~;
#X obj 142 263 osc~;
#X obj 202 26 inlet;
#X obj 205 460 outlet~;
#X obj 137 91 t;
#X obj 231 317 ead~ 5 300;
#X obj 216 79 unpack 1 2 3;
#X obj 204 430 *~;
#X connect 0 0 9 0;
#X connect 1 0 2 0;
#X connect 1 0 2 1;
#X connect 2 0 0 1;
#X connect 3 0 0 0;
#X connect 4 0 6 0;
#X connect 4 0 8 0;
#X connect 6 0 7 0;
#X connect 7 0 1 0;
#X connect 7 0 1 1;
#X connect 8 0 3 0;
#X connect 8 1 7 2;
#X connect 8 2 9 1;
#X connect 9 0 5 0;
#X restore 461 147 pd part;
#N canvas 0 22 1251 875 part 0;
#X obj 204 404 *~;
#X obj 227 349 *~;
#X obj 227 376 *~;
#X obj 142 263 osc~;
#X obj 202 26 inlet;
#X obj 205 460 outlet~;
#X obj 137 91 t;
#X obj 231 317 ead~ 5 300;
#X obj 216 79 unpack 1 2 3;
#X obj 204 430 *~;
#X connect 0 0 9 0;
#X connect 1 0 2 0;
#X connect 1 0 2 1;
#X connect 2 0 0 1;
#X connect 3 0 0 0;
#X connect 4 0 6 0;
#X connect 4 0 8 0;
#X connect 6 0 7 0;
#X connect 7 0 1 0;
#X connect 7 0 1 1;
#X connect 8 0 3 0;
#X connect 8 1 7 2;
#X connect 8 2 9 1;
#X connect 9 0 5 0;
#X restore 589 147 pd part;
#X obj 589 99 * 8.9;
#X msg 461 124 \$1 19000 0.08;
#X msg 589 123 \$1 21000 0.07;
#X obj 461 100 * 7.666;
#X obj 350 100 * 5.89;
#X obj 223 101 * 4.2;
#X obj 271 201 outlet~;
#X obj 247 19 inlet;
#X msg -8 126 \$1 15000 0.25;
#X msg 119 125 \$1 18000 0.2;
#X msg 223 125 \$1 22000 0.1;
#X connect 0 0 15 0;
#X connect 1 0 17 0;
#X connect 1 0 3 0;
#X connect 1 0 9 0;
#X connect 1 0 12 0;
#X connect 1 0 13 0;
#X connect 1 0 14 0;
#X connect 2 0 15 0;
#X connect 3 0 18 0;
#X connect 4 0 15 0;
#X connect 5 0 15 0;
#X connect 6 0 5 0;
#X connect 7 0 15 0;
#X connect 8 0 15 0;
#X connect 9 0 11 0;
#X connect 10 0 7 0;
#X connect 11 0 8 0;
#X connect 12 0 10 0;
#X connect 13 0 6 0;
#X connect 14 0 19 0;
#X connect 16 0 1 0;
#X connect 17 0 0 0;
#X connect 18 0 2 0;
#X connect 19 0 4 0;
#X restore -61 149 pd chinabell;
#X obj -60 172 *~ 1;
#X obj 29 84 t b f;
#X obj 29 65 tgl 15 1 empty empty empty 0 -6 0 8 -260818 -1 -1 1 1
;
#X obj 29 109 *;
#X obj 77 -107 inlet;
#X obj 10 -71 loadbang;
#X msg 11 -50 1;
#X connect 0 0 7 0;
#X connect 1 0 3 0;
#X connect 3 0 4 0;
#X connect 4 0 2 0;
#X connect 5 0 7 0;
#X connect 5 1 7 1;
#X connect 6 0 5 0;
#X connect 7 0 4 1;
#X connect 8 0 0 0;
#X connect 9 0 10 0;
#X connect 10 0 6 0;
#X restore -54 40 pd ChinaBell;
#X obj -54 -33 r note;
#X obj -10 -33 r vel;
#X obj -126 -17 notein;
#X floatatom -54 24 5 0 0 0 - - -;
#X floatatom -10 24 5 0 0 0 - - -;
#N canvas 0 22 450 300 (subpatch) 0;
#X obj 59 155 inlet;
#X obj 3 89 inlet~;
#X obj 58 182 change;
#X msg 60 246 set \$1;
#X obj 60 227 tosymbol;
#X obj 59 204 sprintf Bus%d;
#X obj 3 282 throw~ Bus0;
#X obj 2 3 popup 124 25 #ffffff popup Bus0 Bus1 Bus2 Bus3 Bus4 Bus5
;
#X obj 1 32 route bang;
#X obj 154 202 *~;
#X obj 141 7 tgl 15 0 empty empty Dac 19 7 0 10 -262144 -1 -1 0 1;
#X obj 155 238 dac~;
#X obj 1 -41 loadbang;
#X text 59 -43 Bus0 mutes;
#X msg 1 -23 options Bus0 Bus1 Bus2 Bus3 Bus4 Bus5 Bus6 Bus7 Bus8 Bus9
Bus10 Bus11 Bus12 Bus13 Bus14 Bus15 Bus16;
#X connect 0 0 2 0;
#X connect 1 0 6 0;
#X connect 1 0 9 0;
#X connect 2 0 5 0;
#X connect 3 0 6 0;
#X connect 4 0 3 0;
#X connect 5 0 4 0;
#X connect 7 0 8 0;
#X connect 8 1 2 0;
#X connect 9 0 11 0;
#X connect 9 0 11 1;
#X connect 10 0 9 1;
#X connect 12 0 14 0;
#X connect 14 0 7 0;
#X coords 0 1 100 -1 180 30 1 0 0;
#X restore -54 58 graph;
#N canvas 0 22 450 300 (subpatch) 0;
#X obj -30 22 spigot;
#X obj 2 3 tgl 15 0 empty empty empty 17 7 0 10 -262144 -1 -1 0 1;
#X obj -58 0 inlet;
#X obj -54 54 outlet;
#X connect 0 0 3 0;
#X connect 1 0 0 1;
#X connect 2 0 0 0;
#X coords 0 1 100 -1 20 20 1 0 0;
#X restore -126 4 graph;
#N canvas 0 22 450 300 (subpatch) 0;
#X obj -30 22 spigot;
#X obj 2 3 tgl 15 0 empty empty empty 17 7 0 10 -262144 -1 -1 0 1;
#X obj -58 0 inlet;
#X obj -54 54 outlet;
#X connect 0 0 3 0;
#X connect 1 0 0 1;
#X connect 2 0 0 0;
#X coords 0 1 100 -1 20 20 1 0 0;
#X restore -106 4 graph;
#N canvas 0 22 450 300 (subpatch) 0;
#X obj -30 22 spigot;
#X obj 2 3 tgl 15 0 empty empty empty 17 7 0 10 -262144 -1 -1 0 1;
#X obj -58 0 inlet;
#X obj -54 54 outlet;
#X connect 0 0 3 0;
#X connect 1 0 0 1;
#X connect 2 0 0 0;
#X coords 0 1 100 -1 20 20 1 0 0;
#X restore -54 -16 graph;
#N canvas 0 22 450 300 (subpatch) 0;
#X obj -30 22 spigot;
#X obj 2 3 tgl 15 0 empty empty empty 17 7 0 10 -262144 -1 -1 0 1;
#X obj -58 0 inlet;
#X obj -54 54 outlet;
#X connect 0 0 3 0;
#X connect 1 0 0 1;
#X connect 2 0 0 0;
#X coords 0 1 100 -1 20 20 1 0 0;
#X restore -10 -16 graph;
#X connect 0 0 6 0;
#X connect 1 0 9 0;
#X connect 2 0 10 0;
#X connect 3 0 7 0;
#X connect 3 1 8 0;
#X connect 4 0 0 0;
#X connect 5 0 0 1;
#X connect 7 0 4 0;
#X connect 8 0 5 0;
#X connect 9 0 4 0;
#X connect 10 0 5 0;
