#N canvas 0 22 863 542 10;
#X obj -188 -156 notein;
#X floatatom -131 -115 5 0 0 0 - - -;
#X floatatom -66 -115 5 0 0 0 - - -;
#X floatatom 218 -154 5 0 0 0 - - -;
#X floatatom 270 -154 5 0 0 0 - - -;
#X floatatom 321 -154 5 0 0 0 - - -;
#X floatatom 373 -154 5 0 0 0 - - -;
#X floatatom 67 -155 5 0 0 0 - - -;
#X floatatom 117 -154 5 0 0 0 - - -;
#X floatatom 168 -154 5 0 0 0 - - -;
#X obj 218 -279 ctlin 5;
#X obj 270 -261 ctlin 6;
#X obj 322 -242 ctlin 7;
#X obj 374 -224 ctlin 8;
#X obj 67 -333 ctlin 2;
#X obj 117 -314 ctlin 3;
#X obj 170 -296 ctlin 4;
#X obj 373 -135 * 50;
#X obj -131 -249 r noteMotor;
#X obj -66 -229 r velMotor;
#X floatatom 218 -114 5 0 0 0 - - -;
#X obj 218 -135 / 65;
#X obj 270 -135 / 65;
#X obj 321 -135 / 65;
#X floatatom 373 -115 5 0 0 0 - - -;
#X obj 67 -136 / 127;
#X floatatom 117 -114 5 0 0 0 - - -;
#X obj 117 -135 / 40;
#X obj 168 -135 / 65;
#X floatatom 17 -156 5 0 0 0 - - -;
#X obj 17 -137 / 127;
#X obj 17 -352 ctlin 1;
#N canvas 0 22 450 300 (subpatch) 0;
#X obj 211 459 vcf~ 1000 10009;
#X obj 211 411 +~;
#X obj 298 360 osc~ 100;
#X obj 210 334 *~;
#X obj 210 385 vcf~ 100 10;
#X obj 299 336 *~ 100;
#X obj 216 28 vsl 15 128 0 3 0 0 empty empty resonance 0 -8 0 8 -44926
-1 -1 0 1;
#X obj 211 433 cos~;
#X obj 225 239 *~ 0.125;
#X obj 224 261 phasor~;
#X obj 225 287 *~;
#X obj 126 271 *~;
#X obj 127 296 +~;
#X obj 323 28 vsl 15 128 0 2 0 0 empty empty brush-level 0 -8 0 8 -241291
-260818 -1 0 1;
#X obj 210 359 clip~ -1 1;
#X obj 225 309 *~;
#X obj 78 28 vsl 15 128 0 1 0 0 empty empty volume 0 -8 0 8 -241291
-1 -1 0 1;
#X obj 298 383 *~ 0.5;
#X obj 272 28 vsl 15 128 0 2 0 0 empty empty harmonics 0 -8 0 8 -24198
-1 -1 0 1;
#X obj 236 196 ead~ 3000 3000;
#X obj 236 217 *~ 3000;
#X obj 8 27 bng 32 250 50 0 empty empty GO! 0 -12 0 16 -258699 -241291
-24198;
#X obj 243 483 sqrt~;
#X obj 213 509 *~;
#X obj 213 554 *~;
#X obj 170 28 vsl 15 128 0 1 0 0 empty empty hardness 0 -8 0 8 -250685
-1 -1 0 1;
#X obj 242 331 * -1;
#X obj 503 28 vsl 15 128 1 5000 0 0 empty empty operation-time 0 -8
0 8 -355 -262144 -1 0 1;
#X obj 212 483 +~;
#X obj 154 271 sig~ 0.2;
#X obj 442 28 vsl 15 128 0 2 0 0 empty empty rotor-level 0 -8 0 8 -262131
-1 -1 0 1;
#X obj 385 28 vsl 15 128 0 2 0 0 empty empty brush-size 0 -8 0 8 -42246
-233017 -1 0 1;
#X obj 120 27 vsl 15 128 1 5000 0 0 empty empty top-speed 0 -8 0 8
-90133 -262144 -1 0 1;
#N canvas 0 22 906 686 metalnoise 0;
#X obj 351 143 noise~;
#X obj 351 164 hip~ 100;
#X obj 403 333 outlet~;
#X obj 339 103 * 6500;
#X obj 284 104 * 4200;
#X obj 399 105 * 9600;
#X obj 224 105 * 3300;
#X obj 165 105 * 2200;
#X obj 452 103 * 12000;
#X obj 123 231 bp~ 1 30;
#X obj 211 230 bp~ 1 30;
#X obj 295 229 bp~ 1 30;
#X obj 403 229 bp~ 1 30;
#X obj 496 229 bp~ 1 30;
#X obj 592 228 bp~ 1 30;
#X obj 318 44 inlet;
#X obj 403 306 *~ 0.15;
#X connect 0 0 1 0;
#X connect 1 0 9 0;
#X connect 1 0 10 0;
#X connect 1 0 11 0;
#X connect 1 0 12 0;
#X connect 1 0 13 0;
#X connect 1 0 14 0;
#X connect 3 0 12 1;
#X connect 4 0 11 1;
#X connect 5 0 13 1;
#X connect 6 0 10 1;
#X connect 7 0 9 1;
#X connect 8 0 14 1;
#X connect 9 0 16 0;
#X connect 10 0 16 0;
#X connect 11 0 16 0;
#X connect 12 0 16 0;
#X connect 13 0 16 0;
#X connect 14 0 16 0;
#X connect 15 0 7 0;
#X connect 15 0 6 0;
#X connect 15 0 4 0;
#X connect 15 0 3 0;
#X connect 15 0 5 0;
#X connect 15 0 8 0;
#X connect 16 0 2 0;
#X restore 125 239 pd metalnoise;
#X obj 213 532 *~ 0.2;
#X obj -218 23 stripnote;
#X floatatom -218 84 5 0 0 0 - - -;
#X obj -218 63 mtof;
#X obj -218 43 + 30;
#X obj 213 587 outlet~;
#X obj -212 -20 inlet;
#X obj -162 -19 inlet;
#X obj -46 -27 inlet;
#X obj 4 -26 inlet;
#X obj 52 -31 inlet;
#X obj 102 -30 inlet;
#X obj 157 -30 inlet;
#X obj 207 -29 inlet;
#X obj 260 -27 inlet;
#X obj 310 -26 inlet;
#X connect 0 0 28 0;
#X connect 1 0 7 0;
#X connect 2 0 17 0;
#X connect 3 0 14 0;
#X connect 4 0 1 0;
#X connect 5 0 2 0;
#X connect 6 0 4 2;
#X connect 6 0 0 2;
#X connect 7 0 0 0;
#X connect 8 0 9 0;
#X connect 9 0 10 0;
#X connect 9 0 10 1;
#X connect 10 0 15 0;
#X connect 10 0 15 1;
#X connect 11 0 12 0;
#X connect 12 0 3 0;
#X connect 13 0 11 1;
#X connect 14 0 4 0;
#X connect 15 0 3 1;
#X connect 16 0 24 1;
#X connect 17 0 1 1;
#X connect 18 0 5 1;
#X connect 19 0 20 0;
#X connect 19 0 22 0;
#X connect 20 0 8 0;
#X connect 20 0 4 1;
#X connect 20 0 0 1;
#X connect 20 0 5 0;
#X connect 21 0 19 0;
#X connect 22 0 23 1;
#X connect 23 0 34 0;
#X connect 24 0 39 0;
#X connect 25 0 26 0;
#X connect 25 0 14 2;
#X connect 26 0 14 1;
#X connect 27 0 19 2;
#X connect 27 0 19 1;
#X connect 28 0 23 0;
#X connect 29 0 12 1;
#X connect 30 0 29 0;
#X connect 31 0 33 0;
#X connect 32 0 20 1;
#X connect 33 0 11 0;
#X connect 33 0 28 1;
#X connect 34 0 24 0;
#X connect 35 0 21 0;
#X connect 35 0 38 0;
#X connect 36 0 32 0;
#X connect 37 0 36 0;
#X connect 38 0 37 0;
#X connect 40 0 35 0;
#X connect 41 0 35 1;
#X connect 42 0 16 0;
#X connect 43 0 25 0;
#X connect 44 0 6 0;
#X connect 45 0 18 0;
#X connect 46 0 13 0;
#X connect 47 0 31 0;
#X connect 48 0 30 0;
#X connect 49 0 27 0;
#X coords 0 1 100 -1 600 200 1 0 0;
#X restore -131 -99 graph;
#X floatatom 67 -115 5 0 0 0 - - -;
#X floatatom 17 -116 5 0 0 0 - - -;
#X floatatom 168 -114 5 0 0 0 - - -;
#X floatatom 270 -114 5 0 0 0 - - -;
#X floatatom 321 -114 5 0 0 0 - - -;
#X text 72 -350 Volume;
#X text 120 -333 Hardness;
#X text 168 -315 Resonance;
#X text 221 -296 Harmonics;
#X text 269 -280 Brush-level;
#X text 322 -262 Brush-size;
#X text 374 -245 Rotor-level;
#X text 428 -224 Operation time;
#X obj 17 -185 knob 25 25 0 127 0 0 empty empty empty 0 -8 32 8 -1
-260097 -260097 0 1;
#X obj 67 -184 knob 25 25 0 127 0 0 empty empty empty 0 -8 32 8 -1
-260097 -260097 0 1;
#X obj 117 -183 knob 25 25 0 127 0 0 empty empty empty 0 -8 32 8 -1
-260097 -260097 0 1;
#X obj 170 -183 knob 25 25 0 127 0 0 empty empty empty 0 -8 32 8 -1
-260097 -260097 0 1;
#X obj 218 -183 knob 25 25 0 127 0 0 empty empty empty 0 -8 32 8 -1
-260097 -260097 0 1;
#X obj 270 -183 knob 25 25 0 127 0 0 empty empty empty 0 -8 32 8 -1
-260097 -260097 0 1;
#X obj 322 -183 knob 25 25 0 127 0 0 empty empty empty 0 -8 32 8 -1
-260097 -260097 0 1;
#X obj 374 -183 knob 25 25 0 127 0 0 empty empty empty 0 -8 32 8 -1
-260097 -260097 0 1;
#N canvas 0 22 450 300 (subpatch) 0;
#X obj 59 155 inlet;
#X obj 3 89 inlet~;
#X obj 58 182 change;
#X msg 60 246 set \$1;
#X obj 60 227 tosymbol;
#X obj 59 204 sprintf Bus%d;
#X obj 3 282 throw~ Bus0;
#X obj 2 3 popup 124 25 #ffffff popup Bus0 Bus1 Bus2 Bus3 Bus4 Bus5
;
#X obj 1 32 route bang;
#X obj 154 202 *~;
#X obj 141 7 tgl 15 0 empty empty Dac 19 7 0 10 -262144 -1 -1 0 1;
#X obj 155 238 dac~;
#X obj 1 -41 loadbang;
#X text 59 -43 Bus0 mutes;
#X msg 1 -23 options Bus0 Bus1 Bus2 Bus3 Bus4 Bus5 Bus6 Bus7 Bus8 Bus9
Bus10 Bus11 Bus12 Bus13 Bus14 Bus15 Bus16;
#X connect 0 0 2 0;
#X connect 1 0 6 0;
#X connect 1 0 9 0;
#X connect 2 0 5 0;
#X connect 3 0 6 0;
#X connect 4 0 3 0;
#X connect 5 0 4 0;
#X connect 7 0 8 0;
#X connect 8 1 2 0;
#X connect 9 0 11 0;
#X connect 9 0 11 1;
#X connect 10 0 9 1;
#X connect 12 0 14 0;
#X connect 14 0 7 0;
#X coords 0 1 100 -1 180 30 1 0 0;
#X restore -131 101 graph;
#N canvas 0 22 450 300 (subpatch) 0;
#X obj -30 22 spigot;
#X obj 2 3 tgl 15 0 empty empty empty 17 7 0 10 -262144 -1 -1 0 1;
#X obj -58 0 inlet;
#X obj -54 54 outlet;
#X connect 0 0 3 0;
#X connect 1 0 0 1;
#X connect 2 0 0 0;
#X coords 0 1 100 -1 20 20 1 0 0;
#X restore -66 -211 graph;
#N canvas 0 22 450 300 (subpatch) 0;
#X obj -30 22 spigot;
#X obj 2 3 tgl 15 0 empty empty empty 17 7 0 10 -262144 -1 -1 0 1;
#X obj -58 0 inlet;
#X obj -54 54 outlet;
#X connect 0 0 3 0;
#X connect 1 0 0 1;
#X connect 2 0 0 0;
#X coords 0 1 100 -1 20 20 1 0 0;
#X restore -131 -211 graph;
#N canvas 0 22 450 300 (subpatch) 0;
#X obj -30 22 spigot;
#X obj 2 3 tgl 15 0 empty empty empty 17 7 0 10 -262144 -1 -1 0 1;
#X obj -58 0 inlet;
#X obj -54 54 outlet;
#X connect 0 0 3 0;
#X connect 1 0 0 1;
#X connect 2 0 0 0;
#X coords 0 1 100 -1 20 20 1 0 0;
#X restore -168 -135 graph;
#N canvas 0 22 450 300 (subpatch) 0;
#X obj -30 22 spigot;
#X obj 2 3 tgl 15 0 empty empty empty 17 7 0 10 -262144 -1 -1 0 1;
#X obj -58 0 inlet;
#X obj -54 54 outlet;
#X connect 0 0 3 0;
#X connect 1 0 0 1;
#X connect 2 0 0 0;
#X coords 0 1 100 -1 20 20 1 0 0;
#X restore -188 -135 graph;
#N canvas 0 22 450 300 (subpatch) 0;
#X obj -30 22 spigot;
#X obj 2 3 tgl 15 0 empty empty empty 17 7 0 10 -262144 -1 -1 0 1;
#X obj -58 0 inlet;
#X obj -54 54 outlet;
#X connect 0 0 3 0;
#X connect 1 0 0 1;
#X connect 2 0 0 0;
#X coords 0 1 100 -1 20 20 1 0 0;
#X restore 67 -207 graph;
#N canvas 0 22 450 300 (subpatch) 0;
#X obj -30 22 spigot;
#X obj 2 3 tgl 15 0 empty empty empty 17 7 0 10 -262144 -1 -1 0 1;
#X obj -58 0 inlet;
#X obj -54 54 outlet;
#X connect 0 0 3 0;
#X connect 1 0 0 1;
#X connect 2 0 0 0;
#X coords 0 1 100 -1 20 20 1 0 0;
#X restore 17 -208 graph;
#N canvas 0 22 450 300 (subpatch) 0;
#X obj -30 22 spigot;
#X obj 2 3 tgl 15 0 empty empty empty 17 7 0 10 -262144 -1 -1 0 1;
#X obj -58 0 inlet;
#X obj -54 54 outlet;
#X connect 0 0 3 0;
#X connect 1 0 0 1;
#X connect 2 0 0 0;
#X coords 0 1 100 -1 20 20 1 0 0;
#X restore 170 -206 graph;
#N canvas 0 22 450 300 (subpatch) 0;
#X obj -30 22 spigot;
#X obj 2 3 tgl 15 0 empty empty empty 17 7 0 10 -262144 -1 -1 0 1;
#X obj -58 0 inlet;
#X obj -54 54 outlet;
#X connect 0 0 3 0;
#X connect 1 0 0 1;
#X connect 2 0 0 0;
#X coords 0 1 100 -1 20 20 1 0 0;
#X restore 117 -206 graph;
#N canvas 0 22 450 300 (subpatch) 0;
#X obj -30 22 spigot;
#X obj 2 3 tgl 15 0 empty empty empty 17 7 0 10 -262144 -1 -1 0 1;
#X obj -58 0 inlet;
#X obj -54 54 outlet;
#X connect 0 0 3 0;
#X connect 1 0 0 1;
#X connect 2 0 0 0;
#X coords 0 1 100 -1 20 20 1 0 0;
#X restore 270 -206 graph;
#N canvas 0 22 450 300 (subpatch) 0;
#X obj -30 22 spigot;
#X obj 2 3 tgl 15 0 empty empty empty 17 7 0 10 -262144 -1 -1 0 1;
#X obj -58 0 inlet;
#X obj -54 54 outlet;
#X connect 0 0 3 0;
#X connect 1 0 0 1;
#X connect 2 0 0 0;
#X coords 0 1 100 -1 20 20 1 0 0;
#X restore 218 -206 graph;
#N canvas 0 22 450 300 (subpatch) 0;
#X obj -30 22 spigot;
#X obj 2 3 tgl 15 0 empty empty empty 17 7 0 10 -262144 -1 -1 0 1;
#X obj -58 0 inlet;
#X obj -54 54 outlet;
#X connect 0 0 3 0;
#X connect 1 0 0 1;
#X connect 2 0 0 0;
#X coords 0 1 100 -1 20 20 1 0 0;
#X restore 374 -206 graph;
#N canvas 0 22 450 300 (subpatch) 0;
#X obj -30 22 spigot;
#X obj 2 3 tgl 15 0 empty empty empty 17 7 0 10 -262144 -1 -1 0 1;
#X obj -58 0 inlet;
#X obj -54 54 outlet;
#X connect 0 0 3 0;
#X connect 1 0 0 1;
#X connect 2 0 0 0;
#X coords 0 1 100 -1 20 20 1 0 0;
#X restore 322 -206 graph;
#X connect 0 0 58 0;
#X connect 0 1 57 0;
#X connect 1 0 32 0;
#X connect 2 0 32 1;
#X connect 3 0 21 0;
#X connect 4 0 22 0;
#X connect 5 0 23 0;
#X connect 6 0 17 0;
#X connect 7 0 25 0;
#X connect 8 0 27 0;
#X connect 9 0 28 0;
#X connect 10 0 64 0;
#X connect 11 0 63 0;
#X connect 12 0 66 0;
#X connect 13 0 65 0;
#X connect 14 0 59 0;
#X connect 15 0 62 0;
#X connect 16 0 61 0;
#X connect 17 0 24 0;
#X connect 18 0 56 0;
#X connect 19 0 55 0;
#X connect 20 0 32 6;
#X connect 21 0 20 0;
#X connect 22 0 36 0;
#X connect 23 0 37 0;
#X connect 24 0 32 9;
#X connect 25 0 33 0;
#X connect 26 0 32 4;
#X connect 27 0 26 0;
#X connect 28 0 35 0;
#X connect 29 0 30 0;
#X connect 30 0 34 0;
#X connect 31 0 60 0;
#X connect 32 0 54 0;
#X connect 33 0 32 3;
#X connect 34 0 32 2;
#X connect 35 0 32 5;
#X connect 36 0 32 7;
#X connect 37 0 32 8;
#X connect 46 0 29 0;
#X connect 47 0 7 0;
#X connect 48 0 8 0;
#X connect 49 0 9 0;
#X connect 50 0 3 0;
#X connect 51 0 4 0;
#X connect 52 0 5 0;
#X connect 53 0 6 0;
#X connect 55 0 2 0;
#X connect 56 0 1 0;
#X connect 57 0 2 0;
#X connect 58 0 1 0;
#X connect 59 0 47 0;
#X connect 60 0 46 0;
#X connect 61 0 49 0;
#X connect 62 0 48 0;
#X connect 63 0 51 0;
#X connect 64 0 50 0;
#X connect 65 0 53 0;
#X connect 66 0 52 0;
