#N canvas 0 22 600 516 10;
#X floatatom 110 90 5 0 0 0 - - -;
#X obj 110 -111 ctlin 1;
#X floatatom 147 90 5 0 0 0 - - -;
#X floatatom 185 89 5 0 0 0 - - -;
#X floatatom 223 89 5 0 0 0 - - -;
#X obj 147 -87 ctlin 2;
#X obj 185 -65 ctlin 3;
#X obj 223 -43 ctlin 4;
#X obj 110 109 / 200;
#X obj 147 109 / 127;
#X obj 185 109 / 4;
#X obj 223 109 / 50;
#X obj 22 -154 r noteDroids;
#X obj 56 -135 r velDroids;
#X floatatom 262 90 5 0 0 0 - - -;
#X floatatom 300 90 5 0 0 0 - - -;
#X floatatom 340 90 5 0 0 0 - - -;
#X obj 262 -22 ctlin 6;
#X obj 300 -1 ctlin 7;
#X obj 340 17 ctlin 8;
#X floatatom 300 131 5 0 0 0 - - -;
#X floatatom 340 130 5 0 0 0 - - -;
#X obj 300 109 * 10;
#X obj 262 109 * 1;
#X floatatom 262 130 5 0 0 0 - - -;
#X obj 340 109 * 10;
#X floatatom 110 130 5 0 0 0 - - -;
#X floatatom 147 130 5 0 0 0 - - -;
#X floatatom 185 130 5 0 0 0 - - -;
#X floatatom 223 130 5 0 0 0 - - -;
#X text 161 -110 Amp;
#X text 199 -86 Comp;
#X text 238 -66 F;
#X text 276 -42 Index;
#X text 314 -23 Attack;
#X text 354 -2 Length;
#X text 391 19 Decay;
#X obj -59 89 notein;
#X floatatom 22 130 5 0 0 0 - - -;
#X floatatom 56 130 5 0 0 0 - - -;
#X obj 110 61 knob 25 25 0 127 0 0 empty empty empty 0 -8 32 8 -1 -260097
-260097 0 1;
#X obj 147 61 knob 25 25 0 127 0 0 empty empty empty 0 -8 32 8 -1 -260097
-260097 0 1;
#X obj 185 60 knob 25 25 0 127 0 0 empty empty empty 0 -8 32 8 -1 -260097
-260097 0 1;
#X obj 223 60 knob 25 25 0 127 0 0 empty empty empty 0 -8 32 8 -1 -260097
-260097 0 1;
#X obj 262 61 knob 25 25 0 127 0 0 empty empty empty 0 -8 32 8 -1 -260097
-260097 0 1;
#X obj 300 61 knob 25 25 0 127 0 0 empty empty empty 0 -8 32 8 -1 -260097
-260097 0 1;
#X obj 340 61 knob 25 25 0 127 0 0 empty empty empty 0 -8 32 8 -1 -260097
-260097 0 1;
#N canvas 0 22 450 300 (subpatch) 0;
#X obj 59 155 inlet;
#X obj 3 89 inlet~;
#X obj 58 182 change;
#X msg 60 246 set \$1;
#X obj 60 227 tosymbol;
#X obj 59 204 sprintf Bus%d;
#X obj 3 282 throw~ Bus0;
#X obj 2 3 popup 124 25 #ffffff popup Bus0 Bus1 Bus2 Bus3 Bus4 Bus5
;
#X obj 1 32 route bang;
#X obj 154 202 *~;
#X obj 141 7 tgl 15 0 empty empty Dac 19 7 0 10 -262144 -1 -1 0 1;
#X obj 155 238 dac~;
#X obj 1 -41 loadbang;
#X text 59 -43 Bus0 mutes;
#X msg 1 -23 options Bus0 Bus1 Bus2 Bus3 Bus4 Bus5 Bus6 Bus7 Bus8 Bus9
Bus10 Bus11 Bus12 Bus13 Bus14 Bus15 Bus16;
#X connect 0 0 2 0;
#X connect 1 0 6 0;
#X connect 1 0 9 0;
#X connect 2 0 5 0;
#X connect 3 0 6 0;
#X connect 4 0 3 0;
#X connect 5 0 4 0;
#X connect 7 0 8 0;
#X connect 8 1 2 0;
#X connect 9 0 11 0;
#X connect 9 0 11 1;
#X connect 10 0 9 1;
#X connect 12 0 14 0;
#X connect 14 0 7 0;
#X coords 0 1 100 -1 180 30 1 0 0;
#X restore 22 297 graph;
#N canvas 0 22 450 300 (subpatch) 0;
#X obj 257 558 +~;
#X obj 257 580 cos~;
#X obj 272 439 phasor~;
#X obj 289 502 osc~;
#X obj 241 606 *~;
#X obj 288 476 *~;
#X obj 290 525 *~;
#X obj 256 476 *~;
#X obj 241 634 *~ 0.06;
#X obj 272 308 r~ carrier-frequency;
#X obj 149 308 r~ carrier-level;
#X obj 430 308 r~ modulator-ratio;
#X obj 565 307 r~ modulator-index;
#X obj 5 308 r~ output-amplitude;
#X text 399 533 the simple FM core;
#X text 232 -50 Droids 2;
#X obj 2 235 s~ output-amplitude;
#X obj 146 235 s~ carrier-level;
#X obj 269 235 s~ carrier-frequency;
#X obj 427 235 s~ modulator-ratio;
#X obj 562 234 s~ modulator-index;
#X obj 9 12 vsl 15 128 0 0.5 0 0 empty empty amp 0 -8 0 8 -258699 -1
-1 0 1;
#X obj 51 12 vsl 15 128 0 1 0 0 empty empty camp 0 -8 0 8 -260818 -1
-1 0 1;
#X obj 92 12 vsl 15 128 0 1000 0 0 empty empty cf 0 -8 0 8 -241291
-1 -1 0 1;
#X obj 134 13 vsl 15 128 0 32 0 0 empty empty mf 0 -8 0 8 -24198 -1
-1 0 1;
#X obj 173 12 vsl 15 128 0 2 0 0 empty empty mindx 0 -8 0 8 -62784
-1 -1 0 1;
#X text -2 270 ------------------------------------ parametric interface
;
#X text 404 270 ------------------------------------;
#X text 48 423 ------------------------------------;
#X text 301 423 ------------------------------------;
#X text 306 620 ------------------------------------;
#X msg 3 169 \$1 1000;
#X obj 3 211 line~;
#X obj 146 207 line~;
#X obj 269 208 line~;
#X obj 427 204 line~;
#X obj 563 202 line~;
#X msg 146 167 \$1 1000;
#X msg 269 169 \$1 1000;
#X msg 427 167 \$1 1000;
#X msg 563 165 \$1 1000;
#X obj -133 -77 stripnote;
#X obj -131 -51 mtof;
#X obj -133 551 bng 15 250 50 0 empty empty empty 17 7 0 10 -262144
-1 -1;
#X obj -116 616 *~;
#X obj -116 650 *~;
#X obj -91 592 / 100;
#X obj -89 631 line;
#X floatatom -44 609 5 0 0 0 - - -;
#X text -6 608 time offset to adjust volume to velocity;
#N canvas 0 22 450 300 eald~ 0;
#X msg 394 133 bang;
#X floatatom 504 74 5 0 0 0 - - -;
#X floatatom 555 73 5 0 0 0 - - -;
#X floatatom 605 73 5 0 0 0 - - -;
#X text 471 25 "ALD" enveloppe;
#X obj 504 49 inlet;
#X obj 555 48 inlet;
#X obj 605 48 inlet;
#X obj 408 52 inlet;
#X obj 379 432 outlet~;
#X text 633 133 ENVELOPE SECTION;
#X obj 379 346 vline~;
#X msg 352 245 1;
#X obj 352 265 pack f f;
#X obj 352 286 unpack f f;
#X msg 456 246 0;
#X obj 456 267 pack f f f;
#X obj 456 288 unpack f f f;
#X obj 456 225 delay 5;
#X text 102 283 Attack : sends a 1 to get to in A msec;
#X text 529 224 wait the end of the attack;
#X text 538 254 Length+Decay : 0 to get to in D msec \, after L msec
;
#X text 493 74 A;
#X text 544 74 L;
#X text 594 74 D;
#X connect 0 0 12 0;
#X connect 0 0 18 0;
#X connect 1 0 13 1;
#X connect 1 0 18 1;
#X connect 2 0 16 2;
#X connect 3 0 16 1;
#X connect 5 0 1 0;
#X connect 6 0 2 0;
#X connect 7 0 3 0;
#X connect 8 0 0 0;
#X connect 11 0 9 0;
#X connect 12 0 13 0;
#X connect 13 0 14 0;
#X connect 14 0 11 0;
#X connect 14 1 11 1;
#X connect 15 0 16 0;
#X connect 16 0 17 0;
#X connect 17 0 11 0;
#X connect 17 1 11 1;
#X connect 17 2 11 2;
#X connect 18 0 15 0;
#X restore -129 572 pd eald~;
#X obj -1 571 loadbang;
#X msg -1 592 50;
#X obj -90 612 + 0.05;
#X obj -130 -106 inlet;
#X obj -81 -102 inlet;
#X obj 24 -58 inlet;
#X obj 73 -54 inlet;
#X obj 458 -37 inlet;
#X obj 507 -33 inlet;
#X obj 730 312 inlet;
#X obj 779 316 inlet;
#X obj 819 315 inlet;
#X obj -118 678 outlet~;
#X connect 0 0 1 0;
#X connect 1 0 4 1;
#X connect 2 0 7 1;
#X connect 3 0 6 0;
#X connect 4 0 8 0;
#X connect 5 0 3 0;
#X connect 6 0 0 1;
#X connect 7 0 0 0;
#X connect 8 0 44 0;
#X connect 9 0 5 0;
#X connect 9 0 2 0;
#X connect 10 0 7 0;
#X connect 11 0 5 1;
#X connect 12 0 6 1;
#X connect 13 0 4 0;
#X connect 21 0 31 0;
#X connect 22 0 37 0;
#X connect 23 0 38 0;
#X connect 24 0 39 0;
#X connect 25 0 40 0;
#X connect 31 0 32 0;
#X connect 32 0 16 0;
#X connect 33 0 17 0;
#X connect 34 0 18 0;
#X connect 35 0 19 0;
#X connect 36 0 20 0;
#X connect 37 0 33 0;
#X connect 38 0 34 0;
#X connect 39 0 35 0;
#X connect 40 0 36 0;
#X connect 41 0 42 0;
#X connect 41 1 46 0;
#X connect 42 0 23 0;
#X connect 42 0 43 0;
#X connect 43 0 48 0;
#X connect 43 0 50 0;
#X connect 44 0 45 0;
#X connect 45 0 63 0;
#X connect 46 0 53 0;
#X connect 47 0 45 1;
#X connect 48 0 47 1;
#X connect 50 0 44 1;
#X connect 51 0 52 0;
#X connect 52 0 48 0;
#X connect 53 0 47 0;
#X connect 54 0 41 0;
#X connect 55 0 41 1;
#X connect 56 0 21 0;
#X connect 57 0 22 0;
#X connect 58 0 24 0;
#X connect 59 0 25 0;
#X connect 60 0 50 1;
#X connect 61 0 50 2;
#X connect 62 0 50 3;
#X coords 0 1 100 -1 200 150 1 0 0;
#X restore 22 147 graph;
#N canvas 0 22 450 300 (subpatch) 0;
#X obj -30 22 spigot;
#X obj 2 3 tgl 15 0 empty empty empty 17 7 0 10 -262144 -1 -1 0 1;
#X obj -58 0 inlet;
#X obj -54 54 outlet;
#X connect 0 0 3 0;
#X connect 1 0 0 1;
#X connect 2 0 0 0;
#X coords 0 1 100 -1 20 20 1 0 0;
#X restore 300 38 graph;
#N canvas 0 22 450 300 (subpatch) 0;
#X obj -30 22 spigot;
#X obj 2 3 tgl 15 0 empty empty empty 17 7 0 10 -262144 -1 -1 0 1;
#X obj -58 0 inlet;
#X obj -54 54 outlet;
#X connect 0 0 3 0;
#X connect 1 0 0 1;
#X connect 2 0 0 0;
#X coords 0 1 100 -1 20 20 1 0 0;
#X restore 340 38 graph;
#N canvas 0 22 450 300 (subpatch) 0;
#X obj -30 22 spigot;
#X obj 2 3 tgl 15 0 empty empty empty 17 7 0 10 -262144 -1 -1 0 1;
#X obj -58 0 inlet;
#X obj -54 54 outlet;
#X connect 0 0 3 0;
#X connect 1 0 0 1;
#X connect 2 0 0 0;
#X coords 0 1 100 -1 20 20 1 0 0;
#X restore -59 110 graph;
#N canvas 0 22 450 300 (subpatch) 0;
#X obj -30 22 spigot;
#X obj 2 3 tgl 15 0 empty empty empty 17 7 0 10 -262144 -1 -1 0 1;
#X obj -58 0 inlet;
#X obj -54 54 outlet;
#X connect 0 0 3 0;
#X connect 1 0 0 1;
#X connect 2 0 0 0;
#X coords 0 1 100 -1 20 20 1 0 0;
#X restore -39 110 graph;
#N canvas 0 22 450 300 (subpatch) 0;
#X obj -30 22 spigot;
#X obj 2 3 tgl 15 0 empty empty empty 17 7 0 10 -262144 -1 -1 0 1;
#X obj -58 0 inlet;
#X obj -54 54 outlet;
#X connect 0 0 3 0;
#X connect 1 0 0 1;
#X connect 2 0 0 0;
#X coords 0 1 100 -1 20 20 1 0 0;
#X restore 22 35 graph;
#N canvas 0 22 450 300 (subpatch) 0;
#X obj -30 22 spigot;
#X obj 2 3 tgl 15 0 empty empty empty 17 7 0 10 -262144 -1 -1 0 1;
#X obj -58 0 inlet;
#X obj -54 54 outlet;
#X connect 0 0 3 0;
#X connect 1 0 0 1;
#X connect 2 0 0 0;
#X coords 0 1 100 -1 20 20 1 0 0;
#X restore 56 36 graph;
#N canvas 0 22 450 300 (subpatch) 0;
#X obj -30 22 spigot;
#X obj 2 3 tgl 15 0 empty empty empty 17 7 0 10 -262144 -1 -1 0 1;
#X obj -58 0 inlet;
#X obj -54 54 outlet;
#X connect 0 0 3 0;
#X connect 1 0 0 1;
#X connect 2 0 0 0;
#X coords 0 1 100 -1 20 20 1 0 0;
#X restore 262 38 graph;
#N canvas 0 22 450 300 (subpatch) 0;
#X obj -30 22 spigot;
#X obj 2 3 tgl 15 0 empty empty empty 17 7 0 10 -262144 -1 -1 0 1;
#X obj -58 0 inlet;
#X obj -54 54 outlet;
#X connect 0 0 3 0;
#X connect 1 0 0 1;
#X connect 2 0 0 0;
#X coords 0 1 100 -1 20 20 1 0 0;
#X restore 185 37 graph;
#N canvas 0 22 450 300 (subpatch) 0;
#X obj -30 22 spigot;
#X obj 2 3 tgl 15 0 empty empty empty 17 7 0 10 -262144 -1 -1 0 1;
#X obj -58 0 inlet;
#X obj -54 54 outlet;
#X connect 0 0 3 0;
#X connect 1 0 0 1;
#X connect 2 0 0 0;
#X coords 0 1 100 -1 20 20 1 0 0;
#X restore 223 37 graph;
#N canvas 0 22 450 300 (subpatch) 0;
#X obj -30 22 spigot;
#X obj 2 3 tgl 15 0 empty empty empty 17 7 0 10 -262144 -1 -1 0 1;
#X obj -58 0 inlet;
#X obj -54 54 outlet;
#X connect 0 0 3 0;
#X connect 1 0 0 1;
#X connect 2 0 0 0;
#X coords 0 1 100 -1 20 20 1 0 0;
#X restore 147 38 graph;
#N canvas 0 22 450 300 (subpatch) 0;
#X obj -30 22 spigot;
#X obj 2 3 tgl 15 0 empty empty empty 17 7 0 10 -262144 -1 -1 0 1;
#X obj -58 0 inlet;
#X obj -54 54 outlet;
#X connect 0 0 3 0;
#X connect 1 0 0 1;
#X connect 2 0 0 0;
#X coords 0 1 100 -1 20 20 1 0 0;
#X restore 110 38 graph;
#X connect 0 0 8 0;
#X connect 1 0 59 0;
#X connect 2 0 9 0;
#X connect 3 0 10 0;
#X connect 4 0 11 0;
#X connect 5 0 58 0;
#X connect 6 0 56 0;
#X connect 7 0 57 0;
#X connect 8 0 26 0;
#X connect 9 0 27 0;
#X connect 10 0 28 0;
#X connect 11 0 29 0;
#X connect 12 0 53 0;
#X connect 13 0 54 0;
#X connect 14 0 23 0;
#X connect 15 0 22 0;
#X connect 16 0 25 0;
#X connect 17 0 55 0;
#X connect 18 0 49 0;
#X connect 19 0 50 0;
#X connect 20 0 48 7;
#X connect 21 0 48 8;
#X connect 22 0 20 0;
#X connect 23 0 24 0;
#X connect 24 0 48 6;
#X connect 25 0 21 0;
#X connect 26 0 48 2;
#X connect 27 0 48 3;
#X connect 28 0 48 4;
#X connect 29 0 48 5;
#X connect 37 0 51 0;
#X connect 37 1 52 0;
#X connect 38 0 48 0;
#X connect 39 0 48 1;
#X connect 40 0 0 0;
#X connect 41 0 2 0;
#X connect 42 0 3 0;
#X connect 43 0 4 0;
#X connect 44 0 14 0;
#X connect 45 0 15 0;
#X connect 46 0 16 0;
#X connect 48 0 47 0;
#X connect 49 0 45 0;
#X connect 50 0 46 0;
#X connect 51 0 38 0;
#X connect 52 0 39 0;
#X connect 53 0 38 0;
#X connect 54 0 39 0;
#X connect 55 0 44 0;
#X connect 56 0 42 0;
#X connect 57 0 43 0;
#X connect 58 0 41 0;
#X connect 59 0 40 0;
