#N canvas 0 22 689 389 10;
#X floatatom 111 76 5 0 0 0 - - -;
#X floatatom 149 76 5 0 0 0 - - -;
#X floatatom -64 74 5 0 0 0 - - -;
#X obj -64 -42 ctlin 1;
#X floatatom -24 75 5 0 0 0 - - -;
#X floatatom 16 75 5 0 0 0 - - -;
#X floatatom 69 76 5 0 0 0 - - -;
#X obj 111 -16 ctlin 5;
#X obj 149 4 ctlin 6;
#X obj -24 -19 ctlin 2;
#X obj 16 2 ctlin 3;
#X obj 69 -36 ctlin 4;
#X obj -64 93 * 2;
#X obj -24 94 * 2;
#X obj 16 93 * 2;
#X obj 69 94 * 2;
#X obj 111 95 * 2;
#X obj 149 95 * 2;
#X obj -141 -81 r noteLaser;
#X obj -107 -61 r velLaser;
#X floatatom 209 77 5 0 0 0 - - -;
#X floatatom 246 77 5 0 0 0 - - -;
#X obj 209 -36 ctlin 7;
#X obj 246 -15 ctlin 8;
#X floatatom 209 115 5 0 0 0 - - -;
#X floatatom 246 114 5 0 0 0 - - -;
#X obj 209 96 * 10;
#X obj 246 96 * 10;
#X floatatom 111 114 5 0 0 0 - - -;
#X floatatom 149 115 5 0 0 0 - - -;
#X floatatom -64 113 5 0 0 0 - - -;
#X floatatom -24 113 5 0 0 0 - - -;
#X floatatom 16 113 5 0 0 0 - - -;
#X floatatom 69 114 5 0 0 0 - - -;
#N canvas 0 22 1024 720 (subpatch) 0;
#X obj -490 459 *~;
#X obj -553 428 phasor~;
#X obj -490 431 phasor~;
#X obj -420 431 phasor~;
#X obj -491 483 osc~;
#X obj -491 505 *~ 0.08;
#X obj -476 349 line~;
#X obj -563 47 vsl 12 256 0 250 0 0 empty empty f2 0 -8 0 8 -258699
-1 -1 0 1;
#X obj -591 47 vsl 12 256 0 250 0 0 empty empty f1 0 -8 0 8 -258699
-1 -1 0 1;
#X obj -535 47 vsl 12 256 0 250 0 0 empty empty f3 0 -8 0 8 -258699
-1 -1 0 1;
#X obj -554 382 *~;
#X obj -490 380 *~;
#X obj -421 380 *~;
#X obj -387 47 vsl 12 256 0 250 0 0 empty empty l2 0 -8 0 8 -260818
-1 -1 0 1;
#X obj -415 47 vsl 12 256 0 250 0 0 empty empty l1 0 -8 0 8 -260818
-1 -1 0 1;
#X obj -359 47 vsl 12 256 0 250 0 0 empty empty l3 0 -8 0 8 -260818
-1 -1 0 1;
#X obj -419 406 +~;
#X obj -489 406 +~;
#X obj -553 405 +~;
#X obj -476 46 vsl 12 256 500 2000 0 0 empty empty cf 0 -8 0 8 -241291
-1 -1 0 1;
#X msg -476 327 \$1 10;
#X text -554 12 Forcefield and laser beam generator;
#X text -456 463 ajf2005;
#X obj -672 -49 stripnote;
#X obj -671 -26 mtof;
#X obj -671 1 * 4;
#X obj -212 485 *~;
#X obj -212 519 *~;
#X obj -187 461 / 100;
#X obj -185 500 line;
#X floatatom -140 478 5 0 0 0 - - -;
#X text -102 477 time offset to adjust volume to velocity;
#N canvas 0 22 450 300 eald~ 0;
#X msg 394 133 bang;
#X floatatom 504 74 5 0 0 0 - - -;
#X floatatom 555 73 5 0 0 0 - - -;
#X floatatom 605 73 5 0 0 0 - - -;
#X text 471 25 "ALD" enveloppe;
#X obj 504 49 inlet;
#X obj 555 48 inlet;
#X obj 605 48 inlet;
#X obj 408 52 inlet;
#X obj 379 432 outlet~;
#X text 633 133 ENVELOPE SECTION;
#X obj 379 346 vline~;
#X msg 352 245 1;
#X obj 352 265 pack f f;
#X obj 352 286 unpack f f;
#X msg 456 246 0;
#X obj 456 267 pack f f f;
#X obj 456 288 unpack f f f;
#X obj 456 225 delay 5;
#X text 102 283 Attack : sends a 1 to get to in A msec;
#X text 529 224 wait the end of the attack;
#X text 538 254 Length+Decay : 0 to get to in D msec \, after L msec
;
#X text 493 74 A;
#X text 544 74 L;
#X text 594 74 D;
#X connect 0 0 12 0;
#X connect 0 0 18 0;
#X connect 1 0 13 1;
#X connect 1 0 18 1;
#X connect 2 0 16 2;
#X connect 3 0 16 1;
#X connect 5 0 1 0;
#X connect 6 0 2 0;
#X connect 7 0 3 0;
#X connect 8 0 0 0;
#X connect 11 0 9 0;
#X connect 12 0 13 0;
#X connect 13 0 14 0;
#X connect 14 0 11 0;
#X connect 14 1 11 1;
#X connect 15 0 16 0;
#X connect 16 0 17 0;
#X connect 17 0 11 0;
#X connect 17 1 11 1;
#X connect 17 2 11 2;
#X connect 18 0 15 0;
#X restore -225 441 pd eald~;
#X obj -97 440 loadbang;
#X msg -97 461 50;
#X obj -186 481 + 0.05;
#X obj -211 541 outlet~;
#X obj -689 -91 inlet;
#X obj -624 -81 inlet;
#X obj -538 -44 inlet;
#X obj -498 -43 inlet;
#X obj -456 -45 inlet;
#X obj -406 8 inlet;
#X obj -366 9 inlet;
#X obj -324 7 inlet;
#X obj -206 19 inlet;
#X obj -166 20 inlet;
#X obj -124 18 inlet;
#X obj 40 30 hsl 128 15 0 127 0 0 empty empty Length -2 -8 0 10 -1
-262144 -1 0 1;
#X connect 0 0 4 0;
#X connect 1 0 0 0;
#X connect 2 0 0 0;
#X connect 3 0 0 0;
#X connect 4 0 5 0;
#X connect 5 0 26 0;
#X connect 6 0 0 1;
#X connect 6 0 10 0;
#X connect 6 0 11 0;
#X connect 6 0 12 0;
#X connect 7 0 11 1;
#X connect 8 0 10 1;
#X connect 9 0 12 1;
#X connect 10 0 18 0;
#X connect 11 0 17 0;
#X connect 12 0 16 0;
#X connect 13 0 17 1;
#X connect 14 0 18 1;
#X connect 15 0 16 1;
#X connect 16 0 3 0;
#X connect 17 0 2 0;
#X connect 18 0 1 0;
#X connect 19 0 20 0;
#X connect 20 0 6 0;
#X connect 23 0 24 0;
#X connect 23 0 32 0;
#X connect 23 1 28 0;
#X connect 24 0 25 0;
#X connect 25 0 19 0;
#X connect 26 0 27 0;
#X connect 27 0 36 0;
#X connect 28 0 35 0;
#X connect 29 0 27 1;
#X connect 30 0 29 1;
#X connect 32 0 26 1;
#X connect 33 0 34 0;
#X connect 34 0 30 0;
#X connect 35 0 29 0;
#X connect 37 0 23 0;
#X connect 38 0 23 1;
#X connect 39 0 8 0;
#X connect 40 0 7 0;
#X connect 41 0 9 0;
#X connect 42 0 14 0;
#X connect 43 0 13 0;
#X connect 44 0 15 0;
#X connect 45 0 32 1;
#X connect 46 0 48 0;
#X connect 47 0 32 3;
#X connect 48 0 32 2;
#X coords 0 1 100 -1 200 70 1 0 0;
#X restore -141 130 graph;
#X floatatom 289 78 5 0 0 0 - - -;
#X floatatom 289 115 5 0 0 0 - - -;
#X obj 289 97 * 10;
#X obj 289 4 ctlin 9;
#X text -14 -41 F1;
#X text 27 -17 F2;
#X text 66 6 F3;
#X text 126 -37 I1;
#X text 167 -13 I2;
#X text 199 6 I3;
#X text 258 -36 A;
#X text 296 -17 L;
#X text 338 -17 D;
#X obj -190 69 notein;
#X floatatom -141 113 5 0 0 0 - - -;
#X floatatom -107 114 5 0 0 0 - - -;
#X obj -64 45 knob 25 25 0 127 0 0 empty empty empty 0 -8 32 8 -1 -260097
-260097 0 1;
#X obj -24 46 knob 25 25 0 127 0 0 empty empty empty 0 -8 32 8 -1 -260097
-260097 0 1;
#X obj 16 46 knob 25 25 0 127 0 0 empty empty empty 0 -8 32 8 -1 -260097
-260097 0 1;
#X obj 69 47 knob 25 25 0 127 0 0 empty empty empty 0 -8 32 8 -1 -260097
-260097 0 1;
#X obj 111 47 knob 25 25 0 127 0 0 empty empty empty 0 -8 32 8 -1 -260097
-260097 0 1;
#X obj 149 47 knob 25 25 0 127 0 0 empty empty empty 0 -8 32 8 -1 -260097
-260097 0 1;
#X obj 209 48 knob 25 25 0 127 0 0 empty empty empty 0 -8 32 8 -1 -260097
-260097 0 1;
#X obj 246 48 knob 25 25 0 127 0 0 empty empty empty 0 -8 32 8 -1 -260097
-260097 0 1;
#X obj 289 49 knob 25 25 0 127 0 0 empty empty empty 0 -8 32 8 -1 -260097
-260097 0 1;
#N canvas 0 22 450 300 (subpatch) 0;
#X obj 59 155 inlet;
#X obj 3 89 inlet~;
#X obj 58 182 change;
#X msg 60 246 set \$1;
#X obj 60 227 tosymbol;
#X obj 59 204 sprintf Bus%d;
#X obj 3 282 throw~ Bus0;
#X obj 2 3 popup 124 25 #ffffff popup Bus0 Bus1 Bus2 Bus3 Bus4 Bus5
;
#X obj 1 32 route bang;
#X obj 154 202 *~;
#X obj 141 7 tgl 15 0 empty empty Dac 19 7 0 10 -262144 -1 -1 0 1;
#X obj 155 238 dac~;
#X obj 1 -41 loadbang;
#X text 59 -43 Bus0 mutes;
#X msg 1 -23 options Bus0 Bus1 Bus2 Bus3 Bus4 Bus5 Bus6 Bus7 Bus8 Bus9
Bus10 Bus11 Bus12 Bus13 Bus14 Bus15 Bus16;
#X connect 0 0 2 0;
#X connect 1 0 6 0;
#X connect 1 0 9 0;
#X connect 2 0 5 0;
#X connect 3 0 6 0;
#X connect 4 0 3 0;
#X connect 5 0 4 0;
#X connect 7 0 8 0;
#X connect 8 1 2 0;
#X connect 9 0 11 0;
#X connect 9 0 11 1;
#X connect 10 0 9 1;
#X connect 12 0 14 0;
#X connect 14 0 7 0;
#X coords 0 1 100 -1 180 30 1 0 0;
#X restore -141 200 graph;
#N canvas 0 22 450 300 (subpatch) 0;
#X obj -30 22 spigot;
#X obj 2 3 tgl 15 0 empty empty empty 17 7 0 10 -262144 -1 -1 0 1;
#X obj -58 0 inlet;
#X obj -54 54 outlet;
#X connect 0 0 3 0;
#X connect 1 0 0 1;
#X connect 2 0 0 0;
#X coords 0 1 100 -1 20 20 1 0 0;
#X restore -64 22 graph;
#N canvas 0 22 450 300 (subpatch) 0;
#X obj -30 22 spigot;
#X obj 2 3 tgl 15 0 empty empty empty 17 7 0 10 -262144 -1 -1 0 1;
#X obj -58 0 inlet;
#X obj -54 54 outlet;
#X connect 0 0 3 0;
#X connect 1 0 0 1;
#X connect 2 0 0 0;
#X coords 0 1 100 -1 20 20 1 0 0;
#X restore -24 23 graph;
#N canvas 0 22 450 300 (subpatch) 0;
#X obj -30 22 spigot;
#X obj 2 3 tgl 15 0 empty empty empty 17 7 0 10 -262144 -1 -1 0 1;
#X obj -58 0 inlet;
#X obj -54 54 outlet;
#X connect 0 0 3 0;
#X connect 1 0 0 1;
#X connect 2 0 0 0;
#X coords 0 1 100 -1 20 20 1 0 0;
#X restore 16 23 graph;
#N canvas 0 22 450 300 (subpatch) 0;
#X obj -30 22 spigot;
#X obj 2 3 tgl 15 0 empty empty empty 17 7 0 10 -262144 -1 -1 0 1;
#X obj -58 0 inlet;
#X obj -54 54 outlet;
#X connect 0 0 3 0;
#X connect 1 0 0 1;
#X connect 2 0 0 0;
#X coords 0 1 100 -1 20 20 1 0 0;
#X restore 69 24 graph;
#N canvas 0 22 450 300 (subpatch) 0;
#X obj -30 22 spigot;
#X obj 2 3 tgl 15 0 empty empty empty 17 7 0 10 -262144 -1 -1 0 1;
#X obj -58 0 inlet;
#X obj -54 54 outlet;
#X connect 0 0 3 0;
#X connect 1 0 0 1;
#X connect 2 0 0 0;
#X coords 0 1 100 -1 20 20 1 0 0;
#X restore 111 24 graph;
#N canvas 0 22 450 300 (subpatch) 0;
#X obj -30 22 spigot;
#X obj 2 3 tgl 15 0 empty empty empty 17 7 0 10 -262144 -1 -1 0 1;
#X obj -58 0 inlet;
#X obj -54 54 outlet;
#X connect 0 0 3 0;
#X connect 1 0 0 1;
#X connect 2 0 0 0;
#X coords 0 1 100 -1 20 20 1 0 0;
#X restore 149 24 graph;
#N canvas 0 22 450 300 (subpatch) 0;
#X obj -30 22 spigot;
#X obj 2 3 tgl 15 0 empty empty empty 17 7 0 10 -262144 -1 -1 0 1;
#X obj -58 0 inlet;
#X obj -54 54 outlet;
#X connect 0 0 3 0;
#X connect 1 0 0 1;
#X connect 2 0 0 0;
#X coords 0 1 100 -1 20 20 1 0 0;
#X restore 209 25 graph;
#N canvas 0 22 450 300 (subpatch) 0;
#X obj -30 22 spigot;
#X obj 2 3 tgl 15 0 empty empty empty 17 7 0 10 -262144 -1 -1 0 1;
#X obj -58 0 inlet;
#X obj -54 54 outlet;
#X connect 0 0 3 0;
#X connect 1 0 0 1;
#X connect 2 0 0 0;
#X coords 0 1 100 -1 20 20 1 0 0;
#X restore 246 25 graph;
#N canvas 0 22 450 300 (subpatch) 0;
#X obj -30 22 spigot;
#X obj 2 3 tgl 15 0 empty empty empty 17 7 0 10 -262144 -1 -1 0 1;
#X obj -58 0 inlet;
#X obj -54 54 outlet;
#X connect 0 0 3 0;
#X connect 1 0 0 1;
#X connect 2 0 0 0;
#X coords 0 1 100 -1 20 20 1 0 0;
#X restore 289 26 graph;
#N canvas 0 22 450 300 (subpatch) 0;
#X obj -30 22 spigot;
#X obj 2 3 tgl 15 0 empty empty empty 17 7 0 10 -262144 -1 -1 0 1;
#X obj -58 0 inlet;
#X obj -54 54 outlet;
#X connect 0 0 3 0;
#X connect 1 0 0 1;
#X connect 2 0 0 0;
#X coords 0 1 100 -1 20 20 1 0 0;
#X restore -107 23 graph;
#N canvas 0 22 450 300 (subpatch) 0;
#X obj -30 22 spigot;
#X obj 2 3 tgl 15 0 empty empty empty 17 7 0 10 -262144 -1 -1 0 1;
#X obj -58 0 inlet;
#X obj -54 54 outlet;
#X connect 0 0 3 0;
#X connect 1 0 0 1;
#X connect 2 0 0 0;
#X coords 0 1 100 -1 20 20 1 0 0;
#X restore -141 23 graph;
#N canvas 0 22 450 300 (subpatch) 0;
#X obj -30 22 spigot;
#X obj 2 3 tgl 15 0 empty empty empty 17 7 0 10 -262144 -1 -1 0 1;
#X obj -58 0 inlet;
#X obj -54 54 outlet;
#X connect 0 0 3 0;
#X connect 1 0 0 1;
#X connect 2 0 0 0;
#X coords 0 1 100 -1 20 20 1 0 0;
#X restore -170 93 graph;
#N canvas 0 22 450 300 (subpatch) 0;
#X obj -30 22 spigot;
#X obj 2 3 tgl 15 0 empty empty empty 17 7 0 10 -262144 -1 -1 0 1;
#X obj -58 0 inlet;
#X obj -54 54 outlet;
#X connect 0 0 3 0;
#X connect 1 0 0 1;
#X connect 2 0 0 0;
#X coords 0 1 100 -1 20 20 1 0 0;
#X restore -190 93 graph;
#X connect 0 0 16 0;
#X connect 1 0 17 0;
#X connect 2 0 12 0;
#X connect 3 0 61 0;
#X connect 4 0 13 0;
#X connect 5 0 14 0;
#X connect 6 0 15 0;
#X connect 7 0 65 0;
#X connect 8 0 66 0;
#X connect 9 0 62 0;
#X connect 10 0 63 0;
#X connect 11 0 64 0;
#X connect 12 0 30 0;
#X connect 13 0 31 0;
#X connect 14 0 32 0;
#X connect 15 0 33 0;
#X connect 16 0 28 0;
#X connect 17 0 29 0;
#X connect 18 0 71 0;
#X connect 19 0 70 0;
#X connect 20 0 26 0;
#X connect 21 0 27 0;
#X connect 22 0 67 0;
#X connect 23 0 68 0;
#X connect 24 0 34 8;
#X connect 25 0 34 10;
#X connect 26 0 24 0;
#X connect 27 0 25 0;
#X connect 28 0 34 6;
#X connect 29 0 34 7;
#X connect 30 0 34 2;
#X connect 31 0 34 3;
#X connect 32 0 34 4;
#X connect 33 0 34 5;
#X connect 34 0 60 0;
#X connect 35 0 37 0;
#X connect 36 0 34 9;
#X connect 37 0 36 0;
#X connect 38 0 69 0;
#X connect 48 0 73 0;
#X connect 48 1 72 0;
#X connect 49 0 34 0;
#X connect 50 0 34 1;
#X connect 51 0 2 0;
#X connect 52 0 4 0;
#X connect 53 0 5 0;
#X connect 54 0 6 0;
#X connect 55 0 0 0;
#X connect 56 0 1 0;
#X connect 57 0 20 0;
#X connect 58 0 21 0;
#X connect 59 0 35 0;
#X connect 61 0 51 0;
#X connect 62 0 52 0;
#X connect 63 0 53 0;
#X connect 64 0 54 0;
#X connect 65 0 55 0;
#X connect 66 0 56 0;
#X connect 67 0 57 0;
#X connect 68 0 58 0;
#X connect 69 0 59 0;
#X connect 70 0 50 0;
#X connect 71 0 49 0;
#X connect 72 0 50 0;
#X connect 73 0 49 0;
