#N canvas 0 22 640 429 10;
#X floatatom 120 204 5 0 0 0 - - -;
#X floatatom 158 204 5 0 0 0 - - -;
#X floatatom 194 204 5 0 0 0 - - -;
#X floatatom 232 204 5 0 0 0 - - -;
#X obj 121 227 / 1;
#X obj 159 227 / 1;
#X obj 233 227 * 1;
#X obj 195 227 * 20;
#X obj 9 -9 r noteBuble;
#X obj 50 12 r velBuble;
#X floatatom 83 204 5 0 0 0 - - -;
#X obj 84 227 / 10;
#X floatatom 121 252 5 0 0 0 - - -;
#X floatatom 159 252 5 0 0 0 - - -;
#X floatatom 195 252 5 0 0 0 - - -;
#X floatatom 233 252 5 0 0 0 - - -;
#X floatatom 84 252 5 0 0 0 - - -;
#X text 137 35 Factor for pitch multiplication;
#X text 174 59 Attack of amplitude enveloppe (default value : 23);
#X text 209 83 Decay of amplitude enveloppe (default value : 100);
#X text 249 107 Attack of pitch enveloppe (default value : 400);
#X text 284 131 Decay of pitch enveloppe (default value : 10);
#X obj -41 212 notein;
#X floatatom 9 252 5 0 0 0 - - -;
#X floatatom 50 252 5 0 0 0 - - -;
#X obj 83 175 knob 25 25 0 127 0 0 empty empty empty 0 -8 32 8 -1 -260097
-260097 0 1;
#X obj 120 175 knob 25 25 0 127 0 0 empty empty empty 0 -8 32 8 -1
-260097 -260097 0 1;
#X obj 158 175 knob 25 25 0 127 0 0 empty empty empty 0 -8 32 8 -1
-260097 -260097 0 1;
#X obj 194 175 knob 25 25 0 127 0 0 empty empty empty 0 -8 32 8 -1
-260097 -260097 0 1;
#X obj 232 175 knob 25 25 0 127 0 0 empty empty empty 0 -8 32 8 -1
-260097 -260097 0 1;
#N canvas 0 22 450 300 (subpatch) 0;
#X obj 59 155 inlet;
#X obj 3 89 inlet~;
#X obj 58 182 change;
#X msg 60 246 set \$1;
#X obj 60 227 tosymbol;
#X obj 59 204 sprintf Bus%d;
#X obj 3 282 throw~ Bus0;
#X obj 2 3 popup 124 25 #ffffff popup Bus0 Bus1 Bus2 Bus3 Bus4 Bus5
;
#X obj 1 32 route bang;
#X obj 154 202 *~;
#X obj 141 7 tgl 15 0 empty empty Dac 19 7 0 10 -262144 -1 -1 0 1;
#X obj 155 238 dac~;
#X obj 1 -41 loadbang;
#X text 59 -43 Bus0 mutes;
#X msg 1 -23 options Bus0 Bus1 Bus2 Bus3 Bus4 Bus5 Bus6 Bus7 Bus8 Bus9
Bus10 Bus11 Bus12 Bus13 Bus14 Bus15 Bus16;
#X connect 0 0 2 0;
#X connect 1 0 6 0;
#X connect 1 0 9 0;
#X connect 2 0 5 0;
#X connect 3 0 6 0;
#X connect 4 0 3 0;
#X connect 5 0 4 0;
#X connect 7 0 8 0;
#X connect 8 1 2 0;
#X connect 9 0 11 0;
#X connect 9 0 11 1;
#X connect 10 0 9 1;
#X connect 12 0 14 0;
#X connect 14 0 7 0;
#X coords 0 1 100 -1 180 30 1 0 0;
#X restore 9 285 graph;
#N canvas 0 22 450 300 Bubles_________________________________ 0;
#X obj 135 281 osc~ 440;
#X obj 135 305 *~;
#X obj 239 215 hsl 128 15 0 10000 0 0 empty empty pitch -2 -6 0 8 -241291
-1 -1 0 1;
#X obj 200 179 hsl 128 15 0 3000 0 0 empty empty attack -2 -6 0 8 -260818
-1 -1 0 1;
#X obj 44 236 ead~ 23 100;
#X text 50 218 amplitude;
#X text 137 219 pitch;
#X obj 135 236 ead~ 400 10;
#X obj 135 259 *~ 1500;
#X obj 137 346 hip~ 40;
#X obj 136 324 *~ 0.03;
#X floatatom -13 14 5 0 0 0 - - -;
#X floatatom 29 13 5 0 0 0 - - -;
#X obj -13 37 stripnote;
#X obj 33 176 bng 15 250 50 0 empty empty empty 17 7 0 10 -262144 -1
-1;
#X obj 137 394 *~;
#X floatatom 153 123 5 0 0 0 - - -;
#X obj -5 68 mtof;
#X obj -2 90 * 8;
#X obj -29 -14 inlet;
#X obj 25 -11 inlet;
#X obj 78 19 inlet;
#X obj 118 22 inlet;
#X obj 160 21 inlet;
#X obj 201 21 inlet;
#X obj 242 22 inlet;
#X obj 140 456 outlet~;
#X obj 240 301 / 100;
#X obj 241 321 + 0.2;
#X obj 242 340 line;
#X floatatom 287 318 5 0 0 0 - - -;
#X text 325 317 time offset to adjust volume to velocity;
#X obj 330 280 loadbang;
#X msg 330 301 50;
#X connect 0 0 1 0;
#X connect 1 0 10 0;
#X connect 2 0 8 1;
#X connect 3 0 7 1;
#X connect 4 0 1 1;
#X connect 7 0 8 0;
#X connect 8 0 0 0;
#X connect 9 0 15 0;
#X connect 10 0 9 0;
#X connect 11 0 13 0;
#X connect 12 0 13 1;
#X connect 13 0 14 0;
#X connect 13 0 17 0;
#X connect 13 1 27 0;
#X connect 14 0 4 0;
#X connect 14 0 7 0;
#X connect 15 0 26 0;
#X connect 16 0 2 0;
#X connect 17 0 18 0;
#X connect 18 0 16 0;
#X connect 19 0 11 0;
#X connect 20 0 12 0;
#X connect 21 0 18 1;
#X connect 22 0 4 1;
#X connect 23 0 4 2;
#X connect 24 0 7 1;
#X connect 25 0 7 2;
#X connect 27 0 28 0;
#X connect 28 0 29 0;
#X connect 29 0 15 1;
#X connect 30 0 29 1;
#X connect 32 0 33 0;
#X connect 33 0 30 0;
#X restore 9 268 pd Bubles_________________________________;
#N canvas 0 22 450 300 (subpatch) 0;
#X obj -30 22 spigot;
#X obj 2 3 tgl 15 0 empty empty empty 17 7 0 10 -262144 -1 -1 0 1;
#X obj -58 0 inlet;
#X obj -54 54 outlet;
#X connect 0 0 3 0;
#X connect 1 0 0 1;
#X connect 2 0 0 0;
#X coords 0 1 100 -1 20 20 1 0 0;
#X restore 158 152 graph;
#N canvas 0 22 450 300 (subpatch) 0;
#X obj -30 22 spigot;
#X obj 2 3 tgl 15 0 empty empty empty 17 7 0 10 -262144 -1 -1 0 1;
#X obj -58 0 inlet;
#X obj -54 54 outlet;
#X connect 0 0 3 0;
#X connect 1 0 0 1;
#X connect 2 0 0 0;
#X coords 0 1 100 -1 20 20 1 0 0;
#X restore 194 152 graph;
#N canvas 0 22 450 300 (subpatch) 0;
#X obj -30 22 spigot;
#X obj 2 3 tgl 15 0 empty empty empty 17 7 0 10 -262144 -1 -1 0 1;
#X obj -58 0 inlet;
#X obj -54 54 outlet;
#X connect 0 0 3 0;
#X connect 1 0 0 1;
#X connect 2 0 0 0;
#X coords 0 1 100 -1 20 20 1 0 0;
#X restore 232 152 graph;
#N canvas 0 22 450 300 (subpatch) 0;
#X obj -30 22 spigot;
#X obj 2 3 tgl 15 0 empty empty empty 17 7 0 10 -262144 -1 -1 0 1;
#X obj -58 0 inlet;
#X obj -54 54 outlet;
#X connect 0 0 3 0;
#X connect 1 0 0 1;
#X connect 2 0 0 0;
#X coords 0 1 100 -1 20 20 1 0 0;
#X restore 50 152 graph;
#N canvas 0 22 450 300 (subpatch) 0;
#X obj -30 22 spigot;
#X obj 2 3 tgl 15 0 empty empty empty 17 7 0 10 -262144 -1 -1 0 1;
#X obj -58 0 inlet;
#X obj -54 54 outlet;
#X connect 0 0 3 0;
#X connect 1 0 0 1;
#X connect 2 0 0 0;
#X coords 0 1 100 -1 20 20 1 0 0;
#X restore 83 152 graph;
#N canvas 0 22 450 300 (subpatch) 0;
#X obj -30 22 spigot;
#X obj 2 3 tgl 15 0 empty empty empty 17 7 0 10 -262144 -1 -1 0 1;
#X obj -58 0 inlet;
#X obj -54 54 outlet;
#X connect 0 0 3 0;
#X connect 1 0 0 1;
#X connect 2 0 0 0;
#X coords 0 1 100 -1 20 20 1 0 0;
#X restore 120 152 graph;
#N canvas 0 22 450 300 (subpatch) 0;
#X obj -30 22 spigot;
#X obj 2 3 tgl 15 0 empty empty empty 17 7 0 10 -262144 -1 -1 0 1;
#X obj -58 0 inlet;
#X obj -54 54 outlet;
#X connect 0 0 3 0;
#X connect 1 0 0 1;
#X connect 2 0 0 0;
#X coords 0 1 100 -1 20 20 1 0 0;
#X restore 9 152 graph;
#N canvas 0 22 450 300 (subpatch) 0;
#X obj -30 22 spigot;
#X obj 2 3 tgl 15 0 empty empty empty 17 7 0 10 -262144 -1 -1 0 1;
#X obj -58 0 inlet;
#X obj -54 54 outlet;
#X connect 0 0 3 0;
#X connect 1 0 0 1;
#X connect 2 0 0 0;
#X coords 0 1 100 -1 20 20 1 0 0;
#X restore -21 232 graph;
#N canvas 0 22 450 300 (subpatch) 0;
#X obj -30 22 spigot;
#X obj 2 3 tgl 15 0 empty empty empty 17 7 0 10 -262144 -1 -1 0 1;
#X obj -58 0 inlet;
#X obj -54 54 outlet;
#X connect 0 0 3 0;
#X connect 1 0 0 1;
#X connect 2 0 0 0;
#X coords 0 1 100 -1 20 20 1 0 0;
#X restore -41 232 graph;
#X obj 83 34 ctlin 4;
#X obj 120 59 ctlin 5;
#X obj 158 83 ctlin 6;
#X obj 194 105 ctlin 7;
#X obj 232 132 ctlin 8;
#X connect 0 0 4 0;
#X connect 1 0 5 0;
#X connect 2 0 7 0;
#X connect 3 0 6 0;
#X connect 4 0 12 0;
#X connect 5 0 13 0;
#X connect 6 0 15 0;
#X connect 7 0 14 0;
#X connect 8 0 38 0;
#X connect 9 0 35 0;
#X connect 10 0 11 0;
#X connect 11 0 16 0;
#X connect 12 0 31 3;
#X connect 13 0 31 4;
#X connect 14 0 31 5;
#X connect 15 0 31 6;
#X connect 16 0 31 2;
#X connect 22 0 40 0;
#X connect 22 1 39 0;
#X connect 23 0 31 0;
#X connect 24 0 31 1;
#X connect 25 0 10 0;
#X connect 26 0 0 0;
#X connect 27 0 1 0;
#X connect 28 0 2 0;
#X connect 29 0 3 0;
#X connect 31 0 30 0;
#X connect 32 0 27 0;
#X connect 33 0 28 0;
#X connect 34 0 29 0;
#X connect 35 0 24 0;
#X connect 36 0 25 0;
#X connect 37 0 26 0;
#X connect 38 0 23 0;
#X connect 39 0 24 0;
#X connect 40 0 23 0;
#X connect 41 0 36 0;
#X connect 42 0 37 0;
#X connect 43 0 32 0;
#X connect 44 0 33 0;
#X connect 45 0 34 0;
