#N canvas 0 50 586 276 10;
#X floatatom 161 -2 5 0 0 0 - - -;
#X floatatom 125 -2 5 0 0 0 - - -;
#X obj -1 -151 r noteBongo;
#X obj 43 -131 r velBongo;
#X obj 161 14 * 10;
#X obj 125 14 * 10;
#X floatatom 87 -2 5 0 0 0 - - -;
#X obj 87 14 / 30;
#X floatatom 161 31 5 0 0 0 - - -;
#X floatatom 125 31 5 0 0 0 - - -;
#X floatatom 87 31 5 0 0 0 - - -;
#X text 177 -91 Decay;
#X text 212 -70 Selectivity of BP filter;
#X text 136 -110 Factor for center frequency multipication of BP filter
;
#X obj -50 -10 notein;
#X floatatom -1 31 5 0 0 0 - - -;
#X floatatom 43 31 5 0 0 0 - - -;
#N canvas 0 22 450 300 (subpatch) 0;
#X obj 59 155 inlet;
#X obj 3 89 inlet~;
#X obj 58 182 change;
#X msg 60 246 set \$1;
#X obj 60 227 tosymbol;
#X obj 59 204 sprintf Bus%d;
#X obj 3 282 throw~ Bus0;
#X obj 2 3 popup 124 25 #ffffff popup Bus0 Bus1 Bus2 Bus3 Bus4 Bus5
;
#X obj 1 32 route bang;
#X obj 154 202 *~;
#X obj 141 7 tgl 15 0 empty empty Dac 19 7 0 10 -262144 -1 -1 0 1;
#X obj 155 238 dac~;
#X obj 1 -41 loadbang;
#X text 59 -43 Bus0 mutes;
#X msg 1 -23 options Bus0 Bus1 Bus2 Bus3 Bus4 Bus5 Bus6 Bus7 Bus8 Bus9
Bus10 Bus11 Bus12 Bus13 Bus14 Bus15 Bus16;
#X connect 0 0 2 0;
#X connect 1 0 6 0;
#X connect 1 0 9 0;
#X connect 2 0 5 0;
#X connect 3 0 6 0;
#X connect 4 0 3 0;
#X connect 5 0 4 0;
#X connect 7 0 8 0;
#X connect 8 1 2 0;
#X connect 9 0 11 0;
#X connect 9 0 11 1;
#X connect 10 0 9 1;
#X connect 12 0 14 0;
#X connect 14 0 7 0;
#X coords 0 1 100 -1 180 30 1 0 0;
#X restore -1 64 graph;
#X obj 161 -31 knob 25 25 0 127 0 0 empty empty empty 0 -8 32 8 -1
-260097 -260097 0 1;
#X obj 125 -31 knob 25 25 0 127 0 0 empty empty empty 0 -8 32 8 -1
-260097 -260097 0 1;
#X obj 87 -31 knob 25 25 0 127 0 0 empty empty empty 0 -8 32 8 -1 -260097
-260097 0 1;
#N canvas 0 22 450 300 Bongo_ResonantNoise________ 0;
#X obj 122 210 outlet~;
#X obj 88 69 noise~;
#X obj 145 42 bng 15 250 50 0 empty empty empty 0 -6 0 8 -262144 -1
-1;
#X obj 117 103 *~;
#X obj 117 131 bp~ 440 80;
#X floatatom -13 14 5 0 0 0 - - -;
#X floatatom 29 13 5 0 0 0 - - -;
#X obj -13 37 stripnote;
#X obj 122 189 *~;
#X obj 21 121 / 100;
#X obj -12 57 mtof;
#X floatatom -15 105 5 0 0 0 - - -;
#X obj -11 81 * 2;
#X obj 21 141 + 0.3;
#X obj 118 158 *~ 10;
#X obj 145 70 ead~ 1 50;
#X text 227 83 "Bongo" - resonant noise -AJF;
#X obj -15 -16 inlet;
#X obj 31 -19 inlet;
#X obj 169 97 inlet;
#X obj 291 34 inlet;
#X obj 116 13 inlet;
#X connect 1 0 3 0;
#X connect 2 0 15 0;
#X connect 3 0 4 0;
#X connect 4 0 14 0;
#X connect 5 0 7 0;
#X connect 6 0 7 1;
#X connect 7 0 2 0;
#X connect 7 0 10 0;
#X connect 7 1 9 0;
#X connect 8 0 0 0;
#X connect 9 0 13 0;
#X connect 10 0 12 0;
#X connect 11 0 4 1;
#X connect 12 0 11 0;
#X connect 13 0 8 1;
#X connect 14 0 8 0;
#X connect 15 0 3 1;
#X connect 17 0 5 0;
#X connect 18 0 6 0;
#X connect 19 0 4 2;
#X connect 20 0 15 2;
#X connect 21 0 12 1;
#X restore -1 47 pd Bongo_ResonantNoise________;
#X obj 86 -111 ctlin 6;
#X obj 124 -90 ctlin 7;
#X obj 161 -71 ctlin 8;
#N canvas 0 22 450 300 (subpatch) 0;
#X obj -30 22 spigot;
#X obj 2 3 tgl 15 0 empty empty empty 17 7 0 10 -262144 -1 -1 0 1;
#X obj -58 0 inlet;
#X obj -54 54 outlet;
#X connect 0 0 3 0;
#X connect 1 0 0 1;
#X connect 2 0 0 0;
#X coords 0 1 100 -1 20 20 1 0 0;
#X restore 87 -54 graph;
#N canvas 0 22 450 300 (subpatch) 0;
#X obj -30 22 spigot;
#X obj 2 3 tgl 15 0 empty empty empty 17 7 0 10 -262144 -1 -1 0 1;
#X obj -58 0 inlet;
#X obj -54 54 outlet;
#X connect 0 0 3 0;
#X connect 1 0 0 1;
#X connect 2 0 0 0;
#X coords 0 1 100 -1 20 20 1 0 0;
#X restore 125 -54 graph;
#N canvas 0 22 450 300 (subpatch) 0;
#X obj -30 22 spigot;
#X obj 2 3 tgl 15 0 empty empty empty 17 7 0 10 -262144 -1 -1 0 1;
#X obj -58 0 inlet;
#X obj -54 54 outlet;
#X connect 0 0 3 0;
#X connect 1 0 0 1;
#X connect 2 0 0 0;
#X coords 0 1 100 -1 20 20 1 0 0;
#X restore 161 -54 graph;
#N canvas 0 22 450 300 (subpatch) 0;
#X obj -30 22 spigot;
#X obj 2 3 tgl 15 0 empty empty empty 17 7 0 10 -262144 -1 -1 0 1;
#X obj -58 0 inlet;
#X obj -54 54 outlet;
#X connect 0 0 3 0;
#X connect 1 0 0 1;
#X connect 2 0 0 0;
#X coords 0 1 100 -1 20 20 1 0 0;
#X restore -50 11 graph;
#N canvas 0 22 450 300 (subpatch) 0;
#X obj -30 22 spigot;
#X obj 2 3 tgl 15 0 empty empty empty 17 7 0 10 -262144 -1 -1 0 1;
#X obj -58 0 inlet;
#X obj -54 54 outlet;
#X connect 0 0 3 0;
#X connect 1 0 0 1;
#X connect 2 0 0 0;
#X coords 0 1 100 -1 20 20 1 0 0;
#X restore -1 -55 graph;
#N canvas 0 22 450 300 (subpatch) 0;
#X obj -30 22 spigot;
#X obj 2 3 tgl 15 0 empty empty empty 17 7 0 10 -262144 -1 -1 0 1;
#X obj -58 0 inlet;
#X obj -54 54 outlet;
#X connect 0 0 3 0;
#X connect 1 0 0 1;
#X connect 2 0 0 0;
#X coords 0 1 100 -1 20 20 1 0 0;
#X restore 43 -55 graph;
#N canvas 0 22 450 300 (subpatch) 0;
#X obj -30 22 spigot;
#X obj 2 3 tgl 15 0 empty empty empty 17 7 0 10 -262144 -1 -1 0 1;
#X obj -58 0 inlet;
#X obj -54 54 outlet;
#X connect 0 0 3 0;
#X connect 1 0 0 1;
#X connect 2 0 0 0;
#X coords 0 1 100 -1 20 20 1 0 0;
#X restore -30 11 graph;
#X connect 0 0 4 0;
#X connect 1 0 5 0;
#X connect 2 0 29 0;
#X connect 3 0 30 0;
#X connect 4 0 8 0;
#X connect 5 0 9 0;
#X connect 6 0 7 0;
#X connect 7 0 10 0;
#X connect 8 0 21 4;
#X connect 9 0 21 3;
#X connect 10 0 21 2;
#X connect 14 0 28 0;
#X connect 14 1 31 0;
#X connect 15 0 21 0;
#X connect 16 0 21 1;
#X connect 18 0 0 0;
#X connect 19 0 1 0;
#X connect 20 0 6 0;
#X connect 21 0 17 0;
#X connect 22 0 25 0;
#X connect 23 0 26 0;
#X connect 24 0 27 0;
#X connect 25 0 20 0;
#X connect 26 0 19 0;
#X connect 27 0 18 0;
#X connect 28 0 15 0;
#X connect 29 0 15 0;
#X connect 30 0 16 0;
#X connect 31 0 16 0;
