#N canvas 305 41 719 497 10;
#X declare -path z_Attractormusic_abs;
#N canvas 0 22 450 300 (subpatch) 0;
#X array xPos 10 float 3;
#A 0 -2.24694 -2.49215 -4.19243 -2.24521 -1.26299 -2.1993 -3.63853
-1.35435 -1.43372 -1.43372;
#X coords 0 4 9 -4 100 70 1;
#X restore 41 90 graph;
#N canvas 0 22 450 300 (subpatch) 0;
#X array yPos 10 float 3;
#A 0 9.14606 10.4518 10.6386 10.5913 10.6148 9.30511 10.575 10.6277
8.93936 8.93936;
#X coords 0 4 9 -4 100 70 1;
#X restore 45 196 graph;
#N canvas 0 22 450 300 (subpatch) 0;
#X array xVelo 10 float 3;
#A 0 0.0296677 0.0540265 0.900194 0.0521409 -0.250832 1.3 0.462889
-0.711999 -0.636958 -0.409473;
#X coords 0 1 9 -1 100 70 1;
#X restore 143 90 graph;
#N canvas 0 22 450 300 (subpatch) 0;
#X array yVelo 10 float 3;
#A 0 1.25491 0.109153 -2.1 -1.7 -0.6 0.0533955 -1.75 -1.25 1.25848
1.3095;
#X coords 0 1 9 -1 100 70 1;
#X restore 147 196 graph;
#X floatatom 314 149 5 0 0 0 - - -;
#X floatatom 461 156 5 0 0 0 - - -;
#N canvas 116 30 506 664 creationPool 0;
#X obj 10 0 inlet;
#X obj 10 40 inlet;
#X obj 10 80 inlet;
#X obj 10 120 inlet;
#X obj 10 160 inlet;
#X obj 10 200 inlet;
#X obj 10 240 inlet;
#X obj 10 280 inlet;
#X obj 10 320 inlet;
#X obj 10 360 inlet;
#X obj 10 400 inlet;
#X obj 10 440 inlet;
#X obj 10 480 inlet;
#X obj 10 520 inlet;
#X obj 10 560 inlet;
#X obj 10 600 inlet;
#X obj 10 640 inlet;
#X obj 10 680 inlet;
#X obj 10 720 inlet;
#X obj 10 760 inlet;
#X obj 100 0 bot 0;
#X obj 100 40 bot 1;
#X obj 100 80 bot 2;
#X obj 100 120 bot 3;
#X obj 100 160 bot 4;
#X obj 100 200 bot 5;
#X obj 100 240 bot 6;
#X obj 105 272 bot 7;
#X obj 100 320 bot 8;
#X obj 100 360 bot 9;
#X obj 206 64 outlet~;
#X connect 0 0 20 0;
#X connect 1 0 21 0;
#X connect 2 0 22 0;
#X connect 3 0 23 0;
#X connect 4 0 24 0;
#X connect 5 0 25 0;
#X connect 6 0 26 0;
#X connect 7 0 27 0;
#X connect 8 0 28 0;
#X connect 9 0 29 0;
#X connect 10 0 20 1;
#X connect 11 0 21 1;
#X connect 12 0 22 1;
#X connect 13 0 23 1;
#X connect 14 0 24 1;
#X connect 15 0 25 1;
#X connect 16 0 26 1;
#X connect 17 0 27 1;
#X connect 18 0 28 1;
#X connect 19 0 29 1;
#X connect 20 0 30 0;
#X connect 21 0 30 0;
#X connect 22 0 30 0;
#X connect 23 0 30 0;
#X connect 24 0 30 0;
#X connect 25 0 30 0;
#X connect 26 0 30 0;
#X connect 27 0 30 0;
#X connect 28 0 30 0;
#X connect 29 0 30 0;
#X restore 317 237 pd creationPool -------------------------;
#N canvas 590 109 304 322 mapping 0;
#X obj 124 57 gemmouse;
#X msg 56 157 load 0 500;
#X msg 126 156 0;
#X obj 56 132 loadbang;
#X obj 52 226 outlet;
#X obj 171 224 outlet;
#X obj 52 194 autoscale 4 -4;
#X obj 171 190 autoscale -4 4;
#X text 61 23 this is for 500x500 px gemwin;
#X connect 0 0 7 0;
#X connect 0 1 6 0;
#X connect 1 0 6 0;
#X connect 1 0 7 0;
#X connect 2 0 6 3;
#X connect 2 0 7 3;
#X connect 3 0 1 0;
#X connect 3 0 2 0;
#X connect 6 0 4 0;
#X connect 7 0 5 0;
#X restore 314 124 pd mapping the mouse;
#X text 353 150 (0-4);
#X text 499 158 (0-4);
#X text 370 96 <-- create elements + window;
#X text 45 274 store x \, y coord for particles;
#X text 46 288 use an array to make convergence;
#X text 46 385 ----------------------------------------------;
#X obj 46 315 cnv 15 300 60 empty empty empty 20 12 0 14 -253938 -66577
0;
#X text 82 330 click on GEM window \, use your mouse to;
#X text 82 341 control movement;
#X obj 20 23 cnv 15 100 10 empty empty ATTRACTORMUSIC 20 12 1 24 -262144
-66577 0;
#X obj 314 96 s-vizu;
#X obj 314 181 s-swarmCalc xPos xVelo 10;
#X obj 316 210 s-read xPos 400 --------;
#X obj 469 210 s-read yPos 400 --------;
#X obj 472 180 s-swarmCalc yPos yVelo 10;
#X text 47 402 Released under GNU GPL3.;
#X text 48 418 Agoston Nagy \, 2010;
#X text 47 433 stc@basilar.net;
#N canvas 0 22 450 300 (subpatch) 0;
#X obj 59 155 inlet;
#X obj 3 89 inlet~;
#X obj 58 182 change;
#X msg 60 246 set \$1;
#X obj 60 227 tosymbol;
#X obj 59 204 sprintf Bus%d;
#X obj 3 282 throw~ Bus0;
#X obj 2 3 popup 124 25 #ffffff popup Bus0 Bus1 Bus2 Bus3 Bus4 Bus5
;
#X obj 1 32 route bang;
#X obj 154 202 *~;
#X obj 141 7 tgl 15 0 empty empty Dac 19 7 0 10 -262144 -1 -1 0 1;
#X obj 155 238 dac~;
#X obj 2 -50 loadbang;
#X text 60 -52 Bus0 mutes;
#X msg 2 -32 options Bus0 Bus1 Bus2 Bus3 Bus4 Bus5 Bus6 Bus7 Bus8 Bus9
Bus10 Bus11 Bus12 Bus13 Bus14 Bus15 Bus16;
#X connect 0 0 2 0;
#X connect 1 0 6 0;
#X connect 1 0 9 0;
#X connect 2 0 5 0;
#X connect 3 0 6 0;
#X connect 4 0 3 0;
#X connect 5 0 4 0;
#X connect 7 0 8 0;
#X connect 8 1 2 0;
#X connect 9 0 11 0;
#X connect 9 0 11 1;
#X connect 10 0 9 1;
#X connect 12 0 14 0;
#X connect 14 0 7 0;
#X coords 0 1 100 -1 180 30 1 0 0;
#X restore 317 256 graph;
#X obj 313 44 declare -path z_Attractormusic_abs;
#X connect 4 0 19 0;
#X connect 5 0 22 0;
#X connect 6 0 26 0;
#X connect 7 0 4 0;
#X connect 7 1 5 0;
#X connect 20 0 6 0;
#X connect 20 1 6 1;
#X connect 20 2 6 2;
#X connect 20 3 6 3;
#X connect 20 4 6 4;
#X connect 20 5 6 5;
#X connect 20 6 6 6;
#X connect 20 7 6 7;
#X connect 20 8 6 8;
#X connect 20 9 6 9;
#X connect 21 0 6 10;
#X connect 21 1 6 11;
#X connect 21 2 6 12;
#X connect 21 3 6 13;
#X connect 21 4 6 14;
#X connect 21 5 6 15;
#X connect 21 6 6 16;
#X connect 21 7 6 17;
#X connect 21 8 6 18;
#X connect 21 9 6 19;
