#N canvas 0 22 780 512 12;
#X declare -path z_brucefm_abs;
#N canvas 0 22 780 512 al 0;
#N canvas 0 22 780 512 chorus 0;
#X obj 278 55 vd~ \$0-ch 100;
#X obj 278 -52 *~ 0.5;
#X obj 278 -27 +~ 0.5;
#X obj 278 -2 *~ 5;
#X obj 277 124 delwrite~ \$0-ch 50;
#X obj 278 23 +~ 15;
#X obj 277 86 *~ 0.3;
#X obj 278 -77 osc~ 3;
#X obj 189 7 inlet~;
#X obj 190 175 outlet~;
#X connect 0 0 6 0;
#X connect 0 0 9 0;
#X connect 1 0 2 0;
#X connect 2 0 3 0;
#X connect 3 0 5 0;
#X connect 5 0 0 0;
#X connect 6 0 4 0;
#X connect 7 0 1 0;
#X connect 8 0 4 0;
#X connect 8 0 9 0;
#X restore 273 249 pd chorus;
#X obj 103 39 env~;
#X obj 103 10 r~ \$0-l;
#X obj 167 10 r~ \$0-r;
#X obj 203 350 s~ \$0-r;
#X obj 136 349 s~ \$0-l;
#X obj 166 38 env~;
#X obj 103 68 - 101;
#X obj 166 68 - 101;
#X obj 104 110 vu 8 80 empty empty -1 -8 0 10 -66577 -1 0 0;
#X obj 117 110 vu 8 80 empty empty -1 -8 0 10 -66577 -1 1 0;
#X obj 301 292 *~ 0;
#X obj 277 21 loadbang;
#X msg 277 61 0.9;
#X obj 259 102 cnv 15 60 98 empty empty empty 20 12 0 14 -162280 -66577
0;
#N canvas 0 22 780 512 synth_beat 0;
#N canvas 0 22 780 512 kick 0;
#X obj 271 302 osc~;
#X obj 341 159 line~;
#X obj 341 196 *~;
#X obj 271 333 *~;
#X msg 246 222 0;
#X obj 342 256 +~ 15;
#X obj 270 362 *~ 2;
#X obj 342 229 *~ 70;
#X obj 287 31 inlet;
#X obj 270 387 clip~ -0.8 0.8;
#X msg 341 126 1 \, 0 100;
#X obj 269 442 outlet~;
#X obj 269 417 *~ 0.7;
#X connect 0 0 3 0;
#X connect 1 0 2 0;
#X connect 1 0 2 1;
#X connect 2 0 3 1;
#X connect 2 0 7 0;
#X connect 3 0 6 0;
#X connect 4 0 0 1;
#X connect 5 0 0 0;
#X connect 6 0 9 0;
#X connect 7 0 5 0;
#X connect 8 0 4 0;
#X connect 8 0 10 0;
#X connect 9 0 12 0;
#X connect 10 0 1 0;
#X connect 12 0 11 0;
#X restore 28 230 pd kick;
#N canvas 0 22 450 300 fx_snare 0;
#X obj 294 152 osc~;
#X obj 420 108 line~;
#X obj 420 145 *~;
#X obj 294 183 *~;
#X obj 295 126 +~ 80;
#X obj 295 216 hip~ 600;
#X obj 419 178 *~ 1000;
#X obj 294 98 *~;
#X obj 419 207 +~ 500;
#X msg 420 75 1 \, 0 300;
#X obj 293 68 osc~ 440;
#X obj 294 265 *~;
#X obj 507 198 osc~;
#X msg 602 134 0;
#X obj 506 163 line~;
#X msg 506 135 0 \, 222 500;
#X obj 420 4 inlet;
#X obj 294 337 outlet~;
#X obj 294 308 *~ 0.5;
#X connect 0 0 3 0;
#X connect 1 0 2 0;
#X connect 1 0 2 1;
#X connect 2 0 3 1;
#X connect 2 0 6 0;
#X connect 3 0 5 0;
#X connect 4 0 0 0;
#X connect 5 0 11 0;
#X connect 6 0 8 0;
#X connect 7 0 4 0;
#X connect 8 0 7 1;
#X connect 9 0 1 0;
#X connect 10 0 7 0;
#X connect 11 0 18 0;
#X connect 12 0 11 1;
#X connect 13 0 12 1;
#X connect 14 0 12 0;
#X connect 15 0 14 0;
#X connect 16 0 9 0;
#X connect 16 0 15 0;
#X connect 16 0 13 0;
#X connect 18 0 17 0;
#X restore 91 230 pd fx_snare;
#N canvas 0 22 450 300 hat1 0;
#X msg 431 181 1 \, 0 20;
#X obj 260 181 noise~;
#X obj 260 206 samphold~;
#X obj 431 206 line~;
#X obj 259 249 *~;
#X obj 259 280 hip~ 2000;
#X obj 259 305 hip~ 2000;
#X obj 259 330 hip~ 2000;
#X obj 329 181 phasor~ 210;
#X obj 431 150 inlet;
#X obj 259 365 outlet~;
#X connect 0 0 3 0;
#X connect 1 0 2 0;
#X connect 2 0 4 0;
#X connect 3 0 4 1;
#X connect 4 0 5 0;
#X connect 5 0 6 0;
#X connect 6 0 7 0;
#X connect 7 0 10 0;
#X connect 8 0 2 1;
#X connect 9 0 0 0;
#X restore 185 230 pd hat1;
#N canvas 0 22 780 512 hat2 0;
#X obj 260 181 noise~;
#X obj 431 206 line~;
#X obj 259 249 *~;
#X obj 259 280 hip~ 2000;
#X obj 259 305 hip~ 2000;
#X obj 259 330 hip~ 2000;
#X obj 431 76 inlet;
#X obj 259 403 outlet~;
#X msg 431 157 0 \, 1 50;
#X obj 505 157 del 50;
#X msg 505 182 1 \, 0 5;
#X obj 259 363 *~ 0.08;
#X connect 0 0 2 0;
#X connect 1 0 2 1;
#X connect 2 0 3 0;
#X connect 3 0 4 0;
#X connect 4 0 5 0;
#X connect 5 0 11 0;
#X connect 6 0 8 0;
#X connect 6 0 9 0;
#X connect 8 0 1 0;
#X connect 9 0 10 0;
#X connect 10 0 1 0;
#X connect 11 0 7 0;
#X restore 247 230 pd hat2;
#N canvas 0 22 780 512 qm 0;
#X obj 214 170 samphold~;
#X obj 211 267 osc~;
#X obj 210 296 *~;
#X obj 262 259 line~;
#X obj 213 102 noise~;
#X obj 214 140 max~ 0;
#X obj 212 230 +~ 1000;
#X obj 283 138 phasor~ 250;
#X obj 213 198 *~ 800;
#X msg 300 205 1 \, 0 122;
#X obj 209 328 *~ 0.3;
#X obj 209 371 outlet~;
#X obj 300 175 inlet;
#X connect 0 0 8 0;
#X connect 1 0 2 0;
#X connect 2 0 10 0;
#X connect 3 0 2 1;
#X connect 4 0 5 0;
#X connect 5 0 0 0;
#X connect 6 0 1 0;
#X connect 7 0 0 1;
#X connect 8 0 6 0;
#X connect 9 0 3 0;
#X connect 10 0 11 0;
#X connect 12 0 9 0;
#X restore 311 230 pd qm;
#X obj 147 379 outlet~;
#X obj 102 102 bng 15 250 50 0 empty empty empty 17 7 0 10 -4034 -257985
-1;
#X obj 102 120 bng 15 250 50 0 empty empty empty 17 7 0 10 -4034 -257985
-1;
#X obj 102 137 bng 15 250 50 0 empty empty empty 17 7 0 10 -4034 -257985
-1;
#X obj 102 154 bng 15 250 50 0 empty empty empty 17 7 0 10 -4034 -257985
-1;
#X obj 102 171 bng 15 250 50 0 empty empty empty 17 7 0 10 -4034 -257985
-1;
#X obj 85 -57 metro 125;
#X obj 85 -104 inlet;
#X obj 90 -28 i;
#X obj 90 -3 + 1;
#X obj 90 22 % 16;
#X obj 90 56 sel 0 10 4 12;
#X obj 174 -54 % 4;
#X obj 174 -29 sel 2;
#X obj 225 34 sel 4 1;
#X obj 251 108 del 125;
#X obj 225 8 random 15;
#X obj 286 72 del 250;
#X obj 27 309 *~ 0.1;
#X obj 387 324 tabwrite~ \$0-buff;
#X obj 26 280 delread~ \$0-sn 375;
#X obj 1 339 delwrite~ \$0-sn 1000;
#X obj 606 133 table \$0-buff 44100;
#X msg 387 281 start 0;
#X obj 387 258 bng 15 250 50 0 empty empty empty 17 7 0 10 -262144
-1 -1;
#X obj 387 186 sel 0;
#X obj 390 124 tabread~ \$0-buff;
#X obj 545 83 -~ 0.5;
#X obj 545 108 *~ 0.5;
#X obj 545 133 cos~;
#X obj 390 152 *~;
#X obj 389 92 +~;
#X obj 535 27 *~ 44100;
#X obj 534 58 samphold~;
#X obj 535 -5 phasor~ 0.5;
#X msg 620 -36 0;
#X obj 387 214 t b b;
#X msg 535 -59 1000 \$1;
#X obj 535 -35 /;
#X obj 535 -108 random 2000;
#X obj 535 -83 max 1;
#X obj 283 141 hip~ 1500;
#X obj 283 166 hip~ 1500;
#X obj 389 -7 phasor~ 20;
#X obj 390 62 *~ 2205;
#X msg 263 -71 50;
#X msg 383 -49 25 \, 60 1000;
#X msg 304 -72 100 \, 10 1500;
#X obj 315 23 * 44.1;
#X obj 315 -2 line;
#X obj 152 -104 t f b;
#X msg 201 -80 0;
#X obj 284 191 *~ 0;
#X obj 267 -104 r temp;
#X connect 0 0 24 0;
#X connect 0 0 5 0;
#X connect 1 0 5 0;
#X connect 1 0 26 0;
#X connect 1 0 24 0;
#X connect 2 0 5 0;
#X connect 2 0 24 0;
#X connect 3 0 5 0;
#X connect 3 0 24 0;
#X connect 4 0 5 0;
#X connect 4 0 24 0;
#X connect 6 0 0 0;
#X connect 7 0 1 0;
#X connect 8 0 2 0;
#X connect 9 0 3 0;
#X connect 10 0 4 0;
#X connect 11 0 21 0;
#X connect 11 0 13 0;
#X connect 12 0 55 0;
#X connect 13 0 14 0;
#X connect 14 0 15 0;
#X connect 14 0 13 1;
#X connect 14 0 17 0;
#X connect 15 0 16 0;
#X connect 15 0 30 0;
#X connect 16 0 6 0;
#X connect 16 1 6 0;
#X connect 16 2 7 0;
#X connect 16 3 7 0;
#X connect 17 0 18 0;
#X connect 18 0 8 0;
#X connect 19 0 9 0;
#X connect 19 0 22 0;
#X connect 19 0 51 0;
#X connect 19 1 10 0;
#X connect 19 1 20 0;
#X connect 19 1 52 0;
#X connect 19 2 50 0;
#X connect 20 0 6 0;
#X connect 21 0 19 0;
#X connect 22 0 8 0;
#X connect 23 0 5 0;
#X connect 23 0 26 0;
#X connect 25 0 23 0;
#X connect 28 0 24 0;
#X connect 29 0 28 0;
#X connect 29 0 44 0;
#X connect 30 0 41 0;
#X connect 31 0 35 0;
#X connect 32 0 33 0;
#X connect 33 0 34 0;
#X connect 34 0 35 1;
#X connect 35 0 46 0;
#X connect 36 0 31 0;
#X connect 37 0 38 0;
#X connect 38 0 36 1;
#X connect 39 0 37 0;
#X connect 40 0 39 1;
#X connect 41 0 40 0;
#X connect 41 1 29 0;
#X connect 42 0 43 0;
#X connect 43 0 39 0;
#X connect 44 0 45 0;
#X connect 45 0 42 0;
#X connect 46 0 47 0;
#X connect 47 0 57 0;
#X connect 48 0 32 0;
#X connect 48 0 38 1;
#X connect 48 0 49 0;
#X connect 49 0 36 0;
#X connect 50 0 54 0;
#X connect 51 0 54 0;
#X connect 52 0 54 0;
#X connect 53 0 49 1;
#X connect 54 0 53 0;
#X connect 55 0 11 0;
#X connect 55 0 57 1;
#X connect 55 1 56 0;
#X connect 56 0 13 1;
#X connect 57 0 5 0;
#X connect 58 0 11 1;
#X coords 0 -1 1 1 19 88 2 100 100;
#X restore 290 106 pd synth_beat;
#X obj 264 111 vsl 22 77 0 1 0 0 \$0-bslvl \$0-bslvl_r empty 0 -9 0
10 -203904 -262144 -1 6840 1;
#X obj 502 434 outlet;
#X obj 159 102 z-FM1;
#X obj 271 352 outlet~;
#X connect 0 0 5 0;
#X connect 0 0 4 0;
#X connect 0 0 11 0;
#X connect 1 0 7 0;
#X connect 2 0 1 0;
#X connect 3 0 6 0;
#X connect 6 0 8 0;
#X connect 7 0 9 0;
#X connect 8 0 10 0;
#X connect 11 0 19 0;
#X connect 12 0 13 0;
#X connect 13 0 16 0;
#X connect 15 0 0 0;
#X connect 16 0 11 1;
#X connect 18 0 5 0;
#X connect 18 0 19 0;
#X connect 18 2 15 0;
#X coords 0 -1 1 1 222 102 2 100 100;
#X restore 25 -342 pd al;
#X text 22 -170 by Bruce Lee;
#X obj 25 -238 loadbang;
#X msg 25 -213 \; pd dsp 1;
#X msg 103 -212 \; rng 0 0 1 2 3;
#N canvas 0 22 724 448 call 0;
#X obj 182 -55 osc~;
#X obj 182 -109 mtof;
#X msg 233 -169 72;
#X msg 271 -167 79;
#X msg 304 -167 75;
#X msg 339 -167 77;
#X obj 225 -52 osc~;
#X obj 222 -81 * 2.09;
#X obj 181 60 *~;
#X obj 248 7 line~;
#X obj 305 -115 bng 15 250 50 0 empty empty empty 17 7 0 10 -262144
-1 -1;
#X msg 277 -39 0 \, 1 5;
#X msg 338 -39 1 \, 0 5;
#X obj 340 -86 del 1500;
#X obj 491 -233 noise~;
#X obj 492 -153 threshold~ 0;
#X floatatom 492 -66 5 0 0 0 - - -;
#X obj 491 -183 samphold~;
#X obj 560 -209 phasor~ 4;
#X obj 415 -37 metro 1000;
#X obj 415 -68 tgl 15 0 empty empty empty 17 7 0 10 -262144 -1 -1 0
1;
#X obj 415 65 tabread rng;
#X obj 235 -208 sel 0 1 2 3;
#X obj 415 -11 i;
#X obj 415 14 + 1;
#X obj 415 39 % 4;
#X obj 492 -125 random 2000;
#X obj 492 -98 + 500;
#X obj 591 -51 bng 15 250 50 0 empty empty empty 17 7 0 10 -262144
-1 -1;
#X obj 628 -51 bng 15 250 50 0 empty empty empty 17 7 0 10 -262144
-1 -1;
#X msg 591 -17 1;
#X msg 628 -17 0;
#X obj 591 -94 sel 0 2;
#X obj 264 48 * -1;
#X obj 264 73 + 1;
#X obj 301 8 inlet;
#X obj 181 7 *~ 0.1;
#X obj 591 -125 random 10;
#X obj 181 110 *~ 1;
#X obj 493 10 table rng 8;
#X obj 181 141 outlet~;
#X connect 0 0 36 0;
#X connect 1 0 0 0;
#X connect 1 0 7 0;
#X connect 2 0 1 0;
#X connect 2 0 10 0;
#X connect 3 0 1 0;
#X connect 3 0 10 0;
#X connect 4 0 1 0;
#X connect 4 0 10 0;
#X connect 5 0 1 0;
#X connect 5 0 10 0;
#X connect 6 0 36 0;
#X connect 7 0 6 0;
#X connect 8 0 38 0;
#X connect 9 0 8 1;
#X connect 10 0 13 0;
#X connect 10 0 11 0;
#X connect 11 0 9 0;
#X connect 12 0 9 0;
#X connect 13 0 12 0;
#X connect 14 0 17 0;
#X connect 15 0 26 0;
#X connect 15 0 37 0;
#X connect 16 0 19 1;
#X connect 17 0 15 0;
#X connect 18 0 17 1;
#X connect 19 0 23 0;
#X connect 20 0 19 0;
#X connect 21 0 22 0;
#X connect 22 0 2 0;
#X connect 22 1 3 0;
#X connect 22 2 4 0;
#X connect 22 3 5 0;
#X connect 23 0 24 0;
#X connect 24 0 25 0;
#X connect 24 0 23 1;
#X connect 25 0 21 0;
#X connect 26 0 27 0;
#X connect 27 0 16 0;
#X connect 28 0 30 0;
#X connect 29 0 31 0;
#X connect 30 0 20 0;
#X connect 31 0 20 0;
#X connect 32 0 28 0;
#X connect 32 1 28 0;
#X connect 32 2 29 0;
#X connect 33 0 34 0;
#X connect 34 0 38 1;
#X connect 35 0 33 0;
#X connect 36 0 8 0;
#X connect 37 0 32 0;
#X connect 38 0 40 0;
#X restore 256 -318 pd call;
#X obj 256 -337 tgl 15 0 empty empty empty 17 7 0 10 -262144 -1 -1
0 1;
#X text 277 -341 mute;
#N canvas 0 22 450 300 (subpatch) 0;
#X obj 59 155 inlet;
#X obj 3 89 inlet~;
#X obj 58 182 change;
#X msg 60 246 set \$1;
#X obj 60 227 tosymbol;
#X obj 59 204 sprintf Bus%d;
#X obj 3 282 throw~ Bus0;
#X obj 2 3 popup 124 25 #ffffff popup Bus0 Bus1 Bus2 Bus3 Bus4 Bus5
;
#X obj 1 32 route bang;
#X obj 154 202 *~;
#X obj 141 7 tgl 15 0 empty empty Dac 19 7 0 10 -262144 -1 -1 0 1;
#X obj 155 238 dac~;
#X obj 1 -53 loadbang;
#X text 59 -55 Bus0 mutes;
#X msg 1 -35 options Bus0 Bus1 Bus2 Bus3 Bus4 Bus5 Bus6 Bus7 Bus8 Bus9
Bus10 Bus11 Bus12 Bus13 Bus14 Bus15 Bus16;
#X connect 0 0 2 0;
#X connect 1 0 6 0;
#X connect 1 0 9 0;
#X connect 2 0 5 0;
#X connect 3 0 6 0;
#X connect 4 0 3 0;
#X connect 5 0 4 0;
#X connect 7 0 8 0;
#X connect 8 1 2 0;
#X connect 9 0 11 0;
#X connect 9 0 11 1;
#X connect 10 0 9 1;
#X connect 12 0 14 0;
#X connect 14 0 7 0;
#X coords 0 1 100 -1 180 30 1 0 0;
#X restore 256 -240 graph;
#X obj 271 -195 declare -path z_brucefm_abs;
#X connect 0 0 8 0;
#X connect 2 0 3 0;
#X connect 2 0 4 0;
#X connect 5 0 8 0;
#X connect 6 0 5 0;
