#N canvas 163 22 342 285 10;
#N canvas 0 22 759 553 (subpatch) 0;
#N canvas 0 22 542 513 voice 0;
#X obj 1 165 phasor~ 110;
#X obj 39 81 mtof;
#X obj 132 164 phasor~ 110;
#X obj 36 30 inlet;
#X obj 49 350 outlet~;
#X obj 232 124 loadbang;
#X obj 25 129 + 1;
#X obj 152 128 - 1;
#X obj 110 351 outlet~;
#X obj 119 32 inlet~;
#X obj 51 254 vcf~;
#X obj 107 255 vcf~;
#X obj 285 150 phasor~ 110;
#X obj 50 317 +~;
#X obj 110 321 +~;
#X obj 285 187 /~ 8;
#X obj 280 87 * 2;
#X obj 275 241 lop~;
#X obj 394 141 env~;
#X obj 394 165 dbtorms;
#X obj 394 196 * 4;
#X msg 232 162 8;
#X connect 0 0 10 0;
#X connect 1 0 6 0;
#X connect 1 0 7 0;
#X connect 1 0 16 0;
#X connect 2 0 11 0;
#X connect 3 0 1 0;
#X connect 5 0 21 0;
#X connect 6 0 0 0;
#X connect 7 0 2 0;
#X connect 9 0 10 1;
#X connect 9 0 11 1;
#X connect 9 0 18 0;
#X connect 10 0 13 0;
#X connect 11 0 14 0;
#X connect 12 0 15 0;
#X connect 13 0 4 0;
#X connect 14 0 8 0;
#X connect 15 0 17 0;
#X connect 16 0 12 0;
#X connect 17 0 14 1;
#X connect 17 0 13 1;
#X connect 18 0 19 0;
#X connect 19 0 20 0;
#X connect 20 0 17 1;
#X connect 21 0 10 2;
#X connect 21 0 11 2;
#X restore 226 584 pd voice;
#X obj 225 607 *~;
#X obj 268 608 *~;
#X obj 8 15 tgl 15 0 empty empty on/off 0 -6 0 8 -241291 -1 -1 0 1
;
#N canvas 0 22 466 316 bdrum 0;
#X obj 120 33 inlet;
#X obj 145 336 outlet~;
#X obj 127 201 osc~;
#X obj 183 116 *~ 0.5;
#X obj 176 203 osc~;
#X obj 140 240 +~;
#X obj 157 308 *~;
#X msg 118 63 220 \, 50 25;
#X msg 236 181 1 \, 0 50;
#X obj 236 218 vline~;
#X obj 120 89 vline~;
#X connect 0 0 7 0;
#X connect 0 0 8 0;
#X connect 2 0 5 0;
#X connect 3 0 4 0;
#X connect 4 0 5 1;
#X connect 5 0 6 0;
#X connect 6 0 1 0;
#X connect 7 0 10 0;
#X connect 8 0 9 0;
#X connect 9 0 6 1;
#X connect 10 0 3 0;
#X connect 10 0 2 0;
#X restore 357 387 pd bdrum;
#X obj 358 440 dac~;
#X obj 226 558 + 48;
#X obj 31 415 select 0 1 2 3 4;
#X msg 25 485 0;
#X msg 86 485 5;
#X msg 152 485 12;
#X obj 205 335 * 12;
#X obj 205 313 random 4;
#X obj 205 358 + 24;
#X msg 57 485 3;
#X msg 118 486 7;
#X obj 31 362 spigot;
#X obj 9 47 tgl 15 0 empty empty melodic 0 -6 0 8 -241291 -1 -1 0 1
;
#X obj 205 287 spigot;
#X obj 62 47 tgl 15 0 empty empty octavic 0 -6 0 8 -241291 -1 -1 0
1;
#X obj 126 15 vsl 15 128 125 1500 1 0 empty empty decay 0 -8 0 8 -241291
-1 -1 0 1;
#X obj 299 512 / 2;
#X obj 268 561 *~ 1200;
#X obj 505 385 dac~;
#X obj 253 240 / 4;
#N canvas 0 22 506 356 Aad 0;
#X obj 185 45 inlet;
#X obj 152 253 outlet~;
#X obj 145 164 delay 1;
#X msg 199 163 0 \$1;
#X obj 209 139 f 250;
#X msg 227 108 bang;
#X obj 255 45 inlet;
#X msg 126 131 0.5;
#X obj 142 204 vline~;
#X connect 0 0 7 0;
#X connect 2 0 5 0;
#X connect 3 0 8 0;
#X connect 4 0 3 0;
#X connect 5 0 4 0;
#X connect 6 0 4 1;
#X connect 7 0 2 0;
#X connect 7 0 8 0;
#X connect 8 0 1 0;
#X restore 332 561 pd Aad;
#N canvas 0 22 498 348 Fad 0;
#X obj 185 45 inlet;
#X obj 152 253 outlet~;
#X obj 145 164 delay 1;
#X msg 128 139 1 1;
#X msg 199 163 0 \$1;
#X obj 209 139 f 250;
#X msg 227 108 bang;
#X obj 255 45 inlet;
#X obj 142 204 vline~;
#X connect 0 0 3 0;
#X connect 2 0 6 0;
#X connect 3 0 2 0;
#X connect 3 0 8 0;
#X connect 4 0 8 0;
#X connect 5 0 4 0;
#X connect 6 0 5 0;
#X connect 7 0 5 1;
#X connect 8 0 1 0;
#X restore 268 537 pd Fad;
#N canvas 230 143 502 352 fx 0;
#X obj 172 3 inlet;
#X obj 48 55 *~ 220;
#X obj 95 211 *~;
#X obj 109 240 outlet~;
#X obj 30 31 osc~ 0.08;
#X msg 172 43 1 \, 0 125;
#X obj 59 103 osc~;
#X obj 270 7 inlet;
#X obj 302 236 outlet~;
#X obj 314 127 vd~ d1;
#X obj 314 104 sig~;
#X obj 313 78 + 125;
#X floatatom 242 116 5 0 0 0 - - -;
#X obj 418 241 outlet~;
#X obj 430 132 vd~ d1;
#X obj 430 109 sig~;
#X obj 429 83 + 125;
#X floatatom 358 121 5 0 0 0 - - -;
#X obj 316 211 *~;
#X obj 434 215 *~;
#X obj 85 299 delwrite~ d1 5000;
#X obj 287 53 * 5;
#X obj 403 58 * 7.5;
#X obj 33 78 +~ 220;
#X obj 131 78 vline~;
#X connect 0 0 5 0;
#X connect 1 0 23 0;
#X connect 2 0 3 0;
#X connect 2 0 20 0;
#X connect 4 0 1 0;
#X connect 5 0 24 0;
#X connect 6 0 2 0;
#X connect 6 0 18 1;
#X connect 6 0 19 1;
#X connect 7 0 21 0;
#X connect 7 0 22 0;
#X connect 9 0 18 0;
#X connect 10 0 9 0;
#X connect 11 0 10 0;
#X connect 11 0 12 0;
#X connect 14 0 19 0;
#X connect 15 0 14 0;
#X connect 16 0 15 0;
#X connect 16 0 17 0;
#X connect 18 0 8 0;
#X connect 19 0 13 0;
#X connect 21 0 11 0;
#X connect 22 0 16 0;
#X connect 23 0 6 0;
#X connect 24 0 2 1;
#X restore 581 573 pd fx;
#X obj 606 505 timer;
#X obj 581 551 metro;
#X obj 581 530 tgl 15 0 empty empty empty 0 -6 0 8 -262144 -1 -1 0
1;
#X obj 576 628 dac~;
#X obj 606 527 * 1.25;
#X obj 575 599 /~ 4;
#X obj 624 652 dac~;
#X obj 614 611 /~ 8;
#X obj 659 613 /~ 8;
#X msg 226 531 bang;
#X msg 368 146 500;
#X obj 617 265 dac~;
#N canvas 0 22 486 336 snare 0;
#X obj 120 33 inlet;
#X obj 145 336 outlet~;
#X obj 182 149 osc~;
#X obj 140 240 +~;
#X obj 157 308 *~;
#X obj 48 172 noise~;
#X obj 181 182 *~ 0.5;
#X msg 117 63 440 \, 220 25;
#X msg 236 181 1 \, 0 75;
#X obj 120 89 vline~;
#X obj 236 218 vline~;
#X connect 0 0 7 0;
#X connect 0 0 8 0;
#X connect 2 0 6 0;
#X connect 3 0 4 0;
#X connect 4 0 1 0;
#X connect 5 0 3 0;
#X connect 6 0 3 1;
#X connect 7 0 9 0;
#X connect 8 0 10 0;
#X connect 9 0 2 0;
#X connect 10 0 4 1;
#X restore 616 212 pd snare;
#X obj 622 139 tgl 15 0 empty empty empty 0 -6 0 8 -262144 -1 -1 0
1;
#X obj 616 165 select 1;
#X obj 357 360 spigot;
#X obj 9 82 tgl 15 0 empty empty bdrum 0 -6 0 8 -241291 -1 -1 0 1;
#X obj 616 188 spigot;
#X obj 51 82 tgl 15 0 empty empty snare 0 -6 0 8 -241291 -1 -1 0 1
;
#X obj 91 82 tgl 15 0 empty empty bass 0 -6 0 8 -241291 -1 -1 0 1;
#X obj 225 636 *~;
#X obj 268 637 *~;
#X obj 368 122 loadbang;
#N canvas 0 22 478 328 clack 0;
#X obj 120 33 inlet;
#X obj 145 336 outlet~;
#X obj 127 201 osc~;
#X obj 183 116 *~ 0.5;
#X obj 176 203 osc~;
#X obj 140 240 +~;
#X obj 157 308 *~;
#X msg 236 181 1 \, 0 15;
#X msg 118 63 2050 \, 0 50;
#X obj 120 89 vline~;
#X obj 236 218 vline~;
#X connect 0 0 8 0;
#X connect 0 0 7 0;
#X connect 2 0 5 0;
#X connect 3 0 4 0;
#X connect 4 0 5 1;
#X connect 5 0 6 0;
#X connect 6 0 1 0;
#X connect 7 0 10 0;
#X connect 8 0 9 0;
#X connect 9 0 3 0;
#X connect 9 0 2 0;
#X connect 10 0 6 1;
#X restore 509 335 pd clack;
#X obj 558 287 * 1.66667;
#X obj 167 15 vsl 15 128 200 2000 0 0 empty empty cutoff 0 -8 0 8 -241291
-1 -1 0 1;
#X obj 357 412 /~ 4;
#X obj 616 237 /~ 4;
#X obj 509 356 /~ 4;
#X obj 357 337 metro;
#X obj 205 264 metro;
#X obj 509 312 metro;
#X obj 156 429 select 0 1;
#X msg 183 451 12;
#X obj 31 390 random 9;
#X msg 156 451 19;
#X obj 149 377 f;
#X obj 180 376 + 1;
#X obj 156 407 % 2;
#X obj 85 575 - 48;
#X floatatom 85 599 5 0 0 0 - - -;
#X obj 616 348 s~ a1;
#X obj 431 470 s~ a2;
#X obj 279 688 s~ a3;
#X obj 224 657 outlet~;
#X obj 284 661 outlet~;
#X connect 0 0 1 0;
#X connect 0 1 2 0;
#X connect 1 0 48 0;
#X connect 2 0 49 0;
#X connect 3 0 57 0;
#X connect 3 0 58 0;
#X connect 3 0 59 0;
#X connect 4 0 54 0;
#X connect 6 0 0 0;
#X connect 6 0 67 0;
#X connect 7 0 8 0;
#X connect 7 1 14 0;
#X connect 7 2 9 0;
#X connect 7 3 15 0;
#X connect 7 4 10 0;
#X connect 7 5 64 0;
#X connect 8 0 6 0;
#X connect 9 0 6 0;
#X connect 10 0 6 0;
#X connect 11 0 13 0;
#X connect 12 0 11 0;
#X connect 13 0 6 1;
#X connect 13 0 37 0;
#X connect 14 0 6 0;
#X connect 15 0 6 0;
#X connect 16 0 62 0;
#X connect 17 0 16 1;
#X connect 18 0 12 0;
#X connect 19 0 18 1;
#X connect 20 0 25 1;
#X connect 20 0 21 0;
#X connect 21 0 26 1;
#X connect 22 0 0 1;
#X connect 24 0 58 1;
#X connect 25 0 1 1;
#X connect 25 0 2 1;
#X connect 26 0 22 0;
#X connect 27 0 33 0;
#X connect 27 1 35 0;
#X connect 27 2 36 0;
#X connect 28 0 32 0;
#X connect 29 0 27 0;
#X connect 30 0 29 0;
#X connect 32 0 29 1;
#X connect 32 0 27 1;
#X connect 33 0 31 0;
#X connect 33 0 31 1;
#X connect 35 0 34 0;
#X connect 36 0 34 1;
#X connect 37 0 6 0;
#X connect 38 0 24 0;
#X connect 38 0 52 0;
#X connect 38 0 57 1;
#X connect 40 0 55 0;
#X connect 40 0 69 0;
#X connect 41 0 42 0;
#X connect 42 0 45 0;
#X connect 43 0 4 0;
#X connect 44 0 43 1;
#X connect 45 0 40 0;
#X connect 46 0 45 1;
#X connect 47 0 48 1;
#X connect 47 0 49 1;
#X connect 48 0 71 0;
#X connect 48 0 72 0;
#X connect 49 0 73 0;
#X connect 50 0 38 0;
#X connect 51 0 56 0;
#X connect 52 0 59 1;
#X connect 53 0 22 1;
#X connect 54 0 5 0;
#X connect 54 0 5 1;
#X connect 54 0 70 0;
#X connect 55 0 39 0;
#X connect 55 0 39 1;
#X connect 56 0 23 0;
#X connect 56 0 23 1;
#X connect 57 0 28 0;
#X connect 57 0 30 0;
#X connect 57 0 41 0;
#X connect 57 0 43 0;
#X connect 58 0 25 0;
#X connect 58 0 18 0;
#X connect 58 0 26 0;
#X connect 58 0 16 0;
#X connect 59 0 51 0;
#X connect 59 0 28 1;
#X connect 60 0 63 0;
#X connect 60 1 61 0;
#X connect 61 0 37 0;
#X connect 62 0 7 0;
#X connect 63 0 37 0;
#X connect 64 0 65 0;
#X connect 64 0 66 0;
#X connect 65 0 64 1;
#X connect 66 0 60 0;
#X connect 67 0 68 0;
#X coords 0 1 100 -1 200 150 1 0 0;
#X restore 9 -110 graph;
#N canvas 0 22 450 300 (subpatch) 0;
#X obj 59 155 inlet;
#X obj 3 89 inlet~;
#X obj 58 182 change;
#X msg 60 246 set \$1;
#X obj 60 227 tosymbol;
#X obj 59 204 sprintf Bus%d;
#X obj 3 282 throw~ Bus0;
#X obj 2 3 popup 124 25 #ffffff popup Bus0 Bus1 Bus2 Bus3 Bus4 Bus5
;
#X obj 1 32 route bang;
#X obj 154 202 *~;
#X obj 141 7 tgl 15 0 empty empty Dac 19 7 0 10 -262144 -1 -1 0 1;
#X obj 155 238 dac~;
#X obj 1 -41 loadbang;
#X text 59 -43 Bus0 mutes;
#X msg 1 -23 options Bus0 Bus1 Bus2 Bus3 Bus4 Bus5 Bus6 Bus7 Bus8 Bus9
Bus10 Bus11 Bus12 Bus13 Bus14 Bus15 Bus16;
#X connect 0 0 2 0;
#X connect 1 0 6 0;
#X connect 1 0 9 0;
#X connect 2 0 5 0;
#X connect 3 0 6 0;
#X connect 4 0 3 0;
#X connect 5 0 4 0;
#X connect 7 0 8 0;
#X connect 8 1 2 0;
#X connect 9 0 11 0;
#X connect 10 0 9 1;
#X connect 12 0 14 0;
#X connect 14 0 7 0;
#X coords 0 1 100 -1 180 30 1 0 0;
#X restore 9 43 graph;
#N canvas 0 22 450 300 (subpatch) 0;
#X obj 59 155 inlet;
#X obj 3 89 inlet~;
#X obj 58 182 change;
#X msg 60 246 set \$1;
#X obj 60 227 tosymbol;
#X obj 59 204 sprintf Bus%d;
#X obj 3 282 throw~ Bus0;
#X obj 2 3 popup 124 25 #ffffff popup Bus0 Bus1 Bus2 Bus3 Bus4 Bus5
;
#X obj 1 32 route bang;
#X obj 154 202 *~;
#X obj 141 7 tgl 15 0 empty empty Dac 19 7 0 10 -262144 -1 -1 0 1;
#X obj 155 238 dac~;
#X obj 1 -41 loadbang;
#X text 59 -43 Bus0 mutes;
#X msg 1 -23 options Bus0 Bus1 Bus2 Bus3 Bus4 Bus5 Bus6 Bus7 Bus8 Bus9
Bus10 Bus11 Bus12 Bus13 Bus14 Bus15 Bus16;
#X connect 0 0 2 0;
#X connect 1 0 6 0;
#X connect 1 0 9 0;
#X connect 2 0 5 0;
#X connect 3 0 6 0;
#X connect 4 0 3 0;
#X connect 5 0 4 0;
#X connect 7 0 8 0;
#X connect 8 1 2 0;
#X connect 9 0 11 1;
#X connect 10 0 9 1;
#X connect 12 0 14 0;
#X connect 14 0 7 0;
#X coords 0 1 100 -1 180 30 1 0 0;
#X restore 9 76 graph;
#X text -5 47 L;
#X text -6 80 R;
#X connect 0 0 1 0;
#X connect 0 1 2 0;
