#N canvas 310 25 545 180 10;
#X declare -path z_crcseq_abs;
#N canvas 69 59 653 472 win 0;
#X obj 93 337 gemwin;
#X msg 148 263 0 \, destroy;
#X obj 111 218 sel 1 0;
#X obj 103 103 tgl 15 0 empty empty empty 17 7 0 10 -262144 -1 -1 0
1;
#X obj 344 170 gemhead;
#X obj 344 197 translateXYZ 0 0 3;
#X obj 344 227 light;
#X msg 93 306 dimen 300 300 \, lighting 1 \, create \, 1;
#X connect 1 0 0 0;
#X connect 2 0 7 0;
#X connect 2 1 1 0;
#X connect 3 0 2 0;
#X connect 4 0 5 0;
#X connect 5 0 6 0;
#X connect 7 0 0 0;
#X coords 0 -1 1 1 21 21 2 100 100;
#X restore 7 -76 pd win;
#X text 33 -75 GEM window;
#X obj 7 -54 cnv 15 314 116 empty empty empty 20 12 0 14 -1 -66577
0;
#X obj 9 -52 cnv 15 310 112 empty empty empty 20 12 0 14 -128992 -66577
0;
#X obj 74 -39 tgl 22 0 \$0-g_start \$0-g_start_r global_start/stop
24 9 0 10 -261682 -1 -262144 0 1;
#X obj 73 -13 cnv 15 240 66 empty empty empty 20 12 0 14 -191407 -66577
0;
#X obj 78 -4 tgl 15 0 \$0-st1 \$0-str1 empty 17 7 0 10 -262144 -1 -1
0 1;
#X obj 78 16 nbx 2 14 2 25 0 0 \$0-sp1 \$0-spr1 empty 0 -8 0 10 -262144
-1 -1 2 256;
#X obj 118 -4 tgl 15 0 \$0-st2 \$0-str2 empty 17 7 0 10 -262144 -1
-1 0 1;
#X obj 118 16 nbx 2 14 2 25 0 0 \$0-sp2 \$0-spr2 empty 0 -8 0 10 -262144
-1 -1 2 256;
#X obj 158 -4 tgl 15 0 \$0-st3 \$0-str3 empty 17 7 0 10 -262144 -1
-1 0 1;
#X obj 158 16 nbx 2 14 2 25 0 0 \$0-sp3 \$0-spr3 empty 0 -8 0 10 -262144
-1 -1 2 256;
#X obj 198 -4 tgl 15 0 \$0-st4 \$0-str4 empty 17 7 0 10 -262144 -1
-1 0 1;
#X obj 198 16 nbx 2 14 2 25 0 0 \$0-sp4 \$0-spr4 empty 0 -8 0 10 -262144
-1 -1 2 256;
#X obj 238 -4 tgl 15 0 \$0-st5 \$0-str5 empty 17 7 0 10 -262144 -1
-1 0 1;
#X obj 238 16 nbx 2 14 2 25 0 0 \$0-sp5 \$0-spr5 empty 0 -8 0 10 -262144
-1 -1 2 256;
#X obj 278 -4 tgl 15 0 \$0-st6 \$0-str6 empty 17 7 0 10 -262144 -1
-1 0 1;
#X obj 278 16 nbx 2 14 2 25 0 0 \$0-sp6 \$0-spr6 empty 0 -8 0 10 -262144
-1 -1 2 256;
#X obj 78 35 nbx 2 14 30 99 0 0 \$0-pt1 \$0-ptr1 empty 0 -8 0 10 -262144
-1 -1 30 256;
#X obj 118 35 nbx 2 14 30 99 0 0 \$0-pt2 \$0-ptr2 empty 0 -8 0 10 -262144
-1 -1 30 256;
#X obj 158 35 nbx 2 14 30 99 0 0 \$0-pt3 \$0-ptr3 empty 0 -8 0 10 -262144
-1 -1 30 256;
#X obj 198 35 nbx 2 14 30 99 0 0 \$0-pt4 \$0-ptr4 empty 0 -8 0 10 -262144
-1 -1 30 256;
#X obj 238 35 nbx 2 14 30 99 0 0 \$0-pt5 \$0-ptr5 empty 0 -8 0 10 -262144
-1 -1 30 256;
#X obj 278 35 nbx 2 14 30 99 0 0 \$0-pt6 \$0-ptr6 empty 0 -8 0 10 -262144
-1 -1 30 256;
#X obj 15 -4 cnv 12 55 15 empty empty on/off 2 8 0 14 -1 -262144 0
;
#X obj 15 16 cnv 12 55 15 empty empty speed 2 8 0 14 -99865 -262144
0;
#X obj 15 36 cnv 12 55 15 empty empty pitch 2 8 0 14 -191407 -262144
0;
#X obj 214 -36 bng 15 250 50 0 \$0-rst \$0-rst_r reset 17 7 0 10 -261682
-1 -262144;
#N canvas 0 26 769 487 fm's 0;
#X obj 25 149 simpFM~;
#X obj 25 25 r \$0-pt1;
#X obj 82 94 r \$0-t1;
#X obj 26 179 *~ 0.1;
#X obj 25 222 *~;
#X obj 82 149 vline~;
#X msg 82 118 0 \, 1 5 \, 0 2000 5;
#X obj 195 149 simpFM~;
#X obj 196 179 *~ 0.1;
#X obj 195 222 *~;
#X obj 252 149 vline~;
#X msg 252 118 0 \, 1 5 \, 0 2000 5;
#X obj 365 149 simpFM~;
#X obj 366 179 *~ 0.1;
#X obj 365 222 *~;
#X obj 422 149 vline~;
#X msg 422 118 0 \, 1 5 \, 0 2000 5;
#X obj 535 149 simpFM~;
#X obj 536 179 *~ 0.1;
#X obj 535 222 *~;
#X obj 592 149 vline~;
#X msg 592 118 0 \, 1 5 \, 0 2000 5;
#X obj 195 25 r \$0-pt2;
#X obj 365 25 r \$0-pt3;
#X obj 535 25 r \$0-pt4;
#X obj 252 94 r \$0-t2;
#X obj 422 94 r \$0-t3;
#X obj 592 94 r \$0-t4;
#X obj 271 338 simpFM~;
#X obj 272 368 *~ 0.1;
#X obj 271 411 *~;
#X obj 328 338 vline~;
#X msg 328 307 0 \, 1 5 \, 0 2000 5;
#X obj 441 338 simpFM~;
#X obj 442 368 *~ 0.1;
#X obj 441 411 *~;
#X obj 498 338 vline~;
#X msg 498 307 0 \, 1 5 \, 0 2000 5;
#X obj 271 214 r \$0-pt5;
#X obj 441 214 r \$0-pt6;
#X obj 328 283 r \$0-t5;
#X obj 498 283 r \$0-t6;
#X obj 359 460 outlet~;
#X obj 479 -11 osc~ 0.1;
#X obj 479 13 *~ 0.5;
#X obj 481 38 +~ 0.5;
#X obj 479 63 *~ 500;
#X obj 479 92 +~ 100;
#X connect 0 0 3 0;
#X connect 1 0 0 0;
#X connect 2 0 6 0;
#X connect 3 0 4 0;
#X connect 4 0 42 0;
#X connect 5 0 4 1;
#X connect 6 0 5 0;
#X connect 7 0 8 0;
#X connect 8 0 9 0;
#X connect 9 0 42 0;
#X connect 10 0 9 1;
#X connect 11 0 10 0;
#X connect 12 0 13 0;
#X connect 13 0 14 0;
#X connect 14 0 42 0;
#X connect 15 0 14 1;
#X connect 16 0 15 0;
#X connect 17 0 18 0;
#X connect 18 0 19 0;
#X connect 19 0 42 0;
#X connect 20 0 19 1;
#X connect 21 0 20 0;
#X connect 22 0 7 0;
#X connect 23 0 12 0;
#X connect 24 0 17 0;
#X connect 25 0 11 0;
#X connect 26 0 16 0;
#X connect 27 0 21 0;
#X connect 28 0 29 0;
#X connect 29 0 30 0;
#X connect 30 0 42 0;
#X connect 31 0 30 1;
#X connect 32 0 31 0;
#X connect 33 0 34 0;
#X connect 34 0 35 0;
#X connect 35 0 42 0;
#X connect 36 0 35 1;
#X connect 37 0 36 0;
#X connect 38 0 28 0;
#X connect 39 0 33 0;
#X connect 40 0 32 0;
#X connect 41 0 37 0;
#X connect 43 0 44 0;
#X connect 44 0 45 0;
#X connect 45 0 46 0;
#X connect 46 0 47 0;
#X connect 47 0 0 2;
#X connect 47 0 7 2;
#X connect 47 0 17 2;
#X connect 47 0 28 2;
#X connect 47 0 33 2;
#X connect 47 0 12 2;
#X restore 325 -7 pd fm's;
#N canvas 0 22 450 300 vis 0;
#N canvas 0 22 450 300 backg 0;
#X obj 133 50 gemhead;
#X obj 133 104 torus 3.5 100 0.1;
#X obj 248 71 color 0.5 0.5 0.5;
#X obj 133 80 color 0.7 0.7 0.7;
#X obj 248 43 gemhead;
#X obj 248 102 square 4;
#X obj 261 171 gemhead;
#X obj 261 200 color 0 0 0;
#X obj 261 231 circle 3.4;
#X connect 0 0 3 0;
#X connect 2 0 5 0;
#X connect 3 0 1 0;
#X connect 4 0 2 0;
#X connect 6 0 7 0;
#X connect 7 0 8 0;
#X restore 60 -35 pd backg;
#N canvas 0 22 450 300 balls 0;
#X obj 14 151 rotateXYZ;
#X obj 14 112 gemhead;
#X obj 152 152 rotateXYZ;
#X obj 152 113 gemhead;
#X obj 14 179 translateXYZ -0.3 0 0;
#X obj 14 209 sphere 0.15 30;
#X obj 152 210 sphere 0.15 30;
#X obj 152 180 translateXYZ -0.8 0 0;
#X obj 297 149 rotateXYZ;
#X obj 297 110 gemhead;
#X obj 297 207 sphere 0.15 30;
#X obj 297 177 translateXYZ -1.3 0 0;
#X obj 15 286 rotateXYZ;
#X obj 15 247 gemhead;
#X obj 153 287 rotateXYZ;
#X obj 153 248 gemhead;
#X obj 15 344 sphere 0.15 30;
#X obj 153 345 sphere 0.15 30;
#X obj 298 284 rotateXYZ;
#X obj 298 245 gemhead;
#X obj 298 342 sphere 0.15 30;
#X obj 15 314 translateXYZ -1.8 0 0;
#X obj 153 315 translateXYZ -2.3 0 0;
#X obj 298 312 translateXYZ -2.8 0 0;
#X obj 79 76 r \$0-b1;
#X obj 217 84 r \$0-b2;
#X obj 364 86 r \$0-b3;
#X obj 80 229 r \$0-b4;
#X obj 218 237 r \$0-b5;
#X obj 365 239 r \$0-b6;
#X connect 0 0 4 0;
#X connect 1 0 0 0;
#X connect 2 0 7 0;
#X connect 3 0 2 0;
#X connect 4 0 5 0;
#X connect 7 0 6 0;
#X connect 8 0 11 0;
#X connect 9 0 8 0;
#X connect 11 0 10 0;
#X connect 12 0 21 0;
#X connect 13 0 12 0;
#X connect 14 0 22 0;
#X connect 15 0 14 0;
#X connect 18 0 23 0;
#X connect 19 0 18 0;
#X connect 21 0 16 0;
#X connect 22 0 17 0;
#X connect 23 0 20 0;
#X connect 24 0 0 3;
#X connect 25 0 2 3;
#X connect 26 0 8 3;
#X connect 27 0 12 3;
#X connect 28 0 14 3;
#X connect 29 0 18 3;
#X restore 120 -36 pd balls;
#N canvas 0 26 769 487 move 0;
#X obj 40 218 metro 7;
#X msg 180 109 0;
#X obj 40 248 i;
#X obj 72 248 + 1;
#X obj 40 275 % 360;
#X obj 40 303 * -1;
#X obj 40 325 + 360;
#X obj 40 353 s \$0-b1;
#X obj 95 328 sel 90;
#X obj 95 353 s \$0-t1;
#X obj 31 164 r \$0-st1;
#X obj 92 175 r \$0-sp1;
#X obj 180 248 i;
#X obj 212 248 + 1;
#X obj 180 275 % 360;
#X obj 180 303 * -1;
#X obj 180 325 + 360;
#X obj 235 328 sel 90;
#X obj 330 248 i;
#X obj 362 248 + 1;
#X obj 330 275 % 360;
#X obj 330 303 * -1;
#X obj 330 325 + 360;
#X obj 385 328 sel 90;
#X obj 300 508 i;
#X obj 332 508 + 1;
#X obj 300 535 % 360;
#X obj 300 563 * -1;
#X obj 300 585 + 360;
#X obj 355 588 sel 90;
#X obj 440 508 i;
#X obj 472 508 + 1;
#X obj 440 535 % 360;
#X obj 440 563 * -1;
#X obj 440 585 + 360;
#X obj 495 588 sel 90;
#X obj 590 508 i;
#X obj 622 508 + 1;
#X obj 590 535 % 360;
#X obj 590 563 * -1;
#X obj 590 585 + 360;
#X obj 645 588 sel 90;
#X obj 180 218 metro 12;
#X obj 330 218 metro 5;
#X obj 299 478 metro 15;
#X obj 440 478 metro 8;
#X obj 590 478 metro 10;
#X obj 171 164 r \$0-st2;
#X obj 232 175 r \$0-sp2;
#X obj 321 164 r \$0-st3;
#X obj 382 175 r \$0-sp3;
#X obj 291 424 r \$0-st4;
#X obj 352 435 r \$0-sp4;
#X obj 431 424 r \$0-st5;
#X obj 492 435 r \$0-sp5;
#X obj 581 424 r \$0-st6;
#X obj 642 435 r \$0-sp6;
#X obj 180 353 s \$0-b2;
#X obj 235 353 s \$0-t2;
#X obj 330 353 s \$0-b3;
#X obj 385 353 s \$0-t3;
#X obj 300 613 s \$0-b4;
#X obj 355 613 s \$0-t4;
#X obj 440 613 s \$0-b5;
#X obj 495 613 s \$0-t5;
#X obj 590 613 s \$0-b6;
#X obj 645 613 s \$0-t6;
#X msg 511 111 0 \, 1 100;
#X msg 578 111 1 \, 0 100;
#X obj 580 73 del 100;
#X obj 430 46 t b;
#X obj 561 182 line;
#X obj 551 316 curve 2;
#X msg 583 244 0 0 0;
#X msg 636 247 0 3.5 0;
#X obj 477 210 gemhead;
#X obj 643 190 loadbang;
#X msg 705 254 width 2;
#X obj 485 271 color 0 0 0;
#X msg 513 237 \$1 \$1 \$1;
#X obj 174 71 r \$0-rst;
#X connect 0 0 2 0;
#X connect 1 0 2 1;
#X connect 1 0 12 1;
#X connect 1 0 18 1;
#X connect 1 0 24 1;
#X connect 1 0 30 1;
#X connect 1 0 36 1;
#X connect 2 0 3 0;
#X connect 2 0 4 0;
#X connect 3 0 2 1;
#X connect 4 0 5 0;
#X connect 4 0 8 0;
#X connect 5 0 6 0;
#X connect 6 0 7 0;
#X connect 8 0 9 0;
#X connect 8 0 70 0;
#X connect 10 0 0 0;
#X connect 11 0 0 1;
#X connect 12 0 13 0;
#X connect 12 0 14 0;
#X connect 13 0 12 1;
#X connect 14 0 15 0;
#X connect 14 0 17 0;
#X connect 15 0 16 0;
#X connect 16 0 57 0;
#X connect 17 0 58 0;
#X connect 17 0 70 0;
#X connect 18 0 19 0;
#X connect 18 0 20 0;
#X connect 19 0 18 1;
#X connect 20 0 21 0;
#X connect 20 0 23 0;
#X connect 21 0 22 0;
#X connect 22 0 59 0;
#X connect 23 0 60 0;
#X connect 23 0 70 0;
#X connect 24 0 25 0;
#X connect 24 0 26 0;
#X connect 25 0 24 1;
#X connect 26 0 27 0;
#X connect 26 0 29 0;
#X connect 27 0 28 0;
#X connect 28 0 61 0;
#X connect 29 0 62 0;
#X connect 29 0 70 0;
#X connect 30 0 31 0;
#X connect 30 0 32 0;
#X connect 31 0 30 1;
#X connect 32 0 33 0;
#X connect 32 0 35 0;
#X connect 33 0 34 0;
#X connect 34 0 63 0;
#X connect 35 0 64 0;
#X connect 35 0 70 0;
#X connect 36 0 37 0;
#X connect 36 0 38 0;
#X connect 37 0 36 1;
#X connect 38 0 39 0;
#X connect 38 0 41 0;
#X connect 39 0 40 0;
#X connect 40 0 65 0;
#X connect 41 0 66 0;
#X connect 41 0 70 0;
#X connect 42 0 12 0;
#X connect 43 0 18 0;
#X connect 44 0 24 0;
#X connect 45 0 30 0;
#X connect 46 0 36 0;
#X connect 47 0 42 0;
#X connect 48 0 42 1;
#X connect 49 0 43 0;
#X connect 50 0 43 1;
#X connect 51 0 44 0;
#X connect 52 0 44 1;
#X connect 53 0 45 0;
#X connect 54 0 45 1;
#X connect 55 0 46 0;
#X connect 56 0 46 1;
#X connect 67 0 71 0;
#X connect 68 0 71 0;
#X connect 69 0 68 0;
#X connect 70 0 69 0;
#X connect 70 0 67 0;
#X connect 71 0 79 0;
#X connect 73 0 72 1;
#X connect 74 0 72 2;
#X connect 75 0 78 0;
#X connect 76 0 73 0;
#X connect 76 0 74 0;
#X connect 76 0 77 0;
#X connect 77 0 72 0;
#X connect 78 0 72 0;
#X connect 79 0 78 1;
#X connect 80 0 1 0;
#X restore 179 -38 pd move;
#X obj 103 70 r \$0-g_start;
#X obj 75 152 s \$0-str2;
#X obj 8 153 s \$0-str1;
#X obj 142 151 s \$0-str3;
#X obj 209 150 s \$0-str4;
#X obj 275 152 s \$0-str5;
#X obj 342 151 s \$0-str6;
#X connect 3 0 5 0;
#X connect 3 0 4 0;
#X connect 3 0 6 0;
#X connect 3 0 7 0;
#X connect 3 0 8 0;
#X connect 3 0 9 0;
#X restore 325 -26 pd vis;
#N canvas 0 22 450 300 dl 0;
#X obj 137 31 inlet~;
#X obj 170 118 *~ 0.5;
#X obj 237 114 delwrite~ \$0-dl1 2000;
#X obj 253 64 *~ 0.5;
#X obj 254 37 delread~ \$0-dl1 600;
#X obj 130 208 outlet~;
#X connect 0 0 2 0;
#X connect 0 0 5 0;
#X connect 1 0 5 0;
#X connect 3 0 2 0;
#X connect 4 0 3 0;
#X connect 4 0 1 0;
#X restore 325 12 pd dl;
#N canvas 0 22 450 300 (subpatch) 0;
#X obj 59 155 inlet;
#X obj 3 89 inlet~;
#X obj 58 182 change;
#X msg 60 246 set \$1;
#X obj 60 227 tosymbol;
#X obj 59 204 sprintf Bus%d;
#X obj 3 282 throw~ Bus0;
#X obj 2 3 popup 124 25 #ffffff popup Bus0 Bus1 Bus2 Bus3 Bus4 Bus5
Bus6 Bus7 Bus8 Bus9 Bus10 Bus11 Bus12 Bus13 Bus14 Bus15 Bus16;
#X obj 1 32 route bang;
#X obj 154 202 *~;
#X obj 141 7 tgl 15 0 empty empty Dac 19 7 0 10 -262144 -1 -1 0 1;
#X obj 155 238 dac~;
#X obj 1 -49 loadbang;
#X text 59 -51 Bus0 mutes;
#X msg 1 -31 options Bus0 Bus1 Bus2 Bus3 Bus4 Bus5 Bus6 Bus7 Bus8 Bus9
Bus10 Bus11 Bus12 Bus13 Bus14 Bus15 Bus16;
#X connect 0 0 2 0;
#X connect 1 0 6 0;
#X connect 1 0 9 0;
#X connect 2 0 5 0;
#X connect 3 0 6 0;
#X connect 4 0 3 0;
#X connect 5 0 4 0;
#X connect 7 0 8 0;
#X connect 8 1 2 0;
#X connect 9 0 11 0;
#X connect 9 0 11 1;
#X connect 10 0 9 1;
#X connect 12 0 14 0;
#X connect 14 0 7 0;
#X coords 0 1 100 -1 180 30 1 0 0;
#X restore 325 31 graph;
#X obj 326 -53 declare -path z_crcseq_abs;
#X connect 28 0 30 0;
#X connect 30 0 31 0;
