#N canvas 365 152 477 310 10;
#N canvas 349 188 713 651 16counter 0;
#X obj 301 409 + 1;
#X obj 250 405 float;
#X obj 273 490 mod 2;
#X obj 211 540 delay 0;
#X obj 261 519 *;
#X msg 206 296 1;
#X obj 218 321 /;
#X obj 209 273 t f f;
#X obj 228 344 * 15000;
#X obj 380 347 t b f;
#X obj 246 374 metro 125;
#X obj 221 484 *;
#X obj 282 457 t b f f;
#X obj 137 131 hsl 80 8 0 0.4 0 1 empty empty swing -35 4 0 8 -262144
-1 -1 500 1;
#X msg 381 321 -2;
#X text 184 439 counter/swing;
#X text 164 367 1/16 in ms;
#X obj 262 590 int;
#X obj 175 43 loadbang;
#X floatatom 130 114 3 30 300 0 - - -;
#X msg 173 173 set \$1;
#X msg 143 207 120;
#X text 103 111 bpm;
#X obj 184 116 bng 12 250 50 0 empty empty sync -25 7 0 8 -262144 -1
-1;
#X obj 264 627 outlet;
#X obj 424 146 outlet;
#X text 472 147 bpm->;
#X text 315 628 pos->;
#X connect 0 0 1 1;
#X connect 0 0 12 0;
#X connect 1 0 0 0;
#X connect 2 0 4 0;
#X connect 3 0 17 0;
#X connect 4 0 3 1;
#X connect 5 0 6 0;
#X connect 6 0 8 0;
#X connect 7 0 5 0;
#X connect 7 1 6 1;
#X connect 8 0 10 1;
#X connect 8 0 11 1;
#X connect 9 0 10 0;
#X connect 9 1 1 0;
#X connect 10 0 1 0;
#X connect 11 0 4 1;
#X connect 12 0 3 0;
#X connect 12 1 2 0;
#X connect 12 2 17 1;
#X connect 13 0 11 0;
#X connect 14 0 9 0;
#X connect 17 0 24 0;
#X connect 18 0 21 0;
#X connect 18 0 23 0;
#X connect 19 0 20 0;
#X connect 19 0 7 0;
#X connect 19 0 25 0;
#X connect 20 0 21 0;
#X connect 21 0 19 0;
#X connect 23 0 14 0;
#X coords 0 -1 1 1 120 40 1 100 100;
#X restore -23 -126 pd 16counter;
#N canvas 147 63 1036 854 sparse_sq1 0;
#X obj 50 -21 inlet;
#X obj 247 104 hsl 128 8 0 1 0 0 empty empty empty -2 -8 0 10 -262144
-1 -1 1984 1;
#X obj 102 134 nbx 3 12 1 127 0 0 empty empty empty 0 -8 0 10 -262144
-1 -1 61 256;
#X msg -181 348 set \$1 \$2 \$3;
#X obj -181 325 pack 0 0 0;
#X obj 105 148 hsl 32 8 0.5 16 0 0 empty empty empty -2 -8 0 10 -262144
-1 -1 800 1;
#X obj 102 159 nbx 3 12 0 128 0 0 empty empty empty 0 -8 0 10 -233017
-1 -262144 1 256;
#X obj -177 291 t b;
#X obj 102 116 bng 15 250 50 0 empty empty V 5 8 0 10 -262144 -1 -1
;
#X obj -52 74 int;
#X obj 142 134 nbx 3 12 1 127 0 0 empty empty empty 0 -8 0 10 -262144
-1 -1 51 256;
#X msg -41 335 set \$1 \$2 \$3;
#X obj -41 312 pack 0 0 0;
#X msg -65 388 7 51 5;
#X obj 145 148 hsl 32 8 0.5 16 0 0 empty empty empty -2 -8 0 10 -262144
-1 -1 900 1;
#X obj 142 159 nbx 3 12 0 128 0 0 empty empty empty 0 -8 0 10 -262144
-1 -262144 7 256;
#X obj -45 285 t b;
#X obj 142 116 bng 15 250 50 0 empty empty V 5 8 0 10 -262144 -1 -1
;
#X obj -38 255 int;
#X obj 182 134 nbx 3 12 1 127 0 0 empty empty empty 0 -8 0 10 -262144
-1 -1 44 256;
#X msg 59 335 set \$1 \$2 \$3;
#X obj 59 312 pack 0 0 0;
#X msg 57 390 21 44 2;
#X obj 185 148 hsl 32 8 0.5 16 0 0 empty empty empty -2 -8 0 10 -262144
-1 -1 300 1;
#X obj 182 159 nbx 3 12 0 128 0 0 empty empty empty 0 -8 0 10 -262144
-1 -262144 21 256;
#X obj 55 285 t b;
#X obj 182 116 bng 15 250 50 0 empty empty V 5 8 0 10 -262144 -1 -1
;
#X obj 62 255 int;
#X obj 222 134 nbx 3 12 1 127 0 0 empty empty empty 0 -8 0 10 -262144
-1 -1 47 256;
#X msg 179 335 set \$1 \$2 \$3;
#X obj 179 312 pack 0 0 0;
#X msg 155 392 22 47 2.5;
#X obj 225 148 hsl 32 8 0.5 16 0 0 empty empty empty -2 -8 0 10 -262144
-1 -1 400 1;
#X obj 222 159 nbx 3 12 0 128 0 0 empty empty empty 0 -8 0 10 -262144
-1 -262144 22 256;
#X obj 175 285 t b;
#X obj 222 116 bng 15 250 50 0 empty empty V 5 8 0 10 -262144 -1 -1
;
#X obj 182 255 int;
#X obj 262 134 nbx 3 12 1 127 0 0 empty empty empty 0 -8 0 10 -262144
-1 -1 34 256;
#X msg 293 346 set \$1 \$2 \$3;
#X obj 293 323 pack 0 0 0;
#X msg 292 391 25 34 2;
#X obj 265 148 hsl 32 8 0.5 16 0 0 empty empty empty -2 -8 0 10 -262144
-1 -1 300 1;
#X obj 262 159 nbx 3 12 0 129 0 0 empty empty empty 0 -8 0 10 -262144
-1 -262144 25 256;
#X obj 289 296 t b;
#X obj 262 116 bng 15 250 50 0 empty empty V 5 8 0 10 -262144 -1 -1
;
#X obj 296 266 int;
#X obj 302 134 nbx 3 12 1 127 0 0 empty empty empty 0 -8 0 10 -262144
-1 -1 32 256;
#X msg 429 335 set \$1 \$2 \$3;
#X obj 429 312 pack 0 0 0;
#X msg 400 395 27 32 1.5;
#X obj 305 148 hsl 32 8 0.5 16 0 0 empty empty empty -2 -8 0 10 -262144
-1 -1 200 1;
#X obj 302 159 nbx 3 12 0 128 0 0 empty empty empty 0 -8 0 10 -262144
-1 -262144 27 256;
#X obj 425 285 t b;
#X obj 302 116 bng 15 250 50 0 empty empty V 5 8 0 10 -262144 -1 -1
;
#X obj 432 255 int;
#X obj 342 134 nbx 3 12 1 127 0 0 empty empty empty 0 -8 0 10 -262144
-1 -1 56 256;
#X msg 529 335 set \$1 \$2 \$3;
#X obj 529 312 pack 0 0 0;
#X msg 524 394 30 56 1;
#X obj 345 148 hsl 32 8 0.5 16 0 0 empty empty empty -2 -8 0 10 -262144
-1 -1 100 1;
#X obj 342 159 nbx 3 12 0 128 0 0 empty empty empty 0 -8 0 10 -262144
-1 -262144 30 256;
#X obj 525 285 t b;
#X obj 342 116 bng 15 250 50 0 empty empty V 5 8 0 10 -262144 -1 -1
;
#X obj 532 255 int;
#X obj 383 134 nbx 3 12 1 127 0 0 empty empty empty 0 -8 0 10 -262144
-1 -1 70 256;
#X msg 649 335 set \$1 \$2 \$3;
#X obj 649 312 pack 0 0 0;
#X msg 629 394 31 70 1;
#X obj 386 148 hsl 32 8 0.5 16 0 0 empty empty empty -2 -8 0 10 -262144
-1 -1 100 1;
#X obj 383 159 nbx 3 12 0 128 0 0 empty empty empty 0 -8 0 10 -262144
-1 -262144 31 256;
#X obj 645 285 t b;
#X obj 382 116 bng 15 250 50 0 empty empty V 5 8 0 10 -262144 -1 -1
;
#X obj 652 255 int;
#X obj 50 1 t b f;
#X obj 382 102 nbx 3 12 1 127 0 1 empty empty empty 0 -8 0 10 -204786
-1 -1 32 256;
#X obj 214 56 /;
#X obj 311 -57 inlet;
#X msg 329 -8 1;
#X obj 341 17 /;
#X obj 332 -31 t f f;
#X obj 342 39 * 15000;
#X text 258 38 1/16 in ms;
#X text 98 -17 pos;
#X text 355 -59 bpm;
#X obj 558 81 loadbang;
#X msg -171 389 1 61 4.5;
#X obj -168 450 moses 0.1;
#X obj -167 425 ==;
#X obj 494 671 outlet;
#X obj -47 644 outlet;
#X obj 356 611 *;
#X obj 494 619 > 0;
#X obj 286 644 pack 0 0;
#X msg 287 690 0 562.5;
#X msg 287 667 set \$1 \$2;
#X msg 243 612 1;
#X obj 494 597 line 0 1;
#X msg 306 614 0;
#X obj 271 584 t b b f;
#X text 383 628 note duration;
#X obj 494 641 change;
#X obj 106 17 mod;
#X obj -185 507 int;
#X obj -149 508 float;
#X obj -59 443 moses 0.1;
#X obj -52 418 ==;
#X obj -63 506 int;
#X obj -27 507 float;
#X obj 62 448 moses 0.1;
#X obj 63 425 ==;
#X obj 45 507 int;
#X obj 81 508 float;
#X obj 170 441 moses 0.1;
#X obj 171 418 ==;
#X obj 165 493 int;
#X obj 205 495 float;
#X obj 284 447 moses 0.1;
#X obj 285 424 ==;
#X obj 267 506 int;
#X obj 303 507 float;
#X obj 392 440 moses 0.1;
#X obj 393 417 ==;
#X obj 389 505 int;
#X obj 425 506 float;
#X obj 514 447 moses 0.1;
#X obj 515 424 ==;
#X obj 496 506 int;
#X obj 533 507 float;
#X obj 622 440 moses 0.1;
#X obj 623 417 ==;
#X obj 622 496 int;
#X obj 659 499 float;
#X obj -240 145 + 1;
#X msg -176 539 color 1000;
#X msg 522 -31 color 0;
#X obj -169 476 t b b;
#X msg -56 539 color 1000;
#X obj -49 476 t b b;
#X msg 70 539 color 1000;
#X obj 77 476 t b b;
#X msg 168 537 color 1000;
#X obj 177 468 t b b;
#X msg 280 532 color 1000;
#X obj 291 476 t b b;
#X msg 385 531 color 1000;
#X obj 410 476 t b b;
#X msg 514 539 color 1000;
#X obj 521 476 t b b;
#X msg 634 529 color 1000;
#X obj 655 468 t b b;
#X obj -309 62 unpack 0 0 0;
#X obj -238 40 unpack 0 0 0;
#X obj -168 14 unpack 0 0 0;
#X obj -82 -11 unpack 0 0 0;
#X obj -308 -6 unpack 0 0 0;
#X obj -208 -28 unpack 0 0 0;
#X obj -114 -53 unpack 0 0 0;
#X obj 1 -64 unpack 0 0 0;
#X connect 0 0 73 0;
#X connect 2 0 4 1;
#X connect 2 0 7 0;
#X connect 2 0 102 1;
#X connect 3 0 85 0;
#X connect 4 0 3 0;
#X connect 5 0 4 2;
#X connect 5 0 7 0;
#X connect 5 0 103 1;
#X connect 6 0 4 0;
#X connect 6 0 87 1;
#X connect 7 0 6 0;
#X connect 8 0 9 0;
#X connect 9 0 6 0;
#X connect 10 0 12 1;
#X connect 10 0 16 0;
#X connect 10 0 106 1;
#X connect 11 0 13 0;
#X connect 12 0 11 0;
#X connect 13 0 151 0;
#X connect 14 0 12 2;
#X connect 14 0 16 0;
#X connect 14 0 107 1;
#X connect 15 0 12 0;
#X connect 15 0 105 1;
#X connect 16 0 15 0;
#X connect 17 0 18 0;
#X connect 18 0 15 0;
#X connect 19 0 21 1;
#X connect 19 0 25 0;
#X connect 19 0 110 1;
#X connect 20 0 22 0;
#X connect 21 0 20 0;
#X connect 22 0 152 0;
#X connect 23 0 21 2;
#X connect 23 0 25 0;
#X connect 23 0 111 1;
#X connect 24 0 21 0;
#X connect 24 0 109 1;
#X connect 25 0 24 0;
#X connect 26 0 27 0;
#X connect 27 0 24 0;
#X connect 28 0 30 1;
#X connect 28 0 34 0;
#X connect 28 0 114 1;
#X connect 29 0 31 0;
#X connect 30 0 29 0;
#X connect 31 0 153 0;
#X connect 32 0 30 2;
#X connect 32 0 34 0;
#X connect 32 0 115 1;
#X connect 33 0 30 0;
#X connect 33 0 113 1;
#X connect 34 0 33 0;
#X connect 35 0 36 0;
#X connect 36 0 33 0;
#X connect 37 0 39 1;
#X connect 37 0 43 0;
#X connect 37 0 118 1;
#X connect 38 0 40 0;
#X connect 39 0 38 0;
#X connect 40 0 154 0;
#X connect 41 0 39 2;
#X connect 41 0 43 0;
#X connect 41 0 119 1;
#X connect 42 0 39 0;
#X connect 42 0 117 1;
#X connect 43 0 42 0;
#X connect 44 0 45 0;
#X connect 45 0 42 0;
#X connect 46 0 48 1;
#X connect 46 0 52 0;
#X connect 46 0 122 1;
#X connect 47 0 49 0;
#X connect 48 0 47 0;
#X connect 49 0 155 0;
#X connect 50 0 48 2;
#X connect 50 0 52 0;
#X connect 50 0 123 1;
#X connect 51 0 48 0;
#X connect 51 0 121 1;
#X connect 52 0 51 0;
#X connect 53 0 54 0;
#X connect 54 0 51 0;
#X connect 55 0 57 1;
#X connect 55 0 61 0;
#X connect 55 0 126 1;
#X connect 56 0 58 0;
#X connect 57 0 56 0;
#X connect 58 0 156 0;
#X connect 59 0 57 2;
#X connect 59 0 61 0;
#X connect 59 0 127 1;
#X connect 60 0 57 0;
#X connect 60 0 125 1;
#X connect 61 0 60 0;
#X connect 62 0 63 0;
#X connect 63 0 60 0;
#X connect 64 0 66 1;
#X connect 64 0 70 0;
#X connect 64 0 130 1;
#X connect 65 0 67 0;
#X connect 66 0 65 0;
#X connect 67 0 157 0;
#X connect 68 0 66 2;
#X connect 68 0 70 0;
#X connect 68 0 131 1;
#X connect 69 0 66 0;
#X connect 69 0 129 1;
#X connect 70 0 69 0;
#X connect 71 0 72 0;
#X connect 72 0 69 0;
#X connect 73 1 101 0;
#X connect 74 0 75 1;
#X connect 74 0 101 1;
#X connect 75 0 1 0;
#X connect 76 0 79 0;
#X connect 77 0 78 0;
#X connect 78 0 80 0;
#X connect 79 0 77 0;
#X connect 79 1 78 1;
#X connect 80 0 90 1;
#X connect 84 0 85 0;
#X connect 84 0 13 0;
#X connect 84 0 22 0;
#X connect 84 0 31 0;
#X connect 84 0 40 0;
#X connect 84 0 49 0;
#X connect 84 0 58 0;
#X connect 84 0 67 0;
#X connect 85 0 150 0;
#X connect 86 1 135 0;
#X connect 87 0 86 0;
#X connect 90 0 92 1;
#X connect 91 0 100 0;
#X connect 92 0 94 0;
#X connect 93 0 96 0;
#X connect 94 0 93 0;
#X connect 95 0 96 0;
#X connect 96 0 91 0;
#X connect 97 0 92 0;
#X connect 98 0 93 0;
#X connect 98 1 97 0;
#X connect 98 1 95 0;
#X connect 98 2 90 0;
#X connect 100 0 88 0;
#X connect 101 0 9 1;
#X connect 101 0 18 1;
#X connect 101 0 27 1;
#X connect 101 0 36 1;
#X connect 101 0 45 1;
#X connect 101 0 54 1;
#X connect 101 0 63 1;
#X connect 101 0 72 1;
#X connect 101 0 75 0;
#X connect 101 0 132 0;
#X connect 102 0 89 0;
#X connect 103 0 98 0;
#X connect 104 1 137 0;
#X connect 105 0 104 0;
#X connect 106 0 89 0;
#X connect 107 0 98 0;
#X connect 108 1 139 0;
#X connect 109 0 108 0;
#X connect 110 0 89 0;
#X connect 111 0 98 0;
#X connect 112 1 141 0;
#X connect 113 0 112 0;
#X connect 114 0 89 0;
#X connect 115 0 98 0;
#X connect 116 1 143 0;
#X connect 117 0 116 0;
#X connect 118 0 89 0;
#X connect 119 0 98 0;
#X connect 120 1 145 0;
#X connect 121 0 120 0;
#X connect 122 0 89 0;
#X connect 123 0 98 0;
#X connect 124 1 147 0;
#X connect 125 0 124 0;
#X connect 126 0 89 0;
#X connect 127 0 98 0;
#X connect 128 1 149 0;
#X connect 129 0 128 0;
#X connect 130 0 89 0;
#X connect 131 0 98 0;
#X connect 132 0 87 0;
#X connect 132 0 105 0;
#X connect 132 0 109 0;
#X connect 132 0 113 0;
#X connect 132 0 117 0;
#X connect 132 0 121 0;
#X connect 132 0 125 0;
#X connect 132 0 129 0;
#X connect 133 0 6 0;
#X connect 134 0 6 0;
#X connect 134 0 15 0;
#X connect 134 0 24 0;
#X connect 134 0 33 0;
#X connect 134 0 42 0;
#X connect 134 0 51 0;
#X connect 134 0 60 0;
#X connect 134 0 69 0;
#X connect 135 0 102 0;
#X connect 135 0 103 0;
#X connect 135 0 133 0;
#X connect 135 1 134 0;
#X connect 136 0 15 0;
#X connect 137 0 136 0;
#X connect 137 0 106 0;
#X connect 137 0 107 0;
#X connect 137 1 134 0;
#X connect 138 0 24 0;
#X connect 139 0 138 0;
#X connect 139 0 110 0;
#X connect 139 0 111 0;
#X connect 139 1 134 0;
#X connect 140 0 33 0;
#X connect 141 0 140 0;
#X connect 141 0 114 0;
#X connect 141 0 115 0;
#X connect 141 1 134 0;
#X connect 142 0 42 0;
#X connect 143 0 142 0;
#X connect 143 0 118 0;
#X connect 143 0 119 0;
#X connect 143 1 134 0;
#X connect 144 0 51 0;
#X connect 145 0 144 0;
#X connect 145 0 122 0;
#X connect 145 0 123 0;
#X connect 145 1 134 0;
#X connect 146 0 60 0;
#X connect 147 0 146 0;
#X connect 147 0 126 0;
#X connect 147 0 127 0;
#X connect 147 1 134 0;
#X connect 148 0 69 0;
#X connect 149 0 148 0;
#X connect 149 0 130 0;
#X connect 149 0 131 0;
#X connect 149 1 134 0;
#X connect 150 0 6 0;
#X connect 150 1 2 0;
#X connect 150 2 5 0;
#X connect 151 0 15 0;
#X connect 151 1 10 0;
#X connect 151 2 14 0;
#X connect 152 0 24 0;
#X connect 152 1 19 0;
#X connect 152 2 23 0;
#X connect 153 0 33 0;
#X connect 153 1 28 0;
#X connect 153 2 32 0;
#X connect 154 0 42 0;
#X connect 154 1 37 0;
#X connect 154 2 41 0;
#X connect 155 0 51 0;
#X connect 155 1 46 0;
#X connect 155 2 50 0;
#X connect 156 0 60 0;
#X connect 156 1 55 0;
#X connect 156 2 59 0;
#X connect 157 0 69 0;
#X connect 157 1 64 0;
#X connect 157 2 68 0;
#X coords 0 -1 1 1 320 75 1 100 100;
#X restore -23 -80 pd sparse_sq1;
#X obj -23 100 *~ 0.5;
#N canvas 0 22 653 726 oneosc1 0;
#X obj 29 233 moses 0.001;
#X msg 5 397 0 983.45;
#X msg -20 339 set 0 \$1;
#X obj -19 149 clip 0 1;
#X obj 200 115 vsl 15 81 0.2 1 0 1 empty empty dc 2 4 0 8 -262144 -1
-1 3600 1;
#X obj 121 113 vradio 15 1 1 5 empty empty wav 0 80 0 8 -262144 -1
-1 0;
#X obj 102 113 vradio 15 1 1 3 empty empty okt 0 52 0 8 -262144 -1
-1 1;
#X obj -105 270 - 1;
#X obj -106 292 * 12;
#X obj -140 322 +;
#X obj 142 115 vsl 15 81 0 120 0 1 empty empty cf 2 4 0 8 -262144 -1
-1 1775 1;
#X obj 63 452 *;
#X obj 162 115 vsl 15 81 0 4 0 1 empty empty rs 2 4 0 8 -262144 -1
-1 500 1;
#X obj 65 430 line 0 1;
#X obj 181 115 vsl 15 81 0 120 0 1 empty empty ev 2 4 0 8 -262144 -1
-1 5700 1;
#X obj 68 508 *;
#X obj 49 327 t b b;
#X obj 68 561 mtof;
#X obj -48 658 *~;
#X obj -90 635 moog~;
#X obj 68 533 +;
#X obj -71 430 line 0 1;
#X obj -32 635 lop~ 50;
#X msg -67 401 0 30;
#X obj 61 477 *;
#X obj -156 186 inlet;
#X text -117 188 pitch;
#X obj -18 122 inlet;
#X text 21 124 gate;
#X obj -49 689 outlet~;
#X obj 212 396 *;
#X obj 102 183 tgl 15 1 empty empty ep 0 -6 0 8 -262144 -1 -1 0 -2
;
#X obj 239 355 + 1;
#X obj 219 323 t b f;
#X obj 223 224 *;
#X obj 238 278 * 10000;
#X obj 224 250 *;
#X obj 101 4 inlet;
#X obj 287 79 inlet;
#X text 336 78 env-mod 0..1;
#X text 145 3 cutoff-mod 0..1;
#X text -197 15 303ish 1-osc synth \, needs moog-external;
#X obj 287 100 clip 0 1;
#X obj 287 122 * 60;
#X obj 102 29 clip 0 1;
#X obj 102 51 * 60;
#X msg 81 373 0;
#X obj 26 200 t f f;
#X msg 99 350 set \$1;
#X obj 125 243 +;
#X obj 129 211 t b f;
#X obj 170 252 +;
#X obj 174 220 t b f;
#N canvas 167 179 695 417 spt-osc1 0;
#N canvas 156 355 492 405 sawtooth1 0;
#X obj 71 333 outlet~;
#X obj 18 30 inlet;
#X obj 34 69 mtof;
#X obj 59 159 phasor~;
#X obj 70 292 -~ 0.5;
#X obj 227 28 inlet~;
#X obj 93 190 samphold~;
#X obj 72 242 -~;
#X obj 70 268 wrap~;
#X text 62 30 <-pitch;
#X text 279 27 <-sync;
#X obj -83 79 switch~;
#X obj -86 29 inlet;
#X text -46 29 <-on/off;
#X obj 71 312 *~ 2;
#X connect 1 0 2 0;
#X connect 2 0 3 0;
#X connect 3 0 6 0;
#X connect 3 0 7 0;
#X connect 4 0 14 0;
#X connect 5 0 6 1;
#X connect 6 0 7 1;
#X connect 7 0 8 0;
#X connect 8 0 4 0;
#X connect 12 0 11 0;
#X connect 14 0 0 0;
#X restore 54 171 pd sawtooth1;
#N canvas 156 356 623 456 pulse1 0;
#X obj 90 407 outlet~;
#X obj 18 30 inlet;
#X obj 34 69 mtof;
#X obj 59 159 phasor~;
#X obj 227 28 inlet~;
#X obj 93 190 samphold~;
#X obj 72 242 -~;
#X obj 71 262 wrap~;
#X text 62 30 <-pitch;
#X text 279 27 <-sync;
#X obj -86 68 switch~;
#X obj -86 29 inlet;
#X text -46 29 <-on/off;
#X obj 71 286 cos~;
#X obj 84 318 *~ 10000;
#X obj 83 339 +~ 9500;
#X obj 85 368 clip~ -1 1;
#X connect 1 0 2 0;
#X connect 2 0 3 0;
#X connect 3 0 5 0;
#X connect 3 0 6 0;
#X connect 4 0 5 1;
#X connect 5 0 6 1;
#X connect 6 0 7 0;
#X connect 7 0 13 0;
#X connect 11 0 10 0;
#X connect 13 0 14 0;
#X connect 14 0 15 0;
#X connect 15 0 16 0;
#X connect 16 0 0 0;
#X restore 159 172 pd pulse1;
#N canvas 156 355 492 405 triangle1 0;
#X obj 73 460 outlet~;
#X obj 18 30 inlet;
#X obj 34 69 mtof;
#X obj 59 159 phasor~;
#X obj 227 28 inlet~;
#X obj 93 190 samphold~;
#X obj 72 242 -~;
#X obj 70 268 wrap~;
#X text 62 30 <-pitch;
#X text 279 27 <-sync;
#X obj 95 304 *~ -1;
#X obj 96 327 +~ 1;
#X obj 67 362 min~;
#X obj -83 79 switch~;
#X obj -86 29 inlet;
#X text -46 29 <-on/off;
#X obj 71 392 *~ 4;
#X obj 75 424 -~ 1;
#X connect 1 0 2 0;
#X connect 2 0 3 0;
#X connect 3 0 5 0;
#X connect 3 0 6 0;
#X connect 4 0 5 1;
#X connect 5 0 6 1;
#X connect 6 0 7 0;
#X connect 7 0 10 0;
#X connect 7 0 12 0;
#X connect 10 0 11 0;
#X connect 11 0 12 1;
#X connect 12 0 16 0;
#X connect 14 0 13 0;
#X connect 16 0 17 0;
#X connect 17 0 0 0;
#X restore 425 172 pd triangle1;
#X obj 273 28 inlet~;
#X text 130 21 <-pitch;
#X text 320 27 <-sync;
#X obj 89 21 inlet;
#X obj 479 22 inlet;
#X text 522 22 <-type 0 \, 1 \, 2;
#X obj 154 279 outlet~;
#X obj 20 138 == 0;
#X obj 124 137 == 1;
#X obj 347 95 int 0;
#X obj 483 46 loadbang;
#X obj 425 145 == 4;
#X obj 319 140 == 3;
#X obj 245 137 == 2;
#N canvas 156 356 623 456 pulse2 0;
#X obj 71 405 outlet~;
#X obj 18 30 inlet;
#X obj 34 69 mtof;
#X obj 59 159 phasor~;
#X obj 227 28 inlet~;
#X obj 93 190 samphold~;
#X obj 72 242 -~;
#X obj 70 268 wrap~;
#X text 62 30 <-pitch;
#X text 279 27 <-sync;
#X obj -86 68 switch~;
#X obj -86 29 inlet;
#X text -46 29 <-on/off;
#X obj 70 290 cos~;
#X obj 83 322 *~ 10000;
#X obj 84 372 clip~ -1 1;
#X obj 82 343 +~ 8500;
#X connect 1 0 2 0;
#X connect 2 0 3 0;
#X connect 3 0 5 0;
#X connect 3 0 6 0;
#X connect 4 0 5 1;
#X connect 5 0 6 1;
#X connect 6 0 7 0;
#X connect 7 0 13 0;
#X connect 11 0 10 0;
#X connect 13 0 14 0;
#X connect 14 0 16 0;
#X connect 15 0 0 0;
#X connect 16 0 15 0;
#X restore 252 173 pd pulse2;
#N canvas 156 356 623 456 square 0;
#X obj 30 422 outlet~;
#X obj 18 30 inlet;
#X obj 34 69 mtof;
#X obj 59 159 phasor~;
#X obj 227 28 inlet~;
#X obj 93 190 samphold~;
#X obj 72 242 -~;
#X obj 70 268 wrap~;
#X text 62 30 <-pitch;
#X text 279 27 <-sync;
#X obj -86 68 switch~;
#X obj -86 29 inlet;
#X text -46 29 <-on/off;
#X obj 69 297 cos~;
#X obj 73 323 *~ 10000;
#X obj 68 358 clip~ -1 1;
#X connect 1 0 2 0;
#X connect 2 0 3 0;
#X connect 3 0 5 0;
#X connect 3 0 6 0;
#X connect 4 0 5 1;
#X connect 5 0 6 1;
#X connect 6 0 7 0;
#X connect 7 0 13 0;
#X connect 11 0 10 0;
#X connect 13 0 14 0;
#X connect 14 0 15 0;
#X connect 15 0 0 0;
#X restore 342 172 pd square;
#X obj 385 51 clip 0 4;
#X connect 0 0 9 0;
#X connect 1 0 9 0;
#X connect 2 0 9 0;
#X connect 3 0 0 2;
#X connect 3 0 1 2;
#X connect 3 0 2 2;
#X connect 3 0 18 2;
#X connect 3 0 17 2;
#X connect 6 0 0 1;
#X connect 6 0 1 1;
#X connect 6 0 2 1;
#X connect 6 0 17 1;
#X connect 6 0 18 1;
#X connect 7 0 19 0;
#X connect 10 0 0 0;
#X connect 11 0 1 0;
#X connect 12 0 11 0;
#X connect 12 0 10 0;
#X connect 12 0 14 0;
#X connect 12 0 15 0;
#X connect 12 0 16 0;
#X connect 13 0 12 0;
#X connect 14 0 2 0;
#X connect 15 0 18 0;
#X connect 16 0 17 0;
#X connect 17 0 9 0;
#X connect 18 0 9 0;
#X connect 19 0 12 0;
#X restore -150 346 pd spt-osc1;
#X text -195 33 2008 \, 9-2009 martin brinkmann;
#X connect 0 0 23 0;
#X connect 0 1 53 1;
#X connect 0 1 16 0;
#X connect 1 0 13 0;
#X connect 2 0 1 0;
#X connect 3 0 47 0;
#X connect 4 0 34 1;
#X connect 4 0 34 0;
#X connect 5 0 53 2;
#X connect 6 0 7 0;
#X connect 7 0 8 0;
#X connect 8 0 9 1;
#X connect 9 0 53 0;
#X connect 10 0 50 0;
#X connect 11 0 24 0;
#X connect 11 0 24 1;
#X connect 12 0 19 2;
#X connect 13 0 11 0;
#X connect 13 0 11 1;
#X connect 14 0 52 0;
#X connect 15 0 20 0;
#X connect 16 0 1 0;
#X connect 16 1 46 0;
#X connect 17 0 19 1;
#X connect 18 0 29 0;
#X connect 19 0 18 0;
#X connect 20 0 17 0;
#X connect 21 0 22 0;
#X connect 22 0 18 1;
#X connect 23 0 21 0;
#X connect 24 0 15 0;
#X connect 25 0 9 0;
#X connect 27 0 3 0;
#X connect 30 0 15 1;
#X connect 31 0 33 0;
#X connect 32 0 30 1;
#X connect 33 0 30 0;
#X connect 33 1 32 0;
#X connect 34 0 36 1;
#X connect 34 0 36 0;
#X connect 35 0 2 0;
#X connect 36 0 35 0;
#X connect 37 0 44 0;
#X connect 38 0 42 0;
#X connect 42 0 43 0;
#X connect 43 0 51 0;
#X connect 44 0 45 0;
#X connect 45 0 49 0;
#X connect 46 0 13 0;
#X connect 46 0 21 0;
#X connect 47 0 0 0;
#X connect 47 1 48 0;
#X connect 48 0 46 0;
#X connect 49 0 20 1;
#X connect 50 0 49 0;
#X connect 50 1 49 1;
#X connect 51 0 30 0;
#X connect 52 0 51 0;
#X connect 52 1 51 1;
#X connect 53 0 19 0;
#X coords 0 -1 1 1 120 100 1 100 100;
#X restore -23 -4 pd oneosc1;
#N canvas 0 22 450 300 (subpatch) 0;
#X obj 59 155 inlet;
#X obj 3 89 inlet~;
#X obj 58 182 change;
#X msg 60 246 set \$1;
#X obj 60 227 tosymbol;
#X obj 59 204 sprintf Bus%d;
#X obj 3 282 throw~ Bus0;
#X obj 2 3 popup 124 25 #ffffff popup Bus0 Bus1 Bus2 Bus3 Bus4 Bus5
Bus6 Bus7 Bus8 Bus9 Bus10 Bus11 Bus12 Bus13 Bus14 Bus15 Bus16;
#X obj 1 32 route bang;
#X obj 154 202 *~;
#X obj 141 7 tgl 15 0 empty empty Dac 19 7 0 10 -262144 -1 -1 1 1;
#X obj 155 238 dac~;
#X obj 1 -49 loadbang;
#X text 59 -51 Bus0 mutes;
#X msg 1 -31 options Bus0 Bus1 Bus2 Bus3 Bus4 Bus5 Bus6 Bus7 Bus8 Bus9
Bus10 Bus11 Bus12 Bus13 Bus14 Bus15 Bus16;
#X connect 0 0 2 0;
#X connect 1 0 6 0;
#X connect 1 0 9 0;
#X connect 2 0 5 0;
#X connect 3 0 6 0;
#X connect 4 0 3 0;
#X connect 5 0 4 0;
#X connect 7 0 8 0;
#X connect 8 1 2 0;
#X connect 9 0 11 0;
#X connect 9 0 11 1;
#X connect 10 0 9 1;
#X connect 12 0 14 0;
#X connect 14 0 7 0;
#X coords 0 1 100 -1 180 30 1 0 0;
#X restore -23 119 graph;
#X connect 0 0 1 0;
#X connect 0 1 1 1;
#X connect 1 0 3 0;
#X connect 1 1 3 1;
#X connect 2 0 4 0;
#X connect 3 0 2 0;
