#N canvas 90 33 296 325 10;
#N canvas 15 22 1024 720 (subpatch) 0;
#X obj 276 202 osc~ 800;
#X obj 249 526 *~ 0;
#X floatatom 130 136 5 0 1 1 vol - -;
#X obj 130 64 vsl 32 64 0 1 0 0 empty empty empty 0 -9 0 10 -262144
-1 -1 0 1;
#X obj 276 89 random 12;
#X obj 281 35 metro 250;
#X obj 276 167 * 100;
#X obj 130 17 tgl 32 0 empty empty empty 17 7 0 10 -262144 -1 -1 0
1;
#X obj 354 314 *~;
#X obj 371 274 line~;
#X obj 381 205 bang;
#X msg 371 178 1 5;
#X obj 381 226 delay 5;
#X floatatom 168 32 5 0 0 2 Metro - -;
#X obj 276 114 trigger b f;
#X obj -92 608 loadbang;
#X obj 4 14 oscope~;
#X obj 5 168 oscope~;
#X obj 5 92 oscope~;
#X msg -92 629 \; oscope_off 0;
#X text -94 322 source;
#X text -92 526 final signal;
#X text -94 646 nevermind this bit for now :);
#X text 266 345 an envelop is just a signal that is used to control
the amplitude of another signal. Here the envelop is only made of a
5 ms attack (0 to 1) and a 40 ms release (1 to 0).;
#X text -92 424 envelope;
#X msg 381 247 0 15;
#X obj 248 624 outlet~;
#X obj 332 9 inlet;
#X connect 0 0 8 0;
#X connect 0 0 16 0;
#X connect 1 0 26 0;
#X connect 3 0 1 1;
#X connect 3 0 2 0;
#X connect 4 0 14 0;
#X connect 5 0 4 0;
#X connect 5 0 16 2;
#X connect 5 0 17 2;
#X connect 5 0 18 2;
#X connect 6 0 0 0;
#X connect 7 0 5 0;
#X connect 8 0 1 0;
#X connect 8 0 17 0;
#X connect 9 0 8 1;
#X connect 9 0 18 0;
#X connect 10 0 12 0;
#X connect 11 0 9 0;
#X connect 11 0 10 0;
#X connect 12 0 25 0;
#X connect 13 0 5 1;
#X connect 14 0 11 0;
#X connect 14 1 6 0;
#X connect 15 0 19 0;
#X connect 25 0 9 0;
#X connect 27 0 13 0;
#X coords 0 1 100 -1 205 235 1 0 0;
#X restore 17 16 graph;
#N canvas 0 22 450 300 (subpatch) 0;
#X obj 59 155 inlet;
#X obj 3 89 inlet~;
#X obj 58 182 change;
#X msg 60 246 set \$1;
#X obj 60 227 tosymbol;
#X obj 59 204 sprintf Bus%d;
#X obj 3 282 throw~ Bus0;
#X obj 2 3 popup 124 25 #ffffff popup Bus0 Bus1 Bus2 Bus3 Bus4 Bus5
Bus6 Bus7 Bus8 Bus9 Bus10 Bus11 Bus12 Bus13 Bus14 Bus15 Bus16;
#X obj 1 32 route bang;
#X obj 154 202 *~;
#X obj 141 7 tgl 15 0 empty empty Dac 19 7 0 10 -262144 -1 -1 0 1;
#X obj 155 238 dac~;
#X obj 1 -49 loadbang;
#X text 59 -51 Bus0 mutes;
#X msg 1 -31 options Bus0 Bus1 Bus2 Bus3 Bus4 Bus5 Bus6 Bus7 Bus8 Bus9
Bus10 Bus11 Bus12 Bus13 Bus14 Bus15 Bus16;
#X connect 0 0 2 0;
#X connect 1 0 6 0;
#X connect 1 0 9 0;
#X connect 2 0 5 0;
#X connect 3 0 6 0;
#X connect 4 0 3 0;
#X connect 5 0 4 0;
#X connect 7 0 8 0;
#X connect 8 1 2 0;
#X connect 9 0 11 0;
#X connect 9 0 11 1;
#X connect 10 0 9 1;
#X connect 12 0 14 0;
#X connect 14 0 7 0;
#X coords 0 1 100 -1 180 30 1 0 0;
#X restore 17 251 graph;
#X connect 0 0 1 0;
