#N canvas 436 70 625 383 10;
#X text 336 33 waveform~: waveform oscillator;
#X text 235 320 honk abstractions -- kreidler 2007;
#X text 274 345 www.kreidler-net.de;
#X text 343 57 left inlet / first argument: frequency (Hz);
#X text 342 73 middle inlet / second argument: waveform 0-5;
#X text 344 92 right inlet: phase;
#X obj 38 230 waveform~;
#X floatatom 38 211 5 0 0 0 - - -;
#X text 80 209 freq;
#X msg 311 210 0;
#X text 273 210 phase;
#N canvas 0 22 450 300 (subpatch) 0;
#X array \$0-waveform-help 100 float 2;
#X coords 0 1 100 -1 200 140 1;
#X restore 346 133 graph;
#X obj 327 258 bng 15 250 50 0 empty empty empty 0 -6 0 8 -262144 -1
-1;
#X obj 327 276 tabwrite~ \$0-waveform-help;
#N canvas 0 22 450 300 (subpatch) 0;
#X obj 59 155 inlet;
#X obj 3 89 inlet~;
#X obj 58 182 change;
#X msg 60 246 set \$1;
#X obj 60 227 tosymbol;
#X obj 59 204 sprintf Bus%d;
#X obj 3 282 throw~ Bus0;
#X obj 2 3 popup 124 25 #ffffff popup Bus0 Bus1 Bus2 Bus3 Bus4 Bus5
Bus6 Bus7 Bus8 Bus9 Bus10 Bus11 Bus12 Bus13 Bus14 Bus15 Bus16;
#X obj 1 32 route bang;
#X obj 154 202 *~;
#X obj 141 7 tgl 15 0 empty empty Dac 19 7 0 10 -262144 -1 -1 0 1;
#X obj 155 238 dac~;
#X obj 1 -49 loadbang;
#X text 59 -51 Bus0 mutes;
#X msg 1 -31 options Bus0 Bus1 Bus2 Bus3 Bus4 Bus5 Bus6 Bus7 Bus8 Bus9
Bus10 Bus11 Bus12 Bus13 Bus14 Bus15 Bus16;
#X connect 0 0 2 0;
#X connect 1 0 6 0;
#X connect 1 0 9 0;
#X connect 2 0 5 0;
#X connect 3 0 6 0;
#X connect 4 0 3 0;
#X connect 5 0 4 0;
#X connect 7 0 8 0;
#X connect 8 1 2 0;
#X connect 9 0 11 0;
#X connect 9 0 11 1;
#X connect 10 0 9 1;
#X connect 12 0 14 0;
#X connect 14 0 7 0;
#X coords 0 1 100 -1 180 30 1 0 0;
#X restore 38 275 graph;
#X connect 6 0 13 0;
#X connect 6 0 14 0;
#X connect 7 0 6 0;
#X connect 9 0 6 2;
#X connect 12 0 13 0;
#X coords 0 0 1 1 280 45 0;
