#N struct moving-cursor float x float y float w;
#N struct template-sample float x float y float length float height
float voiceID float pan_amp-color array grains template-grains array
pan_amp template-pan_amp;
#N struct template-grains float x float y float w;
#N struct template-pan_amp float x float y float w;
#N canvas 0 22 1009 705 10;
#X declare -path z_dsSynth2_abs;
#X msg 39 175 start;
#X msg 123 175 stop;
#X obj 334 130 bng 25 250 50 0 empty empty empty 0 -6 0 8 -262144 -1
-1;
#X obj 39 74 bng 75 250 50 0 empty empty START 8 37 1 18 -24198 -1
-1;
#X obj 123 74 bng 75 250 50 0 empty empty STOP 15 37 1 18 -258699 -1
-1;
#X obj 39 155 t b b;
#X obj 80 155 print ===================;
#X obj 39 5 tgl 20 1 empty empty key_commands 22 10 1 9 -262144 -1
-1 1 1;
#N canvas 49 54 925 604 template-sample 0;
#X text 14 194 lines for guidance;
#X text 344 216 stereo left;
#X text 283 357 voice/RGB number;
#X text 343 278 end of sample file;
#X text 343 258 start of sample file;
#X text 343 236 stereo center;
#X text 13 336 labeling;
#X obj 24 107 plot pan_amp pan_amp-color 3 0 0;
#X obj 24 86 plot grains voiceID 0 0 0;
#X text 432 19 polygons: polygon <outline-color> <line-width> <x \,
y> ... filled polygons: fpolygon <fill-color> <outline-color> <line-width>
<x \, y> ... curves: curve <outline-color> <line-width> <x \, y> ...
filled curves: fcurve <fill-color> <outline-color> <line-width> <x
\, y> ... Each argument can either be a number or a symbol. If a symbol
\, it's the name of a field (which must be a "float) which specifies
the vaiue. So for instance in the "1.scalar.pd" example \, in the template
"template1" \, the object "fpolygon 244 q 5 0 0 20 z 40 0" draws a
filled polygon whose interior color is 244 (red 2 \, green 4 \, blue
4) but whose outline color depends on the value of the field "q". Its
coordinates describe a triangle whose altitude is given by "z.";
#X obj 21 217 drawpolygon voiceID 1 0 -80 length -80;
#X obj 21 237 drawpolygon voiceID 1 0 -40 length -40;
#X obj 21 257 drawpolygon voiceID 1 0 0 length 0;
#X obj 21 277 drawpolygon voiceID 1 0 height length height;
#X obj 25 21 struct template-sample float x float y float length float
height float voiceID float pan_amp-color array grains template-grains
array pan_amp template-pan_amp;
#X obj 21 355 drawnumber voiceID 10 height voiceID;
#X restore 213 70 pd template-sample;
#N canvas 0 22 443 126 template-pan_amp 0;
#X obj 15 41 struct template-pan_amp float x float y float w;
#X obj 15 75 drawnumber y 0 0 222;
#X restore 213 90 pd template-pan_amp;
#N canvas 42 221 472 107 template-grains 0;
#X obj 23 58 drawnumber y 0 0 222;
#X obj 21 29 struct template-grains float x float y float w;
#X restore 213 110 pd template-grains;
#N canvas 264 335 510 360 moving-cursor 0;
#X obj 38 47 struct moving-cursor float x;
#X obj 39 110 drawnumber x 10 400 450;
#X obj 45 146 drawnumber y 10 0 450;
#X obj 37 71 filledpolygon 0 0 4 0 -800 1 100 1 400 0 400;
#X restore 213 129 pd moving-cursor;
#N canvas 0 22 450 300 init 0;
#X floatatom 94 125 0 0 0 0 - - -;
#X obj 94 78 r tempo;
#X msg 94 101 set \$1;
#X obj 94 149 s tempo;
#X text 127 125 <--- tempo;
#X obj 249 96 loadbang;
#X obj 155 359 s delay-multiplier;
#X obj 158 284 t b f;
#X msg 154 311 1000;
#X obj 172 335 /;
#X obj 158 258 r tempo;
#X text 44 233 calculate transposition timing from tempo value;
#X msg 249 117 \; tempo 20;
#X text 80 29 TEMPO;
#X obj 413 20 bng 15 250 50 0 empty empty empty 0 -6 0 8 -262144 -1
-1;
#X obj 413 394 bng 15 250 50 0 empty empty empty 0 -6 0 8 -262144 -1
-1;
#X obj 578 82 r reset;
#X obj 510 132 samplerate~;
#X obj 510 151 / 1000;
#X obj 448 43 loadbang;
#X obj 448 70 s reset;
#X obj 510 187 s kilosamplerate;
#X msg 655 153 \; reset-stop stop \; time-of-last-evt 0 \; pd-dataSampler
sort;
#X connect 0 0 3 0;
#X connect 1 0 2 0;
#X connect 2 0 0 0;
#X connect 5 0 12 0;
#X connect 7 0 8 0;
#X connect 7 1 9 1;
#X connect 8 0 9 0;
#X connect 9 0 6 0;
#X connect 10 0 7 0;
#X connect 14 0 15 0;
#X connect 16 0 22 0;
#X connect 16 0 17 0;
#X connect 17 0 18 0;
#X connect 18 0 21 0;
#X connect 19 0 20 0;
#X restore 213 51 pd init;
#N canvas 0 22 1024 705 greydataparser 0;
#X obj 406 39 inlet;
#X text 31 14 This is an abstraction used in the sequencer example.
Here we take care of the audio synthesis \, according to timed controls
from the the "data-start" and "data-array" subpatches.;
#X obj 64 208 data-array template-sample grains template-grains;
#X obj 501 212 data-array template-sample pan_amp template-pan_amp
;
#X text 472 75 global y;
#X text 581 52 pointer to array;
#X text 361 225 ramp time;
#X text 787 230 ramp time;
#X text 508 230 Y(pan);
#X text 679 228 W(amp);
#X obj 406 58 data-start template-sample;
#X obj 559 76 s \$0-grains-array-height;
#X obj 45 288 -;
#X obj 677 388 pack;
#X obj 677 333 sqrt;
#X obj 725 388 r reset;
#X msg 725 408 0 20;
#X obj 501 355 pack;
#X obj 502 500 line;
#X text 498 258 step to make center point center pan;
#X text 499 317 increase resolution;
#X obj 669 506 line;
#X obj 677 306 / 10;
#X text 707 307 <- this width = amp 1;
#X text 141 185 Get data from Grain template;
#X text 547 182 Get data from pan_amp template;
#X obj 360 537 pack;
#X obj 129 477 pack;
#X obj 360 557 line 0 15;
#X obj 361 580 outlet;
#X obj 504 528 outlet;
#X obj 636 565 outlet;
#X obj 129 497 line 0 15;
#X obj 142 602 outlet;
#X obj 8 150 bng 15 250 50 0 empty empty empty 17 7 0 10 -262144 -1
-1;
#X obj 16 596 outlet;
#X text 70 224 Y(Pitch);
#X obj 886 538 outlet;
#X obj 501 273 + 80;
#X obj 501 333 / 80;
#X obj 218 293 / 100;
#X text 241 225 W(Fx);
#X connect 0 0 10 0;
#X connect 0 0 34 0;
#X connect 2 0 12 0;
#X connect 2 1 40 0;
#X connect 2 2 27 1;
#X connect 2 2 26 1;
#X connect 3 0 38 0;
#X connect 3 1 22 0;
#X connect 3 2 13 1;
#X connect 3 2 17 1;
#X connect 10 0 2 0;
#X connect 10 0 3 0;
#X connect 10 1 37 0;
#X connect 10 2 11 0;
#X connect 12 0 27 0;
#X connect 13 0 21 0;
#X connect 14 0 13 0;
#X connect 15 0 16 0;
#X connect 16 0 21 0;
#X connect 17 0 18 0;
#X connect 18 0 30 0;
#X connect 21 0 31 0;
#X connect 22 0 14 0;
#X connect 26 0 28 0;
#X connect 27 0 32 0;
#X connect 28 0 29 0;
#X connect 32 0 33 0;
#X connect 34 0 35 0;
#X connect 38 0 39 0;
#X connect 39 0 17 0;
#X connect 40 0 26 0;
#X restore 39 224 pd greydataparser;
#N canvas 217 88 807 680 SampleSequencer_____________________ 0;
#X msg 46 226 next;
#X obj 31 387 pack 0 p;
#X obj 31 19 inlet;
#X obj 31 48 route start stop;
#X msg 84 69 \; reset bang;
#X obj 250 125 s reset;
#X obj 46 206 r next-evt;
#X obj 31 291 t p p;
#X text 125 208 first pointer is "moving-cursor" \, then the rest are
"template-sample";
#X obj 31 260 pointer template-sample;
#X obj 109 283 bang;
#X text 143 284 if its not a template-sample \, get another pointer
;
#X obj 31 361 trigger float float;
#X obj 31 105 trigger bang bang bang bang bang;
#X obj 27 411 route 777 9 90 900 99 909 990 944;
#N canvas 84 183 450 300 move-cursor 0;
#X msg 51 141 next;
#X obj 35 175 pointer moving-cursor;
#X msg 284 517 0;
#X obj 284 564 set moving-cursor x;
#X obj 65 476 *;
#X obj 81 458 r delay-multiplier;
#X obj 35 448 t f f;
#X obj 35 502 pack f f;
#X obj 284 543 line;
#X obj 35 16 inlet;
#X obj 284 25 r reset-stop;
#X obj 106 196 bang;
#X obj 284 44 t b b;
#X obj 35 230 t bang pointer;
#X obj 177 338 t b b;
#X obj 177 317 spigot;
#X msg 177 376 0;
#X obj 177 401 append moving-cursor x;
#X obj 326 373 pointer;
#X msg 227 259 1;
#X msg 195 259 0;
#X text 226 322 <-- if the cursor exists \, don't create a new one
;
#X text 178 422 create a cursor scalar if one does not already exist.
;
#X text 93 589 Whenever this patch creates a new cursor \, an error
will be output: "error: set: empty pointer";
#X msg 35 426 10000;
#X msg 326 354 traverse pd-dataSampler \, bang;
#X msg 35 114 traverse pd-dataSampler \, next;
#X connect 0 0 1 0;
#X connect 1 0 13 0;
#X connect 1 1 11 0;
#X connect 1 2 15 0;
#X connect 2 0 8 0;
#X connect 4 0 7 1;
#X connect 5 0 4 1;
#X connect 6 0 7 0;
#X connect 6 1 4 0;
#X connect 7 0 8 0;
#X connect 8 0 3 0;
#X connect 9 0 26 0;
#X connect 10 0 12 0;
#X connect 11 0 0 0;
#X connect 12 0 2 0;
#X connect 12 1 26 0;
#X connect 12 1 19 0;
#X connect 13 0 24 0;
#X connect 13 0 20 0;
#X connect 13 1 3 1;
#X connect 14 0 16 0;
#X connect 14 1 25 0;
#X connect 15 0 14 0;
#X connect 16 0 17 0;
#X connect 18 0 17 1;
#X connect 19 0 15 1;
#X connect 20 0 15 1;
#X connect 24 0 6 0;
#X connect 25 0 18 0;
#X connect 26 0 1 0;
#X restore 140 127 pd move-cursor;
#N canvas 0 22 450 300 set-pan_amp-color 0;
#X obj 59 48 inlet;
#X text 109 50 voiceno;
#X text 608 54 pointer;
#X obj 555 55 inlet;
#X obj 329 196 set template-sample pan_amp-color;
#X obj 59 139 expr ($i1 % 1000 / 100 / $i2 * 100) + ($i1 % 100 / 10
/ $i2 * 10) + ($i1 % 10 / $i2);
#X obj 467 112 3;
#X obj 467 87 loadbang;
#X text 104 243 This sets the color of the "pan_amp" array to be a
darker version of the "grains" array.;
#X connect 0 0 5 0;
#X connect 3 0 4 1;
#X connect 5 0 4 0;
#X connect 6 0 5 1;
#X connect 7 0 6 0;
#X restore 159 381 pd set-pan_amp-color;
#X obj 314 454 print UNMAPPED_COLOR;
#X text 96 550 blue;
#X text 339 557 yellow;
#X text 193 553 red;
#X text 278 555 magenta;
#X text 237 555 cyan;
#X text 47 550 grey;
#X text 146 547 green;
#X text 276 422 grey blue green red cyan magenta yellow pink;
#X text 398 558 pink;
#X obj 40 534 outlet;
#X obj 87 533 outlet;
#X obj 136 534 outlet;
#X obj 184 536 outlet;
#X obj 231 535 outlet;
#X obj 280 536 outlet;
#X obj 342 535 outlet;
#X obj 389 534 outlet;
#X text 279 410 route data by colors;
#X text 228 180 move through the data patch;
#X text 178 260 get pointers;
#X obj 31 336 get template-sample voiceID;
#X text 215 335 get voiceID to route by collors;
#X text 444 530 output data;
#X msg 31 179 traverse pd-dataSampler \, next;
#X msg 38 146 \; pd-dataSampler sort;
#X msg 195 146 \; pd-dataSampler sort;
#X connect 0 0 9 0;
#X connect 1 0 14 0;
#X connect 2 0 3 0;
#X connect 3 0 13 0;
#X connect 3 1 4 0;
#X connect 6 0 0 0;
#X connect 7 0 38 0;
#X connect 7 1 1 1;
#X connect 7 1 16 1;
#X connect 9 0 7 0;
#X connect 9 1 10 0;
#X connect 10 0 0 0;
#X connect 12 0 1 0;
#X connect 12 1 16 0;
#X connect 13 0 41 0;
#X connect 13 1 42 0;
#X connect 13 2 15 0;
#X connect 13 3 43 0;
#X connect 13 4 5 0;
#X connect 14 0 27 0;
#X connect 14 1 28 0;
#X connect 14 2 29 0;
#X connect 14 3 30 0;
#X connect 14 4 31 0;
#X connect 14 5 32 0;
#X connect 14 6 33 0;
#X connect 14 7 34 0;
#X connect 14 8 17 0;
#X connect 38 0 12 0;
#X connect 41 0 9 0;
#X restore 39 197 pd SampleSequencer_____________________;
#N canvas 0 22 1024 705 bluedataparser 0;
#X obj 406 39 inlet;
#X text 31 14 This is an abstraction used in the sequencer example.
Here we take care of the audio synthesis \, according to timed controls
from the the "data-start" and "data-array" subpatches.;
#X obj 64 208 data-array template-sample grains template-grains;
#X obj 501 212 data-array template-sample pan_amp template-pan_amp
;
#X text 472 75 global y;
#X text 581 52 pointer to array;
#X text 361 225 ramp time;
#X text 787 230 ramp time;
#X text 508 230 Y(pan);
#X text 679 228 W(amp);
#X obj 406 58 data-start template-sample;
#X obj 559 76 s \$0-grains-array-height;
#X obj 45 288 -;
#X obj 677 388 pack;
#X obj 677 333 sqrt;
#X obj 725 388 r reset;
#X msg 725 408 0 20;
#X obj 501 355 pack;
#X obj 502 500 line;
#X text 498 258 step to make center point center pan;
#X text 499 317 increase resolution;
#X obj 669 506 line;
#X obj 677 306 / 10;
#X text 707 307 <- this width = amp 1;
#X text 141 185 Get data from Grain template;
#X text 547 182 Get data from pan_amp template;
#X obj 360 537 pack;
#X obj 129 477 pack;
#X obj 360 557 line 0 15;
#X obj 361 580 outlet;
#X obj 504 528 outlet;
#X obj 636 565 outlet;
#X obj 129 497 line 0 15;
#X obj 142 602 outlet;
#X obj 8 150 bng 15 250 50 0 empty empty empty 17 7 0 10 -262144 -1
-1;
#X obj 16 596 outlet;
#X text 70 224 Y(Pitch);
#X obj 886 538 outlet;
#X obj 501 273 + 80;
#X obj 501 333 / 80;
#X obj 218 293 / 100;
#X text 241 225 W(Fx);
#X connect 0 0 10 0;
#X connect 0 0 34 0;
#X connect 2 0 12 0;
#X connect 2 1 40 0;
#X connect 2 2 27 1;
#X connect 2 2 26 1;
#X connect 3 0 38 0;
#X connect 3 1 22 0;
#X connect 3 2 13 1;
#X connect 3 2 17 1;
#X connect 10 0 2 0;
#X connect 10 0 3 0;
#X connect 10 1 37 0;
#X connect 10 2 11 0;
#X connect 12 0 27 0;
#X connect 13 0 21 0;
#X connect 14 0 13 0;
#X connect 15 0 16 0;
#X connect 16 0 21 0;
#X connect 17 0 18 0;
#X connect 18 0 30 0;
#X connect 21 0 31 0;
#X connect 22 0 14 0;
#X connect 26 0 28 0;
#X connect 27 0 32 0;
#X connect 28 0 29 0;
#X connect 32 0 33 0;
#X connect 34 0 35 0;
#X connect 38 0 39 0;
#X connect 39 0 17 0;
#X connect 40 0 26 0;
#X restore 182 224 pd bluedataparser;
#N canvas 0 22 1024 705 greendataparser 0;
#X obj 406 39 inlet;
#X text 31 14 This is an abstraction used in the sequencer example.
Here we take care of the audio synthesis \, according to timed controls
from the the "data-start" and "data-array" subpatches.;
#X obj 64 208 data-array template-sample grains template-grains;
#X obj 501 212 data-array template-sample pan_amp template-pan_amp
;
#X text 472 75 global y;
#X text 581 52 pointer to array;
#X text 361 225 ramp time;
#X text 787 230 ramp time;
#X text 508 230 Y(pan);
#X text 679 228 W(amp);
#X obj 406 58 data-start template-sample;
#X obj 559 76 s \$0-grains-array-height;
#X obj 45 288 -;
#X obj 677 388 pack;
#X obj 677 333 sqrt;
#X obj 725 388 r reset;
#X msg 725 408 0 20;
#X obj 501 355 pack;
#X obj 502 500 line;
#X text 498 258 step to make center point center pan;
#X text 499 317 increase resolution;
#X obj 669 506 line;
#X obj 677 306 / 10;
#X text 707 307 <- this width = amp 1;
#X text 141 185 Get data from Grain template;
#X text 547 182 Get data from pan_amp template;
#X obj 360 537 pack;
#X obj 129 477 pack;
#X obj 360 557 line 0 15;
#X obj 361 580 outlet;
#X obj 504 528 outlet;
#X obj 636 565 outlet;
#X obj 129 497 line 0 15;
#X obj 142 602 outlet;
#X obj 8 150 bng 15 250 50 0 empty empty empty 17 7 0 10 -262144 -1
-1;
#X obj 16 596 outlet;
#X text 70 224 Y(Pitch);
#X obj 886 538 outlet;
#X obj 501 273 + 80;
#X obj 501 333 / 80;
#X obj 218 293 / 100;
#X text 241 225 W(Fx);
#X connect 0 0 10 0;
#X connect 0 0 34 0;
#X connect 2 0 12 0;
#X connect 2 1 40 0;
#X connect 2 2 27 1;
#X connect 2 2 26 1;
#X connect 3 0 38 0;
#X connect 3 1 22 0;
#X connect 3 2 13 1;
#X connect 3 2 17 1;
#X connect 10 0 2 0;
#X connect 10 0 3 0;
#X connect 10 1 37 0;
#X connect 10 2 11 0;
#X connect 12 0 27 0;
#X connect 13 0 21 0;
#X connect 14 0 13 0;
#X connect 15 0 16 0;
#X connect 16 0 21 0;
#X connect 17 0 18 0;
#X connect 18 0 30 0;
#X connect 21 0 31 0;
#X connect 22 0 14 0;
#X connect 26 0 28 0;
#X connect 27 0 32 0;
#X connect 28 0 29 0;
#X connect 32 0 33 0;
#X connect 34 0 35 0;
#X connect 38 0 39 0;
#X connect 39 0 17 0;
#X connect 40 0 26 0;
#X restore 337 224 pd greendataparser;
#N canvas 0 22 1024 705 reddataparser 0;
#X obj 406 39 inlet;
#X text 31 14 This is an abstraction used in the sequencer example.
Here we take care of the audio synthesis \, according to timed controls
from the the "data-start" and "data-array" subpatches.;
#X obj 64 208 data-array template-sample grains template-grains;
#X obj 501 212 data-array template-sample pan_amp template-pan_amp
;
#X text 472 75 global y;
#X text 581 52 pointer to array;
#X text 361 225 ramp time;
#X text 787 230 ramp time;
#X text 508 230 Y(pan);
#X text 679 228 W(amp);
#X obj 406 58 data-start template-sample;
#X obj 559 76 s \$0-grains-array-height;
#X obj 45 288 -;
#X obj 677 388 pack;
#X obj 677 333 sqrt;
#X obj 725 388 r reset;
#X msg 725 408 0 20;
#X obj 501 355 pack;
#X obj 502 500 line;
#X text 498 258 step to make center point center pan;
#X text 499 317 increase resolution;
#X obj 669 506 line;
#X obj 677 306 / 10;
#X text 707 307 <- this width = amp 1;
#X text 141 185 Get data from Grain template;
#X text 547 182 Get data from pan_amp template;
#X obj 360 537 pack;
#X obj 129 477 pack;
#X obj 360 557 line 0 15;
#X obj 361 580 outlet;
#X obj 504 528 outlet;
#X obj 636 565 outlet;
#X obj 129 497 line 0 15;
#X obj 142 602 outlet;
#X obj 8 150 bng 15 250 50 0 empty empty empty 17 7 0 10 -262144 -1
-1;
#X obj 16 596 outlet;
#X text 70 224 Y(Pitch);
#X obj 886 538 outlet;
#X obj 501 273 + 80;
#X obj 501 333 / 80;
#X obj 218 293 / 100;
#X text 241 225 W(Fx);
#X connect 0 0 10 0;
#X connect 0 0 34 0;
#X connect 2 0 12 0;
#X connect 2 1 40 0;
#X connect 2 2 27 1;
#X connect 2 2 26 1;
#X connect 3 0 38 0;
#X connect 3 1 22 0;
#X connect 3 2 13 1;
#X connect 3 2 17 1;
#X connect 10 0 2 0;
#X connect 10 0 3 0;
#X connect 10 1 37 0;
#X connect 10 2 11 0;
#X connect 12 0 27 0;
#X connect 13 0 21 0;
#X connect 14 0 13 0;
#X connect 15 0 16 0;
#X connect 16 0 21 0;
#X connect 17 0 18 0;
#X connect 18 0 30 0;
#X connect 21 0 31 0;
#X connect 22 0 14 0;
#X connect 26 0 28 0;
#X connect 27 0 32 0;
#X connect 28 0 29 0;
#X connect 32 0 33 0;
#X connect 34 0 35 0;
#X connect 38 0 39 0;
#X connect 39 0 17 0;
#X connect 40 0 26 0;
#X restore 488 225 pd reddataparser;
#N canvas 0 22 1024 705 cyandataparser 0;
#X obj 406 39 inlet;
#X text 31 14 This is an abstraction used in the sequencer example.
Here we take care of the audio synthesis \, according to timed controls
from the the "data-start" and "data-array" subpatches.;
#X obj 64 208 data-array template-sample grains template-grains;
#X obj 501 212 data-array template-sample pan_amp template-pan_amp
;
#X text 472 75 global y;
#X text 581 52 pointer to array;
#X text 361 225 ramp time;
#X text 787 230 ramp time;
#X text 508 230 Y(pan);
#X text 679 228 W(amp);
#X obj 406 58 data-start template-sample;
#X obj 559 76 s \$0-grains-array-height;
#X obj 45 288 -;
#X obj 677 388 pack;
#X obj 677 333 sqrt;
#X obj 725 388 r reset;
#X msg 725 408 0 20;
#X obj 501 355 pack;
#X obj 502 500 line;
#X text 498 258 step to make center point center pan;
#X text 499 317 increase resolution;
#X obj 669 506 line;
#X obj 677 306 / 10;
#X text 707 307 <- this width = amp 1;
#X text 141 185 Get data from Grain template;
#X text 547 182 Get data from pan_amp template;
#X obj 360 537 pack;
#X obj 129 477 pack;
#X obj 360 557 line 0 15;
#X obj 361 580 outlet;
#X obj 504 528 outlet;
#X obj 636 565 outlet;
#X obj 129 497 line 0 15;
#X obj 142 602 outlet;
#X obj 8 150 bng 15 250 50 0 empty empty empty 17 7 0 10 -262144 -1
-1;
#X obj 16 596 outlet;
#X text 70 224 Y(Pitch);
#X obj 886 538 outlet;
#X obj 501 273 + 80;
#X obj 501 333 / 80;
#X obj 218 293 / 100;
#X text 241 225 W(Fx);
#X connect 0 0 10 0;
#X connect 0 0 34 0;
#X connect 2 0 12 0;
#X connect 2 1 40 0;
#X connect 2 2 27 1;
#X connect 2 2 26 1;
#X connect 3 0 38 0;
#X connect 3 1 22 0;
#X connect 3 2 13 1;
#X connect 3 2 17 1;
#X connect 10 0 2 0;
#X connect 10 0 3 0;
#X connect 10 1 37 0;
#X connect 10 2 11 0;
#X connect 12 0 27 0;
#X connect 13 0 21 0;
#X connect 14 0 13 0;
#X connect 15 0 16 0;
#X connect 16 0 21 0;
#X connect 17 0 18 0;
#X connect 18 0 30 0;
#X connect 21 0 31 0;
#X connect 22 0 14 0;
#X connect 26 0 28 0;
#X connect 27 0 32 0;
#X connect 28 0 29 0;
#X connect 32 0 33 0;
#X connect 34 0 35 0;
#X connect 38 0 39 0;
#X connect 39 0 17 0;
#X connect 40 0 26 0;
#X restore 636 225 pd cyandataparser;
#N canvas 0 22 1009 705 dataSampler 1;
#X obj -1 0 cnv 15 1200 1 empty empty y=0 20 9 0 8 -99865 -66577 0
;
#X scalar moving-cursor 10000 0 0 \;;
#X scalar template-sample 62 8 120 150 9 3 \; 0 34 0 \; 134 34 84 \;
149 38 0 \; \; -2 -40 13 \; 147 -41 0 \; \;;
#X scalar template-sample 821 148 320 150 777 222 \; -1 0 0 \; 20 23
12 \; 43 45 12 \; 68 44 30 \; 113 62 22 \; 126 26 28 \; 144 37 29 \;
172 92 46 \; 180 33 12 \; 210 -50 18 \; 241 28 5 \; 267 70 28 \; 322
34 26 \; \; 3 -39 3 \; 12 -42 12 \; 42 -38 12 \; 49 -14 12 \; 71 -13
13 \; 110 -35 10 \; 137 -55 29 \; 150 -30 8 \; 176 -25 21 \; 241 -35.5
7 \; 294 -38 6 \; 346 -55 0 \; \;;
#X restore 213 26 pd dataSampler;
#X text 843 224 bang Y(grain)_ramped W(grain)_ramped Y(pan_amp)_ramped
W(pan_amp)_ramped GlobalY;
#X floatatom 58 274 5 0 0 0 - - -;
#X floatatom 78 312 5 0 0 0 - - -;
#X floatatom 98 349 5 0 0 0 - - -;
#X floatatom 118 387 5 0 0 0 - - -;
#X obj 39 273 bng 15 250 50 0 empty empty empty 17 7 0 10 -262144 -1
-1;
#X floatatom 138 423 5 0 0 0 - - -;
#X floatatom 201 267 5 0 0 0 - - -;
#X floatatom 221 305 5 0 0 0 - - -;
#X floatatom 241 342 5 0 0 0 - - -;
#X floatatom 261 380 5 0 0 0 - - -;
#X obj 182 266 bng 15 250 50 0 empty empty empty 17 7 0 10 -262144
-1 -1;
#X floatatom 281 416 5 0 0 0 - - -;
#X floatatom 358 271 5 0 0 0 - - -;
#X floatatom 379 309 5 0 0 0 - - -;
#X floatatom 400 346 5 0 0 0 - - -;
#X floatatom 421 384 5 0 0 0 - - -;
#X obj 337 270 bng 15 250 50 0 empty empty empty 17 7 0 10 -262144
-1 -1;
#X floatatom 442 420 5 0 0 0 - - -;
#X floatatom 506 272 5 0 0 0 - - -;
#X floatatom 525 310 5 0 0 0 - - -;
#X floatatom 543 347 5 0 0 0 - - -;
#X floatatom 562 385 5 0 0 0 - - -;
#X obj 488 271 bng 15 250 50 0 empty empty empty 17 7 0 10 -262144
-1 -1;
#X floatatom 581 421 5 0 0 0 - - -;
#X floatatom 655 273 5 0 0 0 - - -;
#X floatatom 675 311 5 0 0 0 - - -;
#X floatatom 695 348 5 0 0 0 - - -;
#X floatatom 715 386 5 0 0 0 - - -;
#X obj 636 272 bng 15 250 50 0 empty empty empty 17 7 0 10 -262144
-1 -1;
#X floatatom 735 422 5 0 0 0 - - -;
#N canvas 0 22 450 300 purepd/alternate 0;
#X obj 96 20 inlet;
#X obj 168 254 outlet;
#X obj 295 254 outlet;
#X obj 168 227 spigot;
#X obj 295 227 spigot;
#X obj 168 67 trigger anything bang;
#X obj 96 44 route reset;
#X msg 96 85 0;
#X obj 96 64 bang;
#X obj 310 118 i;
#X obj 310 140 == 0;
#X obj 310 160 t f f f;
#X text 50 305 (c) 2006 IOhannes m zmoelnig \, licensed under GnuGPL
v2.0;
#X text 54 328 original abstraction (c) 2005 Hans Christoph Steiner
;
#X obj 332 191 == 0;
#X connect 0 0 6 0;
#X connect 3 0 1 0;
#X connect 4 0 2 0;
#X connect 5 0 3 0;
#X connect 5 0 4 0;
#X connect 5 1 9 0;
#X connect 6 0 8 0;
#X connect 6 1 5 0;
#X connect 7 0 9 1;
#X connect 8 0 7 0;
#X connect 9 0 10 0;
#X connect 10 0 11 0;
#X connect 11 0 3 1;
#X connect 11 1 14 0;
#X connect 11 2 9 1;
#X connect 14 0 4 1;
#X restore 39 51 pd purepd/alternate;
#N canvas 0 22 450 300 key_commands 0;
#X obj 123 37 keyup;
#X obj 426 132 moses 49;
#X obj 477 154 moses 58;
#X obj 477 183 - 48;
#X obj 506 285 moses;
#X msg 477 227 1;
#X obj 477 262 +;
#X obj 506 262 f;
#X obj 407 251 bang;
#X msg 555 227 0;
#X obj 477 208 trigger bang bang float;
#X obj 633 255 + 1;
#X obj 407 354 outlet;
#X text 514 186 ASCII "1" = 49;
#X obj 218 40 inlet;
#X obj 123 81 spigot;
#X obj 111 353 outlet;
#X obj 106 226 sel 32;
#X text 161 224 space bar;
#X connect 0 0 15 0;
#X connect 1 1 2 0;
#X connect 2 0 3 0;
#X connect 3 0 10 0;
#X connect 4 0 6 1;
#X connect 4 0 8 0;
#X connect 5 0 6 0;
#X connect 6 0 7 0;
#X connect 7 0 4 0;
#X connect 8 0 5 0;
#X connect 8 0 12 0;
#X connect 9 0 7 1;
#X connect 9 0 6 1;
#X connect 10 0 5 0;
#X connect 10 1 9 0;
#X connect 10 2 11 0;
#X connect 11 0 4 1;
#X connect 14 0 15 1;
#X connect 15 0 1 0;
#X connect 15 0 17 0;
#X connect 17 0 16 0;
#X restore 39 32 pd key_commands;
#X text 316 22 draw in here !;
#X text 784 224 get data;
#X text 286 184 route data according to colours :grey blue green red
cyan magenta yellow pink;
#X obj 255 155 declare -path z_dsSynth2_abs;
#N canvas 0 22 633 532 Asym 0;
#X obj 138 292 mtof;
#X obj 138 376 line~;
#X floatatom 187 309 0 0 0 0 - - -;
#X floatatom 138 269 5 0 0 0 - - -;
#X obj 138 595 lin-xfade.mmb~;
#X obj 251 575 hsl 128 15 0 1 0 0 empty empty empty -2 -8 0 10 -262144
-1 -1 12700 1;
#X msg 340 472 0;
#X obj 187 352 /;
#X floatatom 187 375 0 0 0 0 - - -;
#X msg 187 332 22050 \$1;
#X msg 138 321 \$1 200;
#X text 178 270 MIDI note number;
#X text 237 308 frequency;
#X text 231 377 harmonics;
#X text 370 472 sync phases;
#X text 393 575 <-- move this slider to compare;
#X floatatom 246 417 5 0 100 1 - #0-pulse.width -;
#X obj 246 437 / 100;
#X obj 246 460 sig~;
#X obj 138 503 bl-asymtri.mmb~ \$0;
#X text 244 559 bl-asymtri;
#X text 320 559 perfect asymtri;
#N canvas 748 33 478 445 perfectasymtri 0;
#X obj 109 75 inlet~;
#X obj 169 75 inlet~;
#X obj 239 75 inlet;
#X obj 109 126 vphasor.mmb~;
#X obj 220 159 clip~ 0 1;
#X obj 148 390 outlet~;
#X obj 238 218 *~ -1;
#X obj 138 225 expr~ 1/$v1;
#X obj 120 256 *~;
#X obj 238 243 +~ 2;
#X obj 182 305 min~;
#X obj 236 268 *~;
#X obj 293 223 expr~ 1/(1-$v1);
#X obj 157 347 -~ 1;
#X obj 109 186 *~ 2;
#X obj 37 156 +~ 1.5;
#X obj 37 182 wrap~;
#X obj 218 121 expr~ 1-$v1;
#X connect 0 0 3 0;
#X connect 1 0 17 0;
#X connect 2 0 3 1;
#X connect 3 0 15 0;
#X connect 4 0 7 0;
#X connect 4 0 12 0;
#X connect 6 0 9 0;
#X connect 7 0 8 1;
#X connect 8 0 10 0;
#X connect 9 0 11 0;
#X connect 10 0 13 0;
#X connect 11 0 10 1;
#X connect 12 0 11 1;
#X connect 13 0 5 0;
#X connect 14 0 8 0;
#X connect 14 0 6 0;
#X connect 15 0 16 0;
#X connect 16 0 14 0;
#X connect 17 0 4 0;
#X restore 263 504 pd perfectasymtri;
#X text 279 417 <-- peak position;
#X obj 138 243 inlet;
#X obj 281 385 inlet;
#X obj 379 508 inlet;
#X obj 142 640 outlet~;
#X connect 0 0 10 0;
#X connect 0 0 2 0;
#X connect 1 0 19 0;
#X connect 1 0 22 0;
#X connect 2 0 9 0;
#X connect 3 0 0 0;
#X connect 4 0 27 0;
#X connect 5 0 4 2;
#X connect 6 0 19 2;
#X connect 6 0 22 2;
#X connect 7 0 8 0;
#X connect 9 0 7 0;
#X connect 10 0 1 0;
#X connect 16 0 17 0;
#X connect 17 0 18 0;
#X connect 18 0 19 1;
#X connect 18 0 22 1;
#X connect 19 0 4 0;
#X connect 22 0 4 1;
#X connect 24 0 3 0;
#X connect 25 0 17 0;
#X connect 26 0 5 0;
#X restore 8 529 pd Asym;
#N canvas 0 22 450 300 (subpatch) 0;
#X floatatom -5 55 5 0 0 0 - - -;
#X obj 4 5 knob 25 25 0 1 0 0 empty empty empty 0 -8 32 8 -1 -260097
-260097 750 1;
#X obj -20 89 *~;
#X obj -21 115 equal_power_pan~;
#X obj 39 8 hsl 128 20 0 1 0 1 empty empty pan_position 6 10 1 11 -262131
-1 -1 0 0;
#X obj -83 9 inlet~;
#X obj -72 159 outlet~;
#X obj 47 168 outlet~;
#X obj 2 -31 inlet;
#X obj 85 -39 inlet;
#X obj -5 71 / 1;
#X connect 0 0 10 0;
#X connect 1 0 0 0;
#X connect 2 0 3 0;
#X connect 3 0 6 0;
#X connect 3 1 7 0;
#X connect 4 0 3 1;
#X connect 5 0 2 0;
#X connect 8 0 1 0;
#X connect 9 0 4 0;
#X connect 10 0 2 1;
#X coords 0 1 100 -1 175 40 1 0 0;
#X restore 8 547 graph;
#N canvas 0 22 450 300 (subpatch) 0;
#X floatatom -5 55 5 0 0 0 - - -;
#X obj 4 5 knob 25 25 0 1 0 0 empty empty empty 0 -8 32 8 -1 -260097
-260097 1170 1;
#X obj -20 89 *~;
#X obj -21 115 equal_power_pan~;
#X obj 39 8 hsl 128 20 0 1 0 1 empty empty pan_position 6 10 1 11 -262131
-1 -1 0 0;
#X obj -83 9 inlet~;
#X obj -72 159 outlet~;
#X obj 47 168 outlet~;
#X obj 2 -31 inlet;
#X obj 85 -39 inlet;
#X obj -5 71 / 1;
#X connect 0 0 10 0;
#X connect 1 0 0 0;
#X connect 2 0 3 0;
#X connect 3 0 6 0;
#X connect 3 1 7 0;
#X connect 4 0 3 1;
#X connect 5 0 2 0;
#X connect 8 0 1 0;
#X connect 9 0 4 0;
#X connect 10 0 2 1;
#X coords 0 1 100 -1 175 40 1 0 0;
#X restore 208 547 graph;
#N canvas 0 22 450 300 (subpatch) 0;
#X floatatom -5 55 5 0 0 0 - - -;
#X obj 4 5 knob 25 25 0 1 0 0 empty empty empty 0 -8 32 8 -1 -260097
-260097 0 1;
#X obj -20 89 *~;
#X obj -21 115 equal_power_pan~;
#X obj 39 8 hsl 128 20 0 1 0 1 empty empty pan_position 6 10 1 11 -262131
-1 -1 0 0;
#X obj -83 9 inlet~;
#X obj -72 159 outlet~;
#X obj 47 168 outlet~;
#X obj 2 -31 inlet;
#X obj 85 -39 inlet;
#X obj -5 71 / 1;
#X connect 0 0 10 0;
#X connect 1 0 0 0;
#X connect 2 0 3 0;
#X connect 3 0 6 0;
#X connect 3 1 7 0;
#X connect 4 0 3 1;
#X connect 5 0 2 0;
#X connect 8 0 1 0;
#X connect 9 0 4 0;
#X connect 10 0 2 1;
#X coords 0 1 100 -1 175 40 1 0 0;
#X restore 430 538 graph;
#X text 464 81 REQUIRED! -->;
#X obj 553 83 bl-init.mmb \$0;
#N canvas 0 22 633 532 Pulse 0;
#X obj 138 292 mtof;
#X obj 138 376 line~;
#X floatatom 187 309 0 0 0 0 - - -;
#X floatatom 138 269 5 0 0 0 - - -;
#X obj 138 595 lin-xfade.mmb~;
#X obj 251 575 hsl 128 15 0 1 0 0 empty empty empty -2 -8 0 10 -262144
-1 -1 12700 1;
#X msg 340 472 0;
#X obj 187 352 /;
#X floatatom 187 375 0 0 0 0 - - -;
#X msg 187 332 22050 \$1;
#X msg 138 321 \$1 200;
#X text 178 270 MIDI note number;
#X text 237 308 frequency;
#X text 231 377 harmonics;
#X text 370 472 sync phases;
#X text 393 575 <-- move this slider to compare;
#X floatatom 246 417 5 0 100 1 - #0-pulse.width -;
#X obj 246 437 / 100;
#X obj 246 460 sig~;
#X text 244 559 bl-asymtri;
#X text 320 559 perfect asymtri;
#X text 279 417 <-- peak position;
#X obj 138 243 inlet;
#X obj 281 385 inlet;
#X obj 379 508 inlet;
#X obj 142 640 outlet~;
#X obj 132 512 bl-pulse.mmb~ \$0;
#N canvas 0 22 370 308 perfectpulse 0;
#X obj 109 75 inlet~;
#X obj 169 75 inlet~;
#X obj 239 75 inlet;
#X obj 109 126 vphasor.mmb~;
#X obj 220 159 clip~ 0 1;
#X obj 109 213 outlet~;
#X obj 108 183 expr~ ($v1>$v2) * -2 + 1;
#X connect 0 0 3 0;
#X connect 1 0 4 0;
#X connect 2 0 3 1;
#X connect 3 0 6 0;
#X connect 4 0 6 1;
#X connect 6 0 5 0;
#X restore 247 512 pd perfectpulse;
#X connect 0 0 10 0;
#X connect 0 0 2 0;
#X connect 1 0 26 0;
#X connect 1 0 27 0;
#X connect 2 0 9 0;
#X connect 3 0 0 0;
#X connect 4 0 25 0;
#X connect 5 0 4 2;
#X connect 6 0 26 2;
#X connect 6 0 27 2;
#X connect 7 0 8 0;
#X connect 9 0 7 0;
#X connect 10 0 1 0;
#X connect 16 0 17 0;
#X connect 17 0 18 0;
#X connect 18 0 26 1;
#X connect 18 0 27 1;
#X connect 22 0 3 0;
#X connect 23 0 17 0;
#X connect 24 0 5 0;
#X connect 26 0 4 0;
#X connect 27 0 4 1;
#X restore 208 528 pd Pulse;
#N canvas 0 22 633 532 Saw 0;
#X obj 138 292 mtof;
#X obj 138 376 line~;
#X floatatom 187 309 0 0 0 0 - - -;
#X floatatom 138 269 5 0 0 0 - - -;
#X obj 138 595 lin-xfade.mmb~;
#X obj 251 575 hsl 128 15 0 1 0 0 empty empty empty -2 -8 0 10 -262144
-1 -1 0 1;
#X msg 252 431 0;
#X obj 187 352 /;
#X floatatom 187 375 0 0 0 0 - - -;
#X msg 187 332 22050 \$1;
#X msg 138 321 \$1 200;
#X text 178 270 MIDI note number;
#X text 237 308 frequency;
#X text 231 377 harmonics;
#X text 282 431 sync phases;
#X text 393 575 <-- move this slider to compare;
#X text 244 559 bl-asymtri;
#X text 320 559 perfect asymtri;
#X obj 138 243 inlet;
#X obj 379 508 inlet;
#X obj 142 640 outlet~;
#X obj 168 475 vphasor.mmb~;
#X obj 53 475 bl-saw.mmb~ \$0;
#X obj 168 527 +~ 1;
#X obj 168 502 *~ -2;
#X connect 0 0 10 0;
#X connect 0 0 2 0;
#X connect 1 0 22 0;
#X connect 1 0 21 0;
#X connect 2 0 9 0;
#X connect 3 0 0 0;
#X connect 4 0 20 0;
#X connect 5 0 4 2;
#X connect 6 0 22 1;
#X connect 6 0 21 1;
#X connect 7 0 8 0;
#X connect 9 0 7 0;
#X connect 10 0 1 0;
#X connect 18 0 3 0;
#X connect 19 0 5 0;
#X connect 21 0 24 0;
#X connect 22 0 4 0;
#X connect 23 0 4 1;
#X connect 24 0 23 0;
#X restore 430 520 pd Saw;
#N canvas 0 22 450 300 (subpatch) 0;
#X floatatom -5 55 5 0 0 0 - - -;
#X obj 4 5 knob 25 25 0 1 0 0 empty empty empty 0 -8 32 8 -1 -260097
-260097 0 1;
#X obj -20 89 *~;
#X obj -21 115 equal_power_pan~;
#X obj 39 8 hsl 128 20 0 1 0 1 empty empty pan_position 6 10 1 11 -262131
-1 -1 0 0;
#X obj -83 9 inlet~;
#X obj -72 159 outlet~;
#X obj 47 168 outlet~;
#X obj 2 -31 inlet;
#X obj 85 -39 inlet;
#X obj -5 71 / 1;
#X connect 0 0 10 0;
#X connect 1 0 0 0;
#X connect 2 0 3 0;
#X connect 3 0 6 0;
#X connect 3 1 7 0;
#X connect 4 0 3 1;
#X connect 5 0 2 0;
#X connect 8 0 1 0;
#X connect 9 0 4 0;
#X connect 10 0 2 1;
#X coords 0 1 100 -1 175 40 1 0 0;
#X restore 633 537 graph;
#N canvas 0 22 633 532 Tri 0;
#X obj 138 292 mtof;
#X obj 138 376 line~;
#X floatatom 187 309 0 0 0 0 - - -;
#X floatatom 138 269 5 0 0 0 - - -;
#X obj 138 595 lin-xfade.mmb~;
#X obj 251 575 hsl 128 15 0 1 0 0 empty empty empty -2 -8 0 10 -262144
-1 -1 0 1;
#X msg 252 431 0;
#X obj 187 352 /;
#X floatatom 187 375 0 0 0 0 - - -;
#X msg 187 332 22050 \$1;
#X msg 138 321 \$1 200;
#X text 178 270 MIDI note number;
#X text 237 308 frequency;
#X text 231 377 harmonics;
#X text 282 431 sync phases;
#X text 393 575 <-- move this slider to compare;
#X text 244 559 bl-asymtri;
#X text 320 559 perfect asymtri;
#X obj 138 243 inlet;
#X obj 379 508 inlet;
#X obj 142 640 outlet~;
#X obj 103 506 bl-tri.mmb~ \$0;
#N canvas 0 22 466 417 perfecttri 0;
#X obj 97 138 vphasor.mmb~;
#X obj 97 212 wrap~ 0.5;
#X obj 97 236 expr~ if($v1>.5 \, 1-$v1 \, $v1);
#X obj 98 97 inlet~;
#X obj 172 98 inlet;
#X obj 97 171 +~ 1.25;
#X obj 96 308 outlet~;
#X obj 96 262 *~ 4;
#X obj 96 284 -~ 1;
#X connect 0 0 5 0;
#X connect 1 0 2 0;
#X connect 2 0 7 0;
#X connect 3 0 0 0;
#X connect 4 0 0 1;
#X connect 5 0 1 0;
#X connect 7 0 8 0;
#X connect 8 0 6 0;
#X restore 209 507 pd perfecttri;
#X connect 0 0 10 0;
#X connect 0 0 2 0;
#X connect 1 0 21 0;
#X connect 1 0 22 0;
#X connect 2 0 9 0;
#X connect 3 0 0 0;
#X connect 4 0 20 0;
#X connect 5 0 4 2;
#X connect 6 0 21 1;
#X connect 6 0 22 1;
#X connect 7 0 8 0;
#X connect 9 0 7 0;
#X connect 10 0 1 0;
#X connect 18 0 3 0;
#X connect 19 0 5 0;
#X connect 21 0 4 0;
#X connect 22 0 4 1;
#X restore 633 519 pd Tri;
#N canvas 0 22 450 300 (subpatch) 0;
#X obj 59 155 inlet;
#X obj 3 89 inlet~;
#X obj 58 182 change;
#X msg 60 246 set \$1;
#X obj 60 227 tosymbol;
#X obj 59 204 sprintf Bus%d;
#X obj 3 282 throw~ Bus0;
#X obj 2 3 popup 124 25 #ffffff popup Bus0 Bus1 Bus2 Bus3 Bus4 Bus5
Bus6 Bus7 Bus8 Bus9 Bus10 Bus11 Bus12 Bus13 Bus14 Bus15 Bus16;
#X obj 1 32 route bang;
#X obj 154 202 *~;
#X obj 141 7 tgl 15 0 empty empty Dac 19 7 0 10 -262144 -1 -1 0 1;
#X obj 155 238 dac~;
#X obj 1 -41 loadbang;
#X text 59 -43 Bus0 mutes;
#X msg 1 -23 options Bus0 Bus1 Bus2 Bus3 Bus4 Bus5 Bus6 Bus7 Bus8 Bus9
Bus10 Bus11 Bus12 Bus13 Bus14 Bus15 Bus16;
#X connect 0 0 2 0;
#X connect 1 0 6 0;
#X connect 1 0 9 0;
#X connect 2 0 5 0;
#X connect 3 0 6 0;
#X connect 4 0 3 0;
#X connect 5 0 4 0;
#X connect 7 0 8 0;
#X connect 8 1 2 0;
#X connect 9 0 11 0;
#X connect 10 0 9 1;
#X connect 12 0 14 0;
#X connect 14 0 7 0;
#X coords 0 1 100 -1 180 30 1 0 0;
#X restore 291 647 graph;
#N canvas 0 22 450 300 (subpatch) 0;
#X obj 59 155 inlet;
#X obj 3 89 inlet~;
#X obj 58 182 change;
#X msg 60 246 set \$1;
#X obj 60 227 tosymbol;
#X obj 59 204 sprintf Bus%d;
#X obj 3 282 throw~ Bus0;
#X obj 2 3 popup 124 25 #ffffff popup Bus0 Bus1 Bus2 Bus3 Bus4 Bus5
Bus6 Bus7 Bus8 Bus9 Bus10 Bus11 Bus12 Bus13 Bus14 Bus15 Bus16;
#X obj 1 32 route bang;
#X obj 154 202 *~;
#X obj 141 7 tgl 15 0 empty empty Dac 19 7 0 10 -262144 -1 -1 1 1;
#X obj 155 238 dac~;
#X obj 1 -41 loadbang;
#X text 59 -43 Bus0 mutes;
#X msg 1 -23 options Bus0 Bus1 Bus2 Bus3 Bus4 Bus5 Bus6 Bus7 Bus8 Bus9
Bus10 Bus11 Bus12 Bus13 Bus14 Bus15 Bus16;
#X connect 0 0 2 0;
#X connect 1 0 6 0;
#X connect 1 0 9 0;
#X connect 2 0 5 0;
#X connect 3 0 6 0;
#X connect 4 0 3 0;
#X connect 5 0 4 0;
#X connect 7 0 8 0;
#X connect 8 1 2 0;
#X connect 9 0 11 1;
#X connect 10 0 9 1;
#X connect 12 0 14 0;
#X connect 14 0 7 0;
#X coords 0 1 100 -1 180 30 1 0 0;
#X restore 532 646 graph;
#X connect 0 0 14 0;
#X connect 1 0 14 0;
#X connect 2 0 6 0;
#X connect 3 0 5 0;
#X connect 4 0 1 0;
#X connect 5 0 0 0;
#X connect 5 1 6 0;
#X connect 7 0 52 0;
#X connect 13 0 25 0;
#X connect 13 1 21 0;
#X connect 13 2 22 0;
#X connect 13 3 23 0;
#X connect 13 4 24 0;
#X connect 13 5 26 0;
#X connect 14 0 13 0;
#X connect 14 1 15 0;
#X connect 14 2 16 0;
#X connect 14 3 17 0;
#X connect 14 4 18 0;
#X connect 15 0 31 0;
#X connect 15 1 27 0;
#X connect 15 2 28 0;
#X connect 15 3 29 0;
#X connect 15 4 30 0;
#X connect 15 5 32 0;
#X connect 16 0 37 0;
#X connect 16 1 33 0;
#X connect 16 2 34 0;
#X connect 16 3 35 0;
#X connect 16 4 36 0;
#X connect 16 5 38 0;
#X connect 17 0 43 0;
#X connect 17 1 39 0;
#X connect 17 2 40 0;
#X connect 17 3 41 0;
#X connect 17 4 42 0;
#X connect 17 5 44 0;
#X connect 18 0 49 0;
#X connect 18 1 45 0;
#X connect 18 2 46 0;
#X connect 18 3 47 0;
#X connect 18 4 48 0;
#X connect 18 5 50 0;
#X connect 21 0 57 0;
#X connect 22 0 57 1;
#X connect 23 0 58 1;
#X connect 24 0 58 2;
#X connect 26 0 57 2;
#X connect 27 0 63 0;
#X connect 28 0 63 1;
#X connect 29 0 59 1;
#X connect 30 0 59 2;
#X connect 32 0 63 2;
#X connect 33 0 64 0;
#X connect 34 0 64 1;
#X connect 35 0 60 1;
#X connect 36 0 60 2;
#X connect 39 0 66 0;
#X connect 40 0 66 1;
#X connect 41 0 65 1;
#X connect 42 0 65 2;
#X connect 51 0 3 0;
#X connect 51 1 4 0;
#X connect 52 0 51 0;
#X connect 57 0 58 0;
#X connect 58 0 67 0;
#X connect 58 1 68 0;
#X connect 59 0 67 0;
#X connect 59 1 68 0;
#X connect 60 0 67 0;
#X connect 60 1 68 0;
#X connect 63 0 59 0;
#X connect 64 0 60 0;
#X connect 65 0 67 0;
#X connect 65 1 68 0;
#X connect 66 0 65 0;
