#N canvas 140 22 800 532 10;
#N canvas 0 22 800 532 kick 0;
#X obj 480 127 line~;
#X obj 357 143 *~;
#X obj 356 266 *~ 0;
#X msg 547 97 1 \, 0 \$1;
#X obj 453 -22 t b b;
#X obj 547 71 f;
#X obj 449 180 r \$0-kcklevel;
#X obj 562 45 r \$0-kckd;
#X obj 449 203 * 0.015;
#X obj 453 13 del 2;
#X msg 480 97 0 \, 1 2;
#X obj 357 171 lop~ 10000;
#X obj 355 298 outlet~;
#X obj 453 -50 inlet;
#X obj 102 102 cnv 15 82 82 empty empty empty 20 12 0 14 -1 -66577
0;
#X obj 146 140 nbx 3 14 40 250 0 0 \$0-kckd \$0-kckd_r decay 0 -8 0
10 -162280 -1 -262144 87 256;
#X obj 146 169 nbx 3 14 0 100 0 0 \$0-kcklevel \$0-kcklevel_r level
0 -8 0 10 -162280 -1 -262144 100 256;
#X obj 104 105 cnv 15 78 18 empty empty KICK 5 9 0 17 -262144 -1 0
;
#N canvas 0 22 454 304 (subpatch) 0;
#X array SKick 6182 float 0;
#X coords 0 1 6181 -1 50 50 1;
#X restore 361 37 graph;
#X obj 105 162 bng 15 250 50 0 empty empty empty 0 -6 0 8 -262144 -1
-1;
#X obj 160 341 soundfiler;
#N canvas 376 209 225 188 sample-loader 0;
#X obj 101 3 inlet;
#X obj 46 150 outlet;
#X obj 47 59 openpanel;
#X obj 47 35 t b;
#X obj 46 104 pack 0 s s;
#X obj 47 81 t b s;
#X msg 46 127 read -resize \$2 \$3;
#X connect 0 0 3 0;
#X connect 0 0 4 2;
#X connect 2 0 5 0;
#X connect 3 0 2 0;
#X connect 4 0 6 0;
#X connect 5 0 4 0;
#X connect 5 1 4 1;
#X connect 6 0 1 0;
#X restore 160 320 pd sample-loader;
#X obj 105 138 bng 15 250 50 0 empty empty Load 0 -6 0 8 -258113 -1
-1;
#X msg 105 234 symbol SKick;
#X obj 352 101 tabplay~ SKick;
#X connect 0 0 1 1;
#X connect 1 0 11 0;
#X connect 2 0 12 0;
#X connect 3 0 0 0;
#X connect 4 0 9 0;
#X connect 4 1 10 0;
#X connect 5 0 3 0;
#X connect 6 0 8 0;
#X connect 7 0 5 1;
#X connect 8 0 2 1;
#X connect 9 0 5 0;
#X connect 10 0 0 0;
#X connect 11 0 2 0;
#X connect 13 0 4 0;
#X connect 13 0 19 0;
#X connect 19 0 24 0;
#X connect 21 0 20 0;
#X connect 22 0 23 0;
#X connect 23 0 21 0;
#X connect 24 0 1 0;
#X coords 0 -1 1 1 86 86 2 100 100;
#X restore 4 3 pd kick;
#N canvas 0 22 800 532 snare 0;
#X obj 333 209 line~;
#X msg 400 179 1 \, 0 \$1;
#X obj 306 60 t b b;
#X obj 400 153 f;
#X obj 306 95 del 2;
#X msg 333 179 0 \, 1 2;
#X obj 415 127 r \$0-snd;
#X obj 207 225 *~;
#X obj 206 287 *~ 0;
#X obj 446 -101 inlet;
#X obj 271 250 r \$0-snlvl;
#X obj 102 102 cnv 15 82 82 empty empty empty 20 12 0 14 -1 -66577
0;
#X obj 104 105 cnv 15 78 18 empty empty SNARE 5 9 0 17 -262144 -1 0
;
#X obj 146 138 nbx 3 14 50 200 0 0 \$0-snd \$0-snd_r decay 0 -8 0 10
-162280 -1 -262144 136 256;
#X obj 146 168 nbx 3 14 0 100 0 0 \$0-snlvl \$0-snlvl_r level 0 -8
0 10 -162280 -1 -262144 93 256;
#X obj 206 328 outlet~;
#X obj 206 251 hip~ 1000;
#X obj 271 277 * 0.015;
#N canvas 0 22 454 304 (subpatch) 0;
#X array SSnare 5907 float 0;
#X coords 0 1 5906 -1 50 50 1;
#X restore 217 -66 graph;
#X obj -89 330 soundfiler;
#N canvas 376 209 225 188 sample-loader 0;
#X obj 101 3 inlet;
#X obj 46 150 outlet;
#X obj 47 59 openpanel;
#X obj 47 35 t b;
#X obj 46 104 pack 0 s s;
#X obj 47 81 t b s;
#X msg 46 127 read -resize \$2 \$3;
#X connect 0 0 3 0;
#X connect 0 0 4 2;
#X connect 2 0 5 0;
#X connect 3 0 2 0;
#X connect 4 0 6 0;
#X connect 5 0 4 0;
#X connect 5 1 4 1;
#X connect 6 0 1 0;
#X restore -89 309 pd sample-loader;
#X obj 110 163 bng 15 250 50 0 empty empty empty 0 -6 0 8 -262144 -1
-1;
#X obj 110 139 bng 15 250 50 0 empty empty Load 0 -6 0 8 -258113 -1
-1;
#X msg -144 223 symbol SSnare;
#X obj 208 -2 tabplay~ SSnare;
#X connect 0 0 7 1;
#X connect 1 0 0 0;
#X connect 2 0 4 0;
#X connect 2 1 5 0;
#X connect 3 0 1 0;
#X connect 4 0 3 0;
#X connect 5 0 0 0;
#X connect 6 0 3 1;
#X connect 7 0 16 0;
#X connect 8 0 15 0;
#X connect 9 0 2 0;
#X connect 9 0 21 0;
#X connect 10 0 17 0;
#X connect 16 0 8 0;
#X connect 17 0 8 1;
#X connect 20 0 19 0;
#X connect 21 0 24 0;
#X connect 22 0 23 0;
#X connect 23 0 20 0;
#X connect 24 0 7 0;
#X coords 0 -1 1 1 86 86 2 100 100;
#X restore 90 3 pd snare;
#N canvas 0 22 800 532 hat 0;
#X obj 333 209 line~;
#X msg 400 179 1 \, 0 \$1;
#X obj 306 60 t b b;
#X obj 400 153 f;
#X obj 306 95 del 2;
#X msg 333 179 0 \, 1 2;
#X obj 207 225 *~;
#X obj 206 287 *~ 0;
#X obj 306 10 inlet;
#X obj 102 102 cnv 15 82 82 empty empty empty 20 12 0 14 -1 -66577
0;
#X obj 104 105 cnv 15 78 18 empty empty HAT 5 9 0 17 -262144 -1 0;
#X obj 143 139 nbx 3 14 10 100 0 0 \$0-hatd \$0-hatd_r decay 0 -8 0
10 -162280 -1 -262144 25 256;
#X obj 144 168 nbx 3 14 0 100 0 0 \$0-hatlvl \$0-hatlvl_r level 0 -8
0 10 -162280 -1 -262144 36 256;
#X obj 206 328 outlet~;
#X obj 415 127 r \$0-hatd;
#X obj 271 250 r \$0-hatlvl;
#X obj 206 251 hip~ 10000;
#X obj 271 277 * 0.004;
#N canvas 0 22 454 304 (subpatch) 0;
#X array SHat 37395 float 0;
#X coords 0 1 37394 -1 50 50 1;
#X restore 176 -43 graph;
#X obj 109 163 bng 15 250 50 0 empty empty empty 0 -6 0 8 -262144 -1
-1;
#X obj -25 261 soundfiler;
#N canvas 376 209 225 188 sample-loader 0;
#X obj 101 3 inlet;
#X obj 46 150 outlet;
#X obj 47 59 openpanel;
#X obj 47 35 t b;
#X obj 46 104 pack 0 s s;
#X obj 47 81 t b s;
#X msg 46 127 read -resize \$2 \$3;
#X connect 0 0 3 0;
#X connect 0 0 4 2;
#X connect 2 0 5 0;
#X connect 3 0 2 0;
#X connect 4 0 6 0;
#X connect 5 0 4 0;
#X connect 5 1 4 1;
#X connect 6 0 1 0;
#X restore -25 240 pd sample-loader;
#X obj 109 139 bng 15 250 50 0 empty empty Load 0 -6 0 8 -258113 -1
-1;
#X msg -80 154 symbol SHat;
#X obj 167 21 tabplay~ SHat;
#X connect 0 0 6 1;
#X connect 1 0 0 0;
#X connect 2 0 4 0;
#X connect 2 1 5 0;
#X connect 3 0 1 0;
#X connect 4 0 3 0;
#X connect 5 0 0 0;
#X connect 6 0 16 0;
#X connect 7 0 13 0;
#X connect 8 0 2 0;
#X connect 8 0 19 0;
#X connect 14 0 3 1;
#X connect 15 0 17 0;
#X connect 16 0 7 0;
#X connect 17 0 7 1;
#X connect 19 0 24 0;
#X connect 21 0 20 0;
#X connect 22 0 23 0;
#X connect 23 0 21 0;
#X connect 24 0 6 0;
#X coords 0 -1 1 1 86 86 2 100 100;
#X restore 177 3 pd hat;
#N canvas 0 22 800 532 tom_1 0;
#X obj 480 127 line~;
#X obj 357 143 *~;
#X obj 356 266 *~ 0;
#X msg 547 97 1 \, 0 \$1;
#X obj 453 -22 t b b;
#X obj 547 71 f;
#X obj 453 13 del 2;
#X msg 480 97 0 \, 1 2;
#X obj 355 298 outlet~;
#X obj 453 -50 inlet;
#X obj 449 203 * 0.01;
#X obj 102 102 cnv 15 82 82 empty empty empty 20 12 0 14 -1 -66577
0;
#X obj 146 140 nbx 3 14 40 250 0 0 \$0-tomd \$0-tomd_r decay 0 -8 0
10 -162280 -1 -262144 140 256;
#X obj 146 169 nbx 3 14 0 100 0 0 \$0-tomlevel \$0-tomlevel_r level
0 -8 0 10 -162280 -1 -262144 80 256;
#X obj 104 105 cnv 15 78 18 empty empty TOM_1 5 9 0 17 -262144 -1 0
;
#X obj 576 44 r \$0-tomd;
#X obj 449 180 r \$0-tomlevel;
#X obj 357 171 hip~ 1000;
#N canvas 0 22 454 304 (subpatch) 0;
#X array STom1 17611 float 0;
#X coords 0 1 17610 -1 50 50 1;
#X restore 366 40 graph;
#X obj 110 165 bng 15 250 50 0 empty empty empty 0 -6 0 8 -262144 -1
-1;
#X obj 165 344 soundfiler;
#N canvas 376 209 225 188 sample-loader 0;
#X obj 101 3 inlet;
#X obj 46 150 outlet;
#X obj 47 59 openpanel;
#X obj 47 35 t b;
#X obj 46 104 pack 0 s s;
#X obj 47 81 t b s;
#X msg 46 127 read -resize \$2 \$3;
#X connect 0 0 3 0;
#X connect 0 0 4 2;
#X connect 2 0 5 0;
#X connect 3 0 2 0;
#X connect 4 0 6 0;
#X connect 5 0 4 0;
#X connect 5 1 4 1;
#X connect 6 0 1 0;
#X restore 165 323 pd sample-loader;
#X obj 110 141 bng 15 250 50 0 empty empty Load 0 -6 0 8 -258113 -1
-1;
#X msg 110 237 symbol STom1;
#X obj 357 104 tabplay~ STom1;
#X connect 0 0 1 1;
#X connect 1 0 17 0;
#X connect 2 0 8 0;
#X connect 3 0 0 0;
#X connect 4 0 6 0;
#X connect 4 1 7 0;
#X connect 5 0 3 0;
#X connect 6 0 5 0;
#X connect 7 0 0 0;
#X connect 9 0 4 0;
#X connect 9 0 19 0;
#X connect 10 0 2 1;
#X connect 15 0 5 1;
#X connect 16 0 10 0;
#X connect 17 0 2 0;
#X connect 19 0 24 0;
#X connect 21 0 20 0;
#X connect 22 0 23 0;
#X connect 23 0 21 0;
#X coords 0 -1 1 1 86 86 2 100 100;
#X restore 264 3 pd tom_1;
#N canvas 0 22 800 532 tom_2 0;
#X obj 480 127 line~;
#X obj 357 143 *~;
#X obj 356 266 *~ 0;
#X msg 547 97 1 \, 0 \$1;
#X obj 453 -22 t b b;
#X obj 547 71 f;
#X obj 453 13 del 2;
#X msg 480 97 0 \, 1 2;
#X obj 355 298 outlet~;
#X obj 453 -50 inlet;
#X obj 449 203 * 0.01;
#X obj 102 102 cnv 15 82 82 empty empty empty 20 12 0 14 -1 -66577
0;
#X obj 146 140 nbx 3 14 40 250 0 0 \$0-tomd2 \$0-tomd2_r decay 0 -8
0 10 -162280 -1 -262144 250 256;
#X obj 146 169 nbx 3 14 0 100 0 0 \$0-tomlevel2 \$0-tomlevel2_r level
0 -8 0 10 -162280 -1 -262144 95 256;
#X obj 104 105 cnv 15 78 18 empty empty TOM_2 5 9 0 17 -262144 -1 0
;
#X obj 357 171 hip~ 1000;
#X obj 576 43 r \$0-tomd2;
#X obj 449 180 r \$0-tomlevel2;
#N canvas 0 22 454 304 (subpatch) 0;
#X array STom2 17611 float 0;
#X coords 0 1 17610 -1 50 50 1;
#X restore 365 42 graph;
#X obj 109 167 bng 15 250 50 0 empty empty empty 0 -6 0 8 -262144 -1
-1;
#X obj 164 346 soundfiler;
#N canvas 376 209 225 188 sample-loader 0;
#X obj 101 3 inlet;
#X obj 46 150 outlet;
#X obj 47 59 openpanel;
#X obj 47 35 t b;
#X obj 46 104 pack 0 s s;
#X obj 47 81 t b s;
#X msg 46 127 read -resize \$2 \$3;
#X connect 0 0 3 0;
#X connect 0 0 4 2;
#X connect 2 0 5 0;
#X connect 3 0 2 0;
#X connect 4 0 6 0;
#X connect 5 0 4 0;
#X connect 5 1 4 1;
#X connect 6 0 1 0;
#X restore 164 325 pd sample-loader;
#X obj 109 143 bng 15 250 50 0 empty empty Load 0 -6 0 8 -258113 -1
-1;
#X msg 109 239 symbol STom2;
#X obj 356 106 tabplay~ STom2;
#X connect 0 0 1 1;
#X connect 1 0 15 0;
#X connect 2 0 8 0;
#X connect 3 0 0 0;
#X connect 4 0 6 0;
#X connect 4 1 7 0;
#X connect 5 0 3 0;
#X connect 6 0 5 0;
#X connect 7 0 0 0;
#X connect 9 0 4 0;
#X connect 9 0 19 0;
#X connect 10 0 2 1;
#X connect 15 0 2 0;
#X connect 16 0 5 1;
#X connect 17 0 10 0;
#X connect 19 0 24 0;
#X connect 21 0 20 0;
#X connect 22 0 23 0;
#X connect 23 0 21 0;
#X connect 24 0 1 0;
#X coords 0 -1 1 1 86 86 2 100 100;
#X restore 350 3 pd tom_2;
#N canvas 0 22 800 532 cymbal 0;
#X obj 483 336 line~;
#X obj 304 353 *~;
#X obj 544 267 f;
#X msg 544 298 1 \, 0 \$1;
#X obj 544 164 t b b;
#X obj 305 399 hip~ 5000;
#X obj 304 459 outlet~;
#X obj 305 428 *~ 0;
#X obj 491 404 r \$0-rlvl;
#X obj 491 427 * 0.01;
#X obj 544 130 inlet;
#X obj 102 102 cnv 15 82 82 empty empty empty 20 12 0 14 -1 -66577
0;
#X obj 146 140 nbx 3 14 100 800 0 0 \$0-rd \$0-rd_r decay 0 -8 0 10
-162280 -1 -262144 343 256;
#X obj 146 169 nbx 3 14 0 100 0 0 \$0-rlvl \$0-rlvl_r level 0 -8 0
10 -162280 -1 -262144 81 256;
#X obj 104 105 cnv 15 78 18 empty empty RIDE 5 9 0 17 -262144 -1 0
;
#X obj 609 150 r \$0-rd;
#X obj 544 208 del 3;
#X msg 483 302 0 \, 1 10;
#N canvas 0 22 454 304 (subpatch) 0;
#X array Sample1 17611 float 0;
#X coords 0 1 17610 -1 50 50 1;
#X restore 363 42 graph;
#X obj 107 167 bng 15 250 50 0 empty empty empty 0 -6 0 8 -262144 -1
-1;
#X obj 354 106 tabplay~ Sample1;
#X obj 162 346 soundfiler;
#N canvas 376 209 225 188 sample-loader 0;
#X obj 101 3 inlet;
#X obj 46 150 outlet;
#X obj 47 59 openpanel;
#X obj 47 35 t b;
#X obj 46 104 pack 0 s s;
#X obj 47 81 t b s;
#X msg 46 127 read -resize \$2 \$3;
#X connect 0 0 3 0;
#X connect 0 0 4 2;
#X connect 2 0 5 0;
#X connect 3 0 2 0;
#X connect 4 0 6 0;
#X connect 5 0 4 0;
#X connect 5 1 4 1;
#X connect 6 0 1 0;
#X restore 162 325 pd sample-loader;
#X msg 107 239 symbol Sample1;
#X obj 107 143 bng 15 250 50 0 empty empty Load 0 -6 0 8 -258113 -1
-1;
#X connect 0 0 1 1;
#X connect 1 0 5 0;
#X connect 2 0 3 0;
#X connect 3 0 0 0;
#X connect 4 0 16 0;
#X connect 4 1 17 0;
#X connect 5 0 7 0;
#X connect 7 0 6 0;
#X connect 8 0 9 0;
#X connect 9 0 7 1;
#X connect 10 0 4 0;
#X connect 10 0 19 0;
#X connect 15 0 2 1;
#X connect 16 0 2 0;
#X connect 17 0 0 0;
#X connect 19 0 20 0;
#X connect 20 0 1 0;
#X connect 22 0 21 0;
#X connect 23 0 22 0;
#X connect 24 0 23 0;
#X coords 0 -1 1 1 86 86 2 100 100;
#X restore 438 3 pd cymbal;
#X obj 4 105 tgl 26 0 \$0-s1 \$0-sr1 empty 17 7 0 10 -1 -262144 -262144
1 1;
#X obj 32 105 tgl 26 0 \$0-s2 \$0-sr2 empty 17 7 0 10 -1 -262144 -262144
0 1;
#X obj 60 105 tgl 26 0 \$0-s3 \$0-sr3 empty 17 7 0 10 -1 -262144 -262144
0 1;
#X obj 88 105 tgl 26 0 \$0-s4 \$0-sr4 empty 17 7 0 10 -1 -262144 -262144
0 1;
#X obj 121 105 tgl 26 0 \$0-s5 \$0-sr5 empty 17 7 0 10 -1 -262144 -262144
0 1;
#X obj 149 105 tgl 26 0 \$0-s6 \$0-sr6 empty 17 7 0 10 -1 -262144 -262144
0 1;
#X obj 177 105 tgl 26 0 \$0-s7 \$0-sr7 empty 17 7 0 10 -1 -262144 -262144
0 1;
#X obj 205 105 tgl 26 0 \$0-s8 \$0-sr8 empty 17 7 0 10 -1 -262144 -262144
0 1;
#X obj 237 105 tgl 26 0 \$0-s9 \$0-sr9 empty 17 7 0 10 -1 -262144 -262144
0 1;
#X obj 265 105 tgl 26 0 \$0-s10 \$0-sr10 empty 17 7 0 10 -1 -262144
-262144 0 1;
#X obj 293 105 tgl 26 0 \$0-s11 \$0-sr11 empty 17 7 0 10 -1 -262144
-262144 1 1;
#X obj 321 105 tgl 26 0 \$0-s12 \$0-sr12 empty 17 7 0 10 -1 -262144
-262144 0 1;
#X obj 354 105 tgl 26 0 \$0-s13 \$0-sr13 empty 17 7 0 10 -1 -262144
-262144 0 1;
#X obj 382 105 tgl 26 0 \$0-s14 \$0-sr14 empty 17 7 0 10 -1 -262144
-262144 0 1;
#X obj 410 105 tgl 26 0 \$0-s15 \$0-sr15 empty 17 7 0 10 -1 -262144
-262144 0 1;
#X obj 438 105 tgl 26 0 \$0-s16 \$0-sr16 empty 17 7 0 10 -1 -262144
-262144 0 1;
#N canvas 0 22 784 532 sq 0;
#X obj 88 -49 r \$0-s1;
#X obj 88 -23 spigot;
#X obj 88 1 t f b;
#X obj 138 -23 spigot;
#X obj 138 1 t f b;
#X obj 188 -23 spigot;
#X obj 188 1 t f b;
#X obj 238 -23 spigot;
#X obj 238 1 t f b;
#X obj 288 -23 spigot;
#X obj 288 1 t f b;
#X obj 338 -23 spigot;
#X obj 338 1 t f b;
#X obj 388 -23 spigot;
#X obj 388 1 t f b;
#X obj 438 -23 spigot;
#X obj 438 1 t f b;
#X obj 138 -50 r \$0-s2;
#X obj 188 -49 r \$0-s3;
#X obj 238 -49 r \$0-s4;
#X obj 288 -49 r \$0-s5;
#X obj 338 -49 r \$0-s6;
#X obj 388 -49 r \$0-s7;
#X obj 438 -49 r \$0-s8;
#X obj 278 154 spigot;
#X obj 278 178 t f b;
#X obj 338 154 spigot;
#X obj 338 178 t f b;
#X obj 397 154 spigot;
#X obj 397 178 t f b;
#X obj 457 154 spigot;
#X obj 457 178 t f b;
#X obj 517 154 spigot;
#X obj 517 178 t f b;
#X obj 577 154 spigot;
#X obj 577 178 t f b;
#X obj 636 154 spigot;
#X obj 636 178 t f b;
#X obj 696 154 spigot;
#X obj 696 178 t f b;
#X obj 278 128 r \$0-s9;
#X obj 338 128 r \$0-s10;
#X obj 397 128 r \$0-s11;
#X obj 457 128 r \$0-s12;
#X obj 517 128 r \$0-s13;
#X obj 577 128 r \$0-s14;
#X obj 636 128 r \$0-s15;
#X obj 696 128 r \$0-s16;
#X msg 618 -43 1;
#X msg 645 -41 0;
#X obj 226 398 tabwrite \$0-ch1;
#X msg 115 28 0;
#X msg 165 28 1;
#X msg 215 28 2;
#X msg 265 28 3;
#X msg 315 28 4;
#X msg 365 28 5;
#X msg 415 28 6;
#X msg 465 28 7;
#X msg 305 205 8;
#X msg 365 205 9;
#X msg 424 205 10;
#X msg 484 205 11;
#X msg 544 205 12;
#X msg 604 205 13;
#X msg 663 205 14;
#X msg 723 205 15;
#N canvas 0 22 800 532 tables 0;
#X obj 182 -21 table \$0-ch1 16;
#X obj 182 -1 table \$0-ch2 16;
#X obj 182 19 table \$0-ch3 16;
#X obj 182 39 table \$0-ch4 16;
#X obj 182 59 table \$0-ch5 16;
#X obj 182 79 table \$0-ch6 16;
#X restore 718 -40 pd tables;
#X obj 38 94 pack \$0;
#X msg 38 115 set \$1-ch1;
#X obj 38 139 pack \$0;
#X obj 38 184 pack \$0;
#X obj 38 229 pack \$0;
#X obj 38 274 pack \$0;
#X obj 38 321 pack \$0;
#X msg 38 160 set \$1-ch2;
#X msg 38 205 set \$1-ch3;
#X msg 38 250 set \$1-ch4;
#X msg 38 295 set \$1-ch5;
#X msg 38 342 set \$1-ch6;
#X obj 50 -219 r \$0-sel1;
#X obj 162 -218 r \$0-sel2;
#X obj 290 -219 r \$0-sel3;
#X obj 400 -219 r \$0-sel4;
#X obj 547 -220 r \$0-sel5;
#X obj 651 -221 r \$0-sel6;
#X obj 50 -191 t b b b b;
#N canvas 0 22 800 532 read 0;
#X msg 265 61 16;
#X msg 304 116 0;
#X obj 265 116 until;
#X obj 265 87 t f b;
#X obj 265 13 inlet;
#X obj 265 176 t f f;
#X obj 247 239 pack 0 0;
#X obj 292 211 tabread \$0-ch1;
#X obj 265 145 i;
#X obj 247 265 route 0 1 2 3 4 5 6 7 8 9 10 11 12 13 14 15;
#X obj 355 13 inlet;
#X obj 12 405 s \$0-sr1;
#X obj 72 405 s \$0-sr2;
#X obj 132 405 s \$0-sr3;
#X obj 192 405 s \$0-sr4;
#X obj 252 405 s \$0-sr5;
#X obj 312 405 s \$0-sr6;
#X obj 372 405 s \$0-sr7;
#X obj 432 405 s \$0-sr8;
#X obj 202 475 s \$0-sr9;
#X obj 262 475 s \$0-sr10;
#X obj 322 475 s \$0-sr11;
#X obj 382 475 s \$0-sr12;
#X obj 442 474 s \$0-sr13;
#X obj 502 475 s \$0-sr14;
#X obj 562 474 s \$0-sr15;
#X obj 622 475 s \$0-sr16;
#X obj 299 144 + 1;
#X connect 0 0 3 0;
#X connect 1 0 8 1;
#X connect 2 0 8 0;
#X connect 3 0 2 0;
#X connect 3 1 1 0;
#X connect 4 0 0 0;
#X connect 5 0 6 0;
#X connect 5 1 7 0;
#X connect 6 0 9 0;
#X connect 7 0 6 1;
#X connect 8 0 5 0;
#X connect 8 0 27 0;
#X connect 9 0 11 0;
#X connect 9 1 12 0;
#X connect 9 2 13 0;
#X connect 9 3 14 0;
#X connect 9 4 15 0;
#X connect 9 5 16 0;
#X connect 9 6 17 0;
#X connect 9 7 18 0;
#X connect 9 8 19 0;
#X connect 9 9 20 0;
#X connect 9 10 21 0;
#X connect 9 11 22 0;
#X connect 9 12 23 0;
#X connect 9 13 24 0;
#X connect 9 14 25 0;
#X connect 9 15 26 0;
#X connect 10 0 7 0;
#X connect 27 0 8 1;
#X restore 503 -4 pd read;
#X obj 162 -191 t b b b b;
#X obj 290 -191 t b b b b;
#X obj 402 -191 t b b b b;
#X obj 550 -191 t b b b b;
#X obj 662 -191 t b b b b;
#X connect 0 0 1 0;
#X connect 1 0 2 0;
#X connect 2 0 50 0;
#X connect 2 1 51 0;
#X connect 3 0 4 0;
#X connect 4 0 50 0;
#X connect 4 1 52 0;
#X connect 5 0 6 0;
#X connect 6 0 50 0;
#X connect 6 1 53 0;
#X connect 7 0 8 0;
#X connect 8 0 50 0;
#X connect 8 1 54 0;
#X connect 9 0 10 0;
#X connect 10 0 50 0;
#X connect 10 1 55 0;
#X connect 11 0 12 0;
#X connect 12 0 50 0;
#X connect 12 1 56 0;
#X connect 13 0 14 0;
#X connect 14 0 50 0;
#X connect 14 1 57 0;
#X connect 15 0 16 0;
#X connect 16 0 50 0;
#X connect 16 1 58 0;
#X connect 17 0 3 0;
#X connect 18 0 5 0;
#X connect 19 0 7 0;
#X connect 20 0 9 0;
#X connect 21 0 11 0;
#X connect 22 0 13 0;
#X connect 23 0 15 0;
#X connect 24 0 25 0;
#X connect 25 0 50 0;
#X connect 25 1 59 0;
#X connect 26 0 27 0;
#X connect 27 0 50 0;
#X connect 27 1 60 0;
#X connect 28 0 29 0;
#X connect 29 0 50 0;
#X connect 29 1 61 0;
#X connect 30 0 31 0;
#X connect 31 0 50 0;
#X connect 31 1 62 0;
#X connect 32 0 33 0;
#X connect 33 0 50 0;
#X connect 33 1 63 0;
#X connect 34 0 35 0;
#X connect 35 0 50 0;
#X connect 35 1 64 0;
#X connect 36 0 37 0;
#X connect 37 0 50 0;
#X connect 37 1 65 0;
#X connect 38 0 39 0;
#X connect 39 0 50 0;
#X connect 39 1 66 0;
#X connect 40 0 24 0;
#X connect 41 0 26 0;
#X connect 42 0 28 0;
#X connect 43 0 30 0;
#X connect 44 0 32 0;
#X connect 45 0 34 0;
#X connect 46 0 36 0;
#X connect 47 0 38 0;
#X connect 48 0 1 1;
#X connect 48 0 3 1;
#X connect 48 0 5 1;
#X connect 48 0 7 1;
#X connect 48 0 9 1;
#X connect 48 0 11 1;
#X connect 48 0 13 1;
#X connect 48 0 15 1;
#X connect 48 0 24 1;
#X connect 48 0 26 1;
#X connect 48 0 28 1;
#X connect 48 0 30 1;
#X connect 48 0 32 1;
#X connect 48 0 34 1;
#X connect 48 0 36 1;
#X connect 48 0 38 1;
#X connect 49 0 1 1;
#X connect 49 0 3 1;
#X connect 49 0 5 1;
#X connect 49 0 7 1;
#X connect 49 0 9 1;
#X connect 49 0 11 1;
#X connect 49 0 13 1;
#X connect 49 0 15 1;
#X connect 49 0 24 1;
#X connect 49 0 26 1;
#X connect 49 0 28 1;
#X connect 49 0 30 1;
#X connect 49 0 32 1;
#X connect 49 0 34 1;
#X connect 49 0 36 1;
#X connect 49 0 38 1;
#X connect 51 0 50 1;
#X connect 52 0 50 1;
#X connect 53 0 50 1;
#X connect 54 0 50 1;
#X connect 55 0 50 1;
#X connect 56 0 50 1;
#X connect 57 0 50 1;
#X connect 58 0 50 1;
#X connect 59 0 50 1;
#X connect 60 0 50 1;
#X connect 61 0 50 1;
#X connect 62 0 50 1;
#X connect 63 0 50 1;
#X connect 64 0 50 1;
#X connect 65 0 50 1;
#X connect 66 0 50 1;
#X connect 68 0 69 0;
#X connect 69 0 50 0;
#X connect 69 0 87 1;
#X connect 70 0 75 0;
#X connect 71 0 76 0;
#X connect 72 0 77 0;
#X connect 73 0 78 0;
#X connect 74 0 79 0;
#X connect 75 0 50 0;
#X connect 75 0 87 1;
#X connect 76 0 50 0;
#X connect 76 0 87 1;
#X connect 77 0 50 0;
#X connect 77 0 87 1;
#X connect 78 0 50 0;
#X connect 78 0 87 1;
#X connect 79 0 50 0;
#X connect 79 0 87 1;
#X connect 80 0 86 0;
#X connect 81 0 88 0;
#X connect 82 0 89 0;
#X connect 83 0 90 0;
#X connect 84 0 91 0;
#X connect 85 0 92 0;
#X connect 86 0 48 0;
#X connect 86 1 87 0;
#X connect 86 2 68 0;
#X connect 86 3 49 0;
#X connect 88 0 48 0;
#X connect 88 1 87 0;
#X connect 88 2 70 0;
#X connect 88 3 49 0;
#X connect 89 0 48 0;
#X connect 89 1 87 0;
#X connect 89 2 71 0;
#X connect 89 3 49 0;
#X connect 90 0 48 0;
#X connect 90 1 87 0;
#X connect 90 2 72 0;
#X connect 90 3 49 0;
#X connect 91 0 48 0;
#X connect 91 1 87 0;
#X connect 91 2 73 0;
#X connect 91 3 49 0;
#X connect 92 0 48 0;
#X connect 92 1 87 0;
#X connect 92 2 74 0;
#X connect 92 3 49 0;
#X restore 666 -105 pd sq;
#X obj 6 92 hradio 10 1 0 8 \$0-sel1 \$0-start empty 0 -8 0 10 -262144
-1 -1 0;
#X obj 92 91 hradio 10 1 0 8 \$0-sel2 empty empty 0 -8 0 10 -262144
-1 -1 0;
#X obj 92 91 cnv 10 82 10 empty \$0-cl2 select 20 6 0 12 -166441 -262144
0;
#N canvas 0 22 800 532 sel_colors 0;
#X obj 40 -229 r \$0-sel1;
#X obj 152 -228 r \$0-sel2;
#X msg 41 -91 \; \$1-cl1 color 13;
#X obj 41 -29 pack \$0;
#X obj 41 -112 pack \$0;
#X obj 41 -135 bang;
#X obj 41 -50 bang;
#X msg 41 -7 \; \$1-cl1 color 1;
#X obj 151 -29 pack \$0;
#X obj 151 -112 pack \$0;
#X obj 151 -135 bang;
#X obj 151 -50 bang;
#X obj 281 -29 pack \$0;
#X obj 281 -112 pack \$0;
#X obj 281 -135 bang;
#X obj 281 -50 bang;
#X obj 391 -29 pack \$0;
#X obj 391 -112 pack \$0;
#X obj 391 -135 bang;
#X obj 391 -50 bang;
#X obj 531 -29 pack \$0;
#X obj 531 -112 pack \$0;
#X obj 531 -135 bang;
#X obj 531 -50 bang;
#X obj 641 -29 pack \$0;
#X obj 641 -112 pack \$0;
#X obj 641 -135 bang;
#X obj 641 -50 bang;
#X obj 280 -229 r \$0-sel3;
#X obj 390 -229 r \$0-sel4;
#X obj 537 -230 r \$0-sel5;
#X obj 641 -231 r \$0-sel6;
#X msg 151 -91 \; \$1-cl2 color 13;
#X msg 151 -7 \; \$1-cl2 color 1;
#X msg 281 -91 \; \$1-cl3 color 13;
#X msg 281 -7 \; \$1-cl3 color 1;
#X msg 391 -91 \; \$1-cl4 color 13;
#X msg 391 -7 \; \$1-cl4 color 1;
#X msg 531 -91 \; \$1-cl5 color 13;
#X msg 531 -7 \; \$1-cl5 color 1;
#X msg 641 -91 \; \$1-cl6 color 13;
#X msg 641 -7 \; \$1-cl6 color 1;
#X connect 0 0 5 0;
#X connect 0 0 11 0;
#X connect 0 0 15 0;
#X connect 0 0 19 0;
#X connect 0 0 23 0;
#X connect 0 0 27 0;
#X connect 1 0 10 0;
#X connect 1 0 6 0;
#X connect 1 0 15 0;
#X connect 1 0 19 0;
#X connect 1 0 23 0;
#X connect 1 0 27 0;
#X connect 3 0 7 0;
#X connect 4 0 2 0;
#X connect 5 0 4 0;
#X connect 6 0 3 0;
#X connect 8 0 33 0;
#X connect 9 0 32 0;
#X connect 10 0 9 0;
#X connect 11 0 8 0;
#X connect 12 0 35 0;
#X connect 13 0 34 0;
#X connect 14 0 13 0;
#X connect 15 0 12 0;
#X connect 16 0 37 0;
#X connect 17 0 36 0;
#X connect 18 0 17 0;
#X connect 19 0 16 0;
#X connect 20 0 39 0;
#X connect 21 0 38 0;
#X connect 22 0 21 0;
#X connect 23 0 20 0;
#X connect 24 0 41 0;
#X connect 25 0 40 0;
#X connect 26 0 25 0;
#X connect 27 0 24 0;
#X connect 28 0 14 0;
#X connect 28 0 6 0;
#X connect 28 0 11 0;
#X connect 28 0 19 0;
#X connect 28 0 23 0;
#X connect 28 0 27 0;
#X connect 29 0 18 0;
#X connect 29 0 6 0;
#X connect 29 0 15 0;
#X connect 29 0 23 0;
#X connect 29 0 27 0;
#X connect 30 0 6 0;
#X connect 30 0 11 0;
#X connect 30 0 15 0;
#X connect 30 0 19 0;
#X connect 30 0 27 0;
#X connect 30 0 22 0;
#X connect 31 0 26 0;
#X connect 31 0 6 0;
#X connect 31 0 11 0;
#X connect 31 0 15 0;
#X connect 31 0 19 0;
#X connect 31 0 23 0;
#X restore 665 -126 pd sel_colors;
#X obj 180 91 hradio 10 1 0 8 \$0-sel3 empty empty 0 -8 0 10 -262144
-1 -1 0;
#X obj 178 91 cnv 10 82 10 empty \$0-cl3 select 20 6 0 12 -166441 -262144
0;
#X obj 266 91 hradio 10 1 0 8 \$0-sel4 empty empty 0 -8 0 10 -262144
-1 -1 0;
#X obj 266 91 cnv 10 82 10 empty \$0-cl4 select 20 6 0 12 -166441 -262144
0;
#X obj 355 91 hradio 10 1 0 8 \$0-sel5 empty empty 0 -8 0 10 -262144
-1 -1 0;
#X obj 353 91 cnv 10 82 10 empty \$0-cl5 select 20 6 0 12 -166441 -262144
0;
#X obj 440 91 hradio 10 1 0 8 \$0-sel6 empty empty 0 -8 0 10 -262144
-1 -1 0;
#X obj 440 91 cnv 10 82 10 empty \$0-cl6 select 20 6 0 12 -166441 -262144
0;
#X obj 231 218 s~ \$0-master;
#X obj 665 -82 r~ \$0-master;
#N canvas 0 22 800 532 play 0;
#X obj 191 41 r \$0-bpm;
#X obj 140 94 metro 125;
#X obj 191 67 bpm;
#X obj 140 13 r \$0-play;
#X obj 140 122 i;
#X obj 167 122 + 1;
#X obj 140 152 % 16;
#X obj 14 223 tabread \$0-ch1;
#X obj 104 223 tabread \$0-ch2;
#X obj 194 223 tabread \$0-ch3;
#X obj 284 223 tabread \$0-ch4;
#X obj 374 223 tabread \$0-ch5;
#X obj 464 223 tabread \$0-ch6;
#X obj 15 242 sel 1;
#X obj 105 252 sel 1;
#X obj 195 252 sel 1;
#X obj 285 262 sel 1;
#X obj 375 252 sel 1;
#X obj 465 262 sel 1;
#X obj 56 287 s \$0-pl1;
#X obj 116 287 s \$0-pl2;
#X obj 176 287 s \$0-pl3;
#X obj 236 287 s \$0-pl4;
#X obj 296 287 s \$0-pl5;
#X obj 356 287 s \$0-pl6;
#X obj 640 24 r \$0-clear;
#X obj 640 47 pack \$0;
#X msg 639 71 \; \$1-ch1 const 0 \; \$1-ch2 const 0 \; \$1-ch3 const
0 \; \$1-ch4 const 0 \; \$1-ch5 const 0 \; \$1-ch6 const 0 \; \$1-ch7
const 0 \; \$1-ch8 const 0 \; \$1-sr1 0 \; \$1-sr2 0 \; \$1-sr3 0 \;
\$1-sr4 0 \; \$1-sr5 0 \; \$1-sr6 0 \; \$1-sr7 0 \; \$1-sr8 0 \; \$1-sr9
0 \; \$1-sr10 0 \; \$1-sr11 0 \; \$1-sr12 0 \; \$1-sr13 0 \; \$1-sr14
0 \; \$1-sr15 0 \; \$1-sr16 0 \;;
#X obj 97 328 sel 0 1 2 3 4 5 6 7 8 9 10 11 12 13 14 15;
#X obj 25 382 s \$0-b1;
#X obj 75 382 s \$0-b2;
#X obj 125 382 s \$0-b3;
#X obj 175 382 s \$0-b4;
#X obj 225 382 s \$0-b5;
#X obj 275 382 s \$0-b6;
#X obj 325 382 s \$0-b7;
#X obj 374 382 s \$0-b8;
#X obj 55 422 s \$0-b9;
#X obj 105 422 s \$0-b10;
#X obj 155 422 s \$0-b11;
#X obj 205 422 s \$0-b12;
#X obj 255 422 s \$0-b13;
#X obj 305 422 s \$0-b14;
#X obj 355 422 s \$0-b15;
#X obj 405 422 s \$0-b16;
#X connect 0 0 2 0;
#X connect 1 0 4 0;
#X connect 2 0 1 1;
#X connect 3 0 1 0;
#X connect 4 0 5 0;
#X connect 4 0 6 0;
#X connect 5 0 4 1;
#X connect 6 0 7 0;
#X connect 6 0 8 0;
#X connect 6 0 9 0;
#X connect 6 0 10 0;
#X connect 6 0 11 0;
#X connect 6 0 12 0;
#X connect 6 0 28 0;
#X connect 7 0 13 0;
#X connect 8 0 14 0;
#X connect 9 0 15 0;
#X connect 10 0 16 0;
#X connect 11 0 17 0;
#X connect 12 0 18 0;
#X connect 13 0 19 0;
#X connect 14 0 20 0;
#X connect 15 0 21 0;
#X connect 16 0 22 0;
#X connect 17 0 23 0;
#X connect 18 0 24 0;
#X connect 25 0 26 0;
#X connect 26 0 27 0;
#X connect 28 0 29 0;
#X connect 28 1 30 0;
#X connect 28 2 31 0;
#X connect 28 3 32 0;
#X connect 28 4 33 0;
#X connect 28 5 34 0;
#X connect 28 6 35 0;
#X connect 28 7 36 0;
#X connect 28 8 37 0;
#X connect 28 9 38 0;
#X connect 28 10 39 0;
#X connect 28 11 40 0;
#X connect 28 12 41 0;
#X connect 28 13 42 0;
#X connect 28 14 43 0;
#X connect 28 15 44 0;
#X restore 665 -148 pd play;
#X obj 2 -25 r \$0-pl1;
#X obj 89 -25 r \$0-pl2;
#X obj 176 -25 r \$0-pl3;
#X obj 263 -25 r \$0-pl4;
#X obj 349 -25 r \$0-pl5;
#X obj 437 -26 r \$0-pl6;
#X obj 10 111 bng 15 100 50 0 empty \$0-b1 empty 17 7 0 10 -1 -258113
-1;
#X obj 38 111 bng 15 100 50 0 empty \$0-b2 empty 17 7 0 10 -1 -258113
-1;
#X obj 66 110 bng 15 100 50 0 empty \$0-b3 empty 17 7 0 10 -1 -258113
-1;
#X obj 93 111 bng 15 100 50 0 empty \$0-b4 empty 17 7 0 10 -1 -258113
-1;
#X obj 127 111 bng 15 100 50 0 empty \$0-b5 empty 17 7 0 10 -1 -258113
-1;
#X obj 155 111 bng 15 100 50 0 empty \$0-b6 empty 17 7 0 10 -1 -258113
-1;
#X obj 183 111 bng 15 100 50 0 empty \$0-b7 empty 17 7 0 10 -1 -258113
-1;
#X obj 211 111 bng 15 100 50 0 empty \$0-b8 empty 17 7 0 10 -1 -258113
-1;
#X obj 243 111 bng 15 100 50 0 empty \$0-b9 empty 17 7 0 10 -1 -258113
-1;
#X obj 271 111 bng 15 100 50 0 empty \$0-b10 empty 17 7 0 10 -1 -258113
-1;
#X obj 299 111 bng 15 100 50 0 empty \$0-b11 empty 17 7 0 10 -1 -258113
-1;
#X obj 327 111 bng 15 100 50 0 empty \$0-b12 empty 17 7 0 10 -1 -258113
-1;
#X obj 360 111 bng 15 100 50 0 empty \$0-b13 empty 17 7 0 10 -1 -258113
-1;
#X obj 388 111 bng 15 100 50 0 empty \$0-b14 empty 17 7 0 10 -1 -258113
-1;
#X obj 415 111 bng 15 100 50 0 empty \$0-b15 empty 17 7 0 10 -1 -258113
-1;
#X obj 444 111 bng 15 100 50 0 empty \$0-b16 empty 17 7 0 10 -1 -258113
-1;
#N canvas 0 22 800 532 init 0;
#X obj 344 213 pack \$0;
#X obj 344 177 bng 15 250 50 0 empty empty empty 17 7 0 10 -262144
-1 -1;
#X obj 305 122 loadbang;
#X obj 305 149 t b b b;
#X msg 263 262 \; \$1-start 0;
#X obj 263 239 pack \$0;
#X msg 344 239 \; \$1-kckd_r 87 \; \$1-kckfreq_r 54 \; \$1-kcklevel_r
100 \; \$1-snd_r 136 \; \$1-snpitch_r 143 \; \$1-snlvl_r 100 \; \$1-hatd_r
25 \; \$1-hatlvl_r 36 \; \$1-tomd_r 140 \; \$1-pitch_r 332 \; \$1-tomlevel_r
80 \; \$1-tomd2_r 250 \; \$1-pitch2_r 439 \; \$1-tomlevel2_r 95 \;
\$1-rd_r 343 \; \$1-rpitch_r 50 \; \$1-rlvl_r 81 \; \$1-lpat 0 \; \;
\$1-bpm_r 120;
#X connect 0 0 6 0;
#X connect 1 0 0 0;
#X connect 2 0 3 0;
#X connect 3 1 5 0;
#X connect 3 2 1 0;
#X connect 5 0 4 0;
#X restore 663 -188 pd init;
#N canvas 0 22 800 532 patterns 0;
#X obj 35 324 arraycopy;
#X obj 35 -31 pack \$0;
#X obj 79 17 pack \$0;
#X obj 109 73 pack \$0;
#X obj 135 126 pack \$0;
#X obj 166 181 pack \$0;
#X obj 209 230 pack \$0;
#X obj 21 -123 bng 15 250 50 0 empty empty empty 17 7 0 10 -262144
-1 -1;
#N canvas 0 22 450 300 (subpatch) 0;
#X array \$0-pattern 96 float 3;
#A 0 1 1 1 1 0 0 0 0 0 0 0 0 0 0 0 0 0 0 0 0 0 0 0 0 0 0 0 0 1 1 1
1 0 0 0 0 0 0 0 0 0 0 0 0 0 0 0 0 0 0 0 0 1 1 1 1 0 0 0 0 0 0 0 0 0
0 0 0 0 0 0 0 1 1 1 1 0 0 0 0 0 0 0 0 0 0 0 0 0 0 0 0 0 0 0 0;
#X coords 0 1 95 -1 200 140 1;
#X restore 537 -166 graph;
#X obj 405 324 arraycopy;
#X obj 405 -37 pack \$0;
#X obj 405 -96 bng 15 250 50 0 empty empty empty 17 7 0 10 -262144
-1 -1;
#X msg 254 -22 \; \$1-pattern const 0;
#X obj 254 -45 pack \$0;
#X obj 435 19 pack \$0;
#X msg 405 -5 copy \$1-pattern 0 16 \$1-ch1 0;
#X obj 455 83 pack \$0;
#X obj 485 139 pack \$0;
#X obj 465 193 pack \$0;
#X obj 495 249 pack \$0;
#X obj 275 -88 r \$0-clear;
#X msg 35 -5 copy \$1-ch1 0 16 \$1-pattern 0;
#X msg 79 43 copy \$1-ch2 0 16 \$1-pattern 16;
#X msg 109 99 copy \$1-ch3 0 16 \$1-pattern 32;
#X msg 135 152 copy \$1-ch4 0 16 \$1-pattern 48;
#X msg 166 207 copy \$1-ch5 0 16 \$1-pattern 64;
#X msg 209 256 copy \$1-ch6 0 16 \$1-pattern 80;
#X msg 434 49 copy \$1-pattern 16 32 \$1-ch2 0;
#X msg 455 115 copy \$1-pattern 32 48 \$1-ch3 0;
#X msg 484 169 copy \$1-pattern 48 64 \$1-ch4 0;
#X msg 465 225 copy \$1-pattern 64 80 \$1-ch5 0;
#X msg 494 279 copy \$1-pattern 80 96 \$1-ch6 0;
#X obj 21 -66 t b b b b b b b;
#N canvas 0 22 800 532 store 0;
#X obj 223 224 r \$0-loadpat;
#X obj 208 287 makefilename pat%d.txt;
#X obj 208 309 pack s \$0;
#X msg 208 333 \; \$2-pattern write \$1;
#X obj 208 255 f;
#X obj 208 162 inlet;
#X connect 0 0 4 1;
#X connect 1 0 2 0;
#X connect 2 0 3 0;
#X connect 4 0 1 0;
#X connect 5 0 4 0;
#X restore 21 96 pd store;
#N canvas 0 22 800 532 recall 0;
#X obj 196 77 r \$0-loadpat;
#X obj 196 111 t b f;
#X obj 109 243 outlet;
#X obj 223 137 makefilename pat%d.txt;
#X obj 223 159 pack s \$0;
#X msg 223 183 \; \$2-pattern read \$1;
#X connect 0 0 1 0;
#X connect 1 0 2 0;
#X connect 1 1 3 0;
#X connect 3 0 4 0;
#X connect 4 0 5 0;
#X restore 405 -118 pd recall;
#X obj 405 -74 t b b b b b b;
#X obj 22 -144 r \$0-save;
#X connect 1 0 21 0;
#X connect 2 0 22 0;
#X connect 3 0 23 0;
#X connect 4 0 24 0;
#X connect 5 0 25 0;
#X connect 6 0 26 0;
#X connect 7 0 32 0;
#X connect 10 0 15 0;
#X connect 11 0 35 0;
#X connect 13 0 12 0;
#X connect 14 0 27 0;
#X connect 15 0 9 0;
#X connect 16 0 28 0;
#X connect 17 0 29 0;
#X connect 18 0 30 0;
#X connect 19 0 31 0;
#X connect 21 0 0 0;
#X connect 22 0 0 0;
#X connect 23 0 0 0;
#X connect 24 0 0 0;
#X connect 25 0 0 0;
#X connect 26 0 0 0;
#X connect 27 0 9 0;
#X connect 28 0 9 0;
#X connect 29 0 9 0;
#X connect 30 0 9 0;
#X connect 31 0 9 0;
#X connect 32 0 33 0;
#X connect 32 1 1 0;
#X connect 32 2 2 0;
#X connect 32 3 3 0;
#X connect 32 4 4 0;
#X connect 32 5 5 0;
#X connect 32 6 6 0;
#X connect 34 0 11 0;
#X connect 35 0 10 0;
#X connect 35 1 14 0;
#X connect 35 2 16 0;
#X connect 35 3 17 0;
#X connect 35 4 18 0;
#X connect 35 5 19 0;
#X connect 36 0 7 0;
#X restore 664 -169 pd patterns;
#X obj 526 3 cnv 15 91 129 empty empty empty 20 12 0 14 -1 -66577 0
;
#X obj 530 75 nbx 3 24 50 200 0 0 \$0-bpm \$0-bpm_r BPM 45 15 0 10
-262144 -1 -262144 120 256;
#X obj 530 7 tgl 18 0 \$0-play empty play 21 7 0 10 -258113 -1 -262144
0 1;
#X obj 530 30 bng 18 250 50 0 \$0-clear empty clear 21 7 0 10 -162280
-1 -262144;
#X obj 602 11 vradio 11 1 0 8 \$0-loadpat \$0-lpat empty 0 -8 0 10
-162280 -262144 -1 1;
#X obj 530 54 bng 18 250 50 0 \$0-save empty save 21 7 0 10 -162280
-1 -262144;
#X obj 466 105 cnv 15 100 27 empty empty empty 20 12 0 14 -1 -66577
0;
#X obj 550 -46 inlet;
#X obj 5 92 cnv 10 82 10 empty \$0-cl1 select 20 6 0 12 -258699 -262144
0;
#X obj 664 -59 outlet~;
#X obj 590 -29 inlet;
#X connect 0 0 35 0;
#X connect 1 0 35 0;
#X connect 2 0 35 0;
#X connect 3 0 35 0;
#X connect 4 0 35 0;
#X connect 5 0 35 0;
#X connect 23 0 6 0;
#X connect 36 0 71 0;
#X connect 38 0 0 0;
#X connect 39 0 1 0;
#X connect 40 0 2 0;
#X connect 41 0 3 0;
#X connect 42 0 4 0;
#X connect 43 0 5 0;
#X connect 69 0 64 0;
#X connect 72 0 66 0;
#X coords 0 -1 1 1 620 135 2 0 0;
