#N canvas 108 39 662 587 12;
#X declare -path z_laala_abs;
#N canvas 210 64 773 389 mixer 0;
#X obj 64 58 catch~ L;
#X obj 245 59 catch~ R;
#X obj 528 58 r dspON;
#X msg 528 95 \; pd dsp \$1;
#X obj 63 248 outlet~;
#X obj 246 244 outlet~;
#X connect 0 0 4 0;
#X connect 1 0 5 0;
#X connect 2 0 3 0;
#X restore 229 493 pd mixer;
#N canvas 0 22 1024 720 positionSampler1 0;
#X obj 427 74 openpanel;
#X obj 427 121 soundfiler;
#X msg 427 97 read -resize \$1 arrSmp2;
#X msg 427 472 0;
#X obj 427 377 *;
#X obj 437 347 t b f;
#X msg 427 400 set \$1;
#X msg 460 155 \; arrSmp2 normalize 1;
#X obj 427 293 / 1000;
#X obj 427 48 r ps1Load;
#X obj 437 324 r ps1Pos;
#X obj 213 25 r ps1Play;
#X obj 213 72 metro;
#X obj 248 47 r ps1Tempo;
#X text 523 66 open sample;
#X text 496 395 trigger sample;
#X text 482 301 calc pos;
#N canvas 167 138 984 744 rangePresets 0;
#X obj 60 306 f;
#X obj 126 306 f;
#X obj 364 85 r ps1From;
#X obj 473 86 r ps1To;
#X obj 73 126 f;
#X obj 92 101 r ps1RangePresets;
#X obj 73 148 sel 0 1 2 3 4 5 6 7;
#X obj 73 74 r ps1SaveRange;
#X msg 60 352 18.2371;
#X msg 126 352 1000;
#X msg 60 329 set \$1;
#X msg 126 329 set \$1;
#X obj 123 390 f;
#X obj 189 390 f;
#X msg 123 436 18.2371;
#X msg 189 436 641.337;
#X msg 123 413 set \$1;
#X msg 189 413 set \$1;
#X obj 225 301 f;
#X obj 291 301 f;
#X msg 225 347 860.182;
#X msg 291 347 641.337;
#X msg 225 324 set \$1;
#X msg 291 324 set \$1;
#X obj 288 385 f;
#X obj 354 385 f;
#X msg 288 431 329.932;
#X msg 354 431 258.503;
#X msg 288 408 set \$1;
#X msg 354 408 set \$1;
#X obj 380 305 f;
#X obj 446 305 f;
#X msg 380 351 0;
#X msg 446 351 1000;
#X msg 380 328 set \$1;
#X msg 446 328 set \$1;
#X obj 443 389 f;
#X obj 509 389 f;
#X msg 443 435 51.0204;
#X msg 509 435 176.871;
#X msg 443 412 set \$1;
#X msg 509 412 set \$1;
#X obj 545 300 f;
#X obj 611 300 f;
#X msg 545 346 479.592;
#X msg 611 346 452.381;
#X msg 545 323 set \$1;
#X msg 611 323 set \$1;
#X obj 608 384 f;
#X obj 674 384 f;
#X msg 608 430 438.776;
#X msg 674 430 880.952;
#X msg 608 407 set \$1;
#X msg 674 407 set \$1;
#X obj 376 622 s ps1Fromr;
#X obj 462 622 s ps1Tor;
#X obj 763 115 f;
#X obj 782 91 r ps1RangePresets;
#X obj 763 63 r ps1LoadRange;
#X obj 763 139 sel 0 1 2 3 4 5 6 7;
#X connect 0 0 10 0;
#X connect 1 0 11 0;
#X connect 2 0 0 1;
#X connect 2 0 18 1;
#X connect 2 0 24 1;
#X connect 2 0 12 1;
#X connect 2 0 30 1;
#X connect 2 0 36 1;
#X connect 2 0 42 1;
#X connect 2 0 48 1;
#X connect 3 0 1 1;
#X connect 3 0 19 1;
#X connect 3 0 25 1;
#X connect 3 0 13 1;
#X connect 3 0 31 1;
#X connect 3 0 37 1;
#X connect 3 0 43 1;
#X connect 3 0 49 1;
#X connect 4 0 6 0;
#X connect 5 0 4 1;
#X connect 6 0 0 0;
#X connect 6 0 1 0;
#X connect 6 1 12 0;
#X connect 6 1 13 0;
#X connect 6 2 18 0;
#X connect 6 2 19 0;
#X connect 6 3 24 0;
#X connect 6 3 25 0;
#X connect 6 4 30 0;
#X connect 6 4 31 0;
#X connect 6 5 36 0;
#X connect 6 5 37 0;
#X connect 6 6 42 0;
#X connect 6 6 43 0;
#X connect 6 7 48 0;
#X connect 6 7 49 0;
#X connect 7 0 4 0;
#X connect 8 0 54 0;
#X connect 9 0 55 0;
#X connect 10 0 8 0;
#X connect 11 0 9 0;
#X connect 12 0 16 0;
#X connect 13 0 17 0;
#X connect 14 0 54 0;
#X connect 15 0 55 0;
#X connect 16 0 14 0;
#X connect 17 0 15 0;
#X connect 18 0 22 0;
#X connect 19 0 23 0;
#X connect 20 0 54 0;
#X connect 21 0 55 0;
#X connect 22 0 20 0;
#X connect 23 0 21 0;
#X connect 24 0 28 0;
#X connect 25 0 29 0;
#X connect 26 0 54 0;
#X connect 27 0 55 0;
#X connect 28 0 26 0;
#X connect 29 0 27 0;
#X connect 30 0 34 0;
#X connect 31 0 35 0;
#X connect 32 0 54 0;
#X connect 33 0 55 0;
#X connect 34 0 32 0;
#X connect 35 0 33 0;
#X connect 36 0 40 0;
#X connect 37 0 41 0;
#X connect 38 0 54 0;
#X connect 39 0 55 0;
#X connect 40 0 38 0;
#X connect 41 0 39 0;
#X connect 42 0 46 0;
#X connect 43 0 47 0;
#X connect 44 0 54 0;
#X connect 45 0 55 0;
#X connect 46 0 44 0;
#X connect 47 0 45 0;
#X connect 48 0 52 0;
#X connect 49 0 53 0;
#X connect 50 0 54 0;
#X connect 51 0 55 0;
#X connect 52 0 50 0;
#X connect 53 0 51 0;
#X connect 56 0 59 0;
#X connect 57 0 56 1;
#X connect 58 0 56 0;
#X connect 59 0 8 0;
#X connect 59 0 9 0;
#X connect 59 1 14 0;
#X connect 59 1 15 0;
#X connect 59 2 20 0;
#X connect 59 2 21 0;
#X connect 59 3 26 0;
#X connect 59 3 27 0;
#X connect 59 4 32 0;
#X connect 59 4 33 0;
#X connect 59 5 38 0;
#X connect 59 5 39 0;
#X connect 59 6 44 0;
#X connect 59 6 45 0;
#X connect 59 7 50 0;
#X connect 59 7 51 0;
#X restore 775 42 pd rangePresets;
#N canvas 367 278 579 336 envelopePresets 0;
#X obj 212 33 r ps1EnvPresets;
#X obj 212 76 sel 0 1 2 3 4 5;
#X obj 195 247 s ps1Ar;
#X obj 261 247 s ps1Hr;
#X obj 327 247 s ps1Rr;
#X obj 71 116 100;
#X msg 142 153 0;
#X msg 191 121 30;
#X msg 107 153 100;
#X msg 227 159 100;
#X msg 263 159 30;
#X msg 327 129 0;
#X msg 361 129 30;
#X msg 399 129 100;
#X msg 32 115 10;
#X msg 301 160 10;
#X msg 464 181 80;
#X msg 502 180 10;
#X connect 0 0 1 0;
#X connect 1 0 14 0;
#X connect 1 0 5 0;
#X connect 1 1 8 0;
#X connect 1 1 6 0;
#X connect 1 2 7 0;
#X connect 1 3 9 0;
#X connect 1 3 10 0;
#X connect 1 3 15 0;
#X connect 1 4 11 0;
#X connect 1 4 12 0;
#X connect 1 4 13 0;
#X connect 1 5 16 0;
#X connect 1 5 17 0;
#X connect 5 0 3 0;
#X connect 6 0 3 0;
#X connect 7 0 4 0;
#X connect 7 0 3 0;
#X connect 7 0 2 0;
#X connect 8 0 2 0;
#X connect 8 0 4 0;
#X connect 9 0 2 0;
#X connect 10 0 3 0;
#X connect 11 0 2 0;
#X connect 12 0 3 0;
#X connect 13 0 4 0;
#X connect 14 0 2 0;
#X connect 14 0 4 0;
#X connect 15 0 4 0;
#X connect 16 0 2 0;
#X connect 16 0 4 0;
#X connect 17 0 3 0;
#X restore 775 18 pd envelopePresets;
#N canvas 0 22 462 312 randomRange 0;
#X obj 141 37 r seekwDone;
#X obj 141 127 sel 1;
#X obj 88 188 random 1000;
#X obj 198 189 random 1000;
#X obj 88 225 s ps1Fromr;
#X obj 198 224 s ps1Tor;
#X obj 241 38 r ps1RandomRange;
#X obj 141 85 spigot;
#X connect 0 0 7 0;
#X connect 1 0 2 0;
#X connect 1 0 3 0;
#X connect 2 0 4 0;
#X connect 3 0 5 0;
#X connect 6 0 7 1;
#X connect 7 0 1 0;
#X restore 775 90 pd randomRange;
#N canvas 0 22 1074 751 mixer&output 0;
#X obj 99 283 volctrl~;
#X obj 535 250 volctrl~;
#X obj 158 177 r ps1Lvl;
#X obj 594 207 r ps1PitchLvl;
#X obj 488 623 throw~ L;
#X obj 559 622 throw~ R;
#X text 128 130 dry lvl;
#X obj 423 234 volctrl~;
#X obj 482 191 r ps1PitchDry;
#X text 421 213 pitch dry;
#N canvas 245 69 821 734 delay 0;
#X obj 161 317 volctrl~;
#X obj 78 318 volctrl~;
#X obj 220 271 r ps1Dly;
#X obj 94 61 r ps1DelSpd;
#X obj 127 109 r ps1DelWidth;
#X obj 111 85 r ps1DelOffs;
#X obj 79 37 inlet~;
#X obj 79 636 outlet~;
#X obj 162 636 outlet~;
#X obj 78 192 8tapPdelay~;
#X obj 161 164 r ps1DelMassive;
#X obj 144 136 r ps1DelSmooth;
#X obj 353 274 +~;
#X obj 353 299 /~ 2;
#X obj 354 323 volctrl~;
#X obj 413 299 r ps1Del1ToDel2;
#X obj 473 495 volctrl~;
#X obj 355 496 volctrl~;
#X obj 355 461 8tapPdelay~;
#X obj 371 346 r ps1DelSpd2;
#X obj 388 369 r ps1DelOffs2;
#X obj 404 392 r ps1DelWidth2;
#X obj 421 415 r ps1DelSmooth2;
#X obj 438 438 r ps1DelMassive2;
#X obj 488 459 r ps1Dly2;
#X text 309 79 main delay 1;
#X text 608 403 delay 2;
#X obj 457 42 inlet~ dly2;
#X connect 0 0 8 0;
#X connect 1 0 7 0;
#X connect 2 0 0 1;
#X connect 2 0 1 1;
#X connect 3 0 9 1;
#X connect 4 0 9 3;
#X connect 5 0 9 2;
#X connect 6 0 9 0;
#X connect 9 0 1 0;
#X connect 9 0 12 0;
#X connect 9 1 0 0;
#X connect 9 1 12 1;
#X connect 10 0 9 5;
#X connect 11 0 9 4;
#X connect 12 0 13 0;
#X connect 13 0 14 0;
#X connect 14 0 18 0;
#X connect 15 0 14 1;
#X connect 16 0 8 0;
#X connect 17 0 7 0;
#X connect 18 0 17 0;
#X connect 18 1 16 0;
#X connect 19 0 18 1;
#X connect 20 0 18 2;
#X connect 21 0 18 3;
#X connect 22 0 18 4;
#X connect 23 0 18 5;
#X connect 24 0 16 1;
#X connect 24 0 17 1;
#X connect 27 0 18 0;
#X restore 505 388 pd delay;
#X obj 100 66 inlet~;
#X obj 424 82 inlet~;
#X obj 765 47 inlet~;
#X obj 203 275 volctrl~;
#X obj 202 62 inlet~;
#X obj 247 182 r ps1ToDly;
#X obj 188 207 volctrl~;
#X obj 870 242 volctrl~;
#X obj 764 203 volctrl~;
#X text 756 178 pitch dry;
#X obj 823 160 r ps1PitchDry2;
#X obj 929 199 r ps1PitchLvl2;
#X text 503 136 pitcher1;
#X text 888 96 pitcher2;
#X obj 278 207 volctrl~;
#X obj 337 182 r ps1ToDly2;
#X obj 582 280 volctrl~;
#X obj 641 237 r ps1Pitch2Lvl;
#X obj 883 286 volctrl~;
#X obj 942 243 r ps1Pitch2Lvl2;
#X connect 0 0 4 0;
#X connect 1 0 10 0;
#X connect 2 0 0 1;
#X connect 2 0 14 1;
#X connect 3 0 1 1;
#X connect 7 0 4 0;
#X connect 7 0 5 0;
#X connect 8 0 7 1;
#X connect 10 0 4 0;
#X connect 10 1 5 0;
#X connect 11 0 0 0;
#X connect 11 0 17 0;
#X connect 11 0 25 0;
#X connect 12 0 7 0;
#X connect 12 0 1 0;
#X connect 12 0 27 0;
#X connect 13 0 19 0;
#X connect 13 0 18 0;
#X connect 13 0 29 0;
#X connect 14 0 5 0;
#X connect 15 0 14 0;
#X connect 16 0 17 1;
#X connect 17 0 10 0;
#X connect 18 0 10 0;
#X connect 19 0 4 0;
#X connect 19 0 5 0;
#X connect 21 0 19 1;
#X connect 22 0 18 1;
#X connect 25 0 10 1;
#X connect 26 0 25 1;
#X connect 27 0 10 1;
#X connect 28 0 27 1;
#X connect 29 0 10 1;
#X connect 30 0 29 1;
#X restore 284 629 pd mixer&output;
#N canvas 1288 106 798 602 shifter1 0;
#X obj 491 375 pitcher~;
#X obj 491 296 r ps1PitchFreq;
#X obj 510 325 r ps1PitchWindow;
#X obj 530 348 r ps1PitchDelay;
#X obj 55 91 f;
#X obj 55 53 r ps1NoteMin;
#X obj 55 229 s ps1PitchFreqr;
#X obj 55 122 - 1;
#X obj 196 91 f;
#X obj 196 53 r ps1NotePlus;
#X obj 196 123 + 1;
#X text 85 105 pitch buttons;
#X obj 549 49 inlet~;
#X obj 490 430 outlet~;
#X obj 312 52 keyboardHI;
#X obj 312 79 - 1;
#X obj 411 53 keyboardLO;
#X obj 411 79 - 13;
#X obj 312 147 spigot;
#X obj 442 115 r ps1Keyb1On;
#X connect 0 0 13 0;
#X connect 1 0 0 0;
#X connect 1 0 4 1;
#X connect 1 0 8 1;
#X connect 2 0 0 1;
#X connect 3 0 0 2;
#X connect 4 0 7 0;
#X connect 5 0 4 0;
#X connect 7 0 6 0;
#X connect 8 0 10 0;
#X connect 9 0 8 0;
#X connect 10 0 6 0;
#X connect 12 0 0 3;
#X connect 14 0 15 0;
#X connect 15 0 18 0;
#X connect 16 0 17 0;
#X connect 17 0 18 0;
#X connect 18 0 6 0;
#X connect 19 0 18 1;
#X restore 361 590 pd shifter1;
#N canvas 0 22 724 744 dryeffect 0;
#X obj 61 28 inlet~;
#X obj 60 651 outlet~;
#X obj 250 650 outlet~;
#X obj 196 78 r ps1Tempo;
#X obj 161 165 metro;
#X obj 101 98 r ps1Play;
#X obj 271 531 line~;
#X obj 251 593 *~;
#X obj 138 528 line~;
#X obj 61 590 *~;
#X floatatom 296 79 5 1 8 0 - - -;
#X obj 378 277 tgl 15 0 empty empty empty 0 -6 0 8 -262144 -1 -1 0
1;
#X obj 346 316 spigot;
#X floatatom 327 282 5 0 0 0 - - -;
#X obj 249 150 /;
#X obj 260 112 t b f;
#X obj 434 314 sel 0;
#X obj 435 358 0;
#X obj 335 238 random 3;
#X obj 310 193 random 16;
#X msg 297 49 1;
#X obj 297 17 loadbang;
#X obj 435 256 r ps1StereoStutter;
#X obj 488 312 loadbang;
#X obj 206 414 sel 0 1 2;
#X msg 128 480 1 20;
#X msg 172 480 0 20;
#X msg 208 480 1.5 20;
#X msg 271 483 1 20;
#X msg 306 483 0 20;
#X msg 341 483 1.5 20;
#X connect 0 0 7 0;
#X connect 0 0 9 0;
#X connect 3 0 4 1;
#X connect 3 0 14 0;
#X connect 4 0 18 0;
#X connect 4 0 19 0;
#X connect 5 0 4 0;
#X connect 6 0 7 1;
#X connect 7 0 2 0;
#X connect 8 0 9 1;
#X connect 9 0 1 0;
#X connect 10 0 15 0;
#X connect 11 0 12 1;
#X connect 11 0 16 0;
#X connect 12 0 24 0;
#X connect 13 0 12 0;
#X connect 14 0 4 1;
#X connect 15 0 14 0;
#X connect 15 1 14 1;
#X connect 16 0 17 0;
#X connect 17 0 24 0;
#X connect 18 0 13 0;
#X connect 19 0 10 0;
#X connect 20 0 10 0;
#X connect 21 0 20 0;
#X connect 22 0 12 1;
#X connect 22 0 16 0;
#X connect 23 0 17 0;
#X connect 24 0 25 0;
#X connect 24 0 28 0;
#X connect 24 1 26 0;
#X connect 24 1 30 0;
#X connect 24 2 27 0;
#X connect 24 2 29 0;
#X connect 25 0 8 0;
#X connect 26 0 8 0;
#X connect 28 0 6 0;
#X connect 29 0 6 0;
#X restore 232 591 pd dryeffect;
#N canvas 209 40 1019 926 player 0;
#X obj 82 24 inlet metro;
#X obj 189 24 inlet positionMsg;
#X obj 420 83 t b;
#X obj 252 734 outlet~;
#X obj 420 108 f;
#X obj 468 107 + 1;
#X msg 449 83 0;
#X obj 449 59 t b;
#N canvas 528 461 474 466 step1 0;
#X obj 97 355 *~;
#N canvas 0 22 486 431 envelope 0;
#X obj 107 260 adsr--~;
#X obj 116 34 r ps1Tempo;
#X obj 62 95 r ps1A;
#X obj 115 95 r ps1H;
#X obj 169 95 r ps1R;
#X msg 127 233 1;
#X obj 127 207 loadbang;
#X obj 62 160 / 200;
#X obj 115 160 / 100;
#X obj 169 160 / 200;
#X obj 62 183 *;
#X obj 115 184 *;
#X obj 169 183 *;
#X obj 62 127 f;
#X obj 115 128 f;
#X obj 80 66 t b;
#X obj 169 128 f;
#X obj 108 298 outlet~;
#X obj 23 35 inlet bang;
#X connect 0 0 17 0;
#X connect 1 0 10 1;
#X connect 1 0 11 1;
#X connect 1 0 12 1;
#X connect 1 0 15 0;
#X connect 2 0 13 0;
#X connect 3 0 14 0;
#X connect 4 0 16 0;
#X connect 5 0 0 2;
#X connect 6 0 5 0;
#X connect 7 0 10 0;
#X connect 8 0 11 0;
#X connect 9 0 12 0;
#X connect 10 0 0 1;
#X connect 11 0 0 4;
#X connect 12 0 0 5;
#X connect 13 0 7 0;
#X connect 14 0 8 0;
#X connect 15 0 13 0;
#X connect 15 0 14 0;
#X connect 15 0 16 0;
#X connect 16 0 9 0;
#X connect 18 0 0 0;
#X restore 98 298 pd envelope;
#X obj 115 328 tabplay~ arrSmp2;
#X obj 114 173 t b b;
#X obj 149 236 tgl 15 0 empty empty empty 0 -6 0 8 -262144 -1 -1 0
1;
#X obj 114 200 del;
#X obj 261 296 spigot;
#X obj 261 169 spigot;
#X obj 304 143 r ps1Step1On;
#X obj 98 266 spigot;
#X obj 15 19 inlet metro;
#X obj 281 201 r ps1Tempo;
#X obj 114 19 inlet triggerBang;
#X obj 261 19 inlet posMsg;
#X obj 96 396 outlet~;
#X connect 0 0 14 0;
#X connect 1 0 0 0;
#X connect 2 0 0 1;
#X connect 3 0 5 0;
#X connect 3 1 4 0;
#X connect 4 0 6 1;
#X connect 4 0 9 1;
#X connect 5 0 4 0;
#X connect 6 0 2 0;
#X connect 7 0 6 0;
#X connect 8 0 7 1;
#X connect 9 0 1 0;
#X connect 10 0 9 0;
#X connect 11 0 5 1;
#X connect 12 0 3 0;
#X connect 13 0 7 0;
#X restore 82 276 pd step1;
#N canvas 528 461 458 450 step2 0;
#X obj 97 355 *~;
#N canvas 0 22 482 427 envelope 0;
#X obj 107 260 adsr--~;
#X obj 116 34 r ps1Tempo;
#X obj 62 95 r ps1A;
#X obj 115 95 r ps1H;
#X obj 169 95 r ps1R;
#X msg 127 233 1;
#X obj 127 207 loadbang;
#X obj 62 160 / 200;
#X obj 115 160 / 100;
#X obj 169 160 / 200;
#X obj 62 183 *;
#X obj 115 184 *;
#X obj 169 183 *;
#X obj 62 127 f;
#X obj 115 128 f;
#X obj 80 66 t b;
#X obj 169 128 f;
#X obj 108 298 outlet~;
#X obj 23 35 inlet bang;
#X connect 0 0 17 0;
#X connect 1 0 10 1;
#X connect 1 0 11 1;
#X connect 1 0 12 1;
#X connect 1 0 15 0;
#X connect 2 0 13 0;
#X connect 3 0 14 0;
#X connect 4 0 16 0;
#X connect 5 0 0 2;
#X connect 6 0 5 0;
#X connect 7 0 10 0;
#X connect 8 0 11 0;
#X connect 9 0 12 0;
#X connect 10 0 0 1;
#X connect 11 0 0 4;
#X connect 12 0 0 5;
#X connect 13 0 7 0;
#X connect 14 0 8 0;
#X connect 15 0 13 0;
#X connect 15 0 14 0;
#X connect 15 0 16 0;
#X connect 16 0 9 0;
#X connect 18 0 0 0;
#X restore 98 322 pd envelope;
#X obj 115 298 tabplay~ arrSmp2;
#X obj 118 173 t b b;
#X obj 153 236 tgl 15 0 empty empty empty 0 -6 0 8 -262144 -1 -1 0
1;
#X obj 118 200 del;
#X obj 168 266 spigot;
#X obj 168 139 spigot;
#X obj 98 266 spigot;
#X obj 15 19 inlet metro;
#X obj 188 171 r ps1Tempo;
#X obj 114 19 inlet triggerBang;
#X obj 261 19 inlet posMsg;
#X obj 96 396 outlet~;
#X obj 211 113 r ps1Step2On;
#X connect 0 0 13 0;
#X connect 1 0 0 0;
#X connect 2 0 0 1;
#X connect 3 0 5 0;
#X connect 3 1 4 0;
#X connect 4 0 6 1;
#X connect 4 0 8 1;
#X connect 5 0 4 0;
#X connect 6 0 2 0;
#X connect 7 0 6 0;
#X connect 8 0 1 0;
#X connect 9 0 8 0;
#X connect 10 0 5 1;
#X connect 11 0 3 0;
#X connect 12 0 7 0;
#X connect 14 0 7 1;
#X restore 175 276 pd step2;
#N canvas 528 461 458 450 step3 0;
#X obj 97 355 *~;
#N canvas 0 22 482 427 envelope 0;
#X obj 107 260 adsr--~;
#X obj 116 34 r ps1Tempo;
#X obj 62 95 r ps1A;
#X obj 115 95 r ps1H;
#X obj 169 95 r ps1R;
#X msg 127 233 1;
#X obj 127 207 loadbang;
#X obj 62 160 / 200;
#X obj 115 160 / 100;
#X obj 169 160 / 200;
#X obj 62 183 *;
#X obj 115 184 *;
#X obj 169 183 *;
#X obj 62 127 f;
#X obj 115 128 f;
#X obj 80 66 t b;
#X obj 169 128 f;
#X obj 108 298 outlet~;
#X obj 23 35 inlet bang;
#X connect 0 0 17 0;
#X connect 1 0 10 1;
#X connect 1 0 11 1;
#X connect 1 0 12 1;
#X connect 1 0 15 0;
#X connect 2 0 13 0;
#X connect 3 0 14 0;
#X connect 4 0 16 0;
#X connect 5 0 0 2;
#X connect 6 0 5 0;
#X connect 7 0 10 0;
#X connect 8 0 11 0;
#X connect 9 0 12 0;
#X connect 10 0 0 1;
#X connect 11 0 0 4;
#X connect 12 0 0 5;
#X connect 13 0 7 0;
#X connect 14 0 8 0;
#X connect 15 0 13 0;
#X connect 15 0 14 0;
#X connect 15 0 16 0;
#X connect 16 0 9 0;
#X connect 18 0 0 0;
#X restore 98 322 pd envelope;
#X obj 115 298 tabplay~ arrSmp2;
#X obj 118 173 t b b;
#X obj 153 236 tgl 15 0 empty empty empty 0 -6 0 8 -262144 -1 -1 0
1;
#X obj 118 200 del;
#X obj 168 266 spigot;
#X obj 168 139 spigot;
#X obj 98 266 spigot;
#X obj 15 19 inlet metro;
#X obj 188 171 r ps1Tempo;
#X obj 114 19 inlet triggerBang;
#X obj 261 19 inlet posMsg;
#X obj 96 396 outlet~;
#X obj 211 113 r ps1Step3On;
#X connect 0 0 13 0;
#X connect 1 0 0 0;
#X connect 2 0 0 1;
#X connect 3 0 5 0;
#X connect 3 1 4 0;
#X connect 4 0 6 1;
#X connect 4 0 8 1;
#X connect 5 0 4 0;
#X connect 6 0 2 0;
#X connect 7 0 6 0;
#X connect 8 0 1 0;
#X connect 9 0 8 0;
#X connect 10 0 5 1;
#X connect 11 0 3 0;
#X connect 12 0 7 0;
#X connect 14 0 7 1;
#X restore 278 277 pd step3;
#N canvas 528 461 462 454 step4 0;
#X obj 97 355 *~;
#N canvas 0 22 482 427 envelope 0;
#X obj 107 260 adsr--~;
#X obj 116 34 r ps1Tempo;
#X obj 62 95 r ps1A;
#X obj 115 95 r ps1H;
#X obj 169 95 r ps1R;
#X msg 127 233 1;
#X obj 127 207 loadbang;
#X obj 62 160 / 200;
#X obj 115 160 / 100;
#X obj 169 160 / 200;
#X obj 62 183 *;
#X obj 115 184 *;
#X obj 169 183 *;
#X obj 62 127 f;
#X obj 115 128 f;
#X obj 80 66 t b;
#X obj 169 128 f;
#X obj 108 298 outlet~;
#X obj 23 35 inlet bang;
#X connect 0 0 17 0;
#X connect 1 0 10 1;
#X connect 1 0 11 1;
#X connect 1 0 12 1;
#X connect 1 0 15 0;
#X connect 2 0 13 0;
#X connect 3 0 14 0;
#X connect 4 0 16 0;
#X connect 5 0 0 2;
#X connect 6 0 5 0;
#X connect 7 0 10 0;
#X connect 8 0 11 0;
#X connect 9 0 12 0;
#X connect 10 0 0 1;
#X connect 11 0 0 4;
#X connect 12 0 0 5;
#X connect 13 0 7 0;
#X connect 14 0 8 0;
#X connect 15 0 13 0;
#X connect 15 0 14 0;
#X connect 15 0 16 0;
#X connect 16 0 9 0;
#X connect 18 0 0 0;
#X restore 98 322 pd envelope;
#X obj 115 298 tabplay~ arrSmp2;
#X obj 118 173 t b b;
#X obj 153 236 tgl 15 0 empty empty empty 0 -6 0 8 -262144 -1 -1 0
1;
#X obj 118 200 del;
#X obj 168 266 spigot;
#X obj 168 139 spigot;
#X obj 98 266 spigot;
#X obj 15 19 inlet metro;
#X obj 188 171 r ps1Tempo;
#X obj 114 19 inlet triggerBang;
#X obj 261 19 inlet posMsg;
#X obj 96 396 outlet~;
#X obj 211 113 r ps1Step4On;
#X connect 0 0 13 0;
#X connect 1 0 0 0;
#X connect 2 0 0 1;
#X connect 3 0 5 0;
#X connect 3 1 4 0;
#X connect 4 0 6 1;
#X connect 4 0 8 1;
#X connect 5 0 4 0;
#X connect 6 0 2 0;
#X connect 7 0 6 0;
#X connect 8 0 1 0;
#X connect 9 0 8 0;
#X connect 10 0 5 1;
#X connect 11 0 3 0;
#X connect 12 0 7 0;
#X connect 14 0 7 1;
#X restore 375 277 pd step4;
#N canvas 528 461 458 450 step5 0;
#X obj 97 355 *~;
#N canvas 0 22 482 427 envelope 0;
#X obj 107 260 adsr--~;
#X obj 116 34 r ps1Tempo;
#X obj 62 95 r ps1A;
#X obj 115 95 r ps1H;
#X obj 169 95 r ps1R;
#X msg 127 233 1;
#X obj 127 207 loadbang;
#X obj 62 160 / 200;
#X obj 115 160 / 100;
#X obj 169 160 / 200;
#X obj 62 183 *;
#X obj 115 184 *;
#X obj 169 183 *;
#X obj 62 127 f;
#X obj 115 128 f;
#X obj 80 66 t b;
#X obj 169 128 f;
#X obj 108 298 outlet~;
#X obj 23 35 inlet bang;
#X connect 0 0 17 0;
#X connect 1 0 10 1;
#X connect 1 0 11 1;
#X connect 1 0 12 1;
#X connect 1 0 15 0;
#X connect 2 0 13 0;
#X connect 3 0 14 0;
#X connect 4 0 16 0;
#X connect 5 0 0 2;
#X connect 6 0 5 0;
#X connect 7 0 10 0;
#X connect 8 0 11 0;
#X connect 9 0 12 0;
#X connect 10 0 0 1;
#X connect 11 0 0 4;
#X connect 12 0 0 5;
#X connect 13 0 7 0;
#X connect 14 0 8 0;
#X connect 15 0 13 0;
#X connect 15 0 14 0;
#X connect 15 0 16 0;
#X connect 16 0 9 0;
#X connect 18 0 0 0;
#X restore 98 322 pd envelope;
#X obj 115 298 tabplay~ arrSmp2;
#X obj 118 173 t b b;
#X obj 153 236 tgl 15 0 empty empty empty 0 -6 0 8 -262144 -1 -1 0
1;
#X obj 118 200 del;
#X obj 168 266 spigot;
#X obj 168 139 spigot;
#X obj 98 266 spigot;
#X obj 15 19 inlet metro;
#X obj 188 171 r ps1Tempo;
#X obj 114 19 inlet triggerBang;
#X obj 261 19 inlet posMsg;
#X obj 96 396 outlet~;
#X obj 211 113 r ps1Step5On;
#X connect 0 0 13 0;
#X connect 1 0 0 0;
#X connect 2 0 0 1;
#X connect 3 0 5 0;
#X connect 3 1 4 0;
#X connect 4 0 6 1;
#X connect 4 0 8 1;
#X connect 5 0 4 0;
#X connect 6 0 2 0;
#X connect 7 0 6 0;
#X connect 8 0 1 0;
#X connect 9 0 8 0;
#X connect 10 0 5 1;
#X connect 11 0 3 0;
#X connect 12 0 7 0;
#X connect 14 0 7 1;
#X restore 161 324 pd step5;
#N canvas 528 461 462 454 step6 0;
#X obj 97 355 *~;
#N canvas 0 22 482 427 envelope 0;
#X obj 107 260 adsr--~;
#X obj 116 34 r ps1Tempo;
#X obj 62 95 r ps1A;
#X obj 115 95 r ps1H;
#X obj 169 95 r ps1R;
#X msg 127 233 1;
#X obj 127 207 loadbang;
#X obj 62 160 / 200;
#X obj 115 160 / 100;
#X obj 169 160 / 200;
#X obj 62 183 *;
#X obj 115 184 *;
#X obj 169 183 *;
#X obj 62 127 f;
#X obj 115 128 f;
#X obj 80 66 t b;
#X obj 169 128 f;
#X obj 108 298 outlet~;
#X obj 23 35 inlet bang;
#X connect 0 0 17 0;
#X connect 1 0 10 1;
#X connect 1 0 11 1;
#X connect 1 0 12 1;
#X connect 1 0 15 0;
#X connect 2 0 13 0;
#X connect 3 0 14 0;
#X connect 4 0 16 0;
#X connect 5 0 0 2;
#X connect 6 0 5 0;
#X connect 7 0 10 0;
#X connect 8 0 11 0;
#X connect 9 0 12 0;
#X connect 10 0 0 1;
#X connect 11 0 0 4;
#X connect 12 0 0 5;
#X connect 13 0 7 0;
#X connect 14 0 8 0;
#X connect 15 0 13 0;
#X connect 15 0 14 0;
#X connect 15 0 16 0;
#X connect 16 0 9 0;
#X connect 18 0 0 0;
#X restore 98 322 pd envelope;
#X obj 115 298 tabplay~ arrSmp2;
#X obj 118 173 t b b;
#X obj 153 236 tgl 15 0 empty empty empty 0 -6 0 8 -262144 -1 -1 0
1;
#X obj 118 200 del;
#X obj 168 266 spigot;
#X obj 168 139 spigot;
#X obj 98 266 spigot;
#X obj 15 19 inlet metro;
#X obj 188 171 r ps1Tempo;
#X obj 114 19 inlet triggerBang;
#X obj 261 19 inlet posMsg;
#X obj 96 396 outlet~;
#X obj 211 113 r ps1Step6On;
#X connect 0 0 13 0;
#X connect 1 0 0 0;
#X connect 2 0 0 1;
#X connect 3 0 5 0;
#X connect 3 1 4 0;
#X connect 4 0 6 1;
#X connect 4 0 8 1;
#X connect 5 0 4 0;
#X connect 6 0 2 0;
#X connect 7 0 6 0;
#X connect 8 0 1 0;
#X connect 9 0 8 0;
#X connect 10 0 5 1;
#X connect 11 0 3 0;
#X connect 12 0 7 0;
#X connect 14 0 7 1;
#X restore 257 324 pd step6;
#N canvas 528 461 466 458 step7 0;
#X obj 97 355 *~;
#N canvas 0 22 482 427 envelope 0;
#X obj 107 260 adsr--~;
#X obj 116 34 r ps1Tempo;
#X obj 62 95 r ps1A;
#X obj 115 95 r ps1H;
#X obj 169 95 r ps1R;
#X msg 127 233 1;
#X obj 127 207 loadbang;
#X obj 62 160 / 200;
#X obj 115 160 / 100;
#X obj 169 160 / 200;
#X obj 62 183 *;
#X obj 115 184 *;
#X obj 169 183 *;
#X obj 62 127 f;
#X obj 115 128 f;
#X obj 80 66 t b;
#X obj 169 128 f;
#X obj 108 298 outlet~;
#X obj 23 35 inlet bang;
#X connect 0 0 17 0;
#X connect 1 0 10 1;
#X connect 1 0 11 1;
#X connect 1 0 12 1;
#X connect 1 0 15 0;
#X connect 2 0 13 0;
#X connect 3 0 14 0;
#X connect 4 0 16 0;
#X connect 5 0 0 2;
#X connect 6 0 5 0;
#X connect 7 0 10 0;
#X connect 8 0 11 0;
#X connect 9 0 12 0;
#X connect 10 0 0 1;
#X connect 11 0 0 4;
#X connect 12 0 0 5;
#X connect 13 0 7 0;
#X connect 14 0 8 0;
#X connect 15 0 13 0;
#X connect 15 0 14 0;
#X connect 15 0 16 0;
#X connect 16 0 9 0;
#X connect 18 0 0 0;
#X restore 98 322 pd envelope;
#X obj 115 298 tabplay~ arrSmp2;
#X obj 118 173 t b b;
#X obj 153 236 tgl 15 0 empty empty empty 0 -6 0 8 -262144 -1 -1 0
1;
#X obj 118 200 del;
#X obj 168 266 spigot;
#X obj 168 139 spigot;
#X obj 98 266 spigot;
#X obj 15 19 inlet metro;
#X obj 188 171 r ps1Tempo;
#X obj 114 19 inlet triggerBang;
#X obj 261 19 inlet posMsg;
#X obj 96 396 outlet~;
#X obj 211 113 r ps1Step7On;
#X connect 0 0 13 0;
#X connect 1 0 0 0;
#X connect 2 0 0 1;
#X connect 3 0 5 0;
#X connect 3 1 4 0;
#X connect 4 0 6 1;
#X connect 4 0 8 1;
#X connect 5 0 4 0;
#X connect 6 0 2 0;
#X connect 7 0 6 0;
#X connect 8 0 1 0;
#X connect 9 0 8 0;
#X connect 10 0 5 1;
#X connect 11 0 3 0;
#X connect 12 0 7 0;
#X connect 14 0 7 1;
#X restore 367 326 pd step7;
#N canvas 528 461 466 458 step8 0;
#X obj 97 355 *~;
#N canvas 0 22 482 427 envelope 0;
#X obj 107 260 adsr--~;
#X obj 116 34 r ps1Tempo;
#X obj 62 95 r ps1A;
#X obj 115 95 r ps1H;
#X obj 169 95 r ps1R;
#X msg 127 233 1;
#X obj 127 207 loadbang;
#X obj 62 160 / 200;
#X obj 115 160 / 100;
#X obj 169 160 / 200;
#X obj 62 183 *;
#X obj 115 184 *;
#X obj 169 183 *;
#X obj 62 127 f;
#X obj 115 128 f;
#X obj 80 66 t b;
#X obj 169 128 f;
#X obj 108 298 outlet~;
#X obj 23 35 inlet bang;
#X connect 0 0 17 0;
#X connect 1 0 10 1;
#X connect 1 0 11 1;
#X connect 1 0 12 1;
#X connect 1 0 15 0;
#X connect 2 0 13 0;
#X connect 3 0 14 0;
#X connect 4 0 16 0;
#X connect 5 0 0 2;
#X connect 6 0 5 0;
#X connect 7 0 10 0;
#X connect 8 0 11 0;
#X connect 9 0 12 0;
#X connect 10 0 0 1;
#X connect 11 0 0 4;
#X connect 12 0 0 5;
#X connect 13 0 7 0;
#X connect 14 0 8 0;
#X connect 15 0 13 0;
#X connect 15 0 14 0;
#X connect 15 0 16 0;
#X connect 16 0 9 0;
#X connect 18 0 0 0;
#X restore 98 322 pd envelope;
#X obj 115 298 tabplay~ arrSmp2;
#X obj 118 173 t b b;
#X obj 153 236 tgl 15 0 empty empty empty 0 -6 0 8 -262144 -1 -1 0
1;
#X obj 118 200 del;
#X obj 168 266 spigot;
#X obj 168 139 spigot;
#X obj 98 266 spigot;
#X obj 15 19 inlet metro;
#X obj 188 171 r ps1Tempo;
#X obj 114 19 inlet triggerBang;
#X obj 261 19 inlet posMsg;
#X obj 96 396 outlet~;
#X obj 211 113 r ps1Step8On;
#X connect 0 0 13 0;
#X connect 1 0 0 0;
#X connect 2 0 0 1;
#X connect 3 0 5 0;
#X connect 3 1 4 0;
#X connect 4 0 6 1;
#X connect 4 0 8 1;
#X connect 5 0 4 0;
#X connect 6 0 2 0;
#X connect 7 0 6 0;
#X connect 8 0 1 0;
#X connect 9 0 8 0;
#X connect 10 0 5 1;
#X connect 11 0 3 0;
#X connect 12 0 7 0;
#X connect 14 0 7 1;
#X restore 478 329 pd step8;
#X obj 506 84 sel 16;
#X obj 420 200 route 0 1 2 3 4 5 6 7 8 9 10 11 12 13 14 15;
#N canvas 528 461 470 462 step9 0;
#X obj 97 355 *~;
#N canvas 0 22 482 427 envelope 0;
#X obj 107 260 adsr--~;
#X obj 116 34 r ps1Tempo;
#X obj 62 95 r ps1A;
#X obj 115 95 r ps1H;
#X obj 169 95 r ps1R;
#X msg 127 233 1;
#X obj 127 207 loadbang;
#X obj 62 160 / 200;
#X obj 115 160 / 100;
#X obj 169 160 / 200;
#X obj 62 183 *;
#X obj 115 184 *;
#X obj 169 183 *;
#X obj 62 127 f;
#X obj 115 128 f;
#X obj 80 66 t b;
#X obj 169 128 f;
#X obj 108 298 outlet~;
#X obj 23 35 inlet bang;
#X connect 0 0 17 0;
#X connect 1 0 10 1;
#X connect 1 0 11 1;
#X connect 1 0 12 1;
#X connect 1 0 15 0;
#X connect 2 0 13 0;
#X connect 3 0 14 0;
#X connect 4 0 16 0;
#X connect 5 0 0 2;
#X connect 6 0 5 0;
#X connect 7 0 10 0;
#X connect 8 0 11 0;
#X connect 9 0 12 0;
#X connect 10 0 0 1;
#X connect 11 0 0 4;
#X connect 12 0 0 5;
#X connect 13 0 7 0;
#X connect 14 0 8 0;
#X connect 15 0 13 0;
#X connect 15 0 14 0;
#X connect 15 0 16 0;
#X connect 16 0 9 0;
#X connect 18 0 0 0;
#X restore 98 322 pd envelope;
#X obj 115 298 tabplay~ arrSmp2;
#X obj 118 173 t b b;
#X obj 153 236 tgl 15 0 empty empty empty 0 -6 0 8 -262144 -1 -1 0
1;
#X obj 118 200 del;
#X obj 168 266 spigot;
#X obj 168 139 spigot;
#X obj 98 266 spigot;
#X obj 15 19 inlet metro;
#X obj 188 171 r ps1Tempo;
#X obj 114 19 inlet triggerBang;
#X obj 261 19 inlet posMsg;
#X obj 96 396 outlet~;
#X obj 211 113 r ps1Step9On;
#X connect 0 0 13 0;
#X connect 1 0 0 0;
#X connect 2 0 0 1;
#X connect 3 0 5 0;
#X connect 3 1 4 0;
#X connect 4 0 6 1;
#X connect 4 0 8 1;
#X connect 5 0 4 0;
#X connect 6 0 2 0;
#X connect 7 0 6 0;
#X connect 8 0 1 0;
#X connect 9 0 8 0;
#X connect 10 0 5 1;
#X connect 11 0 3 0;
#X connect 12 0 7 0;
#X connect 14 0 7 1;
#X restore 215 380 pd step9;
#N canvas 528 461 462 454 step10 0;
#X obj 97 355 *~;
#N canvas 0 22 482 427 envelope 0;
#X obj 107 260 adsr--~;
#X obj 116 34 r ps1Tempo;
#X obj 62 95 r ps1A;
#X obj 115 95 r ps1H;
#X obj 169 95 r ps1R;
#X msg 127 233 1;
#X obj 127 207 loadbang;
#X obj 62 160 / 200;
#X obj 115 160 / 100;
#X obj 169 160 / 200;
#X obj 62 183 *;
#X obj 115 184 *;
#X obj 169 183 *;
#X obj 62 127 f;
#X obj 115 128 f;
#X obj 80 66 t b;
#X obj 169 128 f;
#X obj 108 298 outlet~;
#X obj 23 35 inlet bang;
#X connect 0 0 17 0;
#X connect 1 0 10 1;
#X connect 1 0 11 1;
#X connect 1 0 12 1;
#X connect 1 0 15 0;
#X connect 2 0 13 0;
#X connect 3 0 14 0;
#X connect 4 0 16 0;
#X connect 5 0 0 2;
#X connect 6 0 5 0;
#X connect 7 0 10 0;
#X connect 8 0 11 0;
#X connect 9 0 12 0;
#X connect 10 0 0 1;
#X connect 11 0 0 4;
#X connect 12 0 0 5;
#X connect 13 0 7 0;
#X connect 14 0 8 0;
#X connect 15 0 13 0;
#X connect 15 0 14 0;
#X connect 15 0 16 0;
#X connect 16 0 9 0;
#X connect 18 0 0 0;
#X restore 98 322 pd envelope;
#X obj 115 298 tabplay~ arrSmp2;
#X obj 118 173 t b b;
#X obj 153 236 tgl 15 0 empty empty empty 0 -6 0 8 -262144 -1 -1 0
1;
#X obj 118 200 del;
#X obj 168 266 spigot;
#X obj 168 139 spigot;
#X obj 98 266 spigot;
#X obj 15 19 inlet metro;
#X obj 188 171 r ps1Tempo;
#X obj 114 19 inlet triggerBang;
#X obj 261 19 inlet posMsg;
#X obj 96 396 outlet~;
#X obj 211 113 r ps1Step10On;
#X connect 0 0 13 0;
#X connect 1 0 0 0;
#X connect 2 0 0 1;
#X connect 3 0 5 0;
#X connect 3 1 4 0;
#X connect 4 0 6 1;
#X connect 4 0 8 1;
#X connect 5 0 4 0;
#X connect 6 0 2 0;
#X connect 7 0 6 0;
#X connect 8 0 1 0;
#X connect 9 0 8 0;
#X connect 10 0 5 1;
#X connect 11 0 3 0;
#X connect 12 0 7 0;
#X connect 14 0 7 1;
#X restore 308 380 pd step10;
#N canvas 528 461 462 454 step11 0;
#X obj 97 355 *~;
#N canvas 0 22 482 427 envelope 0;
#X obj 107 260 adsr--~;
#X obj 116 34 r ps1Tempo;
#X obj 62 95 r ps1A;
#X obj 115 95 r ps1H;
#X obj 169 95 r ps1R;
#X msg 127 233 1;
#X obj 127 207 loadbang;
#X obj 62 160 / 200;
#X obj 115 160 / 100;
#X obj 169 160 / 200;
#X obj 62 183 *;
#X obj 115 184 *;
#X obj 169 183 *;
#X obj 62 127 f;
#X obj 115 128 f;
#X obj 80 66 t b;
#X obj 169 128 f;
#X obj 108 298 outlet~;
#X obj 23 35 inlet bang;
#X connect 0 0 17 0;
#X connect 1 0 10 1;
#X connect 1 0 11 1;
#X connect 1 0 12 1;
#X connect 1 0 15 0;
#X connect 2 0 13 0;
#X connect 3 0 14 0;
#X connect 4 0 16 0;
#X connect 5 0 0 2;
#X connect 6 0 5 0;
#X connect 7 0 10 0;
#X connect 8 0 11 0;
#X connect 9 0 12 0;
#X connect 10 0 0 1;
#X connect 11 0 0 4;
#X connect 12 0 0 5;
#X connect 13 0 7 0;
#X connect 14 0 8 0;
#X connect 15 0 13 0;
#X connect 15 0 14 0;
#X connect 15 0 16 0;
#X connect 16 0 9 0;
#X connect 18 0 0 0;
#X restore 98 322 pd envelope;
#X obj 115 298 tabplay~ arrSmp2;
#X obj 118 173 t b b;
#X obj 153 236 tgl 15 0 empty empty empty 0 -6 0 8 -262144 -1 -1 0
1;
#X obj 118 200 del;
#X obj 168 266 spigot;
#X obj 168 139 spigot;
#X obj 98 266 spigot;
#X obj 15 19 inlet metro;
#X obj 188 171 r ps1Tempo;
#X obj 114 19 inlet triggerBang;
#X obj 261 19 inlet posMsg;
#X obj 96 396 outlet~;
#X obj 211 113 r ps1Step11On;
#X connect 0 0 13 0;
#X connect 1 0 0 0;
#X connect 2 0 0 1;
#X connect 3 0 5 0;
#X connect 3 1 4 0;
#X connect 4 0 6 1;
#X connect 4 0 8 1;
#X connect 5 0 4 0;
#X connect 6 0 2 0;
#X connect 7 0 6 0;
#X connect 8 0 1 0;
#X connect 9 0 8 0;
#X connect 10 0 5 1;
#X connect 11 0 3 0;
#X connect 12 0 7 0;
#X connect 14 0 7 1;
#X restore 411 381 pd step11;
#N canvas 528 461 466 458 step12 0;
#X obj 97 355 *~;
#N canvas 0 22 482 427 envelope 0;
#X obj 107 260 adsr--~;
#X obj 116 34 r ps1Tempo;
#X obj 62 95 r ps1A;
#X obj 115 95 r ps1H;
#X obj 169 95 r ps1R;
#X msg 127 233 1;
#X obj 127 207 loadbang;
#X obj 62 160 / 200;
#X obj 115 160 / 100;
#X obj 169 160 / 200;
#X obj 62 183 *;
#X obj 115 184 *;
#X obj 169 183 *;
#X obj 62 127 f;
#X obj 115 128 f;
#X obj 80 66 t b;
#X obj 169 128 f;
#X obj 108 298 outlet~;
#X obj 23 35 inlet bang;
#X connect 0 0 17 0;
#X connect 1 0 10 1;
#X connect 1 0 11 1;
#X connect 1 0 12 1;
#X connect 1 0 15 0;
#X connect 2 0 13 0;
#X connect 3 0 14 0;
#X connect 4 0 16 0;
#X connect 5 0 0 2;
#X connect 6 0 5 0;
#X connect 7 0 10 0;
#X connect 8 0 11 0;
#X connect 9 0 12 0;
#X connect 10 0 0 1;
#X connect 11 0 0 4;
#X connect 12 0 0 5;
#X connect 13 0 7 0;
#X connect 14 0 8 0;
#X connect 15 0 13 0;
#X connect 15 0 14 0;
#X connect 15 0 16 0;
#X connect 16 0 9 0;
#X connect 18 0 0 0;
#X restore 98 322 pd envelope;
#X obj 115 298 tabplay~ arrSmp2;
#X obj 118 173 t b b;
#X obj 153 236 tgl 15 0 empty empty empty 0 -6 0 8 -262144 -1 -1 0
1;
#X obj 118 200 del;
#X obj 168 266 spigot;
#X obj 168 139 spigot;
#X obj 98 266 spigot;
#X obj 15 19 inlet metro;
#X obj 188 171 r ps1Tempo;
#X obj 114 19 inlet triggerBang;
#X obj 261 19 inlet posMsg;
#X obj 96 396 outlet~;
#X obj 211 113 r ps1Step12On;
#X connect 0 0 13 0;
#X connect 1 0 0 0;
#X connect 2 0 0 1;
#X connect 3 0 5 0;
#X connect 3 1 4 0;
#X connect 4 0 6 1;
#X connect 4 0 8 1;
#X connect 5 0 4 0;
#X connect 6 0 2 0;
#X connect 7 0 6 0;
#X connect 8 0 1 0;
#X connect 9 0 8 0;
#X connect 10 0 5 1;
#X connect 11 0 3 0;
#X connect 12 0 7 0;
#X connect 14 0 7 1;
#X restore 508 381 pd step12;
#N canvas 528 461 462 454 step13 0;
#X obj 97 355 *~;
#N canvas 0 22 482 427 envelope 0;
#X obj 107 260 adsr--~;
#X obj 116 34 r ps1Tempo;
#X obj 62 95 r ps1A;
#X obj 115 95 r ps1H;
#X obj 169 95 r ps1R;
#X msg 127 233 1;
#X obj 127 207 loadbang;
#X obj 62 160 / 200;
#X obj 115 160 / 100;
#X obj 169 160 / 200;
#X obj 62 183 *;
#X obj 115 184 *;
#X obj 169 183 *;
#X obj 62 127 f;
#X obj 115 128 f;
#X obj 80 66 t b;
#X obj 169 128 f;
#X obj 108 298 outlet~;
#X obj 23 35 inlet bang;
#X connect 0 0 17 0;
#X connect 1 0 10 1;
#X connect 1 0 11 1;
#X connect 1 0 12 1;
#X connect 1 0 15 0;
#X connect 2 0 13 0;
#X connect 3 0 14 0;
#X connect 4 0 16 0;
#X connect 5 0 0 2;
#X connect 6 0 5 0;
#X connect 7 0 10 0;
#X connect 8 0 11 0;
#X connect 9 0 12 0;
#X connect 10 0 0 1;
#X connect 11 0 0 4;
#X connect 12 0 0 5;
#X connect 13 0 7 0;
#X connect 14 0 8 0;
#X connect 15 0 13 0;
#X connect 15 0 14 0;
#X connect 15 0 16 0;
#X connect 16 0 9 0;
#X connect 18 0 0 0;
#X restore 98 322 pd envelope;
#X obj 115 298 tabplay~ arrSmp2;
#X obj 118 173 t b b;
#X obj 153 236 tgl 15 0 empty empty empty 0 -6 0 8 -262144 -1 -1 0
1;
#X obj 118 200 del;
#X obj 168 266 spigot;
#X obj 168 139 spigot;
#X obj 98 266 spigot;
#X obj 15 19 inlet metro;
#X obj 188 171 r ps1Tempo;
#X obj 114 19 inlet triggerBang;
#X obj 261 19 inlet posMsg;
#X obj 96 396 outlet~;
#X obj 211 113 r ps1Step13On;
#X connect 0 0 13 0;
#X connect 1 0 0 0;
#X connect 2 0 0 1;
#X connect 3 0 5 0;
#X connect 3 1 4 0;
#X connect 4 0 6 1;
#X connect 4 0 8 1;
#X connect 5 0 4 0;
#X connect 6 0 2 0;
#X connect 7 0 6 0;
#X connect 8 0 1 0;
#X connect 9 0 8 0;
#X connect 10 0 5 1;
#X connect 11 0 3 0;
#X connect 12 0 7 0;
#X connect 14 0 7 1;
#X restore 294 428 pd step13;
#N canvas 528 461 466 458 step14 0;
#X obj 97 355 *~;
#N canvas 0 22 482 427 envelope 0;
#X obj 107 260 adsr--~;
#X obj 116 34 r ps1Tempo;
#X obj 62 95 r ps1A;
#X obj 115 95 r ps1H;
#X obj 169 95 r ps1R;
#X msg 127 233 1;
#X obj 127 207 loadbang;
#X obj 62 160 / 200;
#X obj 115 160 / 100;
#X obj 169 160 / 200;
#X obj 62 183 *;
#X obj 115 184 *;
#X obj 169 183 *;
#X obj 62 127 f;
#X obj 115 128 f;
#X obj 80 66 t b;
#X obj 169 128 f;
#X obj 108 298 outlet~;
#X obj 23 35 inlet bang;
#X connect 0 0 17 0;
#X connect 1 0 10 1;
#X connect 1 0 11 1;
#X connect 1 0 12 1;
#X connect 1 0 15 0;
#X connect 2 0 13 0;
#X connect 3 0 14 0;
#X connect 4 0 16 0;
#X connect 5 0 0 2;
#X connect 6 0 5 0;
#X connect 7 0 10 0;
#X connect 8 0 11 0;
#X connect 9 0 12 0;
#X connect 10 0 0 1;
#X connect 11 0 0 4;
#X connect 12 0 0 5;
#X connect 13 0 7 0;
#X connect 14 0 8 0;
#X connect 15 0 13 0;
#X connect 15 0 14 0;
#X connect 15 0 16 0;
#X connect 16 0 9 0;
#X connect 18 0 0 0;
#X restore 98 322 pd envelope;
#X obj 115 298 tabplay~ arrSmp2;
#X obj 118 173 t b b;
#X obj 153 236 tgl 15 0 empty empty empty 0 -6 0 8 -262144 -1 -1 0
1;
#X obj 118 200 del;
#X obj 168 266 spigot;
#X obj 168 139 spigot;
#X obj 98 266 spigot;
#X obj 15 19 inlet metro;
#X obj 188 171 r ps1Tempo;
#X obj 114 19 inlet triggerBang;
#X obj 261 19 inlet posMsg;
#X obj 96 396 outlet~;
#X obj 211 113 r ps1Step14On;
#X connect 0 0 13 0;
#X connect 1 0 0 0;
#X connect 2 0 0 1;
#X connect 3 0 5 0;
#X connect 3 1 4 0;
#X connect 4 0 6 1;
#X connect 4 0 8 1;
#X connect 5 0 4 0;
#X connect 6 0 2 0;
#X connect 7 0 6 0;
#X connect 8 0 1 0;
#X connect 9 0 8 0;
#X connect 10 0 5 1;
#X connect 11 0 3 0;
#X connect 12 0 7 0;
#X connect 14 0 7 1;
#X restore 390 428 pd step14;
#N canvas 528 461 470 462 step15 0;
#X obj 97 355 *~;
#N canvas 0 22 482 427 envelope 0;
#X obj 107 260 adsr--~;
#X obj 116 34 r ps1Tempo;
#X obj 62 95 r ps1A;
#X obj 115 95 r ps1H;
#X obj 169 95 r ps1R;
#X msg 127 233 1;
#X obj 127 207 loadbang;
#X obj 62 160 / 200;
#X obj 115 160 / 100;
#X obj 169 160 / 200;
#X obj 62 183 *;
#X obj 115 184 *;
#X obj 169 183 *;
#X obj 62 127 f;
#X obj 115 128 f;
#X obj 80 66 t b;
#X obj 169 128 f;
#X obj 108 298 outlet~;
#X obj 23 35 inlet bang;
#X connect 0 0 17 0;
#X connect 1 0 10 1;
#X connect 1 0 11 1;
#X connect 1 0 12 1;
#X connect 1 0 15 0;
#X connect 2 0 13 0;
#X connect 3 0 14 0;
#X connect 4 0 16 0;
#X connect 5 0 0 2;
#X connect 6 0 5 0;
#X connect 7 0 10 0;
#X connect 8 0 11 0;
#X connect 9 0 12 0;
#X connect 10 0 0 1;
#X connect 11 0 0 4;
#X connect 12 0 0 5;
#X connect 13 0 7 0;
#X connect 14 0 8 0;
#X connect 15 0 13 0;
#X connect 15 0 14 0;
#X connect 15 0 16 0;
#X connect 16 0 9 0;
#X connect 18 0 0 0;
#X restore 98 322 pd envelope;
#X obj 115 298 tabplay~ arrSmp2;
#X obj 118 173 t b b;
#X obj 153 236 tgl 15 0 empty empty empty 0 -6 0 8 -262144 -1 -1 0
1;
#X obj 118 200 del;
#X obj 168 266 spigot;
#X obj 168 139 spigot;
#X obj 98 266 spigot;
#X obj 15 19 inlet metro;
#X obj 188 171 r ps1Tempo;
#X obj 114 19 inlet triggerBang;
#X obj 261 19 inlet posMsg;
#X obj 96 396 outlet~;
#X obj 211 113 r ps1Step15On;
#X connect 0 0 13 0;
#X connect 1 0 0 0;
#X connect 2 0 0 1;
#X connect 3 0 5 0;
#X connect 3 1 4 0;
#X connect 4 0 6 1;
#X connect 4 0 8 1;
#X connect 5 0 4 0;
#X connect 6 0 2 0;
#X connect 7 0 6 0;
#X connect 8 0 1 0;
#X connect 9 0 8 0;
#X connect 10 0 5 1;
#X connect 11 0 3 0;
#X connect 12 0 7 0;
#X connect 14 0 7 1;
#X restore 500 430 pd step15;
#N canvas 528 461 470 462 step16 0;
#X obj 97 355 *~;
#N canvas 0 22 482 427 envelope 0;
#X obj 107 260 adsr--~;
#X obj 116 34 r ps1Tempo;
#X obj 62 95 r ps1A;
#X obj 115 95 r ps1H;
#X obj 169 95 r ps1R;
#X msg 127 233 1;
#X obj 127 207 loadbang;
#X obj 62 160 / 200;
#X obj 115 160 / 100;
#X obj 169 160 / 200;
#X obj 62 183 *;
#X obj 115 184 *;
#X obj 169 183 *;
#X obj 62 127 f;
#X obj 115 128 f;
#X obj 80 66 t b;
#X obj 169 128 f;
#X obj 108 298 outlet~;
#X obj 23 35 inlet bang;
#X connect 0 0 17 0;
#X connect 1 0 10 1;
#X connect 1 0 11 1;
#X connect 1 0 12 1;
#X connect 1 0 15 0;
#X connect 2 0 13 0;
#X connect 3 0 14 0;
#X connect 4 0 16 0;
#X connect 5 0 0 2;
#X connect 6 0 5 0;
#X connect 7 0 10 0;
#X connect 8 0 11 0;
#X connect 9 0 12 0;
#X connect 10 0 0 1;
#X connect 11 0 0 4;
#X connect 12 0 0 5;
#X connect 13 0 7 0;
#X connect 14 0 8 0;
#X connect 15 0 13 0;
#X connect 15 0 14 0;
#X connect 15 0 16 0;
#X connect 16 0 9 0;
#X connect 18 0 0 0;
#X restore 98 322 pd envelope;
#X obj 115 298 tabplay~ arrSmp2;
#X obj 118 173 t b b;
#X obj 153 236 tgl 15 0 empty empty empty 0 -6 0 8 -262144 -1 -1 0
1;
#X obj 118 200 del;
#X obj 168 266 spigot;
#X obj 168 139 spigot;
#X obj 98 266 spigot;
#X obj 15 19 inlet metro;
#X obj 188 171 r ps1Tempo;
#X obj 114 19 inlet triggerBang;
#X obj 261 19 inlet posMsg;
#X obj 96 396 outlet~;
#X obj 211 113 r ps1Step16On;
#X connect 0 0 13 0;
#X connect 1 0 0 0;
#X connect 2 0 0 1;
#X connect 3 0 5 0;
#X connect 3 1 4 0;
#X connect 4 0 6 1;
#X connect 4 0 8 1;
#X connect 5 0 4 0;
#X connect 6 0 2 0;
#X connect 7 0 6 0;
#X connect 8 0 1 0;
#X connect 9 0 8 0;
#X connect 10 0 5 1;
#X connect 11 0 3 0;
#X connect 12 0 7 0;
#X connect 14 0 7 1;
#X restore 611 433 pd step16;
#X obj 440 171 s ps1StepTrackr;
#X obj 610 23 r ps1MaxSteps;
#X obj 610 49 t f f;
#X obj 646 112 sel 1;
#X obj 645 85 <;
#X connect 0 0 8 0;
#X connect 0 0 9 0;
#X connect 0 0 10 0;
#X connect 0 0 11 0;
#X connect 0 0 12 0;
#X connect 0 0 13 0;
#X connect 0 0 14 0;
#X connect 0 0 15 0;
#X connect 0 0 18 0;
#X connect 0 0 22 0;
#X connect 0 0 19 0;
#X connect 0 0 23 0;
#X connect 0 0 20 0;
#X connect 0 0 24 0;
#X connect 0 0 21 0;
#X connect 0 0 25 0;
#X connect 1 0 2 0;
#X connect 1 0 8 2;
#X connect 1 0 9 2;
#X connect 1 0 10 2;
#X connect 1 0 11 2;
#X connect 1 0 14 2;
#X connect 1 0 15 2;
#X connect 1 0 13 2;
#X connect 1 0 12 2;
#X connect 1 0 18 2;
#X connect 1 0 19 2;
#X connect 1 0 22 2;
#X connect 1 0 20 2;
#X connect 1 0 23 2;
#X connect 1 0 24 2;
#X connect 1 0 21 2;
#X connect 1 0 25 2;
#X connect 2 0 4 0;
#X connect 4 0 5 0;
#X connect 4 0 17 0;
#X connect 4 0 26 0;
#X connect 4 0 30 1;
#X connect 5 0 4 1;
#X connect 5 0 16 0;
#X connect 6 0 4 1;
#X connect 7 0 6 0;
#X connect 8 0 3 0;
#X connect 9 0 3 0;
#X connect 10 0 3 0;
#X connect 11 0 3 0;
#X connect 12 0 3 0;
#X connect 13 0 3 0;
#X connect 14 0 3 0;
#X connect 15 0 3 0;
#X connect 16 0 7 0;
#X connect 17 0 8 1;
#X connect 17 1 9 1;
#X connect 17 2 10 1;
#X connect 17 3 11 1;
#X connect 17 4 12 1;
#X connect 17 5 13 1;
#X connect 17 6 14 1;
#X connect 17 7 15 1;
#X connect 17 8 18 1;
#X connect 17 9 19 1;
#X connect 17 10 20 1;
#X connect 17 11 21 1;
#X connect 17 12 22 1;
#X connect 17 13 23 1;
#X connect 17 14 24 1;
#X connect 17 15 25 1;
#X connect 18 0 3 0;
#X connect 19 0 3 0;
#X connect 20 0 3 0;
#X connect 21 0 3 0;
#X connect 22 0 3 0;
#X connect 23 0 3 0;
#X connect 24 0 3 0;
#X connect 25 0 3 0;
#X connect 27 0 28 0;
#X connect 28 0 16 1;
#X connect 28 1 30 0;
#X connect 29 0 7 0;
#X connect 30 0 29 0;
#X restore 360 502 pd player;
#N canvas 158 102 992 741 tempoSlicePresets 0;
#X obj 60 306 f;
#X obj 126 306 f;
#X obj 73 126 f;
#X obj 92 101 r ps1RangePresets;
#X obj 73 148 sel 0 1 2 3 4 5 6 7;
#X obj 73 74 r ps1SaveRange;
#X msg 60 352 19;
#X msg 126 352 177.154;
#X msg 60 329 set \$1;
#X msg 126 329 set \$1;
#X obj 123 390 f;
#X obj 189 390 f;
#X msg 123 436 19;
#X msg 189 436 177.154;
#X msg 123 413 set \$1;
#X msg 189 413 set \$1;
#X obj 225 301 f;
#X obj 291 301 f;
#X msg 225 347 21;
#X msg 291 347 177.154;
#X msg 225 324 set \$1;
#X msg 291 324 set \$1;
#X obj 288 385 f;
#X obj 354 385 f;
#X msg 288 431 32;
#X msg 354 431 144.325;
#X msg 288 408 set \$1;
#X msg 354 408 set \$1;
#X obj 380 305 f;
#X obj 446 305 f;
#X msg 380 351 0;
#X msg 446 351 1000;
#X msg 380 328 set \$1;
#X msg 446 328 set \$1;
#X obj 443 389 f;
#X obj 509 389 f;
#X msg 443 435 61;
#X msg 509 435 92;
#X msg 443 412 set \$1;
#X msg 509 412 set \$1;
#X obj 545 300 f;
#X obj 611 300 f;
#X msg 545 346 36;
#X msg 611 346 164;
#X msg 545 323 set \$1;
#X msg 611 323 set \$1;
#X obj 608 384 f;
#X obj 674 384 f;
#X msg 608 430 143;
#X msg 674 430 290.617;
#X msg 608 407 set \$1;
#X msg 674 407 set \$1;
#X obj 763 115 f;
#X obj 782 91 r ps1RangePresets;
#X obj 763 63 r ps1LoadRange;
#X obj 763 139 sel 0 1 2 3 4 5 6 7;
#X obj 473 86 r ps1Tempo;
#X obj 364 85 r ps1Steps;
#X obj 469 622 s ps1Tempor;
#X obj 376 622 s ps1Stepsr;
#X connect 0 0 8 0;
#X connect 1 0 9 0;
#X connect 2 0 4 0;
#X connect 3 0 2 1;
#X connect 4 0 0 0;
#X connect 4 0 1 0;
#X connect 4 1 10 0;
#X connect 4 1 11 0;
#X connect 4 2 16 0;
#X connect 4 2 17 0;
#X connect 4 3 22 0;
#X connect 4 3 23 0;
#X connect 4 4 28 0;
#X connect 4 4 29 0;
#X connect 4 5 34 0;
#X connect 4 5 35 0;
#X connect 4 6 40 0;
#X connect 4 6 41 0;
#X connect 4 7 46 0;
#X connect 4 7 47 0;
#X connect 5 0 2 0;
#X connect 6 0 59 0;
#X connect 7 0 58 0;
#X connect 8 0 6 0;
#X connect 9 0 7 0;
#X connect 10 0 14 0;
#X connect 11 0 15 0;
#X connect 12 0 59 0;
#X connect 13 0 58 0;
#X connect 14 0 12 0;
#X connect 15 0 13 0;
#X connect 16 0 20 0;
#X connect 17 0 21 0;
#X connect 18 0 59 0;
#X connect 19 0 58 0;
#X connect 20 0 18 0;
#X connect 21 0 19 0;
#X connect 22 0 26 0;
#X connect 23 0 27 0;
#X connect 24 0 59 0;
#X connect 25 0 58 0;
#X connect 26 0 24 0;
#X connect 27 0 25 0;
#X connect 28 0 32 0;
#X connect 29 0 33 0;
#X connect 30 0 59 0;
#X connect 31 0 58 0;
#X connect 32 0 30 0;
#X connect 33 0 31 0;
#X connect 34 0 38 0;
#X connect 35 0 39 0;
#X connect 36 0 59 0;
#X connect 37 0 58 0;
#X connect 38 0 36 0;
#X connect 39 0 37 0;
#X connect 40 0 44 0;
#X connect 41 0 45 0;
#X connect 42 0 59 0;
#X connect 43 0 58 0;
#X connect 44 0 42 0;
#X connect 45 0 43 0;
#X connect 46 0 50 0;
#X connect 47 0 51 0;
#X connect 48 0 59 0;
#X connect 49 0 58 0;
#X connect 50 0 48 0;
#X connect 51 0 49 0;
#X connect 52 0 55 0;
#X connect 53 0 52 1;
#X connect 54 0 52 0;
#X connect 55 0 6 0;
#X connect 55 0 7 0;
#X connect 55 1 12 0;
#X connect 55 1 13 0;
#X connect 55 2 18 0;
#X connect 55 2 19 0;
#X connect 55 3 24 0;
#X connect 55 3 25 0;
#X connect 55 4 30 0;
#X connect 55 4 31 0;
#X connect 55 5 36 0;
#X connect 55 5 37 0;
#X connect 55 6 42 0;
#X connect 55 6 43 0;
#X connect 55 7 48 0;
#X connect 55 7 49 0;
#X connect 56 0 1 1;
#X connect 56 0 17 1;
#X connect 56 0 23 1;
#X connect 56 0 11 1;
#X connect 56 0 29 1;
#X connect 56 0 35 1;
#X connect 56 0 41 1;
#X connect 56 0 47 1;
#X connect 57 0 0 1;
#X connect 57 0 16 1;
#X connect 57 0 22 1;
#X connect 57 0 10 1;
#X connect 57 0 28 1;
#X connect 57 0 34 1;
#X connect 57 0 40 1;
#X connect 57 0 46 1;
#X restore 775 66 pd tempoSlicePresets;
#X obj 295 168 / 44.1;
#X obj 295 209 s ps1RealTempor;
#N canvas 0 22 841 476 MultDivver 0;
#X obj 97 140 r ps1Steps;
#X obj 190 141 r ps1Tempo;
#X obj 78 207 f;
#X obj 171 211 f;
#X obj 171 263 / 2;
#X obj 78 264 * 2;
#X obj 78 52 r ps1Multer;
#X obj 78 314 s ps1Stepsr;
#X obj 171 314 s ps1Tempor;
#X obj 320 139 r ps1Steps;
#X obj 413 140 r ps1Tempo;
#X obj 301 206 f;
#X obj 394 210 f;
#X obj 301 313 s ps1Stepsr;
#X obj 394 313 s ps1Tempor;
#X obj 301 51 r ps1Divver;
#X obj 301 263 / 2;
#X obj 394 262 * 2;
#X obj 301 287 int;
#X connect 0 0 2 1;
#X connect 1 0 3 1;
#X connect 2 0 5 0;
#X connect 3 0 4 0;
#X connect 4 0 8 0;
#X connect 5 0 7 0;
#X connect 6 0 2 0;
#X connect 6 0 3 0;
#X connect 9 0 11 1;
#X connect 10 0 12 1;
#X connect 11 0 16 0;
#X connect 12 0 17 0;
#X connect 15 0 11 0;
#X connect 15 0 12 0;
#X connect 16 0 18 0;
#X connect 17 0 14 0;
#X connect 18 0 13 0;
#X restore 775 116 pd MultDivver;
#X obj 777 482 s ps1Stepsr;
#X obj 777 436 r ps1StepSlider;
#X obj 777 459 int;
#X text 440 502 actual sound-gen here;
#N canvas 117 67 380 305 startStop 0;
#X obj 35 25 key;
#X obj 35 56 sel 32;
#X obj 35 99 s ps1Playr;
#X connect 0 0 1 0;
#X connect 1 0 2 0;
#X restore 775 140 pd startStop;
#N canvas 308 184 1028 761 timeSlider 0;
#X obj 58 228 r ps1TTo;
#X obj 39 48 r ps1SlideTempo;
#X obj 39 252 f;
#X obj 118 334 line;
#X obj 210 48 r ps1TTime;
#X obj 39 280 pack f f;
#X obj 118 358 s ps1Tempor;
#X obj 191 199 del;
#X obj 191 250 f;
#X obj 191 278 pack f f;
#X obj 210 226 r ps1TFrom;
#X obj 752 86 r ps1TTimeSlider;
#X obj 752 110 s ps1TTimer;
#X obj 755 217 key;
#X obj 755 239 sel 10;
#X obj 755 261 t b;
#X obj 755 285 s ps1SlideTempor;
#X obj 753 144 r ps1THoldSlider;
#X obj 753 168 s ps1THoldr;
#X obj 345 49 r ps1THold;
#X obj 345 87 t b f;
#X obj 210 136 +;
#X obj 303 172 * 2;
#X obj 345 224 +;
#X obj 326 391 del;
#X obj 326 438 s ps1SlideTempor;
#X obj 326 415 spigot;
#X obj 369 390 r ps1RunTS;
#X obj 806 403 r ps1Tempo;
#X obj 753 432 f;
#X obj 787 432 f;
#X obj 753 358 r ps1TSGetTempoF;
#X obj 753 482 s ps1TFromr;
#X obj 787 380 r ps1TSGetTempoT;
#X obj 787 459 s ps1TTor;
#X text 820 221 trigger on ENTER;
#X obj 473 158 f;
#X obj 492 135 r ps1FreezeSeekw;
#X obj 473 181 sel 1;
#X obj 473 204 s ps1RunSeekwr;
#X obj 498 278 f;
#X obj 517 255 r ps1FreezeSeekw;
#X obj 498 301 sel 1;
#X obj 498 354 s ps1NewSeekValue;
#X msg 498 327 0;
#X connect 0 0 2 1;
#X connect 1 0 7 0;
#X connect 1 0 2 0;
#X connect 1 0 24 0;
#X connect 1 0 36 0;
#X connect 2 0 5 0;
#X connect 3 0 6 0;
#X connect 4 0 5 1;
#X connect 4 0 9 1;
#X connect 4 0 21 0;
#X connect 4 0 22 0;
#X connect 5 0 3 0;
#X connect 7 0 8 0;
#X connect 8 0 9 0;
#X connect 9 0 3 0;
#X connect 10 0 8 1;
#X connect 11 0 12 0;
#X connect 13 0 14 0;
#X connect 14 0 15 0;
#X connect 15 0 16 0;
#X connect 17 0 18 0;
#X connect 19 0 20 0;
#X connect 20 0 21 0;
#X connect 20 0 23 0;
#X connect 20 1 21 1;
#X connect 20 1 23 1;
#X connect 21 0 7 1;
#X connect 22 0 23 0;
#X connect 23 0 24 1;
#X connect 24 0 26 0;
#X connect 24 0 36 0;
#X connect 24 0 40 0;
#X connect 26 0 25 0;
#X connect 27 0 26 1;
#X connect 28 0 29 1;
#X connect 28 0 30 1;
#X connect 29 0 32 0;
#X connect 30 0 34 0;
#X connect 31 0 29 0;
#X connect 33 0 30 0;
#X connect 36 0 38 0;
#X connect 37 0 36 1;
#X connect 38 0 39 0;
#X connect 40 0 42 0;
#X connect 41 0 40 1;
#X connect 42 0 44 0;
#X connect 44 0 43 0;
#X restore 775 165 pd timeSlider;
#N canvas 0 22 783 567 shifter2 0;
#X obj 520 431 pitcher~;
#X obj 55 91 f;
#X obj 55 122 - 1;
#X obj 213 91 f;
#X obj 213 123 + 1;
#X text 97 94 pitch buttons;
#X obj 578 52 inlet~;
#X obj 519 486 outlet~;
#X obj 55 53 r ps1NoteMin2;
#X obj 213 53 r ps1NotePlus2;
#X obj 55 258 s ps1PitchFreq2r;
#X obj 520 352 r ps1PitchFreq2;
#X obj 539 381 r ps1PitchWindow2;
#X obj 559 404 r ps1PitchDelay2;
#X obj 351 53 keyboardHI;
#X obj 351 80 - 1;
#X obj 450 54 keyboardLO;
#X obj 450 80 - 13;
#X obj 351 148 spigot;
#X obj 481 116 r ps1Keyb2On;
#X connect 0 0 7 0;
#X connect 1 0 2 0;
#X connect 2 0 10 0;
#X connect 3 0 4 0;
#X connect 4 0 10 0;
#X connect 6 0 0 3;
#X connect 8 0 1 0;
#X connect 9 0 3 0;
#X connect 11 0 0 0;
#X connect 11 0 1 1;
#X connect 11 0 3 1;
#X connect 12 0 0 1;
#X connect 13 0 0 2;
#X connect 14 0 15 0;
#X connect 15 0 18 0;
#X connect 16 0 17 0;
#X connect 17 0 18 0;
#X connect 18 0 10 0;
#X connect 19 0 18 1;
#X restore 467 589 pd shifter2;
#N canvas 0 22 902 767 fromLFO 0;
#X obj 22 23 r ps1FromLfoOn;
#X obj 152 25 r ps1FromLfoDepth;
#X obj 285 99 r ps1FromLfoSpeed;
#X obj 287 180 r ps1From;
#N canvas 0 22 712 593 lfo 0;
#X floatatom 121 113 5 0 0 0 - - -;
#X obj 276 159 *;
#X obj 276 92 / 1000;
#X obj 276 122 t b f;
#X obj 276 64 abs;
#X obj 231 267 +;
#X obj 336 269 -;
#X obj 276 194 t b f;
#X obj 430 247 metro;
#X obj 294 421 line;
#X obj 231 356 pack f f;
#X obj 336 356 pack f f;
#X obj 430 285 0;
#X obj 430 336 route 0 1;
#X obj 430 394 1;
#X obj 463 394 0;
#X obj 430 436 bng 15 250 50 0 empty empty empty 0 -6 0 8 -262144 -1
-1;
#X obj 463 436 bng 15 250 50 0 empty empty empty 0 -6 0 8 -262144 -1
-1;
#X obj 18 17 inlet onOff;
#X obj 121 18 inlet baseFreq;
#X obj 276 18 inlet amount;
#X obj 430 20 inlet spd;
#X obj 294 466 outlet;
#X obj 430 181 t b f;
#X connect 0 0 1 0;
#X connect 0 0 5 0;
#X connect 0 0 6 0;
#X connect 1 0 7 0;
#X connect 2 0 3 0;
#X connect 3 0 1 0;
#X connect 3 1 1 1;
#X connect 4 0 2 0;
#X connect 5 0 10 0;
#X connect 6 0 11 0;
#X connect 7 0 6 0;
#X connect 7 0 5 0;
#X connect 7 1 6 1;
#X connect 7 1 5 1;
#X connect 8 0 12 0;
#X connect 9 0 22 0;
#X connect 10 0 9 0;
#X connect 11 0 9 0;
#X connect 12 0 13 0;
#X connect 13 0 14 0;
#X connect 13 1 15 0;
#X connect 14 0 12 1;
#X connect 14 0 16 0;
#X connect 15 0 12 1;
#X connect 15 0 17 0;
#X connect 16 0 10 0;
#X connect 17 0 11 0;
#X connect 18 0 8 0;
#X connect 19 0 0 0;
#X connect 20 0 4 0;
#X connect 21 0 23 0;
#X connect 23 0 8 0;
#X connect 23 1 8 1;
#X connect 23 1 11 1;
#X connect 23 1 10 1;
#X restore 146 187 pd lfo;
#X obj 245 245 f;
#X obj 245 208 t b;
#X obj 146 320 s ps1Fromr;
#X obj 185 96 loadbang;
#X msg 185 129 1;
#X obj 146 218 - 1;
#X obj 146 257 *;
#X obj 146 293 +;
#X obj 152 66 spigot;
#X obj 285 130 spigot;
#X connect 0 0 6 0;
#X connect 0 0 4 0;
#X connect 0 0 13 1;
#X connect 0 0 14 1;
#X connect 1 0 13 0;
#X connect 2 0 14 0;
#X connect 3 0 5 1;
#X connect 4 0 10 0;
#X connect 5 0 12 1;
#X connect 6 0 5 0;
#X connect 8 0 9 0;
#X connect 9 0 4 1;
#X connect 10 0 11 0;
#X connect 11 0 12 0;
#X connect 12 0 7 0;
#X connect 13 0 4 2;
#X connect 13 0 11 1;
#X connect 14 0 4 3;
#X restore 775 190 pd fromLFO;
#N canvas 0 22 906 771 toLFO 0;
#N canvas 0 22 712 593 lfo 0;
#X floatatom 121 113 5 0 0 0 - - -;
#X obj 276 159 *;
#X obj 276 92 / 1000;
#X obj 276 122 t b f;
#X obj 276 64 abs;
#X obj 231 267 +;
#X obj 336 269 -;
#X obj 276 194 t b f;
#X obj 430 247 metro;
#X obj 294 421 line;
#X obj 231 356 pack f f;
#X obj 336 356 pack f f;
#X obj 430 285 0;
#X obj 430 336 route 0 1;
#X obj 430 394 1;
#X obj 463 394 0;
#X obj 430 436 bng 15 250 50 0 empty empty empty 0 -6 0 8 -262144 -1
-1;
#X obj 463 436 bng 15 250 50 0 empty empty empty 0 -6 0 8 -262144 -1
-1;
#X obj 18 17 inlet onOff;
#X obj 121 18 inlet baseFreq;
#X obj 276 18 inlet amount;
#X obj 430 20 inlet spd;
#X obj 294 466 outlet;
#X obj 430 181 t b f;
#X connect 0 0 1 0;
#X connect 0 0 5 0;
#X connect 0 0 6 0;
#X connect 1 0 7 0;
#X connect 2 0 3 0;
#X connect 3 0 1 0;
#X connect 3 1 1 1;
#X connect 4 0 2 0;
#X connect 5 0 10 0;
#X connect 6 0 11 0;
#X connect 7 0 6 0;
#X connect 7 0 5 0;
#X connect 7 1 6 1;
#X connect 7 1 5 1;
#X connect 8 0 12 0;
#X connect 9 0 22 0;
#X connect 10 0 9 0;
#X connect 11 0 9 0;
#X connect 12 0 13 0;
#X connect 13 0 14 0;
#X connect 13 1 15 0;
#X connect 14 0 12 1;
#X connect 14 0 16 0;
#X connect 15 0 12 1;
#X connect 15 0 17 0;
#X connect 16 0 10 0;
#X connect 17 0 11 0;
#X connect 18 0 8 0;
#X connect 19 0 0 0;
#X connect 20 0 4 0;
#X connect 21 0 23 0;
#X connect 23 0 8 0;
#X connect 23 1 8 1;
#X connect 23 1 11 1;
#X connect 23 1 10 1;
#X restore 146 187 pd lfo;
#X obj 245 245 f;
#X obj 245 208 t b;
#X obj 185 96 loadbang;
#X msg 185 129 1;
#X obj 146 218 - 1;
#X obj 146 257 *;
#X obj 146 293 +;
#X obj 33 55 r ps1ToLfoOn;
#X obj 152 54 r ps1ToLfoDepth;
#X obj 307 53 r ps1ToLfoSpeed;
#X obj 287 179 r ps1To;
#X obj 146 320 s ps1Tor;
#X connect 0 0 5 0;
#X connect 1 0 7 1;
#X connect 2 0 1 0;
#X connect 3 0 4 0;
#X connect 4 0 0 1;
#X connect 5 0 6 0;
#X connect 6 0 7 0;
#X connect 7 0 12 0;
#X connect 8 0 2 0;
#X connect 8 0 0 0;
#X connect 9 0 0 2;
#X connect 9 0 6 1;
#X connect 10 0 0 3;
#X connect 11 0 1 1;
#X restore 775 212 pd toLFO;
#N canvas 0 22 1124 866 letGoPresets 0;
#X obj 404 48 r ps1LetOutPresets;
#X obj 43 276 s ps1Step1Onr;
#X msg 43 249 0;
#X msg 74 249 1;
#X msg 159 249 0;
#X msg 190 249 1;
#X msg 275 249 0;
#X msg 306 249 1;
#X msg 391 249 0;
#X msg 422 249 1;
#X msg 507 249 0;
#X msg 538 249 1;
#X msg 623 249 0;
#X msg 654 249 1;
#X msg 739 249 0;
#X msg 770 249 1;
#X msg 855 249 0;
#X msg 886 249 1;
#X obj 159 276 s ps1Step2Onr;
#X obj 275 276 s ps1Step3Onr;
#X obj 391 276 s ps1Step4Onr;
#X obj 507 276 s ps1Step5Onr;
#X obj 623 276 s ps1Step6Onr;
#X obj 739 276 s ps1Step7Onr;
#X obj 855 276 s ps1Step8Onr;
#X obj 331 106 sel 0;
#X obj 380 106 sel 1;
#X obj 427 106 sel 2;
#X obj 473 106 sel 3;
#X obj 519 105 sel 4;
#X obj 566 105 sel 5;
#X obj 613 106 sel 6;
#X obj 403 393 r ps1LetOutPresets;
#X msg 42 594 0;
#X msg 73 594 1;
#X msg 158 594 0;
#X msg 189 594 1;
#X msg 274 594 0;
#X msg 305 594 1;
#X msg 390 594 0;
#X msg 421 594 1;
#X msg 506 594 0;
#X msg 537 594 1;
#X msg 622 594 0;
#X msg 653 594 1;
#X msg 738 594 0;
#X msg 769 594 1;
#X msg 854 594 0;
#X msg 885 594 1;
#X obj 330 451 sel 0;
#X obj 379 451 sel 1;
#X obj 426 451 sel 2;
#X obj 472 451 sel 3;
#X obj 518 450 sel 4;
#X obj 565 450 sel 5;
#X obj 612 451 sel 6;
#X obj 42 621 s ps1Step9Onr;
#X obj 158 621 s ps1Step10Onr;
#X obj 274 621 s ps1Step11Onr;
#X obj 390 621 s ps1Step12Onr;
#X obj 506 621 s ps1Step13Onr;
#X obj 622 621 s ps1Step14Onr;
#X obj 738 621 s ps1Step15Onr;
#X obj 854 621 s ps1Step16Onr;
#X connect 0 0 25 0;
#X connect 0 0 26 0;
#X connect 0 0 27 0;
#X connect 0 0 28 0;
#X connect 0 0 29 0;
#X connect 0 0 30 0;
#X connect 0 0 31 0;
#X connect 2 0 1 0;
#X connect 3 0 1 0;
#X connect 4 0 18 0;
#X connect 5 0 18 0;
#X connect 6 0 19 0;
#X connect 7 0 19 0;
#X connect 8 0 20 0;
#X connect 9 0 20 0;
#X connect 10 0 21 0;
#X connect 11 0 21 0;
#X connect 12 0 22 0;
#X connect 13 0 22 0;
#X connect 14 0 23 0;
#X connect 15 0 23 0;
#X connect 16 0 24 0;
#X connect 17 0 24 0;
#X connect 25 0 3 0;
#X connect 25 0 5 0;
#X connect 25 0 7 0;
#X connect 25 0 9 0;
#X connect 25 0 11 0;
#X connect 25 0 13 0;
#X connect 25 0 15 0;
#X connect 25 0 17 0;
#X connect 26 0 3 0;
#X connect 26 0 4 0;
#X connect 26 0 7 0;
#X connect 26 0 8 0;
#X connect 26 0 11 0;
#X connect 26 0 12 0;
#X connect 26 0 15 0;
#X connect 26 0 16 0;
#X connect 27 0 3 0;
#X connect 27 0 4 0;
#X connect 27 0 6 0;
#X connect 27 0 8 0;
#X connect 27 0 11 0;
#X connect 27 0 12 0;
#X connect 27 0 14 0;
#X connect 27 0 16 0;
#X connect 28 0 3 0;
#X connect 28 0 4 0;
#X connect 28 0 6 0;
#X connect 28 0 8 0;
#X connect 28 0 10 0;
#X connect 28 0 12 0;
#X connect 28 0 14 0;
#X connect 28 0 16 0;
#X connect 29 0 2 0;
#X connect 29 0 5 0;
#X connect 29 0 6 0;
#X connect 29 0 9 0;
#X connect 29 0 10 0;
#X connect 29 0 13 0;
#X connect 29 0 14 0;
#X connect 29 0 17 0;
#X connect 30 0 2 0;
#X connect 30 0 4 0;
#X connect 30 0 7 0;
#X connect 30 0 8 0;
#X connect 30 0 10 0;
#X connect 30 0 12 0;
#X connect 30 0 15 0;
#X connect 30 0 16 0;
#X connect 31 0 16 0;
#X connect 31 0 14 0;
#X connect 31 0 12 0;
#X connect 31 0 10 0;
#X connect 31 0 8 0;
#X connect 31 0 6 0;
#X connect 31 0 4 0;
#X connect 31 0 2 0;
#X connect 32 0 49 0;
#X connect 32 0 50 0;
#X connect 32 0 51 0;
#X connect 32 0 52 0;
#X connect 32 0 53 0;
#X connect 32 0 54 0;
#X connect 32 0 55 0;
#X connect 33 0 56 0;
#X connect 34 0 56 0;
#X connect 35 0 57 0;
#X connect 36 0 57 0;
#X connect 37 0 58 0;
#X connect 38 0 58 0;
#X connect 39 0 59 0;
#X connect 40 0 59 0;
#X connect 41 0 60 0;
#X connect 42 0 60 0;
#X connect 43 0 61 0;
#X connect 44 0 61 0;
#X connect 45 0 62 0;
#X connect 46 0 62 0;
#X connect 47 0 63 0;
#X connect 48 0 63 0;
#X connect 49 0 34 0;
#X connect 49 0 36 0;
#X connect 49 0 38 0;
#X connect 49 0 40 0;
#X connect 49 0 42 0;
#X connect 49 0 44 0;
#X connect 49 0 46 0;
#X connect 49 0 48 0;
#X connect 50 0 34 0;
#X connect 50 0 35 0;
#X connect 50 0 38 0;
#X connect 50 0 39 0;
#X connect 50 0 42 0;
#X connect 50 0 43 0;
#X connect 50 0 46 0;
#X connect 50 0 47 0;
#X connect 51 0 34 0;
#X connect 51 0 35 0;
#X connect 51 0 37 0;
#X connect 51 0 39 0;
#X connect 51 0 42 0;
#X connect 51 0 43 0;
#X connect 51 0 45 0;
#X connect 51 0 47 0;
#X connect 52 0 34 0;
#X connect 52 0 35 0;
#X connect 52 0 37 0;
#X connect 52 0 39 0;
#X connect 52 0 41 0;
#X connect 52 0 43 0;
#X connect 52 0 45 0;
#X connect 52 0 47 0;
#X connect 53 0 33 0;
#X connect 53 0 36 0;
#X connect 53 0 37 0;
#X connect 53 0 40 0;
#X connect 53 0 41 0;
#X connect 53 0 44 0;
#X connect 53 0 45 0;
#X connect 53 0 48 0;
#X connect 54 0 33 0;
#X connect 54 0 35 0;
#X connect 54 0 38 0;
#X connect 54 0 39 0;
#X connect 54 0 41 0;
#X connect 54 0 43 0;
#X connect 54 0 46 0;
#X connect 54 0 47 0;
#X connect 55 0 47 0;
#X connect 55 0 45 0;
#X connect 55 0 43 0;
#X connect 55 0 41 0;
#X connect 55 0 39 0;
#X connect 55 0 37 0;
#X connect 55 0 35 0;
#X connect 55 0 33 0;
#X restore 775 238 pd letGoPresets;
#N canvas 0 22 747 793 seekwenzing 0;
#X obj 103 193 r ps1Steps;
#X obj 127 216 r ps1RunDir;
#X obj 229 274 r ps1Steps;
#X obj 229 320 t b f;
#X obj 229 365 /;
#X obj 103 464 *;
#X obj 103 564 s ps1Posr;
#X obj 269 198 r ps1Restart;
#X obj 328 349 -;
#X obj 356 318 t b f;
#X obj 229 342 f;
#X obj 302 373 t b;
#X obj 229 297 f;
#X obj 328 272 r ps1To;
#X obj 356 294 r ps1From;
#X obj 103 489 +;
#X text 362 350 calculate from-to;
#X obj 41 327 ==;
#X obj 43 293 - 1;
#X obj 41 351 s seekwDone;
#X obj 269 175 r ps1LoadRange;
#X obj 269 129 r ps1Divver;
#X obj 269 152 r ps1Multer;
#X obj 297 519 >;
#X obj 316 495 r ps1Steps;
#X obj 297 542 sel 1;
#X obj 297 565 t b;
#X obj 297 588 s ps1Restartr;
#X obj 151 43 inlet metroBang;
#X text 395 537 check seekwenz overflow;
#X obj 103 527 spigot;
#X obj 146 497 r ps1RunSeekw;
#X obj 151 124 spigot;
#X obj 194 94 r ps1RunSeekw;
#X obj 571 119 key;
#X obj 571 201 f;
#X obj 571 143 sel 42;
#X obj 532 288 s ps1RunSeekwr;
#X obj 571 244 sel 0 1;
#X msg 591 174 0;
#X msg 625 174 1;
#N canvas 0 22 1164 860 multiseekw 0;
#X obj 293 104 f;
#X obj 91 238 pack f f;
#X msg 91 109 set \$1;
#X obj 155 110 t b f;
#X obj 91 336 unpack f;
#X obj 546 340 unpack f;
#X obj 332 104 r newVal;
#X msg 546 381 bang;
#X text 590 382 generate bang from new float;
#X text 159 234 if seq : create pack 0 \, 0.1 \, 0.2 ...;
#X text 159 247 if rnd : create pack 1 \, 1.1 \, 1.2 ...;
#X obj 293 31 inlet metroBang;
#X obj 91 29 inlet typeSelector;
#X obj 330 691 outlet value;
#X msg 226 137 -1;
#X obj 91 467 t b b;
#X obj 556 24 inlet restartBang;
#X obj 226 57 loadbang;
#X obj 91 293 route 0 1 2;
#X text 191 293 0 = seq fwd \, 1 = seq bckw \, 2 = seq rnd;
#X obj 91 375 + 1;
#X obj 374 343 unpack f;
#X obj 374 464 t b b;
#X obj 374 382 - 1;
#X obj 374 423 sel -1;
#X obj 556 136 route 0 1 2;
#X msg 556 184 -1;
#X msg 556 72 0;
#X msg 91 144 0;
#X obj 546 423 random 16;
#X msg 597 225 16;
#X obj 91 416 sel 16;
#X msg 409 499 16;
#X obj 716 23 inlet randomBang;
#X obj -38 30 inlet maxSteps;
#X msg -36 103 set \$1;
#X msg 171 87 set 0;
#X obj 862 23 inlet newValue;
#X connect 0 0 3 0;
#X connect 1 0 18 0;
#X connect 2 0 28 0;
#X connect 2 0 27 0;
#X connect 3 0 28 0;
#X connect 3 1 1 1;
#X connect 4 0 20 0;
#X connect 5 0 7 0;
#X connect 6 0 0 1;
#X connect 7 0 29 0;
#X connect 11 0 0 0;
#X connect 12 0 2 0;
#X connect 14 0 0 1;
#X connect 15 0 0 0;
#X connect 15 1 14 0;
#X connect 16 0 27 0;
#X connect 17 0 14 0;
#X connect 17 0 36 0;
#X connect 18 0 4 0;
#X connect 18 1 21 0;
#X connect 18 2 5 0;
#X connect 20 0 31 0;
#X connect 21 0 23 0;
#X connect 22 0 0 0;
#X connect 22 1 32 0;
#X connect 23 0 24 0;
#X connect 24 0 22 0;
#X connect 24 1 13 0;
#X connect 24 1 0 1;
#X connect 25 0 26 0;
#X connect 25 1 30 0;
#X connect 25 2 26 0;
#X connect 26 0 0 1;
#X connect 27 0 25 0;
#X connect 28 0 1 0;
#X connect 29 0 13 0;
#X connect 29 0 0 1;
#X connect 30 0 0 1;
#X connect 31 0 15 0;
#X connect 31 1 13 0;
#X connect 31 1 0 1;
#X connect 32 0 0 1;
#X connect 33 0 29 0;
#X connect 34 0 31 1;
#X connect 34 0 29 1;
#X connect 34 0 35 0;
#X connect 35 0 30 0;
#X connect 35 0 32 0;
#X connect 36 0 28 0;
#X connect 37 0 0 1;
#X restore 103 269 pd multiseekw;
#X obj 269 221 r ps1NewSeekValue;
#X connect 0 0 18 0;
#X connect 0 0 41 0;
#X connect 1 0 41 1;
#X connect 2 0 12 0;
#X connect 3 0 10 0;
#X connect 3 1 4 1;
#X connect 4 0 5 1;
#X connect 5 0 15 0;
#X connect 7 0 41 3;
#X connect 8 0 10 1;
#X connect 8 0 11 0;
#X connect 9 0 8 0;
#X connect 9 1 8 1;
#X connect 10 0 4 0;
#X connect 11 0 3 0;
#X connect 11 0 12 0;
#X connect 12 0 3 0;
#X connect 13 0 8 0;
#X connect 14 0 9 0;
#X connect 14 0 15 1;
#X connect 15 0 30 0;
#X connect 17 0 19 0;
#X connect 18 0 17 1;
#X connect 20 0 41 3;
#X connect 21 0 41 3;
#X connect 22 0 41 3;
#X connect 23 0 25 0;
#X connect 24 0 23 1;
#X connect 25 0 26 0;
#X connect 26 0 27 0;
#X connect 28 0 32 0;
#X connect 30 0 6 0;
#X connect 31 0 30 1;
#X connect 32 0 41 2;
#X connect 33 0 32 1;
#X connect 34 0 36 0;
#X connect 35 0 37 0;
#X connect 35 0 38 0;
#X connect 36 0 35 0;
#X connect 38 0 40 0;
#X connect 38 1 39 0;
#X connect 39 0 35 1;
#X connect 40 0 35 1;
#X connect 41 0 17 0;
#X connect 41 0 23 0;
#X connect 41 0 5 0;
#X connect 42 0 41 5;
#X restore 50 179 pd seekwenzing;
#N canvas 0 22 474 324 tempoDivision 0;
#X obj 30 211 f;
#X obj 30 90 r ps1TempoDivider;
#X obj 30 165 pow;
#X msg 30 137 2;
#X obj 30 114 t b f;
#X obj 30 234 /;
#X obj 30 188 t b f;
#X obj 30 257 s ps1Tempor;
#X obj 129 25 inlet tempo;
#X obj 135 258 s ps1Stepsr;
#X connect 0 0 5 0;
#X connect 1 0 4 0;
#X connect 2 0 6 0;
#X connect 2 0 9 0;
#X connect 3 0 2 0;
#X connect 4 0 3 0;
#X connect 4 1 2 1;
#X connect 5 0 7 0;
#X connect 6 0 0 0;
#X connect 6 1 5 1;
#X connect 8 0 0 1;
#X restore 93 405 pd tempoDivision;
#X text 214 4 internal metro-trigger;
#N canvas 0 22 1128 870 letGoPresets2 0;
#X obj 43 276 s ps1Step1Onr;
#X msg 43 249 0;
#X msg 74 249 1;
#X msg 159 249 0;
#X msg 190 249 1;
#X msg 275 249 0;
#X msg 306 249 1;
#X msg 391 249 0;
#X msg 422 249 1;
#X msg 507 249 0;
#X msg 538 249 1;
#X msg 623 249 0;
#X msg 654 249 1;
#X msg 739 249 0;
#X msg 770 249 1;
#X msg 855 249 0;
#X msg 886 249 1;
#X obj 159 276 s ps1Step2Onr;
#X obj 275 276 s ps1Step3Onr;
#X obj 391 276 s ps1Step4Onr;
#X obj 507 276 s ps1Step5Onr;
#X obj 623 276 s ps1Step6Onr;
#X obj 739 276 s ps1Step7Onr;
#X obj 855 276 s ps1Step8Onr;
#X obj 331 106 sel 0;
#X msg 42 594 0;
#X msg 73 594 1;
#X msg 158 594 0;
#X msg 189 594 1;
#X msg 274 594 0;
#X msg 305 594 1;
#X msg 390 594 0;
#X msg 421 594 1;
#X msg 506 594 0;
#X msg 537 594 1;
#X msg 622 594 0;
#X msg 653 594 1;
#X msg 738 594 0;
#X msg 769 594 1;
#X msg 854 594 0;
#X msg 885 594 1;
#X obj 330 451 sel 0;
#X obj 42 621 s ps1Step9Onr;
#X obj 158 621 s ps1Step10Onr;
#X obj 274 621 s ps1Step11Onr;
#X obj 390 621 s ps1Step12Onr;
#X obj 506 621 s ps1Step13Onr;
#X obj 622 621 s ps1Step14Onr;
#X obj 738 621 s ps1Step15Onr;
#X obj 854 621 s ps1Step16Onr;
#X obj 405 47 r ps1LetOutPresets2;
#X obj 403 393 r ps1LetOutPresets2;
#X obj 380 106 sel 1;
#X obj 382 451 sel 1;
#X obj 433 452 sel 2;
#X obj 426 106 sel 2;
#X connect 1 0 0 0;
#X connect 2 0 0 0;
#X connect 3 0 17 0;
#X connect 4 0 17 0;
#X connect 5 0 18 0;
#X connect 6 0 18 0;
#X connect 7 0 19 0;
#X connect 8 0 19 0;
#X connect 9 0 20 0;
#X connect 10 0 20 0;
#X connect 11 0 21 0;
#X connect 12 0 21 0;
#X connect 13 0 22 0;
#X connect 14 0 22 0;
#X connect 15 0 23 0;
#X connect 16 0 23 0;
#X connect 24 0 2 0;
#X connect 24 0 4 0;
#X connect 24 0 8 0;
#X connect 24 0 10 0;
#X connect 24 0 16 0;
#X connect 24 0 12 0;
#X connect 24 0 5 0;
#X connect 24 0 13 0;
#X connect 25 0 42 0;
#X connect 26 0 42 0;
#X connect 27 0 43 0;
#X connect 28 0 43 0;
#X connect 29 0 44 0;
#X connect 30 0 44 0;
#X connect 31 0 45 0;
#X connect 32 0 45 0;
#X connect 33 0 46 0;
#X connect 34 0 46 0;
#X connect 35 0 47 0;
#X connect 36 0 47 0;
#X connect 37 0 48 0;
#X connect 38 0 48 0;
#X connect 39 0 49 0;
#X connect 40 0 49 0;
#X connect 41 0 26 0;
#X connect 41 0 28 0;
#X connect 41 0 32 0;
#X connect 41 0 34 0;
#X connect 41 0 36 0;
#X connect 41 0 40 0;
#X connect 41 0 29 0;
#X connect 41 0 37 0;
#X connect 50 0 24 0;
#X connect 50 0 52 0;
#X connect 50 0 55 0;
#X connect 51 0 41 0;
#X connect 51 0 53 0;
#X connect 51 0 54 0;
#X connect 52 0 2 0;
#X connect 52 0 4 0;
#X connect 52 0 5 0;
#X connect 52 0 8 0;
#X connect 52 0 9 0;
#X connect 52 0 11 0;
#X connect 52 0 14 0;
#X connect 52 0 15 0;
#X connect 53 0 25 0;
#X connect 53 0 28 0;
#X connect 53 0 30 0;
#X connect 53 0 31 0;
#X connect 53 0 34 0;
#X connect 53 0 35 0;
#X connect 53 0 37 0;
#X connect 53 0 40 0;
#X connect 54 0 25 0;
#X connect 54 0 27 0;
#X connect 54 0 30 0;
#X connect 54 0 32 0;
#X connect 54 0 33 0;
#X connect 54 0 35 0;
#X connect 54 0 38 0;
#X connect 54 0 39 0;
#X connect 55 0 1 0;
#X connect 55 0 4 0;
#X connect 55 0 5 0;
#X connect 55 0 8 0;
#X connect 55 0 10 0;
#X connect 55 0 11 0;
#X connect 55 0 13 0;
#X connect 55 0 16 0;
#X restore 775 262 pd letGoPresets2;
#N canvas 967 181 661 534 delayTempoSync 0;
#X obj 113 332 s ps1DelSpd2r;
#X obj 34 24 r ps1Tempo2DelDiv;
#X obj 151 95 + 1;
#X obj 53 93 r ps1Tempo;
#X obj 132 155 /;
#X obj 34 117 f;
#X obj 34 55 t b f;
#X obj 290 22 r ps1Tempo2DelMult;
#X obj 309 73 r ps1Tempo;
#X obj 290 97 *;
#X obj 290 49 + 1;
#X msg 252 303 0;
#X obj 252 332 s ps1DelOffs2r;
#X obj 252 271 t b;
#X obj 481 272 r linkTempoToDel2;
#X obj 438 306 spigot;
#X obj 438 196 r ps1Tempo;
#X obj 438 332 s ps1DelSpd2r;
#X obj 438 276 *;
#X obj 467 221 r ps1Tempo2DelMult;
#X obj 467 248 + 1;
#X connect 1 0 6 0;
#X connect 1 0 13 0;
#X connect 2 0 4 1;
#X connect 3 0 5 1;
#X connect 4 0 0 0;
#X connect 5 0 4 0;
#X connect 6 0 5 0;
#X connect 6 1 2 0;
#X connect 7 0 10 0;
#X connect 7 0 13 0;
#X connect 8 0 9 1;
#X connect 9 0 0 0;
#X connect 10 0 9 0;
#X connect 11 0 12 0;
#X connect 13 0 11 0;
#X connect 14 0 15 1;
#X connect 15 0 17 0;
#X connect 16 0 18 0;
#X connect 18 0 15 0;
#X connect 19 0 20 0;
#X connect 20 0 18 1;
#X restore 775 286 pd delayTempoSync;
#N canvas 0 22 408 256 switchPitchKeyboard 0;
#X obj 106 45 key;
#X obj 106 68 sel 9;
#X obj 106 91 t b;
#X obj 124 115 s ps1Keyb1Onr;
#X obj 106 139 s ps1Keyb2Onr;
#X connect 0 0 1 0;
#X connect 1 0 2 0;
#X connect 2 0 4 0;
#X connect 2 0 3 0;
#X restore 775 309 pd switchPitchKeyboard;
#X text 46 202 new slice position is calculated in here;
#N canvas 55 51 588 544 convert 0;
#X obj 225 88 r ps1Tempo;
#X obj 206 115 f;
#X obj 206 61 r ps1MS2BPM;
#X obj 227 176 expr (60000 / $f1);
#X obj 227 248 s ps1BPMr;
#X obj 68 268 f;
#X obj 68 327 s ps1BPMr;
#X obj 68 296 int;
#X obj 68 188 r ps1BPMRound;
#X obj 415 300 r ps1BPM;
#X obj 396 342 f;
#X obj 396 379 expr (60000 / $f1);
#X obj 396 270 r ps1BPM2MS;
#X obj 396 410 s ps1Tempor;
#X connect 0 0 1 1;
#X connect 1 0 3 0;
#X connect 2 0 1 0;
#X connect 3 0 4 0;
#X connect 3 0 5 1;
#X connect 5 0 7 0;
#X connect 7 0 6 0;
#X connect 8 0 5 0;
#X connect 9 0 10 1;
#X connect 10 0 11 0;
#X connect 11 0 13 0;
#X connect 12 0 10 0;
#X restore 775 339 pd convert;
#N canvas 0 22 1319 725 masterClock 0;
#X obj 150 72 r MasterClockMS;
#X obj 131 99 f;
#X obj 131 35 r \$0-getMasterClock;
#X obj 131 129 s ps1Tempor;
#X connect 0 0 1 1;
#X connect 1 0 3 0;
#X connect 2 0 1 0;
#X restore 776 374 pd masterClock;
#X connect 0 0 2 0;
#X connect 1 0 8 0;
#X connect 1 0 7 0;
#X connect 1 0 25 0;
#X connect 2 0 1 0;
#X connect 3 0 23 1;
#X connect 4 0 6 0;
#X connect 5 0 4 0;
#X connect 5 1 4 1;
#X connect 6 0 3 0;
#X connect 8 0 4 0;
#X connect 9 0 0 0;
#X connect 10 0 5 0;
#X connect 11 0 12 0;
#X connect 12 0 3 0;
#X connect 12 0 23 0;
#X connect 12 0 38 0;
#X connect 13 0 12 1;
#X connect 21 0 20 2;
#X connect 22 0 20 0;
#X connect 22 1 20 1;
#X connect 23 0 22 0;
#X connect 23 0 21 0;
#X connect 23 0 34 0;
#X connect 25 0 26 0;
#X connect 25 0 39 0;
#X connect 29 0 30 0;
#X connect 30 0 28 0;
#X connect 34 0 20 3;
#X restore 17 493 pd positionSampler1;
#X obj 17 23 cnv 10 604 470 empty empty empty 20 12 0 14 -137314 -66577
0;
#X obj 114 27 cnv 15 67 180 empty empty SHAPE 2 6 1 7 -195568 -90133
0;
#X obj 141 61 vsl 12 120 0 100 0 0 ps1H ps1Hr H 4 -8 1 7 -128992 -262144
-262144 11900 1;
#X obj 117 61 vsl 12 120 0 100 0 0 ps1A ps1Ar A 4 -8 1 7 -128992 -262144
-262144 1190 1;
#X obj 165 61 vsl 12 120 0 1000 0 0 ps1R ps1Rr R 4 -8 1 7 -128992 -262144
-262144 119 1;
#X obj 117 191 hradio 10 1 0 6 ps1EnvPresets ps1EnvPresetsr empty 0
-6 0 8 -128992 -262144 -1 0;
#N canvas 481 116 672 719 init 0;
#X obj 43 29 loadbang;
#X msg 102 196 1000;
#X obj 102 225 s ps1Tor;
#X msg 81 301 0;
#X obj 81 324 s ps1EnvPresetsr;
#X msg 277 224 0;
#X msg 408 222 2000;
#X obj 277 261 s ps1PitchFreqr;
#X obj 408 259 s ps1PitchWindowr;
#X msg 272 302 16;
#X obj 272 325 s ps1Stepsr;
#X msg 408 302 250;
#X obj 408 325 s ps1Tempor;
#X msg 65 367 0;
#X obj 65 396 s ps1DelOffsr;
#X obj 181 395 s ps1DelWidthr;
#X msg 223 63 0;
#X obj 223 102 s ps1LetOutPresetsr;
#X obj 346 453 s ps1MaxStepsr;
#X msg 346 414 16;
#X obj 118 543 s ps1RunSeekw;
#X msg 118 506 1;
#X msg 341 537 1;
#X obj 341 571 s ps1RunSeekwr;
#X obj 463 286 s ps1PitchWindow2r;
#X obj 293 600 s dspONr;
#X connect 0 0 16 0;
#X connect 0 0 1 0;
#X connect 0 0 3 0;
#X connect 0 0 5 0;
#X connect 0 0 6 0;
#X connect 0 0 9 0;
#X connect 0 0 11 0;
#X connect 0 0 13 0;
#X connect 0 0 19 0;
#X connect 0 0 21 0;
#X connect 0 0 22 0;
#X connect 1 0 2 0;
#X connect 3 0 4 0;
#X connect 5 0 7 0;
#X connect 6 0 8 0;
#X connect 6 0 24 0;
#X connect 9 0 10 0;
#X connect 11 0 12 0;
#X connect 13 0 14 0;
#X connect 13 0 15 0;
#X connect 16 0 17 0;
#X connect 19 0 18 0;
#X connect 21 0 20 0;
#X connect 22 0 23 0;
#X connect 22 0 25 0;
#X restore 171 493 pd init;
#X obj 379 27 cnv 15 90 180 empty empty S-DELAY 2 6 1 7 -195568 -90133
0;
#X obj 384 60 vsl 16 120 0 127 0 0 ps1Dly ps1Dlyr LVL -3 -8 1 7 -30443
-262144 -262144 0 0;
#X obj 404 60 vsl 12 120 0 50 0 0 ps1DelSpd ps1DelSpdr S 3 -9 1 7 -63865
-262144 -262144 0 0;
#X obj 419 60 vsl 12 120 5 5 0 0 ps1DelOffs ps1DelOffsr O 3 -9 1 7
-63865 -262144 -262144 -2.14748e+09 0;
#X obj 434 60 vsl 12 120 -100 100 0 0 ps1DelWidth ps1DelWidthr W 2
-9 1 7 -63865 -262144 -262144 5950 0;
#X obj 185 27 cnv 15 93 180 empty empty PITCH_1 2 6 1 7 -195568 -90133
0;
#X obj 249 60 vsl 12 128 0 127 0 0 ps1PitchLvl ps1PitchLvlr empty 3
-8 1 7 -31280 -262144 -262144 0 0;
#X obj 190 60 vsl 12 100 -24 60 0 0 ps1PitchFreq ps1PitchFreqr F 3
-8 1 7 -260818 -262144 -262144 2829 0;
#X obj 205 60 vsl 12 128 0 2000 0 0 ps1PitchWindow ps1PitchWindowr
W 2 -8 1 7 -260818 -262144 -262144 12700 1;
#X obj 220 60 vsl 12 128 0 255 0 0 ps1PitchDelay ps1PitchDelayr D 3
-8 1 7 -260818 -262144 -262144 0 1;
#X obj 190 179 bng 12 250 50 0 ps1NoteMin ps1NoteMinr empty 0 -6 0
8 -260818 -1 -1;
#X obj 190 165 bng 12 250 50 0 ps1NotePlus ps1NotePlusr empty 0 -6
0 8 -260818 -1 -1;
#X obj 235 60 vsl 12 128 0 127 0 0 ps1PitchDry ps1PitchDryr empty -3
-8 1 7 -105606 -262144 -262144 0 0;
#X obj 62 27 cnv 15 48 180 empty empty MIX 2 6 1 7 -195568 -90133 0
;
#X obj 66 60 vsl 12 128 0 127 0 0 ps1Lvl ps1Lvlr L 2 -9 1 7 -105606
-262144 -262144 0 0;
#X obj 82 60 vsl 12 128 0 127 0 0 ps1ToDly ps1ToDlyr D 3 -8 1 7 -31280
-262144 -262144 0 0;
#X obj 385 187 tgl 15 0 ps1DelMassive ps1DelMassiver empty 0 -6 0 8
-68216 -262144 -1 0 1;
#X obj 450 60 vsl 12 120 0 100 0 0 ps1DelSmooth ps1DelSMoothr s 3 -9
1 7 -63865 -262144 -262144 0 0;
#X obj 23 315 cnv 15 595 45 empty empty STEPS./.TIME 2 6 1 7 -195568
-90133 0;
#X obj 125 328 nbx 8 16 1 1e+37 0 0 ps1Steps ps1Stepsr STEPS 0 -6 1
7 -241291 -90881 -262144 16 256;
#X obj 182 328 hradio 16 1 0 3 ps1RunDir ps1RunDirr DIR 0 -6 1 7 -241291
-123526 -262144 0;
#X obj 287 319 nbx 10 25 1 1e+37 0 0 ps1Tempo ps1Tempor empty 0 -6
1 11 -260097 -262144 -262144 250 256;
#X obj 107 328 bng 16 250 50 0 ps1Restart ps1Restartr R 0 -6 1 7 -241291
-90881 -262144;
#X obj 241 328 bng 16 250 50 0 ps1Multer ps1Multerr X 4 9 1 8 -241291
-90881 -1;
#X obj 259 328 bng 16 250 50 0 ps1Divver ps1Divverr / 7 9 1 9 -241291
-90881 -1;
#X obj 109 347 hsl 440 10 0 2000 0 0 ps1StepSlider ps1StepSliderr empty
-2 -6 0 8 -241291 -99865 -1 0 0;
#X obj 23 364 cnv 15 500 60 empty empty TIME_SLIDER 2 6 1 7 -195568
-90133 0;
#X obj 106 381 nbx 10 16 1 1e+37 0 0 ps1TFrom ps1TFromr FROM 0 -8 1
7 -241291 -90881 -262144 1 256;
#X obj 170 381 nbx 10 16 1 1e+37 0 0 ps1TTo ps1TTor TO 0 -8 1 7 -241291
-90881 -262144 1 256;
#X obj 414 381 nbx 9 16 1 1e+37 0 0 ps1TTime ps1TTimer empty 0 -6 1
7 -241291 -90881 -262144 1 256;
#X obj 480 381 bng 26 250 50 0 ps1SlideTempo ps1SlideTempor SLIDE 0
-8 1 7 -260097 -1 -262144;
#X obj 237 381 hsl 175 16 0 60000 0 0 ps1TTimeSlider ps1TTimeSliderr
SLIDE_TIME -2 -8 1 7 -241291 -90881 -262144 0 1;
#X obj 22 27 cnv 15 36 180 empty empty SMP 2 6 1 7 -195568 -90133 0
;
#X obj 25 113 tgl 30 0 ps1Play ps1Playr RUN 0 -7 1 7 -134154 -262144
-262144 0 1;
#X obj 25 65 bng 30 250 50 0 ps1Load ps1Loadr OPEN 0 -8 1 7 -55546
-1 -262144;
#X obj 414 401 nbx 9 16 1 1e+37 0 0 ps1THold ps1THoldr empty 0 -6 1
7 -137284 -262144 -262144 1 256;
#X obj 181 401 hsl 231 16 0 30000 0 0 ps1THoldSlider ps1THoldSliderr
HOLD_TIME -74 7 1 7 -137284 -262144 -262144 0 1;
#X obj 508 381 tgl 12 0 ps1RunTS ps1RunTSr empty 0 -6 0 8 -137284 -262144
-262144 0 1;
#X obj 528 398 cnv 8 8 8 empty empty empty 20 12 0 14 -42246 -66577
0;
#X obj 528 408 cnv 8 8 8 empty empty empty 20 12 0 14 -42246 -66577
0;
#X obj 538 388 cnv 8 8 8 empty empty empty 20 12 0 14 -42246 -66577
0;
#X obj 538 418 cnv 8 8 8 empty empty empty 20 12 0 14 -42246 -66577
0;
#X obj 548 378 cnv 8 8 8 empty empty empty 20 12 0 14 -42246 -66577
0;
#X obj 548 388 cnv 8 8 8 empty empty empty 20 12 0 14 -42246 -66577
0;
#X obj 548 398 cnv 8 8 8 empty empty empty 20 12 0 14 -42246 -66577
0;
#X obj 548 408 cnv 8 8 8 empty empty empty 20 12 0 14 -42246 -66577
0;
#X obj 548 418 cnv 8 8 8 empty empty empty 20 12 0 14 -42246 -66577
0;
#X obj 548 428 cnv 8 8 8 empty empty empty 20 12 0 14 -42246 -66577
0;
#X obj 558 378 cnv 8 8 8 empty empty empty 20 12 0 14 -42246 -66577
0;
#X obj 558 398 cnv 8 8 8 empty empty empty 20 12 0 14 -42246 -66577
0;
#X obj 558 408 cnv 8 8 8 empty empty empty 20 12 0 14 -42246 -66577
0;
#X obj 558 418 cnv 8 8 8 empty empty empty 20 12 0 14 -42246 -66577
0;
#X obj 568 378 cnv 8 8 8 empty empty empty 20 12 0 14 -42246 -66577
0;
#X obj 568 388 cnv 8 8 8 empty empty empty 20 12 0 14 -42246 -66577
0;
#X obj 568 398 cnv 8 8 8 empty empty empty 20 12 0 14 -42246 -66577
0;
#X obj 568 408 cnv 8 8 8 empty empty empty 20 12 0 14 -42246 -66577
0;
#X obj 568 418 cnv 8 8 8 empty empty empty 20 12 0 14 -42246 -66577
0;
#X obj 568 428 cnv 8 8 8 empty empty empty 20 12 0 14 -42246 -66577
0;
#X obj 578 378 cnv 8 8 8 empty empty empty 20 12 0 14 -42246 -66577
0;
#X obj 578 388 cnv 8 8 8 empty empty empty 20 12 0 14 -42246 -66577
0;
#X obj 578 398 cnv 8 8 8 empty empty empty 20 12 0 14 -42246 -66577
0;
#X obj 578 408 cnv 8 8 8 empty empty empty 20 12 0 14 -42246 -66577
0;
#X obj 578 418 cnv 8 8 8 empty empty empty 20 12 0 14 -42246 -66577
0;
#X obj 578 428 cnv 8 8 8 empty empty empty 20 12 0 14 -42246 -66577
0;
#X obj 588 378 cnv 8 8 8 empty empty empty 20 12 0 14 -42246 -66577
0;
#X obj 588 388 cnv 8 8 8 empty empty empty 20 12 0 14 -42246 -66577
0;
#X obj 588 398 cnv 8 8 8 empty empty empty 20 12 0 14 -42246 -66577
0;
#X obj 588 408 cnv 8 8 8 empty empty empty 20 12 0 14 -42246 -66577
0;
#X obj 588 418 cnv 8 8 8 empty empty empty 20 12 0 14 -42246 -66577
0;
#X obj 598 378 cnv 8 8 8 empty empty empty 20 12 0 14 -42246 -66577
0;
#X obj 598 388 cnv 8 8 8 empty empty empty 20 12 0 14 -42246 -66577
0;
#X obj 598 398 cnv 8 8 8 empty empty empty 20 12 0 14 -42246 -66577
0;
#X obj 598 408 cnv 8 8 8 empty empty empty 20 12 0 14 -42246 -66577
0;
#X obj 598 428 cnv 8 8 8 empty empty empty 20 12 0 14 -42246 -66577
0;
#X obj 608 388 cnv 8 8 8 empty empty empty 20 12 0 14 -42246 -66577
0;
#X obj 608 398 cnv 8 8 8 empty empty empty 20 12 0 14 -42246 -66577
0;
#X obj 608 408 cnv 8 8 8 empty empty empty 20 12 0 14 -42246 -66577
0;
#X obj 608 418 cnv 8 8 8 empty empty empty 20 12 0 14 -42246 -66577
0;
#X obj 565 26 tgl 50 0 dspON dspONr empty 0 -6 0 8 -233017 -84747 -1
1 1;
#X obj 282 27 cnv 15 93 180 empty empty PITCH_2 2 6 1 7 -195568 -90133
0;
#X obj 346 60 vsl 12 128 0 127 0 0 ps1PitchLvl2 ps1PitchLvl2r empty
3 -8 1 7 -31280 -262144 -262144 0 0;
#X obj 287 60 vsl 12 100 -24 24 0 0 ps1PitchFreq2 ps1PitchFreq2r F
3 -8 1 7 -248001 -262144 -262144 0 0;
#X obj 302 60 vsl 12 128 0 2000 0 0 ps1PitchWindow2 ps1PitchWindow2r
W 2 -8 1 7 -248001 -262144 -262144 12700 0;
#X obj 317 60 vsl 12 128 0 255 0 0 ps1PitchDelay2 ps1PitchDelay2r D
3 -8 1 7 -248001 -262144 -262144 0 0;
#X obj 287 179 bng 12 250 50 0 ps1NoteMin2 ps1NoteMin2r empty 0 -6
0 8 -248001 -1 -1;
#X obj 287 165 bng 12 250 50 0 ps1NotePlus2 ps1NotePlus2r empty 0 -6
0 8 -248001 -1 -1;
#X obj 332 60 vsl 12 128 0 127 0 0 ps1PitchDry2 ps1PitchDry2r empty
-3 -8 1 7 -105606 -262144 -262144 0 0;
#X obj 22 211 cnv 15 440 100 empty empty SLICER 2 6 1 7 -195568 -90133
0;
#X obj 92 286 hsl 330 17 0 1000 0 0 ps1Pos ps1Posr empty -30 5 1 7
-187338 -262144 -262144 18506 0;
#X obj 89 255 cnv 15 335 30 empty empty empty 20 12 0 14 -261681 -66577
0;
#N canvas 0 22 450 300 (subpatch) 0;
#X array arrSmp2 270336 float 0;
#X coords 0 1 270335 -1 335 30 1;
#X restore 89 256 graph;
#X obj 92 223 hsl 330 17 0 1000 0 0 ps1From ps1Fromr FROM -40 7 1 7
-215417 -262144 -262144 0 0;
#X obj 92 240 hsl 330 16 0 1000 0 0 ps1To ps1Tor TO -40 7 1 7 -215417
-262144 -262144 32900 0;
#X obj 428 223 vradio 10 1 0 8 ps1RangePresets ps1RangePresetsr empty
0 -6 0 8 -215417 -262144 -1 0;
#X obj 441 223 bng 15 250 50 0 ps1SaveRange ps1SaveRanger empty 0 -6
0 8 -258699 -1 -1;
#X obj 441 241 bng 15 250 50 0 ps1LoadRange ps1LoadRanger empty 0 -6
0 8 -24198 -1 -1;
#X obj 441 288 tgl 15 0 ps1RandomRange ps1RandomRanger R 3 -8 1 7 -164785
-262144 -262144 0 1;
#X obj 141 369 bng 10 250 50 0 ps1TSGetTempoF ps1TSGetTempoFr empty
0 -6 0 8 -260097 -1 -1;
#X obj 191 369 bng 10 250 50 0 ps1TSGetTempoT ps1TSGetTempoTr empty
0 -6 0 8 -260097 -1 -1;
#X obj 417 328 nbx 12 16 -1e+37 1e+37 0 0 ps1RealTempo ps1RealTempor
FULL_TEMPO 0 -7 1 7 -206401 -241291 -262144 0 256;
#X obj 492 333 hradio 11 1 0 11 ps1TempoDivider ps1TempoDividerr /
8 -6 1 7 -206401 -241291 -262144 0;
#X obj 466 211 cnv 15 152 100 empty empty LFOS 2 6 1 7 -195568 -90133
0;
#X obj 23 428 cnv 15 500 36 empty empty LET_OUT 2 6 1 7 -195568 -90133
0;
#X obj 83 433 tgl 12 0 ps1Step1On ps1Step1Onr empty 0 -6 0 8 -125574
-262144 -1 1 1;
#X obj 95 433 tgl 12 0 ps1Step2On ps1Step2Onr empty 0 -6 0 8 -167514
-1 -1 1 1;
#X obj 107 433 tgl 12 0 ps1Step3On ps1Step3Onr empty 0 -6 0 8 -167514
-1 -1 1 1;
#X obj 119 433 tgl 12 0 ps1Step4On ps1Step4Onr empty 0 -6 0 8 -167499
-1 -1 1 1;
#X obj 131 433 tgl 12 0 ps1Step5On ps1Step5Onr empty 0 -6 0 8 -125574
-262144 -1 1 1;
#X obj 143 433 tgl 12 0 ps1Step6On ps1Step6Onr empty 0 -6 0 8 -167499
-1 -1 1 1;
#X obj 155 433 tgl 12 0 ps1Step7On ps1Step7Onr empty 0 -6 0 8 -167499
-1 -1 1 1;
#X obj 511 229 hsl 100 12 0 5000 0 0 ps1FromLfoSpeed ps1FromLfoSpeedr
SPD -40 6 1 7 -181491 -195568 -262144 0 0;
#X obj 167 433 tgl 12 0 ps1Step8On ps1Step8Onr empty 15 6 1 7 -167499
-1 -262144 1 1;
#X obj 179 433 tgl 12 0 ps1Step9On ps1Step9Onr empty 0 -6 0 8 -125574
-262144 -1 1 1;
#X obj 191 433 tgl 12 0 ps1Step10On ps1Step10Onr empty 0 -6 0 8 -167514
-1 -1 1 1;
#X obj 203 433 tgl 12 0 ps1Step11On ps1Step11Onr empty 0 -6 0 8 -167514
-1 -1 1 1;
#X obj 215 433 tgl 12 0 ps1Step12On ps1Step12Onr empty 0 -6 0 8 -167499
-1 -1 1 1;
#X obj 227 433 tgl 12 0 ps1Step13On ps1Step13Onr empty 0 -6 0 8 -125574
-262144 -1 1 1;
#X obj 239 433 tgl 12 0 ps1Step14On ps1Step14Onr empty 0 -6 0 8 -167499
-1 -1 1 1;
#X obj 251 433 tgl 12 0 ps1Step15On ps1Step15Onr empty 0 -6 0 8 -167499
-1 -1 1 1;
#X obj 263 433 tgl 12 0 ps1Step16On ps1Step16Onr empty 15 6 1 7 -167499
-1 -262144 1 1;
#X obj 341 433 hradio 12 1 0 7 ps1LetOutPresets ps1LetOutPresetsr empty
0 -6 0 8 -125574 -262144 -1 0;
#X obj 511 243 hsl 100 12 0 1000 0 0 ps1FromLfoDepth ps1FromLfoDepthr
DPT -40 6 1 7 -181491 -195568 -262144 0 0;
#X obj 25 151 tgl 15 0 ps1StereoStutter ps1StereoStutterr ST 18 7 1
7 -63993 -262144 -262144 0 1;
#X obj 473 27 cnv 15 84 180 empty empty L-DELAY 2 6 1 7 -195568 -90133
0;
#X obj 477 60 vsl 16 120 0 127 0 0 ps1Dly2 ps1Dly2r LVL -3 -8 1 7 -30443
-262144 -262144 0 0;
#X obj 496 60 vsl 12 120 0 1800 0 0 ps1DelSpd2 ps1DelSpd2r S 3 -8 1
7 -63865 -262144 -262144 0 0;
#X obj 511 60 vsl 12 120 -100 100 0 0 ps1DelOffs2 ps1DelOffs2r O 3
-8 1 7 -63865 -262144 -262144 0 0;
#X obj 526 60 vsl 12 120 -100 100 0 0 ps1DelWidth2 ps1DelWidth2r W
2 -8 1 7 -63865 -262144 -262144 0 0;
#X obj 538 187 tgl 15 0 ps1DelMassive2 ps1DelMassive2r empty 0 -6 0
8 -68216 -262144 -1 0 1;
#X obj 541 60 vsl 12 120 0 10000 0 0 ps1DelSmooth2 ps1DelSMooth2r sm
-1 -8 1 7 -63865 -262144 -262144 0 0;
#X obj 508 215 tgl 12 0 ps1FromLfoOn ps1FromLfoOnr FROM 14 6 1 7 -131814
-262144 -262144 0 1;
#X obj 511 278 hsl 100 12 0 5000 0 0 ps1ToLfoSpeed ps1ToLfoSpeedr SPD
-40 6 1 7 -181491 -195568 -262144 0 0;
#X obj 511 292 hsl 100 12 0 1000 0 0 ps1ToLfoDepth ps1ToLfoDepthr DPT
-40 6 1 7 -181491 -195568 -262144 0 0;
#X obj 508 264 tgl 12 0 ps1ToLfoOn ps1ToLfoOnr TO 14 6 1 7 -131814
-262144 -262144 0 1;
#X obj 405 187 hsl 129 15 0 127 0 0 ps1Del1ToDel2 ps1Del1ToDel2r empty
-2 -8 0 10 -9502 -262144 -1 0 1;
#X obj 561 79 cnv 15 57 128 empty empty EXTERN 2 6 1 7 -175346 -90133
0;
#X obj 341 447 hradio 12 1 0 6 ps1LetOutPresets2 ps1LetOutPresets2r
empty 0 -6 0 8 -125574 -262144 -1 0;
#X obj 441 433 hradio 12 1 0 5 ps1LetOutPresets2 ps1LetOutPresets2r
empty 0 -6 0 8 -125574 -262144 -1 0;
#X obj 83 447 hradio 12 1 0 16 ps1StepTrack ps1StepTrackr empty 0 -6
0 8 -96329 -262144 -1 9;
#X obj 277 433 nbx 3 26 1 16 0 0 ps1MaxSteps ps1MaxStepsr empty 0 -6
0 14 -100942 -262144 -1 16 256;
#X obj 190 193 tgl 12 0 ps1Keyb1On ps1Keyb1Onr keyb 15 6 1 7 -194241
-262144 -262144 0 1;
#X obj 287 193 tgl 12 0 ps1Keyb2On ps1Keyb2Onr keyb 15 6 1 7 -194241
-262144 -262144 0 1;
#X obj 96 60 vsl 12 128 0 127 0 0 ps1ToDly2 ps1ToDly2r D 3 -8 1 7 -31280
-262144 -262144 0 0;
#X obj 360 60 vsl 12 128 0 127 0 0 ps1Pitch2Lvl2 ps1Pitch2Lvl2r empty
3 -8 1 7 -31280 -262144 -262144 0 0;
#X obj 263 60 vsl 12 128 0 127 0 0 ps1Pitch2Lvl ps1Pitch2Lvlr empty
3 -8 1 7 -31280 -262144 -262144 0 0;
#X obj 387 320 vradio 8 1 0 3 ps1Tempo2DelDiv ps1Tempo2DelDivr empty
0 -6 0 8 -2490 -262144 -1 0;
#X obj 395 320 vradio 8 1 0 3 ps1Tempo2DelMult ps1Tempo2DelMultr empty
0 -6 0 8 -2490 -262144 -1 0;
#X obj 403 332 tgl 12 0 linkTempoToDel2 linkTempoToDel2r empty 0 -6
0 8 -2490 -262144 -1 0 1;
#X obj 74 328 tgl 29 0 ps1RunSeekw ps1RunSeekwr empty 0 -6 0 8 -241291
-123526 -1 1 1;
#X obj 508 395 tgl 12 0 ps1FreezeSeekw ps1FreezeSeekwr empty 0 -6 0
8 -137284 -262144 -262144 0 1;
#X obj 23 468 cnv 15 500 22 empty empty CONVERT 2 6 1 7 -195568 -90133
0;
#X obj 215 472 bng 15 250 50 0 ps1BPMRound ps1BPMRoundr empty 0 -6
0 8 -250685 -262144 -1;
#X obj 108 472 bng 15 250 50 0 ps1MS2BPM ps1MS2BPMr empty 0 -6 0 8
-24198 -1 -1;
#X obj 125 469 nbx 10 18 1 1e+37 0 0 ps1BPM ps1BPMr empty 0 -6 1 10
-260097 -262144 -262144 1 256;
#X obj 232 472 bng 15 250 50 0 ps1BPM2MS ps1BPM2MSr empty 0 -6 0 8
-258699 -1 -1;
#N canvas 0 22 450 300 (subpatch) 0;
#X obj 59 155 inlet;
#X obj 3 89 inlet~;
#X obj 58 182 change;
#X msg 60 246 set \$1;
#X obj 60 227 tosymbol;
#X obj 59 204 sprintf Bus%d;
#X obj 3 282 throw~ Bus0;
#X obj 2 3 popup 124 25 #ffffff popup Bus0 Bus1 Bus2 Bus3 Bus4 Bus5
;
#X obj 1 32 route bang;
#X obj 154 202 *~;
#X obj 141 7 tgl 15 0 empty empty Dac 19 7 0 10 -262144 -1 -1 0 1;
#X obj 155 238 dac~;
#X obj 1 -60 loadbang;
#X text 59 -62 Bus0 mutes;
#X msg 1 -42 options Bus0 Bus1 Bus2 Bus3 Bus4 Bus5 Bus6 Bus7 Bus8 Bus9
Bus10 Bus11 Bus12 Bus13 Bus14 Bus15 Bus16;
#X connect 0 0 2 0;
#X connect 1 0 6 0;
#X connect 1 0 9 0;
#X connect 2 0 5 0;
#X connect 3 0 6 0;
#X connect 4 0 3 0;
#X connect 5 0 4 0;
#X connect 7 0 8 0;
#X connect 8 1 2 0;
#X connect 9 0 11 0;
#X connect 10 0 9 1;
#X connect 12 0 14 0;
#X connect 14 0 7 0;
#X coords 0 1 100 -1 180 30 1 0 0;
#X restore 229 514 graph;
#N canvas 0 22 450 300 (subpatch) 0;
#X obj 59 155 inlet;
#X obj 3 89 inlet~;
#X obj 58 182 change;
#X msg 60 246 set \$1;
#X obj 60 227 tosymbol;
#X obj 59 204 sprintf Bus%d;
#X obj 3 282 throw~ Bus0;
#X obj 2 3 popup 124 25 #ffffff popup Bus0 Bus1 Bus2 Bus3 Bus4 Bus5
;
#X obj 1 32 route bang;
#X obj 154 202 *~;
#X obj 141 7 tgl 15 0 empty empty Dac 19 7 0 10 -262144 -1 -1 0 1;
#X obj 155 238 dac~;
#X obj 3 -65 loadbang;
#X text 61 -67 Bus0 mutes;
#X msg 3 -47 options Bus0 Bus1 Bus2 Bus3 Bus4 Bus5 Bus6 Bus7 Bus8 Bus9
Bus10 Bus11 Bus12 Bus13 Bus14 Bus15 Bus16;
#X connect 0 0 2 0;
#X connect 1 0 6 0;
#X connect 1 0 9 0;
#X connect 2 0 5 0;
#X connect 3 0 6 0;
#X connect 4 0 3 0;
#X connect 5 0 4 0;
#X connect 7 0 8 0;
#X connect 8 1 2 0;
#X connect 9 0 11 1;
#X connect 10 0 9 1;
#X connect 12 0 14 0;
#X connect 14 0 7 0;
#X coords 0 1 100 -1 180 30 1 0 0;
#X restore 229 544 graph;
#X text 413 517 L;
#X text 413 547 R;
#X obj 44 543 declare -path z_laala_abs;
#X connect 0 0 164 0;
#X connect 0 1 165 0;
