#N canvas 166 161 616 260 10;
#X declare -path z_samplerx_abs;
#X obj 478 17 loadbang;
#X obj 381 172 bng 50 250 50 0 gui-play play empty 17 7 0 10 -262144
-1 -1;
#X obj 434 172 tgl 50 0 looping empty empty 17 7 0 10 -262144 -1 -1
1 1;
#X obj 434 34 del 1;
#X text 394 156 PLAY;
#X text 437 156 LOOPING;
#N canvas 462 300 124 148 metro-looping 0;
#X obj 9 54 t b f;
#X obj 9 75 spigot;
#X obj 9 96 metro 1000;
#X obj 46 54 t f f;
#X obj 46 14 r looping;
#X obj 9 117 s play;
#X obj 9 14 inlet;
#X obj 9 34 + 5;
#X connect 0 0 1 0;
#X connect 0 1 2 1;
#X connect 1 0 2 0;
#X connect 2 0 5 0;
#X connect 3 0 1 1;
#X connect 3 1 2 0;
#X connect 4 0 3 0;
#X connect 6 0 7 0;
#X connect 7 0 0 0;
#X restore 478 77 pd metro-looping;
#N canvas 624 243 400 418 mix 0;
#X obj 4 264 +~;
#X obj 49 264 +~;
#X obj 110 227 *~;
#X obj 198 227 *~;
#X obj 125 113 line~;
#X msg 125 93 \$1 250;
#X obj 125 73 / 100;
#X obj 198 53 expr 1/($f1/1000);
#X obj 198 93 phasor~;
#X msg 237 73 0;
#X obj 110 206 vd~ buf-left;
#X obj 198 206 vd~ buf-right;
#X obj 198 173 *~ 18965;
#X obj 198 153 expr~ ($v1*-1)+1;
#X obj 281 16 t f f;
#X obj 198 133 wrap~;
#X obj 198 113 +~;
#X obj 307 96 line~;
#X obj 125 53 r delay-vol;
#X obj 307 53 r delay-offset;
#X obj 4 5 catch~ groupe1-left;
#X obj 49 25 catch~ groupe1-right;
#X obj 4 -69 delwrite~ buf-left 15000;
#X obj 4 -23 delwrite~ buf-right 15000;
#X obj 4 -89 r~ sampler1-left;
#X obj 4 -43 r~ sampler1-right;
#X obj 281 -4 r sampler1-time;
#X obj 237 -4 r play;
#X obj 198 33 * 2;
#X msg 307 76 \$1 500;
#X obj 4 284 +~;
#X obj 49 284 +~;
#X msg 290 -48 \; pd dsp 1;
#X obj 290 -68 r main-loadbang;
#X obj 4 304 outlet~;
#X obj 50 318 outlet~;
#X connect 0 0 30 0;
#X connect 1 0 31 0;
#X connect 2 0 0 1;
#X connect 3 0 1 1;
#X connect 4 0 2 1;
#X connect 4 0 3 1;
#X connect 5 0 4 0;
#X connect 6 0 5 0;
#X connect 7 0 8 0;
#X connect 8 0 16 0;
#X connect 9 0 8 1;
#X connect 10 0 2 0;
#X connect 11 0 3 0;
#X connect 12 0 10 0;
#X connect 12 0 11 0;
#X connect 13 0 12 0;
#X connect 14 0 28 0;
#X connect 14 1 12 1;
#X connect 15 0 13 0;
#X connect 16 0 15 0;
#X connect 17 0 16 1;
#X connect 18 0 6 0;
#X connect 19 0 29 0;
#X connect 20 0 0 0;
#X connect 21 0 1 0;
#X connect 24 0 22 0;
#X connect 25 0 23 0;
#X connect 26 0 14 0;
#X connect 27 0 9 0;
#X connect 28 0 7 0;
#X connect 29 0 17 0;
#X connect 30 0 34 0;
#X connect 31 0 35 0;
#X connect 33 0 32 0;
#X restore 191 143 pd mix;
#X msg 434 54 1;
#X obj 499 217 hsl 101 25 0 1 0 1 delay-offset empty empty -2 -8 0
10 -262144 -1 -1 5000 1;
#X text 495 201 delay(offset);
#X obj 496 173 nbx 3 25 0 100 0 1 delay-vol empty empty 0 -8 0 10 -262144
-1 -1 50 256;
#X floatatom 478 117 9 0 0 0 - - -;
#X obj 381 225 s sampler1-play;
#X obj 478 97 r sampler1-pos;
#N canvas 617 22 407 330 samplers 1;
#X obj -39 3 Samplerx sampler1 groupe1 beat.wav 1;
#X restore 176 99 pd samplers;
#X text 18 15 NOTE : Le sampler prend 4 arguments \,;
#X text 17 39 le nom du fichier (son répertoire);
#X text 17 27 le nom du sampler \, son groupe \,;
#X obj 478 57 r sampler1-time;
#X text 17 73 de sampler que vous en voulez.;
#X text 140 97 > > >;
#X text 156 143 > > >;
#X text 246 98 < < <;
#X text 232 142 < < <;
#X text 494 157 delay(vol);
#X text 150 121 > > >;
#X text 238 120 < < <;
#N canvas 676 22 250 159 memox 0;
#X obj 105 25 MemoControl;
#X obj 105 -17 hradio 15 1 0 8 empty empty empty 0 -8 0 10 -262144
-1 -1 0;
#X text 61 4 load...;
#X text 60 -20 save...;
#X obj 105 3 hradio 15 1 0 8 empty empty empty 0 -8 0 10 -262144 -1
-1 0;
#X text 121 -41 MEMOX - PRESETS;
#X msg 3 -14 0;
#X obj 3 -56 r main-loadbang;
#X connect 1 0 0 0;
#X connect 4 0 0 1;
#X connect 6 0 4 0;
#X connect 7 0 6 0;
#X restore 185 121 pd memox;
#X obj 478 37 s main-loadbang;
#X text 17 51 et la normalisation automatique (0/1).;
#X text 18 61 Vous pouvez donc créer autant;
#X text 24 119 flxet.web@gmail.com;
#X text 41 100 FLXlib (2009);
#X text 24 132 www.artflx.com;
#X text 24 142 www.artflx.net.tf;
#X obj 246 16 declare -path z_samplerx_abs;
#N canvas 0 22 450 300 (subpatch) 0;
#X obj 59 155 inlet;
#X obj 3 89 inlet~;
#X obj 58 182 change;
#X msg 60 246 set \$1;
#X obj 60 227 tosymbol;
#X obj 59 204 sprintf Bus%d;
#X obj 3 282 throw~ Bus0;
#X obj 2 3 popup 124 25 #ffffff popup Bus0 Bus1 Bus2 Bus3 Bus4 Bus5
Bus6 Bus7 Bus8 Bus9 Bus10 Bus11 Bus12 Bus13 Bus14 Bus15 Bus16;
#X obj 1 32 route bang;
#X obj 154 202 *~;
#X obj 141 7 tgl 15 0 empty empty Dac 19 7 0 10 -262144 -1 -1 1 1;
#X obj 155 238 dac~;
#X obj 1 -41 loadbang;
#X text 59 -43 Bus0 mutes;
#X msg 1 -23 options Bus0 Bus1 Bus2 Bus3 Bus4 Bus5 Bus6 Bus7 Bus8 Bus9
Bus10 Bus11 Bus12 Bus13 Bus14 Bus15 Bus16;
#X connect 0 0 2 0;
#X connect 1 0 6 0;
#X connect 1 0 9 0;
#X connect 2 0 5 0;
#X connect 3 0 6 0;
#X connect 4 0 3 0;
#X connect 5 0 4 0;
#X connect 7 0 8 0;
#X connect 8 1 2 0;
#X connect 9 0 11 0;
#X connect 10 0 9 1;
#X connect 12 0 14 0;
#X connect 14 0 7 0;
#X coords 0 1 100 -1 180 30 1 0 0;
#X restore 152 167 graph;
#N canvas 0 22 450 300 (subpatch) 0;
#X obj 59 155 inlet;
#X obj 3 89 inlet~;
#X obj 58 182 change;
#X msg 60 246 set \$1;
#X obj 60 227 tosymbol;
#X obj 59 204 sprintf Bus%d;
#X obj 3 282 throw~ Bus0;
#X obj 2 3 popup 124 25 #ffffff popup Bus0 Bus1 Bus2 Bus3 Bus4 Bus5
Bus6 Bus7 Bus8 Bus9 Bus10 Bus11 Bus12 Bus13 Bus14 Bus15 Bus16;
#X obj 1 32 route bang;
#X obj 154 202 *~;
#X obj 141 7 tgl 15 0 empty empty Dac 19 7 0 10 -262144 -1 -1 1 1;
#X obj 155 238 dac~;
#X obj 1 -41 loadbang;
#X text 59 -43 Bus0 mutes;
#X msg 1 -23 options Bus0 Bus1 Bus2 Bus3 Bus4 Bus5 Bus6 Bus7 Bus8 Bus9
Bus10 Bus11 Bus12 Bus13 Bus14 Bus15 Bus16;
#X connect 0 0 2 0;
#X connect 1 0 6 0;
#X connect 1 0 9 0;
#X connect 2 0 5 0;
#X connect 3 0 6 0;
#X connect 4 0 3 0;
#X connect 5 0 4 0;
#X connect 7 0 8 0;
#X connect 8 1 2 0;
#X connect 9 0 11 1;
#X connect 10 0 9 1;
#X connect 12 0 14 0;
#X connect 14 0 7 0;
#X coords 0 1 100 -1 180 30 1 0 0;
#X restore 152 200 graph;
#X text 138 172 L;
#X text 137 205 R;
#X connect 0 0 3 0;
#X connect 0 0 29 0;
#X connect 1 0 13 0;
#X connect 3 0 8 0;
#X connect 7 0 37 0;
#X connect 7 1 38 0;
#X connect 8 0 2 0;
#X connect 14 0 12 0;
#X connect 19 0 6 0;
