#N canvas 13 170 772 424 10;
#X declare -path z_Lab1_abs;
#X obj 214 242 hsl 128 15 0 1 0 0 empty empty empty -2 -6 0 8 -262144
-1 -1 4500 1;
#X floatatom 211 264 5 0 0 0 - - -;
#X obj 196 281 *~;
#X text 211 224 Volume;
#X msg 246 118 symbol lowD;
#X msg 197 61 symbol trill;
#X msg 212 80 symbol gliss;
#X msg 227 99 symbol harm;
#X obj 197 183 play-sample;
#X obj 197 135 t b s;
#X floatatom 308 167 5 0 0 0 - - -;
#X msg 342 139 1;
#X msg 308 139 0.5;
#X msg 489 140 1.5;
#X msg 442 140 1.333;
#X msg 375 140 1.2;
#X msg 405 140 1.25;
#X text -30 112 Click one to play the sample;
#X obj 197 20 keyname-down;
#X obj 308 56 route symbol;
#X obj 308 74 sel z x c v b n;
#X text -31 97 The names of the sample tables ->;
#X text 519 138 <--Some just intervals;
#X text 411 77 <--These keys change pitch;
#X text 212 206 2) Adjust the volume;
#X obj 197 39 sel i o u p;
#N canvas 0 22 450 300 (subpatch) 0;
#X obj 59 155 inlet;
#X obj 3 89 inlet~;
#X obj 58 182 change;
#X msg 60 246 set \$1;
#X obj 60 227 tosymbol;
#X obj 59 204 sprintf Bus%d;
#X obj 3 282 throw~ Bus0;
#X obj 2 3 popup 124 25 #ffffff popup Bus0 Bus1 Bus2 Bus3 Bus4 Bus5
Bus6 Bus7 Bus8 Bus9 Bus10 Bus11 Bus12 Bus13 Bus14 Bus15 Bus16;
#X obj 1 32 route bang;
#X obj 154 202 *~;
#X obj 141 7 tgl 15 0 empty empty Dac 19 7 0 10 -262144 -1 -1 1 1;
#X obj 155 238 dac~;
#X obj 1 -56 loadbang;
#X text 59 -58 Bus0 mutes;
#X msg 1 -38 options Bus0 Bus1 Bus2 Bus3 Bus4 Bus5 Bus6 Bus7 Bus8 Bus9
Bus10 Bus11 Bus12 Bus13 Bus14 Bus15 Bus16;
#X connect 0 0 2 0;
#X connect 1 0 6 0;
#X connect 1 0 9 0;
#X connect 2 0 5 0;
#X connect 3 0 6 0;
#X connect 4 0 3 0;
#X connect 5 0 4 0;
#X connect 7 0 8 0;
#X connect 8 1 2 0;
#X connect 9 0 11 0;
#X connect 9 0 11 1;
#X connect 10 0 9 1;
#X connect 12 0 14 0;
#X connect 14 0 7 0;
#X coords 0 1 100 -1 180 30 1 0 0;
#X restore 195 298 graph;
#N canvas 0 22 488 322 loadsamples 0;
#X msg 74 87 symbol oud-samples/trill3.wav;
#X msg 74 134 symbol oud-samples/short-glissdown.1.wav;
#X msg 74 223 symbol oud-samples/lowD1.wav;
#X msg 74 179 symbol oud-samples/harm-allstrings.1.wav;
#X obj 74 200 store-sample harm;
#X obj 74 108 store-sample trill;
#X obj 74 155 store-sample gliss;
#X obj 74 244 store-sample lowD;
#X text 126 51 Loading sound files into memory;
#X text 52 162 comment;
#X obj 52 46 loadbang;
#X connect 0 0 5 0;
#X connect 1 0 6 0;
#X connect 2 0 7 0;
#X connect 3 0 4 0;
#X connect 10 0 0 0;
#X connect 10 0 1 0;
#X connect 10 0 3 0;
#X connect 10 0 2 0;
#X restore 365 20 pd loadsamples;
#X obj 493 54 declare -path z_Lab1_abs;
#X connect 0 0 1 0;
#X connect 1 0 2 1;
#X connect 2 0 26 0;
#X connect 4 0 9 0;
#X connect 5 0 9 0;
#X connect 6 0 9 0;
#X connect 7 0 9 0;
#X connect 8 0 2 0;
#X connect 9 0 8 0;
#X connect 9 1 8 1;
#X connect 10 0 8 2;
#X connect 11 0 10 0;
#X connect 12 0 10 0;
#X connect 13 0 10 0;
#X connect 14 0 10 0;
#X connect 15 0 10 0;
#X connect 16 0 10 0;
#X connect 18 0 25 0;
#X connect 19 0 20 0;
#X connect 20 0 12 0;
#X connect 20 1 11 0;
#X connect 20 2 15 0;
#X connect 20 3 16 0;
#X connect 20 4 14 0;
#X connect 20 5 13 0;
#X connect 25 0 5 0;
#X connect 25 1 6 0;
#X connect 25 2 7 0;
#X connect 25 3 4 0;
#X connect 25 4 19 0;
