#N canvas 0 22 422 340 10;
#N canvas 0 22 450 300 (subpatch) 0;
#X obj 10 7 bng 15 250 50 0 empty empty empty 17 7 0 10 -262144 -1
-1;
#X obj -225 127 soundfiler;
#X obj -225 86 openpanel;
#X msg -225 106 read -resize \$1 array1;
#N canvas 0 22 450 300 (subpatch) 0;
#X array array1 176400 float 2;
#X coords 0 1 176400 -1 200 140 1;
#X restore 11 37 graph;
#X obj -355 18 loadbang;
#X obj -355 38 samplerate~;
#X obj -400 332 phasor~;
#X obj 12 181 hsl 200 15 0 1 0 0 empty empty loopstart 2 8 0 10 -262144
-1 -1 0 1;
#X obj 12 201 hsl 200 15 0 1 0 0 empty empty loopend 2 8 0 10 -262144
-1 -1 0 1;
#X obj -180 238 *;
#X obj -215 254 *;
#X obj -215 291 -;
#X obj -183 268 t b f;
#X obj -400 84 pack f f;
#X msg -400 109 \$2 \$1;
#X obj -400 133 /;
#X obj -401 370 *~;
#X obj -401 407 +~;
#X obj -401 438 tabread4~ array1;
#X obj -356 507 line~;
#X msg -356 483 \$1 10;
#X floatatom -356 461 5 0 0 0 - - -;
#X obj -401 539 *~;
#X obj -400 297 *;
#X obj 11 222 hsl 100 15 -2 2 0 0 empty empty speed 2 8 0 10 -262144
-1 -1 0 1;
#X obj -383 267 t b f;
#X floatatom 117 222 5 0 0 0 - - -;
#X msg -303 198 1;
#X msg -305 176 0;
#X text -167 295 loop lenght in samples;
#X text -420 148 frequency = sample rate / loop length;
#X text -372 371 scale phasor to loop length;
#X text -372 404 offset by loopstart;
#X text 95 467 .mmb;
#X text 28 7 Load file;
#X obj -395 568 outlet~;
#X connect 0 0 2 0;
#X connect 1 0 10 1;
#X connect 1 0 11 1;
#X connect 2 0 3 0;
#X connect 3 0 1 0;
#X connect 5 0 6 0;
#X connect 6 0 14 1;
#X connect 7 0 17 0;
#X connect 8 0 10 0;
#X connect 9 0 11 0;
#X connect 10 0 13 0;
#X connect 11 0 12 0;
#X connect 12 0 14 0;
#X connect 12 0 17 1;
#X connect 13 0 12 0;
#X connect 13 1 12 1;
#X connect 13 1 18 1;
#X connect 14 0 15 0;
#X connect 15 0 16 0;
#X connect 16 0 24 0;
#X connect 17 0 18 0;
#X connect 18 0 19 0;
#X connect 19 0 23 0;
#X connect 20 0 23 1;
#X connect 21 0 20 0;
#X connect 22 0 21 0;
#X connect 23 0 36 0;
#X connect 24 0 7 0;
#X connect 25 0 26 0;
#X connect 25 0 27 0;
#X connect 26 0 24 0;
#X connect 26 1 24 1;
#X connect 28 0 25 0;
#X connect 29 0 25 0;
#X coords 0 1 100 -1 230 250 1 0 0;
#X restore 100 20 graph;
#N canvas 0 22 450 300 (subpatch) 0;
#X obj 59 155 inlet;
#X obj 3 89 inlet~;
#X obj 58 182 change;
#X msg 60 246 set \$1;
#X obj 60 227 tosymbol;
#X obj 59 204 sprintf Bus%d;
#X obj 3 282 throw~ Bus0;
#X obj 2 3 popup 124 25 #ffffff popup Bus0 Bus1 Bus2 Bus3 Bus4 Bus5
;
#X obj 1 32 route bang;
#X obj 154 202 *~;
#X obj 141 7 tgl 15 0 empty empty Dac 19 7 0 10 -262144 -1 -1 0 1;
#X obj 155 238 dac~;
#X obj -7 -54 loadbang;
#X text 51 -56 Bus0 mutes;
#X msg -7 -36 options Bus0 Bus1 Bus2 Bus3 Bus4 Bus5 Bus6 Bus7 Bus8
Bus9 Bus10 Bus11 Bus12 Bus13 Bus14 Bus15 Bus16;
#X connect 0 0 2 0;
#X connect 1 0 6 0;
#X connect 1 0 9 0;
#X connect 2 0 5 0;
#X connect 3 0 6 0;
#X connect 4 0 3 0;
#X connect 5 0 4 0;
#X connect 7 0 8 0;
#X connect 8 1 2 0;
#X connect 9 0 11 0;
#X connect 9 0 11 1;
#X connect 10 0 9 1;
#X connect 12 0 14 0;
#X connect 14 0 7 0;
#X coords 0 1 100 -1 180 30 1 0 0;
#X restore 100 270 graph;
#X connect 0 0 1 0;
