#N canvas 171 57 661 545 10;
#X declare -path z_dtsample_abs;
#X obj 170 25 adc~;
#X obj 367 381 bng 15 250 50 0 empty empty empty 17 7 0 10 -262144
-1 -1;
#X floatatom 268 40 5 0 7 0 - - -;
#X obj 367 41 bng 15 250 50 0 empty empty empty 17 7 0 10 -262144 -1
-1;
#X text 385 39 play;
#X text 268 3 select preset;
#X text 171 421 Ben Baker-Smith and Derek Tuttle - 2010;
#X obj 268 24 hradio 15 1 0 8 empty empty empty 0 -8 0 10 -262144 -1
-1 0;
#X text 430 420 version 0.5;
#N canvas 0 22 450 300 (subpatch) 0;
#X obj 59 155 inlet;
#X obj 3 89 inlet~;
#X obj 58 182 change;
#X msg 60 246 set \$1;
#X obj 60 227 tosymbol;
#X obj 59 204 sprintf Bus%d;
#X obj 3 282 throw~ Bus0;
#X obj 2 3 popup 124 25 #ffffff popup Bus0 Bus1 Bus2 Bus3 Bus4 Bus5
;
#X obj 1 32 route bang;
#X obj 154 202 *~;
#X obj 141 7 tgl 15 0 empty empty Dac 19 7 0 10 -262144 -1 -1 0 1;
#X obj 155 238 dac~;
#X obj -7 -61 loadbang;
#X text 51 -63 Bus0 mutes;
#X msg -7 -43 options Bus0 Bus1 Bus2 Bus3 Bus4 Bus5 Bus6 Bus7 Bus8
Bus9 Bus10 Bus11 Bus12 Bus13 Bus14 Bus15 Bus16;
#X connect 0 0 2 0;
#X connect 1 0 6 0;
#X connect 1 0 9 0;
#X connect 2 0 5 0;
#X connect 3 0 6 0;
#X connect 4 0 3 0;
#X connect 5 0 4 0;
#X connect 7 0 8 0;
#X connect 8 1 2 0;
#X connect 9 0 11 0;
#X connect 9 0 11 1;
#X connect 10 0 9 1;
#X connect 12 0 14 0;
#X connect 14 0 7 0;
#X coords 0 1 100 -1 180 30 1 0 0;
#X restore 169 381 graph;
#X obj 169 56 z_dt_sampler;
#X obj 410 388 declare -path z_dtsample_abs;
#X connect 0 0 10 0;
#X connect 2 0 10 1;
#X connect 3 0 10 2;
#X connect 7 0 2 0;
#X connect 10 0 9 0;
#X connect 10 1 1 0;
