#N canvas 168 22 412 300 10;
#X declare -path z_kaibiscuit_abs;
#N canvas 0 22 908 606 (subpatch) 0;
#X obj -178 207 expr~ $v1/255*2-1;
#N canvas 0 22 935 740 bits 0;
#X obj 55 9 vradio 15 1 0 3 empty empty empty 0 -8 0 10 -262144 -1
-1 2;
#X obj 55 58 - 1;
#X obj 656 193 expr $f1 == -1;
#X obj 81 9 vradio 15 1 0 3 empty empty empty 0 -8 0 10 -262144 -1
-1 2;
#X obj 81 58 - 1;
#X obj 656 223 expr $f1 == -1;
#X obj 106 9 vradio 15 1 0 3 empty empty empty 0 -8 0 10 -262144 -1
-1 2;
#X obj 106 58 - 1;
#X obj 656 255 expr $f1 == -1;
#X obj 131 9 vradio 15 1 0 3 empty empty empty 0 -8 0 10 -262144 -1
-1 2;
#X obj 131 58 - 1;
#X obj 656 289 expr $f1 == -1;
#X obj 156 9 vradio 15 1 0 3 empty empty empty 0 -8 0 10 -262144 -1
-1 2;
#X obj 156 58 - 1;
#X obj 757 193 expr $f1 == -1;
#X obj 182 9 vradio 15 1 0 3 empty empty empty 0 -8 0 10 -262144 -1
-1 2;
#X obj 182 58 - 1;
#X obj 757 223 expr $f1 == -1;
#X obj 207 9 vradio 15 1 0 3 empty empty empty 0 -8 0 10 -262144 -1
-1 2;
#X obj 207 58 - 1;
#X obj 757 255 expr $f1 == -1;
#X obj 232 9 vradio 15 1 0 3 empty empty empty 0 -8 0 10 -262144 -1
-1 2;
#X obj 232 58 - 1;
#X obj 757 289 expr $f1 == -1;
#X obj 185 189 expr~ if ($v1 == 0 \, ($v2 * $f3) + ($f4 * 255) \, 0)
;
#X obj 185 259 expr~ if ($v1 == 1 \, ($v2 * $f3) + ($f4 * 255) \, 0)
;
#X obj 184 336 expr~ if ($v1 == 2 \, ($v2 * $f3) + ($f4 * 255) \, 0)
;
#X obj 184 410 expr~ if ($v1 == 3 \, ($v2 * $f3) + ($f4 * 255) \, 0)
;
#X obj 184 480 expr~ if ($v1 == 4 \, ($v2 * $f3) + ($f4 * 255) \, 0)
;
#X obj 184 553 expr~ if ($v1 == 5 \, ($v2 * $f3) + ($f4 * 255) \, 0)
;
#X obj 185 625 expr~ if ($v1 == 6 \, ($v2 * $f3) + ($f4 * 255) \, 0)
;
#X obj 186 706 expr~ if ($v1 == 7 \, ($v2 * $f3) + ($f4 * 255) \, 0)
;
#X msg 112 -52 2;
#X msg 165 -52 1;
#X obj 112 -92 loadbang;
#X obj 62 -52 s treat;
#X text 165 -68 mute all;
#X text 116 -68 normal;
#X text 20 21 mute;
#X text 9 8 invert;
#X text 11 36 normal;
#X obj 353 -63 inlet~;
#X obj 831 568 outlet~;
#X obj 353 -24 s~ signal;
#X obj 435 -21 s~ signal2;
#X obj 185 167 r~ signal;
#X obj 282 167 r~ signal2;
#X obj 185 237 r~ signal;
#X obj 282 238 r~ signal2;
#X obj 184 315 r~ signal;
#X obj 281 315 r~ signal2;
#X obj 184 389 r~ signal;
#X obj 281 389 r~ signal2;
#X obj 184 460 r~ signal;
#X obj 281 459 r~ signal2;
#X obj 184 533 r~ signal;
#X obj 281 532 r~ signal2;
#X obj 185 604 r~ signal;
#X obj 282 605 r~ signal2;
#X obj 186 686 r~ signal;
#X obj 283 685 r~ signal2;
#X obj 185 213 throw~ bs;
#X obj 831 544 catch~ bs;
#X obj 184 281 throw~ bs;
#X obj 184 360 throw~ bs;
#X obj 184 434 throw~ bs;
#X obj 184 505 throw~ bs;
#X obj 184 577 throw~ bs;
#X obj 185 651 throw~ bs;
#X obj 186 735 throw~ bs;
#X obj 435 -61 inlet~;
#X connect 0 0 1 0;
#X connect 1 0 2 0;
#X connect 1 0 24 2;
#X connect 2 0 24 3;
#X connect 3 0 4 0;
#X connect 4 0 5 0;
#X connect 4 0 25 2;
#X connect 5 0 25 3;
#X connect 6 0 7 0;
#X connect 7 0 8 0;
#X connect 7 0 26 2;
#X connect 8 0 26 3;
#X connect 9 0 10 0;
#X connect 10 0 11 0;
#X connect 10 0 27 2;
#X connect 11 0 27 3;
#X connect 12 0 13 0;
#X connect 13 0 14 0;
#X connect 13 0 28 2;
#X connect 14 0 28 3;
#X connect 15 0 16 0;
#X connect 16 0 17 0;
#X connect 16 0 29 2;
#X connect 17 0 29 3;
#X connect 18 0 19 0;
#X connect 19 0 20 0;
#X connect 19 0 30 2;
#X connect 20 0 30 3;
#X connect 21 0 22 0;
#X connect 22 0 23 0;
#X connect 22 0 31 2;
#X connect 23 0 31 3;
#X connect 24 0 61 0;
#X connect 25 0 63 0;
#X connect 26 0 64 0;
#X connect 27 0 65 0;
#X connect 28 0 66 0;
#X connect 29 0 67 0;
#X connect 30 0 68 0;
#X connect 31 0 69 0;
#X connect 32 0 0 0;
#X connect 32 0 3 0;
#X connect 32 0 6 0;
#X connect 32 0 9 0;
#X connect 32 0 12 0;
#X connect 32 0 15 0;
#X connect 32 0 18 0;
#X connect 32 0 21 0;
#X connect 33 0 0 0;
#X connect 33 0 3 0;
#X connect 33 0 6 0;
#X connect 33 0 9 0;
#X connect 33 0 12 0;
#X connect 33 0 15 0;
#X connect 33 0 18 0;
#X connect 33 0 21 0;
#X connect 34 0 32 0;
#X connect 34 0 35 0;
#X connect 41 0 43 0;
#X connect 45 0 24 0;
#X connect 46 0 24 1;
#X connect 47 0 25 0;
#X connect 48 0 25 1;
#X connect 49 0 26 0;
#X connect 50 0 26 1;
#X connect 51 0 27 0;
#X connect 52 0 27 1;
#X connect 53 0 28 0;
#X connect 54 0 28 1;
#X connect 55 0 29 0;
#X connect 56 0 29 1;
#X connect 57 0 30 0;
#X connect 58 0 30 1;
#X connect 59 0 31 0;
#X connect 60 0 31 1;
#X connect 62 0 42 0;
#X connect 70 0 44 0;
#X coords 0 -1 1 1 300 60 2 0 0;
#X restore 2 172 pd bits;
#N canvas 0 22 450 300 quantize 0;
#X obj 2 47 expr~ $v1 * 0.5 + 0.5;
#X obj 2 97 expr~ int($v1 * 8);
#X obj 123 97 expr~ int($v1*255);
#X text 143 47 -1 to 1 audio in;
#X obj 2 9 inlet~;
#X obj 1 205 outlet~;
#X obj 128 204 outlet~;
#X connect 0 0 1 0;
#X connect 0 0 2 0;
#X connect 1 0 5 0;
#X connect 2 0 6 0;
#X connect 4 0 0 0;
#X restore -107 136 pd quantize;
#X obj 1 407 *~ 0.5;
#X obj 152 36 vsl 15 80 0 1 0 0 empty empty Main-Vol -8 -9 0 10 -99865
-257985 -1 0 1;
#N canvas 308 271 716 497 samplecrush 0;
#X obj 25 292 samphold~;
#X obj 76 268 phasor~;
#X floatatom 76 247 12 0 0 0 - - -;
#X obj 79 223 hsl 230 20 250 30000 0 0 empty empty empty -2 -8 0 10
-262144 -1 -1 14433 0;
#X obj 76 181 r treat;
#X msg 76 203 19000.3;
#X text 325 217 sample-rate \, 250 to 30k as per biscuit specs. could
be expanded for fun;
#X obj 103 113 knob 32 32 250 30000 0 0 empty empty samplerate 0 -8
32 10 -262144 -1 -1 0 1;
#X obj 24 146 inlet~;
#X obj 24 381 outlet~;
#X connect 0 0 9 0;
#X connect 1 0 0 1;
#X connect 2 0 1 0;
#X connect 3 0 2 0;
#X connect 4 0 5 0;
#X connect 5 0 3 0;
#X connect 7 0 2 0;
#X connect 8 0 0 0;
#X coords 0 -1 1 1 75 50 2 100 100;
#X restore 122 122 pd samplecrush;
#X text -125 90 load sample --->;
#X text 343 184 <-- 8bits;
#X text -165 55 sample retrigger ----------->;
#X text -125 34 sample volume --->;
#X text 340 127 <--- mangle beats manually;
#X text 116 369 <-- main volume;
#X text -117 356 samplerate crush -->;
#X text 319 50 <--- beat mangle presets;
#X obj 1 62 z-sj_sampler;
#X obj 197 7 z-sj_beatmangle;
#X obj 1 458 outlet~;
#X connect 0 0 5 0;
#X connect 1 0 0 0;
#X connect 2 0 1 0;
#X connect 2 1 1 1;
#X connect 3 0 16 0;
#X connect 4 0 3 1;
#X connect 5 0 3 0;
#X connect 14 0 2 0;
#X connect 15 0 14 0;
#X coords 0 1 100 -1 305 235 1 0 0;
#X restore 20 -158 graph;
#N canvas 0 22 450 300 (subpatch) 0;
#X obj 59 155 inlet;
#X obj 3 89 inlet~;
#X obj 58 182 change;
#X msg 60 246 set \$1;
#X obj 60 227 tosymbol;
#X obj 59 204 sprintf Bus%d;
#X obj 3 282 throw~ Bus0;
#X obj 2 3 popup 124 25 #ffffff popup Bus0 Bus1 Bus2 Bus3 Bus4 Bus5
;
#X obj 1 32 route bang;
#X obj 154 202 *~;
#X obj 141 7 tgl 15 0 empty empty Dac 19 7 0 10 -262144 -1 -1 0 1;
#X obj 155 238 dac~;
#X obj 1 -41 loadbang;
#X text 59 -43 Bus0 mutes;
#X msg 1 -23 options Bus0 Bus1 Bus2 Bus3 Bus4 Bus5 Bus6 Bus7 Bus8 Bus9
Bus10 Bus11 Bus12 Bus13 Bus14 Bus15 Bus16;
#X connect 0 0 2 0;
#X connect 1 0 6 0;
#X connect 1 0 9 0;
#X connect 2 0 5 0;
#X connect 3 0 6 0;
#X connect 4 0 3 0;
#X connect 5 0 4 0;
#X connect 7 0 8 0;
#X connect 8 1 2 0;
#X connect 9 0 11 0;
#X connect 9 0 11 1;
#X connect 10 0 9 1;
#X connect 12 0 14 0;
#X connect 14 0 7 0;
#X coords 0 1 100 -1 180 30 1 0 0;
#X restore 20 77 graph;
#X obj 205 84 declare -path z_kaibiscuit_abs;
#X connect 0 0 1 0;
