#N canvas 159 22 437 459 10;
#X floatatom -65 -64 5 0 0 0 - - -;
#X floatatom -26 -64 5 0 0 0 - - -;
#X floatatom 12 -64 5 0 0 0 - - -;
#X obj -65 -179 ctlin 5;
#X obj -26 -159 ctlin 6;
#X obj 12 -140 ctlin 7;
#X obj -26 -48 / 1;
#X obj -65 -48 / 1;
#X obj -155 -209 r noteGran;
#X obj -123 -189 r velGran;
#N canvas 0 22 1024 720 (subpatch) 0;
#X obj -68 257 s chunk-size;
#X obj 37 234 r chunk-size;
#X obj 37 259 t b f;
#X obj 65 342 +~ 0.5;
#X obj 66 362 wrap~;
#X obj 0 464 +~;
#X obj -68 234 * 0.001;
#X obj 150 258 t b f;
#X obj 25 291 expr (pow(2 \, $f1/120)-$f3)/$f2;
#X obj -226 268 openpanel;
#X obj -226 312 soundfiler;
#X obj 6 50 bng 15 250 50 0 empty empty empty 0 -6 0 8 -262144 -1 -1
;
#N canvas 0 22 450 300 (subpatch) 0;
#X array source-array 93632 float 2;
#X coords 0 1 93632 -1 100 100 1;
#X restore 96 24 graph;
#X msg -226 289 read -resize \$1 source-array;
#X obj -226 334 s filesize;
#X obj 1 485 hip~ 1;
#X obj -424 375 s~ position;
#X obj 25 317 phasor~;
#X obj 8 72 hsl 64 12 0 100 0 1 empty empty chunk-size 6 6 1 8 -262144
-1 -1 1667 1;
#X floatatom -60 214 5 0 0 0 - - -;
#X obj -425 328 *~;
#X obj -425 282 vline~;
#X msg -425 263 0 \, 1 \$1 0;
#X obj -409 304 r filesize;
#X obj -425 197 f;
#X msg -425 129 bang;
#X obj -409 174 * 0.0226757;
#X obj -409 151 r filesize;
#N canvas 767 488 209 273 samplegrain 0;
#X obj 0 232 *~;
#X obj 52 159 +~;
#X obj 52 69 *~;
#X obj 0 161 -~ 0.5;
#X obj 0 181 *~ 0.5;
#X obj 0 201 cos~;
#X obj 51 90 *~ 44100;
#X obj 68 22 r chunk-size;
#X obj 0 254 outlet~;
#X obj 52 180 tabread4~ source-array;
#X obj 0 0 inlet~ phase;
#X obj 68 137 inlet~ position;
#X obj 68 46 sig~;
#X connect 0 0 8 0;
#X connect 1 0 9 0;
#X connect 2 0 6 0;
#X connect 3 0 4 0;
#X connect 4 0 5 0;
#X connect 5 0 0 0;
#X connect 6 0 1 0;
#X connect 7 0 12 0;
#X connect 9 0 0 1;
#X connect 10 0 3 0;
#X connect 10 0 2 0;
#X connect 11 0 1 1;
#X connect 12 0 2 1;
#X restore 66 431 pd samplegrain;
#X obj 158 401 r~ position;
#X obj -425 239 /;
#X obj -425 351 *~ 1;
#X obj -409 218 r speed;
#X obj 158 233 s speed;
#X obj 8 110 hsl 64 12 0 2 0 1 empty empty speed 6 6 1 8 -262144 -1
-1 0 1;
#X obj 8 91 hsl 64 12 -50 50 0 1 empty empty pitch 6 6 1 8 -262144
-1 -1 3150 1;
#X floatatom 162 213 5 0 0 0 - - -;
#X floatatom 32 216 5 0 0 0 - - -;
#N canvas 767 488 283 300 samplegrain 0;
#X obj 13 245 *~;
#X obj 65 172 +~;
#X obj 65 82 *~;
#X obj 13 174 -~ 0.5;
#X obj 13 194 *~ 0.5;
#X obj 13 214 cos~;
#X obj 64 103 *~ 44100;
#X obj 81 35 r chunk-size;
#X obj 13 267 outlet~;
#X obj 65 193 tabread4~ source-array;
#X obj 13 13 inlet~ phase;
#X obj 81 150 inlet~ position;
#X obj 81 59 sig~;
#X connect 0 0 8 0;
#X connect 1 0 9 0;
#X connect 2 0 6 0;
#X connect 3 0 4 0;
#X connect 4 0 5 0;
#X connect 5 0 0 0;
#X connect 6 0 1 0;
#X connect 7 0 12 0;
#X connect 9 0 0 1;
#X connect 10 0 3 0;
#X connect 10 0 2 0;
#X connect 11 0 1 1;
#X connect 12 0 2 1;
#X restore -44 431 pd samplegrain;
#X obj 48 401 r~ position;
#X obj -340 52 stripnote;
#X obj 5 27 bng 15 250 50 0 empty empty empty 17 7 0 10 -262144 -1
-1;
#X obj 1 507 *~ 0.9;
#X obj 62 557 *~;
#X obj 87 499 / 100;
#X obj 89 538 line;
#X floatatom 134 516 5 0 0 0 - - -;
#X text 172 515 time offset to adjust volume to velocity;
#X obj 177 478 loadbang;
#X msg 177 499 50;
#X obj 88 519 + 0.05;
#X obj -373 84 select 99;
#X obj -224 210 loadbang;
#X obj -57 -84 inlet;
#X obj 68 -88 inlet;
#X obj 135 -88 inlet;
#X obj -281 2 inlet;
#X obj -271 12 inlet;
#X obj 11 610 outlet~;
#X text 23 24 Play;
#X text 24 48 Load;
#X connect 1 0 2 0;
#X connect 2 0 8 0;
#X connect 2 1 8 1;
#X connect 3 0 4 0;
#X connect 4 0 28 0;
#X connect 5 0 15 0;
#X connect 6 0 0 0;
#X connect 7 0 8 0;
#X connect 7 1 8 2;
#X connect 8 0 17 0;
#X connect 9 0 13 0;
#X connect 10 0 14 0;
#X connect 11 0 9 0;
#X connect 13 0 10 0;
#X connect 15 0 42 0;
#X connect 17 0 3 0;
#X connect 17 0 38 0;
#X connect 18 0 19 0;
#X connect 18 0 6 0;
#X connect 20 0 31 0;
#X connect 21 0 20 0;
#X connect 22 0 21 0;
#X connect 23 0 20 1;
#X connect 24 0 30 0;
#X connect 25 0 24 0;
#X connect 26 0 24 1;
#X connect 27 0 26 0;
#X connect 28 0 5 1;
#X connect 29 0 28 1;
#X connect 30 0 22 0;
#X connect 31 0 16 0;
#X connect 32 0 30 1;
#X connect 34 0 33 0;
#X connect 34 0 7 0;
#X connect 34 0 36 0;
#X connect 35 0 8 0;
#X connect 35 0 37 0;
#X connect 38 0 5 0;
#X connect 39 0 38 1;
#X connect 40 0 51 0;
#X connect 40 1 44 0;
#X connect 40 1 49 0;
#X connect 41 0 25 0;
#X connect 42 0 43 0;
#X connect 43 0 58 0;
#X connect 44 0 50 0;
#X connect 45 0 43 1;
#X connect 46 0 45 1;
#X connect 48 0 49 0;
#X connect 49 0 46 0;
#X connect 50 0 45 0;
#X connect 51 1 41 0;
#X connect 52 0 11 0;
#X connect 53 0 18 0;
#X connect 54 0 35 0;
#X connect 55 0 34 0;
#X connect 56 0 40 0;
#X connect 57 0 40 1;
#X coords 0 1 100 -1 200 140 1 0 0;
#X restore -155 -15 graph;
#X floatatom -65 -31 5 0 0 0 - - -;
#X floatatom -26 -31 5 0 0 0 - - -;
#X floatatom 12 -31 5 0 0 0 - - -;
#X text -17 -180 Chunk size;
#X text 25 -161 Pitch;
#X text 66 -141 Speed;
#X obj -210 -72 notein;
#X floatatom -155 -31 5 0 0 0 - - -;
#X floatatom -123 -31 5 0 0 0 - - -;
#N canvas 0 22 450 300 (subpatch) 0;
#X obj -30 22 spigot;
#X obj 2 3 tgl 15 0 empty empty empty 17 7 0 10 -262144 -1 -1 0 1;
#X obj -58 0 inlet;
#X obj -54 54 outlet;
#X connect 0 0 3 0;
#X connect 1 0 0 1;
#X connect 2 0 0 0;
#X coords 0 1 100 -1 20 20 1 0 0;
#X restore -155 -73 graph;
#N canvas 0 22 450 300 (subpatch) 0;
#X obj -30 22 spigot;
#X obj 2 3 tgl 15 0 empty empty empty 17 7 0 10 -262144 -1 -1 0 1;
#X obj -58 0 inlet;
#X obj -54 54 outlet;
#X connect 0 0 3 0;
#X connect 1 0 0 1;
#X connect 2 0 0 0;
#X coords 0 1 100 -1 20 20 1 0 0;
#X restore -123 -73 graph;
#N canvas 0 22 450 300 (subpatch) 0;
#X obj -30 22 spigot;
#X obj 2 3 tgl 15 0 empty empty empty 17 7 0 10 -262144 -1 -1 0 1;
#X obj -58 0 inlet;
#X obj -54 54 outlet;
#X connect 0 0 3 0;
#X connect 1 0 0 1;
#X connect 2 0 0 0;
#X coords 0 1 100 -1 20 20 1 0 0;
#X restore -210 -51 graph;
#N canvas 0 22 450 300 (subpatch) 0;
#X obj -30 22 spigot;
#X obj 2 3 tgl 15 0 empty empty empty 17 7 0 10 -262144 -1 -1 0 1;
#X obj -58 0 inlet;
#X obj -54 54 outlet;
#X connect 0 0 3 0;
#X connect 1 0 0 1;
#X connect 2 0 0 0;
#X coords 0 1 100 -1 20 20 1 0 0;
#X restore -190 -51 graph;
#X obj 12 -93 knob 25 25 0 127 0 0 empty empty empty 0 -8 32 8 -1 -260097
-260097 0 1;
#X obj -26 -93 knob 25 25 0 127 0 0 empty empty empty 0 -8 32 8 -1
-260097 -260097 0 1;
#X obj -65 -93 knob 25 25 0 127 0 0 empty empty empty 0 -8 32 8 -1
-260097 -260097 0 1;
#N canvas 0 22 450 300 (subpatch) 0;
#X obj -30 22 spigot;
#X obj 2 3 tgl 15 0 empty empty empty 17 7 0 10 -262144 -1 -1 0 1;
#X obj -58 0 inlet;
#X obj -54 54 outlet;
#X connect 0 0 3 0;
#X connect 1 0 0 1;
#X connect 2 0 0 0;
#X coords 0 1 100 -1 20 20 1 0 0;
#X restore 12 -116 graph;
#N canvas 0 22 450 300 (subpatch) 0;
#X obj -30 22 spigot;
#X obj 2 3 tgl 15 0 empty empty empty 17 7 0 10 -262144 -1 -1 0 1;
#X obj -58 0 inlet;
#X obj -54 54 outlet;
#X connect 0 0 3 0;
#X connect 1 0 0 1;
#X connect 2 0 0 0;
#X coords 0 1 100 -1 20 20 1 0 0;
#X restore -65 -116 graph;
#N canvas 0 22 450 300 (subpatch) 0;
#X obj -30 22 spigot;
#X obj 2 3 tgl 15 0 empty empty empty 17 7 0 10 -262144 -1 -1 0 1;
#X obj -58 0 inlet;
#X obj -54 54 outlet;
#X connect 0 0 3 0;
#X connect 1 0 0 1;
#X connect 2 0 0 0;
#X coords 0 1 100 -1 20 20 1 0 0;
#X restore -26 -116 graph;
#X obj 12 -48 / 60;
#N canvas 0 22 450 300 (subpatch) 0;
#X obj 59 155 inlet;
#X obj 3 89 inlet~;
#X obj 58 182 change;
#X msg 60 246 set \$1;
#X obj 60 227 tosymbol;
#X obj 59 204 sprintf Bus%d;
#X obj 3 282 throw~ Bus0;
#X obj 2 3 popup 124 25 #ffffff popup Bus0 Bus1 Bus2 Bus3 Bus4 Bus5
;
#X obj 1 32 route bang;
#X obj 154 202 *~;
#X obj 141 7 tgl 15 0 empty empty Dac 19 7 0 10 -262144 -1 -1 0 1;
#X obj 155 238 dac~;
#X obj 1 -53 loadbang;
#X text 59 -54 Bus0 mutes;
#X msg 1 -34 options Bus0 Bus1 Bus2 Bus3 Bus4 Bus5 Bus6 Bus7 Bus8 Bus9
Bus10 Bus11 Bus12 Bus13 Bus14 Bus15 Bus16;
#X connect 0 0 2 0;
#X connect 1 0 6 0;
#X connect 1 0 9 0;
#X connect 2 0 5 0;
#X connect 3 0 6 0;
#X connect 4 0 3 0;
#X connect 5 0 4 0;
#X connect 7 0 8 0;
#X connect 8 1 2 0;
#X connect 9 0 11 0;
#X connect 9 0 11 1;
#X connect 10 0 9 1;
#X connect 12 0 14 0;
#X connect 14 0 7 0;
#X coords 0 1 100 -1 180 30 1 0 0;
#X restore -155 125 graph;
#X connect 0 0 7 0;
#X connect 1 0 6 0;
#X connect 2 0 30 0;
#X connect 3 0 28 0;
#X connect 4 0 29 0;
#X connect 5 0 27 0;
#X connect 6 0 12 0;
#X connect 7 0 11 0;
#X connect 8 0 20 0;
#X connect 9 0 21 0;
#X connect 10 0 31 0;
#X connect 11 0 10 2;
#X connect 12 0 10 3;
#X connect 13 0 10 4;
#X connect 17 0 22 0;
#X connect 17 1 23 0;
#X connect 18 0 10 0;
#X connect 19 0 10 1;
#X connect 20 0 18 0;
#X connect 21 0 19 0;
#X connect 22 0 18 0;
#X connect 23 0 19 0;
#X connect 24 0 2 0;
#X connect 25 0 1 0;
#X connect 26 0 0 0;
#X connect 27 0 24 0;
#X connect 28 0 26 0;
#X connect 29 0 25 0;
#X connect 30 0 13 0;
