#N canvas 0 22 625 565 10;
#X floatatom 326 -100 5 0 0 0 - - -;
#X floatatom 363 -100 5 0 0 0 - - -;
#X obj 214 -119 / 100;
#X obj 65 -141 notein;
#X obj 214 -350 ctlin 1;
#X obj 253 -331 ctlin 2;
#X obj 288 -312 ctlin 3;
#X obj 326 -118 / 10;
#X obj 363 -118 / 1;
#X obj 252 -118 * 10;
#X obj 289 -118 * 50;
#X obj 123 -367 r noteWave;
#X obj 326 -293 ctlin 4;
#X obj 363 -274 ctlin 5;
#X floatatom 407 -133 5 0 0 0 - - -;
#X floatatom 443 -132 5 0 0 0 - - -;
#X floatatom 480 -132 5 0 0 0 - - -;
#X obj 406 -240 ctlin 6;
#X obj 443 -221 ctlin 7;
#X obj 479 -203 ctlin 8;
#X floatatom 443 -98 5 0 0 0 - - -;
#X floatatom 480 -98 5 0 0 0 - - -;
#X obj 443 -116 * 10;
#X obj 407 -117 * 1;
#X floatatom 407 -99 5 0 0 0 - - -;
#X obj 480 -116 * 10;
#X floatatom 123 -100 5 0 0 0 - - -;
#X floatatom 156 -100 5 0 0 0 - - -;
#X obj 154 -330 r velWave;
#X floatatom 252 -100 5 0 0 0 - - -;
#X floatatom 289 -100 5 0 0 0 - - -;
#X floatatom 214 -101 5 0 0 0 - - -;
#X floatatom 289 -134 5 0 0 0 - - -;
#X floatatom 326 -134 5 0 0 0 - - -;
#X floatatom 363 -134 5 0 0 0 - - -;
#X floatatom 214 -135 5 0 0 0 - - -;
#X floatatom 252 -134 5 0 0 0 - - -;
#X text 265 -351 Position;
#X text 304 -332 Width;
#X text 338 -312 Filter;
#X text 375 -294 movef;
#X text 411 -275 movement;
#X text 456 -240 A;
#X text 498 -220 L;
#X text 531 -205 D;
#N canvas 0 22 1009 720 (subpatch) 0;
#X obj 421 123 phasor~;
#X obj 398 290 *~;
#N canvas 0 22 450 300 (subpatch) 0;
#X array graph-output 441 float 0;
#X coords 0 1 440 -1 100 100 1;
#X restore 107 49 graph;
#X obj 414 270 +~ 128;
#X obj 398 188 min~;
#X obj 563 410 metro 80;
#X obj 105 13 tgl 15 0 empty empty Graph 0 -6 0 8 -262144 -1 -1 0 1
;
#X obj 421 148 *~ -1;
#X obj 421 168 +~ 1;
#X obj 563 457 tabwrite~ graph-output;
#X obj 381 490 *~ 0.2;
#X obj 571 431 r~ graphme;
#X obj 429 490 s~ graphme;
#X obj 398 208 *~ 2;
#X obj -21 -110 openpanel;
#X obj -21 -66 soundfiler;
#X obj 5 13 bng 15 250 50 0 empty empty Load 0 -6 0 8 -262144 -1 -1
;
#N canvas 0 22 450 300 (subpatch) 0;
#X array source-array 140288 float 2;
#X coords 0 1 140288 -1 100 100 1;
#X restore 5 49 graph;
#X msg -21 -89 read -resize \$1 source-array;
#X obj -21 -44 s filesize;
#X obj 381 350 tabread4~ source-array;
#X obj 328 241 lop~ 0.5;
#X obj 328 217 sig~;
#X obj 382 329 +~;
#X obj 9 158 hsl 64 12 0 1 0 0 empty empty position 7 6 1 8 -262144
-1 -1 0 1;
#X obj 314 122 t b f;
#X obj 328 196 *;
#X obj 314 167 f;
#X obj 330 144 r filesize;
#X obj 312 264 +~;
#X obj 226 165 *~;
#X obj 113 179 hsl 64 12 0 100 0 0 empty empty movement 7 6 1 8 -262144
-1 -1 0 1;
#X obj 226 126 osc~ 1;
#X obj 113 161 hsl 64 12 0 10 0 0 empty empty movef 7 6 1 8 -262144
-1 -1 0 1;
#X floatatom 232 101 5 0 0 0 - - -;
#X floatatom 322 102 5 0 0 0 - - -;
#X obj 382 448 vcf~ 1 2;
#X obj 10 177 hsl 64 12 0 1000 0 0 empty empty width 7 6 1 8 -262144
-1 -1 0 1;
#X floatatom 422 251 5 0 0 0 - - -;
#X floatatom 429 102 5 0 0 0 - - -;
#X obj 10 195 hsl 64 12 0 5000 0 0 empty empty filter 7 6 1 8 -262144
-1 -1 0 1;
#X floatatom 415 387 5 0 0 0 - - -;
#X obj 433 406 loadbang;
#X msg 433 428 2;
#X obj 362 30 mtof;
#X obj 364 4 stripnote;
#X obj 456 578 *~;
#X obj 506 507 / 100;
#X obj 507 527 + 0.2;
#X obj 508 546 line;
#X floatatom 553 524 5 0 0 0 - - -;
#X text 591 523 time offset to adjust volume to velocity;
#X obj 596 486 loadbang;
#X msg 596 507 50;
#X obj 356 565 *~;
#N canvas 0 22 979 469 eald~ 0;
#X msg 414 153 bang;
#X floatatom 524 94 5 0 0 0 - - -;
#X floatatom 575 93 5 0 0 0 - - -;
#X floatatom 625 93 5 0 0 0 - - -;
#X text 491 45 "ALD" enveloppe;
#X obj 524 69 inlet;
#X obj 575 68 inlet;
#X obj 625 68 inlet;
#X obj 428 72 inlet;
#X obj 399 452 outlet~;
#X text 653 153 ENVELOPE SECTION;
#X obj 399 366 vline~;
#X msg 372 265 1;
#X obj 372 285 pack f f;
#X obj 372 306 unpack f f;
#X msg 476 266 0;
#X obj 476 287 pack f f f;
#X obj 476 308 unpack f f f;
#X obj 476 245 delay 5;
#X text 122 303 Attack : sends a 1 to get to in A msec;
#X text 549 244 wait the end of the attack;
#X text 558 274 Length+Decay : 0 to get to in D msec \, after L msec
;
#X text 513 94 A;
#X text 564 94 L;
#X text 614 94 D;
#X connect 0 0 12 0;
#X connect 0 0 18 0;
#X connect 1 0 13 1;
#X connect 1 0 18 1;
#X connect 2 0 16 2;
#X connect 3 0 16 1;
#X connect 5 0 1 0;
#X connect 6 0 2 0;
#X connect 7 0 3 0;
#X connect 8 0 0 0;
#X connect 11 0 9 0;
#X connect 12 0 13 0;
#X connect 13 0 14 0;
#X connect 14 0 11 0;
#X connect 14 1 11 1;
#X connect 15 0 16 0;
#X connect 16 0 17 0;
#X connect 17 0 11 0;
#X connect 17 1 11 1;
#X connect 17 2 11 2;
#X connect 18 0 15 0;
#X restore 294 525 pd eald~;
#X obj 338 33 bng 15 250 50 0 empty empty empty 17 7 0 10 -262144 -1
-1;
#X obj 409 -25 inlet;
#X obj 358 -21 inlet;
#X obj 537 -48 inlet;
#X obj 490 -47 inlet;
#X obj 639 -51 inlet;
#X obj 588 -47 inlet;
#X obj 749 -49 inlet;
#X obj 698 -45 inlet;
#X obj 886 -28 inlet;
#X obj 800 -48 inlet;
#X obj 456 602 outlet~;
#X connect 0 0 4 0;
#X connect 0 0 7 0;
#X connect 1 0 23 1;
#X connect 3 0 1 1;
#X connect 4 0 13 0;
#X connect 5 0 9 0;
#X connect 6 0 5 0;
#X connect 7 0 8 0;
#X connect 8 0 4 1;
#X connect 10 0 54 0;
#X connect 11 0 9 0;
#X connect 13 0 1 0;
#X connect 14 0 18 0;
#X connect 15 0 19 0;
#X connect 16 0 14 0;
#X connect 18 0 15 0;
#X connect 20 0 36 0;
#X connect 21 0 29 1;
#X connect 22 0 21 0;
#X connect 23 0 20 0;
#X connect 24 0 25 0;
#X connect 24 0 35 0;
#X connect 25 0 27 0;
#X connect 25 1 26 1;
#X connect 26 0 22 0;
#X connect 27 0 26 0;
#X connect 28 0 27 1;
#X connect 29 0 23 0;
#X connect 30 0 29 0;
#X connect 31 0 30 1;
#X connect 32 0 30 0;
#X connect 33 0 32 0;
#X connect 33 0 34 0;
#X connect 36 0 10 0;
#X connect 36 0 12 0;
#X connect 37 0 38 0;
#X connect 37 0 3 0;
#X connect 39 0 0 0;
#X connect 40 0 41 0;
#X connect 40 0 36 1;
#X connect 42 0 43 0;
#X connect 43 0 36 2;
#X connect 44 0 39 0;
#X connect 45 0 44 0;
#X connect 45 0 56 0;
#X connect 45 1 47 0;
#X connect 46 0 67 0;
#X connect 47 0 48 0;
#X connect 48 0 49 0;
#X connect 49 0 46 1;
#X connect 50 0 49 1;
#X connect 52 0 53 0;
#X connect 53 0 50 0;
#X connect 54 0 46 0;
#X connect 55 0 54 1;
#X connect 56 0 55 0;
#X connect 57 0 45 1;
#X connect 58 0 45 0;
#X connect 59 0 37 0;
#X connect 60 0 24 0;
#X connect 61 0 33 0;
#X connect 62 0 40 0;
#X connect 63 0 55 1;
#X connect 64 0 31 0;
#X connect 65 0 55 3;
#X connect 66 0 55 2;
#X coords 0 1 100 -1 212 215 1 0 0;
#X restore 123 -84 graph;
#X obj 214 -164 knob 25 25 0 127 0 0 empty empty empty 0 -8 32 8 -1
-260097 -260097 0 1;
#X obj 252 -163 knob 25 25 0 127 0 0 empty empty empty 0 -8 32 8 -1
-260097 -260097 0 1;
#X obj 289 -163 knob 25 25 0 127 0 0 empty empty empty 0 -8 32 8 -1
-260097 -260097 0 1;
#X obj 326 -163 knob 25 25 0 127 0 0 empty empty empty 0 -8 32 8 -1
-260097 -260097 0 1;
#X obj 363 -163 knob 25 25 0 127 0 0 empty empty empty 0 -8 32 8 -1
-260097 -260097 0 1;
#X obj 406 -162 knob 25 25 0 127 0 0 empty empty empty 0 -8 32 8 -1
-260097 -260097 0 1;
#X obj 443 -161 knob 25 25 0 127 0 0 empty empty empty 0 -8 32 8 -1
-260097 -260097 0 1;
#X obj 479 -161 knob 25 25 0 127 0 0 empty empty empty 0 -8 32 8 -1
-260097 -260097 0 1;
#N canvas 0 22 450 300 (subpatch) 0;
#X obj 59 155 inlet;
#X obj 3 89 inlet~;
#X obj 58 182 change;
#X msg 60 246 set \$1;
#X obj 60 227 tosymbol;
#X obj 59 204 sprintf Bus%d;
#X obj 3 282 throw~ Bus0;
#X obj 2 3 popup 124 25 #ffffff popup Bus0 Bus1 Bus2 Bus3 Bus4 Bus5
;
#X obj 1 32 route bang;
#X obj 154 202 *~;
#X obj 141 7 tgl 15 0 empty empty Dac 19 7 0 10 -262144 -1 -1 0 1;
#X obj 155 238 dac~;
#X obj 2 -63 loadbang;
#X text 60 -65 Bus0 mutes;
#X msg 2 -45 options Bus0 Bus1 Bus2 Bus3 Bus4 Bus5 Bus6 Bus7 Bus8 Bus9
Bus10 Bus11 Bus12 Bus13 Bus14 Bus15 Bus16;
#X connect 0 0 2 0;
#X connect 1 0 6 0;
#X connect 1 0 9 0;
#X connect 2 0 5 0;
#X connect 3 0 6 0;
#X connect 4 0 3 0;
#X connect 5 0 4 0;
#X connect 7 0 8 0;
#X connect 8 1 2 0;
#X connect 9 0 11 0;
#X connect 9 0 11 1;
#X connect 10 0 9 1;
#X connect 12 0 14 0;
#X connect 14 0 7 0;
#X coords 0 1 100 -1 180 30 1 0 0;
#X restore 123 131 graph;
#N canvas 0 22 450 300 (subpatch) 0;
#X obj -30 22 spigot;
#X obj 2 3 tgl 15 0 empty empty empty 17 7 0 10 -262144 -1 -1 0 1;
#X obj -58 0 inlet;
#X obj -54 54 outlet;
#X connect 0 0 3 0;
#X connect 1 0 0 1;
#X connect 2 0 0 0;
#X coords 0 1 100 -1 20 20 1 0 0;
#X restore 65 -120 graph;
#N canvas 0 22 450 300 (subpatch) 0;
#X obj -30 22 spigot;
#X obj 2 3 tgl 15 0 empty empty empty 17 7 0 10 -262144 -1 -1 0 1;
#X obj -58 0 inlet;
#X obj -54 54 outlet;
#X connect 0 0 3 0;
#X connect 1 0 0 1;
#X connect 2 0 0 0;
#X coords 0 1 100 -1 20 20 1 0 0;
#X restore 85 -120 graph;
#N canvas 0 22 450 300 (subpatch) 0;
#X obj -30 22 spigot;
#X obj 2 3 tgl 15 0 empty empty empty 17 7 0 10 -262144 -1 -1 0 1;
#X obj -58 0 inlet;
#X obj -54 54 outlet;
#X connect 0 0 3 0;
#X connect 1 0 0 1;
#X connect 2 0 0 0;
#X coords 0 1 100 -1 20 20 1 0 0;
#X restore 479 -184 graph;
#N canvas 0 22 450 300 (subpatch) 0;
#X obj -30 22 spigot;
#X obj 2 3 tgl 15 0 empty empty empty 17 7 0 10 -262144 -1 -1 0 1;
#X obj -58 0 inlet;
#X obj -54 54 outlet;
#X connect 0 0 3 0;
#X connect 1 0 0 1;
#X connect 2 0 0 0;
#X coords 0 1 100 -1 20 20 1 0 0;
#X restore 123 -196 graph;
#N canvas 0 22 450 300 (subpatch) 0;
#X obj -30 22 spigot;
#X obj 2 3 tgl 15 0 empty empty empty 17 7 0 10 -262144 -1 -1 0 1;
#X obj -58 0 inlet;
#X obj -54 54 outlet;
#X connect 0 0 3 0;
#X connect 1 0 0 1;
#X connect 2 0 0 0;
#X coords 0 1 100 -1 20 20 1 0 0;
#X restore 156 -196 graph;
#N canvas 0 22 450 300 (subpatch) 0;
#X obj -30 22 spigot;
#X obj 2 3 tgl 15 0 empty empty empty 17 7 0 10 -262144 -1 -1 0 1;
#X obj -58 0 inlet;
#X obj -54 54 outlet;
#X connect 0 0 3 0;
#X connect 1 0 0 1;
#X connect 2 0 0 0;
#X coords 0 1 100 -1 20 20 1 0 0;
#X restore 443 -184 graph;
#N canvas 0 22 450 300 (subpatch) 0;
#X obj -30 22 spigot;
#X obj 2 3 tgl 15 0 empty empty empty 17 7 0 10 -262144 -1 -1 0 1;
#X obj -58 0 inlet;
#X obj -54 54 outlet;
#X connect 0 0 3 0;
#X connect 1 0 0 1;
#X connect 2 0 0 0;
#X coords 0 1 100 -1 20 20 1 0 0;
#X restore 406 -185 graph;
#N canvas 0 22 450 300 (subpatch) 0;
#X obj -30 22 spigot;
#X obj 2 3 tgl 15 0 empty empty empty 17 7 0 10 -262144 -1 -1 0 1;
#X obj -58 0 inlet;
#X obj -54 54 outlet;
#X connect 0 0 3 0;
#X connect 1 0 0 1;
#X connect 2 0 0 0;
#X coords 0 1 100 -1 20 20 1 0 0;
#X restore 363 -186 graph;
#N canvas 0 22 450 300 (subpatch) 0;
#X obj -30 22 spigot;
#X obj 2 3 tgl 15 0 empty empty empty 17 7 0 10 -262144 -1 -1 0 1;
#X obj -58 0 inlet;
#X obj -54 54 outlet;
#X connect 0 0 3 0;
#X connect 1 0 0 1;
#X connect 2 0 0 0;
#X coords 0 1 100 -1 20 20 1 0 0;
#X restore 326 -186 graph;
#N canvas 0 22 450 300 (subpatch) 0;
#X obj -30 22 spigot;
#X obj 2 3 tgl 15 0 empty empty empty 17 7 0 10 -262144 -1 -1 0 1;
#X obj -58 0 inlet;
#X obj -54 54 outlet;
#X connect 0 0 3 0;
#X connect 1 0 0 1;
#X connect 2 0 0 0;
#X coords 0 1 100 -1 20 20 1 0 0;
#X restore 289 -186 graph;
#N canvas 0 22 450 300 (subpatch) 0;
#X obj -30 22 spigot;
#X obj 2 3 tgl 15 0 empty empty empty 17 7 0 10 -262144 -1 -1 0 1;
#X obj -58 0 inlet;
#X obj -54 54 outlet;
#X connect 0 0 3 0;
#X connect 1 0 0 1;
#X connect 2 0 0 0;
#X coords 0 1 100 -1 20 20 1 0 0;
#X restore 252 -186 graph;
#N canvas 0 22 450 300 (subpatch) 0;
#X obj -30 22 spigot;
#X obj 2 3 tgl 15 0 empty empty empty 17 7 0 10 -262144 -1 -1 0 1;
#X obj -58 0 inlet;
#X obj -54 54 outlet;
#X connect 0 0 3 0;
#X connect 1 0 0 1;
#X connect 2 0 0 0;
#X coords 0 1 100 -1 20 20 1 0 0;
#X restore 214 -187 graph;
#X connect 0 0 45 5;
#X connect 1 0 45 6;
#X connect 2 0 31 0;
#X connect 3 0 55 0;
#X connect 3 1 56 0;
#X connect 4 0 66 0;
#X connect 5 0 65 0;
#X connect 6 0 64 0;
#X connect 7 0 0 0;
#X connect 8 0 1 0;
#X connect 9 0 29 0;
#X connect 10 0 30 0;
#X connect 11 0 58 0;
#X connect 12 0 63 0;
#X connect 13 0 62 0;
#X connect 14 0 23 0;
#X connect 15 0 22 0;
#X connect 16 0 25 0;
#X connect 17 0 61 0;
#X connect 18 0 60 0;
#X connect 19 0 57 0;
#X connect 20 0 45 8;
#X connect 21 0 45 9;
#X connect 22 0 20 0;
#X connect 23 0 24 0;
#X connect 24 0 45 7;
#X connect 25 0 21 0;
#X connect 26 0 45 0;
#X connect 27 0 45 1;
#X connect 28 0 59 0;
#X connect 29 0 45 3;
#X connect 30 0 45 4;
#X connect 31 0 45 2;
#X connect 32 0 10 0;
#X connect 33 0 7 0;
#X connect 34 0 8 0;
#X connect 35 0 2 0;
#X connect 36 0 9 0;
#X connect 45 0 54 0;
#X connect 46 0 35 0;
#X connect 47 0 36 0;
#X connect 48 0 32 0;
#X connect 49 0 33 0;
#X connect 50 0 34 0;
#X connect 51 0 14 0;
#X connect 52 0 15 0;
#X connect 53 0 16 0;
#X connect 55 0 26 0;
#X connect 56 0 27 0;
#X connect 57 0 53 0;
#X connect 58 0 26 0;
#X connect 59 0 27 0;
#X connect 60 0 52 0;
#X connect 61 0 51 0;
#X connect 62 0 50 0;
#X connect 63 0 49 0;
#X connect 64 0 48 0;
#X connect 65 0 47 0;
#X connect 66 0 46 0;
