#N canvas 0 22 1024 705 10;
#X obj 103 114 readsf~;
#X msg 68 97 start;
#X msg 77 283 bang;
#X msg 35 97 stop;
#X msg 45 283 stop;
#N canvas 0 22 450 300 (subpatch) 0;
#X array sample1 441000 float 0;
#X coords 0 1 440999 -1 60 40 1;
#X restore 90 361 graph;
#X obj 103 139 *~ 0.8;
#X obj 125 282 * 100;
#N canvas 0 22 789 323 matr 0;
#X obj 232 183 inlet~;
#X obj 232 202 outlet~;
#X obj 278 183 inlet~;
#X obj 278 202 outlet~;
#X connect 0 0 1 0;
#X connect 2 0 3 0;
#X restore 804 404 pd matr;
#X obj 77 26 openpanel;
#X obj 77 -7 bng 30 250 50 0 empty empty load 0 -6 0 7 -261681 -1 -1
;
#X msg 139 61 open \$1;
#X obj 140 43 symbol;
#X msg 140 25 bang;
#X msg 68 78 bang;
#X msg 621 -35 \; pd dsp 1;
#X msg 621 0 \; pd dsp 0;
#N canvas 0 22 789 551 pan 0;
#X floatatom 276 166 5 0 10 0 - - -;
#X floatatom 275 105 5 0 0 0 - - -;
#X obj 275 146 -;
#X floatatom 327 241 5 0 0 0 - - -;
#X obj 327 220 *;
#X floatatom 248 244 5 0 0 0 - - -;
#X obj 248 221 /;
#X msg 288 123 0.5;
#X floatatom 248 307 5 0 0 0 - - -;
#X obj 248 283 max;
#X msg 278 261 0;
#X floatatom 327 314 5 0 0 0 - - -;
#X obj 327 291 max;
#X msg 353 263 0;
#X obj 235 329 *~;
#X obj 313 334 *~;
#X msg 258 201 -0.5;
#X msg 338 200 2;
#X obj 275 67 inlet;
#X obj 283 306 inlet~;
#X obj 234 351 outlet~;
#X obj 313 353 outlet~;
#X msg 289 86 bang;
#X connect 0 0 4 0;
#X connect 0 0 17 0;
#X connect 0 0 16 0;
#X connect 0 0 6 0;
#X connect 1 0 7 0;
#X connect 1 0 2 0;
#X connect 2 0 0 0;
#X connect 3 0 12 0;
#X connect 3 0 13 0;
#X connect 4 0 3 0;
#X connect 5 0 10 0;
#X connect 5 0 9 0;
#X connect 6 0 5 0;
#X connect 7 0 2 1;
#X connect 8 0 14 1;
#X connect 9 0 8 0;
#X connect 10 0 9 1;
#X connect 11 0 15 1;
#X connect 12 0 11 0;
#X connect 13 0 12 1;
#X connect 14 0 20 0;
#X connect 15 0 21 0;
#X connect 16 0 6 1;
#X connect 17 0 4 1;
#X connect 18 0 1 0;
#X connect 18 0 22 0;
#X connect 19 0 15 0;
#X connect 19 0 14 0;
#X connect 22 0 1 0;
#X restore 674 316 pd pan;
#N canvas 0 22 789 551 pan 0;
#X floatatom 276 166 5 0 10 0 - - -;
#X floatatom 275 105 5 0 0 0 - - -;
#X obj 275 146 -;
#X floatatom 327 241 5 0 0 0 - - -;
#X obj 327 220 *;
#X floatatom 248 244 5 0 0 0 - - -;
#X obj 248 221 /;
#X msg 288 123 0.5;
#X floatatom 248 307 5 0 0 0 - - -;
#X obj 248 283 max;
#X msg 278 261 0;
#X floatatom 327 314 5 0 0 0 - - -;
#X obj 327 291 max;
#X msg 353 263 0;
#X obj 235 329 *~;
#X obj 313 334 *~;
#X msg 258 201 -0.5;
#X msg 338 200 2;
#X obj 275 66 inlet;
#X obj 283 306 inlet~;
#X obj 234 351 outlet~;
#X obj 313 353 outlet~;
#X msg 281 85 bang;
#X connect 0 0 4 0;
#X connect 0 0 17 0;
#X connect 0 0 16 0;
#X connect 0 0 6 0;
#X connect 1 0 7 0;
#X connect 1 0 2 0;
#X connect 2 0 0 0;
#X connect 3 0 12 0;
#X connect 3 0 13 0;
#X connect 4 0 3 0;
#X connect 5 0 10 0;
#X connect 5 0 9 0;
#X connect 6 0 5 0;
#X connect 7 0 2 1;
#X connect 8 0 14 1;
#X connect 9 0 8 0;
#X connect 10 0 9 1;
#X connect 11 0 15 1;
#X connect 12 0 11 0;
#X connect 13 0 12 1;
#X connect 14 0 20 0;
#X connect 15 0 21 0;
#X connect 16 0 6 1;
#X connect 17 0 4 1;
#X connect 18 0 1 0;
#X connect 18 0 22 0;
#X connect 19 0 15 0;
#X connect 19 0 14 0;
#X connect 22 0 1 0;
#X restore 721 316 pd pan;
#X obj 724 301 hsl 40 8 0 1 0 0 empty empty empty -2 -6 0 8 -262131
-1 -1 3120 1;
#X obj 677 301 hsl 40 8 0 1 0 0 empty empty empty -2 -6 0 8 -262131
-1 -1 780 1;
#N canvas 69 84 789 551 ei 0;
#X obj 309 400 outlet~;
#X obj 309 357 line~;
#X obj 163 320 -;
#X obj 120 340 pack 0 0;
#X obj 56 51 * 44100;
#X msg 25 90 bang;
#X msg 56 71 \$1;
#X obj 55 90 float;
#X obj 311 42 * 44100;
#X msg 280 81 bang;
#X msg 311 62 \$1;
#X obj 310 81 float;
#X obj 149 294 / 44;
#X obj 176 294 / 44;
#X obj 169 203 delay 1000;
#X obj 224 157 -;
#X obj 224 176 / 44;
#X obj 170 223 bng 15 250 50 0 empty empty empty 0 -6 0 8 -262144 -1
-1;
#X obj 168 68 bng 15 250 50 0 empty empty empty 0 -6 0 8 -262144 -1
-1;
#X obj 186 75 bng 15 250 50 0 empty empty empty 0 -6 0 8 -262144 -1
-1;
#X msg 177 165 0;
#X msg 168 183 bang;
#X obj 342 184 inlet;
#X obj 313 23 inlet;
#X obj 56 32 inlet;
#X obj 309 379 tabread4~ sample1;
#X connect 1 0 25 0;
#X connect 2 0 3 1;
#X connect 3 0 1 0;
#X connect 4 0 6 0;
#X connect 5 0 7 0;
#X connect 5 0 14 0;
#X connect 6 0 7 0;
#X connect 7 0 12 0;
#X connect 7 0 3 0;
#X connect 7 0 15 0;
#X connect 8 0 10 0;
#X connect 9 0 11 0;
#X connect 10 0 11 0;
#X connect 11 0 13 0;
#X connect 11 0 1 0;
#X connect 11 0 15 1;
#X connect 12 0 2 0;
#X connect 13 0 2 1;
#X connect 14 0 17 0;
#X connect 15 0 16 0;
#X connect 16 0 14 1;
#X connect 17 0 9 0;
#X connect 17 0 5 0;
#X connect 18 0 9 0;
#X connect 18 0 20 0;
#X connect 18 0 21 0;
#X connect 19 0 5 0;
#X connect 20 0 14 1;
#X connect 21 0 14 0;
#X connect 22 0 13 1;
#X connect 22 0 12 1;
#X connect 22 0 16 1;
#X connect 22 0 18 0;
#X connect 22 0 19 0;
#X connect 23 0 8 0;
#X connect 23 0 19 0;
#X connect 24 0 4 0;
#X connect 24 0 18 0;
#X connect 25 0 0 0;
#X restore 706 242 pd ei;
#X msg 709 283 0.5;
#X obj 77 303 metro 1000;
#N canvas 257 202 506 356 range 0;
#X floatatom 132 93 5 0 10 0 - - -;
#X msg 140 72 bang;
#X obj 107 92 10;
#X obj 119 115 -;
#X obj 133 25 inlet;
#X obj 119 157 outlet;
#X msg 119 138 range 0.1 \$1;
#X obj 158 175 outlet;
#X msg 158 157 bang;
#X obj 140 115 s ar1s;
#X connect 0 0 3 1;
#X connect 1 0 0 0;
#X connect 1 0 2 0;
#X connect 2 0 3 0;
#X connect 3 0 6 0;
#X connect 3 0 9 0;
#X connect 4 0 0 0;
#X connect 4 0 1 0;
#X connect 6 0 5 0;
#X connect 6 0 8 0;
#X connect 8 0 7 0;
#X restore 704 164 pd range;
#X floatatom 703 147 5 0.001 10 0 - - -;
#X obj 741 151 hsl 50 8 0.1 8 0 0 empty empty empty -2 -6 0 8 -262144
-1 -1 0 1;
#X obj 704 200 +;
#X floatatom 128 265 5 0.1 100 0 - - -;
#X floatatom 743 245 5 1 166 0 - - -;
#N canvas 0 22 450 300 (subpatch) 0;
#X array array1 14 float 1;
#A 0 0.367603 0.700937 0.800937 0.834271 0.834271 0.834271 0.834271
0.817604 0.817604 0.784271 0.167602 0.134269 0.317603 0.867605;
#X coords 0 1 13 0 140 60 1;
#X restore 476 103 graph;
#X obj 704 182 float;
#X msg 737 182 bang;
#N canvas 0 22 394 353 ar1s 0;
#X obj 39 235 tabread array1;
#X obj 39 61 metro;
#X obj 163 87 *;
#X msg 44 9 bang;
#X obj 65 101 + 1;
#X floatatom 165 107 5 0 0 0 - - -;
#X msg 117 113 bang;
#X obj 149 140 delay;
#X obj 39 101 int;
#X obj 149 159 0;
#X obj 39 155 - 1;
#X floatatom 39 195 5 0 0 0 - - -;
#X obj 52 259 r ar1s;
#X obj 40 298 outlet;
#X obj 39 279 *;
#X obj 285 -13 inlet;
#X obj 303 33 inlet;
#X obj 245 14 * 100;
#X floatatom 173 10 5 0 0 0 - - -;
#X floatatom 263 76 5 0 0 0 - - -;
#X obj 263 131 bng 15 250 50 0 empty empty empty 0 -6 0 8 -262144 -1
-1;
#X connect 0 0 14 0;
#X connect 1 0 8 0;
#X connect 2 0 5 0;
#X connect 3 0 1 0;
#X connect 3 0 18 0;
#X connect 3 0 19 0;
#X connect 4 0 8 1;
#X connect 5 0 7 1;
#X connect 6 0 7 0;
#X connect 7 0 6 0;
#X connect 7 0 9 0;
#X connect 8 0 4 0;
#X connect 8 0 10 0;
#X connect 9 0 8 0;
#X connect 10 0 11 0;
#X connect 11 0 0 0;
#X connect 12 0 14 1;
#X connect 14 0 13 0;
#X connect 15 0 17 0;
#X connect 15 0 3 0;
#X connect 15 0 20 0;
#X connect 16 0 19 0;
#X connect 16 0 3 0;
#X connect 16 0 20 0;
#X connect 17 0 18 0;
#X connect 18 0 6 0;
#X connect 18 0 2 1;
#X connect 18 0 1 1;
#X connect 19 0 2 0;
#X connect 20 0 9 0;
#X restore 738 130 pd ar1s;
#X floatatom 738 114 5 0.1 1000 0 - - -;
#X floatatom 774 114 5 1 14 0 - - -;
#X msg 774 95 14;
#X msg 703 94 2;
#X obj 621 -55 loadbang;
#X obj 128 229 r lb;
#N canvas 0 22 450 300 (subpatch) 0;
#X array array2 14 float 1;
#A 0 0.855565 0.543061 0.48056 0.418059 0.355559 0.655563 0.955567
0.388892 0.400004 0.416671 0.666674 0.433337 0.444449 0.45556;
#X coords 0 1 13 0 140 60 1;
#X restore 476 182 graph;
#X msg 739 95 10;
#X obj 739 77 r lb;
#X obj 594 -35 s lb;
#X msg 674 283 0.2;
#X msg 741 283 0.8;
#X obj 674 264 r lb;
#X obj 743 209 r lb;
#N canvas 0 22 789 551 pan 0;
#X floatatom 276 166 5 0 10 0 - - -;
#X floatatom 275 105 5 0 0 0 - - -;
#X obj 275 146 -;
#X floatatom 327 241 5 0 0 0 - - -;
#X obj 327 220 *;
#X floatatom 248 244 5 0 0 0 - - -;
#X obj 248 221 /;
#X msg 288 123 0.5;
#X floatatom 248 307 5 0 0 0 - - -;
#X obj 248 283 max;
#X msg 278 261 0;
#X floatatom 327 314 5 0 0 0 - - -;
#X obj 327 291 max;
#X msg 353 263 0;
#X obj 235 329 *~;
#X obj 313 334 *~;
#X msg 258 201 -0.5;
#X msg 338 200 2;
#X obj 275 67 inlet;
#X obj 283 306 inlet~;
#X obj 234 351 outlet~;
#X obj 313 353 outlet~;
#X msg 289 86 bang;
#X connect 0 0 4 0;
#X connect 0 0 17 0;
#X connect 0 0 16 0;
#X connect 0 0 6 0;
#X connect 1 0 7 0;
#X connect 1 0 2 0;
#X connect 2 0 0 0;
#X connect 3 0 12 0;
#X connect 3 0 13 0;
#X connect 4 0 3 0;
#X connect 5 0 10 0;
#X connect 5 0 9 0;
#X connect 6 0 5 0;
#X connect 7 0 2 1;
#X connect 8 0 14 1;
#X connect 9 0 8 0;
#X connect 10 0 9 1;
#X connect 11 0 15 1;
#X connect 12 0 11 0;
#X connect 13 0 12 1;
#X connect 14 0 20 0;
#X connect 15 0 21 0;
#X connect 16 0 6 1;
#X connect 17 0 4 1;
#X connect 18 0 1 0;
#X connect 18 0 22 0;
#X connect 19 0 15 0;
#X connect 19 0 14 0;
#X connect 22 0 1 0;
#X restore 790 314 pd pan;
#N canvas 0 22 789 551 pan 0;
#X floatatom 276 166 5 0 10 0 - - -;
#X floatatom 275 105 5 0 0 0 - - -;
#X obj 275 146 -;
#X floatatom 327 241 5 0 0 0 - - -;
#X obj 327 220 *;
#X floatatom 248 244 5 0 0 0 - - -;
#X obj 248 221 /;
#X msg 288 123 0.5;
#X floatatom 248 307 5 0 0 0 - - -;
#X obj 248 283 max;
#X msg 278 261 0;
#X floatatom 327 314 5 0 0 0 - - -;
#X obj 327 291 max;
#X msg 353 263 0;
#X obj 235 329 *~;
#X obj 313 334 *~;
#X msg 258 201 -0.5;
#X msg 338 200 2;
#X obj 275 66 inlet;
#X obj 283 306 inlet~;
#X obj 234 351 outlet~;
#X obj 313 353 outlet~;
#X msg 281 85 bang;
#X connect 0 0 4 0;
#X connect 0 0 17 0;
#X connect 0 0 16 0;
#X connect 0 0 6 0;
#X connect 1 0 7 0;
#X connect 1 0 2 0;
#X connect 2 0 0 0;
#X connect 3 0 12 0;
#X connect 3 0 13 0;
#X connect 4 0 3 0;
#X connect 5 0 10 0;
#X connect 5 0 9 0;
#X connect 6 0 5 0;
#X connect 7 0 2 1;
#X connect 8 0 14 1;
#X connect 9 0 8 0;
#X connect 10 0 9 1;
#X connect 11 0 15 1;
#X connect 12 0 11 0;
#X connect 13 0 12 1;
#X connect 14 0 20 0;
#X connect 15 0 21 0;
#X connect 16 0 6 1;
#X connect 17 0 4 1;
#X connect 18 0 1 0;
#X connect 18 0 22 0;
#X connect 19 0 15 0;
#X connect 19 0 14 0;
#X connect 22 0 1 0;
#X restore 837 314 pd pan;
#X obj 840 299 hsl 40 8 0 1 0 0 empty empty empty -2 -6 0 8 -262131
-1 -1 1950 1;
#X obj 793 299 hsl 40 8 0 1 0 0 empty empty empty -2 -6 0 8 -262131
-1 -1 1950 1;
#N canvas 69 84 789 551 ei 0;
#X obj 309 400 outlet~;
#X obj 309 357 line~;
#X obj 163 320 -;
#X obj 120 340 pack 0 0;
#X obj 56 51 * 44100;
#X msg 25 90 bang;
#X msg 56 71 \$1;
#X obj 55 90 float;
#X obj 311 42 * 44100;
#X msg 280 81 bang;
#X msg 311 62 \$1;
#X obj 310 81 float;
#X obj 149 294 / 44;
#X obj 176 294 / 44;
#X obj 169 203 delay 1000;
#X obj 224 157 -;
#X obj 224 176 / 44;
#X obj 170 223 bng 15 250 50 0 empty empty empty 0 -6 0 8 -262144 -1
-1;
#X obj 168 68 bng 15 250 50 0 empty empty empty 0 -6 0 8 -262144 -1
-1;
#X obj 186 75 bng 15 250 50 0 empty empty empty 0 -6 0 8 -262144 -1
-1;
#X msg 177 165 0;
#X msg 168 183 bang;
#X obj 342 184 inlet;
#X obj 313 23 inlet;
#X obj 56 32 inlet;
#X obj 309 379 tabread4~ sample2;
#X connect 1 0 25 0;
#X connect 2 0 3 1;
#X connect 3 0 1 0;
#X connect 4 0 6 0;
#X connect 5 0 7 0;
#X connect 5 0 14 0;
#X connect 6 0 7 0;
#X connect 7 0 12 0;
#X connect 7 0 3 0;
#X connect 7 0 15 0;
#X connect 8 0 10 0;
#X connect 9 0 11 0;
#X connect 10 0 11 0;
#X connect 11 0 13 0;
#X connect 11 0 1 0;
#X connect 11 0 15 1;
#X connect 12 0 2 0;
#X connect 13 0 2 1;
#X connect 14 0 17 0;
#X connect 15 0 16 0;
#X connect 16 0 14 1;
#X connect 17 0 9 0;
#X connect 17 0 5 0;
#X connect 18 0 9 0;
#X connect 18 0 20 0;
#X connect 18 0 21 0;
#X connect 19 0 5 0;
#X connect 20 0 14 1;
#X connect 21 0 14 0;
#X connect 22 0 13 1;
#X connect 22 0 12 1;
#X connect 22 0 16 1;
#X connect 22 0 18 0;
#X connect 22 0 19 0;
#X connect 23 0 8 0;
#X connect 23 0 19 0;
#X connect 24 0 4 0;
#X connect 24 0 18 0;
#X connect 25 0 0 0;
#X restore 822 240 pd ei;
#X msg 825 281 0.5;
#N canvas 257 202 506 356 range 0;
#X floatatom 132 93 5 0 10 0 - - -;
#X msg 140 72 bang;
#X obj 107 92 10;
#X obj 119 115 -;
#X obj 133 25 inlet;
#X obj 119 157 outlet;
#X msg 119 138 range 0.1 \$1;
#X obj 158 175 outlet;
#X msg 158 157 bang;
#X obj 140 115 s ar1s;
#X connect 0 0 3 1;
#X connect 1 0 0 0;
#X connect 1 0 2 0;
#X connect 2 0 3 0;
#X connect 3 0 6 0;
#X connect 3 0 9 0;
#X connect 4 0 0 0;
#X connect 4 0 1 0;
#X connect 6 0 5 0;
#X connect 6 0 8 0;
#X connect 8 0 7 0;
#X restore 820 162 pd range;
#X floatatom 819 145 5 0.001 10 0 - - -;
#X obj 857 149 hsl 50 8 0.1 8 0 0 empty empty empty -2 -6 0 8 -262144
-1 -1 0 1;
#X obj 820 198 +;
#X floatatom 859 243 5 1 166 0 - - -;
#X obj 820 180 float;
#X msg 853 180 bang;
#N canvas 0 22 425 551 ar1s 0;
#X obj 39 61 metro;
#X obj 163 87 *;
#X msg 44 9 bang;
#X obj 65 101 + 1;
#X floatatom 165 107 5 0 0 0 - - -;
#X msg 117 113 bang;
#X obj 149 140 delay;
#X obj 39 101 int;
#X obj 149 159 0;
#X obj 39 155 - 1;
#X floatatom 39 195 5 0 0 0 - - -;
#X obj 52 259 r ar1s;
#X obj 40 298 outlet;
#X obj 39 279 *;
#X obj 260 32 inlet;
#X obj 303 33 inlet;
#X obj 260 52 * 100;
#X floatatom 173 10 5 0 0 0 - - -;
#X floatatom 263 76 5 0 0 0 - - -;
#X obj 263 131 bng 15 250 50 0 empty empty empty 0 -6 0 8 -262144 -1
-1;
#X obj 39 235 tabread array2;
#X connect 0 0 7 0;
#X connect 1 0 4 0;
#X connect 2 0 0 0;
#X connect 2 0 17 0;
#X connect 2 0 18 0;
#X connect 3 0 7 1;
#X connect 4 0 6 1;
#X connect 5 0 6 0;
#X connect 6 0 5 0;
#X connect 6 0 8 0;
#X connect 7 0 3 0;
#X connect 7 0 9 0;
#X connect 8 0 7 0;
#X connect 9 0 10 0;
#X connect 10 0 20 0;
#X connect 11 0 13 1;
#X connect 13 0 12 0;
#X connect 14 0 16 0;
#X connect 14 0 2 0;
#X connect 14 0 19 0;
#X connect 15 0 18 0;
#X connect 15 0 2 0;
#X connect 15 0 19 0;
#X connect 16 0 17 0;
#X connect 17 0 5 0;
#X connect 17 0 1 1;
#X connect 17 0 0 1;
#X connect 18 0 1 0;
#X connect 19 0 8 0;
#X connect 20 0 13 0;
#X restore 854 128 pd ar1s;
#X floatatom 854 112 5 0.1 1000 0 - - -;
#X floatatom 890 112 5 1 14 0 - - -;
#X msg 890 93 14;
#X obj 855 75 r lb;
#X msg 790 281 0.2;
#X msg 857 281 0.8;
#X obj 790 262 r lb;
#X obj 859 207 r lb;
#N canvas 0 22 789 551 pan 0;
#X floatatom 276 166 5 0 10 0 - - -;
#X floatatom 275 105 5 0 0 0 - - -;
#X obj 275 146 -;
#X floatatom 327 241 5 0 0 0 - - -;
#X obj 327 220 *;
#X floatatom 248 244 5 0 0 0 - - -;
#X obj 248 221 /;
#X msg 288 123 0.5;
#X floatatom 248 307 5 0 0 0 - - -;
#X obj 248 283 max;
#X msg 278 261 0;
#X floatatom 327 314 5 0 0 0 - - -;
#X obj 327 291 max;
#X msg 353 263 0;
#X obj 235 329 *~;
#X obj 313 334 *~;
#X msg 258 201 -0.5;
#X msg 338 200 2;
#X obj 275 67 inlet;
#X obj 283 306 inlet~;
#X obj 234 351 outlet~;
#X obj 313 353 outlet~;
#X msg 289 86 bang;
#X connect 0 0 4 0;
#X connect 0 0 17 0;
#X connect 0 0 16 0;
#X connect 0 0 6 0;
#X connect 1 0 7 0;
#X connect 1 0 2 0;
#X connect 2 0 0 0;
#X connect 3 0 12 0;
#X connect 3 0 13 0;
#X connect 4 0 3 0;
#X connect 5 0 10 0;
#X connect 5 0 9 0;
#X connect 6 0 5 0;
#X connect 7 0 2 1;
#X connect 8 0 14 1;
#X connect 9 0 8 0;
#X connect 10 0 9 1;
#X connect 11 0 15 1;
#X connect 12 0 11 0;
#X connect 13 0 12 1;
#X connect 14 0 20 0;
#X connect 15 0 21 0;
#X connect 16 0 6 1;
#X connect 17 0 4 1;
#X connect 18 0 1 0;
#X connect 18 0 22 0;
#X connect 19 0 15 0;
#X connect 19 0 14 0;
#X connect 22 0 1 0;
#X restore 895 315 pd pan;
#N canvas 0 22 789 551 pan 0;
#X floatatom 276 166 5 0 10 0 - - -;
#X floatatom 275 105 5 0 0 0 - - -;
#X obj 275 146 -;
#X floatatom 327 241 5 0 0 0 - - -;
#X obj 327 220 *;
#X floatatom 248 244 5 0 0 0 - - -;
#X obj 248 221 /;
#X msg 288 123 0.5;
#X floatatom 248 307 5 0 0 0 - - -;
#X obj 248 283 max;
#X msg 278 261 0;
#X floatatom 327 314 5 0 0 0 - - -;
#X obj 327 291 max;
#X msg 353 263 0;
#X obj 235 329 *~;
#X obj 313 334 *~;
#X msg 258 201 -0.5;
#X msg 338 200 2;
#X obj 275 66 inlet;
#X obj 283 306 inlet~;
#X obj 234 351 outlet~;
#X obj 313 353 outlet~;
#X msg 281 85 bang;
#X connect 0 0 4 0;
#X connect 0 0 17 0;
#X connect 0 0 16 0;
#X connect 0 0 6 0;
#X connect 1 0 7 0;
#X connect 1 0 2 0;
#X connect 2 0 0 0;
#X connect 3 0 12 0;
#X connect 3 0 13 0;
#X connect 4 0 3 0;
#X connect 5 0 10 0;
#X connect 5 0 9 0;
#X connect 6 0 5 0;
#X connect 7 0 2 1;
#X connect 8 0 14 1;
#X connect 9 0 8 0;
#X connect 10 0 9 1;
#X connect 11 0 15 1;
#X connect 12 0 11 0;
#X connect 13 0 12 1;
#X connect 14 0 20 0;
#X connect 15 0 21 0;
#X connect 16 0 6 1;
#X connect 17 0 4 1;
#X connect 18 0 1 0;
#X connect 18 0 22 0;
#X connect 19 0 15 0;
#X connect 19 0 14 0;
#X connect 22 0 1 0;
#X restore 942 315 pd pan;
#X obj 945 300 hsl 40 8 0 1 0 0 empty empty empty -2 -6 0 8 -262131
-1 -1 3120 1;
#X obj 898 300 hsl 40 8 0 1 0 0 empty empty empty -2 -6 0 8 -262131
-1 -1 780 1;
#N canvas 69 84 789 551 ei 0;
#X obj 309 400 outlet~;
#X obj 309 357 line~;
#X obj 163 320 -;
#X obj 120 340 pack 0 0;
#X obj 56 51 * 44100;
#X msg 25 90 bang;
#X msg 56 71 \$1;
#X obj 55 90 float;
#X obj 311 42 * 44100;
#X msg 280 81 bang;
#X msg 311 62 \$1;
#X obj 310 81 float;
#X obj 149 294 / 44;
#X obj 176 294 / 44;
#X obj 169 203 delay 1000;
#X obj 224 157 -;
#X obj 224 176 / 44;
#X obj 170 223 bng 15 250 50 0 empty empty empty 0 -6 0 8 -262144 -1
-1;
#X obj 168 68 bng 15 250 50 0 empty empty empty 0 -6 0 8 -262144 -1
-1;
#X obj 186 75 bng 15 250 50 0 empty empty empty 0 -6 0 8 -262144 -1
-1;
#X msg 177 165 0;
#X msg 168 183 bang;
#X obj 342 184 inlet;
#X obj 313 23 inlet;
#X obj 56 32 inlet;
#X obj 309 379 tabread4~ sample3;
#X connect 1 0 25 0;
#X connect 2 0 3 1;
#X connect 3 0 1 0;
#X connect 4 0 6 0;
#X connect 5 0 7 0;
#X connect 5 0 14 0;
#X connect 6 0 7 0;
#X connect 7 0 12 0;
#X connect 7 0 3 0;
#X connect 7 0 15 0;
#X connect 8 0 10 0;
#X connect 9 0 11 0;
#X connect 10 0 11 0;
#X connect 11 0 13 0;
#X connect 11 0 1 0;
#X connect 11 0 15 1;
#X connect 12 0 2 0;
#X connect 13 0 2 1;
#X connect 14 0 17 0;
#X connect 15 0 16 0;
#X connect 16 0 14 1;
#X connect 17 0 9 0;
#X connect 17 0 5 0;
#X connect 18 0 9 0;
#X connect 18 0 20 0;
#X connect 18 0 21 0;
#X connect 19 0 5 0;
#X connect 20 0 14 1;
#X connect 21 0 14 0;
#X connect 22 0 13 1;
#X connect 22 0 12 1;
#X connect 22 0 16 1;
#X connect 22 0 18 0;
#X connect 22 0 19 0;
#X connect 23 0 8 0;
#X connect 23 0 19 0;
#X connect 24 0 4 0;
#X connect 24 0 18 0;
#X connect 25 0 0 0;
#X restore 927 241 pd ei;
#X msg 930 282 0.5;
#N canvas 257 202 506 356 range 0;
#X floatatom 132 93 5 0 10 0 - - -;
#X msg 140 72 bang;
#X obj 107 92 10;
#X obj 119 115 -;
#X obj 133 25 inlet;
#X obj 119 157 outlet;
#X msg 119 138 range 0.1 \$1;
#X obj 158 175 outlet;
#X msg 158 157 bang;
#X obj 140 115 s ar1s;
#X connect 0 0 3 1;
#X connect 1 0 0 0;
#X connect 1 0 2 0;
#X connect 2 0 3 0;
#X connect 3 0 6 0;
#X connect 3 0 9 0;
#X connect 4 0 0 0;
#X connect 4 0 1 0;
#X connect 6 0 5 0;
#X connect 6 0 8 0;
#X connect 8 0 7 0;
#X restore 925 163 pd range;
#X floatatom 924 146 5 0.001 10 0 - - -;
#X obj 962 150 hsl 50 8 0.1 8 0 0 empty empty empty -2 -6 0 8 -262144
-1 -1 0 1;
#X obj 925 199 +;
#X floatatom 964 244 5 1 166 0 - - -;
#X obj 925 181 float;
#X msg 958 181 bang;
#N canvas 0 22 427 551 ar1s 0;
#X obj 39 61 metro;
#X obj 163 87 *;
#X msg 44 9 bang;
#X obj 65 101 + 1;
#X floatatom 165 107 5 0 0 0 - - -;
#X msg 117 113 bang;
#X obj 149 140 delay;
#X obj 39 101 int;
#X obj 149 159 0;
#X obj 39 155 - 1;
#X floatatom 39 195 5 0 0 0 - - -;
#X obj 52 259 r ar1s;
#X obj 40 298 outlet;
#X obj 39 279 *;
#X obj 260 32 inlet;
#X obj 303 33 inlet;
#X obj 260 52 * 100;
#X floatatom 173 10 5 0 0 0 - - -;
#X floatatom 263 76 5 0 0 0 - - -;
#X obj 263 131 bng 15 250 50 0 empty empty empty 0 -6 0 8 -262144 -1
-1;
#X obj 39 235 tabread array3;
#X connect 0 0 7 0;
#X connect 1 0 4 0;
#X connect 2 0 0 0;
#X connect 2 0 17 0;
#X connect 2 0 18 0;
#X connect 3 0 7 1;
#X connect 4 0 6 1;
#X connect 5 0 6 0;
#X connect 6 0 5 0;
#X connect 6 0 8 0;
#X connect 7 0 3 0;
#X connect 7 0 9 0;
#X connect 8 0 7 0;
#X connect 9 0 10 0;
#X connect 10 0 20 0;
#X connect 11 0 13 1;
#X connect 13 0 12 0;
#X connect 14 0 16 0;
#X connect 14 0 2 0;
#X connect 14 0 19 0;
#X connect 15 0 18 0;
#X connect 15 0 2 0;
#X connect 15 0 19 0;
#X connect 16 0 17 0;
#X connect 17 0 5 0;
#X connect 17 0 1 1;
#X connect 17 0 0 1;
#X connect 18 0 1 0;
#X connect 19 0 8 0;
#X connect 20 0 13 0;
#X restore 959 129 pd ar1s;
#X floatatom 959 113 5 0.1 1000 0 - - -;
#X floatatom 995 113 5 1 14 0 - - -;
#X msg 924 93 2;
#X msg 964 225 20;
#X obj 960 76 r lb;
#X msg 895 282 0.2;
#X msg 962 282 0.8;
#X obj 895 263 r lb;
#X obj 964 208 r lb;
#N canvas 0 22 450 300 (subpatch) 0;
#X array array3 14 float 1;
#A 0 -0.0527726 0.0805587 0.197224 0.380554 0.44722 0.486108 0.524996
0.563885 0.663883 0.713882 0.730549 0.730549 0.847214 0.847214;
#X coords 0 1 13 0 140 60 1;
#X restore 476 263 graph;
#X msg 223 274 bang;
#X msg 191 274 stop;
#N canvas 0 22 450 300 (subpatch) 0;
#X array sample2 441000 float 0;
#X coords 0 1 440999 -1 60 40 1;
#X restore 236 360 graph;
#X obj 271 273 * 100;
#X obj 223 294 metro 1000;
#X floatatom 274 256 5 0.1 100 0 - - -;
#X obj 274 220 r lb;
#X obj 52 331 tabwrite~ sample1;
#X obj 198 330 tabwrite~ sample2;
#X msg 358 268 bang;
#X msg 326 268 stop;
#N canvas 0 22 450 300 (subpatch) 0;
#X array sample3 441000 float 0;
#X coords 0 1 440999 -1 60 40 1;
#X restore 366 352 graph;
#X obj 406 267 * 100;
#X obj 358 288 metro 1000;
#X floatatom 409 250 5 0.1 100 0 - - -;
#X obj 409 214 r lb;
#X obj 328 322 tabwrite~ sample3;
#X obj 97 436 bng 20 250 50 0 empty empty empty 0 -6 0 8 -24198 -1
-262144;
#X text 81 451 status;
#X msg 97 402 color 16;
#X msg 97 418 color 13;
#X obj 242 435 bng 20 250 50 0 empty empty empty 0 -6 0 8 -24198 -1
-262144;
#X text 213 442 status;
#X msg 242 401 color 16;
#X msg 242 417 color 13;
#X obj 372 427 bng 20 250 50 0 empty empty empty 0 -6 0 8 -24198 -1
-262144;
#X text 356 442 status;
#X msg 372 393 color 16;
#X msg 372 409 color 13;
#X msg 859 224 120;
#X msg 743 226 40;
#X msg 855 93 9;
#X msg 819 92 0.2;
#X msg 960 94 14;
#X msg 995 94 4;
#N canvas 0 22 450 300 (subpatch) 0;
#X obj 59 155 inlet;
#X obj 3 89 inlet~;
#X obj 58 182 change;
#X msg 60 246 set \$1;
#X obj 60 227 tosymbol;
#X obj 59 204 sprintf Bus%d;
#X obj 3 282 throw~ Bus0;
#X obj 2 3 popup 124 25 #ffffff popup Bus0 Bus1 Bus2 Bus3 Bus4 Bus5
Bus6 Bus7 Bus8 Bus9 Bus10 Bus11 Bus12 Bus13 Bus14 Bus15 Bus16;
#X obj 1 32 route bang;
#X obj 154 202 *~;
#X obj 141 7 tgl 15 0 empty empty Dac 19 7 0 10 -262144 -1 -1 0 1;
#X obj 155 238 dac~;
#X obj 1 -51 loadbang;
#X text 55 -62 Bus0 mutes everything;
#X text 56 -49 Bus6 goes to dac;
#X msg 1 -33 options Bus0 Bus1 Bus2 Bus3 Bus4 Bus5 Bus6 Bus7 Bus8 Bus9
Bus10 Bus11 Bus12 Bus13 Bus14 Bus15 Bus16;
#X connect 0 0 2 0;
#X connect 1 0 6 0;
#X connect 1 0 9 0;
#X connect 2 0 5 0;
#X connect 3 0 6 0;
#X connect 4 0 3 0;
#X connect 5 0 4 0;
#X connect 7 0 8 0;
#X connect 8 1 2 0;
#X connect 9 0 11 0;
#X connect 9 0 11 1;
#X connect 10 0 9 1;
#X connect 12 0 15 0;
#X connect 15 0 7 0;
#X coords 0 1 100 -1 180 30 1 0 0;
#X restore 656 426 graph;
#N canvas 0 22 450 300 (subpatch) 0;
#X obj 59 155 inlet;
#X obj 3 89 inlet~;
#X obj 58 182 change;
#X msg 60 246 set \$1;
#X obj 60 227 tosymbol;
#X obj 59 204 sprintf Bus%d;
#X obj 3 282 throw~ Bus0;
#X obj 2 3 popup 124 25 #ffffff popup Bus0 Bus1 Bus2 Bus3 Bus4 Bus5
Bus6 Bus7 Bus8 Bus9 Bus10 Bus11 Bus12 Bus13 Bus14 Bus15 Bus16;
#X obj 1 32 route bang;
#X obj 154 202 *~;
#X obj 141 7 tgl 15 0 empty empty Dac 19 7 0 10 -262144 -1 -1 0 1;
#X obj 155 238 dac~;
#X obj 1 -49 loadbang;
#X text 55 -60 Bus0 mutes everything;
#X text 56 -47 Bus6 goes to dac;
#X msg 1 -31 options Bus0 Bus1 Bus2 Bus3 Bus4 Bus5 Bus6 Bus7 Bus8 Bus9
Bus10 Bus11 Bus12 Bus13 Bus14 Bus15 Bus16;
#X connect 0 0 2 0;
#X connect 1 0 6 0;
#X connect 1 0 9 0;
#X connect 2 0 5 0;
#X connect 3 0 6 0;
#X connect 4 0 3 0;
#X connect 5 0 4 0;
#X connect 7 0 8 0;
#X connect 8 1 2 0;
#X connect 9 0 11 0;
#X connect 9 0 11 1;
#X connect 10 0 9 1;
#X connect 12 0 15 0;
#X connect 15 0 7 0;
#X coords 0 1 100 -1 180 30 1 0 0;
#X restore 843 426 graph;
#X obj 248 124 readsf~;
#X msg 213 107 start;
#X msg 181 107 stop;
#X obj 248 149 *~ 0.8;
#X obj 222 36 openpanel;
#X obj 222 3 bng 30 250 50 0 empty empty load 0 -6 0 7 -261681 -1 -1
;
#X msg 284 71 open \$1;
#X obj 285 53 symbol;
#X msg 285 35 bang;
#X msg 213 88 bang;
#X obj 398 113 readsf~;
#X msg 363 96 start;
#X msg 331 96 stop;
#X obj 398 138 *~ 0.8;
#X obj 372 25 openpanel;
#X obj 372 -8 bng 30 250 50 0 empty empty load 0 -6 0 7 -261681 -1
-1;
#X msg 434 60 open \$1;
#X obj 435 42 symbol;
#X msg 435 24 bang;
#X msg 363 77 bang;
#X obj 91 -52 catch~ one;
#X obj 223 -42 catch~ two;
#X msg 128 247 1000;
#X msg 274 238 1000;
#X msg 409 232 1000;
#X connect 0 0 6 0;
#X connect 0 1 13 0;
#X connect 1 0 0 0;
#X connect 2 0 23 0;
#X connect 2 0 113 0;
#X connect 3 0 0 0;
#X connect 4 0 23 0;
#X connect 4 0 114 0;
#X connect 6 0 101 0;
#X connect 7 0 23 1;
#X connect 8 0 129 0;
#X connect 8 1 130 0;
#X connect 9 0 12 0;
#X connect 10 0 9 0;
#X connect 11 0 0 0;
#X connect 11 0 14 0;
#X connect 12 0 11 0;
#X connect 13 0 12 0;
#X connect 14 0 1 0;
#X connect 17 0 8 0;
#X connect 17 1 8 1;
#X connect 18 0 8 0;
#X connect 18 1 8 1;
#X connect 19 0 18 0;
#X connect 20 0 17 0;
#X connect 21 0 17 1;
#X connect 21 0 18 1;
#X connect 22 0 20 0;
#X connect 22 0 19 0;
#X connect 23 0 101 0;
#X connect 24 0 26 0;
#X connect 24 1 26 0;
#X connect 25 0 24 0;
#X connect 25 0 27 0;
#X connect 25 0 31 0;
#X connect 26 0 27 1;
#X connect 26 0 21 1;
#X connect 26 0 32 0;
#X connect 27 0 21 0;
#X connect 28 0 7 0;
#X connect 28 0 2 0;
#X connect 29 0 21 2;
#X connect 31 0 27 0;
#X connect 32 0 31 0;
#X connect 33 0 26 0;
#X connect 34 0 33 0;
#X connect 35 0 33 1;
#X connect 36 0 35 0;
#X connect 37 0 25 0;
#X connect 38 0 15 0;
#X connect 38 0 43 0;
#X connect 39 0 153 0;
#X connect 41 0 34 0;
#X connect 42 0 37 0;
#X connect 42 0 41 0;
#X connect 42 0 36 0;
#X connect 44 0 20 0;
#X connect 45 0 19 0;
#X connect 46 0 44 0;
#X connect 46 0 45 0;
#X connect 47 0 124 0;
#X connect 48 0 8 0;
#X connect 48 1 8 1;
#X connect 49 0 8 0;
#X connect 49 1 8 1;
#X connect 50 0 49 0;
#X connect 51 0 48 0;
#X connect 52 0 48 1;
#X connect 52 0 49 1;
#X connect 53 0 51 0;
#X connect 53 0 50 0;
#X connect 54 0 56 0;
#X connect 54 1 56 0;
#X connect 55 0 54 0;
#X connect 55 0 57 0;
#X connect 55 0 59 0;
#X connect 56 0 57 1;
#X connect 56 0 52 1;
#X connect 56 0 60 0;
#X connect 57 0 52 0;
#X connect 58 0 52 2;
#X connect 59 0 57 0;
#X connect 60 0 59 0;
#X connect 61 0 56 0;
#X connect 62 0 61 0;
#X connect 63 0 61 1;
#X connect 64 0 63 0;
#X connect 65 0 126 0;
#X connect 65 0 125 0;
#X connect 65 0 64 0;
#X connect 66 0 51 0;
#X connect 67 0 50 0;
#X connect 68 0 66 0;
#X connect 68 0 67 0;
#X connect 69 0 123 0;
#X connect 70 0 8 0;
#X connect 70 1 8 1;
#X connect 71 0 8 0;
#X connect 71 1 8 1;
#X connect 72 0 71 0;
#X connect 73 0 70 0;
#X connect 74 0 70 1;
#X connect 74 0 71 1;
#X connect 75 0 73 0;
#X connect 75 0 72 0;
#X connect 76 0 78 0;
#X connect 76 1 78 0;
#X connect 77 0 76 0;
#X connect 77 0 79 0;
#X connect 77 0 81 0;
#X connect 78 0 79 1;
#X connect 78 0 74 1;
#X connect 78 0 82 0;
#X connect 79 0 74 0;
#X connect 80 0 74 2;
#X connect 81 0 79 0;
#X connect 82 0 81 0;
#X connect 83 0 78 0;
#X connect 84 0 83 0;
#X connect 85 0 83 1;
#X connect 86 0 77 0;
#X connect 87 0 80 0;
#X connect 88 0 86 0;
#X connect 88 0 127 0;
#X connect 88 0 128 0;
#X connect 89 0 73 0;
#X connect 90 0 72 0;
#X connect 91 0 89 0;
#X connect 91 0 90 0;
#X connect 92 0 87 0;
#X connect 94 0 98 0;
#X connect 94 0 117 0;
#X connect 95 0 98 0;
#X connect 95 0 118 0;
#X connect 97 0 98 1;
#X connect 98 0 102 0;
#X connect 99 0 97 0;
#X connect 99 0 94 0;
#X connect 100 0 154 0;
#X connect 103 0 107 0;
#X connect 103 0 121 0;
#X connect 104 0 107 0;
#X connect 104 0 122 0;
#X connect 106 0 107 1;
#X connect 107 0 110 0;
#X connect 108 0 106 0;
#X connect 108 0 103 0;
#X connect 109 0 155 0;
#X connect 113 0 111 0;
#X connect 114 0 111 0;
#X connect 117 0 115 0;
#X connect 118 0 115 0;
#X connect 121 0 119 0;
#X connect 122 0 119 0;
#X connect 123 0 58 0;
#X connect 124 0 29 0;
#X connect 125 0 62 0;
#X connect 126 0 55 0;
#X connect 127 0 84 0;
#X connect 128 0 85 0;
#X connect 131 0 134 0;
#X connect 131 1 139 0;
#X connect 132 0 131 0;
#X connect 133 0 131 0;
#X connect 134 0 102 0;
#X connect 135 0 138 0;
#X connect 136 0 135 0;
#X connect 137 0 131 0;
#X connect 137 0 140 0;
#X connect 138 0 137 0;
#X connect 139 0 138 0;
#X connect 140 0 132 0;
#X connect 141 0 144 0;
#X connect 141 1 149 0;
#X connect 142 0 141 0;
#X connect 143 0 141 0;
#X connect 144 0 110 0;
#X connect 145 0 148 0;
#X connect 146 0 145 0;
#X connect 147 0 141 0;
#X connect 147 0 150 0;
#X connect 148 0 147 0;
#X connect 149 0 148 0;
#X connect 150 0 142 0;
#X connect 151 0 6 0;
#X connect 152 0 134 0;
#X connect 153 0 28 0;
#X connect 154 0 99 0;
#X connect 155 0 108 0;
