#N canvas 224 22 800 532 10;
#N canvas 0 22 1009 720 (subpatch) 0;
#X obj 0 0 cnv 15 120 77 empty empty empty 20 12 0 14 -1 -66577 0;
#X text 320 235 Pitch;
#X text 358 235 Speed;
#X text 235 233 Pos Chunksize;
#X obj 157 377 outlet~;
#X obj -56 295 t b f;
#X obj -28 378 +~ 0.5;
#X obj -27 398 wrap~;
#X obj -93 500 +~;
#X obj -161 270 * 0.001;
#X obj 57 294 t b f;
#X obj -68 327 expr (pow(2 \, $f1/120)-$f3)/$f2;
#N canvas 0 22 450 300 (subpatch) 0;
#X array \$0-sample 49558 float 2;
#X coords 0 0 49558 1 75 75 0;
#X restore 144 30 graph;
#X obj -92 521 hip~ 1;
#X obj -68 353 phasor~;
#X obj 38 45 hsl 70 12 0 100 0 1 \$0-blah \$0-chunk-r chunk-s:88 0
6 0 9 -261234 -258113 -86277 6100 1;
#X floatatom -239 116 5 0 0 0 - - -;
#X obj -491 325 *~;
#X obj -491 259 vline~;
#X msg -491 237 0 \, 1 \$1 0;
#X obj -491 174 f;
#X msg -491 106 bang;
#X obj -475 151 * 0.0226757;
#N canvas 432 239 209 273 samplegrain 0;
#X obj 0 232 *~;
#X obj 52 159 +~;
#X obj 52 69 *~;
#X obj 0 161 -~ 0.5;
#X obj 0 181 *~ 0.5;
#X obj 0 201 cos~;
#X obj 51 90 *~ 44100;
#X obj 0 254 outlet~;
#X obj 0 0 inlet~ phase;
#X obj 68 137 inlet~ position;
#X obj 68 46 sig~;
#X obj 68 22 r \$0-chunk-size;
#X obj 52 180 tabread4~ \$0-sample;
#X connect 0 0 7 0;
#X connect 1 0 12 0;
#X connect 2 0 6 0;
#X connect 3 0 4 0;
#X connect 4 0 5 0;
#X connect 5 0 0 0;
#X connect 6 0 1 0;
#X connect 8 0 3 0;
#X connect 8 0 2 0;
#X connect 9 0 1 1;
#X connect 10 0 2 1;
#X connect 11 0 10 0;
#X connect 12 0 0 1;
#X restore -27 467 pd samplegrain;
#X obj -491 216 /;
#X obj -491 348 *~ 1;
#X obj 38 19 hsl 70 12 -2 2 0 1 \$0-blah \$0-speed-r speed:1 0 6 0
9 -262130 -257985 -83269 5175 1;
#X floatatom 95 176 5 0 0 0 - - -;
#X floatatom -51 162 5 0 0 0 - - -;
#N canvas 513 224 283 300 samplegrain 0;
#X obj 13 245 *~;
#X obj 65 172 +~;
#X obj 65 82 *~;
#X obj 13 174 -~ 0.5;
#X obj 13 194 *~ 0.5;
#X obj 13 214 cos~;
#X obj 64 103 *~ 44100;
#X obj 13 267 outlet~;
#X obj 13 13 inlet~ phase;
#X obj 81 150 inlet~ position;
#X obj 81 59 sig~;
#X obj 81 35 r \$0-chunk-size;
#X obj 65 193 tabread4~ \$0-sample;
#X connect 0 0 7 0;
#X connect 1 0 12 0;
#X connect 2 0 6 0;
#X connect 3 0 4 0;
#X connect 4 0 5 0;
#X connect 5 0 0 0;
#X connect 6 0 1 0;
#X connect 8 0 3 0;
#X connect 8 0 2 0;
#X connect 9 0 1 1;
#X connect 10 0 2 1;
#X connect 11 0 10 0;
#X connect 12 0 0 1;
#X restore -137 467 pd samplegrain;
#X obj 149 340 *~ 0.9;
#X obj -314 56 soundfiler;
#X obj -314 8 pack s \$0;
#X msg -314 32 read -resize \$1 \$2-sample;
#X obj -314 -17 openpanel;
#X obj -314 -42 r \$0-open;
#X obj -161 293 s \$0-chunk-size;
#X obj -56 270 r \$0-chunk-size;
#X obj 65 269 s \$0-speed;
#X obj -468 397 s~ \$0-position;
#X obj -63 429 r~ \$0-position;
#X obj 60 422 r~ \$0-position;
#X obj -306 87 s \$0-filesize;
#X obj -475 128 r \$0-filesize;
#X obj -475 195 r \$0-speed;
#X obj -475 301 r \$0-filesize;
#X msg -105 5 0;
#X obj -151 -43 loadbang;
#X msg -63 3 1;
#X floatatom -310 338 5 0 0 0 - - -;
#X obj 5 15 vsl 25 45 0 127 0 0 \$0-blah \$0-blahblah Vol 4 25 0 10
-204800 -4160 -16662 3465 1;
#X obj 38 32 hsl 70 12 -2 2 0 1 \$0-blah \$0-pitch-r pitch:0 0 6 0
9 -261682 -260097 -86853 3450 1;
#X obj 122 247 s \$0-speed-r;
#X msg 120 227 label \$1;
#X obj 121 206 makefilename speed:%d;
#X msg -46 225 label \$1;
#X obj -44 245 s \$0-pitch-r;
#X obj -45 204 makefilename pitch:%d;
#X msg -238 193 label \$1;
#X obj -237 172 makefilename chunk-s:%d;
#X obj -236 213 s \$0-chunk-r;
#X obj -11 -131 inlet;
#X msg -148 6 0.5;
#X floatatom 298 77 5 0 0 0 - - -;
#X msg 293 161 label \$1;
#X obj 295 181 s \$0-pan-r;
#X obj 299 95 * 100;
#X obj 298 115 - 50;
#X obj 294 140 makefilename L<%d>R;
#X obj 3 83 nbx 2 12 -1e+37 1e+37 0 0 empty empty empty 0 -8 0 10 -204800
-13330 -13330 100.012 256;
#X obj 155 308 / 100;
#X obj -431 27 splitfilename /;
#X obj -429 55 outlet;
#X msg -46 -24 100;
#X obj 191 -85 inlet;
#X obj -21 -104 sel 0;
#X obj -29 -78 t f b f;
#X floatatom 72 -24 5 0 0 0 - - -;
#X connect 5 0 11 0;
#X connect 5 1 11 1;
#X connect 6 0 7 0;
#X connect 7 0 23 0;
#X connect 8 0 13 0;
#X connect 9 0 36 0;
#X connect 10 0 11 0;
#X connect 10 1 11 2;
#X connect 11 0 14 0;
#X connect 13 0 30 0;
#X connect 14 0 6 0;
#X connect 14 0 29 0;
#X connect 15 0 16 0;
#X connect 16 0 9 0;
#X connect 16 0 59 0;
#X connect 17 0 25 0;
#X connect 18 0 17 0;
#X connect 19 0 18 0;
#X connect 20 0 24 0;
#X connect 21 0 20 0;
#X connect 22 0 20 1;
#X connect 23 0 8 1;
#X connect 24 0 19 0;
#X connect 25 0 39 0;
#X connect 26 0 27 0;
#X connect 27 0 10 0;
#X connect 27 0 38 0;
#X connect 27 0 54 0;
#X connect 28 0 11 0;
#X connect 28 0 57 0;
#X connect 29 0 8 0;
#X connect 30 0 4 0;
#X connect 31 0 42 0;
#X connect 32 0 33 0;
#X connect 33 0 31 0;
#X connect 34 0 32 0;
#X connect 34 0 71 0;
#X connect 35 0 34 0;
#X connect 37 0 5 0;
#X connect 40 0 29 1;
#X connect 41 0 23 1;
#X connect 43 0 22 0;
#X connect 44 0 24 1;
#X connect 45 0 17 1;
#X connect 46 0 51 0;
#X connect 47 0 46 0;
#X connect 47 0 48 0;
#X connect 47 0 62 0;
#X connect 47 0 73 0;
#X connect 48 0 26 0;
#X connect 50 0 69 0;
#X connect 51 0 28 0;
#X connect 53 0 52 0;
#X connect 54 0 53 0;
#X connect 55 0 56 0;
#X connect 57 0 55 0;
#X connect 58 0 60 0;
#X connect 59 0 58 0;
#X connect 61 0 75 0;
#X connect 63 0 66 0;
#X connect 64 0 65 0;
#X connect 66 0 67 0;
#X connect 67 0 68 0;
#X connect 68 0 64 0;
#X connect 69 0 70 0;
#X connect 70 0 30 1;
#X connect 71 1 72 0;
#X connect 73 0 50 0;
#X connect 74 0 21 0;
#X connect 75 1 76 0;
#X connect 76 1 21 0;
#X connect 76 2 77 0;
#X connect 77 0 70 0;
#X connect 77 0 50 0;
#X coords 0 1 100 -1 121 77 2 0 0;
#X restore 101 126 graph;
#X obj 55 -38 inlet;
#X obj 34 138 outlet;
#X obj 106 282 outlet~;
#X obj 100 101 cnv 25 121 26 empty empty empty 20 12 0 14 -1 -66577
0;
#X obj 103 103 bng 20 250 50 0 \$0-open \$0oazijdx L 4 10 0 18 -262144
-1 -1;
#X obj 198 103 bng 20 250 50 0 \$0azijdfc \$0ujazd P 4 10 0 18 -262144
-1 -1;
#X connect 0 0 2 0;
#X connect 0 1 3 0;
#X connect 1 0 0 0;
#X connect 6 0 0 1;
#X coords 0 -1 1 1 122 104 2 100 100;
