#N canvas 224 22 800 532 10;
#X obj 100 100 cnv 15 120 70 empty empty empty 20 12 0 14 -1 -66577
0;
#X text 420 330 Pitch;
#X text 458 330 Speed;
#X text 335 328 Pos Chunksize;
#X obj 7 659 equal_power_pan~;
#X obj 145 156 hsl 70 12 0 1 0 1 \$0-blah \$0-pan-r L<0>R 13 6 0 9
-203904 -1 -1 3450 0;
#X obj -2 710 outlet~;
#X obj 99 707 outlet~;
#X obj 44 390 t b f;
#X obj 72 473 +~ 0.5;
#X obj 73 493 wrap~;
#X obj 7 595 +~;
#X obj -61 365 * 0.001;
#X obj 157 389 t b f;
#X obj 32 422 expr (pow(2 \, $f1/120)-$f3)/$f2;
#X obj 143 101 bng 15 250 50 0 \$0-open empty LOAD 20 9 0 10 -66577
-260097 -260097;
#N canvas 0 22 450 300 (subpatch) 0;
#X array \$0-sample 341073 float 2;
#X coords 0 1 341073 -1 75 75 1;
#X restore 148 10 graph;
#X obj 8 616 hip~ 1;
#X obj 32 448 phasor~;
#X obj 145 143 hsl 70 12 0 100 0 1 \$0-blah \$0-chunk-r chunk-s:20
0 6 0 9 -261234 -258113 -86277 1400 1;
#X floatatom -139 211 5 0 0 0 - - -;
#X obj -391 420 *~;
#X obj -391 354 vline~;
#X msg -391 332 0 \, 1 \$1 0;
#X obj -391 269 f;
#X msg -391 201 bang;
#X obj -375 246 * 0.0226757;
#N canvas 432 239 209 273 samplegrain 0;
#X obj 0 232 *~;
#X obj 52 159 +~;
#X obj 52 69 *~;
#X obj 0 161 -~ 0.5;
#X obj 0 181 *~ 0.5;
#X obj 0 201 cos~;
#X obj 51 90 *~ 44100;
#X obj 0 254 outlet~;
#X obj 0 0 inlet~ phase;
#X obj 68 137 inlet~ position;
#X obj 68 46 sig~;
#X obj 68 22 r \$0-chunk-size;
#X obj 52 180 tabread4~ \$0-sample;
#X connect 0 0 7 0;
#X connect 1 0 12 0;
#X connect 2 0 6 0;
#X connect 3 0 4 0;
#X connect 4 0 5 0;
#X connect 5 0 0 0;
#X connect 6 0 1 0;
#X connect 8 0 3 0;
#X connect 8 0 2 0;
#X connect 9 0 1 1;
#X connect 10 0 2 1;
#X connect 11 0 10 0;
#X connect 12 0 0 1;
#X restore 73 562 pd samplegrain;
#X obj -391 311 /;
#X obj -391 443 *~ 1;
#X obj 145 117 hsl 70 12 -2 2 0 1 \$0-blah \$0-speed-r speed:1 0 6
0 9 -262130 -257985 -83269 5175 1;
#X floatatom 195 271 5 0 0 0 - - -;
#X floatatom 49 257 5 0 0 0 - - -;
#N canvas 513 224 283 300 samplegrain 0;
#X obj 13 245 *~;
#X obj 65 172 +~;
#X obj 65 82 *~;
#X obj 13 174 -~ 0.5;
#X obj 13 194 *~ 0.5;
#X obj 13 214 cos~;
#X obj 64 103 *~ 44100;
#X obj 13 267 outlet~;
#X obj 13 13 inlet~ phase;
#X obj 81 150 inlet~ position;
#X obj 81 59 sig~;
#X obj 81 35 r \$0-chunk-size;
#X obj 65 193 tabread4~ \$0-sample;
#X connect 0 0 7 0;
#X connect 1 0 12 0;
#X connect 2 0 6 0;
#X connect 3 0 4 0;
#X connect 4 0 5 0;
#X connect 5 0 0 0;
#X connect 6 0 1 0;
#X connect 8 0 3 0;
#X connect 8 0 2 0;
#X connect 9 0 1 1;
#X connect 10 0 2 1;
#X connect 11 0 10 0;
#X connect 12 0 0 1;
#X restore -37 562 pd samplegrain;
#X obj 249 435 *~ 0.9;
#X obj -214 151 soundfiler;
#X obj -214 103 pack s \$0;
#X msg -214 127 read -resize \$1 \$2-sample;
#X obj -214 78 openpanel;
#X obj -214 53 r \$0-open;
#X obj -61 388 s \$0-chunk-size;
#X obj 44 365 r \$0-chunk-size;
#X obj 165 364 s \$0-speed;
#X obj -368 492 s~ \$0-position;
#X obj 37 524 r~ \$0-position;
#X obj 160 517 r~ \$0-position;
#X obj -206 182 s \$0-filesize;
#X obj -375 223 r \$0-filesize;
#X obj -375 290 r \$0-speed;
#X obj -375 396 r \$0-filesize;
#X msg -5 100 0;
#X obj -51 52 loadbang;
#X msg 37 98 1;
#X obj -390 62 inlet;
#X floatatom -210 433 5 0 0 0 - - -;
#X obj 103 106 vsl 25 45 0 127 0 0 \$0-blah \$0-blahblah Vol 4 25 0
10 -204800 -4160 -16662 0 1;
#X obj 64 45 bng 15 250 50 0 empty empty PLAY 20 9 0 10 -66577 -260097
-260097;
#X obj 145 130 hsl 70 12 -2 2 0 1 \$0-blah \$0-pitch-r pitch:0 0 6
0 9 -261682 -260097 -86853 3450 1;
#X obj 222 342 s \$0-speed-r;
#X msg 220 322 label \$1;
#X obj 221 301 makefilename speed:%d;
#X msg 54 320 label \$1;
#X obj 56 340 s \$0-pitch-r;
#X obj 55 299 makefilename pitch:%d;
#X msg -138 288 label \$1;
#X obj -137 267 makefilename chunk-s:%d;
#X obj -136 308 s \$0-chunk-r;
#X obj 281 80 inlet;
#X msg -48 101 0.5;
#X floatatom 266 231 5 0 0 0 - - -;
#X msg 393 256 label \$1;
#X obj 395 276 s \$0-pan-r;
#X obj 267 249 * 100;
#X obj 266 269 - 50;
#X obj 394 235 makefilename L<%d>R;
#X obj 103 156 nbx 2 12 -1e+37 1e+37 0 0 empty empty empty 0 -8 0 10
-204800 -13330 -13330 0 256;
#X obj 255 403 / 100;
#X connect 4 0 6 0;
#X connect 4 1 7 0;
#X connect 5 0 4 1;
#X connect 5 0 69 0;
#X connect 8 0 14 0;
#X connect 8 1 14 1;
#X connect 9 0 10 0;
#X connect 10 0 27 0;
#X connect 11 0 17 0;
#X connect 12 0 40 0;
#X connect 13 0 14 0;
#X connect 13 1 14 2;
#X connect 14 0 18 0;
#X connect 17 0 34 0;
#X connect 18 0 9 0;
#X connect 18 0 33 0;
#X connect 19 0 20 0;
#X connect 20 0 12 0;
#X connect 20 0 65 0;
#X connect 21 0 29 0;
#X connect 22 0 21 0;
#X connect 23 0 22 0;
#X connect 24 0 28 0;
#X connect 25 0 24 0;
#X connect 26 0 24 1;
#X connect 27 0 11 1;
#X connect 28 0 23 0;
#X connect 29 0 43 0;
#X connect 30 0 31 0;
#X connect 31 0 13 0;
#X connect 31 0 42 0;
#X connect 31 0 60 0;
#X connect 32 0 14 0;
#X connect 32 0 63 0;
#X connect 33 0 11 0;
#X connect 34 0 4 0;
#X connect 35 0 46 0;
#X connect 36 0 37 0;
#X connect 37 0 35 0;
#X connect 38 0 36 0;
#X connect 39 0 38 0;
#X connect 41 0 8 0;
#X connect 44 0 33 1;
#X connect 45 0 27 1;
#X connect 47 0 26 0;
#X connect 48 0 28 1;
#X connect 49 0 21 1;
#X connect 50 0 57 0;
#X connect 51 0 50 0;
#X connect 51 0 52 0;
#X connect 51 0 68 0;
#X connect 52 0 30 0;
#X connect 53 0 56 0;
#X connect 55 0 75 0;
#X connect 56 0 25 0;
#X connect 57 0 32 0;
#X connect 59 0 58 0;
#X connect 60 0 59 0;
#X connect 61 0 62 0;
#X connect 63 0 61 0;
#X connect 64 0 66 0;
#X connect 65 0 64 0;
#X connect 67 0 55 0;
#X connect 68 0 5 0;
#X connect 69 0 72 0;
#X connect 70 0 71 0;
#X connect 72 0 73 0;
#X connect 73 0 74 0;
#X connect 74 0 70 0;
#X connect 75 0 76 0;
#X connect 76 0 34 0;
#X coords 0 -1 1 1 120 70 2 100 100;
