#N canvas 87 22 893 615 10;
#N canvas 424 366 478 366 pmosc 0;
#X obj 119 199 cos~;
#X obj 119 167 +~;
#X obj 120 273 outlet~;
#X obj 119 115 phasor~;
#X obj 119 86 inlet~;
#X obj 136 146 inlet~;
#X obj 160 199 inlet~;
#X obj 120 236 *~;
#X text 38 21 phase-modulation oscillator;
#X text 38 57 signal inlets: 1: freq \, 2: phase \, 3: amp;
#X connect 0 0 7 0;
#X connect 1 0 0 0;
#X connect 3 0 1 0;
#X connect 4 0 3 0;
#X connect 5 0 1 1;
#X connect 6 0 7 1;
#X connect 7 0 2 0;
#X restore 270 352 pd pmosc;
#N canvas 424 366 478 366 pmosc 0;
#X obj 119 199 cos~;
#X obj 119 167 +~;
#X obj 120 273 outlet~;
#X obj 119 115 phasor~;
#X obj 119 86 inlet~;
#X obj 136 146 inlet~;
#X obj 160 199 inlet~;
#X obj 120 236 *~;
#X text 38 21 phase-modulation oscillator;
#X text 38 57 signal inlets: 1: freq \, 2: phase \, 3: amp;
#X connect 0 0 7 0;
#X connect 1 0 0 0;
#X connect 3 0 1 0;
#X connect 4 0 3 0;
#X connect 5 0 1 1;
#X connect 6 0 7 1;
#X connect 7 0 2 0;
#X restore 245 396 pd pmosc;
#N canvas 424 366 478 366 pmosc 0;
#X obj 119 199 cos~;
#X obj 119 167 +~;
#X obj 120 273 outlet~;
#X obj 119 115 phasor~;
#X obj 119 86 inlet~;
#X obj 136 146 inlet~;
#X obj 160 199 inlet~;
#X obj 120 236 *~;
#X text 38 21 phase-modulation oscillator;
#X text 38 57 signal inlets: 1: freq \, 2: phase \, 3: amp;
#X connect 0 0 7 0;
#X connect 1 0 0 0;
#X connect 3 0 1 0;
#X connect 4 0 3 0;
#X connect 5 0 1 1;
#X connect 6 0 7 1;
#X connect 7 0 2 0;
#X restore 136 354 pd pmosc;
#N canvas 424 366 478 366 pmosc 0;
#X obj 119 199 cos~;
#X obj 119 167 +~;
#X obj 120 273 outlet~;
#X obj 119 115 phasor~;
#X obj 119 86 inlet~;
#X obj 136 146 inlet~;
#X obj 160 199 inlet~;
#X obj 120 236 *~;
#X text 38 21 phase-modulation oscillator;
#X text 38 57 signal inlets: 1: freq \, 2: phase \, 3: amp;
#X connect 0 0 7 0;
#X connect 1 0 0 0;
#X connect 3 0 1 0;
#X connect 4 0 3 0;
#X connect 5 0 1 1;
#X connect 6 0 7 1;
#X connect 7 0 2 0;
#X restore 109 399 pd pmosc;
#X obj 108 219 mtof;
#X obj 397 149 * 0.535887;
#X obj 667 149 * 0.108819;
#X obj 671 281 / 127;
#X obj 397 286 / 127;
#X obj 397 127 / 127;
#X obj 397 172 t a a;
#X obj 397 308 t a a;
#X obj 671 303 t a a;
#X obj 667 169 t a a;
#X obj 667 123 / 127;
#X obj 671 253 r \$0-vel;
#X obj 667 94 r \$0-vel;
#X obj 397 258 r \$0-vel;
#X obj 397 101 r \$0-vel;
#X obj 144 29 s \$0-vel;
#X text 310 371 op 4;
#X text 277 413 op 3;
#X text 144 417 op 1;
#X text 169 370 op 2;
#X text 791 216 op 4;
#X text 819 324 op 3;
#X text 572 330 op 1;
#X text 573 198 op 2;
#X text 380 -44 Clone of the STK Rhodey;
#N canvas 29 43 450 300 vib 0;
#X obj 144 64 inlet~;
#X obj 145 210 outlet~;
#X obj 144 168 +~;
#X obj 200 95 osc~ 0;
#X obj 200 64 inlet;
#X obj 281 65 inlet;
#X obj 199 123 *~ 0;
#X connect 0 0 2 0;
#X connect 2 0 1 0;
#X connect 3 0 6 0;
#X connect 4 0 3 0;
#X connect 5 0 6 1;
#X connect 6 0 2 1;
#X restore 108 278 pd vib;
#X obj 270 326 * 15;
#X obj 136 330 * 0.5;
#X obj 561 112 / 127;
#X obj 666 222 *~ 1;
#X obj 397 221 *~ 1;
#X obj 135 376 *~ 1;
#X obj 150 220 r vib-freq;
#X obj 162 243 r vib-depth;
#X obj 182 310 r mod;
#X obj 144 -48 r voice-\$1;
#X obj 108 523 throw~ out;
#X obj 561 88 r adsr24;
#X obj 479 173 r decay;
#X obj 479 301 r decay;
#X obj 108 76 loadbang;
#X obj 245 142 0;
#X obj 289 182 switch~;
#X obj 107 191 \$1;
#X obj 245 116 del 42;
#X obj 144 -19 t f f;
#X obj 245 12 !=;
#X msg 316 85 stop;
#X obj 245 43 select 0;
#X obj 289 63 t f b;
#X text 380 -24 from RjDj/lib;
#X obj 107 101 t b b;
#X obj 397 199 z_c_adsr 1 1 1500 0 40;
#X obj 667 197 z_c_adsr 1 1 1000 0 40;
#X obj 397 334 z_c_adsr 1 1 1500 50 40;
#X obj 671 330 z_c_adsr 1 1 250 40 40;
#X connect 0 0 1 1;
#X connect 1 0 40 0;
#X connect 2 0 35 0;
#X connect 3 0 40 0;
#X connect 4 0 29 0;
#X connect 4 0 30 0;
#X connect 4 0 31 0;
#X connect 5 0 10 0;
#X connect 6 0 13 0;
#X connect 7 0 12 0;
#X connect 8 0 11 0;
#X connect 9 0 5 0;
#X connect 10 0 56 0;
#X connect 10 1 56 1;
#X connect 11 0 58 0;
#X connect 11 1 58 1;
#X connect 12 0 59 0;
#X connect 12 1 59 1;
#X connect 13 0 57 0;
#X connect 13 1 57 1;
#X connect 14 0 6 0;
#X connect 15 0 7 0;
#X connect 16 0 14 0;
#X connect 17 0 8 0;
#X connect 18 0 9 0;
#X connect 29 0 3 0;
#X connect 29 0 1 0;
#X connect 30 0 0 0;
#X connect 31 0 2 0;
#X connect 32 0 33 1;
#X connect 32 0 34 1;
#X connect 33 0 0 2;
#X connect 34 0 2 2;
#X connect 35 0 3 1;
#X connect 36 0 29 1;
#X connect 37 0 29 2;
#X connect 38 0 35 1;
#X connect 39 0 49 0;
#X connect 41 0 32 0;
#X connect 42 0 56 3;
#X connect 43 0 58 3;
#X connect 44 0 55 0;
#X connect 45 0 46 0;
#X connect 47 0 4 0;
#X connect 48 0 45 0;
#X connect 49 0 19 0;
#X connect 49 1 50 0;
#X connect 50 0 52 0;
#X connect 51 0 48 0;
#X connect 52 0 48 0;
#X connect 52 1 53 0;
#X connect 53 0 46 0;
#X connect 53 1 51 0;
#X connect 55 0 47 0;
#X connect 55 1 45 0;
#X connect 56 0 34 0;
#X connect 57 0 33 0;
#X connect 58 0 3 2;
#X connect 59 0 1 2;
