#N canvas 0 22 879 443 10;
#X declare -path z_rjdj_abs;
#N canvas 268 147 756 534 engine 0;
#X obj 179 259 cos~;
#X obj 179 282 +~ 1;
#X obj 266 258 cos~;
#X obj 266 281 +~ 1;
#X obj 179 425 outlet~;
#X obj 266 426 outlet~;
#X obj 365 257 cos~;
#X obj 365 280 +~ 1;
#X obj 460 255 cos~;
#X obj 460 278 +~ 1;
#X obj 14 32 inlet~;
#X obj 535 284 line~;
#X obj 535 263 pack 0 50;
#X obj 460 339 *~;
#X obj 365 341 *~;
#X obj 266 342 *~;
#X obj 179 343 *~;
#X obj 180 94 line~;
#X obj 180 73 pack 0 50;
#X obj 179 124 phasor~;
#X obj 365 424 outlet~;
#X obj 460 421 outlet~;
#X text 609 238 modulation;
#X obj 179 404 vd~ \$0-c;
#X obj 266 404 vd~ \$0-c;
#X obj 365 402 vd~ \$0-c;
#X obj 460 400 vd~ \$0-c;
#X obj 180 28 r \$0-freq;
#X obj 535 239 r \$0-mod;
#X obj 460 376 +~ 0;
#X obj 366 376 +~ 0;
#X obj 266 379 +~ 0;
#X obj 180 376 +~ 0;
#N canvas 314 253 450 300 sampledur 0;
#X obj 70 100 samplerate~;
#X obj 70 144 swap 1000;
#X obj 70 172 /;
#X obj 70 51 loadbang;
#X msg 82 77 bang;
#X obj 70 205 outlet;
#X connect 0 0 1 0;
#X connect 1 0 2 0;
#X connect 1 1 2 1;
#X connect 2 0 5 0;
#X connect 3 0 0 0;
#X connect 4 0 0 0;
#X restore 546 343 pd sampledur;
#X obj 14 91 delwrite~ \$0-c 2000;
#X obj 14 63 *~ 0.5;
#X obj 525 198 loadbang;
#X obj 525 220 0.2;
#X obj 266 214 wrap~;
#X obj 364 218 wrap~;
#X obj 459 218 wrap~;
#X obj 180 51 / 8;
#X text 177 7 frequency;
#X obj 266 193 *~ 2;
#X obj 364 197 *~ 4;
#X obj 459 197 *~ 8;
#X connect 0 0 1 0;
#X connect 1 0 16 0;
#X connect 2 0 3 0;
#X connect 3 0 15 0;
#X connect 6 0 7 0;
#X connect 7 0 14 0;
#X connect 8 0 9 0;
#X connect 9 0 13 0;
#X connect 10 0 35 0;
#X connect 11 0 13 1;
#X connect 11 0 14 1;
#X connect 11 0 15 1;
#X connect 11 0 16 1;
#X connect 12 0 11 0;
#X connect 13 0 29 0;
#X connect 14 0 30 0;
#X connect 15 0 31 0;
#X connect 16 0 32 0;
#X connect 17 0 19 0;
#X connect 18 0 17 0;
#X connect 19 0 0 0;
#X connect 19 0 43 0;
#X connect 19 0 44 0;
#X connect 19 0 45 0;
#X connect 23 0 4 0;
#X connect 24 0 5 0;
#X connect 25 0 20 0;
#X connect 26 0 21 0;
#X connect 27 0 41 0;
#X connect 28 0 12 0;
#X connect 29 0 26 0;
#X connect 30 0 25 0;
#X connect 31 0 24 0;
#X connect 32 0 23 0;
#X connect 33 0 29 1;
#X connect 33 0 30 1;
#X connect 33 0 31 1;
#X connect 33 0 32 1;
#X connect 35 0 34 0;
#X connect 36 0 37 0;
#X connect 37 0 11 0;
#X connect 38 0 2 0;
#X connect 39 0 6 0;
#X connect 40 0 8 0;
#X connect 41 0 18 0;
#X connect 43 0 38 0;
#X connect 44 0 39 0;
#X connect 45 0 40 0;
#X restore 118 138 pd engine;
#X obj 118 113 inlet~;
#X obj 118 245 outlet~;
#X obj 177 245 outlet~;
#X obj 347 115 inlet;
#X obj 583 100 loadbang;
#X msg 583 125 freq 0.8 \, mod 1.8;
#X text 111 52 another simple chorus. This is a Roland design with
delays driven by frequency dividers at 1 \, 1/2 \, 1/4 \, 1/8 times
the base chorus frequency instead of phase shifters.;
#N canvas 172 83 586 377 LICENSE-GPL 0;
#X text 57 88 This program is free software: you can redistribute it
and/or modify it under the terms of the GNU General Public License
as published by the Free Software Foundation \, either version 3 of
the License \, or (at your option) any later version.;
#X text 58 168 This program is distributed in the hope that it will
be useful \, but WITHOUT ANY WARRANTY \; without even the implied warranty
of MERCHANTABILITY or FITNESS FOR A PARTICULAR PURPOSE. See the GNU
General Public License for more details.;
#X text 57 261 You should have received a copy of the GNU General Public
License along with this program. If not \, see <http://www.gnu.org/licenses/>.
;
#X text 61 54 Copyright (C) 2009 \, Reality Jockey Ltd.;
#X text 60 325 See the file LICENSE.txt for the full license text.
;
#X restore 602 39 pd LICENSE-GPL;
#X obj 404 114 z-u_loader e_rchorus-\$1 \$0;
#X obj 347 142 z-u_dispatch \$0 freq;
#X obj 347 164 z-u_dispatch \$0 mod;
#N canvas 537 164 740 697 REFERENCE 0;
#X text 114 174 Argument 0: name for state saving (required);
#X text 114 214 Inlet 0: audio signal to apply effect on;
#X text 114 234 Inlet 1: method messages. freq <f>: chorus frequency
in Hz. mod <depth>: modulation depth;
#X text 114 267 Outlet 0: chorussed audio signal.;
#X text 122 529 Tags: chorus \, effect;
#X text 114 141 Summary: stereo chorus effect with Roland design;
#X text 113 296 Description: a simple stereo chorus effect. Has four
delay lines inside that are driven by frequency dividers at 1 \, 1/2
\, 1/4 \, 1/8 times the base chorus frequency instead of phase shifters.
This is a design used in some Roland effect units. Default settings
are freq 0.8 \, mod 1.8.;
#X text 114 121 Name: e_chorusr;
#X coords 0 -1 1 1 450 450 1 100 100;
#X restore -368 43 pd REFERENCE;
#X text -362 6 e_chorusr - stereo chorus effect with Roland design
;
#N canvas 0 22 450 300 HowTO 0;
#X msg 160 199 help;
#X msg 215 121 mod \$1;
#X msg 149 120 freq \$1;
#X obj 215 98 / 100;
#X floatatom 215 78 5 0 0 2 mod - -;
#X obj 149 98 / 100;
#X floatatom 149 78 5 0 0 2 freq - -;
#X floatatom 27 88 5 0 0 2 pitch - -;
#N canvas 0 22 690 655 guitar 0;
#X obj 132 187 vline~;
#X obj 150 209 noise~;
#X obj 131 311 *~;
#X msg 132 162 0.8 10 \, 0 20 10;
#X msg 274 296 delayfreq \$1;
#X obj 274 255 mtof;
#X obj 132 77 inlet;
#X obj 130 426 outlet~;
#X obj 299 332 loadbang;
#X obj 150 238 bp~ 3000 7;
#X obj 164 266 bp~ 5107 10;
#X obj 132 99 t b a;
#X obj 130 397 e_fbdelay guitar 2000;
#X text 316 76 Karplus-Strong pluck;
#X msg 299 357 feedback 0.99999 \, lpfreq 3200;
#X connect 0 0 2 0;
#X connect 1 0 9 0;
#X connect 1 0 10 0;
#X connect 2 0 12 0;
#X connect 3 0 0 0;
#X connect 4 0 12 2;
#X connect 5 0 4 0;
#X connect 6 0 11 0;
#X connect 8 0 14 0;
#X connect 9 0 2 1;
#X connect 10 0 2 1;
#X connect 11 0 3 0;
#X connect 11 1 5 0;
#X connect 12 0 7 0;
#X connect 14 0 12 2;
#X restore 27 105 pd guitar;
#X msg 217 163 freq 0.8 \, mod 1.3;
#X obj 217 143 loadbang;
#X obj 26 192 e_chorusr mychorus;
#X connect 0 0 11 1;
#X connect 1 0 11 1;
#X connect 2 0 11 1;
#X connect 3 0 1 0;
#X connect 4 0 3 0;
#X connect 5 0 2 0;
#X connect 6 0 5 0;
#X connect 7 0 8 0;
#X connect 8 0 11 0;
#X connect 9 0 11 1;
#X connect 10 0 9 0;
#X restore -30 53 pd HowTO;
#X obj 98 34 declare -path z_rjdj_abs;
#X connect 0 0 2 0;
#X connect 0 1 3 0;
#X connect 0 2 2 0;
#X connect 0 3 3 0;
#X connect 1 0 0 0;
#X connect 4 0 10 0;
#X connect 5 0 6 0;
#X connect 6 0 10 0;
#X connect 10 0 11 0;
