#N canvas 0 22 450 300 10;
#X obj 133 58 inlet~;
#X obj 130 289 outlet~;
#X obj 188 225 *~ 0.7;
#X obj 188 196 delread~ \$0-mdel 6000;
#X obj 191 57 inlet;
#X obj 189 82 route delay feedback;
#X obj 256 146 * 0.01;
#X obj 256 103 min 100;
#X obj 257 123 max 0;
#X obj 308 147 float \$1;
#X obj 371 147 float \$2;
#X obj 186 271 delwrite~ \$0-mdel \$1;
#X obj 361 117 loadbang;
#X obj 188 246 lop~ 4000;
#X connect 0 0 1 0;
#X connect 0 0 11 0;
#X connect 2 0 13 0;
#X connect 3 0 2 0;
#X connect 3 0 1 0;
#X connect 4 0 5 0;
#X connect 5 0 3 0;
#X connect 5 1 7 0;
#X connect 6 0 2 1;
#X connect 7 0 8 0;
#X connect 8 0 6 0;
#X connect 9 0 3 0;
#X connect 10 0 2 1;
#X connect 12 0 9 0;
#X connect 12 0 10 0;
#X connect 13 0 11 0;
