#N canvas 412 121 829 523 10;
#X obj 314 185 *~;
#X obj 71 119 vsl 10 50 0 1 0 0 empty empty empty 0 -8 0 8 -44926 -1
-1 4900 1;
#X obj 314 148 osc~;
#X obj 354 287 *~;
#X obj 87 119 vsl 10 50 0 1 0 0 empty empty empty 0 -8 0 8 -44926 -1
-1 400 1;
#X obj 353 151 osc~;
#X obj 389 287 *~;
#X obj 102 119 vsl 10 50 0 1 0 0 empty empty empty 0 -8 0 8 -44926
-1 -1 700 1;
#X obj 387 151 osc~;
#X obj 420 287 *~;
#X obj 117 118 vsl 10 50 0 1 0 0 empty empty empty 0 -8 0 8 -44926
-1 -1 1800 1;
#X obj 419 151 osc~;
#X obj 453 287 *~;
#X obj 132 118 vsl 10 50 0 1 0 0 empty empty empty 0 -8 0 8 -44926
-1 -1 1200 1;
#X obj 452 151 osc~;
#X obj 486 287 *~;
#X obj 149 118 vsl 10 50 0 1 0 0 empty empty empty 0 -8 0 8 -44926
-1 -1 4300 1;
#X obj 485 151 osc~;
#X obj 353 120 *;
#X msg 443 69 2;
#X obj 387 120 *;
#X obj 419 120 *;
#X obj 452 120 *;
#X obj 485 120 *;
#X obj 522 286 *~;
#X obj 521 150 osc~;
#X obj 554 285 *~;
#X obj 553 149 osc~;
#X obj 521 119 *;
#X obj 553 118 *;
#X obj 325 381 outlet~;
#X obj 165 118 vsl 10 50 0 1 0 0 empty empty empty 0 -8 0 8 -44926
-1 -1 4200 1;
#X obj 182 118 vsl 10 50 0 1 0 0 empty empty empty 0 -8 0 8 -44926
-1 -1 2300 1;
#X obj -26 72 inlet;
#X obj 15 72 inlet;
#X obj 58 72 inlet;
#X obj 100 72 inlet;
#X obj 143 72 inlet;
#X obj 185 72 inlet;
#X obj 227 72 inlet;
#X obj 269 72 inlet;
#X obj 317 -20 inlet;
#X text -34 124 level for;
#X text -38 134 each harmonic;
#X text 576 133 cascade of X2;
#X text -3 9 1st inlet: general frequency;
#X text -10 21 other inlets: volume of each harmonic;
#X text -42 144 values from 0;
#X text -41 154 to 1;
#X floatatom 262 16 5 0 0 0 - - -;
#X connect 0 0 30 0;
#X connect 1 0 0 1;
#X connect 2 0 0 0;
#X connect 3 0 30 0;
#X connect 4 0 3 1;
#X connect 5 0 3 0;
#X connect 6 0 30 0;
#X connect 7 0 6 1;
#X connect 8 0 6 0;
#X connect 9 0 30 0;
#X connect 10 0 9 1;
#X connect 11 0 9 0;
#X connect 12 0 30 0;
#X connect 13 0 12 1;
#X connect 14 0 12 0;
#X connect 15 0 30 0;
#X connect 16 0 15 1;
#X connect 17 0 15 0;
#X connect 18 0 5 0;
#X connect 18 0 20 0;
#X connect 19 0 18 1;
#X connect 19 0 20 1;
#X connect 19 0 21 1;
#X connect 19 0 22 1;
#X connect 19 0 23 1;
#X connect 19 0 28 1;
#X connect 19 0 29 1;
#X connect 20 0 8 0;
#X connect 20 0 21 0;
#X connect 21 0 11 0;
#X connect 21 0 22 0;
#X connect 22 0 14 0;
#X connect 22 0 23 0;
#X connect 23 0 17 0;
#X connect 23 0 28 0;
#X connect 24 0 30 0;
#X connect 25 0 24 0;
#X connect 26 0 30 0;
#X connect 27 0 26 0;
#X connect 28 0 25 0;
#X connect 28 0 29 0;
#X connect 29 0 27 0;
#X connect 31 0 24 1;
#X connect 32 0 26 1;
#X connect 33 0 1 0;
#X connect 34 0 4 0;
#X connect 35 0 7 0;
#X connect 36 0 10 0;
#X connect 37 0 13 0;
#X connect 38 0 16 0;
#X connect 39 0 31 0;
#X connect 40 0 32 0;
#X connect 41 0 2 0;
#X connect 41 0 18 0;
#X connect 41 0 19 0;
#X connect 41 0 49 0;
