#N canvas 0 0 737 721 10;
#N canvas 459 255 586 471 filter 0;
#X obj 46 34 inlet~;
#X obj 46 424 outlet~;
#X obj 46 394 biquad~;
#X obj 66 124 lowpass;
#X obj 66 94 t b f;
#X obj 96 34 inlet freq;
#X obj 166 34 inlet q;
#X obj 136 124 highpass;
#X obj 216 124 bandpass;
#X obj 136 94 t b f;
#X obj 216 94 t b f;
#X obj 296 84 sel 0 1 2;
#X obj 66 324 spigot;
#X obj 99 304 tgl 15 0 empty empty empty 17 7 0 10 -262144 -1 -1 1
1;
#X obj 136 324 spigot;
#X obj 169 304 tgl 15 0 empty empty empty 17 7 0 10 -262144 -1 -1 0
1;
#X obj 216 324 spigot;
#X obj 249 304 tgl 15 0 empty empty empty 17 7 0 10 -262144 -1 -1 0
1;
#X msg 296 150 0;
#X msg 326 150 1;
#X msg 376 150 0;
#X msg 406 150 1;
#X msg 456 150 0;
#X msg 486 150 1;
#X obj 296 34 r \$0-filter_type;
#X obj 406 34 loadbang;
#X connect 0 0 2 0;
#X connect 2 0 1 0;
#X connect 3 0 12 0;
#X connect 4 0 3 0;
#X connect 4 1 3 1;
#X connect 5 0 3 0;
#X connect 5 0 7 0;
#X connect 5 0 8 0;
#X connect 6 0 4 0;
#X connect 6 0 9 0;
#X connect 6 0 10 0;
#X connect 7 0 14 0;
#X connect 8 0 16 0;
#X connect 9 0 7 0;
#X connect 9 1 7 1;
#X connect 10 0 8 0;
#X connect 10 1 8 1;
#X connect 11 0 18 0;
#X connect 11 0 19 0;
#X connect 11 1 20 0;
#X connect 11 1 21 0;
#X connect 11 2 22 0;
#X connect 11 2 23 0;
#X connect 12 0 2 0;
#X connect 13 0 12 1;
#X connect 14 0 2 0;
#X connect 15 0 14 1;
#X connect 16 0 2 0;
#X connect 17 0 16 1;
#X connect 18 0 15 0;
#X connect 18 0 17 0;
#X connect 19 0 13 0;
#X connect 20 0 13 0;
#X connect 20 0 17 0;
#X connect 21 0 15 0;
#X connect 22 0 15 0;
#X connect 22 0 13 0;
#X connect 23 0 17 0;
#X connect 24 0 11 0;
#X connect 25 0 18 0;
#X connect 25 0 19 0;
#X coords 0 0 1 1 160 60 0;
#X restore 500 370 pd filter;
#N canvas 359 222 450 300 samplerate 0;
#X obj 46 34 inlet~;
#X obj 46 244 outlet~;
#X obj 46 114 samphold~;
#X obj 46 214 biquad~;
#X obj 97 84 phasor~;
#X obj 186 84 / 2;
#X obj 186 114 lowpass 0 15;
#X obj 186 14 inlet;
#X obj 186 34 + 250;
#X connect 0 0 2 0;
#X connect 2 0 3 0;
#X connect 3 0 1 0;
#X connect 4 0 2 1;
#X connect 5 0 6 0;
#X connect 6 0 3 0;
#X connect 7 0 8 0;
#X connect 8 0 4 0;
#X connect 8 0 5 0;
#X coords 0 0 1 1 160 40 0;
#X restore 500 300 pd samplerate;
#N canvas 20 116 1221 371 8bit_disto 0;
#X obj 31 116 expr~ $v1 ^ $f2;
#X obj 31 286 expr~ $v1/255*2-1;
#X obj 31 46 expr~ int(($v1*.5+.5)*255);
#X obj 31 256 expr~ $v1 + int($f2 / 2) * $f3;
#X obj 31 216 expr~ ($v1 & (~$f2));
#X obj 30 16 inlet~;
#X obj 31 316 outlet~;
#X obj 208 216 inlet dc;
#X obj 148 186 r \$0-mute_arr;
#X obj 118 96 r \$0-inv_arr;
#X obj 314 242 expr $f1*pow(2 \, 7) + $f2*pow(2 \, 6) + $f3*pow(2 \,
5) +$f4*pow(2 \, 4) + $f5*pow(2 \, 3) + $f6*pow(2 \, 2) + $f7*2 + $f8
;
#X obj 644 192 t b f;
#X obj 593 192 t b f;
#X obj 542 192 t b f;
#X obj 491 192 t b f;
#X obj 440 192 t b f;
#X obj 389 192 t b f;
#X obj 338 192 t b f;
#X obj 314 132 unpack f f f f f f f f;
#X obj 314 102 inlet invert;
#X obj 314 286 s \$0-inv_arr;
#X obj 704 242 expr $f1*pow(2 \, 7) + $f2*pow(2 \, 6) + $f3*pow(2 \,
5) +$f4*pow(2 \, 4) + $f5*pow(2 \, 3) + $f6*pow(2 \, 2) + $f7*2 + $f8
;
#X obj 1034 192 t b f;
#X obj 983 192 t b f;
#X obj 932 192 t b f;
#X obj 881 192 t b f;
#X obj 830 192 t b f;
#X obj 779 192 t b f;
#X obj 728 192 t b f;
#X obj 704 132 unpack f f f f f f f f;
#X obj 704 286 s \$0-mute_arr;
#X obj 704 102 inlet mute;
#X connect 0 0 4 0;
#X connect 1 0 6 0;
#X connect 2 0 0 0;
#X connect 3 0 1 0;
#X connect 4 0 3 0;
#X connect 5 0 2 0;
#X connect 7 0 3 2;
#X connect 8 0 4 1;
#X connect 8 0 3 1;
#X connect 9 0 0 1;
#X connect 10 0 20 0;
#X connect 11 0 10 0;
#X connect 11 1 10 7;
#X connect 12 0 10 0;
#X connect 12 1 10 6;
#X connect 13 0 10 0;
#X connect 13 1 10 5;
#X connect 14 0 10 0;
#X connect 14 1 10 4;
#X connect 15 0 10 0;
#X connect 15 1 10 3;
#X connect 16 0 10 0;
#X connect 16 1 10 2;
#X connect 17 0 10 0;
#X connect 17 1 10 1;
#X connect 18 0 10 0;
#X connect 18 1 17 0;
#X connect 18 2 16 0;
#X connect 18 3 15 0;
#X connect 18 4 14 0;
#X connect 18 5 13 0;
#X connect 18 6 12 0;
#X connect 18 7 11 0;
#X connect 19 0 18 0;
#X connect 21 0 30 0;
#X connect 22 0 21 0;
#X connect 22 1 21 7;
#X connect 23 0 21 0;
#X connect 23 1 21 6;
#X connect 24 0 21 0;
#X connect 24 1 21 5;
#X connect 25 0 21 0;
#X connect 25 1 21 4;
#X connect 26 0 21 0;
#X connect 26 1 21 3;
#X connect 27 0 21 0;
#X connect 27 1 21 2;
#X connect 28 0 21 0;
#X connect 28 1 21 1;
#X connect 29 0 21 0;
#X connect 29 1 28 0;
#X connect 29 2 27 0;
#X connect 29 3 26 0;
#X connect 29 4 25 0;
#X connect 29 5 24 0;
#X connect 29 6 23 0;
#X connect 29 7 22 0;
#X connect 31 0 29 0;
#X coords 0 0 1 1 340 60 0;
#X restore 500 150 pd 8bit_disto;
#X obj 575 280 r \$0-clock;
#X obj 525 330 r \$0-freq;
#X obj 551 350 r \$0-q;
#X obj 575 130 r \$0-mute;
#X obj 550 110 r \$0-inv;
#X obj 525 90 r \$0-dc;
#X obj 30 341 s \$0-inv;
#X obj 170 341 s \$0-mute;
#X obj 20 20 cnv 15 320 240 empty empty Krümel_M. 2 10 0 14 -3072
-1 0;
#X obj 85 117 knob 32 32 22 22000 0 1 \$0-clock empty empty 0 -8 128
8 -262144 -1 -1 400 1;
#X obj 245 117 knob 32 32 5 22500 1 1 \$0-freq empty empty 0 -8 128
8 -262144 -1 -1 1700 1;
#X obj 285 62 knob 32 32 0.1 100 0 1 \$0-q empty empty 0 -8 128 8 -262144
-1 -1 2400 1;
#X obj 54 232 tgl 15 0 empty empty 8 5 7 0 10 -262144 -1 -1 0 1;
#X obj 69 232 tgl 15 0 empty empty 7 5 7 0 10 -262144 -1 -1 0 1;
#X obj 84 232 tgl 15 0 empty empty 6 5 7 0 10 -262144 -1 -1 0 1;
#X obj 99 232 tgl 15 0 empty empty 5 5 7 0 10 -262144 -1 -1 1 1;
#X obj 114 232 tgl 15 0 empty empty 4 5 7 0 10 -262144 -1 -1 0 1;
#X obj 129 232 tgl 15 0 empty empty 3 5 7 0 10 -262144 -1 -1 0 1;
#X obj 144 232 tgl 15 0 empty empty 2 5 7 0 10 -262144 -1 -1 0 1;
#X obj 159 232 tgl 15 0 empty empty 1 5 7 0 10 -262144 -1 -1 0 1;
#X text 55 214 Invert bits;
#X text 185 214 Mute bits;
#X obj 30 311 pack f f f f f f f f;
#X text 282 42 Q;
#X text 82 97 Clock;
#X obj 205 62 knob 32 32 0 1 0 1 \$0-dressed empty empty 0 -8 128 8
-262144 -1 -1 1200 1;
#X obj 125 62 knob 32 32 0 1 0 1 \$0-naked empty empty 0 -8 128 8 -262144
-1 -1 1200 1;
#X obj 45 62 knob 32 32 0 1 0 1 \$0-drive empty empty 0 -8 128 8 -262144
-1 -1 1800 1;
#X text 242 97 Freq;
#X text 42 42 Drive;
#X text 122 42 Naked;
#X text 202 42 Dressed;
#X obj 500 420 *~;
#X obj 500 60 *~;
#X obj 500 20 inlet~;
#X obj 515 40 r \$0-drive;
#X obj 515 400 r \$0-dressed;
#X obj 410 420 *~;
#X obj 425 400 r \$0-naked;
#X obj 410 150 +~;
#N canvas 399 213 735 301 aaarrgggghhhhhhhh 0;
#X obj 26 18 inlet;
#X obj 86 18 inlet;
#X obj 26 188 outlet;
#X obj 86 188 outlet;
#X obj 146 188 outlet;
#X obj 206 188 outlet;
#X obj 266 188 outlet;
#X obj 326 188 outlet;
#X obj 386 188 outlet;
#X obj 446 188 outlet;
#X obj 86 58 t b f;
#X obj 146 18 inlet;
#X obj 146 58 t b f;
#X obj 206 18 inlet;
#X obj 206 58 t b f;
#X obj 266 18 inlet;
#X obj 266 58 t b f;
#X obj 326 18 inlet;
#X obj 326 58 t b f;
#X obj 386 18 inlet;
#X obj 386 58 t b f;
#X obj 446 18 inlet;
#X obj 446 58 t b f;
#X connect 0 0 2 0;
#X connect 1 0 10 0;
#X connect 10 0 2 0;
#X connect 10 1 3 0;
#X connect 11 0 12 0;
#X connect 12 0 2 0;
#X connect 12 1 4 0;
#X connect 13 0 14 0;
#X connect 14 0 2 0;
#X connect 14 1 5 0;
#X connect 15 0 16 0;
#X connect 16 0 2 0;
#X connect 16 1 6 0;
#X connect 17 0 18 0;
#X connect 18 0 2 0;
#X connect 18 1 7 0;
#X connect 19 0 20 0;
#X connect 20 0 2 0;
#X connect 20 1 8 0;
#X connect 21 0 22 0;
#X connect 22 0 2 0;
#X connect 22 1 9 0;
#X restore 30 281 pd aaarrgggghhhhhhhh;
#X obj 184 232 tgl 15 0 empty empty 8 5 7 0 10 -262144 -1 -1 1 1;
#X obj 199 232 tgl 15 0 empty empty 7 5 7 0 10 -262144 -1 -1 0 1;
#X obj 214 232 tgl 15 0 empty empty 6 5 7 0 10 -262144 -1 -1 1 1;
#X obj 229 232 tgl 15 0 empty empty 5 5 7 0 10 -262144 -1 -1 0 1;
#X obj 244 232 tgl 15 0 empty empty 4 5 7 0 10 -262144 -1 -1 0 1;
#X obj 259 232 tgl 15 0 empty empty 3 5 7 0 10 -262144 -1 -1 0 1;
#X obj 274 232 tgl 15 0 empty empty 2 5 7 0 10 -262144 -1 -1 0 1;
#X obj 289 232 tgl 15 0 empty empty 1 5 7 0 10 -262144 -1 -1 0 1;
#X obj 170 311 pack f f f f f f f f;
#N canvas 399 213 735 301 aaarrgggghhhhhhhh 0;
#X obj 26 18 inlet;
#X obj 86 18 inlet;
#X obj 26 188 outlet;
#X obj 86 188 outlet;
#X obj 146 188 outlet;
#X obj 206 188 outlet;
#X obj 266 188 outlet;
#X obj 326 188 outlet;
#X obj 386 188 outlet;
#X obj 446 188 outlet;
#X obj 86 58 t b f;
#X obj 146 18 inlet;
#X obj 146 58 t b f;
#X obj 206 18 inlet;
#X obj 206 58 t b f;
#X obj 266 18 inlet;
#X obj 266 58 t b f;
#X obj 326 18 inlet;
#X obj 326 58 t b f;
#X obj 386 18 inlet;
#X obj 386 58 t b f;
#X obj 446 18 inlet;
#X obj 446 58 t b f;
#X connect 0 0 2 0;
#X connect 1 0 10 0;
#X connect 10 0 2 0;
#X connect 10 1 3 0;
#X connect 11 0 12 0;
#X connect 12 0 2 0;
#X connect 12 1 4 0;
#X connect 13 0 14 0;
#X connect 14 0 2 0;
#X connect 14 1 5 0;
#X connect 15 0 16 0;
#X connect 16 0 2 0;
#X connect 16 1 6 0;
#X connect 17 0 18 0;
#X connect 18 0 2 0;
#X connect 18 1 7 0;
#X connect 19 0 20 0;
#X connect 20 0 2 0;
#X connect 20 1 8 0;
#X connect 21 0 22 0;
#X connect 22 0 2 0;
#X connect 22 1 9 0;
#X restore 170 281 pd aaarrgggghhhhhhhh;
#X obj 290 115 vradio 12 1 0 3 \$0-filter_type empty empty 0 -8 0 10
-262144 -1 -1 0;
#X text 304 123 HP;
#X text 304 111 LP;
#X text 304 135 BP;
#X obj 500 560 outlet~;
#X obj 500 530 expr~ tanh($v1);
#X obj 460 490 spigot~;
#X obj 519 450 r \$0-softclip;
#X obj 145 115 tgl 15 0 \$0-softclip empty empty 17 7 0 10 -262144
-1 -1 0 1;
#X obj 145 135 tgl 15 0 \$0-dc empty empty 17 7 0 10 -262144 -1 -1
0 1;
#X text 164 133 DC offset;
#X text 164 113 Softclip;
#X obj 460 270 spigot~;
#X obj 509 240 r \$0-by_clock;
#X obj 61 115 tgl 12 0 \$0-by_clock empty empty 17 7 0 10 -262144 -1
-1 0 1;
#X text 37 112 I/O;
#N canvas 382 98 604 484 more_effects 0;
#X obj 90 16 inlet~;
#X obj 91 336 outlet~;
#X obj 112 36 r \$0-rect_up;
#X obj 112 106 r \$0-rect_down;
#X obj 112 176 r \$0-bat_fuzz;
#X obj 112 246 r \$0-swap;
#X obj 73 266 spigot~;
#X obj 92 296 swap~;
#X obj 73 196 spigot~;
#X obj 73 126 spigot~;
#X obj 73 56 spigot~;
#N canvas 0 0 543 571 bat_fuzz 0;
#X obj 41 26 inlet~;
#X obj 41 486 outlet~;
#X obj 371 47 switch~;
#X obj 371 27 r \$0-bat_fuzz;
#X obj 101 26 r \$0-bat_am;
#X obj 66 96 * -1;
#X obj 41 126 clip~ 0 0;
#X obj 101 56 t f f;
#X obj 80 337 *~ -1;
#X obj 96 266 r \$0-bat_am;
#X obj 81 296 -~;
#X obj 81 316 *~;
#X obj 266 266 r \$0-bat_am;
#X obj 251 316 *~;
#X obj 251 296 +~;
#X obj 161 426 expr~ abs($v1) > $f2;
#X obj 278 396 r \$0-bat_am;
#X obj 80 457 *~;
#X obj 251 337 *~ -1;
#X obj 291 236 expr~ $v1 < 0;
#X obj 121 236 expr~ $v1 > 0;
#X connect 0 0 6 0;
#X connect 0 0 15 0;
#X connect 0 0 10 0;
#X connect 0 0 14 0;
#X connect 0 0 19 0;
#X connect 0 0 20 0;
#X connect 3 0 2 0;
#X connect 4 0 7 0;
#X connect 5 0 6 1;
#X connect 6 0 1 0;
#X connect 7 0 5 0;
#X connect 7 1 6 2;
#X connect 8 0 17 0;
#X connect 9 0 10 1;
#X connect 10 0 11 0;
#X connect 11 0 8 0;
#X connect 12 0 14 1;
#X connect 13 0 18 0;
#X connect 14 0 13 0;
#X connect 15 0 17 1;
#X connect 16 0 15 1;
#X connect 17 0 1 0;
#X connect 18 0 17 0;
#X connect 19 0 13 1;
#X connect 20 0 11 1;
#X restore 92 226 pd bat_fuzz;
#N canvas 0 0 601 316 rect_up 0;
#X obj 100 26 inlet~;
#X obj 100 147 outlet~;
#X obj 271 67 switch~;
#X obj 271 47 r \$0-rect_up;
#X obj 100 67 abs~;
#X obj 100 87 *~ 2;
#X obj 100 107 +~ -1;
#X connect 0 0 4 0;
#X connect 3 0 2 0;
#X connect 4 0 5 0;
#X connect 5 0 6 0;
#X connect 6 0 1 0;
#X restore 92 86 pd rect_up;
#N canvas 218 163 601 316 rect_down 0;
#X obj 100 26 inlet~;
#X obj 100 137 outlet~;
#X obj 271 47 switch~;
#X obj 101 88 *~ 2;
#X obj 100 107 +~ -1;
#X obj 271 27 r \$0-rect_down;
#X obj 101 58 expr~ pow((sqrt($v1)) \, 2);
#X connect 0 0 6 0;
#X connect 3 0 4 0;
#X connect 4 0 1 0;
#X connect 5 0 2 0;
#X connect 6 0 3 0;
#X restore 92 156 pd rect_down;
#X connect 0 0 10 0;
#X connect 2 0 10 1;
#X connect 3 0 9 1;
#X connect 4 0 8 1;
#X connect 5 0 6 1;
#X connect 6 0 1 0;
#X connect 6 1 7 0;
#X connect 7 0 1 0;
#X connect 8 0 6 0;
#X connect 8 1 11 0;
#X connect 9 0 8 0;
#X connect 9 1 13 0;
#X connect 10 0 9 0;
#X connect 10 1 12 0;
#X connect 11 0 6 0;
#X connect 12 0 9 0;
#X connect 13 0 8 0;
#X coords 0 0 1 1 340 60 0;
#X restore 500 200 pd more_effects;
#X obj 73 175 tgl 15 0 \$0-rect_up empty empty 17 7 0 10 -262144 -1
-1 0 1;
#X obj 73 195 tgl 15 0 \$0-rect_down empty empty 17 7 0 10 -262144
-1 -1 0 1;
#X obj 154 195 tgl 15 0 \$0-swap empty empty 17 7 0 10 -262144 -1 -1
0 1;
#X obj 154 175 tgl 15 0 \$0-bat_fuzz empty empty 17 7 0 10 -262144
-1 -1 0 1;
#X text 92 173 rect/up;
#X text 92 193 rect/down;
#X text 173 193 swap;
#X text 173 173 bat fuzz;
#X text 72 155 Waveshapers;
#X obj 234 177 vsl 15 30 0 1 0 1 \$0-bat_am empty empty 2 10 0 10 -262144
-1 -1 1000 1;
#X text 253 188 cutoff;
#X text 253 178 bat fuzz-;
#X connect 0 0 35 0;
#X connect 1 0 0 0;
#X connect 2 0 70 0;
#X connect 3 0 1 1;
#X connect 4 0 0 1;
#X connect 5 0 0 2;
#X connect 6 0 2 3;
#X connect 7 0 2 2;
#X connect 8 0 2 1;
#X connect 15 0 43 0;
#X connect 16 0 43 1;
#X connect 17 0 43 2;
#X connect 18 0 43 3;
#X connect 19 0 43 4;
#X connect 20 0 43 5;
#X connect 21 0 43 6;
#X connect 22 0 43 7;
#X connect 25 0 9 0;
#X connect 35 0 60 0;
#X connect 36 0 2 0;
#X connect 36 0 42 0;
#X connect 37 0 36 0;
#X connect 38 0 36 1;
#X connect 39 0 35 1;
#X connect 40 0 60 0;
#X connect 41 0 40 1;
#X connect 42 0 40 0;
#X connect 43 0 25 0;
#X connect 43 1 25 1;
#X connect 43 2 25 2;
#X connect 43 3 25 3;
#X connect 43 4 25 4;
#X connect 43 5 25 5;
#X connect 43 6 25 6;
#X connect 43 7 25 7;
#X connect 44 0 53 0;
#X connect 45 0 53 1;
#X connect 46 0 53 2;
#X connect 47 0 53 3;
#X connect 48 0 53 4;
#X connect 49 0 53 5;
#X connect 50 0 53 6;
#X connect 51 0 53 7;
#X connect 52 0 10 0;
#X connect 53 0 52 0;
#X connect 53 1 52 1;
#X connect 53 2 52 2;
#X connect 53 3 52 3;
#X connect 53 4 52 4;
#X connect 53 5 52 5;
#X connect 53 6 52 6;
#X connect 53 7 52 7;
#X connect 59 0 58 0;
#X connect 60 0 58 0;
#X connect 60 1 59 0;
#X connect 61 0 60 1;
#X connect 66 0 0 0;
#X connect 66 1 1 0;
#X connect 67 0 66 1;
#X connect 70 0 66 0;
#X coords 0 -1 1 1 320 240 1 20 20;
