#N canvas 0 22 800 532 10;
#X obj 28 39 inlet~;
#X obj 38 350 outlet~;
#X obj 38 243 *~;
#X obj 38 307 /~;
#X obj 90 214 pow;
#X msg 97 186 2;
#X obj 109 153 t b f;
#X obj 144 122 nbx 5 14 0 16 0 1 empty empty bit -20 8 0 10 -262144
-1 -1 3.14 256;
#X obj 41 272 expr~ int($v1);
#X obj 259 20 inlet;
#X obj 256 66 clip 0 16;
#X connect 0 0 2 0;
#X connect 2 0 8 0;
#X connect 3 0 1 0;
#X connect 4 0 2 1;
#X connect 4 0 3 1;
#X connect 5 0 4 0;
#X connect 6 0 5 0;
#X connect 6 1 4 1;
#X connect 7 0 6 0;
#X connect 8 0 3 0;
#X connect 9 0 10 0;
#X connect 10 0 7 0;
#X coords 0 -1 1 1 110 40 2 100 100;
