#N canvas 123 129 764 525 10;
#X obj 204 355 rs-vocoder~;
#X text 356 457 vocoder~ : vocoder effect;
#X text 356 469 inspired by xvox written by;
#X text 357 483 Simon Morlat ( http://simon.morlat.free.fr );
#X text 357 497 Part of unauthorized PD ( http://ydegoyon.free.fr )
;
#X obj 125 406 env~;
#X floatatom 124 435 5 0 0 0 - - -;
#X obj 265 301 hsl 128 15 0 1000 0 0 empty empty empty -2 -6 0 8 -262144
-1 -1 0 1;
#X text 409 299 Cutoff Frequency;
#X obj 295 327 hsl 128 15 0 100 0 0 empty empty empty -2 -6 0 8 -262144
-1 -1 0 1;
#X text 439 325 Voice Feedback [ 0 - 100 ];
#X msg 488 109 bang;
#X obj 487 131 openpanel;
#X obj 487 151 t s b;
#X obj 544 153 float \$0;
#X text 495 86 Step 1 : Load a sound file;
#X obj 487 174 route float;
#X obj 488 266 soundfiler;
#X text 545 102 ( maybe \, a guitar sound ? );
#X obj 487 197 makefilename %d-sample;
#X msg 488 244 read -resize \$1 \$2;
#X obj 489 223 pack s s;
#X msg 273 195 bang;
#X text 318 195 Step 2 : Start playing;
#X obj 273 242 tabplay~ \$0-sample;
#X msg 344 218 stop;
#X obj 273 218 metro 250;
#X text 49 300 Step 3 : Grab the mike !!!;
#X obj 482 39 table \$0-sample;
#X obj 44 112 inlet~;
#X obj 105 112 inlet;
#X obj 193 89 inlet;
#X obj 237 91 inlet;
#X obj 201 393 outlet~;
#X connect 0 0 5 0;
#X connect 0 0 33 0;
#X connect 5 0 6 0;
#X connect 7 0 0 2;
#X connect 9 0 0 3;
#X connect 11 0 12 0;
#X connect 12 0 13 0;
#X connect 13 0 21 0;
#X connect 13 1 14 0;
#X connect 14 0 16 0;
#X connect 16 0 19 0;
#X connect 19 0 21 1;
#X connect 20 0 17 0;
#X connect 21 0 20 0;
#X connect 22 0 26 0;
#X connect 24 0 0 1;
#X connect 25 0 26 0;
#X connect 26 0 24 0;
#X connect 29 0 0 0;
#X connect 30 0 22 0;
#X connect 30 0 11 0;
#X connect 31 0 0 2;
#X connect 32 0 0 3;
