#N canvas 0 0 800 532 10;
#N canvas 0 0 800 532 eq 0;
#X obj 60 148 svf~ 60 0.1;
#X obj 123 104 sig~;
#X obj 134 148 svf~ 170 0.1;
#X obj 213 148 svf~ 310 0.1;
#X obj 292 148 svf~ 600 0.1;
#X obj 373 148 svf~ 1000 0.1;
#X obj 261 394 svf~ 3000 0.1;
#X obj 346 394 svf~ 6000 0.1;
#X obj 432 394 svf~ 12000 0.1;
#X obj 523 394 svf~ 14000 0.1;
#X obj 614 394 svf~ 16000 0.1;
#X obj 202 102 sig~;
#X obj 281 102 sig~;
#X obj 360 102 sig~;
#X obj 447 101 sig~;
#X obj 335 333 sig~;
#X obj 420 333 sig~;
#X obj 514 333 sig~;
#X obj 604 333 sig~;
#X obj 694 333 sig~;
#X obj 103 202 *~ 0.5;
#X obj 179 202 *~ 0.5;
#X obj 259 201 *~ 0.5;
#X obj 338 201 *~ 0.5;
#X obj 424 202 *~ 0.5;
#X obj 102 482 outlet~;
#X obj 206 236 r \$0-lvl1;
#X obj 310 432 *~ 0.5;
#X obj 396 431 *~ 0.5;
#X obj 486 426 *~ 0.5;
#X obj 576 425 *~ 0.5;
#X obj 668 427 *~ 0.5;
#X obj 281 235 r \$0-lvl2;
#X obj 369 233 r \$0-lvl3;
#X obj 444 232 r \$0-lvl4;
#X obj 533 232 r \$0-lvl5;
#X obj 230 479 r \$0-lvl6;
#X obj 316 478 r \$0-lvl7;
#X obj 406 473 r \$0-lvl8;
#X obj 496 472 r \$0-lvl9;
#X obj 588 474 r \$0-lvl10;
#X obj 59 17 inlet~;
#X obj 123 81 * 0.5;
#X obj 202 79 * 0.5;
#X obj 281 79 * 0.5;
#X obj 360 79 * 0.5;
#X obj 447 78 * 0.5;
#X obj 335 310 * 0.5;
#X obj 420 310 * 0.5;
#X obj 514 310 * 0.5;
#X obj 604 310 * 0.5;
#X obj 694 310 * 0.5;
#X connect 0 2 20 0;
#X connect 1 0 0 2;
#X connect 2 2 21 0;
#X connect 3 2 22 0;
#X connect 4 2 23 0;
#X connect 5 2 24 0;
#X connect 6 2 27 0;
#X connect 7 2 28 0;
#X connect 8 2 29 0;
#X connect 9 2 30 0;
#X connect 10 2 31 0;
#X connect 11 0 2 2;
#X connect 12 0 3 2;
#X connect 13 0 4 2;
#X connect 14 0 5 2;
#X connect 15 0 6 2;
#X connect 16 0 7 2;
#X connect 17 0 8 2;
#X connect 18 0 9 2;
#X connect 19 0 10 2;
#X connect 20 0 25 0;
#X connect 21 0 25 0;
#X connect 22 0 25 0;
#X connect 23 0 25 0;
#X connect 24 0 25 0;
#X connect 26 0 20 1;
#X connect 26 0 42 0;
#X connect 27 0 25 0;
#X connect 28 0 25 0;
#X connect 29 0 25 0;
#X connect 30 0 25 0;
#X connect 31 0 25 0;
#X connect 32 0 21 1;
#X connect 32 0 43 0;
#X connect 33 0 22 1;
#X connect 33 0 44 0;
#X connect 34 0 23 1;
#X connect 34 0 45 0;
#X connect 35 0 24 1;
#X connect 35 0 46 0;
#X connect 36 0 27 1;
#X connect 36 0 47 0;
#X connect 37 0 28 1;
#X connect 37 0 48 0;
#X connect 38 0 29 1;
#X connect 38 0 49 0;
#X connect 39 0 30 1;
#X connect 39 0 50 0;
#X connect 40 0 31 1;
#X connect 40 0 51 0;
#X connect 41 0 0 0;
#X connect 41 0 2 0;
#X connect 41 0 3 0;
#X connect 41 0 4 0;
#X connect 41 0 5 0;
#X connect 41 0 6 0;
#X connect 41 0 7 0;
#X connect 41 0 8 0;
#X connect 41 0 9 0;
#X connect 41 0 10 0;
#X connect 42 0 1 0;
#X connect 43 0 11 0;
#X connect 44 0 12 0;
#X connect 45 0 13 0;
#X connect 46 0 14 0;
#X connect 47 0 15 0;
#X connect 48 0 16 0;
#X connect 49 0 17 0;
#X connect 50 0 18 0;
#X connect 51 0 19 0;
#X restore 289 150 pd eq;
#X obj 102 104 vsl 15 55 0 1 0 0 \$0-lvl1 \$0-lvlr1 empty 0 -9 0 10
-257472 -1 -262144 1580 1;
#X obj 119 104 vsl 15 55 0 1 0 0 \$0-lvl2 \$0-lvlr2 empty 0 -9 0 10
-257472 -1 -262144 780 1;
#X obj 136 104 vsl 15 55 0 1 0 0 \$0-lvl3 \$0-lvlr3 empty 0 -9 0 10
-257472 -1 -262144 580 1;
#X obj 153 104 vsl 15 55 0 1 0 0 \$0-lvl4 \$0-lvlr4 empty 0 -9 0 10
-257472 -1 -262144 2580 1;
#X obj 170 104 vsl 15 55 0 1 0 0 \$0-lvl5 \$0-lvlr5 empty 0 -9 0 10
-257472 -1 -262144 280 1;
#X obj 187 104 vsl 15 55 0 1 0 0 \$0-lvl6 \$0-lvlr6 empty 0 -9 0 10
-257472 -1 -262144 280 1;
#X obj 204 104 vsl 15 55 0 1 0 0 \$0-lvl7 \$0-lvlr7 empty 0 -9 0 10
-257472 -1 -262144 4180 1;
#X obj 221 104 vsl 15 55 0 1 0 0 \$0-lvl8 \$0-lvlr8 empty 0 -9 0 10
-257472 -1 -262144 4180 1;
#X obj 238 104 vsl 15 55 0 1 0 0 \$0-lvl9 \$0-lvlr9 empty 0 -9 0 10
-257472 -1 -262144 1880 1;
#X obj 255 104 vsl 15 55 0 1 0 0 \$0-lvl10 \$0-lvlr10 empty 0 -9 0
10 -257472 -1 -262144 980 1;
#X obj 102 102 cnv 1 14 41 empty \$0-cl1 empty 20 12 0 14 -228992 -262144
0;
#X obj 120 102 cnv 1 14 50 empty \$0-cl2 empty 20 12 0 14 -228992 -262144
0;
#X obj 136 102 cnv 1 14 52 empty \$0-cl3 empty 20 12 0 14 -228992 -262144
0;
#X obj 153 102 cnv 1 14 30 empty \$0-cl4 empty 20 12 0 14 -228992 -262144
0;
#X obj 170 102 cnv 1 14 55 empty \$0-cl5 empty 20 12 0 14 -228992 -262144
0;
#X obj 187 102 cnv 1 14 55 empty \$0-cl6 empty 20 12 0 14 -228992 -262144
0;
#X obj 204 102 cnv 1 14 12 empty \$0-cl7 empty 20 12 0 14 -228992 -262144
0;
#X obj 221 102 cnv 1 14 12 empty \$0-cl8 empty 20 12 0 14 -228992 -262144
0;
#X obj 238 102 cnv 1 14 38 empty \$0-cl9 empty 20 12 0 14 -228992 -262144
0;
#X obj 255 102 cnv 1 14 48 empty \$0-cl10 empty 20 12 0 14 -228992
-262144 0;
#X obj 349 68 pack f \$0;
#X floatatom 349 41 5 0 0 0 - - -;
#X msg 349 96 \; \$2-lvlr1 color \$1 \; \$2-lvlr2 color \$1 \; \$2-lvlr3
color \$1 \; \$2-lvlr4 color \$1 \; \$2-lvlr5 color \$1 \; \$2-lvlr6
color \$1 \; \$2-lvlr7 color \$1 \; \$2-lvlr8 color \$1 \; \$2-lvlr9
color \$1 \; \$2-lvlr10 color \$1 \;;
#X obj 497 59 pack f \$0;
#X floatatom 497 34 5 0 0 0 - - -;
#X msg 497 98 \; \$2-cl1 color \$1 \; \$2-cl2 color \$1 \; \$2-cl3
color \$1 \; \$2-cl4 color \$1 \; \$2-cl5 color \$1 \; \$2-cl6 color
\$1 \; \$2-cl7 color \$1 \; \$2-cl8 color \$1 \; \$2-cl9 color \$1
\; \$2-cl10 color \$1 \;;
#X obj 626 70 pack \$0;
#X msg 626 98 \; \$1-lvlr1 0.7 \; \$1-lvlr2 0.7 \; \$1-lvlr3 0.7 \;
\$1-lvlr4 0.7 \; \$1-lvlr5 0.7 \; \$1-lvlr6 0.7 \; \$1-lvlr7 0.7 \;
\$1-lvlr8 0.7 \; \$1-lvlr9 0.7 \; \$1-lvlr10 0.7 \;;
#X obj 626 45 initbang;
#X obj 288 118 inlet~;
#X obj 290 175 outlet~;
#N canvas 272 63 800 532 colors 0;
#X obj 26 24 r \$0-lvl1;
#X msg 26 74 60;
#X obj 26 96 *;
#X obj 26 46 t b f;
#X obj 26 119 * -1;
#X obj 26 141 + 59;
#X obj 26 163 pack f \$0;
#X msg 26 186 \; \$2-cl1 vis_size 14 \$1;
#X msg 166 74 60;
#X obj 166 96 *;
#X obj 166 46 t b f;
#X obj 166 119 * -1;
#X obj 166 141 + 59;
#X obj 166 163 pack f \$0;
#X msg 311 74 60;
#X obj 311 96 *;
#X obj 311 46 t b f;
#X obj 311 119 * -1;
#X obj 311 141 + 59;
#X obj 311 163 pack f \$0;
#X msg 451 74 60;
#X obj 451 96 *;
#X obj 451 46 t b f;
#X obj 451 119 * -1;
#X obj 451 141 + 59;
#X obj 451 163 pack f \$0;
#X msg 601 74 60;
#X obj 601 96 *;
#X obj 601 46 t b f;
#X obj 601 119 * -1;
#X obj 601 141 + 59;
#X obj 601 163 pack f \$0;
#X msg 26 284 60;
#X obj 26 306 *;
#X obj 26 256 t b f;
#X obj 26 329 * -1;
#X obj 26 351 + 59;
#X obj 26 373 pack f \$0;
#X msg 166 284 60;
#X obj 166 306 *;
#X obj 166 256 t b f;
#X obj 166 329 * -1;
#X obj 166 351 + 59;
#X obj 166 373 pack f \$0;
#X msg 311 284 60;
#X obj 311 306 *;
#X obj 311 256 t b f;
#X obj 311 329 * -1;
#X obj 311 351 + 59;
#X obj 311 373 pack f \$0;
#X msg 451 284 60;
#X obj 451 306 *;
#X obj 451 256 t b f;
#X obj 451 329 * -1;
#X obj 451 351 + 59;
#X obj 451 373 pack f \$0;
#X msg 601 284 60;
#X obj 601 306 *;
#X obj 601 256 t b f;
#X obj 601 329 * -1;
#X obj 601 351 + 59;
#X obj 601 373 pack f \$0;
#X obj 166 24 r \$0-lvl2;
#X obj 311 24 r \$0-lvl3;
#X obj 451 24 r \$0-lvl4;
#X obj 601 24 r \$0-lvl5;
#X obj 26 234 r \$0-lvl6;
#X obj 166 234 r \$0-lvl7;
#X obj 311 234 r \$0-lvl8;
#X obj 451 234 r \$0-lvl9;
#X obj 601 234 r \$0-lvl10;
#X msg 166 186 \; \$2-cl2 vis_size 14 \$1;
#X msg 311 186 \; \$2-cl3 vis_size 14 \$1;
#X msg 451 186 \; \$2-cl4 vis_size 14 \$1;
#X msg 601 186 \; \$2-cl5 vis_size 14 \$1;
#X msg 26 396 \; \$2-cl6 vis_size 14 \$1;
#X msg 166 396 \; \$2-cl7 vis_size 14 \$1;
#X msg 311 396 \; \$2-cl8 vis_size 14 \$1;
#X msg 451 396 \; \$2-cl9 vis_size 14 \$1;
#X msg 601 396 \; \$2-cl10 vis_size 14 \$1;
#X connect 0 0 3 0;
#X connect 1 0 2 0;
#X connect 2 0 4 0;
#X connect 3 0 1 0;
#X connect 3 1 2 1;
#X connect 4 0 5 0;
#X connect 5 0 6 0;
#X connect 6 0 7 0;
#X connect 8 0 9 0;
#X connect 9 0 11 0;
#X connect 10 0 8 0;
#X connect 10 1 9 1;
#X connect 11 0 12 0;
#X connect 12 0 13 0;
#X connect 13 0 71 0;
#X connect 14 0 15 0;
#X connect 15 0 17 0;
#X connect 16 0 14 0;
#X connect 16 1 15 1;
#X connect 17 0 18 0;
#X connect 18 0 19 0;
#X connect 19 0 72 0;
#X connect 20 0 21 0;
#X connect 21 0 23 0;
#X connect 22 0 20 0;
#X connect 22 1 21 1;
#X connect 23 0 24 0;
#X connect 24 0 25 0;
#X connect 25 0 73 0;
#X connect 26 0 27 0;
#X connect 27 0 29 0;
#X connect 28 0 26 0;
#X connect 28 1 27 1;
#X connect 29 0 30 0;
#X connect 30 0 31 0;
#X connect 31 0 74 0;
#X connect 32 0 33 0;
#X connect 33 0 35 0;
#X connect 34 0 32 0;
#X connect 34 1 33 1;
#X connect 35 0 36 0;
#X connect 36 0 37 0;
#X connect 37 0 75 0;
#X connect 38 0 39 0;
#X connect 39 0 41 0;
#X connect 40 0 38 0;
#X connect 40 1 39 1;
#X connect 41 0 42 0;
#X connect 42 0 43 0;
#X connect 43 0 76 0;
#X connect 44 0 45 0;
#X connect 45 0 47 0;
#X connect 46 0 44 0;
#X connect 46 1 45 1;
#X connect 47 0 48 0;
#X connect 48 0 49 0;
#X connect 49 0 77 0;
#X connect 50 0 51 0;
#X connect 51 0 53 0;
#X connect 52 0 50 0;
#X connect 52 1 51 1;
#X connect 53 0 54 0;
#X connect 54 0 55 0;
#X connect 55 0 78 0;
#X connect 56 0 57 0;
#X connect 57 0 59 0;
#X connect 58 0 56 0;
#X connect 58 1 57 1;
#X connect 59 0 60 0;
#X connect 60 0 61 0;
#X connect 61 0 79 0;
#X connect 62 0 10 0;
#X connect 63 0 16 0;
#X connect 64 0 22 0;
#X connect 65 0 28 0;
#X connect 66 0 34 0;
#X connect 67 0 40 0;
#X connect 68 0 46 0;
#X connect 69 0 52 0;
#X connect 70 0 58 0;
#X restore 628 22 pd colors;
#X connect 0 0 31 0;
#X connect 21 0 23 0;
#X connect 22 0 21 0;
#X connect 24 0 26 0;
#X connect 25 0 24 0;
#X connect 27 0 28 0;
#X connect 29 0 27 0;
#X connect 30 0 0 0;
#X coords 0 -1 1 1 172 64 2 100 100;
