#N canvas 0 22 800 532 10;
#X floatatom 112 119 3 -36 36 0 - - -;
#X obj 182 405 *~;
#X obj 305 342 line~;
#X obj 305 316 pack 0 200;
#X obj 119 190 exp;
#X floatatom 119 216 6 0 0 0 - - -;
#X obj 119 306 /;
#X obj 246 236 * 0.001;
#X obj 414 412 line~;
#X obj 414 387 pack 0 200;
#X obj 182 431 +~;
#X obj 119 457 cos~;
#X obj 119 484 *~;
#X obj 196 526 +~;
#X obj 206 364 wrap~;
#X obj 351 407 *~;
#X obj 351 440 +~;
#X obj 306 471 cos~;
#X obj 306 498 *~;
#X obj 246 263 t b f;
#X floatatom 119 332 6 0 0 0 - - -;
#X obj 206 337 +~ 0.5;
#X obj 119 405 -~ 0.5;
#X obj 119 431 *~ 0.5;
#X obj 288 406 -~ 0.5;
#X obj 288 439 *~ 0.5;
#X obj 119 243 - 1;
#X obj 119 164 * 0.05776;
#X obj 119 269 * -1;
#X text 182 210 speed;
#X text 181 224 change;
#X text 154 299 tape head;
#X obj 119 363 phasor~;
#X obj 414 363 max 1.5;
#X obj 326 209 max 1;
#X text 155 312 rotation freq;
#X obj 205 81 delwrite~ \$0psh-del 5000;
#X obj 173 465 vd~ \$0psh-del;
#X obj 364 470 vd~ \$0psh-del;
#X msg 414 311 0;
#X msg 347 184 100;
#X text 386 189 <--window (msec);
#X obj 155 51 inlet~;
#X obj 586 49 inlet~;
#X obj 558 80 delwrite~ \$0psh-delr 5000;
#X text 487 354 delay;
#X obj 433 46 loadbang;
#X obj 194 558 outlet~;
#X text 358 111 PITCH SHIFTER from pd doc;
#X text 695 163 copy n paste for stereo;
#X obj 637 398 *~;
#X obj 760 335 line~;
#X obj 760 309 pack 0 200;
#X obj 574 183 exp;
#X floatatom 574 209 6 0 0 0 - - -;
#X obj 574 299 /;
#X obj 701 229 * 0.001;
#X obj 869 405 line~;
#X obj 869 380 pack 0 200;
#X obj 637 424 +~;
#X obj 574 450 cos~;
#X obj 574 477 *~;
#X obj 651 519 +~;
#X obj 661 357 wrap~;
#X obj 806 400 *~;
#X obj 806 433 +~;
#X obj 761 464 cos~;
#X obj 761 491 *~;
#X obj 701 256 t b f;
#X floatatom 574 325 6 0 0 0 - - -;
#X obj 661 330 +~ 0.5;
#X obj 574 398 -~ 0.5;
#X obj 574 424 *~ 0.5;
#X obj 743 399 -~ 0.5;
#X obj 743 432 *~ 0.5;
#X obj 574 236 - 1;
#X obj 574 157 * 0.05776;
#X obj 574 262 * -1;
#X obj 574 356 phasor~;
#X obj 869 356 max 1.5;
#X obj 781 202 max 1;
#X obj 620 455 vd~ \$0psh-delr;
#X obj 819 463 vd~ \$0psh-delr;
#X obj 646 558 outlet~;
#X msg 73 54 set \$1;
#X msg 90 83 14;
#X obj 747 51 inlet;
#X text 138 119 transpose;
#X connect 0 0 27 0;
#X connect 0 0 76 0;
#X connect 0 0 84 0;
#X connect 1 0 10 0;
#X connect 2 0 1 1;
#X connect 2 0 15 1;
#X connect 3 0 2 0;
#X connect 4 0 5 0;
#X connect 5 0 26 0;
#X connect 6 0 20 0;
#X connect 7 0 19 0;
#X connect 8 0 10 1;
#X connect 8 0 16 1;
#X connect 9 0 8 0;
#X connect 10 0 37 0;
#X connect 11 0 12 0;
#X connect 12 0 13 0;
#X connect 13 0 47 0;
#X connect 14 0 15 0;
#X connect 14 0 24 0;
#X connect 15 0 16 0;
#X connect 16 0 38 0;
#X connect 17 0 18 0;
#X connect 18 0 13 1;
#X connect 19 0 6 0;
#X connect 19 1 6 1;
#X connect 20 0 32 0;
#X connect 21 0 14 0;
#X connect 22 0 23 0;
#X connect 23 0 11 0;
#X connect 24 0 25 0;
#X connect 25 0 17 0;
#X connect 26 0 28 0;
#X connect 27 0 4 0;
#X connect 28 0 6 0;
#X connect 32 0 1 0;
#X connect 32 0 22 0;
#X connect 32 0 21 0;
#X connect 33 0 9 0;
#X connect 34 0 7 0;
#X connect 34 0 3 0;
#X connect 37 0 12 1;
#X connect 38 0 18 1;
#X connect 39 0 33 0;
#X connect 39 0 79 0;
#X connect 40 0 34 0;
#X connect 40 0 80 0;
#X connect 42 0 36 0;
#X connect 43 0 44 0;
#X connect 46 0 40 0;
#X connect 46 0 39 0;
#X connect 46 0 85 0;
#X connect 50 0 59 0;
#X connect 51 0 50 1;
#X connect 51 0 64 1;
#X connect 52 0 51 0;
#X connect 53 0 54 0;
#X connect 54 0 75 0;
#X connect 55 0 69 0;
#X connect 56 0 68 0;
#X connect 57 0 59 1;
#X connect 57 0 65 1;
#X connect 58 0 57 0;
#X connect 59 0 81 0;
#X connect 60 0 61 0;
#X connect 61 0 62 0;
#X connect 62 0 83 0;
#X connect 63 0 64 0;
#X connect 63 0 73 0;
#X connect 64 0 65 0;
#X connect 65 0 82 0;
#X connect 66 0 67 0;
#X connect 67 0 62 1;
#X connect 68 0 55 0;
#X connect 68 1 55 1;
#X connect 69 0 78 0;
#X connect 70 0 63 0;
#X connect 71 0 72 0;
#X connect 72 0 60 0;
#X connect 73 0 74 0;
#X connect 74 0 66 0;
#X connect 75 0 77 0;
#X connect 76 0 53 0;
#X connect 77 0 55 0;
#X connect 78 0 50 0;
#X connect 78 0 71 0;
#X connect 78 0 70 0;
#X connect 79 0 58 0;
#X connect 80 0 56 0;
#X connect 80 0 52 0;
#X connect 81 0 61 1;
#X connect 82 0 67 1;
#X connect 84 0 85 0;
#X connect 85 0 0 0;
#X connect 86 0 0 0;
#X coords 0 -1 1 1 110 40 2 100 100;
