#N canvas 0 22 800 532 10;
#X obj 95 -5 inlet~;
#X obj 300 808 outlet~;
#X obj 116 213 hsl 96 8 0 1 0 1 empty empty d/w 102 5 0 8 -262144 -1
-1 7900 1;
#X obj 295 744 +~;
#X obj 317 714 *~;
#X obj 245 712 *~;
#X obj 141 612 * -1;
#X obj 145 643 + 1;
#X obj 116 189 hsl 128 8 1 6 0 1 empty empty dis 132 5 0 8 -262144
-1 -1 8400 1;
#X obj 301 333 mtof;
#X obj 405 319 loadbang;
#X obj 116 104 hsl 128 8 0 127 0 1 empty empty lp 132 5 0 8 -262144
-1 -1 8200 1;
#X obj 116 115 hsl 128 8 0 127 0 1 empty empty hp 132 5 0 8 -262144
-1 -1 1800 1;
#X obj 116 127 hsl 128 8 1 10 0 1 empty empty res 132 5 0 8 -262144
-1 -1 12000 1;
#X obj 116 140 hsl 128 8 0.1 16 1 1 empty empty lfo 132 5 0 8 -262144
-1 -1 3200 1;
#X obj 116 150 hsl 128 8 0 40 0 1 empty empty dp 132 5 0 8 -262144
-1 -1 0 1;
#X obj 342 163 osc~;
#X obj 394 208 *~;
#X obj 443 65 inlet;
#X text 487 65 <-sync;
#X obj 116 163 hsl 128 8 0.01 100 1 1 empty empty env 132 5 0 8 -262144
-1 -1 11200 1;
#X obj 116 173 hsl 128 8 0.5 10 0 1 empty empty spd 132 5 0 8 -262144
-1 -1 7500 1;
#N canvas 0 22 505 422 envfollow 0;
#X obj 107 107 inlet~;
#X obj 214 169 inlet;
#X obj 135 245 lop~;
#X obj 148 366 clip~ 0 1;
#X obj 147 416 outlet~;
#X text 179 106 simple env follower;
#X text 255 169 cutoff controls speed;
#X obj 148 341 *~ 2;
#X obj 136 215 abs~;
#X obj 146 269 lop~;
#X obj 158 292 lop~;
#X connect 0 0 8 0;
#X connect 1 0 2 1;
#X connect 1 0 9 1;
#X connect 1 0 10 1;
#X connect 2 0 9 0;
#X connect 3 0 4 0;
#X connect 7 0 3 0;
#X connect 8 0 2 0;
#X connect 9 0 10 0;
#X connect 10 0 7 0;
#X restore 477 194 pd envfollow;
#X obj 418 237 +~;
#X obj 455 216 *~;
#X msg 443 93 1;
#X obj 116 201 hsl 128 8 0.1 0.8 0 1 empty empty chr 133 4 0 8 -262144
-1 -1 2200 1;
#X obj 296 603 /~;
#X obj 304 542 abs~;
#X obj 324 576 +~;
#X obj 274 510 *~;
#N canvas 38 323 450 300 fourlopassvcf 0;
#X obj 79 97 lop~;
#X obj 92 140 lop~;
#X obj 51 19 inlet~;
#X obj 190 307 outlet~;
#X obj 172 23 inlet;
#X obj 280 25 inlet;
#X obj 188 249 +~;
#X obj 195 280 *~ 0.5;
#X obj 109 172 lop~;
#X obj 124 205 lop~;
#X obj 218 107 vcf~ 1;
#X obj 237 175 vcf~ 1;
#X connect 0 0 1 0;
#X connect 1 0 8 0;
#X connect 2 0 0 0;
#X connect 2 0 10 0;
#X connect 4 0 0 1;
#X connect 4 0 1 1;
#X connect 4 0 8 1;
#X connect 4 0 9 1;
#X connect 4 0 10 1;
#X connect 4 0 11 1;
#X connect 5 0 10 2;
#X connect 5 0 11 2;
#X connect 6 0 7 0;
#X connect 7 0 3 0;
#X connect 8 0 9 0;
#X connect 9 0 6 0;
#X connect 10 0 11 0;
#X connect 11 0 6 1;
#X restore 38 363 pd fourlopassvcf;
#N canvas 38 323 450 300 fourhipassvcf 0;
#X obj 51 19 inlet~;
#X obj 178 351 outlet~;
#X obj 172 23 inlet;
#X obj 280 25 inlet;
#X obj 176 293 +~;
#X obj 183 324 *~ 0.5;
#X obj 188 238 vcf~ 1;
#X obj 209 269 vcf~ 1;
#X obj 79 97 hip~;
#X obj 92 140 hip~;
#X obj 109 172 hip~;
#X obj 124 205 hip~;
#X connect 0 0 8 0;
#X connect 2 0 6 1;
#X connect 2 0 7 1;
#X connect 2 0 8 1;
#X connect 2 0 9 1;
#X connect 2 0 10 1;
#X connect 2 0 11 1;
#X connect 3 0 6 2;
#X connect 3 0 7 2;
#X connect 4 0 5 0;
#X connect 5 0 1 0;
#X connect 6 0 7 0;
#X connect 7 0 4 1;
#X connect 8 0 9 0;
#X connect 9 0 10 0;
#X connect 10 0 11 0;
#X connect 11 0 4 0;
#X connect 11 0 6 0;
#X restore 41 402 pd fourhipassvcf;
#X obj 333 277 snapshot~;
#X obj 211 302 +;
#X obj 208 325 mtof;
#X obj 315 250 metro 5;
#X msg 402 343 1;
#X connect 0 0 5 1;
#X connect 0 0 31 0;
#X connect 0 0 22 0;
#X connect 2 0 4 0;
#X connect 2 0 6 0;
#X connect 3 0 1 0;
#X connect 4 0 3 1;
#X connect 5 0 3 0;
#X connect 6 0 7 0;
#X connect 7 0 5 0;
#X connect 8 0 30 1;
#X connect 9 0 32 1;
#X connect 10 0 37 0;
#X connect 11 0 34 1;
#X connect 12 0 9 0;
#X connect 13 0 31 2;
#X connect 14 0 16 0;
#X connect 15 0 17 1;
#X connect 16 0 17 0;
#X connect 17 0 23 0;
#X connect 18 0 25 0;
#X connect 20 0 24 0;
#X connect 21 0 22 1;
#X connect 22 0 24 1;
#X connect 23 0 33 0;
#X connect 24 0 23 1;
#X connect 25 0 16 1;
#X connect 25 0 36 0;
#X connect 26 0 29 1;
#X connect 27 0 4 1;
#X connect 28 0 29 0;
#X connect 29 0 27 1;
#X connect 30 0 27 0;
#X connect 30 0 28 0;
#X connect 31 0 32 0;
#X connect 32 0 30 0;
#X connect 33 0 34 0;
#X connect 34 0 35 0;
#X connect 35 0 31 1;
#X connect 36 0 33 0;
#X connect 37 0 32 2;
#X coords 0 -1 1 1 172 130 2 100 100;
