#N canvas 0 22 802 406 10;
#X obj 274 173 hsl 128 20 0 1 0 1 empty empty pan_position 6 10 1 11
-262131 -1 -1 12700 0;
#X obj 174 259 equal_power_pan~;
#X obj 242 118 t b b;
#X obj 289 118 t b b;
#X msg 242 142 0;
#X msg 288 144 1;
#X obj 244 47 f 0;
#X obj 281 47 + 1;
#X text 311 22 inlet bang;
#X text 144 214 inlet audio;
#X obj 174 282 outlet~;
#X obj 282 282 outlet~;
#X obj 174 235 inlet~;
#X obj 242 93 sel 0 1;
#X obj 243 71 mod 2;
#X obj 496 223 hsl 128 20 0 1 0 1 empty empty pan_position 6 10 1 11
-262131 -1 -1 2540 0;
#X obj 464 168 t b b;
#X obj 511 168 t b b;
#X msg 464 192 0;
#X msg 510 194 1;
#X text 533 72 inlet bang;
#X obj 466 73 r bang;
#X obj 467 96 random 20;
#X obj 555 169 t b b;
#X obj 465 115 mod 5;
#X obj 466 135 sel 0 1 2 3 4;
#X msg 554 195 0.2;
#X obj 598 169 t b b;
#X msg 597 195 0.8;
#X obj 641 170 t b b;
#X msg 640 196 0.5;
#X obj 244 23 r Mbang;
#X connect 0 0 1 1;
#X connect 1 0 10 0;
#X connect 1 1 11 0;
#X connect 2 1 4 0;
#X connect 3 1 5 0;
#X connect 4 0 0 0;
#X connect 5 0 0 0;
#X connect 6 0 7 0;
#X connect 6 0 14 0;
#X connect 7 0 6 1;
#X connect 12 0 1 0;
#X connect 13 0 2 0;
#X connect 13 1 3 0;
#X connect 14 0 13 0;
#X connect 16 1 18 0;
#X connect 17 1 19 0;
#X connect 18 0 15 0;
#X connect 19 0 15 0;
#X connect 21 0 22 0;
#X connect 22 0 24 0;
#X connect 23 1 26 0;
#X connect 24 0 25 0;
#X connect 25 0 16 0;
#X connect 25 1 17 0;
#X connect 25 2 23 0;
#X connect 25 3 27 0;
#X connect 25 4 29 0;
#X connect 26 0 15 0;
#X connect 27 1 28 0;
#X connect 28 0 15 0;
#X connect 29 1 30 0;
#X connect 30 0 15 0;
#X connect 31 0 6 0;
