#N canvas 0 22 450 300 10;
#X obj 33 72 wrap~;
#X obj 33 23 inlet~;
#X obj 33 139 outlet~;
#X obj 33 51 *~;
#X obj 33 94 sqrt~;
#X obj 33 116 cos~;
#X connect 0 0 4 0;
#X connect 1 0 3 0;
#X connect 1 0 3 1;
#X connect 3 0 0 0;
#X connect 4 0 5 0;
#X connect 5 0 2 0;
