#N canvas 502 190 677 472 10;
#N canvas 75 87 716 441 OTO-Biscuit 0;
#N canvas 0 34 960 628 ADC 0;
#X obj 117 119 wrap~;
#X obj 117 160 expr~ if ($v1 >= 0.5 \, 1 \, 0) \;;
#X obj 117 91 /~ 256;
#X obj 197 108 wrap~;
#X obj 197 140 expr~ if ($v1 >= 0.5 \, 1 \, 0) \;;
#X obj 307 88 wrap~;
#X obj 307 120 expr~ if ($v1 >= 0.5 \, 1 \, 0) \;;
#X obj 387 68 wrap~;
#X obj 387 100 expr~ if ($v1 >= 0.5 \, 1 \, 0) \;;
#X obj 497 48 wrap~;
#X obj 497 80 expr~ if ($v1 >= 0.5 \, 1 \, 0) \;;
#X obj 577 28 wrap~;
#X obj 577 60 expr~ if ($v1 >= 0.5 \, 1 \, 0) \;;
#X obj 687 8 wrap~;
#X obj 687 40 expr~ if ($v1 >= 0.5 \, 1 \, 0) \;;
#X obj 767 -12 wrap~;
#X obj 767 20 expr~ if ($v1 >= 0.5 \, 1 \, 0) \;;
#X obj 197 86 *~ 2;
#X obj 307 66 *~ 2;
#X obj 387 49 *~ 2;
#X obj 497 27 *~ 2;
#X obj 577 5 *~ 2;
#X obj 687 -19 *~ 2;
#X obj 767 -34 *~ 2;
#X obj 118 -10 +~ 1;
#X obj 149 184 inlet;
#X obj 229 184 inlet;
#X obj 339 174 inlet;
#X obj 119 228 *~;
#X obj 199 228 *~;
#X obj 309 228 *~;
#X obj 389 228 *~;
#X obj 489 228 *~;
#X obj 589 228 *~;
#X obj 690 227 *~;
#X obj 770 227 *~;
#X obj 149 205 sig~;
#X obj 229 205 sig~;
#X obj 339 195 sig~;
#X obj 429 174 inlet;
#X obj 429 195 sig~;
#X obj 529 174 inlet;
#X obj 529 195 sig~;
#X obj 630 173 inlet;
#X obj 630 194 sig~;
#X obj 720 173 inlet;
#X obj 720 194 sig~;
#X obj 800 173 inlet;
#X obj 800 194 sig~;
#X obj 770 256 *~ 1;
#X obj 690 256 *~ 2;
#X obj 590 256 *~ 4;
#X obj 490 256 *~ 8;
#X obj 390 256 *~ 16;
#X obj 310 256 *~ 32;
#X obj 200 255 *~ 64;
#X obj 120 255 *~ 128;
#X obj 181 363 -~ 1;
#X obj 184 409 outlet~;
#X obj 177 327 /~ 128;
#X obj 119 -106 inlet~;
#X obj 118 14 *~ 128;
#X connect 0 0 1 0;
#X connect 0 0 17 0;
#X connect 1 0 28 0;
#X connect 2 0 0 0;
#X connect 3 0 4 0;
#X connect 3 0 18 0;
#X connect 4 0 29 0;
#X connect 5 0 6 0;
#X connect 5 0 19 0;
#X connect 6 0 30 0;
#X connect 7 0 8 0;
#X connect 7 0 20 0;
#X connect 8 0 31 0;
#X connect 9 0 10 0;
#X connect 9 0 21 0;
#X connect 10 0 32 0;
#X connect 11 0 12 0;
#X connect 11 0 22 0;
#X connect 12 0 33 0;
#X connect 13 0 14 0;
#X connect 13 0 23 0;
#X connect 14 0 34 0;
#X connect 15 0 16 0;
#X connect 16 0 35 0;
#X connect 17 0 3 0;
#X connect 18 0 5 0;
#X connect 19 0 7 0;
#X connect 20 0 9 0;
#X connect 21 0 11 0;
#X connect 22 0 13 0;
#X connect 23 0 15 0;
#X connect 24 0 61 0;
#X connect 25 0 36 0;
#X connect 26 0 37 0;
#X connect 27 0 38 0;
#X connect 28 0 56 0;
#X connect 29 0 55 0;
#X connect 30 0 54 0;
#X connect 31 0 53 0;
#X connect 32 0 52 0;
#X connect 33 0 51 0;
#X connect 34 0 50 0;
#X connect 35 0 49 0;
#X connect 36 0 28 1;
#X connect 37 0 29 1;
#X connect 38 0 30 1;
#X connect 39 0 40 0;
#X connect 40 0 31 1;
#X connect 41 0 42 0;
#X connect 42 0 32 1;
#X connect 43 0 44 0;
#X connect 44 0 33 1;
#X connect 45 0 46 0;
#X connect 46 0 34 1;
#X connect 47 0 48 0;
#X connect 48 0 35 1;
#X connect 49 0 59 0;
#X connect 50 0 59 0;
#X connect 51 0 59 0;
#X connect 52 0 59 0;
#X connect 53 0 59 0;
#X connect 54 0 59 0;
#X connect 55 0 59 0;
#X connect 56 0 59 0;
#X connect 57 0 58 0;
#X connect 59 0 57 0;
#X connect 60 0 24 0;
#X connect 61 0 2 0;
#X restore 161 426 pd ADC 8-bit sound;
#X obj 136 173 tgl 15 0 empty empty empty 17 7 0 10 -262144 -1 -1 1
1;
#X obj 174 167 knob 32 32 0 127 0 0 empty nonein empty 0 -8 64 8 -262144
-1 -1 3100 1;
#N canvas 0 22 450 300 decimator 0;
#X obj 171 255 select 0 1;
#X msg 155 304 1;
#X msg 188 304 0;
#X msg 225 304 1;
#X msg 258 304 0;
#X obj 172 362 *~;
#X obj 212 362 *~;
#X obj 92 250 inlet~;
#X obj 170 227 inlet;
#X obj 292 357 samphold~;
#X obj 294 290 phasor~;
#X obj 304 261 mtof;
#X obj 308 231 + 21;
#X obj 303 202 inlet;
#X obj 197 416 outlet~;
#X connect 0 0 1 0;
#X connect 0 0 2 0;
#X connect 0 1 3 0;
#X connect 0 1 4 0;
#X connect 1 0 6 1;
#X connect 2 0 5 1;
#X connect 3 0 5 1;
#X connect 4 0 6 1;
#X connect 5 0 14 0;
#X connect 6 0 14 0;
#X connect 7 0 9 0;
#X connect 7 0 5 0;
#X connect 8 0 0 0;
#X connect 9 0 6 0;
#X connect 10 0 9 1;
#X connect 11 0 10 0;
#X connect 12 0 11 0;
#X connect 13 0 12 0;
#X restore 160 382 pd decimator;
#X obj 157 229 tgl 32 0 empty empty empty 17 7 0 10 -1 -262144 -1 1
1;
#X obj 117 229 tgl 32 0 empty empty empty 17 7 0 10 -1 -262144 -1 1
1;
#X obj 197 229 tgl 32 0 empty empty empty 17 7 0 10 -1 -262144 -1 1
1;
#X obj 237 229 tgl 32 0 empty empty empty 17 7 0 10 -1 -262144 -1 1
1;
#X obj 277 229 tgl 32 0 empty empty empty 17 7 0 10 -1 -262144 -1 1
1;
#X obj 317 229 tgl 32 0 empty empty empty 17 7 0 10 -1 -262144 -1 1
1;
#X obj 357 229 tgl 32 0 empty empty empty 17 7 0 10 -1 -262144 -1 1
1;
#X obj 397 229 tgl 32 0 empty empty empty 17 7 0 10 -1 -262144 -1 1
1;
#X obj 386 173 tgl 15 0 empty empty empty 17 7 0 10 -262144 -1 -1 0
1;
#X obj 334 167 knob 32 32 0 127 0 0 empty nonein empty 0 -8 64 8 -262144
-1 -1 3100 1;
#X text 245 173 No Brain;
#X obj 361 114 knob 32 32 0 127 0 0 empty nonein empty 0 -8 64 8 -262144
-1 -1 0 1;
#N canvas 0 22 450 300 filter 0;
#X obj 184 92 select 0 1;
#X msg 168 141 1;
#X msg 201 141 0;
#X msg 238 141 1;
#X msg 271 141 0;
#X obj 185 199 *~;
#X obj 225 199 *~;
#X obj 183 64 inlet;
#X obj 210 253 outlet~;
#X obj 88 152 svf~ ------;
#X obj 92 103 inlet~;
#X obj 245 62 inlet;
#X obj 259 96 mtof;
#X obj 285 62 inlet;
#X obj 301 93 / 127;
#X connect 0 0 1 0;
#X connect 0 0 2 0;
#X connect 0 1 3 0;
#X connect 0 1 4 0;
#X connect 1 0 5 1;
#X connect 2 0 6 1;
#X connect 3 0 6 1;
#X connect 4 0 5 1;
#X connect 5 0 8 0;
#X connect 6 0 8 0;
#X connect 7 0 0 0;
#X connect 9 0 5 0;
#X connect 9 1 6 0;
#X connect 10 0 9 0;
#X connect 11 0 12 0;
#X connect 12 0 9 1;
#X connect 13 0 14 0;
#X connect 14 0 9 2;
#X restore 162 453 pd filter;
#X text 372 147 Q;
#X text 335 199 freq;
#X text 175 199 clock;
#X text 125 189 bypass;
#X text 376 189 filter;
#X obj 151 114 knob 32 32 1.2 0.1 0 0 empty nonein empty 0 -8 64 8
-262144 -1 -1 0 1;
#X obj 211 114 knob 32 32 0 1 0 0 empty nonein empty 0 -8 64 8 -262144
-1 -1 0 1;
#X obj 291 114 knob 32 32 0 1 0 0 empty nonein empty 0 -8 64 8 -262144
-1 -1 3100 1;
#X text 287 149 dressed;
#X text 210 149 naked;
#X text 150 149 drive;
#N canvas 0 22 467 426 drive 0;
#X obj 47 339 clip~;
#X obj 56 231 inlet;
#X obj 11 231 inlet~;
#X obj 48 383 outlet~;
#X obj 123 316 -;
#X obj 101 260 t b f;
#X obj 170 327 + 0.2;
#X obj 125 400 *~;
#X obj 180 363 max 1;
#X msg 117 284 2;
#X connect 0 0 7 0;
#X connect 1 0 0 2;
#X connect 1 0 4 1;
#X connect 1 0 5 0;
#X connect 2 0 0 0;
#X connect 4 0 6 0;
#X connect 5 0 9 0;
#X connect 5 1 4 1;
#X connect 6 0 8 0;
#X connect 7 0 3 0;
#X connect 8 0 7 1;
#X connect 9 0 4 0;
#X restore 160 335 pd drive;
#N canvas 0 22 450 300 naked/dressed 0;
#X obj 119 75 inlet~;
#X obj 134 225 outlet~;
#X obj 194 225 outlet~;
#X obj 113 155 *~;
#X obj 191 76 inlet;
#X obj 192 153 *~;
#X obj 270 74 inlet;
#X connect 0 0 3 0;
#X connect 0 0 5 0;
#X connect 3 0 1 0;
#X connect 4 0 3 1;
#X connect 5 0 2 0;
#X connect 6 0 5 1;
#X restore 150 357 pd naked/dressed;
#X obj 146 477 outlet~;
#X obj 84 311 inlet~;
#X text 408 103 v 0.7;
#X msg 50 55 bang;
#X obj 24 153 snapshot~;
#X obj 48 179 abs;
#X obj 27 89 metro 100;
#X obj 47 202 env 25;
#X obj 104 19 loadbang;
#X text 103 100 in clip;
#X floatatom 104 120 5 0 0 0 - - -;
#X text 128 259 1;
#X text 168 259 2;
#X text 208 259 3;
#X text 248 259 4;
#X text 288 259 5;
#X text 328 259 6;
#X text 368 259 7;
#X text 408 259 8;
#X msg 116 63 1.2;
#X msg 160 67 1;
#X msg 217 73 0;
#X msg 265 67 127;
#X connect 0 0 16 0;
#X connect 1 0 3 1;
#X connect 2 0 3 2;
#X connect 3 0 0 0;
#X connect 4 0 0 2;
#X connect 5 0 0 1;
#X connect 6 0 0 3;
#X connect 7 0 0 4;
#X connect 8 0 0 5;
#X connect 9 0 0 6;
#X connect 10 0 0 7;
#X connect 11 0 0 8;
#X connect 12 0 16 1;
#X connect 13 0 16 2;
#X connect 15 0 16 3;
#X connect 16 0 30 0;
#X connect 22 0 28 1;
#X connect 23 0 29 1;
#X connect 24 0 29 2;
#X connect 28 0 29 0;
#X connect 29 0 30 0;
#X connect 29 1 3 0;
#X connect 31 0 28 0;
#X connect 31 0 34 0;
#X connect 33 0 36 0;
#X connect 34 0 35 0;
#X connect 35 0 37 0;
#X connect 36 0 34 0;
#X connect 37 0 40 0;
#X connect 38 0 33 0;
#X connect 38 0 49 0;
#X connect 38 0 50 0;
#X connect 38 0 51 0;
#X connect 38 0 52 0;
#X connect 49 0 22 0;
#X connect 50 0 24 0;
#X connect 50 0 1 0;
#X connect 50 0 5 0;
#X connect 50 0 4 0;
#X connect 50 0 6 0;
#X connect 50 0 7 0;
#X connect 50 0 8 0;
#X connect 50 0 9 0;
#X connect 50 0 10 0;
#X connect 50 0 11 0;
#X connect 51 0 15 0;
#X connect 51 0 12 0;
#X connect 51 0 23 0;
#X connect 52 0 13 0;
#X connect 52 0 2 0;
#X coords 0 -1 1 1 350 175 2 100 100;
#X restore 128 90 pd OTO-Biscuit;
