#N canvas 373 22 651 426 10;
#X obj 180 73 inlet;
#X obj 164 251 outlet~;
#X obj 15 11 inlet~;
#X text 218 251 audio output;
#X text 222 73 stream of incoming data values (0 - 100);
#X text 65 10 audio input;
#X obj 180 132 t f b;
#X msg 207 154 5;
#X obj 180 177 pack;
#X obj 164 218 *~;
#X obj 180 197 line~;
#X text 28 294 modify the amplitude of an input signal;
#X text 221 196 linear envelope;
#X text 29 324 one inlet~: audio data for processing;
#X text 29 338 one inlet: stream of values interpreted as amplitudes
;
#X text 29 352 one outlet~: processed audio;
#X obj 180 92 clip 0 100;
#X obj 164 51 tgl 15 0 empty empty empty 0 -6 0 8 -262144 -1 -1 0 1
;
#X obj 180 112 dbtorms;
#X text 28 309 one user-specified value: on/off key assignment (\$1)
;
#X text 29 280 sfx-ampenv~.pd;
#N canvas 0 22 450 300 bypass~ 0;
#X obj 35 32 inlet~;
#X obj 251 35 inlet;
#X obj 35 279 outlet~;
#X obj 51 227 line~;
#X obj 35 252 *~;
#X msg 51 195 1 5;
#X msg 84 195 0 5;
#X text 84 32 audio input;
#X obj 252 278 outlet~;
#X obj 268 226 line~;
#X obj 252 251 *~;
#X msg 268 194 1 5;
#X msg 301 194 0 5;
#X text 290 36 toggle (0/1);
#X obj 251 58 sel 0;
#X obj 238 92 t b b;
#X obj 281 92 t b b;
#X text 90 279 outlet for bypass;
#X text 310 278 outlet for processing;
#X obj 172 92 loadbang;
#X connect 0 0 4 0;
#X connect 0 0 10 0;
#X connect 1 0 14 0;
#X connect 3 0 4 1;
#X connect 4 0 2 0;
#X connect 5 0 3 0;
#X connect 6 0 3 0;
#X connect 9 0 10 1;
#X connect 10 0 8 0;
#X connect 11 0 9 0;
#X connect 12 0 9 0;
#X connect 14 0 15 0;
#X connect 14 1 16 0;
#X connect 15 0 5 0;
#X connect 15 1 12 0;
#X connect 16 0 6 0;
#X connect 16 1 11 0;
#X connect 19 0 5 0;
#X connect 19 0 12 0;
#X restore 35 159 pd bypass~;
#X connect 0 0 16 0;
#X connect 2 0 21 0;
#X connect 6 0 8 0;
#X connect 6 1 7 0;
#X connect 7 0 8 1;
#X connect 8 0 10 0;
#X connect 9 0 1 0;
#X connect 10 0 9 1;
#X connect 16 0 18 0;
#X connect 17 0 21 1;
#X connect 18 0 6 0;
#X connect 21 0 1 0;
#X connect 21 1 9 0;
#X coords 0 -1 1 1 100 17 1 80 50;
