#N canvas 414 100 610 599 10;
#X obj 283 11 inlet;
#X obj 56 24 inlet~;
#X text 325 11 stream of incoming data values (0 - 100);
#X text 105 24 audio input;
#X text 44 512 one inlet~: audio data for processing;
#X text 44 544 one outlet~: processed audio;
#X obj 56 401 outlet~;
#X obj 283 31 clip 0 100;
#X text 113 400 audio output;
#X obj 205 151 tgl 15 0 empty empty empty 0 -6 0 8 -262144 -1 -1 0
1;
#X obj 203 219 *~ -2;
#X obj 155 283 +~;
#X obj 155 257 *~ 3;
#X text 267 317 this filter design is "twiced";
#X text 267 330 which creates a steeper cutoff slope;
#X text 267 344 than just using a single filter;
#X text 352 30 interpreted as MIDI note numbers;
#X obj 283 84 mtof;
#X obj 203 255 vcf~;
#X obj 155 323 vcf~;
#X obj 155 365 vcf~;
#X obj 283 104 t f b;
#X msg 310 125 5;
#X obj 283 146 pack;
#X obj 285 218 line~;
#X text 46 449 apply a bandpass filter to an input signal;
#X text 62 464 (creating a resonance around a center frequency);
#X text 47 436 sfx-randombpass~.pd;
#X text 44 498 one user-specified values: on/off key assignment (\$1)
;
#X obj 283 52 t f b f;
#X obj 354 128 random 750;
#X obj 354 149 / 100;
#X obj 354 171 + 0.5;
#X obj 354 217 t f f f;
#X text 65 479 with randomly changing Q/resonance factor;
#X text 44 526 one inlet: values interpreted as MIDI note numbers;
#X obj 381 84 s pitch-report;
#N canvas 0 22 450 300 bypass~ 0;
#X obj 35 32 inlet~;
#X obj 251 35 inlet;
#X obj 35 279 outlet~;
#X obj 51 227 line~;
#X obj 35 252 *~;
#X msg 51 195 1 5;
#X msg 84 195 0 5;
#X text 84 32 audio input;
#X obj 252 278 outlet~;
#X obj 268 226 line~;
#X obj 252 251 *~;
#X msg 268 194 1 5;
#X msg 301 194 0 5;
#X text 290 36 toggle (0/1);
#X obj 251 58 sel 0;
#X obj 238 92 t b b;
#X obj 281 92 t b b;
#X text 90 279 outlet for bypass;
#X text 310 278 outlet for processing;
#X obj 172 92 loadbang;
#X connect 0 0 4 0;
#X connect 0 0 10 0;
#X connect 1 0 14 0;
#X connect 3 0 4 1;
#X connect 4 0 2 0;
#X connect 5 0 3 0;
#X connect 6 0 3 0;
#X connect 9 0 10 1;
#X connect 10 0 8 0;
#X connect 11 0 9 0;
#X connect 12 0 9 0;
#X connect 14 0 15 0;
#X connect 14 1 16 0;
#X connect 15 0 5 0;
#X connect 15 1 12 0;
#X connect 16 0 6 0;
#X connect 16 1 11 0;
#X connect 19 0 5 0;
#X connect 19 0 12 0;
#X restore 53 219 pd bypass~;
#X connect 0 0 7 0;
#X connect 1 0 37 0;
#X connect 7 0 29 0;
#X connect 9 0 37 1;
#X connect 10 0 18 0;
#X connect 11 0 19 0;
#X connect 12 0 11 0;
#X connect 17 0 21 0;
#X connect 18 0 11 1;
#X connect 19 0 20 0;
#X connect 20 0 6 0;
#X connect 21 0 23 0;
#X connect 21 1 22 0;
#X connect 22 0 23 1;
#X connect 23 0 24 0;
#X connect 24 0 18 1;
#X connect 24 0 19 1;
#X connect 24 0 20 1;
#X connect 29 0 17 0;
#X connect 29 1 30 0;
#X connect 29 2 36 0;
#X connect 30 0 31 0;
#X connect 31 0 32 0;
#X connect 32 0 33 0;
#X connect 33 0 18 2;
#X connect 33 1 19 2;
#X connect 33 2 20 2;
#X connect 37 0 6 0;
#X connect 37 1 12 0;
#X connect 37 1 10 0;
#X coords 0 -1 1 1 140 17 1 81 150;
