#N canvas 447 100 577 591 10;
#X obj 246 22 inlet;
#X obj 36 24 inlet~;
#X text 288 22 stream of incoming data values (0 - 100);
#X text 85 24 audio input;
#X text 33 491 one inlet~: audio data for processing;
#X text 33 535 one outlet~: processed audio;
#X text 33 505 one inlet: values interpreted as MIDI pitches (0-100)
;
#X obj 246 308 *~;
#X obj 36 401 outlet~;
#X obj 246 195 line~;
#X obj 246 176 pack;
#X msg 279 132 5;
#X text 93 400 audio output;
#X obj 185 151 tgl 15 0 empty empty empty 0 -6 0 8 -262144 -1 -1 0
1;
#X obj 365 224 line~;
#X obj 365 202 pack;
#X msg 388 133 5;
#X obj 312 170 / 1000;
#X text 51 460 with randomly varying feedback;
#X text 55 521 and triggering new random feedback values;
#X text 32 443 apply a delay to an input signal;
#X obj 185 400 delwrite~ \$0-delay 1500;
#X obj 246 224 vd~ \$0-delay 100;
#X obj 246 83 trigger f b b b;
#X obj 246 132 * 15;
#X obj 312 132 random 500;
#X obj 312 151 + 400;
#X obj 246 42 clip 0 100;
#X text 34 475 one user-specified value: on/off key assignment (\$1)
;
#X text 33 429 sfx-randomdelay~.pd;
#N canvas 0 22 450 300 bypass~ 0;
#X obj 35 32 inlet~;
#X obj 251 35 inlet;
#X obj 35 279 outlet~;
#X obj 51 227 line~;
#X obj 35 252 *~;
#X msg 51 195 1 5;
#X msg 84 195 0 5;
#X text 84 32 audio input;
#X obj 252 278 outlet~;
#X obj 268 226 line~;
#X obj 252 251 *~;
#X msg 268 194 1 5;
#X msg 301 194 0 5;
#X text 290 36 toggle (0/1);
#X obj 251 58 sel 0;
#X obj 238 92 t b b;
#X obj 281 92 t b b;
#X text 90 279 outlet for bypass;
#X text 310 278 outlet for processing;
#X obj 172 92 loadbang;
#X connect 0 0 4 0;
#X connect 0 0 10 0;
#X connect 1 0 14 0;
#X connect 3 0 4 1;
#X connect 4 0 2 0;
#X connect 5 0 3 0;
#X connect 6 0 3 0;
#X connect 9 0 10 1;
#X connect 10 0 8 0;
#X connect 11 0 9 0;
#X connect 12 0 9 0;
#X connect 14 0 15 0;
#X connect 14 1 16 0;
#X connect 15 0 5 0;
#X connect 15 1 12 0;
#X connect 16 0 6 0;
#X connect 16 1 11 0;
#X connect 19 0 5 0;
#X connect 19 0 12 0;
#X restore 40 231 pd bypass~;
#X connect 0 0 27 0;
#X connect 1 0 30 0;
#X connect 7 0 21 0;
#X connect 9 0 22 0;
#X connect 10 0 9 0;
#X connect 11 0 10 1;
#X connect 13 0 30 1;
#X connect 14 0 7 1;
#X connect 15 0 14 0;
#X connect 16 0 15 1;
#X connect 17 0 15 0;
#X connect 22 0 7 0;
#X connect 22 0 8 0;
#X connect 23 0 24 0;
#X connect 23 1 11 0;
#X connect 23 2 25 0;
#X connect 23 3 16 0;
#X connect 24 0 10 0;
#X connect 25 0 26 0;
#X connect 26 0 17 0;
#X connect 27 0 23 0;
#X connect 30 0 8 0;
#X connect 30 1 8 0;
#X connect 30 1 21 0;
#X coords 0 -1 1 1 140 17 1 61 150;
