#N canvas 426 100 598 587 10;
#X obj 266 9 inlet;
#X obj 56 24 inlet~;
#X text 308 9 stream of incoming data values (0 - 100);
#X text 105 24 audio input;
#X text 46 510 one inlet~: audio data for processing;
#X text 45 555 one outlet~: processed audio;
#X obj 56 401 outlet~;
#X obj 266 29 clip 0 100;
#X text 113 400 audio output;
#X obj 205 151 tgl 15 0 empty empty empty 0 -6 0 8 -262144 -1 -1 0
1;
#X text 45 494 one user-specified value: on/off key assignment (\$1)
;
#X obj 203 219 *~ -2;
#X obj 155 297 +~;
#X obj 155 266 *~ 3;
#X obj 266 52 * 200;
#X text 335 28 interpreted as a percentage of spectrum;
#X obj 266 239 t f f f;
#X obj 287 176 loadbang;
#X text 46 524 one inlet: values interpreted as percentage of spectrum
;
#X text 262 301 this filter design is "twiced";
#X text 262 314 which creates a steeper cutoff slope;
#X text 262 328 than just using a single filter;
#X text 327 197 initialize to pass all frequencies;
#X obj 203 264 hip~;
#X obj 155 323 hip~;
#X obj 155 354 hip~;
#X msg 287 197 0;
#X text 47 448 sfx-highpass~.pd;
#X text 46 461 apply a highpass filter to an input signal;
#X text 61 477 (removing low frequencies);
#X text 69 539 (0 = all frequencies pass \, 100 = all frequencies rejected)
;
#N canvas 0 22 450 300 bypass~ 0;
#X obj 35 32 inlet~;
#X obj 251 35 inlet;
#X obj 35 279 outlet~;
#X obj 51 227 line~;
#X obj 35 252 *~;
#X msg 51 195 1 5;
#X msg 84 195 0 5;
#X text 84 32 audio input;
#X obj 252 278 outlet~;
#X obj 268 226 line~;
#X obj 252 251 *~;
#X msg 268 194 1 5;
#X msg 301 194 0 5;
#X text 290 36 toggle (0/1);
#X obj 251 58 sel 0;
#X obj 238 92 t b b;
#X obj 281 92 t b b;
#X text 90 279 outlet for bypass;
#X text 310 278 outlet for processing;
#X obj 172 92 loadbang;
#X connect 0 0 4 0;
#X connect 0 0 10 0;
#X connect 1 0 14 0;
#X connect 3 0 4 1;
#X connect 4 0 2 0;
#X connect 5 0 3 0;
#X connect 6 0 3 0;
#X connect 9 0 10 1;
#X connect 10 0 8 0;
#X connect 11 0 9 0;
#X connect 12 0 9 0;
#X connect 14 0 15 0;
#X connect 14 1 16 0;
#X connect 15 0 5 0;
#X connect 15 1 12 0;
#X connect 16 0 6 0;
#X connect 16 1 11 0;
#X connect 19 0 5 0;
#X connect 19 0 12 0;
#X restore 65 195 pd bypass~;
#X connect 0 0 7 0;
#X connect 1 0 31 0;
#X connect 7 0 14 0;
#X connect 9 0 31 1;
#X connect 11 0 23 0;
#X connect 12 0 24 0;
#X connect 13 0 12 0;
#X connect 14 0 16 0;
#X connect 16 0 23 1;
#X connect 16 1 24 1;
#X connect 16 2 25 1;
#X connect 17 0 26 0;
#X connect 23 0 12 1;
#X connect 24 0 25 0;
#X connect 25 0 6 0;
#X connect 26 0 16 0;
#X connect 31 0 6 0;
#X connect 31 1 13 0;
#X connect 31 1 11 0;
#X coords 0 -1 1 1 110 17 1 111 150;
