#N canvas 458 100 564 482 10;
#X declare -path z_nrci_abs;
#X obj 201 30 inlet;
#X obj 36 24 inlet~;
#X text 243 30 stream of incoming data values (0 - 100);
#X text 85 24 audio input;
#X text 33 373 one inlet~: audio data for processing;
#X text 33 401 one outlet~: processed audio;
#X text 33 387 one inlet: values interpreted as MIDI pitches (0-100)
;
#X obj 36 301 outlet~;
#X obj 201 198 line~;
#X obj 201 179 pack;
#X msg 224 153 5;
#X obj 201 91 mtof;
#X obj 201 50 clip 0 100;
#X text 93 300 audio output;
#X obj 185 151 tgl 15 0 empty empty empty 0 -6 0 8 -262144 -1 -1 0
1;
#X text 32 343 ring modulate an input signal;
#X text 33 329 milo-sfx-ringmod~.pd;
#X obj 185 240 *~;
#X obj 201 220 osc~;
#X obj 201 112 t f b;
#X obj 201 69 t f f;
#X text 32 358 one user-specified value: on/off key assignment;
#X obj 235 91 s pitch-report;
#X obj 589 300 declare -path z_nrci_abs;
#N canvas 0 22 450 300 bypass~ 0;
#X obj 35 32 inlet~;
#X obj 251 35 inlet;
#X obj 35 279 outlet~;
#X obj 51 227 line~;
#X obj 35 252 *~;
#X msg 51 195 1 5;
#X msg 84 195 0 5;
#X text 84 32 audio input;
#X obj 252 278 outlet~;
#X obj 268 226 line~;
#X obj 252 251 *~;
#X msg 268 194 1 5;
#X msg 301 194 0 5;
#X text 290 36 toggle (0/1);
#X obj 251 58 sel 0;
#X obj 238 92 t b b;
#X obj 281 92 t b b;
#X text 90 279 outlet for bypass;
#X text 310 278 outlet for processing;
#X obj 172 92 loadbang;
#X connect 0 0 4 0;
#X connect 0 0 10 0;
#X connect 1 0 14 0;
#X connect 3 0 4 1;
#X connect 4 0 2 0;
#X connect 5 0 3 0;
#X connect 6 0 3 0;
#X connect 9 0 10 1;
#X connect 10 0 8 0;
#X connect 11 0 9 0;
#X connect 12 0 9 0;
#X connect 14 0 15 0;
#X connect 14 1 16 0;
#X connect 15 0 5 0;
#X connect 15 1 12 0;
#X connect 16 0 6 0;
#X connect 16 1 11 0;
#X connect 19 0 5 0;
#X connect 19 0 12 0;
#X restore 60 217 pd bypass~;
#X connect 0 0 12 0;
#X connect 1 0 24 0;
#X connect 8 0 18 0;
#X connect 9 0 8 0;
#X connect 10 0 9 1;
#X connect 11 0 19 0;
#X connect 12 0 20 0;
#X connect 14 0 24 1;
#X connect 17 0 7 0;
#X connect 18 0 17 1;
#X connect 19 0 9 0;
#X connect 19 1 10 0;
#X connect 20 0 11 0;
#X connect 20 1 22 0;
#X connect 24 0 7 0;
#X connect 24 1 17 0;
#X coords 0 -1 1 1 110 17 1 91 150;
