#N canvas 409 100 615 465 10;
#X declare -path z_nrci_abs;
#X obj 246 22 inlet;
#X obj 36 24 inlet~;
#X text 288 22 stream of incoming data values (0 - 100);
#X text 85 24 audio input;
#X text 33 369 one inlet~: audio data for processing;
#X text 33 397 one outlet~: processed audio;
#X obj 36 297 outlet~;
#X obj 246 179 line~;
#X obj 246 160 pack;
#X obj 246 42 clip 0 100;
#X text 93 296 audio output;
#X obj 185 151 tgl 15 0 empty empty empty 0 -6 0 8 -262144 -1 -1 0
1;
#X text 32 339 sweeping through a delayed input signal;
#X text 33 383 one inlet: values interpreted as % location in delay
line;
#X obj 185 296 delwrite~ \$0-scrub 2000;
#X obj 246 211 vd~ \$0-scrub 2000;
#X obj 246 67 * 20;
#X obj 246 89 t f b;
#X msg 269 116 8;
#X text 32 354 one user-specified value: on/off key assignment (\$1)
;
#X text 33 325 sfx-scrub~.pd;
#X obj 599 310 declare -path z_nrci_abs;
#N canvas 0 22 450 300 bypass~ 0;
#X obj 35 32 inlet~;
#X obj 251 35 inlet;
#X obj 35 279 outlet~;
#X obj 51 227 line~;
#X obj 35 252 *~;
#X msg 51 195 1 5;
#X msg 84 195 0 5;
#X text 84 32 audio input;
#X obj 252 278 outlet~;
#X obj 268 226 line~;
#X obj 252 251 *~;
#X msg 268 194 1 5;
#X msg 301 194 0 5;
#X text 290 36 toggle (0/1);
#X obj 251 58 sel 0;
#X obj 238 92 t b b;
#X obj 281 92 t b b;
#X text 90 279 outlet for bypass;
#X text 310 278 outlet for processing;
#X obj 172 92 loadbang;
#X connect 0 0 4 0;
#X connect 0 0 10 0;
#X connect 1 0 14 0;
#X connect 3 0 4 1;
#X connect 4 0 2 0;
#X connect 5 0 3 0;
#X connect 6 0 3 0;
#X connect 9 0 10 1;
#X connect 10 0 8 0;
#X connect 11 0 9 0;
#X connect 12 0 9 0;
#X connect 14 0 15 0;
#X connect 14 1 16 0;
#X connect 15 0 5 0;
#X connect 15 1 12 0;
#X connect 16 0 6 0;
#X connect 16 1 11 0;
#X connect 19 0 5 0;
#X connect 19 0 12 0;
#X restore 53 227 pd bypass~;
#X connect 0 0 9 0;
#X connect 1 0 22 0;
#X connect 7 0 15 0;
#X connect 8 0 7 0;
#X connect 9 0 16 0;
#X connect 11 0 22 1;
#X connect 15 0 6 0;
#X connect 16 0 17 0;
#X connect 17 0 8 0;
#X connect 17 1 18 0;
#X connect 18 0 8 1;
#X connect 22 0 6 0;
#X connect 22 1 14 0;
#X coords 0 -1 1 1 100 17 1 101 150;
