#N canvas 438 100 586 575 10;
#X obj 266 9 inlet;
#X obj 56 24 inlet~;
#X text 308 9 stream of incoming data values (0 - 100);
#X text 105 24 audio input;
#X text 47 488 one inlet~: audio data for processing;
#X text 47 516 one outlet~: processed audio;
#X text 47 502 one inlet: values interpreted as MIDI pitches (0-100)
;
#X obj 384 169 loadbang;
#X obj 384 210 / 100;
#X obj 384 230 clip 0 0.999;
#X obj 205 400 delwrite~ \$0-comb 100;
#X obj 266 315 *~;
#X obj 56 401 outlet~;
#X obj 266 231 vd~ \$0-comb 100;
#X obj 309 201 line~;
#X obj 309 182 pack;
#X msg 332 138 5;
#X obj 293 137 /;
#X msg 266 111 22050;
#X obj 258 160 * 0.022675;
#X obj 266 69 mtof;
#X obj 266 29 clip 0 100;
#X text 113 400 audio output;
#X text 46 441 apply a comb filter to an input signal;
#X obj 205 151 tgl 15 0 empty empty empty 0 -6 0 8 -262144 -1 -1 0
1;
#X obj 266 90 trigger b f b;
#X obj 266 49 t f f;
#X text 46 456 two user-specified value: feedback % (0-99) (\$1);
#X text 65 471 on/off key assignment (\$2);
#X obj 384 190 float \$1;
#X text 47 428 sfx-combfilter~.pd;
#X obj 299 69 s pitch-report;
#N canvas 0 22 450 300 bypass~ 0;
#X obj 35 32 inlet~;
#X obj 251 35 inlet;
#X obj 35 279 outlet~;
#X obj 51 227 line~;
#X obj 35 252 *~;
#X msg 51 195 1 5;
#X msg 84 195 0 5;
#X text 84 32 audio input;
#X obj 252 278 outlet~;
#X obj 268 226 line~;
#X obj 252 251 *~;
#X msg 268 194 1 5;
#X msg 301 194 0 5;
#X text 290 36 toggle (0/1);
#X obj 251 58 sel 0;
#X obj 238 92 t b b;
#X obj 281 92 t b b;
#X text 90 279 outlet for bypass;
#X text 310 278 outlet for processing;
#X obj 172 92 loadbang;
#X connect 0 0 4 0;
#X connect 0 0 10 0;
#X connect 1 0 14 0;
#X connect 3 0 4 1;
#X connect 4 0 2 0;
#X connect 5 0 3 0;
#X connect 6 0 3 0;
#X connect 9 0 10 1;
#X connect 10 0 8 0;
#X connect 11 0 9 0;
#X connect 12 0 9 0;
#X connect 14 0 15 0;
#X connect 14 1 16 0;
#X connect 15 0 5 0;
#X connect 15 1 12 0;
#X connect 16 0 6 0;
#X connect 16 1 11 0;
#X connect 19 0 5 0;
#X connect 19 0 12 0;
#X restore 87 262 pd bypass~;
#X connect 0 0 21 0;
#X connect 1 0 32 0;
#X connect 7 0 29 0;
#X connect 8 0 9 0;
#X connect 9 0 11 1;
#X connect 11 0 10 0;
#X connect 13 0 11 0;
#X connect 13 0 12 0;
#X connect 14 0 13 0;
#X connect 15 0 14 0;
#X connect 16 0 15 1;
#X connect 17 0 19 0;
#X connect 18 0 17 0;
#X connect 19 0 15 0;
#X connect 20 0 25 0;
#X connect 21 0 26 0;
#X connect 24 0 32 1;
#X connect 25 0 18 0;
#X connect 25 1 17 1;
#X connect 25 2 16 0;
#X connect 26 0 20 0;
#X connect 26 1 31 0;
#X connect 29 0 8 0;
#X connect 32 0 12 0;
#X connect 32 1 10 0;
#X coords 0 -1 1 1 140 17 1 81 150;
