#N canvas 352 162 503 453 10;
#X obj 148 17 inlet;
#X obj 132 234 outlet~;
#X obj -17 17 inlet~;
#X text 186 234 audio output;
#X text 32 17 audio input;
#X obj 148 165 pack;
#X obj 132 210 *~;
#X obj 148 188 line~;
#X text 189 187 linear envelope;
#X text -10 298 one inlet~: audio data for processing;
#X text -10 342 one outlet~: processed audio;
#X msg 148 36 bang;
#X obj 148 84 int;
#X obj 173 84 + 1;
#X obj 148 104 mod 2;
#X obj 148 123 sel 0 1;
#X msg 148 144 1 5;
#X msg 176 144 0 5;
#X text -11 268 switches audio input signal on/off on each new data
value;
#X text -10 312 one inlet: stream of values interpreted as sequential
on/off;
#X text 14 327 commands;
#X text 190 17 stream of incoming data values;
#X obj 124 61 tgl 15 0 empty empty empty 0 -6 0 8 -262144 -1 -1 0 1
;
#X text -11 283 one user-specified value: on/off key assignment (\$1)
;
#X text -10 254 sfx-gate~.pd;
#N canvas 0 22 450 300 bypass~ 0;
#X obj 35 32 inlet~;
#X obj 251 35 inlet;
#X obj 35 279 outlet~;
#X obj 51 227 line~;
#X obj 35 252 *~;
#X msg 51 195 1 5;
#X msg 84 195 0 5;
#X text 84 32 audio input;
#X obj 252 278 outlet~;
#X obj 268 226 line~;
#X obj 252 251 *~;
#X msg 268 194 1 5;
#X msg 301 194 0 5;
#X text 290 36 toggle (0/1);
#X obj 251 58 sel 0;
#X obj 238 92 t b b;
#X obj 281 92 t b b;
#X text 90 279 outlet for bypass;
#X text 310 278 outlet for processing;
#X obj 172 92 loadbang;
#X connect 0 0 4 0;
#X connect 0 0 10 0;
#X connect 1 0 14 0;
#X connect 3 0 4 1;
#X connect 4 0 2 0;
#X connect 5 0 3 0;
#X connect 6 0 3 0;
#X connect 9 0 10 1;
#X connect 10 0 8 0;
#X connect 11 0 9 0;
#X connect 12 0 9 0;
#X connect 14 0 15 0;
#X connect 14 1 16 0;
#X connect 15 0 5 0;
#X connect 15 1 12 0;
#X connect 16 0 6 0;
#X connect 16 1 11 0;
#X connect 19 0 5 0;
#X connect 19 0 12 0;
#X restore 2 119 pd bypass~;
#X connect 0 0 11 0;
#X connect 2 0 25 0;
#X connect 5 0 7 0;
#X connect 6 0 1 0;
#X connect 7 0 6 1;
#X connect 11 0 12 0;
#X connect 12 0 13 0;
#X connect 12 0 14 0;
#X connect 13 0 12 1;
#X connect 14 0 15 0;
#X connect 15 0 16 0;
#X connect 15 1 17 0;
#X connect 16 0 5 0;
#X connect 17 0 5 0;
#X connect 22 0 25 1;
#X connect 25 0 1 0;
#X connect 25 1 6 0;
#X coords 0 -1 1 1 100 17 1 40 60;
