#N canvas 446 100 578 576 10;
#X obj 246 22 inlet;
#X obj 36 24 inlet~;
#X text 288 22 stream of incoming data values (0 - 100);
#X text 85 24 audio input;
#X text 37 467 one inlet~: audio data for processing;
#X text 35 513 one outlet~: processed audio;
#X obj 36 401 outlet~;
#X obj 246 169 line~;
#X obj 246 150 pack;
#X msg 269 131 5;
#X obj 246 86 mtof;
#X obj 246 42 clip 0 100;
#X text 93 400 audio output;
#X obj 195 151 tgl 15 0 empty empty empty 0 -6 0 8 -262144 -1 -1 0
1;
#X text 36 437 frequency modulate a delayed copy of an input signal
;
#X text 37 481 one inlet: values interpreted as MIDI pitches (0-100)
;
#X obj 246 297 vd~ \$0-fm 100;
#X obj 185 400 delwrite~ \$0-fm 1500;
#X obj 246 192 osc~;
#X obj 246 249 *~;
#X obj 246 273 +~ 1000;
#X obj 324 206 line~;
#X obj 324 187 pack;
#X msg 420 143 5;
#X obj 324 144 random 100;
#X obj 324 164 / 10;
#X text 58 498 for modulation frequency \, also trigger random index
changes;
#X obj 246 107 trigger float bang bang bang;
#X obj 246 63 t f f;
#X text 36 452 one user-specified value: on/off key assignment (\$1)
;
#X text 37 423 sfx-fm~.pd;
#X obj 279 86 s pitch-report;
#N canvas 0 22 450 300 bypass~ 0;
#X obj 35 32 inlet~;
#X obj 251 35 inlet;
#X obj 35 279 outlet~;
#X obj 51 227 line~;
#X obj 35 252 *~;
#X msg 51 195 1 5;
#X msg 84 195 0 5;
#X text 84 32 audio input;
#X obj 252 278 outlet~;
#X obj 268 226 line~;
#X obj 252 251 *~;
#X msg 268 194 1 5;
#X msg 301 194 0 5;
#X text 290 36 toggle (0/1);
#X obj 251 58 sel 0;
#X obj 238 92 t b b;
#X obj 281 92 t b b;
#X text 90 279 outlet for bypass;
#X text 310 278 outlet for processing;
#X obj 172 92 loadbang;
#X connect 0 0 4 0;
#X connect 0 0 10 0;
#X connect 1 0 14 0;
#X connect 3 0 4 1;
#X connect 4 0 2 0;
#X connect 5 0 3 0;
#X connect 6 0 3 0;
#X connect 9 0 10 1;
#X connect 10 0 8 0;
#X connect 11 0 9 0;
#X connect 12 0 9 0;
#X connect 14 0 15 0;
#X connect 14 1 16 0;
#X connect 15 0 5 0;
#X connect 15 1 12 0;
#X connect 16 0 6 0;
#X connect 16 1 11 0;
#X connect 19 0 5 0;
#X connect 19 0 12 0;
#X restore 61 249 pd bypass~;
#X connect 0 0 11 0;
#X connect 1 0 32 0;
#X connect 7 0 18 0;
#X connect 8 0 7 0;
#X connect 9 0 8 1;
#X connect 10 0 27 0;
#X connect 11 0 28 0;
#X connect 13 0 32 1;
#X connect 16 0 6 0;
#X connect 18 0 19 0;
#X connect 19 0 20 0;
#X connect 20 0 16 0;
#X connect 21 0 19 1;
#X connect 22 0 21 0;
#X connect 23 0 22 1;
#X connect 24 0 25 0;
#X connect 25 0 22 0;
#X connect 27 0 8 0;
#X connect 27 1 9 0;
#X connect 27 2 24 0;
#X connect 27 3 23 0;
#X connect 28 0 10 0;
#X connect 28 1 31 0;
#X connect 32 0 6 0;
#X connect 32 1 17 0;
#X coords 0 -1 1 1 80 17 1 131 150;
