#N canvas 0 22 1009 720 10;
#X obj 35 323 f;
#X obj 63 323 + 1;
#X obj 35 302 until;
#X obj 35 344 t f f;
#X msg 35 280 128;
#X obj 35 365 / 64;
#X obj 35 385 - 1;
#X obj 172 312 f;
#X obj 200 312 + 1;
#X obj 172 291 until;
#X obj 172 333 t f f;
#X msg 172 269 128;
#X obj 172 354 / 128;
#X obj 172 394 cos;
#X obj 172 374 * 6.283;
#X obj 366 312 f;
#X obj 394 312 + 1;
#X obj 366 291 until;
#X obj 366 333 t f f;
#X msg 366 269 128;
#X obj 366 354 / 128;
#X obj 366 394 cos;
#X obj 366 374 * 3.14159;
#X obj 594 313 + 1;
#X obj 556 292 until;
#X obj 556 336 t f f;
#X obj 556 358 expr ($f1-129)/128;
#X obj 556 382 expr 32*$f1*$f1*$f1*$f1*$f1*$f1 -48*$f1*$f1*$f1*$f1+18*$f1*$f1-1
;
#X msg 556 272 258;
#X obj 556 313 f 0;
#X obj 175 468 t b b;
#X obj 175 533 f;
#X obj 204 532 + 1;
#X msg 205 488 0;
#X obj 175 511 until;
#X obj 175 557 t f f;
#X msg 175 488 258;
#X obj 175 619 tanh;
#X obj 175 598 - 3.141;
#X obj 175 578 / 41;
#X obj 73 490 t b b;
#X obj 73 555 f;
#X obj 102 554 + 1;
#X msg 103 510 0;
#X obj 73 533 until;
#X obj 73 579 t f f;
#X msg 73 510 258;
#X obj 73 620 - 1;
#X obj 73 600 / 129;
#X text 35 -33 Just rename the table destination and bang it !;
#N canvas 0 22 450 300 (subpatch) 0;
#X array table0 131 float 0;
#X coords 0 1 130 -1 500 300 1;
#X restore 460 -56 graph;
#X msg 37 -7 \; table0 sinesum 128 0 0.1 0 0.2 0 0.3;
#X msg 36 26 \; table0 sinesum 128 0 0.5 0 0.25;
#X msg 36 60 \; table0 sinesum 128 0.8 0.1 0.1;
#X msg 35 100 \; table0 sinesum 131 0.6 \;;
#X msg 35 136 \; table0 sinesum 131 0.5 0 0.25 0 0.125 0 0.125 \;;
#X msg 35 169 \; table0 sinesum 131 0 0.3 0 0.2 0 0.1 0 0.05 \;;
#X msg 34 203 \; table0 sinesum 131 0.01 0.02 0.04 0.08 0.16 0.32 \;
;
#X obj 35 406 tabwrite table0;
#X obj 172 414 tabwrite table0;
#X obj 365 414 tabwrite table0;
#X obj 556 419 tabwrite table0;
#X obj 73 640 tabwrite table0;
#X obj 175 640 tabwrite table0;
#X connect 0 0 1 0;
#X connect 0 0 3 0;
#X connect 1 0 0 1;
#X connect 2 0 0 0;
#X connect 3 0 5 0;
#X connect 3 1 58 1;
#X connect 4 0 2 0;
#X connect 5 0 6 0;
#X connect 6 0 58 0;
#X connect 7 0 8 0;
#X connect 7 0 10 0;
#X connect 8 0 7 1;
#X connect 9 0 7 0;
#X connect 10 0 12 0;
#X connect 10 1 59 1;
#X connect 11 0 9 0;
#X connect 12 0 14 0;
#X connect 13 0 59 0;
#X connect 14 0 13 0;
#X connect 15 0 16 0;
#X connect 15 0 18 0;
#X connect 16 0 15 1;
#X connect 17 0 15 0;
#X connect 18 0 20 0;
#X connect 18 1 60 1;
#X connect 19 0 17 0;
#X connect 20 0 22 0;
#X connect 21 0 60 0;
#X connect 22 0 21 0;
#X connect 23 0 29 1;
#X connect 24 0 29 0;
#X connect 25 0 26 0;
#X connect 25 1 61 1;
#X connect 26 0 27 0;
#X connect 27 0 61 0;
#X connect 28 0 24 0;
#X connect 29 0 23 0;
#X connect 29 0 25 0;
#X connect 30 0 36 0;
#X connect 30 1 33 0;
#X connect 31 0 32 0;
#X connect 31 0 35 0;
#X connect 32 0 31 1;
#X connect 33 0 31 1;
#X connect 34 0 31 0;
#X connect 35 0 39 0;
#X connect 35 1 63 1;
#X connect 36 0 34 0;
#X connect 37 0 63 0;
#X connect 38 0 37 0;
#X connect 39 0 38 0;
#X connect 40 0 46 0;
#X connect 40 1 43 0;
#X connect 41 0 42 0;
#X connect 41 0 45 0;
#X connect 42 0 41 1;
#X connect 43 0 41 1;
#X connect 44 0 41 0;
#X connect 45 0 48 0;
#X connect 45 1 62 1;
#X connect 46 0 44 0;
#X connect 47 0 62 0;
#X connect 48 0 47 0;
