#N canvas 156 274 421 354 10;
#X obj 66 41 inlet;
#X obj 208 31 inlet;
#X text 166 14 Send/receive name;
#X text 28 16 Message to send;
#X msg 105 168 foo \; \; foo \; foo \; foo \; foo \; foo \; foo \;
foo 0 \; trill \; gliss \; harm \; lowD;
#X msg 97 102 add2 \$1;
#X obj 182 76 t a b;
#X msg 235 101 add;
#X msg 175 101 add2 \$1;
#X symbolatom 181 55 10 0 0 0 - - -;
#X obj 66 71 t b a b b;
#X msg 276 110 set;
#X connect 0 0 10 0;
#X connect 1 0 9 0;
#X connect 5 0 4 0;
#X connect 6 0 8 0;
#X connect 6 1 7 0;
#X connect 7 0 4 0;
#X connect 8 0 4 0;
#X connect 9 0 6 0;
#X connect 10 0 4 0;
#X connect 10 1 5 0;
#X connect 10 2 9 0;
#X connect 10 3 11 0;
#X connect 11 0 4 0;
