#N canvas 734 316 371 361 10;
#X obj 42 328 s SaveMemoPreset;
#X obj 163 328 s LoadMemoPreset;
#X floatatom 132 116 3 0 999 0 - - -;
#X floatatom 132 141 3 0 999 0 - - -;
#X obj 3 198 i 1;
#X obj 136 198 i 1;
#X obj 161 117 bng 15 250 50 0 empty empty empty 17 7 0 10 -262144
-1 -1;
#X obj 161 142 bng 15 250 50 0 empty empty empty 17 7 0 10 -262144
-1 -1;
#X floatatom 202 116 3 0 999 0 - - -;
#X floatatom 202 141 3 0 999 0 - - -;
#X text 179 115 >>>;
#X text 179 140 >>>;
#X text 104 116 save;
#X text 103 141 load;
#X obj 140 59 inlet;
#X obj 100 59 inlet;
#X obj 266 328 outlet;
#X obj 309 328 outlet;
#X obj 100 79 t b f;
#X obj 140 79 t b f;
#X obj 161 163 t b b;
#X obj 136 218 t b f;
#X obj 136 258 i;
#X obj 136 238 del 5;
#X obj 161 198 s ChangeMemo;
#X obj 3 218 t f f f;
#X obj 136 278 t f f;
#X obj 136 308 print LOAD MemoPreset;
#X obj 3 308 print SAVE MemoPreset;
#X text 221 28 www.artflx.com;
#X text 221 38 www.artflx.net.tf;
#X text 220 49 flxet.web@gmail.com;
#X text 220 18 FLXlib(2009);
#X connect 2 0 4 1;
#X connect 3 0 5 1;
#X connect 4 0 25 0;
#X connect 5 0 21 0;
#X connect 6 0 4 0;
#X connect 7 0 20 0;
#X connect 8 0 16 0;
#X connect 9 0 17 0;
#X connect 14 0 19 0;
#X connect 15 0 18 0;
#X connect 18 0 6 0;
#X connect 18 1 2 0;
#X connect 19 0 7 0;
#X connect 19 1 3 0;
#X connect 20 0 24 0;
#X connect 20 1 5 0;
#X connect 21 0 23 0;
#X connect 21 1 22 1;
#X connect 22 0 26 0;
#X connect 23 0 22 0;
#X connect 25 0 28 0;
#X connect 25 1 8 0;
#X connect 25 2 0 0;
#X connect 26 0 27 0;
#X connect 26 1 1 0;
#X coords 0 -1 1 1 125 60 1 100 100;
