#N canvas 717 293 147 157 10;
#N canvas 990 183 326 136 MemoSave 0;
#X obj 11 83 pack s s;
#X msg 72 66 symbol \$1;
#X obj 11 9 r SaveMemoPreset;
#X msg 11 103 \; \$1 write \$2;
#X obj 11 63 symbol \$1;
#X obj 11 29 t b f;
#X obj 72 46 makefilename MemoPreset/%d-preset-\$1.txt;
#X obj 114 9 r \$1-SaveMemoPreset;
#X connect 0 0 3 0;
#X connect 1 0 0 1;
#X connect 2 0 5 0;
#X connect 4 0 0 0;
#X connect 5 0 4 0;
#X connect 5 1 6 0;
#X connect 6 0 1 0;
#X connect 7 0 5 0;
#X restore 10 40 pd MemoSave;
#N canvas 0 251 316 135 MemoLoad 0;
#X obj 4 76 pack s s;
#X msg 65 59 symbol \$1;
#X msg 4 96 \; \$1 read \$2;
#X obj 4 2 r LoadMemoPreset;
#X obj 4 22 t b f;
#X obj 4 56 symbol \$1;
#X obj 65 39 makefilename MemoPreset/%d-preset-\$1.txt;
#X obj 107 2 r \$1-LoadMemoPreset;
#X connect 0 0 2 0;
#X connect 1 0 0 1;
#X connect 3 0 4 0;
#X connect 4 0 5 0;
#X connect 4 1 6 0;
#X connect 5 0 0 0;
#X connect 6 0 1 0;
#X connect 7 0 4 0;
#X restore 10 60 pd MemoLoad;
#X obj 10 20 table \$1 \$2;
#X text 10 114 www.artflx.com;
#X text 10 124 www.artflx.net.tf;
#X text 9 135 flxet.web@gmail.com;
#X text 9 104 FLXlib(2009);
