#N canvas 945 106 312 366 10;
#X obj 94 -2 inlet;
#X obj 84 341 outlet;
#X obj 94 114 t f b;
#X msg 42 157 set \$1;
#X obj 94 174 tabwrite;
#X obj 15 114 symbol \$1;
#X obj 15 -2 loadbang;
#X obj 139 131 f \$2;
#X obj 84 303 tabread;
#X msg 15 286 set \$1;
#X obj 84 203 r LoadMemoPreset;
#X obj 84 243 del 1;
#X obj 84 283 f \$2;
#X obj 94 94 spigot;
#X msg 145 77 1;
#X msg 172 77 0;
#X obj 84 263 t b b;
#X obj 145 57 del 1;
#X obj 84 223 b;
#X obj 15 60 t b b;
#X obj 15 134 t s s;
#X obj 145 37 t b b;
#X obj 187 206 r \$1-LoadMemoPreset;
#X text 170 298 www.artflx.com;
#X text 170 308 www.artflx.net.tf;
#X text 169 319 flxet.web@gmail.com;
#X text 169 288 FLXlib(2009);
#X connect 0 0 13 0;
#X connect 2 0 4 0;
#X connect 2 1 7 0;
#X connect 3 0 4 0;
#X connect 5 0 20 0;
#X connect 6 0 19 0;
#X connect 7 0 4 1;
#X connect 8 0 1 0;
#X connect 9 0 8 0;
#X connect 10 0 18 0;
#X connect 11 0 16 0;
#X connect 12 0 8 0;
#X connect 13 0 2 0;
#X connect 14 0 13 1;
#X connect 15 0 13 1;
#X connect 16 0 12 0;
#X connect 16 1 21 0;
#X connect 17 0 14 0;
#X connect 18 0 11 0;
#X connect 19 0 5 0;
#X connect 19 1 14 0;
#X connect 20 0 9 0;
#X connect 20 1 3 0;
#X connect 21 0 17 0;
#X connect 21 1 15 0;
#X connect 22 0 18 0;
