#N canvas 147 22 946 681 10;
#N canvas 0 22 450 300 (subpatch) 0;
#X array \$0-tab-R 2.69719e+06 float 2;
#X coords 0 1 2.69719e+06 -1 300 50 1;
#X restore 167 315 graph;
#N canvas 0 22 450 300 (subpatch) 0;
#X array \$0-tab-L 2.69719e+06 float 2;
#X coords 0 1 2.69719e+06 -1 300 50 1;
#X restore 167 250 graph;
#X obj 170 369 hsl 295 10 0 1 0 0 empty empty empty -2 -8 0 10 -262144
-1 -1 0 1;
#X obj 170 383 hsl 295 10 0 1 0 0 empty empty empty -2 -8 0 10 -262144
-1 -1 0 1;
#X obj 170 397 hsl 295 10 0 1 0 0 empty empty empty -2 -8 0 10 -262144
-1 -1 0 1;
#X obj -94 -4 soundfiler;
#X obj -109 76 *;
#X obj -94 96 *;
#X obj -435 482 *~;
#X obj -265 482 *~;
#X msg 1 445 \$1 75;
#X obj 1 425 / 100;
#X obj 471 137 vsl 20 200 0 199 0 0 empty empty empty 0 -9 0 10 -262144
-1 -1 0 1;
#X text 128 365 start;
#X text 140 379 end;
#X text 110 393 position;
#X text 471 118 vol;
#X obj 121 119 bng 15 250 50 0 empty empty empty 17 7 0 10 -262144
-1 -1;
#X text 136 117 play;
#X obj -435 170 vline~;
#N canvas 0 22 450 300 (subpatch) 0;
#X array \$0-env 11 float 0;
#X coords 0 1 10 0 300 100 1;
#X restore 167 135 graph;
#X obj -148 291 tabread4~ \$0-env;
#X obj -435 458 *~;
#X obj -265 458 *~;
#X floatatom 471 348 4 0 9999 0 - - -;
#X obj -148 271 vline~;
#X obj -148 231 f;
#X obj -123 -131 loadbang;
#X obj -435 130 pack f f f;
#X obj -435 110 f 0;
#X floatatom 108 349 9 5 1e+10 0 - - -;
#X obj 121 138 bng 15 250 50 0 empty empty empty 17 7 0 10 -262144
-1 -1;
#X text 136 132 save;
#X obj 2 54 samplerate~;
#X obj -13 74 /;
#X obj 232 -10 symbol \$1;
#X obj 293 -10 i \$0;
#N canvas 520 22 335 171 normalize-tab 0;
#X obj 18 74 symbol;
#X obj 51 14 makefilename %d-tab-L;
#X obj 85 -37 inlet;
#X obj 85 -15 t b b;
#X obj 129 -37 inlet;
#X obj 129 -15 t f f;
#X obj 158 74 symbol;
#X obj 191 14 makefilename %d-tab-R;
#X obj 114 108 outlet;
#X obj 254 108 outlet;
#X msg 158 95 \; \$1 normalize 1;
#X msg 18 95 \; \$1 normalize 1;
#X msg 51 34 symbol \$1;
#X obj 51 54 t s s;
#X msg 191 34 symbol \$1;
#X obj 191 54 t s s;
#X connect 0 0 11 0;
#X connect 1 0 12 0;
#X connect 2 0 3 0;
#X connect 3 0 0 0;
#X connect 3 1 6 0;
#X connect 4 0 5 0;
#X connect 5 0 1 0;
#X connect 5 1 7 0;
#X connect 6 0 10 0;
#X connect 7 0 14 0;
#X connect 12 0 13 0;
#X connect 13 0 0 1;
#X connect 13 1 8 0;
#X connect 14 0 15 0;
#X connect 15 0 6 1;
#X connect 15 1 9 0;
#X restore 227 50 pd normalize-tab;
#N canvas 0 22 359 186 read-write-env 0;
#X msg 54 119 \; \$2 write \$1;
#X obj 235 20 makefilename %d-env;
#X obj 54 99 pack s s;
#X obj 54 78 symbol;
#X obj 87 20 makefilename %s-env.txt;
#X msg 143 119 \; \$2 read \$1;
#X obj 143 98 pack s s;
#X obj 3 162 print sampler-env;
#X msg 3 141 saved;
#X obj 3 -1 inlet;
#X obj 3 19 t b b;
#X obj 87 -1 inlet;
#X obj 235 -1 inlet;
#X obj 40 -1 inlet;
#X obj 87 59 t s s;
#X msg 87 40 symbol \$1;
#X obj 235 60 t s s;
#X msg 235 40 symbol \$1;
#X connect 1 0 17 0;
#X connect 2 0 0 0;
#X connect 3 0 2 0;
#X connect 4 0 15 0;
#X connect 6 0 5 0;
#X connect 8 0 7 0;
#X connect 9 0 10 0;
#X connect 10 0 8 0;
#X connect 10 1 3 0;
#X connect 11 0 4 0;
#X connect 12 0 1 0;
#X connect 13 0 6 0;
#X connect 14 0 3 1;
#X connect 14 1 6 0;
#X connect 15 0 14 0;
#X connect 16 0 2 1;
#X connect 16 1 6 1;
#X connect 17 0 16 0;
#X restore 166 27 pd read-write-env;
#X obj -94 -44 pack s s s;
#X obj 293 10 t f f;
#X obj -13 94 * 1000;
#X floatatom 435 118 5 0 100 0 - - -;
#X text 401 118 const;
#X text 136 140 env;
#N canvas 72 132 210 262 constant-env 0;
#X obj -31 160 tabwrite \$0-env;
#X obj -54 68 f 1;
#X obj -24 68 + 1;
#X msg 36 26 0;
#X obj -54 47 until;
#X msg -54 26 33;
#X msg -24 26 1;
#X obj -54 89 t f b f;
#X obj -31 139 f 1;
#X msg 6 26 34;
#X msg -84 26 0;
#X obj -76 -17 t b b b b b b f;
#X obj -76 -38 / 100;
#X obj -76 -59 inlet;
#X connect 1 0 7 0;
#X connect 2 0 1 1;
#X connect 3 0 0 1;
#X connect 4 0 1 0;
#X connect 5 0 4 0;
#X connect 6 0 1 1;
#X connect 7 0 2 0;
#X connect 7 1 8 0;
#X connect 7 2 0 1;
#X connect 8 0 0 0;
#X connect 9 0 0 1;
#X connect 10 0 0 0;
#X connect 11 0 10 0;
#X connect 11 1 9 0;
#X connect 11 2 5 0;
#X connect 11 3 6 0;
#X connect 11 4 10 0;
#X connect 11 5 3 0;
#X connect 11 6 8 1;
#X connect 12 0 11 0;
#X connect 13 0 12 0;
#X restore 266 73 pd constant-env;
#X obj -148 311 expr~ min(1 \, max(0 \, $v1));
#X obj 121 157 bng 15 250 50 0 empty empty empty 17 7 0 10 -262144
-1 -1;
#X text 136 159 env;
#X text 136 151 reset;
#X obj 1 465 line~;
#X obj -148 441 *~;
#X obj -133 421 vline~;
#X obj -435 -1 del 5;
#X msg -435 150 \$1 \, \$2 \$3;
#X obj -435 230 tabread4~ \$0-tab-L;
#X obj -265 230 tabread4~ \$0-tab-R;
#X obj -94 16 t f f b;
#X obj -94 36 - 3;
#X obj -172 210 t f f f;
#X obj -133 381 f;
#X msg -133 401 0 5 \, 1 5 5 \, 0 5 \$1;
#X msg -148 251 0 \, 8 \$1;
#X floatatom 108 315 9 0 1e+09 0 - - -;
#X obj -316 315 abs;
#X obj -28 134 /;
#X obj -316 355 *;
#X obj -316 375 * 1;
#X obj 126 211 vsl 15 101 0 2 0 0 empty empty empty 0 -9 0 10 -262144
-1 -1 0 1;
#X text 140 252 <;
#X text 118 252 >;
#X obj -316 275 f 0;
#X obj -316 295 - 1;
#X obj -316 415 change;
#X text 108 333 time(ms);
#N canvas 0 22 242 292 calcul-position 0;
#X obj -100 116 snapshot~;
#X obj -78 71 metro 1;
#X obj -55 31 t b b;
#X obj -28 71 metro 50;
#X obj -55 11 inlet;
#X obj -15 11 inlet;
#X obj -100 11 inlet~;
#X obj 25 11 inlet;
#X obj -28 263 outlet;
#X obj 65 11 inlet;
#X obj -28 241 /;
#X obj -100 137 t f f;
#X obj -28 220 f;
#X obj -28 51 del 1;
#X obj 45 154 -;
#X obj 45 174 /;
#X obj 22 242 f;
#X obj 22 263 outlet;
#X obj 72 263 outlet;
#X obj 45 214 t f f;
#X obj -28 91 t b b;
#X obj 45 194 abs;
#X connect 0 0 11 0;
#X connect 1 0 0 0;
#X connect 2 0 1 0;
#X connect 2 1 13 0;
#X connect 3 0 20 0;
#X connect 4 0 2 0;
#X connect 5 0 14 1;
#X connect 6 0 0 0;
#X connect 7 0 15 1;
#X connect 9 0 10 1;
#X connect 10 0 8 0;
#X connect 11 0 12 1;
#X connect 11 1 14 0;
#X connect 12 0 10 0;
#X connect 13 0 3 0;
#X connect 14 0 15 0;
#X connect 15 0 21 0;
#X connect 16 0 17 0;
#X connect 19 0 16 1;
#X connect 19 1 18 0;
#X connect 20 0 12 0;
#X connect 20 1 16 0;
#X connect 21 0 19 0;
#X restore -149 187 pd calcul-position;
#X obj -316 335 t f f;
#X obj -320 93 t f f f;
#X obj -294 113 t f f;
#X obj -94 56 t f f f b f;
#X obj -28 114 f;
#X obj 111 -131 r \$1-play;
#X obj 14 33 spigot \$4;
#X obj -192 523 throw~ \$2-left;
#X obj -101 523 throw~ \$2-right;
#X obj -435 523 s~ \$1-left;
#X obj -265 523 s~ \$1-right;
#X obj -4 523 s \$1-pos;
#X obj 51 523 s \$1-time;
#X obj -316 435 t f f;
#X floatatom 477 391 3 0 0 0 - - -;
#X obj -97 207 * 100;
#X obj -97 227 i;
#X text 468 391 %;
#X obj -97 247 change;
#X text 105 175 --speed--;
#X floatatom 144 191 3 1 999 0 - - -;
#X text 106 190 factor;
#X text 260 477 flxet.web@gmail.com;
#X text 281 465 FLXlib (2009);
#X text 260 490 www.artflx.com;
#X text 260 500 www.artflx.net.tf;
#X obj -94 -64 symbol \$3;
#X msg -94 -24 read -resize \$1 \$2 \$3;
#X obj -316 395 max 5;
#X obj -118 361 - 10;
#X obj -215 321 * -1;
#X obj -253 338 * -1;
#X obj -253 358 + 2;
#X obj -184 321 + 1;
#X obj -223 281 + 0.9;
#X obj -223 301 t b f f;
#X obj -253 318 f;
#X obj -223 261 * 0.1;
#X obj 348 -131 r \$1-loop-start;
#X obj 348 -111 r \$1-loop-end;
#X obj 348 -71 r \$1-speed-factory;
#X obj 348 -91 r \$1-speed-value;
#X obj 394 -22 MemoExt \$1 0;
#X obj 394 -2 MemoExt \$1 1;
#X obj 394 18 MemoExt \$1 2;
#X obj 394 38 MemoExt \$1 3;
#X obj 394 58 MemoExt \$1 4;
#X obj 382 -42 MemoTable \$1 5;
#X obj -123 -110 t b b b b b b;
#X obj 38 150 t b b;
#X obj -435 19 t b b b;
#X obj 172 -131 r \$1-volume;
#X connect 2 0 6 0;
#X connect 2 0 121 0;
#X connect 3 0 7 0;
#X connect 3 0 122 0;
#X connect 5 0 57 0;
#X connect 6 0 77 0;
#X connect 7 0 78 0;
#X connect 8 0 83 0;
#X connect 8 0 85 0;
#X connect 9 0 84 0;
#X connect 9 0 86 0;
#X connect 10 0 50 0;
#X connect 11 0 10 0;
#X connect 12 0 24 0;
#X connect 12 0 120 0;
#X connect 17 0 125 0;
#X connect 19 0 55 0;
#X connect 19 0 56 0;
#X connect 19 0 75 0;
#X connect 21 0 46 0;
#X connect 22 0 8 0;
#X connect 23 0 9 0;
#X connect 24 0 11 0;
#X connect 25 0 21 0;
#X connect 26 0 62 0;
#X connect 27 0 124 0;
#X connect 28 0 54 0;
#X connect 29 0 28 0;
#X connect 30 0 59 0;
#X connect 31 0 38 0;
#X connect 33 0 34 1;
#X connect 34 0 41 0;
#X connect 35 0 38 2;
#X connect 36 0 40 0;
#X connect 37 0 39 1;
#X connect 37 1 39 2;
#X connect 39 0 103 0;
#X connect 40 0 38 3;
#X connect 40 1 37 1;
#X connect 41 0 80 1;
#X connect 42 0 45 0;
#X connect 46 0 51 0;
#X connect 47 0 38 1;
#X connect 50 0 9 1;
#X connect 50 0 8 1;
#X connect 51 0 23 1;
#X connect 51 0 22 1;
#X connect 52 0 51 1;
#X connect 53 0 126 0;
#X connect 54 0 19 0;
#X connect 55 0 22 0;
#X connect 56 0 23 0;
#X connect 57 0 58 0;
#X connect 57 1 34 0;
#X connect 57 2 82 0;
#X connect 58 0 79 0;
#X connect 59 0 28 2;
#X connect 59 1 105 0;
#X connect 59 2 26 1;
#X connect 60 0 61 0;
#X connect 61 0 52 0;
#X connect 62 0 25 0;
#X connect 63 0 112 0;
#X connect 64 0 76 0;
#X connect 65 0 66 1;
#X connect 66 0 67 0;
#X connect 67 0 104 0;
#X connect 68 0 63 0;
#X connect 68 0 119 0;
#X connect 71 0 72 0;
#X connect 72 0 64 0;
#X connect 73 0 89 0;
#X connect 75 0 4 0;
#X connect 75 1 91 0;
#X connect 75 2 87 0;
#X connect 76 0 66 0;
#X connect 76 1 75 3;
#X connect 77 0 29 1;
#X connect 77 1 71 1;
#X connect 77 2 75 2;
#X connect 78 0 28 1;
#X connect 78 1 72 1;
#X connect 79 0 6 1;
#X connect 79 1 7 1;
#X connect 79 2 75 4;
#X connect 79 3 80 0;
#X connect 79 4 65 1;
#X connect 80 0 65 0;
#X connect 81 0 17 0;
#X connect 82 0 37 0;
#X connect 89 0 30 0;
#X connect 89 1 88 0;
#X connect 91 0 92 0;
#X connect 92 0 94 0;
#X connect 94 0 90 0;
#X connect 96 0 113 0;
#X connect 96 0 118 0;
#X connect 102 0 39 0;
#X connect 103 0 5 0;
#X connect 104 0 73 0;
#X connect 105 0 60 1;
#X connect 106 0 107 1;
#X connect 107 0 108 0;
#X connect 108 0 67 1;
#X connect 109 0 108 1;
#X connect 110 0 111 0;
#X connect 111 0 112 0;
#X connect 111 1 106 0;
#X connect 111 2 109 0;
#X connect 112 0 107 0;
#X connect 113 0 110 0;
#X connect 114 0 2 0;
#X connect 115 0 3 0;
#X connect 116 0 96 0;
#X connect 117 0 68 0;
#X connect 118 0 96 0;
#X connect 119 0 68 0;
#X connect 120 0 12 0;
#X connect 121 0 2 0;
#X connect 122 0 3 0;
#X connect 124 0 75 1;
#X connect 124 1 125 0;
#X connect 124 2 102 0;
#X connect 124 3 35 0;
#X connect 124 4 36 0;
#X connect 124 5 33 0;
#X connect 125 0 53 0;
#X connect 125 1 60 0;
#X connect 126 0 29 0;
#X connect 126 1 26 0;
#X connect 126 2 71 0;
#X connect 127 0 12 0;
#X coords 0 -1 1 1 400 310 1 100 100;
